<svg xmlns="http://www.w3.org/2000/svg" viewBox="0 0 850 474" font-family="system-ui, -apple-system, sans-serif">
  <rect width="850" height="474" fill="white"/>
  <text x="425.0" y="46.0" text-anchor="middle" fill="#111827" font-size="13" font-weight="700">PUSH/PULL throughput: mechanism overhead, TCP loopback (omq-compio, higher is better)</text>
  <text x="425.0" y="60.0" text-anchor="middle" fill="#9ca3af" font-size="10">Intel Core i7-8700B @ 3.20GHz, 6 cores, performance governor, turbo off</text>
  <line x1="90" y1="384.0" x2="760" y2="384.0" stroke="#e5e7eb" stroke-width="1"/>
  <text x="82" y="384.0" text-anchor="end" dominant-baseline="middle" fill="#374151" font-size="10">100</text>
  <line x1="90" y1="367.9" x2="760" y2="367.9" stroke="#e5e7eb" stroke-width="1" stroke-dasharray="2,8"/>
  <line x1="90" y1="346.6" x2="760" y2="346.6" stroke="#e5e7eb" stroke-width="1" stroke-dasharray="2,8"/>
  <line x1="90" y1="330.5" x2="760" y2="330.5" stroke="#e5e7eb" stroke-width="1"/>
  <text x="82" y="330.5" text-anchor="end" dominant-baseline="middle" fill="#374151" font-size="10">1k</text>
  <line x1="90" y1="314.4" x2="760" y2="314.4" stroke="#e5e7eb" stroke-width="1" stroke-dasharray="2,8"/>
  <line x1="90" y1="293.1" x2="760" y2="293.1" stroke="#e5e7eb" stroke-width="1" stroke-dasharray="2,8"/>
  <line x1="90" y1="277.0" x2="760" y2="277.0" stroke="#e5e7eb" stroke-width="1"/>
  <text x="82" y="277.0" text-anchor="end" dominant-baseline="middle" fill="#374151" font-size="10">10k</text>
  <line x1="90" y1="260.9" x2="760" y2="260.9" stroke="#e5e7eb" stroke-width="1" stroke-dasharray="2,8"/>
  <line x1="90" y1="239.6" x2="760" y2="239.6" stroke="#e5e7eb" stroke-width="1" stroke-dasharray="2,8"/>
  <line x1="90" y1="223.5" x2="760" y2="223.5" stroke="#e5e7eb" stroke-width="1"/>
  <text x="82" y="223.5" text-anchor="end" dominant-baseline="middle" fill="#374151" font-size="10">100k</text>
  <line x1="90" y1="207.4" x2="760" y2="207.4" stroke="#e5e7eb" stroke-width="1" stroke-dasharray="2,8"/>
  <line x1="90" y1="186.1" x2="760" y2="186.1" stroke="#e5e7eb" stroke-width="1" stroke-dasharray="2,8"/>
  <line x1="90" y1="170.0" x2="760" y2="170.0" stroke="#e5e7eb" stroke-width="1"/>
  <text x="82" y="170.0" text-anchor="end" dominant-baseline="middle" fill="#374151" font-size="10">1M</text>
  <line x1="90" y1="153.9" x2="760" y2="153.9" stroke="#e5e7eb" stroke-width="1" stroke-dasharray="2,8"/>
  <line x1="90" y1="132.6" x2="760" y2="132.6" stroke="#e5e7eb" stroke-width="1" stroke-dasharray="2,8"/>
  <line x1="90" y1="116.5" x2="760" y2="116.5" stroke="#e5e7eb" stroke-width="1"/>
  <text x="82" y="116.5" text-anchor="end" dominant-baseline="middle" fill="#374151" font-size="10">10M</text>
  <line x1="90" y1="100.4" x2="760" y2="100.4" stroke="#e5e7eb" stroke-width="1" stroke-dasharray="2,8"/>
  <line x1="90" y1="79.1" x2="760" y2="79.1" stroke="#e5e7eb" stroke-width="1" stroke-dasharray="2,8"/>
  <line x1="90" y1="63.0" x2="760" y2="63.0" stroke="#e5e7eb" stroke-width="1"/>
  <text x="82" y="63.0" text-anchor="end" dominant-baseline="middle" fill="#374151" font-size="10">100M</text>
  <line x1="90" y1="384.0" x2="760" y2="384.0" stroke="#e5e7eb" stroke-width="1" stroke-dasharray="3,6"/>
  <text x="768" y="384.0" text-anchor="start" dominant-baseline="middle" fill="#6b7280" font-size="10">0.001 GB/s</text>
  <line x1="90" y1="359.8" x2="760" y2="359.8" stroke="#e5e7eb" stroke-width="1" stroke-dasharray="2,8"/>
  <line x1="90" y1="327.9" x2="760" y2="327.9" stroke="#e5e7eb" stroke-width="1" stroke-dasharray="2,8"/>
  <line x1="90" y1="303.8" x2="760" y2="303.8" stroke="#e5e7eb" stroke-width="1" stroke-dasharray="3,6"/>
  <text x="768" y="303.8" text-anchor="start" dominant-baseline="middle" fill="#6b7280" font-size="10">0.01 GB/s</text>
  <line x1="90" y1="279.6" x2="760" y2="279.6" stroke="#e5e7eb" stroke-width="1" stroke-dasharray="2,8"/>
  <line x1="90" y1="247.7" x2="760" y2="247.7" stroke="#e5e7eb" stroke-width="1" stroke-dasharray="2,8"/>
  <line x1="90" y1="223.5" x2="760" y2="223.5" stroke="#e5e7eb" stroke-width="1" stroke-dasharray="3,6"/>
  <text x="768" y="223.5" text-anchor="start" dominant-baseline="middle" fill="#6b7280" font-size="10">0.1 GB/s</text>
  <line x1="90" y1="199.3" x2="760" y2="199.3" stroke="#e5e7eb" stroke-width="1" stroke-dasharray="2,8"/>
  <line x1="90" y1="167.4" x2="760" y2="167.4" stroke="#e5e7eb" stroke-width="1" stroke-dasharray="2,8"/>
  <line x1="90" y1="143.2" x2="760" y2="143.2" stroke="#e5e7eb" stroke-width="1" stroke-dasharray="3,6"/>
  <text x="768" y="143.2" text-anchor="start" dominant-baseline="middle" fill="#6b7280" font-size="10">1 GB/s</text>
  <line x1="90" y1="119.1" x2="760" y2="119.1" stroke="#e5e7eb" stroke-width="1" stroke-dasharray="2,8"/>
  <line x1="90" y1="87.2" x2="760" y2="87.2" stroke="#e5e7eb" stroke-width="1" stroke-dasharray="2,8"/>
  <line x1="90" y1="63.0" x2="760" y2="63.0" stroke="#e5e7eb" stroke-width="1" stroke-dasharray="3,6"/>
  <text x="768" y="63.0" text-anchor="start" dominant-baseline="middle" fill="#6b7280" font-size="10">10 GB/s</text>
  <line x1="90.0" y1="63" x2="90.0" y2="384" stroke="#e5e7eb" stroke-width="1"/>
  <line x1="134.7" y1="63" x2="134.7" y2="384" stroke="#e5e7eb" stroke-width="1"/>
  <line x1="179.3" y1="63" x2="179.3" y2="384" stroke="#e5e7eb" stroke-width="1"/>
  <line x1="224.0" y1="63" x2="224.0" y2="384" stroke="#e5e7eb" stroke-width="1"/>
  <line x1="268.7" y1="63" x2="268.7" y2="384" stroke="#e5e7eb" stroke-width="1"/>
  <line x1="313.3" y1="63" x2="313.3" y2="384" stroke="#e5e7eb" stroke-width="1"/>
  <line x1="358.0" y1="63" x2="358.0" y2="384" stroke="#e5e7eb" stroke-width="1"/>
  <line x1="402.7" y1="63" x2="402.7" y2="384" stroke="#e5e7eb" stroke-width="1"/>
  <line x1="447.3" y1="63" x2="447.3" y2="384" stroke="#e5e7eb" stroke-width="1"/>
  <line x1="492.0" y1="63" x2="492.0" y2="384" stroke="#e5e7eb" stroke-width="1"/>
  <line x1="536.7" y1="63" x2="536.7" y2="384" stroke="#e5e7eb" stroke-width="1"/>
  <line x1="581.3" y1="63" x2="581.3" y2="384" stroke="#e5e7eb" stroke-width="1"/>
  <line x1="626.0" y1="63" x2="626.0" y2="384" stroke="#e5e7eb" stroke-width="1"/>
  <line x1="670.7" y1="63" x2="670.7" y2="384" stroke="#e5e7eb" stroke-width="1"/>
  <line x1="715.3" y1="63" x2="715.3" y2="384" stroke="#e5e7eb" stroke-width="1"/>
  <line x1="760.0" y1="63" x2="760.0" y2="384" stroke="#e5e7eb" stroke-width="1"/>
  <line x1="90" y1="63" x2="90" y2="384" stroke="#9ca3af" stroke-width="1.5"/>
  <line x1="760" y1="63" x2="760" y2="384" stroke="#9ca3af" stroke-width="1.5"/>
  <line x1="90" y1="384" x2="760" y2="384" stroke="#9ca3af" stroke-width="1.5"/>
  <text x="90.0" y="398" text-anchor="middle" fill="#374151" font-size="8.5">8 B</text>
  <text x="134.7" y="398" text-anchor="middle" fill="#374151" font-size="8.5">16 B</text>
  <text x="179.3" y="398" text-anchor="middle" fill="#374151" font-size="8.5">32 B</text>
  <text x="224.0" y="398" text-anchor="middle" fill="#374151" font-size="8.5">64 B</text>
  <text x="268.7" y="398" text-anchor="middle" fill="#374151" font-size="8.5">128 B</text>
  <text x="313.3" y="398" text-anchor="middle" fill="#374151" font-size="8.5">256 B</text>
  <text x="358.0" y="398" text-anchor="middle" fill="#374151" font-size="8.5">512 B</text>
  <text x="402.7" y="398" text-anchor="middle" fill="#374151" font-size="8.5">1 KiB</text>
  <text x="447.3" y="398" text-anchor="middle" fill="#374151" font-size="8.5">2 KiB</text>
  <text x="492.0" y="398" text-anchor="middle" fill="#374151" font-size="8.5">4 KiB</text>
  <text x="536.7" y="398" text-anchor="middle" fill="#374151" font-size="8.5">8 KiB</text>
  <text x="581.3" y="398" text-anchor="middle" fill="#374151" font-size="8.5">16 KiB</text>
  <text x="626.0" y="398" text-anchor="middle" fill="#374151" font-size="8.5">32 KiB</text>
  <text x="670.7" y="398" text-anchor="middle" fill="#374151" font-size="8.5">64 KiB</text>
  <text x="715.3" y="398" text-anchor="middle" fill="#374151" font-size="8.5">128 KiB</text>
  <text x="760.0" y="398" text-anchor="middle" fill="#374151" font-size="8.5">256 KiB</text>
  <text x="40" y="223.5" text-anchor="middle" dominant-baseline="middle" fill="#374151" font-size="10" font-weight="600" transform="rotate(-90,40,223.5)">msg/s</text>
  <polyline points="90.0,105.5 134.7,106.3 179.3,109.8 224.0,120.6 268.7,126.5 313.3,134.7 358.0,142.7 402.7,153.1 447.3,162.7 492.0,176.6 536.7,192.3 581.3,205.6 626.0,218.6 670.7,234.0 715.3,241.0 760.0,256.4" fill="none" stroke="#374151" stroke-width="2" stroke-dasharray="6,4"/>
  <polyline points="90.0,186.0 134.7,186.3 179.3,187.7 224.0,192.1 268.7,193.7 313.3,196.3 358.0,201.1 402.7,208.8 447.3,218.5 492.0,235.6 536.7,276.1 581.3,304.0 626.0,338.9 670.7,365.1 715.3,306.7 760.0,322.8" fill="none" stroke="#dc2626" stroke-width="2" stroke-dasharray="6,4"/>
  <polyline points="90.0,167.2 134.7,167.1 179.3,167.3 224.0,169.7 268.7,172.6 313.3,175.3 358.0,182.2 402.7,193.0 447.3,204.9 492.0,215.7 536.7,258.4 581.3,281.3 626.0,308.3 670.7,344.5 715.3,373.7 760.0,302.2" fill="none" stroke="#2563eb" stroke-width="2" stroke-dasharray="6,4"/>
  <polyline points="90.0,214.7 134.7,191.8 179.3,172.9 224.0,165.0 268.7,149.7 313.3,137.8 358.0,125.6 402.7,117.1 447.3,107.3 492.0,104.0 536.7,103.4 581.3,99.1 626.0,94.6 670.7,93.5 715.3,79.8 760.0,78.8" fill="none" stroke="#374151" stroke-width="2.5" stroke-linecap="round" stroke-linejoin="round"/>
  <circle cx="90.0" cy="214.7" r="3" fill="#374151" stroke="white" stroke-width="1"/>
  <circle cx="134.7" cy="191.8" r="3" fill="#374151" stroke="white" stroke-width="1"/>
  <circle cx="179.3" cy="172.9" r="3" fill="#374151" stroke="white" stroke-width="1"/>
  <circle cx="224.0" cy="165.0" r="3" fill="#374151" stroke="white" stroke-width="1"/>
  <circle cx="268.7" cy="149.7" r="3" fill="#374151" stroke="white" stroke-width="1"/>
  <circle cx="313.3" cy="137.8" r="3" fill="#374151" stroke="white" stroke-width="1"/>
  <circle cx="358.0" cy="125.6" r="3" fill="#374151" stroke="white" stroke-width="1"/>
  <circle cx="402.7" cy="117.1" r="3" fill="#374151" stroke="white" stroke-width="1"/>
  <circle cx="447.3" cy="107.3" r="3" fill="#374151" stroke="white" stroke-width="1"/>
  <circle cx="492.0" cy="104.0" r="3" fill="#374151" stroke="white" stroke-width="1"/>
  <circle cx="536.7" cy="103.4" r="3" fill="#374151" stroke="white" stroke-width="1"/>
  <circle cx="581.3" cy="99.1" r="3" fill="#374151" stroke="white" stroke-width="1"/>
  <circle cx="626.0" cy="94.6" r="3" fill="#374151" stroke="white" stroke-width="1"/>
  <circle cx="670.7" cy="93.5" r="3" fill="#374151" stroke="white" stroke-width="1"/>
  <circle cx="715.3" cy="79.8" r="3" fill="#374151" stroke="white" stroke-width="1"/>
  <circle cx="760.0" cy="78.8" r="3" fill="#374151" stroke="white" stroke-width="1"/>
  <polyline points="90.0,335.6 134.7,311.9 179.3,289.7 224.0,272.2 268.7,250.5 313.3,230.2 358.0,213.2 402.7,200.7 447.3,191.1 492.0,192.6 536.7,229.1 581.3,246.7 626.0,275.0 670.7,290.1 715.3,178.4 760.0,178.4" fill="none" stroke="#dc2626" stroke-width="2.5" stroke-linecap="round" stroke-linejoin="round"/>
  <circle cx="90.0" cy="335.6" r="3" fill="#dc2626" stroke="white" stroke-width="1"/>
  <circle cx="134.7" cy="311.9" r="3" fill="#dc2626" stroke="white" stroke-width="1"/>
  <circle cx="179.3" cy="289.7" r="3" fill="#dc2626" stroke="white" stroke-width="1"/>
  <circle cx="224.0" cy="272.2" r="3" fill="#dc2626" stroke="white" stroke-width="1"/>
  <circle cx="268.7" cy="250.5" r="3" fill="#dc2626" stroke="white" stroke-width="1"/>
  <circle cx="313.3" cy="230.2" r="3" fill="#dc2626" stroke="white" stroke-width="1"/>
  <circle cx="358.0" cy="213.2" r="3" fill="#dc2626" stroke="white" stroke-width="1"/>
  <circle cx="402.7" cy="200.7" r="3" fill="#dc2626" stroke="white" stroke-width="1"/>
  <circle cx="447.3" cy="191.1" r="3" fill="#dc2626" stroke="white" stroke-width="1"/>
  <circle cx="492.0" cy="192.6" r="3" fill="#dc2626" stroke="white" stroke-width="1"/>
  <circle cx="536.7" cy="229.1" r="3" fill="#dc2626" stroke="white" stroke-width="1"/>
  <circle cx="581.3" cy="246.7" r="3" fill="#dc2626" stroke="white" stroke-width="1"/>
  <circle cx="626.0" cy="275.0" r="3" fill="#dc2626" stroke="white" stroke-width="1"/>
  <circle cx="670.7" cy="290.1" r="3" fill="#dc2626" stroke="white" stroke-width="1"/>
  <circle cx="715.3" cy="178.4" r="3" fill="#dc2626" stroke="white" stroke-width="1"/>
  <circle cx="760.0" cy="178.4" r="3" fill="#dc2626" stroke="white" stroke-width="1"/>
  <polyline points="90.0,307.3 134.7,283.0 179.3,259.1 224.0,238.6 268.7,218.8 313.3,198.7 358.0,184.8 402.7,177.0 447.3,170.6 492.0,162.7 536.7,202.5 581.3,212.8 626.0,229.0 670.7,259.2 715.3,278.8 760.0,147.4" fill="none" stroke="#2563eb" stroke-width="2.5" stroke-linecap="round" stroke-linejoin="round"/>
  <circle cx="90.0" cy="307.3" r="3" fill="#2563eb" stroke="white" stroke-width="1"/>
  <circle cx="134.7" cy="283.0" r="3" fill="#2563eb" stroke="white" stroke-width="1"/>
  <circle cx="179.3" cy="259.1" r="3" fill="#2563eb" stroke="white" stroke-width="1"/>
  <circle cx="224.0" cy="238.6" r="3" fill="#2563eb" stroke="white" stroke-width="1"/>
  <circle cx="268.7" cy="218.8" r="3" fill="#2563eb" stroke="white" stroke-width="1"/>
  <circle cx="313.3" cy="198.7" r="3" fill="#2563eb" stroke="white" stroke-width="1"/>
  <circle cx="358.0" cy="184.8" r="3" fill="#2563eb" stroke="white" stroke-width="1"/>
  <circle cx="402.7" cy="177.0" r="3" fill="#2563eb" stroke="white" stroke-width="1"/>
  <circle cx="447.3" cy="170.6" r="3" fill="#2563eb" stroke="white" stroke-width="1"/>
  <circle cx="492.0" cy="162.7" r="3" fill="#2563eb" stroke="white" stroke-width="1"/>
  <circle cx="536.7" cy="202.5" r="3" fill="#2563eb" stroke="white" stroke-width="1"/>
  <circle cx="581.3" cy="212.8" r="3" fill="#2563eb" stroke="white" stroke-width="1"/>
  <circle cx="626.0" cy="229.0" r="3" fill="#2563eb" stroke="white" stroke-width="1"/>
  <circle cx="670.7" cy="259.2" r="3" fill="#2563eb" stroke="white" stroke-width="1"/>
  <circle cx="715.3" cy="278.8" r="3" fill="#2563eb" stroke="white" stroke-width="1"/>
  <circle cx="760.0" cy="147.4" r="3" fill="#2563eb" stroke="white" stroke-width="1"/>
  <line x1="215" y1="424" x2="229" y2="424" stroke="#374151" stroke-width="2.5"/>
  <circle cx="222" cy="424" r="2.5" fill="#374151"/>
  <text x="235" y="428" fill="#374151" font-size="11" font-weight="500">PLAIN</text>
  <line x1="355" y1="424" x2="369" y2="424" stroke="#dc2626" stroke-width="2.5"/>
  <circle cx="362" cy="424" r="2.5" fill="#dc2626"/>
  <text x="375" y="428" fill="#374151" font-size="11" font-weight="500">CURVE</text>
  <line x1="495" y1="424" x2="509" y2="424" stroke="#2563eb" stroke-width="2.5"/>
  <circle cx="502" cy="424" r="2.5" fill="#2563eb"/>
  <text x="515" y="428" fill="#374151" font-size="11" font-weight="500">BLAKE3ZMQ</text>
  <line x1="255" y1="446" x2="275" y2="446" stroke="#6b7280" stroke-width="2" stroke-dasharray="6,4"/>
  <text x="281" y="450" fill="#6b7280" font-size="10">msg/s (left axis, log)</text>
  <line x1="435" y1="446" x2="455" y2="446" stroke="#6b7280" stroke-width="2"/>
  <circle cx="445" cy="446" r="2" fill="#6b7280"/>
  <text x="461" y="450" fill="#6b7280" font-size="10">throughput / GB/s (right axis, log)</text>
</svg>
