<svg xmlns="http://www.w3.org/2000/svg" viewBox="0 0 850 440" font-family="system-ui, -apple-system, sans-serif">
  <rect width="850" height="440" fill="white"/>
  <line x1="90" y1="350.0" x2="760" y2="350.0" stroke="#e5e7eb" stroke-width="1"/>
  <text x="82" y="350.0" text-anchor="end" dominant-baseline="middle" fill="#374151" font-size="10">0</text>
  <line x1="90" y1="289.0" x2="760" y2="289.0" stroke="#e5e7eb" stroke-width="1"/>
  <text x="82" y="289.0" text-anchor="end" dominant-baseline="middle" fill="#374151" font-size="10">2M</text>
  <line x1="90" y1="228.0" x2="760" y2="228.0" stroke="#e5e7eb" stroke-width="1"/>
  <text x="82" y="228.0" text-anchor="end" dominant-baseline="middle" fill="#374151" font-size="10">4M</text>
  <line x1="90" y1="167.0" x2="760" y2="167.0" stroke="#e5e7eb" stroke-width="1"/>
  <text x="82" y="167.0" text-anchor="end" dominant-baseline="middle" fill="#374151" font-size="10">6M</text>
  <line x1="90" y1="106.0" x2="760" y2="106.0" stroke="#e5e7eb" stroke-width="1"/>
  <text x="82" y="106.0" text-anchor="end" dominant-baseline="middle" fill="#374151" font-size="10">8M</text>
  <line x1="90" y1="45.0" x2="760" y2="45.0" stroke="#e5e7eb" stroke-width="1"/>
  <text x="82" y="45.0" text-anchor="end" dominant-baseline="middle" fill="#374151" font-size="10">10M</text>
  <line x1="90" y1="289.0" x2="760" y2="289.0" stroke="#e5e7eb" stroke-width="1" stroke-dasharray="3,6"/>
  <text x="768" y="289.0" text-anchor="start" dominant-baseline="middle" fill="#6b7280" font-size="10">2 GB/s</text>
  <line x1="90" y1="228.0" x2="760" y2="228.0" stroke="#e5e7eb" stroke-width="1" stroke-dasharray="3,6"/>
  <text x="768" y="228.0" text-anchor="start" dominant-baseline="middle" fill="#6b7280" font-size="10">4 GB/s</text>
  <line x1="90" y1="167.0" x2="760" y2="167.0" stroke="#e5e7eb" stroke-width="1" stroke-dasharray="3,6"/>
  <text x="768" y="167.0" text-anchor="start" dominant-baseline="middle" fill="#6b7280" font-size="10">6 GB/s</text>
  <line x1="90" y1="106.0" x2="760" y2="106.0" stroke="#e5e7eb" stroke-width="1" stroke-dasharray="3,6"/>
  <text x="768" y="106.0" text-anchor="start" dominant-baseline="middle" fill="#6b7280" font-size="10">8 GB/s</text>
  <line x1="90.0" y1="45" x2="90.0" y2="350" stroke="#e5e7eb" stroke-width="1"/>
  <line x1="313.3" y1="45" x2="313.3" y2="350" stroke="#e5e7eb" stroke-width="1"/>
  <line x1="536.7" y1="45" x2="536.7" y2="350" stroke="#e5e7eb" stroke-width="1"/>
  <line x1="760.0" y1="45" x2="760.0" y2="350" stroke="#e5e7eb" stroke-width="1"/>
  <line x1="90" y1="45" x2="90" y2="350" stroke="#9ca3af" stroke-width="1.5"/>
  <line x1="760" y1="45" x2="760" y2="350" stroke="#9ca3af" stroke-width="1.5"/>
  <line x1="90" y1="350" x2="760" y2="350" stroke="#9ca3af" stroke-width="1.5"/>
  <text x="90.0" y="366" text-anchor="middle" fill="#374151" font-size="9.5">128 B</text>
  <text x="313.3" y="366" text-anchor="middle" fill="#374151" font-size="9.5">2 KiB</text>
  <text x="536.7" y="366" text-anchor="middle" fill="#374151" font-size="9.5">8 KiB</text>
  <text x="760.0" y="366" text-anchor="middle" fill="#374151" font-size="9.5">64 KiB</text>
  <text x="40" y="197.5" text-anchor="middle" dominant-baseline="middle" fill="#374151" font-size="11" font-weight="600" transform="rotate(-90,40,197.5)">msg/s</text>
  <text x="812" y="197.5" text-anchor="middle" dominant-baseline="middle" fill="#6b7280" font-size="11" font-weight="600" transform="rotate(90,812,197.5)">throughput</text>
  <text x="425.0" y="22" text-anchor="middle" fill="#111827" font-size="14" font-weight="700">PUSH/PULL throughput: mechanism overhead (omq-compio, TCP)</text>
  <polyline points="90.0,218.2 313.3,311.2 536.7,337.8 760.0,348.4" fill="none" stroke="#9ca3af" stroke-width="2" stroke-dasharray="6,4"/>
  <polyline points="90.0,157.8 313.3,309.6 536.7,337.2 760.0,348.3" fill="none" stroke="#374151" stroke-width="2" stroke-dasharray="6,4"/>
  <polyline points="90.0,339.2 313.3,346.4 536.7,348.8 760.0,349.8" fill="none" stroke="#dc2626" stroke-width="2" stroke-dasharray="6,4"/>
  <polyline points="90.0,324.1 313.3,343.3 536.7,347.5 760.0,349.6" fill="none" stroke="#2563eb" stroke-width="2" stroke-dasharray="6,4"/>
  <polyline points="90.0,333.5 313.3,272.4 536.7,252.0 760.0,245.8" fill="none" stroke="#9ca3af" stroke-width="2.5" stroke-linecap="round" stroke-linejoin="round"/>
  <circle cx="90.0" cy="333.5" r="3" fill="#9ca3af" stroke="white" stroke-width="1"/>
  <circle cx="313.3" cy="272.4" r="3" fill="#9ca3af" stroke="white" stroke-width="1"/>
  <circle cx="536.7" cy="252.0" r="3" fill="#9ca3af" stroke="white" stroke-width="1"/>
  <circle cx="760.0" cy="245.8" r="3" fill="#9ca3af" stroke="white" stroke-width="1"/>
  <polyline points="90.0,326.0 313.3,269.3 536.7,247.6 760.0,240.8" fill="none" stroke="#374151" stroke-width="2.5" stroke-linecap="round" stroke-linejoin="round"/>
  <circle cx="90.0" cy="326.0" r="3" fill="#374151" stroke="white" stroke-width="1"/>
  <circle cx="313.3" cy="269.3" r="3" fill="#374151" stroke="white" stroke-width="1"/>
  <circle cx="536.7" cy="247.6" r="3" fill="#374151" stroke="white" stroke-width="1"/>
  <circle cx="760.0" cy="240.8" r="3" fill="#374151" stroke="white" stroke-width="1"/>
  <polyline points="90.0,348.6 313.3,342.9 536.7,340.3 760.0,339.4" fill="none" stroke="#dc2626" stroke-width="2.5" stroke-linecap="round" stroke-linejoin="round"/>
  <circle cx="90.0" cy="348.6" r="3" fill="#dc2626" stroke="white" stroke-width="1"/>
  <circle cx="313.3" cy="342.9" r="3" fill="#dc2626" stroke="white" stroke-width="1"/>
  <circle cx="536.7" cy="340.3" r="3" fill="#dc2626" stroke="white" stroke-width="1"/>
  <circle cx="760.0" cy="339.4" r="3" fill="#dc2626" stroke="white" stroke-width="1"/>
  <polyline points="90.0,346.8 313.3,336.6 536.7,330.3 760.0,324.6" fill="none" stroke="#2563eb" stroke-width="2.5" stroke-linecap="round" stroke-linejoin="round"/>
  <circle cx="90.0" cy="346.8" r="3" fill="#2563eb" stroke="white" stroke-width="1"/>
  <circle cx="313.3" cy="336.6" r="3" fill="#2563eb" stroke="white" stroke-width="1"/>
  <circle cx="536.7" cy="330.3" r="3" fill="#2563eb" stroke="white" stroke-width="1"/>
  <circle cx="760.0" cy="324.6" r="3" fill="#2563eb" stroke="white" stroke-width="1"/>
  <line x1="107" y1="388" x2="121" y2="388" stroke="#9ca3af" stroke-width="2" stroke-dasharray="4,3"/>
  <line x1="107" y1="400" x2="121" y2="400" stroke="#9ca3af" stroke-width="2.5"/>
  <text x="125" y="392" fill="#374151" font-size="10" font-weight="500">NULL</text>
  <line x1="277" y1="388" x2="291" y2="388" stroke="#374151" stroke-width="2" stroke-dasharray="4,3"/>
  <line x1="277" y1="400" x2="291" y2="400" stroke="#374151" stroke-width="2.5"/>
  <text x="295" y="392" fill="#374151" font-size="10" font-weight="500">PLAIN</text>
  <line x1="477" y1="388" x2="491" y2="388" stroke="#dc2626" stroke-width="2" stroke-dasharray="4,3"/>
  <line x1="477" y1="400" x2="491" y2="400" stroke="#dc2626" stroke-width="2.5"/>
  <text x="495" y="392" fill="#374151" font-size="10" font-weight="500">CURVE</text>
  <line x1="647" y1="388" x2="661" y2="388" stroke="#2563eb" stroke-width="2" stroke-dasharray="4,3"/>
  <line x1="647" y1="400" x2="661" y2="400" stroke="#2563eb" stroke-width="2.5"/>
  <text x="665" y="392" fill="#374151" font-size="10" font-weight="500">BLAKE3ZMQ</text>
  <text x="425.0" y="418" text-anchor="middle" fill="#9ca3af" font-size="9">dashed = msg/s (left) · solid = throughput (right)</text>
</svg>
