<svg xmlns="http://www.w3.org/2000/svg" viewBox="0 0 850 440" font-family="system-ui, -apple-system, sans-serif">
  <rect width="850" height="440" fill="white"/>
  <line x1="90" y1="350.0" x2="760" y2="350.0" stroke="#e5e7eb" stroke-width="1"/>
  <text x="82" y="350.0" text-anchor="end" dominant-baseline="middle" fill="#374151" font-size="10">0</text>
  <line x1="90" y1="289.0" x2="760" y2="289.0" stroke="#e5e7eb" stroke-width="1"/>
  <text x="82" y="289.0" text-anchor="end" dominant-baseline="middle" fill="#374151" font-size="10">1M</text>
  <line x1="90" y1="228.0" x2="760" y2="228.0" stroke="#e5e7eb" stroke-width="1"/>
  <text x="82" y="228.0" text-anchor="end" dominant-baseline="middle" fill="#374151" font-size="10">2M</text>
  <line x1="90" y1="167.0" x2="760" y2="167.0" stroke="#e5e7eb" stroke-width="1"/>
  <text x="82" y="167.0" text-anchor="end" dominant-baseline="middle" fill="#374151" font-size="10">3M</text>
  <line x1="90" y1="106.0" x2="760" y2="106.0" stroke="#e5e7eb" stroke-width="1"/>
  <text x="82" y="106.0" text-anchor="end" dominant-baseline="middle" fill="#374151" font-size="10">4M</text>
  <line x1="90" y1="45.0" x2="760" y2="45.0" stroke="#e5e7eb" stroke-width="1"/>
  <text x="82" y="45.0" text-anchor="end" dominant-baseline="middle" fill="#374151" font-size="10">5M</text>
  <line x1="90" y1="289.0" x2="760" y2="289.0" stroke="#e5e7eb" stroke-width="1" stroke-dasharray="3,6"/>
  <text x="768" y="289.0" text-anchor="start" dominant-baseline="middle" fill="#6b7280" font-size="10">2 GB/s</text>
  <line x1="90" y1="228.0" x2="760" y2="228.0" stroke="#e5e7eb" stroke-width="1" stroke-dasharray="3,6"/>
  <text x="768" y="228.0" text-anchor="start" dominant-baseline="middle" fill="#6b7280" font-size="10">4 GB/s</text>
  <line x1="90" y1="167.0" x2="760" y2="167.0" stroke="#e5e7eb" stroke-width="1" stroke-dasharray="3,6"/>
  <text x="768" y="167.0" text-anchor="start" dominant-baseline="middle" fill="#6b7280" font-size="10">6 GB/s</text>
  <line x1="90" y1="106.0" x2="760" y2="106.0" stroke="#e5e7eb" stroke-width="1" stroke-dasharray="3,6"/>
  <text x="768" y="106.0" text-anchor="start" dominant-baseline="middle" fill="#6b7280" font-size="10">8 GB/s</text>
  <line x1="90.0" y1="45" x2="90.0" y2="350" stroke="#e5e7eb" stroke-width="1"/>
  <line x1="313.3" y1="45" x2="313.3" y2="350" stroke="#e5e7eb" stroke-width="1"/>
  <line x1="536.7" y1="45" x2="536.7" y2="350" stroke="#e5e7eb" stroke-width="1"/>
  <line x1="760.0" y1="45" x2="760.0" y2="350" stroke="#e5e7eb" stroke-width="1"/>
  <line x1="90" y1="45" x2="90" y2="350" stroke="#9ca3af" stroke-width="1.5"/>
  <line x1="760" y1="45" x2="760" y2="350" stroke="#9ca3af" stroke-width="1.5"/>
  <line x1="90" y1="350" x2="760" y2="350" stroke="#9ca3af" stroke-width="1.5"/>
  <text x="90.0" y="366" text-anchor="middle" fill="#374151" font-size="9.5">128 B</text>
  <text x="313.3" y="366" text-anchor="middle" fill="#374151" font-size="9.5">2 KiB</text>
  <text x="536.7" y="366" text-anchor="middle" fill="#374151" font-size="9.5">8 KiB</text>
  <text x="760.0" y="366" text-anchor="middle" fill="#374151" font-size="9.5">64 KiB</text>
  <text x="40" y="197.5" text-anchor="middle" dominant-baseline="middle" fill="#374151" font-size="11" font-weight="600" transform="rotate(-90,40,197.5)">msg/s</text>
  <text x="812" y="197.5" text-anchor="middle" dominant-baseline="middle" fill="#6b7280" font-size="11" font-weight="600" transform="rotate(90,812,197.5)">throughput</text>
  <text x="425.0" y="22" text-anchor="middle" fill="#111827" font-size="14" font-weight="700">PUSH/PULL throughput: mechanism overhead (omq-tokio, TCP)</text>
  <polyline points="90.0,147.4 313.3,259.9 536.7,333.9 760.0,347.1" fill="none" stroke="#9ca3af" stroke-width="2" stroke-dasharray="6,4"/>
  <polyline points="90.0,136.9 313.3,261.6 536.7,331.3 760.0,347.6" fill="none" stroke="#374151" stroke-width="2" stroke-dasharray="6,4"/>
  <polyline points="90.0,344.7 313.3,346.4 536.7,348.2 760.0,349.7" fill="none" stroke="#dc2626" stroke-width="2" stroke-dasharray="6,4"/>
  <polyline points="90.0,343.6 313.3,345.3 536.7,347.0 760.0,349.3" fill="none" stroke="#2563eb" stroke-width="2" stroke-dasharray="6,4"/>
  <polyline points="90.0,337.3 313.3,259.9 536.7,285.6 760.0,257.8" fill="none" stroke="#9ca3af" stroke-width="2.5" stroke-linecap="round" stroke-linejoin="round"/>
  <circle cx="90.0" cy="337.3" r="3" fill="#9ca3af" stroke="white" stroke-width="1"/>
  <circle cx="313.3" cy="259.9" r="3" fill="#9ca3af" stroke="white" stroke-width="1"/>
  <circle cx="536.7" cy="285.6" r="3" fill="#9ca3af" stroke="white" stroke-width="1"/>
  <circle cx="760.0" cy="257.8" r="3" fill="#9ca3af" stroke="white" stroke-width="1"/>
  <polyline points="90.0,336.7 313.3,261.6 536.7,275.4 760.0,273.2" fill="none" stroke="#374151" stroke-width="2.5" stroke-linecap="round" stroke-linejoin="round"/>
  <circle cx="90.0" cy="336.7" r="3" fill="#374151" stroke="white" stroke-width="1"/>
  <circle cx="313.3" cy="261.6" r="3" fill="#374151" stroke="white" stroke-width="1"/>
  <circle cx="536.7" cy="275.4" r="3" fill="#374151" stroke="white" stroke-width="1"/>
  <circle cx="760.0" cy="273.2" r="3" fill="#374151" stroke="white" stroke-width="1"/>
  <polyline points="90.0,349.7 313.3,346.4 536.7,342.8 760.0,339.6" fill="none" stroke="#dc2626" stroke-width="2.5" stroke-linecap="round" stroke-linejoin="round"/>
  <circle cx="90.0" cy="349.7" r="3" fill="#dc2626" stroke="white" stroke-width="1"/>
  <circle cx="313.3" cy="346.4" r="3" fill="#dc2626" stroke="white" stroke-width="1"/>
  <circle cx="536.7" cy="342.8" r="3" fill="#dc2626" stroke="white" stroke-width="1"/>
  <circle cx="760.0" cy="339.6" r="3" fill="#dc2626" stroke="white" stroke-width="1"/>
  <polyline points="90.0,349.6 313.3,345.3 536.7,338.1 760.0,328.7" fill="none" stroke="#2563eb" stroke-width="2.5" stroke-linecap="round" stroke-linejoin="round"/>
  <circle cx="90.0" cy="349.6" r="3" fill="#2563eb" stroke="white" stroke-width="1"/>
  <circle cx="313.3" cy="345.3" r="3" fill="#2563eb" stroke="white" stroke-width="1"/>
  <circle cx="536.7" cy="338.1" r="3" fill="#2563eb" stroke="white" stroke-width="1"/>
  <circle cx="760.0" cy="328.7" r="3" fill="#2563eb" stroke="white" stroke-width="1"/>
  <line x1="107" y1="388" x2="121" y2="388" stroke="#9ca3af" stroke-width="2" stroke-dasharray="4,3"/>
  <line x1="107" y1="400" x2="121" y2="400" stroke="#9ca3af" stroke-width="2.5"/>
  <text x="125" y="392" fill="#374151" font-size="10" font-weight="500">NULL</text>
  <line x1="277" y1="388" x2="291" y2="388" stroke="#374151" stroke-width="2" stroke-dasharray="4,3"/>
  <line x1="277" y1="400" x2="291" y2="400" stroke="#374151" stroke-width="2.5"/>
  <text x="295" y="392" fill="#374151" font-size="10" font-weight="500">PLAIN</text>
  <line x1="477" y1="388" x2="491" y2="388" stroke="#dc2626" stroke-width="2" stroke-dasharray="4,3"/>
  <line x1="477" y1="400" x2="491" y2="400" stroke="#dc2626" stroke-width="2.5"/>
  <text x="495" y="392" fill="#374151" font-size="10" font-weight="500">CURVE</text>
  <line x1="647" y1="388" x2="661" y2="388" stroke="#2563eb" stroke-width="2" stroke-dasharray="4,3"/>
  <line x1="647" y1="400" x2="661" y2="400" stroke="#2563eb" stroke-width="2.5"/>
  <text x="665" y="392" fill="#374151" font-size="10" font-weight="500">BLAKE3ZMQ</text>
  <text x="425.0" y="418" text-anchor="middle" fill="#9ca3af" font-size="9">dashed = msg/s (left) · solid = throughput (right)</text>
</svg>
