<svg xmlns="http://www.w3.org/2000/svg" viewBox="0 0 875 1077" font-family="system-ui, -apple-system, sans-serif">
  <rect width="875" height="1077" fill="white"/>
  <text x="395.0" y="46" text-anchor="middle" fill="#9ca3af" font-size="10">Linux VM on a 2018 Mac Mini, Intel Core i7-8700B @ 3.20GHz, 6 cores, performance governor, turbo off</text>
  <text x="395.0" y="32.0" text-anchor="middle" fill="#111827" font-size="13" font-weight="700">PUB/SUB throughput, 1 subscriber: TCP loopback</text>
  <line x1="90.0" y1="276.5" x2="700.0" y2="276.5" stroke="#e5e7eb" stroke-width="1"/>
  <text x="82.0" y="276.5" text-anchor="end" dominant-baseline="middle" fill="#374151" font-size="10">50%</text>
  <line x1="90.0" y1="244.0" x2="700.0" y2="244.0" stroke="#e5e7eb" stroke-width="1"/>
  <text x="82.0" y="244.0" text-anchor="end" dominant-baseline="middle" fill="#374151" font-size="10">100%</text>
  <line x1="90.0" y1="211.5" x2="700.0" y2="211.5" stroke="#e5e7eb" stroke-width="1"/>
  <text x="82.0" y="211.5" text-anchor="end" dominant-baseline="middle" fill="#374151" font-size="10">150%</text>
  <line x1="90.0" y1="179.0" x2="700.0" y2="179.0" stroke="#e5e7eb" stroke-width="1"/>
  <text x="82.0" y="179.0" text-anchor="end" dominant-baseline="middle" fill="#374151" font-size="10">200%</text>
  <line x1="90.0" y1="146.5" x2="700.0" y2="146.5" stroke="#e5e7eb" stroke-width="1"/>
  <text x="82.0" y="146.5" text-anchor="end" dominant-baseline="middle" fill="#374151" font-size="10">250%</text>
  <line x1="90.0" y1="114.0" x2="700.0" y2="114.0" stroke="#e5e7eb" stroke-width="1"/>
  <text x="82.0" y="114.0" text-anchor="end" dominant-baseline="middle" fill="#374151" font-size="10">300%</text>
  <line x1="90.0" y1="81.5" x2="700.0" y2="81.5" stroke="#e5e7eb" stroke-width="1"/>
  <text x="82.0" y="81.5" text-anchor="end" dominant-baseline="middle" fill="#374151" font-size="10">350%</text>
  <line x1="90.0" y1="49.0" x2="700.0" y2="49.0" stroke="#e5e7eb" stroke-width="1"/>
  <text x="82.0" y="49.0" text-anchor="end" dominant-baseline="middle" fill="#374151" font-size="10">400%</text>
  <line x1="90.0" y1="250.5" x2="700.0" y2="250.5" stroke="#e5e7eb" stroke-width="1" stroke-dasharray="3,6"/>
  <text x="708.0" y="250.5" text-anchor="start" dominant-baseline="middle" fill="#6b7280" font-size="10">1 GB/s</text>
  <line x1="90.0" y1="192.0" x2="700.0" y2="192.0" stroke="#e5e7eb" stroke-width="1" stroke-dasharray="3,6"/>
  <text x="708.0" y="192.0" text-anchor="start" dominant-baseline="middle" fill="#6b7280" font-size="10">2 GB/s</text>
  <line x1="90.0" y1="133.5" x2="700.0" y2="133.5" stroke="#e5e7eb" stroke-width="1" stroke-dasharray="3,6"/>
  <text x="708.0" y="133.5" text-anchor="start" dominant-baseline="middle" fill="#6b7280" font-size="10">3 GB/s</text>
  <line x1="90.0" y1="75.0" x2="700.0" y2="75.0" stroke="#e5e7eb" stroke-width="1" stroke-dasharray="3,6"/>
  <text x="708.0" y="75.0" text-anchor="start" dominant-baseline="middle" fill="#6b7280" font-size="10">4 GB/s</text>
  <text x="788.0" y="275.3" text-anchor="start" dominant-baseline="middle" fill="#9ca3af" font-size="10">1M/s</text>
  <text x="788.0" y="241.6" text-anchor="start" dominant-baseline="middle" fill="#9ca3af" font-size="10">2M/s</text>
  <text x="788.0" y="207.8" text-anchor="start" dominant-baseline="middle" fill="#9ca3af" font-size="10">3M/s</text>
  <text x="788.0" y="174.1" text-anchor="start" dominant-baseline="middle" fill="#9ca3af" font-size="10">4M/s</text>
  <text x="788.0" y="140.4" text-anchor="start" dominant-baseline="middle" fill="#9ca3af" font-size="10">5M/s</text>
  <text x="788.0" y="106.7" text-anchor="start" dominant-baseline="middle" fill="#9ca3af" font-size="10">6M/s</text>
  <text x="788.0" y="73.0" text-anchor="start" dominant-baseline="middle" fill="#9ca3af" font-size="10">7M/s</text>
  <line x1="90.0" y1="49.0" x2="90.0" y2="309.0" stroke="#e5e7eb" stroke-width="1"/>
  <line x1="140.8" y1="49.0" x2="140.8" y2="309.0" stroke="#e5e7eb" stroke-width="1"/>
  <line x1="191.7" y1="49.0" x2="191.7" y2="309.0" stroke="#e5e7eb" stroke-width="1"/>
  <line x1="242.5" y1="49.0" x2="242.5" y2="309.0" stroke="#e5e7eb" stroke-width="1"/>
  <line x1="293.3" y1="49.0" x2="293.3" y2="309.0" stroke="#e5e7eb" stroke-width="1"/>
  <line x1="344.2" y1="49.0" x2="344.2" y2="309.0" stroke="#e5e7eb" stroke-width="1"/>
  <line x1="395.0" y1="49.0" x2="395.0" y2="309.0" stroke="#e5e7eb" stroke-width="1"/>
  <line x1="445.8" y1="49.0" x2="445.8" y2="309.0" stroke="#e5e7eb" stroke-width="1"/>
  <line x1="496.7" y1="49.0" x2="496.7" y2="309.0" stroke="#e5e7eb" stroke-width="1"/>
  <line x1="547.5" y1="49.0" x2="547.5" y2="309.0" stroke="#e5e7eb" stroke-width="1"/>
  <line x1="598.3" y1="49.0" x2="598.3" y2="309.0" stroke="#e5e7eb" stroke-width="1"/>
  <line x1="649.2" y1="49.0" x2="649.2" y2="309.0" stroke="#e5e7eb" stroke-width="1"/>
  <line x1="700.0" y1="49.0" x2="700.0" y2="309.0" stroke="#e5e7eb" stroke-width="1"/>
  <line x1="90.0" y1="49.0" x2="90.0" y2="309.0" stroke="#9ca3af" stroke-width="1.5"/>
  <line x1="700.0" y1="49.0" x2="700.0" y2="309.0" stroke="#9ca3af" stroke-width="1.5"/>
  <line x1="90.0" y1="309.0" x2="700.0" y2="309.0" stroke="#9ca3af" stroke-width="1.5"/>
  <line x1="780.0" y1="49.0" x2="780.0" y2="309.0" stroke="#d1d5db" stroke-width="1"/>
  <text x="40.0" y="179.0" text-anchor="middle" fill="#374151" font-size="10" font-weight="600" transform="rotate(-90,40.0,179.0)">CPU %</text>
  <polyline points="90.0,153.3 140.8,146.8 191.7,145.9 242.5,146.2 293.3,166.0 344.2,177.7 395.0,190.7 445.8,198.8 496.7,217.4 547.5,220.6 598.3,216.1 649.2,218.0 700.0,212.5" fill="none" stroke="#eab308" stroke-width="2" stroke-dasharray="2,3"/>
  <polyline points="90.0,226.8 140.8,226.5 191.7,226.5 242.5,226.5 293.3,226.1 344.2,226.5 395.0,226.1 445.8,226.5 496.7,226.5 547.5,226.8 598.3,226.5 649.2,226.5 700.0,226.1" fill="none" stroke="#f97316" stroke-width="2" stroke-dasharray="2,3"/>
  <polyline points="90.0,91.0 140.8,96.8 191.7,100.8 242.5,103.9 293.3,100.5 344.2,97.8 395.0,111.1 445.8,122.4 496.7,135.5 547.5,145.2 598.3,151.7 649.2,151.1 700.0,155.1" fill="none" stroke="#16a34a" stroke-width="2" stroke-dasharray="2,3"/>
  <polyline points="90.0,227.8 140.8,234.6 191.7,235.9 242.5,239.1 293.3,240.8 344.2,241.8 395.0,242.4 445.8,242.4 496.7,242.4 547.5,242.4 598.3,242.7 649.2,242.7 700.0,257.7" fill="none" stroke="#2563eb" stroke-width="2" stroke-dasharray="2,3"/>
  <polyline points="90.0,90.8 140.8,82.9 191.7,83.1 242.5,163.6 293.3,239.6 344.2,244.2 395.0,259.2 445.8,279.2 496.7,292.0 547.5,299.7 598.3,302.8 649.2,306.6 700.0,307.0" fill="none" stroke="#eab308" stroke-width="1.5" stroke-dasharray="5,3"/>
  <polyline points="90.0,154.8 140.8,155.1 191.7,154.7 242.5,184.5 293.3,190.5 344.2,213.7 395.0,215.4 445.8,243.7 496.7,263.0 547.5,282.8 598.3,296.8 649.2,301.7 700.0,305.2" fill="none" stroke="#f97316" stroke-width="1.5" stroke-dasharray="5,3"/>
  <polyline points="90.0,262.5 140.8,260.6 191.7,255.7 242.5,258.8 293.3,258.0 344.2,255.7 395.0,263.0 445.8,268.4 496.7,275.7 547.5,285.6 598.3,295.7 649.2,301.2 700.0,305.0" fill="none" stroke="#16a34a" stroke-width="1.5" stroke-dasharray="5,3"/>
  <polyline points="90.0,295.9 140.8,298.1 191.7,299.0 242.5,299.9 293.3,300.6 344.2,301.4 395.0,301.5 445.8,302.2 496.7,302.7 547.5,303.0 598.3,303.6 649.2,304.3 700.0,305.7" fill="none" stroke="#2563eb" stroke-width="1.5" stroke-dasharray="5,3"/>
  <polyline points="90.0,306.0 140.8,302.7 191.7,296.5 242.5,292.9 293.3,293.6 344.2,280.2 395.0,264.8 445.8,256.1 496.7,248.7 547.5,243.0 598.3,221.5 649.2,240.1 700.0,196.7" fill="none" stroke="#eab308" stroke-width="2.5" stroke-linecap="round" stroke-linejoin="round"/>
  <circle cx="90.0" cy="306.0" r="3" fill="#eab308" stroke="white" stroke-width="1"/>
  <circle cx="140.8" cy="302.7" r="3" fill="#eab308" stroke="white" stroke-width="1"/>
  <circle cx="191.7" cy="296.5" r="3" fill="#eab308" stroke="white" stroke-width="1"/>
  <circle cx="242.5" cy="292.9" r="3" fill="#eab308" stroke="white" stroke-width="1"/>
  <circle cx="293.3" cy="293.6" r="3" fill="#eab308" stroke="white" stroke-width="1"/>
  <circle cx="344.2" cy="280.2" r="3" fill="#eab308" stroke="white" stroke-width="1"/>
  <circle cx="395.0" cy="264.8" r="3" fill="#eab308" stroke="white" stroke-width="1"/>
  <circle cx="445.8" cy="256.1" r="3" fill="#eab308" stroke="white" stroke-width="1"/>
  <circle cx="496.7" cy="248.7" r="3" fill="#eab308" stroke="white" stroke-width="1"/>
  <circle cx="547.5" cy="243.0" r="3" fill="#eab308" stroke="white" stroke-width="1"/>
  <circle cx="598.3" cy="221.5" r="3" fill="#eab308" stroke="white" stroke-width="1"/>
  <circle cx="649.2" cy="240.1" r="3" fill="#eab308" stroke="white" stroke-width="1"/>
  <circle cx="700.0" cy="196.7" r="3" fill="#eab308" stroke="white" stroke-width="1"/>
  <polyline points="90.0,306.9 140.8,304.7 191.7,300.4 242.5,295.2 293.3,282.7 344.2,266.7 395.0,225.9 445.8,193.0 496.7,145.5 547.5,122.8 598.3,136.1 649.2,100.3 700.0,95.2" fill="none" stroke="#f97316" stroke-width="2.5" stroke-linecap="round" stroke-linejoin="round"/>
  <circle cx="90.0" cy="306.9" r="3" fill="#f97316" stroke="white" stroke-width="1"/>
  <circle cx="140.8" cy="304.7" r="3" fill="#f97316" stroke="white" stroke-width="1"/>
  <circle cx="191.7" cy="300.4" r="3" fill="#f97316" stroke="white" stroke-width="1"/>
  <circle cx="242.5" cy="295.2" r="3" fill="#f97316" stroke="white" stroke-width="1"/>
  <circle cx="293.3" cy="282.7" r="3" fill="#f97316" stroke="white" stroke-width="1"/>
  <circle cx="344.2" cy="266.7" r="3" fill="#f97316" stroke="white" stroke-width="1"/>
  <circle cx="395.0" cy="225.9" r="3" fill="#f97316" stroke="white" stroke-width="1"/>
  <circle cx="445.8" cy="193.0" r="3" fill="#f97316" stroke="white" stroke-width="1"/>
  <circle cx="496.7" cy="145.5" r="3" fill="#f97316" stroke="white" stroke-width="1"/>
  <circle cx="547.5" cy="122.8" r="3" fill="#f97316" stroke="white" stroke-width="1"/>
  <circle cx="598.3" cy="136.1" r="3" fill="#f97316" stroke="white" stroke-width="1"/>
  <circle cx="649.2" cy="100.3" r="3" fill="#f97316" stroke="white" stroke-width="1"/>
  <circle cx="700.0" cy="95.2" r="3" fill="#f97316" stroke="white" stroke-width="1"/>
  <polyline points="90.0,308.4 140.8,307.7 191.7,306.0 242.5,303.4 293.3,297.7 344.2,285.3 395.0,268.2 445.8,236.9 496.7,190.5 547.5,142.6 598.3,119.7 649.2,87.1 700.0,82.9" fill="none" stroke="#16a34a" stroke-width="2.5" stroke-linecap="round" stroke-linejoin="round"/>
  <circle cx="90.0" cy="308.4" r="3" fill="#16a34a" stroke="white" stroke-width="1"/>
  <circle cx="140.8" cy="307.7" r="3" fill="#16a34a" stroke="white" stroke-width="1"/>
  <circle cx="191.7" cy="306.0" r="3" fill="#16a34a" stroke="white" stroke-width="1"/>
  <circle cx="242.5" cy="303.4" r="3" fill="#16a34a" stroke="white" stroke-width="1"/>
  <circle cx="293.3" cy="297.7" r="3" fill="#16a34a" stroke="white" stroke-width="1"/>
  <circle cx="344.2" cy="285.3" r="3" fill="#16a34a" stroke="white" stroke-width="1"/>
  <circle cx="395.0" cy="268.2" r="3" fill="#16a34a" stroke="white" stroke-width="1"/>
  <circle cx="445.8" cy="236.9" r="3" fill="#16a34a" stroke="white" stroke-width="1"/>
  <circle cx="496.7" cy="190.5" r="3" fill="#16a34a" stroke="white" stroke-width="1"/>
  <circle cx="547.5" cy="142.6" r="3" fill="#16a34a" stroke="white" stroke-width="1"/>
  <circle cx="598.3" cy="119.7" r="3" fill="#16a34a" stroke="white" stroke-width="1"/>
  <circle cx="649.2" cy="87.1" r="3" fill="#16a34a" stroke="white" stroke-width="1"/>
  <circle cx="700.0" cy="82.9" r="3" fill="#16a34a" stroke="white" stroke-width="1"/>
  <polyline points="90.0,308.8 140.8,308.7 191.7,308.4 242.5,308.0 293.3,307.1 344.2,305.6 395.0,302.4 445.8,296.9 496.7,286.6 547.5,266.7 598.3,231.7 649.2,175.8 700.0,123.1" fill="none" stroke="#2563eb" stroke-width="2.5" stroke-linecap="round" stroke-linejoin="round"/>
  <circle cx="90.0" cy="308.8" r="3" fill="#2563eb" stroke="white" stroke-width="1"/>
  <circle cx="140.8" cy="308.7" r="3" fill="#2563eb" stroke="white" stroke-width="1"/>
  <circle cx="191.7" cy="308.4" r="3" fill="#2563eb" stroke="white" stroke-width="1"/>
  <circle cx="242.5" cy="308.0" r="3" fill="#2563eb" stroke="white" stroke-width="1"/>
  <circle cx="293.3" cy="307.1" r="3" fill="#2563eb" stroke="white" stroke-width="1"/>
  <circle cx="344.2" cy="305.6" r="3" fill="#2563eb" stroke="white" stroke-width="1"/>
  <circle cx="395.0" cy="302.4" r="3" fill="#2563eb" stroke="white" stroke-width="1"/>
  <circle cx="445.8" cy="296.9" r="3" fill="#2563eb" stroke="white" stroke-width="1"/>
  <circle cx="496.7" cy="286.6" r="3" fill="#2563eb" stroke="white" stroke-width="1"/>
  <circle cx="547.5" cy="266.7" r="3" fill="#2563eb" stroke="white" stroke-width="1"/>
  <circle cx="598.3" cy="231.7" r="3" fill="#2563eb" stroke="white" stroke-width="1"/>
  <circle cx="649.2" cy="175.8" r="3" fill="#2563eb" stroke="white" stroke-width="1"/>
  <circle cx="700.0" cy="123.1" r="3" fill="#2563eb" stroke="white" stroke-width="1"/>
  <text x="90.0" y="323.0" text-anchor="middle" fill="#374151" font-size="8.5">8 B</text>
  <text x="140.8" y="323.0" text-anchor="middle" fill="#374151" font-size="8.5">16 B</text>
  <text x="191.7" y="323.0" text-anchor="middle" fill="#374151" font-size="8.5">32 B</text>
  <text x="242.5" y="323.0" text-anchor="middle" fill="#374151" font-size="8.5">64 B</text>
  <text x="293.3" y="323.0" text-anchor="middle" fill="#374151" font-size="8.5">128 B</text>
  <text x="344.2" y="323.0" text-anchor="middle" fill="#374151" font-size="8.5">256 B</text>
  <text x="395.0" y="323.0" text-anchor="middle" fill="#374151" font-size="8.5">512 B</text>
  <text x="445.8" y="323.0" text-anchor="middle" fill="#374151" font-size="8.5">1 KiB</text>
  <text x="496.7" y="323.0" text-anchor="middle" fill="#374151" font-size="8.5">2 KiB</text>
  <text x="547.5" y="323.0" text-anchor="middle" fill="#374151" font-size="8.5">4 KiB</text>
  <text x="598.3" y="323.0" text-anchor="middle" fill="#374151" font-size="8.5">8 KiB</text>
  <text x="649.2" y="323.0" text-anchor="middle" fill="#374151" font-size="8.5">16 KiB</text>
  <text x="700.0" y="323.0" text-anchor="middle" fill="#374151" font-size="8.5">32 KiB</text>
  <text x="395.0" y="362.0" text-anchor="middle" fill="#111827" font-size="13" font-weight="700">PUB/SUB throughput, 8 subscribers: TCP loopback</text>
  <line x1="90.0" y1="606.5" x2="700.0" y2="606.5" stroke="#e5e7eb" stroke-width="1"/>
  <text x="82.0" y="606.5" text-anchor="end" dominant-baseline="middle" fill="#374151" font-size="10">50%</text>
  <line x1="90.0" y1="574.0" x2="700.0" y2="574.0" stroke="#e5e7eb" stroke-width="1"/>
  <text x="82.0" y="574.0" text-anchor="end" dominant-baseline="middle" fill="#374151" font-size="10">100%</text>
  <line x1="90.0" y1="541.5" x2="700.0" y2="541.5" stroke="#e5e7eb" stroke-width="1"/>
  <text x="82.0" y="541.5" text-anchor="end" dominant-baseline="middle" fill="#374151" font-size="10">150%</text>
  <line x1="90.0" y1="509.0" x2="700.0" y2="509.0" stroke="#e5e7eb" stroke-width="1"/>
  <text x="82.0" y="509.0" text-anchor="end" dominant-baseline="middle" fill="#374151" font-size="10">200%</text>
  <line x1="90.0" y1="476.5" x2="700.0" y2="476.5" stroke="#e5e7eb" stroke-width="1"/>
  <text x="82.0" y="476.5" text-anchor="end" dominant-baseline="middle" fill="#374151" font-size="10">250%</text>
  <line x1="90.0" y1="444.0" x2="700.0" y2="444.0" stroke="#e5e7eb" stroke-width="1"/>
  <text x="82.0" y="444.0" text-anchor="end" dominant-baseline="middle" fill="#374151" font-size="10">300%</text>
  <line x1="90.0" y1="411.5" x2="700.0" y2="411.5" stroke="#e5e7eb" stroke-width="1"/>
  <text x="82.0" y="411.5" text-anchor="end" dominant-baseline="middle" fill="#374151" font-size="10">350%</text>
  <line x1="90.0" y1="379.0" x2="700.0" y2="379.0" stroke="#e5e7eb" stroke-width="1"/>
  <text x="82.0" y="379.0" text-anchor="end" dominant-baseline="middle" fill="#374151" font-size="10">400%</text>
  <line x1="90.0" y1="567.3" x2="700.0" y2="567.3" stroke="#e5e7eb" stroke-width="1" stroke-dasharray="3,6"/>
  <text x="708.0" y="567.3" text-anchor="start" dominant-baseline="middle" fill="#6b7280" font-size="10">2 GB/s</text>
  <line x1="90.0" y1="495.6" x2="700.0" y2="495.6" stroke="#e5e7eb" stroke-width="1" stroke-dasharray="3,6"/>
  <text x="708.0" y="495.6" text-anchor="start" dominant-baseline="middle" fill="#6b7280" font-size="10">4 GB/s</text>
  <line x1="90.0" y1="424.0" x2="700.0" y2="424.0" stroke="#e5e7eb" stroke-width="1" stroke-dasharray="3,6"/>
  <text x="708.0" y="424.0" text-anchor="start" dominant-baseline="middle" fill="#6b7280" font-size="10">6 GB/s</text>
  <text x="788.0" y="598.5" text-anchor="start" dominant-baseline="middle" fill="#9ca3af" font-size="10">500k/s</text>
  <text x="788.0" y="558.0" text-anchor="start" dominant-baseline="middle" fill="#9ca3af" font-size="10">1M/s</text>
  <text x="788.0" y="517.6" text-anchor="start" dominant-baseline="middle" fill="#9ca3af" font-size="10">1.5M/s</text>
  <text x="788.0" y="477.1" text-anchor="start" dominant-baseline="middle" fill="#9ca3af" font-size="10">2M/s</text>
  <text x="788.0" y="436.6" text-anchor="start" dominant-baseline="middle" fill="#9ca3af" font-size="10">2.5M/s</text>
  <text x="788.0" y="396.1" text-anchor="start" dominant-baseline="middle" fill="#9ca3af" font-size="10">3M/s</text>
  <line x1="90.0" y1="379.0" x2="90.0" y2="639.0" stroke="#e5e7eb" stroke-width="1"/>
  <line x1="140.8" y1="379.0" x2="140.8" y2="639.0" stroke="#e5e7eb" stroke-width="1"/>
  <line x1="191.7" y1="379.0" x2="191.7" y2="639.0" stroke="#e5e7eb" stroke-width="1"/>
  <line x1="242.5" y1="379.0" x2="242.5" y2="639.0" stroke="#e5e7eb" stroke-width="1"/>
  <line x1="293.3" y1="379.0" x2="293.3" y2="639.0" stroke="#e5e7eb" stroke-width="1"/>
  <line x1="344.2" y1="379.0" x2="344.2" y2="639.0" stroke="#e5e7eb" stroke-width="1"/>
  <line x1="395.0" y1="379.0" x2="395.0" y2="639.0" stroke="#e5e7eb" stroke-width="1"/>
  <line x1="445.8" y1="379.0" x2="445.8" y2="639.0" stroke="#e5e7eb" stroke-width="1"/>
  <line x1="496.7" y1="379.0" x2="496.7" y2="639.0" stroke="#e5e7eb" stroke-width="1"/>
  <line x1="547.5" y1="379.0" x2="547.5" y2="639.0" stroke="#e5e7eb" stroke-width="1"/>
  <line x1="598.3" y1="379.0" x2="598.3" y2="639.0" stroke="#e5e7eb" stroke-width="1"/>
  <line x1="649.2" y1="379.0" x2="649.2" y2="639.0" stroke="#e5e7eb" stroke-width="1"/>
  <line x1="700.0" y1="379.0" x2="700.0" y2="639.0" stroke="#e5e7eb" stroke-width="1"/>
  <line x1="90.0" y1="379.0" x2="90.0" y2="639.0" stroke="#9ca3af" stroke-width="1.5"/>
  <line x1="700.0" y1="379.0" x2="700.0" y2="639.0" stroke="#9ca3af" stroke-width="1.5"/>
  <line x1="90.0" y1="639.0" x2="700.0" y2="639.0" stroke="#9ca3af" stroke-width="1.5"/>
  <line x1="780.0" y1="379.0" x2="780.0" y2="639.0" stroke="#d1d5db" stroke-width="1"/>
  <text x="40.0" y="509.0" text-anchor="middle" fill="#374151" font-size="10" font-weight="600" transform="rotate(-90,40.0,509.0)">CPU %</text>
  <polyline points="90.0,506.1 140.8,512.6 191.7,516.5 242.5,521.0 293.3,529.8 344.2,539.2 395.0,550.0 445.8,552.5 496.7,559.4 547.5,558.1 598.3,556.8 649.2,556.5 700.0,554.2" fill="none" stroke="#eab308" stroke-width="2" stroke-dasharray="2,3"/>
  <polyline points="90.0,558.4 140.8,558.7 191.7,557.8 242.5,562.6 293.3,557.4 344.2,556.8 395.0,556.5 445.8,556.1 496.7,556.5 547.5,556.5 598.3,556.1 649.2,556.8 700.0,556.5" fill="none" stroke="#f97316" stroke-width="2" stroke-dasharray="2,3"/>
  <polyline points="90.0,565.6 140.8,554.2 191.7,552.9 242.5,570.8 293.3,542.3 344.2,542.5 395.0,558.4 445.8,549.2 496.7,561.7 547.5,558.1 598.3,548.7 649.2,527.5 700.0,531.4" fill="none" stroke="#16a34a" stroke-width="2" stroke-dasharray="2,3"/>
  <polyline points="90.0,557.8 140.8,558.4 191.7,560.4 242.5,564.3 293.3,567.9 344.2,569.9 395.0,571.1 445.8,571.4 496.7,571.7 547.5,572.8 598.3,573.1 649.2,573.7 700.0,574.0" fill="none" stroke="#2563eb" stroke-width="2" stroke-dasharray="2,3"/>
  <polyline points="90.0,524.2 140.8,533.0 191.7,541.2 242.5,569.1 293.3,592.7 344.2,608.4 395.0,621.4 445.8,628.7 496.7,633.8 547.5,636.3 598.3,637.6 649.2,638.3 700.0,638.3" fill="none" stroke="#eab308" stroke-width="1.5" stroke-dasharray="5,3"/>
  <polyline points="90.0,412.9 140.8,435.9 191.7,458.1 242.5,460.2 293.3,477.4 344.2,535.0 395.0,563.9 445.8,591.5 496.7,611.8 547.5,624.5 598.3,631.4 649.2,635.2 700.0,637.1" fill="none" stroke="#f97316" stroke-width="1.5" stroke-dasharray="5,3"/>
  <polyline points="90.0,629.4 140.8,631.1 191.7,630.4 242.5,630.2 293.3,631.3 344.2,630.9 395.0,630.6 445.8,630.8 496.7,631.9 547.5,633.7 598.3,635.3 649.2,636.6 700.0,637.6" fill="none" stroke="#16a34a" stroke-width="1.5" stroke-dasharray="5,3"/>
  <polyline points="90.0,635.4 140.8,635.5 191.7,635.7 242.5,636.2 293.3,636.5 344.2,636.8 395.0,636.9 445.8,637.0 496.7,637.1 547.5,637.2 598.3,637.4 649.2,637.6 700.0,637.9" fill="none" stroke="#2563eb" stroke-width="1.5" stroke-dasharray="5,3"/>
  <polyline points="90.0,635.7 140.8,633.0 191.7,627.9 242.5,623.2 293.3,618.0 344.2,611.3 395.0,607.0 445.8,601.8 496.7,601.1 547.5,599.7 598.3,598.8 649.2,595.6 700.0,561.7" fill="none" stroke="#eab308" stroke-width="2.5" stroke-linecap="round" stroke-linejoin="round"/>
  <circle cx="90.0" cy="635.7" r="3" fill="#eab308" stroke="white" stroke-width="1"/>
  <circle cx="140.8" cy="633.0" r="3" fill="#eab308" stroke="white" stroke-width="1"/>
  <circle cx="191.7" cy="627.9" r="3" fill="#eab308" stroke="white" stroke-width="1"/>
  <circle cx="242.5" cy="623.2" r="3" fill="#eab308" stroke="white" stroke-width="1"/>
  <circle cx="293.3" cy="618.0" r="3" fill="#eab308" stroke="white" stroke-width="1"/>
  <circle cx="344.2" cy="611.3" r="3" fill="#eab308" stroke="white" stroke-width="1"/>
  <circle cx="395.0" cy="607.0" r="3" fill="#eab308" stroke="white" stroke-width="1"/>
  <circle cx="445.8" cy="601.8" r="3" fill="#eab308" stroke="white" stroke-width="1"/>
  <circle cx="496.7" cy="601.1" r="3" fill="#eab308" stroke="white" stroke-width="1"/>
  <circle cx="547.5" cy="599.7" r="3" fill="#eab308" stroke="white" stroke-width="1"/>
  <circle cx="598.3" cy="598.8" r="3" fill="#eab308" stroke="white" stroke-width="1"/>
  <circle cx="649.2" cy="595.6" r="3" fill="#eab308" stroke="white" stroke-width="1"/>
  <circle cx="700.0" cy="561.7" r="3" fill="#eab308" stroke="white" stroke-width="1"/>
  <polyline points="90.0,632.6 140.8,627.5 191.7,618.5 242.5,598.5 293.3,565.8 344.2,544.7 395.0,502.8 445.8,466.7 496.7,441.8 547.5,428.2 598.3,418.9 649.2,418.8 700.0,412.9" fill="none" stroke="#f97316" stroke-width="2.5" stroke-linecap="round" stroke-linejoin="round"/>
  <circle cx="90.0" cy="632.6" r="3" fill="#f97316" stroke="white" stroke-width="1"/>
  <circle cx="140.8" cy="627.5" r="3" fill="#f97316" stroke="white" stroke-width="1"/>
  <circle cx="191.7" cy="618.5" r="3" fill="#f97316" stroke="white" stroke-width="1"/>
  <circle cx="242.5" cy="598.5" r="3" fill="#f97316" stroke="white" stroke-width="1"/>
  <circle cx="293.3" cy="565.8" r="3" fill="#f97316" stroke="white" stroke-width="1"/>
  <circle cx="344.2" cy="544.7" r="3" fill="#f97316" stroke="white" stroke-width="1"/>
  <circle cx="395.0" cy="502.8" r="3" fill="#f97316" stroke="white" stroke-width="1"/>
  <circle cx="445.8" cy="466.7" r="3" fill="#f97316" stroke="white" stroke-width="1"/>
  <circle cx="496.7" cy="441.8" r="3" fill="#f97316" stroke="white" stroke-width="1"/>
  <circle cx="547.5" cy="428.2" r="3" fill="#f97316" stroke="white" stroke-width="1"/>
  <circle cx="598.3" cy="418.9" r="3" fill="#f97316" stroke="white" stroke-width="1"/>
  <circle cx="649.2" cy="418.8" r="3" fill="#f97316" stroke="white" stroke-width="1"/>
  <circle cx="700.0" cy="412.9" r="3" fill="#f97316" stroke="white" stroke-width="1"/>
  <polyline points="90.0,638.7 140.8,638.6 191.7,638.0 242.5,637.0 293.3,635.5 344.2,631.7 395.0,623.8 445.8,609.1 496.7,587.4 547.5,562.6 598.3,531.0 649.2,500.5 700.0,473.6" fill="none" stroke="#16a34a" stroke-width="2.5" stroke-linecap="round" stroke-linejoin="round"/>
  <circle cx="90.0" cy="638.7" r="3" fill="#16a34a" stroke="white" stroke-width="1"/>
  <circle cx="140.8" cy="638.6" r="3" fill="#16a34a" stroke="white" stroke-width="1"/>
  <circle cx="191.7" cy="638.0" r="3" fill="#16a34a" stroke="white" stroke-width="1"/>
  <circle cx="242.5" cy="637.0" r="3" fill="#16a34a" stroke="white" stroke-width="1"/>
  <circle cx="293.3" cy="635.5" r="3" fill="#16a34a" stroke="white" stroke-width="1"/>
  <circle cx="344.2" cy="631.7" r="3" fill="#16a34a" stroke="white" stroke-width="1"/>
  <circle cx="395.0" cy="623.8" r="3" fill="#16a34a" stroke="white" stroke-width="1"/>
  <circle cx="445.8" cy="609.1" r="3" fill="#16a34a" stroke="white" stroke-width="1"/>
  <circle cx="496.7" cy="587.4" r="3" fill="#16a34a" stroke="white" stroke-width="1"/>
  <circle cx="547.5" cy="562.6" r="3" fill="#16a34a" stroke="white" stroke-width="1"/>
  <circle cx="598.3" cy="531.0" r="3" fill="#16a34a" stroke="white" stroke-width="1"/>
  <circle cx="649.2" cy="500.5" r="3" fill="#16a34a" stroke="white" stroke-width="1"/>
  <circle cx="700.0" cy="473.6" r="3" fill="#16a34a" stroke="white" stroke-width="1"/>
  <polyline points="90.0,638.9 140.8,638.8 191.7,638.6 242.5,638.4 293.3,637.9 344.2,637.0 395.0,635.3 445.8,631.8 496.7,625.2 547.5,612.9 598.3,592.2 649.2,558.6 700.0,515.9" fill="none" stroke="#2563eb" stroke-width="2.5" stroke-linecap="round" stroke-linejoin="round"/>
  <circle cx="90.0" cy="638.9" r="3" fill="#2563eb" stroke="white" stroke-width="1"/>
  <circle cx="140.8" cy="638.8" r="3" fill="#2563eb" stroke="white" stroke-width="1"/>
  <circle cx="191.7" cy="638.6" r="3" fill="#2563eb" stroke="white" stroke-width="1"/>
  <circle cx="242.5" cy="638.4" r="3" fill="#2563eb" stroke="white" stroke-width="1"/>
  <circle cx="293.3" cy="637.9" r="3" fill="#2563eb" stroke="white" stroke-width="1"/>
  <circle cx="344.2" cy="637.0" r="3" fill="#2563eb" stroke="white" stroke-width="1"/>
  <circle cx="395.0" cy="635.3" r="3" fill="#2563eb" stroke="white" stroke-width="1"/>
  <circle cx="445.8" cy="631.8" r="3" fill="#2563eb" stroke="white" stroke-width="1"/>
  <circle cx="496.7" cy="625.2" r="3" fill="#2563eb" stroke="white" stroke-width="1"/>
  <circle cx="547.5" cy="612.9" r="3" fill="#2563eb" stroke="white" stroke-width="1"/>
  <circle cx="598.3" cy="592.2" r="3" fill="#2563eb" stroke="white" stroke-width="1"/>
  <circle cx="649.2" cy="558.6" r="3" fill="#2563eb" stroke="white" stroke-width="1"/>
  <circle cx="700.0" cy="515.9" r="3" fill="#2563eb" stroke="white" stroke-width="1"/>
  <text x="90.0" y="653.0" text-anchor="middle" fill="#374151" font-size="8.5">8 B</text>
  <text x="140.8" y="653.0" text-anchor="middle" fill="#374151" font-size="8.5">16 B</text>
  <text x="191.7" y="653.0" text-anchor="middle" fill="#374151" font-size="8.5">32 B</text>
  <text x="242.5" y="653.0" text-anchor="middle" fill="#374151" font-size="8.5">64 B</text>
  <text x="293.3" y="653.0" text-anchor="middle" fill="#374151" font-size="8.5">128 B</text>
  <text x="344.2" y="653.0" text-anchor="middle" fill="#374151" font-size="8.5">256 B</text>
  <text x="395.0" y="653.0" text-anchor="middle" fill="#374151" font-size="8.5">512 B</text>
  <text x="445.8" y="653.0" text-anchor="middle" fill="#374151" font-size="8.5">1 KiB</text>
  <text x="496.7" y="653.0" text-anchor="middle" fill="#374151" font-size="8.5">2 KiB</text>
  <text x="547.5" y="653.0" text-anchor="middle" fill="#374151" font-size="8.5">4 KiB</text>
  <text x="598.3" y="653.0" text-anchor="middle" fill="#374151" font-size="8.5">8 KiB</text>
  <text x="649.2" y="653.0" text-anchor="middle" fill="#374151" font-size="8.5">16 KiB</text>
  <text x="700.0" y="653.0" text-anchor="middle" fill="#374151" font-size="8.5">32 KiB</text>
  <text x="395.0" y="692.0" text-anchor="middle" fill="#111827" font-size="13" font-weight="700">PUB/SUB throughput, 64 subscribers: TCP loopback</text>
  <line x1="90.0" y1="904.0" x2="700.0" y2="904.0" stroke="#e5e7eb" stroke-width="1"/>
  <text x="82.0" y="904.0" text-anchor="end" dominant-baseline="middle" fill="#374151" font-size="10">50%</text>
  <line x1="90.0" y1="839.0" x2="700.0" y2="839.0" stroke="#e5e7eb" stroke-width="1"/>
  <text x="82.0" y="839.0" text-anchor="end" dominant-baseline="middle" fill="#374151" font-size="10">100%</text>
  <line x1="90.0" y1="774.0" x2="700.0" y2="774.0" stroke="#e5e7eb" stroke-width="1"/>
  <text x="82.0" y="774.0" text-anchor="end" dominant-baseline="middle" fill="#374151" font-size="10">150%</text>
  <line x1="90.0" y1="709.0" x2="700.0" y2="709.0" stroke="#e5e7eb" stroke-width="1"/>
  <text x="82.0" y="709.0" text-anchor="end" dominant-baseline="middle" fill="#374151" font-size="10">200%</text>
  <line x1="90.0" y1="920.3" x2="700.0" y2="920.3" stroke="#e5e7eb" stroke-width="1" stroke-dasharray="3,6"/>
  <text x="708.0" y="920.3" text-anchor="start" dominant-baseline="middle" fill="#6b7280" font-size="10">2 GB/s</text>
  <line x1="90.0" y1="871.6" x2="700.0" y2="871.6" stroke="#e5e7eb" stroke-width="1" stroke-dasharray="3,6"/>
  <text x="708.0" y="871.6" text-anchor="start" dominant-baseline="middle" fill="#6b7280" font-size="10">4 GB/s</text>
  <line x1="90.0" y1="822.9" x2="700.0" y2="822.9" stroke="#e5e7eb" stroke-width="1" stroke-dasharray="3,6"/>
  <text x="708.0" y="822.9" text-anchor="start" dominant-baseline="middle" fill="#6b7280" font-size="10">6 GB/s</text>
  <line x1="90.0" y1="774.2" x2="700.0" y2="774.2" stroke="#e5e7eb" stroke-width="1" stroke-dasharray="3,6"/>
  <text x="708.0" y="774.2" text-anchor="start" dominant-baseline="middle" fill="#6b7280" font-size="10">8 GB/s</text>
  <line x1="90.0" y1="725.5" x2="700.0" y2="725.5" stroke="#e5e7eb" stroke-width="1" stroke-dasharray="3,6"/>
  <text x="708.0" y="725.5" text-anchor="start" dominant-baseline="middle" fill="#6b7280" font-size="10">10 GB/s</text>
  <text x="788.0" y="913.5" text-anchor="start" dominant-baseline="middle" fill="#9ca3af" font-size="10">100k/s</text>
  <text x="788.0" y="858.0" text-anchor="start" dominant-baseline="middle" fill="#9ca3af" font-size="10">200k/s</text>
  <text x="788.0" y="802.5" text-anchor="start" dominant-baseline="middle" fill="#9ca3af" font-size="10">300k/s</text>
  <text x="788.0" y="747.0" text-anchor="start" dominant-baseline="middle" fill="#9ca3af" font-size="10">400k/s</text>
  <line x1="90.0" y1="709.0" x2="90.0" y2="969.0" stroke="#e5e7eb" stroke-width="1"/>
  <line x1="140.8" y1="709.0" x2="140.8" y2="969.0" stroke="#e5e7eb" stroke-width="1"/>
  <line x1="191.7" y1="709.0" x2="191.7" y2="969.0" stroke="#e5e7eb" stroke-width="1"/>
  <line x1="242.5" y1="709.0" x2="242.5" y2="969.0" stroke="#e5e7eb" stroke-width="1"/>
  <line x1="293.3" y1="709.0" x2="293.3" y2="969.0" stroke="#e5e7eb" stroke-width="1"/>
  <line x1="344.2" y1="709.0" x2="344.2" y2="969.0" stroke="#e5e7eb" stroke-width="1"/>
  <line x1="395.0" y1="709.0" x2="395.0" y2="969.0" stroke="#e5e7eb" stroke-width="1"/>
  <line x1="445.8" y1="709.0" x2="445.8" y2="969.0" stroke="#e5e7eb" stroke-width="1"/>
  <line x1="496.7" y1="709.0" x2="496.7" y2="969.0" stroke="#e5e7eb" stroke-width="1"/>
  <line x1="547.5" y1="709.0" x2="547.5" y2="969.0" stroke="#e5e7eb" stroke-width="1"/>
  <line x1="598.3" y1="709.0" x2="598.3" y2="969.0" stroke="#e5e7eb" stroke-width="1"/>
  <line x1="649.2" y1="709.0" x2="649.2" y2="969.0" stroke="#e5e7eb" stroke-width="1"/>
  <line x1="700.0" y1="709.0" x2="700.0" y2="969.0" stroke="#e5e7eb" stroke-width="1"/>
  <line x1="90.0" y1="709.0" x2="90.0" y2="969.0" stroke="#9ca3af" stroke-width="1.5"/>
  <line x1="700.0" y1="709.0" x2="700.0" y2="969.0" stroke="#9ca3af" stroke-width="1.5"/>
  <line x1="90.0" y1="969.0" x2="700.0" y2="969.0" stroke="#9ca3af" stroke-width="1.5"/>
  <line x1="780.0" y1="709.0" x2="780.0" y2="969.0" stroke="#d1d5db" stroke-width="1"/>
  <text x="40.0" y="839.0" text-anchor="middle" fill="#374151" font-size="10" font-weight="600" transform="rotate(-90,40.0,839.0)">CPU %</text>
  <polyline points="90.0,755.1 140.8,766.9 191.7,759.7 242.5,776.0 293.3,807.8 344.2,823.4 395.0,832.5 445.8,834.5 496.7,831.2 547.5,834.5 598.3,841.0 649.2,824.7 700.0,824.7" fill="none" stroke="#eab308" stroke-width="2" stroke-dasharray="2,3"/>
  <polyline points="90.0,916.7 140.8,897.5 191.7,874.8 242.5,872.8 293.3,860.5 344.2,839.0 395.0,814.3 445.8,802.0 496.7,802.6 547.5,802.7 598.3,800.7 649.2,802.0 700.0,802.6" fill="none" stroke="#f97316" stroke-width="2" stroke-dasharray="2,3"/>
  <polyline points="90.0,916.4 140.8,915.7 191.7,912.5 242.5,907.3 293.3,906.6 344.2,903.4 395.0,900.1 445.8,894.3 496.7,887.8 547.5,872.8 598.3,863.7 649.2,857.2 700.0,872.2" fill="none" stroke="#16a34a" stroke-width="2" stroke-dasharray="2,3"/>
  <polyline points="90.0,815.7 140.8,809.8 191.7,811.1 242.5,812.6 293.3,811.1 344.2,816.6 395.0,814.4 445.8,829.3 496.7,834.5 547.5,838.4 598.3,837.1 649.2,835.8 700.0,837.1" fill="none" stroke="#2563eb" stroke-width="2" stroke-dasharray="2,3"/>
  <polyline points="90.0,793.9 140.8,817.3 191.7,822.1 242.5,856.7 293.3,909.3 344.2,924.0 395.0,938.9 445.8,949.7 496.7,958.5 547.5,963.1 598.3,966.3 649.2,967.5 700.0,967.7" fill="none" stroke="#eab308" stroke-width="1.5" stroke-dasharray="5,3"/>
  <polyline points="90.0,742.9 140.8,756.7 191.7,787.9 242.5,818.4 293.3,842.9 344.2,855.9 395.0,879.8 445.8,909.8 496.7,934.7 547.5,950.3 598.3,960.5 649.2,964.5 700.0,966.9" fill="none" stroke="#f97316" stroke-width="1.5" stroke-dasharray="5,3"/>
  <polyline points="90.0,946.7 140.8,948.5 191.7,943.9 242.5,949.7 293.3,950.5 344.2,943.2 395.0,948.8 445.8,951.4 496.7,952.7 547.5,954.8 598.3,960.7 649.2,964.1 700.0,966.9" fill="none" stroke="#16a34a" stroke-width="1.5" stroke-dasharray="5,3"/>
  <polyline points="90.0,965.4 140.8,965.0 191.7,965.3 242.5,963.9 293.3,964.1 344.2,963.8 395.0,964.8 445.8,965.2 496.7,965.1 547.5,965.7 598.3,965.7 649.2,967.4 700.0,967.6" fill="none" stroke="#2563eb" stroke-width="1.5" stroke-dasharray="5,3"/>
  <polyline points="90.0,965.1 140.8,962.2 191.7,955.8 242.5,948.8 293.3,947.5 344.2,936.7 395.0,925.7 445.8,913.5 496.7,908.4 547.5,900.6 598.3,905.8 649.2,901.8 700.0,850.4" fill="none" stroke="#eab308" stroke-width="2.5" stroke-linecap="round" stroke-linejoin="round"/>
  <circle cx="90.0" cy="965.1" r="3" fill="#eab308" stroke="white" stroke-width="1"/>
  <circle cx="140.8" cy="962.2" r="3" fill="#eab308" stroke="white" stroke-width="1"/>
  <circle cx="191.7" cy="955.8" r="3" fill="#eab308" stroke="white" stroke-width="1"/>
  <circle cx="242.5" cy="948.8" r="3" fill="#eab308" stroke="white" stroke-width="1"/>
  <circle cx="293.3" cy="947.5" r="3" fill="#eab308" stroke="white" stroke-width="1"/>
  <circle cx="344.2" cy="936.7" r="3" fill="#eab308" stroke="white" stroke-width="1"/>
  <circle cx="395.0" cy="925.7" r="3" fill="#eab308" stroke="white" stroke-width="1"/>
  <circle cx="445.8" cy="913.5" r="3" fill="#eab308" stroke="white" stroke-width="1"/>
  <circle cx="496.7" cy="908.4" r="3" fill="#eab308" stroke="white" stroke-width="1"/>
  <circle cx="547.5" cy="900.6" r="3" fill="#eab308" stroke="white" stroke-width="1"/>
  <circle cx="598.3" cy="905.8" r="3" fill="#eab308" stroke="white" stroke-width="1"/>
  <circle cx="649.2" cy="901.8" r="3" fill="#eab308" stroke="white" stroke-width="1"/>
  <circle cx="700.0" cy="850.4" r="3" fill="#eab308" stroke="white" stroke-width="1"/>
  <polyline points="90.0,963.9 140.8,959.5 191.7,952.7 242.5,941.9 293.3,923.7 344.2,887.7 395.0,840.8 445.8,798.9 496.7,771.5 547.5,753.7 598.3,773.6 649.2,761.1 700.0,772.9" fill="none" stroke="#f97316" stroke-width="2.5" stroke-linecap="round" stroke-linejoin="round"/>
  <circle cx="90.0" cy="963.9" r="3" fill="#f97316" stroke="white" stroke-width="1"/>
  <circle cx="140.8" cy="959.5" r="3" fill="#f97316" stroke="white" stroke-width="1"/>
  <circle cx="191.7" cy="952.7" r="3" fill="#f97316" stroke="white" stroke-width="1"/>
  <circle cx="242.5" cy="941.9" r="3" fill="#f97316" stroke="white" stroke-width="1"/>
  <circle cx="293.3" cy="923.7" r="3" fill="#f97316" stroke="white" stroke-width="1"/>
  <circle cx="344.2" cy="887.7" r="3" fill="#f97316" stroke="white" stroke-width="1"/>
  <circle cx="395.0" cy="840.8" r="3" fill="#f97316" stroke="white" stroke-width="1"/>
  <circle cx="445.8" cy="798.9" r="3" fill="#f97316" stroke="white" stroke-width="1"/>
  <circle cx="496.7" cy="771.5" r="3" fill="#f97316" stroke="white" stroke-width="1"/>
  <circle cx="547.5" cy="753.7" r="3" fill="#f97316" stroke="white" stroke-width="1"/>
  <circle cx="598.3" cy="773.6" r="3" fill="#f97316" stroke="white" stroke-width="1"/>
  <circle cx="649.2" cy="761.1" r="3" fill="#f97316" stroke="white" stroke-width="1"/>
  <circle cx="700.0" cy="772.9" r="3" fill="#f97316" stroke="white" stroke-width="1"/>
  <polyline points="90.0,968.5 140.8,968.1 191.7,966.7 242.5,965.5 293.3,962.3 344.2,950.5 395.0,939.9 445.8,918.3 496.7,875.4 547.5,805.8 598.3,777.3 649.2,742.9 700.0,775.1" fill="none" stroke="#16a34a" stroke-width="2.5" stroke-linecap="round" stroke-linejoin="round"/>
  <circle cx="90.0" cy="968.5" r="3" fill="#16a34a" stroke="white" stroke-width="1"/>
  <circle cx="140.8" cy="968.1" r="3" fill="#16a34a" stroke="white" stroke-width="1"/>
  <circle cx="191.7" cy="966.7" r="3" fill="#16a34a" stroke="white" stroke-width="1"/>
  <circle cx="242.5" cy="965.5" r="3" fill="#16a34a" stroke="white" stroke-width="1"/>
  <circle cx="293.3" cy="962.3" r="3" fill="#16a34a" stroke="white" stroke-width="1"/>
  <circle cx="344.2" cy="950.5" r="3" fill="#16a34a" stroke="white" stroke-width="1"/>
  <circle cx="395.0" cy="939.9" r="3" fill="#16a34a" stroke="white" stroke-width="1"/>
  <circle cx="445.8" cy="918.3" r="3" fill="#16a34a" stroke="white" stroke-width="1"/>
  <circle cx="496.7" cy="875.4" r="3" fill="#16a34a" stroke="white" stroke-width="1"/>
  <circle cx="547.5" cy="805.8" r="3" fill="#16a34a" stroke="white" stroke-width="1"/>
  <circle cx="598.3" cy="777.3" r="3" fill="#16a34a" stroke="white" stroke-width="1"/>
  <circle cx="649.2" cy="742.9" r="3" fill="#16a34a" stroke="white" stroke-width="1"/>
  <circle cx="700.0" cy="775.1" r="3" fill="#16a34a" stroke="white" stroke-width="1"/>
  <polyline points="90.0,968.9 140.8,968.8 191.7,968.7 242.5,968.1 293.3,967.2 344.2,965.3 395.0,963.0 445.8,958.0 496.7,946.8 547.5,931.6 598.3,893.4 649.2,895.2 700.0,841.5" fill="none" stroke="#2563eb" stroke-width="2.5" stroke-linecap="round" stroke-linejoin="round"/>
  <circle cx="90.0" cy="968.9" r="3" fill="#2563eb" stroke="white" stroke-width="1"/>
  <circle cx="140.8" cy="968.8" r="3" fill="#2563eb" stroke="white" stroke-width="1"/>
  <circle cx="191.7" cy="968.7" r="3" fill="#2563eb" stroke="white" stroke-width="1"/>
  <circle cx="242.5" cy="968.1" r="3" fill="#2563eb" stroke="white" stroke-width="1"/>
  <circle cx="293.3" cy="967.2" r="3" fill="#2563eb" stroke="white" stroke-width="1"/>
  <circle cx="344.2" cy="965.3" r="3" fill="#2563eb" stroke="white" stroke-width="1"/>
  <circle cx="395.0" cy="963.0" r="3" fill="#2563eb" stroke="white" stroke-width="1"/>
  <circle cx="445.8" cy="958.0" r="3" fill="#2563eb" stroke="white" stroke-width="1"/>
  <circle cx="496.7" cy="946.8" r="3" fill="#2563eb" stroke="white" stroke-width="1"/>
  <circle cx="547.5" cy="931.6" r="3" fill="#2563eb" stroke="white" stroke-width="1"/>
  <circle cx="598.3" cy="893.4" r="3" fill="#2563eb" stroke="white" stroke-width="1"/>
  <circle cx="649.2" cy="895.2" r="3" fill="#2563eb" stroke="white" stroke-width="1"/>
  <circle cx="700.0" cy="841.5" r="3" fill="#2563eb" stroke="white" stroke-width="1"/>
  <text x="90.0" y="983.0" text-anchor="middle" fill="#374151" font-size="8.5">8 B</text>
  <text x="140.8" y="983.0" text-anchor="middle" fill="#374151" font-size="8.5">16 B</text>
  <text x="191.7" y="983.0" text-anchor="middle" fill="#374151" font-size="8.5">32 B</text>
  <text x="242.5" y="983.0" text-anchor="middle" fill="#374151" font-size="8.5">64 B</text>
  <text x="293.3" y="983.0" text-anchor="middle" fill="#374151" font-size="8.5">128 B</text>
  <text x="344.2" y="983.0" text-anchor="middle" fill="#374151" font-size="8.5">256 B</text>
  <text x="395.0" y="983.0" text-anchor="middle" fill="#374151" font-size="8.5">512 B</text>
  <text x="445.8" y="983.0" text-anchor="middle" fill="#374151" font-size="8.5">1 KiB</text>
  <text x="496.7" y="983.0" text-anchor="middle" fill="#374151" font-size="8.5">2 KiB</text>
  <text x="547.5" y="983.0" text-anchor="middle" fill="#374151" font-size="8.5">4 KiB</text>
  <text x="598.3" y="983.0" text-anchor="middle" fill="#374151" font-size="8.5">8 KiB</text>
  <text x="649.2" y="983.0" text-anchor="middle" fill="#374151" font-size="8.5">16 KiB</text>
  <text x="700.0" y="983.0" text-anchor="middle" fill="#374151" font-size="8.5">32 KiB</text>
  <line x1="105" y1="999" x2="119" y2="999" stroke="#eab308" stroke-width="2.5"/>
  <circle cx="112" cy="999" r="2.5" fill="#eab308"/>
  <text x="125" y="1003" fill="#374151" font-size="11" font-weight="500">libzmq v4.3.5</text>
  <line x1="250" y1="999" x2="264" y2="999" stroke="#f97316" stroke-width="2.5"/>
  <circle cx="257" cy="999" r="2.5" fill="#f97316"/>
  <text x="270" y="1003" fill="#374151" font-size="11" font-weight="500">omq-tokio (ST)</text>
  <line x1="395" y1="999" x2="409" y2="999" stroke="#2563eb" stroke-width="2.5"/>
  <circle cx="402" cy="999" r="2.5" fill="#2563eb"/>
  <text x="415" y="1003" fill="#374151" font-size="11" font-weight="500">zmq.rs v0.6.0 (MT)</text>
  <line x1="540" y1="999" x2="554" y2="999" stroke="#16a34a" stroke-width="2.5"/>
  <circle cx="547" cy="999" r="2.5" fill="#16a34a"/>
  <text x="560" y="1003" fill="#374151" font-size="11" font-weight="500">rzmq v0.5.18 (MT)</text>
  <text x="395.0" y="1017" text-anchor="middle" fill="#9ca3af" font-size="9">ST = single-threaded   MT = multi-threaded</text>
  <line x1="145" y1="1039" x2="159" y2="1039" stroke="#6b7280" stroke-width="2" stroke-dasharray="2,3" opacity="0.7"/>
  <text x="165" y="1043" fill="#6b7280" font-size="10">CPU % (left)</text>
  <line x1="290" y1="1039" x2="304" y2="1039" stroke="#6b7280" stroke-width="2.5"/>
  <circle cx="297" cy="1039" r="2" fill="#6b7280"/>
  <text x="310" y="1043" fill="#6b7280" font-size="10">GB/s (inner right)</text>
  <line x1="455" y1="1039" x2="469" y2="1039" stroke="#6b7280" stroke-width="1.5" stroke-dasharray="5,3"/>
  <text x="475" y="1043" fill="#6b7280" font-size="10">msg/s (outer right)</text>
</svg>
