<svg xmlns="http://www.w3.org/2000/svg" viewBox="0 0 850 999" font-family="system-ui, -apple-system, sans-serif">
  <rect width="850" height="999" fill="white"/>
  <text x="425.0" y="46" text-anchor="middle" fill="#9ca3af" font-size="10">Intel Core i7-8700B @ 3.20GHz, 6 cores, performance governor, turbo off</text>
  <text x="425.0" y="32.0" text-anchor="middle" fill="#111827" font-size="13" font-weight="700">PUB/SUB throughput, 1 subscriber: TCP loopback</text>
  <line x1="90.0" y1="265.0" x2="760.0" y2="265.0" stroke="#e5e7eb" stroke-width="1"/>
  <text x="82.0" y="265.0" text-anchor="end" dominant-baseline="middle" fill="#374151" font-size="10">1M</text>
  <line x1="90.0" y1="241.0" x2="760.0" y2="241.0" stroke="#e5e7eb" stroke-width="1"/>
  <text x="82.0" y="241.0" text-anchor="end" dominant-baseline="middle" fill="#374151" font-size="10">2M</text>
  <line x1="90.0" y1="217.0" x2="760.0" y2="217.0" stroke="#e5e7eb" stroke-width="1"/>
  <text x="82.0" y="217.0" text-anchor="end" dominant-baseline="middle" fill="#374151" font-size="10">3M</text>
  <line x1="90.0" y1="193.0" x2="760.0" y2="193.0" stroke="#e5e7eb" stroke-width="1"/>
  <text x="82.0" y="193.0" text-anchor="end" dominant-baseline="middle" fill="#374151" font-size="10">4M</text>
  <line x1="90.0" y1="169.0" x2="760.0" y2="169.0" stroke="#e5e7eb" stroke-width="1"/>
  <text x="82.0" y="169.0" text-anchor="end" dominant-baseline="middle" fill="#374151" font-size="10">5M</text>
  <line x1="90.0" y1="145.0" x2="760.0" y2="145.0" stroke="#e5e7eb" stroke-width="1"/>
  <text x="82.0" y="145.0" text-anchor="end" dominant-baseline="middle" fill="#374151" font-size="10">6M</text>
  <line x1="90.0" y1="121.0" x2="760.0" y2="121.0" stroke="#e5e7eb" stroke-width="1"/>
  <text x="82.0" y="121.0" text-anchor="end" dominant-baseline="middle" fill="#374151" font-size="10">7M</text>
  <line x1="90.0" y1="97.0" x2="760.0" y2="97.0" stroke="#e5e7eb" stroke-width="1"/>
  <text x="82.0" y="97.0" text-anchor="end" dominant-baseline="middle" fill="#374151" font-size="10">8M</text>
  <line x1="90.0" y1="73.0" x2="760.0" y2="73.0" stroke="#e5e7eb" stroke-width="1"/>
  <text x="82.0" y="73.0" text-anchor="end" dominant-baseline="middle" fill="#374151" font-size="10">9M</text>
  <line x1="90.0" y1="49.0" x2="760.0" y2="49.0" stroke="#e5e7eb" stroke-width="1"/>
  <text x="82.0" y="49.0" text-anchor="end" dominant-baseline="middle" fill="#374151" font-size="10">10M</text>
  <line x1="90.0" y1="249.0" x2="760.0" y2="249.0" stroke="#e5e7eb" stroke-width="1" stroke-dasharray="3,6"/>
  <text x="768.0" y="249.0" text-anchor="start" dominant-baseline="middle" fill="#6b7280" font-size="10">1 GB/s</text>
  <line x1="90.0" y1="209.0" x2="760.0" y2="209.0" stroke="#e5e7eb" stroke-width="1" stroke-dasharray="3,6"/>
  <text x="768.0" y="209.0" text-anchor="start" dominant-baseline="middle" fill="#6b7280" font-size="10">2 GB/s</text>
  <line x1="90.0" y1="169.0" x2="760.0" y2="169.0" stroke="#e5e7eb" stroke-width="1" stroke-dasharray="3,6"/>
  <text x="768.0" y="169.0" text-anchor="start" dominant-baseline="middle" fill="#6b7280" font-size="10">3 GB/s</text>
  <line x1="90.0" y1="129.0" x2="760.0" y2="129.0" stroke="#e5e7eb" stroke-width="1" stroke-dasharray="3,6"/>
  <text x="768.0" y="129.0" text-anchor="start" dominant-baseline="middle" fill="#6b7280" font-size="10">4 GB/s</text>
  <line x1="90.0" y1="89.0" x2="760.0" y2="89.0" stroke="#e5e7eb" stroke-width="1" stroke-dasharray="3,6"/>
  <text x="768.0" y="89.0" text-anchor="start" dominant-baseline="middle" fill="#6b7280" font-size="10">5 GB/s</text>
  <line x1="90.0" y1="49.0" x2="760.0" y2="49.0" stroke="#e5e7eb" stroke-width="1" stroke-dasharray="3,6"/>
  <text x="768.0" y="49.0" text-anchor="start" dominant-baseline="middle" fill="#6b7280" font-size="10">6 GB/s</text>
  <line x1="90.0" y1="49.0" x2="90.0" y2="289.0" stroke="#e5e7eb" stroke-width="1"/>
  <line x1="145.8" y1="49.0" x2="145.8" y2="289.0" stroke="#e5e7eb" stroke-width="1"/>
  <line x1="201.7" y1="49.0" x2="201.7" y2="289.0" stroke="#e5e7eb" stroke-width="1"/>
  <line x1="257.5" y1="49.0" x2="257.5" y2="289.0" stroke="#e5e7eb" stroke-width="1"/>
  <line x1="313.3" y1="49.0" x2="313.3" y2="289.0" stroke="#e5e7eb" stroke-width="1"/>
  <line x1="369.2" y1="49.0" x2="369.2" y2="289.0" stroke="#e5e7eb" stroke-width="1"/>
  <line x1="425.0" y1="49.0" x2="425.0" y2="289.0" stroke="#e5e7eb" stroke-width="1"/>
  <line x1="480.8" y1="49.0" x2="480.8" y2="289.0" stroke="#e5e7eb" stroke-width="1"/>
  <line x1="536.7" y1="49.0" x2="536.7" y2="289.0" stroke="#e5e7eb" stroke-width="1"/>
  <line x1="592.5" y1="49.0" x2="592.5" y2="289.0" stroke="#e5e7eb" stroke-width="1"/>
  <line x1="648.3" y1="49.0" x2="648.3" y2="289.0" stroke="#e5e7eb" stroke-width="1"/>
  <line x1="704.2" y1="49.0" x2="704.2" y2="289.0" stroke="#e5e7eb" stroke-width="1"/>
  <line x1="760.0" y1="49.0" x2="760.0" y2="289.0" stroke="#e5e7eb" stroke-width="1"/>
  <line x1="90.0" y1="49.0" x2="90.0" y2="289.0" stroke="#9ca3af" stroke-width="1.5"/>
  <line x1="760.0" y1="49.0" x2="760.0" y2="289.0" stroke="#9ca3af" stroke-width="1.5"/>
  <line x1="90.0" y1="289.0" x2="760.0" y2="289.0" stroke="#9ca3af" stroke-width="1.5"/>
  <text x="40.0" y="169.0" text-anchor="middle" fill="#374151" font-size="10" font-weight="600" transform="rotate(-90,40.0,169.0)">msg/s</text>
  <polyline points="90.0,283.5 145.8,284.1 201.7,283.7 257.5,284.5 313.3,284.7 369.2,285.1 425.0,285.3 480.8,285.4 536.7,285.7 592.5,286.1 648.3,286.4 704.2,286.8 760.0,287.4" fill="none" stroke="#10b981" stroke-width="2" stroke-dasharray="6,4"/>
  <polyline points="90.0,281.4 145.8,282.2 201.7,282.5 257.5,283.2 313.3,283.2 369.2,283.8 425.0,284.0 480.8,284.1 536.7,284.5 592.5,284.8 648.3,285.1 704.2,285.6 760.0,286.7" fill="none" stroke="#2563eb" stroke-width="2" stroke-dasharray="6,4"/>
  <polyline points="90.0,136.7 145.8,131.1 201.7,133.8 257.5,185.9 313.3,240.1 369.2,243.3 425.0,253.8 480.8,268.9 536.7,276.9 592.5,282.9 648.3,285.1 704.2,287.3 760.0,287.6" fill="none" stroke="#eab308" stroke-width="2" stroke-dasharray="6,4"/>
  <polyline points="90.0,149.1 145.8,164.9 201.7,156.2 257.5,155.7 313.3,159.4 369.2,169.9 425.0,179.3 480.8,201.9 536.7,236.5 592.5,256.1 648.3,271.7 704.2,280.4 760.0,284.7" fill="none" stroke="#06b6d4" stroke-width="2" stroke-dasharray="6,4"/>
  <polyline points="90.0,195.5 145.8,200.5 201.7,200.2 257.5,203.3 313.3,202.7 369.2,204.7 425.0,209.0 480.8,218.6 536.7,238.6 592.5,260.1 648.3,272.1 704.2,280.4 760.0,284.7" fill="none" stroke="#f97316" stroke-width="2" stroke-dasharray="6,4"/>
  <polyline points="90.0,204.5 145.8,205.5 201.7,207.1 257.5,227.3 313.3,230.2 369.2,235.5 425.0,243.5 480.8,256.7 536.7,266.3 592.5,275.3 648.3,282.6 704.2,285.6 760.0,287.1" fill="none" stroke="#dc2626" stroke-width="2" stroke-dasharray="6,4"/>
  <polyline points="90.0,288.9 145.8,288.9 201.7,288.7 257.5,288.5 313.3,288.1 369.2,287.4 425.0,285.8 480.8,282.9 536.7,277.9 592.5,268.9 648.3,253.2 704.2,228.6 760.0,199.7" fill="none" stroke="#10b981" stroke-width="2.5" stroke-linecap="round" stroke-linejoin="round"/>
  <circle cx="90.0" cy="288.9" r="3" fill="#10b981" stroke="white" stroke-width="1"/>
  <circle cx="145.8" cy="288.9" r="3" fill="#10b981" stroke="white" stroke-width="1"/>
  <circle cx="201.7" cy="288.7" r="3" fill="#10b981" stroke="white" stroke-width="1"/>
  <circle cx="257.5" cy="288.5" r="3" fill="#10b981" stroke="white" stroke-width="1"/>
  <circle cx="313.3" cy="288.1" r="3" fill="#10b981" stroke="white" stroke-width="1"/>
  <circle cx="369.2" cy="287.4" r="3" fill="#10b981" stroke="white" stroke-width="1"/>
  <circle cx="425.0" cy="285.8" r="3" fill="#10b981" stroke="white" stroke-width="1"/>
  <circle cx="480.8" cy="282.9" r="3" fill="#10b981" stroke="white" stroke-width="1"/>
  <circle cx="536.7" cy="277.9" r="3" fill="#10b981" stroke="white" stroke-width="1"/>
  <circle cx="592.5" cy="268.9" r="3" fill="#10b981" stroke="white" stroke-width="1"/>
  <circle cx="648.3" cy="253.2" r="3" fill="#10b981" stroke="white" stroke-width="1"/>
  <circle cx="704.2" cy="228.6" r="3" fill="#10b981" stroke="white" stroke-width="1"/>
  <circle cx="760.0" cy="199.7" r="3" fill="#10b981" stroke="white" stroke-width="1"/>
  <polyline points="90.0,288.9 145.8,288.8 201.7,288.7 257.5,288.4 313.3,287.8 369.2,286.8 425.0,284.7 480.8,280.6 536.7,273.6 592.5,260.6 648.3,236.2 704.2,196.1 760.0,166.1" fill="none" stroke="#2563eb" stroke-width="2.5" stroke-linecap="round" stroke-linejoin="round"/>
  <circle cx="90.0" cy="288.9" r="3" fill="#2563eb" stroke="white" stroke-width="1"/>
  <circle cx="145.8" cy="288.8" r="3" fill="#2563eb" stroke="white" stroke-width="1"/>
  <circle cx="201.7" cy="288.7" r="3" fill="#2563eb" stroke="white" stroke-width="1"/>
  <circle cx="257.5" cy="288.4" r="3" fill="#2563eb" stroke="white" stroke-width="1"/>
  <circle cx="313.3" cy="287.8" r="3" fill="#2563eb" stroke="white" stroke-width="1"/>
  <circle cx="369.2" cy="286.8" r="3" fill="#2563eb" stroke="white" stroke-width="1"/>
  <circle cx="425.0" cy="284.7" r="3" fill="#2563eb" stroke="white" stroke-width="1"/>
  <circle cx="480.8" cy="280.6" r="3" fill="#2563eb" stroke="white" stroke-width="1"/>
  <circle cx="536.7" cy="273.6" r="3" fill="#2563eb" stroke="white" stroke-width="1"/>
  <circle cx="592.5" cy="260.6" r="3" fill="#2563eb" stroke="white" stroke-width="1"/>
  <circle cx="648.3" cy="236.2" r="3" fill="#2563eb" stroke="white" stroke-width="1"/>
  <circle cx="704.2" cy="196.1" r="3" fill="#2563eb" stroke="white" stroke-width="1"/>
  <circle cx="760.0" cy="166.1" r="3" fill="#2563eb" stroke="white" stroke-width="1"/>
  <polyline points="90.0,287.0 145.8,284.8 201.7,280.7 257.5,278.0 313.3,278.6 369.2,269.5 425.0,258.9 480.8,254.7 536.7,247.9 592.5,247.0 648.3,235.6 704.2,242.2 760.0,210.7" fill="none" stroke="#eab308" stroke-width="2.5" stroke-linecap="round" stroke-linejoin="round"/>
  <circle cx="90.0" cy="287.0" r="3" fill="#eab308" stroke="white" stroke-width="1"/>
  <circle cx="145.8" cy="284.8" r="3" fill="#eab308" stroke="white" stroke-width="1"/>
  <circle cx="201.7" cy="280.7" r="3" fill="#eab308" stroke="white" stroke-width="1"/>
  <circle cx="257.5" cy="278.0" r="3" fill="#eab308" stroke="white" stroke-width="1"/>
  <circle cx="313.3" cy="278.6" r="3" fill="#eab308" stroke="white" stroke-width="1"/>
  <circle cx="369.2" cy="269.5" r="3" fill="#eab308" stroke="white" stroke-width="1"/>
  <circle cx="425.0" cy="258.9" r="3" fill="#eab308" stroke="white" stroke-width="1"/>
  <circle cx="480.8" cy="254.7" r="3" fill="#eab308" stroke="white" stroke-width="1"/>
  <circle cx="536.7" cy="247.9" r="3" fill="#eab308" stroke="white" stroke-width="1"/>
  <circle cx="592.5" cy="247.0" r="3" fill="#eab308" stroke="white" stroke-width="1"/>
  <circle cx="648.3" cy="235.6" r="3" fill="#eab308" stroke="white" stroke-width="1"/>
  <circle cx="704.2" cy="242.2" r="3" fill="#eab308" stroke="white" stroke-width="1"/>
  <circle cx="760.0" cy="210.7" r="3" fill="#eab308" stroke="white" stroke-width="1"/>
  <polyline points="90.0,287.1 145.8,285.7 201.7,281.9 257.5,274.8 313.3,261.4 369.2,238.2 425.0,195.4 480.8,140.3 536.7,109.9 592.5,64.1 648.3,52.4 704.2,54.1 760.0,54.1" fill="none" stroke="#06b6d4" stroke-width="2.5" stroke-linecap="round" stroke-linejoin="round"/>
  <circle cx="90.0" cy="287.1" r="3" fill="#06b6d4" stroke="white" stroke-width="1"/>
  <circle cx="145.8" cy="285.7" r="3" fill="#06b6d4" stroke="white" stroke-width="1"/>
  <circle cx="201.7" cy="281.9" r="3" fill="#06b6d4" stroke="white" stroke-width="1"/>
  <circle cx="257.5" cy="274.8" r="3" fill="#06b6d4" stroke="white" stroke-width="1"/>
  <circle cx="313.3" cy="261.4" r="3" fill="#06b6d4" stroke="white" stroke-width="1"/>
  <circle cx="369.2" cy="238.2" r="3" fill="#06b6d4" stroke="white" stroke-width="1"/>
  <circle cx="425.0" cy="195.4" r="3" fill="#06b6d4" stroke="white" stroke-width="1"/>
  <circle cx="480.8" cy="140.3" r="3" fill="#06b6d4" stroke="white" stroke-width="1"/>
  <circle cx="536.7" cy="109.9" r="3" fill="#06b6d4" stroke="white" stroke-width="1"/>
  <circle cx="592.5" cy="64.1" r="3" fill="#06b6d4" stroke="white" stroke-width="1"/>
  <circle cx="648.3" cy="52.4" r="3" fill="#06b6d4" stroke="white" stroke-width="1"/>
  <circle cx="704.2" cy="54.1" r="3" fill="#06b6d4" stroke="white" stroke-width="1"/>
  <circle cx="760.0" cy="54.1" r="3" fill="#06b6d4" stroke="white" stroke-width="1"/>
  <polyline points="90.0,287.8 145.8,286.6 201.7,284.3 257.5,279.9 313.3,270.6 369.2,253.0 425.0,220.7 480.8,168.8 536.7,117.0 592.5,91.4 648.3,58.2 704.2,53.7 760.0,52.7" fill="none" stroke="#f97316" stroke-width="2.5" stroke-linecap="round" stroke-linejoin="round"/>
  <circle cx="90.0" cy="287.8" r="3" fill="#f97316" stroke="white" stroke-width="1"/>
  <circle cx="145.8" cy="286.6" r="3" fill="#f97316" stroke="white" stroke-width="1"/>
  <circle cx="201.7" cy="284.3" r="3" fill="#f97316" stroke="white" stroke-width="1"/>
  <circle cx="257.5" cy="279.9" r="3" fill="#f97316" stroke="white" stroke-width="1"/>
  <circle cx="313.3" cy="270.6" r="3" fill="#f97316" stroke="white" stroke-width="1"/>
  <circle cx="369.2" cy="253.0" r="3" fill="#f97316" stroke="white" stroke-width="1"/>
  <circle cx="425.0" cy="220.7" r="3" fill="#f97316" stroke="white" stroke-width="1"/>
  <circle cx="480.8" cy="168.8" r="3" fill="#f97316" stroke="white" stroke-width="1"/>
  <circle cx="536.7" cy="117.0" r="3" fill="#f97316" stroke="white" stroke-width="1"/>
  <circle cx="592.5" cy="91.4" r="3" fill="#f97316" stroke="white" stroke-width="1"/>
  <circle cx="648.3" cy="58.2" r="3" fill="#f97316" stroke="white" stroke-width="1"/>
  <circle cx="704.2" cy="53.7" r="3" fill="#f97316" stroke="white" stroke-width="1"/>
  <circle cx="760.0" cy="52.7" r="3" fill="#f97316" stroke="white" stroke-width="1"/>
  <polyline points="90.0,287.9 145.8,286.8 201.7,284.6 257.5,282.4 313.3,276.5 369.2,266.2 425.0,250.2 480.8,233.9 536.7,211.5 592.5,195.7 648.3,201.2 704.2,196.3 760.0,186.6" fill="none" stroke="#dc2626" stroke-width="2.5" stroke-linecap="round" stroke-linejoin="round"/>
  <circle cx="90.0" cy="287.9" r="3" fill="#dc2626" stroke="white" stroke-width="1"/>
  <circle cx="145.8" cy="286.8" r="3" fill="#dc2626" stroke="white" stroke-width="1"/>
  <circle cx="201.7" cy="284.6" r="3" fill="#dc2626" stroke="white" stroke-width="1"/>
  <circle cx="257.5" cy="282.4" r="3" fill="#dc2626" stroke="white" stroke-width="1"/>
  <circle cx="313.3" cy="276.5" r="3" fill="#dc2626" stroke="white" stroke-width="1"/>
  <circle cx="369.2" cy="266.2" r="3" fill="#dc2626" stroke="white" stroke-width="1"/>
  <circle cx="425.0" cy="250.2" r="3" fill="#dc2626" stroke="white" stroke-width="1"/>
  <circle cx="480.8" cy="233.9" r="3" fill="#dc2626" stroke="white" stroke-width="1"/>
  <circle cx="536.7" cy="211.5" r="3" fill="#dc2626" stroke="white" stroke-width="1"/>
  <circle cx="592.5" cy="195.7" r="3" fill="#dc2626" stroke="white" stroke-width="1"/>
  <circle cx="648.3" cy="201.2" r="3" fill="#dc2626" stroke="white" stroke-width="1"/>
  <circle cx="704.2" cy="196.3" r="3" fill="#dc2626" stroke="white" stroke-width="1"/>
  <circle cx="760.0" cy="186.6" r="3" fill="#dc2626" stroke="white" stroke-width="1"/>
  <text x="90.0" y="303.0" text-anchor="middle" fill="#374151" font-size="8.5">8 B</text>
  <text x="145.8" y="303.0" text-anchor="middle" fill="#374151" font-size="8.5">16 B</text>
  <text x="201.7" y="303.0" text-anchor="middle" fill="#374151" font-size="8.5">32 B</text>
  <text x="257.5" y="303.0" text-anchor="middle" fill="#374151" font-size="8.5">64 B</text>
  <text x="313.3" y="303.0" text-anchor="middle" fill="#374151" font-size="8.5">128 B</text>
  <text x="369.2" y="303.0" text-anchor="middle" fill="#374151" font-size="8.5">256 B</text>
  <text x="425.0" y="303.0" text-anchor="middle" fill="#374151" font-size="8.5">512 B</text>
  <text x="480.8" y="303.0" text-anchor="middle" fill="#374151" font-size="8.5">1 KiB</text>
  <text x="536.7" y="303.0" text-anchor="middle" fill="#374151" font-size="8.5">2 KiB</text>
  <text x="592.5" y="303.0" text-anchor="middle" fill="#374151" font-size="8.5">4 KiB</text>
  <text x="648.3" y="303.0" text-anchor="middle" fill="#374151" font-size="8.5">8 KiB</text>
  <text x="704.2" y="303.0" text-anchor="middle" fill="#374151" font-size="8.5">16 KiB</text>
  <text x="760.0" y="303.0" text-anchor="middle" fill="#374151" font-size="8.5">32 KiB</text>
  <text x="425.0" y="342.0" text-anchor="middle" fill="#111827" font-size="13" font-weight="700">PUB/SUB throughput, 8 subscribers: TCP loopback</text>
  <line x1="90.0" y1="575.0" x2="760.0" y2="575.0" stroke="#e5e7eb" stroke-width="1"/>
  <text x="82.0" y="575.0" text-anchor="end" dominant-baseline="middle" fill="#374151" font-size="10">200k</text>
  <line x1="90.0" y1="551.0" x2="760.0" y2="551.0" stroke="#e5e7eb" stroke-width="1"/>
  <text x="82.0" y="551.0" text-anchor="end" dominant-baseline="middle" fill="#374151" font-size="10">400k</text>
  <line x1="90.0" y1="527.0" x2="760.0" y2="527.0" stroke="#e5e7eb" stroke-width="1"/>
  <text x="82.0" y="527.0" text-anchor="end" dominant-baseline="middle" fill="#374151" font-size="10">600k</text>
  <line x1="90.0" y1="503.0" x2="760.0" y2="503.0" stroke="#e5e7eb" stroke-width="1"/>
  <text x="82.0" y="503.0" text-anchor="end" dominant-baseline="middle" fill="#374151" font-size="10">800k</text>
  <line x1="90.0" y1="479.0" x2="760.0" y2="479.0" stroke="#e5e7eb" stroke-width="1"/>
  <text x="82.0" y="479.0" text-anchor="end" dominant-baseline="middle" fill="#374151" font-size="10">1M</text>
  <line x1="90.0" y1="455.0" x2="760.0" y2="455.0" stroke="#e5e7eb" stroke-width="1"/>
  <text x="82.0" y="455.0" text-anchor="end" dominant-baseline="middle" fill="#374151" font-size="10">1.2M</text>
  <line x1="90.0" y1="431.0" x2="760.0" y2="431.0" stroke="#e5e7eb" stroke-width="1"/>
  <text x="82.0" y="431.0" text-anchor="end" dominant-baseline="middle" fill="#374151" font-size="10">1.4M</text>
  <line x1="90.0" y1="407.0" x2="760.0" y2="407.0" stroke="#e5e7eb" stroke-width="1"/>
  <text x="82.0" y="407.0" text-anchor="end" dominant-baseline="middle" fill="#374151" font-size="10">1.6M</text>
  <line x1="90.0" y1="383.0" x2="760.0" y2="383.0" stroke="#e5e7eb" stroke-width="1"/>
  <text x="82.0" y="383.0" text-anchor="end" dominant-baseline="middle" fill="#374151" font-size="10">1.8M</text>
  <line x1="90.0" y1="359.0" x2="760.0" y2="359.0" stroke="#e5e7eb" stroke-width="1"/>
  <text x="82.0" y="359.0" text-anchor="end" dominant-baseline="middle" fill="#374151" font-size="10">2M</text>
  <line x1="90.0" y1="539.0" x2="760.0" y2="539.0" stroke="#e5e7eb" stroke-width="1" stroke-dasharray="3,6"/>
  <text x="768.0" y="539.0" text-anchor="start" dominant-baseline="middle" fill="#6b7280" font-size="10">2 GB/s</text>
  <line x1="90.0" y1="479.0" x2="760.0" y2="479.0" stroke="#e5e7eb" stroke-width="1" stroke-dasharray="3,6"/>
  <text x="768.0" y="479.0" text-anchor="start" dominant-baseline="middle" fill="#6b7280" font-size="10">4 GB/s</text>
  <line x1="90.0" y1="419.0" x2="760.0" y2="419.0" stroke="#e5e7eb" stroke-width="1" stroke-dasharray="3,6"/>
  <text x="768.0" y="419.0" text-anchor="start" dominant-baseline="middle" fill="#6b7280" font-size="10">6 GB/s</text>
  <line x1="90.0" y1="359.0" x2="760.0" y2="359.0" stroke="#e5e7eb" stroke-width="1" stroke-dasharray="3,6"/>
  <text x="768.0" y="359.0" text-anchor="start" dominant-baseline="middle" fill="#6b7280" font-size="10">8 GB/s</text>
  <line x1="90.0" y1="359.0" x2="90.0" y2="599.0" stroke="#e5e7eb" stroke-width="1"/>
  <line x1="145.8" y1="359.0" x2="145.8" y2="599.0" stroke="#e5e7eb" stroke-width="1"/>
  <line x1="201.7" y1="359.0" x2="201.7" y2="599.0" stroke="#e5e7eb" stroke-width="1"/>
  <line x1="257.5" y1="359.0" x2="257.5" y2="599.0" stroke="#e5e7eb" stroke-width="1"/>
  <line x1="313.3" y1="359.0" x2="313.3" y2="599.0" stroke="#e5e7eb" stroke-width="1"/>
  <line x1="369.2" y1="359.0" x2="369.2" y2="599.0" stroke="#e5e7eb" stroke-width="1"/>
  <line x1="425.0" y1="359.0" x2="425.0" y2="599.0" stroke="#e5e7eb" stroke-width="1"/>
  <line x1="480.8" y1="359.0" x2="480.8" y2="599.0" stroke="#e5e7eb" stroke-width="1"/>
  <line x1="536.7" y1="359.0" x2="536.7" y2="599.0" stroke="#e5e7eb" stroke-width="1"/>
  <line x1="592.5" y1="359.0" x2="592.5" y2="599.0" stroke="#e5e7eb" stroke-width="1"/>
  <line x1="648.3" y1="359.0" x2="648.3" y2="599.0" stroke="#e5e7eb" stroke-width="1"/>
  <line x1="704.2" y1="359.0" x2="704.2" y2="599.0" stroke="#e5e7eb" stroke-width="1"/>
  <line x1="760.0" y1="359.0" x2="760.0" y2="599.0" stroke="#e5e7eb" stroke-width="1"/>
  <line x1="90.0" y1="359.0" x2="90.0" y2="599.0" stroke="#9ca3af" stroke-width="1.5"/>
  <line x1="760.0" y1="359.0" x2="760.0" y2="599.0" stroke="#9ca3af" stroke-width="1.5"/>
  <line x1="90.0" y1="599.0" x2="760.0" y2="599.0" stroke="#9ca3af" stroke-width="1.5"/>
  <text x="40.0" y="479.0" text-anchor="middle" fill="#374151" font-size="10" font-weight="600" transform="rotate(-90,40.0,479.0)">msg/s</text>
  <polyline points="90.0,589.7 145.8,589.8 201.7,589.7 257.5,591.0 313.3,591.6 369.2,592.1 425.0,592.4 480.8,592.5 536.7,592.7 592.5,593.3 648.3,594.3 704.2,595.0 760.0,596.2" fill="none" stroke="#10b981" stroke-width="2" stroke-dasharray="6,4"/>
  <polyline points="90.0,594.7 145.8,594.8 201.7,595.1 257.5,595.5 313.3,595.8 369.2,596.0 425.0,596.1 480.8,596.3 536.7,596.3 592.5,596.5 648.3,596.8 704.2,597.2 760.0,597.6" fill="none" stroke="#2563eb" stroke-width="2" stroke-dasharray="6,4"/>
  <polyline points="90.0,444.9 145.8,447.2 201.7,469.1 257.5,502.0 313.3,532.2 369.2,557.5 425.0,574.7 480.8,585.5 536.7,592.2 592.5,595.3 648.3,597.2 704.2,598.0 760.0,598.1" fill="none" stroke="#eab308" stroke-width="2" stroke-dasharray="6,4"/>
  <polyline points="90.0,412.1 145.8,401.0 201.7,401.3 257.5,417.4 313.3,479.0 369.2,432.5 425.0,488.4 480.8,545.9 536.7,564.1 592.5,581.4 648.3,590.0 704.2,594.0 760.0,595.8" fill="none" stroke="#06b6d4" stroke-width="2" stroke-dasharray="6,4"/>
  <polyline points="90.0,458.8 145.8,462.4 201.7,468.1 257.5,479.7 313.3,487.7 369.2,502.2 425.0,521.9 480.8,543.9 536.7,562.3 592.5,579.0 648.3,587.3 704.2,592.9 760.0,595.9" fill="none" stroke="#f97316" stroke-width="2" stroke-dasharray="6,4"/>
  <polyline points="90.0,497.3 145.8,494.8 201.7,497.0 257.5,505.9 313.3,509.9 369.2,524.0 425.0,534.6 480.8,551.5 536.7,568.9 592.5,586.1 648.3,593.0 704.2,595.9 760.0,597.4" fill="none" stroke="#dc2626" stroke-width="2" stroke-dasharray="6,4"/>
  <polyline points="90.0,598.9 145.8,598.7 201.7,598.4 257.5,598.0 313.3,597.1 369.2,595.5 425.0,592.3 480.8,585.6 536.7,573.3 592.5,552.0 648.3,522.5 704.2,466.7 760.0,416.7" fill="none" stroke="#10b981" stroke-width="2.5" stroke-linecap="round" stroke-linejoin="round"/>
  <circle cx="90.0" cy="598.9" r="3" fill="#10b981" stroke="white" stroke-width="1"/>
  <circle cx="145.8" cy="598.7" r="3" fill="#10b981" stroke="white" stroke-width="1"/>
  <circle cx="201.7" cy="598.4" r="3" fill="#10b981" stroke="white" stroke-width="1"/>
  <circle cx="257.5" cy="598.0" r="3" fill="#10b981" stroke="white" stroke-width="1"/>
  <circle cx="313.3" cy="597.1" r="3" fill="#10b981" stroke="white" stroke-width="1"/>
  <circle cx="369.2" cy="595.5" r="3" fill="#10b981" stroke="white" stroke-width="1"/>
  <circle cx="425.0" cy="592.3" r="3" fill="#10b981" stroke="white" stroke-width="1"/>
  <circle cx="480.8" cy="585.6" r="3" fill="#10b981" stroke="white" stroke-width="1"/>
  <circle cx="536.7" cy="573.3" r="3" fill="#10b981" stroke="white" stroke-width="1"/>
  <circle cx="592.5" cy="552.0" r="3" fill="#10b981" stroke="white" stroke-width="1"/>
  <circle cx="648.3" cy="522.5" r="3" fill="#10b981" stroke="white" stroke-width="1"/>
  <circle cx="704.2" cy="466.7" r="3" fill="#10b981" stroke="white" stroke-width="1"/>
  <circle cx="760.0" cy="416.7" r="3" fill="#10b981" stroke="white" stroke-width="1"/>
  <polyline points="90.0,598.9 145.8,598.9 201.7,598.7 257.5,598.6 313.3,598.2 369.2,597.4 425.0,596.1 480.8,593.5 536.7,588.0 592.5,578.4 648.3,562.5 704.2,538.8 760.0,505.6" fill="none" stroke="#2563eb" stroke-width="2.5" stroke-linecap="round" stroke-linejoin="round"/>
  <circle cx="90.0" cy="598.9" r="3" fill="#2563eb" stroke="white" stroke-width="1"/>
  <circle cx="145.8" cy="598.9" r="3" fill="#2563eb" stroke="white" stroke-width="1"/>
  <circle cx="201.7" cy="598.7" r="3" fill="#2563eb" stroke="white" stroke-width="1"/>
  <circle cx="257.5" cy="598.6" r="3" fill="#2563eb" stroke="white" stroke-width="1"/>
  <circle cx="313.3" cy="598.2" r="3" fill="#2563eb" stroke="white" stroke-width="1"/>
  <circle cx="369.2" cy="597.4" r="3" fill="#2563eb" stroke="white" stroke-width="1"/>
  <circle cx="425.0" cy="596.1" r="3" fill="#2563eb" stroke="white" stroke-width="1"/>
  <circle cx="480.8" cy="593.5" r="3" fill="#2563eb" stroke="white" stroke-width="1"/>
  <circle cx="536.7" cy="588.0" r="3" fill="#2563eb" stroke="white" stroke-width="1"/>
  <circle cx="592.5" cy="578.4" r="3" fill="#2563eb" stroke="white" stroke-width="1"/>
  <circle cx="648.3" cy="562.5" r="3" fill="#2563eb" stroke="white" stroke-width="1"/>
  <circle cx="704.2" cy="538.8" r="3" fill="#2563eb" stroke="white" stroke-width="1"/>
  <circle cx="760.0" cy="505.6" r="3" fill="#2563eb" stroke="white" stroke-width="1"/>
  <polyline points="90.0,596.5 145.8,594.1 201.7,590.7 257.5,586.6 313.3,581.9 369.2,577.7 425.0,574.1 480.8,571.4 536.7,571.0 592.5,569.0 648.3,568.9 704.2,565.3 760.0,541.3" fill="none" stroke="#eab308" stroke-width="2.5" stroke-linecap="round" stroke-linejoin="round"/>
  <circle cx="90.0" cy="596.5" r="3" fill="#eab308" stroke="white" stroke-width="1"/>
  <circle cx="145.8" cy="594.1" r="3" fill="#eab308" stroke="white" stroke-width="1"/>
  <circle cx="201.7" cy="590.7" r="3" fill="#eab308" stroke="white" stroke-width="1"/>
  <circle cx="257.5" cy="586.6" r="3" fill="#eab308" stroke="white" stroke-width="1"/>
  <circle cx="313.3" cy="581.9" r="3" fill="#eab308" stroke="white" stroke-width="1"/>
  <circle cx="369.2" cy="577.7" r="3" fill="#eab308" stroke="white" stroke-width="1"/>
  <circle cx="425.0" cy="574.1" r="3" fill="#eab308" stroke="white" stroke-width="1"/>
  <circle cx="480.8" cy="571.4" r="3" fill="#eab308" stroke="white" stroke-width="1"/>
  <circle cx="536.7" cy="571.0" r="3" fill="#eab308" stroke="white" stroke-width="1"/>
  <circle cx="592.5" cy="569.0" r="3" fill="#eab308" stroke="white" stroke-width="1"/>
  <circle cx="648.3" cy="568.9" r="3" fill="#eab308" stroke="white" stroke-width="1"/>
  <circle cx="704.2" cy="565.3" r="3" fill="#eab308" stroke="white" stroke-width="1"/>
  <circle cx="760.0" cy="541.3" r="3" fill="#eab308" stroke="white" stroke-width="1"/>
  <polyline points="90.0,596.0 145.8,592.7 201.7,586.3 257.5,575.8 313.3,568.3 369.2,513.8 425.0,485.8 480.8,490.3 536.7,456.1 592.5,454.8 648.3,451.1 704.2,435.9 760.0,392.0" fill="none" stroke="#06b6d4" stroke-width="2.5" stroke-linecap="round" stroke-linejoin="round"/>
  <circle cx="90.0" cy="596.0" r="3" fill="#06b6d4" stroke="white" stroke-width="1"/>
  <circle cx="145.8" cy="592.7" r="3" fill="#06b6d4" stroke="white" stroke-width="1"/>
  <circle cx="201.7" cy="586.3" r="3" fill="#06b6d4" stroke="white" stroke-width="1"/>
  <circle cx="257.5" cy="575.8" r="3" fill="#06b6d4" stroke="white" stroke-width="1"/>
  <circle cx="313.3" cy="568.3" r="3" fill="#06b6d4" stroke="white" stroke-width="1"/>
  <circle cx="369.2" cy="513.8" r="3" fill="#06b6d4" stroke="white" stroke-width="1"/>
  <circle cx="425.0" cy="485.8" r="3" fill="#06b6d4" stroke="white" stroke-width="1"/>
  <circle cx="480.8" cy="490.3" r="3" fill="#06b6d4" stroke="white" stroke-width="1"/>
  <circle cx="536.7" cy="456.1" r="3" fill="#06b6d4" stroke="white" stroke-width="1"/>
  <circle cx="592.5" cy="454.8" r="3" fill="#06b6d4" stroke="white" stroke-width="1"/>
  <circle cx="648.3" cy="451.1" r="3" fill="#06b6d4" stroke="white" stroke-width="1"/>
  <circle cx="704.2" cy="435.9" r="3" fill="#06b6d4" stroke="white" stroke-width="1"/>
  <circle cx="760.0" cy="392.0" r="3" fill="#06b6d4" stroke="white" stroke-width="1"/>
  <polyline points="90.0,596.8 145.8,594.6 201.7,590.6 257.5,583.7 313.3,570.5 369.2,549.4 425.0,520.0 480.8,486.1 536.7,448.7 592.5,435.4 648.3,407.1 704.2,400.0 760.0,399.0" fill="none" stroke="#f97316" stroke-width="2.5" stroke-linecap="round" stroke-linejoin="round"/>
  <circle cx="90.0" cy="596.8" r="3" fill="#f97316" stroke="white" stroke-width="1"/>
  <circle cx="145.8" cy="594.6" r="3" fill="#f97316" stroke="white" stroke-width="1"/>
  <circle cx="201.7" cy="590.6" r="3" fill="#f97316" stroke="white" stroke-width="1"/>
  <circle cx="257.5" cy="583.7" r="3" fill="#f97316" stroke="white" stroke-width="1"/>
  <circle cx="313.3" cy="570.5" r="3" fill="#f97316" stroke="white" stroke-width="1"/>
  <circle cx="369.2" cy="549.4" r="3" fill="#f97316" stroke="white" stroke-width="1"/>
  <circle cx="425.0" cy="520.0" r="3" fill="#f97316" stroke="white" stroke-width="1"/>
  <circle cx="480.8" cy="486.1" r="3" fill="#f97316" stroke="white" stroke-width="1"/>
  <circle cx="536.7" cy="448.7" r="3" fill="#f97316" stroke="white" stroke-width="1"/>
  <circle cx="592.5" cy="435.4" r="3" fill="#f97316" stroke="white" stroke-width="1"/>
  <circle cx="648.3" cy="407.1" r="3" fill="#f97316" stroke="white" stroke-width="1"/>
  <circle cx="704.2" cy="400.0" r="3" fill="#f97316" stroke="white" stroke-width="1"/>
  <circle cx="760.0" cy="399.0" r="3" fill="#f97316" stroke="white" stroke-width="1"/>
  <polyline points="90.0,597.4 145.8,595.7 201.7,592.5 257.5,587.1 313.3,576.2 369.2,560.6 425.0,533.0 480.8,501.8 536.7,475.7 592.5,493.0 648.3,501.1 704.2,497.0 760.0,497.3" fill="none" stroke="#dc2626" stroke-width="2.5" stroke-linecap="round" stroke-linejoin="round"/>
  <circle cx="90.0" cy="597.4" r="3" fill="#dc2626" stroke="white" stroke-width="1"/>
  <circle cx="145.8" cy="595.7" r="3" fill="#dc2626" stroke="white" stroke-width="1"/>
  <circle cx="201.7" cy="592.5" r="3" fill="#dc2626" stroke="white" stroke-width="1"/>
  <circle cx="257.5" cy="587.1" r="3" fill="#dc2626" stroke="white" stroke-width="1"/>
  <circle cx="313.3" cy="576.2" r="3" fill="#dc2626" stroke="white" stroke-width="1"/>
  <circle cx="369.2" cy="560.6" r="3" fill="#dc2626" stroke="white" stroke-width="1"/>
  <circle cx="425.0" cy="533.0" r="3" fill="#dc2626" stroke="white" stroke-width="1"/>
  <circle cx="480.8" cy="501.8" r="3" fill="#dc2626" stroke="white" stroke-width="1"/>
  <circle cx="536.7" cy="475.7" r="3" fill="#dc2626" stroke="white" stroke-width="1"/>
  <circle cx="592.5" cy="493.0" r="3" fill="#dc2626" stroke="white" stroke-width="1"/>
  <circle cx="648.3" cy="501.1" r="3" fill="#dc2626" stroke="white" stroke-width="1"/>
  <circle cx="704.2" cy="497.0" r="3" fill="#dc2626" stroke="white" stroke-width="1"/>
  <circle cx="760.0" cy="497.3" r="3" fill="#dc2626" stroke="white" stroke-width="1"/>
  <text x="90.0" y="613.0" text-anchor="middle" fill="#374151" font-size="8.5">8 B</text>
  <text x="145.8" y="613.0" text-anchor="middle" fill="#374151" font-size="8.5">16 B</text>
  <text x="201.7" y="613.0" text-anchor="middle" fill="#374151" font-size="8.5">32 B</text>
  <text x="257.5" y="613.0" text-anchor="middle" fill="#374151" font-size="8.5">64 B</text>
  <text x="313.3" y="613.0" text-anchor="middle" fill="#374151" font-size="8.5">128 B</text>
  <text x="369.2" y="613.0" text-anchor="middle" fill="#374151" font-size="8.5">256 B</text>
  <text x="425.0" y="613.0" text-anchor="middle" fill="#374151" font-size="8.5">512 B</text>
  <text x="480.8" y="613.0" text-anchor="middle" fill="#374151" font-size="8.5">1 KiB</text>
  <text x="536.7" y="613.0" text-anchor="middle" fill="#374151" font-size="8.5">2 KiB</text>
  <text x="592.5" y="613.0" text-anchor="middle" fill="#374151" font-size="8.5">4 KiB</text>
  <text x="648.3" y="613.0" text-anchor="middle" fill="#374151" font-size="8.5">8 KiB</text>
  <text x="704.2" y="613.0" text-anchor="middle" fill="#374151" font-size="8.5">16 KiB</text>
  <text x="760.0" y="613.0" text-anchor="middle" fill="#374151" font-size="8.5">32 KiB</text>
  <text x="425.0" y="652.0" text-anchor="middle" fill="#111827" font-size="13" font-weight="700">PUB/SUB throughput, 64 subscribers: TCP loopback</text>
  <line x1="90.0" y1="869.0" x2="760.0" y2="869.0" stroke="#e5e7eb" stroke-width="1"/>
  <text x="82.0" y="869.0" text-anchor="end" dominant-baseline="middle" fill="#374151" font-size="10">50k</text>
  <line x1="90.0" y1="829.0" x2="760.0" y2="829.0" stroke="#e5e7eb" stroke-width="1"/>
  <text x="82.0" y="829.0" text-anchor="end" dominant-baseline="middle" fill="#374151" font-size="10">100k</text>
  <line x1="90.0" y1="789.0" x2="760.0" y2="789.0" stroke="#e5e7eb" stroke-width="1"/>
  <text x="82.0" y="789.0" text-anchor="end" dominant-baseline="middle" fill="#374151" font-size="10">150k</text>
  <line x1="90.0" y1="749.0" x2="760.0" y2="749.0" stroke="#e5e7eb" stroke-width="1"/>
  <text x="82.0" y="749.0" text-anchor="end" dominant-baseline="middle" fill="#374151" font-size="10">200k</text>
  <line x1="90.0" y1="709.0" x2="760.0" y2="709.0" stroke="#e5e7eb" stroke-width="1"/>
  <text x="82.0" y="709.0" text-anchor="end" dominant-baseline="middle" fill="#374151" font-size="10">250k</text>
  <line x1="90.0" y1="669.0" x2="760.0" y2="669.0" stroke="#e5e7eb" stroke-width="1"/>
  <text x="82.0" y="669.0" text-anchor="end" dominant-baseline="middle" fill="#374151" font-size="10">300k</text>
  <line x1="90.0" y1="869.0" x2="760.0" y2="869.0" stroke="#e5e7eb" stroke-width="1" stroke-dasharray="3,6"/>
  <text x="768.0" y="869.0" text-anchor="start" dominant-baseline="middle" fill="#6b7280" font-size="10">2 GB/s</text>
  <line x1="90.0" y1="829.0" x2="760.0" y2="829.0" stroke="#e5e7eb" stroke-width="1" stroke-dasharray="3,6"/>
  <text x="768.0" y="829.0" text-anchor="start" dominant-baseline="middle" fill="#6b7280" font-size="10">4 GB/s</text>
  <line x1="90.0" y1="789.0" x2="760.0" y2="789.0" stroke="#e5e7eb" stroke-width="1" stroke-dasharray="3,6"/>
  <text x="768.0" y="789.0" text-anchor="start" dominant-baseline="middle" fill="#6b7280" font-size="10">6 GB/s</text>
  <line x1="90.0" y1="749.0" x2="760.0" y2="749.0" stroke="#e5e7eb" stroke-width="1" stroke-dasharray="3,6"/>
  <text x="768.0" y="749.0" text-anchor="start" dominant-baseline="middle" fill="#6b7280" font-size="10">8 GB/s</text>
  <line x1="90.0" y1="709.0" x2="760.0" y2="709.0" stroke="#e5e7eb" stroke-width="1" stroke-dasharray="3,6"/>
  <text x="768.0" y="709.0" text-anchor="start" dominant-baseline="middle" fill="#6b7280" font-size="10">10 GB/s</text>
  <line x1="90.0" y1="669.0" x2="760.0" y2="669.0" stroke="#e5e7eb" stroke-width="1" stroke-dasharray="3,6"/>
  <text x="768.0" y="669.0" text-anchor="start" dominant-baseline="middle" fill="#6b7280" font-size="10">12 GB/s</text>
  <line x1="90.0" y1="669.0" x2="90.0" y2="909.0" stroke="#e5e7eb" stroke-width="1"/>
  <line x1="145.8" y1="669.0" x2="145.8" y2="909.0" stroke="#e5e7eb" stroke-width="1"/>
  <line x1="201.7" y1="669.0" x2="201.7" y2="909.0" stroke="#e5e7eb" stroke-width="1"/>
  <line x1="257.5" y1="669.0" x2="257.5" y2="909.0" stroke="#e5e7eb" stroke-width="1"/>
  <line x1="313.3" y1="669.0" x2="313.3" y2="909.0" stroke="#e5e7eb" stroke-width="1"/>
  <line x1="369.2" y1="669.0" x2="369.2" y2="909.0" stroke="#e5e7eb" stroke-width="1"/>
  <line x1="425.0" y1="669.0" x2="425.0" y2="909.0" stroke="#e5e7eb" stroke-width="1"/>
  <line x1="480.8" y1="669.0" x2="480.8" y2="909.0" stroke="#e5e7eb" stroke-width="1"/>
  <line x1="536.7" y1="669.0" x2="536.7" y2="909.0" stroke="#e5e7eb" stroke-width="1"/>
  <line x1="592.5" y1="669.0" x2="592.5" y2="909.0" stroke="#e5e7eb" stroke-width="1"/>
  <line x1="648.3" y1="669.0" x2="648.3" y2="909.0" stroke="#e5e7eb" stroke-width="1"/>
  <line x1="704.2" y1="669.0" x2="704.2" y2="909.0" stroke="#e5e7eb" stroke-width="1"/>
  <line x1="760.0" y1="669.0" x2="760.0" y2="909.0" stroke="#e5e7eb" stroke-width="1"/>
  <line x1="90.0" y1="669.0" x2="90.0" y2="909.0" stroke="#9ca3af" stroke-width="1.5"/>
  <line x1="760.0" y1="669.0" x2="760.0" y2="909.0" stroke="#9ca3af" stroke-width="1.5"/>
  <line x1="90.0" y1="909.0" x2="760.0" y2="909.0" stroke="#9ca3af" stroke-width="1.5"/>
  <text x="40.0" y="789.0" text-anchor="middle" fill="#374151" font-size="10" font-weight="600" transform="rotate(-90,40.0,789.0)">msg/s</text>
  <polyline points="90.0,899.8 145.8,900.1 201.7,898.5 257.5,898.7 313.3,898.0 369.2,899.1 425.0,900.0 480.8,900.8 536.7,901.0 592.5,901.7 648.3,903.1 704.2,904.3 760.0,906.0" fill="none" stroke="#10b981" stroke-width="2" stroke-dasharray="6,4"/>
  <polyline points="90.0,905.0 145.8,905.1 201.7,904.2 257.5,905.0 313.3,904.8 369.2,904.2 425.0,904.7 480.8,906.4 536.7,905.1 592.5,906.2 648.3,906.8 704.2,906.7 760.0,907.7" fill="none" stroke="#2563eb" stroke-width="2" stroke-dasharray="6,4"/>
  <polyline points="90.0,743.0 145.8,749.8 201.7,768.6 257.5,807.9 313.3,845.5 369.2,869.7 425.0,883.5 480.8,894.1 536.7,901.0 592.5,904.9 648.3,906.7 704.2,907.6 760.0,908.0" fill="none" stroke="#eab308" stroke-width="2" stroke-dasharray="6,4"/>
  <polyline points="90.0,707.1 145.8,670.5 201.7,646.5 257.5,676.6 313.3,700.4 369.2,704.5 425.0,757.7 480.8,810.7 536.7,851.3 592.5,878.8 648.3,893.6 704.2,900.9 760.0,904.7" fill="none" stroke="#06b6d4" stroke-width="2" stroke-dasharray="6,4"/>
  <polyline points="90.0,779.4 145.8,764.9 201.7,769.0 257.5,767.0 313.3,789.6 369.2,792.3 425.0,815.2 480.8,844.2 536.7,865.6 592.5,882.3 648.3,894.5 704.2,900.2 760.0,904.4" fill="none" stroke="#f97316" stroke-width="2" stroke-dasharray="6,4"/>
  <polyline points="90.0,728.4 145.8,733.2 201.7,744.2 257.5,770.1 313.3,781.2 369.2,799.6 425.0,822.0 480.8,847.9 536.7,872.7 592.5,892.0 648.3,900.9 704.2,904.8 760.0,906.7" fill="none" stroke="#dc2626" stroke-width="2" stroke-dasharray="6,4"/>
  <polyline points="90.0,908.9 145.8,908.8 201.7,908.5 257.5,907.9 313.3,906.8 369.2,904.9 425.0,901.6 480.8,895.6 536.7,882.8 592.5,861.0 648.3,832.3 704.2,785.8 760.0,749.8" fill="none" stroke="#10b981" stroke-width="2.5" stroke-linecap="round" stroke-linejoin="round"/>
  <circle cx="90.0" cy="908.9" r="3" fill="#10b981" stroke="white" stroke-width="1"/>
  <circle cx="145.8" cy="908.8" r="3" fill="#10b981" stroke="white" stroke-width="1"/>
  <circle cx="201.7" cy="908.5" r="3" fill="#10b981" stroke="white" stroke-width="1"/>
  <circle cx="257.5" cy="907.9" r="3" fill="#10b981" stroke="white" stroke-width="1"/>
  <circle cx="313.3" cy="906.8" r="3" fill="#10b981" stroke="white" stroke-width="1"/>
  <circle cx="369.2" cy="904.9" r="3" fill="#10b981" stroke="white" stroke-width="1"/>
  <circle cx="425.0" cy="901.6" r="3" fill="#10b981" stroke="white" stroke-width="1"/>
  <circle cx="480.8" cy="895.6" r="3" fill="#10b981" stroke="white" stroke-width="1"/>
  <circle cx="536.7" cy="882.8" r="3" fill="#10b981" stroke="white" stroke-width="1"/>
  <circle cx="592.5" cy="861.0" r="3" fill="#10b981" stroke="white" stroke-width="1"/>
  <circle cx="648.3" cy="832.3" r="3" fill="#10b981" stroke="white" stroke-width="1"/>
  <circle cx="704.2" cy="785.8" r="3" fill="#10b981" stroke="white" stroke-width="1"/>
  <circle cx="760.0" cy="749.8" r="3" fill="#10b981" stroke="white" stroke-width="1"/>
  <polyline points="90.0,908.9 145.8,908.9 201.7,908.8 257.5,908.6 313.3,908.1 369.2,907.0 425.0,905.5 480.8,904.7 536.7,896.3 592.5,890.4 648.3,879.8 704.2,848.4 760.0,839.2" fill="none" stroke="#2563eb" stroke-width="2.5" stroke-linecap="round" stroke-linejoin="round"/>
  <circle cx="90.0" cy="908.9" r="3" fill="#2563eb" stroke="white" stroke-width="1"/>
  <circle cx="145.8" cy="908.9" r="3" fill="#2563eb" stroke="white" stroke-width="1"/>
  <circle cx="201.7" cy="908.8" r="3" fill="#2563eb" stroke="white" stroke-width="1"/>
  <circle cx="257.5" cy="908.6" r="3" fill="#2563eb" stroke="white" stroke-width="1"/>
  <circle cx="313.3" cy="908.1" r="3" fill="#2563eb" stroke="white" stroke-width="1"/>
  <circle cx="369.2" cy="907.0" r="3" fill="#2563eb" stroke="white" stroke-width="1"/>
  <circle cx="425.0" cy="905.5" r="3" fill="#2563eb" stroke="white" stroke-width="1"/>
  <circle cx="480.8" cy="904.7" r="3" fill="#2563eb" stroke="white" stroke-width="1"/>
  <circle cx="536.7" cy="896.3" r="3" fill="#2563eb" stroke="white" stroke-width="1"/>
  <circle cx="592.5" cy="890.4" r="3" fill="#2563eb" stroke="white" stroke-width="1"/>
  <circle cx="648.3" cy="879.8" r="3" fill="#2563eb" stroke="white" stroke-width="1"/>
  <circle cx="704.2" cy="848.4" r="3" fill="#2563eb" stroke="white" stroke-width="1"/>
  <circle cx="760.0" cy="839.2" r="3" fill="#2563eb" stroke="white" stroke-width="1"/>
  <polyline points="90.0,906.9 145.8,904.9 201.7,901.8 257.5,898.6 313.3,896.0 369.2,892.9 425.0,888.1 480.8,884.6 536.7,882.9 592.5,881.9 648.3,878.7 704.2,873.2 760.0,855.4" fill="none" stroke="#eab308" stroke-width="2.5" stroke-linecap="round" stroke-linejoin="round"/>
  <circle cx="90.0" cy="906.9" r="3" fill="#eab308" stroke="white" stroke-width="1"/>
  <circle cx="145.8" cy="904.9" r="3" fill="#eab308" stroke="white" stroke-width="1"/>
  <circle cx="201.7" cy="901.8" r="3" fill="#eab308" stroke="white" stroke-width="1"/>
  <circle cx="257.5" cy="898.6" r="3" fill="#eab308" stroke="white" stroke-width="1"/>
  <circle cx="313.3" cy="896.0" r="3" fill="#eab308" stroke="white" stroke-width="1"/>
  <circle cx="369.2" cy="892.9" r="3" fill="#eab308" stroke="white" stroke-width="1"/>
  <circle cx="425.0" cy="888.1" r="3" fill="#eab308" stroke="white" stroke-width="1"/>
  <circle cx="480.8" cy="884.6" r="3" fill="#eab308" stroke="white" stroke-width="1"/>
  <circle cx="536.7" cy="882.9" r="3" fill="#eab308" stroke="white" stroke-width="1"/>
  <circle cx="592.5" cy="881.9" r="3" fill="#eab308" stroke="white" stroke-width="1"/>
  <circle cx="648.3" cy="878.7" r="3" fill="#eab308" stroke="white" stroke-width="1"/>
  <circle cx="704.2" cy="873.2" r="3" fill="#eab308" stroke="white" stroke-width="1"/>
  <circle cx="760.0" cy="855.4" r="3" fill="#eab308" stroke="white" stroke-width="1"/>
  <polyline points="90.0,906.4 145.8,902.9 201.7,895.6 257.5,885.2 313.3,866.3 369.2,825.2 425.0,785.1 480.8,748.0 536.7,719.8 592.5,711.4 648.3,707.7 704.2,695.9 760.0,681.6" fill="none" stroke="#06b6d4" stroke-width="2.5" stroke-linecap="round" stroke-linejoin="round"/>
  <circle cx="90.0" cy="906.4" r="3" fill="#06b6d4" stroke="white" stroke-width="1"/>
  <circle cx="145.8" cy="902.9" r="3" fill="#06b6d4" stroke="white" stroke-width="1"/>
  <circle cx="201.7" cy="895.6" r="3" fill="#06b6d4" stroke="white" stroke-width="1"/>
  <circle cx="257.5" cy="885.2" r="3" fill="#06b6d4" stroke="white" stroke-width="1"/>
  <circle cx="313.3" cy="866.3" r="3" fill="#06b6d4" stroke="white" stroke-width="1"/>
  <circle cx="369.2" cy="825.2" r="3" fill="#06b6d4" stroke="white" stroke-width="1"/>
  <circle cx="425.0" cy="785.1" r="3" fill="#06b6d4" stroke="white" stroke-width="1"/>
  <circle cx="480.8" cy="748.0" r="3" fill="#06b6d4" stroke="white" stroke-width="1"/>
  <circle cx="536.7" cy="719.8" r="3" fill="#06b6d4" stroke="white" stroke-width="1"/>
  <circle cx="592.5" cy="711.4" r="3" fill="#06b6d4" stroke="white" stroke-width="1"/>
  <circle cx="648.3" cy="707.7" r="3" fill="#06b6d4" stroke="white" stroke-width="1"/>
  <circle cx="704.2" cy="695.9" r="3" fill="#06b6d4" stroke="white" stroke-width="1"/>
  <circle cx="760.0" cy="681.6" r="3" fill="#06b6d4" stroke="white" stroke-width="1"/>
  <polyline points="90.0,907.3 145.8,905.3 201.7,901.8 257.5,894.5 313.3,884.5 369.2,861.2 425.0,832.2 480.8,802.8 536.7,766.8 592.5,734.0 648.3,718.9 704.2,677.5 760.0,668.8" fill="none" stroke="#f97316" stroke-width="2.5" stroke-linecap="round" stroke-linejoin="round"/>
  <circle cx="90.0" cy="907.3" r="3" fill="#f97316" stroke="white" stroke-width="1"/>
  <circle cx="145.8" cy="905.3" r="3" fill="#f97316" stroke="white" stroke-width="1"/>
  <circle cx="201.7" cy="901.8" r="3" fill="#f97316" stroke="white" stroke-width="1"/>
  <circle cx="257.5" cy="894.5" r="3" fill="#f97316" stroke="white" stroke-width="1"/>
  <circle cx="313.3" cy="884.5" r="3" fill="#f97316" stroke="white" stroke-width="1"/>
  <circle cx="369.2" cy="861.2" r="3" fill="#f97316" stroke="white" stroke-width="1"/>
  <circle cx="425.0" cy="832.2" r="3" fill="#f97316" stroke="white" stroke-width="1"/>
  <circle cx="480.8" cy="802.8" r="3" fill="#f97316" stroke="white" stroke-width="1"/>
  <circle cx="536.7" cy="766.8" r="3" fill="#f97316" stroke="white" stroke-width="1"/>
  <circle cx="592.5" cy="734.0" r="3" fill="#f97316" stroke="white" stroke-width="1"/>
  <circle cx="648.3" cy="718.9" r="3" fill="#f97316" stroke="white" stroke-width="1"/>
  <circle cx="704.2" cy="677.5" r="3" fill="#f97316" stroke="white" stroke-width="1"/>
  <circle cx="760.0" cy="668.8" r="3" fill="#f97316" stroke="white" stroke-width="1"/>
  <polyline points="90.0,906.7 145.8,904.5 201.7,900.6 257.5,894.8 313.3,882.8 369.2,864.2 425.0,837.7 480.8,809.0 536.7,790.1 592.5,797.6 648.3,803.1 704.2,800.1 760.0,788.8" fill="none" stroke="#dc2626" stroke-width="2.5" stroke-linecap="round" stroke-linejoin="round"/>
  <circle cx="90.0" cy="906.7" r="3" fill="#dc2626" stroke="white" stroke-width="1"/>
  <circle cx="145.8" cy="904.5" r="3" fill="#dc2626" stroke="white" stroke-width="1"/>
  <circle cx="201.7" cy="900.6" r="3" fill="#dc2626" stroke="white" stroke-width="1"/>
  <circle cx="257.5" cy="894.8" r="3" fill="#dc2626" stroke="white" stroke-width="1"/>
  <circle cx="313.3" cy="882.8" r="3" fill="#dc2626" stroke="white" stroke-width="1"/>
  <circle cx="369.2" cy="864.2" r="3" fill="#dc2626" stroke="white" stroke-width="1"/>
  <circle cx="425.0" cy="837.7" r="3" fill="#dc2626" stroke="white" stroke-width="1"/>
  <circle cx="480.8" cy="809.0" r="3" fill="#dc2626" stroke="white" stroke-width="1"/>
  <circle cx="536.7" cy="790.1" r="3" fill="#dc2626" stroke="white" stroke-width="1"/>
  <circle cx="592.5" cy="797.6" r="3" fill="#dc2626" stroke="white" stroke-width="1"/>
  <circle cx="648.3" cy="803.1" r="3" fill="#dc2626" stroke="white" stroke-width="1"/>
  <circle cx="704.2" cy="800.1" r="3" fill="#dc2626" stroke="white" stroke-width="1"/>
  <circle cx="760.0" cy="788.8" r="3" fill="#dc2626" stroke="white" stroke-width="1"/>
  <text x="90.0" y="923.0" text-anchor="middle" fill="#374151" font-size="8.5">8 B</text>
  <text x="145.8" y="923.0" text-anchor="middle" fill="#374151" font-size="8.5">16 B</text>
  <text x="201.7" y="923.0" text-anchor="middle" fill="#374151" font-size="8.5">32 B</text>
  <text x="257.5" y="923.0" text-anchor="middle" fill="#374151" font-size="8.5">64 B</text>
  <text x="313.3" y="923.0" text-anchor="middle" fill="#374151" font-size="8.5">128 B</text>
  <text x="369.2" y="923.0" text-anchor="middle" fill="#374151" font-size="8.5">256 B</text>
  <text x="425.0" y="923.0" text-anchor="middle" fill="#374151" font-size="8.5">512 B</text>
  <text x="480.8" y="923.0" text-anchor="middle" fill="#374151" font-size="8.5">1 KiB</text>
  <text x="536.7" y="923.0" text-anchor="middle" fill="#374151" font-size="8.5">2 KiB</text>
  <text x="592.5" y="923.0" text-anchor="middle" fill="#374151" font-size="8.5">4 KiB</text>
  <text x="648.3" y="923.0" text-anchor="middle" fill="#374151" font-size="8.5">8 KiB</text>
  <text x="704.2" y="923.0" text-anchor="middle" fill="#374151" font-size="8.5">16 KiB</text>
  <text x="760.0" y="923.0" text-anchor="middle" fill="#374151" font-size="8.5">32 KiB</text>
  <line x1="50" y1="949" x2="64" y2="949" stroke="#eab308" stroke-width="2.5"/>
  <circle cx="57" cy="949" r="2.5" fill="#eab308"/>
  <text x="70" y="953" fill="#374151" font-size="11" font-weight="500">libzmq v4.3.5</text>
  <line x1="175" y1="949" x2="189" y2="949" stroke="#dc2626" stroke-width="2.5"/>
  <circle cx="182" cy="949" r="2.5" fill="#dc2626"/>
  <text x="195" y="953" fill="#374151" font-size="11" font-weight="500">omq-compio (MT)</text>
  <line x1="300" y1="949" x2="314" y2="949" stroke="#f97316" stroke-width="2.5"/>
  <circle cx="307" cy="949" r="2.5" fill="#f97316"/>
  <text x="320" y="953" fill="#374151" font-size="11" font-weight="500">omq-tokio</text>
  <line x1="425" y1="949" x2="439" y2="949" stroke="#2563eb" stroke-width="2.5"/>
  <circle cx="432" cy="949" r="2.5" fill="#2563eb"/>
  <text x="445" y="953" fill="#374151" font-size="11" font-weight="500">zmq.rs v0.6.0</text>
  <line x1="550" y1="949" x2="564" y2="949" stroke="#10b981" stroke-width="2.5"/>
  <circle cx="557" cy="949" r="2.5" fill="#10b981"/>
  <text x="570" y="953" fill="#374151" font-size="11" font-weight="500">rzmq v0.5.15</text>
  <line x1="675" y1="949" x2="689" y2="949" stroke="#06b6d4" stroke-width="2.5"/>
  <circle cx="682" cy="949" r="2.5" fill="#06b6d4"/>
  <text x="695" y="953" fill="#374151" font-size="11" font-weight="500">omq-libzmq</text>
  <line x1="265" y1="971" x2="285" y2="971" stroke="#6b7280" stroke-width="2" stroke-dasharray="6,4"/>
  <text x="291" y="975" fill="#6b7280" font-size="10">msg/s (left axis)</text>
  <line x1="435" y1="971" x2="455" y2="971" stroke="#6b7280" stroke-width="2"/>
  <circle cx="445" cy="971" r="2" fill="#6b7280"/>
  <text x="461" y="975" fill="#6b7280" font-size="10">throughput / GB/s (right axis)</text>
</svg>
