<svg xmlns="http://www.w3.org/2000/svg" viewBox="0 0 850 999" font-family="system-ui, -apple-system, sans-serif">
  <rect width="850" height="999" fill="white"/>
  <text x="425.0" y="46" text-anchor="middle" fill="#9ca3af" font-size="10">Intel Core i7-8700B @ 3.20GHz, 6 cores</text>
  <text x="425.0" y="32.0" text-anchor="middle" fill="#111827" font-size="13" font-weight="700">PUB/SUB throughput, 1 subscriber: TCP loopback</text>
  <line x1="90.0" y1="265.0" x2="760.0" y2="265.0" stroke="#e5e7eb" stroke-width="1"/>
  <text x="82.0" y="265.0" text-anchor="end" dominant-baseline="middle" fill="#374151" font-size="10">1M</text>
  <line x1="90.0" y1="241.0" x2="760.0" y2="241.0" stroke="#e5e7eb" stroke-width="1"/>
  <text x="82.0" y="241.0" text-anchor="end" dominant-baseline="middle" fill="#374151" font-size="10">2M</text>
  <line x1="90.0" y1="217.0" x2="760.0" y2="217.0" stroke="#e5e7eb" stroke-width="1"/>
  <text x="82.0" y="217.0" text-anchor="end" dominant-baseline="middle" fill="#374151" font-size="10">3M</text>
  <line x1="90.0" y1="193.0" x2="760.0" y2="193.0" stroke="#e5e7eb" stroke-width="1"/>
  <text x="82.0" y="193.0" text-anchor="end" dominant-baseline="middle" fill="#374151" font-size="10">4M</text>
  <line x1="90.0" y1="169.0" x2="760.0" y2="169.0" stroke="#e5e7eb" stroke-width="1"/>
  <text x="82.0" y="169.0" text-anchor="end" dominant-baseline="middle" fill="#374151" font-size="10">5M</text>
  <line x1="90.0" y1="145.0" x2="760.0" y2="145.0" stroke="#e5e7eb" stroke-width="1"/>
  <text x="82.0" y="145.0" text-anchor="end" dominant-baseline="middle" fill="#374151" font-size="10">6M</text>
  <line x1="90.0" y1="121.0" x2="760.0" y2="121.0" stroke="#e5e7eb" stroke-width="1"/>
  <text x="82.0" y="121.0" text-anchor="end" dominant-baseline="middle" fill="#374151" font-size="10">7M</text>
  <line x1="90.0" y1="97.0" x2="760.0" y2="97.0" stroke="#e5e7eb" stroke-width="1"/>
  <text x="82.0" y="97.0" text-anchor="end" dominant-baseline="middle" fill="#374151" font-size="10">8M</text>
  <line x1="90.0" y1="73.0" x2="760.0" y2="73.0" stroke="#e5e7eb" stroke-width="1"/>
  <text x="82.0" y="73.0" text-anchor="end" dominant-baseline="middle" fill="#374151" font-size="10">9M</text>
  <line x1="90.0" y1="49.0" x2="760.0" y2="49.0" stroke="#e5e7eb" stroke-width="1"/>
  <text x="82.0" y="49.0" text-anchor="end" dominant-baseline="middle" fill="#374151" font-size="10">10M</text>
  <line x1="90.0" y1="249.0" x2="760.0" y2="249.0" stroke="#e5e7eb" stroke-width="1" stroke-dasharray="3,6"/>
  <text x="768.0" y="249.0" text-anchor="start" dominant-baseline="middle" fill="#6b7280" font-size="10">1 GB/s</text>
  <line x1="90.0" y1="209.0" x2="760.0" y2="209.0" stroke="#e5e7eb" stroke-width="1" stroke-dasharray="3,6"/>
  <text x="768.0" y="209.0" text-anchor="start" dominant-baseline="middle" fill="#6b7280" font-size="10">2 GB/s</text>
  <line x1="90.0" y1="169.0" x2="760.0" y2="169.0" stroke="#e5e7eb" stroke-width="1" stroke-dasharray="3,6"/>
  <text x="768.0" y="169.0" text-anchor="start" dominant-baseline="middle" fill="#6b7280" font-size="10">3 GB/s</text>
  <line x1="90.0" y1="129.0" x2="760.0" y2="129.0" stroke="#e5e7eb" stroke-width="1" stroke-dasharray="3,6"/>
  <text x="768.0" y="129.0" text-anchor="start" dominant-baseline="middle" fill="#6b7280" font-size="10">4 GB/s</text>
  <line x1="90.0" y1="89.0" x2="760.0" y2="89.0" stroke="#e5e7eb" stroke-width="1" stroke-dasharray="3,6"/>
  <text x="768.0" y="89.0" text-anchor="start" dominant-baseline="middle" fill="#6b7280" font-size="10">5 GB/s</text>
  <line x1="90.0" y1="49.0" x2="760.0" y2="49.0" stroke="#e5e7eb" stroke-width="1" stroke-dasharray="3,6"/>
  <text x="768.0" y="49.0" text-anchor="start" dominant-baseline="middle" fill="#6b7280" font-size="10">6 GB/s</text>
  <line x1="90.0" y1="49.0" x2="90.0" y2="289.0" stroke="#e5e7eb" stroke-width="1"/>
  <line x1="145.8" y1="49.0" x2="145.8" y2="289.0" stroke="#e5e7eb" stroke-width="1"/>
  <line x1="201.7" y1="49.0" x2="201.7" y2="289.0" stroke="#e5e7eb" stroke-width="1"/>
  <line x1="257.5" y1="49.0" x2="257.5" y2="289.0" stroke="#e5e7eb" stroke-width="1"/>
  <line x1="313.3" y1="49.0" x2="313.3" y2="289.0" stroke="#e5e7eb" stroke-width="1"/>
  <line x1="369.2" y1="49.0" x2="369.2" y2="289.0" stroke="#e5e7eb" stroke-width="1"/>
  <line x1="425.0" y1="49.0" x2="425.0" y2="289.0" stroke="#e5e7eb" stroke-width="1"/>
  <line x1="480.8" y1="49.0" x2="480.8" y2="289.0" stroke="#e5e7eb" stroke-width="1"/>
  <line x1="536.7" y1="49.0" x2="536.7" y2="289.0" stroke="#e5e7eb" stroke-width="1"/>
  <line x1="592.5" y1="49.0" x2="592.5" y2="289.0" stroke="#e5e7eb" stroke-width="1"/>
  <line x1="648.3" y1="49.0" x2="648.3" y2="289.0" stroke="#e5e7eb" stroke-width="1"/>
  <line x1="704.2" y1="49.0" x2="704.2" y2="289.0" stroke="#e5e7eb" stroke-width="1"/>
  <line x1="760.0" y1="49.0" x2="760.0" y2="289.0" stroke="#e5e7eb" stroke-width="1"/>
  <line x1="90.0" y1="49.0" x2="90.0" y2="289.0" stroke="#9ca3af" stroke-width="1.5"/>
  <line x1="760.0" y1="49.0" x2="760.0" y2="289.0" stroke="#9ca3af" stroke-width="1.5"/>
  <line x1="90.0" y1="289.0" x2="760.0" y2="289.0" stroke="#9ca3af" stroke-width="1.5"/>
  <text x="40.0" y="169.0" text-anchor="middle" fill="#374151" font-size="10" font-weight="600" transform="rotate(-90,40.0,169.0)">msg/s</text>
  <polyline points="90.0,283.5 145.8,284.1 201.7,283.7 257.5,284.5 313.3,284.7 369.2,285.1 425.0,285.3 480.8,285.4 536.7,285.7 592.5,286.1 648.3,286.4 704.2,286.8 760.0,287.4" fill="none" stroke="#10b981" stroke-width="2" stroke-dasharray="6,4"/>
  <polyline points="90.0,281.4 145.8,282.2 201.7,282.5 257.5,283.2 313.3,283.2 369.2,283.8 425.0,284.0 480.8,284.1 536.7,284.5 592.5,284.8 648.3,285.1 704.2,285.6 760.0,286.7" fill="none" stroke="#2563eb" stroke-width="2" stroke-dasharray="6,4"/>
  <polyline points="90.0,136.7 145.8,131.1 201.7,128.9 257.5,185.9 313.3,240.1 369.2,243.3 425.0,253.8 480.8,268.3 536.7,276.9 592.5,282.6 648.3,285.1 704.2,287.3 760.0,287.6" fill="none" stroke="#eab308" stroke-width="2" stroke-dasharray="6,4"/>
  <polyline points="90.0,220.7 145.8,221.3 201.7,219.5 257.5,232.3 313.3,248.3 369.2,250.3 425.0,256.2 480.8,260.2 536.7,266.7 592.5,275.1 648.3,280.7 704.2,284.9 760.0,286.8" fill="none" stroke="#06b6d4" stroke-width="2" stroke-dasharray="6,4"/>
  <polyline points="90.0,217.9 145.8,220.3 201.7,221.3 257.5,226.9 313.3,227.5 369.2,233.3 425.0,238.7 480.8,246.7 536.7,258.0 592.5,270.3 648.3,278.9 704.2,283.2 760.0,286.0" fill="none" stroke="#f97316" stroke-width="2" stroke-dasharray="6,4"/>
  <polyline points="90.0,193.8 145.8,194.4 201.7,195.2 257.5,221.9 313.3,224.6 369.2,232.3 425.0,238.6 480.8,253.1 536.7,266.5 592.5,276.8 648.3,282.5 704.2,285.5 760.0,287.1" fill="none" stroke="#dc2626" stroke-width="2" stroke-dasharray="6,4"/>
  <polyline points="90.0,288.9 145.8,288.9 201.7,288.7 257.5,288.5 313.3,288.1 369.2,287.4 425.0,285.8 480.8,282.9 536.7,277.9 592.5,268.9 648.3,253.2 704.2,228.6 760.0,199.7" fill="none" stroke="#10b981" stroke-width="2.5" stroke-linecap="round" stroke-linejoin="round"/>
  <circle cx="90.0" cy="288.9" r="3" fill="#10b981" stroke="white" stroke-width="1"/>
  <circle cx="145.8" cy="288.9" r="3" fill="#10b981" stroke="white" stroke-width="1"/>
  <circle cx="201.7" cy="288.7" r="3" fill="#10b981" stroke="white" stroke-width="1"/>
  <circle cx="257.5" cy="288.5" r="3" fill="#10b981" stroke="white" stroke-width="1"/>
  <circle cx="313.3" cy="288.1" r="3" fill="#10b981" stroke="white" stroke-width="1"/>
  <circle cx="369.2" cy="287.4" r="3" fill="#10b981" stroke="white" stroke-width="1"/>
  <circle cx="425.0" cy="285.8" r="3" fill="#10b981" stroke="white" stroke-width="1"/>
  <circle cx="480.8" cy="282.9" r="3" fill="#10b981" stroke="white" stroke-width="1"/>
  <circle cx="536.7" cy="277.9" r="3" fill="#10b981" stroke="white" stroke-width="1"/>
  <circle cx="592.5" cy="268.9" r="3" fill="#10b981" stroke="white" stroke-width="1"/>
  <circle cx="648.3" cy="253.2" r="3" fill="#10b981" stroke="white" stroke-width="1"/>
  <circle cx="704.2" cy="228.6" r="3" fill="#10b981" stroke="white" stroke-width="1"/>
  <circle cx="760.0" cy="199.7" r="3" fill="#10b981" stroke="white" stroke-width="1"/>
  <polyline points="90.0,288.9 145.8,288.8 201.7,288.7 257.5,288.4 313.3,287.8 369.2,286.8 425.0,284.7 480.8,280.6 536.7,273.6 592.5,260.6 648.3,236.2 704.2,196.1 760.0,166.1" fill="none" stroke="#2563eb" stroke-width="2.5" stroke-linecap="round" stroke-linejoin="round"/>
  <circle cx="90.0" cy="288.9" r="3" fill="#2563eb" stroke="white" stroke-width="1"/>
  <circle cx="145.8" cy="288.8" r="3" fill="#2563eb" stroke="white" stroke-width="1"/>
  <circle cx="201.7" cy="288.7" r="3" fill="#2563eb" stroke="white" stroke-width="1"/>
  <circle cx="257.5" cy="288.4" r="3" fill="#2563eb" stroke="white" stroke-width="1"/>
  <circle cx="313.3" cy="287.8" r="3" fill="#2563eb" stroke="white" stroke-width="1"/>
  <circle cx="369.2" cy="286.8" r="3" fill="#2563eb" stroke="white" stroke-width="1"/>
  <circle cx="425.0" cy="284.7" r="3" fill="#2563eb" stroke="white" stroke-width="1"/>
  <circle cx="480.8" cy="280.6" r="3" fill="#2563eb" stroke="white" stroke-width="1"/>
  <circle cx="536.7" cy="273.6" r="3" fill="#2563eb" stroke="white" stroke-width="1"/>
  <circle cx="592.5" cy="260.6" r="3" fill="#2563eb" stroke="white" stroke-width="1"/>
  <circle cx="648.3" cy="236.2" r="3" fill="#2563eb" stroke="white" stroke-width="1"/>
  <circle cx="704.2" cy="196.1" r="3" fill="#2563eb" stroke="white" stroke-width="1"/>
  <circle cx="760.0" cy="166.1" r="3" fill="#2563eb" stroke="white" stroke-width="1"/>
  <polyline points="90.0,287.0 145.8,284.8 201.7,280.5 257.5,278.0 313.3,278.6 369.2,269.5 425.0,258.9 480.8,253.6 536.7,247.9 592.5,245.1 648.3,235.6 704.2,242.2 760.0,210.7" fill="none" stroke="#eab308" stroke-width="2.5" stroke-linecap="round" stroke-linejoin="round"/>
  <circle cx="90.0" cy="287.0" r="3" fill="#eab308" stroke="white" stroke-width="1"/>
  <circle cx="145.8" cy="284.8" r="3" fill="#eab308" stroke="white" stroke-width="1"/>
  <circle cx="201.7" cy="280.5" r="3" fill="#eab308" stroke="white" stroke-width="1"/>
  <circle cx="257.5" cy="278.0" r="3" fill="#eab308" stroke="white" stroke-width="1"/>
  <circle cx="313.3" cy="278.6" r="3" fill="#eab308" stroke="white" stroke-width="1"/>
  <circle cx="369.2" cy="269.5" r="3" fill="#eab308" stroke="white" stroke-width="1"/>
  <circle cx="425.0" cy="258.9" r="3" fill="#eab308" stroke="white" stroke-width="1"/>
  <circle cx="480.8" cy="253.6" r="3" fill="#eab308" stroke="white" stroke-width="1"/>
  <circle cx="536.7" cy="247.9" r="3" fill="#eab308" stroke="white" stroke-width="1"/>
  <circle cx="592.5" cy="245.1" r="3" fill="#eab308" stroke="white" stroke-width="1"/>
  <circle cx="648.3" cy="235.6" r="3" fill="#eab308" stroke="white" stroke-width="1"/>
  <circle cx="704.2" cy="242.2" r="3" fill="#eab308" stroke="white" stroke-width="1"/>
  <circle cx="760.0" cy="210.7" r="3" fill="#eab308" stroke="white" stroke-width="1"/>
  <polyline points="90.0,288.1 145.8,287.2 201.7,285.3 257.5,283.0 313.3,280.3 369.2,272.5 425.0,261.0 480.8,239.9 536.7,212.9 592.5,194.1 648.3,176.1 704.2,177.3 760.0,170.6" fill="none" stroke="#06b6d4" stroke-width="2.5" stroke-linecap="round" stroke-linejoin="round"/>
  <circle cx="90.0" cy="288.1" r="3" fill="#06b6d4" stroke="white" stroke-width="1"/>
  <circle cx="145.8" cy="287.2" r="3" fill="#06b6d4" stroke="white" stroke-width="1"/>
  <circle cx="201.7" cy="285.3" r="3" fill="#06b6d4" stroke="white" stroke-width="1"/>
  <circle cx="257.5" cy="283.0" r="3" fill="#06b6d4" stroke="white" stroke-width="1"/>
  <circle cx="313.3" cy="280.3" r="3" fill="#06b6d4" stroke="white" stroke-width="1"/>
  <circle cx="369.2" cy="272.5" r="3" fill="#06b6d4" stroke="white" stroke-width="1"/>
  <circle cx="425.0" cy="261.0" r="3" fill="#06b6d4" stroke="white" stroke-width="1"/>
  <circle cx="480.8" cy="239.9" r="3" fill="#06b6d4" stroke="white" stroke-width="1"/>
  <circle cx="536.7" cy="212.9" r="3" fill="#06b6d4" stroke="white" stroke-width="1"/>
  <circle cx="592.5" cy="194.1" r="3" fill="#06b6d4" stroke="white" stroke-width="1"/>
  <circle cx="648.3" cy="176.1" r="3" fill="#06b6d4" stroke="white" stroke-width="1"/>
  <circle cx="704.2" cy="177.3" r="3" fill="#06b6d4" stroke="white" stroke-width="1"/>
  <circle cx="760.0" cy="170.6" r="3" fill="#06b6d4" stroke="white" stroke-width="1"/>
  <polyline points="90.0,288.1 145.8,287.2 201.7,285.4 257.5,282.4 313.3,275.9 369.2,265.2 425.0,246.1 480.8,216.9 536.7,183.1 592.5,161.5 648.3,150.6 704.2,130.1 760.0,123.4" fill="none" stroke="#f97316" stroke-width="2.5" stroke-linecap="round" stroke-linejoin="round"/>
  <circle cx="90.0" cy="288.1" r="3" fill="#f97316" stroke="white" stroke-width="1"/>
  <circle cx="145.8" cy="287.2" r="3" fill="#f97316" stroke="white" stroke-width="1"/>
  <circle cx="201.7" cy="285.4" r="3" fill="#f97316" stroke="white" stroke-width="1"/>
  <circle cx="257.5" cy="282.4" r="3" fill="#f97316" stroke="white" stroke-width="1"/>
  <circle cx="313.3" cy="275.9" r="3" fill="#f97316" stroke="white" stroke-width="1"/>
  <circle cx="369.2" cy="265.2" r="3" fill="#f97316" stroke="white" stroke-width="1"/>
  <circle cx="425.0" cy="246.1" r="3" fill="#f97316" stroke="white" stroke-width="1"/>
  <circle cx="480.8" cy="216.9" r="3" fill="#f97316" stroke="white" stroke-width="1"/>
  <circle cx="536.7" cy="183.1" r="3" fill="#f97316" stroke="white" stroke-width="1"/>
  <circle cx="592.5" cy="161.5" r="3" fill="#f97316" stroke="white" stroke-width="1"/>
  <circle cx="648.3" cy="150.6" r="3" fill="#f97316" stroke="white" stroke-width="1"/>
  <circle cx="704.2" cy="130.1" r="3" fill="#f97316" stroke="white" stroke-width="1"/>
  <circle cx="760.0" cy="123.4" r="3" fill="#f97316" stroke="white" stroke-width="1"/>
  <polyline points="90.0,287.7 145.8,286.5 201.7,284.0 257.5,281.8 313.3,275.3 369.2,264.8 425.0,246.0 480.8,227.7 536.7,212.2 592.5,205.5 648.3,199.7 704.2,193.6 760.0,186.4" fill="none" stroke="#dc2626" stroke-width="2.5" stroke-linecap="round" stroke-linejoin="round"/>
  <circle cx="90.0" cy="287.7" r="3" fill="#dc2626" stroke="white" stroke-width="1"/>
  <circle cx="145.8" cy="286.5" r="3" fill="#dc2626" stroke="white" stroke-width="1"/>
  <circle cx="201.7" cy="284.0" r="3" fill="#dc2626" stroke="white" stroke-width="1"/>
  <circle cx="257.5" cy="281.8" r="3" fill="#dc2626" stroke="white" stroke-width="1"/>
  <circle cx="313.3" cy="275.3" r="3" fill="#dc2626" stroke="white" stroke-width="1"/>
  <circle cx="369.2" cy="264.8" r="3" fill="#dc2626" stroke="white" stroke-width="1"/>
  <circle cx="425.0" cy="246.0" r="3" fill="#dc2626" stroke="white" stroke-width="1"/>
  <circle cx="480.8" cy="227.7" r="3" fill="#dc2626" stroke="white" stroke-width="1"/>
  <circle cx="536.7" cy="212.2" r="3" fill="#dc2626" stroke="white" stroke-width="1"/>
  <circle cx="592.5" cy="205.5" r="3" fill="#dc2626" stroke="white" stroke-width="1"/>
  <circle cx="648.3" cy="199.7" r="3" fill="#dc2626" stroke="white" stroke-width="1"/>
  <circle cx="704.2" cy="193.6" r="3" fill="#dc2626" stroke="white" stroke-width="1"/>
  <circle cx="760.0" cy="186.4" r="3" fill="#dc2626" stroke="white" stroke-width="1"/>
  <text x="90.0" y="303.0" text-anchor="middle" fill="#374151" font-size="8.5">8 B</text>
  <text x="145.8" y="303.0" text-anchor="middle" fill="#374151" font-size="8.5">16 B</text>
  <text x="201.7" y="303.0" text-anchor="middle" fill="#374151" font-size="8.5">32 B</text>
  <text x="257.5" y="303.0" text-anchor="middle" fill="#374151" font-size="8.5">64 B</text>
  <text x="313.3" y="303.0" text-anchor="middle" fill="#374151" font-size="8.5">128 B</text>
  <text x="369.2" y="303.0" text-anchor="middle" fill="#374151" font-size="8.5">256 B</text>
  <text x="425.0" y="303.0" text-anchor="middle" fill="#374151" font-size="8.5">512 B</text>
  <text x="480.8" y="303.0" text-anchor="middle" fill="#374151" font-size="8.5">1 KiB</text>
  <text x="536.7" y="303.0" text-anchor="middle" fill="#374151" font-size="8.5">2 KiB</text>
  <text x="592.5" y="303.0" text-anchor="middle" fill="#374151" font-size="8.5">4 KiB</text>
  <text x="648.3" y="303.0" text-anchor="middle" fill="#374151" font-size="8.5">8 KiB</text>
  <text x="704.2" y="303.0" text-anchor="middle" fill="#374151" font-size="8.5">16 KiB</text>
  <text x="760.0" y="303.0" text-anchor="middle" fill="#374151" font-size="8.5">32 KiB</text>
  <text x="425.0" y="342.0" text-anchor="middle" fill="#111827" font-size="13" font-weight="700">PUB/SUB throughput, 8 subscribers: TCP loopback</text>
  <line x1="90.0" y1="575.0" x2="760.0" y2="575.0" stroke="#e5e7eb" stroke-width="1"/>
  <text x="82.0" y="575.0" text-anchor="end" dominant-baseline="middle" fill="#374151" font-size="10">200k</text>
  <line x1="90.0" y1="551.0" x2="760.0" y2="551.0" stroke="#e5e7eb" stroke-width="1"/>
  <text x="82.0" y="551.0" text-anchor="end" dominant-baseline="middle" fill="#374151" font-size="10">400k</text>
  <line x1="90.0" y1="527.0" x2="760.0" y2="527.0" stroke="#e5e7eb" stroke-width="1"/>
  <text x="82.0" y="527.0" text-anchor="end" dominant-baseline="middle" fill="#374151" font-size="10">600k</text>
  <line x1="90.0" y1="503.0" x2="760.0" y2="503.0" stroke="#e5e7eb" stroke-width="1"/>
  <text x="82.0" y="503.0" text-anchor="end" dominant-baseline="middle" fill="#374151" font-size="10">800k</text>
  <line x1="90.0" y1="479.0" x2="760.0" y2="479.0" stroke="#e5e7eb" stroke-width="1"/>
  <text x="82.0" y="479.0" text-anchor="end" dominant-baseline="middle" fill="#374151" font-size="10">1M</text>
  <line x1="90.0" y1="455.0" x2="760.0" y2="455.0" stroke="#e5e7eb" stroke-width="1"/>
  <text x="82.0" y="455.0" text-anchor="end" dominant-baseline="middle" fill="#374151" font-size="10">1.2M</text>
  <line x1="90.0" y1="431.0" x2="760.0" y2="431.0" stroke="#e5e7eb" stroke-width="1"/>
  <text x="82.0" y="431.0" text-anchor="end" dominant-baseline="middle" fill="#374151" font-size="10">1.4M</text>
  <line x1="90.0" y1="407.0" x2="760.0" y2="407.0" stroke="#e5e7eb" stroke-width="1"/>
  <text x="82.0" y="407.0" text-anchor="end" dominant-baseline="middle" fill="#374151" font-size="10">1.6M</text>
  <line x1="90.0" y1="383.0" x2="760.0" y2="383.0" stroke="#e5e7eb" stroke-width="1"/>
  <text x="82.0" y="383.0" text-anchor="end" dominant-baseline="middle" fill="#374151" font-size="10">1.8M</text>
  <line x1="90.0" y1="359.0" x2="760.0" y2="359.0" stroke="#e5e7eb" stroke-width="1"/>
  <text x="82.0" y="359.0" text-anchor="end" dominant-baseline="middle" fill="#374151" font-size="10">2M</text>
  <line x1="90.0" y1="539.0" x2="760.0" y2="539.0" stroke="#e5e7eb" stroke-width="1" stroke-dasharray="3,6"/>
  <text x="768.0" y="539.0" text-anchor="start" dominant-baseline="middle" fill="#6b7280" font-size="10">2 GB/s</text>
  <line x1="90.0" y1="479.0" x2="760.0" y2="479.0" stroke="#e5e7eb" stroke-width="1" stroke-dasharray="3,6"/>
  <text x="768.0" y="479.0" text-anchor="start" dominant-baseline="middle" fill="#6b7280" font-size="10">4 GB/s</text>
  <line x1="90.0" y1="419.0" x2="760.0" y2="419.0" stroke="#e5e7eb" stroke-width="1" stroke-dasharray="3,6"/>
  <text x="768.0" y="419.0" text-anchor="start" dominant-baseline="middle" fill="#6b7280" font-size="10">6 GB/s</text>
  <line x1="90.0" y1="359.0" x2="760.0" y2="359.0" stroke="#e5e7eb" stroke-width="1" stroke-dasharray="3,6"/>
  <text x="768.0" y="359.0" text-anchor="start" dominant-baseline="middle" fill="#6b7280" font-size="10">8 GB/s</text>
  <line x1="90.0" y1="359.0" x2="90.0" y2="599.0" stroke="#e5e7eb" stroke-width="1"/>
  <line x1="145.8" y1="359.0" x2="145.8" y2="599.0" stroke="#e5e7eb" stroke-width="1"/>
  <line x1="201.7" y1="359.0" x2="201.7" y2="599.0" stroke="#e5e7eb" stroke-width="1"/>
  <line x1="257.5" y1="359.0" x2="257.5" y2="599.0" stroke="#e5e7eb" stroke-width="1"/>
  <line x1="313.3" y1="359.0" x2="313.3" y2="599.0" stroke="#e5e7eb" stroke-width="1"/>
  <line x1="369.2" y1="359.0" x2="369.2" y2="599.0" stroke="#e5e7eb" stroke-width="1"/>
  <line x1="425.0" y1="359.0" x2="425.0" y2="599.0" stroke="#e5e7eb" stroke-width="1"/>
  <line x1="480.8" y1="359.0" x2="480.8" y2="599.0" stroke="#e5e7eb" stroke-width="1"/>
  <line x1="536.7" y1="359.0" x2="536.7" y2="599.0" stroke="#e5e7eb" stroke-width="1"/>
  <line x1="592.5" y1="359.0" x2="592.5" y2="599.0" stroke="#e5e7eb" stroke-width="1"/>
  <line x1="648.3" y1="359.0" x2="648.3" y2="599.0" stroke="#e5e7eb" stroke-width="1"/>
  <line x1="704.2" y1="359.0" x2="704.2" y2="599.0" stroke="#e5e7eb" stroke-width="1"/>
  <line x1="760.0" y1="359.0" x2="760.0" y2="599.0" stroke="#e5e7eb" stroke-width="1"/>
  <line x1="90.0" y1="359.0" x2="90.0" y2="599.0" stroke="#9ca3af" stroke-width="1.5"/>
  <line x1="760.0" y1="359.0" x2="760.0" y2="599.0" stroke="#9ca3af" stroke-width="1.5"/>
  <line x1="90.0" y1="599.0" x2="760.0" y2="599.0" stroke="#9ca3af" stroke-width="1.5"/>
  <text x="40.0" y="479.0" text-anchor="middle" fill="#374151" font-size="10" font-weight="600" transform="rotate(-90,40.0,479.0)">msg/s</text>
  <polyline points="90.0,589.7 145.8,589.8 201.7,589.7 257.5,591.0 313.3,591.6 369.2,592.1 425.0,592.4 480.8,592.5 536.7,592.7 592.5,593.3 648.3,594.3 704.2,595.0 760.0,596.2" fill="none" stroke="#10b981" stroke-width="2" stroke-dasharray="6,4"/>
  <polyline points="90.0,594.7 145.8,594.8 201.7,595.1 257.5,595.5 313.3,595.8 369.2,596.0 425.0,596.1 480.8,596.3 536.7,596.3 592.5,596.5 648.3,596.8 704.2,597.2 760.0,597.6" fill="none" stroke="#2563eb" stroke-width="2" stroke-dasharray="6,4"/>
  <polyline points="90.0,444.9 145.8,447.2 201.7,469.1 257.5,502.0 313.3,532.2 369.2,557.5 425.0,574.7 480.8,585.5 536.7,592.2 592.5,595.3 648.3,597.2 704.2,598.0 760.0,598.1" fill="none" stroke="#eab308" stroke-width="2" stroke-dasharray="6,4"/>
  <polyline points="90.0,597.5 145.8,575.1 201.7,586.4 257.5,565.6 313.3,593.8 369.2,586.8 425.0,585.6 480.8,572.7 536.7,591.1 592.5,588.9 648.3,594.7 704.2,596.6 760.0,597.8" fill="none" stroke="#06b6d4" stroke-width="2" stroke-dasharray="6,4"/>
  <polyline points="90.0,530.2 145.8,532.9 201.7,584.7 257.5,543.1 313.3,544.4 369.2,587.4 425.0,548.9 480.8,556.2 536.7,568.3 592.5,578.4 648.3,593.2 704.2,594.2 760.0,596.0" fill="none" stroke="#f97316" stroke-width="2" stroke-dasharray="6,4"/>
  <polyline points="90.0,542.1 145.8,522.6 201.7,521.2 257.5,527.4 313.3,533.6 369.2,544.5 425.0,556.0 480.8,570.3 536.7,583.6 592.5,590.1 648.3,594.2 704.2,596.4 760.0,597.6" fill="none" stroke="#dc2626" stroke-width="2" stroke-dasharray="6,4"/>
  <polyline points="90.0,598.9 145.8,598.7 201.7,598.4 257.5,598.0 313.3,597.1 369.2,595.5 425.0,592.3 480.8,585.6 536.7,573.3 592.5,552.0 648.3,522.5 704.2,466.7 760.0,416.7" fill="none" stroke="#10b981" stroke-width="2.5" stroke-linecap="round" stroke-linejoin="round"/>
  <circle cx="90.0" cy="598.9" r="3" fill="#10b981" stroke="white" stroke-width="1"/>
  <circle cx="145.8" cy="598.7" r="3" fill="#10b981" stroke="white" stroke-width="1"/>
  <circle cx="201.7" cy="598.4" r="3" fill="#10b981" stroke="white" stroke-width="1"/>
  <circle cx="257.5" cy="598.0" r="3" fill="#10b981" stroke="white" stroke-width="1"/>
  <circle cx="313.3" cy="597.1" r="3" fill="#10b981" stroke="white" stroke-width="1"/>
  <circle cx="369.2" cy="595.5" r="3" fill="#10b981" stroke="white" stroke-width="1"/>
  <circle cx="425.0" cy="592.3" r="3" fill="#10b981" stroke="white" stroke-width="1"/>
  <circle cx="480.8" cy="585.6" r="3" fill="#10b981" stroke="white" stroke-width="1"/>
  <circle cx="536.7" cy="573.3" r="3" fill="#10b981" stroke="white" stroke-width="1"/>
  <circle cx="592.5" cy="552.0" r="3" fill="#10b981" stroke="white" stroke-width="1"/>
  <circle cx="648.3" cy="522.5" r="3" fill="#10b981" stroke="white" stroke-width="1"/>
  <circle cx="704.2" cy="466.7" r="3" fill="#10b981" stroke="white" stroke-width="1"/>
  <circle cx="760.0" cy="416.7" r="3" fill="#10b981" stroke="white" stroke-width="1"/>
  <polyline points="90.0,598.9 145.8,598.9 201.7,598.7 257.5,598.6 313.3,598.2 369.2,597.4 425.0,596.1 480.8,593.5 536.7,588.0 592.5,578.4 648.3,562.5 704.2,538.8 760.0,505.6" fill="none" stroke="#2563eb" stroke-width="2.5" stroke-linecap="round" stroke-linejoin="round"/>
  <circle cx="90.0" cy="598.9" r="3" fill="#2563eb" stroke="white" stroke-width="1"/>
  <circle cx="145.8" cy="598.9" r="3" fill="#2563eb" stroke="white" stroke-width="1"/>
  <circle cx="201.7" cy="598.7" r="3" fill="#2563eb" stroke="white" stroke-width="1"/>
  <circle cx="257.5" cy="598.6" r="3" fill="#2563eb" stroke="white" stroke-width="1"/>
  <circle cx="313.3" cy="598.2" r="3" fill="#2563eb" stroke="white" stroke-width="1"/>
  <circle cx="369.2" cy="597.4" r="3" fill="#2563eb" stroke="white" stroke-width="1"/>
  <circle cx="425.0" cy="596.1" r="3" fill="#2563eb" stroke="white" stroke-width="1"/>
  <circle cx="480.8" cy="593.5" r="3" fill="#2563eb" stroke="white" stroke-width="1"/>
  <circle cx="536.7" cy="588.0" r="3" fill="#2563eb" stroke="white" stroke-width="1"/>
  <circle cx="592.5" cy="578.4" r="3" fill="#2563eb" stroke="white" stroke-width="1"/>
  <circle cx="648.3" cy="562.5" r="3" fill="#2563eb" stroke="white" stroke-width="1"/>
  <circle cx="704.2" cy="538.8" r="3" fill="#2563eb" stroke="white" stroke-width="1"/>
  <circle cx="760.0" cy="505.6" r="3" fill="#2563eb" stroke="white" stroke-width="1"/>
  <polyline points="90.0,596.5 145.8,594.1 201.7,590.7 257.5,586.6 313.3,581.9 369.2,577.7 425.0,574.1 480.8,571.4 536.7,571.0 592.5,569.0 648.3,568.9 704.2,565.3 760.0,541.3" fill="none" stroke="#eab308" stroke-width="2.5" stroke-linecap="round" stroke-linejoin="round"/>
  <circle cx="90.0" cy="596.5" r="3" fill="#eab308" stroke="white" stroke-width="1"/>
  <circle cx="145.8" cy="594.1" r="3" fill="#eab308" stroke="white" stroke-width="1"/>
  <circle cx="201.7" cy="590.7" r="3" fill="#eab308" stroke="white" stroke-width="1"/>
  <circle cx="257.5" cy="586.6" r="3" fill="#eab308" stroke="white" stroke-width="1"/>
  <circle cx="313.3" cy="581.9" r="3" fill="#eab308" stroke="white" stroke-width="1"/>
  <circle cx="369.2" cy="577.7" r="3" fill="#eab308" stroke="white" stroke-width="1"/>
  <circle cx="425.0" cy="574.1" r="3" fill="#eab308" stroke="white" stroke-width="1"/>
  <circle cx="480.8" cy="571.4" r="3" fill="#eab308" stroke="white" stroke-width="1"/>
  <circle cx="536.7" cy="571.0" r="3" fill="#eab308" stroke="white" stroke-width="1"/>
  <circle cx="592.5" cy="569.0" r="3" fill="#eab308" stroke="white" stroke-width="1"/>
  <circle cx="648.3" cy="568.9" r="3" fill="#eab308" stroke="white" stroke-width="1"/>
  <circle cx="704.2" cy="565.3" r="3" fill="#eab308" stroke="white" stroke-width="1"/>
  <circle cx="760.0" cy="541.3" r="3" fill="#eab308" stroke="white" stroke-width="1"/>
  <polyline points="90.0,599.0 145.8,598.2 201.7,598.2 257.5,594.7 313.3,597.7 369.2,592.8 425.0,585.2 480.8,545.2 536.7,566.5 592.5,515.9 648.3,528.3 704.2,519.7 760.0,518.3" fill="none" stroke="#06b6d4" stroke-width="2.5" stroke-linecap="round" stroke-linejoin="round"/>
  <circle cx="90.0" cy="599.0" r="3" fill="#06b6d4" stroke="white" stroke-width="1"/>
  <circle cx="145.8" cy="598.2" r="3" fill="#06b6d4" stroke="white" stroke-width="1"/>
  <circle cx="201.7" cy="598.2" r="3" fill="#06b6d4" stroke="white" stroke-width="1"/>
  <circle cx="257.5" cy="594.7" r="3" fill="#06b6d4" stroke="white" stroke-width="1"/>
  <circle cx="313.3" cy="597.7" r="3" fill="#06b6d4" stroke="white" stroke-width="1"/>
  <circle cx="369.2" cy="592.8" r="3" fill="#06b6d4" stroke="white" stroke-width="1"/>
  <circle cx="425.0" cy="585.2" r="3" fill="#06b6d4" stroke="white" stroke-width="1"/>
  <circle cx="480.8" cy="545.2" r="3" fill="#06b6d4" stroke="white" stroke-width="1"/>
  <circle cx="536.7" cy="566.5" r="3" fill="#06b6d4" stroke="white" stroke-width="1"/>
  <circle cx="592.5" cy="515.9" r="3" fill="#06b6d4" stroke="white" stroke-width="1"/>
  <circle cx="648.3" cy="528.3" r="3" fill="#06b6d4" stroke="white" stroke-width="1"/>
  <circle cx="704.2" cy="519.7" r="3" fill="#06b6d4" stroke="white" stroke-width="1"/>
  <circle cx="760.0" cy="518.3" r="3" fill="#06b6d4" stroke="white" stroke-width="1"/>
  <polyline points="90.0,597.9 145.8,596.9 201.7,598.1 257.5,591.8 313.3,585.0 369.2,593.0 425.0,547.7 480.8,511.4 536.7,473.3 592.5,430.2 648.3,503.3 704.2,442.1 760.0,404.2" fill="none" stroke="#f97316" stroke-width="2.5" stroke-linecap="round" stroke-linejoin="round"/>
  <circle cx="90.0" cy="597.9" r="3" fill="#f97316" stroke="white" stroke-width="1"/>
  <circle cx="145.8" cy="596.9" r="3" fill="#f97316" stroke="white" stroke-width="1"/>
  <circle cx="201.7" cy="598.1" r="3" fill="#f97316" stroke="white" stroke-width="1"/>
  <circle cx="257.5" cy="591.8" r="3" fill="#f97316" stroke="white" stroke-width="1"/>
  <circle cx="313.3" cy="585.0" r="3" fill="#f97316" stroke="white" stroke-width="1"/>
  <circle cx="369.2" cy="593.0" r="3" fill="#f97316" stroke="white" stroke-width="1"/>
  <circle cx="425.0" cy="547.7" r="3" fill="#f97316" stroke="white" stroke-width="1"/>
  <circle cx="480.8" cy="511.4" r="3" fill="#f97316" stroke="white" stroke-width="1"/>
  <circle cx="536.7" cy="473.3" r="3" fill="#f97316" stroke="white" stroke-width="1"/>
  <circle cx="592.5" cy="430.2" r="3" fill="#f97316" stroke="white" stroke-width="1"/>
  <circle cx="648.3" cy="503.3" r="3" fill="#f97316" stroke="white" stroke-width="1"/>
  <circle cx="704.2" cy="442.1" r="3" fill="#f97316" stroke="white" stroke-width="1"/>
  <circle cx="760.0" cy="404.2" r="3" fill="#f97316" stroke="white" stroke-width="1"/>
  <polyline points="90.0,598.1 145.8,596.6 201.7,594.0 257.5,589.8 313.3,582.3 369.2,571.1 425.0,555.0 480.8,540.2 536.7,536.0 592.5,526.4 648.3,519.8 704.2,513.7 760.0,510.5" fill="none" stroke="#dc2626" stroke-width="2.5" stroke-linecap="round" stroke-linejoin="round"/>
  <circle cx="90.0" cy="598.1" r="3" fill="#dc2626" stroke="white" stroke-width="1"/>
  <circle cx="145.8" cy="596.6" r="3" fill="#dc2626" stroke="white" stroke-width="1"/>
  <circle cx="201.7" cy="594.0" r="3" fill="#dc2626" stroke="white" stroke-width="1"/>
  <circle cx="257.5" cy="589.8" r="3" fill="#dc2626" stroke="white" stroke-width="1"/>
  <circle cx="313.3" cy="582.3" r="3" fill="#dc2626" stroke="white" stroke-width="1"/>
  <circle cx="369.2" cy="571.1" r="3" fill="#dc2626" stroke="white" stroke-width="1"/>
  <circle cx="425.0" cy="555.0" r="3" fill="#dc2626" stroke="white" stroke-width="1"/>
  <circle cx="480.8" cy="540.2" r="3" fill="#dc2626" stroke="white" stroke-width="1"/>
  <circle cx="536.7" cy="536.0" r="3" fill="#dc2626" stroke="white" stroke-width="1"/>
  <circle cx="592.5" cy="526.4" r="3" fill="#dc2626" stroke="white" stroke-width="1"/>
  <circle cx="648.3" cy="519.8" r="3" fill="#dc2626" stroke="white" stroke-width="1"/>
  <circle cx="704.2" cy="513.7" r="3" fill="#dc2626" stroke="white" stroke-width="1"/>
  <circle cx="760.0" cy="510.5" r="3" fill="#dc2626" stroke="white" stroke-width="1"/>
  <text x="90.0" y="613.0" text-anchor="middle" fill="#374151" font-size="8.5">8 B</text>
  <text x="145.8" y="613.0" text-anchor="middle" fill="#374151" font-size="8.5">16 B</text>
  <text x="201.7" y="613.0" text-anchor="middle" fill="#374151" font-size="8.5">32 B</text>
  <text x="257.5" y="613.0" text-anchor="middle" fill="#374151" font-size="8.5">64 B</text>
  <text x="313.3" y="613.0" text-anchor="middle" fill="#374151" font-size="8.5">128 B</text>
  <text x="369.2" y="613.0" text-anchor="middle" fill="#374151" font-size="8.5">256 B</text>
  <text x="425.0" y="613.0" text-anchor="middle" fill="#374151" font-size="8.5">512 B</text>
  <text x="480.8" y="613.0" text-anchor="middle" fill="#374151" font-size="8.5">1 KiB</text>
  <text x="536.7" y="613.0" text-anchor="middle" fill="#374151" font-size="8.5">2 KiB</text>
  <text x="592.5" y="613.0" text-anchor="middle" fill="#374151" font-size="8.5">4 KiB</text>
  <text x="648.3" y="613.0" text-anchor="middle" fill="#374151" font-size="8.5">8 KiB</text>
  <text x="704.2" y="613.0" text-anchor="middle" fill="#374151" font-size="8.5">16 KiB</text>
  <text x="760.0" y="613.0" text-anchor="middle" fill="#374151" font-size="8.5">32 KiB</text>
  <text x="425.0" y="652.0" text-anchor="middle" fill="#111827" font-size="13" font-weight="700">PUB/SUB throughput, 64 subscribers: TCP loopback</text>
  <line x1="90.0" y1="869.0" x2="760.0" y2="869.0" stroke="#e5e7eb" stroke-width="1"/>
  <text x="82.0" y="869.0" text-anchor="end" dominant-baseline="middle" fill="#374151" font-size="10">50k</text>
  <line x1="90.0" y1="829.0" x2="760.0" y2="829.0" stroke="#e5e7eb" stroke-width="1"/>
  <text x="82.0" y="829.0" text-anchor="end" dominant-baseline="middle" fill="#374151" font-size="10">100k</text>
  <line x1="90.0" y1="789.0" x2="760.0" y2="789.0" stroke="#e5e7eb" stroke-width="1"/>
  <text x="82.0" y="789.0" text-anchor="end" dominant-baseline="middle" fill="#374151" font-size="10">150k</text>
  <line x1="90.0" y1="749.0" x2="760.0" y2="749.0" stroke="#e5e7eb" stroke-width="1"/>
  <text x="82.0" y="749.0" text-anchor="end" dominant-baseline="middle" fill="#374151" font-size="10">200k</text>
  <line x1="90.0" y1="709.0" x2="760.0" y2="709.0" stroke="#e5e7eb" stroke-width="1"/>
  <text x="82.0" y="709.0" text-anchor="end" dominant-baseline="middle" fill="#374151" font-size="10">250k</text>
  <line x1="90.0" y1="669.0" x2="760.0" y2="669.0" stroke="#e5e7eb" stroke-width="1"/>
  <text x="82.0" y="669.0" text-anchor="end" dominant-baseline="middle" fill="#374151" font-size="10">300k</text>
  <line x1="90.0" y1="869.0" x2="760.0" y2="869.0" stroke="#e5e7eb" stroke-width="1" stroke-dasharray="3,6"/>
  <text x="768.0" y="869.0" text-anchor="start" dominant-baseline="middle" fill="#6b7280" font-size="10">2 GB/s</text>
  <line x1="90.0" y1="829.0" x2="760.0" y2="829.0" stroke="#e5e7eb" stroke-width="1" stroke-dasharray="3,6"/>
  <text x="768.0" y="829.0" text-anchor="start" dominant-baseline="middle" fill="#6b7280" font-size="10">4 GB/s</text>
  <line x1="90.0" y1="789.0" x2="760.0" y2="789.0" stroke="#e5e7eb" stroke-width="1" stroke-dasharray="3,6"/>
  <text x="768.0" y="789.0" text-anchor="start" dominant-baseline="middle" fill="#6b7280" font-size="10">6 GB/s</text>
  <line x1="90.0" y1="749.0" x2="760.0" y2="749.0" stroke="#e5e7eb" stroke-width="1" stroke-dasharray="3,6"/>
  <text x="768.0" y="749.0" text-anchor="start" dominant-baseline="middle" fill="#6b7280" font-size="10">8 GB/s</text>
  <line x1="90.0" y1="709.0" x2="760.0" y2="709.0" stroke="#e5e7eb" stroke-width="1" stroke-dasharray="3,6"/>
  <text x="768.0" y="709.0" text-anchor="start" dominant-baseline="middle" fill="#6b7280" font-size="10">10 GB/s</text>
  <line x1="90.0" y1="669.0" x2="760.0" y2="669.0" stroke="#e5e7eb" stroke-width="1" stroke-dasharray="3,6"/>
  <text x="768.0" y="669.0" text-anchor="start" dominant-baseline="middle" fill="#6b7280" font-size="10">12 GB/s</text>
  <line x1="90.0" y1="669.0" x2="90.0" y2="909.0" stroke="#e5e7eb" stroke-width="1"/>
  <line x1="145.8" y1="669.0" x2="145.8" y2="909.0" stroke="#e5e7eb" stroke-width="1"/>
  <line x1="201.7" y1="669.0" x2="201.7" y2="909.0" stroke="#e5e7eb" stroke-width="1"/>
  <line x1="257.5" y1="669.0" x2="257.5" y2="909.0" stroke="#e5e7eb" stroke-width="1"/>
  <line x1="313.3" y1="669.0" x2="313.3" y2="909.0" stroke="#e5e7eb" stroke-width="1"/>
  <line x1="369.2" y1="669.0" x2="369.2" y2="909.0" stroke="#e5e7eb" stroke-width="1"/>
  <line x1="425.0" y1="669.0" x2="425.0" y2="909.0" stroke="#e5e7eb" stroke-width="1"/>
  <line x1="480.8" y1="669.0" x2="480.8" y2="909.0" stroke="#e5e7eb" stroke-width="1"/>
  <line x1="536.7" y1="669.0" x2="536.7" y2="909.0" stroke="#e5e7eb" stroke-width="1"/>
  <line x1="592.5" y1="669.0" x2="592.5" y2="909.0" stroke="#e5e7eb" stroke-width="1"/>
  <line x1="648.3" y1="669.0" x2="648.3" y2="909.0" stroke="#e5e7eb" stroke-width="1"/>
  <line x1="704.2" y1="669.0" x2="704.2" y2="909.0" stroke="#e5e7eb" stroke-width="1"/>
  <line x1="760.0" y1="669.0" x2="760.0" y2="909.0" stroke="#e5e7eb" stroke-width="1"/>
  <line x1="90.0" y1="669.0" x2="90.0" y2="909.0" stroke="#9ca3af" stroke-width="1.5"/>
  <line x1="760.0" y1="669.0" x2="760.0" y2="909.0" stroke="#9ca3af" stroke-width="1.5"/>
  <line x1="90.0" y1="909.0" x2="760.0" y2="909.0" stroke="#9ca3af" stroke-width="1.5"/>
  <text x="40.0" y="789.0" text-anchor="middle" fill="#374151" font-size="10" font-weight="600" transform="rotate(-90,40.0,789.0)">msg/s</text>
  <polyline points="90.0,899.8 145.8,900.1 201.7,898.5 257.5,898.7 313.3,898.0 369.2,899.1 425.0,900.0 480.8,900.8 536.7,901.0 592.5,901.7 648.3,903.1 704.2,904.3 760.0,906.0" fill="none" stroke="#10b981" stroke-width="2" stroke-dasharray="6,4"/>
  <polyline points="90.0,905.0 145.8,905.1 201.7,904.2 257.5,905.0 313.3,904.8 369.2,904.2 425.0,904.7 480.8,906.4 536.7,905.1 592.5,906.2 648.3,906.8 704.2,906.7 760.0,907.7" fill="none" stroke="#2563eb" stroke-width="2" stroke-dasharray="6,4"/>
  <polyline points="90.0,743.0 145.8,749.8 201.7,768.6 257.5,807.9 313.3,845.5 369.2,869.7 425.0,883.5 480.8,894.1 536.7,901.0 592.5,904.9 648.3,906.7 704.2,907.6 760.0,908.0" fill="none" stroke="#eab308" stroke-width="2" stroke-dasharray="6,4"/>
  <polyline points="90.0,877.6 145.8,842.9 201.7,878.3 257.5,852.3 313.3,859.7 369.2,874.1 425.0,882.7 480.8,875.1 536.7,897.2 592.5,902.4 648.3,905.6 704.2,907.7 760.0,908.1" fill="none" stroke="#06b6d4" stroke-width="2" stroke-dasharray="6,4"/>
  <polyline points="90.0,844.9 145.8,839.0 201.7,838.6 257.5,860.5 313.3,852.8 369.2,853.7 425.0,861.6 480.8,861.3 536.7,871.9 592.5,896.2 648.3,901.4 704.2,904.0 760.0,905.0" fill="none" stroke="#f97316" stroke-width="2" stroke-dasharray="6,4"/>
  <polyline points="90.0,816.1 145.8,818.0 201.7,819.3 257.5,815.6 313.3,830.4 369.2,839.7 425.0,858.2 480.8,875.2 536.7,891.7 592.5,900.4 648.3,904.1 704.2,906.3 760.0,907.8" fill="none" stroke="#dc2626" stroke-width="2" stroke-dasharray="6,4"/>
  <polyline points="90.0,908.9 145.8,908.8 201.7,908.5 257.5,907.9 313.3,906.8 369.2,904.9 425.0,901.6 480.8,895.6 536.7,882.8 592.5,861.0 648.3,832.3 704.2,785.8 760.0,749.8" fill="none" stroke="#10b981" stroke-width="2.5" stroke-linecap="round" stroke-linejoin="round"/>
  <circle cx="90.0" cy="908.9" r="3" fill="#10b981" stroke="white" stroke-width="1"/>
  <circle cx="145.8" cy="908.8" r="3" fill="#10b981" stroke="white" stroke-width="1"/>
  <circle cx="201.7" cy="908.5" r="3" fill="#10b981" stroke="white" stroke-width="1"/>
  <circle cx="257.5" cy="907.9" r="3" fill="#10b981" stroke="white" stroke-width="1"/>
  <circle cx="313.3" cy="906.8" r="3" fill="#10b981" stroke="white" stroke-width="1"/>
  <circle cx="369.2" cy="904.9" r="3" fill="#10b981" stroke="white" stroke-width="1"/>
  <circle cx="425.0" cy="901.6" r="3" fill="#10b981" stroke="white" stroke-width="1"/>
  <circle cx="480.8" cy="895.6" r="3" fill="#10b981" stroke="white" stroke-width="1"/>
  <circle cx="536.7" cy="882.8" r="3" fill="#10b981" stroke="white" stroke-width="1"/>
  <circle cx="592.5" cy="861.0" r="3" fill="#10b981" stroke="white" stroke-width="1"/>
  <circle cx="648.3" cy="832.3" r="3" fill="#10b981" stroke="white" stroke-width="1"/>
  <circle cx="704.2" cy="785.8" r="3" fill="#10b981" stroke="white" stroke-width="1"/>
  <circle cx="760.0" cy="749.8" r="3" fill="#10b981" stroke="white" stroke-width="1"/>
  <polyline points="90.0,908.9 145.8,908.9 201.7,908.8 257.5,908.6 313.3,908.1 369.2,907.0 425.0,905.5 480.8,904.7 536.7,896.3 592.5,890.4 648.3,879.8 704.2,848.4 760.0,839.2" fill="none" stroke="#2563eb" stroke-width="2.5" stroke-linecap="round" stroke-linejoin="round"/>
  <circle cx="90.0" cy="908.9" r="3" fill="#2563eb" stroke="white" stroke-width="1"/>
  <circle cx="145.8" cy="908.9" r="3" fill="#2563eb" stroke="white" stroke-width="1"/>
  <circle cx="201.7" cy="908.8" r="3" fill="#2563eb" stroke="white" stroke-width="1"/>
  <circle cx="257.5" cy="908.6" r="3" fill="#2563eb" stroke="white" stroke-width="1"/>
  <circle cx="313.3" cy="908.1" r="3" fill="#2563eb" stroke="white" stroke-width="1"/>
  <circle cx="369.2" cy="907.0" r="3" fill="#2563eb" stroke="white" stroke-width="1"/>
  <circle cx="425.0" cy="905.5" r="3" fill="#2563eb" stroke="white" stroke-width="1"/>
  <circle cx="480.8" cy="904.7" r="3" fill="#2563eb" stroke="white" stroke-width="1"/>
  <circle cx="536.7" cy="896.3" r="3" fill="#2563eb" stroke="white" stroke-width="1"/>
  <circle cx="592.5" cy="890.4" r="3" fill="#2563eb" stroke="white" stroke-width="1"/>
  <circle cx="648.3" cy="879.8" r="3" fill="#2563eb" stroke="white" stroke-width="1"/>
  <circle cx="704.2" cy="848.4" r="3" fill="#2563eb" stroke="white" stroke-width="1"/>
  <circle cx="760.0" cy="839.2" r="3" fill="#2563eb" stroke="white" stroke-width="1"/>
  <polyline points="90.0,906.9 145.8,904.9 201.7,901.8 257.5,898.6 313.3,896.0 369.2,892.9 425.0,888.1 480.8,884.6 536.7,882.9 592.5,881.9 648.3,878.7 704.2,873.2 760.0,855.4" fill="none" stroke="#eab308" stroke-width="2.5" stroke-linecap="round" stroke-linejoin="round"/>
  <circle cx="90.0" cy="906.9" r="3" fill="#eab308" stroke="white" stroke-width="1"/>
  <circle cx="145.8" cy="904.9" r="3" fill="#eab308" stroke="white" stroke-width="1"/>
  <circle cx="201.7" cy="901.8" r="3" fill="#eab308" stroke="white" stroke-width="1"/>
  <circle cx="257.5" cy="898.6" r="3" fill="#eab308" stroke="white" stroke-width="1"/>
  <circle cx="313.3" cy="896.0" r="3" fill="#eab308" stroke="white" stroke-width="1"/>
  <circle cx="369.2" cy="892.9" r="3" fill="#eab308" stroke="white" stroke-width="1"/>
  <circle cx="425.0" cy="888.1" r="3" fill="#eab308" stroke="white" stroke-width="1"/>
  <circle cx="480.8" cy="884.6" r="3" fill="#eab308" stroke="white" stroke-width="1"/>
  <circle cx="536.7" cy="882.9" r="3" fill="#eab308" stroke="white" stroke-width="1"/>
  <circle cx="592.5" cy="881.9" r="3" fill="#eab308" stroke="white" stroke-width="1"/>
  <circle cx="648.3" cy="878.7" r="3" fill="#eab308" stroke="white" stroke-width="1"/>
  <circle cx="704.2" cy="873.2" r="3" fill="#eab308" stroke="white" stroke-width="1"/>
  <circle cx="760.0" cy="855.4" r="3" fill="#eab308" stroke="white" stroke-width="1"/>
  <polyline points="90.0,908.6 145.8,907.3 201.7,907.4 257.5,903.2 313.3,898.9 369.2,894.7 425.0,887.4 480.8,853.5 536.7,870.4 592.5,865.8 648.3,864.6 704.2,873.6 760.0,862.8" fill="none" stroke="#06b6d4" stroke-width="2.5" stroke-linecap="round" stroke-linejoin="round"/>
  <circle cx="90.0" cy="908.6" r="3" fill="#06b6d4" stroke="white" stroke-width="1"/>
  <circle cx="145.8" cy="907.3" r="3" fill="#06b6d4" stroke="white" stroke-width="1"/>
  <circle cx="201.7" cy="907.4" r="3" fill="#06b6d4" stroke="white" stroke-width="1"/>
  <circle cx="257.5" cy="903.2" r="3" fill="#06b6d4" stroke="white" stroke-width="1"/>
  <circle cx="313.3" cy="898.9" r="3" fill="#06b6d4" stroke="white" stroke-width="1"/>
  <circle cx="369.2" cy="894.7" r="3" fill="#06b6d4" stroke="white" stroke-width="1"/>
  <circle cx="425.0" cy="887.4" r="3" fill="#06b6d4" stroke="white" stroke-width="1"/>
  <circle cx="480.8" cy="853.5" r="3" fill="#06b6d4" stroke="white" stroke-width="1"/>
  <circle cx="536.7" cy="870.4" r="3" fill="#06b6d4" stroke="white" stroke-width="1"/>
  <circle cx="592.5" cy="865.8" r="3" fill="#06b6d4" stroke="white" stroke-width="1"/>
  <circle cx="648.3" cy="864.6" r="3" fill="#06b6d4" stroke="white" stroke-width="1"/>
  <circle cx="704.2" cy="873.6" r="3" fill="#06b6d4" stroke="white" stroke-width="1"/>
  <circle cx="760.0" cy="862.8" r="3" fill="#06b6d4" stroke="white" stroke-width="1"/>
  <polyline points="90.0,908.2 145.8,907.2 201.7,905.4 257.5,904.0 313.3,897.5 369.2,886.4 425.0,870.1 480.8,830.9 536.7,787.4 592.5,825.0 648.3,809.3 704.2,777.8 760.0,700.6" fill="none" stroke="#f97316" stroke-width="2.5" stroke-linecap="round" stroke-linejoin="round"/>
  <circle cx="90.0" cy="908.2" r="3" fill="#f97316" stroke="white" stroke-width="1"/>
  <circle cx="145.8" cy="907.2" r="3" fill="#f97316" stroke="white" stroke-width="1"/>
  <circle cx="201.7" cy="905.4" r="3" fill="#f97316" stroke="white" stroke-width="1"/>
  <circle cx="257.5" cy="904.0" r="3" fill="#f97316" stroke="white" stroke-width="1"/>
  <circle cx="313.3" cy="897.5" r="3" fill="#f97316" stroke="white" stroke-width="1"/>
  <circle cx="369.2" cy="886.4" r="3" fill="#f97316" stroke="white" stroke-width="1"/>
  <circle cx="425.0" cy="870.1" r="3" fill="#f97316" stroke="white" stroke-width="1"/>
  <circle cx="480.8" cy="830.9" r="3" fill="#f97316" stroke="white" stroke-width="1"/>
  <circle cx="536.7" cy="787.4" r="3" fill="#f97316" stroke="white" stroke-width="1"/>
  <circle cx="592.5" cy="825.0" r="3" fill="#f97316" stroke="white" stroke-width="1"/>
  <circle cx="648.3" cy="809.3" r="3" fill="#f97316" stroke="white" stroke-width="1"/>
  <circle cx="704.2" cy="777.8" r="3" fill="#f97316" stroke="white" stroke-width="1"/>
  <circle cx="760.0" cy="700.6" r="3" fill="#f97316" stroke="white" stroke-width="1"/>
  <polyline points="90.0,907.8 145.8,906.7 201.7,904.4 257.5,899.4 313.3,892.9 369.2,880.6 425.0,867.4 480.8,853.6 536.7,852.3 592.5,852.3 648.3,844.2 704.2,837.1 760.0,846.7" fill="none" stroke="#dc2626" stroke-width="2.5" stroke-linecap="round" stroke-linejoin="round"/>
  <circle cx="90.0" cy="907.8" r="3" fill="#dc2626" stroke="white" stroke-width="1"/>
  <circle cx="145.8" cy="906.7" r="3" fill="#dc2626" stroke="white" stroke-width="1"/>
  <circle cx="201.7" cy="904.4" r="3" fill="#dc2626" stroke="white" stroke-width="1"/>
  <circle cx="257.5" cy="899.4" r="3" fill="#dc2626" stroke="white" stroke-width="1"/>
  <circle cx="313.3" cy="892.9" r="3" fill="#dc2626" stroke="white" stroke-width="1"/>
  <circle cx="369.2" cy="880.6" r="3" fill="#dc2626" stroke="white" stroke-width="1"/>
  <circle cx="425.0" cy="867.4" r="3" fill="#dc2626" stroke="white" stroke-width="1"/>
  <circle cx="480.8" cy="853.6" r="3" fill="#dc2626" stroke="white" stroke-width="1"/>
  <circle cx="536.7" cy="852.3" r="3" fill="#dc2626" stroke="white" stroke-width="1"/>
  <circle cx="592.5" cy="852.3" r="3" fill="#dc2626" stroke="white" stroke-width="1"/>
  <circle cx="648.3" cy="844.2" r="3" fill="#dc2626" stroke="white" stroke-width="1"/>
  <circle cx="704.2" cy="837.1" r="3" fill="#dc2626" stroke="white" stroke-width="1"/>
  <circle cx="760.0" cy="846.7" r="3" fill="#dc2626" stroke="white" stroke-width="1"/>
  <text x="90.0" y="923.0" text-anchor="middle" fill="#374151" font-size="8.5">8 B</text>
  <text x="145.8" y="923.0" text-anchor="middle" fill="#374151" font-size="8.5">16 B</text>
  <text x="201.7" y="923.0" text-anchor="middle" fill="#374151" font-size="8.5">32 B</text>
  <text x="257.5" y="923.0" text-anchor="middle" fill="#374151" font-size="8.5">64 B</text>
  <text x="313.3" y="923.0" text-anchor="middle" fill="#374151" font-size="8.5">128 B</text>
  <text x="369.2" y="923.0" text-anchor="middle" fill="#374151" font-size="8.5">256 B</text>
  <text x="425.0" y="923.0" text-anchor="middle" fill="#374151" font-size="8.5">512 B</text>
  <text x="480.8" y="923.0" text-anchor="middle" fill="#374151" font-size="8.5">1 KiB</text>
  <text x="536.7" y="923.0" text-anchor="middle" fill="#374151" font-size="8.5">2 KiB</text>
  <text x="592.5" y="923.0" text-anchor="middle" fill="#374151" font-size="8.5">4 KiB</text>
  <text x="648.3" y="923.0" text-anchor="middle" fill="#374151" font-size="8.5">8 KiB</text>
  <text x="704.2" y="923.0" text-anchor="middle" fill="#374151" font-size="8.5">16 KiB</text>
  <text x="760.0" y="923.0" text-anchor="middle" fill="#374151" font-size="8.5">32 KiB</text>
  <line x1="50" y1="949" x2="64" y2="949" stroke="#eab308" stroke-width="2.5"/>
  <circle cx="57" cy="949" r="2.5" fill="#eab308"/>
  <text x="70" y="953" fill="#374151" font-size="11" font-weight="500">libzmq v4.3.5</text>
  <line x1="175" y1="949" x2="189" y2="949" stroke="#dc2626" stroke-width="2.5"/>
  <circle cx="182" cy="949" r="2.5" fill="#dc2626"/>
  <text x="195" y="953" fill="#374151" font-size="11" font-weight="500">omq-compio (MT)</text>
  <line x1="300" y1="949" x2="314" y2="949" stroke="#f97316" stroke-width="2.5"/>
  <circle cx="307" cy="949" r="2.5" fill="#f97316"/>
  <text x="320" y="953" fill="#374151" font-size="11" font-weight="500">omq-tokio</text>
  <line x1="425" y1="949" x2="439" y2="949" stroke="#2563eb" stroke-width="2.5"/>
  <circle cx="432" cy="949" r="2.5" fill="#2563eb"/>
  <text x="445" y="953" fill="#374151" font-size="11" font-weight="500">zmq.rs v0.6.0</text>
  <line x1="550" y1="949" x2="564" y2="949" stroke="#10b981" stroke-width="2.5"/>
  <circle cx="557" cy="949" r="2.5" fill="#10b981"/>
  <text x="570" y="953" fill="#374151" font-size="11" font-weight="500">rzmq v0.5.15</text>
  <line x1="675" y1="949" x2="689" y2="949" stroke="#06b6d4" stroke-width="2.5"/>
  <circle cx="682" cy="949" r="2.5" fill="#06b6d4"/>
  <text x="695" y="953" fill="#374151" font-size="11" font-weight="500">omq-libzmq</text>
  <line x1="265" y1="971" x2="285" y2="971" stroke="#6b7280" stroke-width="2" stroke-dasharray="6,4"/>
  <text x="291" y="975" fill="#6b7280" font-size="10">msg/s (left axis)</text>
  <line x1="435" y1="971" x2="455" y2="971" stroke="#6b7280" stroke-width="2"/>
  <circle cx="445" cy="971" r="2" fill="#6b7280"/>
  <text x="461" y="975" fill="#6b7280" font-size="10">throughput / GB/s (right axis)</text>
</svg>
