<svg xmlns="http://www.w3.org/2000/svg" viewBox="0 0 850 999" font-family="system-ui, -apple-system, sans-serif">
  <rect width="850" height="999" fill="white"/>
  <text x="425.0" y="46" text-anchor="middle" fill="#9ca3af" font-size="10">Linux VM on a 2018 Mac Mini, Intel Core i7-8700B @ 3.20GHz, 6 cores, performance governor, turbo off</text>
  <text x="425.0" y="32.0" text-anchor="middle" fill="#111827" font-size="13" font-weight="700">PUB/SUB throughput, 1 subscriber: TCP loopback</text>
  <line x1="90.0" y1="265.0" x2="760.0" y2="265.0" stroke="#e5e7eb" stroke-width="1"/>
  <text x="82.0" y="265.0" text-anchor="end" dominant-baseline="middle" fill="#374151" font-size="10">1M</text>
  <line x1="90.0" y1="241.0" x2="760.0" y2="241.0" stroke="#e5e7eb" stroke-width="1"/>
  <text x="82.0" y="241.0" text-anchor="end" dominant-baseline="middle" fill="#374151" font-size="10">2M</text>
  <line x1="90.0" y1="217.0" x2="760.0" y2="217.0" stroke="#e5e7eb" stroke-width="1"/>
  <text x="82.0" y="217.0" text-anchor="end" dominant-baseline="middle" fill="#374151" font-size="10">3M</text>
  <line x1="90.0" y1="193.0" x2="760.0" y2="193.0" stroke="#e5e7eb" stroke-width="1"/>
  <text x="82.0" y="193.0" text-anchor="end" dominant-baseline="middle" fill="#374151" font-size="10">4M</text>
  <line x1="90.0" y1="169.0" x2="760.0" y2="169.0" stroke="#e5e7eb" stroke-width="1"/>
  <text x="82.0" y="169.0" text-anchor="end" dominant-baseline="middle" fill="#374151" font-size="10">5M</text>
  <line x1="90.0" y1="145.0" x2="760.0" y2="145.0" stroke="#e5e7eb" stroke-width="1"/>
  <text x="82.0" y="145.0" text-anchor="end" dominant-baseline="middle" fill="#374151" font-size="10">6M</text>
  <line x1="90.0" y1="121.0" x2="760.0" y2="121.0" stroke="#e5e7eb" stroke-width="1"/>
  <text x="82.0" y="121.0" text-anchor="end" dominant-baseline="middle" fill="#374151" font-size="10">7M</text>
  <line x1="90.0" y1="97.0" x2="760.0" y2="97.0" stroke="#e5e7eb" stroke-width="1"/>
  <text x="82.0" y="97.0" text-anchor="end" dominant-baseline="middle" fill="#374151" font-size="10">8M</text>
  <line x1="90.0" y1="73.0" x2="760.0" y2="73.0" stroke="#e5e7eb" stroke-width="1"/>
  <text x="82.0" y="73.0" text-anchor="end" dominant-baseline="middle" fill="#374151" font-size="10">9M</text>
  <line x1="90.0" y1="49.0" x2="760.0" y2="49.0" stroke="#e5e7eb" stroke-width="1"/>
  <text x="82.0" y="49.0" text-anchor="end" dominant-baseline="middle" fill="#374151" font-size="10">10M</text>
  <line x1="90.0" y1="229.0" x2="760.0" y2="229.0" stroke="#e5e7eb" stroke-width="1" stroke-dasharray="3,6"/>
  <text x="768.0" y="229.0" text-anchor="start" dominant-baseline="middle" fill="#6b7280" font-size="10">2 GB/s</text>
  <line x1="90.0" y1="169.0" x2="760.0" y2="169.0" stroke="#e5e7eb" stroke-width="1" stroke-dasharray="3,6"/>
  <text x="768.0" y="169.0" text-anchor="start" dominant-baseline="middle" fill="#6b7280" font-size="10">4 GB/s</text>
  <line x1="90.0" y1="109.0" x2="760.0" y2="109.0" stroke="#e5e7eb" stroke-width="1" stroke-dasharray="3,6"/>
  <text x="768.0" y="109.0" text-anchor="start" dominant-baseline="middle" fill="#6b7280" font-size="10">6 GB/s</text>
  <line x1="90.0" y1="49.0" x2="760.0" y2="49.0" stroke="#e5e7eb" stroke-width="1" stroke-dasharray="3,6"/>
  <text x="768.0" y="49.0" text-anchor="start" dominant-baseline="middle" fill="#6b7280" font-size="10">8 GB/s</text>
  <line x1="90.0" y1="49.0" x2="90.0" y2="289.0" stroke="#e5e7eb" stroke-width="1"/>
  <line x1="145.8" y1="49.0" x2="145.8" y2="289.0" stroke="#e5e7eb" stroke-width="1"/>
  <line x1="201.7" y1="49.0" x2="201.7" y2="289.0" stroke="#e5e7eb" stroke-width="1"/>
  <line x1="257.5" y1="49.0" x2="257.5" y2="289.0" stroke="#e5e7eb" stroke-width="1"/>
  <line x1="313.3" y1="49.0" x2="313.3" y2="289.0" stroke="#e5e7eb" stroke-width="1"/>
  <line x1="369.2" y1="49.0" x2="369.2" y2="289.0" stroke="#e5e7eb" stroke-width="1"/>
  <line x1="425.0" y1="49.0" x2="425.0" y2="289.0" stroke="#e5e7eb" stroke-width="1"/>
  <line x1="480.8" y1="49.0" x2="480.8" y2="289.0" stroke="#e5e7eb" stroke-width="1"/>
  <line x1="536.7" y1="49.0" x2="536.7" y2="289.0" stroke="#e5e7eb" stroke-width="1"/>
  <line x1="592.5" y1="49.0" x2="592.5" y2="289.0" stroke="#e5e7eb" stroke-width="1"/>
  <line x1="648.3" y1="49.0" x2="648.3" y2="289.0" stroke="#e5e7eb" stroke-width="1"/>
  <line x1="704.2" y1="49.0" x2="704.2" y2="289.0" stroke="#e5e7eb" stroke-width="1"/>
  <line x1="760.0" y1="49.0" x2="760.0" y2="289.0" stroke="#e5e7eb" stroke-width="1"/>
  <line x1="90.0" y1="49.0" x2="90.0" y2="289.0" stroke="#9ca3af" stroke-width="1.5"/>
  <line x1="760.0" y1="49.0" x2="760.0" y2="289.0" stroke="#9ca3af" stroke-width="1.5"/>
  <line x1="90.0" y1="289.0" x2="760.0" y2="289.0" stroke="#9ca3af" stroke-width="1.5"/>
  <text x="40.0" y="169.0" text-anchor="middle" fill="#374151" font-size="10" font-weight="600" transform="rotate(-90,40.0,169.0)">msg/s</text>
  <polyline points="90.0,255.7 145.8,255.2 201.7,253.0 257.5,254.3 313.3,255.9 369.2,254.4 425.0,256.4 480.8,260.8 536.7,264.5 592.5,272.6 648.3,279.0 704.2,283.2 760.0,286.2" fill="none" stroke="#10b981" stroke-width="2" stroke-dasharray="6,4"/>
  <polyline points="90.0,281.4 145.8,282.2 201.7,282.5 257.5,283.2 313.3,283.2 369.2,283.8 425.0,284.0 480.8,284.1 536.7,284.5 592.5,284.8 648.3,285.1 704.2,285.6 760.0,286.7" fill="none" stroke="#2563eb" stroke-width="2" stroke-dasharray="6,4"/>
  <polyline points="90.0,136.7 145.8,131.1 201.7,133.8 257.5,185.9 313.3,240.1 369.2,243.3 425.0,253.8 480.8,268.9 536.7,276.9 592.5,282.9 648.3,285.1 704.2,287.3 760.0,287.6" fill="none" stroke="#eab308" stroke-width="2" stroke-dasharray="6,4"/>
  <polyline points="90.0,195.0 145.8,195.6 201.7,200.4 257.5,201.9 313.3,203.2 369.2,205.3 425.0,209.1 480.8,217.4 536.7,236.4 592.5,258.9 648.3,271.6 704.2,280.6 760.0,284.8" fill="none" stroke="#f97316" stroke-width="2" stroke-dasharray="6,4"/>
  <polyline points="90.0,204.7 145.8,205.0 201.7,206.5 257.5,227.0 313.3,230.1 369.2,236.1 425.0,242.3 480.8,257.0 536.7,266.6 592.5,275.2 648.3,282.5 704.2,285.6 760.0,287.2" fill="none" stroke="#dc2626" stroke-width="2" stroke-dasharray="6,4"/>
  <polyline points="90.0,288.7 145.8,288.3 201.7,287.6 257.5,286.2 313.3,283.7 369.2,277.9 425.0,268.1 480.8,252.9 536.7,226.2 592.5,204.8 648.3,187.0 704.2,170.8 760.0,173.1" fill="none" stroke="#10b981" stroke-width="2.5" stroke-linecap="round" stroke-linejoin="round"/>
  <circle cx="90.0" cy="288.7" r="3" fill="#10b981" stroke="white" stroke-width="1"/>
  <circle cx="145.8" cy="288.3" r="3" fill="#10b981" stroke="white" stroke-width="1"/>
  <circle cx="201.7" cy="287.6" r="3" fill="#10b981" stroke="white" stroke-width="1"/>
  <circle cx="257.5" cy="286.2" r="3" fill="#10b981" stroke="white" stroke-width="1"/>
  <circle cx="313.3" cy="283.7" r="3" fill="#10b981" stroke="white" stroke-width="1"/>
  <circle cx="369.2" cy="277.9" r="3" fill="#10b981" stroke="white" stroke-width="1"/>
  <circle cx="425.0" cy="268.1" r="3" fill="#10b981" stroke="white" stroke-width="1"/>
  <circle cx="480.8" cy="252.9" r="3" fill="#10b981" stroke="white" stroke-width="1"/>
  <circle cx="536.7" cy="226.2" r="3" fill="#10b981" stroke="white" stroke-width="1"/>
  <circle cx="592.5" cy="204.8" r="3" fill="#10b981" stroke="white" stroke-width="1"/>
  <circle cx="648.3" cy="187.0" r="3" fill="#10b981" stroke="white" stroke-width="1"/>
  <circle cx="704.2" cy="170.8" r="3" fill="#10b981" stroke="white" stroke-width="1"/>
  <circle cx="760.0" cy="173.1" r="3" fill="#10b981" stroke="white" stroke-width="1"/>
  <polyline points="90.0,288.9 145.8,288.9 201.7,288.7 257.5,288.5 313.3,288.1 369.2,287.3 425.0,285.8 480.8,282.7 536.7,277.5 592.5,267.7 648.3,249.4 704.2,219.3 760.0,196.8" fill="none" stroke="#2563eb" stroke-width="2.5" stroke-linecap="round" stroke-linejoin="round"/>
  <circle cx="90.0" cy="288.9" r="3" fill="#2563eb" stroke="white" stroke-width="1"/>
  <circle cx="145.8" cy="288.9" r="3" fill="#2563eb" stroke="white" stroke-width="1"/>
  <circle cx="201.7" cy="288.7" r="3" fill="#2563eb" stroke="white" stroke-width="1"/>
  <circle cx="257.5" cy="288.5" r="3" fill="#2563eb" stroke="white" stroke-width="1"/>
  <circle cx="313.3" cy="288.1" r="3" fill="#2563eb" stroke="white" stroke-width="1"/>
  <circle cx="369.2" cy="287.3" r="3" fill="#2563eb" stroke="white" stroke-width="1"/>
  <circle cx="425.0" cy="285.8" r="3" fill="#2563eb" stroke="white" stroke-width="1"/>
  <circle cx="480.8" cy="282.7" r="3" fill="#2563eb" stroke="white" stroke-width="1"/>
  <circle cx="536.7" cy="277.5" r="3" fill="#2563eb" stroke="white" stroke-width="1"/>
  <circle cx="592.5" cy="267.7" r="3" fill="#2563eb" stroke="white" stroke-width="1"/>
  <circle cx="648.3" cy="249.4" r="3" fill="#2563eb" stroke="white" stroke-width="1"/>
  <circle cx="704.2" cy="219.3" r="3" fill="#2563eb" stroke="white" stroke-width="1"/>
  <circle cx="760.0" cy="196.8" r="3" fill="#2563eb" stroke="white" stroke-width="1"/>
  <polyline points="90.0,287.5 145.8,285.8 201.7,282.8 257.5,280.8 313.3,281.2 369.2,274.4 425.0,266.4 480.8,263.3 536.7,258.1 592.5,257.5 648.3,248.9 704.2,253.9 760.0,230.3" fill="none" stroke="#eab308" stroke-width="2.5" stroke-linecap="round" stroke-linejoin="round"/>
  <circle cx="90.0" cy="287.5" r="3" fill="#eab308" stroke="white" stroke-width="1"/>
  <circle cx="145.8" cy="285.8" r="3" fill="#eab308" stroke="white" stroke-width="1"/>
  <circle cx="201.7" cy="282.8" r="3" fill="#eab308" stroke="white" stroke-width="1"/>
  <circle cx="257.5" cy="280.8" r="3" fill="#eab308" stroke="white" stroke-width="1"/>
  <circle cx="313.3" cy="281.2" r="3" fill="#eab308" stroke="white" stroke-width="1"/>
  <circle cx="369.2" cy="274.4" r="3" fill="#eab308" stroke="white" stroke-width="1"/>
  <circle cx="425.0" cy="266.4" r="3" fill="#eab308" stroke="white" stroke-width="1"/>
  <circle cx="480.8" cy="263.3" r="3" fill="#eab308" stroke="white" stroke-width="1"/>
  <circle cx="536.7" cy="258.1" r="3" fill="#eab308" stroke="white" stroke-width="1"/>
  <circle cx="592.5" cy="257.5" r="3" fill="#eab308" stroke="white" stroke-width="1"/>
  <circle cx="648.3" cy="248.9" r="3" fill="#eab308" stroke="white" stroke-width="1"/>
  <circle cx="704.2" cy="253.9" r="3" fill="#eab308" stroke="white" stroke-width="1"/>
  <circle cx="760.0" cy="230.3" r="3" fill="#eab308" stroke="white" stroke-width="1"/>
  <polyline points="90.0,288.1 145.8,287.1 201.7,285.5 257.5,282.0 313.3,275.3 369.2,262.2 425.0,237.9 480.8,197.3 536.7,154.3 592.5,135.1 648.3,110.5 704.2,116.7 760.0,116.6" fill="none" stroke="#f97316" stroke-width="2.5" stroke-linecap="round" stroke-linejoin="round"/>
  <circle cx="90.0" cy="288.1" r="3" fill="#f97316" stroke="white" stroke-width="1"/>
  <circle cx="145.8" cy="287.1" r="3" fill="#f97316" stroke="white" stroke-width="1"/>
  <circle cx="201.7" cy="285.5" r="3" fill="#f97316" stroke="white" stroke-width="1"/>
  <circle cx="257.5" cy="282.0" r="3" fill="#f97316" stroke="white" stroke-width="1"/>
  <circle cx="313.3" cy="275.3" r="3" fill="#f97316" stroke="white" stroke-width="1"/>
  <circle cx="369.2" cy="262.2" r="3" fill="#f97316" stroke="white" stroke-width="1"/>
  <circle cx="425.0" cy="237.9" r="3" fill="#f97316" stroke="white" stroke-width="1"/>
  <circle cx="480.8" cy="197.3" r="3" fill="#f97316" stroke="white" stroke-width="1"/>
  <circle cx="536.7" cy="154.3" r="3" fill="#f97316" stroke="white" stroke-width="1"/>
  <circle cx="592.5" cy="135.1" r="3" fill="#f97316" stroke="white" stroke-width="1"/>
  <circle cx="648.3" cy="110.5" r="3" fill="#f97316" stroke="white" stroke-width="1"/>
  <circle cx="704.2" cy="116.7" r="3" fill="#f97316" stroke="white" stroke-width="1"/>
  <circle cx="760.0" cy="116.6" r="3" fill="#f97316" stroke="white" stroke-width="1"/>
  <polyline points="90.0,288.2 145.8,287.3 201.7,285.7 257.5,284.0 313.3,279.6 369.2,272.1 425.0,259.1 480.8,248.1 536.7,231.7 592.5,218.3 648.3,222.5 704.2,219.4 760.0,215.3" fill="none" stroke="#dc2626" stroke-width="2.5" stroke-linecap="round" stroke-linejoin="round"/>
  <circle cx="90.0" cy="288.2" r="3" fill="#dc2626" stroke="white" stroke-width="1"/>
  <circle cx="145.8" cy="287.3" r="3" fill="#dc2626" stroke="white" stroke-width="1"/>
  <circle cx="201.7" cy="285.7" r="3" fill="#dc2626" stroke="white" stroke-width="1"/>
  <circle cx="257.5" cy="284.0" r="3" fill="#dc2626" stroke="white" stroke-width="1"/>
  <circle cx="313.3" cy="279.6" r="3" fill="#dc2626" stroke="white" stroke-width="1"/>
  <circle cx="369.2" cy="272.1" r="3" fill="#dc2626" stroke="white" stroke-width="1"/>
  <circle cx="425.0" cy="259.1" r="3" fill="#dc2626" stroke="white" stroke-width="1"/>
  <circle cx="480.8" cy="248.1" r="3" fill="#dc2626" stroke="white" stroke-width="1"/>
  <circle cx="536.7" cy="231.7" r="3" fill="#dc2626" stroke="white" stroke-width="1"/>
  <circle cx="592.5" cy="218.3" r="3" fill="#dc2626" stroke="white" stroke-width="1"/>
  <circle cx="648.3" cy="222.5" r="3" fill="#dc2626" stroke="white" stroke-width="1"/>
  <circle cx="704.2" cy="219.4" r="3" fill="#dc2626" stroke="white" stroke-width="1"/>
  <circle cx="760.0" cy="215.3" r="3" fill="#dc2626" stroke="white" stroke-width="1"/>
  <text x="90.0" y="303.0" text-anchor="middle" fill="#374151" font-size="8.5">8 B</text>
  <text x="145.8" y="303.0" text-anchor="middle" fill="#374151" font-size="8.5">16 B</text>
  <text x="201.7" y="303.0" text-anchor="middle" fill="#374151" font-size="8.5">32 B</text>
  <text x="257.5" y="303.0" text-anchor="middle" fill="#374151" font-size="8.5">64 B</text>
  <text x="313.3" y="303.0" text-anchor="middle" fill="#374151" font-size="8.5">128 B</text>
  <text x="369.2" y="303.0" text-anchor="middle" fill="#374151" font-size="8.5">256 B</text>
  <text x="425.0" y="303.0" text-anchor="middle" fill="#374151" font-size="8.5">512 B</text>
  <text x="480.8" y="303.0" text-anchor="middle" fill="#374151" font-size="8.5">1 KiB</text>
  <text x="536.7" y="303.0" text-anchor="middle" fill="#374151" font-size="8.5">2 KiB</text>
  <text x="592.5" y="303.0" text-anchor="middle" fill="#374151" font-size="8.5">4 KiB</text>
  <text x="648.3" y="303.0" text-anchor="middle" fill="#374151" font-size="8.5">8 KiB</text>
  <text x="704.2" y="303.0" text-anchor="middle" fill="#374151" font-size="8.5">16 KiB</text>
  <text x="760.0" y="303.0" text-anchor="middle" fill="#374151" font-size="8.5">32 KiB</text>
  <text x="425.0" y="342.0" text-anchor="middle" fill="#111827" font-size="13" font-weight="700">PUB/SUB throughput, 8 subscribers: TCP loopback</text>
  <line x1="90.0" y1="575.0" x2="760.0" y2="575.0" stroke="#e5e7eb" stroke-width="1"/>
  <text x="82.0" y="575.0" text-anchor="end" dominant-baseline="middle" fill="#374151" font-size="10">200k</text>
  <line x1="90.0" y1="551.0" x2="760.0" y2="551.0" stroke="#e5e7eb" stroke-width="1"/>
  <text x="82.0" y="551.0" text-anchor="end" dominant-baseline="middle" fill="#374151" font-size="10">400k</text>
  <line x1="90.0" y1="527.0" x2="760.0" y2="527.0" stroke="#e5e7eb" stroke-width="1"/>
  <text x="82.0" y="527.0" text-anchor="end" dominant-baseline="middle" fill="#374151" font-size="10">600k</text>
  <line x1="90.0" y1="503.0" x2="760.0" y2="503.0" stroke="#e5e7eb" stroke-width="1"/>
  <text x="82.0" y="503.0" text-anchor="end" dominant-baseline="middle" fill="#374151" font-size="10">800k</text>
  <line x1="90.0" y1="479.0" x2="760.0" y2="479.0" stroke="#e5e7eb" stroke-width="1"/>
  <text x="82.0" y="479.0" text-anchor="end" dominant-baseline="middle" fill="#374151" font-size="10">1M</text>
  <line x1="90.0" y1="455.0" x2="760.0" y2="455.0" stroke="#e5e7eb" stroke-width="1"/>
  <text x="82.0" y="455.0" text-anchor="end" dominant-baseline="middle" fill="#374151" font-size="10">1.2M</text>
  <line x1="90.0" y1="431.0" x2="760.0" y2="431.0" stroke="#e5e7eb" stroke-width="1"/>
  <text x="82.0" y="431.0" text-anchor="end" dominant-baseline="middle" fill="#374151" font-size="10">1.4M</text>
  <line x1="90.0" y1="407.0" x2="760.0" y2="407.0" stroke="#e5e7eb" stroke-width="1"/>
  <text x="82.0" y="407.0" text-anchor="end" dominant-baseline="middle" fill="#374151" font-size="10">1.6M</text>
  <line x1="90.0" y1="383.0" x2="760.0" y2="383.0" stroke="#e5e7eb" stroke-width="1"/>
  <text x="82.0" y="383.0" text-anchor="end" dominant-baseline="middle" fill="#374151" font-size="10">1.8M</text>
  <line x1="90.0" y1="359.0" x2="760.0" y2="359.0" stroke="#e5e7eb" stroke-width="1"/>
  <text x="82.0" y="359.0" text-anchor="end" dominant-baseline="middle" fill="#374151" font-size="10">2M</text>
  <line x1="90.0" y1="539.0" x2="760.0" y2="539.0" stroke="#e5e7eb" stroke-width="1" stroke-dasharray="3,6"/>
  <text x="768.0" y="539.0" text-anchor="start" dominant-baseline="middle" fill="#6b7280" font-size="10">2 GB/s</text>
  <line x1="90.0" y1="479.0" x2="760.0" y2="479.0" stroke="#e5e7eb" stroke-width="1" stroke-dasharray="3,6"/>
  <text x="768.0" y="479.0" text-anchor="start" dominant-baseline="middle" fill="#6b7280" font-size="10">4 GB/s</text>
  <line x1="90.0" y1="419.0" x2="760.0" y2="419.0" stroke="#e5e7eb" stroke-width="1" stroke-dasharray="3,6"/>
  <text x="768.0" y="419.0" text-anchor="start" dominant-baseline="middle" fill="#6b7280" font-size="10">6 GB/s</text>
  <line x1="90.0" y1="359.0" x2="760.0" y2="359.0" stroke="#e5e7eb" stroke-width="1" stroke-dasharray="3,6"/>
  <text x="768.0" y="359.0" text-anchor="start" dominant-baseline="middle" fill="#6b7280" font-size="10">8 GB/s</text>
  <line x1="90.0" y1="359.0" x2="90.0" y2="599.0" stroke="#e5e7eb" stroke-width="1"/>
  <line x1="145.8" y1="359.0" x2="145.8" y2="599.0" stroke="#e5e7eb" stroke-width="1"/>
  <line x1="201.7" y1="359.0" x2="201.7" y2="599.0" stroke="#e5e7eb" stroke-width="1"/>
  <line x1="257.5" y1="359.0" x2="257.5" y2="599.0" stroke="#e5e7eb" stroke-width="1"/>
  <line x1="313.3" y1="359.0" x2="313.3" y2="599.0" stroke="#e5e7eb" stroke-width="1"/>
  <line x1="369.2" y1="359.0" x2="369.2" y2="599.0" stroke="#e5e7eb" stroke-width="1"/>
  <line x1="425.0" y1="359.0" x2="425.0" y2="599.0" stroke="#e5e7eb" stroke-width="1"/>
  <line x1="480.8" y1="359.0" x2="480.8" y2="599.0" stroke="#e5e7eb" stroke-width="1"/>
  <line x1="536.7" y1="359.0" x2="536.7" y2="599.0" stroke="#e5e7eb" stroke-width="1"/>
  <line x1="592.5" y1="359.0" x2="592.5" y2="599.0" stroke="#e5e7eb" stroke-width="1"/>
  <line x1="648.3" y1="359.0" x2="648.3" y2="599.0" stroke="#e5e7eb" stroke-width="1"/>
  <line x1="704.2" y1="359.0" x2="704.2" y2="599.0" stroke="#e5e7eb" stroke-width="1"/>
  <line x1="760.0" y1="359.0" x2="760.0" y2="599.0" stroke="#e5e7eb" stroke-width="1"/>
  <line x1="90.0" y1="359.0" x2="90.0" y2="599.0" stroke="#9ca3af" stroke-width="1.5"/>
  <line x1="760.0" y1="359.0" x2="760.0" y2="599.0" stroke="#9ca3af" stroke-width="1.5"/>
  <line x1="90.0" y1="599.0" x2="760.0" y2="599.0" stroke="#9ca3af" stroke-width="1.5"/>
  <text x="40.0" y="479.0" text-anchor="middle" fill="#374151" font-size="10" font-weight="600" transform="rotate(-90,40.0,479.0)">msg/s</text>
  <polyline points="90.0,586.6 145.8,587.2 201.7,585.5 257.5,586.2 313.3,587.2 369.2,586.8 425.0,588.6 480.8,586.5 536.7,590.0 592.5,591.6 648.3,594.1 704.2,595.3 760.0,596.9" fill="none" stroke="#10b981" stroke-width="2" stroke-dasharray="6,4"/>
  <polyline points="90.0,594.7 145.8,594.8 201.7,595.1 257.5,595.5 313.3,595.8 369.2,596.0 425.0,596.1 480.8,596.3 536.7,596.3 592.5,596.5 648.3,596.8 704.2,597.2 760.0,597.6" fill="none" stroke="#2563eb" stroke-width="2" stroke-dasharray="6,4"/>
  <polyline points="90.0,444.9 145.8,447.2 201.7,469.1 257.5,502.0 313.3,532.2 369.2,557.5 425.0,574.7 480.8,585.5 536.7,592.2 592.5,595.3 648.3,597.2 704.2,598.0 760.0,598.1" fill="none" stroke="#eab308" stroke-width="2" stroke-dasharray="6,4"/>
  <polyline points="90.0,450.0 145.8,458.3 201.7,469.1 257.5,479.5 313.3,493.3 369.2,500.3 425.0,518.8 480.8,538.7 536.7,560.8 592.5,576.9 648.3,587.7 704.2,593.1 760.0,596.2" fill="none" stroke="#f97316" stroke-width="2" stroke-dasharray="6,4"/>
  <polyline points="90.0,492.7 145.8,492.0 201.7,498.2 257.5,506.1 313.3,511.2 369.2,523.1 425.0,535.5 480.8,551.7 536.7,569.1 592.5,586.4 648.3,592.8 704.2,596.0 760.0,597.5" fill="none" stroke="#dc2626" stroke-width="2" stroke-dasharray="6,4"/>
  <polyline points="90.0,598.8 145.8,598.6 201.7,598.1 257.5,597.4 313.3,596.0 369.2,592.8 425.0,588.4 480.8,573.3 536.7,562.0 592.5,538.0 648.3,517.9 704.2,478.4 760.0,458.3" fill="none" stroke="#10b981" stroke-width="2.5" stroke-linecap="round" stroke-linejoin="round"/>
  <circle cx="90.0" cy="598.8" r="3" fill="#10b981" stroke="white" stroke-width="1"/>
  <circle cx="145.8" cy="598.6" r="3" fill="#10b981" stroke="white" stroke-width="1"/>
  <circle cx="201.7" cy="598.1" r="3" fill="#10b981" stroke="white" stroke-width="1"/>
  <circle cx="257.5" cy="597.4" r="3" fill="#10b981" stroke="white" stroke-width="1"/>
  <circle cx="313.3" cy="596.0" r="3" fill="#10b981" stroke="white" stroke-width="1"/>
  <circle cx="369.2" cy="592.8" r="3" fill="#10b981" stroke="white" stroke-width="1"/>
  <circle cx="425.0" cy="588.4" r="3" fill="#10b981" stroke="white" stroke-width="1"/>
  <circle cx="480.8" cy="573.3" r="3" fill="#10b981" stroke="white" stroke-width="1"/>
  <circle cx="536.7" cy="562.0" r="3" fill="#10b981" stroke="white" stroke-width="1"/>
  <circle cx="592.5" cy="538.0" r="3" fill="#10b981" stroke="white" stroke-width="1"/>
  <circle cx="648.3" cy="517.9" r="3" fill="#10b981" stroke="white" stroke-width="1"/>
  <circle cx="704.2" cy="478.4" r="3" fill="#10b981" stroke="white" stroke-width="1"/>
  <circle cx="760.0" cy="458.3" r="3" fill="#10b981" stroke="white" stroke-width="1"/>
  <polyline points="90.0,598.9 145.8,598.9 201.7,598.7 257.5,598.6 313.3,598.2 369.2,597.4 425.0,596.1 480.8,593.5 536.7,588.0 592.5,578.4 648.3,562.5 704.2,538.8 760.0,505.6" fill="none" stroke="#2563eb" stroke-width="2.5" stroke-linecap="round" stroke-linejoin="round"/>
  <circle cx="90.0" cy="598.9" r="3" fill="#2563eb" stroke="white" stroke-width="1"/>
  <circle cx="145.8" cy="598.9" r="3" fill="#2563eb" stroke="white" stroke-width="1"/>
  <circle cx="201.7" cy="598.7" r="3" fill="#2563eb" stroke="white" stroke-width="1"/>
  <circle cx="257.5" cy="598.6" r="3" fill="#2563eb" stroke="white" stroke-width="1"/>
  <circle cx="313.3" cy="598.2" r="3" fill="#2563eb" stroke="white" stroke-width="1"/>
  <circle cx="369.2" cy="597.4" r="3" fill="#2563eb" stroke="white" stroke-width="1"/>
  <circle cx="425.0" cy="596.1" r="3" fill="#2563eb" stroke="white" stroke-width="1"/>
  <circle cx="480.8" cy="593.5" r="3" fill="#2563eb" stroke="white" stroke-width="1"/>
  <circle cx="536.7" cy="588.0" r="3" fill="#2563eb" stroke="white" stroke-width="1"/>
  <circle cx="592.5" cy="578.4" r="3" fill="#2563eb" stroke="white" stroke-width="1"/>
  <circle cx="648.3" cy="562.5" r="3" fill="#2563eb" stroke="white" stroke-width="1"/>
  <circle cx="704.2" cy="538.8" r="3" fill="#2563eb" stroke="white" stroke-width="1"/>
  <circle cx="760.0" cy="505.6" r="3" fill="#2563eb" stroke="white" stroke-width="1"/>
  <polyline points="90.0,596.5 145.8,594.1 201.7,590.7 257.5,586.6 313.3,581.9 369.2,577.7 425.0,574.1 480.8,571.4 536.7,571.0 592.5,569.0 648.3,568.9 704.2,565.3 760.0,541.3" fill="none" stroke="#eab308" stroke-width="2.5" stroke-linecap="round" stroke-linejoin="round"/>
  <circle cx="90.0" cy="596.5" r="3" fill="#eab308" stroke="white" stroke-width="1"/>
  <circle cx="145.8" cy="594.1" r="3" fill="#eab308" stroke="white" stroke-width="1"/>
  <circle cx="201.7" cy="590.7" r="3" fill="#eab308" stroke="white" stroke-width="1"/>
  <circle cx="257.5" cy="586.6" r="3" fill="#eab308" stroke="white" stroke-width="1"/>
  <circle cx="313.3" cy="581.9" r="3" fill="#eab308" stroke="white" stroke-width="1"/>
  <circle cx="369.2" cy="577.7" r="3" fill="#eab308" stroke="white" stroke-width="1"/>
  <circle cx="425.0" cy="574.1" r="3" fill="#eab308" stroke="white" stroke-width="1"/>
  <circle cx="480.8" cy="571.4" r="3" fill="#eab308" stroke="white" stroke-width="1"/>
  <circle cx="536.7" cy="571.0" r="3" fill="#eab308" stroke="white" stroke-width="1"/>
  <circle cx="592.5" cy="569.0" r="3" fill="#eab308" stroke="white" stroke-width="1"/>
  <circle cx="648.3" cy="568.9" r="3" fill="#eab308" stroke="white" stroke-width="1"/>
  <circle cx="704.2" cy="565.3" r="3" fill="#eab308" stroke="white" stroke-width="1"/>
  <circle cx="760.0" cy="541.3" r="3" fill="#eab308" stroke="white" stroke-width="1"/>
  <polyline points="90.0,596.6 145.8,594.5 201.7,590.7 257.5,583.7 313.3,571.9 369.2,548.5 425.0,516.9 480.8,475.5 536.7,442.6 592.5,418.1 648.3,414.4 704.2,405.5 760.0,413.9" fill="none" stroke="#f97316" stroke-width="2.5" stroke-linecap="round" stroke-linejoin="round"/>
  <circle cx="90.0" cy="596.6" r="3" fill="#f97316" stroke="white" stroke-width="1"/>
  <circle cx="145.8" cy="594.5" r="3" fill="#f97316" stroke="white" stroke-width="1"/>
  <circle cx="201.7" cy="590.7" r="3" fill="#f97316" stroke="white" stroke-width="1"/>
  <circle cx="257.5" cy="583.7" r="3" fill="#f97316" stroke="white" stroke-width="1"/>
  <circle cx="313.3" cy="571.9" r="3" fill="#f97316" stroke="white" stroke-width="1"/>
  <circle cx="369.2" cy="548.5" r="3" fill="#f97316" stroke="white" stroke-width="1"/>
  <circle cx="425.0" cy="516.9" r="3" fill="#f97316" stroke="white" stroke-width="1"/>
  <circle cx="480.8" cy="475.5" r="3" fill="#f97316" stroke="white" stroke-width="1"/>
  <circle cx="536.7" cy="442.6" r="3" fill="#f97316" stroke="white" stroke-width="1"/>
  <circle cx="592.5" cy="418.1" r="3" fill="#f97316" stroke="white" stroke-width="1"/>
  <circle cx="648.3" cy="414.4" r="3" fill="#f97316" stroke="white" stroke-width="1"/>
  <circle cx="704.2" cy="405.5" r="3" fill="#f97316" stroke="white" stroke-width="1"/>
  <circle cx="760.0" cy="413.9" r="3" fill="#f97316" stroke="white" stroke-width="1"/>
  <polyline points="90.0,597.3 145.8,595.6 201.7,592.5 257.5,587.1 313.3,576.5 369.2,560.1 425.0,534.0 480.8,502.0 536.7,476.3 592.5,495.7 648.3,496.6 704.2,499.2 760.0,498.1" fill="none" stroke="#dc2626" stroke-width="2.5" stroke-linecap="round" stroke-linejoin="round"/>
  <circle cx="90.0" cy="597.3" r="3" fill="#dc2626" stroke="white" stroke-width="1"/>
  <circle cx="145.8" cy="595.6" r="3" fill="#dc2626" stroke="white" stroke-width="1"/>
  <circle cx="201.7" cy="592.5" r="3" fill="#dc2626" stroke="white" stroke-width="1"/>
  <circle cx="257.5" cy="587.1" r="3" fill="#dc2626" stroke="white" stroke-width="1"/>
  <circle cx="313.3" cy="576.5" r="3" fill="#dc2626" stroke="white" stroke-width="1"/>
  <circle cx="369.2" cy="560.1" r="3" fill="#dc2626" stroke="white" stroke-width="1"/>
  <circle cx="425.0" cy="534.0" r="3" fill="#dc2626" stroke="white" stroke-width="1"/>
  <circle cx="480.8" cy="502.0" r="3" fill="#dc2626" stroke="white" stroke-width="1"/>
  <circle cx="536.7" cy="476.3" r="3" fill="#dc2626" stroke="white" stroke-width="1"/>
  <circle cx="592.5" cy="495.7" r="3" fill="#dc2626" stroke="white" stroke-width="1"/>
  <circle cx="648.3" cy="496.6" r="3" fill="#dc2626" stroke="white" stroke-width="1"/>
  <circle cx="704.2" cy="499.2" r="3" fill="#dc2626" stroke="white" stroke-width="1"/>
  <circle cx="760.0" cy="498.1" r="3" fill="#dc2626" stroke="white" stroke-width="1"/>
  <text x="90.0" y="613.0" text-anchor="middle" fill="#374151" font-size="8.5">8 B</text>
  <text x="145.8" y="613.0" text-anchor="middle" fill="#374151" font-size="8.5">16 B</text>
  <text x="201.7" y="613.0" text-anchor="middle" fill="#374151" font-size="8.5">32 B</text>
  <text x="257.5" y="613.0" text-anchor="middle" fill="#374151" font-size="8.5">64 B</text>
  <text x="313.3" y="613.0" text-anchor="middle" fill="#374151" font-size="8.5">128 B</text>
  <text x="369.2" y="613.0" text-anchor="middle" fill="#374151" font-size="8.5">256 B</text>
  <text x="425.0" y="613.0" text-anchor="middle" fill="#374151" font-size="8.5">512 B</text>
  <text x="480.8" y="613.0" text-anchor="middle" fill="#374151" font-size="8.5">1 KiB</text>
  <text x="536.7" y="613.0" text-anchor="middle" fill="#374151" font-size="8.5">2 KiB</text>
  <text x="592.5" y="613.0" text-anchor="middle" fill="#374151" font-size="8.5">4 KiB</text>
  <text x="648.3" y="613.0" text-anchor="middle" fill="#374151" font-size="8.5">8 KiB</text>
  <text x="704.2" y="613.0" text-anchor="middle" fill="#374151" font-size="8.5">16 KiB</text>
  <text x="760.0" y="613.0" text-anchor="middle" fill="#374151" font-size="8.5">32 KiB</text>
  <text x="425.0" y="652.0" text-anchor="middle" fill="#111827" font-size="13" font-weight="700">PUB/SUB throughput, 64 subscribers: TCP loopback</text>
  <line x1="90.0" y1="869.0" x2="760.0" y2="869.0" stroke="#e5e7eb" stroke-width="1"/>
  <text x="82.0" y="869.0" text-anchor="end" dominant-baseline="middle" fill="#374151" font-size="10">50k</text>
  <line x1="90.0" y1="829.0" x2="760.0" y2="829.0" stroke="#e5e7eb" stroke-width="1"/>
  <text x="82.0" y="829.0" text-anchor="end" dominant-baseline="middle" fill="#374151" font-size="10">100k</text>
  <line x1="90.0" y1="789.0" x2="760.0" y2="789.0" stroke="#e5e7eb" stroke-width="1"/>
  <text x="82.0" y="789.0" text-anchor="end" dominant-baseline="middle" fill="#374151" font-size="10">150k</text>
  <line x1="90.0" y1="749.0" x2="760.0" y2="749.0" stroke="#e5e7eb" stroke-width="1"/>
  <text x="82.0" y="749.0" text-anchor="end" dominant-baseline="middle" fill="#374151" font-size="10">200k</text>
  <line x1="90.0" y1="709.0" x2="760.0" y2="709.0" stroke="#e5e7eb" stroke-width="1"/>
  <text x="82.0" y="709.0" text-anchor="end" dominant-baseline="middle" fill="#374151" font-size="10">250k</text>
  <line x1="90.0" y1="669.0" x2="760.0" y2="669.0" stroke="#e5e7eb" stroke-width="1"/>
  <text x="82.0" y="669.0" text-anchor="end" dominant-baseline="middle" fill="#374151" font-size="10">300k</text>
  <line x1="90.0" y1="869.0" x2="760.0" y2="869.0" stroke="#e5e7eb" stroke-width="1" stroke-dasharray="3,6"/>
  <text x="768.0" y="869.0" text-anchor="start" dominant-baseline="middle" fill="#6b7280" font-size="10">2 GB/s</text>
  <line x1="90.0" y1="829.0" x2="760.0" y2="829.0" stroke="#e5e7eb" stroke-width="1" stroke-dasharray="3,6"/>
  <text x="768.0" y="829.0" text-anchor="start" dominant-baseline="middle" fill="#6b7280" font-size="10">4 GB/s</text>
  <line x1="90.0" y1="789.0" x2="760.0" y2="789.0" stroke="#e5e7eb" stroke-width="1" stroke-dasharray="3,6"/>
  <text x="768.0" y="789.0" text-anchor="start" dominant-baseline="middle" fill="#6b7280" font-size="10">6 GB/s</text>
  <line x1="90.0" y1="749.0" x2="760.0" y2="749.0" stroke="#e5e7eb" stroke-width="1" stroke-dasharray="3,6"/>
  <text x="768.0" y="749.0" text-anchor="start" dominant-baseline="middle" fill="#6b7280" font-size="10">8 GB/s</text>
  <line x1="90.0" y1="709.0" x2="760.0" y2="709.0" stroke="#e5e7eb" stroke-width="1" stroke-dasharray="3,6"/>
  <text x="768.0" y="709.0" text-anchor="start" dominant-baseline="middle" fill="#6b7280" font-size="10">10 GB/s</text>
  <line x1="90.0" y1="669.0" x2="760.0" y2="669.0" stroke="#e5e7eb" stroke-width="1" stroke-dasharray="3,6"/>
  <text x="768.0" y="669.0" text-anchor="start" dominant-baseline="middle" fill="#6b7280" font-size="10">12 GB/s</text>
  <line x1="90.0" y1="669.0" x2="90.0" y2="909.0" stroke="#e5e7eb" stroke-width="1"/>
  <line x1="145.8" y1="669.0" x2="145.8" y2="909.0" stroke="#e5e7eb" stroke-width="1"/>
  <line x1="201.7" y1="669.0" x2="201.7" y2="909.0" stroke="#e5e7eb" stroke-width="1"/>
  <line x1="257.5" y1="669.0" x2="257.5" y2="909.0" stroke="#e5e7eb" stroke-width="1"/>
  <line x1="313.3" y1="669.0" x2="313.3" y2="909.0" stroke="#e5e7eb" stroke-width="1"/>
  <line x1="369.2" y1="669.0" x2="369.2" y2="909.0" stroke="#e5e7eb" stroke-width="1"/>
  <line x1="425.0" y1="669.0" x2="425.0" y2="909.0" stroke="#e5e7eb" stroke-width="1"/>
  <line x1="480.8" y1="669.0" x2="480.8" y2="909.0" stroke="#e5e7eb" stroke-width="1"/>
  <line x1="536.7" y1="669.0" x2="536.7" y2="909.0" stroke="#e5e7eb" stroke-width="1"/>
  <line x1="592.5" y1="669.0" x2="592.5" y2="909.0" stroke="#e5e7eb" stroke-width="1"/>
  <line x1="648.3" y1="669.0" x2="648.3" y2="909.0" stroke="#e5e7eb" stroke-width="1"/>
  <line x1="704.2" y1="669.0" x2="704.2" y2="909.0" stroke="#e5e7eb" stroke-width="1"/>
  <line x1="760.0" y1="669.0" x2="760.0" y2="909.0" stroke="#e5e7eb" stroke-width="1"/>
  <line x1="90.0" y1="669.0" x2="90.0" y2="909.0" stroke="#9ca3af" stroke-width="1.5"/>
  <line x1="760.0" y1="669.0" x2="760.0" y2="909.0" stroke="#9ca3af" stroke-width="1.5"/>
  <line x1="90.0" y1="909.0" x2="760.0" y2="909.0" stroke="#9ca3af" stroke-width="1.5"/>
  <text x="40.0" y="789.0" text-anchor="middle" fill="#374151" font-size="10" font-weight="600" transform="rotate(-90,40.0,789.0)">msg/s</text>
  <polyline points="90.0,884.2 145.8,868.2 201.7,881.0 257.5,879.3 313.3,880.4 369.2,882.2 425.0,868.5 480.8,877.5 536.7,882.8 592.5,889.7 648.3,898.5 704.2,902.9 760.0,906.2" fill="none" stroke="#10b981" stroke-width="2" stroke-dasharray="6,4"/>
  <polyline points="90.0,905.0 145.8,905.1 201.7,904.2 257.5,905.0 313.3,904.8 369.2,904.2 425.0,904.7 480.8,906.4 536.7,905.1 592.5,906.2 648.3,906.8 704.2,906.7 760.0,907.7" fill="none" stroke="#2563eb" stroke-width="2" stroke-dasharray="6,4"/>
  <polyline points="90.0,743.0 145.8,749.8 201.7,768.6 257.5,807.9 313.3,845.5 369.2,869.7 425.0,883.5 480.8,894.1 536.7,901.0 592.5,904.9 648.3,906.7 704.2,907.6 760.0,908.0" fill="none" stroke="#eab308" stroke-width="2" stroke-dasharray="6,4"/>
  <polyline points="90.0,785.1 145.8,772.9 201.7,767.4 257.5,774.6 313.3,784.8 369.2,813.6 425.0,816.6 480.8,847.2 536.7,874.1 592.5,882.7 648.3,893.0 704.2,901.8 760.0,904.1" fill="none" stroke="#f97316" stroke-width="2" stroke-dasharray="6,4"/>
  <polyline points="90.0,729.7 145.8,733.8 201.7,736.8 257.5,778.2 313.3,788.4 369.2,802.7 425.0,823.3 480.8,842.4 536.7,870.1 592.5,893.4 648.3,900.9 704.2,904.3 760.0,907.0" fill="none" stroke="#dc2626" stroke-width="2" stroke-dasharray="6,4"/>
  <polyline points="90.0,908.7 145.8,908.0 201.7,907.6 257.5,906.0 313.3,903.2 369.2,898.0 425.0,875.8 480.8,857.3 536.7,823.1 592.5,782.4 648.3,771.9 704.2,748.4 760.0,764.2" fill="none" stroke="#10b981" stroke-width="2.5" stroke-linecap="round" stroke-linejoin="round"/>
  <circle cx="90.0" cy="908.7" r="3" fill="#10b981" stroke="white" stroke-width="1"/>
  <circle cx="145.8" cy="908.0" r="3" fill="#10b981" stroke="white" stroke-width="1"/>
  <circle cx="201.7" cy="907.6" r="3" fill="#10b981" stroke="white" stroke-width="1"/>
  <circle cx="257.5" cy="906.0" r="3" fill="#10b981" stroke="white" stroke-width="1"/>
  <circle cx="313.3" cy="903.2" r="3" fill="#10b981" stroke="white" stroke-width="1"/>
  <circle cx="369.2" cy="898.0" r="3" fill="#10b981" stroke="white" stroke-width="1"/>
  <circle cx="425.0" cy="875.8" r="3" fill="#10b981" stroke="white" stroke-width="1"/>
  <circle cx="480.8" cy="857.3" r="3" fill="#10b981" stroke="white" stroke-width="1"/>
  <circle cx="536.7" cy="823.1" r="3" fill="#10b981" stroke="white" stroke-width="1"/>
  <circle cx="592.5" cy="782.4" r="3" fill="#10b981" stroke="white" stroke-width="1"/>
  <circle cx="648.3" cy="771.9" r="3" fill="#10b981" stroke="white" stroke-width="1"/>
  <circle cx="704.2" cy="748.4" r="3" fill="#10b981" stroke="white" stroke-width="1"/>
  <circle cx="760.0" cy="764.2" r="3" fill="#10b981" stroke="white" stroke-width="1"/>
  <polyline points="90.0,908.9 145.8,908.9 201.7,908.8 257.5,908.6 313.3,908.1 369.2,907.0 425.0,905.5 480.8,904.7 536.7,896.3 592.5,890.4 648.3,879.8 704.2,848.4 760.0,839.2" fill="none" stroke="#2563eb" stroke-width="2.5" stroke-linecap="round" stroke-linejoin="round"/>
  <circle cx="90.0" cy="908.9" r="3" fill="#2563eb" stroke="white" stroke-width="1"/>
  <circle cx="145.8" cy="908.9" r="3" fill="#2563eb" stroke="white" stroke-width="1"/>
  <circle cx="201.7" cy="908.8" r="3" fill="#2563eb" stroke="white" stroke-width="1"/>
  <circle cx="257.5" cy="908.6" r="3" fill="#2563eb" stroke="white" stroke-width="1"/>
  <circle cx="313.3" cy="908.1" r="3" fill="#2563eb" stroke="white" stroke-width="1"/>
  <circle cx="369.2" cy="907.0" r="3" fill="#2563eb" stroke="white" stroke-width="1"/>
  <circle cx="425.0" cy="905.5" r="3" fill="#2563eb" stroke="white" stroke-width="1"/>
  <circle cx="480.8" cy="904.7" r="3" fill="#2563eb" stroke="white" stroke-width="1"/>
  <circle cx="536.7" cy="896.3" r="3" fill="#2563eb" stroke="white" stroke-width="1"/>
  <circle cx="592.5" cy="890.4" r="3" fill="#2563eb" stroke="white" stroke-width="1"/>
  <circle cx="648.3" cy="879.8" r="3" fill="#2563eb" stroke="white" stroke-width="1"/>
  <circle cx="704.2" cy="848.4" r="3" fill="#2563eb" stroke="white" stroke-width="1"/>
  <circle cx="760.0" cy="839.2" r="3" fill="#2563eb" stroke="white" stroke-width="1"/>
  <polyline points="90.0,906.9 145.8,904.9 201.7,901.8 257.5,898.6 313.3,896.0 369.2,892.9 425.0,888.1 480.8,884.6 536.7,882.9 592.5,881.9 648.3,878.7 704.2,873.2 760.0,855.4" fill="none" stroke="#eab308" stroke-width="2.5" stroke-linecap="round" stroke-linejoin="round"/>
  <circle cx="90.0" cy="906.9" r="3" fill="#eab308" stroke="white" stroke-width="1"/>
  <circle cx="145.8" cy="904.9" r="3" fill="#eab308" stroke="white" stroke-width="1"/>
  <circle cx="201.7" cy="901.8" r="3" fill="#eab308" stroke="white" stroke-width="1"/>
  <circle cx="257.5" cy="898.6" r="3" fill="#eab308" stroke="white" stroke-width="1"/>
  <circle cx="313.3" cy="896.0" r="3" fill="#eab308" stroke="white" stroke-width="1"/>
  <circle cx="369.2" cy="892.9" r="3" fill="#eab308" stroke="white" stroke-width="1"/>
  <circle cx="425.0" cy="888.1" r="3" fill="#eab308" stroke="white" stroke-width="1"/>
  <circle cx="480.8" cy="884.6" r="3" fill="#eab308" stroke="white" stroke-width="1"/>
  <circle cx="536.7" cy="882.9" r="3" fill="#eab308" stroke="white" stroke-width="1"/>
  <circle cx="592.5" cy="881.9" r="3" fill="#eab308" stroke="white" stroke-width="1"/>
  <circle cx="648.3" cy="878.7" r="3" fill="#eab308" stroke="white" stroke-width="1"/>
  <circle cx="704.2" cy="873.2" r="3" fill="#eab308" stroke="white" stroke-width="1"/>
  <circle cx="760.0" cy="855.4" r="3" fill="#eab308" stroke="white" stroke-width="1"/>
  <polyline points="90.0,907.4 145.8,905.5 201.7,901.8 257.5,895.2 313.3,883.6 369.2,869.9 425.0,833.3 480.8,807.8 536.7,794.7 592.5,736.9 648.3,699.7 704.2,720.7 760.0,651.0" fill="none" stroke="#f97316" stroke-width="2.5" stroke-linecap="round" stroke-linejoin="round"/>
  <circle cx="90.0" cy="907.4" r="3" fill="#f97316" stroke="white" stroke-width="1"/>
  <circle cx="145.8" cy="905.5" r="3" fill="#f97316" stroke="white" stroke-width="1"/>
  <circle cx="201.7" cy="901.8" r="3" fill="#f97316" stroke="white" stroke-width="1"/>
  <circle cx="257.5" cy="895.2" r="3" fill="#f97316" stroke="white" stroke-width="1"/>
  <circle cx="313.3" cy="883.6" r="3" fill="#f97316" stroke="white" stroke-width="1"/>
  <circle cx="369.2" cy="869.9" r="3" fill="#f97316" stroke="white" stroke-width="1"/>
  <circle cx="425.0" cy="833.3" r="3" fill="#f97316" stroke="white" stroke-width="1"/>
  <circle cx="480.8" cy="807.8" r="3" fill="#f97316" stroke="white" stroke-width="1"/>
  <circle cx="536.7" cy="794.7" r="3" fill="#f97316" stroke="white" stroke-width="1"/>
  <circle cx="592.5" cy="736.9" r="3" fill="#f97316" stroke="white" stroke-width="1"/>
  <circle cx="648.3" cy="699.7" r="3" fill="#f97316" stroke="white" stroke-width="1"/>
  <circle cx="704.2" cy="720.7" r="3" fill="#f97316" stroke="white" stroke-width="1"/>
  <circle cx="760.0" cy="651.0" r="3" fill="#f97316" stroke="white" stroke-width="1"/>
  <polyline points="90.0,906.7 145.8,904.5 201.7,900.2 257.5,895.6 313.3,884.3 369.2,865.5 425.0,838.8 480.8,799.9 536.7,781.6 592.5,806.7 648.3,802.7 704.2,785.8 760.0,802.6" fill="none" stroke="#dc2626" stroke-width="2.5" stroke-linecap="round" stroke-linejoin="round"/>
  <circle cx="90.0" cy="906.7" r="3" fill="#dc2626" stroke="white" stroke-width="1"/>
  <circle cx="145.8" cy="904.5" r="3" fill="#dc2626" stroke="white" stroke-width="1"/>
  <circle cx="201.7" cy="900.2" r="3" fill="#dc2626" stroke="white" stroke-width="1"/>
  <circle cx="257.5" cy="895.6" r="3" fill="#dc2626" stroke="white" stroke-width="1"/>
  <circle cx="313.3" cy="884.3" r="3" fill="#dc2626" stroke="white" stroke-width="1"/>
  <circle cx="369.2" cy="865.5" r="3" fill="#dc2626" stroke="white" stroke-width="1"/>
  <circle cx="425.0" cy="838.8" r="3" fill="#dc2626" stroke="white" stroke-width="1"/>
  <circle cx="480.8" cy="799.9" r="3" fill="#dc2626" stroke="white" stroke-width="1"/>
  <circle cx="536.7" cy="781.6" r="3" fill="#dc2626" stroke="white" stroke-width="1"/>
  <circle cx="592.5" cy="806.7" r="3" fill="#dc2626" stroke="white" stroke-width="1"/>
  <circle cx="648.3" cy="802.7" r="3" fill="#dc2626" stroke="white" stroke-width="1"/>
  <circle cx="704.2" cy="785.8" r="3" fill="#dc2626" stroke="white" stroke-width="1"/>
  <circle cx="760.0" cy="802.6" r="3" fill="#dc2626" stroke="white" stroke-width="1"/>
  <text x="90.0" y="923.0" text-anchor="middle" fill="#374151" font-size="8.5">8 B</text>
  <text x="145.8" y="923.0" text-anchor="middle" fill="#374151" font-size="8.5">16 B</text>
  <text x="201.7" y="923.0" text-anchor="middle" fill="#374151" font-size="8.5">32 B</text>
  <text x="257.5" y="923.0" text-anchor="middle" fill="#374151" font-size="8.5">64 B</text>
  <text x="313.3" y="923.0" text-anchor="middle" fill="#374151" font-size="8.5">128 B</text>
  <text x="369.2" y="923.0" text-anchor="middle" fill="#374151" font-size="8.5">256 B</text>
  <text x="425.0" y="923.0" text-anchor="middle" fill="#374151" font-size="8.5">512 B</text>
  <text x="480.8" y="923.0" text-anchor="middle" fill="#374151" font-size="8.5">1 KiB</text>
  <text x="536.7" y="923.0" text-anchor="middle" fill="#374151" font-size="8.5">2 KiB</text>
  <text x="592.5" y="923.0" text-anchor="middle" fill="#374151" font-size="8.5">4 KiB</text>
  <text x="648.3" y="923.0" text-anchor="middle" fill="#374151" font-size="8.5">8 KiB</text>
  <text x="704.2" y="923.0" text-anchor="middle" fill="#374151" font-size="8.5">16 KiB</text>
  <text x="760.0" y="923.0" text-anchor="middle" fill="#374151" font-size="8.5">32 KiB</text>
  <line x1="112" y1="949" x2="126" y2="949" stroke="#eab308" stroke-width="2.5"/>
  <circle cx="120" cy="949" r="2.5" fill="#eab308"/>
  <text x="132" y="953" fill="#374151" font-size="11" font-weight="500">libzmq v4.3.5</text>
  <line x1="238" y1="949" x2="252" y2="949" stroke="#dc2626" stroke-width="2.5"/>
  <circle cx="244" cy="949" r="2.5" fill="#dc2626"/>
  <text x="258" y="953" fill="#374151" font-size="11" font-weight="500">omq-compio</text>
  <line x1="362" y1="949" x2="376" y2="949" stroke="#f97316" stroke-width="2.5"/>
  <circle cx="370" cy="949" r="2.5" fill="#f97316"/>
  <text x="382" y="953" fill="#374151" font-size="11" font-weight="500">omq-tokio</text>
  <line x1="488" y1="949" x2="502" y2="949" stroke="#2563eb" stroke-width="2.5"/>
  <circle cx="494" cy="949" r="2.5" fill="#2563eb"/>
  <text x="508" y="953" fill="#374151" font-size="11" font-weight="500">zmq.rs v0.6.0</text>
  <line x1="612" y1="949" x2="626" y2="949" stroke="#10b981" stroke-width="2.5"/>
  <circle cx="620" cy="949" r="2.5" fill="#10b981"/>
  <text x="632" y="953" fill="#374151" font-size="11" font-weight="500">rzmq v0.5.18</text>
  <line x1="265" y1="971" x2="285" y2="971" stroke="#6b7280" stroke-width="2" stroke-dasharray="6,4"/>
  <text x="291" y="975" fill="#6b7280" font-size="10">msg/s (left axis)</text>
  <line x1="435" y1="971" x2="455" y2="971" stroke="#6b7280" stroke-width="2"/>
  <circle cx="445" cy="971" r="2" fill="#6b7280"/>
  <text x="461" y="975" fill="#6b7280" font-size="10">throughput / GB/s (right axis)</text>
</svg>
