<svg xmlns="http://www.w3.org/2000/svg" viewBox="0 0 850 999" font-family="system-ui, -apple-system, sans-serif">
  <rect width="850" height="999" fill="white"/>
  <text x="425.0" y="46" text-anchor="middle" fill="#9ca3af" font-size="10">Linux VM on a 2018 Mac Mini, Intel Core i7-8700B @ 3.20GHz, 6 cores, performance governor, turbo off</text>
  <text x="425.0" y="32.0" text-anchor="middle" fill="#111827" font-size="13" font-weight="700">PUB/SUB throughput, 1 subscriber: IPC</text>
  <line x1="90.0" y1="265.0" x2="760.0" y2="265.0" stroke="#e5e7eb" stroke-width="1"/>
  <text x="82.0" y="265.0" text-anchor="end" dominant-baseline="middle" fill="#374151" font-size="10">1M</text>
  <line x1="90.0" y1="241.0" x2="760.0" y2="241.0" stroke="#e5e7eb" stroke-width="1"/>
  <text x="82.0" y="241.0" text-anchor="end" dominant-baseline="middle" fill="#374151" font-size="10">2M</text>
  <line x1="90.0" y1="217.0" x2="760.0" y2="217.0" stroke="#e5e7eb" stroke-width="1"/>
  <text x="82.0" y="217.0" text-anchor="end" dominant-baseline="middle" fill="#374151" font-size="10">3M</text>
  <line x1="90.0" y1="193.0" x2="760.0" y2="193.0" stroke="#e5e7eb" stroke-width="1"/>
  <text x="82.0" y="193.0" text-anchor="end" dominant-baseline="middle" fill="#374151" font-size="10">4M</text>
  <line x1="90.0" y1="169.0" x2="760.0" y2="169.0" stroke="#e5e7eb" stroke-width="1"/>
  <text x="82.0" y="169.0" text-anchor="end" dominant-baseline="middle" fill="#374151" font-size="10">5M</text>
  <line x1="90.0" y1="145.0" x2="760.0" y2="145.0" stroke="#e5e7eb" stroke-width="1"/>
  <text x="82.0" y="145.0" text-anchor="end" dominant-baseline="middle" fill="#374151" font-size="10">6M</text>
  <line x1="90.0" y1="121.0" x2="760.0" y2="121.0" stroke="#e5e7eb" stroke-width="1"/>
  <text x="82.0" y="121.0" text-anchor="end" dominant-baseline="middle" fill="#374151" font-size="10">7M</text>
  <line x1="90.0" y1="97.0" x2="760.0" y2="97.0" stroke="#e5e7eb" stroke-width="1"/>
  <text x="82.0" y="97.0" text-anchor="end" dominant-baseline="middle" fill="#374151" font-size="10">8M</text>
  <line x1="90.0" y1="73.0" x2="760.0" y2="73.0" stroke="#e5e7eb" stroke-width="1"/>
  <text x="82.0" y="73.0" text-anchor="end" dominant-baseline="middle" fill="#374151" font-size="10">9M</text>
  <line x1="90.0" y1="49.0" x2="760.0" y2="49.0" stroke="#e5e7eb" stroke-width="1"/>
  <text x="82.0" y="49.0" text-anchor="end" dominant-baseline="middle" fill="#374151" font-size="10">10M</text>
  <line x1="90.0" y1="229.0" x2="760.0" y2="229.0" stroke="#e5e7eb" stroke-width="1" stroke-dasharray="3,6"/>
  <text x="768.0" y="229.0" text-anchor="start" dominant-baseline="middle" fill="#6b7280" font-size="10">2 GB/s</text>
  <line x1="90.0" y1="169.0" x2="760.0" y2="169.0" stroke="#e5e7eb" stroke-width="1" stroke-dasharray="3,6"/>
  <text x="768.0" y="169.0" text-anchor="start" dominant-baseline="middle" fill="#6b7280" font-size="10">4 GB/s</text>
  <line x1="90.0" y1="109.0" x2="760.0" y2="109.0" stroke="#e5e7eb" stroke-width="1" stroke-dasharray="3,6"/>
  <text x="768.0" y="109.0" text-anchor="start" dominant-baseline="middle" fill="#6b7280" font-size="10">6 GB/s</text>
  <line x1="90.0" y1="49.0" x2="760.0" y2="49.0" stroke="#e5e7eb" stroke-width="1" stroke-dasharray="3,6"/>
  <text x="768.0" y="49.0" text-anchor="start" dominant-baseline="middle" fill="#6b7280" font-size="10">8 GB/s</text>
  <line x1="90.0" y1="49.0" x2="90.0" y2="289.0" stroke="#e5e7eb" stroke-width="1"/>
  <line x1="145.8" y1="49.0" x2="145.8" y2="289.0" stroke="#e5e7eb" stroke-width="1"/>
  <line x1="201.7" y1="49.0" x2="201.7" y2="289.0" stroke="#e5e7eb" stroke-width="1"/>
  <line x1="257.5" y1="49.0" x2="257.5" y2="289.0" stroke="#e5e7eb" stroke-width="1"/>
  <line x1="313.3" y1="49.0" x2="313.3" y2="289.0" stroke="#e5e7eb" stroke-width="1"/>
  <line x1="369.2" y1="49.0" x2="369.2" y2="289.0" stroke="#e5e7eb" stroke-width="1"/>
  <line x1="425.0" y1="49.0" x2="425.0" y2="289.0" stroke="#e5e7eb" stroke-width="1"/>
  <line x1="480.8" y1="49.0" x2="480.8" y2="289.0" stroke="#e5e7eb" stroke-width="1"/>
  <line x1="536.7" y1="49.0" x2="536.7" y2="289.0" stroke="#e5e7eb" stroke-width="1"/>
  <line x1="592.5" y1="49.0" x2="592.5" y2="289.0" stroke="#e5e7eb" stroke-width="1"/>
  <line x1="648.3" y1="49.0" x2="648.3" y2="289.0" stroke="#e5e7eb" stroke-width="1"/>
  <line x1="704.2" y1="49.0" x2="704.2" y2="289.0" stroke="#e5e7eb" stroke-width="1"/>
  <line x1="760.0" y1="49.0" x2="760.0" y2="289.0" stroke="#e5e7eb" stroke-width="1"/>
  <line x1="90.0" y1="49.0" x2="90.0" y2="289.0" stroke="#9ca3af" stroke-width="1.5"/>
  <line x1="760.0" y1="49.0" x2="760.0" y2="289.0" stroke="#9ca3af" stroke-width="1.5"/>
  <line x1="90.0" y1="289.0" x2="760.0" y2="289.0" stroke="#9ca3af" stroke-width="1.5"/>
  <text x="40.0" y="169.0" text-anchor="middle" fill="#374151" font-size="10" font-weight="600" transform="rotate(-90,40.0,169.0)">msg/s</text>
  <polyline points="90.0,261.5 145.8,260.6 201.7,262.0 257.5,263.1 313.3,264.6 369.2,263.0 425.0,263.9 480.8,265.6 536.7,271.2 592.5,277.8 648.3,282.5 704.2,284.3 760.0,286.7" fill="none" stroke="#10b981" stroke-width="2" stroke-dasharray="6,4"/>
  <polyline points="90.0,277.6 145.8,277.4 201.7,277.3 257.5,277.3 313.3,277.3 369.2,277.8 425.0,277.8 480.8,278.4 536.7,279.1 592.5,281.1 648.3,282.6 704.2,285.2 760.0,286.5" fill="none" stroke="#2563eb" stroke-width="2" stroke-dasharray="6,4"/>
  <polyline points="90.0,144.1 145.8,143.0 201.7,148.0 257.5,196.6 313.3,242.8 369.2,241.7 425.0,247.8 480.8,263.9 536.7,274.5 592.5,281.0 648.3,284.4 704.2,286.5 760.0,287.1" fill="none" stroke="#eab308" stroke-width="2" stroke-dasharray="6,4"/>
  <polyline points="90.0,206.7 145.8,206.3 201.7,207.2 257.5,209.6 313.3,211.1 369.2,211.0 425.0,211.7 480.8,221.8 536.7,241.6 592.5,260.8 648.3,272.5 704.2,279.5 760.0,284.4" fill="none" stroke="#f97316" stroke-width="2" stroke-dasharray="6,4"/>
  <polyline points="90.0,198.7 145.8,199.4 201.7,201.2 257.5,223.5 313.3,225.8 369.2,232.5 425.0,241.4 480.8,252.5 536.7,263.3 592.5,273.4 648.3,281.5 704.2,284.9 760.0,286.8" fill="none" stroke="#dc2626" stroke-width="2" stroke-dasharray="6,4"/>
  <polyline points="90.0,288.7 145.8,288.4 201.7,287.9 257.5,286.9 313.3,285.1 369.2,280.7 425.0,272.9 480.8,259.1 536.7,243.4 592.5,231.7 648.3,222.8 704.2,191.9 760.0,195.2" fill="none" stroke="#10b981" stroke-width="2.5" stroke-linecap="round" stroke-linejoin="round"/>
  <circle cx="90.0" cy="288.7" r="3" fill="#10b981" stroke="white" stroke-width="1"/>
  <circle cx="145.8" cy="288.4" r="3" fill="#10b981" stroke="white" stroke-width="1"/>
  <circle cx="201.7" cy="287.9" r="3" fill="#10b981" stroke="white" stroke-width="1"/>
  <circle cx="257.5" cy="286.9" r="3" fill="#10b981" stroke="white" stroke-width="1"/>
  <circle cx="313.3" cy="285.1" r="3" fill="#10b981" stroke="white" stroke-width="1"/>
  <circle cx="369.2" cy="280.7" r="3" fill="#10b981" stroke="white" stroke-width="1"/>
  <circle cx="425.0" cy="272.9" r="3" fill="#10b981" stroke="white" stroke-width="1"/>
  <circle cx="480.8" cy="259.1" r="3" fill="#10b981" stroke="white" stroke-width="1"/>
  <circle cx="536.7" cy="243.4" r="3" fill="#10b981" stroke="white" stroke-width="1"/>
  <circle cx="592.5" cy="231.7" r="3" fill="#10b981" stroke="white" stroke-width="1"/>
  <circle cx="648.3" cy="222.8" r="3" fill="#10b981" stroke="white" stroke-width="1"/>
  <circle cx="704.2" cy="191.9" r="3" fill="#10b981" stroke="white" stroke-width="1"/>
  <circle cx="760.0" cy="195.2" r="3" fill="#10b981" stroke="white" stroke-width="1"/>
  <polyline points="90.0,288.9 145.8,288.8 201.7,288.5 257.5,288.1 313.3,287.1 369.2,285.4 425.0,281.8 480.8,275.4 536.7,263.7 592.5,248.3 648.3,223.5 704.2,210.2 760.0,188.4" fill="none" stroke="#2563eb" stroke-width="2.5" stroke-linecap="round" stroke-linejoin="round"/>
  <circle cx="90.0" cy="288.9" r="3" fill="#2563eb" stroke="white" stroke-width="1"/>
  <circle cx="145.8" cy="288.8" r="3" fill="#2563eb" stroke="white" stroke-width="1"/>
  <circle cx="201.7" cy="288.5" r="3" fill="#2563eb" stroke="white" stroke-width="1"/>
  <circle cx="257.5" cy="288.1" r="3" fill="#2563eb" stroke="white" stroke-width="1"/>
  <circle cx="313.3" cy="287.1" r="3" fill="#2563eb" stroke="white" stroke-width="1"/>
  <circle cx="369.2" cy="285.4" r="3" fill="#2563eb" stroke="white" stroke-width="1"/>
  <circle cx="425.0" cy="281.8" r="3" fill="#2563eb" stroke="white" stroke-width="1"/>
  <circle cx="480.8" cy="275.4" r="3" fill="#2563eb" stroke="white" stroke-width="1"/>
  <circle cx="536.7" cy="263.7" r="3" fill="#2563eb" stroke="white" stroke-width="1"/>
  <circle cx="592.5" cy="248.3" r="3" fill="#2563eb" stroke="white" stroke-width="1"/>
  <circle cx="648.3" cy="223.5" r="3" fill="#2563eb" stroke="white" stroke-width="1"/>
  <circle cx="704.2" cy="210.2" r="3" fill="#2563eb" stroke="white" stroke-width="1"/>
  <circle cx="760.0" cy="188.4" r="3" fill="#2563eb" stroke="white" stroke-width="1"/>
  <polyline points="90.0,287.6 145.8,286.1 201.7,283.4 257.5,281.6 313.3,281.6 369.2,273.9 425.0,262.6 480.8,256.9 536.7,251.8 592.5,247.9 648.3,242.0 704.2,236.8 760.0,209.9" fill="none" stroke="#eab308" stroke-width="2.5" stroke-linecap="round" stroke-linejoin="round"/>
  <circle cx="90.0" cy="287.6" r="3" fill="#eab308" stroke="white" stroke-width="1"/>
  <circle cx="145.8" cy="286.1" r="3" fill="#eab308" stroke="white" stroke-width="1"/>
  <circle cx="201.7" cy="283.4" r="3" fill="#eab308" stroke="white" stroke-width="1"/>
  <circle cx="257.5" cy="281.6" r="3" fill="#eab308" stroke="white" stroke-width="1"/>
  <circle cx="313.3" cy="281.6" r="3" fill="#eab308" stroke="white" stroke-width="1"/>
  <circle cx="369.2" cy="273.9" r="3" fill="#eab308" stroke="white" stroke-width="1"/>
  <circle cx="425.0" cy="262.6" r="3" fill="#eab308" stroke="white" stroke-width="1"/>
  <circle cx="480.8" cy="256.9" r="3" fill="#eab308" stroke="white" stroke-width="1"/>
  <circle cx="536.7" cy="251.8" r="3" fill="#eab308" stroke="white" stroke-width="1"/>
  <circle cx="592.5" cy="247.9" r="3" fill="#eab308" stroke="white" stroke-width="1"/>
  <circle cx="648.3" cy="242.0" r="3" fill="#eab308" stroke="white" stroke-width="1"/>
  <circle cx="704.2" cy="236.8" r="3" fill="#eab308" stroke="white" stroke-width="1"/>
  <circle cx="760.0" cy="209.9" r="3" fill="#eab308" stroke="white" stroke-width="1"/>
  <polyline points="90.0,288.2 145.8,287.3 201.7,285.7 257.5,282.7 313.3,276.5 369.2,264.1 425.0,239.5 480.8,202.9 536.7,167.7 592.5,144.6 648.3,119.8 704.2,95.0 760.0,101.0" fill="none" stroke="#f97316" stroke-width="2.5" stroke-linecap="round" stroke-linejoin="round"/>
  <circle cx="90.0" cy="288.2" r="3" fill="#f97316" stroke="white" stroke-width="1"/>
  <circle cx="145.8" cy="287.3" r="3" fill="#f97316" stroke="white" stroke-width="1"/>
  <circle cx="201.7" cy="285.7" r="3" fill="#f97316" stroke="white" stroke-width="1"/>
  <circle cx="257.5" cy="282.7" r="3" fill="#f97316" stroke="white" stroke-width="1"/>
  <circle cx="313.3" cy="276.5" r="3" fill="#f97316" stroke="white" stroke-width="1"/>
  <circle cx="369.2" cy="264.1" r="3" fill="#f97316" stroke="white" stroke-width="1"/>
  <circle cx="425.0" cy="239.5" r="3" fill="#f97316" stroke="white" stroke-width="1"/>
  <circle cx="480.8" cy="202.9" r="3" fill="#f97316" stroke="white" stroke-width="1"/>
  <circle cx="536.7" cy="167.7" r="3" fill="#f97316" stroke="white" stroke-width="1"/>
  <circle cx="592.5" cy="144.6" r="3" fill="#f97316" stroke="white" stroke-width="1"/>
  <circle cx="648.3" cy="119.8" r="3" fill="#f97316" stroke="white" stroke-width="1"/>
  <circle cx="704.2" cy="95.0" r="3" fill="#f97316" stroke="white" stroke-width="1"/>
  <circle cx="760.0" cy="101.0" r="3" fill="#f97316" stroke="white" stroke-width="1"/>
  <polyline points="90.0,288.1 145.8,287.2 201.7,285.5 257.5,283.8 313.3,278.9 369.2,270.9 425.0,258.5 480.8,242.2 536.7,223.1 592.5,209.1 648.3,211.9 704.2,204.6 760.0,199.2" fill="none" stroke="#dc2626" stroke-width="2.5" stroke-linecap="round" stroke-linejoin="round"/>
  <circle cx="90.0" cy="288.1" r="3" fill="#dc2626" stroke="white" stroke-width="1"/>
  <circle cx="145.8" cy="287.2" r="3" fill="#dc2626" stroke="white" stroke-width="1"/>
  <circle cx="201.7" cy="285.5" r="3" fill="#dc2626" stroke="white" stroke-width="1"/>
  <circle cx="257.5" cy="283.8" r="3" fill="#dc2626" stroke="white" stroke-width="1"/>
  <circle cx="313.3" cy="278.9" r="3" fill="#dc2626" stroke="white" stroke-width="1"/>
  <circle cx="369.2" cy="270.9" r="3" fill="#dc2626" stroke="white" stroke-width="1"/>
  <circle cx="425.0" cy="258.5" r="3" fill="#dc2626" stroke="white" stroke-width="1"/>
  <circle cx="480.8" cy="242.2" r="3" fill="#dc2626" stroke="white" stroke-width="1"/>
  <circle cx="536.7" cy="223.1" r="3" fill="#dc2626" stroke="white" stroke-width="1"/>
  <circle cx="592.5" cy="209.1" r="3" fill="#dc2626" stroke="white" stroke-width="1"/>
  <circle cx="648.3" cy="211.9" r="3" fill="#dc2626" stroke="white" stroke-width="1"/>
  <circle cx="704.2" cy="204.6" r="3" fill="#dc2626" stroke="white" stroke-width="1"/>
  <circle cx="760.0" cy="199.2" r="3" fill="#dc2626" stroke="white" stroke-width="1"/>
  <text x="90.0" y="303.0" text-anchor="middle" fill="#374151" font-size="8.5">8 B</text>
  <text x="145.8" y="303.0" text-anchor="middle" fill="#374151" font-size="8.5">16 B</text>
  <text x="201.7" y="303.0" text-anchor="middle" fill="#374151" font-size="8.5">32 B</text>
  <text x="257.5" y="303.0" text-anchor="middle" fill="#374151" font-size="8.5">64 B</text>
  <text x="313.3" y="303.0" text-anchor="middle" fill="#374151" font-size="8.5">128 B</text>
  <text x="369.2" y="303.0" text-anchor="middle" fill="#374151" font-size="8.5">256 B</text>
  <text x="425.0" y="303.0" text-anchor="middle" fill="#374151" font-size="8.5">512 B</text>
  <text x="480.8" y="303.0" text-anchor="middle" fill="#374151" font-size="8.5">1 KiB</text>
  <text x="536.7" y="303.0" text-anchor="middle" fill="#374151" font-size="8.5">2 KiB</text>
  <text x="592.5" y="303.0" text-anchor="middle" fill="#374151" font-size="8.5">4 KiB</text>
  <text x="648.3" y="303.0" text-anchor="middle" fill="#374151" font-size="8.5">8 KiB</text>
  <text x="704.2" y="303.0" text-anchor="middle" fill="#374151" font-size="8.5">16 KiB</text>
  <text x="760.0" y="303.0" text-anchor="middle" fill="#374151" font-size="8.5">32 KiB</text>
  <text x="425.0" y="342.0" text-anchor="middle" fill="#111827" font-size="13" font-weight="700">PUB/SUB throughput, 8 subscribers: IPC</text>
  <line x1="90.0" y1="575.0" x2="760.0" y2="575.0" stroke="#e5e7eb" stroke-width="1"/>
  <text x="82.0" y="575.0" text-anchor="end" dominant-baseline="middle" fill="#374151" font-size="10">200k</text>
  <line x1="90.0" y1="551.0" x2="760.0" y2="551.0" stroke="#e5e7eb" stroke-width="1"/>
  <text x="82.0" y="551.0" text-anchor="end" dominant-baseline="middle" fill="#374151" font-size="10">400k</text>
  <line x1="90.0" y1="527.0" x2="760.0" y2="527.0" stroke="#e5e7eb" stroke-width="1"/>
  <text x="82.0" y="527.0" text-anchor="end" dominant-baseline="middle" fill="#374151" font-size="10">600k</text>
  <line x1="90.0" y1="503.0" x2="760.0" y2="503.0" stroke="#e5e7eb" stroke-width="1"/>
  <text x="82.0" y="503.0" text-anchor="end" dominant-baseline="middle" fill="#374151" font-size="10">800k</text>
  <line x1="90.0" y1="479.0" x2="760.0" y2="479.0" stroke="#e5e7eb" stroke-width="1"/>
  <text x="82.0" y="479.0" text-anchor="end" dominant-baseline="middle" fill="#374151" font-size="10">1M</text>
  <line x1="90.0" y1="455.0" x2="760.0" y2="455.0" stroke="#e5e7eb" stroke-width="1"/>
  <text x="82.0" y="455.0" text-anchor="end" dominant-baseline="middle" fill="#374151" font-size="10">1.2M</text>
  <line x1="90.0" y1="431.0" x2="760.0" y2="431.0" stroke="#e5e7eb" stroke-width="1"/>
  <text x="82.0" y="431.0" text-anchor="end" dominant-baseline="middle" fill="#374151" font-size="10">1.4M</text>
  <line x1="90.0" y1="407.0" x2="760.0" y2="407.0" stroke="#e5e7eb" stroke-width="1"/>
  <text x="82.0" y="407.0" text-anchor="end" dominant-baseline="middle" fill="#374151" font-size="10">1.6M</text>
  <line x1="90.0" y1="383.0" x2="760.0" y2="383.0" stroke="#e5e7eb" stroke-width="1"/>
  <text x="82.0" y="383.0" text-anchor="end" dominant-baseline="middle" fill="#374151" font-size="10">1.8M</text>
  <line x1="90.0" y1="359.0" x2="760.0" y2="359.0" stroke="#e5e7eb" stroke-width="1"/>
  <text x="82.0" y="359.0" text-anchor="end" dominant-baseline="middle" fill="#374151" font-size="10">2M</text>
  <line x1="90.0" y1="539.0" x2="760.0" y2="539.0" stroke="#e5e7eb" stroke-width="1" stroke-dasharray="3,6"/>
  <text x="768.0" y="539.0" text-anchor="start" dominant-baseline="middle" fill="#6b7280" font-size="10">2 GB/s</text>
  <line x1="90.0" y1="479.0" x2="760.0" y2="479.0" stroke="#e5e7eb" stroke-width="1" stroke-dasharray="3,6"/>
  <text x="768.0" y="479.0" text-anchor="start" dominant-baseline="middle" fill="#6b7280" font-size="10">4 GB/s</text>
  <line x1="90.0" y1="419.0" x2="760.0" y2="419.0" stroke="#e5e7eb" stroke-width="1" stroke-dasharray="3,6"/>
  <text x="768.0" y="419.0" text-anchor="start" dominant-baseline="middle" fill="#6b7280" font-size="10">6 GB/s</text>
  <line x1="90.0" y1="359.0" x2="760.0" y2="359.0" stroke="#e5e7eb" stroke-width="1" stroke-dasharray="3,6"/>
  <text x="768.0" y="359.0" text-anchor="start" dominant-baseline="middle" fill="#6b7280" font-size="10">8 GB/s</text>
  <line x1="90.0" y1="359.0" x2="90.0" y2="599.0" stroke="#e5e7eb" stroke-width="1"/>
  <line x1="145.8" y1="359.0" x2="145.8" y2="599.0" stroke="#e5e7eb" stroke-width="1"/>
  <line x1="201.7" y1="359.0" x2="201.7" y2="599.0" stroke="#e5e7eb" stroke-width="1"/>
  <line x1="257.5" y1="359.0" x2="257.5" y2="599.0" stroke="#e5e7eb" stroke-width="1"/>
  <line x1="313.3" y1="359.0" x2="313.3" y2="599.0" stroke="#e5e7eb" stroke-width="1"/>
  <line x1="369.2" y1="359.0" x2="369.2" y2="599.0" stroke="#e5e7eb" stroke-width="1"/>
  <line x1="425.0" y1="359.0" x2="425.0" y2="599.0" stroke="#e5e7eb" stroke-width="1"/>
  <line x1="480.8" y1="359.0" x2="480.8" y2="599.0" stroke="#e5e7eb" stroke-width="1"/>
  <line x1="536.7" y1="359.0" x2="536.7" y2="599.0" stroke="#e5e7eb" stroke-width="1"/>
  <line x1="592.5" y1="359.0" x2="592.5" y2="599.0" stroke="#e5e7eb" stroke-width="1"/>
  <line x1="648.3" y1="359.0" x2="648.3" y2="599.0" stroke="#e5e7eb" stroke-width="1"/>
  <line x1="704.2" y1="359.0" x2="704.2" y2="599.0" stroke="#e5e7eb" stroke-width="1"/>
  <line x1="760.0" y1="359.0" x2="760.0" y2="599.0" stroke="#e5e7eb" stroke-width="1"/>
  <line x1="90.0" y1="359.0" x2="90.0" y2="599.0" stroke="#9ca3af" stroke-width="1.5"/>
  <line x1="760.0" y1="359.0" x2="760.0" y2="599.0" stroke="#9ca3af" stroke-width="1.5"/>
  <line x1="90.0" y1="599.0" x2="760.0" y2="599.0" stroke="#9ca3af" stroke-width="1.5"/>
  <text x="40.0" y="479.0" text-anchor="middle" fill="#374151" font-size="10" font-weight="600" transform="rotate(-90,40.0,479.0)">msg/s</text>
  <polyline points="90.0,589.4 145.8,590.0 201.7,586.8 257.5,589.4 313.3,589.0 369.2,587.8 425.0,589.3 480.8,590.4 536.7,590.7 592.5,594.5 648.3,595.7 704.2,596.9 760.0,597.9" fill="none" stroke="#10b981" stroke-width="2" stroke-dasharray="6,4"/>
  <polyline points="90.0,593.5 145.8,593.2 201.7,593.1 257.5,593.3 313.3,593.1 369.2,593.3 425.0,593.4 480.8,593.7 536.7,594.0 592.5,594.7 648.3,595.4 704.2,596.3 760.0,597.1" fill="none" stroke="#2563eb" stroke-width="2" stroke-dasharray="6,4"/>
  <polyline points="90.0,432.6 145.8,436.9 201.7,443.5 257.5,485.0 313.3,520.1 369.2,543.4 425.0,564.5 480.8,578.6 536.7,587.7 592.5,593.3 648.3,596.0 704.2,597.4 760.0,597.7" fill="none" stroke="#eab308" stroke-width="2" stroke-dasharray="6,4"/>
  <polyline points="90.0,473.7 145.8,472.3 201.7,475.2 257.5,484.8 313.3,490.2 369.2,500.5 425.0,526.1 480.8,545.4 536.7,565.3 592.5,579.3 648.3,588.1 704.2,593.4 760.0,596.2" fill="none" stroke="#f97316" stroke-width="2" stroke-dasharray="6,4"/>
  <polyline points="90.0,478.4 145.8,480.6 201.7,482.7 257.5,495.3 313.3,503.6 369.2,513.7 425.0,530.0 480.8,558.6 536.7,578.7 592.5,587.2 648.3,592.8 704.2,595.6 760.0,597.2" fill="none" stroke="#dc2626" stroke-width="2" stroke-dasharray="6,4"/>
  <polyline points="90.0,598.8 145.8,598.7 201.7,598.2 257.5,597.8 313.3,596.4 369.2,593.3 425.0,589.1 480.8,581.3 536.7,565.2 592.5,562.0 648.3,544.9 704.2,530.5 760.0,525.3" fill="none" stroke="#10b981" stroke-width="2.5" stroke-linecap="round" stroke-linejoin="round"/>
  <circle cx="90.0" cy="598.8" r="3" fill="#10b981" stroke="white" stroke-width="1"/>
  <circle cx="145.8" cy="598.7" r="3" fill="#10b981" stroke="white" stroke-width="1"/>
  <circle cx="201.7" cy="598.2" r="3" fill="#10b981" stroke="white" stroke-width="1"/>
  <circle cx="257.5" cy="597.8" r="3" fill="#10b981" stroke="white" stroke-width="1"/>
  <circle cx="313.3" cy="596.4" r="3" fill="#10b981" stroke="white" stroke-width="1"/>
  <circle cx="369.2" cy="593.3" r="3" fill="#10b981" stroke="white" stroke-width="1"/>
  <circle cx="425.0" cy="589.1" r="3" fill="#10b981" stroke="white" stroke-width="1"/>
  <circle cx="480.8" cy="581.3" r="3" fill="#10b981" stroke="white" stroke-width="1"/>
  <circle cx="536.7" cy="565.2" r="3" fill="#10b981" stroke="white" stroke-width="1"/>
  <circle cx="592.5" cy="562.0" r="3" fill="#10b981" stroke="white" stroke-width="1"/>
  <circle cx="648.3" cy="544.9" r="3" fill="#10b981" stroke="white" stroke-width="1"/>
  <circle cx="704.2" cy="530.5" r="3" fill="#10b981" stroke="white" stroke-width="1"/>
  <circle cx="760.0" cy="525.3" r="3" fill="#10b981" stroke="white" stroke-width="1"/>
  <polyline points="90.0,598.9 145.8,598.8 201.7,598.6 257.5,598.3 313.3,597.5 369.2,596.1 425.0,593.2 480.8,588.2 536.7,578.6 592.5,563.6 648.3,540.4 704.2,509.2 760.0,475.2" fill="none" stroke="#2563eb" stroke-width="2.5" stroke-linecap="round" stroke-linejoin="round"/>
  <circle cx="90.0" cy="598.9" r="3" fill="#2563eb" stroke="white" stroke-width="1"/>
  <circle cx="145.8" cy="598.8" r="3" fill="#2563eb" stroke="white" stroke-width="1"/>
  <circle cx="201.7" cy="598.6" r="3" fill="#2563eb" stroke="white" stroke-width="1"/>
  <circle cx="257.5" cy="598.3" r="3" fill="#2563eb" stroke="white" stroke-width="1"/>
  <circle cx="313.3" cy="597.5" r="3" fill="#2563eb" stroke="white" stroke-width="1"/>
  <circle cx="369.2" cy="596.1" r="3" fill="#2563eb" stroke="white" stroke-width="1"/>
  <circle cx="425.0" cy="593.2" r="3" fill="#2563eb" stroke="white" stroke-width="1"/>
  <circle cx="480.8" cy="588.2" r="3" fill="#2563eb" stroke="white" stroke-width="1"/>
  <circle cx="536.7" cy="578.6" r="3" fill="#2563eb" stroke="white" stroke-width="1"/>
  <circle cx="592.5" cy="563.6" r="3" fill="#2563eb" stroke="white" stroke-width="1"/>
  <circle cx="648.3" cy="540.4" r="3" fill="#2563eb" stroke="white" stroke-width="1"/>
  <circle cx="704.2" cy="509.2" r="3" fill="#2563eb" stroke="white" stroke-width="1"/>
  <circle cx="760.0" cy="475.2" r="3" fill="#2563eb" stroke="white" stroke-width="1"/>
  <polyline points="90.0,596.3 145.8,593.8 201.7,589.0 257.5,584.4 313.3,578.8 369.2,570.5 425.0,563.6 480.8,557.3 536.7,552.9 592.5,552.0 648.3,549.8 704.2,545.2 760.0,514.0" fill="none" stroke="#eab308" stroke-width="2.5" stroke-linecap="round" stroke-linejoin="round"/>
  <circle cx="90.0" cy="596.3" r="3" fill="#eab308" stroke="white" stroke-width="1"/>
  <circle cx="145.8" cy="593.8" r="3" fill="#eab308" stroke="white" stroke-width="1"/>
  <circle cx="201.7" cy="589.0" r="3" fill="#eab308" stroke="white" stroke-width="1"/>
  <circle cx="257.5" cy="584.4" r="3" fill="#eab308" stroke="white" stroke-width="1"/>
  <circle cx="313.3" cy="578.8" r="3" fill="#eab308" stroke="white" stroke-width="1"/>
  <circle cx="369.2" cy="570.5" r="3" fill="#eab308" stroke="white" stroke-width="1"/>
  <circle cx="425.0" cy="563.6" r="3" fill="#eab308" stroke="white" stroke-width="1"/>
  <circle cx="480.8" cy="557.3" r="3" fill="#eab308" stroke="white" stroke-width="1"/>
  <circle cx="536.7" cy="552.9" r="3" fill="#eab308" stroke="white" stroke-width="1"/>
  <circle cx="592.5" cy="552.0" r="3" fill="#eab308" stroke="white" stroke-width="1"/>
  <circle cx="648.3" cy="549.8" r="3" fill="#eab308" stroke="white" stroke-width="1"/>
  <circle cx="704.2" cy="545.2" r="3" fill="#eab308" stroke="white" stroke-width="1"/>
  <circle cx="760.0" cy="514.0" r="3" fill="#eab308" stroke="white" stroke-width="1"/>
  <polyline points="90.0,597.0 145.8,594.9 201.7,591.1 257.5,584.4 313.3,571.1 369.2,548.6 425.0,524.4 480.8,489.2 536.7,460.9 592.5,437.3 648.3,420.4 704.2,416.8 760.0,414.2" fill="none" stroke="#f97316" stroke-width="2.5" stroke-linecap="round" stroke-linejoin="round"/>
  <circle cx="90.0" cy="597.0" r="3" fill="#f97316" stroke="white" stroke-width="1"/>
  <circle cx="145.8" cy="594.9" r="3" fill="#f97316" stroke="white" stroke-width="1"/>
  <circle cx="201.7" cy="591.1" r="3" fill="#f97316" stroke="white" stroke-width="1"/>
  <circle cx="257.5" cy="584.4" r="3" fill="#f97316" stroke="white" stroke-width="1"/>
  <circle cx="313.3" cy="571.1" r="3" fill="#f97316" stroke="white" stroke-width="1"/>
  <circle cx="369.2" cy="548.6" r="3" fill="#f97316" stroke="white" stroke-width="1"/>
  <circle cx="425.0" cy="524.4" r="3" fill="#f97316" stroke="white" stroke-width="1"/>
  <circle cx="480.8" cy="489.2" r="3" fill="#f97316" stroke="white" stroke-width="1"/>
  <circle cx="536.7" cy="460.9" r="3" fill="#f97316" stroke="white" stroke-width="1"/>
  <circle cx="592.5" cy="437.3" r="3" fill="#f97316" stroke="white" stroke-width="1"/>
  <circle cx="648.3" cy="420.4" r="3" fill="#f97316" stroke="white" stroke-width="1"/>
  <circle cx="704.2" cy="416.8" r="3" fill="#f97316" stroke="white" stroke-width="1"/>
  <circle cx="760.0" cy="414.2" r="3" fill="#f97316" stroke="white" stroke-width="1"/>
  <polyline points="90.0,597.1 145.8,595.2 201.7,591.6 257.5,585.7 313.3,574.6 369.2,555.3 425.0,528.3 480.8,516.3 536.7,515.9 592.5,502.4 648.3,497.0 704.2,486.3 760.0,481.9" fill="none" stroke="#dc2626" stroke-width="2.5" stroke-linecap="round" stroke-linejoin="round"/>
  <circle cx="90.0" cy="597.1" r="3" fill="#dc2626" stroke="white" stroke-width="1"/>
  <circle cx="145.8" cy="595.2" r="3" fill="#dc2626" stroke="white" stroke-width="1"/>
  <circle cx="201.7" cy="591.6" r="3" fill="#dc2626" stroke="white" stroke-width="1"/>
  <circle cx="257.5" cy="585.7" r="3" fill="#dc2626" stroke="white" stroke-width="1"/>
  <circle cx="313.3" cy="574.6" r="3" fill="#dc2626" stroke="white" stroke-width="1"/>
  <circle cx="369.2" cy="555.3" r="3" fill="#dc2626" stroke="white" stroke-width="1"/>
  <circle cx="425.0" cy="528.3" r="3" fill="#dc2626" stroke="white" stroke-width="1"/>
  <circle cx="480.8" cy="516.3" r="3" fill="#dc2626" stroke="white" stroke-width="1"/>
  <circle cx="536.7" cy="515.9" r="3" fill="#dc2626" stroke="white" stroke-width="1"/>
  <circle cx="592.5" cy="502.4" r="3" fill="#dc2626" stroke="white" stroke-width="1"/>
  <circle cx="648.3" cy="497.0" r="3" fill="#dc2626" stroke="white" stroke-width="1"/>
  <circle cx="704.2" cy="486.3" r="3" fill="#dc2626" stroke="white" stroke-width="1"/>
  <circle cx="760.0" cy="481.9" r="3" fill="#dc2626" stroke="white" stroke-width="1"/>
  <text x="90.0" y="613.0" text-anchor="middle" fill="#374151" font-size="8.5">8 B</text>
  <text x="145.8" y="613.0" text-anchor="middle" fill="#374151" font-size="8.5">16 B</text>
  <text x="201.7" y="613.0" text-anchor="middle" fill="#374151" font-size="8.5">32 B</text>
  <text x="257.5" y="613.0" text-anchor="middle" fill="#374151" font-size="8.5">64 B</text>
  <text x="313.3" y="613.0" text-anchor="middle" fill="#374151" font-size="8.5">128 B</text>
  <text x="369.2" y="613.0" text-anchor="middle" fill="#374151" font-size="8.5">256 B</text>
  <text x="425.0" y="613.0" text-anchor="middle" fill="#374151" font-size="8.5">512 B</text>
  <text x="480.8" y="613.0" text-anchor="middle" fill="#374151" font-size="8.5">1 KiB</text>
  <text x="536.7" y="613.0" text-anchor="middle" fill="#374151" font-size="8.5">2 KiB</text>
  <text x="592.5" y="613.0" text-anchor="middle" fill="#374151" font-size="8.5">4 KiB</text>
  <text x="648.3" y="613.0" text-anchor="middle" fill="#374151" font-size="8.5">8 KiB</text>
  <text x="704.2" y="613.0" text-anchor="middle" fill="#374151" font-size="8.5">16 KiB</text>
  <text x="760.0" y="613.0" text-anchor="middle" fill="#374151" font-size="8.5">32 KiB</text>
  <text x="425.0" y="652.0" text-anchor="middle" fill="#111827" font-size="13" font-weight="700">PUB/SUB throughput, 64 subscribers: IPC</text>
  <line x1="90.0" y1="869.0" x2="760.0" y2="869.0" stroke="#e5e7eb" stroke-width="1"/>
  <text x="82.0" y="869.0" text-anchor="end" dominant-baseline="middle" fill="#374151" font-size="10">50k</text>
  <line x1="90.0" y1="829.0" x2="760.0" y2="829.0" stroke="#e5e7eb" stroke-width="1"/>
  <text x="82.0" y="829.0" text-anchor="end" dominant-baseline="middle" fill="#374151" font-size="10">100k</text>
  <line x1="90.0" y1="789.0" x2="760.0" y2="789.0" stroke="#e5e7eb" stroke-width="1"/>
  <text x="82.0" y="789.0" text-anchor="end" dominant-baseline="middle" fill="#374151" font-size="10">150k</text>
  <line x1="90.0" y1="749.0" x2="760.0" y2="749.0" stroke="#e5e7eb" stroke-width="1"/>
  <text x="82.0" y="749.0" text-anchor="end" dominant-baseline="middle" fill="#374151" font-size="10">200k</text>
  <line x1="90.0" y1="709.0" x2="760.0" y2="709.0" stroke="#e5e7eb" stroke-width="1"/>
  <text x="82.0" y="709.0" text-anchor="end" dominant-baseline="middle" fill="#374151" font-size="10">250k</text>
  <line x1="90.0" y1="669.0" x2="760.0" y2="669.0" stroke="#e5e7eb" stroke-width="1"/>
  <text x="82.0" y="669.0" text-anchor="end" dominant-baseline="middle" fill="#374151" font-size="10">300k</text>
  <line x1="90.0" y1="869.0" x2="760.0" y2="869.0" stroke="#e5e7eb" stroke-width="1" stroke-dasharray="3,6"/>
  <text x="768.0" y="869.0" text-anchor="start" dominant-baseline="middle" fill="#6b7280" font-size="10">2 GB/s</text>
  <line x1="90.0" y1="829.0" x2="760.0" y2="829.0" stroke="#e5e7eb" stroke-width="1" stroke-dasharray="3,6"/>
  <text x="768.0" y="829.0" text-anchor="start" dominant-baseline="middle" fill="#6b7280" font-size="10">4 GB/s</text>
  <line x1="90.0" y1="789.0" x2="760.0" y2="789.0" stroke="#e5e7eb" stroke-width="1" stroke-dasharray="3,6"/>
  <text x="768.0" y="789.0" text-anchor="start" dominant-baseline="middle" fill="#6b7280" font-size="10">6 GB/s</text>
  <line x1="90.0" y1="749.0" x2="760.0" y2="749.0" stroke="#e5e7eb" stroke-width="1" stroke-dasharray="3,6"/>
  <text x="768.0" y="749.0" text-anchor="start" dominant-baseline="middle" fill="#6b7280" font-size="10">8 GB/s</text>
  <line x1="90.0" y1="709.0" x2="760.0" y2="709.0" stroke="#e5e7eb" stroke-width="1" stroke-dasharray="3,6"/>
  <text x="768.0" y="709.0" text-anchor="start" dominant-baseline="middle" fill="#6b7280" font-size="10">10 GB/s</text>
  <line x1="90.0" y1="669.0" x2="760.0" y2="669.0" stroke="#e5e7eb" stroke-width="1" stroke-dasharray="3,6"/>
  <text x="768.0" y="669.0" text-anchor="start" dominant-baseline="middle" fill="#6b7280" font-size="10">12 GB/s</text>
  <line x1="90.0" y1="669.0" x2="90.0" y2="909.0" stroke="#e5e7eb" stroke-width="1"/>
  <line x1="145.8" y1="669.0" x2="145.8" y2="909.0" stroke="#e5e7eb" stroke-width="1"/>
  <line x1="201.7" y1="669.0" x2="201.7" y2="909.0" stroke="#e5e7eb" stroke-width="1"/>
  <line x1="257.5" y1="669.0" x2="257.5" y2="909.0" stroke="#e5e7eb" stroke-width="1"/>
  <line x1="313.3" y1="669.0" x2="313.3" y2="909.0" stroke="#e5e7eb" stroke-width="1"/>
  <line x1="369.2" y1="669.0" x2="369.2" y2="909.0" stroke="#e5e7eb" stroke-width="1"/>
  <line x1="425.0" y1="669.0" x2="425.0" y2="909.0" stroke="#e5e7eb" stroke-width="1"/>
  <line x1="480.8" y1="669.0" x2="480.8" y2="909.0" stroke="#e5e7eb" stroke-width="1"/>
  <line x1="536.7" y1="669.0" x2="536.7" y2="909.0" stroke="#e5e7eb" stroke-width="1"/>
  <line x1="592.5" y1="669.0" x2="592.5" y2="909.0" stroke="#e5e7eb" stroke-width="1"/>
  <line x1="648.3" y1="669.0" x2="648.3" y2="909.0" stroke="#e5e7eb" stroke-width="1"/>
  <line x1="704.2" y1="669.0" x2="704.2" y2="909.0" stroke="#e5e7eb" stroke-width="1"/>
  <line x1="760.0" y1="669.0" x2="760.0" y2="909.0" stroke="#e5e7eb" stroke-width="1"/>
  <line x1="90.0" y1="669.0" x2="90.0" y2="909.0" stroke="#9ca3af" stroke-width="1.5"/>
  <line x1="760.0" y1="669.0" x2="760.0" y2="909.0" stroke="#9ca3af" stroke-width="1.5"/>
  <line x1="90.0" y1="909.0" x2="760.0" y2="909.0" stroke="#9ca3af" stroke-width="1.5"/>
  <text x="40.0" y="789.0" text-anchor="middle" fill="#374151" font-size="10" font-weight="600" transform="rotate(-90,40.0,789.0)">msg/s</text>
  <polyline points="90.0,887.5 145.8,884.2 201.7,878.0 257.5,881.2 313.3,885.1 369.2,889.8 425.0,885.9 480.8,885.3 536.7,893.8 592.5,901.0 648.3,903.1 704.2,905.5 760.0,907.2" fill="none" stroke="#10b981" stroke-width="2" stroke-dasharray="6,4"/>
  <polyline points="90.0,900.0 145.8,901.1 201.7,900.1 257.5,899.5 313.3,899.1 369.2,902.7 425.0,899.3 480.8,901.9 536.7,902.9 592.5,902.1 648.3,903.8 704.2,906.1 760.0,906.6" fill="none" stroke="#2563eb" stroke-width="2" stroke-dasharray="6,4"/>
  <polyline points="90.0,687.8 145.8,659.5 201.7,711.1 257.5,750.5 313.3,814.9 369.2,837.9 425.0,851.5 480.8,875.9 536.7,887.4 592.5,899.0 648.3,906.1 704.2,905.9 760.0,906.7" fill="none" stroke="#eab308" stroke-width="2" stroke-dasharray="6,4"/>
  <polyline points="90.0,771.4 145.8,772.0 201.7,791.5 257.5,801.2 313.3,806.3 369.2,809.5 425.0,819.7 480.8,843.7 536.7,863.3 592.5,878.6 648.3,889.0 704.2,899.0 760.0,904.2" fill="none" stroke="#f97316" stroke-width="2" stroke-dasharray="6,4"/>
  <polyline points="90.0,711.8 145.8,718.2 201.7,707.3 257.5,774.0 313.3,763.7 369.2,786.4 425.0,810.6 480.8,846.4 536.7,873.9 592.5,889.8 648.3,899.4 704.2,903.9 760.0,906.8" fill="none" stroke="#dc2626" stroke-width="2" stroke-dasharray="6,4"/>
  <polyline points="90.0,908.7 145.8,908.4 201.7,907.4 257.5,906.1 313.3,904.1 369.2,901.1 425.0,890.0 480.8,870.2 536.7,859.1 592.5,856.5 648.3,832.0 704.2,816.3 760.0,815.6" fill="none" stroke="#10b981" stroke-width="2.5" stroke-linecap="round" stroke-linejoin="round"/>
  <circle cx="90.0" cy="908.7" r="3" fill="#10b981" stroke="white" stroke-width="1"/>
  <circle cx="145.8" cy="908.4" r="3" fill="#10b981" stroke="white" stroke-width="1"/>
  <circle cx="201.7" cy="907.4" r="3" fill="#10b981" stroke="white" stroke-width="1"/>
  <circle cx="257.5" cy="906.1" r="3" fill="#10b981" stroke="white" stroke-width="1"/>
  <circle cx="313.3" cy="904.1" r="3" fill="#10b981" stroke="white" stroke-width="1"/>
  <circle cx="369.2" cy="901.1" r="3" fill="#10b981" stroke="white" stroke-width="1"/>
  <circle cx="425.0" cy="890.0" r="3" fill="#10b981" stroke="white" stroke-width="1"/>
  <circle cx="480.8" cy="870.2" r="3" fill="#10b981" stroke="white" stroke-width="1"/>
  <circle cx="536.7" cy="859.1" r="3" fill="#10b981" stroke="white" stroke-width="1"/>
  <circle cx="592.5" cy="856.5" r="3" fill="#10b981" stroke="white" stroke-width="1"/>
  <circle cx="648.3" cy="832.0" r="3" fill="#10b981" stroke="white" stroke-width="1"/>
  <circle cx="704.2" cy="816.3" r="3" fill="#10b981" stroke="white" stroke-width="1"/>
  <circle cx="760.0" cy="815.6" r="3" fill="#10b981" stroke="white" stroke-width="1"/>
  <polyline points="90.0,908.9 145.8,908.8 201.7,908.5 257.5,908.0 313.3,907.0 369.2,906.4 425.0,901.0 480.8,897.4 536.7,889.1 592.5,864.0 648.3,841.0 704.2,832.6 760.0,781.3" fill="none" stroke="#2563eb" stroke-width="2.5" stroke-linecap="round" stroke-linejoin="round"/>
  <circle cx="90.0" cy="908.9" r="3" fill="#2563eb" stroke="white" stroke-width="1"/>
  <circle cx="145.8" cy="908.8" r="3" fill="#2563eb" stroke="white" stroke-width="1"/>
  <circle cx="201.7" cy="908.5" r="3" fill="#2563eb" stroke="white" stroke-width="1"/>
  <circle cx="257.5" cy="908.0" r="3" fill="#2563eb" stroke="white" stroke-width="1"/>
  <circle cx="313.3" cy="907.0" r="3" fill="#2563eb" stroke="white" stroke-width="1"/>
  <circle cx="369.2" cy="906.4" r="3" fill="#2563eb" stroke="white" stroke-width="1"/>
  <circle cx="425.0" cy="901.0" r="3" fill="#2563eb" stroke="white" stroke-width="1"/>
  <circle cx="480.8" cy="897.4" r="3" fill="#2563eb" stroke="white" stroke-width="1"/>
  <circle cx="536.7" cy="889.1" r="3" fill="#2563eb" stroke="white" stroke-width="1"/>
  <circle cx="592.5" cy="864.0" r="3" fill="#2563eb" stroke="white" stroke-width="1"/>
  <circle cx="648.3" cy="841.0" r="3" fill="#2563eb" stroke="white" stroke-width="1"/>
  <circle cx="704.2" cy="832.6" r="3" fill="#2563eb" stroke="white" stroke-width="1"/>
  <circle cx="760.0" cy="781.3" r="3" fill="#2563eb" stroke="white" stroke-width="1"/>
  <polyline points="90.0,906.2 145.8,902.6 201.7,898.9 257.5,892.8 313.3,889.7 369.2,879.9 425.0,861.9 480.8,854.7 536.7,838.3 592.5,843.7 648.3,871.2 704.2,827.2 760.0,788.2" fill="none" stroke="#eab308" stroke-width="2.5" stroke-linecap="round" stroke-linejoin="round"/>
  <circle cx="90.0" cy="906.2" r="3" fill="#eab308" stroke="white" stroke-width="1"/>
  <circle cx="145.8" cy="902.6" r="3" fill="#eab308" stroke="white" stroke-width="1"/>
  <circle cx="201.7" cy="898.9" r="3" fill="#eab308" stroke="white" stroke-width="1"/>
  <circle cx="257.5" cy="892.8" r="3" fill="#eab308" stroke="white" stroke-width="1"/>
  <circle cx="313.3" cy="889.7" r="3" fill="#eab308" stroke="white" stroke-width="1"/>
  <circle cx="369.2" cy="879.9" r="3" fill="#eab308" stroke="white" stroke-width="1"/>
  <circle cx="425.0" cy="861.9" r="3" fill="#eab308" stroke="white" stroke-width="1"/>
  <circle cx="480.8" cy="854.7" r="3" fill="#eab308" stroke="white" stroke-width="1"/>
  <circle cx="536.7" cy="838.3" r="3" fill="#eab308" stroke="white" stroke-width="1"/>
  <circle cx="592.5" cy="843.7" r="3" fill="#eab308" stroke="white" stroke-width="1"/>
  <circle cx="648.3" cy="871.2" r="3" fill="#eab308" stroke="white" stroke-width="1"/>
  <circle cx="704.2" cy="827.2" r="3" fill="#eab308" stroke="white" stroke-width="1"/>
  <circle cx="760.0" cy="788.2" r="3" fill="#eab308" stroke="white" stroke-width="1"/>
  <polyline points="90.0,907.2 145.8,905.5 201.7,903.0 257.5,898.0 313.3,888.0 369.2,868.3 425.0,835.9 480.8,802.1 536.7,759.4 592.5,710.0 648.3,647.1 704.2,645.7 760.0,658.7" fill="none" stroke="#f97316" stroke-width="2.5" stroke-linecap="round" stroke-linejoin="round"/>
  <circle cx="90.0" cy="907.2" r="3" fill="#f97316" stroke="white" stroke-width="1"/>
  <circle cx="145.8" cy="905.5" r="3" fill="#f97316" stroke="white" stroke-width="1"/>
  <circle cx="201.7" cy="903.0" r="3" fill="#f97316" stroke="white" stroke-width="1"/>
  <circle cx="257.5" cy="898.0" r="3" fill="#f97316" stroke="white" stroke-width="1"/>
  <circle cx="313.3" cy="888.0" r="3" fill="#f97316" stroke="white" stroke-width="1"/>
  <circle cx="369.2" cy="868.3" r="3" fill="#f97316" stroke="white" stroke-width="1"/>
  <circle cx="425.0" cy="835.9" r="3" fill="#f97316" stroke="white" stroke-width="1"/>
  <circle cx="480.8" cy="802.1" r="3" fill="#f97316" stroke="white" stroke-width="1"/>
  <circle cx="536.7" cy="759.4" r="3" fill="#f97316" stroke="white" stroke-width="1"/>
  <circle cx="592.5" cy="710.0" r="3" fill="#f97316" stroke="white" stroke-width="1"/>
  <circle cx="648.3" cy="647.1" r="3" fill="#f97316" stroke="white" stroke-width="1"/>
  <circle cx="704.2" cy="645.7" r="3" fill="#f97316" stroke="white" stroke-width="1"/>
  <circle cx="760.0" cy="658.7" r="3" fill="#f97316" stroke="white" stroke-width="1"/>
  <polyline points="90.0,906.5 145.8,904.1 201.7,898.7 257.5,895.2 313.3,879.2 369.2,858.8 425.0,828.4 480.8,806.4 536.7,793.8 592.5,783.2 648.3,783.3 704.2,776.2 760.0,795.6" fill="none" stroke="#dc2626" stroke-width="2.5" stroke-linecap="round" stroke-linejoin="round"/>
  <circle cx="90.0" cy="906.5" r="3" fill="#dc2626" stroke="white" stroke-width="1"/>
  <circle cx="145.8" cy="904.1" r="3" fill="#dc2626" stroke="white" stroke-width="1"/>
  <circle cx="201.7" cy="898.7" r="3" fill="#dc2626" stroke="white" stroke-width="1"/>
  <circle cx="257.5" cy="895.2" r="3" fill="#dc2626" stroke="white" stroke-width="1"/>
  <circle cx="313.3" cy="879.2" r="3" fill="#dc2626" stroke="white" stroke-width="1"/>
  <circle cx="369.2" cy="858.8" r="3" fill="#dc2626" stroke="white" stroke-width="1"/>
  <circle cx="425.0" cy="828.4" r="3" fill="#dc2626" stroke="white" stroke-width="1"/>
  <circle cx="480.8" cy="806.4" r="3" fill="#dc2626" stroke="white" stroke-width="1"/>
  <circle cx="536.7" cy="793.8" r="3" fill="#dc2626" stroke="white" stroke-width="1"/>
  <circle cx="592.5" cy="783.2" r="3" fill="#dc2626" stroke="white" stroke-width="1"/>
  <circle cx="648.3" cy="783.3" r="3" fill="#dc2626" stroke="white" stroke-width="1"/>
  <circle cx="704.2" cy="776.2" r="3" fill="#dc2626" stroke="white" stroke-width="1"/>
  <circle cx="760.0" cy="795.6" r="3" fill="#dc2626" stroke="white" stroke-width="1"/>
  <text x="90.0" y="923.0" text-anchor="middle" fill="#374151" font-size="8.5">8 B</text>
  <text x="145.8" y="923.0" text-anchor="middle" fill="#374151" font-size="8.5">16 B</text>
  <text x="201.7" y="923.0" text-anchor="middle" fill="#374151" font-size="8.5">32 B</text>
  <text x="257.5" y="923.0" text-anchor="middle" fill="#374151" font-size="8.5">64 B</text>
  <text x="313.3" y="923.0" text-anchor="middle" fill="#374151" font-size="8.5">128 B</text>
  <text x="369.2" y="923.0" text-anchor="middle" fill="#374151" font-size="8.5">256 B</text>
  <text x="425.0" y="923.0" text-anchor="middle" fill="#374151" font-size="8.5">512 B</text>
  <text x="480.8" y="923.0" text-anchor="middle" fill="#374151" font-size="8.5">1 KiB</text>
  <text x="536.7" y="923.0" text-anchor="middle" fill="#374151" font-size="8.5">2 KiB</text>
  <text x="592.5" y="923.0" text-anchor="middle" fill="#374151" font-size="8.5">4 KiB</text>
  <text x="648.3" y="923.0" text-anchor="middle" fill="#374151" font-size="8.5">8 KiB</text>
  <text x="704.2" y="923.0" text-anchor="middle" fill="#374151" font-size="8.5">16 KiB</text>
  <text x="760.0" y="923.0" text-anchor="middle" fill="#374151" font-size="8.5">32 KiB</text>
  <line x1="112" y1="949" x2="126" y2="949" stroke="#eab308" stroke-width="2.5"/>
  <circle cx="120" cy="949" r="2.5" fill="#eab308"/>
  <text x="132" y="953" fill="#374151" font-size="11" font-weight="500">libzmq v4.3.5</text>
  <line x1="238" y1="949" x2="252" y2="949" stroke="#dc2626" stroke-width="2.5"/>
  <circle cx="244" cy="949" r="2.5" fill="#dc2626"/>
  <text x="258" y="953" fill="#374151" font-size="11" font-weight="500">omq-compio</text>
  <line x1="362" y1="949" x2="376" y2="949" stroke="#f97316" stroke-width="2.5"/>
  <circle cx="370" cy="949" r="2.5" fill="#f97316"/>
  <text x="382" y="953" fill="#374151" font-size="11" font-weight="500">omq-tokio</text>
  <line x1="488" y1="949" x2="502" y2="949" stroke="#2563eb" stroke-width="2.5"/>
  <circle cx="494" cy="949" r="2.5" fill="#2563eb"/>
  <text x="508" y="953" fill="#374151" font-size="11" font-weight="500">zmq.rs v0.6.0</text>
  <line x1="612" y1="949" x2="626" y2="949" stroke="#10b981" stroke-width="2.5"/>
  <circle cx="620" cy="949" r="2.5" fill="#10b981"/>
  <text x="632" y="953" fill="#374151" font-size="11" font-weight="500">rzmq v0.5.18</text>
  <line x1="265" y1="971" x2="285" y2="971" stroke="#6b7280" stroke-width="2" stroke-dasharray="6,4"/>
  <text x="291" y="975" fill="#6b7280" font-size="10">msg/s (left axis)</text>
  <line x1="435" y1="971" x2="455" y2="971" stroke="#6b7280" stroke-width="2"/>
  <circle cx="445" cy="971" r="2" fill="#6b7280"/>
  <text x="461" y="975" fill="#6b7280" font-size="10">throughput / GB/s (right axis)</text>
</svg>
