<svg xmlns="http://www.w3.org/2000/svg" viewBox="0 0 875 1004" font-family="system-ui, -apple-system, sans-serif">
  <rect width="875" height="1004" fill="white"/>
  <text x="395.0" y="16" text-anchor="middle" fill="#111827" font-size="12" font-weight="700">PUB/SUB lz4+tcp: structured JSON, 1 PUB → 32 SUBs (omq-tokio), dict 2K</text>
  <text x="395.0" y="30" text-anchor="middle" fill="#9ca3af" font-size="10">Linux VM on a 2018 Mac Mini, Intel Core i7-8700B @ 3.20GHz, 6 cores, performance governor, turbo off</text>
  <text x="395.0" y="59" text-anchor="middle" fill="#111827" font-size="12" font-weight="700">1 Gbps</text>
  <line x1="90" y1="179.0" x2="700" y2="179.0" stroke="#e5e7eb" stroke-width="1"/>
  <text x="82" y="179.0" text-anchor="end" dominant-baseline="middle" fill="#374151" font-size="9">50%</text>
  <line x1="90" y1="69.0" x2="700" y2="69.0" stroke="#e5e7eb" stroke-width="1"/>
  <text x="82" y="69.0" text-anchor="end" dominant-baseline="middle" fill="#374151" font-size="9">100%</text>
  <line x1="90" y1="289.0" x2="700" y2="289.0" stroke="#e5e7eb" stroke-width="1" stroke-dasharray="3,6"/>
  <text x="708" y="289.0" text-anchor="start" dominant-baseline="middle" fill="#6b7280" font-size="9">50 MB/s</text>
  <line x1="90" y1="222.8" x2="700" y2="222.8" stroke="#e5e7eb" stroke-width="1" stroke-dasharray="3,6"/>
  <text x="708" y="222.8" text-anchor="start" dominant-baseline="middle" fill="#6b7280" font-size="9">100 MB/s</text>
  <line x1="90" y1="156.5" x2="700" y2="156.5" stroke="#e5e7eb" stroke-width="1" stroke-dasharray="3,6"/>
  <text x="708" y="156.5" text-anchor="start" dominant-baseline="middle" fill="#6b7280" font-size="9">200 MB/s</text>
  <line x1="90" y1="69.0" x2="700" y2="69.0" stroke="#e5e7eb" stroke-width="1" stroke-dasharray="3,6"/>
  <text x="708" y="69.0" text-anchor="start" dominant-baseline="middle" fill="#6b7280" font-size="9">500 MB/s</text>
  <text x="788" y="289.0" text-anchor="start" dominant-baseline="middle" fill="#9ca3af" font-size="9">10/s</text>
  <text x="788" y="274.9" text-anchor="start" dominant-baseline="middle" fill="#9ca3af" font-size="9">20/s</text>
  <text x="788" y="256.3" text-anchor="start" dominant-baseline="middle" fill="#9ca3af" font-size="9">50/s</text>
  <text x="788" y="242.2" text-anchor="start" dominant-baseline="middle" fill="#9ca3af" font-size="9">100/s</text>
  <text x="788" y="228.1" text-anchor="start" dominant-baseline="middle" fill="#9ca3af" font-size="9">200/s</text>
  <text x="788" y="209.5" text-anchor="start" dominant-baseline="middle" fill="#9ca3af" font-size="9">500/s</text>
  <text x="788" y="195.4" text-anchor="start" dominant-baseline="middle" fill="#9ca3af" font-size="9">1K/s</text>
  <text x="788" y="181.3" text-anchor="start" dominant-baseline="middle" fill="#9ca3af" font-size="9">2K/s</text>
  <text x="788" y="162.6" text-anchor="start" dominant-baseline="middle" fill="#9ca3af" font-size="9">5K/s</text>
  <text x="788" y="148.5" text-anchor="start" dominant-baseline="middle" fill="#9ca3af" font-size="9">10K/s</text>
  <text x="788" y="134.4" text-anchor="start" dominant-baseline="middle" fill="#9ca3af" font-size="9">20K/s</text>
  <text x="788" y="115.8" text-anchor="start" dominant-baseline="middle" fill="#9ca3af" font-size="9">50K/s</text>
  <text x="788" y="101.7" text-anchor="start" dominant-baseline="middle" fill="#9ca3af" font-size="9">100K/s</text>
  <text x="788" y="87.6" text-anchor="start" dominant-baseline="middle" fill="#9ca3af" font-size="9">200K/s</text>
  <text x="788" y="69.0" text-anchor="start" dominant-baseline="middle" fill="#9ca3af" font-size="9">500K/s</text>
  <line x1="90.0" y1="69" x2="90.0" y2="289" stroke="#e5e7eb" stroke-width="1"/>
  <line x1="130.7" y1="69" x2="130.7" y2="289" stroke="#e5e7eb" stroke-width="1"/>
  <line x1="171.3" y1="69" x2="171.3" y2="289" stroke="#e5e7eb" stroke-width="1"/>
  <line x1="212.0" y1="69" x2="212.0" y2="289" stroke="#e5e7eb" stroke-width="1"/>
  <line x1="252.7" y1="69" x2="252.7" y2="289" stroke="#e5e7eb" stroke-width="1"/>
  <line x1="293.3" y1="69" x2="293.3" y2="289" stroke="#e5e7eb" stroke-width="1"/>
  <line x1="334.0" y1="69" x2="334.0" y2="289" stroke="#e5e7eb" stroke-width="1"/>
  <line x1="374.7" y1="69" x2="374.7" y2="289" stroke="#e5e7eb" stroke-width="1"/>
  <line x1="415.3" y1="69" x2="415.3" y2="289" stroke="#e5e7eb" stroke-width="1"/>
  <line x1="456.0" y1="69" x2="456.0" y2="289" stroke="#e5e7eb" stroke-width="1"/>
  <line x1="496.7" y1="69" x2="496.7" y2="289" stroke="#e5e7eb" stroke-width="1"/>
  <line x1="537.3" y1="69" x2="537.3" y2="289" stroke="#e5e7eb" stroke-width="1"/>
  <line x1="578.0" y1="69" x2="578.0" y2="289" stroke="#e5e7eb" stroke-width="1"/>
  <line x1="618.7" y1="69" x2="618.7" y2="289" stroke="#e5e7eb" stroke-width="1"/>
  <line x1="659.3" y1="69" x2="659.3" y2="289" stroke="#e5e7eb" stroke-width="1"/>
  <line x1="700.0" y1="69" x2="700.0" y2="289" stroke="#e5e7eb" stroke-width="1"/>
  <line x1="90" y1="69" x2="90" y2="289" stroke="#9ca3af" stroke-width="1.5"/>
  <line x1="700" y1="69" x2="700" y2="289" stroke="#9ca3af" stroke-width="1.5"/>
  <line x1="90" y1="289" x2="700" y2="289" stroke="#9ca3af" stroke-width="1.5"/>
  <line x1="780" y1="69" x2="780" y2="289" stroke="#d1d5db" stroke-width="1"/>
  <text x="90.0" y="303" text-anchor="middle" fill="#374151" font-size="8">8 B</text>
  <text x="130.7" y="303" text-anchor="middle" fill="#374151" font-size="8">16 B</text>
  <text x="171.3" y="303" text-anchor="middle" fill="#374151" font-size="8">32 B</text>
  <text x="212.0" y="303" text-anchor="middle" fill="#374151" font-size="8">64 B</text>
  <text x="252.7" y="303" text-anchor="middle" fill="#374151" font-size="8">128 B</text>
  <text x="293.3" y="303" text-anchor="middle" fill="#374151" font-size="8">256 B</text>
  <text x="334.0" y="303" text-anchor="middle" fill="#374151" font-size="8">512 B</text>
  <text x="374.7" y="303" text-anchor="middle" fill="#374151" font-size="8">1 KiB</text>
  <text x="415.3" y="303" text-anchor="middle" fill="#374151" font-size="8">2 KiB</text>
  <text x="456.0" y="303" text-anchor="middle" fill="#374151" font-size="8">4 KiB</text>
  <text x="496.7" y="303" text-anchor="middle" fill="#374151" font-size="8">8 KiB</text>
  <text x="537.3" y="303" text-anchor="middle" fill="#374151" font-size="8">16 KiB</text>
  <text x="578.0" y="303" text-anchor="middle" fill="#374151" font-size="8">32 KiB</text>
  <text x="618.7" y="303" text-anchor="middle" fill="#374151" font-size="8">64 KiB</text>
  <text x="659.3" y="303" text-anchor="middle" fill="#374151" font-size="8">128 KiB</text>
  <text x="700.0" y="303" text-anchor="middle" fill="#374151" font-size="8">256 KiB</text>
  <text x="40" y="179.0" text-anchor="middle" dominant-baseline="middle" fill="#374151" font-size="10" font-weight="600" transform="rotate(-90,40,179.0)">sender CPU %</text>
  <polyline points="90.0,161.2 130.7,221.3 171.3,242.7 212.0,261.7 252.7,270.8 293.3,275.3 334.0,279.8 374.7,281.2 415.3,282.0 456.0,282.5 496.7,282.8 537.3,282.8 578.0,283.1 618.7,283.3 659.3,283.4 700.0,283.5" fill="none" stroke="#eab308" stroke-width="2" stroke-dasharray="2,3" opacity="0.7"/>
  <polyline points="90.0,180.3 130.7,210.5 171.3,239.5 212.0,257.8 252.7,270.2 293.3,275.1 334.0,277.9 374.7,278.9 415.3,279.2 456.0,279.5 496.7,279.3 537.3,279.0 578.0,278.2 618.7,277.9 659.3,278.2 700.0,278.1" fill="none" stroke="#60a5fa" stroke-width="2" stroke-dasharray="2,3" opacity="0.7"/>
  <polyline points="90.0,180.3 130.7,210.5 171.3,239.5 212.0,237.2 252.7,255.1 293.3,259.5 334.0,268.6 374.7,274.1 415.3,276.4 456.0,278.0 496.7,278.6 537.3,278.2 578.0,277.7 618.7,277.9 659.3,278.2 700.0,278.1" fill="none" stroke="#1d4ed8" stroke-width="2" stroke-dasharray="2,3" opacity="0.7"/>
  <polyline points="90.0,201.5 130.7,201.5 171.3,201.5 212.0,201.5 252.7,201.5 293.3,201.5 334.0,201.5 374.7,201.5 415.3,201.5 456.0,201.5 496.7,201.5 537.3,201.5 578.0,201.5 618.7,201.5 659.3,201.5 700.0,201.5" fill="none" stroke="#eab308" stroke-width="2.5" stroke-linecap="round" stroke-linejoin="round"/>
  <circle cx="90.0" cy="201.5" r="2.5" fill="#eab308" stroke="white" stroke-width="1"/>
  <circle cx="130.7" cy="201.5" r="2.5" fill="#eab308" stroke="white" stroke-width="1"/>
  <circle cx="171.3" cy="201.5" r="2.5" fill="#eab308" stroke="white" stroke-width="1"/>
  <circle cx="212.0" cy="201.5" r="2.5" fill="#eab308" stroke="white" stroke-width="1"/>
  <circle cx="252.7" cy="201.5" r="2.5" fill="#eab308" stroke="white" stroke-width="1"/>
  <circle cx="293.3" cy="201.5" r="2.5" fill="#eab308" stroke="white" stroke-width="1"/>
  <circle cx="334.0" cy="201.5" r="2.5" fill="#eab308" stroke="white" stroke-width="1"/>
  <circle cx="374.7" cy="201.5" r="2.5" fill="#eab308" stroke="white" stroke-width="1"/>
  <circle cx="415.3" cy="201.5" r="2.5" fill="#eab308" stroke="white" stroke-width="1"/>
  <circle cx="456.0" cy="201.5" r="2.5" fill="#eab308" stroke="white" stroke-width="1"/>
  <circle cx="496.7" cy="201.5" r="2.5" fill="#eab308" stroke="white" stroke-width="1"/>
  <circle cx="537.3" cy="201.5" r="2.5" fill="#eab308" stroke="white" stroke-width="1"/>
  <circle cx="578.0" cy="201.5" r="2.5" fill="#eab308" stroke="white" stroke-width="1"/>
  <circle cx="618.7" cy="201.5" r="2.5" fill="#eab308" stroke="white" stroke-width="1"/>
  <circle cx="659.3" cy="201.5" r="2.5" fill="#eab308" stroke="white" stroke-width="1"/>
  <circle cx="700.0" cy="201.5" r="2.5" fill="#eab308" stroke="white" stroke-width="1"/>
  <polyline points="90.0,240.2 130.7,222.8 171.3,212.7 212.0,207.2 252.7,204.4 293.3,202.9 334.0,184.3 374.7,158.6 415.3,140.9 456.0,122.4 496.7,105.8 537.3,96.5 578.0,87.3 618.7,83.0 659.3,81.4 700.0,80.6" fill="none" stroke="#60a5fa" stroke-width="2.5" stroke-linecap="round" stroke-linejoin="round"/>
  <circle cx="90.0" cy="240.2" r="2.5" fill="#60a5fa" stroke="white" stroke-width="1"/>
  <circle cx="130.7" cy="222.8" r="2.5" fill="#60a5fa" stroke="white" stroke-width="1"/>
  <circle cx="171.3" cy="212.7" r="2.5" fill="#60a5fa" stroke="white" stroke-width="1"/>
  <circle cx="212.0" cy="207.2" r="2.5" fill="#60a5fa" stroke="white" stroke-width="1"/>
  <circle cx="252.7" cy="204.4" r="2.5" fill="#60a5fa" stroke="white" stroke-width="1"/>
  <circle cx="293.3" cy="202.9" r="2.5" fill="#60a5fa" stroke="white" stroke-width="1"/>
  <circle cx="334.0" cy="184.3" r="2.5" fill="#60a5fa" stroke="white" stroke-width="1"/>
  <circle cx="374.7" cy="158.6" r="2.5" fill="#60a5fa" stroke="white" stroke-width="1"/>
  <circle cx="415.3" cy="140.9" r="2.5" fill="#60a5fa" stroke="white" stroke-width="1"/>
  <circle cx="456.0" cy="122.4" r="2.5" fill="#60a5fa" stroke="white" stroke-width="1"/>
  <circle cx="496.7" cy="105.8" r="2.5" fill="#60a5fa" stroke="white" stroke-width="1"/>
  <circle cx="537.3" cy="96.5" r="2.5" fill="#60a5fa" stroke="white" stroke-width="1"/>
  <circle cx="578.0" cy="87.3" r="2.5" fill="#60a5fa" stroke="white" stroke-width="1"/>
  <circle cx="618.7" cy="83.0" r="2.5" fill="#60a5fa" stroke="white" stroke-width="1"/>
  <circle cx="659.3" cy="81.4" r="2.5" fill="#60a5fa" stroke="white" stroke-width="1"/>
  <circle cx="700.0" cy="80.6" r="2.5" fill="#60a5fa" stroke="white" stroke-width="1"/>
  <polyline points="90.0,240.2 130.7,222.8 171.3,212.7 212.0,158.9 252.7,147.8 293.3,130.6 334.0,126.2 374.7,121.4 415.3,117.3 456.0,108.4 496.7,99.0 537.3,88.6 578.0,83.3 618.7,83.1 659.3,81.4 700.0,80.5" fill="none" stroke="#1d4ed8" stroke-width="2.5" stroke-linecap="round" stroke-linejoin="round"/>
  <circle cx="90.0" cy="240.2" r="2.5" fill="#1d4ed8" stroke="white" stroke-width="1"/>
  <circle cx="130.7" cy="222.8" r="2.5" fill="#1d4ed8" stroke="white" stroke-width="1"/>
  <circle cx="171.3" cy="212.7" r="2.5" fill="#1d4ed8" stroke="white" stroke-width="1"/>
  <circle cx="212.0" cy="158.9" r="2.5" fill="#1d4ed8" stroke="white" stroke-width="1"/>
  <circle cx="252.7" cy="147.8" r="2.5" fill="#1d4ed8" stroke="white" stroke-width="1"/>
  <circle cx="293.3" cy="130.6" r="2.5" fill="#1d4ed8" stroke="white" stroke-width="1"/>
  <circle cx="334.0" cy="126.2" r="2.5" fill="#1d4ed8" stroke="white" stroke-width="1"/>
  <circle cx="374.7" cy="121.4" r="2.5" fill="#1d4ed8" stroke="white" stroke-width="1"/>
  <circle cx="415.3" cy="117.3" r="2.5" fill="#1d4ed8" stroke="white" stroke-width="1"/>
  <circle cx="456.0" cy="108.4" r="2.5" fill="#1d4ed8" stroke="white" stroke-width="1"/>
  <circle cx="496.7" cy="99.0" r="2.5" fill="#1d4ed8" stroke="white" stroke-width="1"/>
  <circle cx="537.3" cy="88.6" r="2.5" fill="#1d4ed8" stroke="white" stroke-width="1"/>
  <circle cx="578.0" cy="83.3" r="2.5" fill="#1d4ed8" stroke="white" stroke-width="1"/>
  <circle cx="618.7" cy="83.1" r="2.5" fill="#1d4ed8" stroke="white" stroke-width="1"/>
  <circle cx="659.3" cy="81.4" r="2.5" fill="#1d4ed8" stroke="white" stroke-width="1"/>
  <circle cx="700.0" cy="80.5" r="2.5" fill="#1d4ed8" stroke="white" stroke-width="1"/>
  <polyline points="90.0,69.5 130.7,83.6 171.3,97.7 212.0,111.8 252.7,125.9 293.3,140.0 334.0,154.0 374.7,168.1 415.3,182.2 456.0,196.3 496.7,210.4 537.3,224.5 578.0,238.6 618.7,252.7 659.3,266.8 700.0,280.9" fill="none" stroke="#eab308" stroke-width="1.5" stroke-dasharray="5,3"/>
  <polyline points="90.0,77.7 130.7,88.1 171.3,100.1 212.0,113.0 252.7,126.5 293.3,140.3 334.0,150.4 374.7,159.0 415.3,169.4 456.0,179.5 496.7,190.1 537.3,202.2 578.0,214.3 618.7,227.5 659.3,241.3 700.0,255.2" fill="none" stroke="#60a5fa" stroke-width="1.5" stroke-dasharray="5,3"/>
  <polyline points="90.0,77.7 130.7,88.1 171.3,100.1 212.0,102.7 252.7,114.4 293.3,124.9 334.0,138.0 374.7,151.1 415.3,164.3 456.0,176.5 496.7,188.6 537.3,200.5 578.0,213.5 618.7,227.5 659.3,241.3 700.0,255.2" fill="none" stroke="#1d4ed8" stroke-width="1.5" stroke-dasharray="5,3"/>
  <text x="395.0" y="369" text-anchor="middle" fill="#111827" font-size="12" font-weight="700">100 Mbps</text>
  <line x1="90" y1="489.0" x2="700" y2="489.0" stroke="#e5e7eb" stroke-width="1"/>
  <text x="82" y="489.0" text-anchor="end" dominant-baseline="middle" fill="#374151" font-size="9">50%</text>
  <line x1="90" y1="379.0" x2="700" y2="379.0" stroke="#e5e7eb" stroke-width="1"/>
  <text x="82" y="379.0" text-anchor="end" dominant-baseline="middle" fill="#374151" font-size="9">100%</text>
  <line x1="90" y1="599.0" x2="700" y2="599.0" stroke="#e5e7eb" stroke-width="1" stroke-dasharray="3,6"/>
  <text x="708" y="599.0" text-anchor="start" dominant-baseline="middle" fill="#6b7280" font-size="9">5.0 MB/s</text>
  <line x1="90" y1="532.8" x2="700" y2="532.8" stroke="#e5e7eb" stroke-width="1" stroke-dasharray="3,6"/>
  <text x="708" y="532.8" text-anchor="start" dominant-baseline="middle" fill="#6b7280" font-size="9">10 MB/s</text>
  <line x1="90" y1="466.5" x2="700" y2="466.5" stroke="#e5e7eb" stroke-width="1" stroke-dasharray="3,6"/>
  <text x="708" y="466.5" text-anchor="start" dominant-baseline="middle" fill="#6b7280" font-size="9">20 MB/s</text>
  <line x1="90" y1="379.0" x2="700" y2="379.0" stroke="#e5e7eb" stroke-width="1" stroke-dasharray="3,6"/>
  <text x="708" y="379.0" text-anchor="start" dominant-baseline="middle" fill="#6b7280" font-size="9">50 MB/s</text>
  <text x="788" y="599.0" text-anchor="start" dominant-baseline="middle" fill="#9ca3af" font-size="9">1/s</text>
  <text x="788" y="584.9" text-anchor="start" dominant-baseline="middle" fill="#9ca3af" font-size="9">2/s</text>
  <text x="788" y="566.3" text-anchor="start" dominant-baseline="middle" fill="#9ca3af" font-size="9">5/s</text>
  <text x="788" y="552.2" text-anchor="start" dominant-baseline="middle" fill="#9ca3af" font-size="9">10/s</text>
  <text x="788" y="538.1" text-anchor="start" dominant-baseline="middle" fill="#9ca3af" font-size="9">20/s</text>
  <text x="788" y="519.5" text-anchor="start" dominant-baseline="middle" fill="#9ca3af" font-size="9">50/s</text>
  <text x="788" y="505.4" text-anchor="start" dominant-baseline="middle" fill="#9ca3af" font-size="9">100/s</text>
  <text x="788" y="491.3" text-anchor="start" dominant-baseline="middle" fill="#9ca3af" font-size="9">200/s</text>
  <text x="788" y="472.6" text-anchor="start" dominant-baseline="middle" fill="#9ca3af" font-size="9">500/s</text>
  <text x="788" y="458.5" text-anchor="start" dominant-baseline="middle" fill="#9ca3af" font-size="9">1K/s</text>
  <text x="788" y="444.4" text-anchor="start" dominant-baseline="middle" fill="#9ca3af" font-size="9">2K/s</text>
  <text x="788" y="425.8" text-anchor="start" dominant-baseline="middle" fill="#9ca3af" font-size="9">5K/s</text>
  <text x="788" y="411.7" text-anchor="start" dominant-baseline="middle" fill="#9ca3af" font-size="9">10K/s</text>
  <text x="788" y="397.6" text-anchor="start" dominant-baseline="middle" fill="#9ca3af" font-size="9">20K/s</text>
  <text x="788" y="379.0" text-anchor="start" dominant-baseline="middle" fill="#9ca3af" font-size="9">50K/s</text>
  <line x1="90.0" y1="379" x2="90.0" y2="599" stroke="#e5e7eb" stroke-width="1"/>
  <line x1="130.7" y1="379" x2="130.7" y2="599" stroke="#e5e7eb" stroke-width="1"/>
  <line x1="171.3" y1="379" x2="171.3" y2="599" stroke="#e5e7eb" stroke-width="1"/>
  <line x1="212.0" y1="379" x2="212.0" y2="599" stroke="#e5e7eb" stroke-width="1"/>
  <line x1="252.7" y1="379" x2="252.7" y2="599" stroke="#e5e7eb" stroke-width="1"/>
  <line x1="293.3" y1="379" x2="293.3" y2="599" stroke="#e5e7eb" stroke-width="1"/>
  <line x1="334.0" y1="379" x2="334.0" y2="599" stroke="#e5e7eb" stroke-width="1"/>
  <line x1="374.7" y1="379" x2="374.7" y2="599" stroke="#e5e7eb" stroke-width="1"/>
  <line x1="415.3" y1="379" x2="415.3" y2="599" stroke="#e5e7eb" stroke-width="1"/>
  <line x1="456.0" y1="379" x2="456.0" y2="599" stroke="#e5e7eb" stroke-width="1"/>
  <line x1="496.7" y1="379" x2="496.7" y2="599" stroke="#e5e7eb" stroke-width="1"/>
  <line x1="537.3" y1="379" x2="537.3" y2="599" stroke="#e5e7eb" stroke-width="1"/>
  <line x1="578.0" y1="379" x2="578.0" y2="599" stroke="#e5e7eb" stroke-width="1"/>
  <line x1="618.7" y1="379" x2="618.7" y2="599" stroke="#e5e7eb" stroke-width="1"/>
  <line x1="659.3" y1="379" x2="659.3" y2="599" stroke="#e5e7eb" stroke-width="1"/>
  <line x1="700.0" y1="379" x2="700.0" y2="599" stroke="#e5e7eb" stroke-width="1"/>
  <line x1="90" y1="379" x2="90" y2="599" stroke="#9ca3af" stroke-width="1.5"/>
  <line x1="700" y1="379" x2="700" y2="599" stroke="#9ca3af" stroke-width="1.5"/>
  <line x1="90" y1="599" x2="700" y2="599" stroke="#9ca3af" stroke-width="1.5"/>
  <line x1="780" y1="379" x2="780" y2="599" stroke="#d1d5db" stroke-width="1"/>
  <text x="90.0" y="613" text-anchor="middle" fill="#374151" font-size="8">8 B</text>
  <text x="130.7" y="613" text-anchor="middle" fill="#374151" font-size="8">16 B</text>
  <text x="171.3" y="613" text-anchor="middle" fill="#374151" font-size="8">32 B</text>
  <text x="212.0" y="613" text-anchor="middle" fill="#374151" font-size="8">64 B</text>
  <text x="252.7" y="613" text-anchor="middle" fill="#374151" font-size="8">128 B</text>
  <text x="293.3" y="613" text-anchor="middle" fill="#374151" font-size="8">256 B</text>
  <text x="334.0" y="613" text-anchor="middle" fill="#374151" font-size="8">512 B</text>
  <text x="374.7" y="613" text-anchor="middle" fill="#374151" font-size="8">1 KiB</text>
  <text x="415.3" y="613" text-anchor="middle" fill="#374151" font-size="8">2 KiB</text>
  <text x="456.0" y="613" text-anchor="middle" fill="#374151" font-size="8">4 KiB</text>
  <text x="496.7" y="613" text-anchor="middle" fill="#374151" font-size="8">8 KiB</text>
  <text x="537.3" y="613" text-anchor="middle" fill="#374151" font-size="8">16 KiB</text>
  <text x="578.0" y="613" text-anchor="middle" fill="#374151" font-size="8">32 KiB</text>
  <text x="618.7" y="613" text-anchor="middle" fill="#374151" font-size="8">64 KiB</text>
  <text x="659.3" y="613" text-anchor="middle" fill="#374151" font-size="8">128 KiB</text>
  <text x="700.0" y="613" text-anchor="middle" fill="#374151" font-size="8">256 KiB</text>
  <text x="40" y="489.0" text-anchor="middle" dominant-baseline="middle" fill="#374151" font-size="10" font-weight="600" transform="rotate(-90,40,489.0)">sender CPU %</text>
  <polyline points="90.0,586.2 130.7,592.2 171.3,594.4 212.0,596.3 252.7,597.2 293.3,597.6 334.0,598.1 374.7,598.2 415.3,598.3 456.0,598.3 496.7,598.4 537.3,598.4 578.0,598.4 618.7,598.4 659.3,598.4 700.0,598.5" fill="none" stroke="#eab308" stroke-width="2" stroke-dasharray="2,3" opacity="0.7"/>
  <polyline points="90.0,588.1 130.7,591.2 171.3,594.0 212.0,595.9 252.7,597.1 293.3,597.6 334.0,597.9 374.7,598.0 415.3,598.0 456.0,598.0 496.7,598.0 537.3,598.0 578.0,597.9 618.7,597.9 659.3,597.9 700.0,597.9" fill="none" stroke="#60a5fa" stroke-width="2" stroke-dasharray="2,3" opacity="0.7"/>
  <polyline points="90.0,588.1 130.7,591.2 171.3,594.0 212.0,593.8 252.7,595.6 293.3,596.0 334.0,597.0 374.7,597.5 415.3,597.7 456.0,597.9 496.7,598.0 537.3,597.9 578.0,597.9 618.7,597.9 659.3,597.9 700.0,597.9" fill="none" stroke="#1d4ed8" stroke-width="2" stroke-dasharray="2,3" opacity="0.7"/>
  <polyline points="90.0,511.5 130.7,511.5 171.3,511.5 212.0,511.5 252.7,511.5 293.3,511.5 334.0,511.5 374.7,511.5 415.3,511.5 456.0,511.5 496.7,511.5 537.3,511.5 578.0,511.5 618.7,511.5 659.3,511.5 700.0,511.5" fill="none" stroke="#eab308" stroke-width="2.5" stroke-linecap="round" stroke-linejoin="round"/>
  <circle cx="90.0" cy="511.5" r="2.5" fill="#eab308" stroke="white" stroke-width="1"/>
  <circle cx="130.7" cy="511.5" r="2.5" fill="#eab308" stroke="white" stroke-width="1"/>
  <circle cx="171.3" cy="511.5" r="2.5" fill="#eab308" stroke="white" stroke-width="1"/>
  <circle cx="212.0" cy="511.5" r="2.5" fill="#eab308" stroke="white" stroke-width="1"/>
  <circle cx="252.7" cy="511.5" r="2.5" fill="#eab308" stroke="white" stroke-width="1"/>
  <circle cx="293.3" cy="511.5" r="2.5" fill="#eab308" stroke="white" stroke-width="1"/>
  <circle cx="334.0" cy="511.5" r="2.5" fill="#eab308" stroke="white" stroke-width="1"/>
  <circle cx="374.7" cy="511.5" r="2.5" fill="#eab308" stroke="white" stroke-width="1"/>
  <circle cx="415.3" cy="511.5" r="2.5" fill="#eab308" stroke="white" stroke-width="1"/>
  <circle cx="456.0" cy="511.5" r="2.5" fill="#eab308" stroke="white" stroke-width="1"/>
  <circle cx="496.7" cy="511.5" r="2.5" fill="#eab308" stroke="white" stroke-width="1"/>
  <circle cx="537.3" cy="511.5" r="2.5" fill="#eab308" stroke="white" stroke-width="1"/>
  <circle cx="578.0" cy="511.5" r="2.5" fill="#eab308" stroke="white" stroke-width="1"/>
  <circle cx="618.7" cy="511.5" r="2.5" fill="#eab308" stroke="white" stroke-width="1"/>
  <circle cx="659.3" cy="511.5" r="2.5" fill="#eab308" stroke="white" stroke-width="1"/>
  <circle cx="700.0" cy="511.5" r="2.5" fill="#eab308" stroke="white" stroke-width="1"/>
  <polyline points="90.0,550.2 130.7,532.8 171.3,522.7 212.0,517.2 252.7,514.4 293.3,512.9 334.0,494.3 374.7,468.6 415.3,450.9 456.0,432.4 496.7,415.8 537.3,406.5 578.0,397.3 618.7,393.0 659.3,391.4 700.0,390.6" fill="none" stroke="#60a5fa" stroke-width="2.5" stroke-linecap="round" stroke-linejoin="round"/>
  <circle cx="90.0" cy="550.2" r="2.5" fill="#60a5fa" stroke="white" stroke-width="1"/>
  <circle cx="130.7" cy="532.8" r="2.5" fill="#60a5fa" stroke="white" stroke-width="1"/>
  <circle cx="171.3" cy="522.7" r="2.5" fill="#60a5fa" stroke="white" stroke-width="1"/>
  <circle cx="212.0" cy="517.2" r="2.5" fill="#60a5fa" stroke="white" stroke-width="1"/>
  <circle cx="252.7" cy="514.4" r="2.5" fill="#60a5fa" stroke="white" stroke-width="1"/>
  <circle cx="293.3" cy="512.9" r="2.5" fill="#60a5fa" stroke="white" stroke-width="1"/>
  <circle cx="334.0" cy="494.3" r="2.5" fill="#60a5fa" stroke="white" stroke-width="1"/>
  <circle cx="374.7" cy="468.6" r="2.5" fill="#60a5fa" stroke="white" stroke-width="1"/>
  <circle cx="415.3" cy="450.9" r="2.5" fill="#60a5fa" stroke="white" stroke-width="1"/>
  <circle cx="456.0" cy="432.4" r="2.5" fill="#60a5fa" stroke="white" stroke-width="1"/>
  <circle cx="496.7" cy="415.8" r="2.5" fill="#60a5fa" stroke="white" stroke-width="1"/>
  <circle cx="537.3" cy="406.5" r="2.5" fill="#60a5fa" stroke="white" stroke-width="1"/>
  <circle cx="578.0" cy="397.3" r="2.5" fill="#60a5fa" stroke="white" stroke-width="1"/>
  <circle cx="618.7" cy="393.0" r="2.5" fill="#60a5fa" stroke="white" stroke-width="1"/>
  <circle cx="659.3" cy="391.4" r="2.5" fill="#60a5fa" stroke="white" stroke-width="1"/>
  <circle cx="700.0" cy="390.6" r="2.5" fill="#60a5fa" stroke="white" stroke-width="1"/>
  <polyline points="90.0,550.2 130.7,532.8 171.3,522.7 212.0,468.9 252.7,457.8 293.3,440.6 334.0,436.2 374.7,431.4 415.3,427.3 456.0,418.4 496.7,409.0 537.3,398.6 578.0,393.3 618.7,393.1 659.3,391.4 700.0,390.5" fill="none" stroke="#1d4ed8" stroke-width="2.5" stroke-linecap="round" stroke-linejoin="round"/>
  <circle cx="90.0" cy="550.2" r="2.5" fill="#1d4ed8" stroke="white" stroke-width="1"/>
  <circle cx="130.7" cy="532.8" r="2.5" fill="#1d4ed8" stroke="white" stroke-width="1"/>
  <circle cx="171.3" cy="522.7" r="2.5" fill="#1d4ed8" stroke="white" stroke-width="1"/>
  <circle cx="212.0" cy="468.9" r="2.5" fill="#1d4ed8" stroke="white" stroke-width="1"/>
  <circle cx="252.7" cy="457.8" r="2.5" fill="#1d4ed8" stroke="white" stroke-width="1"/>
  <circle cx="293.3" cy="440.6" r="2.5" fill="#1d4ed8" stroke="white" stroke-width="1"/>
  <circle cx="334.0" cy="436.2" r="2.5" fill="#1d4ed8" stroke="white" stroke-width="1"/>
  <circle cx="374.7" cy="431.4" r="2.5" fill="#1d4ed8" stroke="white" stroke-width="1"/>
  <circle cx="415.3" cy="427.3" r="2.5" fill="#1d4ed8" stroke="white" stroke-width="1"/>
  <circle cx="456.0" cy="418.4" r="2.5" fill="#1d4ed8" stroke="white" stroke-width="1"/>
  <circle cx="496.7" cy="409.0" r="2.5" fill="#1d4ed8" stroke="white" stroke-width="1"/>
  <circle cx="537.3" cy="398.6" r="2.5" fill="#1d4ed8" stroke="white" stroke-width="1"/>
  <circle cx="578.0" cy="393.3" r="2.5" fill="#1d4ed8" stroke="white" stroke-width="1"/>
  <circle cx="618.7" cy="393.1" r="2.5" fill="#1d4ed8" stroke="white" stroke-width="1"/>
  <circle cx="659.3" cy="391.4" r="2.5" fill="#1d4ed8" stroke="white" stroke-width="1"/>
  <circle cx="700.0" cy="390.5" r="2.5" fill="#1d4ed8" stroke="white" stroke-width="1"/>
  <polyline points="90.0,379.5 130.7,393.6 171.3,407.7 212.0,421.8 252.7,435.9 293.3,450.0 334.0,464.0 374.7,478.1 415.3,492.2 456.0,506.3 496.7,520.4 537.3,534.5 578.0,548.6 618.7,562.7 659.3,576.8 700.0,590.9" fill="none" stroke="#eab308" stroke-width="1.5" stroke-dasharray="5,3"/>
  <polyline points="90.0,387.7 130.7,398.1 171.3,410.1 212.0,423.0 252.7,436.5 293.3,450.3 334.0,460.4 374.7,469.0 415.3,479.4 456.0,489.5 496.7,500.1 537.3,512.2 578.0,524.3 618.7,537.5 659.3,551.3 700.0,565.2" fill="none" stroke="#60a5fa" stroke-width="1.5" stroke-dasharray="5,3"/>
  <polyline points="90.0,387.7 130.7,398.1 171.3,410.1 212.0,412.7 252.7,424.4 293.3,434.9 334.0,448.0 374.7,461.1 415.3,474.3 456.0,486.5 496.7,498.6 537.3,510.5 578.0,523.5 618.7,537.5 659.3,551.3 700.0,565.2" fill="none" stroke="#1d4ed8" stroke-width="1.5" stroke-dasharray="5,3"/>
  <text x="395.0" y="679" text-anchor="middle" fill="#111827" font-size="12" font-weight="700">10 Mbps</text>
  <line x1="90" y1="799.0" x2="700" y2="799.0" stroke="#e5e7eb" stroke-width="1"/>
  <text x="82" y="799.0" text-anchor="end" dominant-baseline="middle" fill="#374151" font-size="9">50%</text>
  <line x1="90" y1="689.0" x2="700" y2="689.0" stroke="#e5e7eb" stroke-width="1"/>
  <text x="82" y="689.0" text-anchor="end" dominant-baseline="middle" fill="#374151" font-size="9">100%</text>
  <line x1="90" y1="909.0" x2="700" y2="909.0" stroke="#e5e7eb" stroke-width="1" stroke-dasharray="3,6"/>
  <text x="708" y="909.0" text-anchor="start" dominant-baseline="middle" fill="#6b7280" font-size="9">0.5 MB/s</text>
  <line x1="90" y1="842.8" x2="700" y2="842.8" stroke="#e5e7eb" stroke-width="1" stroke-dasharray="3,6"/>
  <text x="708" y="842.8" text-anchor="start" dominant-baseline="middle" fill="#6b7280" font-size="9">1.0 MB/s</text>
  <line x1="90" y1="776.5" x2="700" y2="776.5" stroke="#e5e7eb" stroke-width="1" stroke-dasharray="3,6"/>
  <text x="708" y="776.5" text-anchor="start" dominant-baseline="middle" fill="#6b7280" font-size="9">2.0 MB/s</text>
  <line x1="90" y1="689.0" x2="700" y2="689.0" stroke="#e5e7eb" stroke-width="1" stroke-dasharray="3,6"/>
  <text x="708" y="689.0" text-anchor="start" dominant-baseline="middle" fill="#6b7280" font-size="9">5.0 MB/s</text>
  <text x="788" y="909.0" text-anchor="start" dominant-baseline="middle" fill="#9ca3af" font-size="9">1/s</text>
  <text x="788" y="891.1" text-anchor="start" dominant-baseline="middle" fill="#9ca3af" font-size="9">2/s</text>
  <text x="788" y="867.4" text-anchor="start" dominant-baseline="middle" fill="#9ca3af" font-size="9">5/s</text>
  <text x="788" y="849.5" text-anchor="start" dominant-baseline="middle" fill="#9ca3af" font-size="9">10/s</text>
  <text x="788" y="831.6" text-anchor="start" dominant-baseline="middle" fill="#9ca3af" font-size="9">20/s</text>
  <text x="788" y="808.0" text-anchor="start" dominant-baseline="middle" fill="#9ca3af" font-size="9">50/s</text>
  <text x="788" y="790.0" text-anchor="start" dominant-baseline="middle" fill="#9ca3af" font-size="9">100/s</text>
  <text x="788" y="772.1" text-anchor="start" dominant-baseline="middle" fill="#9ca3af" font-size="9">200/s</text>
  <text x="788" y="748.5" text-anchor="start" dominant-baseline="middle" fill="#9ca3af" font-size="9">500/s</text>
  <text x="788" y="730.6" text-anchor="start" dominant-baseline="middle" fill="#9ca3af" font-size="9">1K/s</text>
  <text x="788" y="712.7" text-anchor="start" dominant-baseline="middle" fill="#9ca3af" font-size="9">2K/s</text>
  <text x="788" y="689.0" text-anchor="start" dominant-baseline="middle" fill="#9ca3af" font-size="9">5K/s</text>
  <line x1="90.0" y1="689" x2="90.0" y2="909" stroke="#e5e7eb" stroke-width="1"/>
  <line x1="130.7" y1="689" x2="130.7" y2="909" stroke="#e5e7eb" stroke-width="1"/>
  <line x1="171.3" y1="689" x2="171.3" y2="909" stroke="#e5e7eb" stroke-width="1"/>
  <line x1="212.0" y1="689" x2="212.0" y2="909" stroke="#e5e7eb" stroke-width="1"/>
  <line x1="252.7" y1="689" x2="252.7" y2="909" stroke="#e5e7eb" stroke-width="1"/>
  <line x1="293.3" y1="689" x2="293.3" y2="909" stroke="#e5e7eb" stroke-width="1"/>
  <line x1="334.0" y1="689" x2="334.0" y2="909" stroke="#e5e7eb" stroke-width="1"/>
  <line x1="374.7" y1="689" x2="374.7" y2="909" stroke="#e5e7eb" stroke-width="1"/>
  <line x1="415.3" y1="689" x2="415.3" y2="909" stroke="#e5e7eb" stroke-width="1"/>
  <line x1="456.0" y1="689" x2="456.0" y2="909" stroke="#e5e7eb" stroke-width="1"/>
  <line x1="496.7" y1="689" x2="496.7" y2="909" stroke="#e5e7eb" stroke-width="1"/>
  <line x1="537.3" y1="689" x2="537.3" y2="909" stroke="#e5e7eb" stroke-width="1"/>
  <line x1="578.0" y1="689" x2="578.0" y2="909" stroke="#e5e7eb" stroke-width="1"/>
  <line x1="618.7" y1="689" x2="618.7" y2="909" stroke="#e5e7eb" stroke-width="1"/>
  <line x1="659.3" y1="689" x2="659.3" y2="909" stroke="#e5e7eb" stroke-width="1"/>
  <line x1="700.0" y1="689" x2="700.0" y2="909" stroke="#e5e7eb" stroke-width="1"/>
  <line x1="90" y1="689" x2="90" y2="909" stroke="#9ca3af" stroke-width="1.5"/>
  <line x1="700" y1="689" x2="700" y2="909" stroke="#9ca3af" stroke-width="1.5"/>
  <line x1="90" y1="909" x2="700" y2="909" stroke="#9ca3af" stroke-width="1.5"/>
  <line x1="780" y1="689" x2="780" y2="909" stroke="#d1d5db" stroke-width="1"/>
  <text x="90.0" y="923" text-anchor="middle" fill="#374151" font-size="8">8 B</text>
  <text x="130.7" y="923" text-anchor="middle" fill="#374151" font-size="8">16 B</text>
  <text x="171.3" y="923" text-anchor="middle" fill="#374151" font-size="8">32 B</text>
  <text x="212.0" y="923" text-anchor="middle" fill="#374151" font-size="8">64 B</text>
  <text x="252.7" y="923" text-anchor="middle" fill="#374151" font-size="8">128 B</text>
  <text x="293.3" y="923" text-anchor="middle" fill="#374151" font-size="8">256 B</text>
  <text x="334.0" y="923" text-anchor="middle" fill="#374151" font-size="8">512 B</text>
  <text x="374.7" y="923" text-anchor="middle" fill="#374151" font-size="8">1 KiB</text>
  <text x="415.3" y="923" text-anchor="middle" fill="#374151" font-size="8">2 KiB</text>
  <text x="456.0" y="923" text-anchor="middle" fill="#374151" font-size="8">4 KiB</text>
  <text x="496.7" y="923" text-anchor="middle" fill="#374151" font-size="8">8 KiB</text>
  <text x="537.3" y="923" text-anchor="middle" fill="#374151" font-size="8">16 KiB</text>
  <text x="578.0" y="923" text-anchor="middle" fill="#374151" font-size="8">32 KiB</text>
  <text x="618.7" y="923" text-anchor="middle" fill="#374151" font-size="8">64 KiB</text>
  <text x="659.3" y="923" text-anchor="middle" fill="#374151" font-size="8">128 KiB</text>
  <text x="700.0" y="923" text-anchor="middle" fill="#374151" font-size="8">256 KiB</text>
  <text x="40" y="799.0" text-anchor="middle" dominant-baseline="middle" fill="#374151" font-size="10" font-weight="600" transform="rotate(-90,40,799.0)">sender CPU %</text>
  <polyline points="90.0,907.7 130.7,908.3 171.3,908.5 212.0,908.7 252.7,908.8 293.3,908.9 334.0,908.9 374.7,908.9 415.3,908.9 456.0,908.9 496.7,908.9 537.3,908.9 578.0,908.9 618.7,908.9 659.3,908.9 700.0,908.9" fill="none" stroke="#eab308" stroke-width="2" stroke-dasharray="2,3" opacity="0.7"/>
  <polyline points="90.0,907.9 130.7,908.2 171.3,908.5 212.0,908.7 252.7,908.8 293.3,908.9 334.0,908.9 374.7,908.9 415.3,908.9 456.0,908.9 496.7,908.9 537.3,908.9 578.0,908.9 618.7,908.9 659.3,908.9 700.0,908.9" fill="none" stroke="#60a5fa" stroke-width="2" stroke-dasharray="2,3" opacity="0.7"/>
  <polyline points="90.0,907.9 130.7,908.2 171.3,908.5 212.0,908.5 252.7,908.7 293.3,908.7 334.0,908.8 374.7,908.9 415.3,908.9 456.0,908.9 496.7,908.9 537.3,908.9 578.0,908.9 618.7,908.9 659.3,908.9 700.0,908.9" fill="none" stroke="#1d4ed8" stroke-width="2" stroke-dasharray="2,3" opacity="0.7"/>
  <polyline points="90.0,821.5 130.7,821.5 171.3,821.5 212.0,821.5 252.7,821.5 293.3,821.5 334.0,821.5 374.7,821.5 415.3,821.5 456.0,821.5 496.7,821.5 537.3,821.5 578.0,821.5 618.7,821.5 659.3,821.5 700.0,821.5" fill="none" stroke="#eab308" stroke-width="2.5" stroke-linecap="round" stroke-linejoin="round"/>
  <circle cx="90.0" cy="821.5" r="2.5" fill="#eab308" stroke="white" stroke-width="1"/>
  <circle cx="130.7" cy="821.5" r="2.5" fill="#eab308" stroke="white" stroke-width="1"/>
  <circle cx="171.3" cy="821.5" r="2.5" fill="#eab308" stroke="white" stroke-width="1"/>
  <circle cx="212.0" cy="821.5" r="2.5" fill="#eab308" stroke="white" stroke-width="1"/>
  <circle cx="252.7" cy="821.5" r="2.5" fill="#eab308" stroke="white" stroke-width="1"/>
  <circle cx="293.3" cy="821.5" r="2.5" fill="#eab308" stroke="white" stroke-width="1"/>
  <circle cx="334.0" cy="821.5" r="2.5" fill="#eab308" stroke="white" stroke-width="1"/>
  <circle cx="374.7" cy="821.5" r="2.5" fill="#eab308" stroke="white" stroke-width="1"/>
  <circle cx="415.3" cy="821.5" r="2.5" fill="#eab308" stroke="white" stroke-width="1"/>
  <circle cx="456.0" cy="821.5" r="2.5" fill="#eab308" stroke="white" stroke-width="1"/>
  <circle cx="496.7" cy="821.5" r="2.5" fill="#eab308" stroke="white" stroke-width="1"/>
  <circle cx="537.3" cy="821.5" r="2.5" fill="#eab308" stroke="white" stroke-width="1"/>
  <circle cx="578.0" cy="821.5" r="2.5" fill="#eab308" stroke="white" stroke-width="1"/>
  <circle cx="618.7" cy="821.5" r="2.5" fill="#eab308" stroke="white" stroke-width="1"/>
  <circle cx="659.3" cy="821.5" r="2.5" fill="#eab308" stroke="white" stroke-width="1"/>
  <circle cx="700.0" cy="821.5" r="2.5" fill="#eab308" stroke="white" stroke-width="1"/>
  <polyline points="90.0,860.2 130.7,842.8 171.3,832.7 212.0,827.2 252.7,824.4 293.3,822.9 334.0,804.3 374.7,778.6 415.3,760.9 456.0,742.4 496.7,725.8 537.3,716.5 578.0,707.3 618.7,703.0 659.3,701.4 700.0,700.6" fill="none" stroke="#60a5fa" stroke-width="2.5" stroke-linecap="round" stroke-linejoin="round"/>
  <circle cx="90.0" cy="860.2" r="2.5" fill="#60a5fa" stroke="white" stroke-width="1"/>
  <circle cx="130.7" cy="842.8" r="2.5" fill="#60a5fa" stroke="white" stroke-width="1"/>
  <circle cx="171.3" cy="832.7" r="2.5" fill="#60a5fa" stroke="white" stroke-width="1"/>
  <circle cx="212.0" cy="827.2" r="2.5" fill="#60a5fa" stroke="white" stroke-width="1"/>
  <circle cx="252.7" cy="824.4" r="2.5" fill="#60a5fa" stroke="white" stroke-width="1"/>
  <circle cx="293.3" cy="822.9" r="2.5" fill="#60a5fa" stroke="white" stroke-width="1"/>
  <circle cx="334.0" cy="804.3" r="2.5" fill="#60a5fa" stroke="white" stroke-width="1"/>
  <circle cx="374.7" cy="778.6" r="2.5" fill="#60a5fa" stroke="white" stroke-width="1"/>
  <circle cx="415.3" cy="760.9" r="2.5" fill="#60a5fa" stroke="white" stroke-width="1"/>
  <circle cx="456.0" cy="742.4" r="2.5" fill="#60a5fa" stroke="white" stroke-width="1"/>
  <circle cx="496.7" cy="725.8" r="2.5" fill="#60a5fa" stroke="white" stroke-width="1"/>
  <circle cx="537.3" cy="716.5" r="2.5" fill="#60a5fa" stroke="white" stroke-width="1"/>
  <circle cx="578.0" cy="707.3" r="2.5" fill="#60a5fa" stroke="white" stroke-width="1"/>
  <circle cx="618.7" cy="703.0" r="2.5" fill="#60a5fa" stroke="white" stroke-width="1"/>
  <circle cx="659.3" cy="701.4" r="2.5" fill="#60a5fa" stroke="white" stroke-width="1"/>
  <circle cx="700.0" cy="700.6" r="2.5" fill="#60a5fa" stroke="white" stroke-width="1"/>
  <polyline points="90.0,860.2 130.7,842.8 171.3,832.7 212.0,778.9 252.7,767.8 293.3,750.6 334.0,746.2 374.7,741.4 415.3,737.3 456.0,728.4 496.7,719.0 537.3,708.6 578.0,703.3 618.7,703.1 659.3,701.4 700.0,700.5" fill="none" stroke="#1d4ed8" stroke-width="2.5" stroke-linecap="round" stroke-linejoin="round"/>
  <circle cx="90.0" cy="860.2" r="2.5" fill="#1d4ed8" stroke="white" stroke-width="1"/>
  <circle cx="130.7" cy="842.8" r="2.5" fill="#1d4ed8" stroke="white" stroke-width="1"/>
  <circle cx="171.3" cy="832.7" r="2.5" fill="#1d4ed8" stroke="white" stroke-width="1"/>
  <circle cx="212.0" cy="778.9" r="2.5" fill="#1d4ed8" stroke="white" stroke-width="1"/>
  <circle cx="252.7" cy="767.8" r="2.5" fill="#1d4ed8" stroke="white" stroke-width="1"/>
  <circle cx="293.3" cy="750.6" r="2.5" fill="#1d4ed8" stroke="white" stroke-width="1"/>
  <circle cx="334.0" cy="746.2" r="2.5" fill="#1d4ed8" stroke="white" stroke-width="1"/>
  <circle cx="374.7" cy="741.4" r="2.5" fill="#1d4ed8" stroke="white" stroke-width="1"/>
  <circle cx="415.3" cy="737.3" r="2.5" fill="#1d4ed8" stroke="white" stroke-width="1"/>
  <circle cx="456.0" cy="728.4" r="2.5" fill="#1d4ed8" stroke="white" stroke-width="1"/>
  <circle cx="496.7" cy="719.0" r="2.5" fill="#1d4ed8" stroke="white" stroke-width="1"/>
  <circle cx="537.3" cy="708.6" r="2.5" fill="#1d4ed8" stroke="white" stroke-width="1"/>
  <circle cx="578.0" cy="703.3" r="2.5" fill="#1d4ed8" stroke="white" stroke-width="1"/>
  <circle cx="618.7" cy="703.1" r="2.5" fill="#1d4ed8" stroke="white" stroke-width="1"/>
  <circle cx="659.3" cy="701.4" r="2.5" fill="#1d4ed8" stroke="white" stroke-width="1"/>
  <circle cx="700.0" cy="700.5" r="2.5" fill="#1d4ed8" stroke="white" stroke-width="1"/>
  <polyline points="90.0,689.6 130.7,707.5 171.3,725.4 212.0,743.3 252.7,761.2 293.3,779.1 334.0,797.0 374.7,814.9 415.3,832.8 456.0,850.7 496.7,868.7 537.3,886.6 578.0,904.5 618.7,909.0 659.3,909.0 700.0,909.0" fill="none" stroke="#eab308" stroke-width="1.5" stroke-dasharray="5,3"/>
  <polyline points="90.0,700.1 130.7,713.3 171.3,728.5 212.0,744.9 252.7,762.0 293.3,779.5 334.0,792.4 374.7,803.4 415.3,816.5 456.0,829.4 496.7,842.8 537.3,858.2 578.0,873.6 618.7,890.3 659.3,907.8 700.0,909.0" fill="none" stroke="#60a5fa" stroke-width="1.5" stroke-dasharray="5,3"/>
  <polyline points="90.0,700.1 130.7,713.3 171.3,728.5 212.0,731.8 252.7,746.7 293.3,760.0 334.0,776.7 374.7,793.3 415.3,810.1 456.0,825.6 496.7,840.9 537.3,856.0 578.0,872.5 618.7,890.4 659.3,907.8 700.0,909.0" fill="none" stroke="#1d4ed8" stroke-width="1.5" stroke-dasharray="5,3"/>
  <line x1="90" y1="941" x2="104" y2="941" stroke="#eab308" stroke-width="1.5" stroke-dasharray="2,3" opacity="0.7"/>
  <line x1="90" y1="953" x2="104" y2="953" stroke="#eab308" stroke-width="2.5"/>
  <line x1="90" y1="965" x2="104" y2="965" stroke="#eab308" stroke-width="1.5" stroke-dasharray="5,3"/>
  <text x="108" y="945" fill="#374151" font-size="10" font-weight="500">tcp (no compression)</text>
  <line x1="293" y1="941" x2="307" y2="941" stroke="#60a5fa" stroke-width="1.5" stroke-dasharray="2,3" opacity="0.7"/>
  <line x1="293" y1="953" x2="307" y2="953" stroke="#60a5fa" stroke-width="2.5"/>
  <line x1="293" y1="965" x2="307" y2="965" stroke="#60a5fa" stroke-width="1.5" stroke-dasharray="5,3"/>
  <text x="311" y="945" fill="#374151" font-size="10" font-weight="500">lz4+tcp (no dict)</text>
  <line x1="497" y1="941" x2="511" y2="941" stroke="#1d4ed8" stroke-width="1.5" stroke-dasharray="2,3" opacity="0.7"/>
  <line x1="497" y1="953" x2="511" y2="953" stroke="#1d4ed8" stroke-width="2.5"/>
  <line x1="497" y1="965" x2="511" y2="965" stroke="#1d4ed8" stroke-width="1.5" stroke-dasharray="5,3"/>
  <text x="515" y="945" fill="#374151" font-size="10" font-weight="500">lz4+tcp + 2K dict</text>
  <text x="395.0" y="983" text-anchor="middle" fill="#9ca3af" font-size="9">dotted = sender CPU % linear (left) · solid = aggregate virtual SUB throughput log (inner right) · dashed = msg/s log (outer right)</text>
</svg>
