<svg xmlns="http://www.w3.org/2000/svg" viewBox="0 0 875 1004" font-family="system-ui, -apple-system, sans-serif">
  <rect width="875" height="1004" fill="white"/>
  <text x="395.0" y="16" text-anchor="middle" fill="#111827" font-size="12" font-weight="700">PUB/SUB lz4+tcp: structured JSON, 1 PUB → 32 SUBs (omq-tokio), dict 2K</text>
  <text x="395.0" y="30" text-anchor="middle" fill="#9ca3af" font-size="10">Linux VM on a 2018 Mac Mini, Intel Core i7-8700B @ 3.20GHz, 6 cores, performance governor, turbo off</text>
  <text x="395.0" y="59" text-anchor="middle" fill="#111827" font-size="12" font-weight="700">1 Gbps</text>
  <line x1="90" y1="234.0" x2="700" y2="234.0" stroke="#e5e7eb" stroke-width="1"/>
  <text x="82" y="234.0" text-anchor="end" dominant-baseline="middle" fill="#374151" font-size="9">50%</text>
  <line x1="90" y1="179.0" x2="700" y2="179.0" stroke="#e5e7eb" stroke-width="1"/>
  <text x="82" y="179.0" text-anchor="end" dominant-baseline="middle" fill="#374151" font-size="9">100%</text>
  <line x1="90" y1="124.0" x2="700" y2="124.0" stroke="#e5e7eb" stroke-width="1"/>
  <text x="82" y="124.0" text-anchor="end" dominant-baseline="middle" fill="#374151" font-size="9">150%</text>
  <line x1="90" y1="69.0" x2="700" y2="69.0" stroke="#e5e7eb" stroke-width="1"/>
  <text x="82" y="69.0" text-anchor="end" dominant-baseline="middle" fill="#374151" font-size="9">200%</text>
  <line x1="90" y1="289.0" x2="700" y2="289.0" stroke="#e5e7eb" stroke-width="1" stroke-dasharray="3,6"/>
  <text x="708" y="289.0" text-anchor="start" dominant-baseline="middle" fill="#6b7280" font-size="9">50 MB/s</text>
  <line x1="90" y1="222.8" x2="700" y2="222.8" stroke="#e5e7eb" stroke-width="1" stroke-dasharray="3,6"/>
  <text x="708" y="222.8" text-anchor="start" dominant-baseline="middle" fill="#6b7280" font-size="9">100 MB/s</text>
  <line x1="90" y1="156.5" x2="700" y2="156.5" stroke="#e5e7eb" stroke-width="1" stroke-dasharray="3,6"/>
  <text x="708" y="156.5" text-anchor="start" dominant-baseline="middle" fill="#6b7280" font-size="9">200 MB/s</text>
  <line x1="90" y1="69.0" x2="700" y2="69.0" stroke="#e5e7eb" stroke-width="1" stroke-dasharray="3,6"/>
  <text x="708" y="69.0" text-anchor="start" dominant-baseline="middle" fill="#6b7280" font-size="9">500 MB/s</text>
  <text x="788" y="289.0" text-anchor="start" dominant-baseline="middle" fill="#9ca3af" font-size="9">10/s</text>
  <text x="788" y="274.9" text-anchor="start" dominant-baseline="middle" fill="#9ca3af" font-size="9">20/s</text>
  <text x="788" y="256.3" text-anchor="start" dominant-baseline="middle" fill="#9ca3af" font-size="9">50/s</text>
  <text x="788" y="242.2" text-anchor="start" dominant-baseline="middle" fill="#9ca3af" font-size="9">100/s</text>
  <text x="788" y="228.1" text-anchor="start" dominant-baseline="middle" fill="#9ca3af" font-size="9">200/s</text>
  <text x="788" y="209.5" text-anchor="start" dominant-baseline="middle" fill="#9ca3af" font-size="9">500/s</text>
  <text x="788" y="195.4" text-anchor="start" dominant-baseline="middle" fill="#9ca3af" font-size="9">1K/s</text>
  <text x="788" y="181.3" text-anchor="start" dominant-baseline="middle" fill="#9ca3af" font-size="9">2K/s</text>
  <text x="788" y="162.6" text-anchor="start" dominant-baseline="middle" fill="#9ca3af" font-size="9">5K/s</text>
  <text x="788" y="148.5" text-anchor="start" dominant-baseline="middle" fill="#9ca3af" font-size="9">10K/s</text>
  <text x="788" y="134.4" text-anchor="start" dominant-baseline="middle" fill="#9ca3af" font-size="9">20K/s</text>
  <text x="788" y="115.8" text-anchor="start" dominant-baseline="middle" fill="#9ca3af" font-size="9">50K/s</text>
  <text x="788" y="101.7" text-anchor="start" dominant-baseline="middle" fill="#9ca3af" font-size="9">100K/s</text>
  <text x="788" y="87.6" text-anchor="start" dominant-baseline="middle" fill="#9ca3af" font-size="9">200K/s</text>
  <text x="788" y="69.0" text-anchor="start" dominant-baseline="middle" fill="#9ca3af" font-size="9">500K/s</text>
  <line x1="90.0" y1="69" x2="90.0" y2="289" stroke="#e5e7eb" stroke-width="1"/>
  <line x1="130.7" y1="69" x2="130.7" y2="289" stroke="#e5e7eb" stroke-width="1"/>
  <line x1="171.3" y1="69" x2="171.3" y2="289" stroke="#e5e7eb" stroke-width="1"/>
  <line x1="212.0" y1="69" x2="212.0" y2="289" stroke="#e5e7eb" stroke-width="1"/>
  <line x1="252.7" y1="69" x2="252.7" y2="289" stroke="#e5e7eb" stroke-width="1"/>
  <line x1="293.3" y1="69" x2="293.3" y2="289" stroke="#e5e7eb" stroke-width="1"/>
  <line x1="334.0" y1="69" x2="334.0" y2="289" stroke="#e5e7eb" stroke-width="1"/>
  <line x1="374.7" y1="69" x2="374.7" y2="289" stroke="#e5e7eb" stroke-width="1"/>
  <line x1="415.3" y1="69" x2="415.3" y2="289" stroke="#e5e7eb" stroke-width="1"/>
  <line x1="456.0" y1="69" x2="456.0" y2="289" stroke="#e5e7eb" stroke-width="1"/>
  <line x1="496.7" y1="69" x2="496.7" y2="289" stroke="#e5e7eb" stroke-width="1"/>
  <line x1="537.3" y1="69" x2="537.3" y2="289" stroke="#e5e7eb" stroke-width="1"/>
  <line x1="578.0" y1="69" x2="578.0" y2="289" stroke="#e5e7eb" stroke-width="1"/>
  <line x1="618.7" y1="69" x2="618.7" y2="289" stroke="#e5e7eb" stroke-width="1"/>
  <line x1="659.3" y1="69" x2="659.3" y2="289" stroke="#e5e7eb" stroke-width="1"/>
  <line x1="700.0" y1="69" x2="700.0" y2="289" stroke="#e5e7eb" stroke-width="1"/>
  <line x1="90" y1="69" x2="90" y2="289" stroke="#9ca3af" stroke-width="1.5"/>
  <line x1="700" y1="69" x2="700" y2="289" stroke="#9ca3af" stroke-width="1.5"/>
  <line x1="90" y1="289" x2="700" y2="289" stroke="#9ca3af" stroke-width="1.5"/>
  <line x1="780" y1="69" x2="780" y2="289" stroke="#d1d5db" stroke-width="1"/>
  <text x="90.0" y="303" text-anchor="middle" fill="#374151" font-size="8">8 B</text>
  <text x="130.7" y="303" text-anchor="middle" fill="#374151" font-size="8">16 B</text>
  <text x="171.3" y="303" text-anchor="middle" fill="#374151" font-size="8">32 B</text>
  <text x="212.0" y="303" text-anchor="middle" fill="#374151" font-size="8">64 B</text>
  <text x="252.7" y="303" text-anchor="middle" fill="#374151" font-size="8">128 B</text>
  <text x="293.3" y="303" text-anchor="middle" fill="#374151" font-size="8">256 B</text>
  <text x="334.0" y="303" text-anchor="middle" fill="#374151" font-size="8">512 B</text>
  <text x="374.7" y="303" text-anchor="middle" fill="#374151" font-size="8">1 KiB</text>
  <text x="415.3" y="303" text-anchor="middle" fill="#374151" font-size="8">2 KiB</text>
  <text x="456.0" y="303" text-anchor="middle" fill="#374151" font-size="8">4 KiB</text>
  <text x="496.7" y="303" text-anchor="middle" fill="#374151" font-size="8">8 KiB</text>
  <text x="537.3" y="303" text-anchor="middle" fill="#374151" font-size="8">16 KiB</text>
  <text x="578.0" y="303" text-anchor="middle" fill="#374151" font-size="8">32 KiB</text>
  <text x="618.7" y="303" text-anchor="middle" fill="#374151" font-size="8">64 KiB</text>
  <text x="659.3" y="303" text-anchor="middle" fill="#374151" font-size="8">128 KiB</text>
  <text x="700.0" y="303" text-anchor="middle" fill="#374151" font-size="8">256 KiB</text>
  <text x="40" y="179.0" text-anchor="middle" dominant-baseline="middle" fill="#374151" font-size="10" font-weight="600" transform="rotate(-90,40,179.0)">sender CPU %</text>
  <polyline points="90.0,130.1 130.7,148.9 171.3,206.9 212.0,243.0 252.7,263.5 293.3,266.3 334.0,276.9 374.7,281.3 415.3,283.7 456.0,284.7 496.7,285.2 537.3,285.3 578.0,285.7 618.7,285.9 659.3,285.8 700.0,285.7" fill="none" stroke="#eab308" stroke-width="2" stroke-dasharray="2,3" opacity="0.7"/>
  <polyline points="90.0,130.6 130.7,166.1 171.3,212.0 212.0,243.9 252.7,263.9 293.3,265.1 334.0,273.8 374.7,277.1 415.3,279.8 456.0,281.2 496.7,281.5 537.3,282.2 578.0,282.5 618.7,283.0 659.3,283.2 700.0,283.0" fill="none" stroke="#60a5fa" stroke-width="2" stroke-dasharray="2,3" opacity="0.7"/>
  <polyline points="90.0,130.6 130.7,166.1 171.3,212.0 212.0,198.9 252.7,246.5 293.3,247.0 334.0,259.9 374.7,270.7 415.3,277.4 456.0,279.5 496.7,280.4 537.3,281.5 578.0,282.2 618.7,282.8 659.3,283.1 700.0,283.0" fill="none" stroke="#1d4ed8" stroke-width="2" stroke-dasharray="2,3" opacity="0.7"/>
  <polyline points="90.0,250.6 130.7,201.5 171.3,201.5 212.0,201.5 252.7,201.5 293.3,201.5 334.0,201.5 374.7,201.5 415.3,201.5 456.0,201.5 496.7,201.5 537.3,201.5 578.0,201.5 618.7,201.5 659.3,201.5 700.0,201.5" fill="none" stroke="#eab308" stroke-width="2.0" stroke-linecap="round" stroke-linejoin="round"/>
  <circle cx="90.0" cy="250.6" r="2.2" fill="#eab308" stroke="white" stroke-width="1"/>
  <circle cx="130.7" cy="201.5" r="2.2" fill="#eab308" stroke="white" stroke-width="1"/>
  <circle cx="171.3" cy="201.5" r="2.2" fill="#eab308" stroke="white" stroke-width="1"/>
  <circle cx="212.0" cy="201.5" r="2.2" fill="#eab308" stroke="white" stroke-width="1"/>
  <circle cx="252.7" cy="201.5" r="2.2" fill="#eab308" stroke="white" stroke-width="1"/>
  <circle cx="293.3" cy="201.5" r="2.2" fill="#eab308" stroke="white" stroke-width="1"/>
  <circle cx="334.0" cy="201.5" r="2.2" fill="#eab308" stroke="white" stroke-width="1"/>
  <circle cx="374.7" cy="201.5" r="2.2" fill="#eab308" stroke="white" stroke-width="1"/>
  <circle cx="415.3" cy="201.5" r="2.2" fill="#eab308" stroke="white" stroke-width="1"/>
  <circle cx="456.0" cy="201.5" r="2.2" fill="#eab308" stroke="white" stroke-width="1"/>
  <circle cx="496.7" cy="201.5" r="2.2" fill="#eab308" stroke="white" stroke-width="1"/>
  <circle cx="537.3" cy="201.5" r="2.2" fill="#eab308" stroke="white" stroke-width="1"/>
  <circle cx="578.0" cy="201.5" r="2.2" fill="#eab308" stroke="white" stroke-width="1"/>
  <circle cx="618.7" cy="201.5" r="2.2" fill="#eab308" stroke="white" stroke-width="1"/>
  <circle cx="659.3" cy="201.5" r="2.2" fill="#eab308" stroke="white" stroke-width="1"/>
  <circle cx="700.0" cy="201.5" r="2.2" fill="#eab308" stroke="white" stroke-width="1"/>
  <polyline points="90.0,255.1 130.7,222.8 171.3,212.7 212.0,207.2 252.7,204.4 293.3,202.9 334.0,187.8 374.7,154.7 415.3,136.2 456.0,122.4 496.7,109.6 537.3,97.9 578.0,86.7 618.7,83.8 659.3,81.9 700.0,81.1" fill="none" stroke="#60a5fa" stroke-width="2.0" stroke-linecap="round" stroke-linejoin="round"/>
  <circle cx="90.0" cy="255.1" r="2.2" fill="#60a5fa" stroke="white" stroke-width="1"/>
  <circle cx="130.7" cy="222.8" r="2.2" fill="#60a5fa" stroke="white" stroke-width="1"/>
  <circle cx="171.3" cy="212.7" r="2.2" fill="#60a5fa" stroke="white" stroke-width="1"/>
  <circle cx="212.0" cy="207.2" r="2.2" fill="#60a5fa" stroke="white" stroke-width="1"/>
  <circle cx="252.7" cy="204.4" r="2.2" fill="#60a5fa" stroke="white" stroke-width="1"/>
  <circle cx="293.3" cy="202.9" r="2.2" fill="#60a5fa" stroke="white" stroke-width="1"/>
  <circle cx="334.0" cy="187.8" r="2.2" fill="#60a5fa" stroke="white" stroke-width="1"/>
  <circle cx="374.7" cy="154.7" r="2.2" fill="#60a5fa" stroke="white" stroke-width="1"/>
  <circle cx="415.3" cy="136.2" r="2.2" fill="#60a5fa" stroke="white" stroke-width="1"/>
  <circle cx="456.0" cy="122.4" r="2.2" fill="#60a5fa" stroke="white" stroke-width="1"/>
  <circle cx="496.7" cy="109.6" r="2.2" fill="#60a5fa" stroke="white" stroke-width="1"/>
  <circle cx="537.3" cy="97.9" r="2.2" fill="#60a5fa" stroke="white" stroke-width="1"/>
  <circle cx="578.0" cy="86.7" r="2.2" fill="#60a5fa" stroke="white" stroke-width="1"/>
  <circle cx="618.7" cy="83.8" r="2.2" fill="#60a5fa" stroke="white" stroke-width="1"/>
  <circle cx="659.3" cy="81.9" r="2.2" fill="#60a5fa" stroke="white" stroke-width="1"/>
  <circle cx="700.0" cy="81.1" r="2.2" fill="#60a5fa" stroke="white" stroke-width="1"/>
  <polyline points="90.0,255.1 130.7,222.8 171.3,212.7 212.0,141.0 252.7,154.1 293.3,149.1 334.0,125.4 374.7,113.8 415.3,114.5 456.0,104.1 496.7,96.7 537.3,89.3 578.0,83.6 618.7,82.0 659.3,81.2 700.0,80.5" fill="none" stroke="#1d4ed8" stroke-width="2.0" stroke-linecap="round" stroke-linejoin="round"/>
  <circle cx="90.0" cy="255.1" r="2.2" fill="#1d4ed8" stroke="white" stroke-width="1"/>
  <circle cx="130.7" cy="222.8" r="2.2" fill="#1d4ed8" stroke="white" stroke-width="1"/>
  <circle cx="171.3" cy="212.7" r="2.2" fill="#1d4ed8" stroke="white" stroke-width="1"/>
  <circle cx="212.0" cy="141.0" r="2.2" fill="#1d4ed8" stroke="white" stroke-width="1"/>
  <circle cx="252.7" cy="154.1" r="2.2" fill="#1d4ed8" stroke="white" stroke-width="1"/>
  <circle cx="293.3" cy="149.1" r="2.2" fill="#1d4ed8" stroke="white" stroke-width="1"/>
  <circle cx="334.0" cy="125.4" r="2.2" fill="#1d4ed8" stroke="white" stroke-width="1"/>
  <circle cx="374.7" cy="113.8" r="2.2" fill="#1d4ed8" stroke="white" stroke-width="1"/>
  <circle cx="415.3" cy="114.5" r="2.2" fill="#1d4ed8" stroke="white" stroke-width="1"/>
  <circle cx="456.0" cy="104.1" r="2.2" fill="#1d4ed8" stroke="white" stroke-width="1"/>
  <circle cx="496.7" cy="96.7" r="2.2" fill="#1d4ed8" stroke="white" stroke-width="1"/>
  <circle cx="537.3" cy="89.3" r="2.2" fill="#1d4ed8" stroke="white" stroke-width="1"/>
  <circle cx="578.0" cy="83.6" r="2.2" fill="#1d4ed8" stroke="white" stroke-width="1"/>
  <circle cx="618.7" cy="82.0" r="2.2" fill="#1d4ed8" stroke="white" stroke-width="1"/>
  <circle cx="659.3" cy="81.2" r="2.2" fill="#1d4ed8" stroke="white" stroke-width="1"/>
  <circle cx="700.0" cy="80.5" r="2.2" fill="#1d4ed8" stroke="white" stroke-width="1"/>
  <polyline points="90.0,79.9 130.7,83.6 171.3,97.7 212.0,111.8 252.7,125.9 293.3,140.0 334.0,154.0 374.7,168.1 415.3,182.2 456.0,196.3 496.7,210.4 537.3,224.5 578.0,238.6 618.7,252.7 659.3,266.8 700.0,280.9" fill="none" stroke="#eab308" stroke-width="2.0" stroke-dasharray="5,3"/>
  <polyline points="90.0,80.9 130.7,88.1 171.3,100.1 212.0,113.0 252.7,126.5 293.3,140.3 334.0,151.1 374.7,158.2 415.3,168.4 456.0,179.5 496.7,190.9 537.3,202.5 578.0,214.2 618.7,227.7 659.3,241.3 700.0,255.3" fill="none" stroke="#60a5fa" stroke-width="2.0" stroke-dasharray="5,3"/>
  <polyline points="90.0,80.9 130.7,88.1 171.3,100.1 212.0,98.9 252.7,115.8 293.3,128.8 334.0,137.9 374.7,149.5 415.3,163.7 456.0,175.6 496.7,188.1 537.3,200.6 578.0,213.5 618.7,227.3 659.3,241.2 700.0,255.1" fill="none" stroke="#1d4ed8" stroke-width="2.0" stroke-dasharray="5,3"/>
  <text x="395.0" y="369" text-anchor="middle" fill="#111827" font-size="12" font-weight="700">100 Mbps</text>
  <line x1="90" y1="489.0" x2="700" y2="489.0" stroke="#e5e7eb" stroke-width="1"/>
  <text x="82" y="489.0" text-anchor="end" dominant-baseline="middle" fill="#374151" font-size="9">50%</text>
  <line x1="90" y1="379.0" x2="700" y2="379.0" stroke="#e5e7eb" stroke-width="1"/>
  <text x="82" y="379.0" text-anchor="end" dominant-baseline="middle" fill="#374151" font-size="9">100%</text>
  <line x1="90" y1="599.0" x2="700" y2="599.0" stroke="#e5e7eb" stroke-width="1" stroke-dasharray="3,6"/>
  <text x="708" y="599.0" text-anchor="start" dominant-baseline="middle" fill="#6b7280" font-size="9">5.0 MB/s</text>
  <line x1="90" y1="532.8" x2="700" y2="532.8" stroke="#e5e7eb" stroke-width="1" stroke-dasharray="3,6"/>
  <text x="708" y="532.8" text-anchor="start" dominant-baseline="middle" fill="#6b7280" font-size="9">10 MB/s</text>
  <line x1="90" y1="466.5" x2="700" y2="466.5" stroke="#e5e7eb" stroke-width="1" stroke-dasharray="3,6"/>
  <text x="708" y="466.5" text-anchor="start" dominant-baseline="middle" fill="#6b7280" font-size="9">20 MB/s</text>
  <line x1="90" y1="379.0" x2="700" y2="379.0" stroke="#e5e7eb" stroke-width="1" stroke-dasharray="3,6"/>
  <text x="708" y="379.0" text-anchor="start" dominant-baseline="middle" fill="#6b7280" font-size="9">50 MB/s</text>
  <text x="788" y="599.0" text-anchor="start" dominant-baseline="middle" fill="#9ca3af" font-size="9">1/s</text>
  <text x="788" y="584.9" text-anchor="start" dominant-baseline="middle" fill="#9ca3af" font-size="9">2/s</text>
  <text x="788" y="566.3" text-anchor="start" dominant-baseline="middle" fill="#9ca3af" font-size="9">5/s</text>
  <text x="788" y="552.2" text-anchor="start" dominant-baseline="middle" fill="#9ca3af" font-size="9">10/s</text>
  <text x="788" y="538.1" text-anchor="start" dominant-baseline="middle" fill="#9ca3af" font-size="9">20/s</text>
  <text x="788" y="519.5" text-anchor="start" dominant-baseline="middle" fill="#9ca3af" font-size="9">50/s</text>
  <text x="788" y="505.4" text-anchor="start" dominant-baseline="middle" fill="#9ca3af" font-size="9">100/s</text>
  <text x="788" y="491.3" text-anchor="start" dominant-baseline="middle" fill="#9ca3af" font-size="9">200/s</text>
  <text x="788" y="472.6" text-anchor="start" dominant-baseline="middle" fill="#9ca3af" font-size="9">500/s</text>
  <text x="788" y="458.5" text-anchor="start" dominant-baseline="middle" fill="#9ca3af" font-size="9">1K/s</text>
  <text x="788" y="444.4" text-anchor="start" dominant-baseline="middle" fill="#9ca3af" font-size="9">2K/s</text>
  <text x="788" y="425.8" text-anchor="start" dominant-baseline="middle" fill="#9ca3af" font-size="9">5K/s</text>
  <text x="788" y="411.7" text-anchor="start" dominant-baseline="middle" fill="#9ca3af" font-size="9">10K/s</text>
  <text x="788" y="397.6" text-anchor="start" dominant-baseline="middle" fill="#9ca3af" font-size="9">20K/s</text>
  <text x="788" y="379.0" text-anchor="start" dominant-baseline="middle" fill="#9ca3af" font-size="9">50K/s</text>
  <line x1="90.0" y1="379" x2="90.0" y2="599" stroke="#e5e7eb" stroke-width="1"/>
  <line x1="130.7" y1="379" x2="130.7" y2="599" stroke="#e5e7eb" stroke-width="1"/>
  <line x1="171.3" y1="379" x2="171.3" y2="599" stroke="#e5e7eb" stroke-width="1"/>
  <line x1="212.0" y1="379" x2="212.0" y2="599" stroke="#e5e7eb" stroke-width="1"/>
  <line x1="252.7" y1="379" x2="252.7" y2="599" stroke="#e5e7eb" stroke-width="1"/>
  <line x1="293.3" y1="379" x2="293.3" y2="599" stroke="#e5e7eb" stroke-width="1"/>
  <line x1="334.0" y1="379" x2="334.0" y2="599" stroke="#e5e7eb" stroke-width="1"/>
  <line x1="374.7" y1="379" x2="374.7" y2="599" stroke="#e5e7eb" stroke-width="1"/>
  <line x1="415.3" y1="379" x2="415.3" y2="599" stroke="#e5e7eb" stroke-width="1"/>
  <line x1="456.0" y1="379" x2="456.0" y2="599" stroke="#e5e7eb" stroke-width="1"/>
  <line x1="496.7" y1="379" x2="496.7" y2="599" stroke="#e5e7eb" stroke-width="1"/>
  <line x1="537.3" y1="379" x2="537.3" y2="599" stroke="#e5e7eb" stroke-width="1"/>
  <line x1="578.0" y1="379" x2="578.0" y2="599" stroke="#e5e7eb" stroke-width="1"/>
  <line x1="618.7" y1="379" x2="618.7" y2="599" stroke="#e5e7eb" stroke-width="1"/>
  <line x1="659.3" y1="379" x2="659.3" y2="599" stroke="#e5e7eb" stroke-width="1"/>
  <line x1="700.0" y1="379" x2="700.0" y2="599" stroke="#e5e7eb" stroke-width="1"/>
  <line x1="90" y1="379" x2="90" y2="599" stroke="#9ca3af" stroke-width="1.5"/>
  <line x1="700" y1="379" x2="700" y2="599" stroke="#9ca3af" stroke-width="1.5"/>
  <line x1="90" y1="599" x2="700" y2="599" stroke="#9ca3af" stroke-width="1.5"/>
  <line x1="780" y1="379" x2="780" y2="599" stroke="#d1d5db" stroke-width="1"/>
  <text x="90.0" y="613" text-anchor="middle" fill="#374151" font-size="8">8 B</text>
  <text x="130.7" y="613" text-anchor="middle" fill="#374151" font-size="8">16 B</text>
  <text x="171.3" y="613" text-anchor="middle" fill="#374151" font-size="8">32 B</text>
  <text x="212.0" y="613" text-anchor="middle" fill="#374151" font-size="8">64 B</text>
  <text x="252.7" y="613" text-anchor="middle" fill="#374151" font-size="8">128 B</text>
  <text x="293.3" y="613" text-anchor="middle" fill="#374151" font-size="8">256 B</text>
  <text x="334.0" y="613" text-anchor="middle" fill="#374151" font-size="8">512 B</text>
  <text x="374.7" y="613" text-anchor="middle" fill="#374151" font-size="8">1 KiB</text>
  <text x="415.3" y="613" text-anchor="middle" fill="#374151" font-size="8">2 KiB</text>
  <text x="456.0" y="613" text-anchor="middle" fill="#374151" font-size="8">4 KiB</text>
  <text x="496.7" y="613" text-anchor="middle" fill="#374151" font-size="8">8 KiB</text>
  <text x="537.3" y="613" text-anchor="middle" fill="#374151" font-size="8">16 KiB</text>
  <text x="578.0" y="613" text-anchor="middle" fill="#374151" font-size="8">32 KiB</text>
  <text x="618.7" y="613" text-anchor="middle" fill="#374151" font-size="8">64 KiB</text>
  <text x="659.3" y="613" text-anchor="middle" fill="#374151" font-size="8">128 KiB</text>
  <text x="700.0" y="613" text-anchor="middle" fill="#374151" font-size="8">256 KiB</text>
  <text x="40" y="489.0" text-anchor="middle" dominant-baseline="middle" fill="#374151" font-size="10" font-weight="600" transform="rotate(-90,40,489.0)">sender CPU %</text>
  <polyline points="90.0,545.8 130.7,571.0 171.3,582.6 212.0,589.8 252.7,593.9 293.3,594.5 334.0,596.6 374.7,597.5 415.3,597.9 456.0,598.1 496.7,598.2 537.3,598.3 578.0,598.3 618.7,598.4 659.3,598.4 700.0,598.3" fill="none" stroke="#eab308" stroke-width="2" stroke-dasharray="2,3" opacity="0.7"/>
  <polyline points="90.0,562.0 130.7,574.4 171.3,583.6 212.0,590.0 252.7,594.0 293.3,594.2 334.0,596.0 374.7,596.6 415.3,597.2 456.0,597.4 496.7,597.5 537.3,597.6 578.0,597.7 618.7,597.8 659.3,597.8 700.0,597.8" fill="none" stroke="#60a5fa" stroke-width="2" stroke-dasharray="2,3" opacity="0.7"/>
  <polyline points="90.0,562.0 130.7,574.4 171.3,583.6 212.0,581.0 252.7,590.5 293.3,590.6 334.0,593.2 374.7,595.3 415.3,596.7 456.0,597.1 496.7,597.3 537.3,597.5 578.0,597.6 618.7,597.8 659.3,597.8 700.0,597.8" fill="none" stroke="#1d4ed8" stroke-width="2" stroke-dasharray="2,3" opacity="0.7"/>
  <polyline points="90.0,511.5 130.7,511.5 171.3,511.5 212.0,511.5 252.7,511.5 293.3,511.5 334.0,511.5 374.7,511.5 415.3,511.5 456.0,511.5 496.7,511.5 537.3,511.5 578.0,511.5 618.7,511.5 659.3,511.5 700.0,511.5" fill="none" stroke="#eab308" stroke-width="2.0" stroke-linecap="round" stroke-linejoin="round"/>
  <circle cx="90.0" cy="511.5" r="2.2" fill="#eab308" stroke="white" stroke-width="1"/>
  <circle cx="130.7" cy="511.5" r="2.2" fill="#eab308" stroke="white" stroke-width="1"/>
  <circle cx="171.3" cy="511.5" r="2.2" fill="#eab308" stroke="white" stroke-width="1"/>
  <circle cx="212.0" cy="511.5" r="2.2" fill="#eab308" stroke="white" stroke-width="1"/>
  <circle cx="252.7" cy="511.5" r="2.2" fill="#eab308" stroke="white" stroke-width="1"/>
  <circle cx="293.3" cy="511.5" r="2.2" fill="#eab308" stroke="white" stroke-width="1"/>
  <circle cx="334.0" cy="511.5" r="2.2" fill="#eab308" stroke="white" stroke-width="1"/>
  <circle cx="374.7" cy="511.5" r="2.2" fill="#eab308" stroke="white" stroke-width="1"/>
  <circle cx="415.3" cy="511.5" r="2.2" fill="#eab308" stroke="white" stroke-width="1"/>
  <circle cx="456.0" cy="511.5" r="2.2" fill="#eab308" stroke="white" stroke-width="1"/>
  <circle cx="496.7" cy="511.5" r="2.2" fill="#eab308" stroke="white" stroke-width="1"/>
  <circle cx="537.3" cy="511.5" r="2.2" fill="#eab308" stroke="white" stroke-width="1"/>
  <circle cx="578.0" cy="511.5" r="2.2" fill="#eab308" stroke="white" stroke-width="1"/>
  <circle cx="618.7" cy="511.5" r="2.2" fill="#eab308" stroke="white" stroke-width="1"/>
  <circle cx="659.3" cy="511.5" r="2.2" fill="#eab308" stroke="white" stroke-width="1"/>
  <circle cx="700.0" cy="511.5" r="2.2" fill="#eab308" stroke="white" stroke-width="1"/>
  <polyline points="90.0,550.2 130.7,532.8 171.3,522.7 212.0,517.2 252.7,514.4 293.3,512.9 334.0,497.8 374.7,464.7 415.3,446.2 456.0,432.4 496.7,419.6 537.3,407.9 578.0,396.7 618.7,393.8 659.3,391.9 700.0,391.1" fill="none" stroke="#60a5fa" stroke-width="2.0" stroke-linecap="round" stroke-linejoin="round"/>
  <circle cx="90.0" cy="550.2" r="2.2" fill="#60a5fa" stroke="white" stroke-width="1"/>
  <circle cx="130.7" cy="532.8" r="2.2" fill="#60a5fa" stroke="white" stroke-width="1"/>
  <circle cx="171.3" cy="522.7" r="2.2" fill="#60a5fa" stroke="white" stroke-width="1"/>
  <circle cx="212.0" cy="517.2" r="2.2" fill="#60a5fa" stroke="white" stroke-width="1"/>
  <circle cx="252.7" cy="514.4" r="2.2" fill="#60a5fa" stroke="white" stroke-width="1"/>
  <circle cx="293.3" cy="512.9" r="2.2" fill="#60a5fa" stroke="white" stroke-width="1"/>
  <circle cx="334.0" cy="497.8" r="2.2" fill="#60a5fa" stroke="white" stroke-width="1"/>
  <circle cx="374.7" cy="464.7" r="2.2" fill="#60a5fa" stroke="white" stroke-width="1"/>
  <circle cx="415.3" cy="446.2" r="2.2" fill="#60a5fa" stroke="white" stroke-width="1"/>
  <circle cx="456.0" cy="432.4" r="2.2" fill="#60a5fa" stroke="white" stroke-width="1"/>
  <circle cx="496.7" cy="419.6" r="2.2" fill="#60a5fa" stroke="white" stroke-width="1"/>
  <circle cx="537.3" cy="407.9" r="2.2" fill="#60a5fa" stroke="white" stroke-width="1"/>
  <circle cx="578.0" cy="396.7" r="2.2" fill="#60a5fa" stroke="white" stroke-width="1"/>
  <circle cx="618.7" cy="393.8" r="2.2" fill="#60a5fa" stroke="white" stroke-width="1"/>
  <circle cx="659.3" cy="391.9" r="2.2" fill="#60a5fa" stroke="white" stroke-width="1"/>
  <circle cx="700.0" cy="391.1" r="2.2" fill="#60a5fa" stroke="white" stroke-width="1"/>
  <polyline points="90.0,550.2 130.7,532.8 171.3,522.7 212.0,451.0 252.7,464.1 293.3,459.1 334.0,435.4 374.7,423.8 415.3,424.5 456.0,414.1 496.7,406.7 537.3,399.3 578.0,393.6 618.7,392.0 659.3,391.2 700.0,390.5" fill="none" stroke="#1d4ed8" stroke-width="2.0" stroke-linecap="round" stroke-linejoin="round"/>
  <circle cx="90.0" cy="550.2" r="2.2" fill="#1d4ed8" stroke="white" stroke-width="1"/>
  <circle cx="130.7" cy="532.8" r="2.2" fill="#1d4ed8" stroke="white" stroke-width="1"/>
  <circle cx="171.3" cy="522.7" r="2.2" fill="#1d4ed8" stroke="white" stroke-width="1"/>
  <circle cx="212.0" cy="451.0" r="2.2" fill="#1d4ed8" stroke="white" stroke-width="1"/>
  <circle cx="252.7" cy="464.1" r="2.2" fill="#1d4ed8" stroke="white" stroke-width="1"/>
  <circle cx="293.3" cy="459.1" r="2.2" fill="#1d4ed8" stroke="white" stroke-width="1"/>
  <circle cx="334.0" cy="435.4" r="2.2" fill="#1d4ed8" stroke="white" stroke-width="1"/>
  <circle cx="374.7" cy="423.8" r="2.2" fill="#1d4ed8" stroke="white" stroke-width="1"/>
  <circle cx="415.3" cy="424.5" r="2.2" fill="#1d4ed8" stroke="white" stroke-width="1"/>
  <circle cx="456.0" cy="414.1" r="2.2" fill="#1d4ed8" stroke="white" stroke-width="1"/>
  <circle cx="496.7" cy="406.7" r="2.2" fill="#1d4ed8" stroke="white" stroke-width="1"/>
  <circle cx="537.3" cy="399.3" r="2.2" fill="#1d4ed8" stroke="white" stroke-width="1"/>
  <circle cx="578.0" cy="393.6" r="2.2" fill="#1d4ed8" stroke="white" stroke-width="1"/>
  <circle cx="618.7" cy="392.0" r="2.2" fill="#1d4ed8" stroke="white" stroke-width="1"/>
  <circle cx="659.3" cy="391.2" r="2.2" fill="#1d4ed8" stroke="white" stroke-width="1"/>
  <circle cx="700.0" cy="390.5" r="2.2" fill="#1d4ed8" stroke="white" stroke-width="1"/>
  <polyline points="90.0,379.5 130.7,393.6 171.3,407.7 212.0,421.8 252.7,435.9 293.3,450.0 334.0,464.0 374.7,478.1 415.3,492.2 456.0,506.3 496.7,520.4 537.3,534.5 578.0,548.6 618.7,562.7 659.3,576.8 700.0,590.9" fill="none" stroke="#eab308" stroke-width="2.0" stroke-dasharray="5,3"/>
  <polyline points="90.0,387.7 130.7,398.1 171.3,410.1 212.0,423.0 252.7,436.5 293.3,450.3 334.0,461.1 374.7,468.2 415.3,478.4 456.0,489.5 496.7,500.9 537.3,512.5 578.0,524.2 618.7,537.7 659.3,551.3 700.0,565.3" fill="none" stroke="#60a5fa" stroke-width="2.0" stroke-dasharray="5,3"/>
  <polyline points="90.0,387.7 130.7,398.1 171.3,410.1 212.0,408.9 252.7,425.8 293.3,438.8 334.0,447.9 374.7,459.5 415.3,473.7 456.0,485.6 496.7,498.1 537.3,510.6 578.0,523.5 618.7,537.3 659.3,551.2 700.0,565.1" fill="none" stroke="#1d4ed8" stroke-width="2.0" stroke-dasharray="5,3"/>
  <text x="395.0" y="679" text-anchor="middle" fill="#111827" font-size="12" font-weight="700">10 Mbps</text>
  <line x1="90" y1="799.0" x2="700" y2="799.0" stroke="#e5e7eb" stroke-width="1"/>
  <text x="82" y="799.0" text-anchor="end" dominant-baseline="middle" fill="#374151" font-size="9">50%</text>
  <line x1="90" y1="689.0" x2="700" y2="689.0" stroke="#e5e7eb" stroke-width="1"/>
  <text x="82" y="689.0" text-anchor="end" dominant-baseline="middle" fill="#374151" font-size="9">100%</text>
  <line x1="90" y1="909.0" x2="700" y2="909.0" stroke="#e5e7eb" stroke-width="1" stroke-dasharray="3,6"/>
  <text x="708" y="909.0" text-anchor="start" dominant-baseline="middle" fill="#6b7280" font-size="9">0.5 MB/s</text>
  <line x1="90" y1="842.8" x2="700" y2="842.8" stroke="#e5e7eb" stroke-width="1" stroke-dasharray="3,6"/>
  <text x="708" y="842.8" text-anchor="start" dominant-baseline="middle" fill="#6b7280" font-size="9">1.0 MB/s</text>
  <line x1="90" y1="776.5" x2="700" y2="776.5" stroke="#e5e7eb" stroke-width="1" stroke-dasharray="3,6"/>
  <text x="708" y="776.5" text-anchor="start" dominant-baseline="middle" fill="#6b7280" font-size="9">2.0 MB/s</text>
  <line x1="90" y1="689.0" x2="700" y2="689.0" stroke="#e5e7eb" stroke-width="1" stroke-dasharray="3,6"/>
  <text x="708" y="689.0" text-anchor="start" dominant-baseline="middle" fill="#6b7280" font-size="9">5.0 MB/s</text>
  <text x="788" y="909.0" text-anchor="start" dominant-baseline="middle" fill="#9ca3af" font-size="9">1/s</text>
  <text x="788" y="891.1" text-anchor="start" dominant-baseline="middle" fill="#9ca3af" font-size="9">2/s</text>
  <text x="788" y="867.4" text-anchor="start" dominant-baseline="middle" fill="#9ca3af" font-size="9">5/s</text>
  <text x="788" y="849.5" text-anchor="start" dominant-baseline="middle" fill="#9ca3af" font-size="9">10/s</text>
  <text x="788" y="831.6" text-anchor="start" dominant-baseline="middle" fill="#9ca3af" font-size="9">20/s</text>
  <text x="788" y="808.0" text-anchor="start" dominant-baseline="middle" fill="#9ca3af" font-size="9">50/s</text>
  <text x="788" y="790.0" text-anchor="start" dominant-baseline="middle" fill="#9ca3af" font-size="9">100/s</text>
  <text x="788" y="772.1" text-anchor="start" dominant-baseline="middle" fill="#9ca3af" font-size="9">200/s</text>
  <text x="788" y="748.5" text-anchor="start" dominant-baseline="middle" fill="#9ca3af" font-size="9">500/s</text>
  <text x="788" y="730.6" text-anchor="start" dominant-baseline="middle" fill="#9ca3af" font-size="9">1K/s</text>
  <text x="788" y="712.7" text-anchor="start" dominant-baseline="middle" fill="#9ca3af" font-size="9">2K/s</text>
  <text x="788" y="689.0" text-anchor="start" dominant-baseline="middle" fill="#9ca3af" font-size="9">5K/s</text>
  <line x1="90.0" y1="689" x2="90.0" y2="909" stroke="#e5e7eb" stroke-width="1"/>
  <line x1="130.7" y1="689" x2="130.7" y2="909" stroke="#e5e7eb" stroke-width="1"/>
  <line x1="171.3" y1="689" x2="171.3" y2="909" stroke="#e5e7eb" stroke-width="1"/>
  <line x1="212.0" y1="689" x2="212.0" y2="909" stroke="#e5e7eb" stroke-width="1"/>
  <line x1="252.7" y1="689" x2="252.7" y2="909" stroke="#e5e7eb" stroke-width="1"/>
  <line x1="293.3" y1="689" x2="293.3" y2="909" stroke="#e5e7eb" stroke-width="1"/>
  <line x1="334.0" y1="689" x2="334.0" y2="909" stroke="#e5e7eb" stroke-width="1"/>
  <line x1="374.7" y1="689" x2="374.7" y2="909" stroke="#e5e7eb" stroke-width="1"/>
  <line x1="415.3" y1="689" x2="415.3" y2="909" stroke="#e5e7eb" stroke-width="1"/>
  <line x1="456.0" y1="689" x2="456.0" y2="909" stroke="#e5e7eb" stroke-width="1"/>
  <line x1="496.7" y1="689" x2="496.7" y2="909" stroke="#e5e7eb" stroke-width="1"/>
  <line x1="537.3" y1="689" x2="537.3" y2="909" stroke="#e5e7eb" stroke-width="1"/>
  <line x1="578.0" y1="689" x2="578.0" y2="909" stroke="#e5e7eb" stroke-width="1"/>
  <line x1="618.7" y1="689" x2="618.7" y2="909" stroke="#e5e7eb" stroke-width="1"/>
  <line x1="659.3" y1="689" x2="659.3" y2="909" stroke="#e5e7eb" stroke-width="1"/>
  <line x1="700.0" y1="689" x2="700.0" y2="909" stroke="#e5e7eb" stroke-width="1"/>
  <line x1="90" y1="689" x2="90" y2="909" stroke="#9ca3af" stroke-width="1.5"/>
  <line x1="700" y1="689" x2="700" y2="909" stroke="#9ca3af" stroke-width="1.5"/>
  <line x1="90" y1="909" x2="700" y2="909" stroke="#9ca3af" stroke-width="1.5"/>
  <line x1="780" y1="689" x2="780" y2="909" stroke="#d1d5db" stroke-width="1"/>
  <text x="90.0" y="923" text-anchor="middle" fill="#374151" font-size="8">8 B</text>
  <text x="130.7" y="923" text-anchor="middle" fill="#374151" font-size="8">16 B</text>
  <text x="171.3" y="923" text-anchor="middle" fill="#374151" font-size="8">32 B</text>
  <text x="212.0" y="923" text-anchor="middle" fill="#374151" font-size="8">64 B</text>
  <text x="252.7" y="923" text-anchor="middle" fill="#374151" font-size="8">128 B</text>
  <text x="293.3" y="923" text-anchor="middle" fill="#374151" font-size="8">256 B</text>
  <text x="334.0" y="923" text-anchor="middle" fill="#374151" font-size="8">512 B</text>
  <text x="374.7" y="923" text-anchor="middle" fill="#374151" font-size="8">1 KiB</text>
  <text x="415.3" y="923" text-anchor="middle" fill="#374151" font-size="8">2 KiB</text>
  <text x="456.0" y="923" text-anchor="middle" fill="#374151" font-size="8">4 KiB</text>
  <text x="496.7" y="923" text-anchor="middle" fill="#374151" font-size="8">8 KiB</text>
  <text x="537.3" y="923" text-anchor="middle" fill="#374151" font-size="8">16 KiB</text>
  <text x="578.0" y="923" text-anchor="middle" fill="#374151" font-size="8">32 KiB</text>
  <text x="618.7" y="923" text-anchor="middle" fill="#374151" font-size="8">64 KiB</text>
  <text x="659.3" y="923" text-anchor="middle" fill="#374151" font-size="8">128 KiB</text>
  <text x="700.0" y="923" text-anchor="middle" fill="#374151" font-size="8">256 KiB</text>
  <text x="40" y="799.0" text-anchor="middle" dominant-baseline="middle" fill="#374151" font-size="10" font-weight="600" transform="rotate(-90,40,799.0)">sender CPU %</text>
  <polyline points="90.0,903.7 130.7,906.2 171.3,907.4 212.0,908.1 252.7,908.5 293.3,908.5 334.0,908.8 374.7,908.8 415.3,908.9 456.0,908.9 496.7,908.9 537.3,908.9 578.0,908.9 618.7,908.9 659.3,908.9 700.0,908.9" fill="none" stroke="#eab308" stroke-width="2" stroke-dasharray="2,3" opacity="0.7"/>
  <polyline points="90.0,905.3 130.7,906.5 171.3,907.5 212.0,908.1 252.7,908.5 293.3,908.5 334.0,908.7 374.7,908.8 415.3,908.8 456.0,908.8 496.7,908.9 537.3,908.9 578.0,908.9 618.7,908.9 659.3,908.9 700.0,908.9" fill="none" stroke="#60a5fa" stroke-width="2" stroke-dasharray="2,3" opacity="0.7"/>
  <polyline points="90.0,905.3 130.7,906.5 171.3,907.5 212.0,907.2 252.7,908.2 293.3,908.2 334.0,908.4 374.7,908.6 415.3,908.8 456.0,908.8 496.7,908.8 537.3,908.9 578.0,908.9 618.7,908.9 659.3,908.9 700.0,908.9" fill="none" stroke="#1d4ed8" stroke-width="2" stroke-dasharray="2,3" opacity="0.7"/>
  <polyline points="90.0,821.5 130.7,821.5 171.3,821.5 212.0,821.5 252.7,821.5 293.3,821.5 334.0,821.5 374.7,821.5 415.3,821.5 456.0,821.5 496.7,821.5 537.3,821.5 578.0,821.5 618.7,821.5 659.3,821.5 700.0,821.5" fill="none" stroke="#eab308" stroke-width="2.0" stroke-linecap="round" stroke-linejoin="round"/>
  <circle cx="90.0" cy="821.5" r="2.2" fill="#eab308" stroke="white" stroke-width="1"/>
  <circle cx="130.7" cy="821.5" r="2.2" fill="#eab308" stroke="white" stroke-width="1"/>
  <circle cx="171.3" cy="821.5" r="2.2" fill="#eab308" stroke="white" stroke-width="1"/>
  <circle cx="212.0" cy="821.5" r="2.2" fill="#eab308" stroke="white" stroke-width="1"/>
  <circle cx="252.7" cy="821.5" r="2.2" fill="#eab308" stroke="white" stroke-width="1"/>
  <circle cx="293.3" cy="821.5" r="2.2" fill="#eab308" stroke="white" stroke-width="1"/>
  <circle cx="334.0" cy="821.5" r="2.2" fill="#eab308" stroke="white" stroke-width="1"/>
  <circle cx="374.7" cy="821.5" r="2.2" fill="#eab308" stroke="white" stroke-width="1"/>
  <circle cx="415.3" cy="821.5" r="2.2" fill="#eab308" stroke="white" stroke-width="1"/>
  <circle cx="456.0" cy="821.5" r="2.2" fill="#eab308" stroke="white" stroke-width="1"/>
  <circle cx="496.7" cy="821.5" r="2.2" fill="#eab308" stroke="white" stroke-width="1"/>
  <circle cx="537.3" cy="821.5" r="2.2" fill="#eab308" stroke="white" stroke-width="1"/>
  <circle cx="578.0" cy="821.5" r="2.2" fill="#eab308" stroke="white" stroke-width="1"/>
  <circle cx="618.7" cy="821.5" r="2.2" fill="#eab308" stroke="white" stroke-width="1"/>
  <circle cx="659.3" cy="821.5" r="2.2" fill="#eab308" stroke="white" stroke-width="1"/>
  <circle cx="700.0" cy="821.5" r="2.2" fill="#eab308" stroke="white" stroke-width="1"/>
  <polyline points="90.0,860.2 130.7,842.8 171.3,832.7 212.0,827.2 252.7,824.4 293.3,822.9 334.0,807.8 374.7,774.7 415.3,756.2 456.0,742.4 496.7,729.6 537.3,717.9 578.0,706.7 618.7,703.8 659.3,701.9 700.0,701.1" fill="none" stroke="#60a5fa" stroke-width="2.0" stroke-linecap="round" stroke-linejoin="round"/>
  <circle cx="90.0" cy="860.2" r="2.2" fill="#60a5fa" stroke="white" stroke-width="1"/>
  <circle cx="130.7" cy="842.8" r="2.2" fill="#60a5fa" stroke="white" stroke-width="1"/>
  <circle cx="171.3" cy="832.7" r="2.2" fill="#60a5fa" stroke="white" stroke-width="1"/>
  <circle cx="212.0" cy="827.2" r="2.2" fill="#60a5fa" stroke="white" stroke-width="1"/>
  <circle cx="252.7" cy="824.4" r="2.2" fill="#60a5fa" stroke="white" stroke-width="1"/>
  <circle cx="293.3" cy="822.9" r="2.2" fill="#60a5fa" stroke="white" stroke-width="1"/>
  <circle cx="334.0" cy="807.8" r="2.2" fill="#60a5fa" stroke="white" stroke-width="1"/>
  <circle cx="374.7" cy="774.7" r="2.2" fill="#60a5fa" stroke="white" stroke-width="1"/>
  <circle cx="415.3" cy="756.2" r="2.2" fill="#60a5fa" stroke="white" stroke-width="1"/>
  <circle cx="456.0" cy="742.4" r="2.2" fill="#60a5fa" stroke="white" stroke-width="1"/>
  <circle cx="496.7" cy="729.6" r="2.2" fill="#60a5fa" stroke="white" stroke-width="1"/>
  <circle cx="537.3" cy="717.9" r="2.2" fill="#60a5fa" stroke="white" stroke-width="1"/>
  <circle cx="578.0" cy="706.7" r="2.2" fill="#60a5fa" stroke="white" stroke-width="1"/>
  <circle cx="618.7" cy="703.8" r="2.2" fill="#60a5fa" stroke="white" stroke-width="1"/>
  <circle cx="659.3" cy="701.9" r="2.2" fill="#60a5fa" stroke="white" stroke-width="1"/>
  <circle cx="700.0" cy="701.1" r="2.2" fill="#60a5fa" stroke="white" stroke-width="1"/>
  <polyline points="90.0,860.2 130.7,842.8 171.3,832.7 212.0,761.0 252.7,774.1 293.3,769.1 334.0,745.4 374.7,733.8 415.3,734.5 456.0,724.1 496.7,716.7 537.3,709.3 578.0,703.6 618.7,702.0 659.3,701.2 700.0,700.5" fill="none" stroke="#1d4ed8" stroke-width="2.0" stroke-linecap="round" stroke-linejoin="round"/>
  <circle cx="90.0" cy="860.2" r="2.2" fill="#1d4ed8" stroke="white" stroke-width="1"/>
  <circle cx="130.7" cy="842.8" r="2.2" fill="#1d4ed8" stroke="white" stroke-width="1"/>
  <circle cx="171.3" cy="832.7" r="2.2" fill="#1d4ed8" stroke="white" stroke-width="1"/>
  <circle cx="212.0" cy="761.0" r="2.2" fill="#1d4ed8" stroke="white" stroke-width="1"/>
  <circle cx="252.7" cy="774.1" r="2.2" fill="#1d4ed8" stroke="white" stroke-width="1"/>
  <circle cx="293.3" cy="769.1" r="2.2" fill="#1d4ed8" stroke="white" stroke-width="1"/>
  <circle cx="334.0" cy="745.4" r="2.2" fill="#1d4ed8" stroke="white" stroke-width="1"/>
  <circle cx="374.7" cy="733.8" r="2.2" fill="#1d4ed8" stroke="white" stroke-width="1"/>
  <circle cx="415.3" cy="734.5" r="2.2" fill="#1d4ed8" stroke="white" stroke-width="1"/>
  <circle cx="456.0" cy="724.1" r="2.2" fill="#1d4ed8" stroke="white" stroke-width="1"/>
  <circle cx="496.7" cy="716.7" r="2.2" fill="#1d4ed8" stroke="white" stroke-width="1"/>
  <circle cx="537.3" cy="709.3" r="2.2" fill="#1d4ed8" stroke="white" stroke-width="1"/>
  <circle cx="578.0" cy="703.6" r="2.2" fill="#1d4ed8" stroke="white" stroke-width="1"/>
  <circle cx="618.7" cy="702.0" r="2.2" fill="#1d4ed8" stroke="white" stroke-width="1"/>
  <circle cx="659.3" cy="701.2" r="2.2" fill="#1d4ed8" stroke="white" stroke-width="1"/>
  <circle cx="700.0" cy="700.5" r="2.2" fill="#1d4ed8" stroke="white" stroke-width="1"/>
  <polyline points="90.0,689.6 130.7,707.5 171.3,725.4 212.0,743.3 252.7,761.2 293.3,779.1 334.0,797.0 374.7,814.9 415.3,832.8 456.0,850.7 496.7,868.7 537.3,886.6 578.0,904.5 618.7,909.0 659.3,909.0 700.0,909.0" fill="none" stroke="#eab308" stroke-width="2.0" stroke-dasharray="5,3"/>
  <polyline points="90.0,700.1 130.7,713.3 171.3,728.5 212.0,744.9 252.7,762.0 293.3,779.5 334.0,793.4 374.7,802.3 415.3,815.2 456.0,829.4 496.7,843.8 537.3,858.5 578.0,873.5 618.7,890.6 659.3,907.9 700.0,909.0" fill="none" stroke="#60a5fa" stroke-width="2.0" stroke-dasharray="5,3"/>
  <polyline points="90.0,700.1 130.7,713.3 171.3,728.5 212.0,727.0 252.7,748.4 293.3,765.0 334.0,776.5 374.7,791.2 415.3,809.3 456.0,824.4 496.7,840.3 537.3,856.2 578.0,872.6 618.7,890.1 659.3,907.7 700.0,909.0" fill="none" stroke="#1d4ed8" stroke-width="2.0" stroke-dasharray="5,3"/>
  <line x1="90" y1="941" x2="104" y2="941" stroke="#eab308" stroke-width="1.5" stroke-dasharray="2,3" opacity="0.7"/>
  <line x1="90" y1="953" x2="104" y2="953" stroke="#eab308" stroke-width="2.0"/>
  <line x1="90" y1="965" x2="104" y2="965" stroke="#eab308" stroke-width="2.0" stroke-dasharray="5,3"/>
  <text x="108" y="945" fill="#374151" font-size="10" font-weight="500">tcp (no compression)</text>
  <line x1="293" y1="941" x2="307" y2="941" stroke="#60a5fa" stroke-width="1.5" stroke-dasharray="2,3" opacity="0.7"/>
  <line x1="293" y1="953" x2="307" y2="953" stroke="#60a5fa" stroke-width="2.0"/>
  <line x1="293" y1="965" x2="307" y2="965" stroke="#60a5fa" stroke-width="2.0" stroke-dasharray="5,3"/>
  <text x="311" y="945" fill="#374151" font-size="10" font-weight="500">lz4+tcp (no dict)</text>
  <line x1="497" y1="941" x2="511" y2="941" stroke="#1d4ed8" stroke-width="1.5" stroke-dasharray="2,3" opacity="0.7"/>
  <line x1="497" y1="953" x2="511" y2="953" stroke="#1d4ed8" stroke-width="2.0"/>
  <line x1="497" y1="965" x2="511" y2="965" stroke="#1d4ed8" stroke-width="2.0" stroke-dasharray="5,3"/>
  <text x="515" y="945" fill="#374151" font-size="10" font-weight="500">lz4+tcp + 2K dict</text>
  <text x="395.0" y="983" text-anchor="middle" fill="#9ca3af" font-size="9">dotted = sender CPU % linear (left) · solid = aggregate virtual SUB throughput log (inner right) · dashed = msg/s log (outer right)</text>
</svg>
