<svg xmlns="http://www.w3.org/2000/svg" viewBox="0 0 875 1004" font-family="system-ui, -apple-system, sans-serif">
  <rect width="875" height="1004" fill="white"/>
  <text x="395.0" y="16" text-anchor="middle" fill="#111827" font-size="12" font-weight="700">PUB/SUB lz4+tcp: structured JSON, 1 PUB → 32 SUBs (omq-tokio), dict 2K</text>
  <text x="395.0" y="30" text-anchor="middle" fill="#9ca3af" font-size="10">Linux VM on a 2018 Mac Mini, Intel Core i7-8700B @ 3.20GHz, 6 cores, performance governor, turbo off</text>
  <text x="395.0" y="59" text-anchor="middle" fill="#111827" font-size="12" font-weight="700">1 Gbps</text>
  <line x1="90" y1="234.0" x2="700" y2="234.0" stroke="#e5e7eb" stroke-width="1"/>
  <text x="82" y="234.0" text-anchor="end" dominant-baseline="middle" fill="#374151" font-size="9">50%</text>
  <line x1="90" y1="179.0" x2="700" y2="179.0" stroke="#e5e7eb" stroke-width="1"/>
  <text x="82" y="179.0" text-anchor="end" dominant-baseline="middle" fill="#374151" font-size="9">100%</text>
  <line x1="90" y1="124.0" x2="700" y2="124.0" stroke="#e5e7eb" stroke-width="1"/>
  <text x="82" y="124.0" text-anchor="end" dominant-baseline="middle" fill="#374151" font-size="9">150%</text>
  <line x1="90" y1="69.0" x2="700" y2="69.0" stroke="#e5e7eb" stroke-width="1"/>
  <text x="82" y="69.0" text-anchor="end" dominant-baseline="middle" fill="#374151" font-size="9">200%</text>
  <line x1="90" y1="289.0" x2="700" y2="289.0" stroke="#e5e7eb" stroke-width="1" stroke-dasharray="3,6"/>
  <text x="708" y="289.0" text-anchor="start" dominant-baseline="middle" fill="#6b7280" font-size="9">10 MB/s</text>
  <line x1="90" y1="260.2" x2="700" y2="260.2" stroke="#e5e7eb" stroke-width="1" stroke-dasharray="3,6"/>
  <text x="708" y="260.2" text-anchor="start" dominant-baseline="middle" fill="#6b7280" font-size="9">20 MB/s</text>
  <line x1="90" y1="222.2" x2="700" y2="222.2" stroke="#e5e7eb" stroke-width="1" stroke-dasharray="3,6"/>
  <text x="708" y="222.2" text-anchor="start" dominant-baseline="middle" fill="#6b7280" font-size="9">50 MB/s</text>
  <line x1="90" y1="193.4" x2="700" y2="193.4" stroke="#e5e7eb" stroke-width="1" stroke-dasharray="3,6"/>
  <text x="708" y="193.4" text-anchor="start" dominant-baseline="middle" fill="#6b7280" font-size="9">100 MB/s</text>
  <line x1="90" y1="164.6" x2="700" y2="164.6" stroke="#e5e7eb" stroke-width="1" stroke-dasharray="3,6"/>
  <text x="708" y="164.6" text-anchor="start" dominant-baseline="middle" fill="#6b7280" font-size="9">200 MB/s</text>
  <line x1="90" y1="126.6" x2="700" y2="126.6" stroke="#e5e7eb" stroke-width="1" stroke-dasharray="3,6"/>
  <text x="708" y="126.6" text-anchor="start" dominant-baseline="middle" fill="#6b7280" font-size="9">500 MB/s</text>
  <line x1="90" y1="97.8" x2="700" y2="97.8" stroke="#e5e7eb" stroke-width="1" stroke-dasharray="3,6"/>
  <text x="708" y="97.8" text-anchor="start" dominant-baseline="middle" fill="#6b7280" font-size="9">1000 MB/s</text>
  <line x1="90" y1="69.0" x2="700" y2="69.0" stroke="#e5e7eb" stroke-width="1" stroke-dasharray="3,6"/>
  <text x="708" y="69.0" text-anchor="start" dominant-baseline="middle" fill="#6b7280" font-size="9">2.0 GB/s</text>
  <text x="788" y="289.0" text-anchor="start" dominant-baseline="middle" fill="#9ca3af" font-size="9">10/s</text>
  <text x="788" y="272.4" text-anchor="start" dominant-baseline="middle" fill="#9ca3af" font-size="9">20/s</text>
  <text x="788" y="250.6" text-anchor="start" dominant-baseline="middle" fill="#9ca3af" font-size="9">50/s</text>
  <text x="788" y="234.0" text-anchor="start" dominant-baseline="middle" fill="#9ca3af" font-size="9">100/s</text>
  <text x="788" y="217.4" text-anchor="start" dominant-baseline="middle" fill="#9ca3af" font-size="9">200/s</text>
  <text x="788" y="195.6" text-anchor="start" dominant-baseline="middle" fill="#9ca3af" font-size="9">500/s</text>
  <text x="788" y="179.0" text-anchor="start" dominant-baseline="middle" fill="#9ca3af" font-size="9">1K/s</text>
  <text x="788" y="162.4" text-anchor="start" dominant-baseline="middle" fill="#9ca3af" font-size="9">2K/s</text>
  <text x="788" y="140.6" text-anchor="start" dominant-baseline="middle" fill="#9ca3af" font-size="9">5K/s</text>
  <text x="788" y="124.0" text-anchor="start" dominant-baseline="middle" fill="#9ca3af" font-size="9">10K/s</text>
  <text x="788" y="107.4" text-anchor="start" dominant-baseline="middle" fill="#9ca3af" font-size="9">20K/s</text>
  <text x="788" y="85.6" text-anchor="start" dominant-baseline="middle" fill="#9ca3af" font-size="9">50K/s</text>
  <text x="788" y="69.0" text-anchor="start" dominant-baseline="middle" fill="#9ca3af" font-size="9">100K/s</text>
  <line x1="90.0" y1="69" x2="90.0" y2="289" stroke="#e5e7eb" stroke-width="1"/>
  <line x1="130.7" y1="69" x2="130.7" y2="289" stroke="#e5e7eb" stroke-width="1"/>
  <line x1="171.3" y1="69" x2="171.3" y2="289" stroke="#e5e7eb" stroke-width="1"/>
  <line x1="212.0" y1="69" x2="212.0" y2="289" stroke="#e5e7eb" stroke-width="1"/>
  <line x1="252.7" y1="69" x2="252.7" y2="289" stroke="#e5e7eb" stroke-width="1"/>
  <line x1="293.3" y1="69" x2="293.3" y2="289" stroke="#e5e7eb" stroke-width="1"/>
  <line x1="334.0" y1="69" x2="334.0" y2="289" stroke="#e5e7eb" stroke-width="1"/>
  <line x1="374.7" y1="69" x2="374.7" y2="289" stroke="#e5e7eb" stroke-width="1"/>
  <line x1="415.3" y1="69" x2="415.3" y2="289" stroke="#e5e7eb" stroke-width="1"/>
  <line x1="456.0" y1="69" x2="456.0" y2="289" stroke="#e5e7eb" stroke-width="1"/>
  <line x1="496.7" y1="69" x2="496.7" y2="289" stroke="#e5e7eb" stroke-width="1"/>
  <line x1="537.3" y1="69" x2="537.3" y2="289" stroke="#e5e7eb" stroke-width="1"/>
  <line x1="578.0" y1="69" x2="578.0" y2="289" stroke="#e5e7eb" stroke-width="1"/>
  <line x1="618.7" y1="69" x2="618.7" y2="289" stroke="#e5e7eb" stroke-width="1"/>
  <line x1="659.3" y1="69" x2="659.3" y2="289" stroke="#e5e7eb" stroke-width="1"/>
  <line x1="700.0" y1="69" x2="700.0" y2="289" stroke="#e5e7eb" stroke-width="1"/>
  <line x1="90" y1="69" x2="90" y2="289" stroke="#9ca3af" stroke-width="1.5"/>
  <line x1="700" y1="69" x2="700" y2="289" stroke="#9ca3af" stroke-width="1.5"/>
  <line x1="90" y1="289" x2="700" y2="289" stroke="#9ca3af" stroke-width="1.5"/>
  <line x1="780" y1="69" x2="780" y2="289" stroke="#d1d5db" stroke-width="1"/>
  <text x="90.0" y="303" text-anchor="middle" fill="#374151" font-size="8">8 B</text>
  <text x="130.7" y="303" text-anchor="middle" fill="#374151" font-size="8">16 B</text>
  <text x="171.3" y="303" text-anchor="middle" fill="#374151" font-size="8">32 B</text>
  <text x="212.0" y="303" text-anchor="middle" fill="#374151" font-size="8">64 B</text>
  <text x="252.7" y="303" text-anchor="middle" fill="#374151" font-size="8">128 B</text>
  <text x="293.3" y="303" text-anchor="middle" fill="#374151" font-size="8">256 B</text>
  <text x="334.0" y="303" text-anchor="middle" fill="#374151" font-size="8">512 B</text>
  <text x="374.7" y="303" text-anchor="middle" fill="#374151" font-size="8">1 KiB</text>
  <text x="415.3" y="303" text-anchor="middle" fill="#374151" font-size="8">2 KiB</text>
  <text x="456.0" y="303" text-anchor="middle" fill="#374151" font-size="8">4 KiB</text>
  <text x="496.7" y="303" text-anchor="middle" fill="#374151" font-size="8">8 KiB</text>
  <text x="537.3" y="303" text-anchor="middle" fill="#374151" font-size="8">16 KiB</text>
  <text x="578.0" y="303" text-anchor="middle" fill="#374151" font-size="8">32 KiB</text>
  <text x="618.7" y="303" text-anchor="middle" fill="#374151" font-size="8">64 KiB</text>
  <text x="659.3" y="303" text-anchor="middle" fill="#374151" font-size="8">128 KiB</text>
  <text x="700.0" y="303" text-anchor="middle" fill="#374151" font-size="8">256 KiB</text>
  <text x="40" y="179.0" text-anchor="middle" dominant-baseline="middle" fill="#374151" font-size="10" font-weight="600" transform="rotate(-90,40,179.0)">sender CPU %</text>
  <polyline points="90.0,135.0 130.7,135.6 171.3,135.6 212.0,133.9 252.7,206.7 293.3,239.3 334.0,259.1 374.7,271.4 415.3,278.7 456.0,282.6 496.7,283.8 537.3,285.1 578.0,285.7 618.7,286.1 659.3,285.2 700.0,285.8" fill="none" stroke="#eab308" stroke-width="2" stroke-dasharray="2,3" opacity="0.7"/>
  <polyline points="90.0,138.9 130.7,136.7 171.3,137.2 212.0,132.8 252.7,205.4 293.3,238.9 334.0,249.9 374.7,258.6 415.3,267.5 456.0,274.0 496.7,278.0 537.3,280.9 578.0,282.8 618.7,283.2 659.3,283.8 700.0,283.8" fill="none" stroke="#60a5fa" stroke-width="2" stroke-dasharray="2,3" opacity="0.7"/>
  <polyline points="90.0,138.9 130.7,136.7 171.3,137.2 212.0,132.8 252.7,134.5 293.3,133.4 334.0,135.6 374.7,133.9 415.3,172.5 456.0,259.2 496.7,273.5 537.3,279.3 578.0,282.2 618.7,283.0 659.3,283.7 700.0,283.7" fill="none" stroke="#1d4ed8" stroke-width="2" stroke-dasharray="2,3" opacity="0.7"/>
  <polyline points="90.0,273.2 130.7,245.8 171.3,217.1 212.0,199.8 252.7,184.1 293.3,184.1 334.0,184.1 374.7,184.1 415.3,184.1 456.0,184.1 496.7,184.1 537.3,184.1 578.0,184.1 618.7,184.1 659.3,184.1 700.0,184.1" fill="none" stroke="#eab308" stroke-width="2.5" stroke-linecap="round" stroke-linejoin="round"/>
  <circle cx="90.0" cy="273.2" r="2.5" fill="#eab308" stroke="white" stroke-width="1"/>
  <circle cx="130.7" cy="245.8" r="2.5" fill="#eab308" stroke="white" stroke-width="1"/>
  <circle cx="171.3" cy="217.1" r="2.5" fill="#eab308" stroke="white" stroke-width="1"/>
  <circle cx="212.0" cy="199.8" r="2.5" fill="#eab308" stroke="white" stroke-width="1"/>
  <circle cx="252.7" cy="184.1" r="2.5" fill="#eab308" stroke="white" stroke-width="1"/>
  <circle cx="293.3" cy="184.1" r="2.5" fill="#eab308" stroke="white" stroke-width="1"/>
  <circle cx="334.0" cy="184.1" r="2.5" fill="#eab308" stroke="white" stroke-width="1"/>
  <circle cx="374.7" cy="184.1" r="2.5" fill="#eab308" stroke="white" stroke-width="1"/>
  <circle cx="415.3" cy="184.1" r="2.5" fill="#eab308" stroke="white" stroke-width="1"/>
  <circle cx="456.0" cy="184.1" r="2.5" fill="#eab308" stroke="white" stroke-width="1"/>
  <circle cx="496.7" cy="184.1" r="2.5" fill="#eab308" stroke="white" stroke-width="1"/>
  <circle cx="537.3" cy="184.1" r="2.5" fill="#eab308" stroke="white" stroke-width="1"/>
  <circle cx="578.0" cy="184.1" r="2.5" fill="#eab308" stroke="white" stroke-width="1"/>
  <circle cx="618.7" cy="184.1" r="2.5" fill="#eab308" stroke="white" stroke-width="1"/>
  <circle cx="659.3" cy="184.1" r="2.5" fill="#eab308" stroke="white" stroke-width="1"/>
  <circle cx="700.0" cy="184.1" r="2.5" fill="#eab308" stroke="white" stroke-width="1"/>
  <polyline points="90.0,275.6 130.7,246.9 171.3,218.5 212.0,197.9 252.7,185.4 293.3,184.8 334.0,170.0 374.7,158.9 415.3,146.3 456.0,138.2 496.7,130.7 537.3,126.1 578.0,123.3 618.7,122.0 659.3,121.8 700.0,121.5" fill="none" stroke="#60a5fa" stroke-width="2.5" stroke-linecap="round" stroke-linejoin="round"/>
  <circle cx="90.0" cy="275.6" r="2.5" fill="#60a5fa" stroke="white" stroke-width="1"/>
  <circle cx="130.7" cy="246.9" r="2.5" fill="#60a5fa" stroke="white" stroke-width="1"/>
  <circle cx="171.3" cy="218.5" r="2.5" fill="#60a5fa" stroke="white" stroke-width="1"/>
  <circle cx="212.0" cy="197.9" r="2.5" fill="#60a5fa" stroke="white" stroke-width="1"/>
  <circle cx="252.7" cy="185.4" r="2.5" fill="#60a5fa" stroke="white" stroke-width="1"/>
  <circle cx="293.3" cy="184.8" r="2.5" fill="#60a5fa" stroke="white" stroke-width="1"/>
  <circle cx="334.0" cy="170.0" r="2.5" fill="#60a5fa" stroke="white" stroke-width="1"/>
  <circle cx="374.7" cy="158.9" r="2.5" fill="#60a5fa" stroke="white" stroke-width="1"/>
  <circle cx="415.3" cy="146.3" r="2.5" fill="#60a5fa" stroke="white" stroke-width="1"/>
  <circle cx="456.0" cy="138.2" r="2.5" fill="#60a5fa" stroke="white" stroke-width="1"/>
  <circle cx="496.7" cy="130.7" r="2.5" fill="#60a5fa" stroke="white" stroke-width="1"/>
  <circle cx="537.3" cy="126.1" r="2.5" fill="#60a5fa" stroke="white" stroke-width="1"/>
  <circle cx="578.0" cy="123.3" r="2.5" fill="#60a5fa" stroke="white" stroke-width="1"/>
  <circle cx="618.7" cy="122.0" r="2.5" fill="#60a5fa" stroke="white" stroke-width="1"/>
  <circle cx="659.3" cy="121.8" r="2.5" fill="#60a5fa" stroke="white" stroke-width="1"/>
  <circle cx="700.0" cy="121.5" r="2.5" fill="#60a5fa" stroke="white" stroke-width="1"/>
  <polyline points="90.0,275.6 130.7,246.9 171.3,218.5 212.0,197.9 252.7,159.9 293.3,137.7 334.0,113.2 374.7,91.3 415.3,76.1 456.0,109.6 496.7,116.4 537.3,118.5 578.0,119.3 618.7,120.2 659.3,120.9 700.0,121.1" fill="none" stroke="#1d4ed8" stroke-width="2.5" stroke-linecap="round" stroke-linejoin="round"/>
  <circle cx="90.0" cy="275.6" r="2.5" fill="#1d4ed8" stroke="white" stroke-width="1"/>
  <circle cx="130.7" cy="246.9" r="2.5" fill="#1d4ed8" stroke="white" stroke-width="1"/>
  <circle cx="171.3" cy="218.5" r="2.5" fill="#1d4ed8" stroke="white" stroke-width="1"/>
  <circle cx="212.0" cy="197.9" r="2.5" fill="#1d4ed8" stroke="white" stroke-width="1"/>
  <circle cx="252.7" cy="159.9" r="2.5" fill="#1d4ed8" stroke="white" stroke-width="1"/>
  <circle cx="293.3" cy="137.7" r="2.5" fill="#1d4ed8" stroke="white" stroke-width="1"/>
  <circle cx="334.0" cy="113.2" r="2.5" fill="#1d4ed8" stroke="white" stroke-width="1"/>
  <circle cx="374.7" cy="91.3" r="2.5" fill="#1d4ed8" stroke="white" stroke-width="1"/>
  <circle cx="415.3" cy="76.1" r="2.5" fill="#1d4ed8" stroke="white" stroke-width="1"/>
  <circle cx="456.0" cy="109.6" r="2.5" fill="#1d4ed8" stroke="white" stroke-width="1"/>
  <circle cx="496.7" cy="116.4" r="2.5" fill="#1d4ed8" stroke="white" stroke-width="1"/>
  <circle cx="537.3" cy="118.5" r="2.5" fill="#1d4ed8" stroke="white" stroke-width="1"/>
  <circle cx="578.0" cy="119.3" r="2.5" fill="#1d4ed8" stroke="white" stroke-width="1"/>
  <circle cx="618.7" cy="120.2" r="2.5" fill="#1d4ed8" stroke="white" stroke-width="1"/>
  <circle cx="659.3" cy="120.9" r="2.5" fill="#1d4ed8" stroke="white" stroke-width="1"/>
  <circle cx="700.0" cy="121.1" r="2.5" fill="#1d4ed8" stroke="white" stroke-width="1"/>
  <polyline points="90.0,82.4 130.7,83.2 171.3,83.2 212.0,89.8 252.7,97.3 293.3,113.9 334.0,130.5 374.7,147.0 415.3,163.6 456.0,180.1 496.7,196.7 537.3,213.2 578.0,229.8 618.7,246.4 659.3,262.9 700.0,279.5" fill="none" stroke="#eab308" stroke-width="1.5" stroke-dasharray="5,3"/>
  <polyline points="90.0,83.7 130.7,83.8 171.3,84.0 212.0,88.7 252.7,98.1 293.3,114.3 334.0,122.3 374.7,132.5 415.3,141.8 456.0,153.7 496.7,165.9 537.3,179.9 578.0,194.8 618.7,210.6 659.3,227.1 700.0,243.5" fill="none" stroke="#60a5fa" stroke-width="1.5" stroke-dasharray="5,3"/>
  <polyline points="90.0,83.7 130.7,83.8 171.3,84.0 212.0,88.7 252.7,83.4 293.3,87.2 334.0,89.7 374.7,93.6 415.3,101.5 456.0,137.2 496.7,157.7 537.3,175.5 578.0,192.5 618.7,209.6 659.3,226.5 700.0,243.2" fill="none" stroke="#1d4ed8" stroke-width="1.5" stroke-dasharray="5,3"/>
  <text x="395.0" y="369" text-anchor="middle" fill="#111827" font-size="12" font-weight="700">100 Mbps</text>
  <line x1="90" y1="544.0" x2="700" y2="544.0" stroke="#e5e7eb" stroke-width="1"/>
  <text x="82" y="544.0" text-anchor="end" dominant-baseline="middle" fill="#374151" font-size="9">50%</text>
  <line x1="90" y1="489.0" x2="700" y2="489.0" stroke="#e5e7eb" stroke-width="1"/>
  <text x="82" y="489.0" text-anchor="end" dominant-baseline="middle" fill="#374151" font-size="9">100%</text>
  <line x1="90" y1="434.0" x2="700" y2="434.0" stroke="#e5e7eb" stroke-width="1"/>
  <text x="82" y="434.0" text-anchor="end" dominant-baseline="middle" fill="#374151" font-size="9">150%</text>
  <line x1="90" y1="379.0" x2="700" y2="379.0" stroke="#e5e7eb" stroke-width="1"/>
  <text x="82" y="379.0" text-anchor="end" dominant-baseline="middle" fill="#374151" font-size="9">200%</text>
  <line x1="90" y1="599.0" x2="700" y2="599.0" stroke="#e5e7eb" stroke-width="1" stroke-dasharray="3,6"/>
  <text x="708" y="599.0" text-anchor="start" dominant-baseline="middle" fill="#6b7280" font-size="9">5.0 MB/s</text>
  <line x1="90" y1="565.9" x2="700" y2="565.9" stroke="#e5e7eb" stroke-width="1" stroke-dasharray="3,6"/>
  <text x="708" y="565.9" text-anchor="start" dominant-baseline="middle" fill="#6b7280" font-size="9">10 MB/s</text>
  <line x1="90" y1="532.8" x2="700" y2="532.8" stroke="#e5e7eb" stroke-width="1" stroke-dasharray="3,6"/>
  <text x="708" y="532.8" text-anchor="start" dominant-baseline="middle" fill="#6b7280" font-size="9">20 MB/s</text>
  <line x1="90" y1="489.0" x2="700" y2="489.0" stroke="#e5e7eb" stroke-width="1" stroke-dasharray="3,6"/>
  <text x="708" y="489.0" text-anchor="start" dominant-baseline="middle" fill="#6b7280" font-size="9">50 MB/s</text>
  <line x1="90" y1="455.9" x2="700" y2="455.9" stroke="#e5e7eb" stroke-width="1" stroke-dasharray="3,6"/>
  <text x="708" y="455.9" text-anchor="start" dominant-baseline="middle" fill="#6b7280" font-size="9">100 MB/s</text>
  <line x1="90" y1="422.8" x2="700" y2="422.8" stroke="#e5e7eb" stroke-width="1" stroke-dasharray="3,6"/>
  <text x="708" y="422.8" text-anchor="start" dominant-baseline="middle" fill="#6b7280" font-size="9">200 MB/s</text>
  <line x1="90" y1="379.0" x2="700" y2="379.0" stroke="#e5e7eb" stroke-width="1" stroke-dasharray="3,6"/>
  <text x="708" y="379.0" text-anchor="start" dominant-baseline="middle" fill="#6b7280" font-size="9">500 MB/s</text>
  <text x="788" y="599.0" text-anchor="start" dominant-baseline="middle" fill="#9ca3af" font-size="9">1/s</text>
  <text x="788" y="584.9" text-anchor="start" dominant-baseline="middle" fill="#9ca3af" font-size="9">2/s</text>
  <text x="788" y="566.3" text-anchor="start" dominant-baseline="middle" fill="#9ca3af" font-size="9">5/s</text>
  <text x="788" y="552.2" text-anchor="start" dominant-baseline="middle" fill="#9ca3af" font-size="9">10/s</text>
  <text x="788" y="538.1" text-anchor="start" dominant-baseline="middle" fill="#9ca3af" font-size="9">20/s</text>
  <text x="788" y="519.5" text-anchor="start" dominant-baseline="middle" fill="#9ca3af" font-size="9">50/s</text>
  <text x="788" y="505.4" text-anchor="start" dominant-baseline="middle" fill="#9ca3af" font-size="9">100/s</text>
  <text x="788" y="491.3" text-anchor="start" dominant-baseline="middle" fill="#9ca3af" font-size="9">200/s</text>
  <text x="788" y="472.6" text-anchor="start" dominant-baseline="middle" fill="#9ca3af" font-size="9">500/s</text>
  <text x="788" y="458.5" text-anchor="start" dominant-baseline="middle" fill="#9ca3af" font-size="9">1K/s</text>
  <text x="788" y="444.4" text-anchor="start" dominant-baseline="middle" fill="#9ca3af" font-size="9">2K/s</text>
  <text x="788" y="425.8" text-anchor="start" dominant-baseline="middle" fill="#9ca3af" font-size="9">5K/s</text>
  <text x="788" y="411.7" text-anchor="start" dominant-baseline="middle" fill="#9ca3af" font-size="9">10K/s</text>
  <text x="788" y="397.6" text-anchor="start" dominant-baseline="middle" fill="#9ca3af" font-size="9">20K/s</text>
  <text x="788" y="379.0" text-anchor="start" dominant-baseline="middle" fill="#9ca3af" font-size="9">50K/s</text>
  <line x1="90.0" y1="379" x2="90.0" y2="599" stroke="#e5e7eb" stroke-width="1"/>
  <line x1="130.7" y1="379" x2="130.7" y2="599" stroke="#e5e7eb" stroke-width="1"/>
  <line x1="171.3" y1="379" x2="171.3" y2="599" stroke="#e5e7eb" stroke-width="1"/>
  <line x1="212.0" y1="379" x2="212.0" y2="599" stroke="#e5e7eb" stroke-width="1"/>
  <line x1="252.7" y1="379" x2="252.7" y2="599" stroke="#e5e7eb" stroke-width="1"/>
  <line x1="293.3" y1="379" x2="293.3" y2="599" stroke="#e5e7eb" stroke-width="1"/>
  <line x1="334.0" y1="379" x2="334.0" y2="599" stroke="#e5e7eb" stroke-width="1"/>
  <line x1="374.7" y1="379" x2="374.7" y2="599" stroke="#e5e7eb" stroke-width="1"/>
  <line x1="415.3" y1="379" x2="415.3" y2="599" stroke="#e5e7eb" stroke-width="1"/>
  <line x1="456.0" y1="379" x2="456.0" y2="599" stroke="#e5e7eb" stroke-width="1"/>
  <line x1="496.7" y1="379" x2="496.7" y2="599" stroke="#e5e7eb" stroke-width="1"/>
  <line x1="537.3" y1="379" x2="537.3" y2="599" stroke="#e5e7eb" stroke-width="1"/>
  <line x1="578.0" y1="379" x2="578.0" y2="599" stroke="#e5e7eb" stroke-width="1"/>
  <line x1="618.7" y1="379" x2="618.7" y2="599" stroke="#e5e7eb" stroke-width="1"/>
  <line x1="659.3" y1="379" x2="659.3" y2="599" stroke="#e5e7eb" stroke-width="1"/>
  <line x1="700.0" y1="379" x2="700.0" y2="599" stroke="#e5e7eb" stroke-width="1"/>
  <line x1="90" y1="379" x2="90" y2="599" stroke="#9ca3af" stroke-width="1.5"/>
  <line x1="700" y1="379" x2="700" y2="599" stroke="#9ca3af" stroke-width="1.5"/>
  <line x1="90" y1="599" x2="700" y2="599" stroke="#9ca3af" stroke-width="1.5"/>
  <line x1="780" y1="379" x2="780" y2="599" stroke="#d1d5db" stroke-width="1"/>
  <text x="90.0" y="613" text-anchor="middle" fill="#374151" font-size="8">8 B</text>
  <text x="130.7" y="613" text-anchor="middle" fill="#374151" font-size="8">16 B</text>
  <text x="171.3" y="613" text-anchor="middle" fill="#374151" font-size="8">32 B</text>
  <text x="212.0" y="613" text-anchor="middle" fill="#374151" font-size="8">64 B</text>
  <text x="252.7" y="613" text-anchor="middle" fill="#374151" font-size="8">128 B</text>
  <text x="293.3" y="613" text-anchor="middle" fill="#374151" font-size="8">256 B</text>
  <text x="334.0" y="613" text-anchor="middle" fill="#374151" font-size="8">512 B</text>
  <text x="374.7" y="613" text-anchor="middle" fill="#374151" font-size="8">1 KiB</text>
  <text x="415.3" y="613" text-anchor="middle" fill="#374151" font-size="8">2 KiB</text>
  <text x="456.0" y="613" text-anchor="middle" fill="#374151" font-size="8">4 KiB</text>
  <text x="496.7" y="613" text-anchor="middle" fill="#374151" font-size="8">8 KiB</text>
  <text x="537.3" y="613" text-anchor="middle" fill="#374151" font-size="8">16 KiB</text>
  <text x="578.0" y="613" text-anchor="middle" fill="#374151" font-size="8">32 KiB</text>
  <text x="618.7" y="613" text-anchor="middle" fill="#374151" font-size="8">64 KiB</text>
  <text x="659.3" y="613" text-anchor="middle" fill="#374151" font-size="8">128 KiB</text>
  <text x="700.0" y="613" text-anchor="middle" fill="#374151" font-size="8">256 KiB</text>
  <text x="40" y="489.0" text-anchor="middle" dominant-baseline="middle" fill="#374151" font-size="10" font-weight="600" transform="rotate(-90,40,489.0)">sender CPU %</text>
  <polyline points="90.0,467.5 130.7,531.2 171.3,565.0 212.0,576.4 252.7,590.8 293.3,594.0 334.0,596.0 374.7,597.2 415.3,598.0 456.0,598.4 496.7,598.5 537.3,598.6 578.0,598.7 618.7,598.7 659.3,598.6 700.0,598.7" fill="none" stroke="#eab308" stroke-width="2" stroke-dasharray="2,3" opacity="0.7"/>
  <polyline points="90.0,508.5 130.7,543.8 171.3,568.1 212.0,578.5 252.7,590.6 293.3,594.0 334.0,595.1 374.7,596.0 415.3,596.9 456.0,597.5 496.7,597.9 537.3,598.2 578.0,598.4 618.7,598.4 659.3,598.5 700.0,598.5" fill="none" stroke="#60a5fa" stroke-width="2" stroke-dasharray="2,3" opacity="0.7"/>
  <polyline points="90.0,508.5 130.7,543.8 171.3,568.1 212.0,552.6 252.7,562.2 293.3,555.6 334.0,553.0 374.7,559.5 415.3,587.4 456.0,596.0 496.7,597.5 537.3,598.0 578.0,598.3 618.7,598.4 659.3,598.5 700.0,598.5" fill="none" stroke="#1d4ed8" stroke-width="2" stroke-dasharray="2,3" opacity="0.7"/>
  <polyline points="90.0,555.2 130.7,555.2 171.3,555.2 212.0,555.2 252.7,555.2 293.3,555.2 334.0,555.2 374.7,555.2 415.3,555.2 456.0,555.2 496.7,555.2 537.3,555.2 578.0,555.2 618.7,555.2 659.3,555.2 700.0,555.2" fill="none" stroke="#eab308" stroke-width="2.5" stroke-linecap="round" stroke-linejoin="round"/>
  <circle cx="90.0" cy="555.2" r="2.5" fill="#eab308" stroke="white" stroke-width="1"/>
  <circle cx="130.7" cy="555.2" r="2.5" fill="#eab308" stroke="white" stroke-width="1"/>
  <circle cx="171.3" cy="555.2" r="2.5" fill="#eab308" stroke="white" stroke-width="1"/>
  <circle cx="212.0" cy="555.2" r="2.5" fill="#eab308" stroke="white" stroke-width="1"/>
  <circle cx="252.7" cy="555.2" r="2.5" fill="#eab308" stroke="white" stroke-width="1"/>
  <circle cx="293.3" cy="555.2" r="2.5" fill="#eab308" stroke="white" stroke-width="1"/>
  <circle cx="334.0" cy="555.2" r="2.5" fill="#eab308" stroke="white" stroke-width="1"/>
  <circle cx="374.7" cy="555.2" r="2.5" fill="#eab308" stroke="white" stroke-width="1"/>
  <circle cx="415.3" cy="555.2" r="2.5" fill="#eab308" stroke="white" stroke-width="1"/>
  <circle cx="456.0" cy="555.2" r="2.5" fill="#eab308" stroke="white" stroke-width="1"/>
  <circle cx="496.7" cy="555.2" r="2.5" fill="#eab308" stroke="white" stroke-width="1"/>
  <circle cx="537.3" cy="555.2" r="2.5" fill="#eab308" stroke="white" stroke-width="1"/>
  <circle cx="578.0" cy="555.2" r="2.5" fill="#eab308" stroke="white" stroke-width="1"/>
  <circle cx="618.7" cy="555.2" r="2.5" fill="#eab308" stroke="white" stroke-width="1"/>
  <circle cx="659.3" cy="555.2" r="2.5" fill="#eab308" stroke="white" stroke-width="1"/>
  <circle cx="700.0" cy="555.2" r="2.5" fill="#eab308" stroke="white" stroke-width="1"/>
  <polyline points="90.0,574.6 130.7,565.9 171.3,560.9 212.0,558.1 252.7,556.7 293.3,556.0 334.0,538.9 374.7,526.2 415.3,511.7 456.0,502.3 496.7,493.7 537.3,488.5 578.0,485.2 618.7,483.8 659.3,483.5 700.0,483.2" fill="none" stroke="#60a5fa" stroke-width="2.5" stroke-linecap="round" stroke-linejoin="round"/>
  <circle cx="90.0" cy="574.6" r="2.5" fill="#60a5fa" stroke="white" stroke-width="1"/>
  <circle cx="130.7" cy="565.9" r="2.5" fill="#60a5fa" stroke="white" stroke-width="1"/>
  <circle cx="171.3" cy="560.9" r="2.5" fill="#60a5fa" stroke="white" stroke-width="1"/>
  <circle cx="212.0" cy="558.1" r="2.5" fill="#60a5fa" stroke="white" stroke-width="1"/>
  <circle cx="252.7" cy="556.7" r="2.5" fill="#60a5fa" stroke="white" stroke-width="1"/>
  <circle cx="293.3" cy="556.0" r="2.5" fill="#60a5fa" stroke="white" stroke-width="1"/>
  <circle cx="334.0" cy="538.9" r="2.5" fill="#60a5fa" stroke="white" stroke-width="1"/>
  <circle cx="374.7" cy="526.2" r="2.5" fill="#60a5fa" stroke="white" stroke-width="1"/>
  <circle cx="415.3" cy="511.7" r="2.5" fill="#60a5fa" stroke="white" stroke-width="1"/>
  <circle cx="456.0" cy="502.3" r="2.5" fill="#60a5fa" stroke="white" stroke-width="1"/>
  <circle cx="496.7" cy="493.7" r="2.5" fill="#60a5fa" stroke="white" stroke-width="1"/>
  <circle cx="537.3" cy="488.5" r="2.5" fill="#60a5fa" stroke="white" stroke-width="1"/>
  <circle cx="578.0" cy="485.2" r="2.5" fill="#60a5fa" stroke="white" stroke-width="1"/>
  <circle cx="618.7" cy="483.8" r="2.5" fill="#60a5fa" stroke="white" stroke-width="1"/>
  <circle cx="659.3" cy="483.5" r="2.5" fill="#60a5fa" stroke="white" stroke-width="1"/>
  <circle cx="700.0" cy="483.2" r="2.5" fill="#60a5fa" stroke="white" stroke-width="1"/>
  <polyline points="90.0,574.6 130.7,565.9 171.3,560.9 212.0,519.0 252.7,485.9 293.3,452.8 334.0,421.3 374.7,403.8 415.3,431.0 456.0,469.4 496.7,477.3 537.3,479.7 578.0,480.7 618.7,481.7 659.3,482.5 700.0,482.7" fill="none" stroke="#1d4ed8" stroke-width="2.5" stroke-linecap="round" stroke-linejoin="round"/>
  <circle cx="90.0" cy="574.6" r="2.5" fill="#1d4ed8" stroke="white" stroke-width="1"/>
  <circle cx="130.7" cy="565.9" r="2.5" fill="#1d4ed8" stroke="white" stroke-width="1"/>
  <circle cx="171.3" cy="560.9" r="2.5" fill="#1d4ed8" stroke="white" stroke-width="1"/>
  <circle cx="212.0" cy="519.0" r="2.5" fill="#1d4ed8" stroke="white" stroke-width="1"/>
  <circle cx="252.7" cy="485.9" r="2.5" fill="#1d4ed8" stroke="white" stroke-width="1"/>
  <circle cx="293.3" cy="452.8" r="2.5" fill="#1d4ed8" stroke="white" stroke-width="1"/>
  <circle cx="334.0" cy="421.3" r="2.5" fill="#1d4ed8" stroke="white" stroke-width="1"/>
  <circle cx="374.7" cy="403.8" r="2.5" fill="#1d4ed8" stroke="white" stroke-width="1"/>
  <circle cx="415.3" cy="431.0" r="2.5" fill="#1d4ed8" stroke="white" stroke-width="1"/>
  <circle cx="456.0" cy="469.4" r="2.5" fill="#1d4ed8" stroke="white" stroke-width="1"/>
  <circle cx="496.7" cy="477.3" r="2.5" fill="#1d4ed8" stroke="white" stroke-width="1"/>
  <circle cx="537.3" cy="479.7" r="2.5" fill="#1d4ed8" stroke="white" stroke-width="1"/>
  <circle cx="578.0" cy="480.7" r="2.5" fill="#1d4ed8" stroke="white" stroke-width="1"/>
  <circle cx="618.7" cy="481.7" r="2.5" fill="#1d4ed8" stroke="white" stroke-width="1"/>
  <circle cx="659.3" cy="482.5" r="2.5" fill="#1d4ed8" stroke="white" stroke-width="1"/>
  <circle cx="700.0" cy="482.7" r="2.5" fill="#1d4ed8" stroke="white" stroke-width="1"/>
  <polyline points="90.0,379.5 130.7,393.6 171.3,407.7 212.0,421.8 252.7,435.9 293.3,450.0 334.0,464.0 374.7,478.1 415.3,492.2 456.0,506.3 496.7,520.4 537.3,534.5 578.0,548.6 618.7,562.7 659.3,576.8 700.0,590.9" fill="none" stroke="#eab308" stroke-width="1.5" stroke-dasharray="5,3"/>
  <polyline points="90.0,387.7 130.7,398.1 171.3,410.1 212.0,423.0 252.7,436.5 293.3,450.3 334.0,457.1 374.7,465.8 415.3,473.7 456.0,483.8 496.7,494.2 537.3,506.1 578.0,518.8 618.7,532.3 659.3,546.3 700.0,560.2" fill="none" stroke="#60a5fa" stroke-width="1.5" stroke-dasharray="5,3"/>
  <polyline points="90.0,387.7 130.7,398.1 171.3,410.1 212.0,406.4 252.7,406.4 293.3,406.4 334.0,407.0 374.7,413.7 415.3,439.4 456.0,469.8 496.7,487.2 537.3,502.4 578.0,516.9 618.7,531.4 659.3,545.8 700.0,560.0" fill="none" stroke="#1d4ed8" stroke-width="1.5" stroke-dasharray="5,3"/>
  <text x="395.0" y="679" text-anchor="middle" fill="#111827" font-size="12" font-weight="700">10 Mbps</text>
  <line x1="90" y1="799.0" x2="700" y2="799.0" stroke="#e5e7eb" stroke-width="1"/>
  <text x="82" y="799.0" text-anchor="end" dominant-baseline="middle" fill="#374151" font-size="9">50%</text>
  <line x1="90" y1="689.0" x2="700" y2="689.0" stroke="#e5e7eb" stroke-width="1"/>
  <text x="82" y="689.0" text-anchor="end" dominant-baseline="middle" fill="#374151" font-size="9">100%</text>
  <line x1="90" y1="909.0" x2="700" y2="909.0" stroke="#e5e7eb" stroke-width="1" stroke-dasharray="3,6"/>
  <text x="708" y="909.0" text-anchor="start" dominant-baseline="middle" fill="#6b7280" font-size="9">0.5 MB/s</text>
  <line x1="90" y1="875.9" x2="700" y2="875.9" stroke="#e5e7eb" stroke-width="1" stroke-dasharray="3,6"/>
  <text x="708" y="875.9" text-anchor="start" dominant-baseline="middle" fill="#6b7280" font-size="9">1.0 MB/s</text>
  <line x1="90" y1="842.8" x2="700" y2="842.8" stroke="#e5e7eb" stroke-width="1" stroke-dasharray="3,6"/>
  <text x="708" y="842.8" text-anchor="start" dominant-baseline="middle" fill="#6b7280" font-size="9">2.0 MB/s</text>
  <line x1="90" y1="799.0" x2="700" y2="799.0" stroke="#e5e7eb" stroke-width="1" stroke-dasharray="3,6"/>
  <text x="708" y="799.0" text-anchor="start" dominant-baseline="middle" fill="#6b7280" font-size="9">5.0 MB/s</text>
  <line x1="90" y1="765.9" x2="700" y2="765.9" stroke="#e5e7eb" stroke-width="1" stroke-dasharray="3,6"/>
  <text x="708" y="765.9" text-anchor="start" dominant-baseline="middle" fill="#6b7280" font-size="9">10 MB/s</text>
  <line x1="90" y1="732.8" x2="700" y2="732.8" stroke="#e5e7eb" stroke-width="1" stroke-dasharray="3,6"/>
  <text x="708" y="732.8" text-anchor="start" dominant-baseline="middle" fill="#6b7280" font-size="9">20 MB/s</text>
  <line x1="90" y1="689.0" x2="700" y2="689.0" stroke="#e5e7eb" stroke-width="1" stroke-dasharray="3,6"/>
  <text x="708" y="689.0" text-anchor="start" dominant-baseline="middle" fill="#6b7280" font-size="9">50 MB/s</text>
  <text x="788" y="909.0" text-anchor="start" dominant-baseline="middle" fill="#9ca3af" font-size="9">1/s</text>
  <text x="788" y="891.1" text-anchor="start" dominant-baseline="middle" fill="#9ca3af" font-size="9">2/s</text>
  <text x="788" y="867.4" text-anchor="start" dominant-baseline="middle" fill="#9ca3af" font-size="9">5/s</text>
  <text x="788" y="849.5" text-anchor="start" dominant-baseline="middle" fill="#9ca3af" font-size="9">10/s</text>
  <text x="788" y="831.6" text-anchor="start" dominant-baseline="middle" fill="#9ca3af" font-size="9">20/s</text>
  <text x="788" y="808.0" text-anchor="start" dominant-baseline="middle" fill="#9ca3af" font-size="9">50/s</text>
  <text x="788" y="790.0" text-anchor="start" dominant-baseline="middle" fill="#9ca3af" font-size="9">100/s</text>
  <text x="788" y="772.1" text-anchor="start" dominant-baseline="middle" fill="#9ca3af" font-size="9">200/s</text>
  <text x="788" y="748.5" text-anchor="start" dominant-baseline="middle" fill="#9ca3af" font-size="9">500/s</text>
  <text x="788" y="730.6" text-anchor="start" dominant-baseline="middle" fill="#9ca3af" font-size="9">1K/s</text>
  <text x="788" y="712.7" text-anchor="start" dominant-baseline="middle" fill="#9ca3af" font-size="9">2K/s</text>
  <text x="788" y="689.0" text-anchor="start" dominant-baseline="middle" fill="#9ca3af" font-size="9">5K/s</text>
  <line x1="90.0" y1="689" x2="90.0" y2="909" stroke="#e5e7eb" stroke-width="1"/>
  <line x1="130.7" y1="689" x2="130.7" y2="909" stroke="#e5e7eb" stroke-width="1"/>
  <line x1="171.3" y1="689" x2="171.3" y2="909" stroke="#e5e7eb" stroke-width="1"/>
  <line x1="212.0" y1="689" x2="212.0" y2="909" stroke="#e5e7eb" stroke-width="1"/>
  <line x1="252.7" y1="689" x2="252.7" y2="909" stroke="#e5e7eb" stroke-width="1"/>
  <line x1="293.3" y1="689" x2="293.3" y2="909" stroke="#e5e7eb" stroke-width="1"/>
  <line x1="334.0" y1="689" x2="334.0" y2="909" stroke="#e5e7eb" stroke-width="1"/>
  <line x1="374.7" y1="689" x2="374.7" y2="909" stroke="#e5e7eb" stroke-width="1"/>
  <line x1="415.3" y1="689" x2="415.3" y2="909" stroke="#e5e7eb" stroke-width="1"/>
  <line x1="456.0" y1="689" x2="456.0" y2="909" stroke="#e5e7eb" stroke-width="1"/>
  <line x1="496.7" y1="689" x2="496.7" y2="909" stroke="#e5e7eb" stroke-width="1"/>
  <line x1="537.3" y1="689" x2="537.3" y2="909" stroke="#e5e7eb" stroke-width="1"/>
  <line x1="578.0" y1="689" x2="578.0" y2="909" stroke="#e5e7eb" stroke-width="1"/>
  <line x1="618.7" y1="689" x2="618.7" y2="909" stroke="#e5e7eb" stroke-width="1"/>
  <line x1="659.3" y1="689" x2="659.3" y2="909" stroke="#e5e7eb" stroke-width="1"/>
  <line x1="700.0" y1="689" x2="700.0" y2="909" stroke="#e5e7eb" stroke-width="1"/>
  <line x1="90" y1="689" x2="90" y2="909" stroke="#9ca3af" stroke-width="1.5"/>
  <line x1="700" y1="689" x2="700" y2="909" stroke="#9ca3af" stroke-width="1.5"/>
  <line x1="90" y1="909" x2="700" y2="909" stroke="#9ca3af" stroke-width="1.5"/>
  <line x1="780" y1="689" x2="780" y2="909" stroke="#d1d5db" stroke-width="1"/>
  <text x="90.0" y="923" text-anchor="middle" fill="#374151" font-size="8">8 B</text>
  <text x="130.7" y="923" text-anchor="middle" fill="#374151" font-size="8">16 B</text>
  <text x="171.3" y="923" text-anchor="middle" fill="#374151" font-size="8">32 B</text>
  <text x="212.0" y="923" text-anchor="middle" fill="#374151" font-size="8">64 B</text>
  <text x="252.7" y="923" text-anchor="middle" fill="#374151" font-size="8">128 B</text>
  <text x="293.3" y="923" text-anchor="middle" fill="#374151" font-size="8">256 B</text>
  <text x="334.0" y="923" text-anchor="middle" fill="#374151" font-size="8">512 B</text>
  <text x="374.7" y="923" text-anchor="middle" fill="#374151" font-size="8">1 KiB</text>
  <text x="415.3" y="923" text-anchor="middle" fill="#374151" font-size="8">2 KiB</text>
  <text x="456.0" y="923" text-anchor="middle" fill="#374151" font-size="8">4 KiB</text>
  <text x="496.7" y="923" text-anchor="middle" fill="#374151" font-size="8">8 KiB</text>
  <text x="537.3" y="923" text-anchor="middle" fill="#374151" font-size="8">16 KiB</text>
  <text x="578.0" y="923" text-anchor="middle" fill="#374151" font-size="8">32 KiB</text>
  <text x="618.7" y="923" text-anchor="middle" fill="#374151" font-size="8">64 KiB</text>
  <text x="659.3" y="923" text-anchor="middle" fill="#374151" font-size="8">128 KiB</text>
  <text x="700.0" y="923" text-anchor="middle" fill="#374151" font-size="8">256 KiB</text>
  <text x="40" y="799.0" text-anchor="middle" dominant-baseline="middle" fill="#374151" font-size="10" font-weight="600" transform="rotate(-90,40,799.0)">sender CPU %</text>
  <polyline points="90.0,882.7 130.7,895.4 171.3,902.2 212.0,904.5 252.7,907.4 293.3,908.0 334.0,908.4 374.7,908.6 415.3,908.8 456.0,908.9 496.7,908.9 537.3,908.9 578.0,908.9 618.7,908.9 659.3,908.9 700.0,908.9" fill="none" stroke="#eab308" stroke-width="2" stroke-dasharray="2,3" opacity="0.7"/>
  <polyline points="90.0,890.9 130.7,898.0 171.3,902.8 212.0,904.9 252.7,907.3 293.3,908.0 334.0,908.2 374.7,908.4 415.3,908.6 456.0,908.7 496.7,908.8 537.3,908.8 578.0,908.9 618.7,908.9 659.3,908.9 700.0,908.9" fill="none" stroke="#60a5fa" stroke-width="2" stroke-dasharray="2,3" opacity="0.7"/>
  <polyline points="90.0,890.9 130.7,898.0 171.3,902.8 212.0,899.7 252.7,901.6 293.3,900.3 334.0,899.8 374.7,901.1 415.3,906.7 456.0,908.4 496.7,908.7 537.3,908.8 578.0,908.9 618.7,908.9 659.3,908.9 700.0,908.9" fill="none" stroke="#1d4ed8" stroke-width="2" stroke-dasharray="2,3" opacity="0.7"/>
  <polyline points="90.0,865.2 130.7,865.2 171.3,865.2 212.0,865.2 252.7,865.2 293.3,865.2 334.0,865.2 374.7,865.2 415.3,865.2 456.0,865.2 496.7,865.2 537.3,865.2 578.0,865.2 618.7,865.2 659.3,865.2 700.0,865.2" fill="none" stroke="#eab308" stroke-width="2.5" stroke-linecap="round" stroke-linejoin="round"/>
  <circle cx="90.0" cy="865.2" r="2.5" fill="#eab308" stroke="white" stroke-width="1"/>
  <circle cx="130.7" cy="865.2" r="2.5" fill="#eab308" stroke="white" stroke-width="1"/>
  <circle cx="171.3" cy="865.2" r="2.5" fill="#eab308" stroke="white" stroke-width="1"/>
  <circle cx="212.0" cy="865.2" r="2.5" fill="#eab308" stroke="white" stroke-width="1"/>
  <circle cx="252.7" cy="865.2" r="2.5" fill="#eab308" stroke="white" stroke-width="1"/>
  <circle cx="293.3" cy="865.2" r="2.5" fill="#eab308" stroke="white" stroke-width="1"/>
  <circle cx="334.0" cy="865.2" r="2.5" fill="#eab308" stroke="white" stroke-width="1"/>
  <circle cx="374.7" cy="865.2" r="2.5" fill="#eab308" stroke="white" stroke-width="1"/>
  <circle cx="415.3" cy="865.2" r="2.5" fill="#eab308" stroke="white" stroke-width="1"/>
  <circle cx="456.0" cy="865.2" r="2.5" fill="#eab308" stroke="white" stroke-width="1"/>
  <circle cx="496.7" cy="865.2" r="2.5" fill="#eab308" stroke="white" stroke-width="1"/>
  <circle cx="537.3" cy="865.2" r="2.5" fill="#eab308" stroke="white" stroke-width="1"/>
  <circle cx="578.0" cy="865.2" r="2.5" fill="#eab308" stroke="white" stroke-width="1"/>
  <circle cx="618.7" cy="865.2" r="2.5" fill="#eab308" stroke="white" stroke-width="1"/>
  <circle cx="659.3" cy="865.2" r="2.5" fill="#eab308" stroke="white" stroke-width="1"/>
  <circle cx="700.0" cy="865.2" r="2.5" fill="#eab308" stroke="white" stroke-width="1"/>
  <polyline points="90.0,884.6 130.7,875.9 171.3,870.9 212.0,868.1 252.7,866.7 293.3,866.0 334.0,848.9 374.7,836.2 415.3,821.7 456.0,812.3 496.7,803.7 537.3,798.5 578.0,795.2 618.7,793.8 659.3,793.5 700.0,793.2" fill="none" stroke="#60a5fa" stroke-width="2.5" stroke-linecap="round" stroke-linejoin="round"/>
  <circle cx="90.0" cy="884.6" r="2.5" fill="#60a5fa" stroke="white" stroke-width="1"/>
  <circle cx="130.7" cy="875.9" r="2.5" fill="#60a5fa" stroke="white" stroke-width="1"/>
  <circle cx="171.3" cy="870.9" r="2.5" fill="#60a5fa" stroke="white" stroke-width="1"/>
  <circle cx="212.0" cy="868.1" r="2.5" fill="#60a5fa" stroke="white" stroke-width="1"/>
  <circle cx="252.7" cy="866.7" r="2.5" fill="#60a5fa" stroke="white" stroke-width="1"/>
  <circle cx="293.3" cy="866.0" r="2.5" fill="#60a5fa" stroke="white" stroke-width="1"/>
  <circle cx="334.0" cy="848.9" r="2.5" fill="#60a5fa" stroke="white" stroke-width="1"/>
  <circle cx="374.7" cy="836.2" r="2.5" fill="#60a5fa" stroke="white" stroke-width="1"/>
  <circle cx="415.3" cy="821.7" r="2.5" fill="#60a5fa" stroke="white" stroke-width="1"/>
  <circle cx="456.0" cy="812.3" r="2.5" fill="#60a5fa" stroke="white" stroke-width="1"/>
  <circle cx="496.7" cy="803.7" r="2.5" fill="#60a5fa" stroke="white" stroke-width="1"/>
  <circle cx="537.3" cy="798.5" r="2.5" fill="#60a5fa" stroke="white" stroke-width="1"/>
  <circle cx="578.0" cy="795.2" r="2.5" fill="#60a5fa" stroke="white" stroke-width="1"/>
  <circle cx="618.7" cy="793.8" r="2.5" fill="#60a5fa" stroke="white" stroke-width="1"/>
  <circle cx="659.3" cy="793.5" r="2.5" fill="#60a5fa" stroke="white" stroke-width="1"/>
  <circle cx="700.0" cy="793.2" r="2.5" fill="#60a5fa" stroke="white" stroke-width="1"/>
  <polyline points="90.0,884.6 130.7,875.9 171.3,870.9 212.0,829.0 252.7,795.9 293.3,762.8 334.0,731.3 374.7,713.8 415.3,741.0 456.0,779.4 496.7,787.3 537.3,789.7 578.0,790.7 618.7,791.7 659.3,792.5 700.0,792.7" fill="none" stroke="#1d4ed8" stroke-width="2.5" stroke-linecap="round" stroke-linejoin="round"/>
  <circle cx="90.0" cy="884.6" r="2.5" fill="#1d4ed8" stroke="white" stroke-width="1"/>
  <circle cx="130.7" cy="875.9" r="2.5" fill="#1d4ed8" stroke="white" stroke-width="1"/>
  <circle cx="171.3" cy="870.9" r="2.5" fill="#1d4ed8" stroke="white" stroke-width="1"/>
  <circle cx="212.0" cy="829.0" r="2.5" fill="#1d4ed8" stroke="white" stroke-width="1"/>
  <circle cx="252.7" cy="795.9" r="2.5" fill="#1d4ed8" stroke="white" stroke-width="1"/>
  <circle cx="293.3" cy="762.8" r="2.5" fill="#1d4ed8" stroke="white" stroke-width="1"/>
  <circle cx="334.0" cy="731.3" r="2.5" fill="#1d4ed8" stroke="white" stroke-width="1"/>
  <circle cx="374.7" cy="713.8" r="2.5" fill="#1d4ed8" stroke="white" stroke-width="1"/>
  <circle cx="415.3" cy="741.0" r="2.5" fill="#1d4ed8" stroke="white" stroke-width="1"/>
  <circle cx="456.0" cy="779.4" r="2.5" fill="#1d4ed8" stroke="white" stroke-width="1"/>
  <circle cx="496.7" cy="787.3" r="2.5" fill="#1d4ed8" stroke="white" stroke-width="1"/>
  <circle cx="537.3" cy="789.7" r="2.5" fill="#1d4ed8" stroke="white" stroke-width="1"/>
  <circle cx="578.0" cy="790.7" r="2.5" fill="#1d4ed8" stroke="white" stroke-width="1"/>
  <circle cx="618.7" cy="791.7" r="2.5" fill="#1d4ed8" stroke="white" stroke-width="1"/>
  <circle cx="659.3" cy="792.5" r="2.5" fill="#1d4ed8" stroke="white" stroke-width="1"/>
  <circle cx="700.0" cy="792.7" r="2.5" fill="#1d4ed8" stroke="white" stroke-width="1"/>
  <polyline points="90.0,689.6 130.7,707.5 171.3,725.4 212.0,743.3 252.7,761.2 293.3,779.1 334.0,797.0 374.7,814.9 415.3,832.8 456.0,850.7 496.7,868.7 537.3,886.6 578.0,904.5 618.7,909.0 659.3,909.0 700.0,909.0" fill="none" stroke="#eab308" stroke-width="1.5" stroke-dasharray="5,3"/>
  <polyline points="90.0,700.1 130.7,713.3 171.3,728.5 212.0,744.9 252.7,762.0 293.3,779.5 334.0,788.2 374.7,799.3 415.3,809.3 456.0,822.2 496.7,835.4 537.3,850.5 578.0,866.6 618.7,883.7 659.3,901.5 700.0,909.0" fill="none" stroke="#60a5fa" stroke-width="1.5" stroke-dasharray="5,3"/>
  <polyline points="90.0,700.1 130.7,713.3 171.3,728.5 212.0,723.8 252.7,723.8 293.3,723.8 334.0,724.6 374.7,733.1 415.3,765.7 456.0,804.4 496.7,826.5 537.3,845.7 578.0,864.1 618.7,882.6 659.3,900.9 700.0,909.0" fill="none" stroke="#1d4ed8" stroke-width="1.5" stroke-dasharray="5,3"/>
  <line x1="90" y1="941" x2="104" y2="941" stroke="#eab308" stroke-width="1.5" stroke-dasharray="2,3" opacity="0.7"/>
  <line x1="90" y1="953" x2="104" y2="953" stroke="#eab308" stroke-width="2.5"/>
  <line x1="90" y1="965" x2="104" y2="965" stroke="#eab308" stroke-width="1.5" stroke-dasharray="5,3"/>
  <text x="108" y="945" fill="#374151" font-size="10" font-weight="500">tcp (no compression)</text>
  <line x1="293" y1="941" x2="307" y2="941" stroke="#60a5fa" stroke-width="1.5" stroke-dasharray="2,3" opacity="0.7"/>
  <line x1="293" y1="953" x2="307" y2="953" stroke="#60a5fa" stroke-width="2.5"/>
  <line x1="293" y1="965" x2="307" y2="965" stroke="#60a5fa" stroke-width="1.5" stroke-dasharray="5,3"/>
  <text x="311" y="945" fill="#374151" font-size="10" font-weight="500">lz4+tcp (no dict)</text>
  <line x1="497" y1="941" x2="511" y2="941" stroke="#1d4ed8" stroke-width="1.5" stroke-dasharray="2,3" opacity="0.7"/>
  <line x1="497" y1="953" x2="511" y2="953" stroke="#1d4ed8" stroke-width="2.5"/>
  <line x1="497" y1="965" x2="511" y2="965" stroke="#1d4ed8" stroke-width="1.5" stroke-dasharray="5,3"/>
  <text x="515" y="945" fill="#374151" font-size="10" font-weight="500">lz4+tcp + 2K dict</text>
  <text x="395.0" y="983" text-anchor="middle" fill="#9ca3af" font-size="9">dotted = sender CPU % linear (left) · solid = aggregate virtual SUB throughput log (inner right) · dashed = msg/s log (outer right)</text>
</svg>
