<svg xmlns="http://www.w3.org/2000/svg" viewBox="0 0 875 1059" font-family="system-ui, -apple-system, sans-serif">
  <rect width="875" height="1059" fill="white"/>
  <text x="395.0" y="46" text-anchor="middle" fill="#9ca3af" font-size="10">Linux VM on a 2018 Mac Mini, Intel Core i7-8700B @ 3.20GHz, 6 cores, performance governor, turbo off</text>
  <text x="395.0" y="32.0" text-anchor="middle" fill="#111827" font-size="13" font-weight="700">PUB/SUB throughput, 1 subscriber: TCP loopback</text>
  <line x1="90.0" y1="276.5" x2="700.0" y2="276.5" stroke="#e5e7eb" stroke-width="1"/>
  <text x="82.0" y="276.5" text-anchor="end" dominant-baseline="middle" fill="#374151" font-size="10">50%</text>
  <line x1="90.0" y1="244.0" x2="700.0" y2="244.0" stroke="#e5e7eb" stroke-width="1"/>
  <text x="82.0" y="244.0" text-anchor="end" dominant-baseline="middle" fill="#374151" font-size="10">100%</text>
  <line x1="90.0" y1="211.5" x2="700.0" y2="211.5" stroke="#e5e7eb" stroke-width="1"/>
  <text x="82.0" y="211.5" text-anchor="end" dominant-baseline="middle" fill="#374151" font-size="10">150%</text>
  <line x1="90.0" y1="179.0" x2="700.0" y2="179.0" stroke="#e5e7eb" stroke-width="1"/>
  <text x="82.0" y="179.0" text-anchor="end" dominant-baseline="middle" fill="#374151" font-size="10">200%</text>
  <line x1="90.0" y1="146.5" x2="700.0" y2="146.5" stroke="#e5e7eb" stroke-width="1"/>
  <text x="82.0" y="146.5" text-anchor="end" dominant-baseline="middle" fill="#374151" font-size="10">250%</text>
  <line x1="90.0" y1="114.0" x2="700.0" y2="114.0" stroke="#e5e7eb" stroke-width="1"/>
  <text x="82.0" y="114.0" text-anchor="end" dominant-baseline="middle" fill="#374151" font-size="10">300%</text>
  <line x1="90.0" y1="81.5" x2="700.0" y2="81.5" stroke="#e5e7eb" stroke-width="1"/>
  <text x="82.0" y="81.5" text-anchor="end" dominant-baseline="middle" fill="#374151" font-size="10">350%</text>
  <line x1="90.0" y1="49.0" x2="700.0" y2="49.0" stroke="#e5e7eb" stroke-width="1"/>
  <text x="82.0" y="49.0" text-anchor="end" dominant-baseline="middle" fill="#374151" font-size="10">400%</text>
  <line x1="90.0" y1="247.9" x2="700.0" y2="247.9" stroke="#e5e7eb" stroke-width="1" stroke-dasharray="3,6"/>
  <text x="708.0" y="247.9" text-anchor="start" dominant-baseline="middle" fill="#6b7280" font-size="10">1 GB/s</text>
  <line x1="90.0" y1="186.8" x2="700.0" y2="186.8" stroke="#e5e7eb" stroke-width="1" stroke-dasharray="3,6"/>
  <text x="708.0" y="186.8" text-anchor="start" dominant-baseline="middle" fill="#6b7280" font-size="10">2 GB/s</text>
  <line x1="90.0" y1="125.7" x2="700.0" y2="125.7" stroke="#e5e7eb" stroke-width="1" stroke-dasharray="3,6"/>
  <text x="708.0" y="125.7" text-anchor="start" dominant-baseline="middle" fill="#6b7280" font-size="10">3 GB/s</text>
  <line x1="90.0" y1="64.6" x2="700.0" y2="64.6" stroke="#e5e7eb" stroke-width="1" stroke-dasharray="3,6"/>
  <text x="708.0" y="64.6" text-anchor="start" dominant-baseline="middle" fill="#6b7280" font-size="10">4 GB/s</text>
  <text x="788.0" y="275.3" text-anchor="start" dominant-baseline="middle" fill="#9ca3af" font-size="10">1M/s</text>
  <text x="788.0" y="241.6" text-anchor="start" dominant-baseline="middle" fill="#9ca3af" font-size="10">2M/s</text>
  <text x="788.0" y="207.8" text-anchor="start" dominant-baseline="middle" fill="#9ca3af" font-size="10">3M/s</text>
  <text x="788.0" y="174.1" text-anchor="start" dominant-baseline="middle" fill="#9ca3af" font-size="10">4M/s</text>
  <text x="788.0" y="140.4" text-anchor="start" dominant-baseline="middle" fill="#9ca3af" font-size="10">5M/s</text>
  <text x="788.0" y="106.7" text-anchor="start" dominant-baseline="middle" fill="#9ca3af" font-size="10">6M/s</text>
  <text x="788.0" y="73.0" text-anchor="start" dominant-baseline="middle" fill="#9ca3af" font-size="10">7M/s</text>
  <line x1="90.0" y1="49.0" x2="90.0" y2="309.0" stroke="#e5e7eb" stroke-width="1"/>
  <line x1="140.8" y1="49.0" x2="140.8" y2="309.0" stroke="#e5e7eb" stroke-width="1"/>
  <line x1="191.7" y1="49.0" x2="191.7" y2="309.0" stroke="#e5e7eb" stroke-width="1"/>
  <line x1="242.5" y1="49.0" x2="242.5" y2="309.0" stroke="#e5e7eb" stroke-width="1"/>
  <line x1="293.3" y1="49.0" x2="293.3" y2="309.0" stroke="#e5e7eb" stroke-width="1"/>
  <line x1="344.2" y1="49.0" x2="344.2" y2="309.0" stroke="#e5e7eb" stroke-width="1"/>
  <line x1="395.0" y1="49.0" x2="395.0" y2="309.0" stroke="#e5e7eb" stroke-width="1"/>
  <line x1="445.8" y1="49.0" x2="445.8" y2="309.0" stroke="#e5e7eb" stroke-width="1"/>
  <line x1="496.7" y1="49.0" x2="496.7" y2="309.0" stroke="#e5e7eb" stroke-width="1"/>
  <line x1="547.5" y1="49.0" x2="547.5" y2="309.0" stroke="#e5e7eb" stroke-width="1"/>
  <line x1="598.3" y1="49.0" x2="598.3" y2="309.0" stroke="#e5e7eb" stroke-width="1"/>
  <line x1="649.2" y1="49.0" x2="649.2" y2="309.0" stroke="#e5e7eb" stroke-width="1"/>
  <line x1="700.0" y1="49.0" x2="700.0" y2="309.0" stroke="#e5e7eb" stroke-width="1"/>
  <line x1="90.0" y1="49.0" x2="90.0" y2="309.0" stroke="#9ca3af" stroke-width="1.5"/>
  <line x1="700.0" y1="49.0" x2="700.0" y2="309.0" stroke="#9ca3af" stroke-width="1.5"/>
  <line x1="90.0" y1="309.0" x2="700.0" y2="309.0" stroke="#9ca3af" stroke-width="1.5"/>
  <line x1="780.0" y1="49.0" x2="780.0" y2="309.0" stroke="#d1d5db" stroke-width="1"/>
  <text x="40.0" y="179.0" text-anchor="middle" fill="#374151" font-size="10" font-weight="600" transform="rotate(-90,40.0,179.0)">CPU %</text>
  <polyline points="90.0,153.3 140.8,146.8 191.7,145.9 242.5,146.2 293.3,166.0 344.2,177.7 395.0,190.7 445.8,198.8 496.7,217.4 547.5,220.6 598.3,216.1 649.2,218.0 700.0,212.5" fill="none" stroke="#eab308" stroke-width="2" stroke-dasharray="2,3"/>
  <polyline points="90.0,226.8 140.8,226.5 191.7,226.5 242.5,226.1 293.3,226.5 344.2,226.1 395.0,226.5 445.8,226.5 496.7,226.5 547.5,226.1 598.3,226.5 649.2,226.5 700.0,226.1" fill="none" stroke="#dc2626" stroke-width="2" stroke-dasharray="2,3"/>
  <polyline points="90.0,226.8 140.8,226.5 191.7,226.5 242.5,226.5 293.3,226.1 344.2,226.5 395.0,226.1 445.8,226.5 496.7,226.5 547.5,226.8 598.3,226.5 649.2,226.5 700.0,226.1" fill="none" stroke="#f97316" stroke-width="2" stroke-dasharray="2,3"/>
  <polyline points="90.0,236.9 140.8,239.8 191.7,240.8 242.5,241.1 293.3,241.7 344.2,242.1 395.0,242.1 445.8,242.1 496.7,242.4 547.5,242.1 598.3,241.7 649.2,241.7 700.0,241.4" fill="none" stroke="#7c3aed" stroke-width="2" stroke-dasharray="2,3"/>
  <polyline points="90.0,90.8 140.8,82.9 191.7,83.1 242.5,163.6 293.3,239.6 344.2,244.2 395.0,259.2 445.8,279.2 496.7,292.0 547.5,299.7 598.3,302.8 649.2,306.6 700.0,307.0" fill="none" stroke="#eab308" stroke-width="1.5" stroke-dasharray="5,3"/>
  <polyline points="90.0,152.1 140.8,155.0 191.7,155.9 242.5,184.7 293.3,190.2 344.2,214.0 395.0,211.8 445.8,243.1 496.7,262.7 547.5,282.6 598.3,296.9 649.2,301.5 700.0,305.2" fill="none" stroke="#dc2626" stroke-width="1.5" stroke-dasharray="5,3"/>
  <polyline points="90.0,154.8 140.8,155.1 191.7,154.7 242.5,184.5 293.3,190.5 344.2,213.7 395.0,215.4 445.8,243.7 496.7,263.0 547.5,282.8 598.3,296.8 649.2,301.7 700.0,305.2" fill="none" stroke="#f97316" stroke-width="1.5" stroke-dasharray="5,3"/>
  <polyline points="90.0,177.1 140.8,182.3 191.7,190.3 242.5,220.3 293.3,227.9 344.2,235.1 395.0,243.1 445.8,261.4 496.7,276.4 547.5,289.9 598.3,299.8 649.2,304.2 700.0,306.5" fill="none" stroke="#7c3aed" stroke-width="1.5" stroke-dasharray="5,3"/>
  <polyline points="90.0,305.8 140.8,302.4 191.7,295.9 242.5,292.1 293.3,292.9 344.2,278.9 395.0,262.8 445.8,253.7 496.7,246.1 547.5,240.1 598.3,217.6 649.2,237.1 700.0,191.7" fill="none" stroke="#eab308" stroke-width="2.5" stroke-linecap="round" stroke-linejoin="round"/>
  <circle cx="90.0" cy="305.8" r="3" fill="#eab308" stroke="white" stroke-width="1"/>
  <circle cx="140.8" cy="302.4" r="3" fill="#eab308" stroke="white" stroke-width="1"/>
  <circle cx="191.7" cy="295.9" r="3" fill="#eab308" stroke="white" stroke-width="1"/>
  <circle cx="242.5" cy="292.1" r="3" fill="#eab308" stroke="white" stroke-width="1"/>
  <circle cx="293.3" cy="292.9" r="3" fill="#eab308" stroke="white" stroke-width="1"/>
  <circle cx="344.2" cy="278.9" r="3" fill="#eab308" stroke="white" stroke-width="1"/>
  <circle cx="395.0" cy="262.8" r="3" fill="#eab308" stroke="white" stroke-width="1"/>
  <circle cx="445.8" cy="253.7" r="3" fill="#eab308" stroke="white" stroke-width="1"/>
  <circle cx="496.7" cy="246.1" r="3" fill="#eab308" stroke="white" stroke-width="1"/>
  <circle cx="547.5" cy="240.1" r="3" fill="#eab308" stroke="white" stroke-width="1"/>
  <circle cx="598.3" cy="217.6" r="3" fill="#eab308" stroke="white" stroke-width="1"/>
  <circle cx="649.2" cy="237.1" r="3" fill="#eab308" stroke="white" stroke-width="1"/>
  <circle cx="700.0" cy="191.7" r="3" fill="#eab308" stroke="white" stroke-width="1"/>
  <polyline points="90.0,306.7 140.8,304.5 191.7,300.1 242.5,294.6 293.3,281.5 344.2,264.9 395.0,218.9 445.8,186.8 496.7,137.2 547.5,113.4 598.3,129.6 649.2,87.1 700.0,82.9" fill="none" stroke="#dc2626" stroke-width="2.5" stroke-linecap="round" stroke-linejoin="round"/>
  <circle cx="90.0" cy="306.7" r="3" fill="#dc2626" stroke="white" stroke-width="1"/>
  <circle cx="140.8" cy="304.5" r="3" fill="#dc2626" stroke="white" stroke-width="1"/>
  <circle cx="191.7" cy="300.1" r="3" fill="#dc2626" stroke="white" stroke-width="1"/>
  <circle cx="242.5" cy="294.6" r="3" fill="#dc2626" stroke="white" stroke-width="1"/>
  <circle cx="293.3" cy="281.5" r="3" fill="#dc2626" stroke="white" stroke-width="1"/>
  <circle cx="344.2" cy="264.9" r="3" fill="#dc2626" stroke="white" stroke-width="1"/>
  <circle cx="395.0" cy="218.9" r="3" fill="#dc2626" stroke="white" stroke-width="1"/>
  <circle cx="445.8" cy="186.8" r="3" fill="#dc2626" stroke="white" stroke-width="1"/>
  <circle cx="496.7" cy="137.2" r="3" fill="#dc2626" stroke="white" stroke-width="1"/>
  <circle cx="547.5" cy="113.4" r="3" fill="#dc2626" stroke="white" stroke-width="1"/>
  <circle cx="598.3" cy="129.6" r="3" fill="#dc2626" stroke="white" stroke-width="1"/>
  <circle cx="649.2" cy="87.1" r="3" fill="#dc2626" stroke="white" stroke-width="1"/>
  <circle cx="700.0" cy="82.9" r="3" fill="#dc2626" stroke="white" stroke-width="1"/>
  <polyline points="90.0,306.8 140.8,304.5 191.7,300.1 242.5,294.6 293.3,281.5 344.2,264.8 395.0,222.2 445.8,187.8 496.7,138.3 547.5,114.6 598.3,128.4 649.2,91.1 700.0,85.7" fill="none" stroke="#f97316" stroke-width="2.5" stroke-linecap="round" stroke-linejoin="round"/>
  <circle cx="90.0" cy="306.8" r="3" fill="#f97316" stroke="white" stroke-width="1"/>
  <circle cx="140.8" cy="304.5" r="3" fill="#f97316" stroke="white" stroke-width="1"/>
  <circle cx="191.7" cy="300.1" r="3" fill="#f97316" stroke="white" stroke-width="1"/>
  <circle cx="242.5" cy="294.6" r="3" fill="#f97316" stroke="white" stroke-width="1"/>
  <circle cx="293.3" cy="281.5" r="3" fill="#f97316" stroke="white" stroke-width="1"/>
  <circle cx="344.2" cy="264.8" r="3" fill="#f97316" stroke="white" stroke-width="1"/>
  <circle cx="395.0" cy="222.2" r="3" fill="#f97316" stroke="white" stroke-width="1"/>
  <circle cx="445.8" cy="187.8" r="3" fill="#f97316" stroke="white" stroke-width="1"/>
  <circle cx="496.7" cy="138.3" r="3" fill="#f97316" stroke="white" stroke-width="1"/>
  <circle cx="547.5" cy="114.6" r="3" fill="#f97316" stroke="white" stroke-width="1"/>
  <circle cx="598.3" cy="128.4" r="3" fill="#f97316" stroke="white" stroke-width="1"/>
  <circle cx="649.2" cy="91.1" r="3" fill="#f97316" stroke="white" stroke-width="1"/>
  <circle cx="700.0" cy="85.7" r="3" fill="#f97316" stroke="white" stroke-width="1"/>
  <polyline points="90.0,307.1 140.8,305.3 191.7,302.1 242.5,298.7 293.3,290.2 344.2,274.7 395.0,247.9 445.8,220.7 496.7,187.9 547.5,167.4 598.3,173.1 649.2,167.8 700.0,160.1" fill="none" stroke="#7c3aed" stroke-width="2.5" stroke-linecap="round" stroke-linejoin="round"/>
  <circle cx="90.0" cy="307.1" r="3" fill="#7c3aed" stroke="white" stroke-width="1"/>
  <circle cx="140.8" cy="305.3" r="3" fill="#7c3aed" stroke="white" stroke-width="1"/>
  <circle cx="191.7" cy="302.1" r="3" fill="#7c3aed" stroke="white" stroke-width="1"/>
  <circle cx="242.5" cy="298.7" r="3" fill="#7c3aed" stroke="white" stroke-width="1"/>
  <circle cx="293.3" cy="290.2" r="3" fill="#7c3aed" stroke="white" stroke-width="1"/>
  <circle cx="344.2" cy="274.7" r="3" fill="#7c3aed" stroke="white" stroke-width="1"/>
  <circle cx="395.0" cy="247.9" r="3" fill="#7c3aed" stroke="white" stroke-width="1"/>
  <circle cx="445.8" cy="220.7" r="3" fill="#7c3aed" stroke="white" stroke-width="1"/>
  <circle cx="496.7" cy="187.9" r="3" fill="#7c3aed" stroke="white" stroke-width="1"/>
  <circle cx="547.5" cy="167.4" r="3" fill="#7c3aed" stroke="white" stroke-width="1"/>
  <circle cx="598.3" cy="173.1" r="3" fill="#7c3aed" stroke="white" stroke-width="1"/>
  <circle cx="649.2" cy="167.8" r="3" fill="#7c3aed" stroke="white" stroke-width="1"/>
  <circle cx="700.0" cy="160.1" r="3" fill="#7c3aed" stroke="white" stroke-width="1"/>
  <text x="90.0" y="323.0" text-anchor="middle" fill="#374151" font-size="8.5">8 B</text>
  <text x="140.8" y="323.0" text-anchor="middle" fill="#374151" font-size="8.5">16 B</text>
  <text x="191.7" y="323.0" text-anchor="middle" fill="#374151" font-size="8.5">32 B</text>
  <text x="242.5" y="323.0" text-anchor="middle" fill="#374151" font-size="8.5">64 B</text>
  <text x="293.3" y="323.0" text-anchor="middle" fill="#374151" font-size="8.5">128 B</text>
  <text x="344.2" y="323.0" text-anchor="middle" fill="#374151" font-size="8.5">256 B</text>
  <text x="395.0" y="323.0" text-anchor="middle" fill="#374151" font-size="8.5">512 B</text>
  <text x="445.8" y="323.0" text-anchor="middle" fill="#374151" font-size="8.5">1 KiB</text>
  <text x="496.7" y="323.0" text-anchor="middle" fill="#374151" font-size="8.5">2 KiB</text>
  <text x="547.5" y="323.0" text-anchor="middle" fill="#374151" font-size="8.5">4 KiB</text>
  <text x="598.3" y="323.0" text-anchor="middle" fill="#374151" font-size="8.5">8 KiB</text>
  <text x="649.2" y="323.0" text-anchor="middle" fill="#374151" font-size="8.5">16 KiB</text>
  <text x="700.0" y="323.0" text-anchor="middle" fill="#374151" font-size="8.5">32 KiB</text>
  <text x="395.0" y="362.0" text-anchor="middle" fill="#111827" font-size="13" font-weight="700">PUB/SUB throughput, 8 subscribers: TCP loopback</text>
  <line x1="90.0" y1="606.5" x2="700.0" y2="606.5" stroke="#e5e7eb" stroke-width="1"/>
  <text x="82.0" y="606.5" text-anchor="end" dominant-baseline="middle" fill="#374151" font-size="10">50%</text>
  <line x1="90.0" y1="574.0" x2="700.0" y2="574.0" stroke="#e5e7eb" stroke-width="1"/>
  <text x="82.0" y="574.0" text-anchor="end" dominant-baseline="middle" fill="#374151" font-size="10">100%</text>
  <line x1="90.0" y1="541.5" x2="700.0" y2="541.5" stroke="#e5e7eb" stroke-width="1"/>
  <text x="82.0" y="541.5" text-anchor="end" dominant-baseline="middle" fill="#374151" font-size="10">150%</text>
  <line x1="90.0" y1="509.0" x2="700.0" y2="509.0" stroke="#e5e7eb" stroke-width="1"/>
  <text x="82.0" y="509.0" text-anchor="end" dominant-baseline="middle" fill="#374151" font-size="10">200%</text>
  <line x1="90.0" y1="476.5" x2="700.0" y2="476.5" stroke="#e5e7eb" stroke-width="1"/>
  <text x="82.0" y="476.5" text-anchor="end" dominant-baseline="middle" fill="#374151" font-size="10">250%</text>
  <line x1="90.0" y1="444.0" x2="700.0" y2="444.0" stroke="#e5e7eb" stroke-width="1"/>
  <text x="82.0" y="444.0" text-anchor="end" dominant-baseline="middle" fill="#374151" font-size="10">300%</text>
  <line x1="90.0" y1="411.5" x2="700.0" y2="411.5" stroke="#e5e7eb" stroke-width="1"/>
  <text x="82.0" y="411.5" text-anchor="end" dominant-baseline="middle" fill="#374151" font-size="10">350%</text>
  <line x1="90.0" y1="379.0" x2="700.0" y2="379.0" stroke="#e5e7eb" stroke-width="1"/>
  <text x="82.0" y="379.0" text-anchor="end" dominant-baseline="middle" fill="#374151" font-size="10">400%</text>
  <line x1="90.0" y1="567.3" x2="700.0" y2="567.3" stroke="#e5e7eb" stroke-width="1" stroke-dasharray="3,6"/>
  <text x="708.0" y="567.3" text-anchor="start" dominant-baseline="middle" fill="#6b7280" font-size="10">2 GB/s</text>
  <line x1="90.0" y1="495.6" x2="700.0" y2="495.6" stroke="#e5e7eb" stroke-width="1" stroke-dasharray="3,6"/>
  <text x="708.0" y="495.6" text-anchor="start" dominant-baseline="middle" fill="#6b7280" font-size="10">4 GB/s</text>
  <line x1="90.0" y1="424.0" x2="700.0" y2="424.0" stroke="#e5e7eb" stroke-width="1" stroke-dasharray="3,6"/>
  <text x="708.0" y="424.0" text-anchor="start" dominant-baseline="middle" fill="#6b7280" font-size="10">6 GB/s</text>
  <text x="788.0" y="599.7" text-anchor="start" dominant-baseline="middle" fill="#9ca3af" font-size="10">500k/s</text>
  <text x="788.0" y="560.5" text-anchor="start" dominant-baseline="middle" fill="#9ca3af" font-size="10">1M/s</text>
  <text x="788.0" y="521.2" text-anchor="start" dominant-baseline="middle" fill="#9ca3af" font-size="10">1.5M/s</text>
  <text x="788.0" y="481.9" text-anchor="start" dominant-baseline="middle" fill="#9ca3af" font-size="10">2M/s</text>
  <text x="788.0" y="442.7" text-anchor="start" dominant-baseline="middle" fill="#9ca3af" font-size="10">2.5M/s</text>
  <text x="788.0" y="403.4" text-anchor="start" dominant-baseline="middle" fill="#9ca3af" font-size="10">3M/s</text>
  <line x1="90.0" y1="379.0" x2="90.0" y2="639.0" stroke="#e5e7eb" stroke-width="1"/>
  <line x1="140.8" y1="379.0" x2="140.8" y2="639.0" stroke="#e5e7eb" stroke-width="1"/>
  <line x1="191.7" y1="379.0" x2="191.7" y2="639.0" stroke="#e5e7eb" stroke-width="1"/>
  <line x1="242.5" y1="379.0" x2="242.5" y2="639.0" stroke="#e5e7eb" stroke-width="1"/>
  <line x1="293.3" y1="379.0" x2="293.3" y2="639.0" stroke="#e5e7eb" stroke-width="1"/>
  <line x1="344.2" y1="379.0" x2="344.2" y2="639.0" stroke="#e5e7eb" stroke-width="1"/>
  <line x1="395.0" y1="379.0" x2="395.0" y2="639.0" stroke="#e5e7eb" stroke-width="1"/>
  <line x1="445.8" y1="379.0" x2="445.8" y2="639.0" stroke="#e5e7eb" stroke-width="1"/>
  <line x1="496.7" y1="379.0" x2="496.7" y2="639.0" stroke="#e5e7eb" stroke-width="1"/>
  <line x1="547.5" y1="379.0" x2="547.5" y2="639.0" stroke="#e5e7eb" stroke-width="1"/>
  <line x1="598.3" y1="379.0" x2="598.3" y2="639.0" stroke="#e5e7eb" stroke-width="1"/>
  <line x1="649.2" y1="379.0" x2="649.2" y2="639.0" stroke="#e5e7eb" stroke-width="1"/>
  <line x1="700.0" y1="379.0" x2="700.0" y2="639.0" stroke="#e5e7eb" stroke-width="1"/>
  <line x1="90.0" y1="379.0" x2="90.0" y2="639.0" stroke="#9ca3af" stroke-width="1.5"/>
  <line x1="700.0" y1="379.0" x2="700.0" y2="639.0" stroke="#9ca3af" stroke-width="1.5"/>
  <line x1="90.0" y1="639.0" x2="700.0" y2="639.0" stroke="#9ca3af" stroke-width="1.5"/>
  <line x1="780.0" y1="379.0" x2="780.0" y2="639.0" stroke="#d1d5db" stroke-width="1"/>
  <text x="40.0" y="509.0" text-anchor="middle" fill="#374151" font-size="10" font-weight="600" transform="rotate(-90,40.0,509.0)">CPU %</text>
  <polyline points="90.0,506.1 140.8,512.6 191.7,516.5 242.5,521.0 293.3,529.8 344.2,539.2 395.0,550.0 445.8,552.5 496.7,559.4 547.5,558.1 598.3,556.8 649.2,556.5 700.0,554.2" fill="none" stroke="#eab308" stroke-width="2" stroke-dasharray="2,3"/>
  <polyline points="90.0,559.4 140.8,559.4 191.7,557.8 242.5,560.7 293.3,557.4 344.2,557.8 395.0,556.5 445.8,556.5 496.7,556.5 547.5,556.5 598.3,557.1 649.2,556.5 700.0,556.5" fill="none" stroke="#dc2626" stroke-width="2" stroke-dasharray="2,3"/>
  <polyline points="90.0,558.4 140.8,558.7 191.7,557.8 242.5,562.6 293.3,557.4 344.2,556.8 395.0,556.5 445.8,556.1 496.7,556.5 547.5,556.5 598.3,556.1 649.2,556.8 700.0,556.5" fill="none" stroke="#f97316" stroke-width="2" stroke-dasharray="2,3"/>
  <polyline points="90.0,560.4 140.8,562.6 191.7,564.6 242.5,566.9 293.3,567.8 344.2,569.5 395.0,570.1 445.8,570.8 496.7,570.8 547.5,571.1 598.3,570.1 649.2,569.1 700.0,567.2" fill="none" stroke="#7c3aed" stroke-width="2" stroke-dasharray="2,3"/>
  <polyline points="90.0,527.7 140.8,536.2 191.7,544.1 242.5,571.2 293.3,594.1 344.2,609.4 395.0,621.9 445.8,629.1 496.7,633.9 547.5,636.4 598.3,637.7 649.2,638.3 700.0,638.4" fill="none" stroke="#eab308" stroke-width="1.5" stroke-dasharray="5,3"/>
  <polyline points="90.0,412.9 140.8,430.1 191.7,457.6 242.5,466.5 293.3,495.5 344.2,539.5 395.0,564.4 445.8,592.8 496.7,611.9 547.5,625.1 598.3,632.2 649.2,635.3 700.0,637.1" fill="none" stroke="#dc2626" stroke-width="1.5" stroke-dasharray="5,3"/>
  <polyline points="90.0,419.7 140.8,442.0 191.7,463.6 242.5,465.6 293.3,482.3 344.2,538.2 395.0,566.1 445.8,592.9 496.7,612.6 547.5,624.9 598.3,631.6 649.2,635.3 700.0,637.1" fill="none" stroke="#f97316" stroke-width="1.5" stroke-dasharray="5,3"/>
  <polyline points="90.0,555.6 140.8,560.8 191.7,565.7 242.5,572.9 293.3,577.4 344.2,587.9 395.0,596.2 445.8,608.1 496.7,619.5 547.5,630.7 598.3,635.0 649.2,637.0 700.0,638.0" fill="none" stroke="#7c3aed" stroke-width="1.5" stroke-dasharray="5,3"/>
  <polyline points="90.0,635.7 140.8,633.0 191.7,627.9 242.5,623.2 293.3,618.0 344.2,611.3 395.0,607.0 445.8,601.8 496.7,601.1 547.5,599.7 598.3,598.8 649.2,595.6 700.0,561.7" fill="none" stroke="#eab308" stroke-width="2.5" stroke-linecap="round" stroke-linejoin="round"/>
  <circle cx="90.0" cy="635.7" r="3" fill="#eab308" stroke="white" stroke-width="1"/>
  <circle cx="140.8" cy="633.0" r="3" fill="#eab308" stroke="white" stroke-width="1"/>
  <circle cx="191.7" cy="627.9" r="3" fill="#eab308" stroke="white" stroke-width="1"/>
  <circle cx="242.5" cy="623.2" r="3" fill="#eab308" stroke="white" stroke-width="1"/>
  <circle cx="293.3" cy="618.0" r="3" fill="#eab308" stroke="white" stroke-width="1"/>
  <circle cx="344.2" cy="611.3" r="3" fill="#eab308" stroke="white" stroke-width="1"/>
  <circle cx="395.0" cy="607.0" r="3" fill="#eab308" stroke="white" stroke-width="1"/>
  <circle cx="445.8" cy="601.8" r="3" fill="#eab308" stroke="white" stroke-width="1"/>
  <circle cx="496.7" cy="601.1" r="3" fill="#eab308" stroke="white" stroke-width="1"/>
  <circle cx="547.5" cy="599.7" r="3" fill="#eab308" stroke="white" stroke-width="1"/>
  <circle cx="598.3" cy="598.8" r="3" fill="#eab308" stroke="white" stroke-width="1"/>
  <circle cx="649.2" cy="595.6" r="3" fill="#eab308" stroke="white" stroke-width="1"/>
  <circle cx="700.0" cy="561.7" r="3" fill="#eab308" stroke="white" stroke-width="1"/>
  <polyline points="90.0,632.4 140.8,626.8 191.7,617.8 242.5,598.7 293.3,571.9 344.2,546.0 395.0,499.5 445.8,466.3 496.7,436.3 547.5,431.7 598.3,435.3 649.2,419.4 700.0,414.7" fill="none" stroke="#dc2626" stroke-width="2.5" stroke-linecap="round" stroke-linejoin="round"/>
  <circle cx="90.0" cy="632.4" r="3" fill="#dc2626" stroke="white" stroke-width="1"/>
  <circle cx="140.8" cy="626.8" r="3" fill="#dc2626" stroke="white" stroke-width="1"/>
  <circle cx="191.7" cy="617.8" r="3" fill="#dc2626" stroke="white" stroke-width="1"/>
  <circle cx="242.5" cy="598.7" r="3" fill="#dc2626" stroke="white" stroke-width="1"/>
  <circle cx="293.3" cy="571.9" r="3" fill="#dc2626" stroke="white" stroke-width="1"/>
  <circle cx="344.2" cy="546.0" r="3" fill="#dc2626" stroke="white" stroke-width="1"/>
  <circle cx="395.0" cy="499.5" r="3" fill="#dc2626" stroke="white" stroke-width="1"/>
  <circle cx="445.8" cy="466.3" r="3" fill="#dc2626" stroke="white" stroke-width="1"/>
  <circle cx="496.7" cy="436.3" r="3" fill="#dc2626" stroke="white" stroke-width="1"/>
  <circle cx="547.5" cy="431.7" r="3" fill="#dc2626" stroke="white" stroke-width="1"/>
  <circle cx="598.3" cy="435.3" r="3" fill="#dc2626" stroke="white" stroke-width="1"/>
  <circle cx="649.2" cy="419.4" r="3" fill="#dc2626" stroke="white" stroke-width="1"/>
  <circle cx="700.0" cy="414.7" r="3" fill="#dc2626" stroke="white" stroke-width="1"/>
  <polyline points="90.0,632.6 140.8,627.5 191.7,618.5 242.5,598.5 293.3,565.8 344.2,544.7 395.0,502.8 445.8,466.7 496.7,441.8 547.5,428.2 598.3,418.9 649.2,418.8 700.0,412.9" fill="none" stroke="#f97316" stroke-width="2.5" stroke-linecap="round" stroke-linejoin="round"/>
  <circle cx="90.0" cy="632.6" r="3" fill="#f97316" stroke="white" stroke-width="1"/>
  <circle cx="140.8" cy="627.5" r="3" fill="#f97316" stroke="white" stroke-width="1"/>
  <circle cx="191.7" cy="618.5" r="3" fill="#f97316" stroke="white" stroke-width="1"/>
  <circle cx="242.5" cy="598.5" r="3" fill="#f97316" stroke="white" stroke-width="1"/>
  <circle cx="293.3" cy="565.8" r="3" fill="#f97316" stroke="white" stroke-width="1"/>
  <circle cx="344.2" cy="544.7" r="3" fill="#f97316" stroke="white" stroke-width="1"/>
  <circle cx="395.0" cy="502.8" r="3" fill="#f97316" stroke="white" stroke-width="1"/>
  <circle cx="445.8" cy="466.7" r="3" fill="#f97316" stroke="white" stroke-width="1"/>
  <circle cx="496.7" cy="441.8" r="3" fill="#f97316" stroke="white" stroke-width="1"/>
  <circle cx="547.5" cy="428.2" r="3" fill="#f97316" stroke="white" stroke-width="1"/>
  <circle cx="598.3" cy="418.9" r="3" fill="#f97316" stroke="white" stroke-width="1"/>
  <circle cx="649.2" cy="418.8" r="3" fill="#f97316" stroke="white" stroke-width="1"/>
  <circle cx="700.0" cy="412.9" r="3" fill="#f97316" stroke="white" stroke-width="1"/>
  <polyline points="90.0,636.6 140.8,634.4 191.7,630.4 242.5,623.6 293.3,610.2 344.2,591.3 395.0,559.0 445.8,523.5 496.7,493.0 547.5,515.1 598.3,520.5 649.2,518.4 700.0,515.1" fill="none" stroke="#7c3aed" stroke-width="2.5" stroke-linecap="round" stroke-linejoin="round"/>
  <circle cx="90.0" cy="636.6" r="3" fill="#7c3aed" stroke="white" stroke-width="1"/>
  <circle cx="140.8" cy="634.4" r="3" fill="#7c3aed" stroke="white" stroke-width="1"/>
  <circle cx="191.7" cy="630.4" r="3" fill="#7c3aed" stroke="white" stroke-width="1"/>
  <circle cx="242.5" cy="623.6" r="3" fill="#7c3aed" stroke="white" stroke-width="1"/>
  <circle cx="293.3" cy="610.2" r="3" fill="#7c3aed" stroke="white" stroke-width="1"/>
  <circle cx="344.2" cy="591.3" r="3" fill="#7c3aed" stroke="white" stroke-width="1"/>
  <circle cx="395.0" cy="559.0" r="3" fill="#7c3aed" stroke="white" stroke-width="1"/>
  <circle cx="445.8" cy="523.5" r="3" fill="#7c3aed" stroke="white" stroke-width="1"/>
  <circle cx="496.7" cy="493.0" r="3" fill="#7c3aed" stroke="white" stroke-width="1"/>
  <circle cx="547.5" cy="515.1" r="3" fill="#7c3aed" stroke="white" stroke-width="1"/>
  <circle cx="598.3" cy="520.5" r="3" fill="#7c3aed" stroke="white" stroke-width="1"/>
  <circle cx="649.2" cy="518.4" r="3" fill="#7c3aed" stroke="white" stroke-width="1"/>
  <circle cx="700.0" cy="515.1" r="3" fill="#7c3aed" stroke="white" stroke-width="1"/>
  <text x="90.0" y="653.0" text-anchor="middle" fill="#374151" font-size="8.5">8 B</text>
  <text x="140.8" y="653.0" text-anchor="middle" fill="#374151" font-size="8.5">16 B</text>
  <text x="191.7" y="653.0" text-anchor="middle" fill="#374151" font-size="8.5">32 B</text>
  <text x="242.5" y="653.0" text-anchor="middle" fill="#374151" font-size="8.5">64 B</text>
  <text x="293.3" y="653.0" text-anchor="middle" fill="#374151" font-size="8.5">128 B</text>
  <text x="344.2" y="653.0" text-anchor="middle" fill="#374151" font-size="8.5">256 B</text>
  <text x="395.0" y="653.0" text-anchor="middle" fill="#374151" font-size="8.5">512 B</text>
  <text x="445.8" y="653.0" text-anchor="middle" fill="#374151" font-size="8.5">1 KiB</text>
  <text x="496.7" y="653.0" text-anchor="middle" fill="#374151" font-size="8.5">2 KiB</text>
  <text x="547.5" y="653.0" text-anchor="middle" fill="#374151" font-size="8.5">4 KiB</text>
  <text x="598.3" y="653.0" text-anchor="middle" fill="#374151" font-size="8.5">8 KiB</text>
  <text x="649.2" y="653.0" text-anchor="middle" fill="#374151" font-size="8.5">16 KiB</text>
  <text x="700.0" y="653.0" text-anchor="middle" fill="#374151" font-size="8.5">32 KiB</text>
  <text x="395.0" y="692.0" text-anchor="middle" fill="#111827" font-size="13" font-weight="700">PUB/SUB throughput, 64 subscribers: TCP loopback</text>
  <line x1="90.0" y1="904.0" x2="700.0" y2="904.0" stroke="#e5e7eb" stroke-width="1"/>
  <text x="82.0" y="904.0" text-anchor="end" dominant-baseline="middle" fill="#374151" font-size="10">50%</text>
  <line x1="90.0" y1="839.0" x2="700.0" y2="839.0" stroke="#e5e7eb" stroke-width="1"/>
  <text x="82.0" y="839.0" text-anchor="end" dominant-baseline="middle" fill="#374151" font-size="10">100%</text>
  <line x1="90.0" y1="774.0" x2="700.0" y2="774.0" stroke="#e5e7eb" stroke-width="1"/>
  <text x="82.0" y="774.0" text-anchor="end" dominant-baseline="middle" fill="#374151" font-size="10">150%</text>
  <line x1="90.0" y1="709.0" x2="700.0" y2="709.0" stroke="#e5e7eb" stroke-width="1"/>
  <text x="82.0" y="709.0" text-anchor="end" dominant-baseline="middle" fill="#374151" font-size="10">200%</text>
  <line x1="90.0" y1="921.6" x2="700.0" y2="921.6" stroke="#e5e7eb" stroke-width="1" stroke-dasharray="3,6"/>
  <text x="708.0" y="921.6" text-anchor="start" dominant-baseline="middle" fill="#6b7280" font-size="10">2 GB/s</text>
  <line x1="90.0" y1="874.2" x2="700.0" y2="874.2" stroke="#e5e7eb" stroke-width="1" stroke-dasharray="3,6"/>
  <text x="708.0" y="874.2" text-anchor="start" dominant-baseline="middle" fill="#6b7280" font-size="10">4 GB/s</text>
  <line x1="90.0" y1="826.7" x2="700.0" y2="826.7" stroke="#e5e7eb" stroke-width="1" stroke-dasharray="3,6"/>
  <text x="708.0" y="826.7" text-anchor="start" dominant-baseline="middle" fill="#6b7280" font-size="10">6 GB/s</text>
  <line x1="90.0" y1="779.3" x2="700.0" y2="779.3" stroke="#e5e7eb" stroke-width="1" stroke-dasharray="3,6"/>
  <text x="708.0" y="779.3" text-anchor="start" dominant-baseline="middle" fill="#6b7280" font-size="10">8 GB/s</text>
  <line x1="90.0" y1="731.9" x2="700.0" y2="731.9" stroke="#e5e7eb" stroke-width="1" stroke-dasharray="3,6"/>
  <text x="708.0" y="731.9" text-anchor="start" dominant-baseline="middle" fill="#6b7280" font-size="10">10 GB/s</text>
  <text x="788.0" y="923.2" text-anchor="start" dominant-baseline="middle" fill="#9ca3af" font-size="10">100k/s</text>
  <text x="788.0" y="877.5" text-anchor="start" dominant-baseline="middle" fill="#9ca3af" font-size="10">200k/s</text>
  <text x="788.0" y="831.7" text-anchor="start" dominant-baseline="middle" fill="#9ca3af" font-size="10">300k/s</text>
  <text x="788.0" y="785.9" text-anchor="start" dominant-baseline="middle" fill="#9ca3af" font-size="10">400k/s</text>
  <text x="788.0" y="740.1" text-anchor="start" dominant-baseline="middle" fill="#9ca3af" font-size="10">500k/s</text>
  <line x1="90.0" y1="709.0" x2="90.0" y2="969.0" stroke="#e5e7eb" stroke-width="1"/>
  <line x1="140.8" y1="709.0" x2="140.8" y2="969.0" stroke="#e5e7eb" stroke-width="1"/>
  <line x1="191.7" y1="709.0" x2="191.7" y2="969.0" stroke="#e5e7eb" stroke-width="1"/>
  <line x1="242.5" y1="709.0" x2="242.5" y2="969.0" stroke="#e5e7eb" stroke-width="1"/>
  <line x1="293.3" y1="709.0" x2="293.3" y2="969.0" stroke="#e5e7eb" stroke-width="1"/>
  <line x1="344.2" y1="709.0" x2="344.2" y2="969.0" stroke="#e5e7eb" stroke-width="1"/>
  <line x1="395.0" y1="709.0" x2="395.0" y2="969.0" stroke="#e5e7eb" stroke-width="1"/>
  <line x1="445.8" y1="709.0" x2="445.8" y2="969.0" stroke="#e5e7eb" stroke-width="1"/>
  <line x1="496.7" y1="709.0" x2="496.7" y2="969.0" stroke="#e5e7eb" stroke-width="1"/>
  <line x1="547.5" y1="709.0" x2="547.5" y2="969.0" stroke="#e5e7eb" stroke-width="1"/>
  <line x1="598.3" y1="709.0" x2="598.3" y2="969.0" stroke="#e5e7eb" stroke-width="1"/>
  <line x1="649.2" y1="709.0" x2="649.2" y2="969.0" stroke="#e5e7eb" stroke-width="1"/>
  <line x1="700.0" y1="709.0" x2="700.0" y2="969.0" stroke="#e5e7eb" stroke-width="1"/>
  <line x1="90.0" y1="709.0" x2="90.0" y2="969.0" stroke="#9ca3af" stroke-width="1.5"/>
  <line x1="700.0" y1="709.0" x2="700.0" y2="969.0" stroke="#9ca3af" stroke-width="1.5"/>
  <line x1="90.0" y1="969.0" x2="700.0" y2="969.0" stroke="#9ca3af" stroke-width="1.5"/>
  <line x1="780.0" y1="709.0" x2="780.0" y2="969.0" stroke="#d1d5db" stroke-width="1"/>
  <text x="40.0" y="839.0" text-anchor="middle" fill="#374151" font-size="10" font-weight="600" transform="rotate(-90,40.0,839.0)">CPU %</text>
  <polyline points="90.0,755.1 140.8,766.9 191.7,759.7 242.5,776.0 293.3,807.8 344.2,823.4 395.0,832.5 445.8,834.5 496.7,831.2 547.5,834.5 598.3,841.0 649.2,824.7 700.0,824.7" fill="none" stroke="#eab308" stroke-width="2" stroke-dasharray="2,3"/>
  <polyline points="90.0,914.4 140.8,905.4 191.7,878.0 242.5,873.5 293.3,861.8 344.2,841.6 395.0,815.6 445.8,803.3 496.7,803.3 547.5,803.3 598.3,803.9 649.2,802.0 700.0,801.3" fill="none" stroke="#dc2626" stroke-width="2" stroke-dasharray="2,3"/>
  <polyline points="90.0,916.7 140.8,897.5 191.7,874.8 242.5,872.8 293.3,860.5 344.2,839.0 395.0,814.3 445.8,802.0 496.7,802.6 547.5,802.7 598.3,800.7 649.2,802.0 700.0,802.6" fill="none" stroke="#f97316" stroke-width="2" stroke-dasharray="2,3"/>
  <polyline points="90.0,803.3 140.8,801.3 191.7,802.0 242.5,800.7 293.3,806.5 344.2,813.0 395.0,811.7 445.8,818.2 496.7,820.8 547.5,822.8 598.3,822.8 649.2,811.7 700.0,802.6" fill="none" stroke="#7c3aed" stroke-width="2" stroke-dasharray="2,3"/>
  <polyline points="90.0,824.6 140.8,843.9 191.7,847.8 242.5,876.4 293.3,919.8 344.2,931.9 395.0,944.2 445.8,953.1 496.7,960.3 547.5,964.1 598.3,966.7 649.2,967.8 700.0,967.9" fill="none" stroke="#eab308" stroke-width="1.5" stroke-dasharray="5,3"/>
  <polyline points="90.0,742.9 140.8,773.4 191.7,821.6 242.5,844.7 293.3,866.2 344.2,881.8 395.0,898.5 445.8,921.7 496.7,940.3 547.5,953.7 598.3,961.7 649.2,965.2 700.0,966.9" fill="none" stroke="#dc2626" stroke-width="1.5" stroke-dasharray="5,3"/>
  <polyline points="90.0,782.5 140.8,793.9 191.7,819.7 242.5,844.8 293.3,865.0 344.2,875.7 395.0,895.5 445.8,920.2 496.7,940.7 547.5,953.6 598.3,962.0 649.2,965.3 700.0,967.2" fill="none" stroke="#f97316" stroke-width="1.5" stroke-dasharray="5,3"/>
  <polyline points="90.0,864.4 140.8,861.8 191.7,874.0 242.5,872.7 293.3,895.0 344.2,909.4 395.0,920.9 445.8,932.1 496.7,947.4 547.5,958.7 598.3,964.7 649.2,966.8 700.0,968.2" fill="none" stroke="#7c3aed" stroke-width="1.5" stroke-dasharray="5,3"/>
  <polyline points="90.0,965.2 140.8,962.4 191.7,956.1 242.5,949.4 293.3,948.1 344.2,937.5 395.0,926.8 445.8,915.0 496.7,910.0 547.5,902.5 598.3,907.5 649.2,903.5 700.0,853.5" fill="none" stroke="#eab308" stroke-width="2.5" stroke-linecap="round" stroke-linejoin="round"/>
  <circle cx="90.0" cy="965.2" r="3" fill="#eab308" stroke="white" stroke-width="1"/>
  <circle cx="140.8" cy="962.4" r="3" fill="#eab308" stroke="white" stroke-width="1"/>
  <circle cx="191.7" cy="956.1" r="3" fill="#eab308" stroke="white" stroke-width="1"/>
  <circle cx="242.5" cy="949.4" r="3" fill="#eab308" stroke="white" stroke-width="1"/>
  <circle cx="293.3" cy="948.1" r="3" fill="#eab308" stroke="white" stroke-width="1"/>
  <circle cx="344.2" cy="937.5" r="3" fill="#eab308" stroke="white" stroke-width="1"/>
  <circle cx="395.0" cy="926.8" r="3" fill="#eab308" stroke="white" stroke-width="1"/>
  <circle cx="445.8" cy="915.0" r="3" fill="#eab308" stroke="white" stroke-width="1"/>
  <circle cx="496.7" cy="910.0" r="3" fill="#eab308" stroke="white" stroke-width="1"/>
  <circle cx="547.5" cy="902.5" r="3" fill="#eab308" stroke="white" stroke-width="1"/>
  <circle cx="598.3" cy="907.5" r="3" fill="#eab308" stroke="white" stroke-width="1"/>
  <circle cx="649.2" cy="903.5" r="3" fill="#eab308" stroke="white" stroke-width="1"/>
  <circle cx="700.0" cy="853.5" r="3" fill="#eab308" stroke="white" stroke-width="1"/>
  <polyline points="90.0,963.0 140.8,958.6 191.7,953.4 242.5,942.6 293.3,925.4 344.2,895.0 395.0,849.4 445.8,808.6 496.7,773.9 547.5,761.5 598.3,770.8 649.2,761.9 700.0,742.9" fill="none" stroke="#dc2626" stroke-width="2.5" stroke-linecap="round" stroke-linejoin="round"/>
  <circle cx="90.0" cy="963.0" r="3" fill="#dc2626" stroke="white" stroke-width="1"/>
  <circle cx="140.8" cy="958.6" r="3" fill="#dc2626" stroke="white" stroke-width="1"/>
  <circle cx="191.7" cy="953.4" r="3" fill="#dc2626" stroke="white" stroke-width="1"/>
  <circle cx="242.5" cy="942.6" r="3" fill="#dc2626" stroke="white" stroke-width="1"/>
  <circle cx="293.3" cy="925.4" r="3" fill="#dc2626" stroke="white" stroke-width="1"/>
  <circle cx="344.2" cy="895.0" r="3" fill="#dc2626" stroke="white" stroke-width="1"/>
  <circle cx="395.0" cy="849.4" r="3" fill="#dc2626" stroke="white" stroke-width="1"/>
  <circle cx="445.8" cy="808.6" r="3" fill="#dc2626" stroke="white" stroke-width="1"/>
  <circle cx="496.7" cy="773.9" r="3" fill="#dc2626" stroke="white" stroke-width="1"/>
  <circle cx="547.5" cy="761.5" r="3" fill="#dc2626" stroke="white" stroke-width="1"/>
  <circle cx="598.3" cy="770.8" r="3" fill="#dc2626" stroke="white" stroke-width="1"/>
  <circle cx="649.2" cy="761.9" r="3" fill="#dc2626" stroke="white" stroke-width="1"/>
  <circle cx="700.0" cy="742.9" r="3" fill="#dc2626" stroke="white" stroke-width="1"/>
  <polyline points="90.0,964.1 140.8,959.7 191.7,953.2 242.5,942.7 293.3,924.9 344.2,889.8 395.0,844.2 445.8,803.4 496.7,776.7 547.5,759.4 598.3,778.7 649.2,766.6 700.0,778.1" fill="none" stroke="#f97316" stroke-width="2.5" stroke-linecap="round" stroke-linejoin="round"/>
  <circle cx="90.0" cy="964.1" r="3" fill="#f97316" stroke="white" stroke-width="1"/>
  <circle cx="140.8" cy="959.7" r="3" fill="#f97316" stroke="white" stroke-width="1"/>
  <circle cx="191.7" cy="953.2" r="3" fill="#f97316" stroke="white" stroke-width="1"/>
  <circle cx="242.5" cy="942.7" r="3" fill="#f97316" stroke="white" stroke-width="1"/>
  <circle cx="293.3" cy="924.9" r="3" fill="#f97316" stroke="white" stroke-width="1"/>
  <circle cx="344.2" cy="889.8" r="3" fill="#f97316" stroke="white" stroke-width="1"/>
  <circle cx="395.0" cy="844.2" r="3" fill="#f97316" stroke="white" stroke-width="1"/>
  <circle cx="445.8" cy="803.4" r="3" fill="#f97316" stroke="white" stroke-width="1"/>
  <circle cx="496.7" cy="776.7" r="3" fill="#f97316" stroke="white" stroke-width="1"/>
  <circle cx="547.5" cy="759.4" r="3" fill="#f97316" stroke="white" stroke-width="1"/>
  <circle cx="598.3" cy="778.7" r="3" fill="#f97316" stroke="white" stroke-width="1"/>
  <circle cx="649.2" cy="766.6" r="3" fill="#f97316" stroke="white" stroke-width="1"/>
  <circle cx="700.0" cy="778.1" r="3" fill="#f97316" stroke="white" stroke-width="1"/>
  <polyline points="90.0,966.2 140.8,963.3 191.7,958.9 242.5,948.6 293.3,937.6 344.2,918.4 395.0,887.3 445.8,843.6 496.7,822.1 547.5,828.6 598.3,853.6 649.2,851.9 700.0,883.2" fill="none" stroke="#7c3aed" stroke-width="2.5" stroke-linecap="round" stroke-linejoin="round"/>
  <circle cx="90.0" cy="966.2" r="3" fill="#7c3aed" stroke="white" stroke-width="1"/>
  <circle cx="140.8" cy="963.3" r="3" fill="#7c3aed" stroke="white" stroke-width="1"/>
  <circle cx="191.7" cy="958.9" r="3" fill="#7c3aed" stroke="white" stroke-width="1"/>
  <circle cx="242.5" cy="948.6" r="3" fill="#7c3aed" stroke="white" stroke-width="1"/>
  <circle cx="293.3" cy="937.6" r="3" fill="#7c3aed" stroke="white" stroke-width="1"/>
  <circle cx="344.2" cy="918.4" r="3" fill="#7c3aed" stroke="white" stroke-width="1"/>
  <circle cx="395.0" cy="887.3" r="3" fill="#7c3aed" stroke="white" stroke-width="1"/>
  <circle cx="445.8" cy="843.6" r="3" fill="#7c3aed" stroke="white" stroke-width="1"/>
  <circle cx="496.7" cy="822.1" r="3" fill="#7c3aed" stroke="white" stroke-width="1"/>
  <circle cx="547.5" cy="828.6" r="3" fill="#7c3aed" stroke="white" stroke-width="1"/>
  <circle cx="598.3" cy="853.6" r="3" fill="#7c3aed" stroke="white" stroke-width="1"/>
  <circle cx="649.2" cy="851.9" r="3" fill="#7c3aed" stroke="white" stroke-width="1"/>
  <circle cx="700.0" cy="883.2" r="3" fill="#7c3aed" stroke="white" stroke-width="1"/>
  <text x="90.0" y="983.0" text-anchor="middle" fill="#374151" font-size="8.5">8 B</text>
  <text x="140.8" y="983.0" text-anchor="middle" fill="#374151" font-size="8.5">16 B</text>
  <text x="191.7" y="983.0" text-anchor="middle" fill="#374151" font-size="8.5">32 B</text>
  <text x="242.5" y="983.0" text-anchor="middle" fill="#374151" font-size="8.5">64 B</text>
  <text x="293.3" y="983.0" text-anchor="middle" fill="#374151" font-size="8.5">128 B</text>
  <text x="344.2" y="983.0" text-anchor="middle" fill="#374151" font-size="8.5">256 B</text>
  <text x="395.0" y="983.0" text-anchor="middle" fill="#374151" font-size="8.5">512 B</text>
  <text x="445.8" y="983.0" text-anchor="middle" fill="#374151" font-size="8.5">1 KiB</text>
  <text x="496.7" y="983.0" text-anchor="middle" fill="#374151" font-size="8.5">2 KiB</text>
  <text x="547.5" y="983.0" text-anchor="middle" fill="#374151" font-size="8.5">4 KiB</text>
  <text x="598.3" y="983.0" text-anchor="middle" fill="#374151" font-size="8.5">8 KiB</text>
  <text x="649.2" y="983.0" text-anchor="middle" fill="#374151" font-size="8.5">16 KiB</text>
  <text x="700.0" y="983.0" text-anchor="middle" fill="#374151" font-size="8.5">32 KiB</text>
  <line x1="145" y1="999" x2="159" y2="999" stroke="#eab308" stroke-width="2.5"/>
  <circle cx="152" cy="999" r="2.5" fill="#eab308"/>
  <text x="165" y="1003" fill="#374151" font-size="11" font-weight="500">libzmq v4.3.5</text>
  <line x1="270" y1="999" x2="284" y2="999" stroke="#7c3aed" stroke-width="2.5"/>
  <circle cx="277" cy="999" r="2.5" fill="#7c3aed"/>
  <text x="290" y="1003" fill="#374151" font-size="11" font-weight="500">omq-compio</text>
  <line x1="395" y1="999" x2="409" y2="999" stroke="#f97316" stroke-width="2.5"/>
  <circle cx="402" cy="999" r="2.5" fill="#f97316"/>
  <text x="415" y="1003" fill="#374151" font-size="11" font-weight="500">omq-tokio</text>
  <line x1="520" y1="999" x2="534" y2="999" stroke="#dc2626" stroke-width="2.5"/>
  <circle cx="527" cy="999" r="2.5" fill="#dc2626"/>
  <text x="540" y="1003" fill="#374151" font-size="11" font-weight="500">omq-tokio (MT)</text>
  <line x1="145" y1="1021" x2="159" y2="1021" stroke="#6b7280" stroke-width="2" stroke-dasharray="2,3" opacity="0.7"/>
  <text x="165" y="1025" fill="#6b7280" font-size="10">CPU % (left)</text>
  <line x1="290" y1="1021" x2="304" y2="1021" stroke="#6b7280" stroke-width="2.5"/>
  <circle cx="297" cy="1021" r="2" fill="#6b7280"/>
  <text x="310" y="1025" fill="#6b7280" font-size="10">GB/s (inner right)</text>
  <line x1="455" y1="1021" x2="469" y2="1021" stroke="#6b7280" stroke-width="1.5" stroke-dasharray="5,3"/>
  <text x="475" y="1025" fill="#6b7280" font-size="10">msg/s (outer right)</text>
</svg>
