<svg xmlns="http://www.w3.org/2000/svg" viewBox="0 0 875 1059" font-family="system-ui, -apple-system, sans-serif">
  <rect width="875" height="1059" fill="white"/>
  <text x="395.0" y="46" text-anchor="middle" fill="#9ca3af" font-size="10">Linux VM on a 2018 Mac Mini, Intel Core i7-8700B @ 3.20GHz, 6 cores, performance governor, turbo off</text>
  <text x="395.0" y="32.0" text-anchor="middle" fill="#111827" font-size="13" font-weight="700">PUB/SUB throughput, 1 subscriber: IPC</text>
  <line x1="90.0" y1="276.5" x2="700.0" y2="276.5" stroke="#e5e7eb" stroke-width="1"/>
  <text x="82.0" y="276.5" text-anchor="end" dominant-baseline="middle" fill="#374151" font-size="10">50%</text>
  <line x1="90.0" y1="244.0" x2="700.0" y2="244.0" stroke="#e5e7eb" stroke-width="1"/>
  <text x="82.0" y="244.0" text-anchor="end" dominant-baseline="middle" fill="#374151" font-size="10">100%</text>
  <line x1="90.0" y1="211.5" x2="700.0" y2="211.5" stroke="#e5e7eb" stroke-width="1"/>
  <text x="82.0" y="211.5" text-anchor="end" dominant-baseline="middle" fill="#374151" font-size="10">150%</text>
  <line x1="90.0" y1="179.0" x2="700.0" y2="179.0" stroke="#e5e7eb" stroke-width="1"/>
  <text x="82.0" y="179.0" text-anchor="end" dominant-baseline="middle" fill="#374151" font-size="10">200%</text>
  <line x1="90.0" y1="146.5" x2="700.0" y2="146.5" stroke="#e5e7eb" stroke-width="1"/>
  <text x="82.0" y="146.5" text-anchor="end" dominant-baseline="middle" fill="#374151" font-size="10">250%</text>
  <line x1="90.0" y1="114.0" x2="700.0" y2="114.0" stroke="#e5e7eb" stroke-width="1"/>
  <text x="82.0" y="114.0" text-anchor="end" dominant-baseline="middle" fill="#374151" font-size="10">300%</text>
  <line x1="90.0" y1="81.5" x2="700.0" y2="81.5" stroke="#e5e7eb" stroke-width="1"/>
  <text x="82.0" y="81.5" text-anchor="end" dominant-baseline="middle" fill="#374151" font-size="10">350%</text>
  <line x1="90.0" y1="49.0" x2="700.0" y2="49.0" stroke="#e5e7eb" stroke-width="1"/>
  <text x="82.0" y="49.0" text-anchor="end" dominant-baseline="middle" fill="#374151" font-size="10">400%</text>
  <line x1="90.0" y1="229.6" x2="700.0" y2="229.6" stroke="#e5e7eb" stroke-width="1" stroke-dasharray="3,6"/>
  <text x="708.0" y="229.6" text-anchor="start" dominant-baseline="middle" fill="#6b7280" font-size="10">1 GB/s</text>
  <line x1="90.0" y1="150.2" x2="700.0" y2="150.2" stroke="#e5e7eb" stroke-width="1" stroke-dasharray="3,6"/>
  <text x="708.0" y="150.2" text-anchor="start" dominant-baseline="middle" fill="#6b7280" font-size="10">2 GB/s</text>
  <line x1="90.0" y1="70.8" x2="700.0" y2="70.8" stroke="#e5e7eb" stroke-width="1" stroke-dasharray="3,6"/>
  <text x="708.0" y="70.8" text-anchor="start" dominant-baseline="middle" fill="#6b7280" font-size="10">3 GB/s</text>
  <text x="788.0" y="272.9" text-anchor="start" dominant-baseline="middle" fill="#9ca3af" font-size="10">1M/s</text>
  <text x="788.0" y="236.8" text-anchor="start" dominant-baseline="middle" fill="#9ca3af" font-size="10">2M/s</text>
  <text x="788.0" y="200.6" text-anchor="start" dominant-baseline="middle" fill="#9ca3af" font-size="10">3M/s</text>
  <text x="788.0" y="164.5" text-anchor="start" dominant-baseline="middle" fill="#9ca3af" font-size="10">4M/s</text>
  <text x="788.0" y="128.4" text-anchor="start" dominant-baseline="middle" fill="#9ca3af" font-size="10">5M/s</text>
  <text x="788.0" y="92.3" text-anchor="start" dominant-baseline="middle" fill="#9ca3af" font-size="10">6M/s</text>
  <text x="788.0" y="56.1" text-anchor="start" dominant-baseline="middle" fill="#9ca3af" font-size="10">7M/s</text>
  <line x1="90.0" y1="49.0" x2="90.0" y2="309.0" stroke="#e5e7eb" stroke-width="1"/>
  <line x1="140.8" y1="49.0" x2="140.8" y2="309.0" stroke="#e5e7eb" stroke-width="1"/>
  <line x1="191.7" y1="49.0" x2="191.7" y2="309.0" stroke="#e5e7eb" stroke-width="1"/>
  <line x1="242.5" y1="49.0" x2="242.5" y2="309.0" stroke="#e5e7eb" stroke-width="1"/>
  <line x1="293.3" y1="49.0" x2="293.3" y2="309.0" stroke="#e5e7eb" stroke-width="1"/>
  <line x1="344.2" y1="49.0" x2="344.2" y2="309.0" stroke="#e5e7eb" stroke-width="1"/>
  <line x1="395.0" y1="49.0" x2="395.0" y2="309.0" stroke="#e5e7eb" stroke-width="1"/>
  <line x1="445.8" y1="49.0" x2="445.8" y2="309.0" stroke="#e5e7eb" stroke-width="1"/>
  <line x1="496.7" y1="49.0" x2="496.7" y2="309.0" stroke="#e5e7eb" stroke-width="1"/>
  <line x1="547.5" y1="49.0" x2="547.5" y2="309.0" stroke="#e5e7eb" stroke-width="1"/>
  <line x1="598.3" y1="49.0" x2="598.3" y2="309.0" stroke="#e5e7eb" stroke-width="1"/>
  <line x1="649.2" y1="49.0" x2="649.2" y2="309.0" stroke="#e5e7eb" stroke-width="1"/>
  <line x1="700.0" y1="49.0" x2="700.0" y2="309.0" stroke="#e5e7eb" stroke-width="1"/>
  <line x1="90.0" y1="49.0" x2="90.0" y2="309.0" stroke="#9ca3af" stroke-width="1.5"/>
  <line x1="700.0" y1="49.0" x2="700.0" y2="309.0" stroke="#9ca3af" stroke-width="1.5"/>
  <line x1="90.0" y1="309.0" x2="700.0" y2="309.0" stroke="#9ca3af" stroke-width="1.5"/>
  <line x1="780.0" y1="49.0" x2="780.0" y2="309.0" stroke="#d1d5db" stroke-width="1"/>
  <text x="40.0" y="179.0" text-anchor="middle" fill="#374151" font-size="10" font-weight="600" transform="rotate(-90,40.0,179.0)">CPU %</text>
  <polyline points="90.0,150.4 140.8,145.9 191.7,162.4 242.5,139.7 293.3,151.4 344.2,157.6 395.0,168.9 445.8,194.0 496.7,214.1 547.5,221.2 598.3,221.3 649.2,215.7 700.0,202.7" fill="none" stroke="#eab308" stroke-width="2" stroke-dasharray="2,3"/>
  <polyline points="90.0,220.0 140.8,220.0 191.7,220.0 242.5,220.1 293.3,219.7 344.2,220.0 395.0,220.0 445.8,219.6 496.7,220.0 547.5,220.0 598.3,220.4 649.2,219.6 700.0,220.0" fill="none" stroke="#dc2626" stroke-width="2" stroke-dasharray="2,3"/>
  <polyline points="90.0,220.0 140.8,220.0 191.7,220.0 242.5,220.0 293.3,220.0 344.2,220.0 395.0,220.0 445.8,219.6 496.7,220.0 547.5,219.6 598.3,220.0 649.2,220.0 700.0,219.6" fill="none" stroke="#f97316" stroke-width="2" stroke-dasharray="2,3"/>
  <polyline points="90.0,235.9 140.8,235.9 191.7,236.2 242.5,235.9 293.3,236.2 344.2,236.2 395.0,236.2 445.8,235.9 496.7,235.9 547.5,235.9 598.3,235.6 649.2,235.6 700.0,234.9" fill="none" stroke="#7c3aed" stroke-width="2" stroke-dasharray="2,3"/>
  <polyline points="90.0,91.5 140.8,92.3 191.7,82.9 242.5,170.2 293.3,234.2 344.2,236.4 395.0,246.1 445.8,270.4 496.7,287.3 547.5,296.8 598.3,302.2 649.2,305.2 700.0,305.9" fill="none" stroke="#eab308" stroke-width="1.5" stroke-dasharray="5,3"/>
  <polyline points="90.0,203.0 140.8,206.0 191.7,205.1 242.5,221.8 293.3,225.1 344.2,235.0 395.0,256.9 445.8,275.0 496.7,285.1 547.5,296.8 598.3,302.3 649.2,305.7 700.0,307.3" fill="none" stroke="#dc2626" stroke-width="1.5" stroke-dasharray="5,3"/>
  <polyline points="90.0,203.1 140.8,205.2 191.7,205.7 242.5,222.5 293.3,224.9 344.2,235.4 395.0,256.9 445.8,275.4 496.7,285.5 547.5,296.7 598.3,302.9 649.2,305.5 700.0,307.2" fill="none" stroke="#f97316" stroke-width="1.5" stroke-dasharray="5,3"/>
  <polyline points="90.0,173.4 140.8,174.8 191.7,177.5 242.5,210.0 293.3,217.4 344.2,225.1 395.0,236.7 445.8,254.7 496.7,270.0 547.5,286.2 598.3,298.1 649.2,303.1 700.0,305.9" fill="none" stroke="#7c3aed" stroke-width="1.5" stroke-dasharray="5,3"/>
  <polyline points="90.0,305.2 140.8,301.4 191.7,293.1 242.5,289.5 293.3,287.9 344.2,268.1 395.0,238.2 445.8,222.2 496.7,211.4 547.5,199.4 598.3,186.0 649.2,170.8 700.0,86.9" fill="none" stroke="#eab308" stroke-width="2.5" stroke-linecap="round" stroke-linejoin="round"/>
  <circle cx="90.0" cy="305.2" r="3" fill="#eab308" stroke="white" stroke-width="1"/>
  <circle cx="140.8" cy="301.4" r="3" fill="#eab308" stroke="white" stroke-width="1"/>
  <circle cx="191.7" cy="293.1" r="3" fill="#eab308" stroke="white" stroke-width="1"/>
  <circle cx="242.5" cy="289.5" r="3" fill="#eab308" stroke="white" stroke-width="1"/>
  <circle cx="293.3" cy="287.9" r="3" fill="#eab308" stroke="white" stroke-width="1"/>
  <circle cx="344.2" cy="268.1" r="3" fill="#eab308" stroke="white" stroke-width="1"/>
  <circle cx="395.0" cy="238.2" r="3" fill="#eab308" stroke="white" stroke-width="1"/>
  <circle cx="445.8" cy="222.2" r="3" fill="#eab308" stroke="white" stroke-width="1"/>
  <circle cx="496.7" cy="211.4" r="3" fill="#eab308" stroke="white" stroke-width="1"/>
  <circle cx="547.5" cy="199.4" r="3" fill="#eab308" stroke="white" stroke-width="1"/>
  <circle cx="598.3" cy="186.0" r="3" fill="#eab308" stroke="white" stroke-width="1"/>
  <circle cx="649.2" cy="170.8" r="3" fill="#eab308" stroke="white" stroke-width="1"/>
  <circle cx="700.0" cy="86.9" r="3" fill="#eab308" stroke="white" stroke-width="1"/>
  <polyline points="90.0,307.1 140.8,305.4 191.7,301.7 242.5,296.7 293.3,285.4 344.2,267.4 395.0,250.3 445.8,232.5 496.7,201.6 547.5,199.1 598.3,188.9 649.2,191.9 700.0,186.8" fill="none" stroke="#dc2626" stroke-width="2.5" stroke-linecap="round" stroke-linejoin="round"/>
  <circle cx="90.0" cy="307.1" r="3" fill="#dc2626" stroke="white" stroke-width="1"/>
  <circle cx="140.8" cy="305.4" r="3" fill="#dc2626" stroke="white" stroke-width="1"/>
  <circle cx="191.7" cy="301.7" r="3" fill="#dc2626" stroke="white" stroke-width="1"/>
  <circle cx="242.5" cy="296.7" r="3" fill="#dc2626" stroke="white" stroke-width="1"/>
  <circle cx="293.3" cy="285.4" r="3" fill="#dc2626" stroke="white" stroke-width="1"/>
  <circle cx="344.2" cy="267.4" r="3" fill="#dc2626" stroke="white" stroke-width="1"/>
  <circle cx="395.0" cy="250.3" r="3" fill="#dc2626" stroke="white" stroke-width="1"/>
  <circle cx="445.8" cy="232.5" r="3" fill="#dc2626" stroke="white" stroke-width="1"/>
  <circle cx="496.7" cy="201.6" r="3" fill="#dc2626" stroke="white" stroke-width="1"/>
  <circle cx="547.5" cy="199.1" r="3" fill="#dc2626" stroke="white" stroke-width="1"/>
  <circle cx="598.3" cy="188.9" r="3" fill="#dc2626" stroke="white" stroke-width="1"/>
  <circle cx="649.2" cy="191.9" r="3" fill="#dc2626" stroke="white" stroke-width="1"/>
  <circle cx="700.0" cy="186.8" r="3" fill="#dc2626" stroke="white" stroke-width="1"/>
  <polyline points="90.0,307.1 140.8,305.3 191.7,301.7 242.5,296.8 293.3,285.3 344.2,267.6 395.0,250.4 445.8,233.4 496.7,203.4 547.5,197.9 598.3,198.5 649.2,183.1 700.0,180.6" fill="none" stroke="#f97316" stroke-width="2.5" stroke-linecap="round" stroke-linejoin="round"/>
  <circle cx="90.0" cy="307.1" r="3" fill="#f97316" stroke="white" stroke-width="1"/>
  <circle cx="140.8" cy="305.3" r="3" fill="#f97316" stroke="white" stroke-width="1"/>
  <circle cx="191.7" cy="301.7" r="3" fill="#f97316" stroke="white" stroke-width="1"/>
  <circle cx="242.5" cy="296.8" r="3" fill="#f97316" stroke="white" stroke-width="1"/>
  <circle cx="293.3" cy="285.3" r="3" fill="#f97316" stroke="white" stroke-width="1"/>
  <circle cx="344.2" cy="267.6" r="3" fill="#f97316" stroke="white" stroke-width="1"/>
  <circle cx="395.0" cy="250.4" r="3" fill="#f97316" stroke="white" stroke-width="1"/>
  <circle cx="445.8" cy="233.4" r="3" fill="#f97316" stroke="white" stroke-width="1"/>
  <circle cx="496.7" cy="203.4" r="3" fill="#f97316" stroke="white" stroke-width="1"/>
  <circle cx="547.5" cy="197.9" r="3" fill="#f97316" stroke="white" stroke-width="1"/>
  <circle cx="598.3" cy="198.5" r="3" fill="#f97316" stroke="white" stroke-width="1"/>
  <circle cx="649.2" cy="183.1" r="3" fill="#f97316" stroke="white" stroke-width="1"/>
  <circle cx="700.0" cy="180.6" r="3" fill="#f97316" stroke="white" stroke-width="1"/>
  <polyline points="90.0,306.6 140.8,304.3 191.7,299.7 242.5,295.1 293.3,283.2 344.2,261.8 395.0,227.7 445.8,186.8 496.7,133.5 547.5,103.8 598.3,112.6 649.2,97.7 700.0,82.9" fill="none" stroke="#7c3aed" stroke-width="2.5" stroke-linecap="round" stroke-linejoin="round"/>
  <circle cx="90.0" cy="306.6" r="3" fill="#7c3aed" stroke="white" stroke-width="1"/>
  <circle cx="140.8" cy="304.3" r="3" fill="#7c3aed" stroke="white" stroke-width="1"/>
  <circle cx="191.7" cy="299.7" r="3" fill="#7c3aed" stroke="white" stroke-width="1"/>
  <circle cx="242.5" cy="295.1" r="3" fill="#7c3aed" stroke="white" stroke-width="1"/>
  <circle cx="293.3" cy="283.2" r="3" fill="#7c3aed" stroke="white" stroke-width="1"/>
  <circle cx="344.2" cy="261.8" r="3" fill="#7c3aed" stroke="white" stroke-width="1"/>
  <circle cx="395.0" cy="227.7" r="3" fill="#7c3aed" stroke="white" stroke-width="1"/>
  <circle cx="445.8" cy="186.8" r="3" fill="#7c3aed" stroke="white" stroke-width="1"/>
  <circle cx="496.7" cy="133.5" r="3" fill="#7c3aed" stroke="white" stroke-width="1"/>
  <circle cx="547.5" cy="103.8" r="3" fill="#7c3aed" stroke="white" stroke-width="1"/>
  <circle cx="598.3" cy="112.6" r="3" fill="#7c3aed" stroke="white" stroke-width="1"/>
  <circle cx="649.2" cy="97.7" r="3" fill="#7c3aed" stroke="white" stroke-width="1"/>
  <circle cx="700.0" cy="82.9" r="3" fill="#7c3aed" stroke="white" stroke-width="1"/>
  <text x="90.0" y="323.0" text-anchor="middle" fill="#374151" font-size="8.5">8 B</text>
  <text x="140.8" y="323.0" text-anchor="middle" fill="#374151" font-size="8.5">16 B</text>
  <text x="191.7" y="323.0" text-anchor="middle" fill="#374151" font-size="8.5">32 B</text>
  <text x="242.5" y="323.0" text-anchor="middle" fill="#374151" font-size="8.5">64 B</text>
  <text x="293.3" y="323.0" text-anchor="middle" fill="#374151" font-size="8.5">128 B</text>
  <text x="344.2" y="323.0" text-anchor="middle" fill="#374151" font-size="8.5">256 B</text>
  <text x="395.0" y="323.0" text-anchor="middle" fill="#374151" font-size="8.5">512 B</text>
  <text x="445.8" y="323.0" text-anchor="middle" fill="#374151" font-size="8.5">1 KiB</text>
  <text x="496.7" y="323.0" text-anchor="middle" fill="#374151" font-size="8.5">2 KiB</text>
  <text x="547.5" y="323.0" text-anchor="middle" fill="#374151" font-size="8.5">4 KiB</text>
  <text x="598.3" y="323.0" text-anchor="middle" fill="#374151" font-size="8.5">8 KiB</text>
  <text x="649.2" y="323.0" text-anchor="middle" fill="#374151" font-size="8.5">16 KiB</text>
  <text x="700.0" y="323.0" text-anchor="middle" fill="#374151" font-size="8.5">32 KiB</text>
  <text x="395.0" y="362.0" text-anchor="middle" fill="#111827" font-size="13" font-weight="700">PUB/SUB throughput, 8 subscribers: IPC</text>
  <line x1="90.0" y1="606.5" x2="700.0" y2="606.5" stroke="#e5e7eb" stroke-width="1"/>
  <text x="82.0" y="606.5" text-anchor="end" dominant-baseline="middle" fill="#374151" font-size="10">50%</text>
  <line x1="90.0" y1="574.0" x2="700.0" y2="574.0" stroke="#e5e7eb" stroke-width="1"/>
  <text x="82.0" y="574.0" text-anchor="end" dominant-baseline="middle" fill="#374151" font-size="10">100%</text>
  <line x1="90.0" y1="541.5" x2="700.0" y2="541.5" stroke="#e5e7eb" stroke-width="1"/>
  <text x="82.0" y="541.5" text-anchor="end" dominant-baseline="middle" fill="#374151" font-size="10">150%</text>
  <line x1="90.0" y1="509.0" x2="700.0" y2="509.0" stroke="#e5e7eb" stroke-width="1"/>
  <text x="82.0" y="509.0" text-anchor="end" dominant-baseline="middle" fill="#374151" font-size="10">200%</text>
  <line x1="90.0" y1="476.5" x2="700.0" y2="476.5" stroke="#e5e7eb" stroke-width="1"/>
  <text x="82.0" y="476.5" text-anchor="end" dominant-baseline="middle" fill="#374151" font-size="10">250%</text>
  <line x1="90.0" y1="444.0" x2="700.0" y2="444.0" stroke="#e5e7eb" stroke-width="1"/>
  <text x="82.0" y="444.0" text-anchor="end" dominant-baseline="middle" fill="#374151" font-size="10">300%</text>
  <line x1="90.0" y1="411.5" x2="700.0" y2="411.5" stroke="#e5e7eb" stroke-width="1"/>
  <text x="82.0" y="411.5" text-anchor="end" dominant-baseline="middle" fill="#374151" font-size="10">350%</text>
  <line x1="90.0" y1="379.0" x2="700.0" y2="379.0" stroke="#e5e7eb" stroke-width="1"/>
  <text x="82.0" y="379.0" text-anchor="end" dominant-baseline="middle" fill="#374151" font-size="10">400%</text>
  <line x1="90.0" y1="569.2" x2="700.0" y2="569.2" stroke="#e5e7eb" stroke-width="1" stroke-dasharray="3,6"/>
  <text x="708.0" y="569.2" text-anchor="start" dominant-baseline="middle" fill="#6b7280" font-size="10">2 GB/s</text>
  <line x1="90.0" y1="499.5" x2="700.0" y2="499.5" stroke="#e5e7eb" stroke-width="1" stroke-dasharray="3,6"/>
  <text x="708.0" y="499.5" text-anchor="start" dominant-baseline="middle" fill="#6b7280" font-size="10">4 GB/s</text>
  <line x1="90.0" y1="429.7" x2="700.0" y2="429.7" stroke="#e5e7eb" stroke-width="1" stroke-dasharray="3,6"/>
  <text x="708.0" y="429.7" text-anchor="start" dominant-baseline="middle" fill="#6b7280" font-size="10">6 GB/s</text>
  <text x="788.0" y="603.6" text-anchor="start" dominant-baseline="middle" fill="#9ca3af" font-size="10">500k/s</text>
  <text x="788.0" y="568.3" text-anchor="start" dominant-baseline="middle" fill="#9ca3af" font-size="10">1M/s</text>
  <text x="788.0" y="532.9" text-anchor="start" dominant-baseline="middle" fill="#9ca3af" font-size="10">1.5M/s</text>
  <text x="788.0" y="497.5" text-anchor="start" dominant-baseline="middle" fill="#9ca3af" font-size="10">2M/s</text>
  <text x="788.0" y="462.1" text-anchor="start" dominant-baseline="middle" fill="#9ca3af" font-size="10">2.5M/s</text>
  <text x="788.0" y="426.8" text-anchor="start" dominant-baseline="middle" fill="#9ca3af" font-size="10">3M/s</text>
  <text x="788.0" y="391.4" text-anchor="start" dominant-baseline="middle" fill="#9ca3af" font-size="10">3.5M/s</text>
  <line x1="90.0" y1="379.0" x2="90.0" y2="639.0" stroke="#e5e7eb" stroke-width="1"/>
  <line x1="140.8" y1="379.0" x2="140.8" y2="639.0" stroke="#e5e7eb" stroke-width="1"/>
  <line x1="191.7" y1="379.0" x2="191.7" y2="639.0" stroke="#e5e7eb" stroke-width="1"/>
  <line x1="242.5" y1="379.0" x2="242.5" y2="639.0" stroke="#e5e7eb" stroke-width="1"/>
  <line x1="293.3" y1="379.0" x2="293.3" y2="639.0" stroke="#e5e7eb" stroke-width="1"/>
  <line x1="344.2" y1="379.0" x2="344.2" y2="639.0" stroke="#e5e7eb" stroke-width="1"/>
  <line x1="395.0" y1="379.0" x2="395.0" y2="639.0" stroke="#e5e7eb" stroke-width="1"/>
  <line x1="445.8" y1="379.0" x2="445.8" y2="639.0" stroke="#e5e7eb" stroke-width="1"/>
  <line x1="496.7" y1="379.0" x2="496.7" y2="639.0" stroke="#e5e7eb" stroke-width="1"/>
  <line x1="547.5" y1="379.0" x2="547.5" y2="639.0" stroke="#e5e7eb" stroke-width="1"/>
  <line x1="598.3" y1="379.0" x2="598.3" y2="639.0" stroke="#e5e7eb" stroke-width="1"/>
  <line x1="649.2" y1="379.0" x2="649.2" y2="639.0" stroke="#e5e7eb" stroke-width="1"/>
  <line x1="700.0" y1="379.0" x2="700.0" y2="639.0" stroke="#e5e7eb" stroke-width="1"/>
  <line x1="90.0" y1="379.0" x2="90.0" y2="639.0" stroke="#9ca3af" stroke-width="1.5"/>
  <line x1="700.0" y1="379.0" x2="700.0" y2="639.0" stroke="#9ca3af" stroke-width="1.5"/>
  <line x1="90.0" y1="639.0" x2="700.0" y2="639.0" stroke="#9ca3af" stroke-width="1.5"/>
  <line x1="780.0" y1="379.0" x2="780.0" y2="639.0" stroke="#d1d5db" stroke-width="1"/>
  <text x="40.0" y="509.0" text-anchor="middle" fill="#374151" font-size="10" font-weight="600" transform="rotate(-90,40.0,509.0)">CPU %</text>
  <polyline points="90.0,506.7 140.8,504.8 191.7,513.6 242.5,515.5 293.3,519.7 344.2,538.6 395.0,550.9 445.8,555.2 496.7,557.4 547.5,557.4 598.3,557.1 649.2,552.6 700.0,550.9" fill="none" stroke="#eab308" stroke-width="2" stroke-dasharray="2,3"/>
  <polyline points="90.0,554.5 140.8,551.9 191.7,554.2 242.5,554.5 293.3,554.2 344.2,551.3 395.0,550.0 445.8,549.6 496.7,550.0 547.5,549.6 598.3,549.6 649.2,550.0 700.0,550.0" fill="none" stroke="#dc2626" stroke-width="2" stroke-dasharray="2,3"/>
  <polyline points="90.0,555.1 140.8,551.6 191.7,552.9 242.5,553.5 293.3,553.5 344.2,551.6 395.0,550.3 445.8,549.7 496.7,549.6 547.5,550.0 598.3,549.6 649.2,550.0 700.0,550.0" fill="none" stroke="#f97316" stroke-width="2" stroke-dasharray="2,3"/>
  <polyline points="90.0,564.6 140.8,564.3 191.7,564.3 242.5,563.3 293.3,564.3 344.2,565.6 395.0,565.6 445.8,565.2 496.7,565.2 547.5,564.9 598.3,564.3 649.2,563.6 700.0,561.7" fill="none" stroke="#7c3aed" stroke-width="2" stroke-dasharray="2,3"/>
  <polyline points="90.0,535.2 140.8,541.8 191.7,550.4 242.5,569.8 293.3,590.2 344.2,605.3 395.0,618.5 445.8,626.9 496.7,632.5 547.5,635.5 598.3,637.1 649.2,638.0 700.0,638.2" fill="none" stroke="#eab308" stroke-width="1.5" stroke-dasharray="5,3"/>
  <polyline points="90.0,412.9 140.8,431.3 191.7,474.8 242.5,494.9 293.3,496.9 344.2,524.2 395.0,562.8 445.8,589.3 496.7,614.0 547.5,626.6 598.3,633.7 649.2,635.6 700.0,637.5" fill="none" stroke="#dc2626" stroke-width="1.5" stroke-dasharray="5,3"/>
  <polyline points="90.0,425.5 140.8,459.8 191.7,458.8 242.5,500.0 293.3,494.9 344.2,527.8 395.0,562.3 445.8,590.5 496.7,615.8 547.5,626.8 598.3,632.5 649.2,635.8 700.0,637.3" fill="none" stroke="#f97316" stroke-width="1.5" stroke-dasharray="5,3"/>
  <polyline points="90.0,567.3 140.8,568.1 191.7,570.3 242.5,577.0 293.3,581.4 344.2,587.9 395.0,596.5 445.8,616.0 496.7,627.2 547.5,632.0 598.3,635.4 649.2,637.0 700.0,638.0" fill="none" stroke="#7c3aed" stroke-width="1.5" stroke-dasharray="5,3"/>
  <polyline points="90.0,635.7 140.8,632.9 191.7,627.8 242.5,621.5 293.3,614.4 344.2,605.0 395.0,597.7 445.8,590.2 496.7,586.8 547.5,581.7 598.3,576.8 649.2,574.3 700.0,535.6" fill="none" stroke="#eab308" stroke-width="2.5" stroke-linecap="round" stroke-linejoin="round"/>
  <circle cx="90.0" cy="635.7" r="3" fill="#eab308" stroke="white" stroke-width="1"/>
  <circle cx="140.8" cy="632.9" r="3" fill="#eab308" stroke="white" stroke-width="1"/>
  <circle cx="191.7" cy="627.8" r="3" fill="#eab308" stroke="white" stroke-width="1"/>
  <circle cx="242.5" cy="621.5" r="3" fill="#eab308" stroke="white" stroke-width="1"/>
  <circle cx="293.3" cy="614.4" r="3" fill="#eab308" stroke="white" stroke-width="1"/>
  <circle cx="344.2" cy="605.0" r="3" fill="#eab308" stroke="white" stroke-width="1"/>
  <circle cx="395.0" cy="597.7" r="3" fill="#eab308" stroke="white" stroke-width="1"/>
  <circle cx="445.8" cy="590.2" r="3" fill="#eab308" stroke="white" stroke-width="1"/>
  <circle cx="496.7" cy="586.8" r="3" fill="#eab308" stroke="white" stroke-width="1"/>
  <circle cx="547.5" cy="581.7" r="3" fill="#eab308" stroke="white" stroke-width="1"/>
  <circle cx="598.3" cy="576.8" r="3" fill="#eab308" stroke="white" stroke-width="1"/>
  <circle cx="649.2" cy="574.3" r="3" fill="#eab308" stroke="white" stroke-width="1"/>
  <circle cx="700.0" cy="535.6" r="3" fill="#eab308" stroke="white" stroke-width="1"/>
  <polyline points="90.0,631.9 140.8,625.9 191.7,618.3 242.5,602.6 293.3,567.2 344.2,523.0 395.0,485.0 445.8,438.3 496.7,436.9 547.5,438.5 598.3,467.7 649.2,421.4 700.0,447.2" fill="none" stroke="#dc2626" stroke-width="2.5" stroke-linecap="round" stroke-linejoin="round"/>
  <circle cx="90.0" cy="631.9" r="3" fill="#dc2626" stroke="white" stroke-width="1"/>
  <circle cx="140.8" cy="625.9" r="3" fill="#dc2626" stroke="white" stroke-width="1"/>
  <circle cx="191.7" cy="618.3" r="3" fill="#dc2626" stroke="white" stroke-width="1"/>
  <circle cx="242.5" cy="602.6" r="3" fill="#dc2626" stroke="white" stroke-width="1"/>
  <circle cx="293.3" cy="567.2" r="3" fill="#dc2626" stroke="white" stroke-width="1"/>
  <circle cx="344.2" cy="523.0" r="3" fill="#dc2626" stroke="white" stroke-width="1"/>
  <circle cx="395.0" cy="485.0" r="3" fill="#dc2626" stroke="white" stroke-width="1"/>
  <circle cx="445.8" cy="438.3" r="3" fill="#dc2626" stroke="white" stroke-width="1"/>
  <circle cx="496.7" cy="436.9" r="3" fill="#dc2626" stroke="white" stroke-width="1"/>
  <circle cx="547.5" cy="438.5" r="3" fill="#dc2626" stroke="white" stroke-width="1"/>
  <circle cx="598.3" cy="467.7" r="3" fill="#dc2626" stroke="white" stroke-width="1"/>
  <circle cx="649.2" cy="421.4" r="3" fill="#dc2626" stroke="white" stroke-width="1"/>
  <circle cx="700.0" cy="447.2" r="3" fill="#dc2626" stroke="white" stroke-width="1"/>
  <polyline points="90.0,632.3 140.8,627.7 191.7,616.3 242.5,603.9 293.3,566.2 344.2,526.7 395.0,484.1 445.8,443.0 496.7,451.2 547.5,441.7 598.3,429.9 649.2,430.4 700.0,412.9" fill="none" stroke="#f97316" stroke-width="2.5" stroke-linecap="round" stroke-linejoin="round"/>
  <circle cx="90.0" cy="632.3" r="3" fill="#f97316" stroke="white" stroke-width="1"/>
  <circle cx="140.8" cy="627.7" r="3" fill="#f97316" stroke="white" stroke-width="1"/>
  <circle cx="191.7" cy="616.3" r="3" fill="#f97316" stroke="white" stroke-width="1"/>
  <circle cx="242.5" cy="603.9" r="3" fill="#f97316" stroke="white" stroke-width="1"/>
  <circle cx="293.3" cy="566.2" r="3" fill="#f97316" stroke="white" stroke-width="1"/>
  <circle cx="344.2" cy="526.7" r="3" fill="#f97316" stroke="white" stroke-width="1"/>
  <circle cx="395.0" cy="484.1" r="3" fill="#f97316" stroke="white" stroke-width="1"/>
  <circle cx="445.8" cy="443.0" r="3" fill="#f97316" stroke="white" stroke-width="1"/>
  <circle cx="496.7" cy="451.2" r="3" fill="#f97316" stroke="white" stroke-width="1"/>
  <circle cx="547.5" cy="441.7" r="3" fill="#f97316" stroke="white" stroke-width="1"/>
  <circle cx="598.3" cy="429.9" r="3" fill="#f97316" stroke="white" stroke-width="1"/>
  <circle cx="649.2" cy="430.4" r="3" fill="#f97316" stroke="white" stroke-width="1"/>
  <circle cx="700.0" cy="412.9" r="3" fill="#f97316" stroke="white" stroke-width="1"/>
  <polyline points="90.0,636.7 140.8,634.5 191.7,630.3 242.5,623.4 293.3,609.9 344.2,587.4 395.0,553.2 445.8,546.0 496.7,544.0 547.5,525.2 598.3,523.1 649.2,509.7 700.0,512.4" fill="none" stroke="#7c3aed" stroke-width="2.5" stroke-linecap="round" stroke-linejoin="round"/>
  <circle cx="90.0" cy="636.7" r="3" fill="#7c3aed" stroke="white" stroke-width="1"/>
  <circle cx="140.8" cy="634.5" r="3" fill="#7c3aed" stroke="white" stroke-width="1"/>
  <circle cx="191.7" cy="630.3" r="3" fill="#7c3aed" stroke="white" stroke-width="1"/>
  <circle cx="242.5" cy="623.4" r="3" fill="#7c3aed" stroke="white" stroke-width="1"/>
  <circle cx="293.3" cy="609.9" r="3" fill="#7c3aed" stroke="white" stroke-width="1"/>
  <circle cx="344.2" cy="587.4" r="3" fill="#7c3aed" stroke="white" stroke-width="1"/>
  <circle cx="395.0" cy="553.2" r="3" fill="#7c3aed" stroke="white" stroke-width="1"/>
  <circle cx="445.8" cy="546.0" r="3" fill="#7c3aed" stroke="white" stroke-width="1"/>
  <circle cx="496.7" cy="544.0" r="3" fill="#7c3aed" stroke="white" stroke-width="1"/>
  <circle cx="547.5" cy="525.2" r="3" fill="#7c3aed" stroke="white" stroke-width="1"/>
  <circle cx="598.3" cy="523.1" r="3" fill="#7c3aed" stroke="white" stroke-width="1"/>
  <circle cx="649.2" cy="509.7" r="3" fill="#7c3aed" stroke="white" stroke-width="1"/>
  <circle cx="700.0" cy="512.4" r="3" fill="#7c3aed" stroke="white" stroke-width="1"/>
  <text x="90.0" y="653.0" text-anchor="middle" fill="#374151" font-size="8.5">8 B</text>
  <text x="140.8" y="653.0" text-anchor="middle" fill="#374151" font-size="8.5">16 B</text>
  <text x="191.7" y="653.0" text-anchor="middle" fill="#374151" font-size="8.5">32 B</text>
  <text x="242.5" y="653.0" text-anchor="middle" fill="#374151" font-size="8.5">64 B</text>
  <text x="293.3" y="653.0" text-anchor="middle" fill="#374151" font-size="8.5">128 B</text>
  <text x="344.2" y="653.0" text-anchor="middle" fill="#374151" font-size="8.5">256 B</text>
  <text x="395.0" y="653.0" text-anchor="middle" fill="#374151" font-size="8.5">512 B</text>
  <text x="445.8" y="653.0" text-anchor="middle" fill="#374151" font-size="8.5">1 KiB</text>
  <text x="496.7" y="653.0" text-anchor="middle" fill="#374151" font-size="8.5">2 KiB</text>
  <text x="547.5" y="653.0" text-anchor="middle" fill="#374151" font-size="8.5">4 KiB</text>
  <text x="598.3" y="653.0" text-anchor="middle" fill="#374151" font-size="8.5">8 KiB</text>
  <text x="649.2" y="653.0" text-anchor="middle" fill="#374151" font-size="8.5">16 KiB</text>
  <text x="700.0" y="653.0" text-anchor="middle" fill="#374151" font-size="8.5">32 KiB</text>
  <text x="395.0" y="692.0" text-anchor="middle" fill="#111827" font-size="13" font-weight="700">PUB/SUB throughput, 64 subscribers: IPC</text>
  <line x1="90.0" y1="904.0" x2="700.0" y2="904.0" stroke="#e5e7eb" stroke-width="1"/>
  <text x="82.0" y="904.0" text-anchor="end" dominant-baseline="middle" fill="#374151" font-size="10">50%</text>
  <line x1="90.0" y1="839.0" x2="700.0" y2="839.0" stroke="#e5e7eb" stroke-width="1"/>
  <text x="82.0" y="839.0" text-anchor="end" dominant-baseline="middle" fill="#374151" font-size="10">100%</text>
  <line x1="90.0" y1="774.0" x2="700.0" y2="774.0" stroke="#e5e7eb" stroke-width="1"/>
  <text x="82.0" y="774.0" text-anchor="end" dominant-baseline="middle" fill="#374151" font-size="10">150%</text>
  <line x1="90.0" y1="709.0" x2="700.0" y2="709.0" stroke="#e5e7eb" stroke-width="1"/>
  <text x="82.0" y="709.0" text-anchor="end" dominant-baseline="middle" fill="#374151" font-size="10">200%</text>
  <line x1="90.0" y1="916.9" x2="700.0" y2="916.9" stroke="#e5e7eb" stroke-width="1" stroke-dasharray="3,6"/>
  <text x="708.0" y="916.9" text-anchor="start" dominant-baseline="middle" fill="#6b7280" font-size="10">2 GB/s</text>
  <line x1="90.0" y1="864.7" x2="700.0" y2="864.7" stroke="#e5e7eb" stroke-width="1" stroke-dasharray="3,6"/>
  <text x="708.0" y="864.7" text-anchor="start" dominant-baseline="middle" fill="#6b7280" font-size="10">4 GB/s</text>
  <line x1="90.0" y1="812.6" x2="700.0" y2="812.6" stroke="#e5e7eb" stroke-width="1" stroke-dasharray="3,6"/>
  <text x="708.0" y="812.6" text-anchor="start" dominant-baseline="middle" fill="#6b7280" font-size="10">6 GB/s</text>
  <line x1="90.0" y1="760.4" x2="700.0" y2="760.4" stroke="#e5e7eb" stroke-width="1" stroke-dasharray="3,6"/>
  <text x="708.0" y="760.4" text-anchor="start" dominant-baseline="middle" fill="#6b7280" font-size="10">8 GB/s</text>
  <text x="788.0" y="939.9" text-anchor="start" dominant-baseline="middle" fill="#9ca3af" font-size="10">50k/s</text>
  <text x="788.0" y="910.8" text-anchor="start" dominant-baseline="middle" fill="#9ca3af" font-size="10">100k/s</text>
  <text x="788.0" y="881.8" text-anchor="start" dominant-baseline="middle" fill="#9ca3af" font-size="10">150k/s</text>
  <text x="788.0" y="852.7" text-anchor="start" dominant-baseline="middle" fill="#9ca3af" font-size="10">200k/s</text>
  <text x="788.0" y="823.6" text-anchor="start" dominant-baseline="middle" fill="#9ca3af" font-size="10">250k/s</text>
  <text x="788.0" y="794.5" text-anchor="start" dominant-baseline="middle" fill="#9ca3af" font-size="10">300k/s</text>
  <text x="788.0" y="765.4" text-anchor="start" dominant-baseline="middle" fill="#9ca3af" font-size="10">350k/s</text>
  <text x="788.0" y="736.4" text-anchor="start" dominant-baseline="middle" fill="#9ca3af" font-size="10">400k/s</text>
  <line x1="90.0" y1="709.0" x2="90.0" y2="969.0" stroke="#e5e7eb" stroke-width="1"/>
  <line x1="140.8" y1="709.0" x2="140.8" y2="969.0" stroke="#e5e7eb" stroke-width="1"/>
  <line x1="191.7" y1="709.0" x2="191.7" y2="969.0" stroke="#e5e7eb" stroke-width="1"/>
  <line x1="242.5" y1="709.0" x2="242.5" y2="969.0" stroke="#e5e7eb" stroke-width="1"/>
  <line x1="293.3" y1="709.0" x2="293.3" y2="969.0" stroke="#e5e7eb" stroke-width="1"/>
  <line x1="344.2" y1="709.0" x2="344.2" y2="969.0" stroke="#e5e7eb" stroke-width="1"/>
  <line x1="395.0" y1="709.0" x2="395.0" y2="969.0" stroke="#e5e7eb" stroke-width="1"/>
  <line x1="445.8" y1="709.0" x2="445.8" y2="969.0" stroke="#e5e7eb" stroke-width="1"/>
  <line x1="496.7" y1="709.0" x2="496.7" y2="969.0" stroke="#e5e7eb" stroke-width="1"/>
  <line x1="547.5" y1="709.0" x2="547.5" y2="969.0" stroke="#e5e7eb" stroke-width="1"/>
  <line x1="598.3" y1="709.0" x2="598.3" y2="969.0" stroke="#e5e7eb" stroke-width="1"/>
  <line x1="649.2" y1="709.0" x2="649.2" y2="969.0" stroke="#e5e7eb" stroke-width="1"/>
  <line x1="700.0" y1="709.0" x2="700.0" y2="969.0" stroke="#e5e7eb" stroke-width="1"/>
  <line x1="90.0" y1="709.0" x2="90.0" y2="969.0" stroke="#9ca3af" stroke-width="1.5"/>
  <line x1="700.0" y1="709.0" x2="700.0" y2="969.0" stroke="#9ca3af" stroke-width="1.5"/>
  <line x1="90.0" y1="969.0" x2="700.0" y2="969.0" stroke="#9ca3af" stroke-width="1.5"/>
  <line x1="780.0" y1="709.0" x2="780.0" y2="969.0" stroke="#d1d5db" stroke-width="1"/>
  <text x="40.0" y="839.0" text-anchor="middle" fill="#374151" font-size="10" font-weight="600" transform="rotate(-90,40.0,839.0)">CPU %</text>
  <polyline points="90.0,748.0 140.8,765.5 191.7,761.6 242.5,791.6 293.3,811.7 344.2,833.1 395.0,843.6 445.8,846.2 496.7,854.0 547.5,858.5 598.3,852.0 649.2,839.7 700.0,828.0" fill="none" stroke="#eab308" stroke-width="2" stroke-dasharray="2,3"/>
  <polyline points="90.0,887.7 140.8,882.1 191.7,873.5 242.5,870.2 293.3,858.5 344.2,843.0 395.0,834.5 445.8,826.0 496.7,803.3 547.5,796.1 598.3,789.7 649.2,789.6 700.0,792.2" fill="none" stroke="#dc2626" stroke-width="2" stroke-dasharray="2,3"/>
  <polyline points="90.0,884.5 140.8,879.6 191.7,868.0 242.5,867.6 293.3,856.7 344.2,844.2 395.0,827.3 445.8,815.0 496.7,802.0 547.5,794.9 598.3,791.6 649.2,793.8 700.0,795.5" fill="none" stroke="#f97316" stroke-width="2" stroke-dasharray="2,3"/>
  <polyline points="90.0,795.5 140.8,795.5 191.7,798.1 242.5,804.6 293.3,805.2 344.2,815.6 395.0,816.3 445.8,816.3 496.7,815.0 547.5,813.0 598.3,806.5 649.2,793.5 700.0,792.2" fill="none" stroke="#7c3aed" stroke-width="2" stroke-dasharray="2,3"/>
  <polyline points="90.0,794.1 140.8,801.4 191.7,807.6 242.5,851.9 293.3,899.6 344.2,916.3 395.0,930.8 445.8,943.8 496.7,956.0 547.5,962.3 598.3,964.6 649.2,966.6 700.0,967.3" fill="none" stroke="#eab308" stroke-width="1.5" stroke-dasharray="5,3"/>
  <polyline points="90.0,761.1 140.8,780.6 191.7,792.3 242.5,816.8 293.3,825.4 344.2,856.3 395.0,890.0 445.8,918.0 496.7,939.2 547.5,955.1 598.3,959.5 649.2,964.2 700.0,967.0" fill="none" stroke="#dc2626" stroke-width="1.5" stroke-dasharray="5,3"/>
  <polyline points="90.0,742.9 140.8,770.3 191.7,782.9 242.5,809.8 293.3,824.0 344.2,861.0 395.0,883.7 445.8,914.1 496.7,937.1 547.5,952.1 598.3,960.6 649.2,964.4 700.0,966.7" fill="none" stroke="#f97316" stroke-width="1.5" stroke-dasharray="5,3"/>
  <polyline points="90.0,838.3 140.8,839.2 191.7,831.9 242.5,861.9 293.3,867.7 344.2,879.6 395.0,897.1 445.8,922.6 496.7,942.5 547.5,955.4 598.3,961.7 649.2,965.4 700.0,967.6" fill="none" stroke="#7c3aed" stroke-width="1.5" stroke-dasharray="5,3"/>
  <polyline points="90.0,965.0 140.8,961.3 191.7,954.2 242.5,947.5 293.3,943.5 344.2,930.3 395.0,912.8 445.8,895.1 496.7,892.4 547.5,890.6 598.3,866.5 649.2,857.1 700.0,812.4" fill="none" stroke="#eab308" stroke-width="2.5" stroke-linecap="round" stroke-linejoin="round"/>
  <circle cx="90.0" cy="965.0" r="3" fill="#eab308" stroke="white" stroke-width="1"/>
  <circle cx="140.8" cy="961.3" r="3" fill="#eab308" stroke="white" stroke-width="1"/>
  <circle cx="191.7" cy="954.2" r="3" fill="#eab308" stroke="white" stroke-width="1"/>
  <circle cx="242.5" cy="947.5" r="3" fill="#eab308" stroke="white" stroke-width="1"/>
  <circle cx="293.3" cy="943.5" r="3" fill="#eab308" stroke="white" stroke-width="1"/>
  <circle cx="344.2" cy="930.3" r="3" fill="#eab308" stroke="white" stroke-width="1"/>
  <circle cx="395.0" cy="912.8" r="3" fill="#eab308" stroke="white" stroke-width="1"/>
  <circle cx="445.8" cy="895.1" r="3" fill="#eab308" stroke="white" stroke-width="1"/>
  <circle cx="496.7" cy="892.4" r="3" fill="#eab308" stroke="white" stroke-width="1"/>
  <circle cx="547.5" cy="890.6" r="3" fill="#eab308" stroke="white" stroke-width="1"/>
  <circle cx="598.3" cy="866.5" r="3" fill="#eab308" stroke="white" stroke-width="1"/>
  <circle cx="649.2" cy="857.1" r="3" fill="#eab308" stroke="white" stroke-width="1"/>
  <circle cx="700.0" cy="812.4" r="3" fill="#eab308" stroke="white" stroke-width="1"/>
  <polyline points="90.0,964.2 140.8,960.4 191.7,952.8 242.5,941.1 293.3,916.3 344.2,886.2 395.0,852.9 445.8,819.3 496.7,794.2 547.5,805.2 598.3,745.0 649.2,742.9 700.0,779.1" fill="none" stroke="#dc2626" stroke-width="2.5" stroke-linecap="round" stroke-linejoin="round"/>
  <circle cx="90.0" cy="964.2" r="3" fill="#dc2626" stroke="white" stroke-width="1"/>
  <circle cx="140.8" cy="960.4" r="3" fill="#dc2626" stroke="white" stroke-width="1"/>
  <circle cx="191.7" cy="952.8" r="3" fill="#dc2626" stroke="white" stroke-width="1"/>
  <circle cx="242.5" cy="941.1" r="3" fill="#dc2626" stroke="white" stroke-width="1"/>
  <circle cx="293.3" cy="916.3" r="3" fill="#dc2626" stroke="white" stroke-width="1"/>
  <circle cx="344.2" cy="886.2" r="3" fill="#dc2626" stroke="white" stroke-width="1"/>
  <circle cx="395.0" cy="852.9" r="3" fill="#dc2626" stroke="white" stroke-width="1"/>
  <circle cx="445.8" cy="819.3" r="3" fill="#dc2626" stroke="white" stroke-width="1"/>
  <circle cx="496.7" cy="794.2" r="3" fill="#dc2626" stroke="white" stroke-width="1"/>
  <circle cx="547.5" cy="805.2" r="3" fill="#dc2626" stroke="white" stroke-width="1"/>
  <circle cx="598.3" cy="745.0" r="3" fill="#dc2626" stroke="white" stroke-width="1"/>
  <circle cx="649.2" cy="742.9" r="3" fill="#dc2626" stroke="white" stroke-width="1"/>
  <circle cx="700.0" cy="779.1" r="3" fill="#dc2626" stroke="white" stroke-width="1"/>
  <polyline points="90.0,963.8 140.8,959.9 191.7,951.9 242.5,939.8 293.3,915.8 344.2,889.7 395.0,843.8 445.8,807.6 496.7,781.6 547.5,770.4 598.3,771.6 649.2,752.2 700.0,756.2" fill="none" stroke="#f97316" stroke-width="2.5" stroke-linecap="round" stroke-linejoin="round"/>
  <circle cx="90.0" cy="963.8" r="3" fill="#f97316" stroke="white" stroke-width="1"/>
  <circle cx="140.8" cy="959.9" r="3" fill="#f97316" stroke="white" stroke-width="1"/>
  <circle cx="191.7" cy="951.9" r="3" fill="#f97316" stroke="white" stroke-width="1"/>
  <circle cx="242.5" cy="939.8" r="3" fill="#f97316" stroke="white" stroke-width="1"/>
  <circle cx="293.3" cy="915.8" r="3" fill="#f97316" stroke="white" stroke-width="1"/>
  <circle cx="344.2" cy="889.7" r="3" fill="#f97316" stroke="white" stroke-width="1"/>
  <circle cx="395.0" cy="843.8" r="3" fill="#f97316" stroke="white" stroke-width="1"/>
  <circle cx="445.8" cy="807.6" r="3" fill="#f97316" stroke="white" stroke-width="1"/>
  <circle cx="496.7" cy="781.6" r="3" fill="#f97316" stroke="white" stroke-width="1"/>
  <circle cx="547.5" cy="770.4" r="3" fill="#f97316" stroke="white" stroke-width="1"/>
  <circle cx="598.3" cy="771.6" r="3" fill="#f97316" stroke="white" stroke-width="1"/>
  <circle cx="649.2" cy="752.2" r="3" fill="#f97316" stroke="white" stroke-width="1"/>
  <circle cx="700.0" cy="756.2" r="3" fill="#f97316" stroke="white" stroke-width="1"/>
  <polyline points="90.0,966.0 140.8,963.0 191.7,956.4 242.5,949.3 293.3,931.8 344.2,903.3 395.0,863.4 445.8,832.7 496.7,813.4 547.5,809.7 598.3,798.4 649.2,801.9 700.0,837.8" fill="none" stroke="#7c3aed" stroke-width="2.5" stroke-linecap="round" stroke-linejoin="round"/>
  <circle cx="90.0" cy="966.0" r="3" fill="#7c3aed" stroke="white" stroke-width="1"/>
  <circle cx="140.8" cy="963.0" r="3" fill="#7c3aed" stroke="white" stroke-width="1"/>
  <circle cx="191.7" cy="956.4" r="3" fill="#7c3aed" stroke="white" stroke-width="1"/>
  <circle cx="242.5" cy="949.3" r="3" fill="#7c3aed" stroke="white" stroke-width="1"/>
  <circle cx="293.3" cy="931.8" r="3" fill="#7c3aed" stroke="white" stroke-width="1"/>
  <circle cx="344.2" cy="903.3" r="3" fill="#7c3aed" stroke="white" stroke-width="1"/>
  <circle cx="395.0" cy="863.4" r="3" fill="#7c3aed" stroke="white" stroke-width="1"/>
  <circle cx="445.8" cy="832.7" r="3" fill="#7c3aed" stroke="white" stroke-width="1"/>
  <circle cx="496.7" cy="813.4" r="3" fill="#7c3aed" stroke="white" stroke-width="1"/>
  <circle cx="547.5" cy="809.7" r="3" fill="#7c3aed" stroke="white" stroke-width="1"/>
  <circle cx="598.3" cy="798.4" r="3" fill="#7c3aed" stroke="white" stroke-width="1"/>
  <circle cx="649.2" cy="801.9" r="3" fill="#7c3aed" stroke="white" stroke-width="1"/>
  <circle cx="700.0" cy="837.8" r="3" fill="#7c3aed" stroke="white" stroke-width="1"/>
  <text x="90.0" y="983.0" text-anchor="middle" fill="#374151" font-size="8.5">8 B</text>
  <text x="140.8" y="983.0" text-anchor="middle" fill="#374151" font-size="8.5">16 B</text>
  <text x="191.7" y="983.0" text-anchor="middle" fill="#374151" font-size="8.5">32 B</text>
  <text x="242.5" y="983.0" text-anchor="middle" fill="#374151" font-size="8.5">64 B</text>
  <text x="293.3" y="983.0" text-anchor="middle" fill="#374151" font-size="8.5">128 B</text>
  <text x="344.2" y="983.0" text-anchor="middle" fill="#374151" font-size="8.5">256 B</text>
  <text x="395.0" y="983.0" text-anchor="middle" fill="#374151" font-size="8.5">512 B</text>
  <text x="445.8" y="983.0" text-anchor="middle" fill="#374151" font-size="8.5">1 KiB</text>
  <text x="496.7" y="983.0" text-anchor="middle" fill="#374151" font-size="8.5">2 KiB</text>
  <text x="547.5" y="983.0" text-anchor="middle" fill="#374151" font-size="8.5">4 KiB</text>
  <text x="598.3" y="983.0" text-anchor="middle" fill="#374151" font-size="8.5">8 KiB</text>
  <text x="649.2" y="983.0" text-anchor="middle" fill="#374151" font-size="8.5">16 KiB</text>
  <text x="700.0" y="983.0" text-anchor="middle" fill="#374151" font-size="8.5">32 KiB</text>
  <line x1="145" y1="999" x2="159" y2="999" stroke="#eab308" stroke-width="2.5"/>
  <circle cx="152" cy="999" r="2.5" fill="#eab308"/>
  <text x="165" y="1003" fill="#374151" font-size="11" font-weight="500">libzmq v4.3.5</text>
  <line x1="270" y1="999" x2="284" y2="999" stroke="#7c3aed" stroke-width="2.5"/>
  <circle cx="277" cy="999" r="2.5" fill="#7c3aed"/>
  <text x="290" y="1003" fill="#374151" font-size="11" font-weight="500">omq-compio</text>
  <line x1="395" y1="999" x2="409" y2="999" stroke="#f97316" stroke-width="2.5"/>
  <circle cx="402" cy="999" r="2.5" fill="#f97316"/>
  <text x="415" y="1003" fill="#374151" font-size="11" font-weight="500">omq-tokio</text>
  <line x1="520" y1="999" x2="534" y2="999" stroke="#dc2626" stroke-width="2.5"/>
  <circle cx="527" cy="999" r="2.5" fill="#dc2626"/>
  <text x="540" y="1003" fill="#374151" font-size="11" font-weight="500">omq-tokio (MT)</text>
  <line x1="145" y1="1021" x2="159" y2="1021" stroke="#6b7280" stroke-width="2" stroke-dasharray="2,3" opacity="0.7"/>
  <text x="165" y="1025" fill="#6b7280" font-size="10">CPU % (left)</text>
  <line x1="290" y1="1021" x2="304" y2="1021" stroke="#6b7280" stroke-width="2.5"/>
  <circle cx="297" cy="1021" r="2" fill="#6b7280"/>
  <text x="310" y="1025" fill="#6b7280" font-size="10">GB/s (inner right)</text>
  <line x1="455" y1="1021" x2="469" y2="1021" stroke="#6b7280" stroke-width="1.5" stroke-dasharray="5,3"/>
  <text x="475" y="1025" fill="#6b7280" font-size="10">msg/s (outer right)</text>
</svg>
