<svg xmlns="http://www.w3.org/2000/svg" viewBox="0 0 875 1097" font-family="system-ui, -apple-system, sans-serif">
  <rect width="875" height="1097" fill="white"/>
  <text x="395.0" y="46" text-anchor="middle" fill="#9ca3af" font-size="10">Linux VM on a 2018 Mac Mini, Intel Core i7-8700B @ 3.20GHz, 6 cores, performance governor, turbo off</text>
  <text x="395.0" y="32.0" text-anchor="middle" fill="#111827" font-size="13" font-weight="700">PUB/SUB throughput, 1 subscriber: TCP loopback</text>
  <line x1="90.0" y1="257.0" x2="700.0" y2="257.0" stroke="#e5e7eb" stroke-width="1"/>
  <text x="82.0" y="257.0" text-anchor="end" dominant-baseline="middle" fill="#374151" font-size="10">100%</text>
  <line x1="90.0" y1="205.0" x2="700.0" y2="205.0" stroke="#e5e7eb" stroke-width="1"/>
  <text x="82.0" y="205.0" text-anchor="end" dominant-baseline="middle" fill="#374151" font-size="10">200%</text>
  <line x1="90.0" y1="153.0" x2="700.0" y2="153.0" stroke="#e5e7eb" stroke-width="1"/>
  <text x="82.0" y="153.0" text-anchor="end" dominant-baseline="middle" fill="#374151" font-size="10">300%</text>
  <line x1="90.0" y1="101.0" x2="700.0" y2="101.0" stroke="#e5e7eb" stroke-width="1"/>
  <text x="82.0" y="101.0" text-anchor="end" dominant-baseline="middle" fill="#374151" font-size="10">400%</text>
  <line x1="90.0" y1="49.0" x2="700.0" y2="49.0" stroke="#e5e7eb" stroke-width="1"/>
  <text x="82.0" y="49.0" text-anchor="end" dominant-baseline="middle" fill="#374151" font-size="10">500%</text>
  <line x1="90.0" y1="229.5" x2="700.0" y2="229.5" stroke="#e5e7eb" stroke-width="1" stroke-dasharray="3,6"/>
  <text x="708.0" y="229.5" text-anchor="start" dominant-baseline="middle" fill="#6b7280" font-size="10">2 GB/s</text>
  <line x1="90.0" y1="150.1" x2="700.0" y2="150.1" stroke="#e5e7eb" stroke-width="1" stroke-dasharray="3,6"/>
  <text x="708.0" y="150.1" text-anchor="start" dominant-baseline="middle" fill="#6b7280" font-size="10">4 GB/s</text>
  <line x1="90.0" y1="70.6" x2="700.0" y2="70.6" stroke="#e5e7eb" stroke-width="1" stroke-dasharray="3,6"/>
  <text x="708.0" y="70.6" text-anchor="start" dominant-baseline="middle" fill="#6b7280" font-size="10">6 GB/s</text>
  <text x="788.0" y="274.7" text-anchor="start" dominant-baseline="middle" fill="#9ca3af" font-size="10">1M/s</text>
  <text x="788.0" y="240.4" text-anchor="start" dominant-baseline="middle" fill="#9ca3af" font-size="10">2M/s</text>
  <text x="788.0" y="206.1" text-anchor="start" dominant-baseline="middle" fill="#9ca3af" font-size="10">3M/s</text>
  <text x="788.0" y="171.8" text-anchor="start" dominant-baseline="middle" fill="#9ca3af" font-size="10">4M/s</text>
  <text x="788.0" y="137.5" text-anchor="start" dominant-baseline="middle" fill="#9ca3af" font-size="10">5M/s</text>
  <text x="788.0" y="103.2" text-anchor="start" dominant-baseline="middle" fill="#9ca3af" font-size="10">6M/s</text>
  <text x="788.0" y="68.9" text-anchor="start" dominant-baseline="middle" fill="#9ca3af" font-size="10">7M/s</text>
  <line x1="90.0" y1="49.0" x2="90.0" y2="309.0" stroke="#e5e7eb" stroke-width="1"/>
  <line x1="212.0" y1="49.0" x2="212.0" y2="309.0" stroke="#e5e7eb" stroke-width="1"/>
  <line x1="334.0" y1="49.0" x2="334.0" y2="309.0" stroke="#e5e7eb" stroke-width="1"/>
  <line x1="456.0" y1="49.0" x2="456.0" y2="309.0" stroke="#e5e7eb" stroke-width="1"/>
  <line x1="578.0" y1="49.0" x2="578.0" y2="309.0" stroke="#e5e7eb" stroke-width="1"/>
  <line x1="700.0" y1="49.0" x2="700.0" y2="309.0" stroke="#e5e7eb" stroke-width="1"/>
  <line x1="90.0" y1="49.0" x2="90.0" y2="309.0" stroke="#9ca3af" stroke-width="1.5"/>
  <line x1="700.0" y1="49.0" x2="700.0" y2="309.0" stroke="#9ca3af" stroke-width="1.5"/>
  <line x1="90.0" y1="309.0" x2="700.0" y2="309.0" stroke="#9ca3af" stroke-width="1.5"/>
  <line x1="780.0" y1="49.0" x2="780.0" y2="309.0" stroke="#d1d5db" stroke-width="1"/>
  <text x="40.0" y="179.0" text-anchor="middle" fill="#374151" font-size="10" font-weight="600" transform="rotate(-90,40.0,179.0)">CPU %</text>
  <polyline points="90.0,111.3 212.0,115.7 334.0,115.6 456.0,115.7 578.0,143.1 700.0,163.0" fill="none" stroke="#15803d" stroke-width="1.6" stroke-dasharray="2,5" opacity="0.85"/>
  <polyline points="90.0,90.5 212.0,98.9 334.0,141.3 456.0,149.8 578.0,154.7 700.0,166.0" fill="none" stroke="#eab308" stroke-width="1.6" stroke-dasharray="2,5" opacity="0.85"/>
  <polyline points="90.0,88.7 212.0,102.0 334.0,136.3 456.0,144.3 578.0,148.5 700.0,162.4" fill="none" stroke="#a16207" stroke-width="1.6" stroke-dasharray="2,5" opacity="0.85"/>
  <polyline points="90.0,150.8 212.0,151.5 334.0,151.8 456.0,154.5 578.0,172.9 700.0,178.7" fill="none" stroke="#dc2626" stroke-width="1.6" stroke-dasharray="2,5" opacity="0.85"/>
  <polyline points="90.0,226.9 212.0,222.8 334.0,219.5 456.0,208.7 578.0,221.3 700.0,217.4" fill="none" stroke="#f97316" stroke-width="1.6" stroke-dasharray="2,5" opacity="0.85"/>
  <polyline points="90.0,228.5 212.0,206.2 334.0,186.0 456.0,188.3 578.0,184.2 700.0,182.2" fill="none" stroke="#16a34a" stroke-width="1.6" stroke-dasharray="2,5" opacity="0.85"/>
  <polyline points="90.0,201.7 212.0,203.4 334.0,204.7 456.0,205.8 578.0,206.8 700.0,206.5" fill="none" stroke="#2563eb" stroke-width="1.6" stroke-dasharray="2,5" opacity="0.85"/>
  <polyline points="90.0,251.3 212.0,251.2 334.0,248.9 456.0,252.4 578.0,277.8 700.0,297.7" fill="none" stroke="#15803d" stroke-width="2.0" stroke-dasharray="5,3"/>
  <polyline points="90.0,86.9 212.0,161.9 334.0,244.3 456.0,279.3 578.0,299.5 700.0,306.5" fill="none" stroke="#eab308" stroke-width="2.0" stroke-dasharray="5,3"/>
  <polyline points="90.0,82.9 212.0,162.5 334.0,245.9 456.0,279.7 578.0,298.5 700.0,306.5" fill="none" stroke="#a16207" stroke-width="2.0" stroke-dasharray="5,3"/>
  <polyline points="90.0,124.9 212.0,150.6 334.0,157.1 456.0,188.6 578.0,273.7 700.0,297.1" fill="none" stroke="#dc2626" stroke-width="2.0" stroke-dasharray="5,3"/>
  <polyline points="90.0,114.9 212.0,153.4 334.0,180.4 456.0,224.7 578.0,275.0 700.0,298.8" fill="none" stroke="#f97316" stroke-width="2.0" stroke-dasharray="5,3"/>
  <polyline points="90.0,292.8 212.0,272.4 334.0,254.6 456.0,260.1 578.0,282.1 700.0,300.6" fill="none" stroke="#16a34a" stroke-width="2.0" stroke-dasharray="5,3"/>
  <polyline points="90.0,299.2 212.0,300.1 334.0,301.0 456.0,301.8 578.0,302.9 700.0,304.4" fill="none" stroke="#2563eb" stroke-width="2.0" stroke-dasharray="5,3"/>
  <polyline points="90.0,307.9 212.0,304.7 334.0,291.2 456.0,241.9 578.0,160.8 700.0,94.9" fill="none" stroke="#15803d" stroke-width="2.0" stroke-linecap="round" stroke-linejoin="round"/>
  <circle cx="90.0" cy="307.9" r="2.2" fill="#15803d" stroke="white" stroke-width="1"/>
  <circle cx="212.0" cy="304.7" r="2.2" fill="#15803d" stroke="white" stroke-width="1"/>
  <circle cx="334.0" cy="291.2" r="2.2" fill="#15803d" stroke="white" stroke-width="1"/>
  <circle cx="456.0" cy="241.9" r="2.2" fill="#15803d" stroke="white" stroke-width="1"/>
  <circle cx="578.0" cy="160.8" r="2.2" fill="#15803d" stroke="white" stroke-width="1"/>
  <circle cx="700.0" cy="94.9" r="2.2" fill="#15803d" stroke="white" stroke-width="1"/>
  <polyline points="90.0,304.9 212.0,298.1 334.0,289.8 456.0,273.8 578.0,264.1 700.0,261.9" fill="none" stroke="#eab308" stroke-width="2.0" stroke-linecap="round" stroke-linejoin="round"/>
  <circle cx="90.0" cy="304.9" r="2.2" fill="#eab308" stroke="white" stroke-width="1"/>
  <circle cx="212.0" cy="298.1" r="2.2" fill="#eab308" stroke="white" stroke-width="1"/>
  <circle cx="334.0" cy="289.8" r="2.2" fill="#eab308" stroke="white" stroke-width="1"/>
  <circle cx="456.0" cy="273.8" r="2.2" fill="#eab308" stroke="white" stroke-width="1"/>
  <circle cx="578.0" cy="264.1" r="2.2" fill="#eab308" stroke="white" stroke-width="1"/>
  <circle cx="700.0" cy="261.9" r="2.2" fill="#eab308" stroke="white" stroke-width="1"/>
  <polyline points="90.0,304.8 212.0,298.1 334.0,290.3 456.0,274.2 578.0,259.1 700.0,261.6" fill="none" stroke="#a16207" stroke-width="2.0" stroke-linecap="round" stroke-linejoin="round"/>
  <circle cx="90.0" cy="304.8" r="2.2" fill="#a16207" stroke="white" stroke-width="1"/>
  <circle cx="212.0" cy="298.1" r="2.2" fill="#a16207" stroke="white" stroke-width="1"/>
  <circle cx="334.0" cy="290.3" r="2.2" fill="#a16207" stroke="white" stroke-width="1"/>
  <circle cx="456.0" cy="274.2" r="2.2" fill="#a16207" stroke="white" stroke-width="1"/>
  <circle cx="578.0" cy="259.1" r="2.2" fill="#a16207" stroke="white" stroke-width="1"/>
  <circle cx="700.0" cy="261.6" r="2.2" fill="#a16207" stroke="white" stroke-width="1"/>
  <polyline points="90.0,305.6 212.0,297.3 334.0,263.9 456.0,166.2 578.0,141.5 700.0,82.9" fill="none" stroke="#dc2626" stroke-width="2.0" stroke-linecap="round" stroke-linejoin="round"/>
  <circle cx="90.0" cy="305.6" r="2.2" fill="#dc2626" stroke="white" stroke-width="1"/>
  <circle cx="212.0" cy="297.3" r="2.2" fill="#dc2626" stroke="white" stroke-width="1"/>
  <circle cx="334.0" cy="263.9" r="2.2" fill="#dc2626" stroke="white" stroke-width="1"/>
  <circle cx="456.0" cy="166.2" r="2.2" fill="#dc2626" stroke="white" stroke-width="1"/>
  <circle cx="578.0" cy="141.5" r="2.2" fill="#dc2626" stroke="white" stroke-width="1"/>
  <circle cx="700.0" cy="82.9" r="2.2" fill="#dc2626" stroke="white" stroke-width="1"/>
  <polyline points="90.0,305.4 212.0,297.5 334.0,270.8 456.0,209.0 578.0,147.8 700.0,116.0" fill="none" stroke="#f97316" stroke-width="2.0" stroke-linecap="round" stroke-linejoin="round"/>
  <circle cx="90.0" cy="305.4" r="2.2" fill="#f97316" stroke="white" stroke-width="1"/>
  <circle cx="212.0" cy="297.5" r="2.2" fill="#f97316" stroke="white" stroke-width="1"/>
  <circle cx="334.0" cy="270.8" r="2.2" fill="#f97316" stroke="white" stroke-width="1"/>
  <circle cx="456.0" cy="209.0" r="2.2" fill="#f97316" stroke="white" stroke-width="1"/>
  <circle cx="578.0" cy="147.8" r="2.2" fill="#f97316" stroke="white" stroke-width="1"/>
  <circle cx="700.0" cy="116.0" r="2.2" fill="#f97316" stroke="white" stroke-width="1"/>
  <polyline points="90.0,308.7 212.0,306.3 334.0,292.9 456.0,251.0 578.0,181.4 700.0,149.7" fill="none" stroke="#16a34a" stroke-width="2.0" stroke-linecap="round" stroke-linejoin="round"/>
  <circle cx="90.0" cy="308.7" r="2.2" fill="#16a34a" stroke="white" stroke-width="1"/>
  <circle cx="212.0" cy="306.3" r="2.2" fill="#16a34a" stroke="white" stroke-width="1"/>
  <circle cx="334.0" cy="292.9" r="2.2" fill="#16a34a" stroke="white" stroke-width="1"/>
  <circle cx="456.0" cy="251.0" r="2.2" fill="#16a34a" stroke="white" stroke-width="1"/>
  <circle cx="578.0" cy="181.4" r="2.2" fill="#16a34a" stroke="white" stroke-width="1"/>
  <circle cx="700.0" cy="149.7" r="2.2" fill="#16a34a" stroke="white" stroke-width="1"/>
  <polyline points="90.0,308.8 212.0,308.3 334.0,306.6 456.0,300.5 578.0,280.1 700.0,221.4" fill="none" stroke="#2563eb" stroke-width="2.0" stroke-linecap="round" stroke-linejoin="round"/>
  <circle cx="90.0" cy="308.8" r="2.2" fill="#2563eb" stroke="white" stroke-width="1"/>
  <circle cx="212.0" cy="308.3" r="2.2" fill="#2563eb" stroke="white" stroke-width="1"/>
  <circle cx="334.0" cy="306.6" r="2.2" fill="#2563eb" stroke="white" stroke-width="1"/>
  <circle cx="456.0" cy="300.5" r="2.2" fill="#2563eb" stroke="white" stroke-width="1"/>
  <circle cx="578.0" cy="280.1" r="2.2" fill="#2563eb" stroke="white" stroke-width="1"/>
  <circle cx="700.0" cy="221.4" r="2.2" fill="#2563eb" stroke="white" stroke-width="1"/>
  <text x="90.0" y="323.0" text-anchor="middle" fill="#374151" font-size="8.5">16 B</text>
  <text x="212.0" y="323.0" text-anchor="middle" fill="#374151" font-size="8.5">64 B</text>
  <text x="334.0" y="323.0" text-anchor="middle" fill="#374151" font-size="8.5">256 B</text>
  <text x="456.0" y="323.0" text-anchor="middle" fill="#374151" font-size="8.5">1 KiB</text>
  <text x="578.0" y="323.0" text-anchor="middle" fill="#374151" font-size="8.5">4 KiB</text>
  <text x="700.0" y="323.0" text-anchor="middle" fill="#374151" font-size="8.5">16 KiB</text>
  <text x="395.0" y="362.0" text-anchor="middle" fill="#111827" font-size="13" font-weight="700">PUB/SUB throughput, 8 subscribers: TCP loopback</text>
  <line x1="90.0" y1="606.5" x2="700.0" y2="606.5" stroke="#e5e7eb" stroke-width="1"/>
  <text x="82.0" y="606.5" text-anchor="end" dominant-baseline="middle" fill="#374151" font-size="10">100%</text>
  <line x1="90.0" y1="574.0" x2="700.0" y2="574.0" stroke="#e5e7eb" stroke-width="1"/>
  <text x="82.0" y="574.0" text-anchor="end" dominant-baseline="middle" fill="#374151" font-size="10">200%</text>
  <line x1="90.0" y1="541.5" x2="700.0" y2="541.5" stroke="#e5e7eb" stroke-width="1"/>
  <text x="82.0" y="541.5" text-anchor="end" dominant-baseline="middle" fill="#374151" font-size="10">300%</text>
  <line x1="90.0" y1="509.0" x2="700.0" y2="509.0" stroke="#e5e7eb" stroke-width="1"/>
  <text x="82.0" y="509.0" text-anchor="end" dominant-baseline="middle" fill="#374151" font-size="10">400%</text>
  <line x1="90.0" y1="476.5" x2="700.0" y2="476.5" stroke="#e5e7eb" stroke-width="1"/>
  <text x="82.0" y="476.5" text-anchor="end" dominant-baseline="middle" fill="#374151" font-size="10">500%</text>
  <line x1="90.0" y1="444.0" x2="700.0" y2="444.0" stroke="#e5e7eb" stroke-width="1"/>
  <text x="82.0" y="444.0" text-anchor="end" dominant-baseline="middle" fill="#374151" font-size="10">600%</text>
  <line x1="90.0" y1="411.5" x2="700.0" y2="411.5" stroke="#e5e7eb" stroke-width="1"/>
  <text x="82.0" y="411.5" text-anchor="end" dominant-baseline="middle" fill="#374151" font-size="10">700%</text>
  <line x1="90.0" y1="379.0" x2="700.0" y2="379.0" stroke="#e5e7eb" stroke-width="1"/>
  <text x="82.0" y="379.0" text-anchor="end" dominant-baseline="middle" fill="#374151" font-size="10">800%</text>
  <line x1="90.0" y1="571.6" x2="700.0" y2="571.6" stroke="#e5e7eb" stroke-width="1" stroke-dasharray="3,6"/>
  <text x="708.0" y="571.6" text-anchor="start" dominant-baseline="middle" fill="#6b7280" font-size="10">2 GB/s</text>
  <line x1="90.0" y1="504.2" x2="700.0" y2="504.2" stroke="#e5e7eb" stroke-width="1" stroke-dasharray="3,6"/>
  <text x="708.0" y="504.2" text-anchor="start" dominant-baseline="middle" fill="#6b7280" font-size="10">4 GB/s</text>
  <line x1="90.0" y1="436.9" x2="700.0" y2="436.9" stroke="#e5e7eb" stroke-width="1" stroke-dasharray="3,6"/>
  <text x="708.0" y="436.9" text-anchor="start" dominant-baseline="middle" fill="#6b7280" font-size="10">6 GB/s</text>
  <text x="788.0" y="603.7" text-anchor="start" dominant-baseline="middle" fill="#9ca3af" font-size="10">200k/s</text>
  <text x="788.0" y="568.4" text-anchor="start" dominant-baseline="middle" fill="#9ca3af" font-size="10">400k/s</text>
  <text x="788.0" y="533.2" text-anchor="start" dominant-baseline="middle" fill="#9ca3af" font-size="10">600k/s</text>
  <text x="788.0" y="497.9" text-anchor="start" dominant-baseline="middle" fill="#9ca3af" font-size="10">800k/s</text>
  <text x="788.0" y="462.6" text-anchor="start" dominant-baseline="middle" fill="#9ca3af" font-size="10">1M/s</text>
  <text x="788.0" y="427.3" text-anchor="start" dominant-baseline="middle" fill="#9ca3af" font-size="10">1.2M/s</text>
  <text x="788.0" y="392.1" text-anchor="start" dominant-baseline="middle" fill="#9ca3af" font-size="10">1.4M/s</text>
  <line x1="90.0" y1="379.0" x2="90.0" y2="639.0" stroke="#e5e7eb" stroke-width="1"/>
  <line x1="212.0" y1="379.0" x2="212.0" y2="639.0" stroke="#e5e7eb" stroke-width="1"/>
  <line x1="334.0" y1="379.0" x2="334.0" y2="639.0" stroke="#e5e7eb" stroke-width="1"/>
  <line x1="456.0" y1="379.0" x2="456.0" y2="639.0" stroke="#e5e7eb" stroke-width="1"/>
  <line x1="578.0" y1="379.0" x2="578.0" y2="639.0" stroke="#e5e7eb" stroke-width="1"/>
  <line x1="700.0" y1="379.0" x2="700.0" y2="639.0" stroke="#e5e7eb" stroke-width="1"/>
  <line x1="90.0" y1="379.0" x2="90.0" y2="639.0" stroke="#9ca3af" stroke-width="1.5"/>
  <line x1="700.0" y1="379.0" x2="700.0" y2="639.0" stroke="#9ca3af" stroke-width="1.5"/>
  <line x1="90.0" y1="639.0" x2="700.0" y2="639.0" stroke="#9ca3af" stroke-width="1.5"/>
  <line x1="780.0" y1="379.0" x2="780.0" y2="639.0" stroke="#d1d5db" stroke-width="1"/>
  <text x="40.0" y="509.0" text-anchor="middle" fill="#374151" font-size="10" font-weight="600" transform="rotate(-90,40.0,509.0)">CPU %</text>
  <polyline points="90.0,447.6 212.0,448.3 334.0,451.4 456.0,460.6 578.0,487.5 700.0,521.5" fill="none" stroke="#15803d" stroke-width="1.6" stroke-dasharray="2,5" opacity="0.85"/>
  <polyline points="90.0,479.3 212.0,486.9 334.0,481.2 456.0,478.0 578.0,473.7 700.0,501.0" fill="none" stroke="#eab308" stroke-width="1.6" stroke-dasharray="2,5" opacity="0.85"/>
  <polyline points="90.0,463.0 212.0,485.2 334.0,469.0 456.0,466.0 578.0,464.1 700.0,454.2" fill="none" stroke="#a16207" stroke-width="1.6" stroke-dasharray="2,5" opacity="0.85"/>
  <polyline points="90.0,454.1 212.0,461.2 334.0,463.8 456.0,462.8 578.0,492.1 700.0,479.1" fill="none" stroke="#dc2626" stroke-width="1.6" stroke-dasharray="2,5" opacity="0.85"/>
  <polyline points="90.0,546.6 212.0,538.9 334.0,547.5 456.0,569.9 578.0,568.9 700.0,564.2" fill="none" stroke="#f97316" stroke-width="1.6" stroke-dasharray="2,5" opacity="0.85"/>
  <polyline points="90.0,470.0 212.0,490.5 334.0,501.2 456.0,508.4 578.0,497.9 700.0,482.7" fill="none" stroke="#16a34a" stroke-width="1.6" stroke-dasharray="2,5" opacity="0.85"/>
  <polyline points="90.0,509.4 212.0,513.1 334.0,517.7 456.0,518.7 578.0,521.3 700.0,530.2" fill="none" stroke="#2563eb" stroke-width="1.6" stroke-dasharray="2,5" opacity="0.85"/>
  <polyline points="90.0,566.8 212.0,565.8 334.0,568.9 456.0,582.6 578.0,611.2 700.0,630.6" fill="none" stroke="#15803d" stroke-width="2.0" stroke-dasharray="5,3"/>
  <polyline points="90.0,417.3 212.0,506.1 334.0,579.1 456.0,620.6 578.0,634.0 700.0,637.6" fill="none" stroke="#eab308" stroke-width="2.0" stroke-dasharray="5,3"/>
  <polyline points="90.0,470.1 212.0,495.8 334.0,542.2 456.0,598.0 578.0,627.7 700.0,635.7" fill="none" stroke="#a16207" stroke-width="2.0" stroke-dasharray="5,3"/>
  <polyline points="90.0,513.8 212.0,523.4 334.0,553.3 456.0,575.6 578.0,605.5 700.0,630.0" fill="none" stroke="#dc2626" stroke-width="2.0" stroke-dasharray="5,3"/>
  <polyline points="90.0,412.9 212.0,443.9 334.0,498.8 456.0,579.1 578.0,610.4 700.0,630.3" fill="none" stroke="#f97316" stroke-width="2.0" stroke-dasharray="5,3"/>
  <polyline points="90.0,585.9 212.0,584.8 334.0,589.6 456.0,598.1 578.0,616.1 700.0,631.1" fill="none" stroke="#16a34a" stroke-width="2.0" stroke-dasharray="5,3"/>
  <polyline points="90.0,633.1 212.0,634.2 334.0,634.9 456.0,635.2 578.0,635.7 700.0,636.6" fill="none" stroke="#2563eb" stroke-width="2.0" stroke-dasharray="5,3"/>
  <polyline points="90.0,637.2 212.0,631.8 334.0,611.6 456.0,550.8 578.0,464.9 700.0,428.1" fill="none" stroke="#15803d" stroke-width="2.0" stroke-linecap="round" stroke-linejoin="round"/>
  <circle cx="90.0" cy="637.2" r="2.2" fill="#15803d" stroke="white" stroke-width="1"/>
  <circle cx="212.0" cy="631.8" r="2.2" fill="#15803d" stroke="white" stroke-width="1"/>
  <circle cx="334.0" cy="611.6" r="2.2" fill="#15803d" stroke="white" stroke-width="1"/>
  <circle cx="456.0" cy="550.8" r="2.2" fill="#15803d" stroke="white" stroke-width="1"/>
  <circle cx="578.0" cy="464.9" r="2.2" fill="#15803d" stroke="white" stroke-width="1"/>
  <circle cx="700.0" cy="428.1" r="2.2" fill="#15803d" stroke="white" stroke-width="1"/>
  <polyline points="90.0,633.6 212.0,626.0 334.0,615.6 456.0,610.2 578.0,608.0 700.0,604.1" fill="none" stroke="#eab308" stroke-width="2.0" stroke-linecap="round" stroke-linejoin="round"/>
  <circle cx="90.0" cy="633.6" r="2.2" fill="#eab308" stroke="white" stroke-width="1"/>
  <circle cx="212.0" cy="626.0" r="2.2" fill="#eab308" stroke="white" stroke-width="1"/>
  <circle cx="334.0" cy="615.6" r="2.2" fill="#eab308" stroke="white" stroke-width="1"/>
  <circle cx="456.0" cy="610.2" r="2.2" fill="#eab308" stroke="white" stroke-width="1"/>
  <circle cx="578.0" cy="608.0" r="2.2" fill="#eab308" stroke="white" stroke-width="1"/>
  <circle cx="700.0" cy="604.1" r="2.2" fill="#eab308" stroke="white" stroke-width="1"/>
  <polyline points="90.0,634.9 212.0,625.0 334.0,601.1 456.0,574.9 578.0,568.4 700.0,556.1" fill="none" stroke="#a16207" stroke-width="2.0" stroke-linecap="round" stroke-linejoin="round"/>
  <circle cx="90.0" cy="634.9" r="2.2" fill="#a16207" stroke="white" stroke-width="1"/>
  <circle cx="212.0" cy="625.0" r="2.2" fill="#a16207" stroke="white" stroke-width="1"/>
  <circle cx="334.0" cy="601.1" r="2.2" fill="#a16207" stroke="white" stroke-width="1"/>
  <circle cx="456.0" cy="574.9" r="2.2" fill="#a16207" stroke="white" stroke-width="1"/>
  <circle cx="578.0" cy="568.4" r="2.2" fill="#a16207" stroke="white" stroke-width="1"/>
  <circle cx="700.0" cy="556.1" r="2.2" fill="#a16207" stroke="white" stroke-width="1"/>
  <polyline points="90.0,635.9 212.0,627.7 334.0,605.5 456.0,539.8 578.0,429.4 700.0,412.9" fill="none" stroke="#dc2626" stroke-width="2.0" stroke-linecap="round" stroke-linejoin="round"/>
  <circle cx="90.0" cy="635.9" r="2.2" fill="#dc2626" stroke="white" stroke-width="1"/>
  <circle cx="212.0" cy="627.7" r="2.2" fill="#dc2626" stroke="white" stroke-width="1"/>
  <circle cx="334.0" cy="605.5" r="2.2" fill="#dc2626" stroke="white" stroke-width="1"/>
  <circle cx="456.0" cy="539.8" r="2.2" fill="#dc2626" stroke="white" stroke-width="1"/>
  <circle cx="578.0" cy="429.4" r="2.2" fill="#dc2626" stroke="white" stroke-width="1"/>
  <circle cx="700.0" cy="412.9" r="2.2" fill="#dc2626" stroke="white" stroke-width="1"/>
  <polyline points="90.0,633.5 212.0,619.9 334.0,584.1 456.0,545.3 578.0,460.0 700.0,421.0" fill="none" stroke="#f97316" stroke-width="2.0" stroke-linecap="round" stroke-linejoin="round"/>
  <circle cx="90.0" cy="633.5" r="2.2" fill="#f97316" stroke="white" stroke-width="1"/>
  <circle cx="212.0" cy="619.9" r="2.2" fill="#f97316" stroke="white" stroke-width="1"/>
  <circle cx="334.0" cy="584.1" r="2.2" fill="#f97316" stroke="white" stroke-width="1"/>
  <circle cx="456.0" cy="545.3" r="2.2" fill="#f97316" stroke="white" stroke-width="1"/>
  <circle cx="578.0" cy="460.0" r="2.2" fill="#f97316" stroke="white" stroke-width="1"/>
  <circle cx="700.0" cy="421.0" r="2.2" fill="#f97316" stroke="white" stroke-width="1"/>
  <polyline points="90.0,637.7 212.0,633.7 334.0,619.7 456.0,575.0 578.0,495.9 700.0,440.2" fill="none" stroke="#16a34a" stroke-width="2.0" stroke-linecap="round" stroke-linejoin="round"/>
  <circle cx="90.0" cy="637.7" r="2.2" fill="#16a34a" stroke="white" stroke-width="1"/>
  <circle cx="212.0" cy="633.7" r="2.2" fill="#16a34a" stroke="white" stroke-width="1"/>
  <circle cx="334.0" cy="619.7" r="2.2" fill="#16a34a" stroke="white" stroke-width="1"/>
  <circle cx="456.0" cy="575.0" r="2.2" fill="#16a34a" stroke="white" stroke-width="1"/>
  <circle cx="578.0" cy="495.9" r="2.2" fill="#16a34a" stroke="white" stroke-width="1"/>
  <circle cx="700.0" cy="440.2" r="2.2" fill="#16a34a" stroke="white" stroke-width="1"/>
  <polyline points="90.0,638.9 212.0,638.5 334.0,637.4 456.0,633.1 578.0,618.3 700.0,579.0" fill="none" stroke="#2563eb" stroke-width="2.0" stroke-linecap="round" stroke-linejoin="round"/>
  <circle cx="90.0" cy="638.9" r="2.2" fill="#2563eb" stroke="white" stroke-width="1"/>
  <circle cx="212.0" cy="638.5" r="2.2" fill="#2563eb" stroke="white" stroke-width="1"/>
  <circle cx="334.0" cy="637.4" r="2.2" fill="#2563eb" stroke="white" stroke-width="1"/>
  <circle cx="456.0" cy="633.1" r="2.2" fill="#2563eb" stroke="white" stroke-width="1"/>
  <circle cx="578.0" cy="618.3" r="2.2" fill="#2563eb" stroke="white" stroke-width="1"/>
  <circle cx="700.0" cy="579.0" r="2.2" fill="#2563eb" stroke="white" stroke-width="1"/>
  <text x="90.0" y="653.0" text-anchor="middle" fill="#374151" font-size="8.5">16 B</text>
  <text x="212.0" y="653.0" text-anchor="middle" fill="#374151" font-size="8.5">64 B</text>
  <text x="334.0" y="653.0" text-anchor="middle" fill="#374151" font-size="8.5">256 B</text>
  <text x="456.0" y="653.0" text-anchor="middle" fill="#374151" font-size="8.5">1 KiB</text>
  <text x="578.0" y="653.0" text-anchor="middle" fill="#374151" font-size="8.5">4 KiB</text>
  <text x="700.0" y="653.0" text-anchor="middle" fill="#374151" font-size="8.5">16 KiB</text>
  <text x="395.0" y="692.0" text-anchor="middle" fill="#111827" font-size="13" font-weight="700">PUB/SUB throughput, 32 subscribers: TCP loopback</text>
  <line x1="90.0" y1="936.5" x2="700.0" y2="936.5" stroke="#e5e7eb" stroke-width="1"/>
  <text x="82.0" y="936.5" text-anchor="end" dominant-baseline="middle" fill="#374151" font-size="10">100%</text>
  <line x1="90.0" y1="904.0" x2="700.0" y2="904.0" stroke="#e5e7eb" stroke-width="1"/>
  <text x="82.0" y="904.0" text-anchor="end" dominant-baseline="middle" fill="#374151" font-size="10">200%</text>
  <line x1="90.0" y1="871.5" x2="700.0" y2="871.5" stroke="#e5e7eb" stroke-width="1"/>
  <text x="82.0" y="871.5" text-anchor="end" dominant-baseline="middle" fill="#374151" font-size="10">300%</text>
  <line x1="90.0" y1="839.0" x2="700.0" y2="839.0" stroke="#e5e7eb" stroke-width="1"/>
  <text x="82.0" y="839.0" text-anchor="end" dominant-baseline="middle" fill="#374151" font-size="10">400%</text>
  <line x1="90.0" y1="806.5" x2="700.0" y2="806.5" stroke="#e5e7eb" stroke-width="1"/>
  <text x="82.0" y="806.5" text-anchor="end" dominant-baseline="middle" fill="#374151" font-size="10">500%</text>
  <line x1="90.0" y1="774.0" x2="700.0" y2="774.0" stroke="#e5e7eb" stroke-width="1"/>
  <text x="82.0" y="774.0" text-anchor="end" dominant-baseline="middle" fill="#374151" font-size="10">600%</text>
  <line x1="90.0" y1="741.5" x2="700.0" y2="741.5" stroke="#e5e7eb" stroke-width="1"/>
  <text x="82.0" y="741.5" text-anchor="end" dominant-baseline="middle" fill="#374151" font-size="10">700%</text>
  <line x1="90.0" y1="709.0" x2="700.0" y2="709.0" stroke="#e5e7eb" stroke-width="1"/>
  <text x="82.0" y="709.0" text-anchor="end" dominant-baseline="middle" fill="#374151" font-size="10">800%</text>
  <line x1="90.0" y1="924.3" x2="700.0" y2="924.3" stroke="#e5e7eb" stroke-width="1" stroke-dasharray="3,6"/>
  <text x="708.0" y="924.3" text-anchor="start" dominant-baseline="middle" fill="#6b7280" font-size="10">2 GB/s</text>
  <line x1="90.0" y1="879.6" x2="700.0" y2="879.6" stroke="#e5e7eb" stroke-width="1" stroke-dasharray="3,6"/>
  <text x="708.0" y="879.6" text-anchor="start" dominant-baseline="middle" fill="#6b7280" font-size="10">4 GB/s</text>
  <line x1="90.0" y1="834.9" x2="700.0" y2="834.9" stroke="#e5e7eb" stroke-width="1" stroke-dasharray="3,6"/>
  <text x="708.0" y="834.9" text-anchor="start" dominant-baseline="middle" fill="#6b7280" font-size="10">6 GB/s</text>
  <line x1="90.0" y1="790.2" x2="700.0" y2="790.2" stroke="#e5e7eb" stroke-width="1" stroke-dasharray="3,6"/>
  <text x="708.0" y="790.2" text-anchor="start" dominant-baseline="middle" fill="#6b7280" font-size="10">8 GB/s</text>
  <line x1="90.0" y1="745.5" x2="700.0" y2="745.5" stroke="#e5e7eb" stroke-width="1" stroke-dasharray="3,6"/>
  <text x="708.0" y="745.5" text-anchor="start" dominant-baseline="middle" fill="#6b7280" font-size="10">10 GB/s</text>
  <text x="788.0" y="914.3" text-anchor="start" dominant-baseline="middle" fill="#9ca3af" font-size="10">100k/s</text>
  <text x="788.0" y="859.6" text-anchor="start" dominant-baseline="middle" fill="#9ca3af" font-size="10">200k/s</text>
  <text x="788.0" y="805.0" text-anchor="start" dominant-baseline="middle" fill="#9ca3af" font-size="10">300k/s</text>
  <text x="788.0" y="750.3" text-anchor="start" dominant-baseline="middle" fill="#9ca3af" font-size="10">400k/s</text>
  <line x1="90.0" y1="709.0" x2="90.0" y2="969.0" stroke="#e5e7eb" stroke-width="1"/>
  <line x1="212.0" y1="709.0" x2="212.0" y2="969.0" stroke="#e5e7eb" stroke-width="1"/>
  <line x1="334.0" y1="709.0" x2="334.0" y2="969.0" stroke="#e5e7eb" stroke-width="1"/>
  <line x1="456.0" y1="709.0" x2="456.0" y2="969.0" stroke="#e5e7eb" stroke-width="1"/>
  <line x1="578.0" y1="709.0" x2="578.0" y2="969.0" stroke="#e5e7eb" stroke-width="1"/>
  <line x1="700.0" y1="709.0" x2="700.0" y2="969.0" stroke="#e5e7eb" stroke-width="1"/>
  <line x1="90.0" y1="709.0" x2="90.0" y2="969.0" stroke="#9ca3af" stroke-width="1.5"/>
  <line x1="700.0" y1="709.0" x2="700.0" y2="969.0" stroke="#9ca3af" stroke-width="1.5"/>
  <line x1="90.0" y1="969.0" x2="700.0" y2="969.0" stroke="#9ca3af" stroke-width="1.5"/>
  <line x1="780.0" y1="709.0" x2="780.0" y2="969.0" stroke="#d1d5db" stroke-width="1"/>
  <text x="40.0" y="839.0" text-anchor="middle" fill="#374151" font-size="10" font-weight="600" transform="rotate(-90,40.0,839.0)">CPU %</text>
  <polyline points="90.0,768.7 212.0,770.0 334.0,771.7 456.0,782.9 578.0,801.2 700.0,837.6" fill="none" stroke="#15803d" stroke-width="1.6" stroke-dasharray="2,5" opacity="0.85"/>
  <polyline points="90.0,809.8 212.0,810.2 334.0,810.4 456.0,805.3 578.0,810.1 700.0,824.9" fill="none" stroke="#eab308" stroke-width="1.6" stroke-dasharray="2,5" opacity="0.85"/>
  <polyline points="90.0,784.7 212.0,779.6 334.0,788.8 456.0,787.4 578.0,782.0 700.0,777.7" fill="none" stroke="#a16207" stroke-width="1.6" stroke-dasharray="2,5" opacity="0.85"/>
  <polyline points="90.0,772.9 212.0,789.2 334.0,779.9 456.0,779.2 578.0,782.3 700.0,769.2" fill="none" stroke="#dc2626" stroke-width="1.6" stroke-dasharray="2,5" opacity="0.85"/>
  <polyline points="90.0,826.2 212.0,824.9 334.0,870.9 456.0,875.0 578.0,887.9 700.0,894.9" fill="none" stroke="#f97316" stroke-width="1.6" stroke-dasharray="2,5" opacity="0.85"/>
  <polyline points="90.0,764.5 212.0,774.8 334.0,788.9 456.0,793.6 578.0,789.2 700.0,786.1" fill="none" stroke="#16a34a" stroke-width="1.6" stroke-dasharray="2,5" opacity="0.85"/>
  <polyline points="90.0,821.0 212.0,815.4 334.0,818.4 456.0,822.2 578.0,821.2 700.0,835.0" fill="none" stroke="#2563eb" stroke-width="1.6" stroke-dasharray="2,5" opacity="0.85"/>
  <polyline points="90.0,923.5 212.0,917.6 334.0,920.3 456.0,929.0 578.0,948.1 700.0,962.6" fill="none" stroke="#15803d" stroke-width="2.0" stroke-dasharray="5,3"/>
  <polyline points="90.0,805.2 212.0,865.8 334.0,927.4 456.0,956.4 578.0,965.8 700.0,968.0" fill="none" stroke="#eab308" stroke-width="2.0" stroke-dasharray="5,3"/>
  <polyline points="90.0,826.8 212.0,851.5 334.0,909.9 456.0,948.7 578.0,963.5 700.0,967.4" fill="none" stroke="#a16207" stroke-width="2.0" stroke-dasharray="5,3"/>
  <polyline points="90.0,742.9 212.0,789.7 334.0,835.2 456.0,884.0 578.0,933.9 700.0,958.4" fill="none" stroke="#dc2626" stroke-width="2.0" stroke-dasharray="5,3"/>
  <polyline points="90.0,811.0 212.0,842.8 334.0,905.3 456.0,921.6 578.0,947.4 700.0,962.0" fill="none" stroke="#f97316" stroke-width="2.0" stroke-dasharray="5,3"/>
  <polyline points="90.0,931.5 212.0,934.1 334.0,939.5 456.0,941.9 578.0,953.8 700.0,963.1" fill="none" stroke="#16a34a" stroke-width="2.0" stroke-dasharray="5,3"/>
  <polyline points="90.0,964.8 212.0,964.5 334.0,964.9 456.0,966.0 578.0,966.5 700.0,967.1" fill="none" stroke="#2563eb" stroke-width="2.0" stroke-dasharray="5,3"/>
  <polyline points="90.0,968.0 212.0,964.7 334.0,952.7 456.0,915.4 578.0,856.8 700.0,832.3" fill="none" stroke="#15803d" stroke-width="2.0" stroke-linecap="round" stroke-linejoin="round"/>
  <circle cx="90.0" cy="968.0" r="2.2" fill="#15803d" stroke="white" stroke-width="1"/>
  <circle cx="212.0" cy="964.7" r="2.2" fill="#15803d" stroke="white" stroke-width="1"/>
  <circle cx="334.0" cy="952.7" r="2.2" fill="#15803d" stroke="white" stroke-width="1"/>
  <circle cx="456.0" cy="915.4" r="2.2" fill="#15803d" stroke="white" stroke-width="1"/>
  <circle cx="578.0" cy="856.8" r="2.2" fill="#15803d" stroke="white" stroke-width="1"/>
  <circle cx="700.0" cy="832.3" r="2.2" fill="#15803d" stroke="white" stroke-width="1"/>
  <polyline points="90.0,965.6 212.0,960.4 334.0,955.1 456.0,952.1 578.0,951.8 700.0,947.7" fill="none" stroke="#eab308" stroke-width="2.0" stroke-linecap="round" stroke-linejoin="round"/>
  <circle cx="90.0" cy="965.6" r="2.2" fill="#eab308" stroke="white" stroke-width="1"/>
  <circle cx="212.0" cy="960.4" r="2.2" fill="#eab308" stroke="white" stroke-width="1"/>
  <circle cx="334.0" cy="955.1" r="2.2" fill="#eab308" stroke="white" stroke-width="1"/>
  <circle cx="456.0" cy="952.1" r="2.2" fill="#eab308" stroke="white" stroke-width="1"/>
  <circle cx="578.0" cy="951.8" r="2.2" fill="#eab308" stroke="white" stroke-width="1"/>
  <circle cx="700.0" cy="947.7" r="2.2" fill="#eab308" stroke="white" stroke-width="1"/>
  <polyline points="90.0,966.0 212.0,959.2 334.0,949.2 456.0,941.9 578.0,939.7 700.0,934.2" fill="none" stroke="#a16207" stroke-width="2.0" stroke-linecap="round" stroke-linejoin="round"/>
  <circle cx="90.0" cy="966.0" r="2.2" fill="#a16207" stroke="white" stroke-width="1"/>
  <circle cx="212.0" cy="959.2" r="2.2" fill="#a16207" stroke="white" stroke-width="1"/>
  <circle cx="334.0" cy="949.2" r="2.2" fill="#a16207" stroke="white" stroke-width="1"/>
  <circle cx="456.0" cy="941.9" r="2.2" fill="#a16207" stroke="white" stroke-width="1"/>
  <circle cx="578.0" cy="939.7" r="2.2" fill="#a16207" stroke="white" stroke-width="1"/>
  <circle cx="700.0" cy="934.2" r="2.2" fill="#a16207" stroke="white" stroke-width="1"/>
  <polyline points="90.0,964.3 212.0,954.0 334.0,924.2 456.0,855.2 578.0,781.2 700.0,742.9" fill="none" stroke="#dc2626" stroke-width="2.0" stroke-linecap="round" stroke-linejoin="round"/>
  <circle cx="90.0" cy="964.3" r="2.2" fill="#dc2626" stroke="white" stroke-width="1"/>
  <circle cx="212.0" cy="954.0" r="2.2" fill="#dc2626" stroke="white" stroke-width="1"/>
  <circle cx="334.0" cy="924.2" r="2.2" fill="#dc2626" stroke="white" stroke-width="1"/>
  <circle cx="456.0" cy="855.2" r="2.2" fill="#dc2626" stroke="white" stroke-width="1"/>
  <circle cx="578.0" cy="781.2" r="2.2" fill="#dc2626" stroke="white" stroke-width="1"/>
  <circle cx="700.0" cy="742.9" r="2.2" fill="#dc2626" stroke="white" stroke-width="1"/>
  <polyline points="90.0,965.7 212.0,958.4 334.0,947.7 456.0,905.5 578.0,853.1 700.0,819.7" fill="none" stroke="#f97316" stroke-width="2.0" stroke-linecap="round" stroke-linejoin="round"/>
  <circle cx="90.0" cy="965.7" r="2.2" fill="#f97316" stroke="white" stroke-width="1"/>
  <circle cx="212.0" cy="958.4" r="2.2" fill="#f97316" stroke="white" stroke-width="1"/>
  <circle cx="334.0" cy="947.7" r="2.2" fill="#f97316" stroke="white" stroke-width="1"/>
  <circle cx="456.0" cy="905.5" r="2.2" fill="#f97316" stroke="white" stroke-width="1"/>
  <circle cx="578.0" cy="853.1" r="2.2" fill="#f97316" stroke="white" stroke-width="1"/>
  <circle cx="700.0" cy="819.7" r="2.2" fill="#f97316" stroke="white" stroke-width="1"/>
  <polyline points="90.0,968.2 212.0,966.1 334.0,959.1 456.0,932.8 578.0,887.6 700.0,842.7" fill="none" stroke="#16a34a" stroke-width="2.0" stroke-linecap="round" stroke-linejoin="round"/>
  <circle cx="90.0" cy="968.2" r="2.2" fill="#16a34a" stroke="white" stroke-width="1"/>
  <circle cx="212.0" cy="966.1" r="2.2" fill="#16a34a" stroke="white" stroke-width="1"/>
  <circle cx="334.0" cy="959.1" r="2.2" fill="#16a34a" stroke="white" stroke-width="1"/>
  <circle cx="456.0" cy="932.8" r="2.2" fill="#16a34a" stroke="white" stroke-width="1"/>
  <circle cx="578.0" cy="887.6" r="2.2" fill="#16a34a" stroke="white" stroke-width="1"/>
  <circle cx="700.0" cy="842.7" r="2.2" fill="#16a34a" stroke="white" stroke-width="1"/>
  <polyline points="90.0,968.9 212.0,968.6 334.0,967.6 456.0,965.0 578.0,955.4 700.0,928.7" fill="none" stroke="#2563eb" stroke-width="2.0" stroke-linecap="round" stroke-linejoin="round"/>
  <circle cx="90.0" cy="968.9" r="2.2" fill="#2563eb" stroke="white" stroke-width="1"/>
  <circle cx="212.0" cy="968.6" r="2.2" fill="#2563eb" stroke="white" stroke-width="1"/>
  <circle cx="334.0" cy="967.6" r="2.2" fill="#2563eb" stroke="white" stroke-width="1"/>
  <circle cx="456.0" cy="965.0" r="2.2" fill="#2563eb" stroke="white" stroke-width="1"/>
  <circle cx="578.0" cy="955.4" r="2.2" fill="#2563eb" stroke="white" stroke-width="1"/>
  <circle cx="700.0" cy="928.7" r="2.2" fill="#2563eb" stroke="white" stroke-width="1"/>
  <text x="90.0" y="983.0" text-anchor="middle" fill="#374151" font-size="8.5">16 B</text>
  <text x="212.0" y="983.0" text-anchor="middle" fill="#374151" font-size="8.5">64 B</text>
  <text x="334.0" y="983.0" text-anchor="middle" fill="#374151" font-size="8.5">256 B</text>
  <text x="456.0" y="983.0" text-anchor="middle" fill="#374151" font-size="8.5">1 KiB</text>
  <text x="578.0" y="983.0" text-anchor="middle" fill="#374151" font-size="8.5">4 KiB</text>
  <text x="700.0" y="983.0" text-anchor="middle" fill="#374151" font-size="8.5">16 KiB</text>
  <line x1="15" y1="999" x2="29" y2="999" stroke="#eab308" stroke-width="2.5"/>
  <circle cx="22" cy="999" r="2.5" fill="#eab308"/>
  <text x="35" y="1003" fill="#374151" font-size="11" font-weight="500">libzmq v4.3.5</text>
  <line x1="205" y1="999" x2="219" y2="999" stroke="#a16207" stroke-width="2.5"/>
  <circle cx="212" cy="999" r="2.5" fill="#a16207"/>
  <text x="225" y="1003" fill="#374151" font-size="11" font-weight="500">libzmq v4.3.5 (4 IO threads)</text>
  <line x1="395" y1="999" x2="409" y2="999" stroke="#f97316" stroke-width="2.5"/>
  <circle cx="402" cy="999" r="2.5" fill="#f97316"/>
  <text x="415" y="1003" fill="#374151" font-size="11" font-weight="500">omq-tokio (ST)</text>
  <line x1="585" y1="999" x2="599" y2="999" stroke="#dc2626" stroke-width="2.5"/>
  <circle cx="592" cy="999" r="2.5" fill="#dc2626"/>
  <text x="605" y="1003" fill="#374151" font-size="11" font-weight="500">omq-tokio (MT)</text>
  <line x1="110" y1="1019" x2="124" y2="1019" stroke="#2563eb" stroke-width="2.5"/>
  <circle cx="117" cy="1019" r="2.5" fill="#2563eb"/>
  <text x="130" y="1023" fill="#374151" font-size="11" font-weight="500">zmq.rs v0.6.0 (MT)</text>
  <line x1="300" y1="1019" x2="314" y2="1019" stroke="#16a34a" stroke-width="2.5"/>
  <circle cx="307" cy="1019" r="2.5" fill="#16a34a"/>
  <text x="320" y="1023" fill="#374151" font-size="11" font-weight="500">rzmq v0.5.22 (MT)</text>
  <line x1="490" y1="1019" x2="504" y2="1019" stroke="#15803d" stroke-width="2.5"/>
  <circle cx="497" cy="1019" r="2.5" fill="#15803d"/>
  <text x="510" y="1023" fill="#374151" font-size="11" font-weight="500">rzmq v0.5.22 (io_uring, MT)</text>
  <text x="395.0" y="1037" text-anchor="middle" fill="#9ca3af" font-size="9">ST = single-threaded   MT = multi-threaded</text>
  <line x1="145" y1="1059" x2="159" y2="1059" stroke="#6b7280" stroke-width="1.6" stroke-dasharray="2,5" opacity="0.85"/>
  <text x="165" y="1063" fill="#6b7280" font-size="10">CPU % (left)</text>
  <line x1="290" y1="1059" x2="304" y2="1059" stroke="#6b7280" stroke-width="2.0"/>
  <circle cx="297" cy="1059" r="1.8" fill="#6b7280"/>
  <text x="310" y="1063" fill="#6b7280" font-size="10">GB/s (inner right)</text>
  <line x1="455" y1="1059" x2="469" y2="1059" stroke="#6b7280" stroke-width="2.0" stroke-dasharray="5,3"/>
  <text x="475" y="1063" fill="#6b7280" font-size="10">msg/s (outer right)</text>
</svg>
