<svg xmlns="http://www.w3.org/2000/svg" viewBox="0 0 875 1097" font-family="system-ui, -apple-system, sans-serif">
  <rect width="875" height="1097" fill="white"/>
  <text x="395.0" y="46" text-anchor="middle" fill="#9ca3af" font-size="10">Linux VM on a 2018 Mac Mini, Intel Core i7-8700B @ 3.20GHz, 6 cores, performance governor, turbo off</text>
  <text x="395.0" y="32.0" text-anchor="middle" fill="#111827" font-size="13" font-weight="700">PUB/SUB throughput, 1 subscriber: TCP loopback</text>
  <line x1="90.0" y1="257.0" x2="700.0" y2="257.0" stroke="#e5e7eb" stroke-width="1"/>
  <text x="82.0" y="257.0" text-anchor="end" dominant-baseline="middle" fill="#374151" font-size="10">100%</text>
  <line x1="90.0" y1="205.0" x2="700.0" y2="205.0" stroke="#e5e7eb" stroke-width="1"/>
  <text x="82.0" y="205.0" text-anchor="end" dominant-baseline="middle" fill="#374151" font-size="10">200%</text>
  <line x1="90.0" y1="153.0" x2="700.0" y2="153.0" stroke="#e5e7eb" stroke-width="1"/>
  <text x="82.0" y="153.0" text-anchor="end" dominant-baseline="middle" fill="#374151" font-size="10">300%</text>
  <line x1="90.0" y1="101.0" x2="700.0" y2="101.0" stroke="#e5e7eb" stroke-width="1"/>
  <text x="82.0" y="101.0" text-anchor="end" dominant-baseline="middle" fill="#374151" font-size="10">400%</text>
  <line x1="90.0" y1="49.0" x2="700.0" y2="49.0" stroke="#e5e7eb" stroke-width="1"/>
  <text x="82.0" y="49.0" text-anchor="end" dominant-baseline="middle" fill="#374151" font-size="10">500%</text>
  <line x1="90.0" y1="225.1" x2="700.0" y2="225.1" stroke="#e5e7eb" stroke-width="1" stroke-dasharray="3,6"/>
  <text x="708.0" y="225.1" text-anchor="start" dominant-baseline="middle" fill="#6b7280" font-size="10">2 GB/s</text>
  <line x1="90.0" y1="141.1" x2="700.0" y2="141.1" stroke="#e5e7eb" stroke-width="1" stroke-dasharray="3,6"/>
  <text x="708.0" y="141.1" text-anchor="start" dominant-baseline="middle" fill="#6b7280" font-size="10">4 GB/s</text>
  <line x1="90.0" y1="57.2" x2="700.0" y2="57.2" stroke="#e5e7eb" stroke-width="1" stroke-dasharray="3,6"/>
  <text x="708.0" y="57.2" text-anchor="start" dominant-baseline="middle" fill="#6b7280" font-size="10">6 GB/s</text>
  <text x="788.0" y="274.7" text-anchor="start" dominant-baseline="middle" fill="#9ca3af" font-size="10">1M/s</text>
  <text x="788.0" y="240.4" text-anchor="start" dominant-baseline="middle" fill="#9ca3af" font-size="10">2M/s</text>
  <text x="788.0" y="206.1" text-anchor="start" dominant-baseline="middle" fill="#9ca3af" font-size="10">3M/s</text>
  <text x="788.0" y="171.8" text-anchor="start" dominant-baseline="middle" fill="#9ca3af" font-size="10">4M/s</text>
  <text x="788.0" y="137.5" text-anchor="start" dominant-baseline="middle" fill="#9ca3af" font-size="10">5M/s</text>
  <text x="788.0" y="103.2" text-anchor="start" dominant-baseline="middle" fill="#9ca3af" font-size="10">6M/s</text>
  <text x="788.0" y="68.9" text-anchor="start" dominant-baseline="middle" fill="#9ca3af" font-size="10">7M/s</text>
  <line x1="90.0" y1="49.0" x2="90.0" y2="309.0" stroke="#e5e7eb" stroke-width="1"/>
  <line x1="212.0" y1="49.0" x2="212.0" y2="309.0" stroke="#e5e7eb" stroke-width="1"/>
  <line x1="334.0" y1="49.0" x2="334.0" y2="309.0" stroke="#e5e7eb" stroke-width="1"/>
  <line x1="456.0" y1="49.0" x2="456.0" y2="309.0" stroke="#e5e7eb" stroke-width="1"/>
  <line x1="578.0" y1="49.0" x2="578.0" y2="309.0" stroke="#e5e7eb" stroke-width="1"/>
  <line x1="700.0" y1="49.0" x2="700.0" y2="309.0" stroke="#e5e7eb" stroke-width="1"/>
  <line x1="90.0" y1="49.0" x2="90.0" y2="309.0" stroke="#9ca3af" stroke-width="1.5"/>
  <line x1="700.0" y1="49.0" x2="700.0" y2="309.0" stroke="#9ca3af" stroke-width="1.5"/>
  <line x1="90.0" y1="309.0" x2="700.0" y2="309.0" stroke="#9ca3af" stroke-width="1.5"/>
  <line x1="780.0" y1="49.0" x2="780.0" y2="309.0" stroke="#d1d5db" stroke-width="1"/>
  <text x="40.0" y="179.0" text-anchor="middle" fill="#374151" font-size="10" font-weight="600" transform="rotate(-90,40.0,179.0)">CPU %</text>
  <polyline points="90.0,111.3 212.0,115.7 334.0,115.6 456.0,115.7 578.0,143.1 700.0,163.0" fill="none" stroke="#15803d" stroke-width="1.6" stroke-dasharray="2,5" opacity="0.85"/>
  <polyline points="90.0,90.5 212.0,98.9 334.0,141.3 456.0,149.8 578.0,154.7 700.0,166.0" fill="none" stroke="#eab308" stroke-width="1.6" stroke-dasharray="2,5" opacity="0.85"/>
  <polyline points="90.0,88.7 212.0,102.0 334.0,136.3 456.0,144.3 578.0,148.5 700.0,162.4" fill="none" stroke="#a16207" stroke-width="1.6" stroke-dasharray="2,5" opacity="0.85"/>
  <polyline points="90.0,107.7 212.0,94.5 334.0,91.7 456.0,102.3 578.0,101.1 700.0,93.1" fill="none" stroke="#dc2626" stroke-width="1.6" stroke-dasharray="2,5" opacity="0.85"/>
  <polyline points="90.0,226.0 212.0,222.8 334.0,221.4 456.0,208.3 578.0,221.8 700.0,217.5" fill="none" stroke="#f97316" stroke-width="1.6" stroke-dasharray="2,5" opacity="0.85"/>
  <polyline points="90.0,228.5 212.0,206.2 334.0,186.0 456.0,188.3 578.0,184.2 700.0,182.2" fill="none" stroke="#16a34a" stroke-width="1.6" stroke-dasharray="2,5" opacity="0.85"/>
  <polyline points="90.0,201.7 212.0,203.4 334.0,204.7 456.0,205.8 578.0,206.8 700.0,206.5" fill="none" stroke="#2563eb" stroke-width="1.6" stroke-dasharray="2,5" opacity="0.85"/>
  <polyline points="90.0,251.3 212.0,251.2 334.0,248.9 456.0,252.4 578.0,277.8 700.0,297.7" fill="none" stroke="#15803d" stroke-width="2.0" stroke-dasharray="5,3"/>
  <polyline points="90.0,86.9 212.0,161.9 334.0,244.3 456.0,279.3 578.0,299.5 700.0,306.5" fill="none" stroke="#eab308" stroke-width="2.0" stroke-dasharray="5,3"/>
  <polyline points="90.0,82.9 212.0,162.5 334.0,245.9 456.0,279.7 578.0,298.5 700.0,306.5" fill="none" stroke="#a16207" stroke-width="2.0" stroke-dasharray="5,3"/>
  <polyline points="90.0,259.5 212.0,253.2 334.0,271.0 456.0,285.6 578.0,286.0 700.0,297.8" fill="none" stroke="#dc2626" stroke-width="2.0" stroke-dasharray="5,3"/>
  <polyline points="90.0,115.2 212.0,151.5 334.0,179.8 456.0,224.0 578.0,275.0 700.0,298.8" fill="none" stroke="#f97316" stroke-width="2.0" stroke-dasharray="5,3"/>
  <polyline points="90.0,292.8 212.0,272.4 334.0,254.6 456.0,260.1 578.0,282.1 700.0,300.6" fill="none" stroke="#16a34a" stroke-width="2.0" stroke-dasharray="5,3"/>
  <polyline points="90.0,299.2 212.0,300.1 334.0,301.0 456.0,301.8 578.0,302.9 700.0,304.4" fill="none" stroke="#2563eb" stroke-width="2.0" stroke-dasharray="5,3"/>
  <polyline points="90.0,307.9 212.0,304.5 334.0,290.2 456.0,238.1 578.0,152.5 700.0,82.9" fill="none" stroke="#15803d" stroke-width="2.0" stroke-linecap="round" stroke-linejoin="round"/>
  <circle cx="90.0" cy="307.9" r="2.2" fill="#15803d" stroke="white" stroke-width="1"/>
  <circle cx="212.0" cy="304.5" r="2.2" fill="#15803d" stroke="white" stroke-width="1"/>
  <circle cx="334.0" cy="290.2" r="2.2" fill="#15803d" stroke="white" stroke-width="1"/>
  <circle cx="456.0" cy="238.1" r="2.2" fill="#15803d" stroke="white" stroke-width="1"/>
  <circle cx="578.0" cy="152.5" r="2.2" fill="#15803d" stroke="white" stroke-width="1"/>
  <circle cx="700.0" cy="82.9" r="2.2" fill="#15803d" stroke="white" stroke-width="1"/>
  <polyline points="90.0,304.7 212.0,297.5 334.0,288.7 456.0,271.8 578.0,261.5 700.0,259.3" fill="none" stroke="#eab308" stroke-width="2.0" stroke-linecap="round" stroke-linejoin="round"/>
  <circle cx="90.0" cy="304.7" r="2.2" fill="#eab308" stroke="white" stroke-width="1"/>
  <circle cx="212.0" cy="297.5" r="2.2" fill="#eab308" stroke="white" stroke-width="1"/>
  <circle cx="334.0" cy="288.7" r="2.2" fill="#eab308" stroke="white" stroke-width="1"/>
  <circle cx="456.0" cy="271.8" r="2.2" fill="#eab308" stroke="white" stroke-width="1"/>
  <circle cx="578.0" cy="261.5" r="2.2" fill="#eab308" stroke="white" stroke-width="1"/>
  <circle cx="700.0" cy="259.3" r="2.2" fill="#eab308" stroke="white" stroke-width="1"/>
  <polyline points="90.0,304.6 212.0,297.5 334.0,289.2 456.0,272.2 578.0,256.3 700.0,258.9" fill="none" stroke="#a16207" stroke-width="2.0" stroke-linecap="round" stroke-linejoin="round"/>
  <circle cx="90.0" cy="304.6" r="2.2" fill="#a16207" stroke="white" stroke-width="1"/>
  <circle cx="212.0" cy="297.5" r="2.2" fill="#a16207" stroke="white" stroke-width="1"/>
  <circle cx="334.0" cy="289.2" r="2.2" fill="#a16207" stroke="white" stroke-width="1"/>
  <circle cx="456.0" cy="272.2" r="2.2" fill="#a16207" stroke="white" stroke-width="1"/>
  <circle cx="578.0" cy="256.3" r="2.2" fill="#a16207" stroke="white" stroke-width="1"/>
  <circle cx="700.0" cy="258.9" r="2.2" fill="#a16207" stroke="white" stroke-width="1"/>
  <polyline points="90.0,308.0 212.0,304.6 334.0,297.1 456.0,279.7 578.0,193.6 700.0,83.5" fill="none" stroke="#dc2626" stroke-width="2.0" stroke-linecap="round" stroke-linejoin="round"/>
  <circle cx="90.0" cy="308.0" r="2.2" fill="#dc2626" stroke="white" stroke-width="1"/>
  <circle cx="212.0" cy="304.6" r="2.2" fill="#dc2626" stroke="white" stroke-width="1"/>
  <circle cx="334.0" cy="297.1" r="2.2" fill="#dc2626" stroke="white" stroke-width="1"/>
  <circle cx="456.0" cy="279.7" r="2.2" fill="#dc2626" stroke="white" stroke-width="1"/>
  <circle cx="578.0" cy="193.6" r="2.2" fill="#dc2626" stroke="white" stroke-width="1"/>
  <circle cx="700.0" cy="83.5" r="2.2" fill="#dc2626" stroke="white" stroke-width="1"/>
  <polyline points="90.0,305.2 212.0,296.7 334.0,268.5 456.0,202.4 578.0,138.5 700.0,104.4" fill="none" stroke="#f97316" stroke-width="2.0" stroke-linecap="round" stroke-linejoin="round"/>
  <circle cx="90.0" cy="305.2" r="2.2" fill="#f97316" stroke="white" stroke-width="1"/>
  <circle cx="212.0" cy="296.7" r="2.2" fill="#f97316" stroke="white" stroke-width="1"/>
  <circle cx="334.0" cy="268.5" r="2.2" fill="#f97316" stroke="white" stroke-width="1"/>
  <circle cx="456.0" cy="202.4" r="2.2" fill="#f97316" stroke="white" stroke-width="1"/>
  <circle cx="578.0" cy="138.5" r="2.2" fill="#f97316" stroke="white" stroke-width="1"/>
  <circle cx="700.0" cy="104.4" r="2.2" fill="#f97316" stroke="white" stroke-width="1"/>
  <polyline points="90.0,308.7 212.0,306.1 334.0,292.0 456.0,247.8 578.0,174.3 700.0,140.7" fill="none" stroke="#16a34a" stroke-width="2.0" stroke-linecap="round" stroke-linejoin="round"/>
  <circle cx="90.0" cy="308.7" r="2.2" fill="#16a34a" stroke="white" stroke-width="1"/>
  <circle cx="212.0" cy="306.1" r="2.2" fill="#16a34a" stroke="white" stroke-width="1"/>
  <circle cx="334.0" cy="292.0" r="2.2" fill="#16a34a" stroke="white" stroke-width="1"/>
  <circle cx="456.0" cy="247.8" r="2.2" fill="#16a34a" stroke="white" stroke-width="1"/>
  <circle cx="578.0" cy="174.3" r="2.2" fill="#16a34a" stroke="white" stroke-width="1"/>
  <circle cx="700.0" cy="140.7" r="2.2" fill="#16a34a" stroke="white" stroke-width="1"/>
  <polyline points="90.0,308.8 212.0,308.3 334.0,306.5 456.0,300.0 578.0,278.5 700.0,216.5" fill="none" stroke="#2563eb" stroke-width="2.0" stroke-linecap="round" stroke-linejoin="round"/>
  <circle cx="90.0" cy="308.8" r="2.2" fill="#2563eb" stroke="white" stroke-width="1"/>
  <circle cx="212.0" cy="308.3" r="2.2" fill="#2563eb" stroke="white" stroke-width="1"/>
  <circle cx="334.0" cy="306.5" r="2.2" fill="#2563eb" stroke="white" stroke-width="1"/>
  <circle cx="456.0" cy="300.0" r="2.2" fill="#2563eb" stroke="white" stroke-width="1"/>
  <circle cx="578.0" cy="278.5" r="2.2" fill="#2563eb" stroke="white" stroke-width="1"/>
  <circle cx="700.0" cy="216.5" r="2.2" fill="#2563eb" stroke="white" stroke-width="1"/>
  <text x="90.0" y="323.0" text-anchor="middle" fill="#374151" font-size="8.5">16 B</text>
  <text x="212.0" y="323.0" text-anchor="middle" fill="#374151" font-size="8.5">64 B</text>
  <text x="334.0" y="323.0" text-anchor="middle" fill="#374151" font-size="8.5">256 B</text>
  <text x="456.0" y="323.0" text-anchor="middle" fill="#374151" font-size="8.5">1 KiB</text>
  <text x="578.0" y="323.0" text-anchor="middle" fill="#374151" font-size="8.5">4 KiB</text>
  <text x="700.0" y="323.0" text-anchor="middle" fill="#374151" font-size="8.5">16 KiB</text>
  <text x="395.0" y="362.0" text-anchor="middle" fill="#111827" font-size="13" font-weight="700">PUB/SUB throughput, 8 subscribers: TCP loopback</text>
  <line x1="90.0" y1="606.5" x2="700.0" y2="606.5" stroke="#e5e7eb" stroke-width="1"/>
  <text x="82.0" y="606.5" text-anchor="end" dominant-baseline="middle" fill="#374151" font-size="10">100%</text>
  <line x1="90.0" y1="574.0" x2="700.0" y2="574.0" stroke="#e5e7eb" stroke-width="1"/>
  <text x="82.0" y="574.0" text-anchor="end" dominant-baseline="middle" fill="#374151" font-size="10">200%</text>
  <line x1="90.0" y1="541.5" x2="700.0" y2="541.5" stroke="#e5e7eb" stroke-width="1"/>
  <text x="82.0" y="541.5" text-anchor="end" dominant-baseline="middle" fill="#374151" font-size="10">300%</text>
  <line x1="90.0" y1="509.0" x2="700.0" y2="509.0" stroke="#e5e7eb" stroke-width="1"/>
  <text x="82.0" y="509.0" text-anchor="end" dominant-baseline="middle" fill="#374151" font-size="10">400%</text>
  <line x1="90.0" y1="476.5" x2="700.0" y2="476.5" stroke="#e5e7eb" stroke-width="1"/>
  <text x="82.0" y="476.5" text-anchor="end" dominant-baseline="middle" fill="#374151" font-size="10">500%</text>
  <line x1="90.0" y1="444.0" x2="700.0" y2="444.0" stroke="#e5e7eb" stroke-width="1"/>
  <text x="82.0" y="444.0" text-anchor="end" dominant-baseline="middle" fill="#374151" font-size="10">600%</text>
  <line x1="90.0" y1="411.5" x2="700.0" y2="411.5" stroke="#e5e7eb" stroke-width="1"/>
  <text x="82.0" y="411.5" text-anchor="end" dominant-baseline="middle" fill="#374151" font-size="10">700%</text>
  <line x1="90.0" y1="379.0" x2="700.0" y2="379.0" stroke="#e5e7eb" stroke-width="1"/>
  <text x="82.0" y="379.0" text-anchor="end" dominant-baseline="middle" fill="#374151" font-size="10">800%</text>
  <line x1="90.0" y1="580.2" x2="700.0" y2="580.2" stroke="#e5e7eb" stroke-width="1" stroke-dasharray="3,6"/>
  <text x="708.0" y="580.2" text-anchor="start" dominant-baseline="middle" fill="#6b7280" font-size="10">2 GB/s</text>
  <line x1="90.0" y1="521.5" x2="700.0" y2="521.5" stroke="#e5e7eb" stroke-width="1" stroke-dasharray="3,6"/>
  <text x="708.0" y="521.5" text-anchor="start" dominant-baseline="middle" fill="#6b7280" font-size="10">4 GB/s</text>
  <line x1="90.0" y1="462.7" x2="700.0" y2="462.7" stroke="#e5e7eb" stroke-width="1" stroke-dasharray="3,6"/>
  <text x="708.0" y="462.7" text-anchor="start" dominant-baseline="middle" fill="#6b7280" font-size="10">6 GB/s</text>
  <line x1="90.0" y1="404.0" x2="700.0" y2="404.0" stroke="#e5e7eb" stroke-width="1" stroke-dasharray="3,6"/>
  <text x="708.0" y="404.0" text-anchor="start" dominant-baseline="middle" fill="#6b7280" font-size="10">8 GB/s</text>
  <text x="788.0" y="603.7" text-anchor="start" dominant-baseline="middle" fill="#9ca3af" font-size="10">200k/s</text>
  <text x="788.0" y="568.5" text-anchor="start" dominant-baseline="middle" fill="#9ca3af" font-size="10">400k/s</text>
  <text x="788.0" y="533.2" text-anchor="start" dominant-baseline="middle" fill="#9ca3af" font-size="10">600k/s</text>
  <text x="788.0" y="497.9" text-anchor="start" dominant-baseline="middle" fill="#9ca3af" font-size="10">800k/s</text>
  <text x="788.0" y="462.6" text-anchor="start" dominant-baseline="middle" fill="#9ca3af" font-size="10">1M/s</text>
  <text x="788.0" y="427.4" text-anchor="start" dominant-baseline="middle" fill="#9ca3af" font-size="10">1.2M/s</text>
  <text x="788.0" y="392.1" text-anchor="start" dominant-baseline="middle" fill="#9ca3af" font-size="10">1.4M/s</text>
  <line x1="90.0" y1="379.0" x2="90.0" y2="639.0" stroke="#e5e7eb" stroke-width="1"/>
  <line x1="212.0" y1="379.0" x2="212.0" y2="639.0" stroke="#e5e7eb" stroke-width="1"/>
  <line x1="334.0" y1="379.0" x2="334.0" y2="639.0" stroke="#e5e7eb" stroke-width="1"/>
  <line x1="456.0" y1="379.0" x2="456.0" y2="639.0" stroke="#e5e7eb" stroke-width="1"/>
  <line x1="578.0" y1="379.0" x2="578.0" y2="639.0" stroke="#e5e7eb" stroke-width="1"/>
  <line x1="700.0" y1="379.0" x2="700.0" y2="639.0" stroke="#e5e7eb" stroke-width="1"/>
  <line x1="90.0" y1="379.0" x2="90.0" y2="639.0" stroke="#9ca3af" stroke-width="1.5"/>
  <line x1="700.0" y1="379.0" x2="700.0" y2="639.0" stroke="#9ca3af" stroke-width="1.5"/>
  <line x1="90.0" y1="639.0" x2="700.0" y2="639.0" stroke="#9ca3af" stroke-width="1.5"/>
  <line x1="780.0" y1="379.0" x2="780.0" y2="639.0" stroke="#d1d5db" stroke-width="1"/>
  <text x="40.0" y="509.0" text-anchor="middle" fill="#374151" font-size="10" font-weight="600" transform="rotate(-90,40.0,509.0)">CPU %</text>
  <polyline points="90.0,447.6 212.0,448.3 334.0,451.4 456.0,460.6 578.0,487.5 700.0,521.5" fill="none" stroke="#15803d" stroke-width="1.6" stroke-dasharray="2,5" opacity="0.85"/>
  <polyline points="90.0,479.3 212.0,486.9 334.0,481.2 456.0,478.0 578.0,473.7 700.0,501.0" fill="none" stroke="#eab308" stroke-width="1.6" stroke-dasharray="2,5" opacity="0.85"/>
  <polyline points="90.0,463.0 212.0,485.2 334.0,469.0 456.0,466.0 578.0,464.1 700.0,454.2" fill="none" stroke="#a16207" stroke-width="1.6" stroke-dasharray="2,5" opacity="0.85"/>
  <polyline points="90.0,457.4 212.0,465.5 334.0,462.3 456.0,462.7 578.0,483.7 700.0,468.9" fill="none" stroke="#dc2626" stroke-width="1.6" stroke-dasharray="2,5" opacity="0.85"/>
  <polyline points="90.0,547.1 212.0,541.9 334.0,548.9 456.0,569.1 578.0,569.8 700.0,568.6" fill="none" stroke="#f97316" stroke-width="1.6" stroke-dasharray="2,5" opacity="0.85"/>
  <polyline points="90.0,470.0 212.0,490.5 334.0,501.2 456.0,508.4 578.0,497.9 700.0,482.7" fill="none" stroke="#16a34a" stroke-width="1.6" stroke-dasharray="2,5" opacity="0.85"/>
  <polyline points="90.0,509.4 212.0,513.1 334.0,517.7 456.0,518.7 578.0,521.3 700.0,530.2" fill="none" stroke="#2563eb" stroke-width="1.6" stroke-dasharray="2,5" opacity="0.85"/>
  <polyline points="90.0,566.8 212.0,565.8 334.0,568.9 456.0,582.6 578.0,611.2 700.0,630.6" fill="none" stroke="#15803d" stroke-width="2.0" stroke-dasharray="5,3"/>
  <polyline points="90.0,417.3 212.0,506.1 334.0,579.1 456.0,620.6 578.0,634.0 700.0,637.6" fill="none" stroke="#eab308" stroke-width="2.0" stroke-dasharray="5,3"/>
  <polyline points="90.0,470.1 212.0,495.8 334.0,542.2 456.0,598.0 578.0,627.7 700.0,635.7" fill="none" stroke="#a16207" stroke-width="2.0" stroke-dasharray="5,3"/>
  <polyline points="90.0,486.8 212.0,494.7 334.0,533.5 456.0,563.2 578.0,600.9 700.0,628.6" fill="none" stroke="#dc2626" stroke-width="2.0" stroke-dasharray="5,3"/>
  <polyline points="90.0,412.9 212.0,443.8 334.0,499.3 456.0,579.4 578.0,610.1 700.0,630.4" fill="none" stroke="#f97316" stroke-width="2.0" stroke-dasharray="5,3"/>
  <polyline points="90.0,585.9 212.0,584.8 334.0,589.6 456.0,598.1 578.0,616.1 700.0,631.1" fill="none" stroke="#16a34a" stroke-width="2.0" stroke-dasharray="5,3"/>
  <polyline points="90.0,633.1 212.0,634.2 334.0,634.9 456.0,635.2 578.0,635.7 700.0,636.6" fill="none" stroke="#2563eb" stroke-width="2.0" stroke-dasharray="5,3"/>
  <polyline points="90.0,637.5 212.0,632.8 334.0,615.1 456.0,562.1 578.0,487.2 700.0,455.1" fill="none" stroke="#15803d" stroke-width="2.0" stroke-linecap="round" stroke-linejoin="round"/>
  <circle cx="90.0" cy="637.5" r="2.2" fill="#15803d" stroke="white" stroke-width="1"/>
  <circle cx="212.0" cy="632.8" r="2.2" fill="#15803d" stroke="white" stroke-width="1"/>
  <circle cx="334.0" cy="615.1" r="2.2" fill="#15803d" stroke="white" stroke-width="1"/>
  <circle cx="456.0" cy="562.1" r="2.2" fill="#15803d" stroke="white" stroke-width="1"/>
  <circle cx="578.0" cy="487.2" r="2.2" fill="#15803d" stroke="white" stroke-width="1"/>
  <circle cx="700.0" cy="455.1" r="2.2" fill="#15803d" stroke="white" stroke-width="1"/>
  <polyline points="90.0,634.3 212.0,627.7 334.0,618.6 456.0,613.8 578.0,611.9 700.0,608.5" fill="none" stroke="#eab308" stroke-width="2.0" stroke-linecap="round" stroke-linejoin="round"/>
  <circle cx="90.0" cy="634.3" r="2.2" fill="#eab308" stroke="white" stroke-width="1"/>
  <circle cx="212.0" cy="627.7" r="2.2" fill="#eab308" stroke="white" stroke-width="1"/>
  <circle cx="334.0" cy="618.6" r="2.2" fill="#eab308" stroke="white" stroke-width="1"/>
  <circle cx="456.0" cy="613.8" r="2.2" fill="#eab308" stroke="white" stroke-width="1"/>
  <circle cx="578.0" cy="611.9" r="2.2" fill="#eab308" stroke="white" stroke-width="1"/>
  <circle cx="700.0" cy="608.5" r="2.2" fill="#eab308" stroke="white" stroke-width="1"/>
  <polyline points="90.0,635.4 212.0,626.8 334.0,606.0 456.0,583.1 578.0,577.4 700.0,566.7" fill="none" stroke="#a16207" stroke-width="2.0" stroke-linecap="round" stroke-linejoin="round"/>
  <circle cx="90.0" cy="635.4" r="2.2" fill="#a16207" stroke="white" stroke-width="1"/>
  <circle cx="212.0" cy="626.8" r="2.2" fill="#a16207" stroke="white" stroke-width="1"/>
  <circle cx="334.0" cy="606.0" r="2.2" fill="#a16207" stroke="white" stroke-width="1"/>
  <circle cx="456.0" cy="583.1" r="2.2" fill="#a16207" stroke="white" stroke-width="1"/>
  <circle cx="578.0" cy="577.4" r="2.2" fill="#a16207" stroke="white" stroke-width="1"/>
  <circle cx="700.0" cy="566.7" r="2.2" fill="#a16207" stroke="white" stroke-width="1"/>
  <polyline points="90.0,635.8 212.0,626.7 334.0,603.0 456.0,535.5 578.0,430.8 700.0,412.9" fill="none" stroke="#dc2626" stroke-width="2.0" stroke-linecap="round" stroke-linejoin="round"/>
  <circle cx="90.0" cy="635.8" r="2.2" fill="#dc2626" stroke="white" stroke-width="1"/>
  <circle cx="212.0" cy="626.7" r="2.2" fill="#dc2626" stroke="white" stroke-width="1"/>
  <circle cx="334.0" cy="603.0" r="2.2" fill="#dc2626" stroke="white" stroke-width="1"/>
  <circle cx="456.0" cy="535.5" r="2.2" fill="#dc2626" stroke="white" stroke-width="1"/>
  <circle cx="578.0" cy="430.8" r="2.2" fill="#dc2626" stroke="white" stroke-width="1"/>
  <circle cx="700.0" cy="412.9" r="2.2" fill="#dc2626" stroke="white" stroke-width="1"/>
  <polyline points="90.0,634.2 212.0,622.3 334.0,591.4 456.0,557.6 578.0,481.2 700.0,450.4" fill="none" stroke="#f97316" stroke-width="2.0" stroke-linecap="round" stroke-linejoin="round"/>
  <circle cx="90.0" cy="634.2" r="2.2" fill="#f97316" stroke="white" stroke-width="1"/>
  <circle cx="212.0" cy="622.3" r="2.2" fill="#f97316" stroke="white" stroke-width="1"/>
  <circle cx="334.0" cy="591.4" r="2.2" fill="#f97316" stroke="white" stroke-width="1"/>
  <circle cx="456.0" cy="557.6" r="2.2" fill="#f97316" stroke="white" stroke-width="1"/>
  <circle cx="578.0" cy="481.2" r="2.2" fill="#f97316" stroke="white" stroke-width="1"/>
  <circle cx="700.0" cy="450.4" r="2.2" fill="#f97316" stroke="white" stroke-width="1"/>
  <polyline points="90.0,637.9 212.0,634.4 334.0,622.1 456.0,583.2 578.0,514.2 700.0,465.6" fill="none" stroke="#16a34a" stroke-width="2.0" stroke-linecap="round" stroke-linejoin="round"/>
  <circle cx="90.0" cy="637.9" r="2.2" fill="#16a34a" stroke="white" stroke-width="1"/>
  <circle cx="212.0" cy="634.4" r="2.2" fill="#16a34a" stroke="white" stroke-width="1"/>
  <circle cx="334.0" cy="622.1" r="2.2" fill="#16a34a" stroke="white" stroke-width="1"/>
  <circle cx="456.0" cy="583.2" r="2.2" fill="#16a34a" stroke="white" stroke-width="1"/>
  <circle cx="578.0" cy="514.2" r="2.2" fill="#16a34a" stroke="white" stroke-width="1"/>
  <circle cx="700.0" cy="465.6" r="2.2" fill="#16a34a" stroke="white" stroke-width="1"/>
  <polyline points="90.0,638.9 212.0,638.6 334.0,637.6 456.0,633.8 578.0,621.0 700.0,586.7" fill="none" stroke="#2563eb" stroke-width="2.0" stroke-linecap="round" stroke-linejoin="round"/>
  <circle cx="90.0" cy="638.9" r="2.2" fill="#2563eb" stroke="white" stroke-width="1"/>
  <circle cx="212.0" cy="638.6" r="2.2" fill="#2563eb" stroke="white" stroke-width="1"/>
  <circle cx="334.0" cy="637.6" r="2.2" fill="#2563eb" stroke="white" stroke-width="1"/>
  <circle cx="456.0" cy="633.8" r="2.2" fill="#2563eb" stroke="white" stroke-width="1"/>
  <circle cx="578.0" cy="621.0" r="2.2" fill="#2563eb" stroke="white" stroke-width="1"/>
  <circle cx="700.0" cy="586.7" r="2.2" fill="#2563eb" stroke="white" stroke-width="1"/>
  <text x="90.0" y="653.0" text-anchor="middle" fill="#374151" font-size="8.5">16 B</text>
  <text x="212.0" y="653.0" text-anchor="middle" fill="#374151" font-size="8.5">64 B</text>
  <text x="334.0" y="653.0" text-anchor="middle" fill="#374151" font-size="8.5">256 B</text>
  <text x="456.0" y="653.0" text-anchor="middle" fill="#374151" font-size="8.5">1 KiB</text>
  <text x="578.0" y="653.0" text-anchor="middle" fill="#374151" font-size="8.5">4 KiB</text>
  <text x="700.0" y="653.0" text-anchor="middle" fill="#374151" font-size="8.5">16 KiB</text>
  <text x="395.0" y="692.0" text-anchor="middle" fill="#111827" font-size="13" font-weight="700">PUB/SUB throughput, 32 subscribers: TCP loopback</text>
  <line x1="90.0" y1="936.5" x2="700.0" y2="936.5" stroke="#e5e7eb" stroke-width="1"/>
  <text x="82.0" y="936.5" text-anchor="end" dominant-baseline="middle" fill="#374151" font-size="10">100%</text>
  <line x1="90.0" y1="904.0" x2="700.0" y2="904.0" stroke="#e5e7eb" stroke-width="1"/>
  <text x="82.0" y="904.0" text-anchor="end" dominant-baseline="middle" fill="#374151" font-size="10">200%</text>
  <line x1="90.0" y1="871.5" x2="700.0" y2="871.5" stroke="#e5e7eb" stroke-width="1"/>
  <text x="82.0" y="871.5" text-anchor="end" dominant-baseline="middle" fill="#374151" font-size="10">300%</text>
  <line x1="90.0" y1="839.0" x2="700.0" y2="839.0" stroke="#e5e7eb" stroke-width="1"/>
  <text x="82.0" y="839.0" text-anchor="end" dominant-baseline="middle" fill="#374151" font-size="10">400%</text>
  <line x1="90.0" y1="806.5" x2="700.0" y2="806.5" stroke="#e5e7eb" stroke-width="1"/>
  <text x="82.0" y="806.5" text-anchor="end" dominant-baseline="middle" fill="#374151" font-size="10">500%</text>
  <line x1="90.0" y1="774.0" x2="700.0" y2="774.0" stroke="#e5e7eb" stroke-width="1"/>
  <text x="82.0" y="774.0" text-anchor="end" dominant-baseline="middle" fill="#374151" font-size="10">600%</text>
  <line x1="90.0" y1="741.5" x2="700.0" y2="741.5" stroke="#e5e7eb" stroke-width="1"/>
  <text x="82.0" y="741.5" text-anchor="end" dominant-baseline="middle" fill="#374151" font-size="10">700%</text>
  <line x1="90.0" y1="709.0" x2="700.0" y2="709.0" stroke="#e5e7eb" stroke-width="1"/>
  <text x="82.0" y="709.0" text-anchor="end" dominant-baseline="middle" fill="#374151" font-size="10">800%</text>
  <line x1="90.0" y1="922.9" x2="700.0" y2="922.9" stroke="#e5e7eb" stroke-width="1" stroke-dasharray="3,6"/>
  <text x="708.0" y="922.9" text-anchor="start" dominant-baseline="middle" fill="#6b7280" font-size="10">2 GB/s</text>
  <line x1="90.0" y1="876.7" x2="700.0" y2="876.7" stroke="#e5e7eb" stroke-width="1" stroke-dasharray="3,6"/>
  <text x="708.0" y="876.7" text-anchor="start" dominant-baseline="middle" fill="#6b7280" font-size="10">4 GB/s</text>
  <line x1="90.0" y1="830.6" x2="700.0" y2="830.6" stroke="#e5e7eb" stroke-width="1" stroke-dasharray="3,6"/>
  <text x="708.0" y="830.6" text-anchor="start" dominant-baseline="middle" fill="#6b7280" font-size="10">6 GB/s</text>
  <line x1="90.0" y1="784.5" x2="700.0" y2="784.5" stroke="#e5e7eb" stroke-width="1" stroke-dasharray="3,6"/>
  <text x="708.0" y="784.5" text-anchor="start" dominant-baseline="middle" fill="#6b7280" font-size="10">8 GB/s</text>
  <line x1="90.0" y1="738.4" x2="700.0" y2="738.4" stroke="#e5e7eb" stroke-width="1" stroke-dasharray="3,6"/>
  <text x="708.0" y="738.4" text-anchor="start" dominant-baseline="middle" fill="#6b7280" font-size="10">10 GB/s</text>
  <text x="788.0" y="927.2" text-anchor="start" dominant-baseline="middle" fill="#9ca3af" font-size="10">100k/s</text>
  <text x="788.0" y="885.4" text-anchor="start" dominant-baseline="middle" fill="#9ca3af" font-size="10">200k/s</text>
  <text x="788.0" y="843.6" text-anchor="start" dominant-baseline="middle" fill="#9ca3af" font-size="10">300k/s</text>
  <text x="788.0" y="801.9" text-anchor="start" dominant-baseline="middle" fill="#9ca3af" font-size="10">400k/s</text>
  <text x="788.0" y="760.1" text-anchor="start" dominant-baseline="middle" fill="#9ca3af" font-size="10">500k/s</text>
  <text x="788.0" y="718.3" text-anchor="start" dominant-baseline="middle" fill="#9ca3af" font-size="10">600k/s</text>
  <line x1="90.0" y1="709.0" x2="90.0" y2="969.0" stroke="#e5e7eb" stroke-width="1"/>
  <line x1="212.0" y1="709.0" x2="212.0" y2="969.0" stroke="#e5e7eb" stroke-width="1"/>
  <line x1="334.0" y1="709.0" x2="334.0" y2="969.0" stroke="#e5e7eb" stroke-width="1"/>
  <line x1="456.0" y1="709.0" x2="456.0" y2="969.0" stroke="#e5e7eb" stroke-width="1"/>
  <line x1="578.0" y1="709.0" x2="578.0" y2="969.0" stroke="#e5e7eb" stroke-width="1"/>
  <line x1="700.0" y1="709.0" x2="700.0" y2="969.0" stroke="#e5e7eb" stroke-width="1"/>
  <line x1="90.0" y1="709.0" x2="90.0" y2="969.0" stroke="#9ca3af" stroke-width="1.5"/>
  <line x1="700.0" y1="709.0" x2="700.0" y2="969.0" stroke="#9ca3af" stroke-width="1.5"/>
  <line x1="90.0" y1="969.0" x2="700.0" y2="969.0" stroke="#9ca3af" stroke-width="1.5"/>
  <line x1="780.0" y1="709.0" x2="780.0" y2="969.0" stroke="#d1d5db" stroke-width="1"/>
  <text x="40.0" y="839.0" text-anchor="middle" fill="#374151" font-size="10" font-weight="600" transform="rotate(-90,40.0,839.0)">CPU %</text>
  <polyline points="90.0,768.7 212.0,770.0 334.0,771.7 456.0,782.9 578.0,801.2 700.0,837.6" fill="none" stroke="#15803d" stroke-width="1.6" stroke-dasharray="2,5" opacity="0.85"/>
  <polyline points="90.0,809.8 212.0,810.2 334.0,810.4 456.0,805.3 578.0,810.1 700.0,824.9" fill="none" stroke="#eab308" stroke-width="1.6" stroke-dasharray="2,5" opacity="0.85"/>
  <polyline points="90.0,784.7 212.0,779.6 334.0,788.8 456.0,787.4 578.0,782.0 700.0,777.7" fill="none" stroke="#a16207" stroke-width="1.6" stroke-dasharray="2,5" opacity="0.85"/>
  <polyline points="90.0,775.7 212.0,778.6 334.0,778.1 456.0,779.5 578.0,781.6 700.0,770.5" fill="none" stroke="#dc2626" stroke-width="1.6" stroke-dasharray="2,5" opacity="0.85"/>
  <polyline points="90.0,829.1 212.0,831.9 334.0,870.9 456.0,878.8 578.0,887.0 700.0,895.2" fill="none" stroke="#f97316" stroke-width="1.6" stroke-dasharray="2,5" opacity="0.85"/>
  <polyline points="90.0,764.5 212.0,774.8 334.0,788.9 456.0,793.6 578.0,789.2 700.0,786.1" fill="none" stroke="#16a34a" stroke-width="1.6" stroke-dasharray="2,5" opacity="0.85"/>
  <polyline points="90.0,821.0 212.0,815.4 334.0,818.4 456.0,822.2 578.0,821.2 700.0,835.0" fill="none" stroke="#2563eb" stroke-width="1.6" stroke-dasharray="2,5" opacity="0.85"/>
  <polyline points="90.0,934.2 212.0,929.7 334.0,931.8 456.0,938.4 578.0,953.0 700.0,964.1" fill="none" stroke="#15803d" stroke-width="2.0" stroke-dasharray="5,3"/>
  <polyline points="90.0,843.9 212.0,890.1 334.0,937.2 456.0,959.4 578.0,966.6 700.0,968.2" fill="none" stroke="#eab308" stroke-width="2.0" stroke-dasharray="5,3"/>
  <polyline points="90.0,860.4 212.0,879.2 334.0,923.8 456.0,953.5 578.0,964.8 700.0,967.8" fill="none" stroke="#a16207" stroke-width="2.0" stroke-dasharray="5,3"/>
  <polyline points="90.0,742.9 212.0,780.7 334.0,877.2 456.0,902.9 578.0,941.6 700.0,961.2" fill="none" stroke="#dc2626" stroke-width="2.0" stroke-dasharray="5,3"/>
  <polyline points="90.0,852.8 212.0,874.7 334.0,920.3 456.0,933.3 578.0,952.5 700.0,963.7" fill="none" stroke="#f97316" stroke-width="2.0" stroke-dasharray="5,3"/>
  <polyline points="90.0,940.3 212.0,942.3 334.0,946.4 456.0,948.3 578.0,957.4 700.0,964.5" fill="none" stroke="#16a34a" stroke-width="2.0" stroke-dasharray="5,3"/>
  <polyline points="90.0,965.8 212.0,965.6 334.0,965.9 456.0,966.7 578.0,967.1 700.0,967.6" fill="none" stroke="#2563eb" stroke-width="2.0" stroke-dasharray="5,3"/>
  <polyline points="90.0,968.0 212.0,964.6 334.0,952.2 456.0,913.7 578.0,853.3 700.0,828.0" fill="none" stroke="#15803d" stroke-width="2.0" stroke-linecap="round" stroke-linejoin="round"/>
  <circle cx="90.0" cy="968.0" r="2.2" fill="#15803d" stroke="white" stroke-width="1"/>
  <circle cx="212.0" cy="964.6" r="2.2" fill="#15803d" stroke="white" stroke-width="1"/>
  <circle cx="334.0" cy="952.2" r="2.2" fill="#15803d" stroke="white" stroke-width="1"/>
  <circle cx="456.0" cy="913.7" r="2.2" fill="#15803d" stroke="white" stroke-width="1"/>
  <circle cx="578.0" cy="853.3" r="2.2" fill="#15803d" stroke="white" stroke-width="1"/>
  <circle cx="700.0" cy="828.0" r="2.2" fill="#15803d" stroke="white" stroke-width="1"/>
  <polyline points="90.0,965.5 212.0,960.1 334.0,954.6 456.0,951.6 578.0,951.3 700.0,947.0" fill="none" stroke="#eab308" stroke-width="2.0" stroke-linecap="round" stroke-linejoin="round"/>
  <circle cx="90.0" cy="965.5" r="2.2" fill="#eab308" stroke="white" stroke-width="1"/>
  <circle cx="212.0" cy="960.1" r="2.2" fill="#eab308" stroke="white" stroke-width="1"/>
  <circle cx="334.0" cy="954.6" r="2.2" fill="#eab308" stroke="white" stroke-width="1"/>
  <circle cx="456.0" cy="951.6" r="2.2" fill="#eab308" stroke="white" stroke-width="1"/>
  <circle cx="578.0" cy="951.3" r="2.2" fill="#eab308" stroke="white" stroke-width="1"/>
  <circle cx="700.0" cy="947.0" r="2.2" fill="#eab308" stroke="white" stroke-width="1"/>
  <polyline points="90.0,965.9 212.0,958.8 334.0,948.6 456.0,941.0 578.0,938.8 700.0,933.1" fill="none" stroke="#a16207" stroke-width="2.0" stroke-linecap="round" stroke-linejoin="round"/>
  <circle cx="90.0" cy="965.9" r="2.2" fill="#a16207" stroke="white" stroke-width="1"/>
  <circle cx="212.0" cy="958.8" r="2.2" fill="#a16207" stroke="white" stroke-width="1"/>
  <circle cx="334.0" cy="948.6" r="2.2" fill="#a16207" stroke="white" stroke-width="1"/>
  <circle cx="456.0" cy="941.0" r="2.2" fill="#a16207" stroke="white" stroke-width="1"/>
  <circle cx="578.0" cy="938.8" r="2.2" fill="#a16207" stroke="white" stroke-width="1"/>
  <circle cx="700.0" cy="933.1" r="2.2" fill="#a16207" stroke="white" stroke-width="1"/>
  <polyline points="90.0,962.6 212.0,947.7 334.0,927.5 456.0,849.5 578.0,770.8 700.0,742.9" fill="none" stroke="#dc2626" stroke-width="2.0" stroke-linecap="round" stroke-linejoin="round"/>
  <circle cx="90.0" cy="962.6" r="2.2" fill="#dc2626" stroke="white" stroke-width="1"/>
  <circle cx="212.0" cy="947.7" r="2.2" fill="#dc2626" stroke="white" stroke-width="1"/>
  <circle cx="334.0" cy="927.5" r="2.2" fill="#dc2626" stroke="white" stroke-width="1"/>
  <circle cx="456.0" cy="849.5" r="2.2" fill="#dc2626" stroke="white" stroke-width="1"/>
  <circle cx="578.0" cy="770.8" r="2.2" fill="#dc2626" stroke="white" stroke-width="1"/>
  <circle cx="700.0" cy="742.9" r="2.2" fill="#dc2626" stroke="white" stroke-width="1"/>
  <polyline points="90.0,965.7 212.0,958.3 334.0,947.0 456.0,904.4 578.0,849.4 700.0,815.0" fill="none" stroke="#f97316" stroke-width="2.0" stroke-linecap="round" stroke-linejoin="round"/>
  <circle cx="90.0" cy="965.7" r="2.2" fill="#f97316" stroke="white" stroke-width="1"/>
  <circle cx="212.0" cy="958.3" r="2.2" fill="#f97316" stroke="white" stroke-width="1"/>
  <circle cx="334.0" cy="947.0" r="2.2" fill="#f97316" stroke="white" stroke-width="1"/>
  <circle cx="456.0" cy="904.4" r="2.2" fill="#f97316" stroke="white" stroke-width="1"/>
  <circle cx="578.0" cy="849.4" r="2.2" fill="#f97316" stroke="white" stroke-width="1"/>
  <circle cx="700.0" cy="815.0" r="2.2" fill="#f97316" stroke="white" stroke-width="1"/>
  <polyline points="90.0,968.2 212.0,966.0 334.0,958.8 456.0,931.6 578.0,885.0 700.0,838.6" fill="none" stroke="#16a34a" stroke-width="2.0" stroke-linecap="round" stroke-linejoin="round"/>
  <circle cx="90.0" cy="968.2" r="2.2" fill="#16a34a" stroke="white" stroke-width="1"/>
  <circle cx="212.0" cy="966.0" r="2.2" fill="#16a34a" stroke="white" stroke-width="1"/>
  <circle cx="334.0" cy="958.8" r="2.2" fill="#16a34a" stroke="white" stroke-width="1"/>
  <circle cx="456.0" cy="931.6" r="2.2" fill="#16a34a" stroke="white" stroke-width="1"/>
  <circle cx="578.0" cy="885.0" r="2.2" fill="#16a34a" stroke="white" stroke-width="1"/>
  <circle cx="700.0" cy="838.6" r="2.2" fill="#16a34a" stroke="white" stroke-width="1"/>
  <polyline points="90.0,968.9 212.0,968.6 334.0,967.6 456.0,964.9 578.0,955.0 700.0,927.4" fill="none" stroke="#2563eb" stroke-width="2.0" stroke-linecap="round" stroke-linejoin="round"/>
  <circle cx="90.0" cy="968.9" r="2.2" fill="#2563eb" stroke="white" stroke-width="1"/>
  <circle cx="212.0" cy="968.6" r="2.2" fill="#2563eb" stroke="white" stroke-width="1"/>
  <circle cx="334.0" cy="967.6" r="2.2" fill="#2563eb" stroke="white" stroke-width="1"/>
  <circle cx="456.0" cy="964.9" r="2.2" fill="#2563eb" stroke="white" stroke-width="1"/>
  <circle cx="578.0" cy="955.0" r="2.2" fill="#2563eb" stroke="white" stroke-width="1"/>
  <circle cx="700.0" cy="927.4" r="2.2" fill="#2563eb" stroke="white" stroke-width="1"/>
  <text x="90.0" y="983.0" text-anchor="middle" fill="#374151" font-size="8.5">16 B</text>
  <text x="212.0" y="983.0" text-anchor="middle" fill="#374151" font-size="8.5">64 B</text>
  <text x="334.0" y="983.0" text-anchor="middle" fill="#374151" font-size="8.5">256 B</text>
  <text x="456.0" y="983.0" text-anchor="middle" fill="#374151" font-size="8.5">1 KiB</text>
  <text x="578.0" y="983.0" text-anchor="middle" fill="#374151" font-size="8.5">4 KiB</text>
  <text x="700.0" y="983.0" text-anchor="middle" fill="#374151" font-size="8.5">16 KiB</text>
  <line x1="15" y1="999" x2="29" y2="999" stroke="#eab308" stroke-width="2.5"/>
  <circle cx="22" cy="999" r="2.5" fill="#eab308"/>
  <text x="35" y="1003" fill="#374151" font-size="11" font-weight="500">libzmq v4.3.5</text>
  <line x1="205" y1="999" x2="219" y2="999" stroke="#a16207" stroke-width="2.5"/>
  <circle cx="212" cy="999" r="2.5" fill="#a16207"/>
  <text x="225" y="1003" fill="#374151" font-size="11" font-weight="500">libzmq v4.3.5 (4 IO threads)</text>
  <line x1="395" y1="999" x2="409" y2="999" stroke="#f97316" stroke-width="2.5"/>
  <circle cx="402" cy="999" r="2.5" fill="#f97316"/>
  <text x="415" y="1003" fill="#374151" font-size="11" font-weight="500">omq-tokio (ST)</text>
  <line x1="585" y1="999" x2="599" y2="999" stroke="#dc2626" stroke-width="2.5"/>
  <circle cx="592" cy="999" r="2.5" fill="#dc2626"/>
  <text x="605" y="1003" fill="#374151" font-size="11" font-weight="500">omq-tokio (MT)</text>
  <line x1="110" y1="1019" x2="124" y2="1019" stroke="#2563eb" stroke-width="2.5"/>
  <circle cx="117" cy="1019" r="2.5" fill="#2563eb"/>
  <text x="130" y="1023" fill="#374151" font-size="11" font-weight="500">zmq.rs v0.6.0 (MT)</text>
  <line x1="300" y1="1019" x2="314" y2="1019" stroke="#16a34a" stroke-width="2.5"/>
  <circle cx="307" cy="1019" r="2.5" fill="#16a34a"/>
  <text x="320" y="1023" fill="#374151" font-size="11" font-weight="500">rzmq v0.5.22 (MT)</text>
  <line x1="490" y1="1019" x2="504" y2="1019" stroke="#15803d" stroke-width="2.5"/>
  <circle cx="497" cy="1019" r="2.5" fill="#15803d"/>
  <text x="510" y="1023" fill="#374151" font-size="11" font-weight="500">rzmq v0.5.22 (io_uring, MT)</text>
  <text x="395.0" y="1037" text-anchor="middle" fill="#9ca3af" font-size="9">ST = single-threaded   MT = multi-threaded</text>
  <line x1="145" y1="1059" x2="159" y2="1059" stroke="#6b7280" stroke-width="1.6" stroke-dasharray="2,5" opacity="0.85"/>
  <text x="165" y="1063" fill="#6b7280" font-size="10">CPU % (left)</text>
  <line x1="290" y1="1059" x2="304" y2="1059" stroke="#6b7280" stroke-width="2.0"/>
  <circle cx="297" cy="1059" r="1.8" fill="#6b7280"/>
  <text x="310" y="1063" fill="#6b7280" font-size="10">GB/s (inner right)</text>
  <line x1="455" y1="1059" x2="469" y2="1059" stroke="#6b7280" stroke-width="2.0" stroke-dasharray="5,3"/>
  <text x="475" y="1063" fill="#6b7280" font-size="10">msg/s (outer right)</text>
</svg>
