<svg xmlns="http://www.w3.org/2000/svg" viewBox="0 0 850 665" font-family="system-ui, -apple-system, sans-serif">
  <rect width="850" height="665" fill="white"/>
  <text x="425.0" y="18.0" text-anchor="middle" fill="#111827" font-size="13" font-weight="700">PUSH/PULL throughput — TCP loopback, 2-process (higher is better)</text>
  <line x1="90.0" y1="240.6" x2="760.0" y2="240.6" stroke="#e5e7eb" stroke-width="1"/>
  <text x="82.0" y="240.6" text-anchor="end" dominant-baseline="middle" fill="#374151" font-size="10">2M</text>
  <line x1="90.0" y1="211.2" x2="760.0" y2="211.2" stroke="#e5e7eb" stroke-width="1"/>
  <text x="82.0" y="211.2" text-anchor="end" dominant-baseline="middle" fill="#374151" font-size="10">4M</text>
  <line x1="90.0" y1="181.9" x2="760.0" y2="181.9" stroke="#e5e7eb" stroke-width="1"/>
  <text x="82.0" y="181.9" text-anchor="end" dominant-baseline="middle" fill="#374151" font-size="10">6M</text>
  <line x1="90.0" y1="152.5" x2="760.0" y2="152.5" stroke="#e5e7eb" stroke-width="1"/>
  <text x="82.0" y="152.5" text-anchor="end" dominant-baseline="middle" fill="#374151" font-size="10">8M</text>
  <line x1="90.0" y1="123.1" x2="760.0" y2="123.1" stroke="#e5e7eb" stroke-width="1"/>
  <text x="82.0" y="123.1" text-anchor="end" dominant-baseline="middle" fill="#374151" font-size="10">10M</text>
  <line x1="90.0" y1="93.8" x2="760.0" y2="93.8" stroke="#e5e7eb" stroke-width="1"/>
  <text x="82.0" y="93.8" text-anchor="end" dominant-baseline="middle" fill="#374151" font-size="10">12M</text>
  <line x1="90.0" y1="64.4" x2="760.0" y2="64.4" stroke="#e5e7eb" stroke-width="1"/>
  <text x="82.0" y="64.4" text-anchor="end" dominant-baseline="middle" fill="#374151" font-size="10">14M</text>
  <line x1="90.0" y1="35.0" x2="760.0" y2="35.0" stroke="#e5e7eb" stroke-width="1"/>
  <text x="82.0" y="35.0" text-anchor="end" dominant-baseline="middle" fill="#374151" font-size="10">16M</text>
  <line x1="90.0" y1="230.8" x2="760.0" y2="230.8" stroke="#e5e7eb" stroke-width="1" stroke-dasharray="3,6"/>
  <text x="768.0" y="230.8" text-anchor="start" dominant-baseline="middle" fill="#6b7280" font-size="10">1 GB/s</text>
  <line x1="90.0" y1="191.7" x2="760.0" y2="191.7" stroke="#e5e7eb" stroke-width="1" stroke-dasharray="3,6"/>
  <text x="768.0" y="191.7" text-anchor="start" dominant-baseline="middle" fill="#6b7280" font-size="10">2 GB/s</text>
  <line x1="90.0" y1="152.5" x2="760.0" y2="152.5" stroke="#e5e7eb" stroke-width="1" stroke-dasharray="3,6"/>
  <text x="768.0" y="152.5" text-anchor="start" dominant-baseline="middle" fill="#6b7280" font-size="10">3 GB/s</text>
  <line x1="90.0" y1="113.3" x2="760.0" y2="113.3" stroke="#e5e7eb" stroke-width="1" stroke-dasharray="3,6"/>
  <text x="768.0" y="113.3" text-anchor="start" dominant-baseline="middle" fill="#6b7280" font-size="10">4 GB/s</text>
  <line x1="90.0" y1="74.2" x2="760.0" y2="74.2" stroke="#e5e7eb" stroke-width="1" stroke-dasharray="3,6"/>
  <text x="768.0" y="74.2" text-anchor="start" dominant-baseline="middle" fill="#6b7280" font-size="10">5 GB/s</text>
  <line x1="90.0" y1="35.0" x2="760.0" y2="35.0" stroke="#e5e7eb" stroke-width="1" stroke-dasharray="3,6"/>
  <text x="768.0" y="35.0" text-anchor="start" dominant-baseline="middle" fill="#6b7280" font-size="10">6 GB/s</text>
  <line x1="90.0" y1="35.0" x2="90.0" y2="270.0" stroke="#e5e7eb" stroke-width="1"/>
  <line x1="145.8" y1="35.0" x2="145.8" y2="270.0" stroke="#e5e7eb" stroke-width="1"/>
  <line x1="201.7" y1="35.0" x2="201.7" y2="270.0" stroke="#e5e7eb" stroke-width="1"/>
  <line x1="257.5" y1="35.0" x2="257.5" y2="270.0" stroke="#e5e7eb" stroke-width="1"/>
  <line x1="313.3" y1="35.0" x2="313.3" y2="270.0" stroke="#e5e7eb" stroke-width="1"/>
  <line x1="369.2" y1="35.0" x2="369.2" y2="270.0" stroke="#e5e7eb" stroke-width="1"/>
  <line x1="425.0" y1="35.0" x2="425.0" y2="270.0" stroke="#e5e7eb" stroke-width="1"/>
  <line x1="480.8" y1="35.0" x2="480.8" y2="270.0" stroke="#e5e7eb" stroke-width="1"/>
  <line x1="536.7" y1="35.0" x2="536.7" y2="270.0" stroke="#e5e7eb" stroke-width="1"/>
  <line x1="592.5" y1="35.0" x2="592.5" y2="270.0" stroke="#e5e7eb" stroke-width="1"/>
  <line x1="648.3" y1="35.0" x2="648.3" y2="270.0" stroke="#e5e7eb" stroke-width="1"/>
  <line x1="704.2" y1="35.0" x2="704.2" y2="270.0" stroke="#e5e7eb" stroke-width="1"/>
  <line x1="760.0" y1="35.0" x2="760.0" y2="270.0" stroke="#e5e7eb" stroke-width="1"/>
  <line x1="90.0" y1="35.0" x2="90.0" y2="270.0" stroke="#9ca3af" stroke-width="1.5"/>
  <line x1="760.0" y1="35.0" x2="760.0" y2="270.0" stroke="#9ca3af" stroke-width="1.5"/>
  <line x1="90.0" y1="270.0" x2="760.0" y2="270.0" stroke="#9ca3af" stroke-width="1.5"/>
  <text x="40.0" y="152.5" text-anchor="middle" fill="#374151" font-size="10" font-weight="600" transform="rotate(-90,40.0,152.5)">msg/s</text>
  <polyline points="90.0,264.2 145.8,264.0 201.7,264.7 257.5,264.9 313.3,265.2 369.2,265.3 425.0,265.5 480.8,265.6 536.7,265.9 592.5,266.3 648.3,266.8 704.2,267.0 760.0,268.2" fill="none" stroke="#2563eb" stroke-width="2" stroke-dasharray="6,4"/>
  <polyline points="90.0,152.8 145.8,142.5 201.7,152.4 257.5,185.6 313.3,229.1 369.2,232.5 425.0,242.0 480.8,253.2 536.7,260.5 592.5,265.2 648.3,267.4 704.2,268.7 760.0,269.0" fill="none" stroke="#eab308" stroke-width="2" stroke-dasharray="6,4"/>
  <polyline points="90.0,157.6 145.8,164.3 201.7,168.7 257.5,184.8 313.3,187.7 369.2,195.3 425.0,203.1 480.8,214.0 536.7,237.8 592.5,252.0 648.3,260.6 704.2,265.3 760.0,267.6" fill="none" stroke="#f97316" stroke-width="2" stroke-dasharray="6,4"/>
  <polyline points="90.0,70.5 145.8,78.7 201.7,111.1 257.5,131.2 313.3,166.7 369.2,198.6 425.0,214.9 480.8,230.0 536.7,244.2 592.5,254.0 648.3,261.2 704.2,265.4 760.0,267.6" fill="none" stroke="#dc2626" stroke-width="2" stroke-dasharray="6,4"/>
  <polyline points="90.0,269.9 145.8,269.7 201.7,269.5 257.5,269.1 313.3,268.3 369.2,266.8 425.0,263.9 480.8,257.9 536.7,247.9 592.5,230.1 648.3,200.6 704.2,139.3 760.0,115.0" fill="none" stroke="#2563eb" stroke-width="2.5" stroke-linecap="round" stroke-linejoin="round"/>
  <circle cx="90.0" cy="269.9" r="3" fill="#2563eb" stroke="white" stroke-width="1"/>
  <circle cx="145.8" cy="269.7" r="3" fill="#2563eb" stroke="white" stroke-width="1"/>
  <circle cx="201.7" cy="269.5" r="3" fill="#2563eb" stroke="white" stroke-width="1"/>
  <circle cx="257.5" cy="269.1" r="3" fill="#2563eb" stroke="white" stroke-width="1"/>
  <circle cx="313.3" cy="268.3" r="3" fill="#2563eb" stroke="white" stroke-width="1"/>
  <circle cx="369.2" cy="266.8" r="3" fill="#2563eb" stroke="white" stroke-width="1"/>
  <circle cx="425.0" cy="263.9" r="3" fill="#2563eb" stroke="white" stroke-width="1"/>
  <circle cx="480.8" cy="257.9" r="3" fill="#2563eb" stroke="white" stroke-width="1"/>
  <circle cx="536.7" cy="247.9" r="3" fill="#2563eb" stroke="white" stroke-width="1"/>
  <circle cx="592.5" cy="230.1" r="3" fill="#2563eb" stroke="white" stroke-width="1"/>
  <circle cx="648.3" cy="200.6" r="3" fill="#2563eb" stroke="white" stroke-width="1"/>
  <circle cx="704.2" cy="139.3" r="3" fill="#2563eb" stroke="white" stroke-width="1"/>
  <circle cx="760.0" cy="115.0" r="3" fill="#2563eb" stroke="white" stroke-width="1"/>
  <polyline points="90.0,267.5 145.8,264.6 201.7,260.0 257.5,255.6 313.3,256.0 369.2,244.4 425.0,231.8 480.8,224.2 536.7,217.9 592.5,217.5 648.3,213.7 704.2,211.2 760.0,179.1" fill="none" stroke="#eab308" stroke-width="2.5" stroke-linecap="round" stroke-linejoin="round"/>
  <circle cx="90.0" cy="267.5" r="3" fill="#eab308" stroke="white" stroke-width="1"/>
  <circle cx="145.8" cy="264.6" r="3" fill="#eab308" stroke="white" stroke-width="1"/>
  <circle cx="201.7" cy="260.0" r="3" fill="#eab308" stroke="white" stroke-width="1"/>
  <circle cx="257.5" cy="255.6" r="3" fill="#eab308" stroke="white" stroke-width="1"/>
  <circle cx="313.3" cy="256.0" r="3" fill="#eab308" stroke="white" stroke-width="1"/>
  <circle cx="369.2" cy="244.4" r="3" fill="#eab308" stroke="white" stroke-width="1"/>
  <circle cx="425.0" cy="231.8" r="3" fill="#eab308" stroke="white" stroke-width="1"/>
  <circle cx="480.8" cy="224.2" r="3" fill="#eab308" stroke="white" stroke-width="1"/>
  <circle cx="536.7" cy="217.9" r="3" fill="#eab308" stroke="white" stroke-width="1"/>
  <circle cx="592.5" cy="217.5" r="3" fill="#eab308" stroke="white" stroke-width="1"/>
  <circle cx="648.3" cy="213.7" r="3" fill="#eab308" stroke="white" stroke-width="1"/>
  <circle cx="704.2" cy="211.2" r="3" fill="#eab308" stroke="white" stroke-width="1"/>
  <circle cx="760.0" cy="179.1" r="3" fill="#eab308" stroke="white" stroke-width="1"/>
  <polyline points="90.0,267.6 145.8,265.5 201.7,261.4 257.5,255.5 313.3,241.9 369.2,219.0 425.0,178.7 480.8,117.1 536.7,94.4 592.5,73.6 648.3,65.5 704.2,66.3 760.0,62.9" fill="none" stroke="#f97316" stroke-width="2.5" stroke-linecap="round" stroke-linejoin="round"/>
  <circle cx="90.0" cy="267.6" r="3" fill="#f97316" stroke="white" stroke-width="1"/>
  <circle cx="145.8" cy="265.5" r="3" fill="#f97316" stroke="white" stroke-width="1"/>
  <circle cx="201.7" cy="261.4" r="3" fill="#f97316" stroke="white" stroke-width="1"/>
  <circle cx="257.5" cy="255.5" r="3" fill="#f97316" stroke="white" stroke-width="1"/>
  <circle cx="313.3" cy="241.9" r="3" fill="#f97316" stroke="white" stroke-width="1"/>
  <circle cx="369.2" cy="219.0" r="3" fill="#f97316" stroke="white" stroke-width="1"/>
  <circle cx="425.0" cy="178.7" r="3" fill="#f97316" stroke="white" stroke-width="1"/>
  <circle cx="480.8" cy="117.1" r="3" fill="#f97316" stroke="white" stroke-width="1"/>
  <circle cx="536.7" cy="94.4" r="3" fill="#f97316" stroke="white" stroke-width="1"/>
  <circle cx="592.5" cy="73.6" r="3" fill="#f97316" stroke="white" stroke-width="1"/>
  <circle cx="648.3" cy="65.5" r="3" fill="#f97316" stroke="white" stroke-width="1"/>
  <circle cx="704.2" cy="66.3" r="3" fill="#f97316" stroke="white" stroke-width="1"/>
  <circle cx="760.0" cy="62.9" r="3" fill="#f97316" stroke="white" stroke-width="1"/>
  <polyline points="90.0,265.7 145.8,261.8 201.7,256.4 257.5,246.3 313.3,234.7 369.2,221.3 425.0,194.8 480.8,160.9 536.7,129.2 592.5,95.2 648.3,78.4 704.2,67.1 760.0,61.6" fill="none" stroke="#dc2626" stroke-width="2.5" stroke-linecap="round" stroke-linejoin="round"/>
  <circle cx="90.0" cy="265.7" r="3" fill="#dc2626" stroke="white" stroke-width="1"/>
  <circle cx="145.8" cy="261.8" r="3" fill="#dc2626" stroke="white" stroke-width="1"/>
  <circle cx="201.7" cy="256.4" r="3" fill="#dc2626" stroke="white" stroke-width="1"/>
  <circle cx="257.5" cy="246.3" r="3" fill="#dc2626" stroke="white" stroke-width="1"/>
  <circle cx="313.3" cy="234.7" r="3" fill="#dc2626" stroke="white" stroke-width="1"/>
  <circle cx="369.2" cy="221.3" r="3" fill="#dc2626" stroke="white" stroke-width="1"/>
  <circle cx="425.0" cy="194.8" r="3" fill="#dc2626" stroke="white" stroke-width="1"/>
  <circle cx="480.8" cy="160.9" r="3" fill="#dc2626" stroke="white" stroke-width="1"/>
  <circle cx="536.7" cy="129.2" r="3" fill="#dc2626" stroke="white" stroke-width="1"/>
  <circle cx="592.5" cy="95.2" r="3" fill="#dc2626" stroke="white" stroke-width="1"/>
  <circle cx="648.3" cy="78.4" r="3" fill="#dc2626" stroke="white" stroke-width="1"/>
  <circle cx="704.2" cy="67.1" r="3" fill="#dc2626" stroke="white" stroke-width="1"/>
  <circle cx="760.0" cy="61.6" r="3" fill="#dc2626" stroke="white" stroke-width="1"/>
  <text x="90.0" y="284.0" text-anchor="middle" fill="#374151" font-size="8.5">8 B</text>
  <text x="145.8" y="284.0" text-anchor="middle" fill="#374151" font-size="8.5">16 B</text>
  <text x="201.7" y="284.0" text-anchor="middle" fill="#374151" font-size="8.5">32 B</text>
  <text x="257.5" y="284.0" text-anchor="middle" fill="#374151" font-size="8.5">64 B</text>
  <text x="313.3" y="284.0" text-anchor="middle" fill="#374151" font-size="8.5">128 B</text>
  <text x="369.2" y="284.0" text-anchor="middle" fill="#374151" font-size="8.5">256 B</text>
  <text x="425.0" y="284.0" text-anchor="middle" fill="#374151" font-size="8.5">512 B</text>
  <text x="480.8" y="284.0" text-anchor="middle" fill="#374151" font-size="8.5">1 KiB</text>
  <text x="536.7" y="284.0" text-anchor="middle" fill="#374151" font-size="8.5">2 KiB</text>
  <text x="592.5" y="284.0" text-anchor="middle" fill="#374151" font-size="8.5">4 KiB</text>
  <text x="648.3" y="284.0" text-anchor="middle" fill="#374151" font-size="8.5">8 KiB</text>
  <text x="704.2" y="284.0" text-anchor="middle" fill="#374151" font-size="8.5">16 KiB</text>
  <text x="760.0" y="284.0" text-anchor="middle" fill="#374151" font-size="8.5">32 KiB</text>
  <text x="425.0" y="333.0" text-anchor="middle" fill="#111827" font-size="13" font-weight="700">REQ/REP latency — TCP loopback, 2-process (p50 µs, lower is better)</text>
  <line x1="90.0" y1="502.0" x2="760.0" y2="502.0" stroke="#e5e7eb" stroke-width="1"/>
  <text x="82.0" y="502.0" text-anchor="end" dominant-baseline="middle" fill="#374151" font-size="10">20</text>
  <line x1="90.0" y1="464.0" x2="760.0" y2="464.0" stroke="#e5e7eb" stroke-width="1"/>
  <text x="82.0" y="464.0" text-anchor="end" dominant-baseline="middle" fill="#374151" font-size="10">40</text>
  <line x1="90.0" y1="426.0" x2="760.0" y2="426.0" stroke="#e5e7eb" stroke-width="1"/>
  <text x="82.0" y="426.0" text-anchor="end" dominant-baseline="middle" fill="#374151" font-size="10">60</text>
  <line x1="90.0" y1="388.0" x2="760.0" y2="388.0" stroke="#e5e7eb" stroke-width="1"/>
  <text x="82.0" y="388.0" text-anchor="end" dominant-baseline="middle" fill="#374151" font-size="10">80</text>
  <line x1="90.0" y1="350.0" x2="760.0" y2="350.0" stroke="#e5e7eb" stroke-width="1"/>
  <text x="82.0" y="350.0" text-anchor="end" dominant-baseline="middle" fill="#374151" font-size="10">100</text>
  <line x1="90.0" y1="350.0" x2="90.0" y2="540.0" stroke="#e5e7eb" stroke-width="1"/>
  <line x1="145.8" y1="350.0" x2="145.8" y2="540.0" stroke="#e5e7eb" stroke-width="1"/>
  <line x1="201.7" y1="350.0" x2="201.7" y2="540.0" stroke="#e5e7eb" stroke-width="1"/>
  <line x1="257.5" y1="350.0" x2="257.5" y2="540.0" stroke="#e5e7eb" stroke-width="1"/>
  <line x1="313.3" y1="350.0" x2="313.3" y2="540.0" stroke="#e5e7eb" stroke-width="1"/>
  <line x1="369.2" y1="350.0" x2="369.2" y2="540.0" stroke="#e5e7eb" stroke-width="1"/>
  <line x1="425.0" y1="350.0" x2="425.0" y2="540.0" stroke="#e5e7eb" stroke-width="1"/>
  <line x1="480.8" y1="350.0" x2="480.8" y2="540.0" stroke="#e5e7eb" stroke-width="1"/>
  <line x1="536.7" y1="350.0" x2="536.7" y2="540.0" stroke="#e5e7eb" stroke-width="1"/>
  <line x1="592.5" y1="350.0" x2="592.5" y2="540.0" stroke="#e5e7eb" stroke-width="1"/>
  <line x1="648.3" y1="350.0" x2="648.3" y2="540.0" stroke="#e5e7eb" stroke-width="1"/>
  <line x1="704.2" y1="350.0" x2="704.2" y2="540.0" stroke="#e5e7eb" stroke-width="1"/>
  <line x1="760.0" y1="350.0" x2="760.0" y2="540.0" stroke="#e5e7eb" stroke-width="1"/>
  <line x1="90.0" y1="350.0" x2="90.0" y2="540.0" stroke="#9ca3af" stroke-width="1.5"/>
  <line x1="90.0" y1="540.0" x2="760.0" y2="540.0" stroke="#9ca3af" stroke-width="1.5"/>
  <text x="40.0" y="445.0" text-anchor="middle" fill="#374151" font-size="10" font-weight="600" transform="rotate(-90,40.0,445.0)">p50 latency (µs)</text>
  <polyline points="90.0,402.0 145.8,398.1 201.7,402.1 257.5,406.5 313.3,405.4 369.2,396.7 425.0,417.0 480.8,405.7 536.7,397.3 592.5,401.8 648.3,380.8 704.2,374.1 760.0,355.5" fill="none" stroke="#eab308" stroke-width="2.5" stroke-linecap="round" stroke-linejoin="round"/>
  <circle cx="90.0" cy="402.0" r="3" fill="#eab308" stroke="white" stroke-width="1"/>
  <circle cx="145.8" cy="398.1" r="3" fill="#eab308" stroke="white" stroke-width="1"/>
  <circle cx="201.7" cy="402.1" r="3" fill="#eab308" stroke="white" stroke-width="1"/>
  <circle cx="257.5" cy="406.5" r="3" fill="#eab308" stroke="white" stroke-width="1"/>
  <circle cx="313.3" cy="405.4" r="3" fill="#eab308" stroke="white" stroke-width="1"/>
  <circle cx="369.2" cy="396.7" r="3" fill="#eab308" stroke="white" stroke-width="1"/>
  <circle cx="425.0" cy="417.0" r="3" fill="#eab308" stroke="white" stroke-width="1"/>
  <circle cx="480.8" cy="405.7" r="3" fill="#eab308" stroke="white" stroke-width="1"/>
  <circle cx="536.7" cy="397.3" r="3" fill="#eab308" stroke="white" stroke-width="1"/>
  <circle cx="592.5" cy="401.8" r="3" fill="#eab308" stroke="white" stroke-width="1"/>
  <circle cx="648.3" cy="380.8" r="3" fill="#eab308" stroke="white" stroke-width="1"/>
  <circle cx="704.2" cy="374.1" r="3" fill="#eab308" stroke="white" stroke-width="1"/>
  <circle cx="760.0" cy="355.5" r="3" fill="#eab308" stroke="white" stroke-width="1"/>
  <polyline points="90.0,445.4 145.8,461.0 201.7,456.5 257.5,449.6 313.3,455.6 369.2,458.2 425.0,455.9 480.8,449.5 536.7,457.3 592.5,444.7 648.3,442.1 704.2,428.7 760.0,433.3" fill="none" stroke="#f97316" stroke-width="2.5" stroke-linecap="round" stroke-linejoin="round"/>
  <circle cx="90.0" cy="445.4" r="3" fill="#f97316" stroke="white" stroke-width="1"/>
  <circle cx="145.8" cy="461.0" r="3" fill="#f97316" stroke="white" stroke-width="1"/>
  <circle cx="201.7" cy="456.5" r="3" fill="#f97316" stroke="white" stroke-width="1"/>
  <circle cx="257.5" cy="449.6" r="3" fill="#f97316" stroke="white" stroke-width="1"/>
  <circle cx="313.3" cy="455.6" r="3" fill="#f97316" stroke="white" stroke-width="1"/>
  <circle cx="369.2" cy="458.2" r="3" fill="#f97316" stroke="white" stroke-width="1"/>
  <circle cx="425.0" cy="455.9" r="3" fill="#f97316" stroke="white" stroke-width="1"/>
  <circle cx="480.8" cy="449.5" r="3" fill="#f97316" stroke="white" stroke-width="1"/>
  <circle cx="536.7" cy="457.3" r="3" fill="#f97316" stroke="white" stroke-width="1"/>
  <circle cx="592.5" cy="444.7" r="3" fill="#f97316" stroke="white" stroke-width="1"/>
  <circle cx="648.3" cy="442.1" r="3" fill="#f97316" stroke="white" stroke-width="1"/>
  <circle cx="704.2" cy="428.7" r="3" fill="#f97316" stroke="white" stroke-width="1"/>
  <circle cx="760.0" cy="433.3" r="3" fill="#f97316" stroke="white" stroke-width="1"/>
  <polyline points="90.0,462.6 145.8,458.1 201.7,460.0 257.5,463.3 313.3,461.8 369.2,459.7 425.0,465.6 480.8,462.0 536.7,458.4 592.5,457.6 648.3,450.1 704.2,440.7 760.0,426.4" fill="none" stroke="#2563eb" stroke-width="2.5" stroke-linecap="round" stroke-linejoin="round"/>
  <circle cx="90.0" cy="462.6" r="3" fill="#2563eb" stroke="white" stroke-width="1"/>
  <circle cx="145.8" cy="458.1" r="3" fill="#2563eb" stroke="white" stroke-width="1"/>
  <circle cx="201.7" cy="460.0" r="3" fill="#2563eb" stroke="white" stroke-width="1"/>
  <circle cx="257.5" cy="463.3" r="3" fill="#2563eb" stroke="white" stroke-width="1"/>
  <circle cx="313.3" cy="461.8" r="3" fill="#2563eb" stroke="white" stroke-width="1"/>
  <circle cx="369.2" cy="459.7" r="3" fill="#2563eb" stroke="white" stroke-width="1"/>
  <circle cx="425.0" cy="465.6" r="3" fill="#2563eb" stroke="white" stroke-width="1"/>
  <circle cx="480.8" cy="462.0" r="3" fill="#2563eb" stroke="white" stroke-width="1"/>
  <circle cx="536.7" cy="458.4" r="3" fill="#2563eb" stroke="white" stroke-width="1"/>
  <circle cx="592.5" cy="457.6" r="3" fill="#2563eb" stroke="white" stroke-width="1"/>
  <circle cx="648.3" cy="450.1" r="3" fill="#2563eb" stroke="white" stroke-width="1"/>
  <circle cx="704.2" cy="440.7" r="3" fill="#2563eb" stroke="white" stroke-width="1"/>
  <circle cx="760.0" cy="426.4" r="3" fill="#2563eb" stroke="white" stroke-width="1"/>
  <polyline points="90.0,466.2 145.8,466.5 201.7,473.4 257.5,470.7 313.3,468.4 369.2,468.0 425.0,474.0 480.8,469.1 536.7,469.4 592.5,462.1 648.3,466.6 704.2,457.2 760.0,444.4" fill="none" stroke="#dc2626" stroke-width="2.5" stroke-linecap="round" stroke-linejoin="round"/>
  <circle cx="90.0" cy="466.2" r="3" fill="#dc2626" stroke="white" stroke-width="1"/>
  <circle cx="145.8" cy="466.5" r="3" fill="#dc2626" stroke="white" stroke-width="1"/>
  <circle cx="201.7" cy="473.4" r="3" fill="#dc2626" stroke="white" stroke-width="1"/>
  <circle cx="257.5" cy="470.7" r="3" fill="#dc2626" stroke="white" stroke-width="1"/>
  <circle cx="313.3" cy="468.4" r="3" fill="#dc2626" stroke="white" stroke-width="1"/>
  <circle cx="369.2" cy="468.0" r="3" fill="#dc2626" stroke="white" stroke-width="1"/>
  <circle cx="425.0" cy="474.0" r="3" fill="#dc2626" stroke="white" stroke-width="1"/>
  <circle cx="480.8" cy="469.1" r="3" fill="#dc2626" stroke="white" stroke-width="1"/>
  <circle cx="536.7" cy="469.4" r="3" fill="#dc2626" stroke="white" stroke-width="1"/>
  <circle cx="592.5" cy="462.1" r="3" fill="#dc2626" stroke="white" stroke-width="1"/>
  <circle cx="648.3" cy="466.6" r="3" fill="#dc2626" stroke="white" stroke-width="1"/>
  <circle cx="704.2" cy="457.2" r="3" fill="#dc2626" stroke="white" stroke-width="1"/>
  <circle cx="760.0" cy="444.4" r="3" fill="#dc2626" stroke="white" stroke-width="1"/>
  <text x="90.0" y="554.0" text-anchor="middle" fill="#374151" font-size="8.5">8 B</text>
  <text x="145.8" y="554.0" text-anchor="middle" fill="#374151" font-size="8.5">16 B</text>
  <text x="201.7" y="554.0" text-anchor="middle" fill="#374151" font-size="8.5">32 B</text>
  <text x="257.5" y="554.0" text-anchor="middle" fill="#374151" font-size="8.5">64 B</text>
  <text x="313.3" y="554.0" text-anchor="middle" fill="#374151" font-size="8.5">128 B</text>
  <text x="369.2" y="554.0" text-anchor="middle" fill="#374151" font-size="8.5">256 B</text>
  <text x="425.0" y="554.0" text-anchor="middle" fill="#374151" font-size="8.5">512 B</text>
  <text x="480.8" y="554.0" text-anchor="middle" fill="#374151" font-size="8.5">1 KiB</text>
  <text x="536.7" y="554.0" text-anchor="middle" fill="#374151" font-size="8.5">2 KiB</text>
  <text x="592.5" y="554.0" text-anchor="middle" fill="#374151" font-size="8.5">4 KiB</text>
  <text x="648.3" y="554.0" text-anchor="middle" fill="#374151" font-size="8.5">8 KiB</text>
  <text x="704.2" y="554.0" text-anchor="middle" fill="#374151" font-size="8.5">16 KiB</text>
  <text x="760.0" y="554.0" text-anchor="middle" fill="#374151" font-size="8.5">32 KiB</text>
  <line x1="145" y1="600" x2="159" y2="600" stroke="#eab308" stroke-width="2.5"/>
  <circle cx="152" cy="600" r="2.5" fill="#eab308"/>
  <text x="165" y="604" fill="#374151" font-size="11" font-weight="500">libzmq v4.3.5</text>
  <line x1="285" y1="600" x2="299" y2="600" stroke="#dc2626" stroke-width="2.5"/>
  <circle cx="292" cy="600" r="2.5" fill="#dc2626"/>
  <text x="305" y="604" fill="#374151" font-size="11" font-weight="500">omq-compio (MT)</text>
  <line x1="425" y1="600" x2="439" y2="600" stroke="#f97316" stroke-width="2.5"/>
  <circle cx="432" cy="600" r="2.5" fill="#f97316"/>
  <text x="445" y="604" fill="#374151" font-size="11" font-weight="500">omq-tokio</text>
  <line x1="565" y1="600" x2="579" y2="600" stroke="#2563eb" stroke-width="2.5"/>
  <circle cx="572" cy="600" r="2.5" fill="#2563eb"/>
  <text x="585" y="604" fill="#374151" font-size="11" font-weight="500">zmq.rs v0.6.0</text>
  <line x1="265" y1="622" x2="285" y2="622" stroke="#6b7280" stroke-width="2" stroke-dasharray="6,4"/>
  <text x="291" y="626" fill="#6b7280" font-size="10">msg/s (left axis)</text>
  <line x1="435" y1="622" x2="455" y2="622" stroke="#6b7280" stroke-width="2"/>
  <circle cx="445" cy="622" r="2" fill="#6b7280"/>
  <text x="461" y="626" fill="#6b7280" font-size="10">throughput / GB/s (right axis)</text>
</svg>
