<svg xmlns="http://www.w3.org/2000/svg" viewBox="0 0 850 684" font-family="system-ui, -apple-system, sans-serif">
  <rect width="850" height="684" fill="white"/>
  <text x="425.0" y="32.0" text-anchor="middle" fill="#111827" font-size="13" font-weight="700">PUSH/PULL throughput: IPC, 2-process (higher is better)</text>
  <line x1="90.0" y1="357.2" x2="760.0" y2="357.2" stroke="#e5e7eb" stroke-width="1"/>
  <text x="82.0" y="357.2" text-anchor="end" dominant-baseline="middle" fill="#374151" font-size="10">2M</text>
  <line x1="90.0" y1="330.4" x2="760.0" y2="330.4" stroke="#e5e7eb" stroke-width="1"/>
  <text x="82.0" y="330.4" text-anchor="end" dominant-baseline="middle" fill="#374151" font-size="10">4M</text>
  <line x1="90.0" y1="303.6" x2="760.0" y2="303.6" stroke="#e5e7eb" stroke-width="1"/>
  <text x="82.0" y="303.6" text-anchor="end" dominant-baseline="middle" fill="#374151" font-size="10">6M</text>
  <line x1="90.0" y1="276.8" x2="760.0" y2="276.8" stroke="#e5e7eb" stroke-width="1"/>
  <text x="82.0" y="276.8" text-anchor="end" dominant-baseline="middle" fill="#374151" font-size="10">8M</text>
  <line x1="90.0" y1="250.0" x2="760.0" y2="250.0" stroke="#e5e7eb" stroke-width="1"/>
  <text x="82.0" y="250.0" text-anchor="end" dominant-baseline="middle" fill="#374151" font-size="10">10M</text>
  <line x1="90.0" y1="223.2" x2="760.0" y2="223.2" stroke="#e5e7eb" stroke-width="1"/>
  <text x="82.0" y="223.2" text-anchor="end" dominant-baseline="middle" fill="#374151" font-size="10">12M</text>
  <line x1="90.0" y1="196.4" x2="760.0" y2="196.4" stroke="#e5e7eb" stroke-width="1"/>
  <text x="82.0" y="196.4" text-anchor="end" dominant-baseline="middle" fill="#374151" font-size="10">14M</text>
  <line x1="90.0" y1="169.6" x2="760.0" y2="169.6" stroke="#e5e7eb" stroke-width="1"/>
  <text x="82.0" y="169.6" text-anchor="end" dominant-baseline="middle" fill="#374151" font-size="10">16M</text>
  <line x1="90.0" y1="142.8" x2="760.0" y2="142.8" stroke="#e5e7eb" stroke-width="1"/>
  <text x="82.0" y="142.8" text-anchor="end" dominant-baseline="middle" fill="#374151" font-size="10">18M</text>
  <line x1="90.0" y1="116.0" x2="760.0" y2="116.0" stroke="#e5e7eb" stroke-width="1"/>
  <text x="82.0" y="116.0" text-anchor="end" dominant-baseline="middle" fill="#374151" font-size="10">20M</text>
  <line x1="90.0" y1="89.2" x2="760.0" y2="89.2" stroke="#e5e7eb" stroke-width="1"/>
  <text x="82.0" y="89.2" text-anchor="end" dominant-baseline="middle" fill="#374151" font-size="10">22M</text>
  <line x1="90.0" y1="62.4" x2="760.0" y2="62.4" stroke="#e5e7eb" stroke-width="1"/>
  <text x="82.0" y="62.4" text-anchor="end" dominant-baseline="middle" fill="#374151" font-size="10">24M</text>
  <line x1="90.0" y1="328.2" x2="760.0" y2="328.2" stroke="#e5e7eb" stroke-width="1" stroke-dasharray="3,6"/>
  <text x="768.0" y="328.2" text-anchor="start" dominant-baseline="middle" fill="#6b7280" font-size="10">1 GB/s</text>
  <line x1="90.0" y1="272.3" x2="760.0" y2="272.3" stroke="#e5e7eb" stroke-width="1" stroke-dasharray="3,6"/>
  <text x="768.0" y="272.3" text-anchor="start" dominant-baseline="middle" fill="#6b7280" font-size="10">2 GB/s</text>
  <line x1="90.0" y1="216.5" x2="760.0" y2="216.5" stroke="#e5e7eb" stroke-width="1" stroke-dasharray="3,6"/>
  <text x="768.0" y="216.5" text-anchor="start" dominant-baseline="middle" fill="#6b7280" font-size="10">3 GB/s</text>
  <line x1="90.0" y1="160.7" x2="760.0" y2="160.7" stroke="#e5e7eb" stroke-width="1" stroke-dasharray="3,6"/>
  <text x="768.0" y="160.7" text-anchor="start" dominant-baseline="middle" fill="#6b7280" font-size="10">4 GB/s</text>
  <line x1="90.0" y1="104.8" x2="760.0" y2="104.8" stroke="#e5e7eb" stroke-width="1" stroke-dasharray="3,6"/>
  <text x="768.0" y="104.8" text-anchor="start" dominant-baseline="middle" fill="#6b7280" font-size="10">5 GB/s</text>
  <line x1="90.0" y1="49.0" x2="760.0" y2="49.0" stroke="#e5e7eb" stroke-width="1" stroke-dasharray="3,6"/>
  <text x="768.0" y="49.0" text-anchor="start" dominant-baseline="middle" fill="#6b7280" font-size="10">6 GB/s</text>
  <line x1="90.0" y1="49.0" x2="90.0" y2="384.0" stroke="#e5e7eb" stroke-width="1"/>
  <line x1="145.8" y1="49.0" x2="145.8" y2="384.0" stroke="#e5e7eb" stroke-width="1"/>
  <line x1="201.7" y1="49.0" x2="201.7" y2="384.0" stroke="#e5e7eb" stroke-width="1"/>
  <line x1="257.5" y1="49.0" x2="257.5" y2="384.0" stroke="#e5e7eb" stroke-width="1"/>
  <line x1="313.3" y1="49.0" x2="313.3" y2="384.0" stroke="#e5e7eb" stroke-width="1"/>
  <line x1="369.2" y1="49.0" x2="369.2" y2="384.0" stroke="#e5e7eb" stroke-width="1"/>
  <line x1="425.0" y1="49.0" x2="425.0" y2="384.0" stroke="#e5e7eb" stroke-width="1"/>
  <line x1="480.8" y1="49.0" x2="480.8" y2="384.0" stroke="#e5e7eb" stroke-width="1"/>
  <line x1="536.7" y1="49.0" x2="536.7" y2="384.0" stroke="#e5e7eb" stroke-width="1"/>
  <line x1="592.5" y1="49.0" x2="592.5" y2="384.0" stroke="#e5e7eb" stroke-width="1"/>
  <line x1="648.3" y1="49.0" x2="648.3" y2="384.0" stroke="#e5e7eb" stroke-width="1"/>
  <line x1="704.2" y1="49.0" x2="704.2" y2="384.0" stroke="#e5e7eb" stroke-width="1"/>
  <line x1="760.0" y1="49.0" x2="760.0" y2="384.0" stroke="#e5e7eb" stroke-width="1"/>
  <line x1="90.0" y1="49.0" x2="90.0" y2="384.0" stroke="#9ca3af" stroke-width="1.5"/>
  <line x1="760.0" y1="49.0" x2="760.0" y2="384.0" stroke="#9ca3af" stroke-width="1.5"/>
  <line x1="90.0" y1="384.0" x2="760.0" y2="384.0" stroke="#9ca3af" stroke-width="1.5"/>
  <text x="40.0" y="216.5" text-anchor="middle" fill="#374151" font-size="10" font-weight="600" transform="rotate(-90,40.0,216.5)">msg/s</text>
  <polyline points="90.0,378.1 145.8,378.4 201.7,378.3 257.5,378.8 313.3,378.4 369.2,378.6 425.0,378.6 480.8,379.2 536.7,379.5 592.5,380.4 648.3,381.1 704.2,381.7 760.0,382.6" fill="none" stroke="#10b981" stroke-width="2" stroke-dasharray="6,4"/>
  <polyline points="90.0,374.3 145.8,374.6 201.7,374.6 257.5,374.4 313.3,374.2 369.2,374.9 425.0,374.7 480.8,375.4 536.7,376.0 592.5,377.8 648.3,379.2 704.2,381.0 760.0,382.3" fill="none" stroke="#2563eb" stroke-width="2" stroke-dasharray="6,4"/>
  <polyline points="90.0,268.3 145.8,264.5 201.7,264.3 257.5,305.8 313.3,345.9 369.2,346.0 425.0,352.6 480.8,367.2 536.7,373.4 592.5,378.4 648.3,380.6 704.2,382.2 760.0,382.6" fill="none" stroke="#eab308" stroke-width="2" stroke-dasharray="6,4"/>
  <polyline points="201.7,370.9 480.8,373.6 592.5,377.0" fill="none" stroke="#06b6d4" stroke-width="2" stroke-dasharray="6,4"/>
  <polyline points="90.0,296.6 145.8,297.9 201.7,284.9 257.5,299.2 313.3,300.0 369.2,307.5 425.0,319.1 480.8,333.0 536.7,352.5 592.5,367.2 648.3,374.9 704.2,379.4 760.0,381.8" fill="none" stroke="#f97316" stroke-width="2" stroke-dasharray="6,4"/>
  <polyline points="90.0,92.3 145.8,112.6 201.7,152.0 257.5,236.8 313.3,264.9 369.2,300.0 425.0,324.1 480.8,342.2 536.7,355.5 592.5,367.6 648.3,376.0 704.2,379.6 760.0,381.7" fill="none" stroke="#dc2626" stroke-width="2" stroke-dasharray="6,4"/>
  <polyline points="90.0,383.8 145.8,383.6 201.7,383.2 257.5,382.6 313.3,381.0 369.2,378.2 425.0,372.4 480.8,363.6 536.7,345.7 592.5,322.4 648.3,283.3 704.2,226.4 760.0,195.8" fill="none" stroke="#10b981" stroke-width="2.5" stroke-linecap="round" stroke-linejoin="round"/>
  <circle cx="90.0" cy="383.8" r="3" fill="#10b981" stroke="white" stroke-width="1"/>
  <circle cx="145.8" cy="383.6" r="3" fill="#10b981" stroke="white" stroke-width="1"/>
  <circle cx="201.7" cy="383.2" r="3" fill="#10b981" stroke="white" stroke-width="1"/>
  <circle cx="257.5" cy="382.6" r="3" fill="#10b981" stroke="white" stroke-width="1"/>
  <circle cx="313.3" cy="381.0" r="3" fill="#10b981" stroke="white" stroke-width="1"/>
  <circle cx="369.2" cy="378.2" r="3" fill="#10b981" stroke="white" stroke-width="1"/>
  <circle cx="425.0" cy="372.4" r="3" fill="#10b981" stroke="white" stroke-width="1"/>
  <circle cx="480.8" cy="363.6" r="3" fill="#10b981" stroke="white" stroke-width="1"/>
  <circle cx="536.7" cy="345.7" r="3" fill="#10b981" stroke="white" stroke-width="1"/>
  <circle cx="592.5" cy="322.4" r="3" fill="#10b981" stroke="white" stroke-width="1"/>
  <circle cx="648.3" cy="283.3" r="3" fill="#10b981" stroke="white" stroke-width="1"/>
  <circle cx="704.2" cy="226.4" r="3" fill="#10b981" stroke="white" stroke-width="1"/>
  <circle cx="760.0" cy="195.8" r="3" fill="#10b981" stroke="white" stroke-width="1"/>
  <polyline points="90.0,383.7 145.8,383.4 201.7,382.7 257.5,381.4 313.3,378.8 369.2,374.3 425.0,364.1 480.8,347.4 536.7,315.9 592.5,279.0 648.3,220.4 704.2,181.3 760.0,154.9" fill="none" stroke="#2563eb" stroke-width="2.5" stroke-linecap="round" stroke-linejoin="round"/>
  <circle cx="90.0" cy="383.7" r="3" fill="#2563eb" stroke="white" stroke-width="1"/>
  <circle cx="145.8" cy="383.4" r="3" fill="#2563eb" stroke="white" stroke-width="1"/>
  <circle cx="201.7" cy="382.7" r="3" fill="#2563eb" stroke="white" stroke-width="1"/>
  <circle cx="257.5" cy="381.4" r="3" fill="#2563eb" stroke="white" stroke-width="1"/>
  <circle cx="313.3" cy="378.8" r="3" fill="#2563eb" stroke="white" stroke-width="1"/>
  <circle cx="369.2" cy="374.3" r="3" fill="#2563eb" stroke="white" stroke-width="1"/>
  <circle cx="425.0" cy="364.1" r="3" fill="#2563eb" stroke="white" stroke-width="1"/>
  <circle cx="480.8" cy="347.4" r="3" fill="#2563eb" stroke="white" stroke-width="1"/>
  <circle cx="536.7" cy="315.9" r="3" fill="#2563eb" stroke="white" stroke-width="1"/>
  <circle cx="592.5" cy="279.0" r="3" fill="#2563eb" stroke="white" stroke-width="1"/>
  <circle cx="648.3" cy="220.4" r="3" fill="#2563eb" stroke="white" stroke-width="1"/>
  <circle cx="704.2" cy="181.3" r="3" fill="#2563eb" stroke="white" stroke-width="1"/>
  <circle cx="760.0" cy="154.9" r="3" fill="#2563eb" stroke="white" stroke-width="1"/>
  <polyline points="90.0,380.1 145.8,376.0 201.7,368.0 257.5,363.1 313.3,363.7 369.2,343.5 425.0,316.9 480.8,312.1 536.7,293.7 592.5,288.4 648.3,269.6 704.2,260.6 760.0,198.8" fill="none" stroke="#eab308" stroke-width="2.5" stroke-linecap="round" stroke-linejoin="round"/>
  <circle cx="90.0" cy="380.1" r="3" fill="#eab308" stroke="white" stroke-width="1"/>
  <circle cx="145.8" cy="376.0" r="3" fill="#eab308" stroke="white" stroke-width="1"/>
  <circle cx="201.7" cy="368.0" r="3" fill="#eab308" stroke="white" stroke-width="1"/>
  <circle cx="257.5" cy="363.1" r="3" fill="#eab308" stroke="white" stroke-width="1"/>
  <circle cx="313.3" cy="363.7" r="3" fill="#eab308" stroke="white" stroke-width="1"/>
  <circle cx="369.2" cy="343.5" r="3" fill="#eab308" stroke="white" stroke-width="1"/>
  <circle cx="425.0" cy="316.9" r="3" fill="#eab308" stroke="white" stroke-width="1"/>
  <circle cx="480.8" cy="312.1" r="3" fill="#eab308" stroke="white" stroke-width="1"/>
  <circle cx="536.7" cy="293.7" r="3" fill="#eab308" stroke="white" stroke-width="1"/>
  <circle cx="592.5" cy="288.4" r="3" fill="#eab308" stroke="white" stroke-width="1"/>
  <circle cx="648.3" cy="269.6" r="3" fill="#eab308" stroke="white" stroke-width="1"/>
  <circle cx="704.2" cy="260.6" r="3" fill="#eab308" stroke="white" stroke-width="1"/>
  <circle cx="760.0" cy="198.8" r="3" fill="#eab308" stroke="white" stroke-width="1"/>
  <polyline points="201.7,382.3 480.8,339.4 592.5,264.3" fill="none" stroke="#06b6d4" stroke-width="2.5" stroke-linecap="round" stroke-linejoin="round"/>
  <circle cx="201.7" cy="382.3" r="3" fill="#06b6d4" stroke="white" stroke-width="1"/>
  <circle cx="480.8" cy="339.4" r="3" fill="#06b6d4" stroke="white" stroke-width="1"/>
  <circle cx="592.5" cy="264.3" r="3" fill="#06b6d4" stroke="white" stroke-width="1"/>
  <polyline points="90.0,381.1 145.8,378.3 201.7,370.8 257.5,361.4 313.3,339.2 369.2,302.4 425.0,245.5 480.8,166.6 536.7,115.0 592.5,96.9 648.3,74.9 704.2,70.8 760.0,79.1" fill="none" stroke="#f97316" stroke-width="2.5" stroke-linecap="round" stroke-linejoin="round"/>
  <circle cx="90.0" cy="381.1" r="3" fill="#f97316" stroke="white" stroke-width="1"/>
  <circle cx="145.8" cy="378.3" r="3" fill="#f97316" stroke="white" stroke-width="1"/>
  <circle cx="201.7" cy="370.8" r="3" fill="#f97316" stroke="white" stroke-width="1"/>
  <circle cx="257.5" cy="361.4" r="3" fill="#f97316" stroke="white" stroke-width="1"/>
  <circle cx="313.3" cy="339.2" r="3" fill="#f97316" stroke="white" stroke-width="1"/>
  <circle cx="369.2" cy="302.4" r="3" fill="#f97316" stroke="white" stroke-width="1"/>
  <circle cx="425.0" cy="245.5" r="3" fill="#f97316" stroke="white" stroke-width="1"/>
  <circle cx="480.8" cy="166.6" r="3" fill="#f97316" stroke="white" stroke-width="1"/>
  <circle cx="536.7" cy="115.0" r="3" fill="#f97316" stroke="white" stroke-width="1"/>
  <circle cx="592.5" cy="96.9" r="3" fill="#f97316" stroke="white" stroke-width="1"/>
  <circle cx="648.3" cy="74.9" r="3" fill="#f97316" stroke="white" stroke-width="1"/>
  <circle cx="704.2" cy="70.8" r="3" fill="#f97316" stroke="white" stroke-width="1"/>
  <circle cx="760.0" cy="79.1" r="3" fill="#f97316" stroke="white" stroke-width="1"/>
  <polyline points="90.0,374.3 145.8,365.9 201.7,353.1 257.5,344.7 313.3,320.5 369.2,294.4 425.0,256.2 480.8,205.8 536.7,140.6 592.5,104.4 648.3,112.2 704.2,80.7 760.0,70.5" fill="none" stroke="#dc2626" stroke-width="2.5" stroke-linecap="round" stroke-linejoin="round"/>
  <circle cx="90.0" cy="374.3" r="3" fill="#dc2626" stroke="white" stroke-width="1"/>
  <circle cx="145.8" cy="365.9" r="3" fill="#dc2626" stroke="white" stroke-width="1"/>
  <circle cx="201.7" cy="353.1" r="3" fill="#dc2626" stroke="white" stroke-width="1"/>
  <circle cx="257.5" cy="344.7" r="3" fill="#dc2626" stroke="white" stroke-width="1"/>
  <circle cx="313.3" cy="320.5" r="3" fill="#dc2626" stroke="white" stroke-width="1"/>
  <circle cx="369.2" cy="294.4" r="3" fill="#dc2626" stroke="white" stroke-width="1"/>
  <circle cx="425.0" cy="256.2" r="3" fill="#dc2626" stroke="white" stroke-width="1"/>
  <circle cx="480.8" cy="205.8" r="3" fill="#dc2626" stroke="white" stroke-width="1"/>
  <circle cx="536.7" cy="140.6" r="3" fill="#dc2626" stroke="white" stroke-width="1"/>
  <circle cx="592.5" cy="104.4" r="3" fill="#dc2626" stroke="white" stroke-width="1"/>
  <circle cx="648.3" cy="112.2" r="3" fill="#dc2626" stroke="white" stroke-width="1"/>
  <circle cx="704.2" cy="80.7" r="3" fill="#dc2626" stroke="white" stroke-width="1"/>
  <circle cx="760.0" cy="70.5" r="3" fill="#dc2626" stroke="white" stroke-width="1"/>
  <text x="90.0" y="398.0" text-anchor="middle" fill="#374151" font-size="8.5">8 B</text>
  <text x="145.8" y="398.0" text-anchor="middle" fill="#374151" font-size="8.5">16 B</text>
  <text x="201.7" y="398.0" text-anchor="middle" fill="#374151" font-size="8.5">32 B</text>
  <text x="257.5" y="398.0" text-anchor="middle" fill="#374151" font-size="8.5">64 B</text>
  <text x="313.3" y="398.0" text-anchor="middle" fill="#374151" font-size="8.5">128 B</text>
  <text x="369.2" y="398.0" text-anchor="middle" fill="#374151" font-size="8.5">256 B</text>
  <text x="425.0" y="398.0" text-anchor="middle" fill="#374151" font-size="8.5">512 B</text>
  <text x="480.8" y="398.0" text-anchor="middle" fill="#374151" font-size="8.5">1 KiB</text>
  <text x="536.7" y="398.0" text-anchor="middle" fill="#374151" font-size="8.5">2 KiB</text>
  <text x="592.5" y="398.0" text-anchor="middle" fill="#374151" font-size="8.5">4 KiB</text>
  <text x="648.3" y="398.0" text-anchor="middle" fill="#374151" font-size="8.5">8 KiB</text>
  <text x="704.2" y="398.0" text-anchor="middle" fill="#374151" font-size="8.5">16 KiB</text>
  <text x="760.0" y="398.0" text-anchor="middle" fill="#374151" font-size="8.5">32 KiB</text>
  <text x="425.0" y="46" text-anchor="middle" fill="#9ca3af" font-size="10">Intel Core i7-8700B @ 3.20GHz, 6 cores</text>
  <text x="425.0" y="447.0" text-anchor="middle" fill="#111827" font-size="13" font-weight="700">REQ/REP latency: IPC, 2-process (p50 µs, lower is better)</text>
  <line x1="90.0" y1="560.0" x2="760.0" y2="560.0" stroke="#e5e7eb" stroke-width="1"/>
  <text x="82.0" y="560.0" text-anchor="end" dominant-baseline="middle" fill="#374151" font-size="10">20</text>
  <line x1="90.0" y1="536.0" x2="760.0" y2="536.0" stroke="#e5e7eb" stroke-width="1"/>
  <text x="82.0" y="536.0" text-anchor="end" dominant-baseline="middle" fill="#374151" font-size="10">40</text>
  <line x1="90.0" y1="512.0" x2="760.0" y2="512.0" stroke="#e5e7eb" stroke-width="1"/>
  <text x="82.0" y="512.0" text-anchor="end" dominant-baseline="middle" fill="#374151" font-size="10">60</text>
  <line x1="90.0" y1="488.0" x2="760.0" y2="488.0" stroke="#e5e7eb" stroke-width="1"/>
  <text x="82.0" y="488.0" text-anchor="end" dominant-baseline="middle" fill="#374151" font-size="10">80</text>
  <line x1="90.0" y1="464.0" x2="760.0" y2="464.0" stroke="#e5e7eb" stroke-width="1"/>
  <text x="82.0" y="464.0" text-anchor="end" dominant-baseline="middle" fill="#374151" font-size="10">100</text>
  <line x1="90.0" y1="464.0" x2="90.0" y2="584.0" stroke="#e5e7eb" stroke-width="1"/>
  <line x1="145.8" y1="464.0" x2="145.8" y2="584.0" stroke="#e5e7eb" stroke-width="1"/>
  <line x1="201.7" y1="464.0" x2="201.7" y2="584.0" stroke="#e5e7eb" stroke-width="1"/>
  <line x1="257.5" y1="464.0" x2="257.5" y2="584.0" stroke="#e5e7eb" stroke-width="1"/>
  <line x1="313.3" y1="464.0" x2="313.3" y2="584.0" stroke="#e5e7eb" stroke-width="1"/>
  <line x1="369.2" y1="464.0" x2="369.2" y2="584.0" stroke="#e5e7eb" stroke-width="1"/>
  <line x1="425.0" y1="464.0" x2="425.0" y2="584.0" stroke="#e5e7eb" stroke-width="1"/>
  <line x1="480.8" y1="464.0" x2="480.8" y2="584.0" stroke="#e5e7eb" stroke-width="1"/>
  <line x1="536.7" y1="464.0" x2="536.7" y2="584.0" stroke="#e5e7eb" stroke-width="1"/>
  <line x1="592.5" y1="464.0" x2="592.5" y2="584.0" stroke="#e5e7eb" stroke-width="1"/>
  <line x1="648.3" y1="464.0" x2="648.3" y2="584.0" stroke="#e5e7eb" stroke-width="1"/>
  <line x1="704.2" y1="464.0" x2="704.2" y2="584.0" stroke="#e5e7eb" stroke-width="1"/>
  <line x1="760.0" y1="464.0" x2="760.0" y2="584.0" stroke="#e5e7eb" stroke-width="1"/>
  <line x1="90.0" y1="464.0" x2="90.0" y2="584.0" stroke="#9ca3af" stroke-width="1.5"/>
  <line x1="90.0" y1="584.0" x2="760.0" y2="584.0" stroke="#9ca3af" stroke-width="1.5"/>
  <text x="40.0" y="524.0" text-anchor="middle" fill="#374151" font-size="10" font-weight="600" transform="rotate(-90,40.0,524.0)">p50 latency (µs)</text>
  <polyline points="90.0,512.6 145.8,513.1 201.7,507.1 257.5,510.8 313.3,511.7 369.2,513.0 425.0,512.2 480.8,506.7 536.7,511.3 592.5,502.5 648.3,494.2 704.2,491.6 760.0,489.2" fill="none" stroke="#eab308" stroke-width="2.5" stroke-linecap="round" stroke-linejoin="round"/>
  <circle cx="90.0" cy="512.6" r="3" fill="#eab308" stroke="white" stroke-width="1"/>
  <circle cx="145.8" cy="513.1" r="3" fill="#eab308" stroke="white" stroke-width="1"/>
  <circle cx="201.7" cy="507.1" r="3" fill="#eab308" stroke="white" stroke-width="1"/>
  <circle cx="257.5" cy="510.8" r="3" fill="#eab308" stroke="white" stroke-width="1"/>
  <circle cx="313.3" cy="511.7" r="3" fill="#eab308" stroke="white" stroke-width="1"/>
  <circle cx="369.2" cy="513.0" r="3" fill="#eab308" stroke="white" stroke-width="1"/>
  <circle cx="425.0" cy="512.2" r="3" fill="#eab308" stroke="white" stroke-width="1"/>
  <circle cx="480.8" cy="506.7" r="3" fill="#eab308" stroke="white" stroke-width="1"/>
  <circle cx="536.7" cy="511.3" r="3" fill="#eab308" stroke="white" stroke-width="1"/>
  <circle cx="592.5" cy="502.5" r="3" fill="#eab308" stroke="white" stroke-width="1"/>
  <circle cx="648.3" cy="494.2" r="3" fill="#eab308" stroke="white" stroke-width="1"/>
  <circle cx="704.2" cy="491.6" r="3" fill="#eab308" stroke="white" stroke-width="1"/>
  <circle cx="760.0" cy="489.2" r="3" fill="#eab308" stroke="white" stroke-width="1"/>
  <polyline points="201.7,506.4 480.8,501.9 592.5,501.9" fill="none" stroke="#06b6d4" stroke-width="2.5" stroke-linecap="round" stroke-linejoin="round"/>
  <circle cx="201.7" cy="506.4" r="3" fill="#06b6d4" stroke="white" stroke-width="1"/>
  <circle cx="480.8" cy="501.9" r="3" fill="#06b6d4" stroke="white" stroke-width="1"/>
  <circle cx="592.5" cy="501.9" r="3" fill="#06b6d4" stroke="white" stroke-width="1"/>
  <polyline points="90.0,523.5 145.8,530.5 201.7,522.5 257.5,526.4 313.3,529.5 369.2,529.4 425.0,528.3 480.8,521.9 536.7,522.3 592.5,519.6 648.3,527.6 704.2,521.3 760.0,506.8" fill="none" stroke="#f97316" stroke-width="2.5" stroke-linecap="round" stroke-linejoin="round"/>
  <circle cx="90.0" cy="523.5" r="3" fill="#f97316" stroke="white" stroke-width="1"/>
  <circle cx="145.8" cy="530.5" r="3" fill="#f97316" stroke="white" stroke-width="1"/>
  <circle cx="201.7" cy="522.5" r="3" fill="#f97316" stroke="white" stroke-width="1"/>
  <circle cx="257.5" cy="526.4" r="3" fill="#f97316" stroke="white" stroke-width="1"/>
  <circle cx="313.3" cy="529.5" r="3" fill="#f97316" stroke="white" stroke-width="1"/>
  <circle cx="369.2" cy="529.4" r="3" fill="#f97316" stroke="white" stroke-width="1"/>
  <circle cx="425.0" cy="528.3" r="3" fill="#f97316" stroke="white" stroke-width="1"/>
  <circle cx="480.8" cy="521.9" r="3" fill="#f97316" stroke="white" stroke-width="1"/>
  <circle cx="536.7" cy="522.3" r="3" fill="#f97316" stroke="white" stroke-width="1"/>
  <circle cx="592.5" cy="519.6" r="3" fill="#f97316" stroke="white" stroke-width="1"/>
  <circle cx="648.3" cy="527.6" r="3" fill="#f97316" stroke="white" stroke-width="1"/>
  <circle cx="704.2" cy="521.3" r="3" fill="#f97316" stroke="white" stroke-width="1"/>
  <circle cx="760.0" cy="506.8" r="3" fill="#f97316" stroke="white" stroke-width="1"/>
  <polyline points="90.0,500.2 145.8,500.9 201.7,498.8 257.5,492.5 313.3,497.9 369.2,501.6 425.0,490.1 480.8,505.3 536.7,500.8 592.5,500.7 648.3,491.2 704.2,487.0 760.0,466.1" fill="none" stroke="#10b981" stroke-width="2.5" stroke-linecap="round" stroke-linejoin="round"/>
  <circle cx="90.0" cy="500.2" r="3" fill="#10b981" stroke="white" stroke-width="1"/>
  <circle cx="145.8" cy="500.9" r="3" fill="#10b981" stroke="white" stroke-width="1"/>
  <circle cx="201.7" cy="498.8" r="3" fill="#10b981" stroke="white" stroke-width="1"/>
  <circle cx="257.5" cy="492.5" r="3" fill="#10b981" stroke="white" stroke-width="1"/>
  <circle cx="313.3" cy="497.9" r="3" fill="#10b981" stroke="white" stroke-width="1"/>
  <circle cx="369.2" cy="501.6" r="3" fill="#10b981" stroke="white" stroke-width="1"/>
  <circle cx="425.0" cy="490.1" r="3" fill="#10b981" stroke="white" stroke-width="1"/>
  <circle cx="480.8" cy="505.3" r="3" fill="#10b981" stroke="white" stroke-width="1"/>
  <circle cx="536.7" cy="500.8" r="3" fill="#10b981" stroke="white" stroke-width="1"/>
  <circle cx="592.5" cy="500.7" r="3" fill="#10b981" stroke="white" stroke-width="1"/>
  <circle cx="648.3" cy="491.2" r="3" fill="#10b981" stroke="white" stroke-width="1"/>
  <circle cx="704.2" cy="487.0" r="3" fill="#10b981" stroke="white" stroke-width="1"/>
  <circle cx="760.0" cy="466.1" r="3" fill="#10b981" stroke="white" stroke-width="1"/>
  <polyline points="90.0,547.8 145.8,550.8 201.7,547.7 257.5,548.6 313.3,548.4 369.2,552.6 425.0,548.8 480.8,551.1 536.7,547.0 592.5,545.0 648.3,535.1 704.2,529.0 760.0,521.3" fill="none" stroke="#2563eb" stroke-width="2.5" stroke-linecap="round" stroke-linejoin="round"/>
  <circle cx="90.0" cy="547.8" r="3" fill="#2563eb" stroke="white" stroke-width="1"/>
  <circle cx="145.8" cy="550.8" r="3" fill="#2563eb" stroke="white" stroke-width="1"/>
  <circle cx="201.7" cy="547.7" r="3" fill="#2563eb" stroke="white" stroke-width="1"/>
  <circle cx="257.5" cy="548.6" r="3" fill="#2563eb" stroke="white" stroke-width="1"/>
  <circle cx="313.3" cy="548.4" r="3" fill="#2563eb" stroke="white" stroke-width="1"/>
  <circle cx="369.2" cy="552.6" r="3" fill="#2563eb" stroke="white" stroke-width="1"/>
  <circle cx="425.0" cy="548.8" r="3" fill="#2563eb" stroke="white" stroke-width="1"/>
  <circle cx="480.8" cy="551.1" r="3" fill="#2563eb" stroke="white" stroke-width="1"/>
  <circle cx="536.7" cy="547.0" r="3" fill="#2563eb" stroke="white" stroke-width="1"/>
  <circle cx="592.5" cy="545.0" r="3" fill="#2563eb" stroke="white" stroke-width="1"/>
  <circle cx="648.3" cy="535.1" r="3" fill="#2563eb" stroke="white" stroke-width="1"/>
  <circle cx="704.2" cy="529.0" r="3" fill="#2563eb" stroke="white" stroke-width="1"/>
  <circle cx="760.0" cy="521.3" r="3" fill="#2563eb" stroke="white" stroke-width="1"/>
  <polyline points="90.0,547.5 145.8,549.6 201.7,550.6 257.5,546.9 313.3,548.6 369.2,548.9 425.0,546.4 480.8,547.1 536.7,543.2 592.5,541.7 648.3,537.6 704.2,538.0 760.0,524.6" fill="none" stroke="#dc2626" stroke-width="2.5" stroke-linecap="round" stroke-linejoin="round"/>
  <circle cx="90.0" cy="547.5" r="3" fill="#dc2626" stroke="white" stroke-width="1"/>
  <circle cx="145.8" cy="549.6" r="3" fill="#dc2626" stroke="white" stroke-width="1"/>
  <circle cx="201.7" cy="550.6" r="3" fill="#dc2626" stroke="white" stroke-width="1"/>
  <circle cx="257.5" cy="546.9" r="3" fill="#dc2626" stroke="white" stroke-width="1"/>
  <circle cx="313.3" cy="548.6" r="3" fill="#dc2626" stroke="white" stroke-width="1"/>
  <circle cx="369.2" cy="548.9" r="3" fill="#dc2626" stroke="white" stroke-width="1"/>
  <circle cx="425.0" cy="546.4" r="3" fill="#dc2626" stroke="white" stroke-width="1"/>
  <circle cx="480.8" cy="547.1" r="3" fill="#dc2626" stroke="white" stroke-width="1"/>
  <circle cx="536.7" cy="543.2" r="3" fill="#dc2626" stroke="white" stroke-width="1"/>
  <circle cx="592.5" cy="541.7" r="3" fill="#dc2626" stroke="white" stroke-width="1"/>
  <circle cx="648.3" cy="537.6" r="3" fill="#dc2626" stroke="white" stroke-width="1"/>
  <circle cx="704.2" cy="538.0" r="3" fill="#dc2626" stroke="white" stroke-width="1"/>
  <circle cx="760.0" cy="524.6" r="3" fill="#dc2626" stroke="white" stroke-width="1"/>
  <text x="90.0" y="598.0" text-anchor="middle" fill="#374151" font-size="8.5">8 B</text>
  <text x="145.8" y="598.0" text-anchor="middle" fill="#374151" font-size="8.5">16 B</text>
  <text x="201.7" y="598.0" text-anchor="middle" fill="#374151" font-size="8.5">32 B</text>
  <text x="257.5" y="598.0" text-anchor="middle" fill="#374151" font-size="8.5">64 B</text>
  <text x="313.3" y="598.0" text-anchor="middle" fill="#374151" font-size="8.5">128 B</text>
  <text x="369.2" y="598.0" text-anchor="middle" fill="#374151" font-size="8.5">256 B</text>
  <text x="425.0" y="598.0" text-anchor="middle" fill="#374151" font-size="8.5">512 B</text>
  <text x="480.8" y="598.0" text-anchor="middle" fill="#374151" font-size="8.5">1 KiB</text>
  <text x="536.7" y="598.0" text-anchor="middle" fill="#374151" font-size="8.5">2 KiB</text>
  <text x="592.5" y="598.0" text-anchor="middle" fill="#374151" font-size="8.5">4 KiB</text>
  <text x="648.3" y="598.0" text-anchor="middle" fill="#374151" font-size="8.5">8 KiB</text>
  <text x="704.2" y="598.0" text-anchor="middle" fill="#374151" font-size="8.5">16 KiB</text>
  <text x="760.0" y="598.0" text-anchor="middle" fill="#374151" font-size="8.5">32 KiB</text>
  <line x1="50" y1="644" x2="64" y2="644" stroke="#eab308" stroke-width="2.5"/>
  <circle cx="57" cy="644" r="2.5" fill="#eab308"/>
  <text x="70" y="648" fill="#374151" font-size="11" font-weight="500">libzmq v4.3.5</text>
  <line x1="175" y1="644" x2="189" y2="644" stroke="#dc2626" stroke-width="2.5"/>
  <circle cx="182" cy="644" r="2.5" fill="#dc2626"/>
  <text x="195" y="648" fill="#374151" font-size="11" font-weight="500">omq-compio (MT)</text>
  <line x1="300" y1="644" x2="314" y2="644" stroke="#f97316" stroke-width="2.5"/>
  <circle cx="307" cy="644" r="2.5" fill="#f97316"/>
  <text x="320" y="648" fill="#374151" font-size="11" font-weight="500">omq-tokio</text>
  <line x1="425" y1="644" x2="439" y2="644" stroke="#2563eb" stroke-width="2.5"/>
  <circle cx="432" cy="644" r="2.5" fill="#2563eb"/>
  <text x="445" y="648" fill="#374151" font-size="11" font-weight="500">zmq.rs v0.6.0</text>
  <line x1="550" y1="644" x2="564" y2="644" stroke="#10b981" stroke-width="2.5"/>
  <circle cx="557" cy="644" r="2.5" fill="#10b981"/>
  <text x="570" y="648" fill="#374151" font-size="11" font-weight="500">rzmq v0.5.15</text>
  <line x1="675" y1="644" x2="689" y2="644" stroke="#06b6d4" stroke-width="2.5"/>
  <circle cx="682" cy="644" r="2.5" fill="#06b6d4"/>
  <text x="695" y="648" fill="#374151" font-size="11" font-weight="500">omq-libzmq</text>
  <line x1="265" y1="666" x2="285" y2="666" stroke="#6b7280" stroke-width="2" stroke-dasharray="6,4"/>
  <text x="291" y="670" fill="#6b7280" font-size="10">msg/s (left axis)</text>
  <line x1="435" y1="666" x2="455" y2="666" stroke="#6b7280" stroke-width="2"/>
  <circle cx="445" cy="666" r="2" fill="#6b7280"/>
  <text x="461" y="670" fill="#6b7280" font-size="10">throughput / GB/s (right axis)</text>
</svg>
