<svg xmlns="http://www.w3.org/2000/svg" viewBox="0 0 850 450" font-family="system-ui, -apple-system, sans-serif">
  <rect width="850" height="450" fill="white"/>
  <line x1="90" y1="350.0" x2="760" y2="350.0" stroke="#e5e7eb" stroke-width="1"/>
  <text x="82" y="350.0" text-anchor="end" dominant-baseline="middle" fill="#374151" font-size="10">100</text>
  <line x1="90" y1="289.0" x2="760" y2="289.0" stroke="#e5e7eb" stroke-width="1"/>
  <text x="82" y="289.0" text-anchor="end" dominant-baseline="middle" fill="#374151" font-size="10">1k</text>
  <line x1="90" y1="228.0" x2="760" y2="228.0" stroke="#e5e7eb" stroke-width="1"/>
  <text x="82" y="228.0" text-anchor="end" dominant-baseline="middle" fill="#374151" font-size="10">10k</text>
  <line x1="90" y1="167.0" x2="760" y2="167.0" stroke="#e5e7eb" stroke-width="1"/>
  <text x="82" y="167.0" text-anchor="end" dominant-baseline="middle" fill="#374151" font-size="10">100k</text>
  <line x1="90" y1="106.0" x2="760" y2="106.0" stroke="#e5e7eb" stroke-width="1"/>
  <text x="82" y="106.0" text-anchor="end" dominant-baseline="middle" fill="#374151" font-size="10">1M</text>
  <line x1="90" y1="45.0" x2="760" y2="45.0" stroke="#e5e7eb" stroke-width="1"/>
  <text x="82" y="45.0" text-anchor="end" dominant-baseline="middle" fill="#374151" font-size="10">10M</text>
  <line x1="90" y1="331.6" x2="760" y2="331.6" stroke="#f0f0f0" stroke-width="0.5"/>
  <text x="82" y="331.6" text-anchor="end" dominant-baseline="middle" fill="#9ca3af" font-size="8">200</text>
  <line x1="90" y1="320.9" x2="760" y2="320.9" stroke="#f0f0f0" stroke-width="0.5"/>
  <text x="82" y="320.9" text-anchor="end" dominant-baseline="middle" fill="#9ca3af" font-size="8">300</text>
  <line x1="90" y1="307.4" x2="760" y2="307.4" stroke="#f0f0f0" stroke-width="0.5"/>
  <text x="82" y="307.4" text-anchor="end" dominant-baseline="middle" fill="#9ca3af" font-size="8">500</text>
  <line x1="90" y1="270.6" x2="760" y2="270.6" stroke="#f0f0f0" stroke-width="0.5"/>
  <text x="82" y="270.6" text-anchor="end" dominant-baseline="middle" fill="#9ca3af" font-size="8">2k</text>
  <line x1="90" y1="259.9" x2="760" y2="259.9" stroke="#f0f0f0" stroke-width="0.5"/>
  <text x="82" y="259.9" text-anchor="end" dominant-baseline="middle" fill="#9ca3af" font-size="8">3k</text>
  <line x1="90" y1="246.4" x2="760" y2="246.4" stroke="#f0f0f0" stroke-width="0.5"/>
  <text x="82" y="246.4" text-anchor="end" dominant-baseline="middle" fill="#9ca3af" font-size="8">5k</text>
  <line x1="90" y1="209.6" x2="760" y2="209.6" stroke="#f0f0f0" stroke-width="0.5"/>
  <text x="82" y="209.6" text-anchor="end" dominant-baseline="middle" fill="#9ca3af" font-size="8">20k</text>
  <line x1="90" y1="198.9" x2="760" y2="198.9" stroke="#f0f0f0" stroke-width="0.5"/>
  <text x="82" y="198.9" text-anchor="end" dominant-baseline="middle" fill="#9ca3af" font-size="8">30k</text>
  <line x1="90" y1="185.4" x2="760" y2="185.4" stroke="#f0f0f0" stroke-width="0.5"/>
  <text x="82" y="185.4" text-anchor="end" dominant-baseline="middle" fill="#9ca3af" font-size="8">50k</text>
  <line x1="90" y1="148.6" x2="760" y2="148.6" stroke="#f0f0f0" stroke-width="0.5"/>
  <text x="82" y="148.6" text-anchor="end" dominant-baseline="middle" fill="#9ca3af" font-size="8">200k</text>
  <line x1="90" y1="137.9" x2="760" y2="137.9" stroke="#f0f0f0" stroke-width="0.5"/>
  <text x="82" y="137.9" text-anchor="end" dominant-baseline="middle" fill="#9ca3af" font-size="8">300k</text>
  <line x1="90" y1="124.4" x2="760" y2="124.4" stroke="#f0f0f0" stroke-width="0.5"/>
  <text x="82" y="124.4" text-anchor="end" dominant-baseline="middle" fill="#9ca3af" font-size="8">500k</text>
  <line x1="90" y1="87.6" x2="760" y2="87.6" stroke="#f0f0f0" stroke-width="0.5"/>
  <text x="82" y="87.6" text-anchor="end" dominant-baseline="middle" fill="#9ca3af" font-size="8">2M</text>
  <line x1="90" y1="76.9" x2="760" y2="76.9" stroke="#f0f0f0" stroke-width="0.5"/>
  <text x="82" y="76.9" text-anchor="end" dominant-baseline="middle" fill="#9ca3af" font-size="8">3M</text>
  <line x1="90" y1="63.4" x2="760" y2="63.4" stroke="#f0f0f0" stroke-width="0.5"/>
  <text x="82" y="63.4" text-anchor="end" dominant-baseline="middle" fill="#9ca3af" font-size="8">5M</text>
  <line x1="90" y1="290.4" x2="760" y2="290.4" stroke="#e5e7eb" stroke-width="1" stroke-dasharray="3,6"/>
  <text x="768" y="290.4" text-anchor="start" dominant-baseline="middle" fill="#6b7280" font-size="10">200 MB/s</text>
  <line x1="90" y1="230.9" x2="760" y2="230.9" stroke="#e5e7eb" stroke-width="1" stroke-dasharray="3,6"/>
  <text x="768" y="230.9" text-anchor="start" dominant-baseline="middle" fill="#6b7280" font-size="10">400 MB/s</text>
  <line x1="90" y1="171.3" x2="760" y2="171.3" stroke="#e5e7eb" stroke-width="1" stroke-dasharray="3,6"/>
  <text x="768" y="171.3" text-anchor="start" dominant-baseline="middle" fill="#6b7280" font-size="10">600 MB/s</text>
  <line x1="90" y1="111.7" x2="760" y2="111.7" stroke="#e5e7eb" stroke-width="1" stroke-dasharray="3,6"/>
  <text x="768" y="111.7" text-anchor="start" dominant-baseline="middle" fill="#6b7280" font-size="10">800 MB/s</text>
  <line x1="90" y1="52.1" x2="760" y2="52.1" stroke="#e5e7eb" stroke-width="1" stroke-dasharray="3,6"/>
  <text x="768" y="52.1" text-anchor="start" dominant-baseline="middle" fill="#6b7280" font-size="10">1000 MB/s</text>
  <line x1="90.0" y1="45" x2="90.0" y2="350" stroke="#e5e7eb" stroke-width="1"/>
  <line x1="134.7" y1="45" x2="134.7" y2="350" stroke="#e5e7eb" stroke-width="1"/>
  <line x1="179.3" y1="45" x2="179.3" y2="350" stroke="#e5e7eb" stroke-width="1"/>
  <line x1="224.0" y1="45" x2="224.0" y2="350" stroke="#e5e7eb" stroke-width="1"/>
  <line x1="268.7" y1="45" x2="268.7" y2="350" stroke="#e5e7eb" stroke-width="1"/>
  <line x1="313.3" y1="45" x2="313.3" y2="350" stroke="#e5e7eb" stroke-width="1"/>
  <line x1="358.0" y1="45" x2="358.0" y2="350" stroke="#e5e7eb" stroke-width="1"/>
  <line x1="402.7" y1="45" x2="402.7" y2="350" stroke="#e5e7eb" stroke-width="1"/>
  <line x1="447.3" y1="45" x2="447.3" y2="350" stroke="#e5e7eb" stroke-width="1"/>
  <line x1="492.0" y1="45" x2="492.0" y2="350" stroke="#e5e7eb" stroke-width="1"/>
  <line x1="536.7" y1="45" x2="536.7" y2="350" stroke="#e5e7eb" stroke-width="1"/>
  <line x1="581.3" y1="45" x2="581.3" y2="350" stroke="#e5e7eb" stroke-width="1"/>
  <line x1="626.0" y1="45" x2="626.0" y2="350" stroke="#e5e7eb" stroke-width="1"/>
  <line x1="670.7" y1="45" x2="670.7" y2="350" stroke="#e5e7eb" stroke-width="1"/>
  <line x1="715.3" y1="45" x2="715.3" y2="350" stroke="#e5e7eb" stroke-width="1"/>
  <line x1="760.0" y1="45" x2="760.0" y2="350" stroke="#e5e7eb" stroke-width="1"/>
  <line x1="90" y1="45" x2="90" y2="350" stroke="#9ca3af" stroke-width="1.5"/>
  <line x1="760" y1="45" x2="760" y2="350" stroke="#9ca3af" stroke-width="1.5"/>
  <line x1="90" y1="350" x2="760" y2="350" stroke="#9ca3af" stroke-width="1.5"/>
  <text x="90.0" y="366" text-anchor="middle" fill="#374151" font-size="9.5">8 B</text>
  <text x="134.7" y="366" text-anchor="middle" fill="#374151" font-size="9.5">16 B</text>
  <text x="179.3" y="366" text-anchor="middle" fill="#374151" font-size="9.5">32 B</text>
  <text x="224.0" y="366" text-anchor="middle" fill="#374151" font-size="9.5">64 B</text>
  <text x="268.7" y="366" text-anchor="middle" fill="#374151" font-size="9.5">128 B</text>
  <text x="313.3" y="366" text-anchor="middle" fill="#374151" font-size="9.5">256 B</text>
  <text x="358.0" y="366" text-anchor="middle" fill="#374151" font-size="9.5">512 B</text>
  <text x="402.7" y="366" text-anchor="middle" fill="#374151" font-size="9.5">1 KiB</text>
  <text x="447.3" y="366" text-anchor="middle" fill="#374151" font-size="9.5">2 KiB</text>
  <text x="492.0" y="366" text-anchor="middle" fill="#374151" font-size="9.5">4 KiB</text>
  <text x="536.7" y="366" text-anchor="middle" fill="#374151" font-size="9.5">8 KiB</text>
  <text x="581.3" y="366" text-anchor="middle" fill="#374151" font-size="9.5">16 KiB</text>
  <text x="626.0" y="366" text-anchor="middle" fill="#374151" font-size="9.5">32 KiB</text>
  <text x="670.7" y="366" text-anchor="middle" fill="#374151" font-size="9.5">64 KiB</text>
  <text x="715.3" y="366" text-anchor="middle" fill="#374151" font-size="9.5">128 KiB</text>
  <text x="760.0" y="366" text-anchor="middle" fill="#374151" font-size="9.5">256 KiB</text>
  <text x="40" y="197.5" text-anchor="middle" dominant-baseline="middle" fill="#374151" font-size="11" font-weight="600" transform="rotate(-90,40,197.5)">msg/s (log)</text>
  <text x="830" y="197.5" text-anchor="middle" dominant-baseline="middle" fill="#6b7280" font-size="11" font-weight="600" transform="rotate(90,830,197.5)">virtual throughput</text>
  <text x="425.0" y="22" text-anchor="middle" fill="#111827" font-size="13" font-weight="700">Compression transports: structured JSON, 1 Gbps link (omq-compio)</text>
  <polyline points="90.0,329.9 134.7,317.0 179.3,315.0 224.0,313.9 268.7,313.4 313.3,314.1 358.0,313.5 402.7,313.1 447.3,313.0 492.0,312.9 536.7,312.9 581.3,312.8 626.0,312.8 670.7,312.8 715.3,312.8 760.0,312.8" fill="none" stroke="#eab308" stroke-width="2" stroke-dasharray="6,4"/>
  <polyline points="90.0,338.8 134.7,327.8 179.3,318.7 224.0,316.0 268.7,314.5 313.3,314.6 358.0,293.2 402.7,255.5 447.3,212.3 492.0,169.1 536.7,135.1 581.3,112.5 626.0,101.4 670.7,99.3 715.3,114.3 760.0,142.6" fill="none" stroke="#60a5fa" stroke-width="2" stroke-dasharray="6,4"/>
  <polyline points="90.0,340.0 134.7,329.8 179.3,343.0 224.0,338.1 268.7,322.8 313.3,295.0 358.0,233.1 402.7,181.9 447.3,143.7 492.0,80.3 536.7,77.8 581.3,81.9 626.0,86.9 670.7,95.2 715.3,117.2 760.0,148.9" fill="none" stroke="#1d4ed8" stroke-width="2" stroke-dasharray="6,4"/>
  <polyline points="90.0,341.4 134.7,333.0 179.3,318.7 224.0,346.6 268.7,343.7 313.3,336.0 358.0,332.7 402.7,261.0 447.3,221.1 492.0,183.1 536.7,153.9 581.3,153.3 626.0,137.8 670.7,148.3 715.3,123.6 760.0,142.0" fill="none" stroke="#f97316" stroke-width="2" stroke-dasharray="6,4"/>
  <polyline points="90.0,341.6 134.7,333.5 179.3,318.7 224.0,346.5 268.7,343.1 313.3,335.9 358.0,322.5 402.7,293.0 447.3,244.8 492.0,171.7 536.7,120.4 581.3,169.6 626.0,185.4 670.7,163.2 715.3,164.9 760.0,194.8" fill="none" stroke="#dc2626" stroke-width="2" stroke-dasharray="6,4"/>
  <polyline points="90.0,49.6 134.7,54.7 179.3,71.6 224.0,89.1 268.7,107.1 313.3,125.9 358.0,143.9 402.7,162.0 447.3,180.2 492.0,198.5 536.7,216.9 581.3,235.2 626.0,253.6 670.7,271.9 715.3,290.3 760.0,308.7" fill="none" stroke="#eab308" stroke-width="2.5" stroke-linecap="round" stroke-linejoin="round"/>
  <circle cx="90.0" cy="49.6" r="3" fill="#eab308" stroke="white" stroke-width="1"/>
  <circle cx="134.7" cy="54.7" r="3" fill="#eab308" stroke="white" stroke-width="1"/>
  <circle cx="179.3" cy="71.6" r="3" fill="#eab308" stroke="white" stroke-width="1"/>
  <circle cx="224.0" cy="89.1" r="3" fill="#eab308" stroke="white" stroke-width="1"/>
  <circle cx="268.7" cy="107.1" r="3" fill="#eab308" stroke="white" stroke-width="1"/>
  <circle cx="313.3" cy="125.9" r="3" fill="#eab308" stroke="white" stroke-width="1"/>
  <circle cx="358.0" cy="143.9" r="3" fill="#eab308" stroke="white" stroke-width="1"/>
  <circle cx="402.7" cy="162.0" r="3" fill="#eab308" stroke="white" stroke-width="1"/>
  <circle cx="447.3" cy="180.2" r="3" fill="#eab308" stroke="white" stroke-width="1"/>
  <circle cx="492.0" cy="198.5" r="3" fill="#eab308" stroke="white" stroke-width="1"/>
  <circle cx="536.7" cy="216.9" r="3" fill="#eab308" stroke="white" stroke-width="1"/>
  <circle cx="581.3" cy="235.2" r="3" fill="#eab308" stroke="white" stroke-width="1"/>
  <circle cx="626.0" cy="253.6" r="3" fill="#eab308" stroke="white" stroke-width="1"/>
  <circle cx="670.7" cy="271.9" r="3" fill="#eab308" stroke="white" stroke-width="1"/>
  <circle cx="715.3" cy="290.3" r="3" fill="#eab308" stroke="white" stroke-width="1"/>
  <circle cx="760.0" cy="308.7" r="3" fill="#eab308" stroke="white" stroke-width="1"/>
  <polyline points="90.0,65.0 134.7,65.2 179.3,74.5 224.0,90.7 268.7,107.9 313.3,126.3 358.0,132.2 402.7,137.1 447.3,145.4 492.0,156.6 536.7,170.4 581.3,186.1 626.0,203.2 670.7,221.4 715.3,241.4 760.0,263.1" fill="none" stroke="#60a5fa" stroke-width="2.5" stroke-linecap="round" stroke-linejoin="round"/>
  <circle cx="90.0" cy="65.0" r="3" fill="#60a5fa" stroke="white" stroke-width="1"/>
  <circle cx="134.7" cy="65.2" r="3" fill="#60a5fa" stroke="white" stroke-width="1"/>
  <circle cx="179.3" cy="74.5" r="3" fill="#60a5fa" stroke="white" stroke-width="1"/>
  <circle cx="224.0" cy="90.7" r="3" fill="#60a5fa" stroke="white" stroke-width="1"/>
  <circle cx="268.7" cy="107.9" r="3" fill="#60a5fa" stroke="white" stroke-width="1"/>
  <circle cx="313.3" cy="126.3" r="3" fill="#60a5fa" stroke="white" stroke-width="1"/>
  <circle cx="358.0" cy="132.2" r="3" fill="#60a5fa" stroke="white" stroke-width="1"/>
  <circle cx="402.7" cy="137.1" r="3" fill="#60a5fa" stroke="white" stroke-width="1"/>
  <circle cx="447.3" cy="145.4" r="3" fill="#60a5fa" stroke="white" stroke-width="1"/>
  <circle cx="492.0" cy="156.6" r="3" fill="#60a5fa" stroke="white" stroke-width="1"/>
  <circle cx="536.7" cy="170.4" r="3" fill="#60a5fa" stroke="white" stroke-width="1"/>
  <circle cx="581.3" cy="186.1" r="3" fill="#60a5fa" stroke="white" stroke-width="1"/>
  <circle cx="626.0" cy="203.2" r="3" fill="#60a5fa" stroke="white" stroke-width="1"/>
  <circle cx="670.7" cy="221.4" r="3" fill="#60a5fa" stroke="white" stroke-width="1"/>
  <circle cx="715.3" cy="241.4" r="3" fill="#60a5fa" stroke="white" stroke-width="1"/>
  <circle cx="760.0" cy="263.1" r="3" fill="#60a5fa" stroke="white" stroke-width="1"/>
  <polyline points="90.0,68.0 134.7,67.8 179.3,114.1 224.0,118.6 268.7,114.9 313.3,114.6 358.0,113.0 402.7,121.8 447.3,134.7 492.0,146.0 536.7,164.1 581.3,182.9 626.0,201.7 670.7,220.9 715.3,241.7 760.0,263.9" fill="none" stroke="#1d4ed8" stroke-width="2.5" stroke-linecap="round" stroke-linejoin="round"/>
  <circle cx="90.0" cy="68.0" r="3" fill="#1d4ed8" stroke="white" stroke-width="1"/>
  <circle cx="134.7" cy="67.8" r="3" fill="#1d4ed8" stroke="white" stroke-width="1"/>
  <circle cx="179.3" cy="114.1" r="3" fill="#1d4ed8" stroke="white" stroke-width="1"/>
  <circle cx="224.0" cy="118.6" r="3" fill="#1d4ed8" stroke="white" stroke-width="1"/>
  <circle cx="268.7" cy="114.9" r="3" fill="#1d4ed8" stroke="white" stroke-width="1"/>
  <circle cx="313.3" cy="114.6" r="3" fill="#1d4ed8" stroke="white" stroke-width="1"/>
  <circle cx="358.0" cy="113.0" r="3" fill="#1d4ed8" stroke="white" stroke-width="1"/>
  <circle cx="402.7" cy="121.8" r="3" fill="#1d4ed8" stroke="white" stroke-width="1"/>
  <circle cx="447.3" cy="134.7" r="3" fill="#1d4ed8" stroke="white" stroke-width="1"/>
  <circle cx="492.0" cy="146.0" r="3" fill="#1d4ed8" stroke="white" stroke-width="1"/>
  <circle cx="536.7" cy="164.1" r="3" fill="#1d4ed8" stroke="white" stroke-width="1"/>
  <circle cx="581.3" cy="182.9" r="3" fill="#1d4ed8" stroke="white" stroke-width="1"/>
  <circle cx="626.0" cy="201.7" r="3" fill="#1d4ed8" stroke="white" stroke-width="1"/>
  <circle cx="670.7" cy="220.9" r="3" fill="#1d4ed8" stroke="white" stroke-width="1"/>
  <circle cx="715.3" cy="241.7" r="3" fill="#1d4ed8" stroke="white" stroke-width="1"/>
  <circle cx="760.0" cy="263.9" r="3" fill="#1d4ed8" stroke="white" stroke-width="1"/>
  <polyline points="90.0,71.9 134.7,72.3 179.3,74.5 224.0,151.9 268.7,153.8 313.3,151.0 358.0,163.7 402.7,138.6 447.3,147.2 492.0,158.7 536.7,172.8 581.3,191.1 626.0,207.4 670.7,227.1 715.3,242.4 760.0,263.0" fill="none" stroke="#f97316" stroke-width="2.5" stroke-linecap="round" stroke-linejoin="round"/>
  <circle cx="90.0" cy="71.9" r="3" fill="#f97316" stroke="white" stroke-width="1"/>
  <circle cx="134.7" cy="72.3" r="3" fill="#f97316" stroke="white" stroke-width="1"/>
  <circle cx="179.3" cy="74.5" r="3" fill="#f97316" stroke="white" stroke-width="1"/>
  <circle cx="224.0" cy="151.9" r="3" fill="#f97316" stroke="white" stroke-width="1"/>
  <circle cx="268.7" cy="153.8" r="3" fill="#f97316" stroke="white" stroke-width="1"/>
  <circle cx="313.3" cy="151.0" r="3" fill="#f97316" stroke="white" stroke-width="1"/>
  <circle cx="358.0" cy="163.7" r="3" fill="#f97316" stroke="white" stroke-width="1"/>
  <circle cx="402.7" cy="138.6" r="3" fill="#f97316" stroke="white" stroke-width="1"/>
  <circle cx="447.3" cy="147.2" r="3" fill="#f97316" stroke="white" stroke-width="1"/>
  <circle cx="492.0" cy="158.7" r="3" fill="#f97316" stroke="white" stroke-width="1"/>
  <circle cx="536.7" cy="172.8" r="3" fill="#f97316" stroke="white" stroke-width="1"/>
  <circle cx="581.3" cy="191.1" r="3" fill="#f97316" stroke="white" stroke-width="1"/>
  <circle cx="626.0" cy="207.4" r="3" fill="#f97316" stroke="white" stroke-width="1"/>
  <circle cx="670.7" cy="227.1" r="3" fill="#f97316" stroke="white" stroke-width="1"/>
  <circle cx="715.3" cy="242.4" r="3" fill="#f97316" stroke="white" stroke-width="1"/>
  <circle cx="760.0" cy="263.0" r="3" fill="#f97316" stroke="white" stroke-width="1"/>
  <polyline points="90.0,72.6 134.7,73.1 179.3,74.5 224.0,151.3 268.7,151.2 313.3,150.8 358.0,151.4 402.7,150.4 447.3,152.6 492.0,156.9 536.7,168.6 581.3,193.4 626.0,214.2 670.7,229.2 715.3,247.8 760.0,270.8" fill="none" stroke="#dc2626" stroke-width="2.5" stroke-linecap="round" stroke-linejoin="round"/>
  <circle cx="90.0" cy="72.6" r="3" fill="#dc2626" stroke="white" stroke-width="1"/>
  <circle cx="134.7" cy="73.1" r="3" fill="#dc2626" stroke="white" stroke-width="1"/>
  <circle cx="179.3" cy="74.5" r="3" fill="#dc2626" stroke="white" stroke-width="1"/>
  <circle cx="224.0" cy="151.3" r="3" fill="#dc2626" stroke="white" stroke-width="1"/>
  <circle cx="268.7" cy="151.2" r="3" fill="#dc2626" stroke="white" stroke-width="1"/>
  <circle cx="313.3" cy="150.8" r="3" fill="#dc2626" stroke="white" stroke-width="1"/>
  <circle cx="358.0" cy="151.4" r="3" fill="#dc2626" stroke="white" stroke-width="1"/>
  <circle cx="402.7" cy="150.4" r="3" fill="#dc2626" stroke="white" stroke-width="1"/>
  <circle cx="447.3" cy="152.6" r="3" fill="#dc2626" stroke="white" stroke-width="1"/>
  <circle cx="492.0" cy="156.9" r="3" fill="#dc2626" stroke="white" stroke-width="1"/>
  <circle cx="536.7" cy="168.6" r="3" fill="#dc2626" stroke="white" stroke-width="1"/>
  <circle cx="581.3" cy="193.4" r="3" fill="#dc2626" stroke="white" stroke-width="1"/>
  <circle cx="626.0" cy="214.2" r="3" fill="#dc2626" stroke="white" stroke-width="1"/>
  <circle cx="670.7" cy="229.2" r="3" fill="#dc2626" stroke="white" stroke-width="1"/>
  <circle cx="715.3" cy="247.8" r="3" fill="#dc2626" stroke="white" stroke-width="1"/>
  <circle cx="760.0" cy="270.8" r="3" fill="#dc2626" stroke="white" stroke-width="1"/>
  <line x1="90" y1="388" x2="104" y2="388" stroke="#eab308" stroke-width="2.5"/>
  <line x1="90" y1="400" x2="104" y2="400" stroke="#eab308" stroke-width="2" stroke-dasharray="4,3"/>
  <text x="108" y="392" fill="#374151" font-size="10" font-weight="500">tcp</text>
  <line x1="220" y1="388" x2="234" y2="388" stroke="#60a5fa" stroke-width="2.5"/>
  <line x1="220" y1="400" x2="234" y2="400" stroke="#60a5fa" stroke-width="2" stroke-dasharray="4,3"/>
  <text x="238" y="392" fill="#374151" font-size="10" font-weight="500">lz4</text>
  <line x1="360" y1="388" x2="374" y2="388" stroke="#1d4ed8" stroke-width="2.5"/>
  <line x1="360" y1="400" x2="374" y2="400" stroke="#1d4ed8" stroke-width="2" stroke-dasharray="4,3"/>
  <text x="378" y="392" fill="#374151" font-size="10" font-weight="500">lz4+dict</text>
  <line x1="500" y1="388" x2="514" y2="388" stroke="#f97316" stroke-width="2.5"/>
  <line x1="500" y1="400" x2="514" y2="400" stroke="#f97316" stroke-width="2" stroke-dasharray="4,3"/>
  <text x="518" y="392" fill="#374151" font-size="10" font-weight="500">zstd</text>
  <line x1="630" y1="388" x2="644" y2="388" stroke="#dc2626" stroke-width="2.5"/>
  <line x1="630" y1="400" x2="644" y2="400" stroke="#dc2626" stroke-width="2" stroke-dasharray="4,3"/>
  <text x="648" y="392" fill="#374151" font-size="10" font-weight="500">zstd+dict</text>
  <text x="425.0" y="418" text-anchor="middle" fill="#9ca3af" font-size="9">solid = msg/s (left, log) · dashed = virtual throughput (right, linear)</text>
</svg>
