<svg xmlns="http://www.w3.org/2000/svg" viewBox="0 0 850 665" font-family="system-ui, -apple-system, sans-serif">
  <rect width="850" height="665" fill="white"/>
  <text x="425.0" y="18.0" text-anchor="middle" fill="#111827" font-size="13" font-weight="700">PUSH/PULL throughput — inproc (higher is better)</text>
  <line x1="90.0" y1="251.2" x2="760.0" y2="251.2" stroke="#e5e7eb" stroke-width="1"/>
  <text x="82.0" y="251.2" text-anchor="end" dominant-baseline="middle" fill="#374151" font-size="10">2M</text>
  <line x1="90.0" y1="232.4" x2="760.0" y2="232.4" stroke="#e5e7eb" stroke-width="1"/>
  <text x="82.0" y="232.4" text-anchor="end" dominant-baseline="middle" fill="#374151" font-size="10">4M</text>
  <line x1="90.0" y1="213.6" x2="760.0" y2="213.6" stroke="#e5e7eb" stroke-width="1"/>
  <text x="82.0" y="213.6" text-anchor="end" dominant-baseline="middle" fill="#374151" font-size="10">6M</text>
  <line x1="90.0" y1="194.8" x2="760.0" y2="194.8" stroke="#e5e7eb" stroke-width="1"/>
  <text x="82.0" y="194.8" text-anchor="end" dominant-baseline="middle" fill="#374151" font-size="10">8M</text>
  <line x1="90.0" y1="176.0" x2="760.0" y2="176.0" stroke="#e5e7eb" stroke-width="1"/>
  <text x="82.0" y="176.0" text-anchor="end" dominant-baseline="middle" fill="#374151" font-size="10">10M</text>
  <line x1="90.0" y1="157.2" x2="760.0" y2="157.2" stroke="#e5e7eb" stroke-width="1"/>
  <text x="82.0" y="157.2" text-anchor="end" dominant-baseline="middle" fill="#374151" font-size="10">12M</text>
  <line x1="90.0" y1="138.4" x2="760.0" y2="138.4" stroke="#e5e7eb" stroke-width="1"/>
  <text x="82.0" y="138.4" text-anchor="end" dominant-baseline="middle" fill="#374151" font-size="10">14M</text>
  <line x1="90.0" y1="119.6" x2="760.0" y2="119.6" stroke="#e5e7eb" stroke-width="1"/>
  <text x="82.0" y="119.6" text-anchor="end" dominant-baseline="middle" fill="#374151" font-size="10">16M</text>
  <line x1="90.0" y1="100.8" x2="760.0" y2="100.8" stroke="#e5e7eb" stroke-width="1"/>
  <text x="82.0" y="100.8" text-anchor="end" dominant-baseline="middle" fill="#374151" font-size="10">18M</text>
  <line x1="90.0" y1="82.0" x2="760.0" y2="82.0" stroke="#e5e7eb" stroke-width="1"/>
  <text x="82.0" y="82.0" text-anchor="end" dominant-baseline="middle" fill="#374151" font-size="10">20M</text>
  <line x1="90.0" y1="63.2" x2="760.0" y2="63.2" stroke="#e5e7eb" stroke-width="1"/>
  <text x="82.0" y="63.2" text-anchor="end" dominant-baseline="middle" fill="#374151" font-size="10">22M</text>
  <line x1="90.0" y1="44.4" x2="760.0" y2="44.4" stroke="#e5e7eb" stroke-width="1"/>
  <text x="82.0" y="44.4" text-anchor="end" dominant-baseline="middle" fill="#374151" font-size="10">24M</text>
  <line x1="90.0" y1="270.0" x2="760.0" y2="270.0" stroke="#e5e7eb" stroke-width="1" stroke-dasharray="3,6"/>
  <text x="768.0" y="270.0" text-anchor="start" dominant-baseline="middle" fill="#6b7280" font-size="10">0.001 GB/s</text>
  <line x1="90.0" y1="258.2" x2="760.0" y2="258.2" stroke="#e5e7eb" stroke-width="1" stroke-dasharray="2,8"/>
  <line x1="90.0" y1="242.6" x2="760.0" y2="242.6" stroke="#e5e7eb" stroke-width="1" stroke-dasharray="2,8"/>
  <line x1="90.0" y1="230.8" x2="760.0" y2="230.8" stroke="#e5e7eb" stroke-width="1" stroke-dasharray="3,6"/>
  <text x="768.0" y="230.8" text-anchor="start" dominant-baseline="middle" fill="#6b7280" font-size="10">0.01 GB/s</text>
  <line x1="90.0" y1="219.0" x2="760.0" y2="219.0" stroke="#e5e7eb" stroke-width="1" stroke-dasharray="2,8"/>
  <line x1="90.0" y1="203.5" x2="760.0" y2="203.5" stroke="#e5e7eb" stroke-width="1" stroke-dasharray="2,8"/>
  <line x1="90.0" y1="191.7" x2="760.0" y2="191.7" stroke="#e5e7eb" stroke-width="1" stroke-dasharray="3,6"/>
  <text x="768.0" y="191.7" text-anchor="start" dominant-baseline="middle" fill="#6b7280" font-size="10">0.1 GB/s</text>
  <line x1="90.0" y1="179.9" x2="760.0" y2="179.9" stroke="#e5e7eb" stroke-width="1" stroke-dasharray="2,8"/>
  <line x1="90.0" y1="164.3" x2="760.0" y2="164.3" stroke="#e5e7eb" stroke-width="1" stroke-dasharray="2,8"/>
  <line x1="90.0" y1="152.5" x2="760.0" y2="152.5" stroke="#e5e7eb" stroke-width="1" stroke-dasharray="3,6"/>
  <text x="768.0" y="152.5" text-anchor="start" dominant-baseline="middle" fill="#6b7280" font-size="10">1 GB/s</text>
  <line x1="90.0" y1="140.7" x2="760.0" y2="140.7" stroke="#e5e7eb" stroke-width="1" stroke-dasharray="2,8"/>
  <line x1="90.0" y1="125.1" x2="760.0" y2="125.1" stroke="#e5e7eb" stroke-width="1" stroke-dasharray="2,8"/>
  <line x1="90.0" y1="113.3" x2="760.0" y2="113.3" stroke="#e5e7eb" stroke-width="1" stroke-dasharray="3,6"/>
  <text x="768.0" y="113.3" text-anchor="start" dominant-baseline="middle" fill="#6b7280" font-size="10">10 GB/s</text>
  <line x1="90.0" y1="101.5" x2="760.0" y2="101.5" stroke="#e5e7eb" stroke-width="1" stroke-dasharray="2,8"/>
  <line x1="90.0" y1="86.0" x2="760.0" y2="86.0" stroke="#e5e7eb" stroke-width="1" stroke-dasharray="2,8"/>
  <line x1="90.0" y1="74.2" x2="760.0" y2="74.2" stroke="#e5e7eb" stroke-width="1" stroke-dasharray="3,6"/>
  <text x="768.0" y="74.2" text-anchor="start" dominant-baseline="middle" fill="#6b7280" font-size="10">100 GB/s</text>
  <line x1="90.0" y1="62.4" x2="760.0" y2="62.4" stroke="#e5e7eb" stroke-width="1" stroke-dasharray="2,8"/>
  <line x1="90.0" y1="46.8" x2="760.0" y2="46.8" stroke="#e5e7eb" stroke-width="1" stroke-dasharray="2,8"/>
  <line x1="90.0" y1="35.0" x2="760.0" y2="35.0" stroke="#e5e7eb" stroke-width="1" stroke-dasharray="3,6"/>
  <text x="768.0" y="35.0" text-anchor="start" dominant-baseline="middle" fill="#6b7280" font-size="10">1000 GB/s</text>
  <line x1="90.0" y1="35.0" x2="90.0" y2="270.0" stroke="#e5e7eb" stroke-width="1"/>
  <line x1="145.8" y1="35.0" x2="145.8" y2="270.0" stroke="#e5e7eb" stroke-width="1"/>
  <line x1="201.7" y1="35.0" x2="201.7" y2="270.0" stroke="#e5e7eb" stroke-width="1"/>
  <line x1="257.5" y1="35.0" x2="257.5" y2="270.0" stroke="#e5e7eb" stroke-width="1"/>
  <line x1="313.3" y1="35.0" x2="313.3" y2="270.0" stroke="#e5e7eb" stroke-width="1"/>
  <line x1="369.2" y1="35.0" x2="369.2" y2="270.0" stroke="#e5e7eb" stroke-width="1"/>
  <line x1="425.0" y1="35.0" x2="425.0" y2="270.0" stroke="#e5e7eb" stroke-width="1"/>
  <line x1="480.8" y1="35.0" x2="480.8" y2="270.0" stroke="#e5e7eb" stroke-width="1"/>
  <line x1="536.7" y1="35.0" x2="536.7" y2="270.0" stroke="#e5e7eb" stroke-width="1"/>
  <line x1="592.5" y1="35.0" x2="592.5" y2="270.0" stroke="#e5e7eb" stroke-width="1"/>
  <line x1="648.3" y1="35.0" x2="648.3" y2="270.0" stroke="#e5e7eb" stroke-width="1"/>
  <line x1="704.2" y1="35.0" x2="704.2" y2="270.0" stroke="#e5e7eb" stroke-width="1"/>
  <line x1="760.0" y1="35.0" x2="760.0" y2="270.0" stroke="#e5e7eb" stroke-width="1"/>
  <line x1="90.0" y1="35.0" x2="90.0" y2="270.0" stroke="#9ca3af" stroke-width="1.5"/>
  <line x1="760.0" y1="35.0" x2="760.0" y2="270.0" stroke="#9ca3af" stroke-width="1.5"/>
  <line x1="90.0" y1="270.0" x2="760.0" y2="270.0" stroke="#9ca3af" stroke-width="1.5"/>
  <text x="40.0" y="152.5" text-anchor="middle" fill="#374151" font-size="10" font-weight="600" transform="rotate(-90,40.0,152.5)">msg/s</text>
  <polyline points="90.0,258.0 145.8,258.3 201.7,258.1 257.5,258.1 313.3,258.6 369.2,258.1 425.0,258.0 480.8,258.0 536.7,258.1 592.5,257.9 648.3,258.3 704.2,257.9 760.0,257.9" fill="none" stroke="#10b981" stroke-width="2" stroke-dasharray="6,4"/>
  <polyline points="90.0,166.1 145.8,162.9 201.7,167.2 257.5,208.2 313.3,245.2 369.2,244.3 425.0,242.9 480.8,248.2 536.7,250.7 592.5,252.9 648.3,252.8 704.2,257.0 760.0,262.7" fill="none" stroke="#eab308" stroke-width="2" stroke-dasharray="6,4"/>
  <polyline points="90.0,239.5 145.8,237.7 201.7,238.8 257.5,234.7 313.3,236.1 369.2,232.1 425.0,235.0 480.8,234.8 536.7,237.0 592.5,232.6 648.3,236.5 704.2,235.4 760.0,236.3" fill="none" stroke="#f97316" stroke-width="2" stroke-dasharray="6,4"/>
  <polyline points="90.0,227.0 145.8,229.1 201.7,225.8 257.5,228.3 313.3,229.8 369.2,227.8 425.0,229.1 480.8,229.3 536.7,226.2 592.5,228.5 648.3,228.6 704.2,228.2 760.0,226.8" fill="none" stroke="#8b5cf6" stroke-width="2" stroke-dasharray="6,4"/>
  <polyline points="90.0,127.3 145.8,120.7 201.7,134.9 257.5,103.5 313.3,101.8 369.2,97.1 425.0,107.9 480.8,110.5 536.7,94.9 592.5,101.2 648.3,100.8 704.2,104.2 760.0,105.3" fill="none" stroke="#dc2626" stroke-width="2" stroke-dasharray="6,4"/>
  <polyline points="90.0,230.5 145.8,219.1 201.7,207.0 257.5,195.3 313.3,184.2 369.2,171.7 425.0,159.7 480.8,148.0 536.7,136.2 592.5,124.2 648.3,113.0 704.2,100.6 760.0,88.9" fill="none" stroke="#10b981" stroke-width="2.5" stroke-linecap="round" stroke-linejoin="round"/>
  <circle cx="90.0" cy="230.5" r="3" fill="#10b981" stroke="white" stroke-width="1"/>
  <circle cx="145.8" cy="219.1" r="3" fill="#10b981" stroke="white" stroke-width="1"/>
  <circle cx="201.7" cy="207.0" r="3" fill="#10b981" stroke="white" stroke-width="1"/>
  <circle cx="257.5" cy="195.3" r="3" fill="#10b981" stroke="white" stroke-width="1"/>
  <circle cx="313.3" cy="184.2" r="3" fill="#10b981" stroke="white" stroke-width="1"/>
  <circle cx="369.2" cy="171.7" r="3" fill="#10b981" stroke="white" stroke-width="1"/>
  <circle cx="425.0" cy="159.7" r="3" fill="#10b981" stroke="white" stroke-width="1"/>
  <circle cx="480.8" cy="148.0" r="3" fill="#10b981" stroke="white" stroke-width="1"/>
  <circle cx="536.7" cy="136.2" r="3" fill="#10b981" stroke="white" stroke-width="1"/>
  <circle cx="592.5" cy="124.2" r="3" fill="#10b981" stroke="white" stroke-width="1"/>
  <circle cx="648.3" cy="113.0" r="3" fill="#10b981" stroke="white" stroke-width="1"/>
  <circle cx="704.2" cy="100.6" r="3" fill="#10b981" stroke="white" stroke-width="1"/>
  <circle cx="760.0" cy="88.9" r="3" fill="#10b981" stroke="white" stroke-width="1"/>
  <polyline points="90.0,193.8 145.8,181.5 201.7,170.4 257.5,167.2 313.3,171.0 369.2,158.6 425.0,145.9 480.8,137.8 536.7,128.1 592.5,118.3 648.3,106.4 704.2,99.5 760.0,97.4" fill="none" stroke="#eab308" stroke-width="2.5" stroke-linecap="round" stroke-linejoin="round"/>
  <circle cx="90.0" cy="193.8" r="3" fill="#eab308" stroke="white" stroke-width="1"/>
  <circle cx="145.8" cy="181.5" r="3" fill="#eab308" stroke="white" stroke-width="1"/>
  <circle cx="201.7" cy="170.4" r="3" fill="#eab308" stroke="white" stroke-width="1"/>
  <circle cx="257.5" cy="167.2" r="3" fill="#eab308" stroke="white" stroke-width="1"/>
  <circle cx="313.3" cy="171.0" r="3" fill="#eab308" stroke="white" stroke-width="1"/>
  <circle cx="369.2" cy="158.6" r="3" fill="#eab308" stroke="white" stroke-width="1"/>
  <circle cx="425.0" cy="145.9" r="3" fill="#eab308" stroke="white" stroke-width="1"/>
  <circle cx="480.8" cy="137.8" r="3" fill="#eab308" stroke="white" stroke-width="1"/>
  <circle cx="536.7" cy="128.1" r="3" fill="#eab308" stroke="white" stroke-width="1"/>
  <circle cx="592.5" cy="118.3" r="3" fill="#eab308" stroke="white" stroke-width="1"/>
  <circle cx="648.3" cy="106.4" r="3" fill="#eab308" stroke="white" stroke-width="1"/>
  <circle cx="704.2" cy="99.5" r="3" fill="#eab308" stroke="white" stroke-width="1"/>
  <circle cx="760.0" cy="97.4" r="3" fill="#eab308" stroke="white" stroke-width="1"/>
  <polyline points="90.0,214.6 145.8,201.8 201.7,190.7 257.5,176.8 313.3,165.7 369.2,152.0 425.0,141.5 480.8,129.7 536.7,118.9 592.5,105.0 648.3,95.1 704.2,82.8 760.0,71.4" fill="none" stroke="#f97316" stroke-width="2.5" stroke-linecap="round" stroke-linejoin="round"/>
  <circle cx="90.0" cy="214.6" r="3" fill="#f97316" stroke="white" stroke-width="1"/>
  <circle cx="145.8" cy="201.8" r="3" fill="#f97316" stroke="white" stroke-width="1"/>
  <circle cx="201.7" cy="190.7" r="3" fill="#f97316" stroke="white" stroke-width="1"/>
  <circle cx="257.5" cy="176.8" r="3" fill="#f97316" stroke="white" stroke-width="1"/>
  <circle cx="313.3" cy="165.7" r="3" fill="#f97316" stroke="white" stroke-width="1"/>
  <circle cx="369.2" cy="152.0" r="3" fill="#f97316" stroke="white" stroke-width="1"/>
  <circle cx="425.0" cy="141.5" r="3" fill="#f97316" stroke="white" stroke-width="1"/>
  <circle cx="480.8" cy="129.7" r="3" fill="#f97316" stroke="white" stroke-width="1"/>
  <circle cx="536.7" cy="118.9" r="3" fill="#f97316" stroke="white" stroke-width="1"/>
  <circle cx="592.5" cy="105.0" r="3" fill="#f97316" stroke="white" stroke-width="1"/>
  <circle cx="648.3" cy="95.1" r="3" fill="#f97316" stroke="white" stroke-width="1"/>
  <circle cx="704.2" cy="82.8" r="3" fill="#f97316" stroke="white" stroke-width="1"/>
  <circle cx="760.0" cy="71.4" r="3" fill="#f97316" stroke="white" stroke-width="1"/>
  <polyline points="90.0,208.8 145.8,197.8 201.7,184.7 257.5,173.9 313.3,162.7 369.2,150.2 425.0,138.9 480.8,127.2 536.7,114.1 592.5,103.3 648.3,91.5 704.2,79.6 760.0,67.2" fill="none" stroke="#8b5cf6" stroke-width="2.5" stroke-linecap="round" stroke-linejoin="round"/>
  <circle cx="90.0" cy="208.8" r="3" fill="#8b5cf6" stroke="white" stroke-width="1"/>
  <circle cx="145.8" cy="197.8" r="3" fill="#8b5cf6" stroke="white" stroke-width="1"/>
  <circle cx="201.7" cy="184.7" r="3" fill="#8b5cf6" stroke="white" stroke-width="1"/>
  <circle cx="257.5" cy="173.9" r="3" fill="#8b5cf6" stroke="white" stroke-width="1"/>
  <circle cx="313.3" cy="162.7" r="3" fill="#8b5cf6" stroke="white" stroke-width="1"/>
  <circle cx="369.2" cy="150.2" r="3" fill="#8b5cf6" stroke="white" stroke-width="1"/>
  <circle cx="425.0" cy="138.9" r="3" fill="#8b5cf6" stroke="white" stroke-width="1"/>
  <circle cx="480.8" cy="127.2" r="3" fill="#8b5cf6" stroke="white" stroke-width="1"/>
  <circle cx="536.7" cy="114.1" r="3" fill="#8b5cf6" stroke="white" stroke-width="1"/>
  <circle cx="592.5" cy="103.3" r="3" fill="#8b5cf6" stroke="white" stroke-width="1"/>
  <circle cx="648.3" cy="91.5" r="3" fill="#8b5cf6" stroke="white" stroke-width="1"/>
  <circle cx="704.2" cy="79.6" r="3" fill="#8b5cf6" stroke="white" stroke-width="1"/>
  <circle cx="760.0" cy="67.2" r="3" fill="#8b5cf6" stroke="white" stroke-width="1"/>
  <polyline points="90.0,188.4 145.8,175.8 201.7,165.7 257.5,150.4 313.3,138.4 369.2,126.1 425.0,115.5 480.8,103.9 536.7,90.6 592.5,79.4 648.3,67.6 704.2,56.1 760.0,44.4" fill="none" stroke="#dc2626" stroke-width="2.5" stroke-linecap="round" stroke-linejoin="round"/>
  <circle cx="90.0" cy="188.4" r="3" fill="#dc2626" stroke="white" stroke-width="1"/>
  <circle cx="145.8" cy="175.8" r="3" fill="#dc2626" stroke="white" stroke-width="1"/>
  <circle cx="201.7" cy="165.7" r="3" fill="#dc2626" stroke="white" stroke-width="1"/>
  <circle cx="257.5" cy="150.4" r="3" fill="#dc2626" stroke="white" stroke-width="1"/>
  <circle cx="313.3" cy="138.4" r="3" fill="#dc2626" stroke="white" stroke-width="1"/>
  <circle cx="369.2" cy="126.1" r="3" fill="#dc2626" stroke="white" stroke-width="1"/>
  <circle cx="425.0" cy="115.5" r="3" fill="#dc2626" stroke="white" stroke-width="1"/>
  <circle cx="480.8" cy="103.9" r="3" fill="#dc2626" stroke="white" stroke-width="1"/>
  <circle cx="536.7" cy="90.6" r="3" fill="#dc2626" stroke="white" stroke-width="1"/>
  <circle cx="592.5" cy="79.4" r="3" fill="#dc2626" stroke="white" stroke-width="1"/>
  <circle cx="648.3" cy="67.6" r="3" fill="#dc2626" stroke="white" stroke-width="1"/>
  <circle cx="704.2" cy="56.1" r="3" fill="#dc2626" stroke="white" stroke-width="1"/>
  <circle cx="760.0" cy="44.4" r="3" fill="#dc2626" stroke="white" stroke-width="1"/>
  <text x="90.0" y="284.0" text-anchor="middle" fill="#374151" font-size="8.5">8 B</text>
  <text x="145.8" y="284.0" text-anchor="middle" fill="#374151" font-size="8.5">16 B</text>
  <text x="201.7" y="284.0" text-anchor="middle" fill="#374151" font-size="8.5">32 B</text>
  <text x="257.5" y="284.0" text-anchor="middle" fill="#374151" font-size="8.5">64 B</text>
  <text x="313.3" y="284.0" text-anchor="middle" fill="#374151" font-size="8.5">128 B</text>
  <text x="369.2" y="284.0" text-anchor="middle" fill="#374151" font-size="8.5">256 B</text>
  <text x="425.0" y="284.0" text-anchor="middle" fill="#374151" font-size="8.5">512 B</text>
  <text x="480.8" y="284.0" text-anchor="middle" fill="#374151" font-size="8.5">1 KiB</text>
  <text x="536.7" y="284.0" text-anchor="middle" fill="#374151" font-size="8.5">2 KiB</text>
  <text x="592.5" y="284.0" text-anchor="middle" fill="#374151" font-size="8.5">4 KiB</text>
  <text x="648.3" y="284.0" text-anchor="middle" fill="#374151" font-size="8.5">8 KiB</text>
  <text x="704.2" y="284.0" text-anchor="middle" fill="#374151" font-size="8.5">16 KiB</text>
  <text x="760.0" y="284.0" text-anchor="middle" fill="#374151" font-size="8.5">32 KiB</text>
  <text x="425.0" y="333.0" text-anchor="middle" fill="#111827" font-size="13" font-weight="700">REQ/REP latency — inproc (p50 µs, lower is better)</text>
  <line x1="90.0" y1="502.0" x2="760.0" y2="502.0" stroke="#e5e7eb" stroke-width="1"/>
  <text x="82.0" y="502.0" text-anchor="end" dominant-baseline="middle" fill="#374151" font-size="10">5</text>
  <line x1="90.0" y1="464.0" x2="760.0" y2="464.0" stroke="#e5e7eb" stroke-width="1"/>
  <text x="82.0" y="464.0" text-anchor="end" dominant-baseline="middle" fill="#374151" font-size="10">10</text>
  <line x1="90.0" y1="426.0" x2="760.0" y2="426.0" stroke="#e5e7eb" stroke-width="1"/>
  <text x="82.0" y="426.0" text-anchor="end" dominant-baseline="middle" fill="#374151" font-size="10">15</text>
  <line x1="90.0" y1="388.0" x2="760.0" y2="388.0" stroke="#e5e7eb" stroke-width="1"/>
  <text x="82.0" y="388.0" text-anchor="end" dominant-baseline="middle" fill="#374151" font-size="10">20</text>
  <line x1="90.0" y1="350.0" x2="760.0" y2="350.0" stroke="#e5e7eb" stroke-width="1"/>
  <text x="82.0" y="350.0" text-anchor="end" dominant-baseline="middle" fill="#374151" font-size="10">25</text>
  <line x1="90.0" y1="350.0" x2="90.0" y2="540.0" stroke="#e5e7eb" stroke-width="1"/>
  <line x1="145.8" y1="350.0" x2="145.8" y2="540.0" stroke="#e5e7eb" stroke-width="1"/>
  <line x1="201.7" y1="350.0" x2="201.7" y2="540.0" stroke="#e5e7eb" stroke-width="1"/>
  <line x1="257.5" y1="350.0" x2="257.5" y2="540.0" stroke="#e5e7eb" stroke-width="1"/>
  <line x1="313.3" y1="350.0" x2="313.3" y2="540.0" stroke="#e5e7eb" stroke-width="1"/>
  <line x1="369.2" y1="350.0" x2="369.2" y2="540.0" stroke="#e5e7eb" stroke-width="1"/>
  <line x1="425.0" y1="350.0" x2="425.0" y2="540.0" stroke="#e5e7eb" stroke-width="1"/>
  <line x1="480.8" y1="350.0" x2="480.8" y2="540.0" stroke="#e5e7eb" stroke-width="1"/>
  <line x1="536.7" y1="350.0" x2="536.7" y2="540.0" stroke="#e5e7eb" stroke-width="1"/>
  <line x1="592.5" y1="350.0" x2="592.5" y2="540.0" stroke="#e5e7eb" stroke-width="1"/>
  <line x1="648.3" y1="350.0" x2="648.3" y2="540.0" stroke="#e5e7eb" stroke-width="1"/>
  <line x1="704.2" y1="350.0" x2="704.2" y2="540.0" stroke="#e5e7eb" stroke-width="1"/>
  <line x1="760.0" y1="350.0" x2="760.0" y2="540.0" stroke="#e5e7eb" stroke-width="1"/>
  <line x1="90.0" y1="350.0" x2="90.0" y2="540.0" stroke="#9ca3af" stroke-width="1.5"/>
  <line x1="90.0" y1="540.0" x2="760.0" y2="540.0" stroke="#9ca3af" stroke-width="1.5"/>
  <text x="40.0" y="445.0" text-anchor="middle" fill="#374151" font-size="10" font-weight="600" transform="rotate(-90,40.0,445.0)">p50 latency (µs)</text>
  <polyline points="90.0,397.4 145.8,387.0 201.7,391.4 257.5,392.2 313.3,386.0 369.2,383.1 425.0,383.0 480.8,381.6 536.7,387.5 592.5,386.6 648.3,377.5 704.2,379.3 760.0,359.0" fill="none" stroke="#eab308" stroke-width="2.5" stroke-linecap="round" stroke-linejoin="round"/>
  <circle cx="90.0" cy="397.4" r="3" fill="#eab308" stroke="white" stroke-width="1"/>
  <circle cx="145.8" cy="387.0" r="3" fill="#eab308" stroke="white" stroke-width="1"/>
  <circle cx="201.7" cy="391.4" r="3" fill="#eab308" stroke="white" stroke-width="1"/>
  <circle cx="257.5" cy="392.2" r="3" fill="#eab308" stroke="white" stroke-width="1"/>
  <circle cx="313.3" cy="386.0" r="3" fill="#eab308" stroke="white" stroke-width="1"/>
  <circle cx="369.2" cy="383.1" r="3" fill="#eab308" stroke="white" stroke-width="1"/>
  <circle cx="425.0" cy="383.0" r="3" fill="#eab308" stroke="white" stroke-width="1"/>
  <circle cx="480.8" cy="381.6" r="3" fill="#eab308" stroke="white" stroke-width="1"/>
  <circle cx="536.7" cy="387.5" r="3" fill="#eab308" stroke="white" stroke-width="1"/>
  <circle cx="592.5" cy="386.6" r="3" fill="#eab308" stroke="white" stroke-width="1"/>
  <circle cx="648.3" cy="377.5" r="3" fill="#eab308" stroke="white" stroke-width="1"/>
  <circle cx="704.2" cy="379.3" r="3" fill="#eab308" stroke="white" stroke-width="1"/>
  <circle cx="760.0" cy="359.0" r="3" fill="#eab308" stroke="white" stroke-width="1"/>
  <polyline points="90.0,417.5 145.8,422.4 201.7,389.9 257.5,406.1 313.3,413.8 369.2,421.1 425.0,425.7 480.8,421.4 536.7,423.8 592.5,391.5 648.3,424.5 704.2,418.3 760.0,424.8" fill="none" stroke="#f97316" stroke-width="2.5" stroke-linecap="round" stroke-linejoin="round"/>
  <circle cx="90.0" cy="417.5" r="3" fill="#f97316" stroke="white" stroke-width="1"/>
  <circle cx="145.8" cy="422.4" r="3" fill="#f97316" stroke="white" stroke-width="1"/>
  <circle cx="201.7" cy="389.9" r="3" fill="#f97316" stroke="white" stroke-width="1"/>
  <circle cx="257.5" cy="406.1" r="3" fill="#f97316" stroke="white" stroke-width="1"/>
  <circle cx="313.3" cy="413.8" r="3" fill="#f97316" stroke="white" stroke-width="1"/>
  <circle cx="369.2" cy="421.1" r="3" fill="#f97316" stroke="white" stroke-width="1"/>
  <circle cx="425.0" cy="425.7" r="3" fill="#f97316" stroke="white" stroke-width="1"/>
  <circle cx="480.8" cy="421.4" r="3" fill="#f97316" stroke="white" stroke-width="1"/>
  <circle cx="536.7" cy="423.8" r="3" fill="#f97316" stroke="white" stroke-width="1"/>
  <circle cx="592.5" cy="391.5" r="3" fill="#f97316" stroke="white" stroke-width="1"/>
  <circle cx="648.3" cy="424.5" r="3" fill="#f97316" stroke="white" stroke-width="1"/>
  <circle cx="704.2" cy="418.3" r="3" fill="#f97316" stroke="white" stroke-width="1"/>
  <circle cx="760.0" cy="424.8" r="3" fill="#f97316" stroke="white" stroke-width="1"/>
  <polyline points="90.0,381.8 145.8,392.4 201.7,393.0 257.5,393.4 313.3,404.9 369.2,398.7 425.0,400.4 480.8,399.9 536.7,388.9 592.5,395.3 648.3,395.2 704.2,396.9 760.0,400.4" fill="none" stroke="#10b981" stroke-width="2.5" stroke-linecap="round" stroke-linejoin="round"/>
  <circle cx="90.0" cy="381.8" r="3" fill="#10b981" stroke="white" stroke-width="1"/>
  <circle cx="145.8" cy="392.4" r="3" fill="#10b981" stroke="white" stroke-width="1"/>
  <circle cx="201.7" cy="393.0" r="3" fill="#10b981" stroke="white" stroke-width="1"/>
  <circle cx="257.5" cy="393.4" r="3" fill="#10b981" stroke="white" stroke-width="1"/>
  <circle cx="313.3" cy="404.9" r="3" fill="#10b981" stroke="white" stroke-width="1"/>
  <circle cx="369.2" cy="398.7" r="3" fill="#10b981" stroke="white" stroke-width="1"/>
  <circle cx="425.0" cy="400.4" r="3" fill="#10b981" stroke="white" stroke-width="1"/>
  <circle cx="480.8" cy="399.9" r="3" fill="#10b981" stroke="white" stroke-width="1"/>
  <circle cx="536.7" cy="388.9" r="3" fill="#10b981" stroke="white" stroke-width="1"/>
  <circle cx="592.5" cy="395.3" r="3" fill="#10b981" stroke="white" stroke-width="1"/>
  <circle cx="648.3" cy="395.2" r="3" fill="#10b981" stroke="white" stroke-width="1"/>
  <circle cx="704.2" cy="396.9" r="3" fill="#10b981" stroke="white" stroke-width="1"/>
  <circle cx="760.0" cy="400.4" r="3" fill="#10b981" stroke="white" stroke-width="1"/>
  <polyline points="90.0,522.9 145.8,523.1 201.7,522.3 257.5,523.1 313.3,522.9 369.2,523.2 425.0,522.9 480.8,523.1 536.7,522.7 592.5,522.7 648.3,522.8 704.2,522.6 760.0,522.7" fill="none" stroke="#8b5cf6" stroke-width="2.5" stroke-linecap="round" stroke-linejoin="round"/>
  <circle cx="90.0" cy="522.9" r="3" fill="#8b5cf6" stroke="white" stroke-width="1"/>
  <circle cx="145.8" cy="523.1" r="3" fill="#8b5cf6" stroke="white" stroke-width="1"/>
  <circle cx="201.7" cy="522.3" r="3" fill="#8b5cf6" stroke="white" stroke-width="1"/>
  <circle cx="257.5" cy="523.1" r="3" fill="#8b5cf6" stroke="white" stroke-width="1"/>
  <circle cx="313.3" cy="522.9" r="3" fill="#8b5cf6" stroke="white" stroke-width="1"/>
  <circle cx="369.2" cy="523.2" r="3" fill="#8b5cf6" stroke="white" stroke-width="1"/>
  <circle cx="425.0" cy="522.9" r="3" fill="#8b5cf6" stroke="white" stroke-width="1"/>
  <circle cx="480.8" cy="523.1" r="3" fill="#8b5cf6" stroke="white" stroke-width="1"/>
  <circle cx="536.7" cy="522.7" r="3" fill="#8b5cf6" stroke="white" stroke-width="1"/>
  <circle cx="592.5" cy="522.7" r="3" fill="#8b5cf6" stroke="white" stroke-width="1"/>
  <circle cx="648.3" cy="522.8" r="3" fill="#8b5cf6" stroke="white" stroke-width="1"/>
  <circle cx="704.2" cy="522.6" r="3" fill="#8b5cf6" stroke="white" stroke-width="1"/>
  <circle cx="760.0" cy="522.7" r="3" fill="#8b5cf6" stroke="white" stroke-width="1"/>
  <polyline points="90.0,406.7 145.8,415.8 201.7,408.8 257.5,408.5 313.3,412.4 369.2,421.4 425.0,410.1 480.8,407.4 536.7,408.7 592.5,415.7 648.3,410.7 704.2,418.7 760.0,404.5" fill="none" stroke="#dc2626" stroke-width="2.5" stroke-linecap="round" stroke-linejoin="round"/>
  <circle cx="90.0" cy="406.7" r="3" fill="#dc2626" stroke="white" stroke-width="1"/>
  <circle cx="145.8" cy="415.8" r="3" fill="#dc2626" stroke="white" stroke-width="1"/>
  <circle cx="201.7" cy="408.8" r="3" fill="#dc2626" stroke="white" stroke-width="1"/>
  <circle cx="257.5" cy="408.5" r="3" fill="#dc2626" stroke="white" stroke-width="1"/>
  <circle cx="313.3" cy="412.4" r="3" fill="#dc2626" stroke="white" stroke-width="1"/>
  <circle cx="369.2" cy="421.4" r="3" fill="#dc2626" stroke="white" stroke-width="1"/>
  <circle cx="425.0" cy="410.1" r="3" fill="#dc2626" stroke="white" stroke-width="1"/>
  <circle cx="480.8" cy="407.4" r="3" fill="#dc2626" stroke="white" stroke-width="1"/>
  <circle cx="536.7" cy="408.7" r="3" fill="#dc2626" stroke="white" stroke-width="1"/>
  <circle cx="592.5" cy="415.7" r="3" fill="#dc2626" stroke="white" stroke-width="1"/>
  <circle cx="648.3" cy="410.7" r="3" fill="#dc2626" stroke="white" stroke-width="1"/>
  <circle cx="704.2" cy="418.7" r="3" fill="#dc2626" stroke="white" stroke-width="1"/>
  <circle cx="760.0" cy="404.5" r="3" fill="#dc2626" stroke="white" stroke-width="1"/>
  <text x="90.0" y="554.0" text-anchor="middle" fill="#374151" font-size="8.5">8 B</text>
  <text x="145.8" y="554.0" text-anchor="middle" fill="#374151" font-size="8.5">16 B</text>
  <text x="201.7" y="554.0" text-anchor="middle" fill="#374151" font-size="8.5">32 B</text>
  <text x="257.5" y="554.0" text-anchor="middle" fill="#374151" font-size="8.5">64 B</text>
  <text x="313.3" y="554.0" text-anchor="middle" fill="#374151" font-size="8.5">128 B</text>
  <text x="369.2" y="554.0" text-anchor="middle" fill="#374151" font-size="8.5">256 B</text>
  <text x="425.0" y="554.0" text-anchor="middle" fill="#374151" font-size="8.5">512 B</text>
  <text x="480.8" y="554.0" text-anchor="middle" fill="#374151" font-size="8.5">1 KiB</text>
  <text x="536.7" y="554.0" text-anchor="middle" fill="#374151" font-size="8.5">2 KiB</text>
  <text x="592.5" y="554.0" text-anchor="middle" fill="#374151" font-size="8.5">4 KiB</text>
  <text x="648.3" y="554.0" text-anchor="middle" fill="#374151" font-size="8.5">8 KiB</text>
  <text x="704.2" y="554.0" text-anchor="middle" fill="#374151" font-size="8.5">16 KiB</text>
  <text x="760.0" y="554.0" text-anchor="middle" fill="#374151" font-size="8.5">32 KiB</text>
  <line x1="75" y1="600" x2="89" y2="600" stroke="#eab308" stroke-width="2.5"/>
  <circle cx="82" cy="600" r="2.5" fill="#eab308"/>
  <text x="95" y="604" fill="#374151" font-size="11" font-weight="500">libzmq v4.3.5</text>
  <line x1="215" y1="600" x2="229" y2="600" stroke="#dc2626" stroke-width="2.5"/>
  <circle cx="222" cy="600" r="2.5" fill="#dc2626"/>
  <text x="235" y="604" fill="#374151" font-size="11" font-weight="500">omq-compio (MT)</text>
  <line x1="355" y1="600" x2="369" y2="600" stroke="#8b5cf6" stroke-width="2.5"/>
  <circle cx="362" cy="600" r="2.5" fill="#8b5cf6"/>
  <text x="375" y="604" fill="#374151" font-size="11" font-weight="500">omq-compio (ST)</text>
  <line x1="495" y1="600" x2="509" y2="600" stroke="#f97316" stroke-width="2.5"/>
  <circle cx="502" cy="600" r="2.5" fill="#f97316"/>
  <text x="515" y="604" fill="#374151" font-size="11" font-weight="500">omq-tokio</text>
  <line x1="635" y1="600" x2="649" y2="600" stroke="#10b981" stroke-width="2.5"/>
  <circle cx="642" cy="600" r="2.5" fill="#10b981"/>
  <text x="655" y="604" fill="#374151" font-size="11" font-weight="500">rzmq v0.5.15</text>
  <line x1="265" y1="622" x2="285" y2="622" stroke="#6b7280" stroke-width="2" stroke-dasharray="6,4"/>
  <text x="291" y="626" fill="#6b7280" font-size="10">msg/s (left axis)</text>
  <line x1="435" y1="622" x2="455" y2="622" stroke="#6b7280" stroke-width="2"/>
  <circle cx="445" cy="622" r="2" fill="#6b7280"/>
  <text x="461" y="626" fill="#6b7280" font-size="10">throughput / GB/s (right axis, log)</text>
</svg>
