<svg xmlns="http://www.w3.org/2000/svg" viewBox="0 0 865 980" font-family="system-ui, -apple-system, sans-serif">
  <rect width="865" height="980" fill="white"/>
  <text x="425.0" y="16" text-anchor="middle" fill="#111827" font-size="12" font-weight="700">Compression transports: structured JSON, PUSH/PULL, 2-thread (omq-compio) — dict 2 KiB</text>
  <text x="425.0" y="45" text-anchor="middle" fill="#111827" font-size="12" font-weight="700">1 Gbps</text>
  <line x1="90" y1="275.0" x2="760" y2="275.0" stroke="#e5e7eb" stroke-width="1"/>
  <text x="82" y="275.0" text-anchor="end" dominant-baseline="middle" fill="#374151" font-size="9">200</text>
  <line x1="90" y1="257.5" x2="760" y2="257.5" stroke="#e5e7eb" stroke-width="1"/>
  <text x="82" y="257.5" text-anchor="end" dominant-baseline="middle" fill="#374151" font-size="9">500</text>
  <line x1="90" y1="244.2" x2="760" y2="244.2" stroke="#e5e7eb" stroke-width="1"/>
  <text x="82" y="244.2" text-anchor="end" dominant-baseline="middle" fill="#374151" font-size="9">1k</text>
  <line x1="90" y1="231.0" x2="760" y2="231.0" stroke="#e5e7eb" stroke-width="1"/>
  <text x="82" y="231.0" text-anchor="end" dominant-baseline="middle" fill="#374151" font-size="9">2k</text>
  <line x1="90" y1="213.5" x2="760" y2="213.5" stroke="#e5e7eb" stroke-width="1"/>
  <text x="82" y="213.5" text-anchor="end" dominant-baseline="middle" fill="#374151" font-size="9">5k</text>
  <line x1="90" y1="200.2" x2="760" y2="200.2" stroke="#e5e7eb" stroke-width="1"/>
  <text x="82" y="200.2" text-anchor="end" dominant-baseline="middle" fill="#374151" font-size="9">10k</text>
  <line x1="90" y1="187.0" x2="760" y2="187.0" stroke="#e5e7eb" stroke-width="1"/>
  <text x="82" y="187.0" text-anchor="end" dominant-baseline="middle" fill="#374151" font-size="9">20k</text>
  <line x1="90" y1="169.5" x2="760" y2="169.5" stroke="#e5e7eb" stroke-width="1"/>
  <text x="82" y="169.5" text-anchor="end" dominant-baseline="middle" fill="#374151" font-size="9">50k</text>
  <line x1="90" y1="156.2" x2="760" y2="156.2" stroke="#e5e7eb" stroke-width="1"/>
  <text x="82" y="156.2" text-anchor="end" dominant-baseline="middle" fill="#374151" font-size="9">100k</text>
  <line x1="90" y1="143.0" x2="760" y2="143.0" stroke="#e5e7eb" stroke-width="1"/>
  <text x="82" y="143.0" text-anchor="end" dominant-baseline="middle" fill="#374151" font-size="9">200k</text>
  <line x1="90" y1="125.5" x2="760" y2="125.5" stroke="#e5e7eb" stroke-width="1"/>
  <text x="82" y="125.5" text-anchor="end" dominant-baseline="middle" fill="#374151" font-size="9">500k</text>
  <line x1="90" y1="112.2" x2="760" y2="112.2" stroke="#e5e7eb" stroke-width="1"/>
  <text x="82" y="112.2" text-anchor="end" dominant-baseline="middle" fill="#374151" font-size="9">1M</text>
  <line x1="90" y1="99.0" x2="760" y2="99.0" stroke="#e5e7eb" stroke-width="1"/>
  <text x="82" y="99.0" text-anchor="end" dominant-baseline="middle" fill="#374151" font-size="9">2M</text>
  <line x1="90" y1="81.5" x2="760" y2="81.5" stroke="#e5e7eb" stroke-width="1"/>
  <text x="82" y="81.5" text-anchor="end" dominant-baseline="middle" fill="#374151" font-size="9">5M</text>
  <line x1="90" y1="68.2" x2="760" y2="68.2" stroke="#e5e7eb" stroke-width="1"/>
  <text x="82" y="68.2" text-anchor="end" dominant-baseline="middle" fill="#374151" font-size="9">10M</text>
  <line x1="90" y1="55.0" x2="760" y2="55.0" stroke="#e5e7eb" stroke-width="1"/>
  <text x="82" y="55.0" text-anchor="end" dominant-baseline="middle" fill="#374151" font-size="9">20M</text>
  <line x1="90" y1="231.0" x2="760" y2="231.0" stroke="#e5e7eb" stroke-width="1" stroke-dasharray="3,6"/>
  <text x="768" y="231.0" text-anchor="start" dominant-baseline="middle" fill="#6b7280" font-size="9">200 MB/s</text>
  <line x1="90" y1="187.0" x2="760" y2="187.0" stroke="#e5e7eb" stroke-width="1" stroke-dasharray="3,6"/>
  <text x="768" y="187.0" text-anchor="start" dominant-baseline="middle" fill="#6b7280" font-size="9">400 MB/s</text>
  <line x1="90" y1="143.0" x2="760" y2="143.0" stroke="#e5e7eb" stroke-width="1" stroke-dasharray="3,6"/>
  <text x="768" y="143.0" text-anchor="start" dominant-baseline="middle" fill="#6b7280" font-size="9">600 MB/s</text>
  <line x1="90" y1="99.0" x2="760" y2="99.0" stroke="#e5e7eb" stroke-width="1" stroke-dasharray="3,6"/>
  <text x="768" y="99.0" text-anchor="start" dominant-baseline="middle" fill="#6b7280" font-size="9">800 MB/s</text>
  <line x1="90" y1="55.0" x2="760" y2="55.0" stroke="#e5e7eb" stroke-width="1" stroke-dasharray="3,6"/>
  <text x="768" y="55.0" text-anchor="start" dominant-baseline="middle" fill="#6b7280" font-size="9">1000 MB/s</text>
  <line x1="90.0" y1="55" x2="90.0" y2="275" stroke="#e5e7eb" stroke-width="1"/>
  <line x1="134.7" y1="55" x2="134.7" y2="275" stroke="#e5e7eb" stroke-width="1"/>
  <line x1="179.3" y1="55" x2="179.3" y2="275" stroke="#e5e7eb" stroke-width="1"/>
  <line x1="224.0" y1="55" x2="224.0" y2="275" stroke="#e5e7eb" stroke-width="1"/>
  <line x1="268.7" y1="55" x2="268.7" y2="275" stroke="#e5e7eb" stroke-width="1"/>
  <line x1="313.3" y1="55" x2="313.3" y2="275" stroke="#e5e7eb" stroke-width="1"/>
  <line x1="358.0" y1="55" x2="358.0" y2="275" stroke="#e5e7eb" stroke-width="1"/>
  <line x1="402.7" y1="55" x2="402.7" y2="275" stroke="#e5e7eb" stroke-width="1"/>
  <line x1="447.3" y1="55" x2="447.3" y2="275" stroke="#e5e7eb" stroke-width="1"/>
  <line x1="492.0" y1="55" x2="492.0" y2="275" stroke="#e5e7eb" stroke-width="1"/>
  <line x1="536.7" y1="55" x2="536.7" y2="275" stroke="#e5e7eb" stroke-width="1"/>
  <line x1="581.3" y1="55" x2="581.3" y2="275" stroke="#e5e7eb" stroke-width="1"/>
  <line x1="626.0" y1="55" x2="626.0" y2="275" stroke="#e5e7eb" stroke-width="1"/>
  <line x1="670.7" y1="55" x2="670.7" y2="275" stroke="#e5e7eb" stroke-width="1"/>
  <line x1="715.3" y1="55" x2="715.3" y2="275" stroke="#e5e7eb" stroke-width="1"/>
  <line x1="760.0" y1="55" x2="760.0" y2="275" stroke="#e5e7eb" stroke-width="1"/>
  <line x1="90" y1="55" x2="90" y2="275" stroke="#9ca3af" stroke-width="1.5"/>
  <line x1="760" y1="55" x2="760" y2="275" stroke="#9ca3af" stroke-width="1.5"/>
  <line x1="90" y1="275" x2="760" y2="275" stroke="#9ca3af" stroke-width="1.5"/>
  <text x="90.0" y="289" text-anchor="middle" fill="#374151" font-size="8">8 B</text>
  <text x="134.7" y="289" text-anchor="middle" fill="#374151" font-size="8">16 B</text>
  <text x="179.3" y="289" text-anchor="middle" fill="#374151" font-size="8">32 B</text>
  <text x="224.0" y="289" text-anchor="middle" fill="#374151" font-size="8">64 B</text>
  <text x="268.7" y="289" text-anchor="middle" fill="#374151" font-size="8">128 B</text>
  <text x="313.3" y="289" text-anchor="middle" fill="#374151" font-size="8">256 B</text>
  <text x="358.0" y="289" text-anchor="middle" fill="#374151" font-size="8">512 B</text>
  <text x="402.7" y="289" text-anchor="middle" fill="#374151" font-size="8">1 KiB</text>
  <text x="447.3" y="289" text-anchor="middle" fill="#374151" font-size="8">2 KiB</text>
  <text x="492.0" y="289" text-anchor="middle" fill="#374151" font-size="8">4 KiB</text>
  <text x="536.7" y="289" text-anchor="middle" fill="#374151" font-size="8">8 KiB</text>
  <text x="581.3" y="289" text-anchor="middle" fill="#374151" font-size="8">16 KiB</text>
  <text x="626.0" y="289" text-anchor="middle" fill="#374151" font-size="8">32 KiB</text>
  <text x="670.7" y="289" text-anchor="middle" fill="#374151" font-size="8">64 KiB</text>
  <text x="715.3" y="289" text-anchor="middle" fill="#374151" font-size="8">128 KiB</text>
  <text x="760.0" y="289" text-anchor="middle" fill="#374151" font-size="8">256 KiB</text>
  <text x="40" y="165.0" text-anchor="middle" dominant-baseline="middle" fill="#374151" font-size="10" font-weight="600" transform="rotate(-90,40,165.0)">msg/s (log)</text>
  <polyline points="90.0,59.7 134.7,73.0 179.3,86.2 224.0,99.5 268.7,112.7 313.3,125.9 358.0,139.2 402.7,152.4 447.3,165.7 492.0,178.9 536.7,192.2 581.3,205.4 626.0,218.7 670.7,231.9 715.3,245.2 760.0,258.4" fill="none" stroke="#eab308" stroke-width="1.5" stroke-dasharray="5,3"/>
  <polyline points="90.0,82.3 134.7,81.6 179.3,88.5 224.0,100.6 268.7,113.3 313.3,126.2 358.0,131.7 402.7,139.7 447.3,147.5 492.0,157.2 536.7,167.2 581.3,178.4 626.0,190.5 670.7,203.1 715.3,216.3 760.0,232.4" fill="none" stroke="#60a5fa" stroke-width="1.5" stroke-dasharray="5,3"/>
  <polyline points="90.0,81.9 134.7,82.0 179.3,88.5 224.0,100.6 268.7,114.5 313.3,111.8 358.0,112.7 402.7,114.3 447.3,126.1 492.0,146.6 536.7,161.2 581.3,175.3 626.0,188.8 670.7,203.2 715.3,221.2 760.0,236.7" fill="none" stroke="#1d4ed8" stroke-width="1.5" stroke-dasharray="5,3"/>
  <polyline points="90.0,82.6 134.7,82.9 179.3,88.5 224.0,145.1 268.7,143.8 313.3,144.9 358.0,145.2 402.7,145.0 447.3,146.3 492.0,155.7 536.7,174.0 581.3,192.2 626.0,207.4 670.7,222.6 715.3,237.6 760.0,250.9" fill="none" stroke="#f97316" stroke-width="1.5" stroke-dasharray="5,3"/>
  <polyline points="90.0,247.5 134.7,247.5 179.3,247.5 224.0,247.5 268.7,247.5 313.3,247.5 358.0,247.5 402.7,247.5 447.3,247.5 492.0,247.5 536.7,247.5 581.3,247.5 626.0,247.5 670.7,247.5 715.3,247.5 760.0,247.5" fill="none" stroke="#eab308" stroke-width="2.5" stroke-linecap="round" stroke-linejoin="round"/>
  <circle cx="90.0" cy="247.5" r="2.5" fill="#eab308" stroke="white" stroke-width="1"/>
  <circle cx="134.7" cy="247.5" r="2.5" fill="#eab308" stroke="white" stroke-width="1"/>
  <circle cx="179.3" cy="247.5" r="2.5" fill="#eab308" stroke="white" stroke-width="1"/>
  <circle cx="224.0" cy="247.5" r="2.5" fill="#eab308" stroke="white" stroke-width="1"/>
  <circle cx="268.7" cy="247.5" r="2.5" fill="#eab308" stroke="white" stroke-width="1"/>
  <circle cx="313.3" cy="247.5" r="2.5" fill="#eab308" stroke="white" stroke-width="1"/>
  <circle cx="358.0" cy="247.5" r="2.5" fill="#eab308" stroke="white" stroke-width="1"/>
  <circle cx="402.7" cy="247.5" r="2.5" fill="#eab308" stroke="white" stroke-width="1"/>
  <circle cx="447.3" cy="247.5" r="2.5" fill="#eab308" stroke="white" stroke-width="1"/>
  <circle cx="492.0" cy="247.5" r="2.5" fill="#eab308" stroke="white" stroke-width="1"/>
  <circle cx="536.7" cy="247.5" r="2.5" fill="#eab308" stroke="white" stroke-width="1"/>
  <circle cx="581.3" cy="247.5" r="2.5" fill="#eab308" stroke="white" stroke-width="1"/>
  <circle cx="626.0" cy="247.5" r="2.5" fill="#eab308" stroke="white" stroke-width="1"/>
  <circle cx="670.7" cy="247.5" r="2.5" fill="#eab308" stroke="white" stroke-width="1"/>
  <circle cx="715.3" cy="247.5" r="2.5" fill="#eab308" stroke="white" stroke-width="1"/>
  <circle cx="760.0" cy="247.5" r="2.5" fill="#eab308" stroke="white" stroke-width="1"/>
  <polyline points="90.0,266.6 134.7,257.5 179.3,250.6 224.0,249.1 268.7,248.3 313.3,247.9 358.0,234.3 402.7,221.6 447.3,203.8 492.0,189.3 536.7,173.6 581.3,161.8 626.0,154.8 670.7,151.1 715.3,150.4 760.0,167.7" fill="none" stroke="#60a5fa" stroke-width="2.5" stroke-linecap="round" stroke-linejoin="round"/>
  <circle cx="90.0" cy="266.6" r="2.5" fill="#60a5fa" stroke="white" stroke-width="1"/>
  <circle cx="134.7" cy="257.5" r="2.5" fill="#60a5fa" stroke="white" stroke-width="1"/>
  <circle cx="179.3" cy="250.6" r="2.5" fill="#60a5fa" stroke="white" stroke-width="1"/>
  <circle cx="224.0" cy="249.1" r="2.5" fill="#60a5fa" stroke="white" stroke-width="1"/>
  <circle cx="268.7" cy="248.3" r="2.5" fill="#60a5fa" stroke="white" stroke-width="1"/>
  <circle cx="313.3" cy="247.9" r="2.5" fill="#60a5fa" stroke="white" stroke-width="1"/>
  <circle cx="358.0" cy="234.3" r="2.5" fill="#60a5fa" stroke="white" stroke-width="1"/>
  <circle cx="402.7" cy="221.6" r="2.5" fill="#60a5fa" stroke="white" stroke-width="1"/>
  <circle cx="447.3" cy="203.8" r="2.5" fill="#60a5fa" stroke="white" stroke-width="1"/>
  <circle cx="492.0" cy="189.3" r="2.5" fill="#60a5fa" stroke="white" stroke-width="1"/>
  <circle cx="536.7" cy="173.6" r="2.5" fill="#60a5fa" stroke="white" stroke-width="1"/>
  <circle cx="581.3" cy="161.8" r="2.5" fill="#60a5fa" stroke="white" stroke-width="1"/>
  <circle cx="626.0" cy="154.8" r="2.5" fill="#60a5fa" stroke="white" stroke-width="1"/>
  <circle cx="670.7" cy="151.1" r="2.5" fill="#60a5fa" stroke="white" stroke-width="1"/>
  <circle cx="715.3" cy="150.4" r="2.5" fill="#60a5fa" stroke="white" stroke-width="1"/>
  <circle cx="760.0" cy="167.7" r="2.5" fill="#60a5fa" stroke="white" stroke-width="1"/>
  <polyline points="90.0,266.4 134.7,257.8 179.3,250.6 224.0,249.1 268.7,249.9 313.3,217.4 358.0,165.2 402.7,72.2 447.3,56.7 492.0,125.7 536.7,136.3 581.3,142.2 626.0,144.1 670.7,151.6 715.3,178.4 760.0,189.6" fill="none" stroke="#1d4ed8" stroke-width="2.5" stroke-linecap="round" stroke-linejoin="round"/>
  <circle cx="90.0" cy="266.4" r="2.5" fill="#1d4ed8" stroke="white" stroke-width="1"/>
  <circle cx="134.7" cy="257.8" r="2.5" fill="#1d4ed8" stroke="white" stroke-width="1"/>
  <circle cx="179.3" cy="250.6" r="2.5" fill="#1d4ed8" stroke="white" stroke-width="1"/>
  <circle cx="224.0" cy="249.1" r="2.5" fill="#1d4ed8" stroke="white" stroke-width="1"/>
  <circle cx="268.7" cy="249.9" r="2.5" fill="#1d4ed8" stroke="white" stroke-width="1"/>
  <circle cx="313.3" cy="217.4" r="2.5" fill="#1d4ed8" stroke="white" stroke-width="1"/>
  <circle cx="358.0" cy="165.2" r="2.5" fill="#1d4ed8" stroke="white" stroke-width="1"/>
  <circle cx="402.7" cy="72.2" r="2.5" fill="#1d4ed8" stroke="white" stroke-width="1"/>
  <circle cx="447.3" cy="56.7" r="2.5" fill="#1d4ed8" stroke="white" stroke-width="1"/>
  <circle cx="492.0" cy="125.7" r="2.5" fill="#1d4ed8" stroke="white" stroke-width="1"/>
  <circle cx="536.7" cy="136.3" r="2.5" fill="#1d4ed8" stroke="white" stroke-width="1"/>
  <circle cx="581.3" cy="142.2" r="2.5" fill="#1d4ed8" stroke="white" stroke-width="1"/>
  <circle cx="626.0" cy="144.1" r="2.5" fill="#1d4ed8" stroke="white" stroke-width="1"/>
  <circle cx="670.7" cy="151.6" r="2.5" fill="#1d4ed8" stroke="white" stroke-width="1"/>
  <circle cx="715.3" cy="178.4" r="2.5" fill="#1d4ed8" stroke="white" stroke-width="1"/>
  <circle cx="760.0" cy="189.6" r="2.5" fill="#1d4ed8" stroke="white" stroke-width="1"/>
  <polyline points="90.0,266.7 134.7,258.6 179.3,250.6 224.0,272.5 268.7,269.6 313.3,264.8 358.0,254.9 402.7,234.5 447.3,199.3 492.0,182.3 536.7,203.8 581.3,220.2 626.0,225.5 670.7,230.3 715.3,234.2 760.0,234.3" fill="none" stroke="#f97316" stroke-width="2.5" stroke-linecap="round" stroke-linejoin="round"/>
  <circle cx="90.0" cy="266.7" r="2.5" fill="#f97316" stroke="white" stroke-width="1"/>
  <circle cx="134.7" cy="258.6" r="2.5" fill="#f97316" stroke="white" stroke-width="1"/>
  <circle cx="179.3" cy="250.6" r="2.5" fill="#f97316" stroke="white" stroke-width="1"/>
  <circle cx="224.0" cy="272.5" r="2.5" fill="#f97316" stroke="white" stroke-width="1"/>
  <circle cx="268.7" cy="269.6" r="2.5" fill="#f97316" stroke="white" stroke-width="1"/>
  <circle cx="313.3" cy="264.8" r="2.5" fill="#f97316" stroke="white" stroke-width="1"/>
  <circle cx="358.0" cy="254.9" r="2.5" fill="#f97316" stroke="white" stroke-width="1"/>
  <circle cx="402.7" cy="234.5" r="2.5" fill="#f97316" stroke="white" stroke-width="1"/>
  <circle cx="447.3" cy="199.3" r="2.5" fill="#f97316" stroke="white" stroke-width="1"/>
  <circle cx="492.0" cy="182.3" r="2.5" fill="#f97316" stroke="white" stroke-width="1"/>
  <circle cx="536.7" cy="203.8" r="2.5" fill="#f97316" stroke="white" stroke-width="1"/>
  <circle cx="581.3" cy="220.2" r="2.5" fill="#f97316" stroke="white" stroke-width="1"/>
  <circle cx="626.0" cy="225.5" r="2.5" fill="#f97316" stroke="white" stroke-width="1"/>
  <circle cx="670.7" cy="230.3" r="2.5" fill="#f97316" stroke="white" stroke-width="1"/>
  <circle cx="715.3" cy="234.2" r="2.5" fill="#f97316" stroke="white" stroke-width="1"/>
  <circle cx="760.0" cy="234.3" r="2.5" fill="#f97316" stroke="white" stroke-width="1"/>
  <text x="425.0" y="355" text-anchor="middle" fill="#111827" font-size="12" font-weight="700">100 Mbps</text>
  <line x1="90" y1="585.0" x2="760" y2="585.0" stroke="#e5e7eb" stroke-width="1"/>
  <text x="82" y="585.0" text-anchor="end" dominant-baseline="middle" fill="#374151" font-size="9">20</text>
  <line x1="90" y1="567.5" x2="760" y2="567.5" stroke="#e5e7eb" stroke-width="1"/>
  <text x="82" y="567.5" text-anchor="end" dominant-baseline="middle" fill="#374151" font-size="9">50</text>
  <line x1="90" y1="554.2" x2="760" y2="554.2" stroke="#e5e7eb" stroke-width="1"/>
  <text x="82" y="554.2" text-anchor="end" dominant-baseline="middle" fill="#374151" font-size="9">100</text>
  <line x1="90" y1="541.0" x2="760" y2="541.0" stroke="#e5e7eb" stroke-width="1"/>
  <text x="82" y="541.0" text-anchor="end" dominant-baseline="middle" fill="#374151" font-size="9">200</text>
  <line x1="90" y1="523.5" x2="760" y2="523.5" stroke="#e5e7eb" stroke-width="1"/>
  <text x="82" y="523.5" text-anchor="end" dominant-baseline="middle" fill="#374151" font-size="9">500</text>
  <line x1="90" y1="510.2" x2="760" y2="510.2" stroke="#e5e7eb" stroke-width="1"/>
  <text x="82" y="510.2" text-anchor="end" dominant-baseline="middle" fill="#374151" font-size="9">1k</text>
  <line x1="90" y1="497.0" x2="760" y2="497.0" stroke="#e5e7eb" stroke-width="1"/>
  <text x="82" y="497.0" text-anchor="end" dominant-baseline="middle" fill="#374151" font-size="9">2k</text>
  <line x1="90" y1="479.5" x2="760" y2="479.5" stroke="#e5e7eb" stroke-width="1"/>
  <text x="82" y="479.5" text-anchor="end" dominant-baseline="middle" fill="#374151" font-size="9">5k</text>
  <line x1="90" y1="466.2" x2="760" y2="466.2" stroke="#e5e7eb" stroke-width="1"/>
  <text x="82" y="466.2" text-anchor="end" dominant-baseline="middle" fill="#374151" font-size="9">10k</text>
  <line x1="90" y1="453.0" x2="760" y2="453.0" stroke="#e5e7eb" stroke-width="1"/>
  <text x="82" y="453.0" text-anchor="end" dominant-baseline="middle" fill="#374151" font-size="9">20k</text>
  <line x1="90" y1="435.5" x2="760" y2="435.5" stroke="#e5e7eb" stroke-width="1"/>
  <text x="82" y="435.5" text-anchor="end" dominant-baseline="middle" fill="#374151" font-size="9">50k</text>
  <line x1="90" y1="422.2" x2="760" y2="422.2" stroke="#e5e7eb" stroke-width="1"/>
  <text x="82" y="422.2" text-anchor="end" dominant-baseline="middle" fill="#374151" font-size="9">100k</text>
  <line x1="90" y1="409.0" x2="760" y2="409.0" stroke="#e5e7eb" stroke-width="1"/>
  <text x="82" y="409.0" text-anchor="end" dominant-baseline="middle" fill="#374151" font-size="9">200k</text>
  <line x1="90" y1="391.5" x2="760" y2="391.5" stroke="#e5e7eb" stroke-width="1"/>
  <text x="82" y="391.5" text-anchor="end" dominant-baseline="middle" fill="#374151" font-size="9">500k</text>
  <line x1="90" y1="378.2" x2="760" y2="378.2" stroke="#e5e7eb" stroke-width="1"/>
  <text x="82" y="378.2" text-anchor="end" dominant-baseline="middle" fill="#374151" font-size="9">1M</text>
  <line x1="90" y1="365.0" x2="760" y2="365.0" stroke="#e5e7eb" stroke-width="1"/>
  <text x="82" y="365.0" text-anchor="end" dominant-baseline="middle" fill="#374151" font-size="9">2M</text>
  <line x1="90" y1="557.5" x2="760" y2="557.5" stroke="#e5e7eb" stroke-width="1" stroke-dasharray="3,6"/>
  <text x="768" y="557.5" text-anchor="start" dominant-baseline="middle" fill="#6b7280" font-size="9">50 MB/s</text>
  <line x1="90" y1="530.0" x2="760" y2="530.0" stroke="#e5e7eb" stroke-width="1" stroke-dasharray="3,6"/>
  <text x="768" y="530.0" text-anchor="start" dominant-baseline="middle" fill="#6b7280" font-size="9">100 MB/s</text>
  <line x1="90" y1="502.5" x2="760" y2="502.5" stroke="#e5e7eb" stroke-width="1" stroke-dasharray="3,6"/>
  <text x="768" y="502.5" text-anchor="start" dominant-baseline="middle" fill="#6b7280" font-size="9">150 MB/s</text>
  <line x1="90" y1="475.0" x2="760" y2="475.0" stroke="#e5e7eb" stroke-width="1" stroke-dasharray="3,6"/>
  <text x="768" y="475.0" text-anchor="start" dominant-baseline="middle" fill="#6b7280" font-size="9">200 MB/s</text>
  <line x1="90" y1="447.5" x2="760" y2="447.5" stroke="#e5e7eb" stroke-width="1" stroke-dasharray="3,6"/>
  <text x="768" y="447.5" text-anchor="start" dominant-baseline="middle" fill="#6b7280" font-size="9">250 MB/s</text>
  <line x1="90" y1="420.0" x2="760" y2="420.0" stroke="#e5e7eb" stroke-width="1" stroke-dasharray="3,6"/>
  <text x="768" y="420.0" text-anchor="start" dominant-baseline="middle" fill="#6b7280" font-size="9">300 MB/s</text>
  <line x1="90" y1="392.5" x2="760" y2="392.5" stroke="#e5e7eb" stroke-width="1" stroke-dasharray="3,6"/>
  <text x="768" y="392.5" text-anchor="start" dominant-baseline="middle" fill="#6b7280" font-size="9">350 MB/s</text>
  <line x1="90" y1="365.0" x2="760" y2="365.0" stroke="#e5e7eb" stroke-width="1" stroke-dasharray="3,6"/>
  <text x="768" y="365.0" text-anchor="start" dominant-baseline="middle" fill="#6b7280" font-size="9">400 MB/s</text>
  <line x1="90.0" y1="365" x2="90.0" y2="585" stroke="#e5e7eb" stroke-width="1"/>
  <line x1="134.7" y1="365" x2="134.7" y2="585" stroke="#e5e7eb" stroke-width="1"/>
  <line x1="179.3" y1="365" x2="179.3" y2="585" stroke="#e5e7eb" stroke-width="1"/>
  <line x1="224.0" y1="365" x2="224.0" y2="585" stroke="#e5e7eb" stroke-width="1"/>
  <line x1="268.7" y1="365" x2="268.7" y2="585" stroke="#e5e7eb" stroke-width="1"/>
  <line x1="313.3" y1="365" x2="313.3" y2="585" stroke="#e5e7eb" stroke-width="1"/>
  <line x1="358.0" y1="365" x2="358.0" y2="585" stroke="#e5e7eb" stroke-width="1"/>
  <line x1="402.7" y1="365" x2="402.7" y2="585" stroke="#e5e7eb" stroke-width="1"/>
  <line x1="447.3" y1="365" x2="447.3" y2="585" stroke="#e5e7eb" stroke-width="1"/>
  <line x1="492.0" y1="365" x2="492.0" y2="585" stroke="#e5e7eb" stroke-width="1"/>
  <line x1="536.7" y1="365" x2="536.7" y2="585" stroke="#e5e7eb" stroke-width="1"/>
  <line x1="581.3" y1="365" x2="581.3" y2="585" stroke="#e5e7eb" stroke-width="1"/>
  <line x1="626.0" y1="365" x2="626.0" y2="585" stroke="#e5e7eb" stroke-width="1"/>
  <line x1="670.7" y1="365" x2="670.7" y2="585" stroke="#e5e7eb" stroke-width="1"/>
  <line x1="715.3" y1="365" x2="715.3" y2="585" stroke="#e5e7eb" stroke-width="1"/>
  <line x1="760.0" y1="365" x2="760.0" y2="585" stroke="#e5e7eb" stroke-width="1"/>
  <line x1="90" y1="365" x2="90" y2="585" stroke="#9ca3af" stroke-width="1.5"/>
  <line x1="760" y1="365" x2="760" y2="585" stroke="#9ca3af" stroke-width="1.5"/>
  <line x1="90" y1="585" x2="760" y2="585" stroke="#9ca3af" stroke-width="1.5"/>
  <text x="90.0" y="599" text-anchor="middle" fill="#374151" font-size="8">8 B</text>
  <text x="134.7" y="599" text-anchor="middle" fill="#374151" font-size="8">16 B</text>
  <text x="179.3" y="599" text-anchor="middle" fill="#374151" font-size="8">32 B</text>
  <text x="224.0" y="599" text-anchor="middle" fill="#374151" font-size="8">64 B</text>
  <text x="268.7" y="599" text-anchor="middle" fill="#374151" font-size="8">128 B</text>
  <text x="313.3" y="599" text-anchor="middle" fill="#374151" font-size="8">256 B</text>
  <text x="358.0" y="599" text-anchor="middle" fill="#374151" font-size="8">512 B</text>
  <text x="402.7" y="599" text-anchor="middle" fill="#374151" font-size="8">1 KiB</text>
  <text x="447.3" y="599" text-anchor="middle" fill="#374151" font-size="8">2 KiB</text>
  <text x="492.0" y="599" text-anchor="middle" fill="#374151" font-size="8">4 KiB</text>
  <text x="536.7" y="599" text-anchor="middle" fill="#374151" font-size="8">8 KiB</text>
  <text x="581.3" y="599" text-anchor="middle" fill="#374151" font-size="8">16 KiB</text>
  <text x="626.0" y="599" text-anchor="middle" fill="#374151" font-size="8">32 KiB</text>
  <text x="670.7" y="599" text-anchor="middle" fill="#374151" font-size="8">64 KiB</text>
  <text x="715.3" y="599" text-anchor="middle" fill="#374151" font-size="8">128 KiB</text>
  <text x="760.0" y="599" text-anchor="middle" fill="#374151" font-size="8">256 KiB</text>
  <text x="40" y="475.0" text-anchor="middle" dominant-baseline="middle" fill="#374151" font-size="10" font-weight="600" transform="rotate(-90,40,475.0)">msg/s (log)</text>
  <polyline points="90.0,369.7 134.7,383.0 179.3,396.2 224.0,409.5 268.7,422.7 313.3,435.9 358.0,449.2 402.7,462.4 447.3,475.7 492.0,488.9 536.7,502.2 581.3,515.4 626.0,528.7 670.7,541.9 715.3,555.2 760.0,568.4" fill="none" stroke="#eab308" stroke-width="1.5" stroke-dasharray="5,3"/>
  <polyline points="90.0,377.5 134.7,387.2 179.3,398.5 224.0,410.6 268.7,423.3 313.3,436.2 358.0,441.7 402.7,449.7 447.3,457.5 492.0,467.2 536.7,477.2 581.3,488.4 626.0,500.5 670.7,513.1 715.3,526.3 760.0,539.5" fill="none" stroke="#60a5fa" stroke-width="1.5" stroke-dasharray="5,3"/>
  <polyline points="90.0,377.5 134.7,387.2 179.3,398.5 224.0,410.6 268.7,397.4 313.3,397.4 358.0,397.9 402.7,399.0 447.3,428.3 492.0,455.2 536.7,471.2 581.3,485.3 626.0,498.8 670.7,512.3 715.3,525.9 760.0,539.3" fill="none" stroke="#1d4ed8" stroke-width="1.5" stroke-dasharray="5,3"/>
  <polyline points="90.0,377.5 134.7,387.2 179.3,398.5 224.0,411.1 268.7,409.8 313.3,410.9 358.0,411.2 402.7,411.0 447.3,424.8 492.0,450.2 536.7,467.0 581.3,480.4 626.0,491.4 670.7,504.8 715.3,518.1 760.0,531.4" fill="none" stroke="#f97316" stroke-width="1.5" stroke-dasharray="5,3"/>
  <polyline points="90.0,578.1 134.7,578.1 179.3,578.1 224.0,578.1 268.7,578.1 313.3,578.1 358.0,578.1 402.7,578.1 447.3,578.1 492.0,578.1 536.7,578.1 581.3,578.1 626.0,578.1 670.7,578.1 715.3,578.1 760.0,578.1" fill="none" stroke="#eab308" stroke-width="2.5" stroke-linecap="round" stroke-linejoin="round"/>
  <circle cx="90.0" cy="578.1" r="2.5" fill="#eab308" stroke="white" stroke-width="1"/>
  <circle cx="134.7" cy="578.1" r="2.5" fill="#eab308" stroke="white" stroke-width="1"/>
  <circle cx="179.3" cy="578.1" r="2.5" fill="#eab308" stroke="white" stroke-width="1"/>
  <circle cx="224.0" cy="578.1" r="2.5" fill="#eab308" stroke="white" stroke-width="1"/>
  <circle cx="268.7" cy="578.1" r="2.5" fill="#eab308" stroke="white" stroke-width="1"/>
  <circle cx="313.3" cy="578.1" r="2.5" fill="#eab308" stroke="white" stroke-width="1"/>
  <circle cx="358.0" cy="578.1" r="2.5" fill="#eab308" stroke="white" stroke-width="1"/>
  <circle cx="402.7" cy="578.1" r="2.5" fill="#eab308" stroke="white" stroke-width="1"/>
  <circle cx="447.3" cy="578.1" r="2.5" fill="#eab308" stroke="white" stroke-width="1"/>
  <circle cx="492.0" cy="578.1" r="2.5" fill="#eab308" stroke="white" stroke-width="1"/>
  <circle cx="536.7" cy="578.1" r="2.5" fill="#eab308" stroke="white" stroke-width="1"/>
  <circle cx="581.3" cy="578.1" r="2.5" fill="#eab308" stroke="white" stroke-width="1"/>
  <circle cx="626.0" cy="578.1" r="2.5" fill="#eab308" stroke="white" stroke-width="1"/>
  <circle cx="670.7" cy="578.1" r="2.5" fill="#eab308" stroke="white" stroke-width="1"/>
  <circle cx="715.3" cy="578.1" r="2.5" fill="#eab308" stroke="white" stroke-width="1"/>
  <circle cx="760.0" cy="578.1" r="2.5" fill="#eab308" stroke="white" stroke-width="1"/>
  <polyline points="90.0,580.4 134.7,579.5 179.3,578.9 224.0,578.5 268.7,578.3 313.3,578.2 358.0,574.8 402.7,571.6 447.3,567.2 492.0,563.6 536.7,559.6 581.3,556.7 626.0,554.9 670.7,554.0 715.3,553.8 760.0,553.8" fill="none" stroke="#60a5fa" stroke-width="2.5" stroke-linecap="round" stroke-linejoin="round"/>
  <circle cx="90.0" cy="580.4" r="2.5" fill="#60a5fa" stroke="white" stroke-width="1"/>
  <circle cx="134.7" cy="579.5" r="2.5" fill="#60a5fa" stroke="white" stroke-width="1"/>
  <circle cx="179.3" cy="578.9" r="2.5" fill="#60a5fa" stroke="white" stroke-width="1"/>
  <circle cx="224.0" cy="578.5" r="2.5" fill="#60a5fa" stroke="white" stroke-width="1"/>
  <circle cx="268.7" cy="578.3" r="2.5" fill="#60a5fa" stroke="white" stroke-width="1"/>
  <circle cx="313.3" cy="578.2" r="2.5" fill="#60a5fa" stroke="white" stroke-width="1"/>
  <circle cx="358.0" cy="574.8" r="2.5" fill="#60a5fa" stroke="white" stroke-width="1"/>
  <circle cx="402.7" cy="571.6" r="2.5" fill="#60a5fa" stroke="white" stroke-width="1"/>
  <circle cx="447.3" cy="567.2" r="2.5" fill="#60a5fa" stroke="white" stroke-width="1"/>
  <circle cx="492.0" cy="563.6" r="2.5" fill="#60a5fa" stroke="white" stroke-width="1"/>
  <circle cx="536.7" cy="559.6" r="2.5" fill="#60a5fa" stroke="white" stroke-width="1"/>
  <circle cx="581.3" cy="556.7" r="2.5" fill="#60a5fa" stroke="white" stroke-width="1"/>
  <circle cx="626.0" cy="554.9" r="2.5" fill="#60a5fa" stroke="white" stroke-width="1"/>
  <circle cx="670.7" cy="554.0" r="2.5" fill="#60a5fa" stroke="white" stroke-width="1"/>
  <circle cx="715.3" cy="553.8" r="2.5" fill="#60a5fa" stroke="white" stroke-width="1"/>
  <circle cx="760.0" cy="553.8" r="2.5" fill="#60a5fa" stroke="white" stroke-width="1"/>
  <polyline points="90.0,580.4 134.7,579.5 179.3,578.9 224.0,578.5 268.7,559.1 313.3,533.2 358.0,484.4 402.7,394.7 447.3,503.1 492.0,544.8 536.7,550.3 581.3,551.8 626.0,552.3 670.7,552.7 715.3,553.2 760.0,553.4" fill="none" stroke="#1d4ed8" stroke-width="2.5" stroke-linecap="round" stroke-linejoin="round"/>
  <circle cx="90.0" cy="580.4" r="2.5" fill="#1d4ed8" stroke="white" stroke-width="1"/>
  <circle cx="134.7" cy="579.5" r="2.5" fill="#1d4ed8" stroke="white" stroke-width="1"/>
  <circle cx="179.3" cy="578.9" r="2.5" fill="#1d4ed8" stroke="white" stroke-width="1"/>
  <circle cx="224.0" cy="578.5" r="2.5" fill="#1d4ed8" stroke="white" stroke-width="1"/>
  <circle cx="268.7" cy="559.1" r="2.5" fill="#1d4ed8" stroke="white" stroke-width="1"/>
  <circle cx="313.3" cy="533.2" r="2.5" fill="#1d4ed8" stroke="white" stroke-width="1"/>
  <circle cx="358.0" cy="484.4" r="2.5" fill="#1d4ed8" stroke="white" stroke-width="1"/>
  <circle cx="402.7" cy="394.7" r="2.5" fill="#1d4ed8" stroke="white" stroke-width="1"/>
  <circle cx="447.3" cy="503.1" r="2.5" fill="#1d4ed8" stroke="white" stroke-width="1"/>
  <circle cx="492.0" cy="544.8" r="2.5" fill="#1d4ed8" stroke="white" stroke-width="1"/>
  <circle cx="536.7" cy="550.3" r="2.5" fill="#1d4ed8" stroke="white" stroke-width="1"/>
  <circle cx="581.3" cy="551.8" r="2.5" fill="#1d4ed8" stroke="white" stroke-width="1"/>
  <circle cx="626.0" cy="552.3" r="2.5" fill="#1d4ed8" stroke="white" stroke-width="1"/>
  <circle cx="670.7" cy="552.7" r="2.5" fill="#1d4ed8" stroke="white" stroke-width="1"/>
  <circle cx="715.3" cy="553.2" r="2.5" fill="#1d4ed8" stroke="white" stroke-width="1"/>
  <circle cx="760.0" cy="553.4" r="2.5" fill="#1d4ed8" stroke="white" stroke-width="1"/>
  <polyline points="90.0,580.4 134.7,579.5 179.3,578.9 224.0,578.7 268.7,571.5 313.3,559.5 358.0,534.8 402.7,483.8 447.3,486.5 492.0,532.8 536.7,541.6 581.3,542.0 626.0,536.6 670.7,537.0 715.3,537.2 760.0,537.4" fill="none" stroke="#f97316" stroke-width="2.5" stroke-linecap="round" stroke-linejoin="round"/>
  <circle cx="90.0" cy="580.4" r="2.5" fill="#f97316" stroke="white" stroke-width="1"/>
  <circle cx="134.7" cy="579.5" r="2.5" fill="#f97316" stroke="white" stroke-width="1"/>
  <circle cx="179.3" cy="578.9" r="2.5" fill="#f97316" stroke="white" stroke-width="1"/>
  <circle cx="224.0" cy="578.7" r="2.5" fill="#f97316" stroke="white" stroke-width="1"/>
  <circle cx="268.7" cy="571.5" r="2.5" fill="#f97316" stroke="white" stroke-width="1"/>
  <circle cx="313.3" cy="559.5" r="2.5" fill="#f97316" stroke="white" stroke-width="1"/>
  <circle cx="358.0" cy="534.8" r="2.5" fill="#f97316" stroke="white" stroke-width="1"/>
  <circle cx="402.7" cy="483.8" r="2.5" fill="#f97316" stroke="white" stroke-width="1"/>
  <circle cx="447.3" cy="486.5" r="2.5" fill="#f97316" stroke="white" stroke-width="1"/>
  <circle cx="492.0" cy="532.8" r="2.5" fill="#f97316" stroke="white" stroke-width="1"/>
  <circle cx="536.7" cy="541.6" r="2.5" fill="#f97316" stroke="white" stroke-width="1"/>
  <circle cx="581.3" cy="542.0" r="2.5" fill="#f97316" stroke="white" stroke-width="1"/>
  <circle cx="626.0" cy="536.6" r="2.5" fill="#f97316" stroke="white" stroke-width="1"/>
  <circle cx="670.7" cy="537.0" r="2.5" fill="#f97316" stroke="white" stroke-width="1"/>
  <circle cx="715.3" cy="537.2" r="2.5" fill="#f97316" stroke="white" stroke-width="1"/>
  <circle cx="760.0" cy="537.4" r="2.5" fill="#f97316" stroke="white" stroke-width="1"/>
  <text x="425.0" y="665" text-anchor="middle" fill="#111827" font-size="12" font-weight="700">10 Mbps</text>
  <line x1="90" y1="895.0" x2="760" y2="895.0" stroke="#e5e7eb" stroke-width="1"/>
  <text x="82" y="895.0" text-anchor="end" dominant-baseline="middle" fill="#374151" font-size="9">2</text>
  <line x1="90" y1="877.5" x2="760" y2="877.5" stroke="#e5e7eb" stroke-width="1"/>
  <text x="82" y="877.5" text-anchor="end" dominant-baseline="middle" fill="#374151" font-size="9">5</text>
  <line x1="90" y1="864.2" x2="760" y2="864.2" stroke="#e5e7eb" stroke-width="1"/>
  <text x="82" y="864.2" text-anchor="end" dominant-baseline="middle" fill="#374151" font-size="9">10</text>
  <line x1="90" y1="851.0" x2="760" y2="851.0" stroke="#e5e7eb" stroke-width="1"/>
  <text x="82" y="851.0" text-anchor="end" dominant-baseline="middle" fill="#374151" font-size="9">20</text>
  <line x1="90" y1="833.5" x2="760" y2="833.5" stroke="#e5e7eb" stroke-width="1"/>
  <text x="82" y="833.5" text-anchor="end" dominant-baseline="middle" fill="#374151" font-size="9">50</text>
  <line x1="90" y1="820.2" x2="760" y2="820.2" stroke="#e5e7eb" stroke-width="1"/>
  <text x="82" y="820.2" text-anchor="end" dominant-baseline="middle" fill="#374151" font-size="9">100</text>
  <line x1="90" y1="807.0" x2="760" y2="807.0" stroke="#e5e7eb" stroke-width="1"/>
  <text x="82" y="807.0" text-anchor="end" dominant-baseline="middle" fill="#374151" font-size="9">200</text>
  <line x1="90" y1="789.5" x2="760" y2="789.5" stroke="#e5e7eb" stroke-width="1"/>
  <text x="82" y="789.5" text-anchor="end" dominant-baseline="middle" fill="#374151" font-size="9">500</text>
  <line x1="90" y1="776.2" x2="760" y2="776.2" stroke="#e5e7eb" stroke-width="1"/>
  <text x="82" y="776.2" text-anchor="end" dominant-baseline="middle" fill="#374151" font-size="9">1k</text>
  <line x1="90" y1="763.0" x2="760" y2="763.0" stroke="#e5e7eb" stroke-width="1"/>
  <text x="82" y="763.0" text-anchor="end" dominant-baseline="middle" fill="#374151" font-size="9">2k</text>
  <line x1="90" y1="745.5" x2="760" y2="745.5" stroke="#e5e7eb" stroke-width="1"/>
  <text x="82" y="745.5" text-anchor="end" dominant-baseline="middle" fill="#374151" font-size="9">5k</text>
  <line x1="90" y1="732.2" x2="760" y2="732.2" stroke="#e5e7eb" stroke-width="1"/>
  <text x="82" y="732.2" text-anchor="end" dominant-baseline="middle" fill="#374151" font-size="9">10k</text>
  <line x1="90" y1="719.0" x2="760" y2="719.0" stroke="#e5e7eb" stroke-width="1"/>
  <text x="82" y="719.0" text-anchor="end" dominant-baseline="middle" fill="#374151" font-size="9">20k</text>
  <line x1="90" y1="701.5" x2="760" y2="701.5" stroke="#e5e7eb" stroke-width="1"/>
  <text x="82" y="701.5" text-anchor="end" dominant-baseline="middle" fill="#374151" font-size="9">50k</text>
  <line x1="90" y1="688.2" x2="760" y2="688.2" stroke="#e5e7eb" stroke-width="1"/>
  <text x="82" y="688.2" text-anchor="end" dominant-baseline="middle" fill="#374151" font-size="9">100k</text>
  <line x1="90" y1="675.0" x2="760" y2="675.0" stroke="#e5e7eb" stroke-width="1"/>
  <text x="82" y="675.0" text-anchor="end" dominant-baseline="middle" fill="#374151" font-size="9">200k</text>
  <line x1="90" y1="858.3" x2="760" y2="858.3" stroke="#e5e7eb" stroke-width="1" stroke-dasharray="3,6"/>
  <text x="768" y="858.3" text-anchor="start" dominant-baseline="middle" fill="#6b7280" font-size="9">10 MB/s</text>
  <line x1="90" y1="821.7" x2="760" y2="821.7" stroke="#e5e7eb" stroke-width="1" stroke-dasharray="3,6"/>
  <text x="768" y="821.7" text-anchor="start" dominant-baseline="middle" fill="#6b7280" font-size="9">20 MB/s</text>
  <line x1="90" y1="785.0" x2="760" y2="785.0" stroke="#e5e7eb" stroke-width="1" stroke-dasharray="3,6"/>
  <text x="768" y="785.0" text-anchor="start" dominant-baseline="middle" fill="#6b7280" font-size="9">30 MB/s</text>
  <line x1="90" y1="748.3" x2="760" y2="748.3" stroke="#e5e7eb" stroke-width="1" stroke-dasharray="3,6"/>
  <text x="768" y="748.3" text-anchor="start" dominant-baseline="middle" fill="#6b7280" font-size="9">40 MB/s</text>
  <line x1="90" y1="711.7" x2="760" y2="711.7" stroke="#e5e7eb" stroke-width="1" stroke-dasharray="3,6"/>
  <text x="768" y="711.7" text-anchor="start" dominant-baseline="middle" fill="#6b7280" font-size="9">50 MB/s</text>
  <line x1="90" y1="675.0" x2="760" y2="675.0" stroke="#e5e7eb" stroke-width="1" stroke-dasharray="3,6"/>
  <text x="768" y="675.0" text-anchor="start" dominant-baseline="middle" fill="#6b7280" font-size="9">60 MB/s</text>
  <line x1="90.0" y1="675" x2="90.0" y2="895" stroke="#e5e7eb" stroke-width="1"/>
  <line x1="134.7" y1="675" x2="134.7" y2="895" stroke="#e5e7eb" stroke-width="1"/>
  <line x1="179.3" y1="675" x2="179.3" y2="895" stroke="#e5e7eb" stroke-width="1"/>
  <line x1="224.0" y1="675" x2="224.0" y2="895" stroke="#e5e7eb" stroke-width="1"/>
  <line x1="268.7" y1="675" x2="268.7" y2="895" stroke="#e5e7eb" stroke-width="1"/>
  <line x1="313.3" y1="675" x2="313.3" y2="895" stroke="#e5e7eb" stroke-width="1"/>
  <line x1="358.0" y1="675" x2="358.0" y2="895" stroke="#e5e7eb" stroke-width="1"/>
  <line x1="402.7" y1="675" x2="402.7" y2="895" stroke="#e5e7eb" stroke-width="1"/>
  <line x1="447.3" y1="675" x2="447.3" y2="895" stroke="#e5e7eb" stroke-width="1"/>
  <line x1="492.0" y1="675" x2="492.0" y2="895" stroke="#e5e7eb" stroke-width="1"/>
  <line x1="536.7" y1="675" x2="536.7" y2="895" stroke="#e5e7eb" stroke-width="1"/>
  <line x1="581.3" y1="675" x2="581.3" y2="895" stroke="#e5e7eb" stroke-width="1"/>
  <line x1="626.0" y1="675" x2="626.0" y2="895" stroke="#e5e7eb" stroke-width="1"/>
  <line x1="670.7" y1="675" x2="670.7" y2="895" stroke="#e5e7eb" stroke-width="1"/>
  <line x1="715.3" y1="675" x2="715.3" y2="895" stroke="#e5e7eb" stroke-width="1"/>
  <line x1="760.0" y1="675" x2="760.0" y2="895" stroke="#e5e7eb" stroke-width="1"/>
  <line x1="90" y1="675" x2="90" y2="895" stroke="#9ca3af" stroke-width="1.5"/>
  <line x1="760" y1="675" x2="760" y2="895" stroke="#9ca3af" stroke-width="1.5"/>
  <line x1="90" y1="895" x2="760" y2="895" stroke="#9ca3af" stroke-width="1.5"/>
  <text x="90.0" y="909" text-anchor="middle" fill="#374151" font-size="8">8 B</text>
  <text x="134.7" y="909" text-anchor="middle" fill="#374151" font-size="8">16 B</text>
  <text x="179.3" y="909" text-anchor="middle" fill="#374151" font-size="8">32 B</text>
  <text x="224.0" y="909" text-anchor="middle" fill="#374151" font-size="8">64 B</text>
  <text x="268.7" y="909" text-anchor="middle" fill="#374151" font-size="8">128 B</text>
  <text x="313.3" y="909" text-anchor="middle" fill="#374151" font-size="8">256 B</text>
  <text x="358.0" y="909" text-anchor="middle" fill="#374151" font-size="8">512 B</text>
  <text x="402.7" y="909" text-anchor="middle" fill="#374151" font-size="8">1 KiB</text>
  <text x="447.3" y="909" text-anchor="middle" fill="#374151" font-size="8">2 KiB</text>
  <text x="492.0" y="909" text-anchor="middle" fill="#374151" font-size="8">4 KiB</text>
  <text x="536.7" y="909" text-anchor="middle" fill="#374151" font-size="8">8 KiB</text>
  <text x="581.3" y="909" text-anchor="middle" fill="#374151" font-size="8">16 KiB</text>
  <text x="626.0" y="909" text-anchor="middle" fill="#374151" font-size="8">32 KiB</text>
  <text x="670.7" y="909" text-anchor="middle" fill="#374151" font-size="8">64 KiB</text>
  <text x="715.3" y="909" text-anchor="middle" fill="#374151" font-size="8">128 KiB</text>
  <text x="760.0" y="909" text-anchor="middle" fill="#374151" font-size="8">256 KiB</text>
  <text x="40" y="785.0" text-anchor="middle" dominant-baseline="middle" fill="#374151" font-size="10" font-weight="600" transform="rotate(-90,40,785.0)">msg/s (log)</text>
  <polyline points="90.0,679.7 134.7,693.0 179.3,706.2 224.0,719.5 268.7,732.7 313.3,745.9 358.0,759.2 402.7,772.4 447.3,785.7 492.0,798.9 536.7,812.2 581.3,825.4 626.0,838.7 670.7,851.9 715.3,865.2 760.0,878.4" fill="none" stroke="#eab308" stroke-width="1.5" stroke-dasharray="5,3"/>
  <polyline points="90.0,687.5 134.7,697.2 179.3,708.5 224.0,720.6 268.7,733.3 313.3,746.2 358.0,751.7 402.7,759.7 447.3,767.5 492.0,777.2 536.7,787.2 581.3,798.4 626.0,810.5 670.7,823.1 715.3,836.3 760.0,849.5" fill="none" stroke="#60a5fa" stroke-width="1.5" stroke-dasharray="5,3"/>
  <polyline points="90.0,687.5 134.7,697.2 179.3,708.5 224.0,720.6 268.7,707.4 313.3,707.4 358.0,707.9 402.7,709.0 447.3,738.3 492.0,765.2 536.7,781.2 581.3,795.3 626.0,808.8 670.7,822.3 715.3,835.9 760.0,849.3" fill="none" stroke="#1d4ed8" stroke-width="1.5" stroke-dasharray="5,3"/>
  <polyline points="90.0,687.5 134.7,697.2 179.3,708.5 224.0,701.5 268.7,702.2 313.3,703.0 358.0,703.0 402.7,703.0 447.3,734.8 492.0,760.2 536.7,777.0 581.3,790.4 626.0,801.4 670.7,814.8 715.3,828.1 760.0,841.4" fill="none" stroke="#f97316" stroke-width="1.5" stroke-dasharray="5,3"/>
  <polyline points="90.0,890.4 134.7,890.4 179.3,890.4 224.0,890.4 268.7,890.4 313.3,890.4 358.0,890.4 402.7,890.4 447.3,890.4 492.0,890.4 536.7,890.4 581.3,890.4 626.0,890.4 670.7,890.4 715.3,890.4 760.0,890.4" fill="none" stroke="#eab308" stroke-width="2.5" stroke-linecap="round" stroke-linejoin="round"/>
  <circle cx="90.0" cy="890.4" r="2.5" fill="#eab308" stroke="white" stroke-width="1"/>
  <circle cx="134.7" cy="890.4" r="2.5" fill="#eab308" stroke="white" stroke-width="1"/>
  <circle cx="179.3" cy="890.4" r="2.5" fill="#eab308" stroke="white" stroke-width="1"/>
  <circle cx="224.0" cy="890.4" r="2.5" fill="#eab308" stroke="white" stroke-width="1"/>
  <circle cx="268.7" cy="890.4" r="2.5" fill="#eab308" stroke="white" stroke-width="1"/>
  <circle cx="313.3" cy="890.4" r="2.5" fill="#eab308" stroke="white" stroke-width="1"/>
  <circle cx="358.0" cy="890.4" r="2.5" fill="#eab308" stroke="white" stroke-width="1"/>
  <circle cx="402.7" cy="890.4" r="2.5" fill="#eab308" stroke="white" stroke-width="1"/>
  <circle cx="447.3" cy="890.4" r="2.5" fill="#eab308" stroke="white" stroke-width="1"/>
  <circle cx="492.0" cy="890.4" r="2.5" fill="#eab308" stroke="white" stroke-width="1"/>
  <circle cx="536.7" cy="890.4" r="2.5" fill="#eab308" stroke="white" stroke-width="1"/>
  <circle cx="581.3" cy="890.4" r="2.5" fill="#eab308" stroke="white" stroke-width="1"/>
  <circle cx="626.0" cy="890.4" r="2.5" fill="#eab308" stroke="white" stroke-width="1"/>
  <circle cx="670.7" cy="890.4" r="2.5" fill="#eab308" stroke="white" stroke-width="1"/>
  <circle cx="715.3" cy="890.4" r="2.5" fill="#eab308" stroke="white" stroke-width="1"/>
  <circle cx="760.0" cy="890.4" r="2.5" fill="#eab308" stroke="white" stroke-width="1"/>
  <polyline points="90.0,891.9 134.7,891.3 179.3,890.9 224.0,890.7 268.7,890.6 313.3,890.5 358.0,888.2 402.7,886.1 447.3,883.1 492.0,880.7 536.7,878.1 581.3,876.1 626.0,875.0 670.7,874.3 715.3,874.2 760.0,874.2" fill="none" stroke="#60a5fa" stroke-width="2.5" stroke-linecap="round" stroke-linejoin="round"/>
  <circle cx="90.0" cy="891.9" r="2.5" fill="#60a5fa" stroke="white" stroke-width="1"/>
  <circle cx="134.7" cy="891.3" r="2.5" fill="#60a5fa" stroke="white" stroke-width="1"/>
  <circle cx="179.3" cy="890.9" r="2.5" fill="#60a5fa" stroke="white" stroke-width="1"/>
  <circle cx="224.0" cy="890.7" r="2.5" fill="#60a5fa" stroke="white" stroke-width="1"/>
  <circle cx="268.7" cy="890.6" r="2.5" fill="#60a5fa" stroke="white" stroke-width="1"/>
  <circle cx="313.3" cy="890.5" r="2.5" fill="#60a5fa" stroke="white" stroke-width="1"/>
  <circle cx="358.0" cy="888.2" r="2.5" fill="#60a5fa" stroke="white" stroke-width="1"/>
  <circle cx="402.7" cy="886.1" r="2.5" fill="#60a5fa" stroke="white" stroke-width="1"/>
  <circle cx="447.3" cy="883.1" r="2.5" fill="#60a5fa" stroke="white" stroke-width="1"/>
  <circle cx="492.0" cy="880.7" r="2.5" fill="#60a5fa" stroke="white" stroke-width="1"/>
  <circle cx="536.7" cy="878.1" r="2.5" fill="#60a5fa" stroke="white" stroke-width="1"/>
  <circle cx="581.3" cy="876.1" r="2.5" fill="#60a5fa" stroke="white" stroke-width="1"/>
  <circle cx="626.0" cy="875.0" r="2.5" fill="#60a5fa" stroke="white" stroke-width="1"/>
  <circle cx="670.7" cy="874.3" r="2.5" fill="#60a5fa" stroke="white" stroke-width="1"/>
  <circle cx="715.3" cy="874.2" r="2.5" fill="#60a5fa" stroke="white" stroke-width="1"/>
  <circle cx="760.0" cy="874.2" r="2.5" fill="#60a5fa" stroke="white" stroke-width="1"/>
  <polyline points="90.0,891.9 134.7,891.3 179.3,890.9 224.0,890.7 268.7,877.7 313.3,860.5 358.0,828.0 402.7,768.2 447.3,840.4 492.0,868.2 536.7,871.9 581.3,872.9 626.0,873.2 670.7,873.4 715.3,873.8 760.0,874.0" fill="none" stroke="#1d4ed8" stroke-width="2.5" stroke-linecap="round" stroke-linejoin="round"/>
  <circle cx="90.0" cy="891.9" r="2.5" fill="#1d4ed8" stroke="white" stroke-width="1"/>
  <circle cx="134.7" cy="891.3" r="2.5" fill="#1d4ed8" stroke="white" stroke-width="1"/>
  <circle cx="179.3" cy="890.9" r="2.5" fill="#1d4ed8" stroke="white" stroke-width="1"/>
  <circle cx="224.0" cy="890.7" r="2.5" fill="#1d4ed8" stroke="white" stroke-width="1"/>
  <circle cx="268.7" cy="877.7" r="2.5" fill="#1d4ed8" stroke="white" stroke-width="1"/>
  <circle cx="313.3" cy="860.5" r="2.5" fill="#1d4ed8" stroke="white" stroke-width="1"/>
  <circle cx="358.0" cy="828.0" r="2.5" fill="#1d4ed8" stroke="white" stroke-width="1"/>
  <circle cx="402.7" cy="768.2" r="2.5" fill="#1d4ed8" stroke="white" stroke-width="1"/>
  <circle cx="447.3" cy="840.4" r="2.5" fill="#1d4ed8" stroke="white" stroke-width="1"/>
  <circle cx="492.0" cy="868.2" r="2.5" fill="#1d4ed8" stroke="white" stroke-width="1"/>
  <circle cx="536.7" cy="871.9" r="2.5" fill="#1d4ed8" stroke="white" stroke-width="1"/>
  <circle cx="581.3" cy="872.9" r="2.5" fill="#1d4ed8" stroke="white" stroke-width="1"/>
  <circle cx="626.0" cy="873.2" r="2.5" fill="#1d4ed8" stroke="white" stroke-width="1"/>
  <circle cx="670.7" cy="873.4" r="2.5" fill="#1d4ed8" stroke="white" stroke-width="1"/>
  <circle cx="715.3" cy="873.8" r="2.5" fill="#1d4ed8" stroke="white" stroke-width="1"/>
  <circle cx="760.0" cy="874.0" r="2.5" fill="#1d4ed8" stroke="white" stroke-width="1"/>
  <polyline points="90.0,891.9 134.7,891.3 179.3,890.9 224.0,883.3 268.7,872.4 313.3,851.5 358.0,808.1 402.7,721.2 447.3,829.4 492.0,860.2 536.7,866.1 581.3,866.3 626.0,862.8 670.7,863.0 715.3,863.1 760.0,863.2" fill="none" stroke="#f97316" stroke-width="2.5" stroke-linecap="round" stroke-linejoin="round"/>
  <circle cx="90.0" cy="891.9" r="2.5" fill="#f97316" stroke="white" stroke-width="1"/>
  <circle cx="134.7" cy="891.3" r="2.5" fill="#f97316" stroke="white" stroke-width="1"/>
  <circle cx="179.3" cy="890.9" r="2.5" fill="#f97316" stroke="white" stroke-width="1"/>
  <circle cx="224.0" cy="883.3" r="2.5" fill="#f97316" stroke="white" stroke-width="1"/>
  <circle cx="268.7" cy="872.4" r="2.5" fill="#f97316" stroke="white" stroke-width="1"/>
  <circle cx="313.3" cy="851.5" r="2.5" fill="#f97316" stroke="white" stroke-width="1"/>
  <circle cx="358.0" cy="808.1" r="2.5" fill="#f97316" stroke="white" stroke-width="1"/>
  <circle cx="402.7" cy="721.2" r="2.5" fill="#f97316" stroke="white" stroke-width="1"/>
  <circle cx="447.3" cy="829.4" r="2.5" fill="#f97316" stroke="white" stroke-width="1"/>
  <circle cx="492.0" cy="860.2" r="2.5" fill="#f97316" stroke="white" stroke-width="1"/>
  <circle cx="536.7" cy="866.1" r="2.5" fill="#f97316" stroke="white" stroke-width="1"/>
  <circle cx="581.3" cy="866.3" r="2.5" fill="#f97316" stroke="white" stroke-width="1"/>
  <circle cx="626.0" cy="862.8" r="2.5" fill="#f97316" stroke="white" stroke-width="1"/>
  <circle cx="670.7" cy="863.0" r="2.5" fill="#f97316" stroke="white" stroke-width="1"/>
  <circle cx="715.3" cy="863.1" r="2.5" fill="#f97316" stroke="white" stroke-width="1"/>
  <circle cx="760.0" cy="863.2" r="2.5" fill="#f97316" stroke="white" stroke-width="1"/>
  <line x1="90" y1="927" x2="104" y2="927" stroke="#eab308" stroke-width="1.5" stroke-dasharray="4,3"/>
  <line x1="90" y1="939" x2="104" y2="939" stroke="#eab308" stroke-width="2.5"/>
  <text x="108" y="931" fill="#374151" font-size="10" font-weight="500">tcp</text>
  <line x1="258" y1="927" x2="272" y2="927" stroke="#60a5fa" stroke-width="1.5" stroke-dasharray="4,3"/>
  <line x1="258" y1="939" x2="272" y2="939" stroke="#60a5fa" stroke-width="2.5"/>
  <text x="276" y="931" fill="#374151" font-size="10" font-weight="500">lz4</text>
  <line x1="425" y1="927" x2="439" y2="927" stroke="#1d4ed8" stroke-width="1.5" stroke-dasharray="4,3"/>
  <line x1="425" y1="939" x2="439" y2="939" stroke="#1d4ed8" stroke-width="2.5"/>
  <text x="443" y="931" fill="#374151" font-size="10" font-weight="500">lz4+dict</text>
  <line x1="592" y1="927" x2="606" y2="927" stroke="#f97316" stroke-width="1.5" stroke-dasharray="4,3"/>
  <line x1="592" y1="939" x2="606" y2="939" stroke="#f97316" stroke-width="2.5"/>
  <text x="610" y="931" fill="#374151" font-size="10" font-weight="500">zstd</text>
  <text x="425.0" y="957" text-anchor="middle" fill="#9ca3af" font-size="9">dashed = msg/s log (left) · solid = virtual throughput (right)</text>
</svg>
