<svg xmlns="http://www.w3.org/2000/svg" viewBox="0 0 850 665" font-family="system-ui, -apple-system, sans-serif">
  <rect width="850" height="665" fill="white"/>
  <text x="425.0" y="18.0" text-anchor="middle" fill="#111827" font-size="13" font-weight="700">PUSH/PULL throughput — inproc (higher is better)</text>
  <line x1="90.0" y1="251.2" x2="760.0" y2="251.2" stroke="#e5e7eb" stroke-width="1"/>
  <text x="82.0" y="251.2" text-anchor="end" dominant-baseline="middle" fill="#374151" font-size="10">2M</text>
  <line x1="90.0" y1="232.4" x2="760.0" y2="232.4" stroke="#e5e7eb" stroke-width="1"/>
  <text x="82.0" y="232.4" text-anchor="end" dominant-baseline="middle" fill="#374151" font-size="10">4M</text>
  <line x1="90.0" y1="213.6" x2="760.0" y2="213.6" stroke="#e5e7eb" stroke-width="1"/>
  <text x="82.0" y="213.6" text-anchor="end" dominant-baseline="middle" fill="#374151" font-size="10">6M</text>
  <line x1="90.0" y1="194.8" x2="760.0" y2="194.8" stroke="#e5e7eb" stroke-width="1"/>
  <text x="82.0" y="194.8" text-anchor="end" dominant-baseline="middle" fill="#374151" font-size="10">8M</text>
  <line x1="90.0" y1="176.0" x2="760.0" y2="176.0" stroke="#e5e7eb" stroke-width="1"/>
  <text x="82.0" y="176.0" text-anchor="end" dominant-baseline="middle" fill="#374151" font-size="10">10M</text>
  <line x1="90.0" y1="157.2" x2="760.0" y2="157.2" stroke="#e5e7eb" stroke-width="1"/>
  <text x="82.0" y="157.2" text-anchor="end" dominant-baseline="middle" fill="#374151" font-size="10">12M</text>
  <line x1="90.0" y1="138.4" x2="760.0" y2="138.4" stroke="#e5e7eb" stroke-width="1"/>
  <text x="82.0" y="138.4" text-anchor="end" dominant-baseline="middle" fill="#374151" font-size="10">14M</text>
  <line x1="90.0" y1="119.6" x2="760.0" y2="119.6" stroke="#e5e7eb" stroke-width="1"/>
  <text x="82.0" y="119.6" text-anchor="end" dominant-baseline="middle" fill="#374151" font-size="10">16M</text>
  <line x1="90.0" y1="100.8" x2="760.0" y2="100.8" stroke="#e5e7eb" stroke-width="1"/>
  <text x="82.0" y="100.8" text-anchor="end" dominant-baseline="middle" fill="#374151" font-size="10">18M</text>
  <line x1="90.0" y1="82.0" x2="760.0" y2="82.0" stroke="#e5e7eb" stroke-width="1"/>
  <text x="82.0" y="82.0" text-anchor="end" dominant-baseline="middle" fill="#374151" font-size="10">20M</text>
  <line x1="90.0" y1="63.2" x2="760.0" y2="63.2" stroke="#e5e7eb" stroke-width="1"/>
  <text x="82.0" y="63.2" text-anchor="end" dominant-baseline="middle" fill="#374151" font-size="10">22M</text>
  <line x1="90.0" y1="44.4" x2="760.0" y2="44.4" stroke="#e5e7eb" stroke-width="1"/>
  <text x="82.0" y="44.4" text-anchor="end" dominant-baseline="middle" fill="#374151" font-size="10">24M</text>
  <line x1="90.0" y1="270.0" x2="760.0" y2="270.0" stroke="#e5e7eb" stroke-width="1" stroke-dasharray="3,6"/>
  <text x="768.0" y="270.0" text-anchor="start" dominant-baseline="middle" fill="#6b7280" font-size="10">0.01 GB/s</text>
  <line x1="90.0" y1="255.9" x2="760.0" y2="255.9" stroke="#e5e7eb" stroke-width="1" stroke-dasharray="2,8"/>
  <line x1="90.0" y1="237.1" x2="760.0" y2="237.1" stroke="#e5e7eb" stroke-width="1" stroke-dasharray="2,8"/>
  <line x1="90.0" y1="223.0" x2="760.0" y2="223.0" stroke="#e5e7eb" stroke-width="1" stroke-dasharray="3,6"/>
  <text x="768.0" y="223.0" text-anchor="start" dominant-baseline="middle" fill="#6b7280" font-size="10">0.1 GB/s</text>
  <line x1="90.0" y1="208.9" x2="760.0" y2="208.9" stroke="#e5e7eb" stroke-width="1" stroke-dasharray="2,8"/>
  <line x1="90.0" y1="190.1" x2="760.0" y2="190.1" stroke="#e5e7eb" stroke-width="1" stroke-dasharray="2,8"/>
  <line x1="90.0" y1="176.0" x2="760.0" y2="176.0" stroke="#e5e7eb" stroke-width="1" stroke-dasharray="3,6"/>
  <text x="768.0" y="176.0" text-anchor="start" dominant-baseline="middle" fill="#6b7280" font-size="10">1 GB/s</text>
  <line x1="90.0" y1="161.9" x2="760.0" y2="161.9" stroke="#e5e7eb" stroke-width="1" stroke-dasharray="2,8"/>
  <line x1="90.0" y1="143.1" x2="760.0" y2="143.1" stroke="#e5e7eb" stroke-width="1" stroke-dasharray="2,8"/>
  <line x1="90.0" y1="129.0" x2="760.0" y2="129.0" stroke="#e5e7eb" stroke-width="1" stroke-dasharray="3,6"/>
  <text x="768.0" y="129.0" text-anchor="start" dominant-baseline="middle" fill="#6b7280" font-size="10">10 GB/s</text>
  <line x1="90.0" y1="114.9" x2="760.0" y2="114.9" stroke="#e5e7eb" stroke-width="1" stroke-dasharray="2,8"/>
  <line x1="90.0" y1="96.1" x2="760.0" y2="96.1" stroke="#e5e7eb" stroke-width="1" stroke-dasharray="2,8"/>
  <line x1="90.0" y1="82.0" x2="760.0" y2="82.0" stroke="#e5e7eb" stroke-width="1" stroke-dasharray="3,6"/>
  <text x="768.0" y="82.0" text-anchor="start" dominant-baseline="middle" fill="#6b7280" font-size="10">100 GB/s</text>
  <line x1="90.0" y1="67.9" x2="760.0" y2="67.9" stroke="#e5e7eb" stroke-width="1" stroke-dasharray="2,8"/>
  <line x1="90.0" y1="49.1" x2="760.0" y2="49.1" stroke="#e5e7eb" stroke-width="1" stroke-dasharray="2,8"/>
  <line x1="90.0" y1="35.0" x2="760.0" y2="35.0" stroke="#e5e7eb" stroke-width="1" stroke-dasharray="3,6"/>
  <text x="768.0" y="35.0" text-anchor="start" dominant-baseline="middle" fill="#6b7280" font-size="10">1000 GB/s</text>
  <line x1="90.0" y1="35.0" x2="90.0" y2="270.0" stroke="#e5e7eb" stroke-width="1"/>
  <line x1="145.8" y1="35.0" x2="145.8" y2="270.0" stroke="#e5e7eb" stroke-width="1"/>
  <line x1="201.7" y1="35.0" x2="201.7" y2="270.0" stroke="#e5e7eb" stroke-width="1"/>
  <line x1="257.5" y1="35.0" x2="257.5" y2="270.0" stroke="#e5e7eb" stroke-width="1"/>
  <line x1="313.3" y1="35.0" x2="313.3" y2="270.0" stroke="#e5e7eb" stroke-width="1"/>
  <line x1="369.2" y1="35.0" x2="369.2" y2="270.0" stroke="#e5e7eb" stroke-width="1"/>
  <line x1="425.0" y1="35.0" x2="425.0" y2="270.0" stroke="#e5e7eb" stroke-width="1"/>
  <line x1="480.8" y1="35.0" x2="480.8" y2="270.0" stroke="#e5e7eb" stroke-width="1"/>
  <line x1="536.7" y1="35.0" x2="536.7" y2="270.0" stroke="#e5e7eb" stroke-width="1"/>
  <line x1="592.5" y1="35.0" x2="592.5" y2="270.0" stroke="#e5e7eb" stroke-width="1"/>
  <line x1="648.3" y1="35.0" x2="648.3" y2="270.0" stroke="#e5e7eb" stroke-width="1"/>
  <line x1="704.2" y1="35.0" x2="704.2" y2="270.0" stroke="#e5e7eb" stroke-width="1"/>
  <line x1="760.0" y1="35.0" x2="760.0" y2="270.0" stroke="#e5e7eb" stroke-width="1"/>
  <line x1="90.0" y1="35.0" x2="90.0" y2="270.0" stroke="#9ca3af" stroke-width="1.5"/>
  <line x1="760.0" y1="35.0" x2="760.0" y2="270.0" stroke="#9ca3af" stroke-width="1.5"/>
  <line x1="90.0" y1="270.0" x2="760.0" y2="270.0" stroke="#9ca3af" stroke-width="1.5"/>
  <text x="40.0" y="152.5" text-anchor="middle" fill="#374151" font-size="10" font-weight="600" transform="rotate(-90,40.0,152.5)">msg/s</text>
  <polyline points="90.0,166.8 145.8,162.8 201.7,173.5 257.5,205.8 313.3,243.4 369.2,243.2 425.0,243.9 480.8,248.0 536.7,250.3 592.5,252.1 648.3,253.8 704.2,258.4 760.0,262.4" fill="none" stroke="#eab308" stroke-width="2" stroke-dasharray="6,4"/>
  <polyline points="90.0,237.5 145.8,233.8 201.7,238.7 257.5,237.7 313.3,232.0 369.2,239.1 425.0,238.0 480.8,233.3 536.7,237.3 592.5,235.6 648.3,239.5 704.2,240.3 760.0,233.8" fill="none" stroke="#f97316" stroke-width="2" stroke-dasharray="6,4"/>
  <polyline points="90.0,229.3 145.8,229.9 201.7,227.7 257.5,230.5 313.3,229.5 369.2,231.1 425.0,230.7 480.8,229.3 536.7,228.6 592.5,231.1 648.3,230.1 704.2,228.2 760.0,230.4" fill="none" stroke="#8b5cf6" stroke-width="2" stroke-dasharray="6,4"/>
  <polyline points="90.0,135.8 145.8,126.7 201.7,142.3 257.5,156.3 313.3,160.1 369.2,158.9 425.0,165.9 480.8,161.0 536.7,162.8 592.5,161.2 648.3,160.2 704.2,165.7 760.0,152.6" fill="none" stroke="#dc2626" stroke-width="2" stroke-dasharray="6,4"/>
  <polyline points="90.0,225.7 145.8,210.7 201.7,198.7 257.5,192.9 313.3,196.7 369.2,182.4 425.0,168.8 480.8,158.1 536.7,146.2 592.5,134.1 648.3,122.0 704.2,114.6 760.0,109.2" fill="none" stroke="#eab308" stroke-width="2.5" stroke-linecap="round" stroke-linejoin="round"/>
  <circle cx="90.0" cy="225.7" r="3" fill="#eab308" stroke="white" stroke-width="1"/>
  <circle cx="145.8" cy="210.7" r="3" fill="#eab308" stroke="white" stroke-width="1"/>
  <circle cx="201.7" cy="198.7" r="3" fill="#eab308" stroke="white" stroke-width="1"/>
  <circle cx="257.5" cy="192.9" r="3" fill="#eab308" stroke="white" stroke-width="1"/>
  <circle cx="313.3" cy="196.7" r="3" fill="#eab308" stroke="white" stroke-width="1"/>
  <circle cx="369.2" cy="182.4" r="3" fill="#eab308" stroke="white" stroke-width="1"/>
  <circle cx="425.0" cy="168.8" r="3" fill="#eab308" stroke="white" stroke-width="1"/>
  <circle cx="480.8" cy="158.1" r="3" fill="#eab308" stroke="white" stroke-width="1"/>
  <circle cx="536.7" cy="146.2" r="3" fill="#eab308" stroke="white" stroke-width="1"/>
  <circle cx="592.5" cy="134.1" r="3" fill="#eab308" stroke="white" stroke-width="1"/>
  <circle cx="648.3" cy="122.0" r="3" fill="#eab308" stroke="white" stroke-width="1"/>
  <circle cx="704.2" cy="114.6" r="3" fill="#eab308" stroke="white" stroke-width="1"/>
  <circle cx="760.0" cy="109.2" r="3" fill="#eab308" stroke="white" stroke-width="1"/>
  <polyline points="90.0,249.2 145.8,232.9 201.7,221.7 257.5,206.9 313.3,189.4 369.2,179.6 425.0,164.7 480.8,147.7 536.7,135.9 592.5,120.7 648.3,109.1 704.2,95.5 760.0,77.2" fill="none" stroke="#f97316" stroke-width="2.5" stroke-linecap="round" stroke-linejoin="round"/>
  <circle cx="90.0" cy="249.2" r="3" fill="#f97316" stroke="white" stroke-width="1"/>
  <circle cx="145.8" cy="232.9" r="3" fill="#f97316" stroke="white" stroke-width="1"/>
  <circle cx="201.7" cy="221.7" r="3" fill="#f97316" stroke="white" stroke-width="1"/>
  <circle cx="257.5" cy="206.9" r="3" fill="#f97316" stroke="white" stroke-width="1"/>
  <circle cx="313.3" cy="189.4" r="3" fill="#f97316" stroke="white" stroke-width="1"/>
  <circle cx="369.2" cy="179.6" r="3" fill="#f97316" stroke="white" stroke-width="1"/>
  <circle cx="425.0" cy="164.7" r="3" fill="#f97316" stroke="white" stroke-width="1"/>
  <circle cx="480.8" cy="147.7" r="3" fill="#f97316" stroke="white" stroke-width="1"/>
  <circle cx="536.7" cy="135.9" r="3" fill="#f97316" stroke="white" stroke-width="1"/>
  <circle cx="592.5" cy="120.7" r="3" fill="#f97316" stroke="white" stroke-width="1"/>
  <circle cx="648.3" cy="109.1" r="3" fill="#f97316" stroke="white" stroke-width="1"/>
  <circle cx="704.2" cy="95.5" r="3" fill="#f97316" stroke="white" stroke-width="1"/>
  <circle cx="760.0" cy="77.2" r="3" fill="#f97316" stroke="white" stroke-width="1"/>
  <polyline points="90.0,244.7 145.8,230.8 201.7,215.5 257.5,202.8 313.3,188.1 369.2,174.8 425.0,160.5 480.8,145.6 536.7,131.1 592.5,118.2 648.3,103.6 704.2,88.5 760.0,75.4" fill="none" stroke="#8b5cf6" stroke-width="2.5" stroke-linecap="round" stroke-linejoin="round"/>
  <circle cx="90.0" cy="244.7" r="3" fill="#8b5cf6" stroke="white" stroke-width="1"/>
  <circle cx="145.8" cy="230.8" r="3" fill="#8b5cf6" stroke="white" stroke-width="1"/>
  <circle cx="201.7" cy="215.5" r="3" fill="#8b5cf6" stroke="white" stroke-width="1"/>
  <circle cx="257.5" cy="202.8" r="3" fill="#8b5cf6" stroke="white" stroke-width="1"/>
  <circle cx="313.3" cy="188.1" r="3" fill="#8b5cf6" stroke="white" stroke-width="1"/>
  <circle cx="369.2" cy="174.8" r="3" fill="#8b5cf6" stroke="white" stroke-width="1"/>
  <circle cx="425.0" cy="160.5" r="3" fill="#8b5cf6" stroke="white" stroke-width="1"/>
  <circle cx="480.8" cy="145.6" r="3" fill="#8b5cf6" stroke="white" stroke-width="1"/>
  <circle cx="536.7" cy="131.1" r="3" fill="#8b5cf6" stroke="white" stroke-width="1"/>
  <circle cx="592.5" cy="118.2" r="3" fill="#8b5cf6" stroke="white" stroke-width="1"/>
  <circle cx="648.3" cy="103.6" r="3" fill="#8b5cf6" stroke="white" stroke-width="1"/>
  <circle cx="704.2" cy="88.5" r="3" fill="#8b5cf6" stroke="white" stroke-width="1"/>
  <circle cx="760.0" cy="75.4" r="3" fill="#8b5cf6" stroke="white" stroke-width="1"/>
  <polyline points="90.0,220.3 145.8,204.8 201.7,193.0 257.5,181.2 313.3,167.8 369.2,153.4 425.0,140.6 480.8,125.5 536.7,111.7 592.5,97.2 648.3,82.9 704.2,69.8 760.0,53.2" fill="none" stroke="#dc2626" stroke-width="2.5" stroke-linecap="round" stroke-linejoin="round"/>
  <circle cx="90.0" cy="220.3" r="3" fill="#dc2626" stroke="white" stroke-width="1"/>
  <circle cx="145.8" cy="204.8" r="3" fill="#dc2626" stroke="white" stroke-width="1"/>
  <circle cx="201.7" cy="193.0" r="3" fill="#dc2626" stroke="white" stroke-width="1"/>
  <circle cx="257.5" cy="181.2" r="3" fill="#dc2626" stroke="white" stroke-width="1"/>
  <circle cx="313.3" cy="167.8" r="3" fill="#dc2626" stroke="white" stroke-width="1"/>
  <circle cx="369.2" cy="153.4" r="3" fill="#dc2626" stroke="white" stroke-width="1"/>
  <circle cx="425.0" cy="140.6" r="3" fill="#dc2626" stroke="white" stroke-width="1"/>
  <circle cx="480.8" cy="125.5" r="3" fill="#dc2626" stroke="white" stroke-width="1"/>
  <circle cx="536.7" cy="111.7" r="3" fill="#dc2626" stroke="white" stroke-width="1"/>
  <circle cx="592.5" cy="97.2" r="3" fill="#dc2626" stroke="white" stroke-width="1"/>
  <circle cx="648.3" cy="82.9" r="3" fill="#dc2626" stroke="white" stroke-width="1"/>
  <circle cx="704.2" cy="69.8" r="3" fill="#dc2626" stroke="white" stroke-width="1"/>
  <circle cx="760.0" cy="53.2" r="3" fill="#dc2626" stroke="white" stroke-width="1"/>
  <text x="90.0" y="284.0" text-anchor="middle" fill="#374151" font-size="8.5">8 B</text>
  <text x="145.8" y="284.0" text-anchor="middle" fill="#374151" font-size="8.5">16 B</text>
  <text x="201.7" y="284.0" text-anchor="middle" fill="#374151" font-size="8.5">32 B</text>
  <text x="257.5" y="284.0" text-anchor="middle" fill="#374151" font-size="8.5">64 B</text>
  <text x="313.3" y="284.0" text-anchor="middle" fill="#374151" font-size="8.5">128 B</text>
  <text x="369.2" y="284.0" text-anchor="middle" fill="#374151" font-size="8.5">256 B</text>
  <text x="425.0" y="284.0" text-anchor="middle" fill="#374151" font-size="8.5">512 B</text>
  <text x="480.8" y="284.0" text-anchor="middle" fill="#374151" font-size="8.5">1 KiB</text>
  <text x="536.7" y="284.0" text-anchor="middle" fill="#374151" font-size="8.5">2 KiB</text>
  <text x="592.5" y="284.0" text-anchor="middle" fill="#374151" font-size="8.5">4 KiB</text>
  <text x="648.3" y="284.0" text-anchor="middle" fill="#374151" font-size="8.5">8 KiB</text>
  <text x="704.2" y="284.0" text-anchor="middle" fill="#374151" font-size="8.5">16 KiB</text>
  <text x="760.0" y="284.0" text-anchor="middle" fill="#374151" font-size="8.5">32 KiB</text>
  <text x="425.0" y="333.0" text-anchor="middle" fill="#111827" font-size="13" font-weight="700">REQ/REP latency — inproc (p50 µs, lower is better)</text>
  <line x1="90.0" y1="502.0" x2="760.0" y2="502.0" stroke="#e5e7eb" stroke-width="1"/>
  <text x="82.0" y="502.0" text-anchor="end" dominant-baseline="middle" fill="#374151" font-size="10">5</text>
  <line x1="90.0" y1="464.0" x2="760.0" y2="464.0" stroke="#e5e7eb" stroke-width="1"/>
  <text x="82.0" y="464.0" text-anchor="end" dominant-baseline="middle" fill="#374151" font-size="10">10</text>
  <line x1="90.0" y1="426.0" x2="760.0" y2="426.0" stroke="#e5e7eb" stroke-width="1"/>
  <text x="82.0" y="426.0" text-anchor="end" dominant-baseline="middle" fill="#374151" font-size="10">15</text>
  <line x1="90.0" y1="388.0" x2="760.0" y2="388.0" stroke="#e5e7eb" stroke-width="1"/>
  <text x="82.0" y="388.0" text-anchor="end" dominant-baseline="middle" fill="#374151" font-size="10">20</text>
  <line x1="90.0" y1="350.0" x2="760.0" y2="350.0" stroke="#e5e7eb" stroke-width="1"/>
  <text x="82.0" y="350.0" text-anchor="end" dominant-baseline="middle" fill="#374151" font-size="10">25</text>
  <line x1="90.0" y1="350.0" x2="90.0" y2="540.0" stroke="#e5e7eb" stroke-width="1"/>
  <line x1="145.8" y1="350.0" x2="145.8" y2="540.0" stroke="#e5e7eb" stroke-width="1"/>
  <line x1="201.7" y1="350.0" x2="201.7" y2="540.0" stroke="#e5e7eb" stroke-width="1"/>
  <line x1="257.5" y1="350.0" x2="257.5" y2="540.0" stroke="#e5e7eb" stroke-width="1"/>
  <line x1="313.3" y1="350.0" x2="313.3" y2="540.0" stroke="#e5e7eb" stroke-width="1"/>
  <line x1="369.2" y1="350.0" x2="369.2" y2="540.0" stroke="#e5e7eb" stroke-width="1"/>
  <line x1="425.0" y1="350.0" x2="425.0" y2="540.0" stroke="#e5e7eb" stroke-width="1"/>
  <line x1="480.8" y1="350.0" x2="480.8" y2="540.0" stroke="#e5e7eb" stroke-width="1"/>
  <line x1="536.7" y1="350.0" x2="536.7" y2="540.0" stroke="#e5e7eb" stroke-width="1"/>
  <line x1="592.5" y1="350.0" x2="592.5" y2="540.0" stroke="#e5e7eb" stroke-width="1"/>
  <line x1="648.3" y1="350.0" x2="648.3" y2="540.0" stroke="#e5e7eb" stroke-width="1"/>
  <line x1="704.2" y1="350.0" x2="704.2" y2="540.0" stroke="#e5e7eb" stroke-width="1"/>
  <line x1="760.0" y1="350.0" x2="760.0" y2="540.0" stroke="#e5e7eb" stroke-width="1"/>
  <line x1="90.0" y1="350.0" x2="90.0" y2="540.0" stroke="#9ca3af" stroke-width="1.5"/>
  <line x1="90.0" y1="540.0" x2="760.0" y2="540.0" stroke="#9ca3af" stroke-width="1.5"/>
  <text x="40.0" y="445.0" text-anchor="middle" fill="#374151" font-size="10" font-weight="600" transform="rotate(-90,40.0,445.0)">p50 latency (µs)</text>
  <polyline points="90.0,387.4 145.8,385.7 201.7,395.0 257.5,398.1 313.3,390.7 369.2,385.7 425.0,397.3 480.8,381.9 536.7,381.6 592.5,381.9 648.3,377.6 704.2,370.2 760.0,363.6" fill="none" stroke="#eab308" stroke-width="2.5" stroke-linecap="round" stroke-linejoin="round"/>
  <circle cx="90.0" cy="387.4" r="3" fill="#eab308" stroke="white" stroke-width="1"/>
  <circle cx="145.8" cy="385.7" r="3" fill="#eab308" stroke="white" stroke-width="1"/>
  <circle cx="201.7" cy="395.0" r="3" fill="#eab308" stroke="white" stroke-width="1"/>
  <circle cx="257.5" cy="398.1" r="3" fill="#eab308" stroke="white" stroke-width="1"/>
  <circle cx="313.3" cy="390.7" r="3" fill="#eab308" stroke="white" stroke-width="1"/>
  <circle cx="369.2" cy="385.7" r="3" fill="#eab308" stroke="white" stroke-width="1"/>
  <circle cx="425.0" cy="397.3" r="3" fill="#eab308" stroke="white" stroke-width="1"/>
  <circle cx="480.8" cy="381.9" r="3" fill="#eab308" stroke="white" stroke-width="1"/>
  <circle cx="536.7" cy="381.6" r="3" fill="#eab308" stroke="white" stroke-width="1"/>
  <circle cx="592.5" cy="381.9" r="3" fill="#eab308" stroke="white" stroke-width="1"/>
  <circle cx="648.3" cy="377.6" r="3" fill="#eab308" stroke="white" stroke-width="1"/>
  <circle cx="704.2" cy="370.2" r="3" fill="#eab308" stroke="white" stroke-width="1"/>
  <circle cx="760.0" cy="363.6" r="3" fill="#eab308" stroke="white" stroke-width="1"/>
  <polyline points="90.0,423.7 145.8,429.9 201.7,426.5 257.5,417.8 313.3,390.1 369.2,426.1 425.0,431.4 480.8,418.4 536.7,424.8 592.5,430.4 648.3,424.5 704.2,409.5 760.0,387.6" fill="none" stroke="#f97316" stroke-width="2.5" stroke-linecap="round" stroke-linejoin="round"/>
  <circle cx="90.0" cy="423.7" r="3" fill="#f97316" stroke="white" stroke-width="1"/>
  <circle cx="145.8" cy="429.9" r="3" fill="#f97316" stroke="white" stroke-width="1"/>
  <circle cx="201.7" cy="426.5" r="3" fill="#f97316" stroke="white" stroke-width="1"/>
  <circle cx="257.5" cy="417.8" r="3" fill="#f97316" stroke="white" stroke-width="1"/>
  <circle cx="313.3" cy="390.1" r="3" fill="#f97316" stroke="white" stroke-width="1"/>
  <circle cx="369.2" cy="426.1" r="3" fill="#f97316" stroke="white" stroke-width="1"/>
  <circle cx="425.0" cy="431.4" r="3" fill="#f97316" stroke="white" stroke-width="1"/>
  <circle cx="480.8" cy="418.4" r="3" fill="#f97316" stroke="white" stroke-width="1"/>
  <circle cx="536.7" cy="424.8" r="3" fill="#f97316" stroke="white" stroke-width="1"/>
  <circle cx="592.5" cy="430.4" r="3" fill="#f97316" stroke="white" stroke-width="1"/>
  <circle cx="648.3" cy="424.5" r="3" fill="#f97316" stroke="white" stroke-width="1"/>
  <circle cx="704.2" cy="409.5" r="3" fill="#f97316" stroke="white" stroke-width="1"/>
  <circle cx="760.0" cy="387.6" r="3" fill="#f97316" stroke="white" stroke-width="1"/>
  <polyline points="90.0,522.3 145.8,522.3 201.7,522.3 257.5,522.5 313.3,522.5 369.2,522.4 425.0,522.3 480.8,522.5 536.7,522.1 592.5,522.5 648.3,522.4 704.2,522.1 760.0,522.3" fill="none" stroke="#8b5cf6" stroke-width="2.5" stroke-linecap="round" stroke-linejoin="round"/>
  <circle cx="90.0" cy="522.3" r="3" fill="#8b5cf6" stroke="white" stroke-width="1"/>
  <circle cx="145.8" cy="522.3" r="3" fill="#8b5cf6" stroke="white" stroke-width="1"/>
  <circle cx="201.7" cy="522.3" r="3" fill="#8b5cf6" stroke="white" stroke-width="1"/>
  <circle cx="257.5" cy="522.5" r="3" fill="#8b5cf6" stroke="white" stroke-width="1"/>
  <circle cx="313.3" cy="522.5" r="3" fill="#8b5cf6" stroke="white" stroke-width="1"/>
  <circle cx="369.2" cy="522.4" r="3" fill="#8b5cf6" stroke="white" stroke-width="1"/>
  <circle cx="425.0" cy="522.3" r="3" fill="#8b5cf6" stroke="white" stroke-width="1"/>
  <circle cx="480.8" cy="522.5" r="3" fill="#8b5cf6" stroke="white" stroke-width="1"/>
  <circle cx="536.7" cy="522.1" r="3" fill="#8b5cf6" stroke="white" stroke-width="1"/>
  <circle cx="592.5" cy="522.5" r="3" fill="#8b5cf6" stroke="white" stroke-width="1"/>
  <circle cx="648.3" cy="522.4" r="3" fill="#8b5cf6" stroke="white" stroke-width="1"/>
  <circle cx="704.2" cy="522.1" r="3" fill="#8b5cf6" stroke="white" stroke-width="1"/>
  <circle cx="760.0" cy="522.3" r="3" fill="#8b5cf6" stroke="white" stroke-width="1"/>
  <polyline points="90.0,408.2 145.8,406.6 201.7,403.0 257.5,406.4 313.3,416.6 369.2,405.0 425.0,405.0 480.8,405.3 536.7,416.0 592.5,405.3 648.3,405.8 704.2,403.8 760.0,423.9" fill="none" stroke="#dc2626" stroke-width="2.5" stroke-linecap="round" stroke-linejoin="round"/>
  <circle cx="90.0" cy="408.2" r="3" fill="#dc2626" stroke="white" stroke-width="1"/>
  <circle cx="145.8" cy="406.6" r="3" fill="#dc2626" stroke="white" stroke-width="1"/>
  <circle cx="201.7" cy="403.0" r="3" fill="#dc2626" stroke="white" stroke-width="1"/>
  <circle cx="257.5" cy="406.4" r="3" fill="#dc2626" stroke="white" stroke-width="1"/>
  <circle cx="313.3" cy="416.6" r="3" fill="#dc2626" stroke="white" stroke-width="1"/>
  <circle cx="369.2" cy="405.0" r="3" fill="#dc2626" stroke="white" stroke-width="1"/>
  <circle cx="425.0" cy="405.0" r="3" fill="#dc2626" stroke="white" stroke-width="1"/>
  <circle cx="480.8" cy="405.3" r="3" fill="#dc2626" stroke="white" stroke-width="1"/>
  <circle cx="536.7" cy="416.0" r="3" fill="#dc2626" stroke="white" stroke-width="1"/>
  <circle cx="592.5" cy="405.3" r="3" fill="#dc2626" stroke="white" stroke-width="1"/>
  <circle cx="648.3" cy="405.8" r="3" fill="#dc2626" stroke="white" stroke-width="1"/>
  <circle cx="704.2" cy="403.8" r="3" fill="#dc2626" stroke="white" stroke-width="1"/>
  <circle cx="760.0" cy="423.9" r="3" fill="#dc2626" stroke="white" stroke-width="1"/>
  <text x="90.0" y="554.0" text-anchor="middle" fill="#374151" font-size="8.5">8 B</text>
  <text x="145.8" y="554.0" text-anchor="middle" fill="#374151" font-size="8.5">16 B</text>
  <text x="201.7" y="554.0" text-anchor="middle" fill="#374151" font-size="8.5">32 B</text>
  <text x="257.5" y="554.0" text-anchor="middle" fill="#374151" font-size="8.5">64 B</text>
  <text x="313.3" y="554.0" text-anchor="middle" fill="#374151" font-size="8.5">128 B</text>
  <text x="369.2" y="554.0" text-anchor="middle" fill="#374151" font-size="8.5">256 B</text>
  <text x="425.0" y="554.0" text-anchor="middle" fill="#374151" font-size="8.5">512 B</text>
  <text x="480.8" y="554.0" text-anchor="middle" fill="#374151" font-size="8.5">1 KiB</text>
  <text x="536.7" y="554.0" text-anchor="middle" fill="#374151" font-size="8.5">2 KiB</text>
  <text x="592.5" y="554.0" text-anchor="middle" fill="#374151" font-size="8.5">4 KiB</text>
  <text x="648.3" y="554.0" text-anchor="middle" fill="#374151" font-size="8.5">8 KiB</text>
  <text x="704.2" y="554.0" text-anchor="middle" fill="#374151" font-size="8.5">16 KiB</text>
  <text x="760.0" y="554.0" text-anchor="middle" fill="#374151" font-size="8.5">32 KiB</text>
  <line x1="145" y1="600" x2="159" y2="600" stroke="#eab308" stroke-width="2.5"/>
  <circle cx="152" cy="600" r="2.5" fill="#eab308"/>
  <text x="165" y="604" fill="#374151" font-size="11" font-weight="500">libzmq v4.3.5</text>
  <line x1="285" y1="600" x2="299" y2="600" stroke="#dc2626" stroke-width="2.5"/>
  <circle cx="292" cy="600" r="2.5" fill="#dc2626"/>
  <text x="305" y="604" fill="#374151" font-size="11" font-weight="500">omq-compio (MT)</text>
  <line x1="425" y1="600" x2="439" y2="600" stroke="#8b5cf6" stroke-width="2.5"/>
  <circle cx="432" cy="600" r="2.5" fill="#8b5cf6"/>
  <text x="445" y="604" fill="#374151" font-size="11" font-weight="500">omq-compio (ST)</text>
  <line x1="565" y1="600" x2="579" y2="600" stroke="#f97316" stroke-width="2.5"/>
  <circle cx="572" cy="600" r="2.5" fill="#f97316"/>
  <text x="585" y="604" fill="#374151" font-size="11" font-weight="500">omq-tokio</text>
  <line x1="265" y1="622" x2="285" y2="622" stroke="#6b7280" stroke-width="2" stroke-dasharray="6,4"/>
  <text x="291" y="626" fill="#6b7280" font-size="10">msg/s (left axis)</text>
  <line x1="435" y1="622" x2="455" y2="622" stroke="#6b7280" stroke-width="2"/>
  <circle cx="445" cy="622" r="2" fill="#6b7280"/>
  <text x="461" y="626" fill="#6b7280" font-size="10">throughput / GB/s (right axis, log)</text>
</svg>
