<svg xmlns="http://www.w3.org/2000/svg" viewBox="0 0 850 684" font-family="system-ui, -apple-system, sans-serif">
  <rect width="850" height="684" fill="white"/>
  <text x="425.0" y="32.0" text-anchor="middle" fill="#111827" font-size="13" font-weight="700">PUSH/PULL throughput: TCP loopback, 2-process (higher is better)</text>
  <line x1="90.0" y1="357.2" x2="760.0" y2="357.2" stroke="#e5e7eb" stroke-width="1"/>
  <text x="82.0" y="357.2" text-anchor="end" dominant-baseline="middle" fill="#374151" font-size="10">2M</text>
  <line x1="90.0" y1="330.4" x2="760.0" y2="330.4" stroke="#e5e7eb" stroke-width="1"/>
  <text x="82.0" y="330.4" text-anchor="end" dominant-baseline="middle" fill="#374151" font-size="10">4M</text>
  <line x1="90.0" y1="303.6" x2="760.0" y2="303.6" stroke="#e5e7eb" stroke-width="1"/>
  <text x="82.0" y="303.6" text-anchor="end" dominant-baseline="middle" fill="#374151" font-size="10">6M</text>
  <line x1="90.0" y1="276.8" x2="760.0" y2="276.8" stroke="#e5e7eb" stroke-width="1"/>
  <text x="82.0" y="276.8" text-anchor="end" dominant-baseline="middle" fill="#374151" font-size="10">8M</text>
  <line x1="90.0" y1="250.0" x2="760.0" y2="250.0" stroke="#e5e7eb" stroke-width="1"/>
  <text x="82.0" y="250.0" text-anchor="end" dominant-baseline="middle" fill="#374151" font-size="10">10M</text>
  <line x1="90.0" y1="223.2" x2="760.0" y2="223.2" stroke="#e5e7eb" stroke-width="1"/>
  <text x="82.0" y="223.2" text-anchor="end" dominant-baseline="middle" fill="#374151" font-size="10">12M</text>
  <line x1="90.0" y1="196.4" x2="760.0" y2="196.4" stroke="#e5e7eb" stroke-width="1"/>
  <text x="82.0" y="196.4" text-anchor="end" dominant-baseline="middle" fill="#374151" font-size="10">14M</text>
  <line x1="90.0" y1="169.6" x2="760.0" y2="169.6" stroke="#e5e7eb" stroke-width="1"/>
  <text x="82.0" y="169.6" text-anchor="end" dominant-baseline="middle" fill="#374151" font-size="10">16M</text>
  <line x1="90.0" y1="142.8" x2="760.0" y2="142.8" stroke="#e5e7eb" stroke-width="1"/>
  <text x="82.0" y="142.8" text-anchor="end" dominant-baseline="middle" fill="#374151" font-size="10">18M</text>
  <line x1="90.0" y1="116.0" x2="760.0" y2="116.0" stroke="#e5e7eb" stroke-width="1"/>
  <text x="82.0" y="116.0" text-anchor="end" dominant-baseline="middle" fill="#374151" font-size="10">20M</text>
  <line x1="90.0" y1="89.2" x2="760.0" y2="89.2" stroke="#e5e7eb" stroke-width="1"/>
  <text x="82.0" y="89.2" text-anchor="end" dominant-baseline="middle" fill="#374151" font-size="10">22M</text>
  <line x1="90.0" y1="62.4" x2="760.0" y2="62.4" stroke="#e5e7eb" stroke-width="1"/>
  <text x="82.0" y="62.4" text-anchor="end" dominant-baseline="middle" fill="#374151" font-size="10">24M</text>
  <line x1="90.0" y1="328.2" x2="760.0" y2="328.2" stroke="#e5e7eb" stroke-width="1" stroke-dasharray="3,6"/>
  <text x="768.0" y="328.2" text-anchor="start" dominant-baseline="middle" fill="#6b7280" font-size="10">1 GB/s</text>
  <line x1="90.0" y1="272.3" x2="760.0" y2="272.3" stroke="#e5e7eb" stroke-width="1" stroke-dasharray="3,6"/>
  <text x="768.0" y="272.3" text-anchor="start" dominant-baseline="middle" fill="#6b7280" font-size="10">2 GB/s</text>
  <line x1="90.0" y1="216.5" x2="760.0" y2="216.5" stroke="#e5e7eb" stroke-width="1" stroke-dasharray="3,6"/>
  <text x="768.0" y="216.5" text-anchor="start" dominant-baseline="middle" fill="#6b7280" font-size="10">3 GB/s</text>
  <line x1="90.0" y1="160.7" x2="760.0" y2="160.7" stroke="#e5e7eb" stroke-width="1" stroke-dasharray="3,6"/>
  <text x="768.0" y="160.7" text-anchor="start" dominant-baseline="middle" fill="#6b7280" font-size="10">4 GB/s</text>
  <line x1="90.0" y1="104.8" x2="760.0" y2="104.8" stroke="#e5e7eb" stroke-width="1" stroke-dasharray="3,6"/>
  <text x="768.0" y="104.8" text-anchor="start" dominant-baseline="middle" fill="#6b7280" font-size="10">5 GB/s</text>
  <line x1="90.0" y1="49.0" x2="760.0" y2="49.0" stroke="#e5e7eb" stroke-width="1" stroke-dasharray="3,6"/>
  <text x="768.0" y="49.0" text-anchor="start" dominant-baseline="middle" fill="#6b7280" font-size="10">6 GB/s</text>
  <line x1="90.0" y1="49.0" x2="90.0" y2="384.0" stroke="#e5e7eb" stroke-width="1"/>
  <line x1="145.8" y1="49.0" x2="145.8" y2="384.0" stroke="#e5e7eb" stroke-width="1"/>
  <line x1="201.7" y1="49.0" x2="201.7" y2="384.0" stroke="#e5e7eb" stroke-width="1"/>
  <line x1="257.5" y1="49.0" x2="257.5" y2="384.0" stroke="#e5e7eb" stroke-width="1"/>
  <line x1="313.3" y1="49.0" x2="313.3" y2="384.0" stroke="#e5e7eb" stroke-width="1"/>
  <line x1="369.2" y1="49.0" x2="369.2" y2="384.0" stroke="#e5e7eb" stroke-width="1"/>
  <line x1="425.0" y1="49.0" x2="425.0" y2="384.0" stroke="#e5e7eb" stroke-width="1"/>
  <line x1="480.8" y1="49.0" x2="480.8" y2="384.0" stroke="#e5e7eb" stroke-width="1"/>
  <line x1="536.7" y1="49.0" x2="536.7" y2="384.0" stroke="#e5e7eb" stroke-width="1"/>
  <line x1="592.5" y1="49.0" x2="592.5" y2="384.0" stroke="#e5e7eb" stroke-width="1"/>
  <line x1="648.3" y1="49.0" x2="648.3" y2="384.0" stroke="#e5e7eb" stroke-width="1"/>
  <line x1="704.2" y1="49.0" x2="704.2" y2="384.0" stroke="#e5e7eb" stroke-width="1"/>
  <line x1="760.0" y1="49.0" x2="760.0" y2="384.0" stroke="#e5e7eb" stroke-width="1"/>
  <line x1="90.0" y1="49.0" x2="90.0" y2="384.0" stroke="#9ca3af" stroke-width="1.5"/>
  <line x1="760.0" y1="49.0" x2="760.0" y2="384.0" stroke="#9ca3af" stroke-width="1.5"/>
  <line x1="90.0" y1="384.0" x2="760.0" y2="384.0" stroke="#9ca3af" stroke-width="1.5"/>
  <text x="40.0" y="216.5" text-anchor="middle" fill="#374151" font-size="10" font-weight="600" transform="rotate(-90,40.0,216.5)">msg/s</text>
  <polyline points="90.0,380.1 145.8,380.1 201.7,380.6 257.5,381.0 313.3,381.2 369.2,381.5 425.0,381.4 480.8,381.4 536.7,381.8 592.5,381.8 648.3,381.9 704.2,382.5 760.0,383.4" fill="none" stroke="#10b981" stroke-width="2" stroke-dasharray="6,4"/>
  <polyline points="90.0,378.2 145.8,378.3 201.7,379.1 257.5,379.3 313.3,379.6 369.2,379.8 425.0,379.8 480.8,380.1 536.7,380.3 592.5,380.7 648.3,381.1 704.2,381.3 760.0,382.4" fill="none" stroke="#2563eb" stroke-width="2" stroke-dasharray="6,4"/>
  <polyline points="90.0,267.4 145.8,266.5 201.7,272.8 257.5,309.8 313.3,345.5 369.2,348.6 425.0,357.6 480.8,368.6 536.7,375.3 592.5,379.5 648.3,381.6 704.2,382.8 760.0,383.1" fill="none" stroke="#eab308" stroke-width="2" stroke-dasharray="6,4"/>
  <polyline points="201.7,384.0 480.8,373.5 592.5,377.2" fill="none" stroke="#06b6d4" stroke-width="2" stroke-dasharray="6,4"/>
  <polyline points="90.0,281.2 145.8,286.3 201.7,287.6 257.5,294.4 313.3,297.7 369.2,309.9 425.0,322.4 480.8,331.1 536.7,353.4 592.5,367.5 648.3,375.4 704.2,379.4 760.0,381.7" fill="none" stroke="#f97316" stroke-width="2" stroke-dasharray="6,4"/>
  <polyline points="90.0,76.1 145.8,107.4 201.7,158.8 257.5,234.9 313.3,264.8 369.2,304.8 425.0,327.7 480.8,346.3 536.7,359.2 592.5,368.5 648.3,375.8 704.2,379.4 760.0,381.8" fill="none" stroke="#dc2626" stroke-width="2" stroke-dasharray="6,4"/>
  <polyline points="90.0,383.9 145.8,383.7 201.7,383.5 257.5,383.2 313.3,382.5 369.2,381.4 425.0,378.5 480.8,372.7 536.7,364.9 592.5,347.0 648.3,311.3 704.2,278.2 760.0,296.6" fill="none" stroke="#10b981" stroke-width="2.5" stroke-linecap="round" stroke-linejoin="round"/>
  <circle cx="90.0" cy="383.9" r="3" fill="#10b981" stroke="white" stroke-width="1"/>
  <circle cx="145.8" cy="383.7" r="3" fill="#10b981" stroke="white" stroke-width="1"/>
  <circle cx="201.7" cy="383.5" r="3" fill="#10b981" stroke="white" stroke-width="1"/>
  <circle cx="257.5" cy="383.2" r="3" fill="#10b981" stroke="white" stroke-width="1"/>
  <circle cx="313.3" cy="382.5" r="3" fill="#10b981" stroke="white" stroke-width="1"/>
  <circle cx="369.2" cy="381.4" r="3" fill="#10b981" stroke="white" stroke-width="1"/>
  <circle cx="425.0" cy="378.5" r="3" fill="#10b981" stroke="white" stroke-width="1"/>
  <circle cx="480.8" cy="372.7" r="3" fill="#10b981" stroke="white" stroke-width="1"/>
  <circle cx="536.7" cy="364.9" r="3" fill="#10b981" stroke="white" stroke-width="1"/>
  <circle cx="592.5" cy="347.0" r="3" fill="#10b981" stroke="white" stroke-width="1"/>
  <circle cx="648.3" cy="311.3" r="3" fill="#10b981" stroke="white" stroke-width="1"/>
  <circle cx="704.2" cy="278.2" r="3" fill="#10b981" stroke="white" stroke-width="1"/>
  <circle cx="760.0" cy="296.6" r="3" fill="#10b981" stroke="white" stroke-width="1"/>
  <polyline points="90.0,383.8 145.8,383.6 201.7,383.3 257.5,382.7 313.3,381.7 369.2,379.5 425.0,375.1 480.8,367.2 536.7,352.5 592.5,327.8 648.3,285.1 704.2,197.7 760.0,163.1" fill="none" stroke="#2563eb" stroke-width="2.5" stroke-linecap="round" stroke-linejoin="round"/>
  <circle cx="90.0" cy="383.8" r="3" fill="#2563eb" stroke="white" stroke-width="1"/>
  <circle cx="145.8" cy="383.6" r="3" fill="#2563eb" stroke="white" stroke-width="1"/>
  <circle cx="201.7" cy="383.3" r="3" fill="#2563eb" stroke="white" stroke-width="1"/>
  <circle cx="257.5" cy="382.7" r="3" fill="#2563eb" stroke="white" stroke-width="1"/>
  <circle cx="313.3" cy="381.7" r="3" fill="#2563eb" stroke="white" stroke-width="1"/>
  <circle cx="369.2" cy="379.5" r="3" fill="#2563eb" stroke="white" stroke-width="1"/>
  <circle cx="425.0" cy="375.1" r="3" fill="#2563eb" stroke="white" stroke-width="1"/>
  <circle cx="480.8" cy="367.2" r="3" fill="#2563eb" stroke="white" stroke-width="1"/>
  <circle cx="536.7" cy="352.5" r="3" fill="#2563eb" stroke="white" stroke-width="1"/>
  <circle cx="592.5" cy="327.8" r="3" fill="#2563eb" stroke="white" stroke-width="1"/>
  <circle cx="648.3" cy="285.1" r="3" fill="#2563eb" stroke="white" stroke-width="1"/>
  <circle cx="704.2" cy="197.7" r="3" fill="#2563eb" stroke="white" stroke-width="1"/>
  <circle cx="760.0" cy="163.1" r="3" fill="#2563eb" stroke="white" stroke-width="1"/>
  <polyline points="90.0,380.1 145.8,376.2 201.7,369.2 257.5,364.2 313.3,363.5 369.2,346.3 425.0,327.8 480.8,318.4 536.7,309.7 592.5,306.5 648.3,303.7 704.2,300.2 760.0,254.4" fill="none" stroke="#eab308" stroke-width="2.5" stroke-linecap="round" stroke-linejoin="round"/>
  <circle cx="90.0" cy="380.1" r="3" fill="#eab308" stroke="white" stroke-width="1"/>
  <circle cx="145.8" cy="376.2" r="3" fill="#eab308" stroke="white" stroke-width="1"/>
  <circle cx="201.7" cy="369.2" r="3" fill="#eab308" stroke="white" stroke-width="1"/>
  <circle cx="257.5" cy="364.2" r="3" fill="#eab308" stroke="white" stroke-width="1"/>
  <circle cx="313.3" cy="363.5" r="3" fill="#eab308" stroke="white" stroke-width="1"/>
  <circle cx="369.2" cy="346.3" r="3" fill="#eab308" stroke="white" stroke-width="1"/>
  <circle cx="425.0" cy="327.8" r="3" fill="#eab308" stroke="white" stroke-width="1"/>
  <circle cx="480.8" cy="318.4" r="3" fill="#eab308" stroke="white" stroke-width="1"/>
  <circle cx="536.7" cy="309.7" r="3" fill="#eab308" stroke="white" stroke-width="1"/>
  <circle cx="592.5" cy="306.5" r="3" fill="#eab308" stroke="white" stroke-width="1"/>
  <circle cx="648.3" cy="303.7" r="3" fill="#eab308" stroke="white" stroke-width="1"/>
  <circle cx="704.2" cy="300.2" r="3" fill="#eab308" stroke="white" stroke-width="1"/>
  <circle cx="760.0" cy="254.4" r="3" fill="#eab308" stroke="white" stroke-width="1"/>
  <polyline points="201.7,384.0 480.8,339.1 592.5,268.4" fill="none" stroke="#06b6d4" stroke-width="2.5" stroke-linecap="round" stroke-linejoin="round"/>
  <circle cx="201.7" cy="384.0" r="3" fill="#06b6d4" stroke="white" stroke-width="1"/>
  <circle cx="480.8" cy="339.1" r="3" fill="#06b6d4" stroke="white" stroke-width="1"/>
  <circle cx="592.5" cy="268.4" r="3" fill="#06b6d4" stroke="white" stroke-width="1"/>
  <polyline points="90.0,380.6 145.8,377.5 201.7,371.1 257.5,360.1 313.3,337.9 369.2,305.0 425.0,252.6 480.8,158.1 536.7,122.9 592.5,101.7 648.3,88.9 704.2,67.4 760.0,66.1" fill="none" stroke="#f97316" stroke-width="2.5" stroke-linecap="round" stroke-linejoin="round"/>
  <circle cx="90.0" cy="380.6" r="3" fill="#f97316" stroke="white" stroke-width="1"/>
  <circle cx="145.8" cy="377.5" r="3" fill="#f97316" stroke="white" stroke-width="1"/>
  <circle cx="201.7" cy="371.1" r="3" fill="#f97316" stroke="white" stroke-width="1"/>
  <circle cx="257.5" cy="360.1" r="3" fill="#f97316" stroke="white" stroke-width="1"/>
  <circle cx="313.3" cy="337.9" r="3" fill="#f97316" stroke="white" stroke-width="1"/>
  <circle cx="369.2" cy="305.0" r="3" fill="#f97316" stroke="white" stroke-width="1"/>
  <circle cx="425.0" cy="252.6" r="3" fill="#f97316" stroke="white" stroke-width="1"/>
  <circle cx="480.8" cy="158.1" r="3" fill="#f97316" stroke="white" stroke-width="1"/>
  <circle cx="536.7" cy="122.9" r="3" fill="#f97316" stroke="white" stroke-width="1"/>
  <circle cx="592.5" cy="101.7" r="3" fill="#f97316" stroke="white" stroke-width="1"/>
  <circle cx="648.3" cy="88.9" r="3" fill="#f97316" stroke="white" stroke-width="1"/>
  <circle cx="704.2" cy="67.4" r="3" fill="#f97316" stroke="white" stroke-width="1"/>
  <circle cx="760.0" cy="66.1" r="3" fill="#f97316" stroke="white" stroke-width="1"/>
  <polyline points="90.0,373.7 145.8,365.6 201.7,354.0 257.5,344.2 313.3,320.4 369.2,299.5 425.0,264.0 480.8,223.3 536.7,172.8 592.5,119.8 648.3,102.7 704.2,71.5 760.0,82.5" fill="none" stroke="#dc2626" stroke-width="2.5" stroke-linecap="round" stroke-linejoin="round"/>
  <circle cx="90.0" cy="373.7" r="3" fill="#dc2626" stroke="white" stroke-width="1"/>
  <circle cx="145.8" cy="365.6" r="3" fill="#dc2626" stroke="white" stroke-width="1"/>
  <circle cx="201.7" cy="354.0" r="3" fill="#dc2626" stroke="white" stroke-width="1"/>
  <circle cx="257.5" cy="344.2" r="3" fill="#dc2626" stroke="white" stroke-width="1"/>
  <circle cx="313.3" cy="320.4" r="3" fill="#dc2626" stroke="white" stroke-width="1"/>
  <circle cx="369.2" cy="299.5" r="3" fill="#dc2626" stroke="white" stroke-width="1"/>
  <circle cx="425.0" cy="264.0" r="3" fill="#dc2626" stroke="white" stroke-width="1"/>
  <circle cx="480.8" cy="223.3" r="3" fill="#dc2626" stroke="white" stroke-width="1"/>
  <circle cx="536.7" cy="172.8" r="3" fill="#dc2626" stroke="white" stroke-width="1"/>
  <circle cx="592.5" cy="119.8" r="3" fill="#dc2626" stroke="white" stroke-width="1"/>
  <circle cx="648.3" cy="102.7" r="3" fill="#dc2626" stroke="white" stroke-width="1"/>
  <circle cx="704.2" cy="71.5" r="3" fill="#dc2626" stroke="white" stroke-width="1"/>
  <circle cx="760.0" cy="82.5" r="3" fill="#dc2626" stroke="white" stroke-width="1"/>
  <text x="90.0" y="398.0" text-anchor="middle" fill="#374151" font-size="8.5">8 B</text>
  <text x="145.8" y="398.0" text-anchor="middle" fill="#374151" font-size="8.5">16 B</text>
  <text x="201.7" y="398.0" text-anchor="middle" fill="#374151" font-size="8.5">32 B</text>
  <text x="257.5" y="398.0" text-anchor="middle" fill="#374151" font-size="8.5">64 B</text>
  <text x="313.3" y="398.0" text-anchor="middle" fill="#374151" font-size="8.5">128 B</text>
  <text x="369.2" y="398.0" text-anchor="middle" fill="#374151" font-size="8.5">256 B</text>
  <text x="425.0" y="398.0" text-anchor="middle" fill="#374151" font-size="8.5">512 B</text>
  <text x="480.8" y="398.0" text-anchor="middle" fill="#374151" font-size="8.5">1 KiB</text>
  <text x="536.7" y="398.0" text-anchor="middle" fill="#374151" font-size="8.5">2 KiB</text>
  <text x="592.5" y="398.0" text-anchor="middle" fill="#374151" font-size="8.5">4 KiB</text>
  <text x="648.3" y="398.0" text-anchor="middle" fill="#374151" font-size="8.5">8 KiB</text>
  <text x="704.2" y="398.0" text-anchor="middle" fill="#374151" font-size="8.5">16 KiB</text>
  <text x="760.0" y="398.0" text-anchor="middle" fill="#374151" font-size="8.5">32 KiB</text>
  <text x="425.0" y="46" text-anchor="middle" fill="#9ca3af" font-size="10">Intel Core i7-8700B @ 3.20GHz, 6 cores</text>
  <text x="425.0" y="447.0" text-anchor="middle" fill="#111827" font-size="13" font-weight="700">REQ/REP latency: TCP loopback, 2-process (p50 µs, lower is better)</text>
  <line x1="90.0" y1="560.0" x2="760.0" y2="560.0" stroke="#e5e7eb" stroke-width="1"/>
  <text x="82.0" y="560.0" text-anchor="end" dominant-baseline="middle" fill="#374151" font-size="10">20</text>
  <line x1="90.0" y1="536.0" x2="760.0" y2="536.0" stroke="#e5e7eb" stroke-width="1"/>
  <text x="82.0" y="536.0" text-anchor="end" dominant-baseline="middle" fill="#374151" font-size="10">40</text>
  <line x1="90.0" y1="512.0" x2="760.0" y2="512.0" stroke="#e5e7eb" stroke-width="1"/>
  <text x="82.0" y="512.0" text-anchor="end" dominant-baseline="middle" fill="#374151" font-size="10">60</text>
  <line x1="90.0" y1="488.0" x2="760.0" y2="488.0" stroke="#e5e7eb" stroke-width="1"/>
  <text x="82.0" y="488.0" text-anchor="end" dominant-baseline="middle" fill="#374151" font-size="10">80</text>
  <line x1="90.0" y1="464.0" x2="760.0" y2="464.0" stroke="#e5e7eb" stroke-width="1"/>
  <text x="82.0" y="464.0" text-anchor="end" dominant-baseline="middle" fill="#374151" font-size="10">100</text>
  <line x1="90.0" y1="464.0" x2="90.0" y2="584.0" stroke="#e5e7eb" stroke-width="1"/>
  <line x1="145.8" y1="464.0" x2="145.8" y2="584.0" stroke="#e5e7eb" stroke-width="1"/>
  <line x1="201.7" y1="464.0" x2="201.7" y2="584.0" stroke="#e5e7eb" stroke-width="1"/>
  <line x1="257.5" y1="464.0" x2="257.5" y2="584.0" stroke="#e5e7eb" stroke-width="1"/>
  <line x1="313.3" y1="464.0" x2="313.3" y2="584.0" stroke="#e5e7eb" stroke-width="1"/>
  <line x1="369.2" y1="464.0" x2="369.2" y2="584.0" stroke="#e5e7eb" stroke-width="1"/>
  <line x1="425.0" y1="464.0" x2="425.0" y2="584.0" stroke="#e5e7eb" stroke-width="1"/>
  <line x1="480.8" y1="464.0" x2="480.8" y2="584.0" stroke="#e5e7eb" stroke-width="1"/>
  <line x1="536.7" y1="464.0" x2="536.7" y2="584.0" stroke="#e5e7eb" stroke-width="1"/>
  <line x1="592.5" y1="464.0" x2="592.5" y2="584.0" stroke="#e5e7eb" stroke-width="1"/>
  <line x1="648.3" y1="464.0" x2="648.3" y2="584.0" stroke="#e5e7eb" stroke-width="1"/>
  <line x1="704.2" y1="464.0" x2="704.2" y2="584.0" stroke="#e5e7eb" stroke-width="1"/>
  <line x1="760.0" y1="464.0" x2="760.0" y2="584.0" stroke="#e5e7eb" stroke-width="1"/>
  <line x1="90.0" y1="464.0" x2="90.0" y2="584.0" stroke="#9ca3af" stroke-width="1.5"/>
  <line x1="90.0" y1="584.0" x2="760.0" y2="584.0" stroke="#9ca3af" stroke-width="1.5"/>
  <text x="40.0" y="524.0" text-anchor="middle" fill="#374151" font-size="10" font-weight="600" transform="rotate(-90,40.0,524.0)">p50 latency (µs)</text>
  <polyline points="90.0,496.8 145.8,494.4 201.7,505.9 257.5,499.7 313.3,499.0 369.2,493.5 425.0,506.3 480.8,503.7 536.7,493.9 592.5,495.5 648.3,483.4 704.2,479.2 760.0,467.5" fill="none" stroke="#eab308" stroke-width="2.5" stroke-linecap="round" stroke-linejoin="round"/>
  <circle cx="90.0" cy="496.8" r="3" fill="#eab308" stroke="white" stroke-width="1"/>
  <circle cx="145.8" cy="494.4" r="3" fill="#eab308" stroke="white" stroke-width="1"/>
  <circle cx="201.7" cy="505.9" r="3" fill="#eab308" stroke="white" stroke-width="1"/>
  <circle cx="257.5" cy="499.7" r="3" fill="#eab308" stroke="white" stroke-width="1"/>
  <circle cx="313.3" cy="499.0" r="3" fill="#eab308" stroke="white" stroke-width="1"/>
  <circle cx="369.2" cy="493.5" r="3" fill="#eab308" stroke="white" stroke-width="1"/>
  <circle cx="425.0" cy="506.3" r="3" fill="#eab308" stroke="white" stroke-width="1"/>
  <circle cx="480.8" cy="503.7" r="3" fill="#eab308" stroke="white" stroke-width="1"/>
  <circle cx="536.7" cy="493.9" r="3" fill="#eab308" stroke="white" stroke-width="1"/>
  <circle cx="592.5" cy="495.5" r="3" fill="#eab308" stroke="white" stroke-width="1"/>
  <circle cx="648.3" cy="483.4" r="3" fill="#eab308" stroke="white" stroke-width="1"/>
  <circle cx="704.2" cy="479.2" r="3" fill="#eab308" stroke="white" stroke-width="1"/>
  <circle cx="760.0" cy="467.5" r="3" fill="#eab308" stroke="white" stroke-width="1"/>
  <polyline points="201.7,493.7 480.8,493.9 592.5,483.1" fill="none" stroke="#06b6d4" stroke-width="2.5" stroke-linecap="round" stroke-linejoin="round"/>
  <circle cx="201.7" cy="493.7" r="3" fill="#06b6d4" stroke="white" stroke-width="1"/>
  <circle cx="480.8" cy="493.9" r="3" fill="#06b6d4" stroke="white" stroke-width="1"/>
  <circle cx="592.5" cy="483.1" r="3" fill="#06b6d4" stroke="white" stroke-width="1"/>
  <polyline points="90.0,521.7 145.8,529.6 201.7,532.1 257.5,517.9 313.3,521.8 369.2,532.7 425.0,528.8 480.8,531.1 536.7,523.7 592.5,527.9 648.3,525.9 704.2,521.5 760.0,514.1" fill="none" stroke="#f97316" stroke-width="2.5" stroke-linecap="round" stroke-linejoin="round"/>
  <circle cx="90.0" cy="521.7" r="3" fill="#f97316" stroke="white" stroke-width="1"/>
  <circle cx="145.8" cy="529.6" r="3" fill="#f97316" stroke="white" stroke-width="1"/>
  <circle cx="201.7" cy="532.1" r="3" fill="#f97316" stroke="white" stroke-width="1"/>
  <circle cx="257.5" cy="517.9" r="3" fill="#f97316" stroke="white" stroke-width="1"/>
  <circle cx="313.3" cy="521.8" r="3" fill="#f97316" stroke="white" stroke-width="1"/>
  <circle cx="369.2" cy="532.7" r="3" fill="#f97316" stroke="white" stroke-width="1"/>
  <circle cx="425.0" cy="528.8" r="3" fill="#f97316" stroke="white" stroke-width="1"/>
  <circle cx="480.8" cy="531.1" r="3" fill="#f97316" stroke="white" stroke-width="1"/>
  <circle cx="536.7" cy="523.7" r="3" fill="#f97316" stroke="white" stroke-width="1"/>
  <circle cx="592.5" cy="527.9" r="3" fill="#f97316" stroke="white" stroke-width="1"/>
  <circle cx="648.3" cy="525.9" r="3" fill="#f97316" stroke="white" stroke-width="1"/>
  <circle cx="704.2" cy="521.5" r="3" fill="#f97316" stroke="white" stroke-width="1"/>
  <circle cx="760.0" cy="514.1" r="3" fill="#f97316" stroke="white" stroke-width="1"/>
  <polyline points="90.0,493.8 145.8,491.2 201.7,490.9 257.5,482.5 313.3,488.1 369.2,488.2 425.0,495.3 480.8,492.7 536.7,481.2 592.5,484.5 648.3,482.8 704.2,479.3 760.0,468.8" fill="none" stroke="#10b981" stroke-width="2.5" stroke-linecap="round" stroke-linejoin="round"/>
  <circle cx="90.0" cy="493.8" r="3" fill="#10b981" stroke="white" stroke-width="1"/>
  <circle cx="145.8" cy="491.2" r="3" fill="#10b981" stroke="white" stroke-width="1"/>
  <circle cx="201.7" cy="490.9" r="3" fill="#10b981" stroke="white" stroke-width="1"/>
  <circle cx="257.5" cy="482.5" r="3" fill="#10b981" stroke="white" stroke-width="1"/>
  <circle cx="313.3" cy="488.1" r="3" fill="#10b981" stroke="white" stroke-width="1"/>
  <circle cx="369.2" cy="488.2" r="3" fill="#10b981" stroke="white" stroke-width="1"/>
  <circle cx="425.0" cy="495.3" r="3" fill="#10b981" stroke="white" stroke-width="1"/>
  <circle cx="480.8" cy="492.7" r="3" fill="#10b981" stroke="white" stroke-width="1"/>
  <circle cx="536.7" cy="481.2" r="3" fill="#10b981" stroke="white" stroke-width="1"/>
  <circle cx="592.5" cy="484.5" r="3" fill="#10b981" stroke="white" stroke-width="1"/>
  <circle cx="648.3" cy="482.8" r="3" fill="#10b981" stroke="white" stroke-width="1"/>
  <circle cx="704.2" cy="479.3" r="3" fill="#10b981" stroke="white" stroke-width="1"/>
  <circle cx="760.0" cy="468.8" r="3" fill="#10b981" stroke="white" stroke-width="1"/>
  <polyline points="90.0,535.1 145.8,532.3 201.7,532.6 257.5,535.5 313.3,534.6 369.2,533.3 425.0,537.0 480.8,532.8 536.7,532.5 592.5,533.5 648.3,527.2 704.2,521.3 760.0,512.3" fill="none" stroke="#2563eb" stroke-width="2.5" stroke-linecap="round" stroke-linejoin="round"/>
  <circle cx="90.0" cy="535.1" r="3" fill="#2563eb" stroke="white" stroke-width="1"/>
  <circle cx="145.8" cy="532.3" r="3" fill="#2563eb" stroke="white" stroke-width="1"/>
  <circle cx="201.7" cy="532.6" r="3" fill="#2563eb" stroke="white" stroke-width="1"/>
  <circle cx="257.5" cy="535.5" r="3" fill="#2563eb" stroke="white" stroke-width="1"/>
  <circle cx="313.3" cy="534.6" r="3" fill="#2563eb" stroke="white" stroke-width="1"/>
  <circle cx="369.2" cy="533.3" r="3" fill="#2563eb" stroke="white" stroke-width="1"/>
  <circle cx="425.0" cy="537.0" r="3" fill="#2563eb" stroke="white" stroke-width="1"/>
  <circle cx="480.8" cy="532.8" r="3" fill="#2563eb" stroke="white" stroke-width="1"/>
  <circle cx="536.7" cy="532.5" r="3" fill="#2563eb" stroke="white" stroke-width="1"/>
  <circle cx="592.5" cy="533.5" r="3" fill="#2563eb" stroke="white" stroke-width="1"/>
  <circle cx="648.3" cy="527.2" r="3" fill="#2563eb" stroke="white" stroke-width="1"/>
  <circle cx="704.2" cy="521.3" r="3" fill="#2563eb" stroke="white" stroke-width="1"/>
  <circle cx="760.0" cy="512.3" r="3" fill="#2563eb" stroke="white" stroke-width="1"/>
  <polyline points="90.0,540.7 145.8,539.1 201.7,539.0 257.5,542.0 313.3,541.5 369.2,540.4 425.0,540.6 480.8,539.9 536.7,539.9 592.5,537.9 648.3,536.8 704.2,531.2 760.0,522.1" fill="none" stroke="#dc2626" stroke-width="2.5" stroke-linecap="round" stroke-linejoin="round"/>
  <circle cx="90.0" cy="540.7" r="3" fill="#dc2626" stroke="white" stroke-width="1"/>
  <circle cx="145.8" cy="539.1" r="3" fill="#dc2626" stroke="white" stroke-width="1"/>
  <circle cx="201.7" cy="539.0" r="3" fill="#dc2626" stroke="white" stroke-width="1"/>
  <circle cx="257.5" cy="542.0" r="3" fill="#dc2626" stroke="white" stroke-width="1"/>
  <circle cx="313.3" cy="541.5" r="3" fill="#dc2626" stroke="white" stroke-width="1"/>
  <circle cx="369.2" cy="540.4" r="3" fill="#dc2626" stroke="white" stroke-width="1"/>
  <circle cx="425.0" cy="540.6" r="3" fill="#dc2626" stroke="white" stroke-width="1"/>
  <circle cx="480.8" cy="539.9" r="3" fill="#dc2626" stroke="white" stroke-width="1"/>
  <circle cx="536.7" cy="539.9" r="3" fill="#dc2626" stroke="white" stroke-width="1"/>
  <circle cx="592.5" cy="537.9" r="3" fill="#dc2626" stroke="white" stroke-width="1"/>
  <circle cx="648.3" cy="536.8" r="3" fill="#dc2626" stroke="white" stroke-width="1"/>
  <circle cx="704.2" cy="531.2" r="3" fill="#dc2626" stroke="white" stroke-width="1"/>
  <circle cx="760.0" cy="522.1" r="3" fill="#dc2626" stroke="white" stroke-width="1"/>
  <text x="90.0" y="598.0" text-anchor="middle" fill="#374151" font-size="8.5">8 B</text>
  <text x="145.8" y="598.0" text-anchor="middle" fill="#374151" font-size="8.5">16 B</text>
  <text x="201.7" y="598.0" text-anchor="middle" fill="#374151" font-size="8.5">32 B</text>
  <text x="257.5" y="598.0" text-anchor="middle" fill="#374151" font-size="8.5">64 B</text>
  <text x="313.3" y="598.0" text-anchor="middle" fill="#374151" font-size="8.5">128 B</text>
  <text x="369.2" y="598.0" text-anchor="middle" fill="#374151" font-size="8.5">256 B</text>
  <text x="425.0" y="598.0" text-anchor="middle" fill="#374151" font-size="8.5">512 B</text>
  <text x="480.8" y="598.0" text-anchor="middle" fill="#374151" font-size="8.5">1 KiB</text>
  <text x="536.7" y="598.0" text-anchor="middle" fill="#374151" font-size="8.5">2 KiB</text>
  <text x="592.5" y="598.0" text-anchor="middle" fill="#374151" font-size="8.5">4 KiB</text>
  <text x="648.3" y="598.0" text-anchor="middle" fill="#374151" font-size="8.5">8 KiB</text>
  <text x="704.2" y="598.0" text-anchor="middle" fill="#374151" font-size="8.5">16 KiB</text>
  <text x="760.0" y="598.0" text-anchor="middle" fill="#374151" font-size="8.5">32 KiB</text>
  <line x1="50" y1="644" x2="64" y2="644" stroke="#eab308" stroke-width="2.5"/>
  <circle cx="57" cy="644" r="2.5" fill="#eab308"/>
  <text x="70" y="648" fill="#374151" font-size="11" font-weight="500">libzmq v4.3.5</text>
  <line x1="175" y1="644" x2="189" y2="644" stroke="#dc2626" stroke-width="2.5"/>
  <circle cx="182" cy="644" r="2.5" fill="#dc2626"/>
  <text x="195" y="648" fill="#374151" font-size="11" font-weight="500">omq-compio (MT)</text>
  <line x1="300" y1="644" x2="314" y2="644" stroke="#f97316" stroke-width="2.5"/>
  <circle cx="307" cy="644" r="2.5" fill="#f97316"/>
  <text x="320" y="648" fill="#374151" font-size="11" font-weight="500">omq-tokio</text>
  <line x1="425" y1="644" x2="439" y2="644" stroke="#2563eb" stroke-width="2.5"/>
  <circle cx="432" cy="644" r="2.5" fill="#2563eb"/>
  <text x="445" y="648" fill="#374151" font-size="11" font-weight="500">zmq.rs v0.6.0</text>
  <line x1="550" y1="644" x2="564" y2="644" stroke="#10b981" stroke-width="2.5"/>
  <circle cx="557" cy="644" r="2.5" fill="#10b981"/>
  <text x="570" y="648" fill="#374151" font-size="11" font-weight="500">rzmq v0.5.15</text>
  <line x1="675" y1="644" x2="689" y2="644" stroke="#06b6d4" stroke-width="2.5"/>
  <circle cx="682" cy="644" r="2.5" fill="#06b6d4"/>
  <text x="695" y="648" fill="#374151" font-size="11" font-weight="500">omq-libzmq</text>
  <line x1="265" y1="666" x2="285" y2="666" stroke="#6b7280" stroke-width="2" stroke-dasharray="6,4"/>
  <text x="291" y="670" fill="#6b7280" font-size="10">msg/s (left axis)</text>
  <line x1="435" y1="666" x2="455" y2="666" stroke="#6b7280" stroke-width="2"/>
  <circle cx="445" cy="666" r="2" fill="#6b7280"/>
  <text x="461" y="670" fill="#6b7280" font-size="10">throughput / GB/s (right axis)</text>
</svg>
