<svg xmlns="http://www.w3.org/2000/svg" viewBox="0 0 850 684" font-family="system-ui, -apple-system, sans-serif">
  <rect width="850" height="684" fill="white"/>
  <text x="425.0" y="32.0" text-anchor="middle" fill="#111827" font-size="13" font-weight="700">PUSH/PULL throughput: inproc (higher is better)</text>
  <line x1="90.0" y1="357.2" x2="760.0" y2="357.2" stroke="#e5e7eb" stroke-width="1"/>
  <text x="82.0" y="357.2" text-anchor="end" dominant-baseline="middle" fill="#374151" font-size="10">2M</text>
  <line x1="90.0" y1="330.4" x2="760.0" y2="330.4" stroke="#e5e7eb" stroke-width="1"/>
  <text x="82.0" y="330.4" text-anchor="end" dominant-baseline="middle" fill="#374151" font-size="10">4M</text>
  <line x1="90.0" y1="303.6" x2="760.0" y2="303.6" stroke="#e5e7eb" stroke-width="1"/>
  <text x="82.0" y="303.6" text-anchor="end" dominant-baseline="middle" fill="#374151" font-size="10">6M</text>
  <line x1="90.0" y1="276.8" x2="760.0" y2="276.8" stroke="#e5e7eb" stroke-width="1"/>
  <text x="82.0" y="276.8" text-anchor="end" dominant-baseline="middle" fill="#374151" font-size="10">8M</text>
  <line x1="90.0" y1="250.0" x2="760.0" y2="250.0" stroke="#e5e7eb" stroke-width="1"/>
  <text x="82.0" y="250.0" text-anchor="end" dominant-baseline="middle" fill="#374151" font-size="10">10M</text>
  <line x1="90.0" y1="223.2" x2="760.0" y2="223.2" stroke="#e5e7eb" stroke-width="1"/>
  <text x="82.0" y="223.2" text-anchor="end" dominant-baseline="middle" fill="#374151" font-size="10">12M</text>
  <line x1="90.0" y1="196.4" x2="760.0" y2="196.4" stroke="#e5e7eb" stroke-width="1"/>
  <text x="82.0" y="196.4" text-anchor="end" dominant-baseline="middle" fill="#374151" font-size="10">14M</text>
  <line x1="90.0" y1="169.6" x2="760.0" y2="169.6" stroke="#e5e7eb" stroke-width="1"/>
  <text x="82.0" y="169.6" text-anchor="end" dominant-baseline="middle" fill="#374151" font-size="10">16M</text>
  <line x1="90.0" y1="142.8" x2="760.0" y2="142.8" stroke="#e5e7eb" stroke-width="1"/>
  <text x="82.0" y="142.8" text-anchor="end" dominant-baseline="middle" fill="#374151" font-size="10">18M</text>
  <line x1="90.0" y1="116.0" x2="760.0" y2="116.0" stroke="#e5e7eb" stroke-width="1"/>
  <text x="82.0" y="116.0" text-anchor="end" dominant-baseline="middle" fill="#374151" font-size="10">20M</text>
  <line x1="90.0" y1="89.2" x2="760.0" y2="89.2" stroke="#e5e7eb" stroke-width="1"/>
  <text x="82.0" y="89.2" text-anchor="end" dominant-baseline="middle" fill="#374151" font-size="10">22M</text>
  <line x1="90.0" y1="62.4" x2="760.0" y2="62.4" stroke="#e5e7eb" stroke-width="1"/>
  <text x="82.0" y="62.4" text-anchor="end" dominant-baseline="middle" fill="#374151" font-size="10">24M</text>
  <line x1="90.0" y1="384.0" x2="760.0" y2="384.0" stroke="#e5e7eb" stroke-width="1" stroke-dasharray="3,6"/>
  <text x="768.0" y="384.0" text-anchor="start" dominant-baseline="middle" fill="#6b7280" font-size="10">0.001 GB/s</text>
  <line x1="90.0" y1="367.2" x2="760.0" y2="367.2" stroke="#e5e7eb" stroke-width="1" stroke-dasharray="2,8"/>
  <line x1="90.0" y1="345.0" x2="760.0" y2="345.0" stroke="#e5e7eb" stroke-width="1" stroke-dasharray="2,8"/>
  <line x1="90.0" y1="328.2" x2="760.0" y2="328.2" stroke="#e5e7eb" stroke-width="1" stroke-dasharray="3,6"/>
  <text x="768.0" y="328.2" text-anchor="start" dominant-baseline="middle" fill="#6b7280" font-size="10">0.01 GB/s</text>
  <line x1="90.0" y1="311.4" x2="760.0" y2="311.4" stroke="#e5e7eb" stroke-width="1" stroke-dasharray="2,8"/>
  <line x1="90.0" y1="289.1" x2="760.0" y2="289.1" stroke="#e5e7eb" stroke-width="1" stroke-dasharray="2,8"/>
  <line x1="90.0" y1="272.3" x2="760.0" y2="272.3" stroke="#e5e7eb" stroke-width="1" stroke-dasharray="3,6"/>
  <text x="768.0" y="272.3" text-anchor="start" dominant-baseline="middle" fill="#6b7280" font-size="10">0.1 GB/s</text>
  <line x1="90.0" y1="255.5" x2="760.0" y2="255.5" stroke="#e5e7eb" stroke-width="1" stroke-dasharray="2,8"/>
  <line x1="90.0" y1="233.3" x2="760.0" y2="233.3" stroke="#e5e7eb" stroke-width="1" stroke-dasharray="2,8"/>
  <line x1="90.0" y1="216.5" x2="760.0" y2="216.5" stroke="#e5e7eb" stroke-width="1" stroke-dasharray="3,6"/>
  <text x="768.0" y="216.5" text-anchor="start" dominant-baseline="middle" fill="#6b7280" font-size="10">1 GB/s</text>
  <line x1="90.0" y1="199.7" x2="760.0" y2="199.7" stroke="#e5e7eb" stroke-width="1" stroke-dasharray="2,8"/>
  <line x1="90.0" y1="177.5" x2="760.0" y2="177.5" stroke="#e5e7eb" stroke-width="1" stroke-dasharray="2,8"/>
  <line x1="90.0" y1="160.7" x2="760.0" y2="160.7" stroke="#e5e7eb" stroke-width="1" stroke-dasharray="3,6"/>
  <text x="768.0" y="160.7" text-anchor="start" dominant-baseline="middle" fill="#6b7280" font-size="10">10 GB/s</text>
  <line x1="90.0" y1="143.9" x2="760.0" y2="143.9" stroke="#e5e7eb" stroke-width="1" stroke-dasharray="2,8"/>
  <line x1="90.0" y1="121.6" x2="760.0" y2="121.6" stroke="#e5e7eb" stroke-width="1" stroke-dasharray="2,8"/>
  <line x1="90.0" y1="104.8" x2="760.0" y2="104.8" stroke="#e5e7eb" stroke-width="1" stroke-dasharray="3,6"/>
  <text x="768.0" y="104.8" text-anchor="start" dominant-baseline="middle" fill="#6b7280" font-size="10">100 GB/s</text>
  <line x1="90.0" y1="88.0" x2="760.0" y2="88.0" stroke="#e5e7eb" stroke-width="1" stroke-dasharray="2,8"/>
  <line x1="90.0" y1="65.8" x2="760.0" y2="65.8" stroke="#e5e7eb" stroke-width="1" stroke-dasharray="2,8"/>
  <line x1="90.0" y1="49.0" x2="760.0" y2="49.0" stroke="#e5e7eb" stroke-width="1" stroke-dasharray="3,6"/>
  <text x="768.0" y="49.0" text-anchor="start" dominant-baseline="middle" fill="#6b7280" font-size="10">1000 GB/s</text>
  <line x1="90.0" y1="49.0" x2="90.0" y2="384.0" stroke="#e5e7eb" stroke-width="1"/>
  <line x1="145.8" y1="49.0" x2="145.8" y2="384.0" stroke="#e5e7eb" stroke-width="1"/>
  <line x1="201.7" y1="49.0" x2="201.7" y2="384.0" stroke="#e5e7eb" stroke-width="1"/>
  <line x1="257.5" y1="49.0" x2="257.5" y2="384.0" stroke="#e5e7eb" stroke-width="1"/>
  <line x1="313.3" y1="49.0" x2="313.3" y2="384.0" stroke="#e5e7eb" stroke-width="1"/>
  <line x1="369.2" y1="49.0" x2="369.2" y2="384.0" stroke="#e5e7eb" stroke-width="1"/>
  <line x1="425.0" y1="49.0" x2="425.0" y2="384.0" stroke="#e5e7eb" stroke-width="1"/>
  <line x1="480.8" y1="49.0" x2="480.8" y2="384.0" stroke="#e5e7eb" stroke-width="1"/>
  <line x1="536.7" y1="49.0" x2="536.7" y2="384.0" stroke="#e5e7eb" stroke-width="1"/>
  <line x1="592.5" y1="49.0" x2="592.5" y2="384.0" stroke="#e5e7eb" stroke-width="1"/>
  <line x1="648.3" y1="49.0" x2="648.3" y2="384.0" stroke="#e5e7eb" stroke-width="1"/>
  <line x1="704.2" y1="49.0" x2="704.2" y2="384.0" stroke="#e5e7eb" stroke-width="1"/>
  <line x1="760.0" y1="49.0" x2="760.0" y2="384.0" stroke="#e5e7eb" stroke-width="1"/>
  <line x1="90.0" y1="49.0" x2="90.0" y2="384.0" stroke="#9ca3af" stroke-width="1.5"/>
  <line x1="760.0" y1="49.0" x2="760.0" y2="384.0" stroke="#9ca3af" stroke-width="1.5"/>
  <line x1="90.0" y1="384.0" x2="760.0" y2="384.0" stroke="#9ca3af" stroke-width="1.5"/>
  <text x="40.0" y="216.5" text-anchor="middle" fill="#374151" font-size="10" font-weight="600" transform="rotate(-90,40.0,216.5)">msg/s</text>
  <polyline points="90.0,366.9 145.8,367.4 201.7,367.0 257.5,367.1 313.3,367.8 369.2,367.1 425.0,366.9 480.8,366.9 536.7,367.0 592.5,366.7 648.3,367.3 704.2,366.7 760.0,366.8" fill="none" stroke="#10b981" stroke-width="2" stroke-dasharray="6,4"/>
  <polyline points="90.0,235.9 145.8,231.4 201.7,236.5 257.5,295.9 313.3,348.6 369.2,347.3 425.0,345.3 480.8,354.7 536.7,356.5 592.5,357.6 648.3,359.5 704.2,365.5 760.0,373.6" fill="none" stroke="#eab308" stroke-width="2" stroke-dasharray="6,4"/>
  <polyline points="201.7,253.0 480.8,357.2 592.5,359.1" fill="none" stroke="#06b6d4" stroke-width="2" stroke-dasharray="6,4"/>
  <polyline points="90.0,335.3 145.8,341.4 201.7,337.8 257.5,329.6 313.3,334.6 369.2,325.7 425.0,326.8 480.8,334.4 536.7,334.6 592.5,327.5 648.3,332.7 704.2,331.3 760.0,322.0" fill="none" stroke="#f97316" stroke-width="2" stroke-dasharray="6,4"/>
  <polyline points="90.0,322.8 145.8,325.7 201.7,320.9 257.5,324.5 313.3,326.7 369.2,323.9 425.0,325.7 480.8,326.0 536.7,321.6 592.5,324.9 648.3,324.9 704.2,324.4 760.0,322.5" fill="none" stroke="#8b5cf6" stroke-width="2" stroke-dasharray="6,4"/>
  <polyline points="90.0,157.1 145.8,141.6 201.7,163.9 257.5,156.3 313.3,148.5 369.2,150.4 425.0,146.3 480.8,161.4 536.7,154.4 592.5,150.1 648.3,154.4 704.2,134.3 760.0,148.4" fill="none" stroke="#dc2626" stroke-width="2" stroke-dasharray="6,4"/>
  <polyline points="90.0,327.7 145.8,311.5 201.7,294.2 257.5,277.5 313.3,261.7 369.2,243.9 425.0,226.8 480.8,210.1 536.7,193.3 592.5,176.1 648.3,160.2 704.2,142.5 760.0,125.9" fill="none" stroke="#10b981" stroke-width="2.5" stroke-linecap="round" stroke-linejoin="round"/>
  <circle cx="90.0" cy="327.7" r="3" fill="#10b981" stroke="white" stroke-width="1"/>
  <circle cx="145.8" cy="311.5" r="3" fill="#10b981" stroke="white" stroke-width="1"/>
  <circle cx="201.7" cy="294.2" r="3" fill="#10b981" stroke="white" stroke-width="1"/>
  <circle cx="257.5" cy="277.5" r="3" fill="#10b981" stroke="white" stroke-width="1"/>
  <circle cx="313.3" cy="261.7" r="3" fill="#10b981" stroke="white" stroke-width="1"/>
  <circle cx="369.2" cy="243.9" r="3" fill="#10b981" stroke="white" stroke-width="1"/>
  <circle cx="425.0" cy="226.8" r="3" fill="#10b981" stroke="white" stroke-width="1"/>
  <circle cx="480.8" cy="210.1" r="3" fill="#10b981" stroke="white" stroke-width="1"/>
  <circle cx="536.7" cy="193.3" r="3" fill="#10b981" stroke="white" stroke-width="1"/>
  <circle cx="592.5" cy="176.1" r="3" fill="#10b981" stroke="white" stroke-width="1"/>
  <circle cx="648.3" cy="160.2" r="3" fill="#10b981" stroke="white" stroke-width="1"/>
  <circle cx="704.2" cy="142.5" r="3" fill="#10b981" stroke="white" stroke-width="1"/>
  <circle cx="760.0" cy="125.9" r="3" fill="#10b981" stroke="white" stroke-width="1"/>
  <polyline points="90.0,275.3 145.8,257.8 201.7,241.8 257.5,237.5 313.3,242.8 369.2,225.1 425.0,207.0 480.8,197.0 536.7,181.7 592.5,165.9 648.3,150.8 704.2,140.9 760.0,137.9" fill="none" stroke="#eab308" stroke-width="2.5" stroke-linecap="round" stroke-linejoin="round"/>
  <circle cx="90.0" cy="275.3" r="3" fill="#eab308" stroke="white" stroke-width="1"/>
  <circle cx="145.8" cy="257.8" r="3" fill="#eab308" stroke="white" stroke-width="1"/>
  <circle cx="201.7" cy="241.8" r="3" fill="#eab308" stroke="white" stroke-width="1"/>
  <circle cx="257.5" cy="237.5" r="3" fill="#eab308" stroke="white" stroke-width="1"/>
  <circle cx="313.3" cy="242.8" r="3" fill="#eab308" stroke="white" stroke-width="1"/>
  <circle cx="369.2" cy="225.1" r="3" fill="#eab308" stroke="white" stroke-width="1"/>
  <circle cx="425.0" cy="207.0" r="3" fill="#eab308" stroke="white" stroke-width="1"/>
  <circle cx="480.8" cy="197.0" r="3" fill="#eab308" stroke="white" stroke-width="1"/>
  <circle cx="536.7" cy="181.7" r="3" fill="#eab308" stroke="white" stroke-width="1"/>
  <circle cx="592.5" cy="165.9" r="3" fill="#eab308" stroke="white" stroke-width="1"/>
  <circle cx="648.3" cy="150.8" r="3" fill="#eab308" stroke="white" stroke-width="1"/>
  <circle cx="704.2" cy="140.9" r="3" fill="#eab308" stroke="white" stroke-width="1"/>
  <circle cx="760.0" cy="137.9" r="3" fill="#eab308" stroke="white" stroke-width="1"/>
  <polyline points="201.7,244.7 480.8,199.1 592.5,167.3" fill="none" stroke="#06b6d4" stroke-width="2.5" stroke-linecap="round" stroke-linejoin="round"/>
  <circle cx="201.7" cy="244.7" r="3" fill="#06b6d4" stroke="white" stroke-width="1"/>
  <circle cx="480.8" cy="199.1" r="3" fill="#06b6d4" stroke="white" stroke-width="1"/>
  <circle cx="592.5" cy="167.3" r="3" fill="#06b6d4" stroke="white" stroke-width="1"/>
  <polyline points="90.0,302.3 145.8,288.8 201.7,269.9 257.5,249.2 313.3,234.7 369.2,213.9 425.0,197.5 480.8,184.2 536.7,167.5 592.5,147.4 648.3,132.9 704.2,115.5 760.0,94.8" fill="none" stroke="#f97316" stroke-width="2.5" stroke-linecap="round" stroke-linejoin="round"/>
  <circle cx="90.0" cy="302.3" r="3" fill="#f97316" stroke="white" stroke-width="1"/>
  <circle cx="145.8" cy="288.8" r="3" fill="#f97316" stroke="white" stroke-width="1"/>
  <circle cx="201.7" cy="269.9" r="3" fill="#f97316" stroke="white" stroke-width="1"/>
  <circle cx="257.5" cy="249.2" r="3" fill="#f97316" stroke="white" stroke-width="1"/>
  <circle cx="313.3" cy="234.7" r="3" fill="#f97316" stroke="white" stroke-width="1"/>
  <circle cx="369.2" cy="213.9" r="3" fill="#f97316" stroke="white" stroke-width="1"/>
  <circle cx="425.0" cy="197.5" r="3" fill="#f97316" stroke="white" stroke-width="1"/>
  <circle cx="480.8" cy="184.2" r="3" fill="#f97316" stroke="white" stroke-width="1"/>
  <circle cx="536.7" cy="167.5" r="3" fill="#f97316" stroke="white" stroke-width="1"/>
  <circle cx="592.5" cy="147.4" r="3" fill="#f97316" stroke="white" stroke-width="1"/>
  <circle cx="648.3" cy="132.9" r="3" fill="#f97316" stroke="white" stroke-width="1"/>
  <circle cx="704.2" cy="115.5" r="3" fill="#f97316" stroke="white" stroke-width="1"/>
  <circle cx="760.0" cy="94.8" r="3" fill="#f97316" stroke="white" stroke-width="1"/>
  <polyline points="90.0,296.7 145.8,281.1 201.7,262.4 257.5,247.0 313.3,231.1 369.2,213.2 425.0,197.1 480.8,180.4 536.7,161.8 592.5,146.3 648.3,129.5 704.2,112.5 760.0,94.9" fill="none" stroke="#8b5cf6" stroke-width="2.5" stroke-linecap="round" stroke-linejoin="round"/>
  <circle cx="90.0" cy="296.7" r="3" fill="#8b5cf6" stroke="white" stroke-width="1"/>
  <circle cx="145.8" cy="281.1" r="3" fill="#8b5cf6" stroke="white" stroke-width="1"/>
  <circle cx="201.7" cy="262.4" r="3" fill="#8b5cf6" stroke="white" stroke-width="1"/>
  <circle cx="257.5" cy="247.0" r="3" fill="#8b5cf6" stroke="white" stroke-width="1"/>
  <circle cx="313.3" cy="231.1" r="3" fill="#8b5cf6" stroke="white" stroke-width="1"/>
  <circle cx="369.2" cy="213.2" r="3" fill="#8b5cf6" stroke="white" stroke-width="1"/>
  <circle cx="425.0" cy="197.1" r="3" fill="#8b5cf6" stroke="white" stroke-width="1"/>
  <circle cx="480.8" cy="180.4" r="3" fill="#8b5cf6" stroke="white" stroke-width="1"/>
  <circle cx="536.7" cy="161.8" r="3" fill="#8b5cf6" stroke="white" stroke-width="1"/>
  <circle cx="592.5" cy="146.3" r="3" fill="#8b5cf6" stroke="white" stroke-width="1"/>
  <circle cx="648.3" cy="129.5" r="3" fill="#8b5cf6" stroke="white" stroke-width="1"/>
  <circle cx="704.2" cy="112.5" r="3" fill="#8b5cf6" stroke="white" stroke-width="1"/>
  <circle cx="760.0" cy="94.9" r="3" fill="#8b5cf6" stroke="white" stroke-width="1"/>
  <polyline points="90.0,265.0 145.8,246.6 201.7,232.1 257.5,214.5 313.3,196.8 369.2,180.2 425.0,163.0 480.8,147.8 536.7,130.2 592.5,113.0 648.3,96.6 704.2,77.8 760.0,62.4" fill="none" stroke="#dc2626" stroke-width="2.5" stroke-linecap="round" stroke-linejoin="round"/>
  <circle cx="90.0" cy="265.0" r="3" fill="#dc2626" stroke="white" stroke-width="1"/>
  <circle cx="145.8" cy="246.6" r="3" fill="#dc2626" stroke="white" stroke-width="1"/>
  <circle cx="201.7" cy="232.1" r="3" fill="#dc2626" stroke="white" stroke-width="1"/>
  <circle cx="257.5" cy="214.5" r="3" fill="#dc2626" stroke="white" stroke-width="1"/>
  <circle cx="313.3" cy="196.8" r="3" fill="#dc2626" stroke="white" stroke-width="1"/>
  <circle cx="369.2" cy="180.2" r="3" fill="#dc2626" stroke="white" stroke-width="1"/>
  <circle cx="425.0" cy="163.0" r="3" fill="#dc2626" stroke="white" stroke-width="1"/>
  <circle cx="480.8" cy="147.8" r="3" fill="#dc2626" stroke="white" stroke-width="1"/>
  <circle cx="536.7" cy="130.2" r="3" fill="#dc2626" stroke="white" stroke-width="1"/>
  <circle cx="592.5" cy="113.0" r="3" fill="#dc2626" stroke="white" stroke-width="1"/>
  <circle cx="648.3" cy="96.6" r="3" fill="#dc2626" stroke="white" stroke-width="1"/>
  <circle cx="704.2" cy="77.8" r="3" fill="#dc2626" stroke="white" stroke-width="1"/>
  <circle cx="760.0" cy="62.4" r="3" fill="#dc2626" stroke="white" stroke-width="1"/>
  <text x="90.0" y="398.0" text-anchor="middle" fill="#374151" font-size="8.5">8 B</text>
  <text x="145.8" y="398.0" text-anchor="middle" fill="#374151" font-size="8.5">16 B</text>
  <text x="201.7" y="398.0" text-anchor="middle" fill="#374151" font-size="8.5">32 B</text>
  <text x="257.5" y="398.0" text-anchor="middle" fill="#374151" font-size="8.5">64 B</text>
  <text x="313.3" y="398.0" text-anchor="middle" fill="#374151" font-size="8.5">128 B</text>
  <text x="369.2" y="398.0" text-anchor="middle" fill="#374151" font-size="8.5">256 B</text>
  <text x="425.0" y="398.0" text-anchor="middle" fill="#374151" font-size="8.5">512 B</text>
  <text x="480.8" y="398.0" text-anchor="middle" fill="#374151" font-size="8.5">1 KiB</text>
  <text x="536.7" y="398.0" text-anchor="middle" fill="#374151" font-size="8.5">2 KiB</text>
  <text x="592.5" y="398.0" text-anchor="middle" fill="#374151" font-size="8.5">4 KiB</text>
  <text x="648.3" y="398.0" text-anchor="middle" fill="#374151" font-size="8.5">8 KiB</text>
  <text x="704.2" y="398.0" text-anchor="middle" fill="#374151" font-size="8.5">16 KiB</text>
  <text x="760.0" y="398.0" text-anchor="middle" fill="#374151" font-size="8.5">32 KiB</text>
  <text x="425.0" y="46" text-anchor="middle" fill="#9ca3af" font-size="10">Intel Core i7-8700B @ 3.20GHz, 6 cores</text>
  <text x="425.0" y="447.0" text-anchor="middle" fill="#111827" font-size="13" font-weight="700">REQ/REP latency: inproc (p50 µs, lower is better)</text>
  <line x1="90.0" y1="560.0" x2="760.0" y2="560.0" stroke="#e5e7eb" stroke-width="1"/>
  <text x="82.0" y="560.0" text-anchor="end" dominant-baseline="middle" fill="#374151" font-size="10">5</text>
  <line x1="90.0" y1="536.0" x2="760.0" y2="536.0" stroke="#e5e7eb" stroke-width="1"/>
  <text x="82.0" y="536.0" text-anchor="end" dominant-baseline="middle" fill="#374151" font-size="10">10</text>
  <line x1="90.0" y1="512.0" x2="760.0" y2="512.0" stroke="#e5e7eb" stroke-width="1"/>
  <text x="82.0" y="512.0" text-anchor="end" dominant-baseline="middle" fill="#374151" font-size="10">15</text>
  <line x1="90.0" y1="488.0" x2="760.0" y2="488.0" stroke="#e5e7eb" stroke-width="1"/>
  <text x="82.0" y="488.0" text-anchor="end" dominant-baseline="middle" fill="#374151" font-size="10">20</text>
  <line x1="90.0" y1="464.0" x2="760.0" y2="464.0" stroke="#e5e7eb" stroke-width="1"/>
  <text x="82.0" y="464.0" text-anchor="end" dominant-baseline="middle" fill="#374151" font-size="10">25</text>
  <line x1="90.0" y1="464.0" x2="90.0" y2="584.0" stroke="#e5e7eb" stroke-width="1"/>
  <line x1="145.8" y1="464.0" x2="145.8" y2="584.0" stroke="#e5e7eb" stroke-width="1"/>
  <line x1="201.7" y1="464.0" x2="201.7" y2="584.0" stroke="#e5e7eb" stroke-width="1"/>
  <line x1="257.5" y1="464.0" x2="257.5" y2="584.0" stroke="#e5e7eb" stroke-width="1"/>
  <line x1="313.3" y1="464.0" x2="313.3" y2="584.0" stroke="#e5e7eb" stroke-width="1"/>
  <line x1="369.2" y1="464.0" x2="369.2" y2="584.0" stroke="#e5e7eb" stroke-width="1"/>
  <line x1="425.0" y1="464.0" x2="425.0" y2="584.0" stroke="#e5e7eb" stroke-width="1"/>
  <line x1="480.8" y1="464.0" x2="480.8" y2="584.0" stroke="#e5e7eb" stroke-width="1"/>
  <line x1="536.7" y1="464.0" x2="536.7" y2="584.0" stroke="#e5e7eb" stroke-width="1"/>
  <line x1="592.5" y1="464.0" x2="592.5" y2="584.0" stroke="#e5e7eb" stroke-width="1"/>
  <line x1="648.3" y1="464.0" x2="648.3" y2="584.0" stroke="#e5e7eb" stroke-width="1"/>
  <line x1="704.2" y1="464.0" x2="704.2" y2="584.0" stroke="#e5e7eb" stroke-width="1"/>
  <line x1="760.0" y1="464.0" x2="760.0" y2="584.0" stroke="#e5e7eb" stroke-width="1"/>
  <line x1="90.0" y1="464.0" x2="90.0" y2="584.0" stroke="#9ca3af" stroke-width="1.5"/>
  <line x1="90.0" y1="584.0" x2="760.0" y2="584.0" stroke="#9ca3af" stroke-width="1.5"/>
  <text x="40.0" y="524.0" text-anchor="middle" fill="#374151" font-size="10" font-weight="600" transform="rotate(-90,40.0,524.0)">p50 latency (µs)</text>
  <polyline points="90.0,493.9 145.8,487.4 201.7,490.4 257.5,490.6 313.3,486.7 369.2,484.9 425.0,484.8 480.8,492.8 536.7,487.7 592.5,485.4 648.3,481.3 704.2,482.5 760.0,469.7" fill="none" stroke="#eab308" stroke-width="2.5" stroke-linecap="round" stroke-linejoin="round"/>
  <circle cx="90.0" cy="493.9" r="3" fill="#eab308" stroke="white" stroke-width="1"/>
  <circle cx="145.8" cy="487.4" r="3" fill="#eab308" stroke="white" stroke-width="1"/>
  <circle cx="201.7" cy="490.4" r="3" fill="#eab308" stroke="white" stroke-width="1"/>
  <circle cx="257.5" cy="490.6" r="3" fill="#eab308" stroke="white" stroke-width="1"/>
  <circle cx="313.3" cy="486.7" r="3" fill="#eab308" stroke="white" stroke-width="1"/>
  <circle cx="369.2" cy="484.9" r="3" fill="#eab308" stroke="white" stroke-width="1"/>
  <circle cx="425.0" cy="484.8" r="3" fill="#eab308" stroke="white" stroke-width="1"/>
  <circle cx="480.8" cy="492.8" r="3" fill="#eab308" stroke="white" stroke-width="1"/>
  <circle cx="536.7" cy="487.7" r="3" fill="#eab308" stroke="white" stroke-width="1"/>
  <circle cx="592.5" cy="485.4" r="3" fill="#eab308" stroke="white" stroke-width="1"/>
  <circle cx="648.3" cy="481.3" r="3" fill="#eab308" stroke="white" stroke-width="1"/>
  <circle cx="704.2" cy="482.5" r="3" fill="#eab308" stroke="white" stroke-width="1"/>
  <circle cx="760.0" cy="469.7" r="3" fill="#eab308" stroke="white" stroke-width="1"/>
  <polyline points="201.7,463.9 480.8,425.9 592.5,416.3" fill="none" stroke="#06b6d4" stroke-width="2.5" stroke-linecap="round" stroke-linejoin="round"/>
  <circle cx="201.7" cy="463.9" r="3" fill="#06b6d4" stroke="white" stroke-width="1"/>
  <circle cx="480.8" cy="425.9" r="3" fill="#06b6d4" stroke="white" stroke-width="1"/>
  <circle cx="592.5" cy="416.3" r="3" fill="#06b6d4" stroke="white" stroke-width="1"/>
  <polyline points="90.0,503.4 145.8,501.1 201.7,488.1 257.5,508.8 313.3,509.4 369.2,485.3 425.0,488.8 480.8,499.5 536.7,509.6 592.5,483.8 648.3,509.1 704.2,507.0 760.0,512.5" fill="none" stroke="#f97316" stroke-width="2.5" stroke-linecap="round" stroke-linejoin="round"/>
  <circle cx="90.0" cy="503.4" r="3" fill="#f97316" stroke="white" stroke-width="1"/>
  <circle cx="145.8" cy="501.1" r="3" fill="#f97316" stroke="white" stroke-width="1"/>
  <circle cx="201.7" cy="488.1" r="3" fill="#f97316" stroke="white" stroke-width="1"/>
  <circle cx="257.5" cy="508.8" r="3" fill="#f97316" stroke="white" stroke-width="1"/>
  <circle cx="313.3" cy="509.4" r="3" fill="#f97316" stroke="white" stroke-width="1"/>
  <circle cx="369.2" cy="485.3" r="3" fill="#f97316" stroke="white" stroke-width="1"/>
  <circle cx="425.0" cy="488.8" r="3" fill="#f97316" stroke="white" stroke-width="1"/>
  <circle cx="480.8" cy="499.5" r="3" fill="#f97316" stroke="white" stroke-width="1"/>
  <circle cx="536.7" cy="509.6" r="3" fill="#f97316" stroke="white" stroke-width="1"/>
  <circle cx="592.5" cy="483.8" r="3" fill="#f97316" stroke="white" stroke-width="1"/>
  <circle cx="648.3" cy="509.1" r="3" fill="#f97316" stroke="white" stroke-width="1"/>
  <circle cx="704.2" cy="507.0" r="3" fill="#f97316" stroke="white" stroke-width="1"/>
  <circle cx="760.0" cy="512.5" r="3" fill="#f97316" stroke="white" stroke-width="1"/>
  <polyline points="90.0,484.1 145.8,490.8 201.7,491.2 257.5,491.4 313.3,498.7 369.2,494.8 425.0,495.8 480.8,495.5 536.7,488.5 592.5,492.6 648.3,492.5 704.2,493.6 760.0,495.8" fill="none" stroke="#10b981" stroke-width="2.5" stroke-linecap="round" stroke-linejoin="round"/>
  <circle cx="90.0" cy="484.1" r="3" fill="#10b981" stroke="white" stroke-width="1"/>
  <circle cx="145.8" cy="490.8" r="3" fill="#10b981" stroke="white" stroke-width="1"/>
  <circle cx="201.7" cy="491.2" r="3" fill="#10b981" stroke="white" stroke-width="1"/>
  <circle cx="257.5" cy="491.4" r="3" fill="#10b981" stroke="white" stroke-width="1"/>
  <circle cx="313.3" cy="498.7" r="3" fill="#10b981" stroke="white" stroke-width="1"/>
  <circle cx="369.2" cy="494.8" r="3" fill="#10b981" stroke="white" stroke-width="1"/>
  <circle cx="425.0" cy="495.8" r="3" fill="#10b981" stroke="white" stroke-width="1"/>
  <circle cx="480.8" cy="495.5" r="3" fill="#10b981" stroke="white" stroke-width="1"/>
  <circle cx="536.7" cy="488.5" r="3" fill="#10b981" stroke="white" stroke-width="1"/>
  <circle cx="592.5" cy="492.6" r="3" fill="#10b981" stroke="white" stroke-width="1"/>
  <circle cx="648.3" cy="492.5" r="3" fill="#10b981" stroke="white" stroke-width="1"/>
  <circle cx="704.2" cy="493.6" r="3" fill="#10b981" stroke="white" stroke-width="1"/>
  <circle cx="760.0" cy="495.8" r="3" fill="#10b981" stroke="white" stroke-width="1"/>
  <polyline points="90.0,573.2 145.8,573.4 201.7,572.8 257.5,573.3 313.3,573.2 369.2,573.4 425.0,573.2 480.8,573.3 536.7,573.1 592.5,573.1 648.3,573.1 704.2,573.0 760.0,573.1" fill="none" stroke="#8b5cf6" stroke-width="2.5" stroke-linecap="round" stroke-linejoin="round"/>
  <circle cx="90.0" cy="573.2" r="3" fill="#8b5cf6" stroke="white" stroke-width="1"/>
  <circle cx="145.8" cy="573.4" r="3" fill="#8b5cf6" stroke="white" stroke-width="1"/>
  <circle cx="201.7" cy="572.8" r="3" fill="#8b5cf6" stroke="white" stroke-width="1"/>
  <circle cx="257.5" cy="573.3" r="3" fill="#8b5cf6" stroke="white" stroke-width="1"/>
  <circle cx="313.3" cy="573.2" r="3" fill="#8b5cf6" stroke="white" stroke-width="1"/>
  <circle cx="369.2" cy="573.4" r="3" fill="#8b5cf6" stroke="white" stroke-width="1"/>
  <circle cx="425.0" cy="573.2" r="3" fill="#8b5cf6" stroke="white" stroke-width="1"/>
  <circle cx="480.8" cy="573.3" r="3" fill="#8b5cf6" stroke="white" stroke-width="1"/>
  <circle cx="536.7" cy="573.1" r="3" fill="#8b5cf6" stroke="white" stroke-width="1"/>
  <circle cx="592.5" cy="573.1" r="3" fill="#8b5cf6" stroke="white" stroke-width="1"/>
  <circle cx="648.3" cy="573.1" r="3" fill="#8b5cf6" stroke="white" stroke-width="1"/>
  <circle cx="704.2" cy="573.0" r="3" fill="#8b5cf6" stroke="white" stroke-width="1"/>
  <circle cx="760.0" cy="573.1" r="3" fill="#8b5cf6" stroke="white" stroke-width="1"/>
  <polyline points="90.0,496.0 145.8,499.6 201.7,507.6 257.5,507.9 313.3,499.4 369.2,504.2 425.0,495.1 480.8,496.2 536.7,507.8 592.5,497.1 648.3,504.3 704.2,495.8 760.0,499.9" fill="none" stroke="#dc2626" stroke-width="2.5" stroke-linecap="round" stroke-linejoin="round"/>
  <circle cx="90.0" cy="496.0" r="3" fill="#dc2626" stroke="white" stroke-width="1"/>
  <circle cx="145.8" cy="499.6" r="3" fill="#dc2626" stroke="white" stroke-width="1"/>
  <circle cx="201.7" cy="507.6" r="3" fill="#dc2626" stroke="white" stroke-width="1"/>
  <circle cx="257.5" cy="507.9" r="3" fill="#dc2626" stroke="white" stroke-width="1"/>
  <circle cx="313.3" cy="499.4" r="3" fill="#dc2626" stroke="white" stroke-width="1"/>
  <circle cx="369.2" cy="504.2" r="3" fill="#dc2626" stroke="white" stroke-width="1"/>
  <circle cx="425.0" cy="495.1" r="3" fill="#dc2626" stroke="white" stroke-width="1"/>
  <circle cx="480.8" cy="496.2" r="3" fill="#dc2626" stroke="white" stroke-width="1"/>
  <circle cx="536.7" cy="507.8" r="3" fill="#dc2626" stroke="white" stroke-width="1"/>
  <circle cx="592.5" cy="497.1" r="3" fill="#dc2626" stroke="white" stroke-width="1"/>
  <circle cx="648.3" cy="504.3" r="3" fill="#dc2626" stroke="white" stroke-width="1"/>
  <circle cx="704.2" cy="495.8" r="3" fill="#dc2626" stroke="white" stroke-width="1"/>
  <circle cx="760.0" cy="499.9" r="3" fill="#dc2626" stroke="white" stroke-width="1"/>
  <text x="90.0" y="598.0" text-anchor="middle" fill="#374151" font-size="8.5">8 B</text>
  <text x="145.8" y="598.0" text-anchor="middle" fill="#374151" font-size="8.5">16 B</text>
  <text x="201.7" y="598.0" text-anchor="middle" fill="#374151" font-size="8.5">32 B</text>
  <text x="257.5" y="598.0" text-anchor="middle" fill="#374151" font-size="8.5">64 B</text>
  <text x="313.3" y="598.0" text-anchor="middle" fill="#374151" font-size="8.5">128 B</text>
  <text x="369.2" y="598.0" text-anchor="middle" fill="#374151" font-size="8.5">256 B</text>
  <text x="425.0" y="598.0" text-anchor="middle" fill="#374151" font-size="8.5">512 B</text>
  <text x="480.8" y="598.0" text-anchor="middle" fill="#374151" font-size="8.5">1 KiB</text>
  <text x="536.7" y="598.0" text-anchor="middle" fill="#374151" font-size="8.5">2 KiB</text>
  <text x="592.5" y="598.0" text-anchor="middle" fill="#374151" font-size="8.5">4 KiB</text>
  <text x="648.3" y="598.0" text-anchor="middle" fill="#374151" font-size="8.5">8 KiB</text>
  <text x="704.2" y="598.0" text-anchor="middle" fill="#374151" font-size="8.5">16 KiB</text>
  <text x="760.0" y="598.0" text-anchor="middle" fill="#374151" font-size="8.5">32 KiB</text>
  <line x1="50" y1="644" x2="64" y2="644" stroke="#eab308" stroke-width="2.5"/>
  <circle cx="57" cy="644" r="2.5" fill="#eab308"/>
  <text x="70" y="648" fill="#374151" font-size="11" font-weight="500">libzmq v4.3.5</text>
  <line x1="175" y1="644" x2="189" y2="644" stroke="#dc2626" stroke-width="2.5"/>
  <circle cx="182" cy="644" r="2.5" fill="#dc2626"/>
  <text x="195" y="648" fill="#374151" font-size="11" font-weight="500">omq-compio (MT)</text>
  <line x1="300" y1="644" x2="314" y2="644" stroke="#8b5cf6" stroke-width="2.5"/>
  <circle cx="307" cy="644" r="2.5" fill="#8b5cf6"/>
  <text x="320" y="648" fill="#374151" font-size="11" font-weight="500">omq-compio (ST)</text>
  <line x1="425" y1="644" x2="439" y2="644" stroke="#f97316" stroke-width="2.5"/>
  <circle cx="432" cy="644" r="2.5" fill="#f97316"/>
  <text x="445" y="648" fill="#374151" font-size="11" font-weight="500">omq-tokio</text>
  <line x1="550" y1="644" x2="564" y2="644" stroke="#10b981" stroke-width="2.5"/>
  <circle cx="557" cy="644" r="2.5" fill="#10b981"/>
  <text x="570" y="648" fill="#374151" font-size="11" font-weight="500">rzmq v0.5.15</text>
  <line x1="675" y1="644" x2="689" y2="644" stroke="#06b6d4" stroke-width="2.5"/>
  <circle cx="682" cy="644" r="2.5" fill="#06b6d4"/>
  <text x="695" y="648" fill="#374151" font-size="11" font-weight="500">omq-libzmq</text>
  <line x1="265" y1="666" x2="285" y2="666" stroke="#6b7280" stroke-width="2" stroke-dasharray="6,4"/>
  <text x="291" y="670" fill="#6b7280" font-size="10">msg/s (left axis)</text>
  <line x1="435" y1="666" x2="455" y2="666" stroke="#6b7280" stroke-width="2"/>
  <circle cx="445" cy="666" r="2" fill="#6b7280"/>
  <text x="461" y="670" fill="#6b7280" font-size="10">throughput / GB/s (right axis, log)</text>
</svg>
