<svg xmlns="http://www.w3.org/2000/svg" viewBox="0 0 850 665" font-family="system-ui, -apple-system, sans-serif">
  <rect width="850" height="665" fill="white"/>
  <text x="425.0" y="18.0" text-anchor="middle" fill="#111827" font-size="13" font-weight="700">PUSH/PULL throughput — inproc (higher is better)</text>
  <line x1="90.0" y1="242.6" x2="760.0" y2="242.6" stroke="#e5e7eb" stroke-width="1"/>
  <text x="82.0" y="242.6" text-anchor="end" dominant-baseline="middle" fill="#374151" font-size="10">2M</text>
  <line x1="90.0" y1="215.2" x2="760.0" y2="215.2" stroke="#e5e7eb" stroke-width="1"/>
  <text x="82.0" y="215.2" text-anchor="end" dominant-baseline="middle" fill="#374151" font-size="10">4M</text>
  <line x1="90.0" y1="187.8" x2="760.0" y2="187.8" stroke="#e5e7eb" stroke-width="1"/>
  <text x="82.0" y="187.8" text-anchor="end" dominant-baseline="middle" fill="#374151" font-size="10">6M</text>
  <line x1="90.0" y1="160.4" x2="760.0" y2="160.4" stroke="#e5e7eb" stroke-width="1"/>
  <text x="82.0" y="160.4" text-anchor="end" dominant-baseline="middle" fill="#374151" font-size="10">8M</text>
  <line x1="90.0" y1="132.9" x2="760.0" y2="132.9" stroke="#e5e7eb" stroke-width="1"/>
  <text x="82.0" y="132.9" text-anchor="end" dominant-baseline="middle" fill="#374151" font-size="10">10M</text>
  <line x1="90.0" y1="105.5" x2="760.0" y2="105.5" stroke="#e5e7eb" stroke-width="1"/>
  <text x="82.0" y="105.5" text-anchor="end" dominant-baseline="middle" fill="#374151" font-size="10">12M</text>
  <line x1="90.0" y1="78.1" x2="760.0" y2="78.1" stroke="#e5e7eb" stroke-width="1"/>
  <text x="82.0" y="78.1" text-anchor="end" dominant-baseline="middle" fill="#374151" font-size="10">14M</text>
  <line x1="90.0" y1="50.7" x2="760.0" y2="50.7" stroke="#e5e7eb" stroke-width="1"/>
  <text x="82.0" y="50.7" text-anchor="end" dominant-baseline="middle" fill="#374151" font-size="10">16M</text>
  <line x1="90.0" y1="270.0" x2="760.0" y2="270.0" stroke="#e5e7eb" stroke-width="1" stroke-dasharray="3,6"/>
  <text x="768.0" y="270.0" text-anchor="start" dominant-baseline="middle" fill="#6b7280" font-size="10">0.01 GB/s</text>
  <line x1="90.0" y1="255.9" x2="760.0" y2="255.9" stroke="#e5e7eb" stroke-width="1" stroke-dasharray="2,8"/>
  <line x1="90.0" y1="237.1" x2="760.0" y2="237.1" stroke="#e5e7eb" stroke-width="1" stroke-dasharray="2,8"/>
  <line x1="90.0" y1="223.0" x2="760.0" y2="223.0" stroke="#e5e7eb" stroke-width="1" stroke-dasharray="3,6"/>
  <text x="768.0" y="223.0" text-anchor="start" dominant-baseline="middle" fill="#6b7280" font-size="10">0.1 GB/s</text>
  <line x1="90.0" y1="208.9" x2="760.0" y2="208.9" stroke="#e5e7eb" stroke-width="1" stroke-dasharray="2,8"/>
  <line x1="90.0" y1="190.1" x2="760.0" y2="190.1" stroke="#e5e7eb" stroke-width="1" stroke-dasharray="2,8"/>
  <line x1="90.0" y1="176.0" x2="760.0" y2="176.0" stroke="#e5e7eb" stroke-width="1" stroke-dasharray="3,6"/>
  <text x="768.0" y="176.0" text-anchor="start" dominant-baseline="middle" fill="#6b7280" font-size="10">1 GB/s</text>
  <line x1="90.0" y1="161.9" x2="760.0" y2="161.9" stroke="#e5e7eb" stroke-width="1" stroke-dasharray="2,8"/>
  <line x1="90.0" y1="143.1" x2="760.0" y2="143.1" stroke="#e5e7eb" stroke-width="1" stroke-dasharray="2,8"/>
  <line x1="90.0" y1="129.0" x2="760.0" y2="129.0" stroke="#e5e7eb" stroke-width="1" stroke-dasharray="3,6"/>
  <text x="768.0" y="129.0" text-anchor="start" dominant-baseline="middle" fill="#6b7280" font-size="10">10 GB/s</text>
  <line x1="90.0" y1="114.9" x2="760.0" y2="114.9" stroke="#e5e7eb" stroke-width="1" stroke-dasharray="2,8"/>
  <line x1="90.0" y1="96.1" x2="760.0" y2="96.1" stroke="#e5e7eb" stroke-width="1" stroke-dasharray="2,8"/>
  <line x1="90.0" y1="82.0" x2="760.0" y2="82.0" stroke="#e5e7eb" stroke-width="1" stroke-dasharray="3,6"/>
  <text x="768.0" y="82.0" text-anchor="start" dominant-baseline="middle" fill="#6b7280" font-size="10">100 GB/s</text>
  <line x1="90.0" y1="67.9" x2="760.0" y2="67.9" stroke="#e5e7eb" stroke-width="1" stroke-dasharray="2,8"/>
  <line x1="90.0" y1="49.1" x2="760.0" y2="49.1" stroke="#e5e7eb" stroke-width="1" stroke-dasharray="2,8"/>
  <line x1="90.0" y1="35.0" x2="760.0" y2="35.0" stroke="#e5e7eb" stroke-width="1" stroke-dasharray="3,6"/>
  <text x="768.0" y="35.0" text-anchor="start" dominant-baseline="middle" fill="#6b7280" font-size="10">1000 GB/s</text>
  <line x1="90.0" y1="35.0" x2="90.0" y2="270.0" stroke="#e5e7eb" stroke-width="1"/>
  <line x1="145.8" y1="35.0" x2="145.8" y2="270.0" stroke="#e5e7eb" stroke-width="1"/>
  <line x1="201.7" y1="35.0" x2="201.7" y2="270.0" stroke="#e5e7eb" stroke-width="1"/>
  <line x1="257.5" y1="35.0" x2="257.5" y2="270.0" stroke="#e5e7eb" stroke-width="1"/>
  <line x1="313.3" y1="35.0" x2="313.3" y2="270.0" stroke="#e5e7eb" stroke-width="1"/>
  <line x1="369.2" y1="35.0" x2="369.2" y2="270.0" stroke="#e5e7eb" stroke-width="1"/>
  <line x1="425.0" y1="35.0" x2="425.0" y2="270.0" stroke="#e5e7eb" stroke-width="1"/>
  <line x1="480.8" y1="35.0" x2="480.8" y2="270.0" stroke="#e5e7eb" stroke-width="1"/>
  <line x1="536.7" y1="35.0" x2="536.7" y2="270.0" stroke="#e5e7eb" stroke-width="1"/>
  <line x1="592.5" y1="35.0" x2="592.5" y2="270.0" stroke="#e5e7eb" stroke-width="1"/>
  <line x1="648.3" y1="35.0" x2="648.3" y2="270.0" stroke="#e5e7eb" stroke-width="1"/>
  <line x1="704.2" y1="35.0" x2="704.2" y2="270.0" stroke="#e5e7eb" stroke-width="1"/>
  <line x1="760.0" y1="35.0" x2="760.0" y2="270.0" stroke="#e5e7eb" stroke-width="1"/>
  <line x1="90.0" y1="35.0" x2="90.0" y2="270.0" stroke="#9ca3af" stroke-width="1.5"/>
  <line x1="760.0" y1="35.0" x2="760.0" y2="270.0" stroke="#9ca3af" stroke-width="1.5"/>
  <line x1="90.0" y1="270.0" x2="760.0" y2="270.0" stroke="#9ca3af" stroke-width="1.5"/>
  <text x="40.0" y="152.5" text-anchor="middle" fill="#374151" font-size="10" font-weight="600" transform="rotate(-90,40.0,152.5)">msg/s</text>
  <polyline points="90.0,118.5 145.8,113.9 201.7,120.1 257.5,179.9 313.3,233.8 369.2,232.5 425.0,230.4 480.8,238.1 536.7,241.9 592.5,245.1 648.3,244.9 704.2,251.1 760.0,259.3" fill="none" stroke="#eab308" stroke-width="2" stroke-dasharray="6,4"/>
  <polyline points="90.0,225.7 145.8,226.5 201.7,222.9 257.5,215.1 313.3,218.0 369.2,215.5 425.0,217.8 480.8,227.5 536.7,211.7 592.5,225.2 648.3,223.7 704.2,222.9 760.0,227.5" fill="none" stroke="#f97316" stroke-width="2" stroke-dasharray="6,4"/>
  <polyline points="90.0,211.4 145.8,211.0 201.7,209.5 257.5,212.2 313.3,212.6 369.2,213.9 425.0,214.3 480.8,210.2 536.7,210.0 592.5,214.1 648.3,212.5 704.2,216.5 760.0,213.0" fill="none" stroke="#8b5cf6" stroke-width="2" stroke-dasharray="6,4"/>
  <polyline points="90.0,65.7 145.8,70.2 201.7,76.5 257.5,110.2 313.3,117.0 369.2,95.8 425.0,103.7 480.8,117.3 536.7,115.3 592.5,117.2 648.3,110.0 704.2,111.9 760.0,109.5" fill="none" stroke="#dc2626" stroke-width="2" stroke-dasharray="6,4"/>
  <polyline points="90.0,225.5 145.8,210.8 201.7,197.4 257.5,193.7 313.3,198.2 369.2,183.3 425.0,168.0 480.8,158.3 536.7,146.7 592.5,135.0 648.3,120.7 704.2,112.4 760.0,109.9" fill="none" stroke="#eab308" stroke-width="2.5" stroke-linecap="round" stroke-linejoin="round"/>
  <circle cx="90.0" cy="225.5" r="3" fill="#eab308" stroke="white" stroke-width="1"/>
  <circle cx="145.8" cy="210.8" r="3" fill="#eab308" stroke="white" stroke-width="1"/>
  <circle cx="201.7" cy="197.4" r="3" fill="#eab308" stroke="white" stroke-width="1"/>
  <circle cx="257.5" cy="193.7" r="3" fill="#eab308" stroke="white" stroke-width="1"/>
  <circle cx="313.3" cy="198.2" r="3" fill="#eab308" stroke="white" stroke-width="1"/>
  <circle cx="369.2" cy="183.3" r="3" fill="#eab308" stroke="white" stroke-width="1"/>
  <circle cx="425.0" cy="168.0" r="3" fill="#eab308" stroke="white" stroke-width="1"/>
  <circle cx="480.8" cy="158.3" r="3" fill="#eab308" stroke="white" stroke-width="1"/>
  <circle cx="536.7" cy="146.7" r="3" fill="#eab308" stroke="white" stroke-width="1"/>
  <circle cx="592.5" cy="135.0" r="3" fill="#eab308" stroke="white" stroke-width="1"/>
  <circle cx="648.3" cy="120.7" r="3" fill="#eab308" stroke="white" stroke-width="1"/>
  <circle cx="704.2" cy="112.4" r="3" fill="#eab308" stroke="white" stroke-width="1"/>
  <circle cx="760.0" cy="109.9" r="3" fill="#eab308" stroke="white" stroke-width="1"/>
  <polyline points="90.0,250.6 145.8,236.8 201.7,221.1 257.5,203.8 313.3,190.7 369.2,175.6 425.0,162.4 480.8,152.4 536.7,131.8 592.5,123.0 648.3,108.2 704.2,93.7 760.0,81.7" fill="none" stroke="#f97316" stroke-width="2.5" stroke-linecap="round" stroke-linejoin="round"/>
  <circle cx="90.0" cy="250.6" r="3" fill="#f97316" stroke="white" stroke-width="1"/>
  <circle cx="145.8" cy="236.8" r="3" fill="#f97316" stroke="white" stroke-width="1"/>
  <circle cx="201.7" cy="221.1" r="3" fill="#f97316" stroke="white" stroke-width="1"/>
  <circle cx="257.5" cy="203.8" r="3" fill="#f97316" stroke="white" stroke-width="1"/>
  <circle cx="313.3" cy="190.7" r="3" fill="#f97316" stroke="white" stroke-width="1"/>
  <circle cx="369.2" cy="175.6" r="3" fill="#f97316" stroke="white" stroke-width="1"/>
  <circle cx="425.0" cy="162.4" r="3" fill="#f97316" stroke="white" stroke-width="1"/>
  <circle cx="480.8" cy="152.4" r="3" fill="#f97316" stroke="white" stroke-width="1"/>
  <circle cx="536.7" cy="131.8" r="3" fill="#f97316" stroke="white" stroke-width="1"/>
  <circle cx="592.5" cy="123.0" r="3" fill="#f97316" stroke="white" stroke-width="1"/>
  <circle cx="648.3" cy="108.2" r="3" fill="#f97316" stroke="white" stroke-width="1"/>
  <circle cx="704.2" cy="93.7" r="3" fill="#f97316" stroke="white" stroke-width="1"/>
  <circle cx="760.0" cy="81.7" r="3" fill="#f97316" stroke="white" stroke-width="1"/>
  <polyline points="90.0,244.9 145.8,230.6 201.7,216.0 257.5,202.7 313.3,188.7 369.2,175.1 425.0,161.0 480.8,145.4 536.7,131.2 592.5,118.5 648.3,103.8 704.2,91.1 760.0,75.7" fill="none" stroke="#8b5cf6" stroke-width="2.5" stroke-linecap="round" stroke-linejoin="round"/>
  <circle cx="90.0" cy="244.9" r="3" fill="#8b5cf6" stroke="white" stroke-width="1"/>
  <circle cx="145.8" cy="230.6" r="3" fill="#8b5cf6" stroke="white" stroke-width="1"/>
  <circle cx="201.7" cy="216.0" r="3" fill="#8b5cf6" stroke="white" stroke-width="1"/>
  <circle cx="257.5" cy="202.7" r="3" fill="#8b5cf6" stroke="white" stroke-width="1"/>
  <circle cx="313.3" cy="188.7" r="3" fill="#8b5cf6" stroke="white" stroke-width="1"/>
  <circle cx="369.2" cy="175.1" r="3" fill="#8b5cf6" stroke="white" stroke-width="1"/>
  <circle cx="425.0" cy="161.0" r="3" fill="#8b5cf6" stroke="white" stroke-width="1"/>
  <circle cx="480.8" cy="145.4" r="3" fill="#8b5cf6" stroke="white" stroke-width="1"/>
  <circle cx="536.7" cy="131.2" r="3" fill="#8b5cf6" stroke="white" stroke-width="1"/>
  <circle cx="592.5" cy="118.5" r="3" fill="#8b5cf6" stroke="white" stroke-width="1"/>
  <circle cx="648.3" cy="103.8" r="3" fill="#8b5cf6" stroke="white" stroke-width="1"/>
  <circle cx="704.2" cy="91.1" r="3" fill="#8b5cf6" stroke="white" stroke-width="1"/>
  <circle cx="760.0" cy="75.7" r="3" fill="#8b5cf6" stroke="white" stroke-width="1"/>
  <polyline points="90.0,219.4 145.8,205.7 201.7,192.2 257.5,182.0 313.3,168.7 369.2,151.9 425.0,138.7 480.8,126.3 536.7,111.9 592.5,98.0 648.3,82.9 704.2,69.0 760.0,54.6" fill="none" stroke="#dc2626" stroke-width="2.5" stroke-linecap="round" stroke-linejoin="round"/>
  <circle cx="90.0" cy="219.4" r="3" fill="#dc2626" stroke="white" stroke-width="1"/>
  <circle cx="145.8" cy="205.7" r="3" fill="#dc2626" stroke="white" stroke-width="1"/>
  <circle cx="201.7" cy="192.2" r="3" fill="#dc2626" stroke="white" stroke-width="1"/>
  <circle cx="257.5" cy="182.0" r="3" fill="#dc2626" stroke="white" stroke-width="1"/>
  <circle cx="313.3" cy="168.7" r="3" fill="#dc2626" stroke="white" stroke-width="1"/>
  <circle cx="369.2" cy="151.9" r="3" fill="#dc2626" stroke="white" stroke-width="1"/>
  <circle cx="425.0" cy="138.7" r="3" fill="#dc2626" stroke="white" stroke-width="1"/>
  <circle cx="480.8" cy="126.3" r="3" fill="#dc2626" stroke="white" stroke-width="1"/>
  <circle cx="536.7" cy="111.9" r="3" fill="#dc2626" stroke="white" stroke-width="1"/>
  <circle cx="592.5" cy="98.0" r="3" fill="#dc2626" stroke="white" stroke-width="1"/>
  <circle cx="648.3" cy="82.9" r="3" fill="#dc2626" stroke="white" stroke-width="1"/>
  <circle cx="704.2" cy="69.0" r="3" fill="#dc2626" stroke="white" stroke-width="1"/>
  <circle cx="760.0" cy="54.6" r="3" fill="#dc2626" stroke="white" stroke-width="1"/>
  <text x="90.0" y="284.0" text-anchor="middle" fill="#374151" font-size="8.5">8 B</text>
  <text x="145.8" y="284.0" text-anchor="middle" fill="#374151" font-size="8.5">16 B</text>
  <text x="201.7" y="284.0" text-anchor="middle" fill="#374151" font-size="8.5">32 B</text>
  <text x="257.5" y="284.0" text-anchor="middle" fill="#374151" font-size="8.5">64 B</text>
  <text x="313.3" y="284.0" text-anchor="middle" fill="#374151" font-size="8.5">128 B</text>
  <text x="369.2" y="284.0" text-anchor="middle" fill="#374151" font-size="8.5">256 B</text>
  <text x="425.0" y="284.0" text-anchor="middle" fill="#374151" font-size="8.5">512 B</text>
  <text x="480.8" y="284.0" text-anchor="middle" fill="#374151" font-size="8.5">1 KiB</text>
  <text x="536.7" y="284.0" text-anchor="middle" fill="#374151" font-size="8.5">2 KiB</text>
  <text x="592.5" y="284.0" text-anchor="middle" fill="#374151" font-size="8.5">4 KiB</text>
  <text x="648.3" y="284.0" text-anchor="middle" fill="#374151" font-size="8.5">8 KiB</text>
  <text x="704.2" y="284.0" text-anchor="middle" fill="#374151" font-size="8.5">16 KiB</text>
  <text x="760.0" y="284.0" text-anchor="middle" fill="#374151" font-size="8.5">32 KiB</text>
  <text x="425.0" y="333.0" text-anchor="middle" fill="#111827" font-size="13" font-weight="700">REQ/REP latency — inproc (p50 µs, lower is better)</text>
  <line x1="90.0" y1="506.8" x2="760.0" y2="506.8" stroke="#e5e7eb" stroke-width="1"/>
  <text x="82.0" y="506.8" text-anchor="end" dominant-baseline="middle" fill="#374151" font-size="10">5</text>
  <line x1="90.0" y1="473.5" x2="760.0" y2="473.5" stroke="#e5e7eb" stroke-width="1"/>
  <text x="82.0" y="473.5" text-anchor="end" dominant-baseline="middle" fill="#374151" font-size="10">10</text>
  <line x1="90.0" y1="440.3" x2="760.0" y2="440.3" stroke="#e5e7eb" stroke-width="1"/>
  <text x="82.0" y="440.3" text-anchor="end" dominant-baseline="middle" fill="#374151" font-size="10">15</text>
  <line x1="90.0" y1="407.0" x2="760.0" y2="407.0" stroke="#e5e7eb" stroke-width="1"/>
  <text x="82.0" y="407.0" text-anchor="end" dominant-baseline="middle" fill="#374151" font-size="10">20</text>
  <line x1="90.0" y1="373.8" x2="760.0" y2="373.8" stroke="#e5e7eb" stroke-width="1"/>
  <text x="82.0" y="373.8" text-anchor="end" dominant-baseline="middle" fill="#374151" font-size="10">25</text>
  <line x1="90.0" y1="350.0" x2="90.0" y2="540.0" stroke="#e5e7eb" stroke-width="1"/>
  <line x1="145.8" y1="350.0" x2="145.8" y2="540.0" stroke="#e5e7eb" stroke-width="1"/>
  <line x1="201.7" y1="350.0" x2="201.7" y2="540.0" stroke="#e5e7eb" stroke-width="1"/>
  <line x1="257.5" y1="350.0" x2="257.5" y2="540.0" stroke="#e5e7eb" stroke-width="1"/>
  <line x1="313.3" y1="350.0" x2="313.3" y2="540.0" stroke="#e5e7eb" stroke-width="1"/>
  <line x1="369.2" y1="350.0" x2="369.2" y2="540.0" stroke="#e5e7eb" stroke-width="1"/>
  <line x1="425.0" y1="350.0" x2="425.0" y2="540.0" stroke="#e5e7eb" stroke-width="1"/>
  <line x1="480.8" y1="350.0" x2="480.8" y2="540.0" stroke="#e5e7eb" stroke-width="1"/>
  <line x1="536.7" y1="350.0" x2="536.7" y2="540.0" stroke="#e5e7eb" stroke-width="1"/>
  <line x1="592.5" y1="350.0" x2="592.5" y2="540.0" stroke="#e5e7eb" stroke-width="1"/>
  <line x1="648.3" y1="350.0" x2="648.3" y2="540.0" stroke="#e5e7eb" stroke-width="1"/>
  <line x1="704.2" y1="350.0" x2="704.2" y2="540.0" stroke="#e5e7eb" stroke-width="1"/>
  <line x1="760.0" y1="350.0" x2="760.0" y2="540.0" stroke="#e5e7eb" stroke-width="1"/>
  <line x1="90.0" y1="350.0" x2="90.0" y2="540.0" stroke="#9ca3af" stroke-width="1.5"/>
  <line x1="90.0" y1="540.0" x2="760.0" y2="540.0" stroke="#9ca3af" stroke-width="1.5"/>
  <text x="40.0" y="445.0" text-anchor="middle" fill="#374151" font-size="10" font-weight="600" transform="rotate(-90,40.0,445.0)">p50 latency (µs)</text>
  <polyline points="90.0,415.2 145.8,406.2 201.7,410.0 257.5,410.7 313.3,405.3 369.2,402.7 425.0,402.6 480.8,401.4 536.7,406.6 592.5,405.8 648.3,397.8 704.2,399.4 760.0,381.7" fill="none" stroke="#eab308" stroke-width="2.5" stroke-linecap="round" stroke-linejoin="round"/>
  <circle cx="90.0" cy="415.2" r="3" fill="#eab308" stroke="white" stroke-width="1"/>
  <circle cx="145.8" cy="406.2" r="3" fill="#eab308" stroke="white" stroke-width="1"/>
  <circle cx="201.7" cy="410.0" r="3" fill="#eab308" stroke="white" stroke-width="1"/>
  <circle cx="257.5" cy="410.7" r="3" fill="#eab308" stroke="white" stroke-width="1"/>
  <circle cx="313.3" cy="405.3" r="3" fill="#eab308" stroke="white" stroke-width="1"/>
  <circle cx="369.2" cy="402.7" r="3" fill="#eab308" stroke="white" stroke-width="1"/>
  <circle cx="425.0" cy="402.6" r="3" fill="#eab308" stroke="white" stroke-width="1"/>
  <circle cx="480.8" cy="401.4" r="3" fill="#eab308" stroke="white" stroke-width="1"/>
  <circle cx="536.7" cy="406.6" r="3" fill="#eab308" stroke="white" stroke-width="1"/>
  <circle cx="592.5" cy="405.8" r="3" fill="#eab308" stroke="white" stroke-width="1"/>
  <circle cx="648.3" cy="397.8" r="3" fill="#eab308" stroke="white" stroke-width="1"/>
  <circle cx="704.2" cy="399.4" r="3" fill="#eab308" stroke="white" stroke-width="1"/>
  <circle cx="760.0" cy="381.7" r="3" fill="#eab308" stroke="white" stroke-width="1"/>
  <polyline points="90.0,434.4 145.8,441.5 201.7,437.7 257.5,423.2 313.3,432.5 369.2,434.8 425.0,438.6 480.8,441.2 536.7,436.7 592.5,434.5 648.3,438.2 704.2,412.6 760.0,436.2" fill="none" stroke="#f97316" stroke-width="2.5" stroke-linecap="round" stroke-linejoin="round"/>
  <circle cx="90.0" cy="434.4" r="3" fill="#f97316" stroke="white" stroke-width="1"/>
  <circle cx="145.8" cy="441.5" r="3" fill="#f97316" stroke="white" stroke-width="1"/>
  <circle cx="201.7" cy="437.7" r="3" fill="#f97316" stroke="white" stroke-width="1"/>
  <circle cx="257.5" cy="423.2" r="3" fill="#f97316" stroke="white" stroke-width="1"/>
  <circle cx="313.3" cy="432.5" r="3" fill="#f97316" stroke="white" stroke-width="1"/>
  <circle cx="369.2" cy="434.8" r="3" fill="#f97316" stroke="white" stroke-width="1"/>
  <circle cx="425.0" cy="438.6" r="3" fill="#f97316" stroke="white" stroke-width="1"/>
  <circle cx="480.8" cy="441.2" r="3" fill="#f97316" stroke="white" stroke-width="1"/>
  <circle cx="536.7" cy="436.7" r="3" fill="#f97316" stroke="white" stroke-width="1"/>
  <circle cx="592.5" cy="434.5" r="3" fill="#f97316" stroke="white" stroke-width="1"/>
  <circle cx="648.3" cy="438.2" r="3" fill="#f97316" stroke="white" stroke-width="1"/>
  <circle cx="704.2" cy="412.6" r="3" fill="#f97316" stroke="white" stroke-width="1"/>
  <circle cx="760.0" cy="436.2" r="3" fill="#f97316" stroke="white" stroke-width="1"/>
  <polyline points="90.0,524.2 145.8,524.7 201.7,524.6 257.5,524.7 313.3,524.7 369.2,524.7 425.0,524.6 480.8,524.6 536.7,524.7 592.5,524.7 648.3,524.6 704.2,523.9 760.0,524.5" fill="none" stroke="#8b5cf6" stroke-width="2.5" stroke-linecap="round" stroke-linejoin="round"/>
  <circle cx="90.0" cy="524.2" r="3" fill="#8b5cf6" stroke="white" stroke-width="1"/>
  <circle cx="145.8" cy="524.7" r="3" fill="#8b5cf6" stroke="white" stroke-width="1"/>
  <circle cx="201.7" cy="524.6" r="3" fill="#8b5cf6" stroke="white" stroke-width="1"/>
  <circle cx="257.5" cy="524.7" r="3" fill="#8b5cf6" stroke="white" stroke-width="1"/>
  <circle cx="313.3" cy="524.7" r="3" fill="#8b5cf6" stroke="white" stroke-width="1"/>
  <circle cx="369.2" cy="524.7" r="3" fill="#8b5cf6" stroke="white" stroke-width="1"/>
  <circle cx="425.0" cy="524.6" r="3" fill="#8b5cf6" stroke="white" stroke-width="1"/>
  <circle cx="480.8" cy="524.6" r="3" fill="#8b5cf6" stroke="white" stroke-width="1"/>
  <circle cx="536.7" cy="524.7" r="3" fill="#8b5cf6" stroke="white" stroke-width="1"/>
  <circle cx="592.5" cy="524.7" r="3" fill="#8b5cf6" stroke="white" stroke-width="1"/>
  <circle cx="648.3" cy="524.6" r="3" fill="#8b5cf6" stroke="white" stroke-width="1"/>
  <circle cx="704.2" cy="523.9" r="3" fill="#8b5cf6" stroke="white" stroke-width="1"/>
  <circle cx="760.0" cy="524.5" r="3" fill="#8b5cf6" stroke="white" stroke-width="1"/>
  <polyline points="90.0,420.9 145.8,422.1 201.7,430.7 257.5,422.0 313.3,424.8 369.2,424.9 425.0,431.2 480.8,429.5 536.7,432.1 592.5,425.2 648.3,435.1 704.2,429.5 760.0,429.2" fill="none" stroke="#dc2626" stroke-width="2.5" stroke-linecap="round" stroke-linejoin="round"/>
  <circle cx="90.0" cy="420.9" r="3" fill="#dc2626" stroke="white" stroke-width="1"/>
  <circle cx="145.8" cy="422.1" r="3" fill="#dc2626" stroke="white" stroke-width="1"/>
  <circle cx="201.7" cy="430.7" r="3" fill="#dc2626" stroke="white" stroke-width="1"/>
  <circle cx="257.5" cy="422.0" r="3" fill="#dc2626" stroke="white" stroke-width="1"/>
  <circle cx="313.3" cy="424.8" r="3" fill="#dc2626" stroke="white" stroke-width="1"/>
  <circle cx="369.2" cy="424.9" r="3" fill="#dc2626" stroke="white" stroke-width="1"/>
  <circle cx="425.0" cy="431.2" r="3" fill="#dc2626" stroke="white" stroke-width="1"/>
  <circle cx="480.8" cy="429.5" r="3" fill="#dc2626" stroke="white" stroke-width="1"/>
  <circle cx="536.7" cy="432.1" r="3" fill="#dc2626" stroke="white" stroke-width="1"/>
  <circle cx="592.5" cy="425.2" r="3" fill="#dc2626" stroke="white" stroke-width="1"/>
  <circle cx="648.3" cy="435.1" r="3" fill="#dc2626" stroke="white" stroke-width="1"/>
  <circle cx="704.2" cy="429.5" r="3" fill="#dc2626" stroke="white" stroke-width="1"/>
  <circle cx="760.0" cy="429.2" r="3" fill="#dc2626" stroke="white" stroke-width="1"/>
  <text x="90.0" y="554.0" text-anchor="middle" fill="#374151" font-size="8.5">8 B</text>
  <text x="145.8" y="554.0" text-anchor="middle" fill="#374151" font-size="8.5">16 B</text>
  <text x="201.7" y="554.0" text-anchor="middle" fill="#374151" font-size="8.5">32 B</text>
  <text x="257.5" y="554.0" text-anchor="middle" fill="#374151" font-size="8.5">64 B</text>
  <text x="313.3" y="554.0" text-anchor="middle" fill="#374151" font-size="8.5">128 B</text>
  <text x="369.2" y="554.0" text-anchor="middle" fill="#374151" font-size="8.5">256 B</text>
  <text x="425.0" y="554.0" text-anchor="middle" fill="#374151" font-size="8.5">512 B</text>
  <text x="480.8" y="554.0" text-anchor="middle" fill="#374151" font-size="8.5">1 KiB</text>
  <text x="536.7" y="554.0" text-anchor="middle" fill="#374151" font-size="8.5">2 KiB</text>
  <text x="592.5" y="554.0" text-anchor="middle" fill="#374151" font-size="8.5">4 KiB</text>
  <text x="648.3" y="554.0" text-anchor="middle" fill="#374151" font-size="8.5">8 KiB</text>
  <text x="704.2" y="554.0" text-anchor="middle" fill="#374151" font-size="8.5">16 KiB</text>
  <text x="760.0" y="554.0" text-anchor="middle" fill="#374151" font-size="8.5">32 KiB</text>
  <line x1="145" y1="600" x2="159" y2="600" stroke="#eab308" stroke-width="2.5"/>
  <circle cx="152" cy="600" r="2.5" fill="#eab308"/>
  <text x="165" y="604" fill="#374151" font-size="11" font-weight="500">libzmq v4.3.5</text>
  <line x1="285" y1="600" x2="299" y2="600" stroke="#dc2626" stroke-width="2.5"/>
  <circle cx="292" cy="600" r="2.5" fill="#dc2626"/>
  <text x="305" y="604" fill="#374151" font-size="11" font-weight="500">omq-compio (MT)</text>
  <line x1="425" y1="600" x2="439" y2="600" stroke="#8b5cf6" stroke-width="2.5"/>
  <circle cx="432" cy="600" r="2.5" fill="#8b5cf6"/>
  <text x="445" y="604" fill="#374151" font-size="11" font-weight="500">omq-compio (ST)</text>
  <line x1="565" y1="600" x2="579" y2="600" stroke="#f97316" stroke-width="2.5"/>
  <circle cx="572" cy="600" r="2.5" fill="#f97316"/>
  <text x="585" y="604" fill="#374151" font-size="11" font-weight="500">omq-tokio</text>
  <line x1="265" y1="622" x2="285" y2="622" stroke="#6b7280" stroke-width="2" stroke-dasharray="6,4"/>
  <text x="291" y="626" fill="#6b7280" font-size="10">msg/s (left axis)</text>
  <line x1="435" y1="622" x2="455" y2="622" stroke="#6b7280" stroke-width="2"/>
  <circle cx="445" cy="622" r="2" fill="#6b7280"/>
  <text x="461" y="626" fill="#6b7280" font-size="10">throughput / GB/s (right axis, log)</text>
</svg>
