<svg xmlns="http://www.w3.org/2000/svg" viewBox="0 0 850 520" font-family="system-ui, -apple-system, sans-serif">
  <rect width="850" height="520" fill="white"/>
  <text x="425.0" y="18" text-anchor="middle" fill="#111827" font-size="13" font-weight="700">PUSH/PULL throughput — 2-process, TCP loopback (higher is better)</text>
  <line x1="90" y1="194.8" x2="760" y2="194.8" stroke="#e5e7eb" stroke-width="1"/>
  <text x="82" y="194.8" text-anchor="end" dominant-baseline="middle" fill="#374151" font-size="10">4M</text>
  <line x1="90" y1="141.5" x2="760" y2="141.5" stroke="#e5e7eb" stroke-width="1"/>
  <text x="82" y="141.5" text-anchor="end" dominant-baseline="middle" fill="#374151" font-size="10">8M</text>
  <line x1="90" y1="88.2" x2="760" y2="88.2" stroke="#e5e7eb" stroke-width="1"/>
  <text x="82" y="88.2" text-anchor="end" dominant-baseline="middle" fill="#374151" font-size="10">12M</text>
  <line x1="90" y1="35.0" x2="760" y2="35.0" stroke="#e5e7eb" stroke-width="1"/>
  <text x="82" y="35.0" text-anchor="end" dominant-baseline="middle" fill="#374151" font-size="10">16M</text>
  <line x1="90.0" y1="35" x2="90.0" y2="248" stroke="#e5e7eb" stroke-width="1"/>
  <line x1="137.9" y1="35" x2="137.9" y2="248" stroke="#e5e7eb" stroke-width="1"/>
  <line x1="185.7" y1="35" x2="185.7" y2="248" stroke="#e5e7eb" stroke-width="1"/>
  <line x1="233.6" y1="35" x2="233.6" y2="248" stroke="#e5e7eb" stroke-width="1"/>
  <line x1="281.4" y1="35" x2="281.4" y2="248" stroke="#e5e7eb" stroke-width="1"/>
  <line x1="329.3" y1="35" x2="329.3" y2="248" stroke="#e5e7eb" stroke-width="1"/>
  <line x1="377.1" y1="35" x2="377.1" y2="248" stroke="#e5e7eb" stroke-width="1"/>
  <line x1="425.0" y1="35" x2="425.0" y2="248" stroke="#e5e7eb" stroke-width="1"/>
  <line x1="472.9" y1="35" x2="472.9" y2="248" stroke="#e5e7eb" stroke-width="1"/>
  <line x1="520.7" y1="35" x2="520.7" y2="248" stroke="#e5e7eb" stroke-width="1"/>
  <line x1="568.6" y1="35" x2="568.6" y2="248" stroke="#e5e7eb" stroke-width="1"/>
  <line x1="616.4" y1="35" x2="616.4" y2="248" stroke="#e5e7eb" stroke-width="1"/>
  <line x1="664.3" y1="35" x2="664.3" y2="248" stroke="#e5e7eb" stroke-width="1"/>
  <line x1="712.1" y1="35" x2="712.1" y2="248" stroke="#e5e7eb" stroke-width="1"/>
  <line x1="760.0" y1="35" x2="760.0" y2="248" stroke="#e5e7eb" stroke-width="1"/>
  <line x1="90" y1="205.4" x2="760" y2="205.4" stroke="#e5e7eb" stroke-width="1" stroke-dasharray="3,6"/>
  <text x="768" y="205.4" text-anchor="start" dominant-baseline="middle" fill="#6b7280" font-size="10">2 GB/s</text>
  <line x1="90" y1="162.8" x2="760" y2="162.8" stroke="#e5e7eb" stroke-width="1" stroke-dasharray="3,6"/>
  <text x="768" y="162.8" text-anchor="start" dominant-baseline="middle" fill="#6b7280" font-size="10">4 GB/s</text>
  <line x1="90" y1="120.2" x2="760" y2="120.2" stroke="#e5e7eb" stroke-width="1" stroke-dasharray="3,6"/>
  <text x="768" y="120.2" text-anchor="start" dominant-baseline="middle" fill="#6b7280" font-size="10">6 GB/s</text>
  <line x1="90" y1="77.6" x2="760" y2="77.6" stroke="#e5e7eb" stroke-width="1" stroke-dasharray="3,6"/>
  <text x="768" y="77.6" text-anchor="start" dominant-baseline="middle" fill="#6b7280" font-size="10">8 GB/s</text>
  <line x1="90" y1="35.0" x2="760" y2="35.0" stroke="#e5e7eb" stroke-width="1" stroke-dasharray="3,6"/>
  <text x="768" y="35.0" text-anchor="start" dominant-baseline="middle" fill="#6b7280" font-size="10">10 GB/s</text>
  <line x1="90" y1="35" x2="90" y2="248" stroke="#9ca3af" stroke-width="1.5"/>
  <line x1="760" y1="35" x2="760" y2="248" stroke="#9ca3af" stroke-width="1.5"/>
  <line x1="90" y1="248" x2="760" y2="248" stroke="#9ca3af" stroke-width="1.5"/>
  <text x="40" y="141.5" text-anchor="middle" dominant-baseline="middle" fill="#374151" font-size="10" font-weight="600" transform="rotate(-90,40,141.5)">msg/s</text>
  <text x="812" y="141.5" text-anchor="middle" dominant-baseline="middle" fill="#6b7280" font-size="10" font-weight="600" transform="rotate(90,812,141.5)">throughput</text>
  <polyline points="90.0,242.0 137.9,242.5 185.7,242.9 233.6,243.3 281.4,243.5 329.3,243.5 377.1,243.7 425.0,243.9 472.9,244.0 520.7,244.4 568.6,245.0 616.4,245.4 664.3,246.2 712.1,247.1 760.0,247.6" fill="none" stroke="#2563eb" stroke-width="2" stroke-dasharray="6,4"/>
  <polyline points="90.0,147.2 137.9,130.7 185.7,145.5 233.6,172.9 281.4,211.5 329.3,212.7 377.1,221.0 425.0,232.6 472.9,239.1 520.7,243.1 568.6,245.6 616.4,246.8 664.3,247.0 712.1,247.3 760.0,247.6" fill="none" stroke="#eab308" stroke-width="2" stroke-dasharray="6,4"/>
  <polyline points="90.0,148.6 137.9,151.0 185.7,177.0 233.6,173.3 281.4,178.0 329.3,181.8 377.1,194.5 425.0,204.6 472.9,219.2 520.7,231.5 568.6,239.6 616.4,243.5 664.3,245.8 712.1,247.1 760.0,247.5" fill="none" stroke="#f97316" stroke-width="2" stroke-dasharray="6,4"/>
  <polyline points="90.0,43.9 137.9,67.0 185.7,93.8 233.6,114.5 281.4,143.2 329.3,180.6 377.1,194.9 425.0,211.8 472.9,223.8 520.7,234.2 568.6,239.6 616.4,243.6 664.3,245.8 712.1,247.1 760.0,247.1" fill="none" stroke="#dc2626" stroke-width="2" stroke-dasharray="6,4"/>
  <polyline points="90.0,247.9 137.9,247.9 185.7,247.8 233.6,247.5 281.4,247.1 329.3,246.2 377.1,244.6 425.0,241.4 472.9,235.2 520.7,224.6 568.6,209.7 616.4,182.0 664.3,156.4 712.1,158.5 760.0,160.7" fill="none" stroke="#2563eb" stroke-width="2.5" stroke-linecap="round" stroke-linejoin="round"/>
  <circle cx="90.0" cy="247.9" r="3" fill="#2563eb" stroke="white" stroke-width="1"/>
  <circle cx="137.9" cy="247.9" r="3" fill="#2563eb" stroke="white" stroke-width="1"/>
  <circle cx="185.7" cy="247.8" r="3" fill="#2563eb" stroke="white" stroke-width="1"/>
  <circle cx="233.6" cy="247.5" r="3" fill="#2563eb" stroke="white" stroke-width="1"/>
  <circle cx="281.4" cy="247.1" r="3" fill="#2563eb" stroke="white" stroke-width="1"/>
  <circle cx="329.3" cy="246.2" r="3" fill="#2563eb" stroke="white" stroke-width="1"/>
  <circle cx="377.1" cy="244.6" r="3" fill="#2563eb" stroke="white" stroke-width="1"/>
  <circle cx="425.0" cy="241.4" r="3" fill="#2563eb" stroke="white" stroke-width="1"/>
  <circle cx="472.9" cy="235.2" r="3" fill="#2563eb" stroke="white" stroke-width="1"/>
  <circle cx="520.7" cy="224.6" r="3" fill="#2563eb" stroke="white" stroke-width="1"/>
  <circle cx="568.6" cy="209.7" r="3" fill="#2563eb" stroke="white" stroke-width="1"/>
  <circle cx="616.4" cy="182.0" r="3" fill="#2563eb" stroke="white" stroke-width="1"/>
  <circle cx="664.3" cy="156.4" r="3" fill="#2563eb" stroke="white" stroke-width="1"/>
  <circle cx="712.1" cy="158.5" r="3" fill="#2563eb" stroke="white" stroke-width="1"/>
  <circle cx="760.0" cy="160.7" r="3" fill="#2563eb" stroke="white" stroke-width="1"/>
  <polyline points="90.0,246.7 137.9,245.1 185.7,242.9 233.6,240.5 281.4,240.7 329.3,233.9 377.1,226.7 425.0,222.4 472.9,218.2 520.7,216.1 568.6,216.1 616.4,216.1 664.3,196.9 712.1,173.4 760.0,156.4" fill="none" stroke="#eab308" stroke-width="2.5" stroke-linecap="round" stroke-linejoin="round"/>
  <circle cx="90.0" cy="246.7" r="3" fill="#eab308" stroke="white" stroke-width="1"/>
  <circle cx="137.9" cy="245.1" r="3" fill="#eab308" stroke="white" stroke-width="1"/>
  <circle cx="185.7" cy="242.9" r="3" fill="#eab308" stroke="white" stroke-width="1"/>
  <circle cx="233.6" cy="240.5" r="3" fill="#eab308" stroke="white" stroke-width="1"/>
  <circle cx="281.4" cy="240.7" r="3" fill="#eab308" stroke="white" stroke-width="1"/>
  <circle cx="329.3" cy="233.9" r="3" fill="#eab308" stroke="white" stroke-width="1"/>
  <circle cx="377.1" cy="226.7" r="3" fill="#eab308" stroke="white" stroke-width="1"/>
  <circle cx="425.0" cy="222.4" r="3" fill="#eab308" stroke="white" stroke-width="1"/>
  <circle cx="472.9" cy="218.2" r="3" fill="#eab308" stroke="white" stroke-width="1"/>
  <circle cx="520.7" cy="216.1" r="3" fill="#eab308" stroke="white" stroke-width="1"/>
  <circle cx="568.6" cy="216.1" r="3" fill="#eab308" stroke="white" stroke-width="1"/>
  <circle cx="616.4" cy="216.1" r="3" fill="#eab308" stroke="white" stroke-width="1"/>
  <circle cx="664.3" cy="196.9" r="3" fill="#eab308" stroke="white" stroke-width="1"/>
  <circle cx="712.1" cy="173.4" r="3" fill="#eab308" stroke="white" stroke-width="1"/>
  <circle cx="760.0" cy="156.4" r="3" fill="#eab308" stroke="white" stroke-width="1"/>
  <polyline points="90.0,246.8 137.9,245.6 185.7,244.4 233.6,240.5 281.4,234.0 329.3,220.3 377.1,203.3 425.0,177.7 472.9,154.3 520.7,139.4 568.6,139.4 616.4,130.8 664.3,133.0 712.1,154.3 760.0,145.8" fill="none" stroke="#f97316" stroke-width="2.5" stroke-linecap="round" stroke-linejoin="round"/>
  <circle cx="90.0" cy="246.8" r="3" fill="#f97316" stroke="white" stroke-width="1"/>
  <circle cx="137.9" cy="245.6" r="3" fill="#f97316" stroke="white" stroke-width="1"/>
  <circle cx="185.7" cy="244.4" r="3" fill="#f97316" stroke="white" stroke-width="1"/>
  <circle cx="233.6" cy="240.5" r="3" fill="#f97316" stroke="white" stroke-width="1"/>
  <circle cx="281.4" cy="234.0" r="3" fill="#f97316" stroke="white" stroke-width="1"/>
  <circle cx="329.3" cy="220.3" r="3" fill="#f97316" stroke="white" stroke-width="1"/>
  <circle cx="377.1" cy="203.3" r="3" fill="#f97316" stroke="white" stroke-width="1"/>
  <circle cx="425.0" cy="177.7" r="3" fill="#f97316" stroke="white" stroke-width="1"/>
  <circle cx="472.9" cy="154.3" r="3" fill="#f97316" stroke="white" stroke-width="1"/>
  <circle cx="520.7" cy="139.4" r="3" fill="#f97316" stroke="white" stroke-width="1"/>
  <circle cx="568.6" cy="139.4" r="3" fill="#f97316" stroke="white" stroke-width="1"/>
  <circle cx="616.4" cy="130.8" r="3" fill="#f97316" stroke="white" stroke-width="1"/>
  <circle cx="664.3" cy="133.0" r="3" fill="#f97316" stroke="white" stroke-width="1"/>
  <circle cx="712.1" cy="154.3" r="3" fill="#f97316" stroke="white" stroke-width="1"/>
  <circle cx="760.0" cy="145.8" r="3" fill="#f97316" stroke="white" stroke-width="1"/>
  <polyline points="90.0,245.4 137.9,243.5 185.7,240.3 233.6,234.6 281.4,226.7 329.3,220.3 377.1,205.4 425.0,188.4 472.9,169.2 520.7,156.4 568.6,137.2 616.4,130.8 664.3,130.8 712.1,154.3 760.0,69.1" fill="none" stroke="#dc2626" stroke-width="2.5" stroke-linecap="round" stroke-linejoin="round"/>
  <circle cx="90.0" cy="245.4" r="3" fill="#dc2626" stroke="white" stroke-width="1"/>
  <circle cx="137.9" cy="243.5" r="3" fill="#dc2626" stroke="white" stroke-width="1"/>
  <circle cx="185.7" cy="240.3" r="3" fill="#dc2626" stroke="white" stroke-width="1"/>
  <circle cx="233.6" cy="234.6" r="3" fill="#dc2626" stroke="white" stroke-width="1"/>
  <circle cx="281.4" cy="226.7" r="3" fill="#dc2626" stroke="white" stroke-width="1"/>
  <circle cx="329.3" cy="220.3" r="3" fill="#dc2626" stroke="white" stroke-width="1"/>
  <circle cx="377.1" cy="205.4" r="3" fill="#dc2626" stroke="white" stroke-width="1"/>
  <circle cx="425.0" cy="188.4" r="3" fill="#dc2626" stroke="white" stroke-width="1"/>
  <circle cx="472.9" cy="169.2" r="3" fill="#dc2626" stroke="white" stroke-width="1"/>
  <circle cx="520.7" cy="156.4" r="3" fill="#dc2626" stroke="white" stroke-width="1"/>
  <circle cx="568.6" cy="137.2" r="3" fill="#dc2626" stroke="white" stroke-width="1"/>
  <circle cx="616.4" cy="130.8" r="3" fill="#dc2626" stroke="white" stroke-width="1"/>
  <circle cx="664.3" cy="130.8" r="3" fill="#dc2626" stroke="white" stroke-width="1"/>
  <circle cx="712.1" cy="154.3" r="3" fill="#dc2626" stroke="white" stroke-width="1"/>
  <circle cx="760.0" cy="69.1" r="3" fill="#dc2626" stroke="white" stroke-width="1"/>
  <text x="90.0" y="262" text-anchor="middle" fill="#374151" font-size="8.5">8 B</text>
  <text x="137.9" y="262" text-anchor="middle" fill="#374151" font-size="8.5">16 B</text>
  <text x="185.7" y="262" text-anchor="middle" fill="#374151" font-size="8.5">32 B</text>
  <text x="233.6" y="262" text-anchor="middle" fill="#374151" font-size="8.5">64 B</text>
  <text x="281.4" y="262" text-anchor="middle" fill="#374151" font-size="8.5">128 B</text>
  <text x="329.3" y="262" text-anchor="middle" fill="#374151" font-size="8.5">256 B</text>
  <text x="377.1" y="262" text-anchor="middle" fill="#374151" font-size="8.5">512 B</text>
  <text x="425.0" y="262" text-anchor="middle" fill="#374151" font-size="8.5">1 KiB</text>
  <text x="472.9" y="262" text-anchor="middle" fill="#374151" font-size="8.5">2 KiB</text>
  <text x="520.7" y="262" text-anchor="middle" fill="#374151" font-size="8.5">4 KiB</text>
  <text x="568.6" y="262" text-anchor="middle" fill="#374151" font-size="8.5">8 KiB</text>
  <text x="616.4" y="262" text-anchor="middle" fill="#374151" font-size="8.5">16 KiB</text>
  <text x="664.3" y="262" text-anchor="middle" fill="#374151" font-size="8.5">32 KiB</text>
  <text x="712.1" y="262" text-anchor="middle" fill="#374151" font-size="8.5">64 KiB</text>
  <text x="760.0" y="262" text-anchor="middle" fill="#374151" font-size="8.5">128 KiB</text>
  <text x="425.0" y="288" text-anchor="middle" fill="#111827" font-size="13" font-weight="700">REQ/REP latency — 2-process, TCP loopback (p50 µs, lower is better)</text>
  <line x1="90" y1="437.3" x2="760" y2="437.3" stroke="#e5e7eb" stroke-width="1"/>
  <text x="82" y="437.3" text-anchor="end" dominant-baseline="middle" fill="#374151" font-size="10">25</text>
  <line x1="90" y1="410.7" x2="760" y2="410.7" stroke="#e5e7eb" stroke-width="1"/>
  <text x="82" y="410.7" text-anchor="end" dominant-baseline="middle" fill="#374151" font-size="10">50</text>
  <line x1="90" y1="384.0" x2="760" y2="384.0" stroke="#e5e7eb" stroke-width="1"/>
  <text x="82" y="384.0" text-anchor="end" dominant-baseline="middle" fill="#374151" font-size="10">75</text>
  <line x1="90" y1="357.3" x2="760" y2="357.3" stroke="#e5e7eb" stroke-width="1"/>
  <text x="82" y="357.3" text-anchor="end" dominant-baseline="middle" fill="#374151" font-size="10">100</text>
  <line x1="90" y1="330.7" x2="760" y2="330.7" stroke="#e5e7eb" stroke-width="1"/>
  <text x="82" y="330.7" text-anchor="end" dominant-baseline="middle" fill="#374151" font-size="10">125</text>
  <line x1="90" y1="304.0" x2="760" y2="304.0" stroke="#e5e7eb" stroke-width="1"/>
  <text x="82" y="304.0" text-anchor="end" dominant-baseline="middle" fill="#374151" font-size="10">150</text>
  <line x1="90.0" y1="304" x2="90.0" y2="464" stroke="#e5e7eb" stroke-width="1"/>
  <line x1="137.9" y1="304" x2="137.9" y2="464" stroke="#e5e7eb" stroke-width="1"/>
  <line x1="185.7" y1="304" x2="185.7" y2="464" stroke="#e5e7eb" stroke-width="1"/>
  <line x1="233.6" y1="304" x2="233.6" y2="464" stroke="#e5e7eb" stroke-width="1"/>
  <line x1="281.4" y1="304" x2="281.4" y2="464" stroke="#e5e7eb" stroke-width="1"/>
  <line x1="329.3" y1="304" x2="329.3" y2="464" stroke="#e5e7eb" stroke-width="1"/>
  <line x1="377.1" y1="304" x2="377.1" y2="464" stroke="#e5e7eb" stroke-width="1"/>
  <line x1="425.0" y1="304" x2="425.0" y2="464" stroke="#e5e7eb" stroke-width="1"/>
  <line x1="472.9" y1="304" x2="472.9" y2="464" stroke="#e5e7eb" stroke-width="1"/>
  <line x1="520.7" y1="304" x2="520.7" y2="464" stroke="#e5e7eb" stroke-width="1"/>
  <line x1="568.6" y1="304" x2="568.6" y2="464" stroke="#e5e7eb" stroke-width="1"/>
  <line x1="616.4" y1="304" x2="616.4" y2="464" stroke="#e5e7eb" stroke-width="1"/>
  <line x1="664.3" y1="304" x2="664.3" y2="464" stroke="#e5e7eb" stroke-width="1"/>
  <line x1="712.1" y1="304" x2="712.1" y2="464" stroke="#e5e7eb" stroke-width="1"/>
  <line x1="760.0" y1="304" x2="760.0" y2="464" stroke="#e5e7eb" stroke-width="1"/>
  <line x1="90" y1="304" x2="90" y2="464" stroke="#9ca3af" stroke-width="1.5"/>
  <line x1="90" y1="464" x2="760" y2="464" stroke="#9ca3af" stroke-width="1.5"/>
  <text x="40" y="384.0" text-anchor="middle" dominant-baseline="middle" fill="#374151" font-size="10" font-weight="600" transform="rotate(-90,40,384.0)">p50 latency (µs)</text>
  <polyline points="90.0,391.8 137.9,394.5 185.7,392.6 233.6,389.3 281.4,393.0 329.3,390.2 377.1,387.9 425.0,389.3 472.9,392.4 520.7,389.0 568.6,378.7 616.4,374.7 664.3,358.9 712.1,344.5 760.0,323.2" fill="none" stroke="#eab308" stroke-width="2.5" stroke-linecap="round" stroke-linejoin="round"/>
  <circle cx="90.0" cy="391.8" r="3" fill="#eab308" stroke="white" stroke-width="1"/>
  <circle cx="137.9" cy="394.5" r="3" fill="#eab308" stroke="white" stroke-width="1"/>
  <circle cx="185.7" cy="392.6" r="3" fill="#eab308" stroke="white" stroke-width="1"/>
  <circle cx="233.6" cy="389.3" r="3" fill="#eab308" stroke="white" stroke-width="1"/>
  <circle cx="281.4" cy="393.0" r="3" fill="#eab308" stroke="white" stroke-width="1"/>
  <circle cx="329.3" cy="390.2" r="3" fill="#eab308" stroke="white" stroke-width="1"/>
  <circle cx="377.1" cy="387.9" r="3" fill="#eab308" stroke="white" stroke-width="1"/>
  <circle cx="425.0" cy="389.3" r="3" fill="#eab308" stroke="white" stroke-width="1"/>
  <circle cx="472.9" cy="392.4" r="3" fill="#eab308" stroke="white" stroke-width="1"/>
  <circle cx="520.7" cy="389.0" r="3" fill="#eab308" stroke="white" stroke-width="1"/>
  <circle cx="568.6" cy="378.7" r="3" fill="#eab308" stroke="white" stroke-width="1"/>
  <circle cx="616.4" cy="374.7" r="3" fill="#eab308" stroke="white" stroke-width="1"/>
  <circle cx="664.3" cy="358.9" r="3" fill="#eab308" stroke="white" stroke-width="1"/>
  <circle cx="712.1" cy="344.5" r="3" fill="#eab308" stroke="white" stroke-width="1"/>
  <circle cx="760.0" cy="323.2" r="3" fill="#eab308" stroke="white" stroke-width="1"/>
  <polyline points="90.0,371.4 137.9,382.0 185.7,376.2 233.6,379.4 281.4,380.7 329.3,378.7 377.1,383.5 425.0,380.3 472.9,380.9 520.7,376.9 568.6,376.3 616.4,371.5 664.3,365.3 712.1,333.9 760.0,321.1" fill="none" stroke="#f97316" stroke-width="2.5" stroke-linecap="round" stroke-linejoin="round"/>
  <circle cx="90.0" cy="371.4" r="3" fill="#f97316" stroke="white" stroke-width="1"/>
  <circle cx="137.9" cy="382.0" r="3" fill="#f97316" stroke="white" stroke-width="1"/>
  <circle cx="185.7" cy="376.2" r="3" fill="#f97316" stroke="white" stroke-width="1"/>
  <circle cx="233.6" cy="379.4" r="3" fill="#f97316" stroke="white" stroke-width="1"/>
  <circle cx="281.4" cy="380.7" r="3" fill="#f97316" stroke="white" stroke-width="1"/>
  <circle cx="329.3" cy="378.7" r="3" fill="#f97316" stroke="white" stroke-width="1"/>
  <circle cx="377.1" cy="383.5" r="3" fill="#f97316" stroke="white" stroke-width="1"/>
  <circle cx="425.0" cy="380.3" r="3" fill="#f97316" stroke="white" stroke-width="1"/>
  <circle cx="472.9" cy="380.9" r="3" fill="#f97316" stroke="white" stroke-width="1"/>
  <circle cx="520.7" cy="376.9" r="3" fill="#f97316" stroke="white" stroke-width="1"/>
  <circle cx="568.6" cy="376.3" r="3" fill="#f97316" stroke="white" stroke-width="1"/>
  <circle cx="616.4" cy="371.5" r="3" fill="#f97316" stroke="white" stroke-width="1"/>
  <circle cx="664.3" cy="365.3" r="3" fill="#f97316" stroke="white" stroke-width="1"/>
  <circle cx="712.1" cy="333.9" r="3" fill="#f97316" stroke="white" stroke-width="1"/>
  <circle cx="760.0" cy="321.1" r="3" fill="#f97316" stroke="white" stroke-width="1"/>
  <polyline points="90.0,421.7 137.9,423.1 185.7,419.4 233.6,422.5 281.4,423.0 329.3,423.6 377.1,423.0 425.0,423.8 472.9,422.3 520.7,421.5 568.6,418.1 616.4,411.7 664.3,400.9 712.1,382.1 760.0,353.1" fill="none" stroke="#2563eb" stroke-width="2.5" stroke-linecap="round" stroke-linejoin="round"/>
  <circle cx="90.0" cy="421.7" r="3" fill="#2563eb" stroke="white" stroke-width="1"/>
  <circle cx="137.9" cy="423.1" r="3" fill="#2563eb" stroke="white" stroke-width="1"/>
  <circle cx="185.7" cy="419.4" r="3" fill="#2563eb" stroke="white" stroke-width="1"/>
  <circle cx="233.6" cy="422.5" r="3" fill="#2563eb" stroke="white" stroke-width="1"/>
  <circle cx="281.4" cy="423.0" r="3" fill="#2563eb" stroke="white" stroke-width="1"/>
  <circle cx="329.3" cy="423.6" r="3" fill="#2563eb" stroke="white" stroke-width="1"/>
  <circle cx="377.1" cy="423.0" r="3" fill="#2563eb" stroke="white" stroke-width="1"/>
  <circle cx="425.0" cy="423.8" r="3" fill="#2563eb" stroke="white" stroke-width="1"/>
  <circle cx="472.9" cy="422.3" r="3" fill="#2563eb" stroke="white" stroke-width="1"/>
  <circle cx="520.7" cy="421.5" r="3" fill="#2563eb" stroke="white" stroke-width="1"/>
  <circle cx="568.6" cy="418.1" r="3" fill="#2563eb" stroke="white" stroke-width="1"/>
  <circle cx="616.4" cy="411.7" r="3" fill="#2563eb" stroke="white" stroke-width="1"/>
  <circle cx="664.3" cy="400.9" r="3" fill="#2563eb" stroke="white" stroke-width="1"/>
  <circle cx="712.1" cy="382.1" r="3" fill="#2563eb" stroke="white" stroke-width="1"/>
  <circle cx="760.0" cy="353.1" r="3" fill="#2563eb" stroke="white" stroke-width="1"/>
  <polyline points="90.0,426.0 137.9,426.9 185.7,426.2 233.6,425.7 281.4,425.9 329.3,424.0 377.1,425.7 425.0,426.0 472.9,424.2 520.7,422.2 568.6,419.9 616.4,417.6 664.3,413.8 712.1,394.0 760.0,313.6" fill="none" stroke="#dc2626" stroke-width="2.5" stroke-linecap="round" stroke-linejoin="round"/>
  <circle cx="90.0" cy="426.0" r="3" fill="#dc2626" stroke="white" stroke-width="1"/>
  <circle cx="137.9" cy="426.9" r="3" fill="#dc2626" stroke="white" stroke-width="1"/>
  <circle cx="185.7" cy="426.2" r="3" fill="#dc2626" stroke="white" stroke-width="1"/>
  <circle cx="233.6" cy="425.7" r="3" fill="#dc2626" stroke="white" stroke-width="1"/>
  <circle cx="281.4" cy="425.9" r="3" fill="#dc2626" stroke="white" stroke-width="1"/>
  <circle cx="329.3" cy="424.0" r="3" fill="#dc2626" stroke="white" stroke-width="1"/>
  <circle cx="377.1" cy="425.7" r="3" fill="#dc2626" stroke="white" stroke-width="1"/>
  <circle cx="425.0" cy="426.0" r="3" fill="#dc2626" stroke="white" stroke-width="1"/>
  <circle cx="472.9" cy="424.2" r="3" fill="#dc2626" stroke="white" stroke-width="1"/>
  <circle cx="520.7" cy="422.2" r="3" fill="#dc2626" stroke="white" stroke-width="1"/>
  <circle cx="568.6" cy="419.9" r="3" fill="#dc2626" stroke="white" stroke-width="1"/>
  <circle cx="616.4" cy="417.6" r="3" fill="#dc2626" stroke="white" stroke-width="1"/>
  <circle cx="664.3" cy="413.8" r="3" fill="#dc2626" stroke="white" stroke-width="1"/>
  <circle cx="712.1" cy="394.0" r="3" fill="#dc2626" stroke="white" stroke-width="1"/>
  <circle cx="760.0" cy="313.6" r="3" fill="#dc2626" stroke="white" stroke-width="1"/>
  <text x="90.0" y="478" text-anchor="middle" fill="#374151" font-size="8.5">8 B</text>
  <text x="137.9" y="478" text-anchor="middle" fill="#374151" font-size="8.5">16 B</text>
  <text x="185.7" y="478" text-anchor="middle" fill="#374151" font-size="8.5">32 B</text>
  <text x="233.6" y="478" text-anchor="middle" fill="#374151" font-size="8.5">64 B</text>
  <text x="281.4" y="478" text-anchor="middle" fill="#374151" font-size="8.5">128 B</text>
  <text x="329.3" y="478" text-anchor="middle" fill="#374151" font-size="8.5">256 B</text>
  <text x="377.1" y="478" text-anchor="middle" fill="#374151" font-size="8.5">512 B</text>
  <text x="425.0" y="478" text-anchor="middle" fill="#374151" font-size="8.5">1 KiB</text>
  <text x="472.9" y="478" text-anchor="middle" fill="#374151" font-size="8.5">2 KiB</text>
  <text x="520.7" y="478" text-anchor="middle" fill="#374151" font-size="8.5">4 KiB</text>
  <text x="568.6" y="478" text-anchor="middle" fill="#374151" font-size="8.5">8 KiB</text>
  <text x="616.4" y="478" text-anchor="middle" fill="#374151" font-size="8.5">16 KiB</text>
  <text x="664.3" y="478" text-anchor="middle" fill="#374151" font-size="8.5">32 KiB</text>
  <text x="712.1" y="478" text-anchor="middle" fill="#374151" font-size="8.5">64 KiB</text>
  <text x="760.0" y="478" text-anchor="middle" fill="#374151" font-size="8.5">128 KiB</text>
  <line x1="145" y1="504" x2="159" y2="504" stroke="#eab308" stroke-width="2.5"/>
  <circle cx="152" cy="504" r="2.5" fill="#eab308"/>
  <text x="165" y="508" fill="#374151" font-size="11" font-weight="500">libzmq</text>
  <line x1="285" y1="504" x2="299" y2="504" stroke="#dc2626" stroke-width="2.5"/>
  <circle cx="292" cy="504" r="2.5" fill="#dc2626"/>
  <text x="305" y="508" fill="#374151" font-size="11" font-weight="500">omq-compio</text>
  <line x1="425" y1="504" x2="439" y2="504" stroke="#f97316" stroke-width="2.5"/>
  <circle cx="432" cy="504" r="2.5" fill="#f97316"/>
  <text x="445" y="508" fill="#374151" font-size="11" font-weight="500">omq-tokio</text>
  <line x1="565" y1="504" x2="579" y2="504" stroke="#2563eb" stroke-width="2.5"/>
  <circle cx="572" cy="504" r="2.5" fill="#2563eb"/>
  <text x="585" y="508" fill="#374151" font-size="11" font-weight="500">zmq.rs</text>
</svg>
