<svg xmlns="http://www.w3.org/2000/svg" viewBox="0 0 850 440" font-family="system-ui,-apple-system,sans-serif" font-size="11">
<rect width="850" height="440" fill="#fff"/>
<text x="425" y="22" text-anchor="middle" font-size="14" font-weight="bold">REQ/REP latency: pyomq vs pyzmq, TCP loopback (p50)</text>
<line x1="80" y1="370.0" x2="820" y2="370.0" stroke="#e5e7eb" stroke-width="0.5"/>
<text x="72" y="370.0" text-anchor="end" dominant-baseline="middle" font-size="10" fill="#6b7280">10 µs</text>
<line x1="80" y1="207.5" x2="820" y2="207.5" stroke="#e5e7eb" stroke-width="0.5"/>
<text x="72" y="207.5" text-anchor="end" dominant-baseline="middle" font-size="10" fill="#6b7280">100 µs</text>
<line x1="80" y1="45.0" x2="820" y2="45.0" stroke="#e5e7eb" stroke-width="0.5"/>
<text x="72" y="45.0" text-anchor="end" dominant-baseline="middle" font-size="10" fill="#6b7280">1 ms</text>
<rect x="103.1" y="241.5" width="23.1" height="128.5" fill="#dc2626" opacity="0.85"/>
<text x="114.7" y="238.5" text-anchor="middle" font-size="9" fill="#374151">62</text>
<rect x="126.2" y="232.3" width="23.1" height="137.7" fill="#2563eb" opacity="0.85"/>
<text x="137.8" y="229.3" text-anchor="middle" font-size="9" fill="#374151">70</text>
<text x="126.2" y="386" text-anchor="middle" font-size="10" fill="#374151">8 B</text>
<rect x="195.6" y="240.1" width="23.1" height="129.9" fill="#dc2626" opacity="0.85"/>
<text x="207.2" y="237.1" text-anchor="middle" font-size="9" fill="#374151">63</text>
<rect x="218.8" y="230.3" width="23.1" height="139.7" fill="#2563eb" opacity="0.85"/>
<text x="230.3" y="227.3" text-anchor="middle" font-size="9" fill="#374151">72</text>
<text x="218.8" y="386" text-anchor="middle" font-size="10" fill="#374151">32 B</text>
<rect x="288.1" y="240.7" width="23.1" height="129.3" fill="#dc2626" opacity="0.85"/>
<text x="299.7" y="237.7" text-anchor="middle" font-size="9" fill="#374151">62</text>
<rect x="311.2" y="229.7" width="23.1" height="140.3" fill="#2563eb" opacity="0.85"/>
<text x="322.8" y="226.7" text-anchor="middle" font-size="9" fill="#374151">73</text>
<text x="311.2" y="386" text-anchor="middle" font-size="10" fill="#374151">128 B</text>
<rect x="380.6" y="241.1" width="23.1" height="128.9" fill="#dc2626" opacity="0.85"/>
<text x="392.2" y="238.1" text-anchor="middle" font-size="9" fill="#374151">62</text>
<rect x="403.8" y="231.0" width="23.1" height="139.0" fill="#2563eb" opacity="0.85"/>
<text x="415.3" y="228.0" text-anchor="middle" font-size="9" fill="#374151">72</text>
<text x="403.8" y="386" text-anchor="middle" font-size="10" fill="#374151">512 B</text>
<rect x="473.1" y="236.9" width="23.1" height="133.1" fill="#dc2626" opacity="0.85"/>
<text x="484.7" y="233.9" text-anchor="middle" font-size="9" fill="#374151">66</text>
<rect x="496.2" y="228.4" width="23.1" height="141.6" fill="#2563eb" opacity="0.85"/>
<text x="507.8" y="225.4" text-anchor="middle" font-size="9" fill="#374151">74</text>
<text x="496.2" y="386" text-anchor="middle" font-size="10" fill="#374151">2 KiB</text>
<rect x="565.6" y="233.8" width="23.1" height="136.2" fill="#dc2626" opacity="0.85"/>
<text x="577.2" y="230.8" text-anchor="middle" font-size="9" fill="#374151">69</text>
<rect x="588.8" y="214.9" width="23.1" height="155.1" fill="#2563eb" opacity="0.85"/>
<text x="600.3" y="211.9" text-anchor="middle" font-size="9" fill="#374151">90</text>
<text x="588.8" y="386" text-anchor="middle" font-size="10" fill="#374151">8 KiB</text>
<rect x="658.1" y="222.6" width="23.1" height="147.4" fill="#dc2626" opacity="0.85"/>
<text x="669.7" y="219.6" text-anchor="middle" font-size="9" fill="#374151">81</text>
<rect x="681.2" y="204.7" width="23.1" height="165.3" fill="#2563eb" opacity="0.85"/>
<text x="692.8" y="201.7" text-anchor="middle" font-size="9" fill="#374151">104</text>
<text x="681.2" y="386" text-anchor="middle" font-size="10" fill="#374151">32 KiB</text>
<rect x="750.6" y="181.3" width="23.1" height="188.7" fill="#dc2626" opacity="0.85"/>
<text x="762.2" y="178.3" text-anchor="middle" font-size="9" fill="#374151">145</text>
<rect x="773.8" y="182.3" width="23.1" height="187.7" fill="#2563eb" opacity="0.85"/>
<text x="785.3" y="179.3" text-anchor="middle" font-size="9" fill="#374151">143</text>
<text x="773.8" y="386" text-anchor="middle" font-size="10" fill="#374151">128 KiB</text>
<line x1="80" y1="45" x2="80" y2="370" stroke="#374151" stroke-width="1"/>
<line x1="80" y1="370" x2="820" y2="370" stroke="#374151" stroke-width="1"/>
<text x="14" y="207" text-anchor="middle" font-size="11" fill="#374151" transform="rotate(-90 14 207)">p50 latency (µs, log)</text>
<rect x="90" y="55" width="12" height="12" fill="#dc2626"/>
<text x="106" y="65" font-size="10" fill="#374151">pyomq</text>
<rect x="90" y="73" width="12" height="12" fill="#2563eb"/>
<text x="106" y="83" font-size="10" fill="#374151">pyzmq</text>
</svg>