<svg xmlns="http://www.w3.org/2000/svg" viewBox="0 0 850 600" font-family="system-ui, -apple-system, sans-serif">
  <rect width="850" height="600" fill="white"/>
  <text x="425.0" y="18" text-anchor="middle" fill="#111827" font-size="13" font-weight="700">PUSH/PULL throughput — 2-process, TCP loopback (higher is better)</text>
  <line x1="90" y1="218.8" x2="760" y2="218.8" stroke="#e5e7eb" stroke-width="1"/>
  <text x="82" y="218.8" text-anchor="end" dominant-baseline="middle" fill="#374151" font-size="10">4M</text>
  <line x1="90" y1="157.5" x2="760" y2="157.5" stroke="#e5e7eb" stroke-width="1"/>
  <text x="82" y="157.5" text-anchor="end" dominant-baseline="middle" fill="#374151" font-size="10">8M</text>
  <line x1="90" y1="96.2" x2="760" y2="96.2" stroke="#e5e7eb" stroke-width="1"/>
  <text x="82" y="96.2" text-anchor="end" dominant-baseline="middle" fill="#374151" font-size="10">12M</text>
  <line x1="90" y1="35.0" x2="760" y2="35.0" stroke="#e5e7eb" stroke-width="1"/>
  <text x="82" y="35.0" text-anchor="end" dominant-baseline="middle" fill="#374151" font-size="10">16M</text>
  <line x1="90.0" y1="35" x2="90.0" y2="280" stroke="#e5e7eb" stroke-width="1"/>
  <line x1="137.9" y1="35" x2="137.9" y2="280" stroke="#e5e7eb" stroke-width="1"/>
  <line x1="185.7" y1="35" x2="185.7" y2="280" stroke="#e5e7eb" stroke-width="1"/>
  <line x1="233.6" y1="35" x2="233.6" y2="280" stroke="#e5e7eb" stroke-width="1"/>
  <line x1="281.4" y1="35" x2="281.4" y2="280" stroke="#e5e7eb" stroke-width="1"/>
  <line x1="329.3" y1="35" x2="329.3" y2="280" stroke="#e5e7eb" stroke-width="1"/>
  <line x1="377.1" y1="35" x2="377.1" y2="280" stroke="#e5e7eb" stroke-width="1"/>
  <line x1="425.0" y1="35" x2="425.0" y2="280" stroke="#e5e7eb" stroke-width="1"/>
  <line x1="472.9" y1="35" x2="472.9" y2="280" stroke="#e5e7eb" stroke-width="1"/>
  <line x1="520.7" y1="35" x2="520.7" y2="280" stroke="#e5e7eb" stroke-width="1"/>
  <line x1="568.6" y1="35" x2="568.6" y2="280" stroke="#e5e7eb" stroke-width="1"/>
  <line x1="616.4" y1="35" x2="616.4" y2="280" stroke="#e5e7eb" stroke-width="1"/>
  <line x1="664.3" y1="35" x2="664.3" y2="280" stroke="#e5e7eb" stroke-width="1"/>
  <line x1="712.1" y1="35" x2="712.1" y2="280" stroke="#e5e7eb" stroke-width="1"/>
  <line x1="760.0" y1="35" x2="760.0" y2="280" stroke="#e5e7eb" stroke-width="1"/>
  <line x1="90" y1="231.0" x2="760" y2="231.0" stroke="#e5e7eb" stroke-width="1" stroke-dasharray="3,6"/>
  <text x="768" y="231.0" text-anchor="start" dominant-baseline="middle" fill="#6b7280" font-size="10">2 GB/s</text>
  <line x1="90" y1="182.0" x2="760" y2="182.0" stroke="#e5e7eb" stroke-width="1" stroke-dasharray="3,6"/>
  <text x="768" y="182.0" text-anchor="start" dominant-baseline="middle" fill="#6b7280" font-size="10">4 GB/s</text>
  <line x1="90" y1="133.0" x2="760" y2="133.0" stroke="#e5e7eb" stroke-width="1" stroke-dasharray="3,6"/>
  <text x="768" y="133.0" text-anchor="start" dominant-baseline="middle" fill="#6b7280" font-size="10">6 GB/s</text>
  <line x1="90" y1="84.0" x2="760" y2="84.0" stroke="#e5e7eb" stroke-width="1" stroke-dasharray="3,6"/>
  <text x="768" y="84.0" text-anchor="start" dominant-baseline="middle" fill="#6b7280" font-size="10">8 GB/s</text>
  <line x1="90" y1="35.0" x2="760" y2="35.0" stroke="#e5e7eb" stroke-width="1" stroke-dasharray="3,6"/>
  <text x="768" y="35.0" text-anchor="start" dominant-baseline="middle" fill="#6b7280" font-size="10">10 GB/s</text>
  <line x1="90" y1="35" x2="90" y2="280" stroke="#9ca3af" stroke-width="1.5"/>
  <line x1="760" y1="35" x2="760" y2="280" stroke="#9ca3af" stroke-width="1.5"/>
  <line x1="90" y1="280" x2="760" y2="280" stroke="#9ca3af" stroke-width="1.5"/>
  <text x="40" y="157.5" text-anchor="middle" dominant-baseline="middle" fill="#374151" font-size="10" font-weight="600" transform="rotate(-90,40,157.5)">msg/s</text>
  <text x="812" y="157.5" text-anchor="middle" dominant-baseline="middle" fill="#6b7280" font-size="10" font-weight="600" transform="rotate(90,812,157.5)">throughput</text>
  <polyline points="90.0,273.2 137.9,273.7 185.7,274.1 233.6,274.6 281.4,274.8 329.3,274.8 377.1,275.1 425.0,275.3 472.9,275.4 520.7,275.9 568.6,276.5 616.4,277.1 664.3,278.0 712.1,279.0 760.0,279.5" fill="none" stroke="#2563eb" stroke-width="2" stroke-dasharray="6,4"/>
  <polyline points="90.0,164.1 137.9,145.1 185.7,162.1 233.6,193.6 281.4,238.0 329.3,239.4 377.1,248.9 425.0,262.2 472.9,269.8 520.7,274.3 568.6,277.2 616.4,278.6 664.3,278.9 712.1,279.2 760.0,279.5" fill="none" stroke="#eab308" stroke-width="2" stroke-dasharray="6,4"/>
  <polyline points="90.0,165.6 137.9,168.4 185.7,198.4 233.6,194.1 281.4,199.5 329.3,203.9 377.1,218.4 425.0,230.1 472.9,246.9 520.7,261.0 568.6,270.4 616.4,274.8 664.3,277.5 712.1,279.0 760.0,279.4" fill="none" stroke="#f97316" stroke-width="2" stroke-dasharray="6,4"/>
  <polyline points="90.0,45.3 137.9,71.8 185.7,102.7 233.6,126.4 281.4,159.5 329.3,202.5 377.1,218.9 425.0,238.3 472.9,252.1 520.7,264.1 568.6,270.4 616.4,274.9 664.3,277.4 712.1,279.0 760.0,279.0" fill="none" stroke="#dc2626" stroke-width="2" stroke-dasharray="6,4"/>
  <polyline points="90.0,279.9 137.9,279.8 185.7,279.7 233.6,279.5 281.4,278.9 329.3,277.9 377.1,276.1 425.0,272.4 472.9,265.3 520.7,253.1 568.6,235.9 616.4,204.1 664.3,174.7 712.1,177.1 760.0,179.6" fill="none" stroke="#2563eb" stroke-width="2.5" stroke-linecap="round" stroke-linejoin="round"/>
  <circle cx="90.0" cy="279.9" r="3" fill="#2563eb" stroke="white" stroke-width="1"/>
  <circle cx="137.9" cy="279.8" r="3" fill="#2563eb" stroke="white" stroke-width="1"/>
  <circle cx="185.7" cy="279.7" r="3" fill="#2563eb" stroke="white" stroke-width="1"/>
  <circle cx="233.6" cy="279.5" r="3" fill="#2563eb" stroke="white" stroke-width="1"/>
  <circle cx="281.4" cy="278.9" r="3" fill="#2563eb" stroke="white" stroke-width="1"/>
  <circle cx="329.3" cy="277.9" r="3" fill="#2563eb" stroke="white" stroke-width="1"/>
  <circle cx="377.1" cy="276.1" r="3" fill="#2563eb" stroke="white" stroke-width="1"/>
  <circle cx="425.0" cy="272.4" r="3" fill="#2563eb" stroke="white" stroke-width="1"/>
  <circle cx="472.9" cy="265.3" r="3" fill="#2563eb" stroke="white" stroke-width="1"/>
  <circle cx="520.7" cy="253.1" r="3" fill="#2563eb" stroke="white" stroke-width="1"/>
  <circle cx="568.6" cy="235.9" r="3" fill="#2563eb" stroke="white" stroke-width="1"/>
  <circle cx="616.4" cy="204.1" r="3" fill="#2563eb" stroke="white" stroke-width="1"/>
  <circle cx="664.3" cy="174.7" r="3" fill="#2563eb" stroke="white" stroke-width="1"/>
  <circle cx="712.1" cy="177.1" r="3" fill="#2563eb" stroke="white" stroke-width="1"/>
  <circle cx="760.0" cy="179.6" r="3" fill="#2563eb" stroke="white" stroke-width="1"/>
  <polyline points="90.0,278.5 137.9,276.6 185.7,274.1 233.6,271.4 281.4,271.6 329.3,263.8 377.1,255.5 425.0,250.6 472.9,245.7 520.7,243.2 568.6,243.2 616.4,243.2 664.3,221.2 712.1,194.2 760.0,174.7" fill="none" stroke="#eab308" stroke-width="2.5" stroke-linecap="round" stroke-linejoin="round"/>
  <circle cx="90.0" cy="278.5" r="3" fill="#eab308" stroke="white" stroke-width="1"/>
  <circle cx="137.9" cy="276.6" r="3" fill="#eab308" stroke="white" stroke-width="1"/>
  <circle cx="185.7" cy="274.1" r="3" fill="#eab308" stroke="white" stroke-width="1"/>
  <circle cx="233.6" cy="271.4" r="3" fill="#eab308" stroke="white" stroke-width="1"/>
  <circle cx="281.4" cy="271.6" r="3" fill="#eab308" stroke="white" stroke-width="1"/>
  <circle cx="329.3" cy="263.8" r="3" fill="#eab308" stroke="white" stroke-width="1"/>
  <circle cx="377.1" cy="255.5" r="3" fill="#eab308" stroke="white" stroke-width="1"/>
  <circle cx="425.0" cy="250.6" r="3" fill="#eab308" stroke="white" stroke-width="1"/>
  <circle cx="472.9" cy="245.7" r="3" fill="#eab308" stroke="white" stroke-width="1"/>
  <circle cx="520.7" cy="243.2" r="3" fill="#eab308" stroke="white" stroke-width="1"/>
  <circle cx="568.6" cy="243.2" r="3" fill="#eab308" stroke="white" stroke-width="1"/>
  <circle cx="616.4" cy="243.2" r="3" fill="#eab308" stroke="white" stroke-width="1"/>
  <circle cx="664.3" cy="221.2" r="3" fill="#eab308" stroke="white" stroke-width="1"/>
  <circle cx="712.1" cy="194.2" r="3" fill="#eab308" stroke="white" stroke-width="1"/>
  <circle cx="760.0" cy="174.7" r="3" fill="#eab308" stroke="white" stroke-width="1"/>
  <polyline points="90.0,278.6 137.9,277.2 185.7,275.9 233.6,271.4 281.4,263.9 329.3,248.2 377.1,228.6 425.0,199.2 472.9,172.2 520.7,155.1 568.6,155.1 616.4,145.2 664.3,147.7 712.1,172.2 760.0,162.4" fill="none" stroke="#f97316" stroke-width="2.5" stroke-linecap="round" stroke-linejoin="round"/>
  <circle cx="90.0" cy="278.6" r="3" fill="#f97316" stroke="white" stroke-width="1"/>
  <circle cx="137.9" cy="277.2" r="3" fill="#f97316" stroke="white" stroke-width="1"/>
  <circle cx="185.7" cy="275.9" r="3" fill="#f97316" stroke="white" stroke-width="1"/>
  <circle cx="233.6" cy="271.4" r="3" fill="#f97316" stroke="white" stroke-width="1"/>
  <circle cx="281.4" cy="263.9" r="3" fill="#f97316" stroke="white" stroke-width="1"/>
  <circle cx="329.3" cy="248.2" r="3" fill="#f97316" stroke="white" stroke-width="1"/>
  <circle cx="377.1" cy="228.6" r="3" fill="#f97316" stroke="white" stroke-width="1"/>
  <circle cx="425.0" cy="199.2" r="3" fill="#f97316" stroke="white" stroke-width="1"/>
  <circle cx="472.9" cy="172.2" r="3" fill="#f97316" stroke="white" stroke-width="1"/>
  <circle cx="520.7" cy="155.1" r="3" fill="#f97316" stroke="white" stroke-width="1"/>
  <circle cx="568.6" cy="155.1" r="3" fill="#f97316" stroke="white" stroke-width="1"/>
  <circle cx="616.4" cy="145.2" r="3" fill="#f97316" stroke="white" stroke-width="1"/>
  <circle cx="664.3" cy="147.7" r="3" fill="#f97316" stroke="white" stroke-width="1"/>
  <circle cx="712.1" cy="172.2" r="3" fill="#f97316" stroke="white" stroke-width="1"/>
  <circle cx="760.0" cy="162.4" r="3" fill="#f97316" stroke="white" stroke-width="1"/>
  <polyline points="90.0,277.1 137.9,274.8 185.7,271.1 233.6,264.6 281.4,255.5 329.3,248.2 377.1,231.0 425.0,211.4 472.9,189.3 520.7,174.7 568.6,152.6 616.4,145.2 664.3,145.2 712.1,172.2 760.0,74.2" fill="none" stroke="#dc2626" stroke-width="2.5" stroke-linecap="round" stroke-linejoin="round"/>
  <circle cx="90.0" cy="277.1" r="3" fill="#dc2626" stroke="white" stroke-width="1"/>
  <circle cx="137.9" cy="274.8" r="3" fill="#dc2626" stroke="white" stroke-width="1"/>
  <circle cx="185.7" cy="271.1" r="3" fill="#dc2626" stroke="white" stroke-width="1"/>
  <circle cx="233.6" cy="264.6" r="3" fill="#dc2626" stroke="white" stroke-width="1"/>
  <circle cx="281.4" cy="255.5" r="3" fill="#dc2626" stroke="white" stroke-width="1"/>
  <circle cx="329.3" cy="248.2" r="3" fill="#dc2626" stroke="white" stroke-width="1"/>
  <circle cx="377.1" cy="231.0" r="3" fill="#dc2626" stroke="white" stroke-width="1"/>
  <circle cx="425.0" cy="211.4" r="3" fill="#dc2626" stroke="white" stroke-width="1"/>
  <circle cx="472.9" cy="189.3" r="3" fill="#dc2626" stroke="white" stroke-width="1"/>
  <circle cx="520.7" cy="174.7" r="3" fill="#dc2626" stroke="white" stroke-width="1"/>
  <circle cx="568.6" cy="152.6" r="3" fill="#dc2626" stroke="white" stroke-width="1"/>
  <circle cx="616.4" cy="145.2" r="3" fill="#dc2626" stroke="white" stroke-width="1"/>
  <circle cx="664.3" cy="145.2" r="3" fill="#dc2626" stroke="white" stroke-width="1"/>
  <circle cx="712.1" cy="172.2" r="3" fill="#dc2626" stroke="white" stroke-width="1"/>
  <circle cx="760.0" cy="74.2" r="3" fill="#dc2626" stroke="white" stroke-width="1"/>
  <text x="90.0" y="294" text-anchor="middle" fill="#374151" font-size="8.5">8 B</text>
  <text x="137.9" y="294" text-anchor="middle" fill="#374151" font-size="8.5">16 B</text>
  <text x="185.7" y="294" text-anchor="middle" fill="#374151" font-size="8.5">32 B</text>
  <text x="233.6" y="294" text-anchor="middle" fill="#374151" font-size="8.5">64 B</text>
  <text x="281.4" y="294" text-anchor="middle" fill="#374151" font-size="8.5">128 B</text>
  <text x="329.3" y="294" text-anchor="middle" fill="#374151" font-size="8.5">256 B</text>
  <text x="377.1" y="294" text-anchor="middle" fill="#374151" font-size="8.5">512 B</text>
  <text x="425.0" y="294" text-anchor="middle" fill="#374151" font-size="8.5">1 KiB</text>
  <text x="472.9" y="294" text-anchor="middle" fill="#374151" font-size="8.5">2 KiB</text>
  <text x="520.7" y="294" text-anchor="middle" fill="#374151" font-size="8.5">4 KiB</text>
  <text x="568.6" y="294" text-anchor="middle" fill="#374151" font-size="8.5">8 KiB</text>
  <text x="616.4" y="294" text-anchor="middle" fill="#374151" font-size="8.5">16 KiB</text>
  <text x="664.3" y="294" text-anchor="middle" fill="#374151" font-size="8.5">32 KiB</text>
  <text x="712.1" y="294" text-anchor="middle" fill="#374151" font-size="8.5">64 KiB</text>
  <text x="760.0" y="294" text-anchor="middle" fill="#374151" font-size="8.5">128 KiB</text>
  <text x="425.0" y="320" text-anchor="middle" fill="#111827" font-size="13" font-weight="700">REQ/REP latency — 2-process, TCP loopback (p50 µs, lower is better)</text>
  <line x1="90" y1="490.0" x2="760" y2="490.0" stroke="#e5e7eb" stroke-width="1"/>
  <text x="82" y="490.0" text-anchor="end" dominant-baseline="middle" fill="#374151" font-size="10">25</text>
  <line x1="90" y1="460.0" x2="760" y2="460.0" stroke="#e5e7eb" stroke-width="1"/>
  <text x="82" y="460.0" text-anchor="end" dominant-baseline="middle" fill="#374151" font-size="10">50</text>
  <line x1="90" y1="430.0" x2="760" y2="430.0" stroke="#e5e7eb" stroke-width="1"/>
  <text x="82" y="430.0" text-anchor="end" dominant-baseline="middle" fill="#374151" font-size="10">75</text>
  <line x1="90" y1="400.0" x2="760" y2="400.0" stroke="#e5e7eb" stroke-width="1"/>
  <text x="82" y="400.0" text-anchor="end" dominant-baseline="middle" fill="#374151" font-size="10">100</text>
  <line x1="90" y1="370.0" x2="760" y2="370.0" stroke="#e5e7eb" stroke-width="1"/>
  <text x="82" y="370.0" text-anchor="end" dominant-baseline="middle" fill="#374151" font-size="10">125</text>
  <line x1="90" y1="340.0" x2="760" y2="340.0" stroke="#e5e7eb" stroke-width="1"/>
  <text x="82" y="340.0" text-anchor="end" dominant-baseline="middle" fill="#374151" font-size="10">150</text>
  <line x1="90.0" y1="340" x2="90.0" y2="520" stroke="#e5e7eb" stroke-width="1"/>
  <line x1="137.9" y1="340" x2="137.9" y2="520" stroke="#e5e7eb" stroke-width="1"/>
  <line x1="185.7" y1="340" x2="185.7" y2="520" stroke="#e5e7eb" stroke-width="1"/>
  <line x1="233.6" y1="340" x2="233.6" y2="520" stroke="#e5e7eb" stroke-width="1"/>
  <line x1="281.4" y1="340" x2="281.4" y2="520" stroke="#e5e7eb" stroke-width="1"/>
  <line x1="329.3" y1="340" x2="329.3" y2="520" stroke="#e5e7eb" stroke-width="1"/>
  <line x1="377.1" y1="340" x2="377.1" y2="520" stroke="#e5e7eb" stroke-width="1"/>
  <line x1="425.0" y1="340" x2="425.0" y2="520" stroke="#e5e7eb" stroke-width="1"/>
  <line x1="472.9" y1="340" x2="472.9" y2="520" stroke="#e5e7eb" stroke-width="1"/>
  <line x1="520.7" y1="340" x2="520.7" y2="520" stroke="#e5e7eb" stroke-width="1"/>
  <line x1="568.6" y1="340" x2="568.6" y2="520" stroke="#e5e7eb" stroke-width="1"/>
  <line x1="616.4" y1="340" x2="616.4" y2="520" stroke="#e5e7eb" stroke-width="1"/>
  <line x1="664.3" y1="340" x2="664.3" y2="520" stroke="#e5e7eb" stroke-width="1"/>
  <line x1="712.1" y1="340" x2="712.1" y2="520" stroke="#e5e7eb" stroke-width="1"/>
  <line x1="760.0" y1="340" x2="760.0" y2="520" stroke="#e5e7eb" stroke-width="1"/>
  <line x1="90" y1="340" x2="90" y2="520" stroke="#9ca3af" stroke-width="1.5"/>
  <line x1="90" y1="520" x2="760" y2="520" stroke="#9ca3af" stroke-width="1.5"/>
  <text x="40" y="430.0" text-anchor="middle" dominant-baseline="middle" fill="#374151" font-size="10" font-weight="600" transform="rotate(-90,40,430.0)">p50 latency (µs)</text>
  <polyline points="90.0,438.8 137.9,441.8 185.7,439.7 233.6,436.0 281.4,440.1 329.3,437.0 377.1,434.4 425.0,436.0 472.9,439.5 520.7,435.6 568.6,424.0 616.4,419.6 664.3,401.8 712.1,385.6 760.0,361.6" fill="none" stroke="#eab308" stroke-width="2.5" stroke-linecap="round" stroke-linejoin="round"/>
  <circle cx="90.0" cy="438.8" r="3" fill="#eab308" stroke="white" stroke-width="1"/>
  <circle cx="137.9" cy="441.8" r="3" fill="#eab308" stroke="white" stroke-width="1"/>
  <circle cx="185.7" cy="439.7" r="3" fill="#eab308" stroke="white" stroke-width="1"/>
  <circle cx="233.6" cy="436.0" r="3" fill="#eab308" stroke="white" stroke-width="1"/>
  <circle cx="281.4" cy="440.1" r="3" fill="#eab308" stroke="white" stroke-width="1"/>
  <circle cx="329.3" cy="437.0" r="3" fill="#eab308" stroke="white" stroke-width="1"/>
  <circle cx="377.1" cy="434.4" r="3" fill="#eab308" stroke="white" stroke-width="1"/>
  <circle cx="425.0" cy="436.0" r="3" fill="#eab308" stroke="white" stroke-width="1"/>
  <circle cx="472.9" cy="439.5" r="3" fill="#eab308" stroke="white" stroke-width="1"/>
  <circle cx="520.7" cy="435.6" r="3" fill="#eab308" stroke="white" stroke-width="1"/>
  <circle cx="568.6" cy="424.0" r="3" fill="#eab308" stroke="white" stroke-width="1"/>
  <circle cx="616.4" cy="419.6" r="3" fill="#eab308" stroke="white" stroke-width="1"/>
  <circle cx="664.3" cy="401.8" r="3" fill="#eab308" stroke="white" stroke-width="1"/>
  <circle cx="712.1" cy="385.6" r="3" fill="#eab308" stroke="white" stroke-width="1"/>
  <circle cx="760.0" cy="361.6" r="3" fill="#eab308" stroke="white" stroke-width="1"/>
  <polyline points="90.0,415.8 137.9,427.7 185.7,421.2 233.6,424.8 281.4,426.3 329.3,424.0 377.1,429.4 425.0,425.8 472.9,426.5 520.7,422.0 568.6,421.4 616.4,416.0 664.3,409.0 712.1,373.6 760.0,359.2" fill="none" stroke="#f97316" stroke-width="2.5" stroke-linecap="round" stroke-linejoin="round"/>
  <circle cx="90.0" cy="415.8" r="3" fill="#f97316" stroke="white" stroke-width="1"/>
  <circle cx="137.9" cy="427.7" r="3" fill="#f97316" stroke="white" stroke-width="1"/>
  <circle cx="185.7" cy="421.2" r="3" fill="#f97316" stroke="white" stroke-width="1"/>
  <circle cx="233.6" cy="424.8" r="3" fill="#f97316" stroke="white" stroke-width="1"/>
  <circle cx="281.4" cy="426.3" r="3" fill="#f97316" stroke="white" stroke-width="1"/>
  <circle cx="329.3" cy="424.0" r="3" fill="#f97316" stroke="white" stroke-width="1"/>
  <circle cx="377.1" cy="429.4" r="3" fill="#f97316" stroke="white" stroke-width="1"/>
  <circle cx="425.0" cy="425.8" r="3" fill="#f97316" stroke="white" stroke-width="1"/>
  <circle cx="472.9" cy="426.5" r="3" fill="#f97316" stroke="white" stroke-width="1"/>
  <circle cx="520.7" cy="422.0" r="3" fill="#f97316" stroke="white" stroke-width="1"/>
  <circle cx="568.6" cy="421.4" r="3" fill="#f97316" stroke="white" stroke-width="1"/>
  <circle cx="616.4" cy="416.0" r="3" fill="#f97316" stroke="white" stroke-width="1"/>
  <circle cx="664.3" cy="409.0" r="3" fill="#f97316" stroke="white" stroke-width="1"/>
  <circle cx="712.1" cy="373.6" r="3" fill="#f97316" stroke="white" stroke-width="1"/>
  <circle cx="760.0" cy="359.2" r="3" fill="#f97316" stroke="white" stroke-width="1"/>
  <polyline points="90.0,472.4 137.9,474.0 185.7,469.8 233.6,473.3 281.4,473.9 329.3,474.5 377.1,473.9 425.0,474.8 472.9,473.1 520.7,472.2 568.6,468.4 616.4,461.2 664.3,449.0 712.1,427.8 760.0,395.2" fill="none" stroke="#2563eb" stroke-width="2.5" stroke-linecap="round" stroke-linejoin="round"/>
  <circle cx="90.0" cy="472.4" r="3" fill="#2563eb" stroke="white" stroke-width="1"/>
  <circle cx="137.9" cy="474.0" r="3" fill="#2563eb" stroke="white" stroke-width="1"/>
  <circle cx="185.7" cy="469.8" r="3" fill="#2563eb" stroke="white" stroke-width="1"/>
  <circle cx="233.6" cy="473.3" r="3" fill="#2563eb" stroke="white" stroke-width="1"/>
  <circle cx="281.4" cy="473.9" r="3" fill="#2563eb" stroke="white" stroke-width="1"/>
  <circle cx="329.3" cy="474.5" r="3" fill="#2563eb" stroke="white" stroke-width="1"/>
  <circle cx="377.1" cy="473.9" r="3" fill="#2563eb" stroke="white" stroke-width="1"/>
  <circle cx="425.0" cy="474.8" r="3" fill="#2563eb" stroke="white" stroke-width="1"/>
  <circle cx="472.9" cy="473.1" r="3" fill="#2563eb" stroke="white" stroke-width="1"/>
  <circle cx="520.7" cy="472.2" r="3" fill="#2563eb" stroke="white" stroke-width="1"/>
  <circle cx="568.6" cy="468.4" r="3" fill="#2563eb" stroke="white" stroke-width="1"/>
  <circle cx="616.4" cy="461.2" r="3" fill="#2563eb" stroke="white" stroke-width="1"/>
  <circle cx="664.3" cy="449.0" r="3" fill="#2563eb" stroke="white" stroke-width="1"/>
  <circle cx="712.1" cy="427.8" r="3" fill="#2563eb" stroke="white" stroke-width="1"/>
  <circle cx="760.0" cy="395.2" r="3" fill="#2563eb" stroke="white" stroke-width="1"/>
  <polyline points="90.0,477.3 137.9,478.2 185.7,477.5 233.6,476.9 281.4,477.2 329.3,475.0 377.1,476.9 425.0,477.3 472.9,475.2 520.7,473.0 568.6,470.4 616.4,467.8 664.3,463.5 712.1,441.3 760.0,350.8" fill="none" stroke="#dc2626" stroke-width="2.5" stroke-linecap="round" stroke-linejoin="round"/>
  <circle cx="90.0" cy="477.3" r="3" fill="#dc2626" stroke="white" stroke-width="1"/>
  <circle cx="137.9" cy="478.2" r="3" fill="#dc2626" stroke="white" stroke-width="1"/>
  <circle cx="185.7" cy="477.5" r="3" fill="#dc2626" stroke="white" stroke-width="1"/>
  <circle cx="233.6" cy="476.9" r="3" fill="#dc2626" stroke="white" stroke-width="1"/>
  <circle cx="281.4" cy="477.2" r="3" fill="#dc2626" stroke="white" stroke-width="1"/>
  <circle cx="329.3" cy="475.0" r="3" fill="#dc2626" stroke="white" stroke-width="1"/>
  <circle cx="377.1" cy="476.9" r="3" fill="#dc2626" stroke="white" stroke-width="1"/>
  <circle cx="425.0" cy="477.3" r="3" fill="#dc2626" stroke="white" stroke-width="1"/>
  <circle cx="472.9" cy="475.2" r="3" fill="#dc2626" stroke="white" stroke-width="1"/>
  <circle cx="520.7" cy="473.0" r="3" fill="#dc2626" stroke="white" stroke-width="1"/>
  <circle cx="568.6" cy="470.4" r="3" fill="#dc2626" stroke="white" stroke-width="1"/>
  <circle cx="616.4" cy="467.8" r="3" fill="#dc2626" stroke="white" stroke-width="1"/>
  <circle cx="664.3" cy="463.5" r="3" fill="#dc2626" stroke="white" stroke-width="1"/>
  <circle cx="712.1" cy="441.3" r="3" fill="#dc2626" stroke="white" stroke-width="1"/>
  <circle cx="760.0" cy="350.8" r="3" fill="#dc2626" stroke="white" stroke-width="1"/>
  <text x="90.0" y="534" text-anchor="middle" fill="#374151" font-size="8.5">8 B</text>
  <text x="137.9" y="534" text-anchor="middle" fill="#374151" font-size="8.5">16 B</text>
  <text x="185.7" y="534" text-anchor="middle" fill="#374151" font-size="8.5">32 B</text>
  <text x="233.6" y="534" text-anchor="middle" fill="#374151" font-size="8.5">64 B</text>
  <text x="281.4" y="534" text-anchor="middle" fill="#374151" font-size="8.5">128 B</text>
  <text x="329.3" y="534" text-anchor="middle" fill="#374151" font-size="8.5">256 B</text>
  <text x="377.1" y="534" text-anchor="middle" fill="#374151" font-size="8.5">512 B</text>
  <text x="425.0" y="534" text-anchor="middle" fill="#374151" font-size="8.5">1 KiB</text>
  <text x="472.9" y="534" text-anchor="middle" fill="#374151" font-size="8.5">2 KiB</text>
  <text x="520.7" y="534" text-anchor="middle" fill="#374151" font-size="8.5">4 KiB</text>
  <text x="568.6" y="534" text-anchor="middle" fill="#374151" font-size="8.5">8 KiB</text>
  <text x="616.4" y="534" text-anchor="middle" fill="#374151" font-size="8.5">16 KiB</text>
  <text x="664.3" y="534" text-anchor="middle" fill="#374151" font-size="8.5">32 KiB</text>
  <text x="712.1" y="534" text-anchor="middle" fill="#374151" font-size="8.5">64 KiB</text>
  <text x="760.0" y="534" text-anchor="middle" fill="#374151" font-size="8.5">128 KiB</text>
  <line x1="145" y1="560" x2="159" y2="560" stroke="#eab308" stroke-width="2.5"/>
  <circle cx="152" cy="560" r="2.5" fill="#eab308"/>
  <text x="165" y="564" fill="#374151" font-size="11" font-weight="500">libzmq</text>
  <line x1="285" y1="560" x2="299" y2="560" stroke="#dc2626" stroke-width="2.5"/>
  <circle cx="292" cy="560" r="2.5" fill="#dc2626"/>
  <text x="305" y="564" fill="#374151" font-size="11" font-weight="500">omq-compio</text>
  <line x1="425" y1="560" x2="439" y2="560" stroke="#f97316" stroke-width="2.5"/>
  <circle cx="432" cy="560" r="2.5" fill="#f97316"/>
  <text x="445" y="564" fill="#374151" font-size="11" font-weight="500">omq-tokio</text>
  <line x1="565" y1="560" x2="579" y2="560" stroke="#2563eb" stroke-width="2.5"/>
  <circle cx="572" cy="560" r="2.5" fill="#2563eb"/>
  <text x="585" y="564" fill="#374151" font-size="11" font-weight="500">zmq.rs</text>
</svg>
