<svg xmlns="http://www.w3.org/2000/svg" viewBox="0 0 865 980" font-family="system-ui, -apple-system, sans-serif">
  <rect width="865" height="980" fill="white"/>
  <text x="425.0" y="16" text-anchor="middle" fill="#111827" font-size="12" font-weight="700">Compression transports: structured JSON, PUSH/PULL, 2-thread (omq-compio) — dict 2 KiB</text>
  <text x="425.0" y="45" text-anchor="middle" fill="#111827" font-size="12" font-weight="700">1 Gbps</text>
  <line x1="90" y1="252.0" x2="760" y2="252.0" stroke="#e5e7eb" stroke-width="1"/>
  <text x="82" y="252.0" text-anchor="end" dominant-baseline="middle" fill="#374151" font-size="9">10</text>
  <line x1="90" y1="219.2" x2="760" y2="219.2" stroke="#e5e7eb" stroke-width="1"/>
  <text x="82" y="219.2" text-anchor="end" dominant-baseline="middle" fill="#374151" font-size="9">100</text>
  <line x1="90" y1="186.4" x2="760" y2="186.4" stroke="#e5e7eb" stroke-width="1"/>
  <text x="82" y="186.4" text-anchor="end" dominant-baseline="middle" fill="#374151" font-size="9">1k</text>
  <line x1="90" y1="153.5" x2="760" y2="153.5" stroke="#e5e7eb" stroke-width="1"/>
  <text x="82" y="153.5" text-anchor="end" dominant-baseline="middle" fill="#374151" font-size="9">10k</text>
  <line x1="90" y1="120.7" x2="760" y2="120.7" stroke="#e5e7eb" stroke-width="1"/>
  <text x="82" y="120.7" text-anchor="end" dominant-baseline="middle" fill="#374151" font-size="9">100k</text>
  <line x1="90" y1="87.8" x2="760" y2="87.8" stroke="#e5e7eb" stroke-width="1"/>
  <text x="82" y="87.8" text-anchor="end" dominant-baseline="middle" fill="#374151" font-size="9">1M</text>
  <line x1="90" y1="55.0" x2="760" y2="55.0" stroke="#e5e7eb" stroke-width="1"/>
  <text x="82" y="55.0" text-anchor="end" dominant-baseline="middle" fill="#374151" font-size="9">10M</text>
  <line x1="90" y1="247.5" x2="760" y2="247.5" stroke="#e5e7eb" stroke-width="1" stroke-dasharray="3,6"/>
  <text x="768" y="247.5" text-anchor="start" dominant-baseline="middle" fill="#6b7280" font-size="9">100 MB/s</text>
  <line x1="90" y1="220.0" x2="760" y2="220.0" stroke="#e5e7eb" stroke-width="1" stroke-dasharray="3,6"/>
  <text x="768" y="220.0" text-anchor="start" dominant-baseline="middle" fill="#6b7280" font-size="9">200 MB/s</text>
  <line x1="90" y1="192.5" x2="760" y2="192.5" stroke="#e5e7eb" stroke-width="1" stroke-dasharray="3,6"/>
  <text x="768" y="192.5" text-anchor="start" dominant-baseline="middle" fill="#6b7280" font-size="9">300 MB/s</text>
  <line x1="90" y1="165.0" x2="760" y2="165.0" stroke="#e5e7eb" stroke-width="1" stroke-dasharray="3,6"/>
  <text x="768" y="165.0" text-anchor="start" dominant-baseline="middle" fill="#6b7280" font-size="9">400 MB/s</text>
  <line x1="90" y1="137.5" x2="760" y2="137.5" stroke="#e5e7eb" stroke-width="1" stroke-dasharray="3,6"/>
  <text x="768" y="137.5" text-anchor="start" dominant-baseline="middle" fill="#6b7280" font-size="9">500 MB/s</text>
  <line x1="90" y1="110.0" x2="760" y2="110.0" stroke="#e5e7eb" stroke-width="1" stroke-dasharray="3,6"/>
  <text x="768" y="110.0" text-anchor="start" dominant-baseline="middle" fill="#6b7280" font-size="9">600 MB/s</text>
  <line x1="90" y1="82.5" x2="760" y2="82.5" stroke="#e5e7eb" stroke-width="1" stroke-dasharray="3,6"/>
  <text x="768" y="82.5" text-anchor="start" dominant-baseline="middle" fill="#6b7280" font-size="9">700 MB/s</text>
  <line x1="90" y1="55.0" x2="760" y2="55.0" stroke="#e5e7eb" stroke-width="1" stroke-dasharray="3,6"/>
  <text x="768" y="55.0" text-anchor="start" dominant-baseline="middle" fill="#6b7280" font-size="9">800 MB/s</text>
  <line x1="90.0" y1="55" x2="90.0" y2="275" stroke="#e5e7eb" stroke-width="1"/>
  <line x1="134.7" y1="55" x2="134.7" y2="275" stroke="#e5e7eb" stroke-width="1"/>
  <line x1="179.3" y1="55" x2="179.3" y2="275" stroke="#e5e7eb" stroke-width="1"/>
  <line x1="224.0" y1="55" x2="224.0" y2="275" stroke="#e5e7eb" stroke-width="1"/>
  <line x1="268.7" y1="55" x2="268.7" y2="275" stroke="#e5e7eb" stroke-width="1"/>
  <line x1="313.3" y1="55" x2="313.3" y2="275" stroke="#e5e7eb" stroke-width="1"/>
  <line x1="358.0" y1="55" x2="358.0" y2="275" stroke="#e5e7eb" stroke-width="1"/>
  <line x1="402.7" y1="55" x2="402.7" y2="275" stroke="#e5e7eb" stroke-width="1"/>
  <line x1="447.3" y1="55" x2="447.3" y2="275" stroke="#e5e7eb" stroke-width="1"/>
  <line x1="492.0" y1="55" x2="492.0" y2="275" stroke="#e5e7eb" stroke-width="1"/>
  <line x1="536.7" y1="55" x2="536.7" y2="275" stroke="#e5e7eb" stroke-width="1"/>
  <line x1="581.3" y1="55" x2="581.3" y2="275" stroke="#e5e7eb" stroke-width="1"/>
  <line x1="626.0" y1="55" x2="626.0" y2="275" stroke="#e5e7eb" stroke-width="1"/>
  <line x1="670.7" y1="55" x2="670.7" y2="275" stroke="#e5e7eb" stroke-width="1"/>
  <line x1="715.3" y1="55" x2="715.3" y2="275" stroke="#e5e7eb" stroke-width="1"/>
  <line x1="760.0" y1="55" x2="760.0" y2="275" stroke="#e5e7eb" stroke-width="1"/>
  <line x1="90" y1="55" x2="90" y2="275" stroke="#9ca3af" stroke-width="1.5"/>
  <line x1="760" y1="55" x2="760" y2="275" stroke="#9ca3af" stroke-width="1.5"/>
  <line x1="90" y1="275" x2="760" y2="275" stroke="#9ca3af" stroke-width="1.5"/>
  <text x="90.0" y="289" text-anchor="middle" fill="#374151" font-size="8">8 B</text>
  <text x="134.7" y="289" text-anchor="middle" fill="#374151" font-size="8">16 B</text>
  <text x="179.3" y="289" text-anchor="middle" fill="#374151" font-size="8">32 B</text>
  <text x="224.0" y="289" text-anchor="middle" fill="#374151" font-size="8">64 B</text>
  <text x="268.7" y="289" text-anchor="middle" fill="#374151" font-size="8">128 B</text>
  <text x="313.3" y="289" text-anchor="middle" fill="#374151" font-size="8">256 B</text>
  <text x="358.0" y="289" text-anchor="middle" fill="#374151" font-size="8">512 B</text>
  <text x="402.7" y="289" text-anchor="middle" fill="#374151" font-size="8">1 KiB</text>
  <text x="447.3" y="289" text-anchor="middle" fill="#374151" font-size="8">2 KiB</text>
  <text x="492.0" y="289" text-anchor="middle" fill="#374151" font-size="8">4 KiB</text>
  <text x="536.7" y="289" text-anchor="middle" fill="#374151" font-size="8">8 KiB</text>
  <text x="581.3" y="289" text-anchor="middle" fill="#374151" font-size="8">16 KiB</text>
  <text x="626.0" y="289" text-anchor="middle" fill="#374151" font-size="8">32 KiB</text>
  <text x="670.7" y="289" text-anchor="middle" fill="#374151" font-size="8">64 KiB</text>
  <text x="715.3" y="289" text-anchor="middle" fill="#374151" font-size="8">128 KiB</text>
  <text x="760.0" y="289" text-anchor="middle" fill="#374151" font-size="8">256 KiB</text>
  <text x="40" y="165.0" text-anchor="middle" dominant-baseline="middle" fill="#374151" font-size="10" font-weight="600" transform="rotate(-90,40,165.0)">msg/s (log)</text>
  <text x="840" y="165.0" text-anchor="middle" dominant-baseline="middle" fill="#6b7280" font-size="10" font-weight="600" transform="rotate(90,840,165.0)">virtual throughput</text>
  <polyline points="90.0,62.0 134.7,61.9 179.3,68.4 224.0,78.3 268.7,88.2 313.3,98.1 358.0,108.0 402.7,117.8 447.3,127.7 492.0,137.6 536.7,147.5 581.3,157.4 626.0,167.3 670.7,177.2 715.3,187.0 760.0,196.9" fill="none" stroke="#eab308" stroke-width="1.5" stroke-dasharray="5,3"/>
  <polyline points="90.0,69.1 134.7,70.0 179.3,70.2 224.0,79.2 268.7,88.6 313.3,98.3 358.0,102.4 402.7,108.4 447.3,114.2 492.0,121.4 536.7,128.9 581.3,137.2 626.0,146.2 670.7,155.7 715.3,166.4 760.0,177.9" fill="none" stroke="#60a5fa" stroke-width="1.5" stroke-dasharray="5,3"/>
  <polyline points="90.0,75.0 134.7,75.2 179.3,74.5 224.0,79.2 268.7,95.5 313.3,98.4 358.0,96.1 402.7,97.8 447.3,102.1 492.0,114.2 536.7,124.4 581.3,134.9 626.0,145.0 670.7,156.3 715.3,170.4 760.0,180.7" fill="none" stroke="#1d4ed8" stroke-width="1.5" stroke-dasharray="5,3"/>
  <polyline points="90.0,76.9 134.7,77.8 179.3,77.2 224.0,111.4 268.7,112.3 313.3,111.9 358.0,112.1 402.7,112.0 447.3,113.5 492.0,121.4 536.7,134.4 581.3,146.9 626.0,160.0 670.7,170.3 715.3,180.6 760.0,191.3" fill="none" stroke="#f97316" stroke-width="1.5" stroke-dasharray="5,3"/>
  <polyline points="90.0,261.5 134.7,247.9 179.3,240.6 224.0,240.6 268.7,240.6 313.3,240.6 358.0,240.6 402.7,240.6 447.3,240.6 492.0,240.6 536.7,240.6 581.3,240.6 626.0,240.6 670.7,240.6 715.3,240.6 760.0,240.6" fill="none" stroke="#eab308" stroke-width="2.5" stroke-linecap="round" stroke-linejoin="round"/>
  <circle cx="90.0" cy="261.5" r="2.5" fill="#eab308" stroke="white" stroke-width="1"/>
  <circle cx="134.7" cy="247.9" r="2.5" fill="#eab308" stroke="white" stroke-width="1"/>
  <circle cx="179.3" cy="240.6" r="2.5" fill="#eab308" stroke="white" stroke-width="1"/>
  <circle cx="224.0" cy="240.6" r="2.5" fill="#eab308" stroke="white" stroke-width="1"/>
  <circle cx="268.7" cy="240.6" r="2.5" fill="#eab308" stroke="white" stroke-width="1"/>
  <circle cx="313.3" cy="240.6" r="2.5" fill="#eab308" stroke="white" stroke-width="1"/>
  <circle cx="358.0" cy="240.6" r="2.5" fill="#eab308" stroke="white" stroke-width="1"/>
  <circle cx="402.7" cy="240.6" r="2.5" fill="#eab308" stroke="white" stroke-width="1"/>
  <circle cx="447.3" cy="240.6" r="2.5" fill="#eab308" stroke="white" stroke-width="1"/>
  <circle cx="492.0" cy="240.6" r="2.5" fill="#eab308" stroke="white" stroke-width="1"/>
  <circle cx="536.7" cy="240.6" r="2.5" fill="#eab308" stroke="white" stroke-width="1"/>
  <circle cx="581.3" cy="240.6" r="2.5" fill="#eab308" stroke="white" stroke-width="1"/>
  <circle cx="626.0" cy="240.6" r="2.5" fill="#eab308" stroke="white" stroke-width="1"/>
  <circle cx="670.7" cy="240.6" r="2.5" fill="#eab308" stroke="white" stroke-width="1"/>
  <circle cx="715.3" cy="240.6" r="2.5" fill="#eab308" stroke="white" stroke-width="1"/>
  <circle cx="760.0" cy="240.6" r="2.5" fill="#eab308" stroke="white" stroke-width="1"/>
  <polyline points="90.0,266.8 134.7,259.6 179.3,244.7 224.0,242.6 268.7,241.7 313.3,241.2 358.0,224.1 402.7,208.2 447.3,186.0 492.0,167.8 536.7,148.2 581.3,133.5 626.0,124.7 670.7,120.1 715.3,128.8 760.0,144.5" fill="none" stroke="#60a5fa" stroke-width="2.5" stroke-linecap="round" stroke-linejoin="round"/>
  <circle cx="90.0" cy="266.8" r="2.5" fill="#60a5fa" stroke="white" stroke-width="1"/>
  <circle cx="134.7" cy="259.6" r="2.5" fill="#60a5fa" stroke="white" stroke-width="1"/>
  <circle cx="179.3" cy="244.7" r="2.5" fill="#60a5fa" stroke="white" stroke-width="1"/>
  <circle cx="224.0" cy="242.6" r="2.5" fill="#60a5fa" stroke="white" stroke-width="1"/>
  <circle cx="268.7" cy="241.7" r="2.5" fill="#60a5fa" stroke="white" stroke-width="1"/>
  <circle cx="313.3" cy="241.2" r="2.5" fill="#60a5fa" stroke="white" stroke-width="1"/>
  <circle cx="358.0" cy="224.1" r="2.5" fill="#60a5fa" stroke="white" stroke-width="1"/>
  <circle cx="402.7" cy="208.2" r="2.5" fill="#60a5fa" stroke="white" stroke-width="1"/>
  <circle cx="447.3" cy="186.0" r="2.5" fill="#60a5fa" stroke="white" stroke-width="1"/>
  <circle cx="492.0" cy="167.8" r="2.5" fill="#60a5fa" stroke="white" stroke-width="1"/>
  <circle cx="536.7" cy="148.2" r="2.5" fill="#60a5fa" stroke="white" stroke-width="1"/>
  <circle cx="581.3" cy="133.5" r="2.5" fill="#60a5fa" stroke="white" stroke-width="1"/>
  <circle cx="626.0" cy="124.7" r="2.5" fill="#60a5fa" stroke="white" stroke-width="1"/>
  <circle cx="670.7" cy="120.1" r="2.5" fill="#60a5fa" stroke="white" stroke-width="1"/>
  <circle cx="715.3" cy="128.8" r="2.5" fill="#60a5fa" stroke="white" stroke-width="1"/>
  <circle cx="760.0" cy="144.5" r="2.5" fill="#60a5fa" stroke="white" stroke-width="1"/>
  <polyline points="90.0,269.6 134.7,264.3 179.3,252.5 224.0,242.6 268.7,254.5 313.3,241.5 358.0,196.0 402.7,134.9 447.3,68.1 492.0,97.4 536.7,101.6 581.3,109.0 626.0,111.3 670.7,126.8 715.3,164.9 760.0,167.6" fill="none" stroke="#1d4ed8" stroke-width="2.5" stroke-linecap="round" stroke-linejoin="round"/>
  <circle cx="90.0" cy="269.6" r="2.5" fill="#1d4ed8" stroke="white" stroke-width="1"/>
  <circle cx="134.7" cy="264.3" r="2.5" fill="#1d4ed8" stroke="white" stroke-width="1"/>
  <circle cx="179.3" cy="252.5" r="2.5" fill="#1d4ed8" stroke="white" stroke-width="1"/>
  <circle cx="224.0" cy="242.6" r="2.5" fill="#1d4ed8" stroke="white" stroke-width="1"/>
  <circle cx="268.7" cy="254.5" r="2.5" fill="#1d4ed8" stroke="white" stroke-width="1"/>
  <circle cx="313.3" cy="241.5" r="2.5" fill="#1d4ed8" stroke="white" stroke-width="1"/>
  <circle cx="358.0" cy="196.0" r="2.5" fill="#1d4ed8" stroke="white" stroke-width="1"/>
  <circle cx="402.7" cy="134.9" r="2.5" fill="#1d4ed8" stroke="white" stroke-width="1"/>
  <circle cx="447.3" cy="68.1" r="2.5" fill="#1d4ed8" stroke="white" stroke-width="1"/>
  <circle cx="492.0" cy="97.4" r="2.5" fill="#1d4ed8" stroke="white" stroke-width="1"/>
  <circle cx="536.7" cy="101.6" r="2.5" fill="#1d4ed8" stroke="white" stroke-width="1"/>
  <circle cx="581.3" cy="109.0" r="2.5" fill="#1d4ed8" stroke="white" stroke-width="1"/>
  <circle cx="626.0" cy="111.3" r="2.5" fill="#1d4ed8" stroke="white" stroke-width="1"/>
  <circle cx="670.7" cy="126.8" r="2.5" fill="#1d4ed8" stroke="white" stroke-width="1"/>
  <circle cx="715.3" cy="164.9" r="2.5" fill="#1d4ed8" stroke="white" stroke-width="1"/>
  <circle cx="760.0" cy="167.6" r="2.5" fill="#1d4ed8" stroke="white" stroke-width="1"/>
  <polyline points="90.0,270.3 134.7,266.1 179.3,256.5 224.0,271.6 268.7,268.7 313.3,262.0 358.0,249.2 402.7,223.4 447.3,182.0 492.0,168.1 536.7,188.9 581.3,203.1 626.0,217.9 670.7,219.4 715.3,220.9 760.0,224.1" fill="none" stroke="#f97316" stroke-width="2.5" stroke-linecap="round" stroke-linejoin="round"/>
  <circle cx="90.0" cy="270.3" r="2.5" fill="#f97316" stroke="white" stroke-width="1"/>
  <circle cx="134.7" cy="266.1" r="2.5" fill="#f97316" stroke="white" stroke-width="1"/>
  <circle cx="179.3" cy="256.5" r="2.5" fill="#f97316" stroke="white" stroke-width="1"/>
  <circle cx="224.0" cy="271.6" r="2.5" fill="#f97316" stroke="white" stroke-width="1"/>
  <circle cx="268.7" cy="268.7" r="2.5" fill="#f97316" stroke="white" stroke-width="1"/>
  <circle cx="313.3" cy="262.0" r="2.5" fill="#f97316" stroke="white" stroke-width="1"/>
  <circle cx="358.0" cy="249.2" r="2.5" fill="#f97316" stroke="white" stroke-width="1"/>
  <circle cx="402.7" cy="223.4" r="2.5" fill="#f97316" stroke="white" stroke-width="1"/>
  <circle cx="447.3" cy="182.0" r="2.5" fill="#f97316" stroke="white" stroke-width="1"/>
  <circle cx="492.0" cy="168.1" r="2.5" fill="#f97316" stroke="white" stroke-width="1"/>
  <circle cx="536.7" cy="188.9" r="2.5" fill="#f97316" stroke="white" stroke-width="1"/>
  <circle cx="581.3" cy="203.1" r="2.5" fill="#f97316" stroke="white" stroke-width="1"/>
  <circle cx="626.0" cy="217.9" r="2.5" fill="#f97316" stroke="white" stroke-width="1"/>
  <circle cx="670.7" cy="219.4" r="2.5" fill="#f97316" stroke="white" stroke-width="1"/>
  <circle cx="715.3" cy="220.9" r="2.5" fill="#f97316" stroke="white" stroke-width="1"/>
  <circle cx="760.0" cy="224.1" r="2.5" fill="#f97316" stroke="white" stroke-width="1"/>
  <text x="425.0" y="355" text-anchor="middle" fill="#111827" font-size="12" font-weight="700">100 Mbps</text>
  <line x1="90" y1="562.0" x2="760" y2="562.0" stroke="#e5e7eb" stroke-width="1"/>
  <text x="82" y="562.0" text-anchor="end" dominant-baseline="middle" fill="#374151" font-size="9">10</text>
  <line x1="90" y1="529.2" x2="760" y2="529.2" stroke="#e5e7eb" stroke-width="1"/>
  <text x="82" y="529.2" text-anchor="end" dominant-baseline="middle" fill="#374151" font-size="9">100</text>
  <line x1="90" y1="496.4" x2="760" y2="496.4" stroke="#e5e7eb" stroke-width="1"/>
  <text x="82" y="496.4" text-anchor="end" dominant-baseline="middle" fill="#374151" font-size="9">1k</text>
  <line x1="90" y1="463.5" x2="760" y2="463.5" stroke="#e5e7eb" stroke-width="1"/>
  <text x="82" y="463.5" text-anchor="end" dominant-baseline="middle" fill="#374151" font-size="9">10k</text>
  <line x1="90" y1="430.7" x2="760" y2="430.7" stroke="#e5e7eb" stroke-width="1"/>
  <text x="82" y="430.7" text-anchor="end" dominant-baseline="middle" fill="#374151" font-size="9">100k</text>
  <line x1="90" y1="397.8" x2="760" y2="397.8" stroke="#e5e7eb" stroke-width="1"/>
  <text x="82" y="397.8" text-anchor="end" dominant-baseline="middle" fill="#374151" font-size="9">1M</text>
  <line x1="90" y1="365.0" x2="760" y2="365.0" stroke="#e5e7eb" stroke-width="1"/>
  <text x="82" y="365.0" text-anchor="end" dominant-baseline="middle" fill="#374151" font-size="9">10M</text>
  <line x1="90" y1="557.5" x2="760" y2="557.5" stroke="#e5e7eb" stroke-width="1" stroke-dasharray="3,6"/>
  <text x="768" y="557.5" text-anchor="start" dominant-baseline="middle" fill="#6b7280" font-size="9">50 MB/s</text>
  <line x1="90" y1="530.0" x2="760" y2="530.0" stroke="#e5e7eb" stroke-width="1" stroke-dasharray="3,6"/>
  <text x="768" y="530.0" text-anchor="start" dominant-baseline="middle" fill="#6b7280" font-size="9">100 MB/s</text>
  <line x1="90" y1="502.5" x2="760" y2="502.5" stroke="#e5e7eb" stroke-width="1" stroke-dasharray="3,6"/>
  <text x="768" y="502.5" text-anchor="start" dominant-baseline="middle" fill="#6b7280" font-size="9">150 MB/s</text>
  <line x1="90" y1="475.0" x2="760" y2="475.0" stroke="#e5e7eb" stroke-width="1" stroke-dasharray="3,6"/>
  <text x="768" y="475.0" text-anchor="start" dominant-baseline="middle" fill="#6b7280" font-size="9">200 MB/s</text>
  <line x1="90" y1="447.5" x2="760" y2="447.5" stroke="#e5e7eb" stroke-width="1" stroke-dasharray="3,6"/>
  <text x="768" y="447.5" text-anchor="start" dominant-baseline="middle" fill="#6b7280" font-size="9">250 MB/s</text>
  <line x1="90" y1="420.0" x2="760" y2="420.0" stroke="#e5e7eb" stroke-width="1" stroke-dasharray="3,6"/>
  <text x="768" y="420.0" text-anchor="start" dominant-baseline="middle" fill="#6b7280" font-size="9">300 MB/s</text>
  <line x1="90" y1="392.5" x2="760" y2="392.5" stroke="#e5e7eb" stroke-width="1" stroke-dasharray="3,6"/>
  <text x="768" y="392.5" text-anchor="start" dominant-baseline="middle" fill="#6b7280" font-size="9">350 MB/s</text>
  <line x1="90" y1="365.0" x2="760" y2="365.0" stroke="#e5e7eb" stroke-width="1" stroke-dasharray="3,6"/>
  <text x="768" y="365.0" text-anchor="start" dominant-baseline="middle" fill="#6b7280" font-size="9">400 MB/s</text>
  <line x1="90.0" y1="365" x2="90.0" y2="585" stroke="#e5e7eb" stroke-width="1"/>
  <line x1="134.7" y1="365" x2="134.7" y2="585" stroke="#e5e7eb" stroke-width="1"/>
  <line x1="179.3" y1="365" x2="179.3" y2="585" stroke="#e5e7eb" stroke-width="1"/>
  <line x1="224.0" y1="365" x2="224.0" y2="585" stroke="#e5e7eb" stroke-width="1"/>
  <line x1="268.7" y1="365" x2="268.7" y2="585" stroke="#e5e7eb" stroke-width="1"/>
  <line x1="313.3" y1="365" x2="313.3" y2="585" stroke="#e5e7eb" stroke-width="1"/>
  <line x1="358.0" y1="365" x2="358.0" y2="585" stroke="#e5e7eb" stroke-width="1"/>
  <line x1="402.7" y1="365" x2="402.7" y2="585" stroke="#e5e7eb" stroke-width="1"/>
  <line x1="447.3" y1="365" x2="447.3" y2="585" stroke="#e5e7eb" stroke-width="1"/>
  <line x1="492.0" y1="365" x2="492.0" y2="585" stroke="#e5e7eb" stroke-width="1"/>
  <line x1="536.7" y1="365" x2="536.7" y2="585" stroke="#e5e7eb" stroke-width="1"/>
  <line x1="581.3" y1="365" x2="581.3" y2="585" stroke="#e5e7eb" stroke-width="1"/>
  <line x1="626.0" y1="365" x2="626.0" y2="585" stroke="#e5e7eb" stroke-width="1"/>
  <line x1="670.7" y1="365" x2="670.7" y2="585" stroke="#e5e7eb" stroke-width="1"/>
  <line x1="715.3" y1="365" x2="715.3" y2="585" stroke="#e5e7eb" stroke-width="1"/>
  <line x1="760.0" y1="365" x2="760.0" y2="585" stroke="#e5e7eb" stroke-width="1"/>
  <line x1="90" y1="365" x2="90" y2="585" stroke="#9ca3af" stroke-width="1.5"/>
  <line x1="760" y1="365" x2="760" y2="585" stroke="#9ca3af" stroke-width="1.5"/>
  <line x1="90" y1="585" x2="760" y2="585" stroke="#9ca3af" stroke-width="1.5"/>
  <text x="90.0" y="599" text-anchor="middle" fill="#374151" font-size="8">8 B</text>
  <text x="134.7" y="599" text-anchor="middle" fill="#374151" font-size="8">16 B</text>
  <text x="179.3" y="599" text-anchor="middle" fill="#374151" font-size="8">32 B</text>
  <text x="224.0" y="599" text-anchor="middle" fill="#374151" font-size="8">64 B</text>
  <text x="268.7" y="599" text-anchor="middle" fill="#374151" font-size="8">128 B</text>
  <text x="313.3" y="599" text-anchor="middle" fill="#374151" font-size="8">256 B</text>
  <text x="358.0" y="599" text-anchor="middle" fill="#374151" font-size="8">512 B</text>
  <text x="402.7" y="599" text-anchor="middle" fill="#374151" font-size="8">1 KiB</text>
  <text x="447.3" y="599" text-anchor="middle" fill="#374151" font-size="8">2 KiB</text>
  <text x="492.0" y="599" text-anchor="middle" fill="#374151" font-size="8">4 KiB</text>
  <text x="536.7" y="599" text-anchor="middle" fill="#374151" font-size="8">8 KiB</text>
  <text x="581.3" y="599" text-anchor="middle" fill="#374151" font-size="8">16 KiB</text>
  <text x="626.0" y="599" text-anchor="middle" fill="#374151" font-size="8">32 KiB</text>
  <text x="670.7" y="599" text-anchor="middle" fill="#374151" font-size="8">64 KiB</text>
  <text x="715.3" y="599" text-anchor="middle" fill="#374151" font-size="8">128 KiB</text>
  <text x="760.0" y="599" text-anchor="middle" fill="#374151" font-size="8">256 KiB</text>
  <text x="40" y="475.0" text-anchor="middle" dominant-baseline="middle" fill="#374151" font-size="10" font-weight="600" transform="rotate(-90,40,475.0)">msg/s (log)</text>
  <text x="840" y="475.0" text-anchor="middle" dominant-baseline="middle" fill="#6b7280" font-size="10" font-weight="600" transform="rotate(90,840,475.0)">virtual throughput</text>
  <polyline points="90.0,391.5 134.7,401.4 179.3,411.2 224.0,421.1 268.7,431.0 313.3,440.9 358.0,450.8 402.7,460.7 447.3,470.6 492.0,480.5 536.7,490.3 581.3,500.2 626.0,510.1 670.7,520.0 715.3,529.9 760.0,539.8" fill="none" stroke="#eab308" stroke-width="1.5" stroke-dasharray="5,3"/>
  <polyline points="90.0,397.3 134.7,404.5 179.3,412.9 224.0,422.0 268.7,431.5 313.3,441.1 358.0,445.2 402.7,451.2 447.3,457.0 492.0,464.2 536.7,471.7 581.3,480.0 626.0,489.1 670.7,498.5 715.3,508.3 760.0,518.2" fill="none" stroke="#60a5fa" stroke-width="1.5" stroke-dasharray="5,3"/>
  <polyline points="90.0,397.3 134.7,404.5 179.3,412.9 224.0,422.0 268.7,412.1 313.3,412.1 358.0,412.5 402.7,413.3 447.3,435.2 492.0,455.3 536.7,467.3 581.3,477.8 626.0,487.9 670.7,497.9 715.3,508.0 760.0,518.0" fill="none" stroke="#1d4ed8" stroke-width="1.5" stroke-dasharray="5,3"/>
  <polyline points="90.0,397.3 134.7,404.5 179.3,412.9 224.0,421.4 268.7,422.3 313.3,421.9 358.0,422.1 402.7,422.0 447.3,432.6 492.0,451.5 536.7,464.1 581.3,474.1 626.0,482.3 670.7,492.3 715.3,502.2 760.0,512.2" fill="none" stroke="#f97316" stroke-width="1.5" stroke-dasharray="5,3"/>
  <polyline points="90.0,578.1 134.7,578.1 179.3,578.1 224.0,578.1 268.7,578.1 313.3,578.1 358.0,578.1 402.7,578.1 447.3,578.1 492.0,578.1 536.7,578.1 581.3,578.1 626.0,578.1 670.7,578.1 715.3,578.1 760.0,578.1" fill="none" stroke="#eab308" stroke-width="2.5" stroke-linecap="round" stroke-linejoin="round"/>
  <circle cx="90.0" cy="578.1" r="2.5" fill="#eab308" stroke="white" stroke-width="1"/>
  <circle cx="134.7" cy="578.1" r="2.5" fill="#eab308" stroke="white" stroke-width="1"/>
  <circle cx="179.3" cy="578.1" r="2.5" fill="#eab308" stroke="white" stroke-width="1"/>
  <circle cx="224.0" cy="578.1" r="2.5" fill="#eab308" stroke="white" stroke-width="1"/>
  <circle cx="268.7" cy="578.1" r="2.5" fill="#eab308" stroke="white" stroke-width="1"/>
  <circle cx="313.3" cy="578.1" r="2.5" fill="#eab308" stroke="white" stroke-width="1"/>
  <circle cx="358.0" cy="578.1" r="2.5" fill="#eab308" stroke="white" stroke-width="1"/>
  <circle cx="402.7" cy="578.1" r="2.5" fill="#eab308" stroke="white" stroke-width="1"/>
  <circle cx="447.3" cy="578.1" r="2.5" fill="#eab308" stroke="white" stroke-width="1"/>
  <circle cx="492.0" cy="578.1" r="2.5" fill="#eab308" stroke="white" stroke-width="1"/>
  <circle cx="536.7" cy="578.1" r="2.5" fill="#eab308" stroke="white" stroke-width="1"/>
  <circle cx="581.3" cy="578.1" r="2.5" fill="#eab308" stroke="white" stroke-width="1"/>
  <circle cx="626.0" cy="578.1" r="2.5" fill="#eab308" stroke="white" stroke-width="1"/>
  <circle cx="670.7" cy="578.1" r="2.5" fill="#eab308" stroke="white" stroke-width="1"/>
  <circle cx="715.3" cy="578.1" r="2.5" fill="#eab308" stroke="white" stroke-width="1"/>
  <circle cx="760.0" cy="578.1" r="2.5" fill="#eab308" stroke="white" stroke-width="1"/>
  <polyline points="90.0,580.4 134.7,579.5 179.3,578.9 224.0,578.5 268.7,578.3 313.3,578.2 358.0,574.8 402.7,571.6 447.3,567.2 492.0,563.6 536.7,559.6 581.3,556.7 626.0,554.9 670.7,554.0 715.3,553.8 760.0,553.8" fill="none" stroke="#60a5fa" stroke-width="2.5" stroke-linecap="round" stroke-linejoin="round"/>
  <circle cx="90.0" cy="580.4" r="2.5" fill="#60a5fa" stroke="white" stroke-width="1"/>
  <circle cx="134.7" cy="579.5" r="2.5" fill="#60a5fa" stroke="white" stroke-width="1"/>
  <circle cx="179.3" cy="578.9" r="2.5" fill="#60a5fa" stroke="white" stroke-width="1"/>
  <circle cx="224.0" cy="578.5" r="2.5" fill="#60a5fa" stroke="white" stroke-width="1"/>
  <circle cx="268.7" cy="578.3" r="2.5" fill="#60a5fa" stroke="white" stroke-width="1"/>
  <circle cx="313.3" cy="578.2" r="2.5" fill="#60a5fa" stroke="white" stroke-width="1"/>
  <circle cx="358.0" cy="574.8" r="2.5" fill="#60a5fa" stroke="white" stroke-width="1"/>
  <circle cx="402.7" cy="571.6" r="2.5" fill="#60a5fa" stroke="white" stroke-width="1"/>
  <circle cx="447.3" cy="567.2" r="2.5" fill="#60a5fa" stroke="white" stroke-width="1"/>
  <circle cx="492.0" cy="563.6" r="2.5" fill="#60a5fa" stroke="white" stroke-width="1"/>
  <circle cx="536.7" cy="559.6" r="2.5" fill="#60a5fa" stroke="white" stroke-width="1"/>
  <circle cx="581.3" cy="556.7" r="2.5" fill="#60a5fa" stroke="white" stroke-width="1"/>
  <circle cx="626.0" cy="554.9" r="2.5" fill="#60a5fa" stroke="white" stroke-width="1"/>
  <circle cx="670.7" cy="554.0" r="2.5" fill="#60a5fa" stroke="white" stroke-width="1"/>
  <circle cx="715.3" cy="553.8" r="2.5" fill="#60a5fa" stroke="white" stroke-width="1"/>
  <circle cx="760.0" cy="553.8" r="2.5" fill="#60a5fa" stroke="white" stroke-width="1"/>
  <polyline points="90.0,580.4 134.7,579.5 179.3,578.9 224.0,578.5 268.7,559.1 313.3,533.2 358.0,484.4 402.7,394.7 447.3,503.1 492.0,544.8 536.7,550.3 581.3,551.8 626.0,552.3 670.7,552.7 715.3,553.2 760.0,553.4" fill="none" stroke="#1d4ed8" stroke-width="2.5" stroke-linecap="round" stroke-linejoin="round"/>
  <circle cx="90.0" cy="580.4" r="2.5" fill="#1d4ed8" stroke="white" stroke-width="1"/>
  <circle cx="134.7" cy="579.5" r="2.5" fill="#1d4ed8" stroke="white" stroke-width="1"/>
  <circle cx="179.3" cy="578.9" r="2.5" fill="#1d4ed8" stroke="white" stroke-width="1"/>
  <circle cx="224.0" cy="578.5" r="2.5" fill="#1d4ed8" stroke="white" stroke-width="1"/>
  <circle cx="268.7" cy="559.1" r="2.5" fill="#1d4ed8" stroke="white" stroke-width="1"/>
  <circle cx="313.3" cy="533.2" r="2.5" fill="#1d4ed8" stroke="white" stroke-width="1"/>
  <circle cx="358.0" cy="484.4" r="2.5" fill="#1d4ed8" stroke="white" stroke-width="1"/>
  <circle cx="402.7" cy="394.7" r="2.5" fill="#1d4ed8" stroke="white" stroke-width="1"/>
  <circle cx="447.3" cy="503.1" r="2.5" fill="#1d4ed8" stroke="white" stroke-width="1"/>
  <circle cx="492.0" cy="544.8" r="2.5" fill="#1d4ed8" stroke="white" stroke-width="1"/>
  <circle cx="536.7" cy="550.3" r="2.5" fill="#1d4ed8" stroke="white" stroke-width="1"/>
  <circle cx="581.3" cy="551.8" r="2.5" fill="#1d4ed8" stroke="white" stroke-width="1"/>
  <circle cx="626.0" cy="552.3" r="2.5" fill="#1d4ed8" stroke="white" stroke-width="1"/>
  <circle cx="670.7" cy="552.7" r="2.5" fill="#1d4ed8" stroke="white" stroke-width="1"/>
  <circle cx="715.3" cy="553.2" r="2.5" fill="#1d4ed8" stroke="white" stroke-width="1"/>
  <circle cx="760.0" cy="553.4" r="2.5" fill="#1d4ed8" stroke="white" stroke-width="1"/>
  <polyline points="90.0,580.4 134.7,579.5 179.3,578.9 224.0,578.2 268.7,572.3 313.3,558.9 358.0,533.5 402.7,481.8 447.3,486.5 492.0,532.8 536.7,541.6 581.3,542.0 626.0,536.6 670.7,537.0 715.3,537.2 760.0,537.4" fill="none" stroke="#f97316" stroke-width="2.5" stroke-linecap="round" stroke-linejoin="round"/>
  <circle cx="90.0" cy="580.4" r="2.5" fill="#f97316" stroke="white" stroke-width="1"/>
  <circle cx="134.7" cy="579.5" r="2.5" fill="#f97316" stroke="white" stroke-width="1"/>
  <circle cx="179.3" cy="578.9" r="2.5" fill="#f97316" stroke="white" stroke-width="1"/>
  <circle cx="224.0" cy="578.2" r="2.5" fill="#f97316" stroke="white" stroke-width="1"/>
  <circle cx="268.7" cy="572.3" r="2.5" fill="#f97316" stroke="white" stroke-width="1"/>
  <circle cx="313.3" cy="558.9" r="2.5" fill="#f97316" stroke="white" stroke-width="1"/>
  <circle cx="358.0" cy="533.5" r="2.5" fill="#f97316" stroke="white" stroke-width="1"/>
  <circle cx="402.7" cy="481.8" r="2.5" fill="#f97316" stroke="white" stroke-width="1"/>
  <circle cx="447.3" cy="486.5" r="2.5" fill="#f97316" stroke="white" stroke-width="1"/>
  <circle cx="492.0" cy="532.8" r="2.5" fill="#f97316" stroke="white" stroke-width="1"/>
  <circle cx="536.7" cy="541.6" r="2.5" fill="#f97316" stroke="white" stroke-width="1"/>
  <circle cx="581.3" cy="542.0" r="2.5" fill="#f97316" stroke="white" stroke-width="1"/>
  <circle cx="626.0" cy="536.6" r="2.5" fill="#f97316" stroke="white" stroke-width="1"/>
  <circle cx="670.7" cy="537.0" r="2.5" fill="#f97316" stroke="white" stroke-width="1"/>
  <circle cx="715.3" cy="537.2" r="2.5" fill="#f97316" stroke="white" stroke-width="1"/>
  <circle cx="760.0" cy="537.4" r="2.5" fill="#f97316" stroke="white" stroke-width="1"/>
  <text x="425.0" y="665" text-anchor="middle" fill="#111827" font-size="12" font-weight="700">10 Mbps</text>
  <line x1="90" y1="872.0" x2="760" y2="872.0" stroke="#e5e7eb" stroke-width="1"/>
  <text x="82" y="872.0" text-anchor="end" dominant-baseline="middle" fill="#374151" font-size="9">10</text>
  <line x1="90" y1="839.2" x2="760" y2="839.2" stroke="#e5e7eb" stroke-width="1"/>
  <text x="82" y="839.2" text-anchor="end" dominant-baseline="middle" fill="#374151" font-size="9">100</text>
  <line x1="90" y1="806.4" x2="760" y2="806.4" stroke="#e5e7eb" stroke-width="1"/>
  <text x="82" y="806.4" text-anchor="end" dominant-baseline="middle" fill="#374151" font-size="9">1k</text>
  <line x1="90" y1="773.5" x2="760" y2="773.5" stroke="#e5e7eb" stroke-width="1"/>
  <text x="82" y="773.5" text-anchor="end" dominant-baseline="middle" fill="#374151" font-size="9">10k</text>
  <line x1="90" y1="740.7" x2="760" y2="740.7" stroke="#e5e7eb" stroke-width="1"/>
  <text x="82" y="740.7" text-anchor="end" dominant-baseline="middle" fill="#374151" font-size="9">100k</text>
  <line x1="90" y1="707.8" x2="760" y2="707.8" stroke="#e5e7eb" stroke-width="1"/>
  <text x="82" y="707.8" text-anchor="end" dominant-baseline="middle" fill="#374151" font-size="9">1M</text>
  <line x1="90" y1="675.0" x2="760" y2="675.0" stroke="#e5e7eb" stroke-width="1"/>
  <text x="82" y="675.0" text-anchor="end" dominant-baseline="middle" fill="#374151" font-size="9">10M</text>
  <line x1="90" y1="858.3" x2="760" y2="858.3" stroke="#e5e7eb" stroke-width="1" stroke-dasharray="3,6"/>
  <text x="768" y="858.3" text-anchor="start" dominant-baseline="middle" fill="#6b7280" font-size="9">10 MB/s</text>
  <line x1="90" y1="821.7" x2="760" y2="821.7" stroke="#e5e7eb" stroke-width="1" stroke-dasharray="3,6"/>
  <text x="768" y="821.7" text-anchor="start" dominant-baseline="middle" fill="#6b7280" font-size="9">20 MB/s</text>
  <line x1="90" y1="785.0" x2="760" y2="785.0" stroke="#e5e7eb" stroke-width="1" stroke-dasharray="3,6"/>
  <text x="768" y="785.0" text-anchor="start" dominant-baseline="middle" fill="#6b7280" font-size="9">30 MB/s</text>
  <line x1="90" y1="748.3" x2="760" y2="748.3" stroke="#e5e7eb" stroke-width="1" stroke-dasharray="3,6"/>
  <text x="768" y="748.3" text-anchor="start" dominant-baseline="middle" fill="#6b7280" font-size="9">40 MB/s</text>
  <line x1="90" y1="711.7" x2="760" y2="711.7" stroke="#e5e7eb" stroke-width="1" stroke-dasharray="3,6"/>
  <text x="768" y="711.7" text-anchor="start" dominant-baseline="middle" fill="#6b7280" font-size="9">50 MB/s</text>
  <line x1="90" y1="675.0" x2="760" y2="675.0" stroke="#e5e7eb" stroke-width="1" stroke-dasharray="3,6"/>
  <text x="768" y="675.0" text-anchor="start" dominant-baseline="middle" fill="#6b7280" font-size="9">60 MB/s</text>
  <line x1="90.0" y1="675" x2="90.0" y2="895" stroke="#e5e7eb" stroke-width="1"/>
  <line x1="134.7" y1="675" x2="134.7" y2="895" stroke="#e5e7eb" stroke-width="1"/>
  <line x1="179.3" y1="675" x2="179.3" y2="895" stroke="#e5e7eb" stroke-width="1"/>
  <line x1="224.0" y1="675" x2="224.0" y2="895" stroke="#e5e7eb" stroke-width="1"/>
  <line x1="268.7" y1="675" x2="268.7" y2="895" stroke="#e5e7eb" stroke-width="1"/>
  <line x1="313.3" y1="675" x2="313.3" y2="895" stroke="#e5e7eb" stroke-width="1"/>
  <line x1="358.0" y1="675" x2="358.0" y2="895" stroke="#e5e7eb" stroke-width="1"/>
  <line x1="402.7" y1="675" x2="402.7" y2="895" stroke="#e5e7eb" stroke-width="1"/>
  <line x1="447.3" y1="675" x2="447.3" y2="895" stroke="#e5e7eb" stroke-width="1"/>
  <line x1="492.0" y1="675" x2="492.0" y2="895" stroke="#e5e7eb" stroke-width="1"/>
  <line x1="536.7" y1="675" x2="536.7" y2="895" stroke="#e5e7eb" stroke-width="1"/>
  <line x1="581.3" y1="675" x2="581.3" y2="895" stroke="#e5e7eb" stroke-width="1"/>
  <line x1="626.0" y1="675" x2="626.0" y2="895" stroke="#e5e7eb" stroke-width="1"/>
  <line x1="670.7" y1="675" x2="670.7" y2="895" stroke="#e5e7eb" stroke-width="1"/>
  <line x1="715.3" y1="675" x2="715.3" y2="895" stroke="#e5e7eb" stroke-width="1"/>
  <line x1="760.0" y1="675" x2="760.0" y2="895" stroke="#e5e7eb" stroke-width="1"/>
  <line x1="90" y1="675" x2="90" y2="895" stroke="#9ca3af" stroke-width="1.5"/>
  <line x1="760" y1="675" x2="760" y2="895" stroke="#9ca3af" stroke-width="1.5"/>
  <line x1="90" y1="895" x2="760" y2="895" stroke="#9ca3af" stroke-width="1.5"/>
  <text x="90.0" y="909" text-anchor="middle" fill="#374151" font-size="8">8 B</text>
  <text x="134.7" y="909" text-anchor="middle" fill="#374151" font-size="8">16 B</text>
  <text x="179.3" y="909" text-anchor="middle" fill="#374151" font-size="8">32 B</text>
  <text x="224.0" y="909" text-anchor="middle" fill="#374151" font-size="8">64 B</text>
  <text x="268.7" y="909" text-anchor="middle" fill="#374151" font-size="8">128 B</text>
  <text x="313.3" y="909" text-anchor="middle" fill="#374151" font-size="8">256 B</text>
  <text x="358.0" y="909" text-anchor="middle" fill="#374151" font-size="8">512 B</text>
  <text x="402.7" y="909" text-anchor="middle" fill="#374151" font-size="8">1 KiB</text>
  <text x="447.3" y="909" text-anchor="middle" fill="#374151" font-size="8">2 KiB</text>
  <text x="492.0" y="909" text-anchor="middle" fill="#374151" font-size="8">4 KiB</text>
  <text x="536.7" y="909" text-anchor="middle" fill="#374151" font-size="8">8 KiB</text>
  <text x="581.3" y="909" text-anchor="middle" fill="#374151" font-size="8">16 KiB</text>
  <text x="626.0" y="909" text-anchor="middle" fill="#374151" font-size="8">32 KiB</text>
  <text x="670.7" y="909" text-anchor="middle" fill="#374151" font-size="8">64 KiB</text>
  <text x="715.3" y="909" text-anchor="middle" fill="#374151" font-size="8">128 KiB</text>
  <text x="760.0" y="909" text-anchor="middle" fill="#374151" font-size="8">256 KiB</text>
  <text x="40" y="785.0" text-anchor="middle" dominant-baseline="middle" fill="#374151" font-size="10" font-weight="600" transform="rotate(-90,40,785.0)">msg/s (log)</text>
  <text x="840" y="785.0" text-anchor="middle" dominant-baseline="middle" fill="#6b7280" font-size="10" font-weight="600" transform="rotate(90,840,785.0)">virtual throughput</text>
  <polyline points="90.0,734.3 134.7,744.2 179.3,754.1 224.0,764.0 268.7,773.9 313.3,783.7 358.0,793.6 402.7,803.5 447.3,813.4 492.0,823.3 536.7,833.2 581.3,843.1 626.0,852.9 670.7,862.8 715.3,872.7 760.0,882.6" fill="none" stroke="#eab308" stroke-width="1.5" stroke-dasharray="5,3"/>
  <polyline points="90.0,740.1 134.7,747.4 179.3,755.8 224.0,764.8 268.7,774.3 313.3,784.0 358.0,788.0 402.7,794.0 447.3,799.8 492.0,807.1 536.7,814.6 581.3,822.9 626.0,831.9 670.7,841.4 715.3,851.2 760.0,861.0" fill="none" stroke="#60a5fa" stroke-width="1.5" stroke-dasharray="5,3"/>
  <polyline points="90.0,740.1 134.7,747.4 179.3,755.8 224.0,764.8 268.7,755.0 313.3,755.0 358.0,755.4 402.7,756.2 447.3,778.1 492.0,798.1 536.7,810.1 581.3,820.6 626.0,830.7 670.7,840.8 715.3,850.9 760.0,860.9" fill="none" stroke="#1d4ed8" stroke-width="1.5" stroke-dasharray="5,3"/>
  <polyline points="90.0,740.1 134.7,747.4 179.3,755.8 224.0,750.6 268.7,751.1 313.3,751.7 358.0,751.7 402.7,751.7 447.3,775.4 492.0,794.4 536.7,806.9 581.3,816.9 626.0,825.1 670.7,835.1 715.3,845.1 760.0,855.0" fill="none" stroke="#f97316" stroke-width="1.5" stroke-dasharray="5,3"/>
  <polyline points="90.0,890.4 134.7,890.4 179.3,890.4 224.0,890.4 268.7,890.4 313.3,890.4 358.0,890.4 402.7,890.4 447.3,890.4 492.0,890.4 536.7,890.4 581.3,890.4 626.0,890.4 670.7,890.4 715.3,890.4 760.0,890.4" fill="none" stroke="#eab308" stroke-width="2.5" stroke-linecap="round" stroke-linejoin="round"/>
  <circle cx="90.0" cy="890.4" r="2.5" fill="#eab308" stroke="white" stroke-width="1"/>
  <circle cx="134.7" cy="890.4" r="2.5" fill="#eab308" stroke="white" stroke-width="1"/>
  <circle cx="179.3" cy="890.4" r="2.5" fill="#eab308" stroke="white" stroke-width="1"/>
  <circle cx="224.0" cy="890.4" r="2.5" fill="#eab308" stroke="white" stroke-width="1"/>
  <circle cx="268.7" cy="890.4" r="2.5" fill="#eab308" stroke="white" stroke-width="1"/>
  <circle cx="313.3" cy="890.4" r="2.5" fill="#eab308" stroke="white" stroke-width="1"/>
  <circle cx="358.0" cy="890.4" r="2.5" fill="#eab308" stroke="white" stroke-width="1"/>
  <circle cx="402.7" cy="890.4" r="2.5" fill="#eab308" stroke="white" stroke-width="1"/>
  <circle cx="447.3" cy="890.4" r="2.5" fill="#eab308" stroke="white" stroke-width="1"/>
  <circle cx="492.0" cy="890.4" r="2.5" fill="#eab308" stroke="white" stroke-width="1"/>
  <circle cx="536.7" cy="890.4" r="2.5" fill="#eab308" stroke="white" stroke-width="1"/>
  <circle cx="581.3" cy="890.4" r="2.5" fill="#eab308" stroke="white" stroke-width="1"/>
  <circle cx="626.0" cy="890.4" r="2.5" fill="#eab308" stroke="white" stroke-width="1"/>
  <circle cx="670.7" cy="890.4" r="2.5" fill="#eab308" stroke="white" stroke-width="1"/>
  <circle cx="715.3" cy="890.4" r="2.5" fill="#eab308" stroke="white" stroke-width="1"/>
  <circle cx="760.0" cy="890.4" r="2.5" fill="#eab308" stroke="white" stroke-width="1"/>
  <polyline points="90.0,891.9 134.7,891.3 179.3,890.9 224.0,890.7 268.7,890.6 313.3,890.5 358.0,888.2 402.7,886.1 447.3,883.1 492.0,880.7 536.7,878.1 581.3,876.1 626.0,875.0 670.7,874.3 715.3,874.2 760.0,874.2" fill="none" stroke="#60a5fa" stroke-width="2.5" stroke-linecap="round" stroke-linejoin="round"/>
  <circle cx="90.0" cy="891.9" r="2.5" fill="#60a5fa" stroke="white" stroke-width="1"/>
  <circle cx="134.7" cy="891.3" r="2.5" fill="#60a5fa" stroke="white" stroke-width="1"/>
  <circle cx="179.3" cy="890.9" r="2.5" fill="#60a5fa" stroke="white" stroke-width="1"/>
  <circle cx="224.0" cy="890.7" r="2.5" fill="#60a5fa" stroke="white" stroke-width="1"/>
  <circle cx="268.7" cy="890.6" r="2.5" fill="#60a5fa" stroke="white" stroke-width="1"/>
  <circle cx="313.3" cy="890.5" r="2.5" fill="#60a5fa" stroke="white" stroke-width="1"/>
  <circle cx="358.0" cy="888.2" r="2.5" fill="#60a5fa" stroke="white" stroke-width="1"/>
  <circle cx="402.7" cy="886.1" r="2.5" fill="#60a5fa" stroke="white" stroke-width="1"/>
  <circle cx="447.3" cy="883.1" r="2.5" fill="#60a5fa" stroke="white" stroke-width="1"/>
  <circle cx="492.0" cy="880.7" r="2.5" fill="#60a5fa" stroke="white" stroke-width="1"/>
  <circle cx="536.7" cy="878.1" r="2.5" fill="#60a5fa" stroke="white" stroke-width="1"/>
  <circle cx="581.3" cy="876.1" r="2.5" fill="#60a5fa" stroke="white" stroke-width="1"/>
  <circle cx="626.0" cy="875.0" r="2.5" fill="#60a5fa" stroke="white" stroke-width="1"/>
  <circle cx="670.7" cy="874.3" r="2.5" fill="#60a5fa" stroke="white" stroke-width="1"/>
  <circle cx="715.3" cy="874.2" r="2.5" fill="#60a5fa" stroke="white" stroke-width="1"/>
  <circle cx="760.0" cy="874.2" r="2.5" fill="#60a5fa" stroke="white" stroke-width="1"/>
  <polyline points="90.0,891.9 134.7,891.3 179.3,890.9 224.0,890.7 268.7,877.7 313.3,860.5 358.0,828.0 402.7,768.2 447.3,840.4 492.0,868.2 536.7,871.9 581.3,872.9 626.0,873.2 670.7,873.4 715.3,873.8 760.0,874.0" fill="none" stroke="#1d4ed8" stroke-width="2.5" stroke-linecap="round" stroke-linejoin="round"/>
  <circle cx="90.0" cy="891.9" r="2.5" fill="#1d4ed8" stroke="white" stroke-width="1"/>
  <circle cx="134.7" cy="891.3" r="2.5" fill="#1d4ed8" stroke="white" stroke-width="1"/>
  <circle cx="179.3" cy="890.9" r="2.5" fill="#1d4ed8" stroke="white" stroke-width="1"/>
  <circle cx="224.0" cy="890.7" r="2.5" fill="#1d4ed8" stroke="white" stroke-width="1"/>
  <circle cx="268.7" cy="877.7" r="2.5" fill="#1d4ed8" stroke="white" stroke-width="1"/>
  <circle cx="313.3" cy="860.5" r="2.5" fill="#1d4ed8" stroke="white" stroke-width="1"/>
  <circle cx="358.0" cy="828.0" r="2.5" fill="#1d4ed8" stroke="white" stroke-width="1"/>
  <circle cx="402.7" cy="768.2" r="2.5" fill="#1d4ed8" stroke="white" stroke-width="1"/>
  <circle cx="447.3" cy="840.4" r="2.5" fill="#1d4ed8" stroke="white" stroke-width="1"/>
  <circle cx="492.0" cy="868.2" r="2.5" fill="#1d4ed8" stroke="white" stroke-width="1"/>
  <circle cx="536.7" cy="871.9" r="2.5" fill="#1d4ed8" stroke="white" stroke-width="1"/>
  <circle cx="581.3" cy="872.9" r="2.5" fill="#1d4ed8" stroke="white" stroke-width="1"/>
  <circle cx="626.0" cy="873.2" r="2.5" fill="#1d4ed8" stroke="white" stroke-width="1"/>
  <circle cx="670.7" cy="873.4" r="2.5" fill="#1d4ed8" stroke="white" stroke-width="1"/>
  <circle cx="715.3" cy="873.8" r="2.5" fill="#1d4ed8" stroke="white" stroke-width="1"/>
  <circle cx="760.0" cy="874.0" r="2.5" fill="#1d4ed8" stroke="white" stroke-width="1"/>
  <polyline points="90.0,891.9 134.7,891.3 179.3,890.9 224.0,883.3 268.7,872.4 313.3,851.5 358.0,808.1 402.7,721.2 447.3,829.4 492.0,860.2 536.7,866.1 581.3,866.3 626.0,862.8 670.7,863.0 715.3,863.1 760.0,863.2" fill="none" stroke="#f97316" stroke-width="2.5" stroke-linecap="round" stroke-linejoin="round"/>
  <circle cx="90.0" cy="891.9" r="2.5" fill="#f97316" stroke="white" stroke-width="1"/>
  <circle cx="134.7" cy="891.3" r="2.5" fill="#f97316" stroke="white" stroke-width="1"/>
  <circle cx="179.3" cy="890.9" r="2.5" fill="#f97316" stroke="white" stroke-width="1"/>
  <circle cx="224.0" cy="883.3" r="2.5" fill="#f97316" stroke="white" stroke-width="1"/>
  <circle cx="268.7" cy="872.4" r="2.5" fill="#f97316" stroke="white" stroke-width="1"/>
  <circle cx="313.3" cy="851.5" r="2.5" fill="#f97316" stroke="white" stroke-width="1"/>
  <circle cx="358.0" cy="808.1" r="2.5" fill="#f97316" stroke="white" stroke-width="1"/>
  <circle cx="402.7" cy="721.2" r="2.5" fill="#f97316" stroke="white" stroke-width="1"/>
  <circle cx="447.3" cy="829.4" r="2.5" fill="#f97316" stroke="white" stroke-width="1"/>
  <circle cx="492.0" cy="860.2" r="2.5" fill="#f97316" stroke="white" stroke-width="1"/>
  <circle cx="536.7" cy="866.1" r="2.5" fill="#f97316" stroke="white" stroke-width="1"/>
  <circle cx="581.3" cy="866.3" r="2.5" fill="#f97316" stroke="white" stroke-width="1"/>
  <circle cx="626.0" cy="862.8" r="2.5" fill="#f97316" stroke="white" stroke-width="1"/>
  <circle cx="670.7" cy="863.0" r="2.5" fill="#f97316" stroke="white" stroke-width="1"/>
  <circle cx="715.3" cy="863.1" r="2.5" fill="#f97316" stroke="white" stroke-width="1"/>
  <circle cx="760.0" cy="863.2" r="2.5" fill="#f97316" stroke="white" stroke-width="1"/>
  <line x1="90" y1="927" x2="104" y2="927" stroke="#eab308" stroke-width="1.5" stroke-dasharray="4,3"/>
  <line x1="90" y1="939" x2="104" y2="939" stroke="#eab308" stroke-width="2.5"/>
  <text x="108" y="931" fill="#374151" font-size="10" font-weight="500">tcp</text>
  <line x1="258" y1="927" x2="272" y2="927" stroke="#60a5fa" stroke-width="1.5" stroke-dasharray="4,3"/>
  <line x1="258" y1="939" x2="272" y2="939" stroke="#60a5fa" stroke-width="2.5"/>
  <text x="276" y="931" fill="#374151" font-size="10" font-weight="500">lz4</text>
  <line x1="425" y1="927" x2="439" y2="927" stroke="#1d4ed8" stroke-width="1.5" stroke-dasharray="4,3"/>
  <line x1="425" y1="939" x2="439" y2="939" stroke="#1d4ed8" stroke-width="2.5"/>
  <text x="443" y="931" fill="#374151" font-size="10" font-weight="500">lz4+dict</text>
  <line x1="592" y1="927" x2="606" y2="927" stroke="#f97316" stroke-width="1.5" stroke-dasharray="4,3"/>
  <line x1="592" y1="939" x2="606" y2="939" stroke="#f97316" stroke-width="2.5"/>
  <text x="610" y="931" fill="#374151" font-size="10" font-weight="500">zstd</text>
  <text x="425.0" y="957" text-anchor="middle" fill="#9ca3af" font-size="9">dashed = msg/s log (left) · solid = virtual throughput (right)</text>
</svg>
