<svg xmlns="http://www.w3.org/2000/svg" viewBox="0 0 850 640" font-family="system-ui, -apple-system, sans-serif">
  <rect width="850" height="640" fill="white"/>
  <text x="425.0" y="18" text-anchor="middle" fill="#111827" font-size="13" font-weight="700">PUSH/PULL throughput — 2-process, TCP loopback (higher is better)</text>
  <line x1="90" y1="211.2" x2="760" y2="211.2" stroke="#e5e7eb" stroke-width="1"/>
  <text x="82" y="211.2" text-anchor="end" dominant-baseline="middle" fill="#374151" font-size="10">4M</text>
  <line x1="90" y1="152.5" x2="760" y2="152.5" stroke="#e5e7eb" stroke-width="1"/>
  <text x="82" y="152.5" text-anchor="end" dominant-baseline="middle" fill="#374151" font-size="10">8M</text>
  <line x1="90" y1="93.8" x2="760" y2="93.8" stroke="#e5e7eb" stroke-width="1"/>
  <text x="82" y="93.8" text-anchor="end" dominant-baseline="middle" fill="#374151" font-size="10">12M</text>
  <line x1="90" y1="35.0" x2="760" y2="35.0" stroke="#e5e7eb" stroke-width="1"/>
  <text x="82" y="35.0" text-anchor="end" dominant-baseline="middle" fill="#374151" font-size="10">16M</text>
  <line x1="90.0" y1="35" x2="90.0" y2="270" stroke="#e5e7eb" stroke-width="1"/>
  <line x1="137.9" y1="35" x2="137.9" y2="270" stroke="#e5e7eb" stroke-width="1"/>
  <line x1="185.7" y1="35" x2="185.7" y2="270" stroke="#e5e7eb" stroke-width="1"/>
  <line x1="233.6" y1="35" x2="233.6" y2="270" stroke="#e5e7eb" stroke-width="1"/>
  <line x1="281.4" y1="35" x2="281.4" y2="270" stroke="#e5e7eb" stroke-width="1"/>
  <line x1="329.3" y1="35" x2="329.3" y2="270" stroke="#e5e7eb" stroke-width="1"/>
  <line x1="377.1" y1="35" x2="377.1" y2="270" stroke="#e5e7eb" stroke-width="1"/>
  <line x1="425.0" y1="35" x2="425.0" y2="270" stroke="#e5e7eb" stroke-width="1"/>
  <line x1="472.9" y1="35" x2="472.9" y2="270" stroke="#e5e7eb" stroke-width="1"/>
  <line x1="520.7" y1="35" x2="520.7" y2="270" stroke="#e5e7eb" stroke-width="1"/>
  <line x1="568.6" y1="35" x2="568.6" y2="270" stroke="#e5e7eb" stroke-width="1"/>
  <line x1="616.4" y1="35" x2="616.4" y2="270" stroke="#e5e7eb" stroke-width="1"/>
  <line x1="664.3" y1="35" x2="664.3" y2="270" stroke="#e5e7eb" stroke-width="1"/>
  <line x1="712.1" y1="35" x2="712.1" y2="270" stroke="#e5e7eb" stroke-width="1"/>
  <line x1="760.0" y1="35" x2="760.0" y2="270" stroke="#e5e7eb" stroke-width="1"/>
  <line x1="90" y1="223.0" x2="760" y2="223.0" stroke="#e5e7eb" stroke-width="1" stroke-dasharray="3,6"/>
  <text x="768" y="223.0" text-anchor="start" dominant-baseline="middle" fill="#6b7280" font-size="10">2 GB/s</text>
  <line x1="90" y1="176.0" x2="760" y2="176.0" stroke="#e5e7eb" stroke-width="1" stroke-dasharray="3,6"/>
  <text x="768" y="176.0" text-anchor="start" dominant-baseline="middle" fill="#6b7280" font-size="10">4 GB/s</text>
  <line x1="90" y1="129.0" x2="760" y2="129.0" stroke="#e5e7eb" stroke-width="1" stroke-dasharray="3,6"/>
  <text x="768" y="129.0" text-anchor="start" dominant-baseline="middle" fill="#6b7280" font-size="10">6 GB/s</text>
  <line x1="90" y1="82.0" x2="760" y2="82.0" stroke="#e5e7eb" stroke-width="1" stroke-dasharray="3,6"/>
  <text x="768" y="82.0" text-anchor="start" dominant-baseline="middle" fill="#6b7280" font-size="10">8 GB/s</text>
  <line x1="90" y1="35.0" x2="760" y2="35.0" stroke="#e5e7eb" stroke-width="1" stroke-dasharray="3,6"/>
  <text x="768" y="35.0" text-anchor="start" dominant-baseline="middle" fill="#6b7280" font-size="10">10 GB/s</text>
  <line x1="90" y1="35" x2="90" y2="270" stroke="#9ca3af" stroke-width="1.5"/>
  <line x1="760" y1="35" x2="760" y2="270" stroke="#9ca3af" stroke-width="1.5"/>
  <line x1="90" y1="270" x2="760" y2="270" stroke="#9ca3af" stroke-width="1.5"/>
  <text x="40" y="152.5" text-anchor="middle" dominant-baseline="middle" fill="#374151" font-size="10" font-weight="600" transform="rotate(-90,40,152.5)">msg/s</text>
  <text x="812" y="152.5" text-anchor="middle" dominant-baseline="middle" fill="#6b7280" font-size="10" font-weight="600" transform="rotate(90,812,152.5)">throughput</text>
  <polyline points="90.0,263.4 137.9,263.9 185.7,264.3 233.6,264.8 281.4,265.0 329.3,265.0 377.1,265.3 425.0,265.5 472.9,265.6 520.7,266.0 568.6,266.7 616.4,267.2 664.3,268.1 712.1,269.1 760.0,269.5" fill="none" stroke="#2563eb" stroke-width="2" stroke-dasharray="6,4"/>
  <polyline points="90.0,158.8 137.9,140.6 185.7,156.9 233.6,187.2 281.4,229.8 329.3,231.1 377.1,240.2 425.0,253.0 472.9,260.2 520.7,264.6 568.6,267.3 616.4,268.6 664.3,268.9 712.1,269.2 760.0,269.5" fill="none" stroke="#eab308" stroke-width="2" stroke-dasharray="6,4"/>
  <polyline points="90.0,160.3 137.9,162.9 185.7,191.7 233.6,187.6 281.4,192.7 329.3,197.0 377.1,211.0 425.0,222.1 472.9,238.3 520.7,251.8 568.6,260.8 616.4,265.1 664.3,267.6 712.1,269.0 760.0,269.5" fill="none" stroke="#f97316" stroke-width="2" stroke-dasharray="6,4"/>
  <polyline points="90.0,44.8 137.9,70.2 185.7,99.9 233.6,122.7 281.4,154.4 329.3,195.7 377.1,211.4 425.0,230.1 472.9,243.3 520.7,254.7 568.6,260.7 616.4,265.1 664.3,267.5 712.1,269.0 760.0,269.1" fill="none" stroke="#dc2626" stroke-width="2" stroke-dasharray="6,4"/>
  <polyline points="90.0,269.9 137.9,269.8 185.7,269.7 233.6,269.5 281.4,269.0 329.3,268.0 377.1,266.2 425.0,262.7 472.9,255.9 520.7,244.2 568.6,227.7 616.4,197.2 664.3,168.9 712.1,171.3 760.0,173.7" fill="none" stroke="#2563eb" stroke-width="2.5" stroke-linecap="round" stroke-linejoin="round"/>
  <circle cx="90.0" cy="269.9" r="3" fill="#2563eb" stroke="white" stroke-width="1"/>
  <circle cx="137.9" cy="269.8" r="3" fill="#2563eb" stroke="white" stroke-width="1"/>
  <circle cx="185.7" cy="269.7" r="3" fill="#2563eb" stroke="white" stroke-width="1"/>
  <circle cx="233.6" cy="269.5" r="3" fill="#2563eb" stroke="white" stroke-width="1"/>
  <circle cx="281.4" cy="269.0" r="3" fill="#2563eb" stroke="white" stroke-width="1"/>
  <circle cx="329.3" cy="268.0" r="3" fill="#2563eb" stroke="white" stroke-width="1"/>
  <circle cx="377.1" cy="266.2" r="3" fill="#2563eb" stroke="white" stroke-width="1"/>
  <circle cx="425.0" cy="262.7" r="3" fill="#2563eb" stroke="white" stroke-width="1"/>
  <circle cx="472.9" cy="255.9" r="3" fill="#2563eb" stroke="white" stroke-width="1"/>
  <circle cx="520.7" cy="244.2" r="3" fill="#2563eb" stroke="white" stroke-width="1"/>
  <circle cx="568.6" cy="227.7" r="3" fill="#2563eb" stroke="white" stroke-width="1"/>
  <circle cx="616.4" cy="197.2" r="3" fill="#2563eb" stroke="white" stroke-width="1"/>
  <circle cx="664.3" cy="168.9" r="3" fill="#2563eb" stroke="white" stroke-width="1"/>
  <circle cx="712.1" cy="171.3" r="3" fill="#2563eb" stroke="white" stroke-width="1"/>
  <circle cx="760.0" cy="173.7" r="3" fill="#2563eb" stroke="white" stroke-width="1"/>
  <polyline points="90.0,268.6 137.9,266.8 185.7,264.4 233.6,261.7 281.4,261.9 329.3,254.4 377.1,246.5 425.0,241.8 472.9,237.1 520.7,234.8 568.6,234.8 616.4,234.8 664.3,213.6 712.1,187.8 760.0,168.9" fill="none" stroke="#eab308" stroke-width="2.5" stroke-linecap="round" stroke-linejoin="round"/>
  <circle cx="90.0" cy="268.6" r="3" fill="#eab308" stroke="white" stroke-width="1"/>
  <circle cx="137.9" cy="266.8" r="3" fill="#eab308" stroke="white" stroke-width="1"/>
  <circle cx="185.7" cy="264.4" r="3" fill="#eab308" stroke="white" stroke-width="1"/>
  <circle cx="233.6" cy="261.7" r="3" fill="#eab308" stroke="white" stroke-width="1"/>
  <circle cx="281.4" cy="261.9" r="3" fill="#eab308" stroke="white" stroke-width="1"/>
  <circle cx="329.3" cy="254.4" r="3" fill="#eab308" stroke="white" stroke-width="1"/>
  <circle cx="377.1" cy="246.5" r="3" fill="#eab308" stroke="white" stroke-width="1"/>
  <circle cx="425.0" cy="241.8" r="3" fill="#eab308" stroke="white" stroke-width="1"/>
  <circle cx="472.9" cy="237.1" r="3" fill="#eab308" stroke="white" stroke-width="1"/>
  <circle cx="520.7" cy="234.8" r="3" fill="#eab308" stroke="white" stroke-width="1"/>
  <circle cx="568.6" cy="234.8" r="3" fill="#eab308" stroke="white" stroke-width="1"/>
  <circle cx="616.4" cy="234.8" r="3" fill="#eab308" stroke="white" stroke-width="1"/>
  <circle cx="664.3" cy="213.6" r="3" fill="#eab308" stroke="white" stroke-width="1"/>
  <circle cx="712.1" cy="187.8" r="3" fill="#eab308" stroke="white" stroke-width="1"/>
  <circle cx="760.0" cy="168.9" r="3" fill="#eab308" stroke="white" stroke-width="1"/>
  <polyline points="90.0,268.6 137.9,267.3 185.7,266.1 233.6,261.8 281.4,254.6 329.3,239.4 377.1,220.7 425.0,192.4 472.9,166.6 520.7,150.1 568.6,150.1 616.4,140.8 664.3,143.1 712.1,166.6 760.0,157.2" fill="none" stroke="#f97316" stroke-width="2.5" stroke-linecap="round" stroke-linejoin="round"/>
  <circle cx="90.0" cy="268.6" r="3" fill="#f97316" stroke="white" stroke-width="1"/>
  <circle cx="137.9" cy="267.3" r="3" fill="#f97316" stroke="white" stroke-width="1"/>
  <circle cx="185.7" cy="266.1" r="3" fill="#f97316" stroke="white" stroke-width="1"/>
  <circle cx="233.6" cy="261.8" r="3" fill="#f97316" stroke="white" stroke-width="1"/>
  <circle cx="281.4" cy="254.6" r="3" fill="#f97316" stroke="white" stroke-width="1"/>
  <circle cx="329.3" cy="239.4" r="3" fill="#f97316" stroke="white" stroke-width="1"/>
  <circle cx="377.1" cy="220.7" r="3" fill="#f97316" stroke="white" stroke-width="1"/>
  <circle cx="425.0" cy="192.4" r="3" fill="#f97316" stroke="white" stroke-width="1"/>
  <circle cx="472.9" cy="166.6" r="3" fill="#f97316" stroke="white" stroke-width="1"/>
  <circle cx="520.7" cy="150.1" r="3" fill="#f97316" stroke="white" stroke-width="1"/>
  <circle cx="568.6" cy="150.1" r="3" fill="#f97316" stroke="white" stroke-width="1"/>
  <circle cx="616.4" cy="140.8" r="3" fill="#f97316" stroke="white" stroke-width="1"/>
  <circle cx="664.3" cy="143.1" r="3" fill="#f97316" stroke="white" stroke-width="1"/>
  <circle cx="712.1" cy="166.6" r="3" fill="#f97316" stroke="white" stroke-width="1"/>
  <circle cx="760.0" cy="157.2" r="3" fill="#f97316" stroke="white" stroke-width="1"/>
  <polyline points="90.0,267.2 137.9,265.0 185.7,261.5 233.6,255.3 281.4,246.5 329.3,239.4 377.1,223.0 425.0,204.2 472.9,183.1 520.7,168.9 568.6,147.8 616.4,140.8 664.3,140.8 712.1,166.6 760.0,72.6" fill="none" stroke="#dc2626" stroke-width="2.5" stroke-linecap="round" stroke-linejoin="round"/>
  <circle cx="90.0" cy="267.2" r="3" fill="#dc2626" stroke="white" stroke-width="1"/>
  <circle cx="137.9" cy="265.0" r="3" fill="#dc2626" stroke="white" stroke-width="1"/>
  <circle cx="185.7" cy="261.5" r="3" fill="#dc2626" stroke="white" stroke-width="1"/>
  <circle cx="233.6" cy="255.3" r="3" fill="#dc2626" stroke="white" stroke-width="1"/>
  <circle cx="281.4" cy="246.5" r="3" fill="#dc2626" stroke="white" stroke-width="1"/>
  <circle cx="329.3" cy="239.4" r="3" fill="#dc2626" stroke="white" stroke-width="1"/>
  <circle cx="377.1" cy="223.0" r="3" fill="#dc2626" stroke="white" stroke-width="1"/>
  <circle cx="425.0" cy="204.2" r="3" fill="#dc2626" stroke="white" stroke-width="1"/>
  <circle cx="472.9" cy="183.1" r="3" fill="#dc2626" stroke="white" stroke-width="1"/>
  <circle cx="520.7" cy="168.9" r="3" fill="#dc2626" stroke="white" stroke-width="1"/>
  <circle cx="568.6" cy="147.8" r="3" fill="#dc2626" stroke="white" stroke-width="1"/>
  <circle cx="616.4" cy="140.8" r="3" fill="#dc2626" stroke="white" stroke-width="1"/>
  <circle cx="664.3" cy="140.8" r="3" fill="#dc2626" stroke="white" stroke-width="1"/>
  <circle cx="712.1" cy="166.6" r="3" fill="#dc2626" stroke="white" stroke-width="1"/>
  <circle cx="760.0" cy="72.6" r="3" fill="#dc2626" stroke="white" stroke-width="1"/>
  <text x="90.0" y="284" text-anchor="middle" fill="#374151" font-size="8.5">8 B</text>
  <text x="137.9" y="284" text-anchor="middle" fill="#374151" font-size="8.5">16 B</text>
  <text x="185.7" y="284" text-anchor="middle" fill="#374151" font-size="8.5">32 B</text>
  <text x="233.6" y="284" text-anchor="middle" fill="#374151" font-size="8.5">64 B</text>
  <text x="281.4" y="284" text-anchor="middle" fill="#374151" font-size="8.5">128 B</text>
  <text x="329.3" y="284" text-anchor="middle" fill="#374151" font-size="8.5">256 B</text>
  <text x="377.1" y="284" text-anchor="middle" fill="#374151" font-size="8.5">512 B</text>
  <text x="425.0" y="284" text-anchor="middle" fill="#374151" font-size="8.5">1 KiB</text>
  <text x="472.9" y="284" text-anchor="middle" fill="#374151" font-size="8.5">2 KiB</text>
  <text x="520.7" y="284" text-anchor="middle" fill="#374151" font-size="8.5">4 KiB</text>
  <text x="568.6" y="284" text-anchor="middle" fill="#374151" font-size="8.5">8 KiB</text>
  <text x="616.4" y="284" text-anchor="middle" fill="#374151" font-size="8.5">16 KiB</text>
  <text x="664.3" y="284" text-anchor="middle" fill="#374151" font-size="8.5">32 KiB</text>
  <text x="712.1" y="284" text-anchor="middle" fill="#374151" font-size="8.5">64 KiB</text>
  <text x="760.0" y="284" text-anchor="middle" fill="#374151" font-size="8.5">128 KiB</text>
  <text x="425.0" y="330" text-anchor="middle" fill="#111827" font-size="13" font-weight="700">REQ/REP latency — 2-process, TCP loopback (p50 µs, lower is better)</text>
  <line x1="90" y1="508.3" x2="760" y2="508.3" stroke="#e5e7eb" stroke-width="1"/>
  <text x="82" y="508.3" text-anchor="end" dominant-baseline="middle" fill="#374151" font-size="10">25</text>
  <line x1="90" y1="476.7" x2="760" y2="476.7" stroke="#e5e7eb" stroke-width="1"/>
  <text x="82" y="476.7" text-anchor="end" dominant-baseline="middle" fill="#374151" font-size="10">50</text>
  <line x1="90" y1="445.0" x2="760" y2="445.0" stroke="#e5e7eb" stroke-width="1"/>
  <text x="82" y="445.0" text-anchor="end" dominant-baseline="middle" fill="#374151" font-size="10">75</text>
  <line x1="90" y1="413.3" x2="760" y2="413.3" stroke="#e5e7eb" stroke-width="1"/>
  <text x="82" y="413.3" text-anchor="end" dominant-baseline="middle" fill="#374151" font-size="10">100</text>
  <line x1="90" y1="381.7" x2="760" y2="381.7" stroke="#e5e7eb" stroke-width="1"/>
  <text x="82" y="381.7" text-anchor="end" dominant-baseline="middle" fill="#374151" font-size="10">125</text>
  <line x1="90" y1="350.0" x2="760" y2="350.0" stroke="#e5e7eb" stroke-width="1"/>
  <text x="82" y="350.0" text-anchor="end" dominant-baseline="middle" fill="#374151" font-size="10">150</text>
  <line x1="90.0" y1="350" x2="90.0" y2="540" stroke="#e5e7eb" stroke-width="1"/>
  <line x1="137.9" y1="350" x2="137.9" y2="540" stroke="#e5e7eb" stroke-width="1"/>
  <line x1="185.7" y1="350" x2="185.7" y2="540" stroke="#e5e7eb" stroke-width="1"/>
  <line x1="233.6" y1="350" x2="233.6" y2="540" stroke="#e5e7eb" stroke-width="1"/>
  <line x1="281.4" y1="350" x2="281.4" y2="540" stroke="#e5e7eb" stroke-width="1"/>
  <line x1="329.3" y1="350" x2="329.3" y2="540" stroke="#e5e7eb" stroke-width="1"/>
  <line x1="377.1" y1="350" x2="377.1" y2="540" stroke="#e5e7eb" stroke-width="1"/>
  <line x1="425.0" y1="350" x2="425.0" y2="540" stroke="#e5e7eb" stroke-width="1"/>
  <line x1="472.9" y1="350" x2="472.9" y2="540" stroke="#e5e7eb" stroke-width="1"/>
  <line x1="520.7" y1="350" x2="520.7" y2="540" stroke="#e5e7eb" stroke-width="1"/>
  <line x1="568.6" y1="350" x2="568.6" y2="540" stroke="#e5e7eb" stroke-width="1"/>
  <line x1="616.4" y1="350" x2="616.4" y2="540" stroke="#e5e7eb" stroke-width="1"/>
  <line x1="664.3" y1="350" x2="664.3" y2="540" stroke="#e5e7eb" stroke-width="1"/>
  <line x1="712.1" y1="350" x2="712.1" y2="540" stroke="#e5e7eb" stroke-width="1"/>
  <line x1="760.0" y1="350" x2="760.0" y2="540" stroke="#e5e7eb" stroke-width="1"/>
  <line x1="90" y1="350" x2="90" y2="540" stroke="#9ca3af" stroke-width="1.5"/>
  <line x1="90" y1="540" x2="760" y2="540" stroke="#9ca3af" stroke-width="1.5"/>
  <text x="40" y="445.0" text-anchor="middle" dominant-baseline="middle" fill="#374151" font-size="10" font-weight="600" transform="rotate(-90,40,445.0)">p50 latency (µs)</text>
  <polyline points="90.0,454.2 137.9,457.4 185.7,455.3 233.6,451.3 281.4,455.6 329.3,452.3 377.1,449.7 425.0,451.3 472.9,455.0 520.7,451.0 568.6,438.7 616.4,434.0 664.3,415.2 712.1,398.1 760.0,372.8" fill="none" stroke="#eab308" stroke-width="2.5" stroke-linecap="round" stroke-linejoin="round"/>
  <circle cx="90.0" cy="454.2" r="3" fill="#eab308" stroke="white" stroke-width="1"/>
  <circle cx="137.9" cy="457.4" r="3" fill="#eab308" stroke="white" stroke-width="1"/>
  <circle cx="185.7" cy="455.3" r="3" fill="#eab308" stroke="white" stroke-width="1"/>
  <circle cx="233.6" cy="451.3" r="3" fill="#eab308" stroke="white" stroke-width="1"/>
  <circle cx="281.4" cy="455.6" r="3" fill="#eab308" stroke="white" stroke-width="1"/>
  <circle cx="329.3" cy="452.3" r="3" fill="#eab308" stroke="white" stroke-width="1"/>
  <circle cx="377.1" cy="449.7" r="3" fill="#eab308" stroke="white" stroke-width="1"/>
  <circle cx="425.0" cy="451.3" r="3" fill="#eab308" stroke="white" stroke-width="1"/>
  <circle cx="472.9" cy="455.0" r="3" fill="#eab308" stroke="white" stroke-width="1"/>
  <circle cx="520.7" cy="451.0" r="3" fill="#eab308" stroke="white" stroke-width="1"/>
  <circle cx="568.6" cy="438.7" r="3" fill="#eab308" stroke="white" stroke-width="1"/>
  <circle cx="616.4" cy="434.0" r="3" fill="#eab308" stroke="white" stroke-width="1"/>
  <circle cx="664.3" cy="415.2" r="3" fill="#eab308" stroke="white" stroke-width="1"/>
  <circle cx="712.1" cy="398.1" r="3" fill="#eab308" stroke="white" stroke-width="1"/>
  <circle cx="760.0" cy="372.8" r="3" fill="#eab308" stroke="white" stroke-width="1"/>
  <polyline points="90.0,430.1 137.9,442.6 185.7,435.8 233.6,439.6 281.4,441.1 329.3,438.7 377.1,444.4 425.0,440.6 472.9,441.3 520.7,436.5 568.6,435.9 616.4,430.2 664.3,422.8 712.1,385.5 760.0,370.3" fill="none" stroke="#f97316" stroke-width="2.5" stroke-linecap="round" stroke-linejoin="round"/>
  <circle cx="90.0" cy="430.1" r="3" fill="#f97316" stroke="white" stroke-width="1"/>
  <circle cx="137.9" cy="442.6" r="3" fill="#f97316" stroke="white" stroke-width="1"/>
  <circle cx="185.7" cy="435.8" r="3" fill="#f97316" stroke="white" stroke-width="1"/>
  <circle cx="233.6" cy="439.6" r="3" fill="#f97316" stroke="white" stroke-width="1"/>
  <circle cx="281.4" cy="441.1" r="3" fill="#f97316" stroke="white" stroke-width="1"/>
  <circle cx="329.3" cy="438.7" r="3" fill="#f97316" stroke="white" stroke-width="1"/>
  <circle cx="377.1" cy="444.4" r="3" fill="#f97316" stroke="white" stroke-width="1"/>
  <circle cx="425.0" cy="440.6" r="3" fill="#f97316" stroke="white" stroke-width="1"/>
  <circle cx="472.9" cy="441.3" r="3" fill="#f97316" stroke="white" stroke-width="1"/>
  <circle cx="520.7" cy="436.5" r="3" fill="#f97316" stroke="white" stroke-width="1"/>
  <circle cx="568.6" cy="435.9" r="3" fill="#f97316" stroke="white" stroke-width="1"/>
  <circle cx="616.4" cy="430.2" r="3" fill="#f97316" stroke="white" stroke-width="1"/>
  <circle cx="664.3" cy="422.8" r="3" fill="#f97316" stroke="white" stroke-width="1"/>
  <circle cx="712.1" cy="385.5" r="3" fill="#f97316" stroke="white" stroke-width="1"/>
  <circle cx="760.0" cy="370.3" r="3" fill="#f97316" stroke="white" stroke-width="1"/>
  <polyline points="90.0,489.7 137.9,491.5 185.7,487.1 233.6,490.7 281.4,491.4 329.3,492.0 377.1,491.4 425.0,492.2 472.9,490.5 520.7,489.6 568.6,485.5 616.4,477.9 664.3,465.0 712.1,442.7 760.0,408.3" fill="none" stroke="#2563eb" stroke-width="2.5" stroke-linecap="round" stroke-linejoin="round"/>
  <circle cx="90.0" cy="489.7" r="3" fill="#2563eb" stroke="white" stroke-width="1"/>
  <circle cx="137.9" cy="491.5" r="3" fill="#2563eb" stroke="white" stroke-width="1"/>
  <circle cx="185.7" cy="487.1" r="3" fill="#2563eb" stroke="white" stroke-width="1"/>
  <circle cx="233.6" cy="490.7" r="3" fill="#2563eb" stroke="white" stroke-width="1"/>
  <circle cx="281.4" cy="491.4" r="3" fill="#2563eb" stroke="white" stroke-width="1"/>
  <circle cx="329.3" cy="492.0" r="3" fill="#2563eb" stroke="white" stroke-width="1"/>
  <circle cx="377.1" cy="491.4" r="3" fill="#2563eb" stroke="white" stroke-width="1"/>
  <circle cx="425.0" cy="492.2" r="3" fill="#2563eb" stroke="white" stroke-width="1"/>
  <circle cx="472.9" cy="490.5" r="3" fill="#2563eb" stroke="white" stroke-width="1"/>
  <circle cx="520.7" cy="489.6" r="3" fill="#2563eb" stroke="white" stroke-width="1"/>
  <circle cx="568.6" cy="485.5" r="3" fill="#2563eb" stroke="white" stroke-width="1"/>
  <circle cx="616.4" cy="477.9" r="3" fill="#2563eb" stroke="white" stroke-width="1"/>
  <circle cx="664.3" cy="465.0" r="3" fill="#2563eb" stroke="white" stroke-width="1"/>
  <circle cx="712.1" cy="442.7" r="3" fill="#2563eb" stroke="white" stroke-width="1"/>
  <circle cx="760.0" cy="408.3" r="3" fill="#2563eb" stroke="white" stroke-width="1"/>
  <polyline points="90.0,494.9 137.9,495.9 185.7,495.2 233.6,494.5 281.4,494.8 329.3,492.5 377.1,494.5 425.0,494.9 472.9,492.8 520.7,490.3 568.6,487.7 616.4,484.9 664.3,480.3 712.1,456.9 760.0,361.4" fill="none" stroke="#dc2626" stroke-width="2.5" stroke-linecap="round" stroke-linejoin="round"/>
  <circle cx="90.0" cy="494.9" r="3" fill="#dc2626" stroke="white" stroke-width="1"/>
  <circle cx="137.9" cy="495.9" r="3" fill="#dc2626" stroke="white" stroke-width="1"/>
  <circle cx="185.7" cy="495.2" r="3" fill="#dc2626" stroke="white" stroke-width="1"/>
  <circle cx="233.6" cy="494.5" r="3" fill="#dc2626" stroke="white" stroke-width="1"/>
  <circle cx="281.4" cy="494.8" r="3" fill="#dc2626" stroke="white" stroke-width="1"/>
  <circle cx="329.3" cy="492.5" r="3" fill="#dc2626" stroke="white" stroke-width="1"/>
  <circle cx="377.1" cy="494.5" r="3" fill="#dc2626" stroke="white" stroke-width="1"/>
  <circle cx="425.0" cy="494.9" r="3" fill="#dc2626" stroke="white" stroke-width="1"/>
  <circle cx="472.9" cy="492.8" r="3" fill="#dc2626" stroke="white" stroke-width="1"/>
  <circle cx="520.7" cy="490.3" r="3" fill="#dc2626" stroke="white" stroke-width="1"/>
  <circle cx="568.6" cy="487.7" r="3" fill="#dc2626" stroke="white" stroke-width="1"/>
  <circle cx="616.4" cy="484.9" r="3" fill="#dc2626" stroke="white" stroke-width="1"/>
  <circle cx="664.3" cy="480.3" r="3" fill="#dc2626" stroke="white" stroke-width="1"/>
  <circle cx="712.1" cy="456.9" r="3" fill="#dc2626" stroke="white" stroke-width="1"/>
  <circle cx="760.0" cy="361.4" r="3" fill="#dc2626" stroke="white" stroke-width="1"/>
  <text x="90.0" y="554" text-anchor="middle" fill="#374151" font-size="8.5">8 B</text>
  <text x="137.9" y="554" text-anchor="middle" fill="#374151" font-size="8.5">16 B</text>
  <text x="185.7" y="554" text-anchor="middle" fill="#374151" font-size="8.5">32 B</text>
  <text x="233.6" y="554" text-anchor="middle" fill="#374151" font-size="8.5">64 B</text>
  <text x="281.4" y="554" text-anchor="middle" fill="#374151" font-size="8.5">128 B</text>
  <text x="329.3" y="554" text-anchor="middle" fill="#374151" font-size="8.5">256 B</text>
  <text x="377.1" y="554" text-anchor="middle" fill="#374151" font-size="8.5">512 B</text>
  <text x="425.0" y="554" text-anchor="middle" fill="#374151" font-size="8.5">1 KiB</text>
  <text x="472.9" y="554" text-anchor="middle" fill="#374151" font-size="8.5">2 KiB</text>
  <text x="520.7" y="554" text-anchor="middle" fill="#374151" font-size="8.5">4 KiB</text>
  <text x="568.6" y="554" text-anchor="middle" fill="#374151" font-size="8.5">8 KiB</text>
  <text x="616.4" y="554" text-anchor="middle" fill="#374151" font-size="8.5">16 KiB</text>
  <text x="664.3" y="554" text-anchor="middle" fill="#374151" font-size="8.5">32 KiB</text>
  <text x="712.1" y="554" text-anchor="middle" fill="#374151" font-size="8.5">64 KiB</text>
  <text x="760.0" y="554" text-anchor="middle" fill="#374151" font-size="8.5">128 KiB</text>
  <line x1="145" y1="600" x2="159" y2="600" stroke="#eab308" stroke-width="2.5"/>
  <circle cx="152" cy="600" r="2.5" fill="#eab308"/>
  <text x="165" y="604" fill="#374151" font-size="11" font-weight="500">libzmq v4.3.5</text>
  <line x1="285" y1="600" x2="299" y2="600" stroke="#dc2626" stroke-width="2.5"/>
  <circle cx="292" cy="600" r="2.5" fill="#dc2626"/>
  <text x="305" y="604" fill="#374151" font-size="11" font-weight="500">omq-compio</text>
  <line x1="425" y1="600" x2="439" y2="600" stroke="#f97316" stroke-width="2.5"/>
  <circle cx="432" cy="600" r="2.5" fill="#f97316"/>
  <text x="445" y="604" fill="#374151" font-size="11" font-weight="500">omq-tokio</text>
  <line x1="565" y1="600" x2="579" y2="600" stroke="#2563eb" stroke-width="2.5"/>
  <circle cx="572" cy="600" r="2.5" fill="#2563eb"/>
  <text x="585" y="604" fill="#374151" font-size="11" font-weight="500">zmq.rs v0.6.0</text>
</svg>
