<svg xmlns="http://www.w3.org/2000/svg" viewBox="0 0 850 665" font-family="system-ui, -apple-system, sans-serif">
  <rect width="850" height="665" fill="white"/>
  <text x="425.0" y="18.0" text-anchor="middle" fill="#111827" font-size="13" font-weight="700">PUSH/PULL throughput — inproc (higher is better)</text>
  <line x1="90.0" y1="240.6" x2="760.0" y2="240.6" stroke="#e5e7eb" stroke-width="1"/>
  <text x="82.0" y="240.6" text-anchor="end" dominant-baseline="middle" fill="#374151" font-size="10">2M</text>
  <line x1="90.0" y1="211.2" x2="760.0" y2="211.2" stroke="#e5e7eb" stroke-width="1"/>
  <text x="82.0" y="211.2" text-anchor="end" dominant-baseline="middle" fill="#374151" font-size="10">4M</text>
  <line x1="90.0" y1="181.9" x2="760.0" y2="181.9" stroke="#e5e7eb" stroke-width="1"/>
  <text x="82.0" y="181.9" text-anchor="end" dominant-baseline="middle" fill="#374151" font-size="10">6M</text>
  <line x1="90.0" y1="152.5" x2="760.0" y2="152.5" stroke="#e5e7eb" stroke-width="1"/>
  <text x="82.0" y="152.5" text-anchor="end" dominant-baseline="middle" fill="#374151" font-size="10">8M</text>
  <line x1="90.0" y1="123.1" x2="760.0" y2="123.1" stroke="#e5e7eb" stroke-width="1"/>
  <text x="82.0" y="123.1" text-anchor="end" dominant-baseline="middle" fill="#374151" font-size="10">10M</text>
  <line x1="90.0" y1="93.8" x2="760.0" y2="93.8" stroke="#e5e7eb" stroke-width="1"/>
  <text x="82.0" y="93.8" text-anchor="end" dominant-baseline="middle" fill="#374151" font-size="10">12M</text>
  <line x1="90.0" y1="64.4" x2="760.0" y2="64.4" stroke="#e5e7eb" stroke-width="1"/>
  <text x="82.0" y="64.4" text-anchor="end" dominant-baseline="middle" fill="#374151" font-size="10">14M</text>
  <line x1="90.0" y1="35.0" x2="760.0" y2="35.0" stroke="#e5e7eb" stroke-width="1"/>
  <text x="82.0" y="35.0" text-anchor="end" dominant-baseline="middle" fill="#374151" font-size="10">16M</text>
  <line x1="90.0" y1="270.0" x2="760.0" y2="270.0" stroke="#e5e7eb" stroke-width="1" stroke-dasharray="3,6"/>
  <text x="768.0" y="270.0" text-anchor="start" dominant-baseline="middle" fill="#6b7280" font-size="10">0.01 GB/s</text>
  <line x1="90.0" y1="255.9" x2="760.0" y2="255.9" stroke="#e5e7eb" stroke-width="1" stroke-dasharray="2,8"/>
  <line x1="90.0" y1="237.1" x2="760.0" y2="237.1" stroke="#e5e7eb" stroke-width="1" stroke-dasharray="2,8"/>
  <line x1="90.0" y1="223.0" x2="760.0" y2="223.0" stroke="#e5e7eb" stroke-width="1" stroke-dasharray="3,6"/>
  <text x="768.0" y="223.0" text-anchor="start" dominant-baseline="middle" fill="#6b7280" font-size="10">0.1 GB/s</text>
  <line x1="90.0" y1="208.9" x2="760.0" y2="208.9" stroke="#e5e7eb" stroke-width="1" stroke-dasharray="2,8"/>
  <line x1="90.0" y1="190.1" x2="760.0" y2="190.1" stroke="#e5e7eb" stroke-width="1" stroke-dasharray="2,8"/>
  <line x1="90.0" y1="176.0" x2="760.0" y2="176.0" stroke="#e5e7eb" stroke-width="1" stroke-dasharray="3,6"/>
  <text x="768.0" y="176.0" text-anchor="start" dominant-baseline="middle" fill="#6b7280" font-size="10">1 GB/s</text>
  <line x1="90.0" y1="161.9" x2="760.0" y2="161.9" stroke="#e5e7eb" stroke-width="1" stroke-dasharray="2,8"/>
  <line x1="90.0" y1="143.1" x2="760.0" y2="143.1" stroke="#e5e7eb" stroke-width="1" stroke-dasharray="2,8"/>
  <line x1="90.0" y1="129.0" x2="760.0" y2="129.0" stroke="#e5e7eb" stroke-width="1" stroke-dasharray="3,6"/>
  <text x="768.0" y="129.0" text-anchor="start" dominant-baseline="middle" fill="#6b7280" font-size="10">10 GB/s</text>
  <line x1="90.0" y1="114.9" x2="760.0" y2="114.9" stroke="#e5e7eb" stroke-width="1" stroke-dasharray="2,8"/>
  <line x1="90.0" y1="96.1" x2="760.0" y2="96.1" stroke="#e5e7eb" stroke-width="1" stroke-dasharray="2,8"/>
  <line x1="90.0" y1="82.0" x2="760.0" y2="82.0" stroke="#e5e7eb" stroke-width="1" stroke-dasharray="3,6"/>
  <text x="768.0" y="82.0" text-anchor="start" dominant-baseline="middle" fill="#6b7280" font-size="10">100 GB/s</text>
  <line x1="90.0" y1="67.9" x2="760.0" y2="67.9" stroke="#e5e7eb" stroke-width="1" stroke-dasharray="2,8"/>
  <line x1="90.0" y1="49.1" x2="760.0" y2="49.1" stroke="#e5e7eb" stroke-width="1" stroke-dasharray="2,8"/>
  <line x1="90.0" y1="35.0" x2="760.0" y2="35.0" stroke="#e5e7eb" stroke-width="1" stroke-dasharray="3,6"/>
  <text x="768.0" y="35.0" text-anchor="start" dominant-baseline="middle" fill="#6b7280" font-size="10">1000 GB/s</text>
  <line x1="90.0" y1="35.0" x2="90.0" y2="270.0" stroke="#e5e7eb" stroke-width="1"/>
  <line x1="145.8" y1="35.0" x2="145.8" y2="270.0" stroke="#e5e7eb" stroke-width="1"/>
  <line x1="201.7" y1="35.0" x2="201.7" y2="270.0" stroke="#e5e7eb" stroke-width="1"/>
  <line x1="257.5" y1="35.0" x2="257.5" y2="270.0" stroke="#e5e7eb" stroke-width="1"/>
  <line x1="313.3" y1="35.0" x2="313.3" y2="270.0" stroke="#e5e7eb" stroke-width="1"/>
  <line x1="369.2" y1="35.0" x2="369.2" y2="270.0" stroke="#e5e7eb" stroke-width="1"/>
  <line x1="425.0" y1="35.0" x2="425.0" y2="270.0" stroke="#e5e7eb" stroke-width="1"/>
  <line x1="480.8" y1="35.0" x2="480.8" y2="270.0" stroke="#e5e7eb" stroke-width="1"/>
  <line x1="536.7" y1="35.0" x2="536.7" y2="270.0" stroke="#e5e7eb" stroke-width="1"/>
  <line x1="592.5" y1="35.0" x2="592.5" y2="270.0" stroke="#e5e7eb" stroke-width="1"/>
  <line x1="648.3" y1="35.0" x2="648.3" y2="270.0" stroke="#e5e7eb" stroke-width="1"/>
  <line x1="704.2" y1="35.0" x2="704.2" y2="270.0" stroke="#e5e7eb" stroke-width="1"/>
  <line x1="760.0" y1="35.0" x2="760.0" y2="270.0" stroke="#e5e7eb" stroke-width="1"/>
  <line x1="90.0" y1="35.0" x2="90.0" y2="270.0" stroke="#9ca3af" stroke-width="1.5"/>
  <line x1="760.0" y1="35.0" x2="760.0" y2="270.0" stroke="#9ca3af" stroke-width="1.5"/>
  <line x1="90.0" y1="270.0" x2="760.0" y2="270.0" stroke="#9ca3af" stroke-width="1.5"/>
  <text x="40.0" y="152.5" text-anchor="middle" fill="#374151" font-size="10" font-weight="600" transform="rotate(-90,40.0,152.5)">msg/s</text>
  <polyline points="90.0,107.7 145.8,102.7 201.7,109.4 257.5,173.4 313.3,231.2 369.2,229.8 425.0,227.6 480.8,235.9 536.7,239.9 592.5,243.3 648.3,243.1 704.2,249.8 760.0,258.5" fill="none" stroke="#eab308" stroke-width="2" stroke-dasharray="6,4"/>
  <polyline points="90.0,222.5 145.8,223.4 201.7,219.5 257.5,211.2 313.3,214.3 369.2,211.6 425.0,214.1 480.8,224.4 536.7,207.5 592.5,222.0 648.3,220.4 704.2,219.5 760.0,224.4" fill="none" stroke="#f97316" stroke-width="2" stroke-dasharray="6,4"/>
  <polyline points="90.0,207.2 145.8,206.8 201.7,205.2 257.5,208.1 313.3,208.5 369.2,209.9 425.0,210.3 480.8,205.9 536.7,205.7 592.5,210.1 648.3,208.4 704.2,212.7 760.0,209.0" fill="none" stroke="#8b5cf6" stroke-width="2" stroke-dasharray="6,4"/>
  <polyline points="90.0,51.0 145.8,55.9 201.7,62.6 257.5,98.8 313.3,106.0 369.2,83.4 425.0,91.8 480.8,106.4 536.7,104.2 592.5,106.3 648.3,98.6 704.2,100.5 760.0,98.1" fill="none" stroke="#dc2626" stroke-width="2" stroke-dasharray="6,4"/>
  <polyline points="90.0,225.5 145.8,210.8 201.7,197.4 257.5,193.7 313.3,198.2 369.2,183.3 425.0,168.0 480.8,158.3 536.7,146.7 592.5,135.0 648.3,120.7 704.2,112.4 760.0,109.9" fill="none" stroke="#eab308" stroke-width="2.5" stroke-linecap="round" stroke-linejoin="round"/>
  <circle cx="90.0" cy="225.5" r="3" fill="#eab308" stroke="white" stroke-width="1"/>
  <circle cx="145.8" cy="210.8" r="3" fill="#eab308" stroke="white" stroke-width="1"/>
  <circle cx="201.7" cy="197.4" r="3" fill="#eab308" stroke="white" stroke-width="1"/>
  <circle cx="257.5" cy="193.7" r="3" fill="#eab308" stroke="white" stroke-width="1"/>
  <circle cx="313.3" cy="198.2" r="3" fill="#eab308" stroke="white" stroke-width="1"/>
  <circle cx="369.2" cy="183.3" r="3" fill="#eab308" stroke="white" stroke-width="1"/>
  <circle cx="425.0" cy="168.0" r="3" fill="#eab308" stroke="white" stroke-width="1"/>
  <circle cx="480.8" cy="158.3" r="3" fill="#eab308" stroke="white" stroke-width="1"/>
  <circle cx="536.7" cy="146.7" r="3" fill="#eab308" stroke="white" stroke-width="1"/>
  <circle cx="592.5" cy="135.0" r="3" fill="#eab308" stroke="white" stroke-width="1"/>
  <circle cx="648.3" cy="120.7" r="3" fill="#eab308" stroke="white" stroke-width="1"/>
  <circle cx="704.2" cy="112.4" r="3" fill="#eab308" stroke="white" stroke-width="1"/>
  <circle cx="760.0" cy="109.9" r="3" fill="#eab308" stroke="white" stroke-width="1"/>
  <polyline points="90.0,250.6 145.8,236.8 201.7,221.1 257.5,203.8 313.3,190.7 369.2,175.6 425.0,162.4 480.8,152.4 536.7,131.8 592.5,123.0 648.3,108.2 704.2,93.7 760.0,81.7" fill="none" stroke="#f97316" stroke-width="2.5" stroke-linecap="round" stroke-linejoin="round"/>
  <circle cx="90.0" cy="250.6" r="3" fill="#f97316" stroke="white" stroke-width="1"/>
  <circle cx="145.8" cy="236.8" r="3" fill="#f97316" stroke="white" stroke-width="1"/>
  <circle cx="201.7" cy="221.1" r="3" fill="#f97316" stroke="white" stroke-width="1"/>
  <circle cx="257.5" cy="203.8" r="3" fill="#f97316" stroke="white" stroke-width="1"/>
  <circle cx="313.3" cy="190.7" r="3" fill="#f97316" stroke="white" stroke-width="1"/>
  <circle cx="369.2" cy="175.6" r="3" fill="#f97316" stroke="white" stroke-width="1"/>
  <circle cx="425.0" cy="162.4" r="3" fill="#f97316" stroke="white" stroke-width="1"/>
  <circle cx="480.8" cy="152.4" r="3" fill="#f97316" stroke="white" stroke-width="1"/>
  <circle cx="536.7" cy="131.8" r="3" fill="#f97316" stroke="white" stroke-width="1"/>
  <circle cx="592.5" cy="123.0" r="3" fill="#f97316" stroke="white" stroke-width="1"/>
  <circle cx="648.3" cy="108.2" r="3" fill="#f97316" stroke="white" stroke-width="1"/>
  <circle cx="704.2" cy="93.7" r="3" fill="#f97316" stroke="white" stroke-width="1"/>
  <circle cx="760.0" cy="81.7" r="3" fill="#f97316" stroke="white" stroke-width="1"/>
  <polyline points="90.0,244.9 145.8,230.6 201.7,216.0 257.5,202.7 313.3,188.7 369.2,175.1 425.0,161.0 480.8,145.4 536.7,131.2 592.5,118.5 648.3,103.8 704.2,91.1 760.0,75.7" fill="none" stroke="#8b5cf6" stroke-width="2.5" stroke-linecap="round" stroke-linejoin="round"/>
  <circle cx="90.0" cy="244.9" r="3" fill="#8b5cf6" stroke="white" stroke-width="1"/>
  <circle cx="145.8" cy="230.6" r="3" fill="#8b5cf6" stroke="white" stroke-width="1"/>
  <circle cx="201.7" cy="216.0" r="3" fill="#8b5cf6" stroke="white" stroke-width="1"/>
  <circle cx="257.5" cy="202.7" r="3" fill="#8b5cf6" stroke="white" stroke-width="1"/>
  <circle cx="313.3" cy="188.7" r="3" fill="#8b5cf6" stroke="white" stroke-width="1"/>
  <circle cx="369.2" cy="175.1" r="3" fill="#8b5cf6" stroke="white" stroke-width="1"/>
  <circle cx="425.0" cy="161.0" r="3" fill="#8b5cf6" stroke="white" stroke-width="1"/>
  <circle cx="480.8" cy="145.4" r="3" fill="#8b5cf6" stroke="white" stroke-width="1"/>
  <circle cx="536.7" cy="131.2" r="3" fill="#8b5cf6" stroke="white" stroke-width="1"/>
  <circle cx="592.5" cy="118.5" r="3" fill="#8b5cf6" stroke="white" stroke-width="1"/>
  <circle cx="648.3" cy="103.8" r="3" fill="#8b5cf6" stroke="white" stroke-width="1"/>
  <circle cx="704.2" cy="91.1" r="3" fill="#8b5cf6" stroke="white" stroke-width="1"/>
  <circle cx="760.0" cy="75.7" r="3" fill="#8b5cf6" stroke="white" stroke-width="1"/>
  <polyline points="90.0,219.4 145.8,205.7 201.7,192.2 257.5,182.0 313.3,168.7 369.2,151.9 425.0,138.7 480.8,126.3 536.7,111.9 592.5,98.0 648.3,82.9 704.2,69.0 760.0,54.6" fill="none" stroke="#dc2626" stroke-width="2.5" stroke-linecap="round" stroke-linejoin="round"/>
  <circle cx="90.0" cy="219.4" r="3" fill="#dc2626" stroke="white" stroke-width="1"/>
  <circle cx="145.8" cy="205.7" r="3" fill="#dc2626" stroke="white" stroke-width="1"/>
  <circle cx="201.7" cy="192.2" r="3" fill="#dc2626" stroke="white" stroke-width="1"/>
  <circle cx="257.5" cy="182.0" r="3" fill="#dc2626" stroke="white" stroke-width="1"/>
  <circle cx="313.3" cy="168.7" r="3" fill="#dc2626" stroke="white" stroke-width="1"/>
  <circle cx="369.2" cy="151.9" r="3" fill="#dc2626" stroke="white" stroke-width="1"/>
  <circle cx="425.0" cy="138.7" r="3" fill="#dc2626" stroke="white" stroke-width="1"/>
  <circle cx="480.8" cy="126.3" r="3" fill="#dc2626" stroke="white" stroke-width="1"/>
  <circle cx="536.7" cy="111.9" r="3" fill="#dc2626" stroke="white" stroke-width="1"/>
  <circle cx="592.5" cy="98.0" r="3" fill="#dc2626" stroke="white" stroke-width="1"/>
  <circle cx="648.3" cy="82.9" r="3" fill="#dc2626" stroke="white" stroke-width="1"/>
  <circle cx="704.2" cy="69.0" r="3" fill="#dc2626" stroke="white" stroke-width="1"/>
  <circle cx="760.0" cy="54.6" r="3" fill="#dc2626" stroke="white" stroke-width="1"/>
  <text x="90.0" y="284.0" text-anchor="middle" fill="#374151" font-size="8.5">8 B</text>
  <text x="145.8" y="284.0" text-anchor="middle" fill="#374151" font-size="8.5">16 B</text>
  <text x="201.7" y="284.0" text-anchor="middle" fill="#374151" font-size="8.5">32 B</text>
  <text x="257.5" y="284.0" text-anchor="middle" fill="#374151" font-size="8.5">64 B</text>
  <text x="313.3" y="284.0" text-anchor="middle" fill="#374151" font-size="8.5">128 B</text>
  <text x="369.2" y="284.0" text-anchor="middle" fill="#374151" font-size="8.5">256 B</text>
  <text x="425.0" y="284.0" text-anchor="middle" fill="#374151" font-size="8.5">512 B</text>
  <text x="480.8" y="284.0" text-anchor="middle" fill="#374151" font-size="8.5">1 KiB</text>
  <text x="536.7" y="284.0" text-anchor="middle" fill="#374151" font-size="8.5">2 KiB</text>
  <text x="592.5" y="284.0" text-anchor="middle" fill="#374151" font-size="8.5">4 KiB</text>
  <text x="648.3" y="284.0" text-anchor="middle" fill="#374151" font-size="8.5">8 KiB</text>
  <text x="704.2" y="284.0" text-anchor="middle" fill="#374151" font-size="8.5">16 KiB</text>
  <text x="760.0" y="284.0" text-anchor="middle" fill="#374151" font-size="8.5">32 KiB</text>
  <text x="425.0" y="333.0" text-anchor="middle" fill="#111827" font-size="13" font-weight="700">REQ/REP latency — inproc (p50 µs, lower is better)</text>
  <line x1="90.0" y1="502.0" x2="760.0" y2="502.0" stroke="#e5e7eb" stroke-width="1"/>
  <text x="82.0" y="502.0" text-anchor="end" dominant-baseline="middle" fill="#374151" font-size="10">5</text>
  <line x1="90.0" y1="464.0" x2="760.0" y2="464.0" stroke="#e5e7eb" stroke-width="1"/>
  <text x="82.0" y="464.0" text-anchor="end" dominant-baseline="middle" fill="#374151" font-size="10">10</text>
  <line x1="90.0" y1="426.0" x2="760.0" y2="426.0" stroke="#e5e7eb" stroke-width="1"/>
  <text x="82.0" y="426.0" text-anchor="end" dominant-baseline="middle" fill="#374151" font-size="10">15</text>
  <line x1="90.0" y1="388.0" x2="760.0" y2="388.0" stroke="#e5e7eb" stroke-width="1"/>
  <text x="82.0" y="388.0" text-anchor="end" dominant-baseline="middle" fill="#374151" font-size="10">20</text>
  <line x1="90.0" y1="350.0" x2="760.0" y2="350.0" stroke="#e5e7eb" stroke-width="1"/>
  <text x="82.0" y="350.0" text-anchor="end" dominant-baseline="middle" fill="#374151" font-size="10">25</text>
  <line x1="90.0" y1="350.0" x2="90.0" y2="540.0" stroke="#e5e7eb" stroke-width="1"/>
  <line x1="145.8" y1="350.0" x2="145.8" y2="540.0" stroke="#e5e7eb" stroke-width="1"/>
  <line x1="201.7" y1="350.0" x2="201.7" y2="540.0" stroke="#e5e7eb" stroke-width="1"/>
  <line x1="257.5" y1="350.0" x2="257.5" y2="540.0" stroke="#e5e7eb" stroke-width="1"/>
  <line x1="313.3" y1="350.0" x2="313.3" y2="540.0" stroke="#e5e7eb" stroke-width="1"/>
  <line x1="369.2" y1="350.0" x2="369.2" y2="540.0" stroke="#e5e7eb" stroke-width="1"/>
  <line x1="425.0" y1="350.0" x2="425.0" y2="540.0" stroke="#e5e7eb" stroke-width="1"/>
  <line x1="480.8" y1="350.0" x2="480.8" y2="540.0" stroke="#e5e7eb" stroke-width="1"/>
  <line x1="536.7" y1="350.0" x2="536.7" y2="540.0" stroke="#e5e7eb" stroke-width="1"/>
  <line x1="592.5" y1="350.0" x2="592.5" y2="540.0" stroke="#e5e7eb" stroke-width="1"/>
  <line x1="648.3" y1="350.0" x2="648.3" y2="540.0" stroke="#e5e7eb" stroke-width="1"/>
  <line x1="704.2" y1="350.0" x2="704.2" y2="540.0" stroke="#e5e7eb" stroke-width="1"/>
  <line x1="760.0" y1="350.0" x2="760.0" y2="540.0" stroke="#e5e7eb" stroke-width="1"/>
  <line x1="90.0" y1="350.0" x2="90.0" y2="540.0" stroke="#9ca3af" stroke-width="1.5"/>
  <line x1="90.0" y1="540.0" x2="760.0" y2="540.0" stroke="#9ca3af" stroke-width="1.5"/>
  <text x="40.0" y="445.0" text-anchor="middle" fill="#374151" font-size="10" font-weight="600" transform="rotate(-90,40.0,445.0)">p50 latency (µs)</text>
  <polyline points="90.0,397.4 145.8,387.0 201.7,391.4 257.5,392.2 313.3,386.0 369.2,383.1 425.0,383.0 480.8,381.6 536.7,387.5 592.5,386.6 648.3,377.5 704.2,379.3 760.0,359.0" fill="none" stroke="#eab308" stroke-width="2.5" stroke-linecap="round" stroke-linejoin="round"/>
  <circle cx="90.0" cy="397.4" r="3" fill="#eab308" stroke="white" stroke-width="1"/>
  <circle cx="145.8" cy="387.0" r="3" fill="#eab308" stroke="white" stroke-width="1"/>
  <circle cx="201.7" cy="391.4" r="3" fill="#eab308" stroke="white" stroke-width="1"/>
  <circle cx="257.5" cy="392.2" r="3" fill="#eab308" stroke="white" stroke-width="1"/>
  <circle cx="313.3" cy="386.0" r="3" fill="#eab308" stroke="white" stroke-width="1"/>
  <circle cx="369.2" cy="383.1" r="3" fill="#eab308" stroke="white" stroke-width="1"/>
  <circle cx="425.0" cy="383.0" r="3" fill="#eab308" stroke="white" stroke-width="1"/>
  <circle cx="480.8" cy="381.6" r="3" fill="#eab308" stroke="white" stroke-width="1"/>
  <circle cx="536.7" cy="387.5" r="3" fill="#eab308" stroke="white" stroke-width="1"/>
  <circle cx="592.5" cy="386.6" r="3" fill="#eab308" stroke="white" stroke-width="1"/>
  <circle cx="648.3" cy="377.5" r="3" fill="#eab308" stroke="white" stroke-width="1"/>
  <circle cx="704.2" cy="379.3" r="3" fill="#eab308" stroke="white" stroke-width="1"/>
  <circle cx="760.0" cy="359.0" r="3" fill="#eab308" stroke="white" stroke-width="1"/>
  <polyline points="90.0,419.3 145.8,427.4 201.7,423.1 257.5,406.5 313.3,417.1 369.2,419.8 425.0,424.1 480.8,427.0 536.7,421.9 592.5,419.4 648.3,423.6 704.2,394.4 760.0,421.4" fill="none" stroke="#f97316" stroke-width="2.5" stroke-linecap="round" stroke-linejoin="round"/>
  <circle cx="90.0" cy="419.3" r="3" fill="#f97316" stroke="white" stroke-width="1"/>
  <circle cx="145.8" cy="427.4" r="3" fill="#f97316" stroke="white" stroke-width="1"/>
  <circle cx="201.7" cy="423.1" r="3" fill="#f97316" stroke="white" stroke-width="1"/>
  <circle cx="257.5" cy="406.5" r="3" fill="#f97316" stroke="white" stroke-width="1"/>
  <circle cx="313.3" cy="417.1" r="3" fill="#f97316" stroke="white" stroke-width="1"/>
  <circle cx="369.2" cy="419.8" r="3" fill="#f97316" stroke="white" stroke-width="1"/>
  <circle cx="425.0" cy="424.1" r="3" fill="#f97316" stroke="white" stroke-width="1"/>
  <circle cx="480.8" cy="427.0" r="3" fill="#f97316" stroke="white" stroke-width="1"/>
  <circle cx="536.7" cy="421.9" r="3" fill="#f97316" stroke="white" stroke-width="1"/>
  <circle cx="592.5" cy="419.4" r="3" fill="#f97316" stroke="white" stroke-width="1"/>
  <circle cx="648.3" cy="423.6" r="3" fill="#f97316" stroke="white" stroke-width="1"/>
  <circle cx="704.2" cy="394.4" r="3" fill="#f97316" stroke="white" stroke-width="1"/>
  <circle cx="760.0" cy="421.4" r="3" fill="#f97316" stroke="white" stroke-width="1"/>
  <polyline points="90.0,521.9 145.8,522.5 201.7,522.4 257.5,522.5 313.3,522.5 369.2,522.5 425.0,522.5 480.8,522.4 536.7,522.5 592.5,522.5 648.3,522.4 704.2,521.7 760.0,522.3" fill="none" stroke="#8b5cf6" stroke-width="2.5" stroke-linecap="round" stroke-linejoin="round"/>
  <circle cx="90.0" cy="521.9" r="3" fill="#8b5cf6" stroke="white" stroke-width="1"/>
  <circle cx="145.8" cy="522.5" r="3" fill="#8b5cf6" stroke="white" stroke-width="1"/>
  <circle cx="201.7" cy="522.4" r="3" fill="#8b5cf6" stroke="white" stroke-width="1"/>
  <circle cx="257.5" cy="522.5" r="3" fill="#8b5cf6" stroke="white" stroke-width="1"/>
  <circle cx="313.3" cy="522.5" r="3" fill="#8b5cf6" stroke="white" stroke-width="1"/>
  <circle cx="369.2" cy="522.5" r="3" fill="#8b5cf6" stroke="white" stroke-width="1"/>
  <circle cx="425.0" cy="522.5" r="3" fill="#8b5cf6" stroke="white" stroke-width="1"/>
  <circle cx="480.8" cy="522.4" r="3" fill="#8b5cf6" stroke="white" stroke-width="1"/>
  <circle cx="536.7" cy="522.5" r="3" fill="#8b5cf6" stroke="white" stroke-width="1"/>
  <circle cx="592.5" cy="522.5" r="3" fill="#8b5cf6" stroke="white" stroke-width="1"/>
  <circle cx="648.3" cy="522.4" r="3" fill="#8b5cf6" stroke="white" stroke-width="1"/>
  <circle cx="704.2" cy="521.7" r="3" fill="#8b5cf6" stroke="white" stroke-width="1"/>
  <circle cx="760.0" cy="522.3" r="3" fill="#8b5cf6" stroke="white" stroke-width="1"/>
  <polyline points="90.0,403.8 145.8,405.3 201.7,415.0 257.5,405.1 313.3,408.3 369.2,408.5 425.0,415.6 480.8,413.7 536.7,416.6 592.5,408.8 648.3,420.1 704.2,413.7 760.0,413.3" fill="none" stroke="#dc2626" stroke-width="2.5" stroke-linecap="round" stroke-linejoin="round"/>
  <circle cx="90.0" cy="403.8" r="3" fill="#dc2626" stroke="white" stroke-width="1"/>
  <circle cx="145.8" cy="405.3" r="3" fill="#dc2626" stroke="white" stroke-width="1"/>
  <circle cx="201.7" cy="415.0" r="3" fill="#dc2626" stroke="white" stroke-width="1"/>
  <circle cx="257.5" cy="405.1" r="3" fill="#dc2626" stroke="white" stroke-width="1"/>
  <circle cx="313.3" cy="408.3" r="3" fill="#dc2626" stroke="white" stroke-width="1"/>
  <circle cx="369.2" cy="408.5" r="3" fill="#dc2626" stroke="white" stroke-width="1"/>
  <circle cx="425.0" cy="415.6" r="3" fill="#dc2626" stroke="white" stroke-width="1"/>
  <circle cx="480.8" cy="413.7" r="3" fill="#dc2626" stroke="white" stroke-width="1"/>
  <circle cx="536.7" cy="416.6" r="3" fill="#dc2626" stroke="white" stroke-width="1"/>
  <circle cx="592.5" cy="408.8" r="3" fill="#dc2626" stroke="white" stroke-width="1"/>
  <circle cx="648.3" cy="420.1" r="3" fill="#dc2626" stroke="white" stroke-width="1"/>
  <circle cx="704.2" cy="413.7" r="3" fill="#dc2626" stroke="white" stroke-width="1"/>
  <circle cx="760.0" cy="413.3" r="3" fill="#dc2626" stroke="white" stroke-width="1"/>
  <text x="90.0" y="554.0" text-anchor="middle" fill="#374151" font-size="8.5">8 B</text>
  <text x="145.8" y="554.0" text-anchor="middle" fill="#374151" font-size="8.5">16 B</text>
  <text x="201.7" y="554.0" text-anchor="middle" fill="#374151" font-size="8.5">32 B</text>
  <text x="257.5" y="554.0" text-anchor="middle" fill="#374151" font-size="8.5">64 B</text>
  <text x="313.3" y="554.0" text-anchor="middle" fill="#374151" font-size="8.5">128 B</text>
  <text x="369.2" y="554.0" text-anchor="middle" fill="#374151" font-size="8.5">256 B</text>
  <text x="425.0" y="554.0" text-anchor="middle" fill="#374151" font-size="8.5">512 B</text>
  <text x="480.8" y="554.0" text-anchor="middle" fill="#374151" font-size="8.5">1 KiB</text>
  <text x="536.7" y="554.0" text-anchor="middle" fill="#374151" font-size="8.5">2 KiB</text>
  <text x="592.5" y="554.0" text-anchor="middle" fill="#374151" font-size="8.5">4 KiB</text>
  <text x="648.3" y="554.0" text-anchor="middle" fill="#374151" font-size="8.5">8 KiB</text>
  <text x="704.2" y="554.0" text-anchor="middle" fill="#374151" font-size="8.5">16 KiB</text>
  <text x="760.0" y="554.0" text-anchor="middle" fill="#374151" font-size="8.5">32 KiB</text>
  <line x1="145" y1="600" x2="159" y2="600" stroke="#eab308" stroke-width="2.5"/>
  <circle cx="152" cy="600" r="2.5" fill="#eab308"/>
  <text x="165" y="604" fill="#374151" font-size="11" font-weight="500">libzmq v4.3.5</text>
  <line x1="285" y1="600" x2="299" y2="600" stroke="#dc2626" stroke-width="2.5"/>
  <circle cx="292" cy="600" r="2.5" fill="#dc2626"/>
  <text x="305" y="604" fill="#374151" font-size="11" font-weight="500">omq-compio (MT)</text>
  <line x1="425" y1="600" x2="439" y2="600" stroke="#8b5cf6" stroke-width="2.5"/>
  <circle cx="432" cy="600" r="2.5" fill="#8b5cf6"/>
  <text x="445" y="604" fill="#374151" font-size="11" font-weight="500">omq-compio (ST)</text>
  <line x1="565" y1="600" x2="579" y2="600" stroke="#f97316" stroke-width="2.5"/>
  <circle cx="572" cy="600" r="2.5" fill="#f97316"/>
  <text x="585" y="604" fill="#374151" font-size="11" font-weight="500">omq-tokio</text>
  <line x1="265" y1="622" x2="285" y2="622" stroke="#6b7280" stroke-width="2" stroke-dasharray="6,4"/>
  <text x="291" y="626" fill="#6b7280" font-size="10">msg/s (left axis)</text>
  <line x1="435" y1="622" x2="455" y2="622" stroke="#6b7280" stroke-width="2"/>
  <circle cx="445" cy="622" r="2" fill="#6b7280"/>
  <text x="461" y="626" fill="#6b7280" font-size="10">throughput / GB/s (right axis, log)</text>
</svg>
