<svg xmlns="http://www.w3.org/2000/svg" viewBox="0 0 850 450" font-family="system-ui, -apple-system, sans-serif">
  <rect width="850" height="450" fill="white"/>
  <line x1="90" y1="350.0" x2="760" y2="350.0" stroke="#e5e7eb" stroke-width="1"/>
  <text x="82" y="350.0" text-anchor="end" dominant-baseline="middle" fill="#374151" font-size="10">0</text>
  <line x1="90" y1="289.0" x2="760" y2="289.0" stroke="#e5e7eb" stroke-width="1"/>
  <text x="82" y="289.0" text-anchor="end" dominant-baseline="middle" fill="#374151" font-size="10">200k</text>
  <line x1="90" y1="228.0" x2="760" y2="228.0" stroke="#e5e7eb" stroke-width="1"/>
  <text x="82" y="228.0" text-anchor="end" dominant-baseline="middle" fill="#374151" font-size="10">400k</text>
  <line x1="90" y1="167.0" x2="760" y2="167.0" stroke="#e5e7eb" stroke-width="1"/>
  <text x="82" y="167.0" text-anchor="end" dominant-baseline="middle" fill="#374151" font-size="10">600k</text>
  <line x1="90" y1="106.0" x2="760" y2="106.0" stroke="#e5e7eb" stroke-width="1"/>
  <text x="82" y="106.0" text-anchor="end" dominant-baseline="middle" fill="#374151" font-size="10">800k</text>
  <line x1="90" y1="45.0" x2="760" y2="45.0" stroke="#e5e7eb" stroke-width="1"/>
  <text x="82" y="45.0" text-anchor="end" dominant-baseline="middle" fill="#374151" font-size="10">1M</text>
  <line x1="90" y1="301.8" x2="760" y2="301.8" stroke="#e5e7eb" stroke-width="1" stroke-dasharray="3,6"/>
  <text x="768" y="301.8" text-anchor="start" dominant-baseline="middle" fill="#6b7280" font-size="10">150 MB/s</text>
  <line x1="90" y1="253.7" x2="760" y2="253.7" stroke="#e5e7eb" stroke-width="1" stroke-dasharray="3,6"/>
  <text x="768" y="253.7" text-anchor="start" dominant-baseline="middle" fill="#6b7280" font-size="10">300 MB/s</text>
  <line x1="90" y1="205.5" x2="760" y2="205.5" stroke="#e5e7eb" stroke-width="1" stroke-dasharray="3,6"/>
  <text x="768" y="205.5" text-anchor="start" dominant-baseline="middle" fill="#6b7280" font-size="10">450 MB/s</text>
  <line x1="90" y1="157.4" x2="760" y2="157.4" stroke="#e5e7eb" stroke-width="1" stroke-dasharray="3,6"/>
  <text x="768" y="157.4" text-anchor="start" dominant-baseline="middle" fill="#6b7280" font-size="10">600 MB/s</text>
  <line x1="90" y1="109.2" x2="760" y2="109.2" stroke="#e5e7eb" stroke-width="1" stroke-dasharray="3,6"/>
  <text x="768" y="109.2" text-anchor="start" dominant-baseline="middle" fill="#6b7280" font-size="10">750 MB/s</text>
  <line x1="90" y1="61.1" x2="760" y2="61.1" stroke="#e5e7eb" stroke-width="1" stroke-dasharray="3,6"/>
  <text x="768" y="61.1" text-anchor="start" dominant-baseline="middle" fill="#6b7280" font-size="10">900 MB/s</text>
  <line x1="90.0" y1="45" x2="90.0" y2="350" stroke="#e5e7eb" stroke-width="1"/>
  <line x1="224.0" y1="45" x2="224.0" y2="350" stroke="#e5e7eb" stroke-width="1"/>
  <line x1="358.0" y1="45" x2="358.0" y2="350" stroke="#e5e7eb" stroke-width="1"/>
  <line x1="492.0" y1="45" x2="492.0" y2="350" stroke="#e5e7eb" stroke-width="1"/>
  <line x1="626.0" y1="45" x2="626.0" y2="350" stroke="#e5e7eb" stroke-width="1"/>
  <line x1="760.0" y1="45" x2="760.0" y2="350" stroke="#e5e7eb" stroke-width="1"/>
  <line x1="90" y1="45" x2="90" y2="350" stroke="#9ca3af" stroke-width="1.5"/>
  <line x1="760" y1="45" x2="760" y2="350" stroke="#9ca3af" stroke-width="1.5"/>
  <line x1="90" y1="350" x2="760" y2="350" stroke="#9ca3af" stroke-width="1.5"/>
  <text x="90.0" y="366" text-anchor="middle" fill="#374151" font-size="9.5">128 B</text>
  <text x="224.0" y="366" text-anchor="middle" fill="#374151" font-size="9.5">512 B</text>
  <text x="358.0" y="366" text-anchor="middle" fill="#374151" font-size="9.5">2 KiB</text>
  <text x="492.0" y="366" text-anchor="middle" fill="#374151" font-size="9.5">8 KiB</text>
  <text x="626.0" y="366" text-anchor="middle" fill="#374151" font-size="9.5">32 KiB</text>
  <text x="760.0" y="366" text-anchor="middle" fill="#374151" font-size="9.5">128 KiB</text>
  <text x="40" y="197.5" text-anchor="middle" dominant-baseline="middle" fill="#374151" font-size="11" font-weight="600" transform="rotate(-90,40,197.5)">msg/s</text>
  <text x="830" y="197.5" text-anchor="middle" dominant-baseline="middle" fill="#6b7280" font-size="11" font-weight="600" transform="rotate(90,830,197.5)">virtual throughput</text>
  <text x="425.0" y="22" text-anchor="middle" fill="#111827" font-size="13" font-weight="700">Compression transports: structured JSON, 2-process, 1 Gbps link (omq-compio)</text>
  <polyline points="90.0,57.4 224.0,276.9 358.0,331.5 492.0,345.4 626.0,348.8 760.0,349.7" fill="none" stroke="#eab308" stroke-width="2" stroke-dasharray="6,4"/>
  <polyline points="90.0,66.2 224.0,236.9 358.0,281.6 492.0,323.3 626.0,342.3 760.0,348.2" fill="none" stroke="#60a5fa" stroke-width="2" stroke-dasharray="6,4"/>
  <polyline points="90.0,153.8 224.0,160.1 358.0,245.3 492.0,316.2 626.0,341.9 760.0,348.2" fill="none" stroke="#1d4ed8" stroke-width="2" stroke-dasharray="6,4"/>
  <polyline points="90.0,294.5 224.0,313.2 358.0,284.2 492.0,325.4 626.0,342.9 760.0,348.2" fill="none" stroke="#f97316" stroke-width="2" stroke-dasharray="6,4"/>
  <polyline points="90.0,292.0 224.0,292.1 358.0,298.5 492.0,320.7 626.0,344.3 760.0,348.5" fill="none" stroke="#dc2626" stroke-width="2" stroke-dasharray="6,4"/>
  <polyline points="90.0,310.6 224.0,310.6 358.0,310.1 492.0,309.9 626.0,309.9 760.0,309.9" fill="none" stroke="#eab308" stroke-width="2.5" stroke-linecap="round" stroke-linejoin="round"/>
  <circle cx="90.0" cy="310.6" r="3" fill="#eab308" stroke="white" stroke-width="1"/>
  <circle cx="224.0" cy="310.6" r="3" fill="#eab308" stroke="white" stroke-width="1"/>
  <circle cx="358.0" cy="310.1" r="3" fill="#eab308" stroke="white" stroke-width="1"/>
  <circle cx="492.0" cy="309.9" r="3" fill="#eab308" stroke="white" stroke-width="1"/>
  <circle cx="626.0" cy="309.9" r="3" fill="#eab308" stroke="white" stroke-width="1"/>
  <circle cx="760.0" cy="309.9" r="3" fill="#eab308" stroke="white" stroke-width="1"/>
  <polyline points="90.0,311.8 224.0,289.0 358.0,202.6 492.0,120.0 626.0,83.9 760.0,98.7" fill="none" stroke="#60a5fa" stroke-width="2.5" stroke-linecap="round" stroke-linejoin="round"/>
  <circle cx="90.0" cy="311.8" r="3" fill="#60a5fa" stroke="white" stroke-width="1"/>
  <circle cx="224.0" cy="289.0" r="3" fill="#60a5fa" stroke="white" stroke-width="1"/>
  <circle cx="358.0" cy="202.6" r="3" fill="#60a5fa" stroke="white" stroke-width="1"/>
  <circle cx="492.0" cy="120.0" r="3" fill="#60a5fa" stroke="white" stroke-width="1"/>
  <circle cx="626.0" cy="83.9" r="3" fill="#60a5fa" stroke="white" stroke-width="1"/>
  <circle cx="760.0" cy="98.7" r="3" fill="#60a5fa" stroke="white" stroke-width="1"/>
  <polyline points="90.0,323.6 224.0,247.6 358.0,124.2 492.0,58.8 626.0,68.9 760.0,103.0" fill="none" stroke="#1d4ed8" stroke-width="2.5" stroke-linecap="round" stroke-linejoin="round"/>
  <circle cx="90.0" cy="323.6" r="3" fill="#1d4ed8" stroke="white" stroke-width="1"/>
  <circle cx="224.0" cy="247.6" r="3" fill="#1d4ed8" stroke="white" stroke-width="1"/>
  <circle cx="358.0" cy="124.2" r="3" fill="#1d4ed8" stroke="white" stroke-width="1"/>
  <circle cx="492.0" cy="58.8" r="3" fill="#1d4ed8" stroke="white" stroke-width="1"/>
  <circle cx="626.0" cy="68.9" r="3" fill="#1d4ed8" stroke="white" stroke-width="1"/>
  <circle cx="760.0" cy="103.0" r="3" fill="#1d4ed8" stroke="white" stroke-width="1"/>
  <polyline points="90.0,342.5 224.0,330.1 358.0,208.2 492.0,137.6 626.0,103.5 760.0,107.8" fill="none" stroke="#f97316" stroke-width="2.5" stroke-linecap="round" stroke-linejoin="round"/>
  <circle cx="90.0" cy="342.5" r="3" fill="#f97316" stroke="white" stroke-width="1"/>
  <circle cx="224.0" cy="330.1" r="3" fill="#f97316" stroke="white" stroke-width="1"/>
  <circle cx="358.0" cy="208.2" r="3" fill="#f97316" stroke="white" stroke-width="1"/>
  <circle cx="492.0" cy="137.6" r="3" fill="#f97316" stroke="white" stroke-width="1"/>
  <circle cx="626.0" cy="103.5" r="3" fill="#f97316" stroke="white" stroke-width="1"/>
  <circle cx="760.0" cy="107.8" r="3" fill="#f97316" stroke="white" stroke-width="1"/>
  <polyline points="90.0,342.2 224.0,318.8 358.0,239.1 492.0,97.1 626.0,152.3 760.0,144.9" fill="none" stroke="#dc2626" stroke-width="2.5" stroke-linecap="round" stroke-linejoin="round"/>
  <circle cx="90.0" cy="342.2" r="3" fill="#dc2626" stroke="white" stroke-width="1"/>
  <circle cx="224.0" cy="318.8" r="3" fill="#dc2626" stroke="white" stroke-width="1"/>
  <circle cx="358.0" cy="239.1" r="3" fill="#dc2626" stroke="white" stroke-width="1"/>
  <circle cx="492.0" cy="97.1" r="3" fill="#dc2626" stroke="white" stroke-width="1"/>
  <circle cx="626.0" cy="152.3" r="3" fill="#dc2626" stroke="white" stroke-width="1"/>
  <circle cx="760.0" cy="144.9" r="3" fill="#dc2626" stroke="white" stroke-width="1"/>
  <line x1="90" y1="388" x2="104" y2="388" stroke="#eab308" stroke-width="2" stroke-dasharray="4,3"/>
  <line x1="90" y1="400" x2="104" y2="400" stroke="#eab308" stroke-width="2.5"/>
  <text x="108" y="392" fill="#374151" font-size="10" font-weight="500">tcp</text>
  <line x1="220" y1="388" x2="234" y2="388" stroke="#60a5fa" stroke-width="2" stroke-dasharray="4,3"/>
  <line x1="220" y1="400" x2="234" y2="400" stroke="#60a5fa" stroke-width="2.5"/>
  <text x="238" y="392" fill="#374151" font-size="10" font-weight="500">lz4</text>
  <line x1="360" y1="388" x2="374" y2="388" stroke="#1d4ed8" stroke-width="2" stroke-dasharray="4,3"/>
  <line x1="360" y1="400" x2="374" y2="400" stroke="#1d4ed8" stroke-width="2.5"/>
  <text x="378" y="392" fill="#374151" font-size="10" font-weight="500">lz4+dict</text>
  <line x1="500" y1="388" x2="514" y2="388" stroke="#f97316" stroke-width="2" stroke-dasharray="4,3"/>
  <line x1="500" y1="400" x2="514" y2="400" stroke="#f97316" stroke-width="2.5"/>
  <text x="518" y="392" fill="#374151" font-size="10" font-weight="500">zstd</text>
  <line x1="630" y1="388" x2="644" y2="388" stroke="#dc2626" stroke-width="2" stroke-dasharray="4,3"/>
  <line x1="630" y1="400" x2="644" y2="400" stroke="#dc2626" stroke-width="2.5"/>
  <text x="648" y="392" fill="#374151" font-size="10" font-weight="500">zstd+dict</text>
  <text x="425.0" y="418" text-anchor="middle" fill="#9ca3af" font-size="9">dashed = msg/s (left) · solid = virtual throughput (right)</text>
</svg>
