<svg xmlns="http://www.w3.org/2000/svg" viewBox="0 0 850 450" font-family="system-ui, -apple-system, sans-serif">
  <rect width="850" height="450" fill="white"/>
  <line x1="90" y1="350.0" x2="760" y2="350.0" stroke="#e5e7eb" stroke-width="1"/>
  <text x="82" y="350.0" text-anchor="end" dominant-baseline="middle" fill="#374151" font-size="10">1</text>
  <line x1="90" y1="299.2" x2="760" y2="299.2" stroke="#e5e7eb" stroke-width="1"/>
  <text x="82" y="299.2" text-anchor="end" dominant-baseline="middle" fill="#374151" font-size="10">100</text>
  <line x1="90" y1="248.3" x2="760" y2="248.3" stroke="#e5e7eb" stroke-width="1"/>
  <text x="82" y="248.3" text-anchor="end" dominant-baseline="middle" fill="#374151" font-size="10">1k</text>
  <line x1="90" y1="197.5" x2="760" y2="197.5" stroke="#e5e7eb" stroke-width="1"/>
  <text x="82" y="197.5" text-anchor="end" dominant-baseline="middle" fill="#374151" font-size="10">10k</text>
  <line x1="90" y1="146.7" x2="760" y2="146.7" stroke="#e5e7eb" stroke-width="1"/>
  <text x="82" y="146.7" text-anchor="end" dominant-baseline="middle" fill="#374151" font-size="10">100k</text>
  <line x1="90" y1="95.8" x2="760" y2="95.8" stroke="#e5e7eb" stroke-width="1"/>
  <text x="82" y="95.8" text-anchor="end" dominant-baseline="middle" fill="#374151" font-size="10">1M</text>
  <line x1="90" y1="45.0" x2="760" y2="45.0" stroke="#e5e7eb" stroke-width="1"/>
  <text x="82" y="45.0" text-anchor="end" dominant-baseline="middle" fill="#374151" font-size="10">10M</text>
  <line x1="90" y1="334.7" x2="760" y2="334.7" stroke="#f0f0f0" stroke-width="0.5"/>
  <text x="82" y="334.7" text-anchor="end" dominant-baseline="middle" fill="#9ca3af" font-size="8">20</text>
  <line x1="90" y1="325.7" x2="760" y2="325.7" stroke="#f0f0f0" stroke-width="0.5"/>
  <text x="82" y="325.7" text-anchor="end" dominant-baseline="middle" fill="#9ca3af" font-size="8">30</text>
  <line x1="90" y1="314.5" x2="760" y2="314.5" stroke="#f0f0f0" stroke-width="0.5"/>
  <text x="82" y="314.5" text-anchor="end" dominant-baseline="middle" fill="#9ca3af" font-size="8">50</text>
  <line x1="90" y1="283.9" x2="760" y2="283.9" stroke="#f0f0f0" stroke-width="0.5"/>
  <text x="82" y="283.9" text-anchor="end" dominant-baseline="middle" fill="#9ca3af" font-size="8">200</text>
  <line x1="90" y1="274.9" x2="760" y2="274.9" stroke="#f0f0f0" stroke-width="0.5"/>
  <text x="82" y="274.9" text-anchor="end" dominant-baseline="middle" fill="#9ca3af" font-size="8">300</text>
  <line x1="90" y1="263.6" x2="760" y2="263.6" stroke="#f0f0f0" stroke-width="0.5"/>
  <text x="82" y="263.6" text-anchor="end" dominant-baseline="middle" fill="#9ca3af" font-size="8">500</text>
  <line x1="90" y1="233.0" x2="760" y2="233.0" stroke="#f0f0f0" stroke-width="0.5"/>
  <text x="82" y="233.0" text-anchor="end" dominant-baseline="middle" fill="#9ca3af" font-size="8">2k</text>
  <line x1="90" y1="224.1" x2="760" y2="224.1" stroke="#f0f0f0" stroke-width="0.5"/>
  <text x="82" y="224.1" text-anchor="end" dominant-baseline="middle" fill="#9ca3af" font-size="8">3k</text>
  <line x1="90" y1="212.8" x2="760" y2="212.8" stroke="#f0f0f0" stroke-width="0.5"/>
  <text x="82" y="212.8" text-anchor="end" dominant-baseline="middle" fill="#9ca3af" font-size="8">5k</text>
  <line x1="90" y1="182.2" x2="760" y2="182.2" stroke="#f0f0f0" stroke-width="0.5"/>
  <text x="82" y="182.2" text-anchor="end" dominant-baseline="middle" fill="#9ca3af" font-size="8">20k</text>
  <line x1="90" y1="173.2" x2="760" y2="173.2" stroke="#f0f0f0" stroke-width="0.5"/>
  <text x="82" y="173.2" text-anchor="end" dominant-baseline="middle" fill="#9ca3af" font-size="8">30k</text>
  <line x1="90" y1="162.0" x2="760" y2="162.0" stroke="#f0f0f0" stroke-width="0.5"/>
  <text x="82" y="162.0" text-anchor="end" dominant-baseline="middle" fill="#9ca3af" font-size="8">50k</text>
  <line x1="90" y1="131.4" x2="760" y2="131.4" stroke="#f0f0f0" stroke-width="0.5"/>
  <text x="82" y="131.4" text-anchor="end" dominant-baseline="middle" fill="#9ca3af" font-size="8">200k</text>
  <line x1="90" y1="122.4" x2="760" y2="122.4" stroke="#f0f0f0" stroke-width="0.5"/>
  <text x="82" y="122.4" text-anchor="end" dominant-baseline="middle" fill="#9ca3af" font-size="8">300k</text>
  <line x1="90" y1="111.1" x2="760" y2="111.1" stroke="#f0f0f0" stroke-width="0.5"/>
  <text x="82" y="111.1" text-anchor="end" dominant-baseline="middle" fill="#9ca3af" font-size="8">500k</text>
  <line x1="90" y1="80.5" x2="760" y2="80.5" stroke="#f0f0f0" stroke-width="0.5"/>
  <text x="82" y="80.5" text-anchor="end" dominant-baseline="middle" fill="#9ca3af" font-size="8">2M</text>
  <line x1="90" y1="71.6" x2="760" y2="71.6" stroke="#f0f0f0" stroke-width="0.5"/>
  <text x="82" y="71.6" text-anchor="end" dominant-baseline="middle" fill="#9ca3af" font-size="8">3M</text>
  <line x1="90" y1="60.3" x2="760" y2="60.3" stroke="#f0f0f0" stroke-width="0.5"/>
  <text x="82" y="60.3" text-anchor="end" dominant-baseline="middle" fill="#9ca3af" font-size="8">5M</text>
  <line x1="90" y1="289.0" x2="760" y2="289.0" stroke="#e5e7eb" stroke-width="1" stroke-dasharray="3,6"/>
  <text x="768" y="289.0" text-anchor="start" dominant-baseline="middle" fill="#6b7280" font-size="10">50 MB/s</text>
  <line x1="90" y1="228.0" x2="760" y2="228.0" stroke="#e5e7eb" stroke-width="1" stroke-dasharray="3,6"/>
  <text x="768" y="228.0" text-anchor="start" dominant-baseline="middle" fill="#6b7280" font-size="10">100 MB/s</text>
  <line x1="90" y1="167.0" x2="760" y2="167.0" stroke="#e5e7eb" stroke-width="1" stroke-dasharray="3,6"/>
  <text x="768" y="167.0" text-anchor="start" dominant-baseline="middle" fill="#6b7280" font-size="10">150 MB/s</text>
  <line x1="90" y1="106.0" x2="760" y2="106.0" stroke="#e5e7eb" stroke-width="1" stroke-dasharray="3,6"/>
  <text x="768" y="106.0" text-anchor="start" dominant-baseline="middle" fill="#6b7280" font-size="10">200 MB/s</text>
  <line x1="90" y1="45.0" x2="760" y2="45.0" stroke="#e5e7eb" stroke-width="1" stroke-dasharray="3,6"/>
  <text x="768" y="45.0" text-anchor="start" dominant-baseline="middle" fill="#6b7280" font-size="10">250 MB/s</text>
  <line x1="90.0" y1="45" x2="90.0" y2="350" stroke="#e5e7eb" stroke-width="1"/>
  <line x1="134.7" y1="45" x2="134.7" y2="350" stroke="#e5e7eb" stroke-width="1"/>
  <line x1="179.3" y1="45" x2="179.3" y2="350" stroke="#e5e7eb" stroke-width="1"/>
  <line x1="224.0" y1="45" x2="224.0" y2="350" stroke="#e5e7eb" stroke-width="1"/>
  <line x1="268.7" y1="45" x2="268.7" y2="350" stroke="#e5e7eb" stroke-width="1"/>
  <line x1="313.3" y1="45" x2="313.3" y2="350" stroke="#e5e7eb" stroke-width="1"/>
  <line x1="358.0" y1="45" x2="358.0" y2="350" stroke="#e5e7eb" stroke-width="1"/>
  <line x1="402.7" y1="45" x2="402.7" y2="350" stroke="#e5e7eb" stroke-width="1"/>
  <line x1="447.3" y1="45" x2="447.3" y2="350" stroke="#e5e7eb" stroke-width="1"/>
  <line x1="492.0" y1="45" x2="492.0" y2="350" stroke="#e5e7eb" stroke-width="1"/>
  <line x1="536.7" y1="45" x2="536.7" y2="350" stroke="#e5e7eb" stroke-width="1"/>
  <line x1="581.3" y1="45" x2="581.3" y2="350" stroke="#e5e7eb" stroke-width="1"/>
  <line x1="626.0" y1="45" x2="626.0" y2="350" stroke="#e5e7eb" stroke-width="1"/>
  <line x1="670.7" y1="45" x2="670.7" y2="350" stroke="#e5e7eb" stroke-width="1"/>
  <line x1="715.3" y1="45" x2="715.3" y2="350" stroke="#e5e7eb" stroke-width="1"/>
  <line x1="760.0" y1="45" x2="760.0" y2="350" stroke="#e5e7eb" stroke-width="1"/>
  <line x1="90" y1="45" x2="90" y2="350" stroke="#9ca3af" stroke-width="1.5"/>
  <line x1="760" y1="45" x2="760" y2="350" stroke="#9ca3af" stroke-width="1.5"/>
  <line x1="90" y1="350" x2="760" y2="350" stroke="#9ca3af" stroke-width="1.5"/>
  <text x="90.0" y="366" text-anchor="middle" fill="#374151" font-size="9.5">8 B</text>
  <text x="134.7" y="366" text-anchor="middle" fill="#374151" font-size="9.5">16 B</text>
  <text x="179.3" y="366" text-anchor="middle" fill="#374151" font-size="9.5">32 B</text>
  <text x="224.0" y="366" text-anchor="middle" fill="#374151" font-size="9.5">64 B</text>
  <text x="268.7" y="366" text-anchor="middle" fill="#374151" font-size="9.5">128 B</text>
  <text x="313.3" y="366" text-anchor="middle" fill="#374151" font-size="9.5">256 B</text>
  <text x="358.0" y="366" text-anchor="middle" fill="#374151" font-size="9.5">512 B</text>
  <text x="402.7" y="366" text-anchor="middle" fill="#374151" font-size="9.5">1 KiB</text>
  <text x="447.3" y="366" text-anchor="middle" fill="#374151" font-size="9.5">2 KiB</text>
  <text x="492.0" y="366" text-anchor="middle" fill="#374151" font-size="9.5">4 KiB</text>
  <text x="536.7" y="366" text-anchor="middle" fill="#374151" font-size="9.5">8 KiB</text>
  <text x="581.3" y="366" text-anchor="middle" fill="#374151" font-size="9.5">16 KiB</text>
  <text x="626.0" y="366" text-anchor="middle" fill="#374151" font-size="9.5">32 KiB</text>
  <text x="670.7" y="366" text-anchor="middle" fill="#374151" font-size="9.5">64 KiB</text>
  <text x="715.3" y="366" text-anchor="middle" fill="#374151" font-size="9.5">128 KiB</text>
  <text x="760.0" y="366" text-anchor="middle" fill="#374151" font-size="9.5">256 KiB</text>
  <text x="40" y="197.5" text-anchor="middle" dominant-baseline="middle" fill="#374151" font-size="11" font-weight="600" transform="rotate(-90,40,197.5)">msg/s (log)</text>
  <text x="830" y="197.5" text-anchor="middle" dominant-baseline="middle" fill="#6b7280" font-size="11" font-weight="600" transform="rotate(90,830,197.5)">virtual throughput</text>
  <text x="425.0" y="22" text-anchor="middle" fill="#111827" font-size="13" font-weight="700">Compression transports: structured JSON, 100 Mbps link (omq-compio)</text>
  <polyline points="90.0,337.8 134.7,336.5 179.3,335.7 224.0,335.2 268.7,335.0 313.3,335.3 358.0,335.0 402.7,334.9 447.3,334.8 492.0,334.8 536.7,334.8 581.3,334.8 626.0,334.8 670.7,334.8 715.3,334.8 760.0,334.8" fill="none" stroke="#eab308" stroke-width="2" stroke-dasharray="6,4"/>
  <polyline points="90.0,341.3 134.7,338.9 179.3,337.2 224.0,336.1 268.7,335.5 313.3,335.5 358.0,326.7 402.7,311.3 447.3,293.6 492.0,275.8 536.7,261.7 581.3,251.9 626.0,246.7 670.7,244.1 715.3,244.1 760.0,244.0" fill="none" stroke="#60a5fa" stroke-width="2" stroke-dasharray="6,4"/>
  <polyline points="90.0,341.3 134.7,338.9 179.3,330.8 224.0,311.8 268.7,273.8 313.3,194.2 358.0,52.7 402.7,182.6 447.3,221.6 492.0,234.0 536.7,237.5 581.3,238.8 626.0,240.5 670.7,241.6 715.3,243.1 760.0,243.6" fill="none" stroke="#1d4ed8" stroke-width="2" stroke-dasharray="6,4"/>
  <polyline points="90.0,341.3 134.7,338.9 179.3,337.2 224.0,336.7 268.7,322.9 313.3,292.4 358.0,281.2 402.7,307.7 447.3,283.2 492.0,239.9 536.7,197.9 581.3,161.3 626.0,140.4 670.7,132.3 715.3,129.4 760.0,124.4" fill="none" stroke="#f97316" stroke-width="2" stroke-dasharray="6,4"/>
  <polyline points="90.0,341.3 134.7,338.9 179.3,337.2 224.0,335.6 268.7,321.8 313.3,292.4 358.0,235.0 402.7,113.4 447.3,99.7 492.0,137.8 536.7,152.7 581.3,143.8 626.0,116.5 670.7,124.3 715.3,131.2 760.0,127.0" fill="none" stroke="#dc2626" stroke-width="2" stroke-dasharray="6,4"/>
  <polyline points="90.0,90.9 134.7,103.9 179.3,118.0 224.0,132.6 268.7,147.6 313.3,163.3 358.0,178.2 402.7,193.3 447.3,208.5 492.0,223.8 536.7,239.1 581.3,254.4 626.0,269.6 670.7,285.0 715.3,300.2 760.0,315.6" fill="none" stroke="#eab308" stroke-width="2.5" stroke-linecap="round" stroke-linejoin="round"/>
  <circle cx="90.0" cy="90.9" r="3" fill="#eab308" stroke="white" stroke-width="1"/>
  <circle cx="134.7" cy="103.9" r="3" fill="#eab308" stroke="white" stroke-width="1"/>
  <circle cx="179.3" cy="118.0" r="3" fill="#eab308" stroke="white" stroke-width="1"/>
  <circle cx="224.0" cy="132.6" r="3" fill="#eab308" stroke="white" stroke-width="1"/>
  <circle cx="268.7" cy="147.6" r="3" fill="#eab308" stroke="white" stroke-width="1"/>
  <circle cx="313.3" cy="163.3" r="3" fill="#eab308" stroke="white" stroke-width="1"/>
  <circle cx="358.0" cy="178.2" r="3" fill="#eab308" stroke="white" stroke-width="1"/>
  <circle cx="402.7" cy="193.3" r="3" fill="#eab308" stroke="white" stroke-width="1"/>
  <circle cx="447.3" cy="208.5" r="3" fill="#eab308" stroke="white" stroke-width="1"/>
  <circle cx="492.0" cy="223.8" r="3" fill="#eab308" stroke="white" stroke-width="1"/>
  <circle cx="536.7" cy="239.1" r="3" fill="#eab308" stroke="white" stroke-width="1"/>
  <circle cx="581.3" cy="254.4" r="3" fill="#eab308" stroke="white" stroke-width="1"/>
  <circle cx="626.0" cy="269.6" r="3" fill="#eab308" stroke="white" stroke-width="1"/>
  <circle cx="670.7" cy="285.0" r="3" fill="#eab308" stroke="white" stroke-width="1"/>
  <circle cx="715.3" cy="300.2" r="3" fill="#eab308" stroke="white" stroke-width="1"/>
  <circle cx="760.0" cy="315.6" r="3" fill="#eab308" stroke="white" stroke-width="1"/>
  <polyline points="90.0,98.4 134.7,108.3 179.3,120.4 224.0,133.9 268.7,148.2 313.3,163.6 358.0,168.5 402.7,172.5 447.3,179.5 492.0,188.8 536.7,200.2 581.3,213.2 626.0,227.4 670.7,242.1 715.3,257.4 760.0,272.7" fill="none" stroke="#60a5fa" stroke-width="2.5" stroke-linecap="round" stroke-linejoin="round"/>
  <circle cx="90.0" cy="98.4" r="3" fill="#60a5fa" stroke="white" stroke-width="1"/>
  <circle cx="134.7" cy="108.3" r="3" fill="#60a5fa" stroke="white" stroke-width="1"/>
  <circle cx="179.3" cy="120.4" r="3" fill="#60a5fa" stroke="white" stroke-width="1"/>
  <circle cx="224.0" cy="133.9" r="3" fill="#60a5fa" stroke="white" stroke-width="1"/>
  <circle cx="268.7" cy="148.2" r="3" fill="#60a5fa" stroke="white" stroke-width="1"/>
  <circle cx="313.3" cy="163.6" r="3" fill="#60a5fa" stroke="white" stroke-width="1"/>
  <circle cx="358.0" cy="168.5" r="3" fill="#60a5fa" stroke="white" stroke-width="1"/>
  <circle cx="402.7" cy="172.5" r="3" fill="#60a5fa" stroke="white" stroke-width="1"/>
  <circle cx="447.3" cy="179.5" r="3" fill="#60a5fa" stroke="white" stroke-width="1"/>
  <circle cx="492.0" cy="188.8" r="3" fill="#60a5fa" stroke="white" stroke-width="1"/>
  <circle cx="536.7" cy="200.2" r="3" fill="#60a5fa" stroke="white" stroke-width="1"/>
  <circle cx="581.3" cy="213.2" r="3" fill="#60a5fa" stroke="white" stroke-width="1"/>
  <circle cx="626.0" cy="227.4" r="3" fill="#60a5fa" stroke="white" stroke-width="1"/>
  <circle cx="670.7" cy="242.1" r="3" fill="#60a5fa" stroke="white" stroke-width="1"/>
  <circle cx="715.3" cy="257.4" r="3" fill="#60a5fa" stroke="white" stroke-width="1"/>
  <circle cx="760.0" cy="272.7" r="3" fill="#60a5fa" stroke="white" stroke-width="1"/>
  <polyline points="90.0,98.4 134.7,108.3 179.3,111.6 224.0,111.6 268.7,111.7 313.3,111.2 358.0,112.2 402.7,140.2 447.3,161.4 492.0,178.9 536.7,194.9 581.3,210.5 626.0,226.1 670.7,241.6 715.3,257.2 760.0,272.6" fill="none" stroke="#1d4ed8" stroke-width="2.5" stroke-linecap="round" stroke-linejoin="round"/>
  <circle cx="90.0" cy="98.4" r="3" fill="#1d4ed8" stroke="white" stroke-width="1"/>
  <circle cx="134.7" cy="108.3" r="3" fill="#1d4ed8" stroke="white" stroke-width="1"/>
  <circle cx="179.3" cy="111.6" r="3" fill="#1d4ed8" stroke="white" stroke-width="1"/>
  <circle cx="224.0" cy="111.6" r="3" fill="#1d4ed8" stroke="white" stroke-width="1"/>
  <circle cx="268.7" cy="111.7" r="3" fill="#1d4ed8" stroke="white" stroke-width="1"/>
  <circle cx="313.3" cy="111.2" r="3" fill="#1d4ed8" stroke="white" stroke-width="1"/>
  <circle cx="358.0" cy="112.2" r="3" fill="#1d4ed8" stroke="white" stroke-width="1"/>
  <circle cx="402.7" cy="140.2" r="3" fill="#1d4ed8" stroke="white" stroke-width="1"/>
  <circle cx="447.3" cy="161.4" r="3" fill="#1d4ed8" stroke="white" stroke-width="1"/>
  <circle cx="492.0" cy="178.9" r="3" fill="#1d4ed8" stroke="white" stroke-width="1"/>
  <circle cx="536.7" cy="194.9" r="3" fill="#1d4ed8" stroke="white" stroke-width="1"/>
  <circle cx="581.3" cy="210.5" r="3" fill="#1d4ed8" stroke="white" stroke-width="1"/>
  <circle cx="626.0" cy="226.1" r="3" fill="#1d4ed8" stroke="white" stroke-width="1"/>
  <circle cx="670.7" cy="241.6" r="3" fill="#1d4ed8" stroke="white" stroke-width="1"/>
  <circle cx="715.3" cy="257.2" r="3" fill="#1d4ed8" stroke="white" stroke-width="1"/>
  <circle cx="760.0" cy="272.6" r="3" fill="#1d4ed8" stroke="white" stroke-width="1"/>
  <polyline points="90.0,98.4 134.7,108.3 179.3,120.4 224.0,135.0 268.7,134.5 313.3,133.1 358.0,144.5 402.7,170.6 447.3,175.8 492.0,180.1 536.7,188.2 581.3,198.8 626.0,211.8 670.7,226.2 715.3,241.2 760.0,256.0" fill="none" stroke="#f97316" stroke-width="2.5" stroke-linecap="round" stroke-linejoin="round"/>
  <circle cx="90.0" cy="98.4" r="3" fill="#f97316" stroke="white" stroke-width="1"/>
  <circle cx="134.7" cy="108.3" r="3" fill="#f97316" stroke="white" stroke-width="1"/>
  <circle cx="179.3" cy="120.4" r="3" fill="#f97316" stroke="white" stroke-width="1"/>
  <circle cx="224.0" cy="135.0" r="3" fill="#f97316" stroke="white" stroke-width="1"/>
  <circle cx="268.7" cy="134.5" r="3" fill="#f97316" stroke="white" stroke-width="1"/>
  <circle cx="313.3" cy="133.1" r="3" fill="#f97316" stroke="white" stroke-width="1"/>
  <circle cx="358.0" cy="144.5" r="3" fill="#f97316" stroke="white" stroke-width="1"/>
  <circle cx="402.7" cy="170.6" r="3" fill="#f97316" stroke="white" stroke-width="1"/>
  <circle cx="447.3" cy="175.8" r="3" fill="#f97316" stroke="white" stroke-width="1"/>
  <circle cx="492.0" cy="180.1" r="3" fill="#f97316" stroke="white" stroke-width="1"/>
  <circle cx="536.7" cy="188.2" r="3" fill="#f97316" stroke="white" stroke-width="1"/>
  <circle cx="581.3" cy="198.8" r="3" fill="#f97316" stroke="white" stroke-width="1"/>
  <circle cx="626.0" cy="211.8" r="3" fill="#f97316" stroke="white" stroke-width="1"/>
  <circle cx="670.7" cy="226.2" r="3" fill="#f97316" stroke="white" stroke-width="1"/>
  <circle cx="715.3" cy="241.2" r="3" fill="#f97316" stroke="white" stroke-width="1"/>
  <circle cx="760.0" cy="256.0" r="3" fill="#f97316" stroke="white" stroke-width="1"/>
  <polyline points="90.0,98.4 134.7,108.3 179.3,120.4 224.0,133.2 268.7,133.6 313.3,133.1 358.0,133.2 402.7,132.6 447.3,146.6 492.0,165.6 536.7,182.5 581.3,196.8 626.0,209.4 670.7,225.4 715.3,241.4 760.0,256.3" fill="none" stroke="#dc2626" stroke-width="2.5" stroke-linecap="round" stroke-linejoin="round"/>
  <circle cx="90.0" cy="98.4" r="3" fill="#dc2626" stroke="white" stroke-width="1"/>
  <circle cx="134.7" cy="108.3" r="3" fill="#dc2626" stroke="white" stroke-width="1"/>
  <circle cx="179.3" cy="120.4" r="3" fill="#dc2626" stroke="white" stroke-width="1"/>
  <circle cx="224.0" cy="133.2" r="3" fill="#dc2626" stroke="white" stroke-width="1"/>
  <circle cx="268.7" cy="133.6" r="3" fill="#dc2626" stroke="white" stroke-width="1"/>
  <circle cx="313.3" cy="133.1" r="3" fill="#dc2626" stroke="white" stroke-width="1"/>
  <circle cx="358.0" cy="133.2" r="3" fill="#dc2626" stroke="white" stroke-width="1"/>
  <circle cx="402.7" cy="132.6" r="3" fill="#dc2626" stroke="white" stroke-width="1"/>
  <circle cx="447.3" cy="146.6" r="3" fill="#dc2626" stroke="white" stroke-width="1"/>
  <circle cx="492.0" cy="165.6" r="3" fill="#dc2626" stroke="white" stroke-width="1"/>
  <circle cx="536.7" cy="182.5" r="3" fill="#dc2626" stroke="white" stroke-width="1"/>
  <circle cx="581.3" cy="196.8" r="3" fill="#dc2626" stroke="white" stroke-width="1"/>
  <circle cx="626.0" cy="209.4" r="3" fill="#dc2626" stroke="white" stroke-width="1"/>
  <circle cx="670.7" cy="225.4" r="3" fill="#dc2626" stroke="white" stroke-width="1"/>
  <circle cx="715.3" cy="241.4" r="3" fill="#dc2626" stroke="white" stroke-width="1"/>
  <circle cx="760.0" cy="256.3" r="3" fill="#dc2626" stroke="white" stroke-width="1"/>
  <line x1="90" y1="388" x2="104" y2="388" stroke="#eab308" stroke-width="2.5"/>
  <line x1="90" y1="400" x2="104" y2="400" stroke="#eab308" stroke-width="2" stroke-dasharray="4,3"/>
  <text x="108" y="392" fill="#374151" font-size="10" font-weight="500">tcp</text>
  <line x1="220" y1="388" x2="234" y2="388" stroke="#60a5fa" stroke-width="2.5"/>
  <line x1="220" y1="400" x2="234" y2="400" stroke="#60a5fa" stroke-width="2" stroke-dasharray="4,3"/>
  <text x="238" y="392" fill="#374151" font-size="10" font-weight="500">lz4</text>
  <line x1="360" y1="388" x2="374" y2="388" stroke="#1d4ed8" stroke-width="2.5"/>
  <line x1="360" y1="400" x2="374" y2="400" stroke="#1d4ed8" stroke-width="2" stroke-dasharray="4,3"/>
  <text x="378" y="392" fill="#374151" font-size="10" font-weight="500">lz4+dict</text>
  <line x1="500" y1="388" x2="514" y2="388" stroke="#f97316" stroke-width="2.5"/>
  <line x1="500" y1="400" x2="514" y2="400" stroke="#f97316" stroke-width="2" stroke-dasharray="4,3"/>
  <text x="518" y="392" fill="#374151" font-size="10" font-weight="500">zstd</text>
  <line x1="630" y1="388" x2="644" y2="388" stroke="#dc2626" stroke-width="2.5"/>
  <line x1="630" y1="400" x2="644" y2="400" stroke="#dc2626" stroke-width="2" stroke-dasharray="4,3"/>
  <text x="648" y="392" fill="#374151" font-size="10" font-weight="500">zstd+dict</text>
  <text x="425.0" y="418" text-anchor="middle" fill="#9ca3af" font-size="9">solid = msg/s (left, log) · dashed = virtual throughput (right, linear)</text>
</svg>
