<svg xmlns="http://www.w3.org/2000/svg" viewBox="0 0 850 450" font-family="system-ui, -apple-system, sans-serif">
  <rect width="850" height="450" fill="white"/>
  <line x1="90" y1="350.0" x2="760" y2="350.0" stroke="#e5e7eb" stroke-width="1"/>
  <text x="82" y="350.0" text-anchor="end" dominant-baseline="middle" fill="#374151" font-size="10">1k</text>
  <line x1="90" y1="248.3" x2="760" y2="248.3" stroke="#e5e7eb" stroke-width="1"/>
  <text x="82" y="248.3" text-anchor="end" dominant-baseline="middle" fill="#374151" font-size="10">10k</text>
  <line x1="90" y1="146.7" x2="760" y2="146.7" stroke="#e5e7eb" stroke-width="1"/>
  <text x="82" y="146.7" text-anchor="end" dominant-baseline="middle" fill="#374151" font-size="10">100k</text>
  <line x1="90" y1="45.0" x2="760" y2="45.0" stroke="#e5e7eb" stroke-width="1"/>
  <text x="82" y="45.0" text-anchor="end" dominant-baseline="middle" fill="#374151" font-size="10">1M</text>
  <line x1="90" y1="319.4" x2="760" y2="319.4" stroke="#f0f0f0" stroke-width="0.5"/>
  <text x="82" y="319.4" text-anchor="end" dominant-baseline="middle" fill="#9ca3af" font-size="8">2k</text>
  <line x1="90" y1="301.5" x2="760" y2="301.5" stroke="#f0f0f0" stroke-width="0.5"/>
  <text x="82" y="301.5" text-anchor="end" dominant-baseline="middle" fill="#9ca3af" font-size="8">3k</text>
  <line x1="90" y1="278.9" x2="760" y2="278.9" stroke="#f0f0f0" stroke-width="0.5"/>
  <text x="82" y="278.9" text-anchor="end" dominant-baseline="middle" fill="#9ca3af" font-size="8">5k</text>
  <line x1="90" y1="217.7" x2="760" y2="217.7" stroke="#f0f0f0" stroke-width="0.5"/>
  <text x="82" y="217.7" text-anchor="end" dominant-baseline="middle" fill="#9ca3af" font-size="8">20k</text>
  <line x1="90" y1="199.8" x2="760" y2="199.8" stroke="#f0f0f0" stroke-width="0.5"/>
  <text x="82" y="199.8" text-anchor="end" dominant-baseline="middle" fill="#9ca3af" font-size="8">30k</text>
  <line x1="90" y1="177.3" x2="760" y2="177.3" stroke="#f0f0f0" stroke-width="0.5"/>
  <text x="82" y="177.3" text-anchor="end" dominant-baseline="middle" fill="#9ca3af" font-size="8">50k</text>
  <line x1="90" y1="116.1" x2="760" y2="116.1" stroke="#f0f0f0" stroke-width="0.5"/>
  <text x="82" y="116.1" text-anchor="end" dominant-baseline="middle" fill="#9ca3af" font-size="8">200k</text>
  <line x1="90" y1="98.2" x2="760" y2="98.2" stroke="#f0f0f0" stroke-width="0.5"/>
  <text x="82" y="98.2" text-anchor="end" dominant-baseline="middle" fill="#9ca3af" font-size="8">300k</text>
  <line x1="90" y1="75.6" x2="760" y2="75.6" stroke="#f0f0f0" stroke-width="0.5"/>
  <text x="82" y="75.6" text-anchor="end" dominant-baseline="middle" fill="#9ca3af" font-size="8">500k</text>
  <line x1="90" y1="299.2" x2="760" y2="299.2" stroke="#e5e7eb" stroke-width="1" stroke-dasharray="3,6"/>
  <text x="768" y="299.2" text-anchor="start" dominant-baseline="middle" fill="#6b7280" font-size="10">50 MB/s</text>
  <line x1="90" y1="248.3" x2="760" y2="248.3" stroke="#e5e7eb" stroke-width="1" stroke-dasharray="3,6"/>
  <text x="768" y="248.3" text-anchor="start" dominant-baseline="middle" fill="#6b7280" font-size="10">100 MB/s</text>
  <line x1="90" y1="197.5" x2="760" y2="197.5" stroke="#e5e7eb" stroke-width="1" stroke-dasharray="3,6"/>
  <text x="768" y="197.5" text-anchor="start" dominant-baseline="middle" fill="#6b7280" font-size="10">150 MB/s</text>
  <line x1="90" y1="146.7" x2="760" y2="146.7" stroke="#e5e7eb" stroke-width="1" stroke-dasharray="3,6"/>
  <text x="768" y="146.7" text-anchor="start" dominant-baseline="middle" fill="#6b7280" font-size="10">200 MB/s</text>
  <line x1="90" y1="95.8" x2="760" y2="95.8" stroke="#e5e7eb" stroke-width="1" stroke-dasharray="3,6"/>
  <text x="768" y="95.8" text-anchor="start" dominant-baseline="middle" fill="#6b7280" font-size="10">250 MB/s</text>
  <line x1="90" y1="45.0" x2="760" y2="45.0" stroke="#e5e7eb" stroke-width="1" stroke-dasharray="3,6"/>
  <text x="768" y="45.0" text-anchor="start" dominant-baseline="middle" fill="#6b7280" font-size="10">300 MB/s</text>
  <line x1="90.0" y1="45" x2="90.0" y2="350" stroke="#e5e7eb" stroke-width="1"/>
  <line x1="224.0" y1="45" x2="224.0" y2="350" stroke="#e5e7eb" stroke-width="1"/>
  <line x1="358.0" y1="45" x2="358.0" y2="350" stroke="#e5e7eb" stroke-width="1"/>
  <line x1="492.0" y1="45" x2="492.0" y2="350" stroke="#e5e7eb" stroke-width="1"/>
  <line x1="626.0" y1="45" x2="626.0" y2="350" stroke="#e5e7eb" stroke-width="1"/>
  <line x1="760.0" y1="45" x2="760.0" y2="350" stroke="#e5e7eb" stroke-width="1"/>
  <line x1="90" y1="45" x2="90" y2="350" stroke="#9ca3af" stroke-width="1.5"/>
  <line x1="760" y1="45" x2="760" y2="350" stroke="#9ca3af" stroke-width="1.5"/>
  <line x1="90" y1="350" x2="760" y2="350" stroke="#9ca3af" stroke-width="1.5"/>
  <text x="90.0" y="366" text-anchor="middle" fill="#374151" font-size="9.5">128 B</text>
  <text x="224.0" y="366" text-anchor="middle" fill="#374151" font-size="9.5">512 B</text>
  <text x="358.0" y="366" text-anchor="middle" fill="#374151" font-size="9.5">2 KiB</text>
  <text x="492.0" y="366" text-anchor="middle" fill="#374151" font-size="9.5">8 KiB</text>
  <text x="626.0" y="366" text-anchor="middle" fill="#374151" font-size="9.5">32 KiB</text>
  <text x="760.0" y="366" text-anchor="middle" fill="#374151" font-size="9.5">128 KiB</text>
  <text x="40" y="197.5" text-anchor="middle" dominant-baseline="middle" fill="#374151" font-size="11" font-weight="600" transform="rotate(-90,40,197.5)">msg/s (log)</text>
  <text x="830" y="197.5" text-anchor="middle" dominant-baseline="middle" fill="#6b7280" font-size="11" font-weight="600" transform="rotate(90,830,197.5)">virtual throughput</text>
  <text x="425.0" y="22" text-anchor="middle" fill="#111827" font-size="13" font-weight="700">Compression transports: structured JSON, 100 Mbps link (omq-compio)</text>
  <polyline points="90.0,337.5 224.0,337.5 358.0,337.4 492.0,337.3 626.0,337.3 760.0,337.3" fill="none" stroke="#eab308" stroke-width="2" stroke-dasharray="6,4"/>
  <polyline points="90.0,337.9 224.0,330.6 358.0,303.0 492.0,276.4 626.0,264.0 760.0,261.5" fill="none" stroke="#60a5fa" stroke-width="2" stroke-dasharray="6,4"/>
  <polyline points="90.0,285.0 224.0,101.5 358.0,243.0 492.0,255.8 626.0,258.9 760.0,260.9" fill="none" stroke="#1d4ed8" stroke-width="2" stroke-dasharray="6,4"/>
  <polyline points="90.0,326.3 224.0,284.4 358.0,294.3 492.0,223.0 626.0,174.4 760.0,163.7" fill="none" stroke="#f97316" stroke-width="2" stroke-dasharray="6,4"/>
  <polyline points="90.0,324.7 224.0,251.5 358.0,140.6 492.0,185.2 626.0,152.9 760.0,164.1" fill="none" stroke="#dc2626" stroke-width="2" stroke-dasharray="6,4"/>
  <polyline points="90.0,148.4 224.0,209.7 358.0,270.4 492.0,331.3 626.0,350.0 760.0,350.0" fill="none" stroke="#eab308" stroke-width="2.5" stroke-linecap="round" stroke-linejoin="round"/>
  <circle cx="90.0" cy="148.4" r="3" fill="#eab308" stroke="white" stroke-width="1"/>
  <circle cx="224.0" cy="209.7" r="3" fill="#eab308" stroke="white" stroke-width="1"/>
  <circle cx="358.0" cy="270.4" r="3" fill="#eab308" stroke="white" stroke-width="1"/>
  <circle cx="492.0" cy="331.3" r="3" fill="#eab308" stroke="white" stroke-width="1"/>
  <circle cx="626.0" cy="350.0" r="3" fill="#eab308" stroke="white" stroke-width="1"/>
  <circle cx="760.0" cy="350.0" r="3" fill="#eab308" stroke="white" stroke-width="1"/>
  <polyline points="90.0,149.7 224.0,190.2 358.0,212.4 492.0,253.8 626.0,308.1 760.0,350.0" fill="none" stroke="#60a5fa" stroke-width="2.5" stroke-linecap="round" stroke-linejoin="round"/>
  <circle cx="90.0" cy="149.7" r="3" fill="#60a5fa" stroke="white" stroke-width="1"/>
  <circle cx="224.0" cy="190.2" r="3" fill="#60a5fa" stroke="white" stroke-width="1"/>
  <circle cx="358.0" cy="212.4" r="3" fill="#60a5fa" stroke="white" stroke-width="1"/>
  <circle cx="492.0" cy="253.8" r="3" fill="#60a5fa" stroke="white" stroke-width="1"/>
  <circle cx="626.0" cy="308.1" r="3" fill="#60a5fa" stroke="white" stroke-width="1"/>
  <circle cx="760.0" cy="350.0" r="3" fill="#60a5fa" stroke="white" stroke-width="1"/>
  <polyline points="90.0,75.6 224.0,77.6 358.0,176.1 492.0,242.9 626.0,305.6 760.0,350.0" fill="none" stroke="#1d4ed8" stroke-width="2.5" stroke-linecap="round" stroke-linejoin="round"/>
  <circle cx="90.0" cy="75.6" r="3" fill="#1d4ed8" stroke="white" stroke-width="1"/>
  <circle cx="224.0" cy="77.6" r="3" fill="#1d4ed8" stroke="white" stroke-width="1"/>
  <circle cx="358.0" cy="176.1" r="3" fill="#1d4ed8" stroke="white" stroke-width="1"/>
  <circle cx="492.0" cy="242.9" r="3" fill="#1d4ed8" stroke="white" stroke-width="1"/>
  <circle cx="626.0" cy="305.6" r="3" fill="#1d4ed8" stroke="white" stroke-width="1"/>
  <circle cx="760.0" cy="350.0" r="3" fill="#1d4ed8" stroke="white" stroke-width="1"/>
  <polyline points="90.0,120.2 224.0,136.5 358.0,204.9 492.0,229.7 626.0,276.6 760.0,335.2" fill="none" stroke="#f97316" stroke-width="2.5" stroke-linecap="round" stroke-linejoin="round"/>
  <circle cx="90.0" cy="120.2" r="3" fill="#f97316" stroke="white" stroke-width="1"/>
  <circle cx="224.0" cy="136.5" r="3" fill="#f97316" stroke="white" stroke-width="1"/>
  <circle cx="358.0" cy="204.9" r="3" fill="#f97316" stroke="white" stroke-width="1"/>
  <circle cx="492.0" cy="229.7" r="3" fill="#f97316" stroke="white" stroke-width="1"/>
  <circle cx="626.0" cy="276.6" r="3" fill="#f97316" stroke="white" stroke-width="1"/>
  <circle cx="760.0" cy="335.2" r="3" fill="#f97316" stroke="white" stroke-width="1"/>
  <polyline points="90.0,117.3 224.0,118.5 358.0,146.4 492.0,218.2 626.0,271.5 760.0,335.3" fill="none" stroke="#dc2626" stroke-width="2.5" stroke-linecap="round" stroke-linejoin="round"/>
  <circle cx="90.0" cy="117.3" r="3" fill="#dc2626" stroke="white" stroke-width="1"/>
  <circle cx="224.0" cy="118.5" r="3" fill="#dc2626" stroke="white" stroke-width="1"/>
  <circle cx="358.0" cy="146.4" r="3" fill="#dc2626" stroke="white" stroke-width="1"/>
  <circle cx="492.0" cy="218.2" r="3" fill="#dc2626" stroke="white" stroke-width="1"/>
  <circle cx="626.0" cy="271.5" r="3" fill="#dc2626" stroke="white" stroke-width="1"/>
  <circle cx="760.0" cy="335.3" r="3" fill="#dc2626" stroke="white" stroke-width="1"/>
  <line x1="90" y1="388" x2="104" y2="388" stroke="#eab308" stroke-width="2.5"/>
  <line x1="90" y1="400" x2="104" y2="400" stroke="#eab308" stroke-width="2" stroke-dasharray="4,3"/>
  <text x="108" y="392" fill="#374151" font-size="10" font-weight="500">tcp</text>
  <line x1="220" y1="388" x2="234" y2="388" stroke="#60a5fa" stroke-width="2.5"/>
  <line x1="220" y1="400" x2="234" y2="400" stroke="#60a5fa" stroke-width="2" stroke-dasharray="4,3"/>
  <text x="238" y="392" fill="#374151" font-size="10" font-weight="500">lz4</text>
  <line x1="360" y1="388" x2="374" y2="388" stroke="#1d4ed8" stroke-width="2.5"/>
  <line x1="360" y1="400" x2="374" y2="400" stroke="#1d4ed8" stroke-width="2" stroke-dasharray="4,3"/>
  <text x="378" y="392" fill="#374151" font-size="10" font-weight="500">lz4+dict</text>
  <line x1="500" y1="388" x2="514" y2="388" stroke="#f97316" stroke-width="2.5"/>
  <line x1="500" y1="400" x2="514" y2="400" stroke="#f97316" stroke-width="2" stroke-dasharray="4,3"/>
  <text x="518" y="392" fill="#374151" font-size="10" font-weight="500">zstd</text>
  <line x1="630" y1="388" x2="644" y2="388" stroke="#dc2626" stroke-width="2.5"/>
  <line x1="630" y1="400" x2="644" y2="400" stroke="#dc2626" stroke-width="2" stroke-dasharray="4,3"/>
  <text x="648" y="392" fill="#374151" font-size="10" font-weight="500">zstd+dict</text>
  <text x="425.0" y="418" text-anchor="middle" fill="#9ca3af" font-size="9">solid = msg/s (left, log) · dashed = virtual throughput (right, linear)</text>
</svg>
