<svg xmlns="http://www.w3.org/2000/svg" viewBox="0 0 850 440" font-family="system-ui,-apple-system,sans-serif" font-size="11">
<rect width="850" height="440" fill="#fff"/>
<text x="425" y="22" text-anchor="middle" font-size="14" font-weight="bold">REQ/REP latency: TCP loopback (p50)</text>
<line x1="80" y1="370.0" x2="820" y2="370.0" stroke="#e5e7eb" stroke-width="0.5"/>
<text x="72" y="370.0" text-anchor="end" dominant-baseline="middle" font-size="10" fill="#6b7280">10 µs</text>
<line x1="80" y1="207.5" x2="820" y2="207.5" stroke="#e5e7eb" stroke-width="0.5"/>
<text x="72" y="207.5" text-anchor="end" dominant-baseline="middle" font-size="10" fill="#6b7280">100 µs</text>
<line x1="80" y1="45.0" x2="820" y2="45.0" stroke="#e5e7eb" stroke-width="0.5"/>
<text x="72" y="45.0" text-anchor="end" dominant-baseline="middle" font-size="10" fill="#6b7280">1 ms</text>
<rect x="93.9" y="235.6" width="21.6" height="134.4" fill="#eab308" opacity="0.85"/>
<text x="104.7" y="232.6" text-anchor="middle" font-size="8" fill="#374151">67</text>
<rect x="115.5" y="276.3" width="21.6" height="93.7" fill="#dc2626" opacity="0.85"/>
<text x="126.2" y="273.3" text-anchor="middle" font-size="8" fill="#374151">38</text>
<rect x="137.0" y="217.6" width="21.6" height="152.4" fill="#f97316" opacity="0.85"/>
<text x="147.8" y="214.6" text-anchor="middle" font-size="8" fill="#374151">87</text>
<text x="126.2" y="386" text-anchor="middle" font-size="10" fill="#374151">8 B</text>
<rect x="186.4" y="231.2" width="21.6" height="138.8" fill="#eab308" opacity="0.85"/>
<text x="197.2" y="228.2" text-anchor="middle" font-size="8" fill="#374151">72</text>
<rect x="208.0" y="280.0" width="21.6" height="90.0" fill="#dc2626" opacity="0.85"/>
<text x="218.8" y="277.0" text-anchor="middle" font-size="8" fill="#374151">36</text>
<rect x="229.5" y="219.1" width="21.6" height="150.9" fill="#f97316" opacity="0.85"/>
<text x="240.3" y="216.1" text-anchor="middle" font-size="8" fill="#374151">85</text>
<text x="218.8" y="386" text-anchor="middle" font-size="10" fill="#374151">32 B</text>
<rect x="278.9" y="234.8" width="21.6" height="135.2" fill="#eab308" opacity="0.85"/>
<text x="289.7" y="231.8" text-anchor="middle" font-size="8" fill="#374151">68</text>
<rect x="300.5" y="276.2" width="21.6" height="93.8" fill="#dc2626" opacity="0.85"/>
<text x="311.2" y="273.2" text-anchor="middle" font-size="8" fill="#374151">38</text>
<rect x="322.0" y="211.3" width="21.6" height="158.7" fill="#f97316" opacity="0.85"/>
<text x="332.8" y="208.3" text-anchor="middle" font-size="8" fill="#374151">95</text>
<text x="311.2" y="386" text-anchor="middle" font-size="10" fill="#374151">128 B</text>
<rect x="371.4" y="233.8" width="21.6" height="136.2" fill="#eab308" opacity="0.85"/>
<text x="382.2" y="230.8" text-anchor="middle" font-size="8" fill="#374151">69</text>
<rect x="393.0" y="280.8" width="21.6" height="89.2" fill="#dc2626" opacity="0.85"/>
<text x="403.8" y="277.8" text-anchor="middle" font-size="8" fill="#374151">35</text>
<rect x="414.5" y="223.4" width="21.6" height="146.6" fill="#f97316" opacity="0.85"/>
<text x="425.3" y="220.4" text-anchor="middle" font-size="8" fill="#374151">80</text>
<text x="403.8" y="386" text-anchor="middle" font-size="10" fill="#374151">512 B</text>
<rect x="463.9" y="233.9" width="21.6" height="136.1" fill="#eab308" opacity="0.85"/>
<text x="474.7" y="230.9" text-anchor="middle" font-size="8" fill="#374151">69</text>
<rect x="485.5" y="277.1" width="21.6" height="92.9" fill="#dc2626" opacity="0.85"/>
<text x="496.2" y="274.1" text-anchor="middle" font-size="8" fill="#374151">37</text>
<rect x="507.0" y="221.9" width="21.6" height="148.1" fill="#f97316" opacity="0.85"/>
<text x="517.8" y="218.9" text-anchor="middle" font-size="8" fill="#374151">82</text>
<text x="496.2" y="386" text-anchor="middle" font-size="10" fill="#374151">2 KiB</text>
<rect x="556.4" y="221.6" width="21.6" height="148.4" fill="#eab308" opacity="0.85"/>
<text x="567.2" y="218.6" text-anchor="middle" font-size="8" fill="#374151">82</text>
<rect x="578.0" y="273.1" width="21.6" height="96.9" fill="#dc2626" opacity="0.85"/>
<text x="588.8" y="270.1" text-anchor="middle" font-size="8" fill="#374151">40</text>
<rect x="599.5" y="218.1" width="21.6" height="151.9" fill="#f97316" opacity="0.85"/>
<text x="610.3" y="215.1" text-anchor="middle" font-size="8" fill="#374151">86</text>
<text x="588.8" y="386" text-anchor="middle" font-size="10" fill="#374151">8 KiB</text>
<rect x="648.9" y="208.1" width="21.6" height="161.9" fill="#eab308" opacity="0.85"/>
<text x="659.7" y="205.1" text-anchor="middle" font-size="8" fill="#374151">99</text>
<rect x="670.5" y="259.3" width="21.6" height="110.7" fill="#dc2626" opacity="0.85"/>
<text x="681.2" y="256.3" text-anchor="middle" font-size="8" fill="#374151">48</text>
<rect x="692.0" y="207.8" width="21.6" height="162.2" fill="#f97316" opacity="0.85"/>
<text x="702.8" y="204.8" text-anchor="middle" font-size="8" fill="#374151">100</text>
<text x="681.2" y="386" text-anchor="middle" font-size="10" fill="#374151">32 KiB</text>
<rect x="741.4" y="185.3" width="21.6" height="184.7" fill="#eab308" opacity="0.85"/>
<text x="752.2" y="182.3" text-anchor="middle" font-size="8" fill="#374151">137</text>
<rect x="763.0" y="211.8" width="21.6" height="158.2" fill="#dc2626" opacity="0.85"/>
<text x="773.8" y="208.8" text-anchor="middle" font-size="8" fill="#374151">94</text>
<rect x="784.5" y="187.4" width="21.6" height="182.6" fill="#f97316" opacity="0.85"/>
<text x="795.3" y="184.4" text-anchor="middle" font-size="8" fill="#374151">133</text>
<text x="773.8" y="386" text-anchor="middle" font-size="10" fill="#374151">128 KiB</text>
<line x1="80" y1="45" x2="80" y2="370" stroke="#374151" stroke-width="1"/>
<line x1="80" y1="370" x2="820" y2="370" stroke="#374151" stroke-width="1"/>
<text x="14" y="207" text-anchor="middle" font-size="11" fill="#374151" transform="rotate(-90 14 207)">p50 latency (µs, log)</text>
<rect x="90" y="55" width="12" height="12" fill="#eab308"/>
<text x="106" y="65" font-size="10" fill="#374151">libzmq</text>
<rect x="90" y="73" width="12" height="12" fill="#dc2626"/>
<text x="106" y="83" font-size="10" fill="#374151">omq-compio</text>
<rect x="90" y="91" width="12" height="12" fill="#f97316"/>
<text x="106" y="101" font-size="10" fill="#374151">omq-tokio</text>
</svg>