<svg xmlns="http://www.w3.org/2000/svg" viewBox="0 0 850 440" font-family="system-ui, -apple-system, sans-serif">
  <rect width="850" height="440" fill="white"/>
  <line x1="90" y1="350.0" x2="760" y2="350.0" stroke="#e5e7eb" stroke-width="1"/>
  <line x1="90" y1="310.9" x2="760" y2="310.9" stroke="#e5e7eb" stroke-width="1"/>
  <text x="82" y="310.9" text-anchor="end" dominant-baseline="middle" fill="#374151" font-size="10">20 µs</text>
  <line x1="90" y1="271.9" x2="760" y2="271.9" stroke="#e5e7eb" stroke-width="1"/>
  <text x="82" y="271.9" text-anchor="end" dominant-baseline="middle" fill="#374151" font-size="10">40 µs</text>
  <line x1="90" y1="232.8" x2="760" y2="232.8" stroke="#e5e7eb" stroke-width="1"/>
  <text x="82" y="232.8" text-anchor="end" dominant-baseline="middle" fill="#374151" font-size="10">60 µs</text>
  <line x1="90" y1="193.8" x2="760" y2="193.8" stroke="#e5e7eb" stroke-width="1"/>
  <text x="82" y="193.8" text-anchor="end" dominant-baseline="middle" fill="#374151" font-size="10">80 µs</text>
  <line x1="90" y1="154.7" x2="760" y2="154.7" stroke="#e5e7eb" stroke-width="1"/>
  <text x="82" y="154.7" text-anchor="end" dominant-baseline="middle" fill="#374151" font-size="10">100 µs</text>
  <line x1="90" y1="115.7" x2="760" y2="115.7" stroke="#e5e7eb" stroke-width="1"/>
  <text x="82" y="115.7" text-anchor="end" dominant-baseline="middle" fill="#374151" font-size="10">120 µs</text>
  <line x1="90" y1="76.6" x2="760" y2="76.6" stroke="#e5e7eb" stroke-width="1"/>
  <text x="82" y="76.6" text-anchor="end" dominant-baseline="middle" fill="#374151" font-size="10">140 µs</text>
  <line x1="90.0" y1="45" x2="90.0" y2="350" stroke="#e5e7eb" stroke-width="1"/>
  <line x1="137.9" y1="45" x2="137.9" y2="350" stroke="#e5e7eb" stroke-width="1"/>
  <line x1="185.7" y1="45" x2="185.7" y2="350" stroke="#e5e7eb" stroke-width="1"/>
  <line x1="233.6" y1="45" x2="233.6" y2="350" stroke="#e5e7eb" stroke-width="1"/>
  <line x1="281.4" y1="45" x2="281.4" y2="350" stroke="#e5e7eb" stroke-width="1"/>
  <line x1="329.3" y1="45" x2="329.3" y2="350" stroke="#e5e7eb" stroke-width="1"/>
  <line x1="377.1" y1="45" x2="377.1" y2="350" stroke="#e5e7eb" stroke-width="1"/>
  <line x1="425.0" y1="45" x2="425.0" y2="350" stroke="#e5e7eb" stroke-width="1"/>
  <line x1="472.9" y1="45" x2="472.9" y2="350" stroke="#e5e7eb" stroke-width="1"/>
  <line x1="520.7" y1="45" x2="520.7" y2="350" stroke="#e5e7eb" stroke-width="1"/>
  <line x1="568.6" y1="45" x2="568.6" y2="350" stroke="#e5e7eb" stroke-width="1"/>
  <line x1="616.4" y1="45" x2="616.4" y2="350" stroke="#e5e7eb" stroke-width="1"/>
  <line x1="664.3" y1="45" x2="664.3" y2="350" stroke="#e5e7eb" stroke-width="1"/>
  <line x1="712.1" y1="45" x2="712.1" y2="350" stroke="#e5e7eb" stroke-width="1"/>
  <line x1="760.0" y1="45" x2="760.0" y2="350" stroke="#e5e7eb" stroke-width="1"/>
  <line x1="90" y1="45" x2="90" y2="350" stroke="#9ca3af" stroke-width="1.5"/>
  <line x1="90" y1="350" x2="760" y2="350" stroke="#9ca3af" stroke-width="1.5"/>
  <text x="90.0" y="366" text-anchor="middle" fill="#374151" font-size="9.5">8 B</text>
  <text x="137.9" y="366" text-anchor="middle" fill="#374151" font-size="9.5">16 B</text>
  <text x="185.7" y="366" text-anchor="middle" fill="#374151" font-size="9.5">32 B</text>
  <text x="233.6" y="366" text-anchor="middle" fill="#374151" font-size="9.5">64 B</text>
  <text x="281.4" y="366" text-anchor="middle" fill="#374151" font-size="9.5">128 B</text>
  <text x="329.3" y="366" text-anchor="middle" fill="#374151" font-size="9.5">256 B</text>
  <text x="377.1" y="366" text-anchor="middle" fill="#374151" font-size="9.5">512 B</text>
  <text x="425.0" y="366" text-anchor="middle" fill="#374151" font-size="9.5">1 KiB</text>
  <text x="472.9" y="366" text-anchor="middle" fill="#374151" font-size="9.5">2 KiB</text>
  <text x="520.7" y="366" text-anchor="middle" fill="#374151" font-size="9.5">4 KiB</text>
  <text x="568.6" y="366" text-anchor="middle" fill="#374151" font-size="9.5">8 KiB</text>
  <text x="616.4" y="366" text-anchor="middle" fill="#374151" font-size="9.5">16 KiB</text>
  <text x="664.3" y="366" text-anchor="middle" fill="#374151" font-size="9.5">32 KiB</text>
  <text x="712.1" y="366" text-anchor="middle" fill="#374151" font-size="9.5">64 KiB</text>
  <text x="760.0" y="366" text-anchor="middle" fill="#374151" font-size="9.5">128 KiB</text>
  <text x="40" y="197.5" text-anchor="middle" dominant-baseline="middle" fill="#374151" font-size="11" font-weight="600" transform="rotate(-90,40,197.5)">p50 latency (log)</text>
  <text x="425.0" y="22" text-anchor="middle" fill="#111827" font-size="14" font-weight="700">REQ/REP latency: TCP loopback (p50)</text>
  <polyline points="90.0,272.5 137.9,275.2 185.7,268.4 233.6,274.0 281.4,275.0 329.3,276.0 377.1,275.0 425.0,276.4 472.9,273.7 520.7,272.3 568.6,266.0 616.4,254.3 664.3,234.4 712.1,200.0 760.0,146.9" fill="none" stroke="#2563eb" stroke-width="2.5" stroke-linecap="round" stroke-linejoin="round"/>
  <circle cx="90.0" cy="272.5" r="3" fill="#2563eb" stroke="white" stroke-width="1"/>
  <circle cx="137.9" cy="275.2" r="3" fill="#2563eb" stroke="white" stroke-width="1"/>
  <circle cx="185.7" cy="268.4" r="3" fill="#2563eb" stroke="white" stroke-width="1"/>
  <circle cx="233.6" cy="274.0" r="3" fill="#2563eb" stroke="white" stroke-width="1"/>
  <circle cx="281.4" cy="275.0" r="3" fill="#2563eb" stroke="white" stroke-width="1"/>
  <circle cx="329.3" cy="276.0" r="3" fill="#2563eb" stroke="white" stroke-width="1"/>
  <circle cx="377.1" cy="275.0" r="3" fill="#2563eb" stroke="white" stroke-width="1"/>
  <circle cx="425.0" cy="276.4" r="3" fill="#2563eb" stroke="white" stroke-width="1"/>
  <circle cx="472.9" cy="273.7" r="3" fill="#2563eb" stroke="white" stroke-width="1"/>
  <circle cx="520.7" cy="272.3" r="3" fill="#2563eb" stroke="white" stroke-width="1"/>
  <circle cx="568.6" cy="266.0" r="3" fill="#2563eb" stroke="white" stroke-width="1"/>
  <circle cx="616.4" cy="254.3" r="3" fill="#2563eb" stroke="white" stroke-width="1"/>
  <circle cx="664.3" cy="234.4" r="3" fill="#2563eb" stroke="white" stroke-width="1"/>
  <circle cx="712.1" cy="200.0" r="3" fill="#2563eb" stroke="white" stroke-width="1"/>
  <circle cx="760.0" cy="146.9" r="3" fill="#2563eb" stroke="white" stroke-width="1"/>
  <polyline points="90.0,217.8 137.9,222.7 185.7,219.4 233.6,213.3 281.4,220.0 329.3,214.9 377.1,210.8 425.0,213.3 472.9,219.0 520.7,212.7 568.6,193.8 616.4,186.6 664.3,157.7 712.1,131.3 760.0,92.3" fill="none" stroke="#eab308" stroke-width="2.5" stroke-linecap="round" stroke-linejoin="round"/>
  <circle cx="90.0" cy="217.8" r="3" fill="#eab308" stroke="white" stroke-width="1"/>
  <circle cx="137.9" cy="222.7" r="3" fill="#eab308" stroke="white" stroke-width="1"/>
  <circle cx="185.7" cy="219.4" r="3" fill="#eab308" stroke="white" stroke-width="1"/>
  <circle cx="233.6" cy="213.3" r="3" fill="#eab308" stroke="white" stroke-width="1"/>
  <circle cx="281.4" cy="220.0" r="3" fill="#eab308" stroke="white" stroke-width="1"/>
  <circle cx="329.3" cy="214.9" r="3" fill="#eab308" stroke="white" stroke-width="1"/>
  <circle cx="377.1" cy="210.8" r="3" fill="#eab308" stroke="white" stroke-width="1"/>
  <circle cx="425.0" cy="213.3" r="3" fill="#eab308" stroke="white" stroke-width="1"/>
  <circle cx="472.9" cy="219.0" r="3" fill="#eab308" stroke="white" stroke-width="1"/>
  <circle cx="520.7" cy="212.7" r="3" fill="#eab308" stroke="white" stroke-width="1"/>
  <circle cx="568.6" cy="193.8" r="3" fill="#eab308" stroke="white" stroke-width="1"/>
  <circle cx="616.4" cy="186.6" r="3" fill="#eab308" stroke="white" stroke-width="1"/>
  <circle cx="664.3" cy="157.7" r="3" fill="#eab308" stroke="white" stroke-width="1"/>
  <circle cx="712.1" cy="131.3" r="3" fill="#eab308" stroke="white" stroke-width="1"/>
  <circle cx="760.0" cy="92.3" r="3" fill="#eab308" stroke="white" stroke-width="1"/>
  <polyline points="90.0,278.9 137.9,280.1 185.7,280.7 233.6,279.9 281.4,279.7 329.3,280.7 377.1,280.3 425.0,279.1 472.9,276.8 520.7,276.0 568.6,272.1 616.4,263.7 664.3,253.1 712.1,224.1 760.0,72.7" fill="none" stroke="#dc2626" stroke-width="2.5" stroke-linecap="round" stroke-linejoin="round"/>
  <circle cx="90.0" cy="278.9" r="3" fill="#dc2626" stroke="white" stroke-width="1"/>
  <circle cx="137.9" cy="280.1" r="3" fill="#dc2626" stroke="white" stroke-width="1"/>
  <circle cx="185.7" cy="280.7" r="3" fill="#dc2626" stroke="white" stroke-width="1"/>
  <circle cx="233.6" cy="279.9" r="3" fill="#dc2626" stroke="white" stroke-width="1"/>
  <circle cx="281.4" cy="279.7" r="3" fill="#dc2626" stroke="white" stroke-width="1"/>
  <circle cx="329.3" cy="280.7" r="3" fill="#dc2626" stroke="white" stroke-width="1"/>
  <circle cx="377.1" cy="280.3" r="3" fill="#dc2626" stroke="white" stroke-width="1"/>
  <circle cx="425.0" cy="279.1" r="3" fill="#dc2626" stroke="white" stroke-width="1"/>
  <circle cx="472.9" cy="276.8" r="3" fill="#dc2626" stroke="white" stroke-width="1"/>
  <circle cx="520.7" cy="276.0" r="3" fill="#dc2626" stroke="white" stroke-width="1"/>
  <circle cx="568.6" cy="272.1" r="3" fill="#dc2626" stroke="white" stroke-width="1"/>
  <circle cx="616.4" cy="263.7" r="3" fill="#dc2626" stroke="white" stroke-width="1"/>
  <circle cx="664.3" cy="253.1" r="3" fill="#dc2626" stroke="white" stroke-width="1"/>
  <circle cx="712.1" cy="224.1" r="3" fill="#dc2626" stroke="white" stroke-width="1"/>
  <circle cx="760.0" cy="72.7" r="3" fill="#dc2626" stroke="white" stroke-width="1"/>
  <polyline points="90.0,186.0 137.9,190.7 185.7,192.4 233.6,186.2 281.4,200.0 329.3,190.3 377.1,195.9 425.0,201.2 472.9,190.5 520.7,192.2 568.6,186.4 616.4,178.0 664.3,173.5 712.1,113.7 760.0,86.4" fill="none" stroke="#f97316" stroke-width="2.5" stroke-linecap="round" stroke-linejoin="round"/>
  <circle cx="90.0" cy="186.0" r="3" fill="#f97316" stroke="white" stroke-width="1"/>
  <circle cx="137.9" cy="190.7" r="3" fill="#f97316" stroke="white" stroke-width="1"/>
  <circle cx="185.7" cy="192.4" r="3" fill="#f97316" stroke="white" stroke-width="1"/>
  <circle cx="233.6" cy="186.2" r="3" fill="#f97316" stroke="white" stroke-width="1"/>
  <circle cx="281.4" cy="200.0" r="3" fill="#f97316" stroke="white" stroke-width="1"/>
  <circle cx="329.3" cy="190.3" r="3" fill="#f97316" stroke="white" stroke-width="1"/>
  <circle cx="377.1" cy="195.9" r="3" fill="#f97316" stroke="white" stroke-width="1"/>
  <circle cx="425.0" cy="201.2" r="3" fill="#f97316" stroke="white" stroke-width="1"/>
  <circle cx="472.9" cy="190.5" r="3" fill="#f97316" stroke="white" stroke-width="1"/>
  <circle cx="520.7" cy="192.2" r="3" fill="#f97316" stroke="white" stroke-width="1"/>
  <circle cx="568.6" cy="186.4" r="3" fill="#f97316" stroke="white" stroke-width="1"/>
  <circle cx="616.4" cy="178.0" r="3" fill="#f97316" stroke="white" stroke-width="1"/>
  <circle cx="664.3" cy="173.5" r="3" fill="#f97316" stroke="white" stroke-width="1"/>
  <circle cx="712.1" cy="113.7" r="3" fill="#f97316" stroke="white" stroke-width="1"/>
  <circle cx="760.0" cy="86.4" r="3" fill="#f97316" stroke="white" stroke-width="1"/>
  <line x1="123" y1="388" x2="137" y2="388" stroke="#eab308" stroke-width="2.5"/>
  <text x="141" y="392" fill="#374151" font-size="10" font-weight="500">libzmq</text>
  <line x1="291" y1="388" x2="305" y2="388" stroke="#dc2626" stroke-width="2.5"/>
  <text x="309" y="392" fill="#374151" font-size="10" font-weight="500">omq-compio</text>
  <line x1="458" y1="388" x2="472" y2="388" stroke="#f97316" stroke-width="2.5"/>
  <text x="476" y="392" fill="#374151" font-size="10" font-weight="500">omq-tokio</text>
  <line x1="626" y1="388" x2="640" y2="388" stroke="#2563eb" stroke-width="2.5"/>
  <text x="644" y="392" fill="#374151" font-size="10" font-weight="500">zmq.rs</text>
</svg>
