<svg xmlns="http://www.w3.org/2000/svg" viewBox="0 0 850 440" font-family="system-ui, -apple-system, sans-serif">
  <rect width="850" height="440" fill="white"/>
  <line x1="90" y1="350.0" x2="760" y2="350.0" stroke="#e5e7eb" stroke-width="1"/>
  <line x1="90" y1="312.8" x2="760" y2="312.8" stroke="#e5e7eb" stroke-width="1"/>
  <text x="82" y="312.8" text-anchor="end" dominant-baseline="middle" fill="#374151" font-size="10">20 µs</text>
  <line x1="90" y1="275.6" x2="760" y2="275.6" stroke="#e5e7eb" stroke-width="1"/>
  <text x="82" y="275.6" text-anchor="end" dominant-baseline="middle" fill="#374151" font-size="10">40 µs</text>
  <line x1="90" y1="238.3" x2="760" y2="238.3" stroke="#e5e7eb" stroke-width="1"/>
  <text x="82" y="238.3" text-anchor="end" dominant-baseline="middle" fill="#374151" font-size="10">60 µs</text>
  <line x1="90" y1="201.1" x2="760" y2="201.1" stroke="#e5e7eb" stroke-width="1"/>
  <text x="82" y="201.1" text-anchor="end" dominant-baseline="middle" fill="#374151" font-size="10">80 µs</text>
  <line x1="90" y1="163.9" x2="760" y2="163.9" stroke="#e5e7eb" stroke-width="1"/>
  <text x="82" y="163.9" text-anchor="end" dominant-baseline="middle" fill="#374151" font-size="10">100 µs</text>
  <line x1="90" y1="126.7" x2="760" y2="126.7" stroke="#e5e7eb" stroke-width="1"/>
  <text x="82" y="126.7" text-anchor="end" dominant-baseline="middle" fill="#374151" font-size="10">120 µs</text>
  <line x1="90" y1="89.5" x2="760" y2="89.5" stroke="#e5e7eb" stroke-width="1"/>
  <text x="82" y="89.5" text-anchor="end" dominant-baseline="middle" fill="#374151" font-size="10">140 µs</text>
  <line x1="90" y1="52.3" x2="760" y2="52.3" stroke="#e5e7eb" stroke-width="1"/>
  <text x="82" y="52.3" text-anchor="end" dominant-baseline="middle" fill="#374151" font-size="10">160 µs</text>
  <line x1="90.0" y1="45" x2="90.0" y2="350" stroke="#e5e7eb" stroke-width="1"/>
  <line x1="137.9" y1="45" x2="137.9" y2="350" stroke="#e5e7eb" stroke-width="1"/>
  <line x1="185.7" y1="45" x2="185.7" y2="350" stroke="#e5e7eb" stroke-width="1"/>
  <line x1="233.6" y1="45" x2="233.6" y2="350" stroke="#e5e7eb" stroke-width="1"/>
  <line x1="281.4" y1="45" x2="281.4" y2="350" stroke="#e5e7eb" stroke-width="1"/>
  <line x1="329.3" y1="45" x2="329.3" y2="350" stroke="#e5e7eb" stroke-width="1"/>
  <line x1="377.1" y1="45" x2="377.1" y2="350" stroke="#e5e7eb" stroke-width="1"/>
  <line x1="425.0" y1="45" x2="425.0" y2="350" stroke="#e5e7eb" stroke-width="1"/>
  <line x1="472.9" y1="45" x2="472.9" y2="350" stroke="#e5e7eb" stroke-width="1"/>
  <line x1="520.7" y1="45" x2="520.7" y2="350" stroke="#e5e7eb" stroke-width="1"/>
  <line x1="568.6" y1="45" x2="568.6" y2="350" stroke="#e5e7eb" stroke-width="1"/>
  <line x1="616.4" y1="45" x2="616.4" y2="350" stroke="#e5e7eb" stroke-width="1"/>
  <line x1="664.3" y1="45" x2="664.3" y2="350" stroke="#e5e7eb" stroke-width="1"/>
  <line x1="712.1" y1="45" x2="712.1" y2="350" stroke="#e5e7eb" stroke-width="1"/>
  <line x1="760.0" y1="45" x2="760.0" y2="350" stroke="#e5e7eb" stroke-width="1"/>
  <line x1="90" y1="45" x2="90" y2="350" stroke="#9ca3af" stroke-width="1.5"/>
  <line x1="90" y1="350" x2="760" y2="350" stroke="#9ca3af" stroke-width="1.5"/>
  <text x="90.0" y="366" text-anchor="middle" fill="#374151" font-size="9.5">8 B</text>
  <text x="137.9" y="366" text-anchor="middle" fill="#374151" font-size="9.5">16 B</text>
  <text x="185.7" y="366" text-anchor="middle" fill="#374151" font-size="9.5">32 B</text>
  <text x="233.6" y="366" text-anchor="middle" fill="#374151" font-size="9.5">64 B</text>
  <text x="281.4" y="366" text-anchor="middle" fill="#374151" font-size="9.5">128 B</text>
  <text x="329.3" y="366" text-anchor="middle" fill="#374151" font-size="9.5">256 B</text>
  <text x="377.1" y="366" text-anchor="middle" fill="#374151" font-size="9.5">512 B</text>
  <text x="425.0" y="366" text-anchor="middle" fill="#374151" font-size="9.5">1 KiB</text>
  <text x="472.9" y="366" text-anchor="middle" fill="#374151" font-size="9.5">2 KiB</text>
  <text x="520.7" y="366" text-anchor="middle" fill="#374151" font-size="9.5">4 KiB</text>
  <text x="568.6" y="366" text-anchor="middle" fill="#374151" font-size="9.5">8 KiB</text>
  <text x="616.4" y="366" text-anchor="middle" fill="#374151" font-size="9.5">16 KiB</text>
  <text x="664.3" y="366" text-anchor="middle" fill="#374151" font-size="9.5">32 KiB</text>
  <text x="712.1" y="366" text-anchor="middle" fill="#374151" font-size="9.5">64 KiB</text>
  <text x="760.0" y="366" text-anchor="middle" fill="#374151" font-size="9.5">128 KiB</text>
  <text x="40" y="197.5" text-anchor="middle" dominant-baseline="middle" fill="#374151" font-size="11" font-weight="600" transform="rotate(-90,40,197.5)">p50 latency (log)</text>
  <text x="425.0" y="22" text-anchor="middle" fill="#111827" font-size="14" font-weight="700">REQ/REP latency: pyomq vs pyzmq, TCP loopback (p50)</text>
  <polyline points="90.0,223.6 137.9,220.7 185.7,219.9 233.6,219.4 281.4,220.9 329.3,218.6 377.1,221.6 425.0,218.2 472.9,217.5 520.7,206.9 568.6,183.5 616.4,177.7 664.3,163.9 712.1,136.0 760.0,78.3" fill="none" stroke="#2563eb" stroke-width="2.5" stroke-linecap="round" stroke-linejoin="round"/>
  <circle cx="90.0" cy="223.6" r="3" fill="#2563eb" stroke="white" stroke-width="1"/>
  <circle cx="137.9" cy="220.7" r="3" fill="#2563eb" stroke="white" stroke-width="1"/>
  <circle cx="185.7" cy="219.9" r="3" fill="#2563eb" stroke="white" stroke-width="1"/>
  <circle cx="233.6" cy="219.4" r="3" fill="#2563eb" stroke="white" stroke-width="1"/>
  <circle cx="281.4" cy="220.9" r="3" fill="#2563eb" stroke="white" stroke-width="1"/>
  <circle cx="329.3" cy="218.6" r="3" fill="#2563eb" stroke="white" stroke-width="1"/>
  <circle cx="377.1" cy="221.6" r="3" fill="#2563eb" stroke="white" stroke-width="1"/>
  <circle cx="425.0" cy="218.2" r="3" fill="#2563eb" stroke="white" stroke-width="1"/>
  <circle cx="472.9" cy="217.5" r="3" fill="#2563eb" stroke="white" stroke-width="1"/>
  <circle cx="520.7" cy="206.9" r="3" fill="#2563eb" stroke="white" stroke-width="1"/>
  <circle cx="568.6" cy="183.5" r="3" fill="#2563eb" stroke="white" stroke-width="1"/>
  <circle cx="616.4" cy="177.7" r="3" fill="#2563eb" stroke="white" stroke-width="1"/>
  <circle cx="664.3" cy="163.9" r="3" fill="#2563eb" stroke="white" stroke-width="1"/>
  <circle cx="712.1" cy="136.0" r="3" fill="#2563eb" stroke="white" stroke-width="1"/>
  <circle cx="760.0" cy="78.3" r="3" fill="#2563eb" stroke="white" stroke-width="1"/>
  <polyline points="90.0,232.6 137.9,232.2 185.7,231.5 233.6,230.9 281.4,233.1 329.3,234.3 377.1,230.9 425.0,230.7 472.9,226.1 520.7,227.2 568.6,213.0 616.4,209.3 664.3,198.9 712.1,147.2 760.0,72.7" fill="none" stroke="#dc2626" stroke-width="2.5" stroke-linecap="round" stroke-linejoin="round"/>
  <circle cx="90.0" cy="232.6" r="3" fill="#dc2626" stroke="white" stroke-width="1"/>
  <circle cx="137.9" cy="232.2" r="3" fill="#dc2626" stroke="white" stroke-width="1"/>
  <circle cx="185.7" cy="231.5" r="3" fill="#dc2626" stroke="white" stroke-width="1"/>
  <circle cx="233.6" cy="230.9" r="3" fill="#dc2626" stroke="white" stroke-width="1"/>
  <circle cx="281.4" cy="233.1" r="3" fill="#dc2626" stroke="white" stroke-width="1"/>
  <circle cx="329.3" cy="234.3" r="3" fill="#dc2626" stroke="white" stroke-width="1"/>
  <circle cx="377.1" cy="230.9" r="3" fill="#dc2626" stroke="white" stroke-width="1"/>
  <circle cx="425.0" cy="230.7" r="3" fill="#dc2626" stroke="white" stroke-width="1"/>
  <circle cx="472.9" cy="226.1" r="3" fill="#dc2626" stroke="white" stroke-width="1"/>
  <circle cx="520.7" cy="227.2" r="3" fill="#dc2626" stroke="white" stroke-width="1"/>
  <circle cx="568.6" cy="213.0" r="3" fill="#dc2626" stroke="white" stroke-width="1"/>
  <circle cx="616.4" cy="209.3" r="3" fill="#dc2626" stroke="white" stroke-width="1"/>
  <circle cx="664.3" cy="198.9" r="3" fill="#dc2626" stroke="white" stroke-width="1"/>
  <circle cx="712.1" cy="147.2" r="3" fill="#dc2626" stroke="white" stroke-width="1"/>
  <circle cx="760.0" cy="72.7" r="3" fill="#dc2626" stroke="white" stroke-width="1"/>
  <line x1="190" y1="388" x2="204" y2="388" stroke="#dc2626" stroke-width="2.5"/>
  <text x="208" y="392" fill="#374151" font-size="10" font-weight="500">pyomq</text>
  <line x1="525" y1="388" x2="539" y2="388" stroke="#2563eb" stroke-width="2.5"/>
  <text x="543" y="392" fill="#374151" font-size="10" font-weight="500">pyzmq</text>
</svg>
