<svg xmlns="http://www.w3.org/2000/svg" viewBox="0 0 950 410" font-family="system-ui, -apple-system, sans-serif">
  <rect width="950" height="410" fill="white"/>
  <text x="475.0" y="16.0" text-anchor="middle" fill="#111827" font-size="14" font-weight="700">PUSH/PULL throughput, io_uring, TCP loopback, 2-process</text>
  <text x="475.0" y="30.0" text-anchor="middle" fill="#9ca3af" font-size="9">Linux VM on a 2018 Mac Mini, Intel Core i7-8700B @ 3.20GHz, 6 cores, performance governor, turbo off</text>
  <text x="224.0" y="48.0" text-anchor="middle" fill="#111827" font-size="12" font-weight="700">small messages (higher is better)</text>
  <line x1="70.0" y1="256.1" x2="378.0" y2="256.1" stroke="#e5e7eb" stroke-width="1" stroke-dasharray="4,3"/>
  <text x="62.0" y="256.1" text-anchor="end" dominant-baseline="middle" fill="#374151" font-size="8.5">2 M msg/s</text>
  <line x1="70.0" y1="192.2" x2="378.0" y2="192.2" stroke="#e5e7eb" stroke-width="1" stroke-dasharray="4,3"/>
  <text x="62.0" y="192.2" text-anchor="end" dominant-baseline="middle" fill="#374151" font-size="8.5">4 M msg/s</text>
  <line x1="70.0" y1="128.3" x2="378.0" y2="128.3" stroke="#e5e7eb" stroke-width="1" stroke-dasharray="4,3"/>
  <text x="62.0" y="128.3" text-anchor="end" dominant-baseline="middle" fill="#374151" font-size="8.5">6 M msg/s</text>
  <line x1="70.0" y1="64.4" x2="378.0" y2="64.4" stroke="#e5e7eb" stroke-width="1" stroke-dasharray="4,3"/>
  <text x="62.0" y="64.4" text-anchor="end" dominant-baseline="middle" fill="#374151" font-size="8.5">8 M msg/s</text>
  <line x1="378.0" y1="60.0" x2="378.0" y2="320.0" stroke="#9ca3af" stroke-width="1.5"/>
  <line x1="70.0" y1="60.0" x2="70.0" y2="320.0" stroke="#e5e7eb" stroke-width="1"/>
  <line x1="131.6" y1="60.0" x2="131.6" y2="320.0" stroke="#e5e7eb" stroke-width="1"/>
  <line x1="193.2" y1="60.0" x2="193.2" y2="320.0" stroke="#e5e7eb" stroke-width="1"/>
  <line x1="254.8" y1="60.0" x2="254.8" y2="320.0" stroke="#e5e7eb" stroke-width="1"/>
  <line x1="316.4" y1="60.0" x2="316.4" y2="320.0" stroke="#e5e7eb" stroke-width="1"/>
  <line x1="378.0" y1="60.0" x2="378.0" y2="320.0" stroke="#e5e7eb" stroke-width="1"/>
  <line x1="70.0" y1="60.0" x2="70.0" y2="320.0" stroke="#9ca3af" stroke-width="1.5"/>
  <line x1="70.0" y1="320.0" x2="378.0" y2="320.0" stroke="#9ca3af" stroke-width="1.5"/>
  <polyline points="70.0,244.8 131.6,244.8 193.2,245.0 254.8,246.0 316.4,247.5 378.0,251.6" fill="none" stroke="#16a34a" stroke-width="2.5" stroke-dasharray="6,3"/>
  <polyline points="70.0,93.9 131.6,94.6 193.2,105.8 254.8,160.4 316.4,170.4 378.0,195.0" fill="none" stroke="#7c3aed" stroke-width="2.5" stroke-dasharray="6,3"/>
  <text x="70.0" y="333.0" text-anchor="middle" fill="#374151" font-size="8">8 B</text>
  <text x="131.6" y="333.0" text-anchor="middle" fill="#374151" font-size="8">16 B</text>
  <text x="193.2" y="333.0" text-anchor="middle" fill="#374151" font-size="8">32 B</text>
  <text x="254.8" y="333.0" text-anchor="middle" fill="#374151" font-size="8">64 B</text>
  <text x="316.4" y="333.0" text-anchor="middle" fill="#374151" font-size="8">128 B</text>
  <text x="378.0" y="333.0" text-anchor="middle" fill="#374151" font-size="8">256 B</text>
  <text x="649.0" y="48.0" text-anchor="middle" fill="#111827" font-size="12" font-weight="700">medium/large messages (higher is better)</text>
  <line x1="418.0" y1="263.6" x2="880.0" y2="263.6" stroke="#e5e7eb" stroke-width="1"/>
  <text x="888.0" y="263.6" text-anchor="start" dominant-baseline="middle" fill="#374151" font-size="8.5">1 GB/s</text>
  <line x1="418.0" y1="207.3" x2="880.0" y2="207.3" stroke="#e5e7eb" stroke-width="1"/>
  <text x="888.0" y="207.3" text-anchor="start" dominant-baseline="middle" fill="#374151" font-size="8.5">2 GB/s</text>
  <line x1="418.0" y1="150.9" x2="880.0" y2="150.9" stroke="#e5e7eb" stroke-width="1"/>
  <text x="888.0" y="150.9" text-anchor="start" dominant-baseline="middle" fill="#374151" font-size="8.5">3 GB/s</text>
  <line x1="418.0" y1="94.5" x2="880.0" y2="94.5" stroke="#e5e7eb" stroke-width="1"/>
  <text x="888.0" y="94.5" text-anchor="start" dominant-baseline="middle" fill="#374151" font-size="8.5">4 GB/s</text>
  <line x1="880.0" y1="60.0" x2="880.0" y2="320.0" stroke="#9ca3af" stroke-width="1.5"/>
  <line x1="418.0" y1="60.0" x2="418.0" y2="320.0" stroke="#e5e7eb" stroke-width="1"/>
  <line x1="484.0" y1="60.0" x2="484.0" y2="320.0" stroke="#e5e7eb" stroke-width="1"/>
  <line x1="550.0" y1="60.0" x2="550.0" y2="320.0" stroke="#e5e7eb" stroke-width="1"/>
  <line x1="616.0" y1="60.0" x2="616.0" y2="320.0" stroke="#e5e7eb" stroke-width="1"/>
  <line x1="682.0" y1="60.0" x2="682.0" y2="320.0" stroke="#e5e7eb" stroke-width="1"/>
  <line x1="748.0" y1="60.0" x2="748.0" y2="320.0" stroke="#e5e7eb" stroke-width="1"/>
  <line x1="814.0" y1="60.0" x2="814.0" y2="320.0" stroke="#e5e7eb" stroke-width="1"/>
  <line x1="880.0" y1="60.0" x2="880.0" y2="320.0" stroke="#e5e7eb" stroke-width="1"/>
  <line x1="418.0" y1="60.0" x2="418.0" y2="320.0" stroke="#9ca3af" stroke-width="1.5"/>
  <line x1="418.0" y1="320.0" x2="880.0" y2="320.0" stroke="#9ca3af" stroke-width="1.5"/>
  <polyline points="418.0,289.1 484.0,264.4 550.0,227.1 616.0,176.8 682.0,132.1 748.0,106.6 814.0,95.6 880.0,93.9" fill="none" stroke="#16a34a" stroke-width="2.5" stroke-linecap="round" stroke-linejoin="round"/>
  <circle cx="418.0" cy="289.1" r="3" fill="#16a34a" stroke="white" stroke-width="1"/>
  <circle cx="484.0" cy="264.4" r="3" fill="#16a34a" stroke="white" stroke-width="1"/>
  <circle cx="550.0" cy="227.1" r="3" fill="#16a34a" stroke="white" stroke-width="1"/>
  <circle cx="616.0" cy="176.8" r="3" fill="#16a34a" stroke="white" stroke-width="1"/>
  <circle cx="682.0" cy="132.1" r="3" fill="#16a34a" stroke="white" stroke-width="1"/>
  <circle cx="748.0" cy="106.6" r="3" fill="#16a34a" stroke="white" stroke-width="1"/>
  <circle cx="814.0" cy="95.6" r="3" fill="#16a34a" stroke="white" stroke-width="1"/>
  <circle cx="880.0" cy="93.9" r="3" fill="#16a34a" stroke="white" stroke-width="1"/>
  <polyline points="418.0,263.6 484.0,234.2 550.0,238.3 616.0,195.6 682.0,141.3 748.0,126.9 814.0,128.2 880.0,140.2" fill="none" stroke="#7c3aed" stroke-width="2.5" stroke-linecap="round" stroke-linejoin="round"/>
  <circle cx="418.0" cy="263.6" r="3" fill="#7c3aed" stroke="white" stroke-width="1"/>
  <circle cx="484.0" cy="234.2" r="3" fill="#7c3aed" stroke="white" stroke-width="1"/>
  <circle cx="550.0" cy="238.3" r="3" fill="#7c3aed" stroke="white" stroke-width="1"/>
  <circle cx="616.0" cy="195.6" r="3" fill="#7c3aed" stroke="white" stroke-width="1"/>
  <circle cx="682.0" cy="141.3" r="3" fill="#7c3aed" stroke="white" stroke-width="1"/>
  <circle cx="748.0" cy="126.9" r="3" fill="#7c3aed" stroke="white" stroke-width="1"/>
  <circle cx="814.0" cy="128.2" r="3" fill="#7c3aed" stroke="white" stroke-width="1"/>
  <circle cx="880.0" cy="140.2" r="3" fill="#7c3aed" stroke="white" stroke-width="1"/>
  <text x="418.0" y="333.0" text-anchor="middle" fill="#374151" font-size="8">256 B</text>
  <text x="484.0" y="333.0" text-anchor="middle" fill="#374151" font-size="8">512 B</text>
  <text x="550.0" y="333.0" text-anchor="middle" fill="#374151" font-size="8">1 KiB</text>
  <text x="616.0" y="333.0" text-anchor="middle" fill="#374151" font-size="8">2 KiB</text>
  <text x="682.0" y="333.0" text-anchor="middle" fill="#374151" font-size="8">4 KiB</text>
  <text x="748.0" y="333.0" text-anchor="middle" fill="#374151" font-size="8">8 KiB</text>
  <text x="814.0" y="333.0" text-anchor="middle" fill="#374151" font-size="8">16 KiB</text>
  <text x="880.0" y="333.0" text-anchor="middle" fill="#374151" font-size="8">32 KiB</text>
  <line x1="285" y1="350" x2="299" y2="350" stroke="#7c3aed" stroke-width="2.5" stroke-linecap="round"/>
  <circle cx="292" cy="350" r="2.5" fill="#7c3aed"/>
  <text x="305" y="354" fill="#374151" font-size="10" font-weight="500">omq-compio (ST)</text>
  <line x1="475" y1="350" x2="489" y2="350" stroke="#16a34a" stroke-width="2.5" stroke-linecap="round"/>
  <circle cx="482" cy="350" r="2.5" fill="#16a34a"/>
  <text x="495" y="354" fill="#374151" font-size="10" font-weight="500">rzmq v0.5.22 (io_uring, MT)</text>
  <text x="475.0" y="368.0" text-anchor="middle" fill="#9ca3af" font-size="9">ST = single-threaded   MT = multi-threaded</text>
</svg>
