<svg xmlns="http://www.w3.org/2000/svg" viewBox="0 0 950 410" font-family="system-ui, -apple-system, sans-serif">
  <rect width="950" height="410" fill="white"/>
  <text x="475.0" y="16.0" text-anchor="middle" fill="#111827" font-size="14" font-weight="700">PUSH/PULL throughput, TCP loopback, 2-process</text>
  <text x="475.0" y="30.0" text-anchor="middle" fill="#9ca3af" font-size="9">Linux VM on a 2018 Mac Mini, Intel Core i7-8700B @ 3.20GHz, 6 cores, performance governor, turbo off</text>
  <text x="224.0" y="48.0" text-anchor="middle" fill="#111827" font-size="12" font-weight="700">small messages (higher is better)</text>
  <line x1="70.0" y1="257.4" x2="378.0" y2="257.4" stroke="#e5e7eb" stroke-width="1" stroke-dasharray="4,3"/>
  <text x="62.0" y="257.4" text-anchor="end" dominant-baseline="middle" fill="#374151" font-size="8.5">2 M msg/s</text>
  <line x1="70.0" y1="194.8" x2="378.0" y2="194.8" stroke="#e5e7eb" stroke-width="1" stroke-dasharray="4,3"/>
  <text x="62.0" y="194.8" text-anchor="end" dominant-baseline="middle" fill="#374151" font-size="8.5">4 M msg/s</text>
  <line x1="70.0" y1="132.3" x2="378.0" y2="132.3" stroke="#e5e7eb" stroke-width="1" stroke-dasharray="4,3"/>
  <text x="62.0" y="132.3" text-anchor="end" dominant-baseline="middle" fill="#374151" font-size="8.5">6 M msg/s</text>
  <line x1="70.0" y1="69.7" x2="378.0" y2="69.7" stroke="#e5e7eb" stroke-width="1" stroke-dasharray="4,3"/>
  <text x="62.0" y="69.7" text-anchor="end" dominant-baseline="middle" fill="#374151" font-size="8.5">8 M msg/s</text>
  <line x1="378.0" y1="60.0" x2="378.0" y2="320.0" stroke="#9ca3af" stroke-width="1.5"/>
  <line x1="70.0" y1="60.0" x2="70.0" y2="320.0" stroke="#e5e7eb" stroke-width="1"/>
  <line x1="224.0" y1="60.0" x2="224.0" y2="320.0" stroke="#e5e7eb" stroke-width="1"/>
  <line x1="378.0" y1="60.0" x2="378.0" y2="320.0" stroke="#e5e7eb" stroke-width="1"/>
  <line x1="70.0" y1="60.0" x2="70.0" y2="320.0" stroke="#9ca3af" stroke-width="1.5"/>
  <line x1="70.0" y1="320.0" x2="378.0" y2="320.0" stroke="#9ca3af" stroke-width="1.5"/>
  <polyline points="70.0,263.6 224.0,264.7 378.0,267.1" fill="none" stroke="#15803d" stroke-width="2.5" stroke-dasharray="6,3"/>
  <polyline points="70.0,247.1 224.0,247.6 378.0,253.7" fill="none" stroke="#16a34a" stroke-width="2.5" stroke-dasharray="6,3"/>
  <polyline points="70.0,309.3 224.0,311.5 378.0,312.1" fill="none" stroke="#2563eb" stroke-width="2.5" stroke-dasharray="6,3"/>
  <polyline points="70.0,93.9 224.0,176.4 378.0,254.6" fill="none" stroke="#eab308" stroke-width="2.5" stroke-dasharray="6,3"/>
  <polyline points="70.0,99.9 224.0,172.9 378.0,181.3" fill="none" stroke="#dc2626" stroke-width="2.5" stroke-dasharray="6,3"/>
  <polyline points="70.0,128.7 224.0,193.8 378.0,213.4" fill="none" stroke="#f97316" stroke-width="2.5" stroke-dasharray="6,3"/>
  <text x="70.0" y="333.0" text-anchor="middle" fill="#374151" font-size="8">16 B</text>
  <text x="224.0" y="333.0" text-anchor="middle" fill="#374151" font-size="8">64 B</text>
  <text x="378.0" y="333.0" text-anchor="middle" fill="#374151" font-size="8">256 B</text>
  <text x="649.0" y="48.0" text-anchor="middle" fill="#111827" font-size="12" font-weight="700">medium/large messages (higher is better)</text>
  <line x1="418.0" y1="279.3" x2="880.0" y2="279.3" stroke="#e5e7eb" stroke-width="1"/>
  <text x="888.0" y="279.3" text-anchor="start" dominant-baseline="middle" fill="#374151" font-size="8.5">1 GB/s</text>
  <line x1="418.0" y1="238.5" x2="880.0" y2="238.5" stroke="#e5e7eb" stroke-width="1"/>
  <text x="888.0" y="238.5" text-anchor="start" dominant-baseline="middle" fill="#374151" font-size="8.5">2 GB/s</text>
  <line x1="418.0" y1="197.8" x2="880.0" y2="197.8" stroke="#e5e7eb" stroke-width="1"/>
  <text x="888.0" y="197.8" text-anchor="start" dominant-baseline="middle" fill="#374151" font-size="8.5">3 GB/s</text>
  <line x1="418.0" y1="157.0" x2="880.0" y2="157.0" stroke="#e5e7eb" stroke-width="1"/>
  <text x="888.0" y="157.0" text-anchor="start" dominant-baseline="middle" fill="#374151" font-size="8.5">4 GB/s</text>
  <line x1="418.0" y1="116.3" x2="880.0" y2="116.3" stroke="#e5e7eb" stroke-width="1"/>
  <text x="888.0" y="116.3" text-anchor="start" dominant-baseline="middle" fill="#374151" font-size="8.5">5 GB/s</text>
  <line x1="418.0" y1="75.5" x2="880.0" y2="75.5" stroke="#e5e7eb" stroke-width="1"/>
  <text x="888.0" y="75.5" text-anchor="start" dominant-baseline="middle" fill="#374151" font-size="8.5">6 GB/s</text>
  <line x1="880.0" y1="60.0" x2="880.0" y2="320.0" stroke="#9ca3af" stroke-width="1.5"/>
  <line x1="418.0" y1="60.0" x2="418.0" y2="320.0" stroke="#e5e7eb" stroke-width="1"/>
  <line x1="572.0" y1="60.0" x2="572.0" y2="320.0" stroke="#e5e7eb" stroke-width="1"/>
  <line x1="726.0" y1="60.0" x2="726.0" y2="320.0" stroke="#e5e7eb" stroke-width="1"/>
  <line x1="880.0" y1="60.0" x2="880.0" y2="320.0" stroke="#e5e7eb" stroke-width="1"/>
  <line x1="418.0" y1="60.0" x2="418.0" y2="320.0" stroke="#9ca3af" stroke-width="1.5"/>
  <line x1="418.0" y1="320.0" x2="880.0" y2="320.0" stroke="#9ca3af" stroke-width="1.5"/>
  <polyline points="418.0,302.4 572.0,252.1 726.0,161.6 880.0,101.2" fill="none" stroke="#15803d" stroke-width="2.5" stroke-linecap="round" stroke-linejoin="round"/>
  <circle cx="418.0" cy="302.4" r="3" fill="#15803d" stroke="white" stroke-width="1"/>
  <circle cx="572.0" cy="252.1" r="3" fill="#15803d" stroke="white" stroke-width="1"/>
  <circle cx="726.0" cy="161.6" r="3" fill="#15803d" stroke="white" stroke-width="1"/>
  <circle cx="880.0" cy="101.2" r="3" fill="#15803d" stroke="white" stroke-width="1"/>
  <polyline points="418.0,297.9 572.0,253.4 726.0,188.2 880.0,162.0" fill="none" stroke="#16a34a" stroke-width="2.5" stroke-linecap="round" stroke-linejoin="round"/>
  <circle cx="418.0" cy="297.9" r="3" fill="#16a34a" stroke="white" stroke-width="1"/>
  <circle cx="572.0" cy="253.4" r="3" fill="#16a34a" stroke="white" stroke-width="1"/>
  <circle cx="726.0" cy="188.2" r="3" fill="#16a34a" stroke="white" stroke-width="1"/>
  <circle cx="880.0" cy="162.0" r="3" fill="#16a34a" stroke="white" stroke-width="1"/>
  <polyline points="418.0,317.4 572.0,310.3 726.0,287.5 880.0,224.6" fill="none" stroke="#2563eb" stroke-width="2.5" stroke-linecap="round" stroke-linejoin="round"/>
  <circle cx="418.0" cy="317.4" r="3" fill="#2563eb" stroke="white" stroke-width="1"/>
  <circle cx="572.0" cy="310.3" r="3" fill="#2563eb" stroke="white" stroke-width="1"/>
  <circle cx="726.0" cy="287.5" r="3" fill="#2563eb" stroke="white" stroke-width="1"/>
  <circle cx="880.0" cy="224.6" r="3" fill="#2563eb" stroke="white" stroke-width="1"/>
  <polyline points="418.0,298.2 572.0,283.1 726.0,272.0 880.0,271.6" fill="none" stroke="#eab308" stroke-width="2.5" stroke-linecap="round" stroke-linejoin="round"/>
  <circle cx="418.0" cy="298.2" r="3" fill="#eab308" stroke="white" stroke-width="1"/>
  <circle cx="572.0" cy="283.1" r="3" fill="#eab308" stroke="white" stroke-width="1"/>
  <circle cx="726.0" cy="272.0" r="3" fill="#eab308" stroke="white" stroke-width="1"/>
  <circle cx="880.0" cy="271.6" r="3" fill="#eab308" stroke="white" stroke-width="1"/>
  <polyline points="418.0,273.8 572.0,177.1 726.0,127.4 880.0,93.9" fill="none" stroke="#dc2626" stroke-width="2.5" stroke-linecap="round" stroke-linejoin="round"/>
  <circle cx="418.0" cy="273.8" r="3" fill="#dc2626" stroke="white" stroke-width="1"/>
  <circle cx="572.0" cy="177.1" r="3" fill="#dc2626" stroke="white" stroke-width="1"/>
  <circle cx="726.0" cy="127.4" r="3" fill="#dc2626" stroke="white" stroke-width="1"/>
  <circle cx="880.0" cy="93.9" r="3" fill="#dc2626" stroke="white" stroke-width="1"/>
  <polyline points="418.0,284.5 572.0,230.0 726.0,175.6 880.0,160.3" fill="none" stroke="#f97316" stroke-width="2.5" stroke-linecap="round" stroke-linejoin="round"/>
  <circle cx="418.0" cy="284.5" r="3" fill="#f97316" stroke="white" stroke-width="1"/>
  <circle cx="572.0" cy="230.0" r="3" fill="#f97316" stroke="white" stroke-width="1"/>
  <circle cx="726.0" cy="175.6" r="3" fill="#f97316" stroke="white" stroke-width="1"/>
  <circle cx="880.0" cy="160.3" r="3" fill="#f97316" stroke="white" stroke-width="1"/>
  <text x="418.0" y="333.0" text-anchor="middle" fill="#374151" font-size="8">256 B</text>
  <text x="572.0" y="333.0" text-anchor="middle" fill="#374151" font-size="8">1 KiB</text>
  <text x="726.0" y="333.0" text-anchor="middle" fill="#374151" font-size="8">4 KiB</text>
  <text x="880.0" y="333.0" text-anchor="middle" fill="#374151" font-size="8">16 KiB</text>
  <line x1="190" y1="350" x2="204" y2="350" stroke="#eab308" stroke-width="2.5" stroke-linecap="round"/>
  <circle cx="197" cy="350" r="2.5" fill="#eab308"/>
  <text x="210" y="354" fill="#374151" font-size="10" font-weight="500">libzmq v4.3.5</text>
  <line x1="380" y1="350" x2="394" y2="350" stroke="#f97316" stroke-width="2.5" stroke-linecap="round"/>
  <circle cx="387" cy="350" r="2.5" fill="#f97316"/>
  <text x="400" y="354" fill="#374151" font-size="10" font-weight="500">omq-tokio (ST)</text>
  <line x1="570" y1="350" x2="584" y2="350" stroke="#dc2626" stroke-width="2.5" stroke-linecap="round"/>
  <circle cx="577" cy="350" r="2.5" fill="#dc2626"/>
  <text x="590" y="354" fill="#374151" font-size="10" font-weight="500">omq-tokio (MT)</text>
  <line x1="190" y1="370" x2="204" y2="370" stroke="#2563eb" stroke-width="2.5" stroke-linecap="round"/>
  <circle cx="197" cy="370" r="2.5" fill="#2563eb"/>
  <text x="210" y="374" fill="#374151" font-size="10" font-weight="500">zmq.rs v0.6.0 (MT)</text>
  <line x1="380" y1="370" x2="394" y2="370" stroke="#16a34a" stroke-width="2.5" stroke-linecap="round"/>
  <circle cx="387" cy="370" r="2.5" fill="#16a34a"/>
  <text x="400" y="374" fill="#374151" font-size="10" font-weight="500">rzmq v0.5.22 (MT)</text>
  <line x1="570" y1="370" x2="584" y2="370" stroke="#15803d" stroke-width="2.5" stroke-linecap="round"/>
  <circle cx="577" cy="370" r="2.5" fill="#15803d"/>
  <text x="590" y="374" fill="#374151" font-size="10" font-weight="500">rzmq v0.5.22 (io_uring, MT)</text>
  <text x="475.0" y="388.0" text-anchor="middle" fill="#9ca3af" font-size="9">ST = single-threaded   MT = multi-threaded</text>
</svg>
