<svg xmlns="http://www.w3.org/2000/svg" viewBox="0 0 950 640" font-family="system-ui, -apple-system, sans-serif">
  <rect width="950" height="640" fill="white"/>
  <text x="475.0" y="16.0" text-anchor="middle" fill="#111827" font-size="14" font-weight="700">PUSH/PULL throughput, TCP loopback, 2-process</text>
  <text x="475.0" y="30.0" text-anchor="middle" fill="#9ca3af" font-size="9">Linux VM on a 2018 Mac Mini, Intel Core i7-8700B @ 3.20GHz, 6 cores, performance governor, turbo off</text>
  <text x="224.0" y="48.0" text-anchor="middle" fill="#111827" font-size="12" font-weight="700">small messages (higher is better)</text>
  <line x1="70.0" y1="277.7" x2="378.0" y2="277.7" stroke="#e5e7eb" stroke-width="1" stroke-dasharray="4,3"/>
  <text x="62.0" y="277.7" text-anchor="end" dominant-baseline="middle" fill="#374151" font-size="8.5">2 M msg/s</text>
  <line x1="70.0" y1="235.3" x2="378.0" y2="235.3" stroke="#e5e7eb" stroke-width="1" stroke-dasharray="4,3"/>
  <text x="62.0" y="235.3" text-anchor="end" dominant-baseline="middle" fill="#374151" font-size="8.5">4 M msg/s</text>
  <line x1="70.0" y1="193.0" x2="378.0" y2="193.0" stroke="#e5e7eb" stroke-width="1" stroke-dasharray="4,3"/>
  <text x="62.0" y="193.0" text-anchor="end" dominant-baseline="middle" fill="#374151" font-size="8.5">6 M msg/s</text>
  <line x1="70.0" y1="150.6" x2="378.0" y2="150.6" stroke="#e5e7eb" stroke-width="1" stroke-dasharray="4,3"/>
  <text x="62.0" y="150.6" text-anchor="end" dominant-baseline="middle" fill="#374151" font-size="8.5">8 M msg/s</text>
  <line x1="70.0" y1="108.3" x2="378.0" y2="108.3" stroke="#e5e7eb" stroke-width="1" stroke-dasharray="4,3"/>
  <text x="62.0" y="108.3" text-anchor="end" dominant-baseline="middle" fill="#374151" font-size="8.5">10 M msg/s</text>
  <line x1="70.0" y1="65.9" x2="378.0" y2="65.9" stroke="#e5e7eb" stroke-width="1" stroke-dasharray="4,3"/>
  <text x="62.0" y="65.9" text-anchor="end" dominant-baseline="middle" fill="#374151" font-size="8.5">12 M msg/s</text>
  <line x1="378.0" y1="60.0" x2="378.0" y2="320.0" stroke="#9ca3af" stroke-width="1.5"/>
  <line x1="70.0" y1="60.0" x2="70.0" y2="320.0" stroke="#e5e7eb" stroke-width="1"/>
  <line x1="131.6" y1="60.0" x2="131.6" y2="320.0" stroke="#e5e7eb" stroke-width="1"/>
  <line x1="193.2" y1="60.0" x2="193.2" y2="320.0" stroke="#e5e7eb" stroke-width="1"/>
  <line x1="254.8" y1="60.0" x2="254.8" y2="320.0" stroke="#e5e7eb" stroke-width="1"/>
  <line x1="316.4" y1="60.0" x2="316.4" y2="320.0" stroke="#e5e7eb" stroke-width="1"/>
  <line x1="378.0" y1="60.0" x2="378.0" y2="320.0" stroke="#e5e7eb" stroke-width="1"/>
  <line x1="70.0" y1="60.0" x2="70.0" y2="320.0" stroke="#9ca3af" stroke-width="1.5"/>
  <line x1="70.0" y1="320.0" x2="378.0" y2="320.0" stroke="#9ca3af" stroke-width="1.5"/>
  <polyline points="70.0,248.4 131.6,255.4 193.2,253.6 254.8,260.0 316.4,256.8 378.0,269.1" fill="none" stroke="#15803d" stroke-width="2.5" stroke-dasharray="6,3"/>
  <circle cx="70.0" cy="248.4" r="3" fill="#15803d" stroke="white" stroke-width="1"/>
  <circle cx="131.6" cy="255.4" r="3" fill="#15803d" stroke="white" stroke-width="1"/>
  <circle cx="193.2" cy="253.6" r="3" fill="#15803d" stroke="white" stroke-width="1"/>
  <circle cx="254.8" cy="260.0" r="3" fill="#15803d" stroke="white" stroke-width="1"/>
  <circle cx="316.4" cy="256.8" r="3" fill="#15803d" stroke="white" stroke-width="1"/>
  <circle cx="378.0" cy="269.1" r="3" fill="#15803d" stroke="white" stroke-width="1"/>
  <polyline points="70.0,292.8 131.6,285.3 193.2,272.9 254.8,268.4 316.4,268.1 378.0,277.8" fill="none" stroke="#16a34a" stroke-width="2.5" stroke-dasharray="6,3"/>
  <circle cx="70.0" cy="292.8" r="3" fill="#16a34a" stroke="white" stroke-width="1"/>
  <circle cx="131.6" cy="285.3" r="3" fill="#16a34a" stroke="white" stroke-width="1"/>
  <circle cx="193.2" cy="272.9" r="3" fill="#16a34a" stroke="white" stroke-width="1"/>
  <circle cx="254.8" cy="268.4" r="3" fill="#16a34a" stroke="white" stroke-width="1"/>
  <circle cx="316.4" cy="268.1" r="3" fill="#16a34a" stroke="white" stroke-width="1"/>
  <circle cx="378.0" cy="277.8" r="3" fill="#16a34a" stroke="white" stroke-width="1"/>
  <polyline points="70.0,312.9 131.6,313.7 193.2,314.4 254.8,314.6 316.4,314.8 378.0,315.1" fill="none" stroke="#2563eb" stroke-width="2.5" stroke-dasharray="6,3"/>
  <circle cx="70.0" cy="312.9" r="3" fill="#2563eb" stroke="white" stroke-width="1"/>
  <circle cx="131.6" cy="313.7" r="3" fill="#2563eb" stroke="white" stroke-width="1"/>
  <circle cx="193.2" cy="314.4" r="3" fill="#2563eb" stroke="white" stroke-width="1"/>
  <circle cx="254.8" cy="314.6" r="3" fill="#2563eb" stroke="white" stroke-width="1"/>
  <circle cx="316.4" cy="314.8" r="3" fill="#2563eb" stroke="white" stroke-width="1"/>
  <circle cx="378.0" cy="315.1" r="3" fill="#2563eb" stroke="white" stroke-width="1"/>
  <polyline points="70.0,176.6 131.6,179.5 193.2,229.3 254.8,272.7 316.4,276.6 378.0,301.2" fill="none" stroke="#eab308" stroke-width="2.5" stroke-dasharray="6,3"/>
  <circle cx="70.0" cy="176.6" r="3" fill="#eab308" stroke="white" stroke-width="1"/>
  <circle cx="131.6" cy="179.5" r="3" fill="#eab308" stroke="white" stroke-width="1"/>
  <circle cx="193.2" cy="229.3" r="3" fill="#eab308" stroke="white" stroke-width="1"/>
  <circle cx="254.8" cy="272.7" r="3" fill="#eab308" stroke="white" stroke-width="1"/>
  <circle cx="316.4" cy="276.6" r="3" fill="#eab308" stroke="white" stroke-width="1"/>
  <circle cx="378.0" cy="301.2" r="3" fill="#eab308" stroke="white" stroke-width="1"/>
  <polyline points="70.0,171.4 131.6,177.6 193.2,222.2 254.8,272.1 316.4,276.5 378.0,301.3" fill="none" stroke="#a16207" stroke-width="2.5" stroke-dasharray="6,3"/>
  <circle cx="70.0" cy="171.4" r="3" fill="#a16207" stroke="white" stroke-width="1"/>
  <circle cx="131.6" cy="177.6" r="3" fill="#a16207" stroke="white" stroke-width="1"/>
  <circle cx="193.2" cy="222.2" r="3" fill="#a16207" stroke="white" stroke-width="1"/>
  <circle cx="254.8" cy="272.1" r="3" fill="#a16207" stroke="white" stroke-width="1"/>
  <circle cx="316.4" cy="276.5" r="3" fill="#a16207" stroke="white" stroke-width="1"/>
  <circle cx="378.0" cy="301.3" r="3" fill="#a16207" stroke="white" stroke-width="1"/>
  <polyline points="70.0,93.9 131.6,122.7 193.2,172.6 254.8,197.3 316.4,203.4 378.0,246.2" fill="none" stroke="#dc2626" stroke-width="2.5" stroke-dasharray="6,3"/>
  <circle cx="70.0" cy="93.9" r="3" fill="#dc2626" stroke="white" stroke-width="1"/>
  <circle cx="131.6" cy="122.7" r="3" fill="#dc2626" stroke="white" stroke-width="1"/>
  <circle cx="193.2" cy="172.6" r="3" fill="#dc2626" stroke="white" stroke-width="1"/>
  <circle cx="254.8" cy="197.3" r="3" fill="#dc2626" stroke="white" stroke-width="1"/>
  <circle cx="316.4" cy="203.4" r="3" fill="#dc2626" stroke="white" stroke-width="1"/>
  <circle cx="378.0" cy="246.2" r="3" fill="#dc2626" stroke="white" stroke-width="1"/>
  <polyline points="70.0,168.4 131.6,193.7 193.2,214.0 254.8,216.3 316.4,230.1 378.0,264.1" fill="none" stroke="#f97316" stroke-width="2.5" stroke-dasharray="6,3"/>
  <circle cx="70.0" cy="168.4" r="3" fill="#f97316" stroke="white" stroke-width="1"/>
  <circle cx="131.6" cy="193.7" r="3" fill="#f97316" stroke="white" stroke-width="1"/>
  <circle cx="193.2" cy="214.0" r="3" fill="#f97316" stroke="white" stroke-width="1"/>
  <circle cx="254.8" cy="216.3" r="3" fill="#f97316" stroke="white" stroke-width="1"/>
  <circle cx="316.4" cy="230.1" r="3" fill="#f97316" stroke="white" stroke-width="1"/>
  <circle cx="378.0" cy="264.1" r="3" fill="#f97316" stroke="white" stroke-width="1"/>
  <text x="70.0" y="333.0" text-anchor="middle" fill="#374151" font-size="8">16 B</text>
  <text x="131.6" y="333.0" text-anchor="middle" fill="#374151" font-size="8">32 B</text>
  <text x="193.2" y="333.0" text-anchor="middle" fill="#374151" font-size="8">64 B</text>
  <text x="254.8" y="333.0" text-anchor="middle" fill="#374151" font-size="8">128 B</text>
  <text x="316.4" y="333.0" text-anchor="middle" fill="#374151" font-size="8">256 B</text>
  <text x="378.0" y="333.0" text-anchor="middle" fill="#374151" font-size="8">1 KiB</text>
  <text x="649.0" y="48.0" text-anchor="middle" fill="#111827" font-size="12" font-weight="700">medium/large messages (higher is better)</text>
  <line x1="418.0" y1="276.8" x2="880.0" y2="276.8" stroke="#e5e7eb" stroke-width="1"/>
  <text x="888.0" y="276.8" text-anchor="start" dominant-baseline="middle" fill="#374151" font-size="8.5">1 GB/s</text>
  <line x1="418.0" y1="233.7" x2="880.0" y2="233.7" stroke="#e5e7eb" stroke-width="1"/>
  <text x="888.0" y="233.7" text-anchor="start" dominant-baseline="middle" fill="#374151" font-size="8.5">2 GB/s</text>
  <line x1="418.0" y1="190.5" x2="880.0" y2="190.5" stroke="#e5e7eb" stroke-width="1"/>
  <text x="888.0" y="190.5" text-anchor="start" dominant-baseline="middle" fill="#374151" font-size="8.5">3 GB/s</text>
  <line x1="418.0" y1="147.3" x2="880.0" y2="147.3" stroke="#e5e7eb" stroke-width="1"/>
  <text x="888.0" y="147.3" text-anchor="start" dominant-baseline="middle" fill="#374151" font-size="8.5">4 GB/s</text>
  <line x1="418.0" y1="104.2" x2="880.0" y2="104.2" stroke="#e5e7eb" stroke-width="1"/>
  <text x="888.0" y="104.2" text-anchor="start" dominant-baseline="middle" fill="#374151" font-size="8.5">5 GB/s</text>
  <line x1="418.0" y1="61.0" x2="880.0" y2="61.0" stroke="#e5e7eb" stroke-width="1"/>
  <text x="888.0" y="61.0" text-anchor="start" dominant-baseline="middle" fill="#374151" font-size="8.5">6 GB/s</text>
  <line x1="880.0" y1="60.0" x2="880.0" y2="320.0" stroke="#9ca3af" stroke-width="1.5"/>
  <line x1="418.0" y1="60.0" x2="418.0" y2="320.0" stroke="#e5e7eb" stroke-width="1"/>
  <line x1="469.3" y1="60.0" x2="469.3" y2="320.0" stroke="#e5e7eb" stroke-width="1"/>
  <line x1="520.7" y1="60.0" x2="520.7" y2="320.0" stroke="#e5e7eb" stroke-width="1"/>
  <line x1="572.0" y1="60.0" x2="572.0" y2="320.0" stroke="#e5e7eb" stroke-width="1"/>
  <line x1="623.3" y1="60.0" x2="623.3" y2="320.0" stroke="#e5e7eb" stroke-width="1"/>
  <line x1="674.7" y1="60.0" x2="674.7" y2="320.0" stroke="#e5e7eb" stroke-width="1"/>
  <line x1="726.0" y1="60.0" x2="726.0" y2="320.0" stroke="#e5e7eb" stroke-width="1"/>
  <line x1="777.3" y1="60.0" x2="777.3" y2="320.0" stroke="#e5e7eb" stroke-width="1"/>
  <line x1="828.7" y1="60.0" x2="828.7" y2="320.0" stroke="#e5e7eb" stroke-width="1"/>
  <line x1="880.0" y1="60.0" x2="880.0" y2="320.0" stroke="#e5e7eb" stroke-width="1"/>
  <line x1="418.0" y1="60.0" x2="418.0" y2="320.0" stroke="#9ca3af" stroke-width="1.5"/>
  <line x1="418.0" y1="320.0" x2="880.0" y2="320.0" stroke="#9ca3af" stroke-width="1.5"/>
  <polyline points="418.0,287.0 469.3,267.6 520.7,213.8 572.0,180.5 623.3,139.5 674.7,169.8 726.0,93.9 777.3,107.8 828.7,136.4 880.0,147.3" fill="none" stroke="#15803d" stroke-width="2.5" stroke-linecap="round" stroke-linejoin="round"/>
  <circle cx="418.0" cy="287.0" r="3" fill="#15803d" stroke="white" stroke-width="1"/>
  <circle cx="469.3" cy="267.6" r="3" fill="#15803d" stroke="white" stroke-width="1"/>
  <circle cx="520.7" cy="213.8" r="3" fill="#15803d" stroke="white" stroke-width="1"/>
  <circle cx="572.0" cy="180.5" r="3" fill="#15803d" stroke="white" stroke-width="1"/>
  <circle cx="623.3" cy="139.5" r="3" fill="#15803d" stroke="white" stroke-width="1"/>
  <circle cx="674.7" cy="169.8" r="3" fill="#15803d" stroke="white" stroke-width="1"/>
  <circle cx="726.0" cy="93.9" r="3" fill="#15803d" stroke="white" stroke-width="1"/>
  <circle cx="777.3" cy="107.8" r="3" fill="#15803d" stroke="white" stroke-width="1"/>
  <circle cx="828.7" cy="136.4" r="3" fill="#15803d" stroke="white" stroke-width="1"/>
  <circle cx="880.0" cy="147.3" r="3" fill="#15803d" stroke="white" stroke-width="1"/>
  <polyline points="418.0,292.9 469.3,272.9 520.7,232.0 572.0,203.4 623.3,176.1 674.7,169.3 726.0,185.6 777.3,171.5 828.7,205.0 880.0,197.1" fill="none" stroke="#16a34a" stroke-width="2.5" stroke-linecap="round" stroke-linejoin="round"/>
  <circle cx="418.0" cy="292.9" r="3" fill="#16a34a" stroke="white" stroke-width="1"/>
  <circle cx="469.3" cy="272.9" r="3" fill="#16a34a" stroke="white" stroke-width="1"/>
  <circle cx="520.7" cy="232.0" r="3" fill="#16a34a" stroke="white" stroke-width="1"/>
  <circle cx="572.0" cy="203.4" r="3" fill="#16a34a" stroke="white" stroke-width="1"/>
  <circle cx="623.3" cy="176.1" r="3" fill="#16a34a" stroke="white" stroke-width="1"/>
  <circle cx="674.7" cy="169.3" r="3" fill="#16a34a" stroke="white" stroke-width="1"/>
  <circle cx="726.0" cy="185.6" r="3" fill="#16a34a" stroke="white" stroke-width="1"/>
  <circle cx="777.3" cy="171.5" r="3" fill="#16a34a" stroke="white" stroke-width="1"/>
  <circle cx="828.7" cy="205.0" r="3" fill="#16a34a" stroke="white" stroke-width="1"/>
  <circle cx="880.0" cy="197.1" r="3" fill="#16a34a" stroke="white" stroke-width="1"/>
  <polyline points="418.0,317.3 469.3,314.9 520.7,309.8 572.0,301.0 623.3,286.4 674.7,260.9 726.0,220.8 777.3,180.9 828.7,186.6 880.0,227.5" fill="none" stroke="#2563eb" stroke-width="2.5" stroke-linecap="round" stroke-linejoin="round"/>
  <circle cx="418.0" cy="317.3" r="3" fill="#2563eb" stroke="white" stroke-width="1"/>
  <circle cx="469.3" cy="314.9" r="3" fill="#2563eb" stroke="white" stroke-width="1"/>
  <circle cx="520.7" cy="309.8" r="3" fill="#2563eb" stroke="white" stroke-width="1"/>
  <circle cx="572.0" cy="301.0" r="3" fill="#2563eb" stroke="white" stroke-width="1"/>
  <circle cx="623.3" cy="286.4" r="3" fill="#2563eb" stroke="white" stroke-width="1"/>
  <circle cx="674.7" cy="260.9" r="3" fill="#2563eb" stroke="white" stroke-width="1"/>
  <circle cx="726.0" cy="220.8" r="3" fill="#2563eb" stroke="white" stroke-width="1"/>
  <circle cx="777.3" cy="180.9" r="3" fill="#2563eb" stroke="white" stroke-width="1"/>
  <circle cx="828.7" cy="186.6" r="3" fill="#2563eb" stroke="white" stroke-width="1"/>
  <circle cx="880.0" cy="227.5" r="3" fill="#2563eb" stroke="white" stroke-width="1"/>
  <polyline points="418.0,297.3 469.3,288.1 520.7,280.8 572.0,276.0 623.3,270.9 674.7,274.2 726.0,269.0 777.3,238.4 828.7,155.2 880.0,152.9" fill="none" stroke="#eab308" stroke-width="2.5" stroke-linecap="round" stroke-linejoin="round"/>
  <circle cx="418.0" cy="297.3" r="3" fill="#eab308" stroke="white" stroke-width="1"/>
  <circle cx="469.3" cy="288.1" r="3" fill="#eab308" stroke="white" stroke-width="1"/>
  <circle cx="520.7" cy="280.8" r="3" fill="#eab308" stroke="white" stroke-width="1"/>
  <circle cx="572.0" cy="276.0" r="3" fill="#eab308" stroke="white" stroke-width="1"/>
  <circle cx="623.3" cy="270.9" r="3" fill="#eab308" stroke="white" stroke-width="1"/>
  <circle cx="674.7" cy="274.2" r="3" fill="#eab308" stroke="white" stroke-width="1"/>
  <circle cx="726.0" cy="269.0" r="3" fill="#eab308" stroke="white" stroke-width="1"/>
  <circle cx="777.3" cy="238.4" r="3" fill="#eab308" stroke="white" stroke-width="1"/>
  <circle cx="828.7" cy="155.2" r="3" fill="#eab308" stroke="white" stroke-width="1"/>
  <circle cx="880.0" cy="152.9" r="3" fill="#eab308" stroke="white" stroke-width="1"/>
  <polyline points="418.0,297.3 469.3,287.5 520.7,281.0 572.0,275.2 623.3,272.1 674.7,270.2 726.0,269.2 777.3,239.2 828.7,149.6 880.0,133.8" fill="none" stroke="#a16207" stroke-width="2.5" stroke-linecap="round" stroke-linejoin="round"/>
  <circle cx="418.0" cy="297.3" r="3" fill="#a16207" stroke="white" stroke-width="1"/>
  <circle cx="469.3" cy="287.5" r="3" fill="#a16207" stroke="white" stroke-width="1"/>
  <circle cx="520.7" cy="281.0" r="3" fill="#a16207" stroke="white" stroke-width="1"/>
  <circle cx="572.0" cy="275.2" r="3" fill="#a16207" stroke="white" stroke-width="1"/>
  <circle cx="623.3" cy="272.1" r="3" fill="#a16207" stroke="white" stroke-width="1"/>
  <circle cx="674.7" cy="270.2" r="3" fill="#a16207" stroke="white" stroke-width="1"/>
  <circle cx="726.0" cy="269.2" r="3" fill="#a16207" stroke="white" stroke-width="1"/>
  <circle cx="777.3" cy="239.2" r="3" fill="#a16207" stroke="white" stroke-width="1"/>
  <circle cx="828.7" cy="149.6" r="3" fill="#a16207" stroke="white" stroke-width="1"/>
  <circle cx="880.0" cy="133.8" r="3" fill="#a16207" stroke="white" stroke-width="1"/>
  <polyline points="418.0,259.1 469.3,234.3 520.7,165.8 572.0,158.2 623.3,112.4 674.7,131.6 726.0,122.2 777.3,127.0 828.7,125.4 880.0,127.2" fill="none" stroke="#dc2626" stroke-width="2.5" stroke-linecap="round" stroke-linejoin="round"/>
  <circle cx="418.0" cy="259.1" r="3" fill="#dc2626" stroke="white" stroke-width="1"/>
  <circle cx="469.3" cy="234.3" r="3" fill="#dc2626" stroke="white" stroke-width="1"/>
  <circle cx="520.7" cy="165.8" r="3" fill="#dc2626" stroke="white" stroke-width="1"/>
  <circle cx="572.0" cy="158.2" r="3" fill="#dc2626" stroke="white" stroke-width="1"/>
  <circle cx="623.3" cy="112.4" r="3" fill="#dc2626" stroke="white" stroke-width="1"/>
  <circle cx="674.7" cy="131.6" r="3" fill="#dc2626" stroke="white" stroke-width="1"/>
  <circle cx="726.0" cy="122.2" r="3" fill="#dc2626" stroke="white" stroke-width="1"/>
  <circle cx="777.3" cy="127.0" r="3" fill="#dc2626" stroke="white" stroke-width="1"/>
  <circle cx="828.7" cy="125.4" r="3" fill="#dc2626" stroke="white" stroke-width="1"/>
  <circle cx="880.0" cy="127.2" r="3" fill="#dc2626" stroke="white" stroke-width="1"/>
  <polyline points="418.0,273.1 469.3,239.5 520.7,203.2 572.0,166.8 623.3,116.6 674.7,137.1 726.0,115.9 777.3,124.0 828.7,122.0 880.0,124.0" fill="none" stroke="#f97316" stroke-width="2.5" stroke-linecap="round" stroke-linejoin="round"/>
  <circle cx="418.0" cy="273.1" r="3" fill="#f97316" stroke="white" stroke-width="1"/>
  <circle cx="469.3" cy="239.5" r="3" fill="#f97316" stroke="white" stroke-width="1"/>
  <circle cx="520.7" cy="203.2" r="3" fill="#f97316" stroke="white" stroke-width="1"/>
  <circle cx="572.0" cy="166.8" r="3" fill="#f97316" stroke="white" stroke-width="1"/>
  <circle cx="623.3" cy="116.6" r="3" fill="#f97316" stroke="white" stroke-width="1"/>
  <circle cx="674.7" cy="137.1" r="3" fill="#f97316" stroke="white" stroke-width="1"/>
  <circle cx="726.0" cy="115.9" r="3" fill="#f97316" stroke="white" stroke-width="1"/>
  <circle cx="777.3" cy="124.0" r="3" fill="#f97316" stroke="white" stroke-width="1"/>
  <circle cx="828.7" cy="122.0" r="3" fill="#f97316" stroke="white" stroke-width="1"/>
  <circle cx="880.0" cy="124.0" r="3" fill="#f97316" stroke="white" stroke-width="1"/>
  <text x="418.0" y="333.0" text-anchor="middle" fill="#374151" font-size="8">256 B</text>
  <text x="469.3" y="333.0" text-anchor="middle" fill="#374151" font-size="8">512 B</text>
  <text x="520.7" y="333.0" text-anchor="middle" fill="#374151" font-size="8">1 KiB</text>
  <text x="572.0" y="333.0" text-anchor="middle" fill="#374151" font-size="8">2 KiB</text>
  <text x="623.3" y="333.0" text-anchor="middle" fill="#374151" font-size="8">4 KiB</text>
  <text x="674.7" y="333.0" text-anchor="middle" fill="#374151" font-size="8">8 KiB</text>
  <text x="726.0" y="333.0" text-anchor="middle" fill="#374151" font-size="8">16 KiB</text>
  <text x="777.3" y="333.0" text-anchor="middle" fill="#374151" font-size="8">32 KiB</text>
  <text x="828.7" y="333.0" text-anchor="middle" fill="#374151" font-size="8">256 KiB</text>
  <text x="880.0" y="333.0" text-anchor="middle" fill="#374151" font-size="8">4 MiB</text>
  <text x="475.0" y="378.0" text-anchor="middle" fill="#111827" font-size="12" font-weight="700">REQ/REP round-trip latency, TCP (lower is better)</text>
  <text x="62.0" y="550.0" text-anchor="end" dominant-baseline="middle" fill="#9ca3af" font-size="8.5">20 µs</text>
  <line x1="70.0" y1="518.0" x2="880.0" y2="518.0" stroke="#e5e7eb" stroke-width="1"/>
  <text x="62.0" y="518.0" text-anchor="end" dominant-baseline="middle" fill="#374151" font-size="8.5">40 µs</text>
  <line x1="70.0" y1="486.0" x2="880.0" y2="486.0" stroke="#e5e7eb" stroke-width="1"/>
  <text x="62.0" y="486.0" text-anchor="end" dominant-baseline="middle" fill="#374151" font-size="8.5">60 µs</text>
  <line x1="70.0" y1="454.0" x2="880.0" y2="454.0" stroke="#e5e7eb" stroke-width="1"/>
  <text x="62.0" y="454.0" text-anchor="end" dominant-baseline="middle" fill="#374151" font-size="8.5">80 µs</text>
  <line x1="70.0" y1="422.0" x2="880.0" y2="422.0" stroke="#e5e7eb" stroke-width="1"/>
  <text x="62.0" y="422.0" text-anchor="end" dominant-baseline="middle" fill="#374151" font-size="8.5">100 µs</text>
  <line x1="70.0" y1="390.0" x2="880.0" y2="390.0" stroke="#e5e7eb" stroke-width="1"/>
  <text x="62.0" y="390.0" text-anchor="end" dominant-baseline="middle" fill="#374151" font-size="8.5">120 µs</text>
  <line x1="70.0" y1="390.0" x2="70.0" y2="550.0" stroke="#e5e7eb" stroke-width="1"/>
  <line x1="232.0" y1="390.0" x2="232.0" y2="550.0" stroke="#e5e7eb" stroke-width="1"/>
  <line x1="394.0" y1="390.0" x2="394.0" y2="550.0" stroke="#e5e7eb" stroke-width="1"/>
  <line x1="556.0" y1="390.0" x2="556.0" y2="550.0" stroke="#e5e7eb" stroke-width="1"/>
  <line x1="718.0" y1="390.0" x2="718.0" y2="550.0" stroke="#e5e7eb" stroke-width="1"/>
  <line x1="880.0" y1="390.0" x2="880.0" y2="550.0" stroke="#e5e7eb" stroke-width="1"/>
  <line x1="70.0" y1="390.0" x2="70.0" y2="550.0" stroke="#9ca3af" stroke-width="1.5"/>
  <line x1="70.0" y1="550.0" x2="880.0" y2="550.0" stroke="#9ca3af" stroke-width="1.5"/>
  <polyline points="70.0,430.7 232.0,434.2 394.0,441.2 556.0,437.9 718.0,431.8 880.0,436.4" fill="none" stroke="#eab308" stroke-width="2.5" stroke-linecap="round" stroke-linejoin="round"/>
  <circle cx="70.0" cy="430.7" r="3" fill="#eab308" stroke="white" stroke-width="1"/>
  <circle cx="232.0" cy="434.2" r="3" fill="#eab308" stroke="white" stroke-width="1"/>
  <circle cx="394.0" cy="441.2" r="3" fill="#eab308" stroke="white" stroke-width="1"/>
  <circle cx="556.0" cy="437.9" r="3" fill="#eab308" stroke="white" stroke-width="1"/>
  <circle cx="718.0" cy="431.8" r="3" fill="#eab308" stroke="white" stroke-width="1"/>
  <circle cx="880.0" cy="436.4" r="3" fill="#eab308" stroke="white" stroke-width="1"/>
  <polyline points="70.0,435.9 394.0,433.1 718.0,430.1 880.0,435.3" fill="none" stroke="#a16207" stroke-width="2.5" stroke-linecap="round" stroke-linejoin="round"/>
  <circle cx="70.0" cy="435.9" r="3" fill="#a16207" stroke="white" stroke-width="1"/>
  <circle cx="394.0" cy="433.1" r="3" fill="#a16207" stroke="white" stroke-width="1"/>
  <circle cx="718.0" cy="430.1" r="3" fill="#a16207" stroke="white" stroke-width="1"/>
  <circle cx="880.0" cy="435.3" r="3" fill="#a16207" stroke="white" stroke-width="1"/>
  <polyline points="70.0,444.9 232.0,437.6 394.0,445.8 556.0,438.0 718.0,435.4 880.0,433.2" fill="none" stroke="#dc2626" stroke-width="2.5" stroke-linecap="round" stroke-linejoin="round"/>
  <circle cx="70.0" cy="444.9" r="3" fill="#dc2626" stroke="white" stroke-width="1"/>
  <circle cx="232.0" cy="437.6" r="3" fill="#dc2626" stroke="white" stroke-width="1"/>
  <circle cx="394.0" cy="445.8" r="3" fill="#dc2626" stroke="white" stroke-width="1"/>
  <circle cx="556.0" cy="438.0" r="3" fill="#dc2626" stroke="white" stroke-width="1"/>
  <circle cx="718.0" cy="435.4" r="3" fill="#dc2626" stroke="white" stroke-width="1"/>
  <circle cx="880.0" cy="433.2" r="3" fill="#dc2626" stroke="white" stroke-width="1"/>
  <polyline points="70.0,501.6 232.0,505.5 394.0,500.0 556.0,504.1 718.0,503.0 880.0,499.6" fill="none" stroke="#f97316" stroke-width="2.5" stroke-linecap="round" stroke-linejoin="round"/>
  <circle cx="70.0" cy="501.6" r="3" fill="#f97316" stroke="white" stroke-width="1"/>
  <circle cx="232.0" cy="505.5" r="3" fill="#f97316" stroke="white" stroke-width="1"/>
  <circle cx="394.0" cy="500.0" r="3" fill="#f97316" stroke="white" stroke-width="1"/>
  <circle cx="556.0" cy="504.1" r="3" fill="#f97316" stroke="white" stroke-width="1"/>
  <circle cx="718.0" cy="503.0" r="3" fill="#f97316" stroke="white" stroke-width="1"/>
  <circle cx="880.0" cy="499.6" r="3" fill="#f97316" stroke="white" stroke-width="1"/>
  <polyline points="70.0,413.9 232.0,395.2 394.0,428.6 556.0,382.6 718.0,411.4 880.0,418.5" fill="none" stroke="#16a34a" stroke-width="2.5" stroke-linecap="round" stroke-linejoin="round"/>
  <circle cx="70.0" cy="413.9" r="3" fill="#16a34a" stroke="white" stroke-width="1"/>
  <circle cx="232.0" cy="395.2" r="3" fill="#16a34a" stroke="white" stroke-width="1"/>
  <circle cx="394.0" cy="428.6" r="3" fill="#16a34a" stroke="white" stroke-width="1"/>
  <circle cx="556.0" cy="382.6" r="3" fill="#16a34a" stroke="white" stroke-width="1"/>
  <circle cx="718.0" cy="411.4" r="3" fill="#16a34a" stroke="white" stroke-width="1"/>
  <circle cx="880.0" cy="418.5" r="3" fill="#16a34a" stroke="white" stroke-width="1"/>
  <polyline points="70.0,492.4 232.0,485.8 394.0,483.2 556.0,486.5 718.0,484.3 880.0,484.9" fill="none" stroke="#15803d" stroke-width="2.5" stroke-linecap="round" stroke-linejoin="round"/>
  <circle cx="70.0" cy="492.4" r="3" fill="#15803d" stroke="white" stroke-width="1"/>
  <circle cx="232.0" cy="485.8" r="3" fill="#15803d" stroke="white" stroke-width="1"/>
  <circle cx="394.0" cy="483.2" r="3" fill="#15803d" stroke="white" stroke-width="1"/>
  <circle cx="556.0" cy="486.5" r="3" fill="#15803d" stroke="white" stroke-width="1"/>
  <circle cx="718.0" cy="484.3" r="3" fill="#15803d" stroke="white" stroke-width="1"/>
  <circle cx="880.0" cy="484.9" r="3" fill="#15803d" stroke="white" stroke-width="1"/>
  <polyline points="70.0,493.8 232.0,498.4 394.0,494.6 556.0,499.8 718.0,495.0 880.0,496.3" fill="none" stroke="#2563eb" stroke-width="2.5" stroke-linecap="round" stroke-linejoin="round"/>
  <circle cx="70.0" cy="493.8" r="3" fill="#2563eb" stroke="white" stroke-width="1"/>
  <circle cx="232.0" cy="498.4" r="3" fill="#2563eb" stroke="white" stroke-width="1"/>
  <circle cx="394.0" cy="494.6" r="3" fill="#2563eb" stroke="white" stroke-width="1"/>
  <circle cx="556.0" cy="499.8" r="3" fill="#2563eb" stroke="white" stroke-width="1"/>
  <circle cx="718.0" cy="495.0" r="3" fill="#2563eb" stroke="white" stroke-width="1"/>
  <circle cx="880.0" cy="496.3" r="3" fill="#2563eb" stroke="white" stroke-width="1"/>
  <text x="70.0" y="563.0" text-anchor="middle" fill="#374151" font-size="8">16 B</text>
  <text x="232.0" y="563.0" text-anchor="middle" fill="#374151" font-size="8">32 B</text>
  <text x="394.0" y="563.0" text-anchor="middle" fill="#374151" font-size="8">64 B</text>
  <text x="556.0" y="563.0" text-anchor="middle" fill="#374151" font-size="8">128 B</text>
  <text x="718.0" y="563.0" text-anchor="middle" fill="#374151" font-size="8">256 B</text>
  <text x="880.0" y="563.0" text-anchor="middle" fill="#374151" font-size="8">1 KiB</text>
  <line x1="95" y1="580" x2="109" y2="580" stroke="#eab308" stroke-width="2.5" stroke-linecap="round"/>
  <circle cx="102" cy="580" r="2.5" fill="#eab308"/>
  <text x="115" y="584" fill="#374151" font-size="10" font-weight="500">libzmq v4.3.5 (1T)</text>
  <line x1="285" y1="580" x2="299" y2="580" stroke="#a16207" stroke-width="2.5" stroke-linecap="round"/>
  <circle cx="292" cy="580" r="2.5" fill="#a16207"/>
  <text x="305" y="584" fill="#374151" font-size="10" font-weight="500">libzmq v4.3.5 (4T)</text>
  <line x1="475" y1="580" x2="489" y2="580" stroke="#f97316" stroke-width="2.5" stroke-linecap="round"/>
  <circle cx="482" cy="580" r="2.5" fill="#f97316"/>
  <text x="495" y="584" fill="#374151" font-size="10" font-weight="500">omq-tokio (1T)</text>
  <line x1="665" y1="580" x2="679" y2="580" stroke="#dc2626" stroke-width="2.5" stroke-linecap="round"/>
  <circle cx="672" cy="580" r="2.5" fill="#dc2626"/>
  <text x="685" y="584" fill="#374151" font-size="10" font-weight="500">omq-tokio (2T)</text>
  <line x1="190" y1="600" x2="204" y2="600" stroke="#2563eb" stroke-width="2.5" stroke-linecap="round"/>
  <circle cx="197" cy="600" r="2.5" fill="#2563eb"/>
  <text x="210" y="604" fill="#374151" font-size="10" font-weight="500">zmq.rs v0.6.0 [6T]</text>
  <line x1="380" y1="600" x2="394" y2="600" stroke="#16a34a" stroke-width="2.5" stroke-linecap="round"/>
  <circle cx="387" cy="600" r="2.5" fill="#16a34a"/>
  <text x="400" y="604" fill="#374151" font-size="10" font-weight="500">rzmq v0.5.24 [6T]</text>
  <line x1="570" y1="600" x2="584" y2="600" stroke="#15803d" stroke-width="2.5" stroke-linecap="round"/>
  <circle cx="577" cy="600" r="2.5" fill="#15803d"/>
  <text x="590" y="604" fill="#374151" font-size="10" font-weight="500">rzmq v0.5.24 (io_uring) [6T]</text>
  <text x="70.0" y="618.0" text-anchor="start" fill="#9ca3af" font-size="9">(nT) = configurable IO threads</text>
  <text x="70.0" y="631.0" text-anchor="start" fill="#9ca3af" font-size="9">[nT] = fixed IO threads</text>
</svg>
