<svg xmlns="http://www.w3.org/2000/svg" viewBox="0 0 950 410" font-family="system-ui, -apple-system, sans-serif">
  <rect width="950" height="410" fill="white"/>
  <text x="475.0" y="16.0" text-anchor="middle" fill="#111827" font-size="14" font-weight="700">PUSH/PULL throughput, TCP loopback, 2-process</text>
  <text x="475.0" y="30.0" text-anchor="middle" fill="#9ca3af" font-size="9">Linux VM on a 2018 Mac Mini, Intel Core i7-8700B @ 3.20GHz, 6 cores, performance governor, turbo off</text>
  <text x="224.0" y="48.0" text-anchor="middle" fill="#111827" font-size="12" font-weight="700">small messages (higher is better)</text>
  <line x1="70.0" y1="255.6" x2="378.0" y2="255.6" stroke="#e5e7eb" stroke-width="1" stroke-dasharray="4,3"/>
  <text x="62.0" y="255.6" text-anchor="end" dominant-baseline="middle" fill="#374151" font-size="8.5">2 M msg/s</text>
  <line x1="70.0" y1="191.1" x2="378.0" y2="191.1" stroke="#e5e7eb" stroke-width="1" stroke-dasharray="4,3"/>
  <text x="62.0" y="191.1" text-anchor="end" dominant-baseline="middle" fill="#374151" font-size="8.5">4 M msg/s</text>
  <line x1="70.0" y1="126.7" x2="378.0" y2="126.7" stroke="#e5e7eb" stroke-width="1" stroke-dasharray="4,3"/>
  <text x="62.0" y="126.7" text-anchor="end" dominant-baseline="middle" fill="#374151" font-size="8.5">6 M msg/s</text>
  <line x1="70.0" y1="62.3" x2="378.0" y2="62.3" stroke="#e5e7eb" stroke-width="1" stroke-dasharray="4,3"/>
  <text x="62.0" y="62.3" text-anchor="end" dominant-baseline="middle" fill="#374151" font-size="8.5">8 M msg/s</text>
  <line x1="378.0" y1="60.0" x2="378.0" y2="320.0" stroke="#9ca3af" stroke-width="1.5"/>
  <line x1="70.0" y1="60.0" x2="70.0" y2="320.0" stroke="#e5e7eb" stroke-width="1"/>
  <line x1="131.6" y1="60.0" x2="131.6" y2="320.0" stroke="#e5e7eb" stroke-width="1"/>
  <line x1="193.2" y1="60.0" x2="193.2" y2="320.0" stroke="#e5e7eb" stroke-width="1"/>
  <line x1="254.8" y1="60.0" x2="254.8" y2="320.0" stroke="#e5e7eb" stroke-width="1"/>
  <line x1="316.4" y1="60.0" x2="316.4" y2="320.0" stroke="#e5e7eb" stroke-width="1"/>
  <line x1="378.0" y1="60.0" x2="378.0" y2="320.0" stroke="#e5e7eb" stroke-width="1"/>
  <line x1="70.0" y1="60.0" x2="70.0" y2="320.0" stroke="#9ca3af" stroke-width="1.5"/>
  <line x1="70.0" y1="320.0" x2="378.0" y2="320.0" stroke="#9ca3af" stroke-width="1.5"/>
  <polyline points="70.0,211.0 131.6,221.7 193.2,218.9 254.8,228.8 316.4,223.9 378.0,242.6" fill="none" stroke="#15803d" stroke-width="2.5" stroke-dasharray="6,3"/>
  <circle cx="70.0" cy="211.0" r="3" fill="#15803d" stroke="white" stroke-width="1"/>
  <circle cx="131.6" cy="221.7" r="3" fill="#15803d" stroke="white" stroke-width="1"/>
  <circle cx="193.2" cy="218.9" r="3" fill="#15803d" stroke="white" stroke-width="1"/>
  <circle cx="254.8" cy="228.8" r="3" fill="#15803d" stroke="white" stroke-width="1"/>
  <circle cx="316.4" cy="223.9" r="3" fill="#15803d" stroke="white" stroke-width="1"/>
  <circle cx="378.0" cy="242.6" r="3" fill="#15803d" stroke="white" stroke-width="1"/>
  <polyline points="70.0,278.6 131.6,267.2 193.2,248.3 254.8,241.5 316.4,241.0 378.0,255.8" fill="none" stroke="#16a34a" stroke-width="2.5" stroke-dasharray="6,3"/>
  <circle cx="70.0" cy="278.6" r="3" fill="#16a34a" stroke="white" stroke-width="1"/>
  <circle cx="131.6" cy="267.2" r="3" fill="#16a34a" stroke="white" stroke-width="1"/>
  <circle cx="193.2" cy="248.3" r="3" fill="#16a34a" stroke="white" stroke-width="1"/>
  <circle cx="254.8" cy="241.5" r="3" fill="#16a34a" stroke="white" stroke-width="1"/>
  <circle cx="316.4" cy="241.0" r="3" fill="#16a34a" stroke="white" stroke-width="1"/>
  <circle cx="378.0" cy="255.8" r="3" fill="#16a34a" stroke="white" stroke-width="1"/>
  <polyline points="70.0,309.1 131.6,310.5 193.2,311.5 254.8,311.9 316.4,312.0 378.0,312.6" fill="none" stroke="#2563eb" stroke-width="2.5" stroke-dasharray="6,3"/>
  <circle cx="70.0" cy="309.1" r="3" fill="#2563eb" stroke="white" stroke-width="1"/>
  <circle cx="131.6" cy="310.5" r="3" fill="#2563eb" stroke="white" stroke-width="1"/>
  <circle cx="193.2" cy="311.5" r="3" fill="#2563eb" stroke="white" stroke-width="1"/>
  <circle cx="254.8" cy="311.9" r="3" fill="#2563eb" stroke="white" stroke-width="1"/>
  <circle cx="316.4" cy="312.0" r="3" fill="#2563eb" stroke="white" stroke-width="1"/>
  <circle cx="378.0" cy="312.6" r="3" fill="#2563eb" stroke="white" stroke-width="1"/>
  <polyline points="70.0,101.8 131.6,106.2 193.2,181.9 254.8,248.0 316.4,254.0 378.0,291.4" fill="none" stroke="#eab308" stroke-width="2.5" stroke-dasharray="6,3"/>
  <circle cx="70.0" cy="101.8" r="3" fill="#eab308" stroke="white" stroke-width="1"/>
  <circle cx="131.6" cy="106.2" r="3" fill="#eab308" stroke="white" stroke-width="1"/>
  <circle cx="193.2" cy="181.9" r="3" fill="#eab308" stroke="white" stroke-width="1"/>
  <circle cx="254.8" cy="248.0" r="3" fill="#eab308" stroke="white" stroke-width="1"/>
  <circle cx="316.4" cy="254.0" r="3" fill="#eab308" stroke="white" stroke-width="1"/>
  <circle cx="378.0" cy="291.4" r="3" fill="#eab308" stroke="white" stroke-width="1"/>
  <polyline points="70.0,93.9 131.6,103.4 193.2,171.2 254.8,247.1 316.4,253.8 378.0,291.6" fill="none" stroke="#a16207" stroke-width="2.5" stroke-dasharray="6,3"/>
  <circle cx="70.0" cy="93.9" r="3" fill="#a16207" stroke="white" stroke-width="1"/>
  <circle cx="131.6" cy="103.4" r="3" fill="#a16207" stroke="white" stroke-width="1"/>
  <circle cx="193.2" cy="171.2" r="3" fill="#a16207" stroke="white" stroke-width="1"/>
  <circle cx="254.8" cy="247.1" r="3" fill="#a16207" stroke="white" stroke-width="1"/>
  <circle cx="316.4" cy="253.8" r="3" fill="#a16207" stroke="white" stroke-width="1"/>
  <circle cx="378.0" cy="291.6" r="3" fill="#a16207" stroke="white" stroke-width="1"/>
  <polyline points="70.0,157.3 131.6,141.2 193.2,119.0 254.8,129.9 316.4,143.7 378.0,203.7" fill="none" stroke="#06b6d4" stroke-width="2.5" stroke-dasharray="6,3"/>
  <circle cx="70.0" cy="157.3" r="3" fill="#06b6d4" stroke="white" stroke-width="1"/>
  <circle cx="131.6" cy="141.2" r="3" fill="#06b6d4" stroke="white" stroke-width="1"/>
  <circle cx="193.2" cy="119.0" r="3" fill="#06b6d4" stroke="white" stroke-width="1"/>
  <circle cx="254.8" cy="129.9" r="3" fill="#06b6d4" stroke="white" stroke-width="1"/>
  <circle cx="316.4" cy="143.7" r="3" fill="#06b6d4" stroke="white" stroke-width="1"/>
  <circle cx="378.0" cy="203.7" r="3" fill="#06b6d4" stroke="white" stroke-width="1"/>
  <polyline points="70.0,108.1 131.6,112.7 193.2,112.1 254.8,135.2 316.4,155.5 378.0,209.5" fill="none" stroke="#dc2626" stroke-width="2.5" stroke-dasharray="6,3"/>
  <circle cx="70.0" cy="108.1" r="3" fill="#dc2626" stroke="white" stroke-width="1"/>
  <circle cx="131.6" cy="112.7" r="3" fill="#dc2626" stroke="white" stroke-width="1"/>
  <circle cx="193.2" cy="112.1" r="3" fill="#dc2626" stroke="white" stroke-width="1"/>
  <circle cx="254.8" cy="135.2" r="3" fill="#dc2626" stroke="white" stroke-width="1"/>
  <circle cx="316.4" cy="155.5" r="3" fill="#dc2626" stroke="white" stroke-width="1"/>
  <circle cx="378.0" cy="209.5" r="3" fill="#dc2626" stroke="white" stroke-width="1"/>
  <polyline points="70.0,98.6 131.6,106.5 193.2,118.5 254.8,140.3 316.4,185.9 378.0,230.9" fill="none" stroke="#f97316" stroke-width="2.5" stroke-dasharray="6,3"/>
  <circle cx="70.0" cy="98.6" r="3" fill="#f97316" stroke="white" stroke-width="1"/>
  <circle cx="131.6" cy="106.5" r="3" fill="#f97316" stroke="white" stroke-width="1"/>
  <circle cx="193.2" cy="118.5" r="3" fill="#f97316" stroke="white" stroke-width="1"/>
  <circle cx="254.8" cy="140.3" r="3" fill="#f97316" stroke="white" stroke-width="1"/>
  <circle cx="316.4" cy="185.9" r="3" fill="#f97316" stroke="white" stroke-width="1"/>
  <circle cx="378.0" cy="230.9" r="3" fill="#f97316" stroke="white" stroke-width="1"/>
  <text x="70.0" y="333.0" text-anchor="middle" fill="#374151" font-size="8">16 B</text>
  <text x="131.6" y="333.0" text-anchor="middle" fill="#374151" font-size="8">32 B</text>
  <text x="193.2" y="333.0" text-anchor="middle" fill="#374151" font-size="8">64 B</text>
  <text x="254.8" y="333.0" text-anchor="middle" fill="#374151" font-size="8">128 B</text>
  <text x="316.4" y="333.0" text-anchor="middle" fill="#374151" font-size="8">256 B</text>
  <text x="378.0" y="333.0" text-anchor="middle" fill="#374151" font-size="8">1 KiB</text>
  <text x="649.0" y="48.0" text-anchor="middle" fill="#111827" font-size="12" font-weight="700">medium/large messages (higher is better)</text>
  <line x1="418.0" y1="281.0" x2="880.0" y2="281.0" stroke="#e5e7eb" stroke-width="1"/>
  <text x="888.0" y="281.0" text-anchor="start" dominant-baseline="middle" fill="#374151" font-size="8.5">1 GB/s</text>
  <line x1="418.0" y1="242.1" x2="880.0" y2="242.1" stroke="#e5e7eb" stroke-width="1"/>
  <text x="888.0" y="242.1" text-anchor="start" dominant-baseline="middle" fill="#374151" font-size="8.5">2 GB/s</text>
  <line x1="418.0" y1="203.1" x2="880.0" y2="203.1" stroke="#e5e7eb" stroke-width="1"/>
  <text x="888.0" y="203.1" text-anchor="start" dominant-baseline="middle" fill="#374151" font-size="8.5">3 GB/s</text>
  <line x1="418.0" y1="164.1" x2="880.0" y2="164.1" stroke="#e5e7eb" stroke-width="1"/>
  <text x="888.0" y="164.1" text-anchor="start" dominant-baseline="middle" fill="#374151" font-size="8.5">4 GB/s</text>
  <line x1="418.0" y1="125.2" x2="880.0" y2="125.2" stroke="#e5e7eb" stroke-width="1"/>
  <text x="888.0" y="125.2" text-anchor="start" dominant-baseline="middle" fill="#374151" font-size="8.5">5 GB/s</text>
  <line x1="418.0" y1="86.2" x2="880.0" y2="86.2" stroke="#e5e7eb" stroke-width="1"/>
  <text x="888.0" y="86.2" text-anchor="start" dominant-baseline="middle" fill="#374151" font-size="8.5">6 GB/s</text>
  <line x1="880.0" y1="60.0" x2="880.0" y2="320.0" stroke="#9ca3af" stroke-width="1.5"/>
  <line x1="418.0" y1="60.0" x2="418.0" y2="320.0" stroke="#e5e7eb" stroke-width="1"/>
  <line x1="469.3" y1="60.0" x2="469.3" y2="320.0" stroke="#e5e7eb" stroke-width="1"/>
  <line x1="520.7" y1="60.0" x2="520.7" y2="320.0" stroke="#e5e7eb" stroke-width="1"/>
  <line x1="572.0" y1="60.0" x2="572.0" y2="320.0" stroke="#e5e7eb" stroke-width="1"/>
  <line x1="623.3" y1="60.0" x2="623.3" y2="320.0" stroke="#e5e7eb" stroke-width="1"/>
  <line x1="674.7" y1="60.0" x2="674.7" y2="320.0" stroke="#e5e7eb" stroke-width="1"/>
  <line x1="726.0" y1="60.0" x2="726.0" y2="320.0" stroke="#e5e7eb" stroke-width="1"/>
  <line x1="777.3" y1="60.0" x2="777.3" y2="320.0" stroke="#e5e7eb" stroke-width="1"/>
  <line x1="828.7" y1="60.0" x2="828.7" y2="320.0" stroke="#e5e7eb" stroke-width="1"/>
  <line x1="880.0" y1="60.0" x2="880.0" y2="320.0" stroke="#e5e7eb" stroke-width="1"/>
  <line x1="418.0" y1="60.0" x2="418.0" y2="320.0" stroke="#9ca3af" stroke-width="1.5"/>
  <line x1="418.0" y1="320.0" x2="880.0" y2="320.0" stroke="#9ca3af" stroke-width="1.5"/>
  <polyline points="418.0,290.2 469.3,272.7 520.7,224.1 572.0,194.1 623.3,157.0 674.7,184.4 726.0,115.9 777.3,128.4 828.7,154.3 880.0,164.1" fill="none" stroke="#15803d" stroke-width="2.5" stroke-linecap="round" stroke-linejoin="round"/>
  <circle cx="418.0" cy="290.2" r="3" fill="#15803d" stroke="white" stroke-width="1"/>
  <circle cx="469.3" cy="272.7" r="3" fill="#15803d" stroke="white" stroke-width="1"/>
  <circle cx="520.7" cy="224.1" r="3" fill="#15803d" stroke="white" stroke-width="1"/>
  <circle cx="572.0" cy="194.1" r="3" fill="#15803d" stroke="white" stroke-width="1"/>
  <circle cx="623.3" cy="157.0" r="3" fill="#15803d" stroke="white" stroke-width="1"/>
  <circle cx="674.7" cy="184.4" r="3" fill="#15803d" stroke="white" stroke-width="1"/>
  <circle cx="726.0" cy="115.9" r="3" fill="#15803d" stroke="white" stroke-width="1"/>
  <circle cx="777.3" cy="128.4" r="3" fill="#15803d" stroke="white" stroke-width="1"/>
  <circle cx="828.7" cy="154.3" r="3" fill="#15803d" stroke="white" stroke-width="1"/>
  <circle cx="880.0" cy="164.1" r="3" fill="#15803d" stroke="white" stroke-width="1"/>
  <polyline points="418.0,295.5 469.3,277.5 520.7,240.5 572.0,214.7 623.3,190.1 674.7,183.9 726.0,198.7 777.3,185.9 828.7,216.2 880.0,209.1" fill="none" stroke="#16a34a" stroke-width="2.5" stroke-linecap="round" stroke-linejoin="round"/>
  <circle cx="418.0" cy="295.5" r="3" fill="#16a34a" stroke="white" stroke-width="1"/>
  <circle cx="469.3" cy="277.5" r="3" fill="#16a34a" stroke="white" stroke-width="1"/>
  <circle cx="520.7" cy="240.5" r="3" fill="#16a34a" stroke="white" stroke-width="1"/>
  <circle cx="572.0" cy="214.7" r="3" fill="#16a34a" stroke="white" stroke-width="1"/>
  <circle cx="623.3" cy="190.1" r="3" fill="#16a34a" stroke="white" stroke-width="1"/>
  <circle cx="674.7" cy="183.9" r="3" fill="#16a34a" stroke="white" stroke-width="1"/>
  <circle cx="726.0" cy="198.7" r="3" fill="#16a34a" stroke="white" stroke-width="1"/>
  <circle cx="777.3" cy="185.9" r="3" fill="#16a34a" stroke="white" stroke-width="1"/>
  <circle cx="828.7" cy="216.2" r="3" fill="#16a34a" stroke="white" stroke-width="1"/>
  <circle cx="880.0" cy="209.1" r="3" fill="#16a34a" stroke="white" stroke-width="1"/>
  <polyline points="418.0,317.5 469.3,315.4 520.7,310.8 572.0,302.9 623.3,289.6 674.7,266.7 726.0,230.4 777.3,194.5 828.7,199.6 880.0,236.5" fill="none" stroke="#2563eb" stroke-width="2.5" stroke-linecap="round" stroke-linejoin="round"/>
  <circle cx="418.0" cy="317.5" r="3" fill="#2563eb" stroke="white" stroke-width="1"/>
  <circle cx="469.3" cy="315.4" r="3" fill="#2563eb" stroke="white" stroke-width="1"/>
  <circle cx="520.7" cy="310.8" r="3" fill="#2563eb" stroke="white" stroke-width="1"/>
  <circle cx="572.0" cy="302.9" r="3" fill="#2563eb" stroke="white" stroke-width="1"/>
  <circle cx="623.3" cy="289.6" r="3" fill="#2563eb" stroke="white" stroke-width="1"/>
  <circle cx="674.7" cy="266.7" r="3" fill="#2563eb" stroke="white" stroke-width="1"/>
  <circle cx="726.0" cy="230.4" r="3" fill="#2563eb" stroke="white" stroke-width="1"/>
  <circle cx="777.3" cy="194.5" r="3" fill="#2563eb" stroke="white" stroke-width="1"/>
  <circle cx="828.7" cy="199.6" r="3" fill="#2563eb" stroke="white" stroke-width="1"/>
  <circle cx="880.0" cy="236.5" r="3" fill="#2563eb" stroke="white" stroke-width="1"/>
  <polyline points="418.0,299.6 469.3,291.2 520.7,284.6 572.0,280.3 623.3,275.7 674.7,278.7 726.0,274.0 777.3,246.3 828.7,171.3 880.0,169.1" fill="none" stroke="#eab308" stroke-width="2.5" stroke-linecap="round" stroke-linejoin="round"/>
  <circle cx="418.0" cy="299.6" r="3" fill="#eab308" stroke="white" stroke-width="1"/>
  <circle cx="469.3" cy="291.2" r="3" fill="#eab308" stroke="white" stroke-width="1"/>
  <circle cx="520.7" cy="284.6" r="3" fill="#eab308" stroke="white" stroke-width="1"/>
  <circle cx="572.0" cy="280.3" r="3" fill="#eab308" stroke="white" stroke-width="1"/>
  <circle cx="623.3" cy="275.7" r="3" fill="#eab308" stroke="white" stroke-width="1"/>
  <circle cx="674.7" cy="278.7" r="3" fill="#eab308" stroke="white" stroke-width="1"/>
  <circle cx="726.0" cy="274.0" r="3" fill="#eab308" stroke="white" stroke-width="1"/>
  <circle cx="777.3" cy="246.3" r="3" fill="#eab308" stroke="white" stroke-width="1"/>
  <circle cx="828.7" cy="171.3" r="3" fill="#eab308" stroke="white" stroke-width="1"/>
  <circle cx="880.0" cy="169.1" r="3" fill="#eab308" stroke="white" stroke-width="1"/>
  <polyline points="418.0,299.5 469.3,290.7 520.7,284.8 572.0,279.6 623.3,276.8 674.7,275.1 726.0,274.1 777.3,247.0 828.7,166.2 880.0,151.9" fill="none" stroke="#a16207" stroke-width="2.5" stroke-linecap="round" stroke-linejoin="round"/>
  <circle cx="418.0" cy="299.5" r="3" fill="#a16207" stroke="white" stroke-width="1"/>
  <circle cx="469.3" cy="290.7" r="3" fill="#a16207" stroke="white" stroke-width="1"/>
  <circle cx="520.7" cy="284.8" r="3" fill="#a16207" stroke="white" stroke-width="1"/>
  <circle cx="572.0" cy="279.6" r="3" fill="#a16207" stroke="white" stroke-width="1"/>
  <circle cx="623.3" cy="276.8" r="3" fill="#a16207" stroke="white" stroke-width="1"/>
  <circle cx="674.7" cy="275.1" r="3" fill="#a16207" stroke="white" stroke-width="1"/>
  <circle cx="726.0" cy="274.1" r="3" fill="#a16207" stroke="white" stroke-width="1"/>
  <circle cx="777.3" cy="247.0" r="3" fill="#a16207" stroke="white" stroke-width="1"/>
  <circle cx="828.7" cy="166.2" r="3" fill="#a16207" stroke="white" stroke-width="1"/>
  <circle cx="880.0" cy="151.9" r="3" fill="#a16207" stroke="white" stroke-width="1"/>
  <polyline points="418.0,265.4 469.3,228.4 520.7,176.0 572.0,115.7 623.3,150.1 674.7,127.3 726.0,133.3 777.3,123.6 828.7,175.6 880.0,157.2" fill="none" stroke="#06b6d4" stroke-width="2.5" stroke-linecap="round" stroke-linejoin="round"/>
  <circle cx="418.0" cy="265.4" r="3" fill="#06b6d4" stroke="white" stroke-width="1"/>
  <circle cx="469.3" cy="228.4" r="3" fill="#06b6d4" stroke="white" stroke-width="1"/>
  <circle cx="520.7" cy="176.0" r="3" fill="#06b6d4" stroke="white" stroke-width="1"/>
  <circle cx="572.0" cy="115.7" r="3" fill="#06b6d4" stroke="white" stroke-width="1"/>
  <circle cx="623.3" cy="150.1" r="3" fill="#06b6d4" stroke="white" stroke-width="1"/>
  <circle cx="674.7" cy="127.3" r="3" fill="#06b6d4" stroke="white" stroke-width="1"/>
  <circle cx="726.0" cy="133.3" r="3" fill="#06b6d4" stroke="white" stroke-width="1"/>
  <circle cx="777.3" cy="123.6" r="3" fill="#06b6d4" stroke="white" stroke-width="1"/>
  <circle cx="828.7" cy="175.6" r="3" fill="#06b6d4" stroke="white" stroke-width="1"/>
  <circle cx="880.0" cy="157.2" r="3" fill="#06b6d4" stroke="white" stroke-width="1"/>
  <polyline points="418.0,269.1 469.3,250.6 520.7,183.2 572.0,160.0 623.3,104.7 674.7,94.7 726.0,103.6 777.3,110.3 828.7,141.4 880.0,151.8" fill="none" stroke="#dc2626" stroke-width="2.5" stroke-linecap="round" stroke-linejoin="round"/>
  <circle cx="418.0" cy="269.1" r="3" fill="#dc2626" stroke="white" stroke-width="1"/>
  <circle cx="469.3" cy="250.6" r="3" fill="#dc2626" stroke="white" stroke-width="1"/>
  <circle cx="520.7" cy="183.2" r="3" fill="#dc2626" stroke="white" stroke-width="1"/>
  <circle cx="572.0" cy="160.0" r="3" fill="#dc2626" stroke="white" stroke-width="1"/>
  <circle cx="623.3" cy="104.7" r="3" fill="#dc2626" stroke="white" stroke-width="1"/>
  <circle cx="674.7" cy="94.7" r="3" fill="#dc2626" stroke="white" stroke-width="1"/>
  <circle cx="726.0" cy="103.6" r="3" fill="#dc2626" stroke="white" stroke-width="1"/>
  <circle cx="777.3" cy="110.3" r="3" fill="#dc2626" stroke="white" stroke-width="1"/>
  <circle cx="828.7" cy="141.4" r="3" fill="#dc2626" stroke="white" stroke-width="1"/>
  <circle cx="880.0" cy="151.8" r="3" fill="#dc2626" stroke="white" stroke-width="1"/>
  <polyline points="418.0,278.5 469.3,247.1 520.7,209.7 572.0,184.3 623.3,148.1 674.7,160.3 726.0,99.8 777.3,93.9 828.7,110.6 880.0,136.5" fill="none" stroke="#f97316" stroke-width="2.5" stroke-linecap="round" stroke-linejoin="round"/>
  <circle cx="418.0" cy="278.5" r="3" fill="#f97316" stroke="white" stroke-width="1"/>
  <circle cx="469.3" cy="247.1" r="3" fill="#f97316" stroke="white" stroke-width="1"/>
  <circle cx="520.7" cy="209.7" r="3" fill="#f97316" stroke="white" stroke-width="1"/>
  <circle cx="572.0" cy="184.3" r="3" fill="#f97316" stroke="white" stroke-width="1"/>
  <circle cx="623.3" cy="148.1" r="3" fill="#f97316" stroke="white" stroke-width="1"/>
  <circle cx="674.7" cy="160.3" r="3" fill="#f97316" stroke="white" stroke-width="1"/>
  <circle cx="726.0" cy="99.8" r="3" fill="#f97316" stroke="white" stroke-width="1"/>
  <circle cx="777.3" cy="93.9" r="3" fill="#f97316" stroke="white" stroke-width="1"/>
  <circle cx="828.7" cy="110.6" r="3" fill="#f97316" stroke="white" stroke-width="1"/>
  <circle cx="880.0" cy="136.5" r="3" fill="#f97316" stroke="white" stroke-width="1"/>
  <text x="418.0" y="333.0" text-anchor="middle" fill="#374151" font-size="8">256 B</text>
  <text x="469.3" y="333.0" text-anchor="middle" fill="#374151" font-size="8">512 B</text>
  <text x="520.7" y="333.0" text-anchor="middle" fill="#374151" font-size="8">1 KiB</text>
  <text x="572.0" y="333.0" text-anchor="middle" fill="#374151" font-size="8">2 KiB</text>
  <text x="623.3" y="333.0" text-anchor="middle" fill="#374151" font-size="8">4 KiB</text>
  <text x="674.7" y="333.0" text-anchor="middle" fill="#374151" font-size="8">8 KiB</text>
  <text x="726.0" y="333.0" text-anchor="middle" fill="#374151" font-size="8">16 KiB</text>
  <text x="777.3" y="333.0" text-anchor="middle" fill="#374151" font-size="8">32 KiB</text>
  <text x="828.7" y="333.0" text-anchor="middle" fill="#374151" font-size="8">256 KiB</text>
  <text x="880.0" y="333.0" text-anchor="middle" fill="#374151" font-size="8">4 MiB</text>
  <line x1="95" y1="350" x2="109" y2="350" stroke="#eab308" stroke-width="2.5" stroke-linecap="round"/>
  <circle cx="102" cy="350" r="2.5" fill="#eab308"/>
  <text x="115" y="354" fill="#374151" font-size="10" font-weight="500">libzmq v4.3.5 (1T)</text>
  <line x1="285" y1="350" x2="299" y2="350" stroke="#a16207" stroke-width="2.5" stroke-linecap="round"/>
  <circle cx="292" cy="350" r="2.5" fill="#a16207"/>
  <text x="305" y="354" fill="#374151" font-size="10" font-weight="500">libzmq v4.3.5 (4T)</text>
  <line x1="475" y1="350" x2="489" y2="350" stroke="#f97316" stroke-width="2.5" stroke-linecap="round"/>
  <circle cx="482" cy="350" r="2.5" fill="#f97316"/>
  <text x="495" y="354" fill="#374151" font-size="10" font-weight="500">omq-tokio (1T)</text>
  <line x1="665" y1="350" x2="679" y2="350" stroke="#dc2626" stroke-width="2.5" stroke-linecap="round"/>
  <circle cx="672" cy="350" r="2.5" fill="#dc2626"/>
  <text x="685" y="354" fill="#374151" font-size="10" font-weight="500">omq-tokio (4T)</text>
  <line x1="95" y1="370" x2="109" y2="370" stroke="#06b6d4" stroke-width="2.5" stroke-linecap="round"/>
  <circle cx="102" cy="370" r="2.5" fill="#06b6d4"/>
  <text x="115" y="374" fill="#374151" font-size="10" font-weight="500">omq-libzmq [1T]</text>
  <line x1="285" y1="370" x2="299" y2="370" stroke="#2563eb" stroke-width="2.5" stroke-linecap="round"/>
  <circle cx="292" cy="370" r="2.5" fill="#2563eb"/>
  <text x="305" y="374" fill="#374151" font-size="10" font-weight="500">zmq.rs v0.6.0 [6T]</text>
  <line x1="475" y1="370" x2="489" y2="370" stroke="#16a34a" stroke-width="2.5" stroke-linecap="round"/>
  <circle cx="482" cy="370" r="2.5" fill="#16a34a"/>
  <text x="495" y="374" fill="#374151" font-size="10" font-weight="500">rzmq v0.5.24 [6T]</text>
  <line x1="665" y1="370" x2="679" y2="370" stroke="#15803d" stroke-width="2.5" stroke-linecap="round"/>
  <circle cx="672" cy="370" r="2.5" fill="#15803d"/>
  <text x="685" y="374" fill="#374151" font-size="10" font-weight="500">rzmq v0.5.24 (io_uring) [6T]</text>
  <text x="70.0" y="388.0" text-anchor="start" fill="#9ca3af" font-size="9">(nT) = configurable IO threads</text>
  <text x="70.0" y="401.0" text-anchor="start" fill="#9ca3af" font-size="9">[nT] = fixed IO threads</text>
</svg>
