<svg xmlns="http://www.w3.org/2000/svg" viewBox="0 0 950 390" font-family="system-ui, -apple-system, sans-serif">
  <rect width="950" height="390" fill="white"/>
  <text x="475.0" y="16.0" text-anchor="middle" fill="#111827" font-size="14" font-weight="700">PUSH/PULL throughput, TCP loopback, 2-process</text>
  <text x="475.0" y="30.0" text-anchor="middle" fill="#9ca3af" font-size="9">Linux VM on a 2018 Mac Mini, Intel Core i7-8700B @ 3.20GHz, 6 cores, performance governor, turbo off</text>
  <text x="204.2" y="48.0" text-anchor="middle" fill="#111827" font-size="12" font-weight="700">small messages (higher is better)</text>
  <line x1="70.0" y1="260.8" x2="338.3" y2="260.8" stroke="#e5e7eb" stroke-width="1"/>
  <text x="62.0" y="260.8" text-anchor="end" dominant-baseline="middle" fill="#374151" font-size="8.5">200 MB/s</text>
  <line x1="70.0" y1="201.6" x2="338.3" y2="201.6" stroke="#e5e7eb" stroke-width="1"/>
  <text x="62.0" y="201.6" text-anchor="end" dominant-baseline="middle" fill="#374151" font-size="8.5">400 MB/s</text>
  <line x1="70.0" y1="142.4" x2="338.3" y2="142.4" stroke="#e5e7eb" stroke-width="1"/>
  <text x="62.0" y="142.4" text-anchor="end" dominant-baseline="middle" fill="#374151" font-size="8.5">600 MB/s</text>
  <line x1="70.0" y1="83.2" x2="338.3" y2="83.2" stroke="#e5e7eb" stroke-width="1"/>
  <text x="62.0" y="83.2" text-anchor="end" dominant-baseline="middle" fill="#374151" font-size="8.5">800 MB/s</text>
  <line x1="70.0" y1="60.0" x2="70.0" y2="320.0" stroke="#e5e7eb" stroke-width="1"/>
  <line x1="137.1" y1="60.0" x2="137.1" y2="320.0" stroke="#e5e7eb" stroke-width="1"/>
  <line x1="204.2" y1="60.0" x2="204.2" y2="320.0" stroke="#e5e7eb" stroke-width="1"/>
  <line x1="271.2" y1="60.0" x2="271.2" y2="320.0" stroke="#e5e7eb" stroke-width="1"/>
  <line x1="338.3" y1="60.0" x2="338.3" y2="320.0" stroke="#e5e7eb" stroke-width="1"/>
  <line x1="70.0" y1="60.0" x2="70.0" y2="320.0" stroke="#9ca3af" stroke-width="1.5"/>
  <line x1="70.0" y1="320.0" x2="338.3" y2="320.0" stroke="#9ca3af" stroke-width="1.5"/>
  <polyline points="70.0,316.2 137.1,312.4 204.2,304.8 271.2,288.5 338.3,259.4" fill="none" stroke="#16a34a" stroke-width="2.5" stroke-linecap="round" stroke-linejoin="round"/>
  <circle cx="70.0" cy="316.2" r="3" fill="#16a34a" stroke="white" stroke-width="1"/>
  <circle cx="137.1" cy="312.4" r="3" fill="#16a34a" stroke="white" stroke-width="1"/>
  <circle cx="204.2" cy="304.8" r="3" fill="#16a34a" stroke="white" stroke-width="1"/>
  <circle cx="271.2" cy="288.5" r="3" fill="#16a34a" stroke="white" stroke-width="1"/>
  <circle cx="338.3" cy="259.4" r="3" fill="#16a34a" stroke="white" stroke-width="1"/>
  <polyline points="70.0,319.0 137.1,318.2 204.2,317.0 271.2,314.7 338.3,310.1" fill="none" stroke="#2563eb" stroke-width="2.5" stroke-linecap="round" stroke-linejoin="round"/>
  <circle cx="70.0" cy="319.0" r="3" fill="#2563eb" stroke="white" stroke-width="1"/>
  <circle cx="137.1" cy="318.2" r="3" fill="#2563eb" stroke="white" stroke-width="1"/>
  <circle cx="204.2" cy="317.0" r="3" fill="#2563eb" stroke="white" stroke-width="1"/>
  <circle cx="271.2" cy="314.7" r="3" fill="#2563eb" stroke="white" stroke-width="1"/>
  <circle cx="338.3" cy="310.1" r="3" fill="#2563eb" stroke="white" stroke-width="1"/>
  <polyline points="70.0,304.8 137.1,286.9 204.2,255.3 271.2,235.3 338.3,234.6" fill="none" stroke="#eab308" stroke-width="2.5" stroke-linecap="round" stroke-linejoin="round"/>
  <circle cx="70.0" cy="304.8" r="3" fill="#eab308" stroke="white" stroke-width="1"/>
  <circle cx="137.1" cy="286.9" r="3" fill="#eab308" stroke="white" stroke-width="1"/>
  <circle cx="204.2" cy="255.3" r="3" fill="#eab308" stroke="white" stroke-width="1"/>
  <circle cx="271.2" cy="235.3" r="3" fill="#eab308" stroke="white" stroke-width="1"/>
  <circle cx="338.3" cy="234.6" r="3" fill="#eab308" stroke="white" stroke-width="1"/>
  <polyline points="70.0,304.1 137.1,290.9 204.2,258.8 271.2,220.8 338.3,121.3" fill="none" stroke="#dc2626" stroke-width="2.5" stroke-linecap="round" stroke-linejoin="round"/>
  <circle cx="70.0" cy="304.1" r="3" fill="#dc2626" stroke="white" stroke-width="1"/>
  <circle cx="137.1" cy="290.9" r="3" fill="#dc2626" stroke="white" stroke-width="1"/>
  <circle cx="204.2" cy="258.8" r="3" fill="#dc2626" stroke="white" stroke-width="1"/>
  <circle cx="271.2" cy="220.8" r="3" fill="#dc2626" stroke="white" stroke-width="1"/>
  <circle cx="338.3" cy="121.3" r="3" fill="#dc2626" stroke="white" stroke-width="1"/>
  <polyline points="70.0,309.0 137.1,298.2 204.2,275.9 271.2,250.6 338.3,186.9" fill="none" stroke="#f97316" stroke-width="2.5" stroke-linecap="round" stroke-linejoin="round"/>
  <circle cx="70.0" cy="309.0" r="3" fill="#f97316" stroke="white" stroke-width="1"/>
  <circle cx="137.1" cy="298.2" r="3" fill="#f97316" stroke="white" stroke-width="1"/>
  <circle cx="204.2" cy="275.9" r="3" fill="#f97316" stroke="white" stroke-width="1"/>
  <circle cx="271.2" cy="250.6" r="3" fill="#f97316" stroke="white" stroke-width="1"/>
  <circle cx="338.3" cy="186.9" r="3" fill="#f97316" stroke="white" stroke-width="1"/>
  <polyline points="70.0,280.2 137.1,245.4 204.2,202.6 271.2,156.6 338.3,93.9" fill="none" stroke="#7c3aed" stroke-width="2.5" stroke-linecap="round" stroke-linejoin="round"/>
  <circle cx="70.0" cy="280.2" r="3" fill="#7c3aed" stroke="white" stroke-width="1"/>
  <circle cx="137.1" cy="245.4" r="3" fill="#7c3aed" stroke="white" stroke-width="1"/>
  <circle cx="204.2" cy="202.6" r="3" fill="#7c3aed" stroke="white" stroke-width="1"/>
  <circle cx="271.2" cy="156.6" r="3" fill="#7c3aed" stroke="white" stroke-width="1"/>
  <circle cx="338.3" cy="93.9" r="3" fill="#7c3aed" stroke="white" stroke-width="1"/>
  <text x="70.0" y="333.0" text-anchor="middle" fill="#374151" font-size="8">8 B</text>
  <text x="137.1" y="333.0" text-anchor="middle" fill="#374151" font-size="8">16 B</text>
  <text x="204.2" y="333.0" text-anchor="middle" fill="#374151" font-size="8">32 B</text>
  <text x="271.2" y="333.0" text-anchor="middle" fill="#374151" font-size="8">64 B</text>
  <text x="338.3" y="333.0" text-anchor="middle" fill="#374151" font-size="8">128 B</text>
  <text x="656.7" y="48.0" text-anchor="middle" fill="#111827" font-size="12" font-weight="700">medium/large messages (higher is better)</text>
  <line x1="388.3" y1="281.3" x2="925.0" y2="281.3" stroke="#e5e7eb" stroke-width="1"/>
  <text x="380.3" y="281.3" text-anchor="end" dominant-baseline="middle" fill="#374151" font-size="8.5">1 GB/s</text>
  <line x1="388.3" y1="242.6" x2="925.0" y2="242.6" stroke="#e5e7eb" stroke-width="1"/>
  <text x="380.3" y="242.6" text-anchor="end" dominant-baseline="middle" fill="#374151" font-size="8.5">2 GB/s</text>
  <line x1="388.3" y1="203.8" x2="925.0" y2="203.8" stroke="#e5e7eb" stroke-width="1"/>
  <text x="380.3" y="203.8" text-anchor="end" dominant-baseline="middle" fill="#374151" font-size="8.5">3 GB/s</text>
  <line x1="388.3" y1="165.1" x2="925.0" y2="165.1" stroke="#e5e7eb" stroke-width="1"/>
  <text x="380.3" y="165.1" text-anchor="end" dominant-baseline="middle" fill="#374151" font-size="8.5">4 GB/s</text>
  <line x1="388.3" y1="126.4" x2="925.0" y2="126.4" stroke="#e5e7eb" stroke-width="1"/>
  <text x="380.3" y="126.4" text-anchor="end" dominant-baseline="middle" fill="#374151" font-size="8.5">5 GB/s</text>
  <line x1="388.3" y1="87.7" x2="925.0" y2="87.7" stroke="#e5e7eb" stroke-width="1"/>
  <text x="380.3" y="87.7" text-anchor="end" dominant-baseline="middle" fill="#374151" font-size="8.5">6 GB/s</text>
  <line x1="388.3" y1="60.0" x2="388.3" y2="320.0" stroke="#e5e7eb" stroke-width="1"/>
  <line x1="455.4" y1="60.0" x2="455.4" y2="320.0" stroke="#e5e7eb" stroke-width="1"/>
  <line x1="522.5" y1="60.0" x2="522.5" y2="320.0" stroke="#e5e7eb" stroke-width="1"/>
  <line x1="589.6" y1="60.0" x2="589.6" y2="320.0" stroke="#e5e7eb" stroke-width="1"/>
  <line x1="656.7" y1="60.0" x2="656.7" y2="320.0" stroke="#e5e7eb" stroke-width="1"/>
  <line x1="723.8" y1="60.0" x2="723.8" y2="320.0" stroke="#e5e7eb" stroke-width="1"/>
  <line x1="790.8" y1="60.0" x2="790.8" y2="320.0" stroke="#e5e7eb" stroke-width="1"/>
  <line x1="857.9" y1="60.0" x2="857.9" y2="320.0" stroke="#e5e7eb" stroke-width="1"/>
  <line x1="925.0" y1="60.0" x2="925.0" y2="320.0" stroke="#e5e7eb" stroke-width="1"/>
  <line x1="388.3" y1="60.0" x2="388.3" y2="320.0" stroke="#9ca3af" stroke-width="1.5"/>
  <line x1="388.3" y1="320.0" x2="925.0" y2="320.0" stroke="#9ca3af" stroke-width="1.5"/>
  <polyline points="388.3,312.1 455.4,304.3 522.5,289.8 589.6,265.9 656.7,237.2 723.8,207.4 790.8,190.9 857.9,211.9 925.0,170.2" fill="none" stroke="#16a34a" stroke-width="2.5" stroke-linecap="round" stroke-linejoin="round"/>
  <circle cx="388.3" cy="312.1" r="3" fill="#16a34a" stroke="white" stroke-width="1"/>
  <circle cx="455.4" cy="304.3" r="3" fill="#16a34a" stroke="white" stroke-width="1"/>
  <circle cx="522.5" cy="289.8" r="3" fill="#16a34a" stroke="white" stroke-width="1"/>
  <circle cx="589.6" cy="265.9" r="3" fill="#16a34a" stroke="white" stroke-width="1"/>
  <circle cx="656.7" cy="237.2" r="3" fill="#16a34a" stroke="white" stroke-width="1"/>
  <circle cx="723.8" cy="207.4" r="3" fill="#16a34a" stroke="white" stroke-width="1"/>
  <circle cx="790.8" cy="190.9" r="3" fill="#16a34a" stroke="white" stroke-width="1"/>
  <circle cx="857.9" cy="211.9" r="3" fill="#16a34a" stroke="white" stroke-width="1"/>
  <circle cx="925.0" cy="170.2" r="3" fill="#16a34a" stroke="white" stroke-width="1"/>
  <polyline points="388.3,318.7 455.4,317.5 522.5,315.2 589.6,310.8 656.7,303.4 723.8,288.6 790.8,265.3 857.9,198.2 925.0,193.7" fill="none" stroke="#2563eb" stroke-width="2.5" stroke-linecap="round" stroke-linejoin="round"/>
  <circle cx="388.3" cy="318.7" r="3" fill="#2563eb" stroke="white" stroke-width="1"/>
  <circle cx="455.4" cy="317.5" r="3" fill="#2563eb" stroke="white" stroke-width="1"/>
  <circle cx="522.5" cy="315.2" r="3" fill="#2563eb" stroke="white" stroke-width="1"/>
  <circle cx="589.6" cy="310.8" r="3" fill="#2563eb" stroke="white" stroke-width="1"/>
  <circle cx="656.7" cy="303.4" r="3" fill="#2563eb" stroke="white" stroke-width="1"/>
  <circle cx="723.8" cy="288.6" r="3" fill="#2563eb" stroke="white" stroke-width="1"/>
  <circle cx="790.8" cy="265.3" r="3" fill="#2563eb" stroke="white" stroke-width="1"/>
  <circle cx="857.9" cy="198.2" r="3" fill="#2563eb" stroke="white" stroke-width="1"/>
  <circle cx="925.0" cy="193.7" r="3" fill="#2563eb" stroke="white" stroke-width="1"/>
  <polyline points="388.3,308.8 455.4,299.3 522.5,291.1 589.6,284.8 656.7,279.1 723.8,269.2 790.8,274.5 857.9,274.2 925.0,245.7" fill="none" stroke="#eab308" stroke-width="2.5" stroke-linecap="round" stroke-linejoin="round"/>
  <circle cx="388.3" cy="308.8" r="3" fill="#eab308" stroke="white" stroke-width="1"/>
  <circle cx="455.4" cy="299.3" r="3" fill="#eab308" stroke="white" stroke-width="1"/>
  <circle cx="522.5" cy="291.1" r="3" fill="#eab308" stroke="white" stroke-width="1"/>
  <circle cx="589.6" cy="284.8" r="3" fill="#eab308" stroke="white" stroke-width="1"/>
  <circle cx="656.7" cy="279.1" r="3" fill="#eab308" stroke="white" stroke-width="1"/>
  <circle cx="723.8" cy="269.2" r="3" fill="#eab308" stroke="white" stroke-width="1"/>
  <circle cx="790.8" cy="274.5" r="3" fill="#eab308" stroke="white" stroke-width="1"/>
  <circle cx="857.9" cy="274.2" r="3" fill="#eab308" stroke="white" stroke-width="1"/>
  <circle cx="925.0" cy="245.7" r="3" fill="#eab308" stroke="white" stroke-width="1"/>
  <polyline points="388.3,294.0 455.4,276.5 522.5,246.6 589.6,206.3 656.7,168.0 723.8,117.0 790.8,93.9 857.9,106.4 925.0,100.1" fill="none" stroke="#dc2626" stroke-width="2.5" stroke-linecap="round" stroke-linejoin="round"/>
  <circle cx="388.3" cy="294.0" r="3" fill="#dc2626" stroke="white" stroke-width="1"/>
  <circle cx="455.4" cy="276.5" r="3" fill="#dc2626" stroke="white" stroke-width="1"/>
  <circle cx="522.5" cy="246.6" r="3" fill="#dc2626" stroke="white" stroke-width="1"/>
  <circle cx="589.6" cy="206.3" r="3" fill="#dc2626" stroke="white" stroke-width="1"/>
  <circle cx="656.7" cy="168.0" r="3" fill="#dc2626" stroke="white" stroke-width="1"/>
  <circle cx="723.8" cy="117.0" r="3" fill="#dc2626" stroke="white" stroke-width="1"/>
  <circle cx="790.8" cy="93.9" r="3" fill="#dc2626" stroke="white" stroke-width="1"/>
  <circle cx="857.9" cy="106.4" r="3" fill="#dc2626" stroke="white" stroke-width="1"/>
  <circle cx="925.0" cy="100.1" r="3" fill="#dc2626" stroke="white" stroke-width="1"/>
  <polyline points="388.3,302.6 455.4,292.7 522.5,264.6 589.6,227.5 656.7,200.5 723.8,189.5 790.8,170.2 857.9,165.0 925.0,160.9" fill="none" stroke="#f97316" stroke-width="2.5" stroke-linecap="round" stroke-linejoin="round"/>
  <circle cx="388.3" cy="302.6" r="3" fill="#f97316" stroke="white" stroke-width="1"/>
  <circle cx="455.4" cy="292.7" r="3" fill="#f97316" stroke="white" stroke-width="1"/>
  <circle cx="522.5" cy="264.6" r="3" fill="#f97316" stroke="white" stroke-width="1"/>
  <circle cx="589.6" cy="227.5" r="3" fill="#f97316" stroke="white" stroke-width="1"/>
  <circle cx="656.7" cy="200.5" r="3" fill="#f97316" stroke="white" stroke-width="1"/>
  <circle cx="723.8" cy="189.5" r="3" fill="#f97316" stroke="white" stroke-width="1"/>
  <circle cx="790.8" cy="170.2" r="3" fill="#f97316" stroke="white" stroke-width="1"/>
  <circle cx="857.9" cy="165.0" r="3" fill="#f97316" stroke="white" stroke-width="1"/>
  <circle cx="925.0" cy="160.9" r="3" fill="#f97316" stroke="white" stroke-width="1"/>
  <polyline points="388.3,290.4 455.4,279.4 522.5,256.8 589.6,237.2 656.7,206.6 723.8,198.9 790.8,192.5 857.9,181.6 925.0,157.3" fill="none" stroke="#7c3aed" stroke-width="2.5" stroke-linecap="round" stroke-linejoin="round"/>
  <circle cx="388.3" cy="290.4" r="3" fill="#7c3aed" stroke="white" stroke-width="1"/>
  <circle cx="455.4" cy="279.4" r="3" fill="#7c3aed" stroke="white" stroke-width="1"/>
  <circle cx="522.5" cy="256.8" r="3" fill="#7c3aed" stroke="white" stroke-width="1"/>
  <circle cx="589.6" cy="237.2" r="3" fill="#7c3aed" stroke="white" stroke-width="1"/>
  <circle cx="656.7" cy="206.6" r="3" fill="#7c3aed" stroke="white" stroke-width="1"/>
  <circle cx="723.8" cy="198.9" r="3" fill="#7c3aed" stroke="white" stroke-width="1"/>
  <circle cx="790.8" cy="192.5" r="3" fill="#7c3aed" stroke="white" stroke-width="1"/>
  <circle cx="857.9" cy="181.6" r="3" fill="#7c3aed" stroke="white" stroke-width="1"/>
  <circle cx="925.0" cy="157.3" r="3" fill="#7c3aed" stroke="white" stroke-width="1"/>
  <text x="388.3" y="333.0" text-anchor="middle" fill="#374151" font-size="8">128 B</text>
  <text x="455.4" y="333.0" text-anchor="middle" fill="#374151" font-size="8">256 B</text>
  <text x="522.5" y="333.0" text-anchor="middle" fill="#374151" font-size="8">512 B</text>
  <text x="589.6" y="333.0" text-anchor="middle" fill="#374151" font-size="8">1 KiB</text>
  <text x="656.7" y="333.0" text-anchor="middle" fill="#374151" font-size="8">2 KiB</text>
  <text x="723.8" y="333.0" text-anchor="middle" fill="#374151" font-size="8">4 KiB</text>
  <text x="790.8" y="333.0" text-anchor="middle" fill="#374151" font-size="8">8 KiB</text>
  <text x="857.9" y="333.0" text-anchor="middle" fill="#374151" font-size="8">16 KiB</text>
  <text x="925.0" y="333.0" text-anchor="middle" fill="#374151" font-size="8">32 KiB</text>
  <line x1="20" y1="350" x2="34" y2="350" stroke="#eab308" stroke-width="2.5" stroke-linecap="round"/>
  <circle cx="27" cy="350" r="2.5" fill="#eab308"/>
  <text x="40" y="354" fill="#374151" font-size="10" font-weight="500">libzmq v4.3.5</text>
  <line x1="172" y1="350" x2="186" y2="350" stroke="#7c3aed" stroke-width="2.5" stroke-linecap="round"/>
  <circle cx="179" cy="350" r="2.5" fill="#7c3aed"/>
  <text x="192" y="354" fill="#374151" font-size="10" font-weight="500">omq-compio</text>
  <line x1="323" y1="350" x2="337" y2="350" stroke="#f97316" stroke-width="2.5" stroke-linecap="round"/>
  <circle cx="330" cy="350" r="2.5" fill="#f97316"/>
  <text x="343" y="354" fill="#374151" font-size="10" font-weight="500">omq-tokio (ST)</text>
  <line x1="475" y1="350" x2="489" y2="350" stroke="#dc2626" stroke-width="2.5" stroke-linecap="round"/>
  <circle cx="482" cy="350" r="2.5" fill="#dc2626"/>
  <text x="495" y="354" fill="#374151" font-size="10" font-weight="500">omq-tokio (MT)</text>
  <line x1="627" y1="350" x2="641" y2="350" stroke="#2563eb" stroke-width="2.5" stroke-linecap="round"/>
  <circle cx="634" cy="350" r="2.5" fill="#2563eb"/>
  <text x="647" y="354" fill="#374151" font-size="10" font-weight="500">zmq.rs v0.6.0 (MT)</text>
  <line x1="778" y1="350" x2="792" y2="350" stroke="#16a34a" stroke-width="2.5" stroke-linecap="round"/>
  <circle cx="785" cy="350" r="2.5" fill="#16a34a"/>
  <text x="798" y="354" fill="#374151" font-size="10" font-weight="500">rzmq v0.5.18 (MT)</text>
  <text x="475.0" y="368.0" text-anchor="middle" fill="#9ca3af" font-size="9">ST = single-threaded   MT = multi-threaded</text>
</svg>
