<svg xmlns="http://www.w3.org/2000/svg" viewBox="0 0 950 410" font-family="system-ui, -apple-system, sans-serif">
  <rect width="950" height="410" fill="white"/>
  <text x="475.0" y="16.0" text-anchor="middle" fill="#111827" font-size="14" font-weight="700">PUSH/PULL throughput, classic (epoll/mio), TCP loopback, 2-process</text>
  <text x="475.0" y="30.0" text-anchor="middle" fill="#9ca3af" font-size="9">Linux VM on a 2018 Mac Mini, Intel Core i7-8700B @ 3.20GHz, 6 cores, performance governor, turbo off</text>
  <text x="224.0" y="48.0" text-anchor="middle" fill="#111827" font-size="12" font-weight="700">small messages (higher is better)</text>
  <line x1="70.0" y1="258.2" x2="378.0" y2="258.2" stroke="#e5e7eb" stroke-width="1" stroke-dasharray="4,3"/>
  <text x="62.0" y="258.2" text-anchor="end" dominant-baseline="middle" fill="#374151" font-size="8.5">2 M msg/s</text>
  <line x1="70.0" y1="196.4" x2="378.0" y2="196.4" stroke="#e5e7eb" stroke-width="1" stroke-dasharray="4,3"/>
  <text x="62.0" y="196.4" text-anchor="end" dominant-baseline="middle" fill="#374151" font-size="8.5">4 M msg/s</text>
  <line x1="70.0" y1="134.5" x2="378.0" y2="134.5" stroke="#e5e7eb" stroke-width="1" stroke-dasharray="4,3"/>
  <text x="62.0" y="134.5" text-anchor="end" dominant-baseline="middle" fill="#374151" font-size="8.5">6 M msg/s</text>
  <line x1="70.0" y1="72.7" x2="378.0" y2="72.7" stroke="#e5e7eb" stroke-width="1" stroke-dasharray="4,3"/>
  <text x="62.0" y="72.7" text-anchor="end" dominant-baseline="middle" fill="#374151" font-size="8.5">8 M msg/s</text>
  <line x1="378.0" y1="60.0" x2="378.0" y2="320.0" stroke="#9ca3af" stroke-width="1.5"/>
  <line x1="70.0" y1="60.0" x2="70.0" y2="320.0" stroke="#e5e7eb" stroke-width="1"/>
  <line x1="131.6" y1="60.0" x2="131.6" y2="320.0" stroke="#e5e7eb" stroke-width="1"/>
  <line x1="193.2" y1="60.0" x2="193.2" y2="320.0" stroke="#e5e7eb" stroke-width="1"/>
  <line x1="254.8" y1="60.0" x2="254.8" y2="320.0" stroke="#e5e7eb" stroke-width="1"/>
  <line x1="316.4" y1="60.0" x2="316.4" y2="320.0" stroke="#e5e7eb" stroke-width="1"/>
  <line x1="378.0" y1="60.0" x2="378.0" y2="320.0" stroke="#e5e7eb" stroke-width="1"/>
  <line x1="70.0" y1="60.0" x2="70.0" y2="320.0" stroke="#9ca3af" stroke-width="1.5"/>
  <line x1="70.0" y1="320.0" x2="378.0" y2="320.0" stroke="#9ca3af" stroke-width="1.5"/>
  <polyline points="70.0,247.2 131.6,245.9 193.2,246.6 254.8,247.3 316.4,249.4 378.0,253.8" fill="none" stroke="#16a34a" stroke-width="2.5" stroke-dasharray="6,3"/>
  <polyline points="70.0,306.0 131.6,308.1 193.2,310.1 254.8,311.3 316.4,312.1 378.0,312.3" fill="none" stroke="#2563eb" stroke-width="2.5" stroke-dasharray="6,3"/>
  <polyline points="70.0,114.5 131.6,93.9 193.2,110.2 254.8,185.5 316.4,250.1 378.0,257.5" fill="none" stroke="#eab308" stroke-width="2.5" stroke-dasharray="6,3"/>
  <polyline points="70.0,97.8 131.6,101.6 193.2,108.8 254.8,175.2 316.4,178.9 378.0,184.4" fill="none" stroke="#dc2626" stroke-width="2.5" stroke-dasharray="6,3"/>
  <polyline points="70.0,122.6 131.6,126.8 193.2,134.2 254.8,196.4 316.4,201.2 378.0,215.0" fill="none" stroke="#f97316" stroke-width="2.5" stroke-dasharray="6,3"/>
  <text x="70.0" y="333.0" text-anchor="middle" fill="#374151" font-size="8">8 B</text>
  <text x="131.6" y="333.0" text-anchor="middle" fill="#374151" font-size="8">16 B</text>
  <text x="193.2" y="333.0" text-anchor="middle" fill="#374151" font-size="8">32 B</text>
  <text x="254.8" y="333.0" text-anchor="middle" fill="#374151" font-size="8">64 B</text>
  <text x="316.4" y="333.0" text-anchor="middle" fill="#374151" font-size="8">128 B</text>
  <text x="378.0" y="333.0" text-anchor="middle" fill="#374151" font-size="8">256 B</text>
  <text x="649.0" y="48.0" text-anchor="middle" fill="#111827" font-size="12" font-weight="700">medium/large messages (higher is better)</text>
  <line x1="418.0" y1="279.6" x2="880.0" y2="279.6" stroke="#e5e7eb" stroke-width="1"/>
  <text x="888.0" y="279.6" text-anchor="start" dominant-baseline="middle" fill="#374151" font-size="8.5">1 GB/s</text>
  <line x1="418.0" y1="239.3" x2="880.0" y2="239.3" stroke="#e5e7eb" stroke-width="1"/>
  <text x="888.0" y="239.3" text-anchor="start" dominant-baseline="middle" fill="#374151" font-size="8.5">2 GB/s</text>
  <line x1="418.0" y1="198.9" x2="880.0" y2="198.9" stroke="#e5e7eb" stroke-width="1"/>
  <text x="888.0" y="198.9" text-anchor="start" dominant-baseline="middle" fill="#374151" font-size="8.5">3 GB/s</text>
  <line x1="418.0" y1="158.6" x2="880.0" y2="158.6" stroke="#e5e7eb" stroke-width="1"/>
  <text x="888.0" y="158.6" text-anchor="start" dominant-baseline="middle" fill="#374151" font-size="8.5">4 GB/s</text>
  <line x1="418.0" y1="118.2" x2="880.0" y2="118.2" stroke="#e5e7eb" stroke-width="1"/>
  <text x="888.0" y="118.2" text-anchor="start" dominant-baseline="middle" fill="#374151" font-size="8.5">5 GB/s</text>
  <line x1="418.0" y1="77.9" x2="880.0" y2="77.9" stroke="#e5e7eb" stroke-width="1"/>
  <text x="888.0" y="77.9" text-anchor="start" dominant-baseline="middle" fill="#374151" font-size="8.5">6 GB/s</text>
  <line x1="880.0" y1="60.0" x2="880.0" y2="320.0" stroke="#9ca3af" stroke-width="1.5"/>
  <line x1="418.0" y1="60.0" x2="418.0" y2="320.0" stroke="#e5e7eb" stroke-width="1"/>
  <line x1="484.0" y1="60.0" x2="484.0" y2="320.0" stroke="#e5e7eb" stroke-width="1"/>
  <line x1="550.0" y1="60.0" x2="550.0" y2="320.0" stroke="#e5e7eb" stroke-width="1"/>
  <line x1="616.0" y1="60.0" x2="616.0" y2="320.0" stroke="#e5e7eb" stroke-width="1"/>
  <line x1="682.0" y1="60.0" x2="682.0" y2="320.0" stroke="#e5e7eb" stroke-width="1"/>
  <line x1="748.0" y1="60.0" x2="748.0" y2="320.0" stroke="#e5e7eb" stroke-width="1"/>
  <line x1="814.0" y1="60.0" x2="814.0" y2="320.0" stroke="#e5e7eb" stroke-width="1"/>
  <line x1="880.0" y1="60.0" x2="880.0" y2="320.0" stroke="#e5e7eb" stroke-width="1"/>
  <line x1="418.0" y1="60.0" x2="418.0" y2="320.0" stroke="#9ca3af" stroke-width="1.5"/>
  <line x1="418.0" y1="320.0" x2="880.0" y2="320.0" stroke="#9ca3af" stroke-width="1.5"/>
  <polyline points="418.0,297.9 484.0,279.4 550.0,252.6 616.0,215.8 682.0,183.0 748.0,180.1 814.0,160.8 880.0,181.6" fill="none" stroke="#16a34a" stroke-width="2.5" stroke-linecap="round" stroke-linejoin="round"/>
  <circle cx="418.0" cy="297.9" r="3" fill="#16a34a" stroke="white" stroke-width="1"/>
  <circle cx="484.0" cy="279.4" r="3" fill="#16a34a" stroke="white" stroke-width="1"/>
  <circle cx="550.0" cy="252.6" r="3" fill="#16a34a" stroke="white" stroke-width="1"/>
  <circle cx="616.0" cy="215.8" r="3" fill="#16a34a" stroke="white" stroke-width="1"/>
  <circle cx="682.0" cy="183.0" r="3" fill="#16a34a" stroke="white" stroke-width="1"/>
  <circle cx="748.0" cy="180.1" r="3" fill="#16a34a" stroke="white" stroke-width="1"/>
  <circle cx="814.0" cy="160.8" r="3" fill="#16a34a" stroke="white" stroke-width="1"/>
  <circle cx="880.0" cy="181.6" r="3" fill="#16a34a" stroke="white" stroke-width="1"/>
  <polyline points="418.0,317.4 484.0,315.2 550.0,310.5 616.0,302.5 682.0,287.8 748.0,264.1 814.0,192.0 880.0,188.0" fill="none" stroke="#2563eb" stroke-width="2.5" stroke-linecap="round" stroke-linejoin="round"/>
  <circle cx="418.0" cy="317.4" r="3" fill="#2563eb" stroke="white" stroke-width="1"/>
  <circle cx="484.0" cy="315.2" r="3" fill="#2563eb" stroke="white" stroke-width="1"/>
  <circle cx="550.0" cy="310.5" r="3" fill="#2563eb" stroke="white" stroke-width="1"/>
  <circle cx="616.0" cy="302.5" r="3" fill="#2563eb" stroke="white" stroke-width="1"/>
  <circle cx="682.0" cy="287.8" r="3" fill="#2563eb" stroke="white" stroke-width="1"/>
  <circle cx="748.0" cy="264.1" r="3" fill="#2563eb" stroke="white" stroke-width="1"/>
  <circle cx="814.0" cy="192.0" r="3" fill="#2563eb" stroke="white" stroke-width="1"/>
  <circle cx="880.0" cy="188.0" r="3" fill="#2563eb" stroke="white" stroke-width="1"/>
  <polyline points="418.0,299.1 484.0,289.2 550.0,282.9 616.0,277.2 682.0,268.7 748.0,271.7 814.0,272.9 880.0,241.7" fill="none" stroke="#eab308" stroke-width="2.5" stroke-linecap="round" stroke-linejoin="round"/>
  <circle cx="418.0" cy="299.1" r="3" fill="#eab308" stroke="white" stroke-width="1"/>
  <circle cx="484.0" cy="289.2" r="3" fill="#eab308" stroke="white" stroke-width="1"/>
  <circle cx="550.0" cy="282.9" r="3" fill="#eab308" stroke="white" stroke-width="1"/>
  <circle cx="616.0" cy="277.2" r="3" fill="#eab308" stroke="white" stroke-width="1"/>
  <circle cx="682.0" cy="268.7" r="3" fill="#eab308" stroke="white" stroke-width="1"/>
  <circle cx="748.0" cy="271.7" r="3" fill="#eab308" stroke="white" stroke-width="1"/>
  <circle cx="814.0" cy="272.9" r="3" fill="#eab308" stroke="white" stroke-width="1"/>
  <circle cx="880.0" cy="241.7" r="3" fill="#eab308" stroke="white" stroke-width="1"/>
  <polyline points="418.0,274.7 484.0,235.1 550.0,177.9 616.0,135.0 682.0,118.9 748.0,100.8 814.0,98.0 880.0,93.9" fill="none" stroke="#dc2626" stroke-width="2.5" stroke-linecap="round" stroke-linejoin="round"/>
  <circle cx="418.0" cy="274.7" r="3" fill="#dc2626" stroke="white" stroke-width="1"/>
  <circle cx="484.0" cy="235.1" r="3" fill="#dc2626" stroke="white" stroke-width="1"/>
  <circle cx="550.0" cy="177.9" r="3" fill="#dc2626" stroke="white" stroke-width="1"/>
  <circle cx="616.0" cy="135.0" r="3" fill="#dc2626" stroke="white" stroke-width="1"/>
  <circle cx="682.0" cy="118.9" r="3" fill="#dc2626" stroke="white" stroke-width="1"/>
  <circle cx="748.0" cy="100.8" r="3" fill="#dc2626" stroke="white" stroke-width="1"/>
  <circle cx="814.0" cy="98.0" r="3" fill="#dc2626" stroke="white" stroke-width="1"/>
  <circle cx="880.0" cy="93.9" r="3" fill="#dc2626" stroke="white" stroke-width="1"/>
  <polyline points="418.0,284.9 484.0,261.5 550.0,232.7 616.0,202.5 682.0,178.0 748.0,165.2 814.0,163.9 880.0,162.3" fill="none" stroke="#f97316" stroke-width="2.5" stroke-linecap="round" stroke-linejoin="round"/>
  <circle cx="418.0" cy="284.9" r="3" fill="#f97316" stroke="white" stroke-width="1"/>
  <circle cx="484.0" cy="261.5" r="3" fill="#f97316" stroke="white" stroke-width="1"/>
  <circle cx="550.0" cy="232.7" r="3" fill="#f97316" stroke="white" stroke-width="1"/>
  <circle cx="616.0" cy="202.5" r="3" fill="#f97316" stroke="white" stroke-width="1"/>
  <circle cx="682.0" cy="178.0" r="3" fill="#f97316" stroke="white" stroke-width="1"/>
  <circle cx="748.0" cy="165.2" r="3" fill="#f97316" stroke="white" stroke-width="1"/>
  <circle cx="814.0" cy="163.9" r="3" fill="#f97316" stroke="white" stroke-width="1"/>
  <circle cx="880.0" cy="162.3" r="3" fill="#f97316" stroke="white" stroke-width="1"/>
  <text x="418.0" y="333.0" text-anchor="middle" fill="#374151" font-size="8">256 B</text>
  <text x="484.0" y="333.0" text-anchor="middle" fill="#374151" font-size="8">512 B</text>
  <text x="550.0" y="333.0" text-anchor="middle" fill="#374151" font-size="8">1 KiB</text>
  <text x="616.0" y="333.0" text-anchor="middle" fill="#374151" font-size="8">2 KiB</text>
  <text x="682.0" y="333.0" text-anchor="middle" fill="#374151" font-size="8">4 KiB</text>
  <text x="748.0" y="333.0" text-anchor="middle" fill="#374151" font-size="8">8 KiB</text>
  <text x="814.0" y="333.0" text-anchor="middle" fill="#374151" font-size="8">16 KiB</text>
  <text x="880.0" y="333.0" text-anchor="middle" fill="#374151" font-size="8">32 KiB</text>
  <line x1="190" y1="350" x2="204" y2="350" stroke="#eab308" stroke-width="2.5" stroke-linecap="round"/>
  <circle cx="197" cy="350" r="2.5" fill="#eab308"/>
  <text x="210" y="354" fill="#374151" font-size="10" font-weight="500">libzmq v4.3.5</text>
  <line x1="380" y1="350" x2="394" y2="350" stroke="#f97316" stroke-width="2.5" stroke-linecap="round"/>
  <circle cx="387" cy="350" r="2.5" fill="#f97316"/>
  <text x="400" y="354" fill="#374151" font-size="10" font-weight="500">omq-tokio (ST)</text>
  <line x1="570" y1="350" x2="584" y2="350" stroke="#dc2626" stroke-width="2.5" stroke-linecap="round"/>
  <circle cx="577" cy="350" r="2.5" fill="#dc2626"/>
  <text x="590" y="354" fill="#374151" font-size="10" font-weight="500">omq-tokio (MT)</text>
  <line x1="285" y1="370" x2="299" y2="370" stroke="#2563eb" stroke-width="2.5" stroke-linecap="round"/>
  <circle cx="292" cy="370" r="2.5" fill="#2563eb"/>
  <text x="305" y="374" fill="#374151" font-size="10" font-weight="500">zmq.rs v0.6.0 (MT)</text>
  <line x1="475" y1="370" x2="489" y2="370" stroke="#16a34a" stroke-width="2.5" stroke-linecap="round"/>
  <circle cx="482" cy="370" r="2.5" fill="#16a34a"/>
  <text x="495" y="374" fill="#374151" font-size="10" font-weight="500">rzmq v0.5.22 (MT)</text>
  <text x="475.0" y="388.0" text-anchor="middle" fill="#9ca3af" font-size="9">ST = single-threaded   MT = multi-threaded</text>
</svg>
