<svg xmlns="http://www.w3.org/2000/svg" viewBox="0 0 950 410" font-family="system-ui, -apple-system, sans-serif">
  <rect width="950" height="410" fill="white"/>
  <text x="475.0" y="16.0" text-anchor="middle" fill="#111827" font-size="14" font-weight="700">PUSH/PULL throughput, TCP loopback, 2-process</text>
  <text x="475.0" y="30.0" text-anchor="middle" fill="#9ca3af" font-size="9">Linux VM on a 2018 Mac Mini, Intel Core i7-8700B @ 3.20GHz, 6 cores, performance governor, turbo off</text>
  <text x="224.0" y="48.0" text-anchor="middle" fill="#111827" font-size="12" font-weight="700">small messages (higher is better)</text>
  <line x1="70.0" y1="256.6" x2="378.0" y2="256.6" stroke="#e5e7eb" stroke-width="1" stroke-dasharray="4,3"/>
  <text x="62.0" y="256.6" text-anchor="end" dominant-baseline="middle" fill="#374151" font-size="8.5">2 M msg/s</text>
  <line x1="70.0" y1="193.3" x2="378.0" y2="193.3" stroke="#e5e7eb" stroke-width="1" stroke-dasharray="4,3"/>
  <text x="62.0" y="193.3" text-anchor="end" dominant-baseline="middle" fill="#374151" font-size="8.5">4 M msg/s</text>
  <line x1="70.0" y1="129.9" x2="378.0" y2="129.9" stroke="#e5e7eb" stroke-width="1" stroke-dasharray="4,3"/>
  <text x="62.0" y="129.9" text-anchor="end" dominant-baseline="middle" fill="#374151" font-size="8.5">6 M msg/s</text>
  <line x1="70.0" y1="66.5" x2="378.0" y2="66.5" stroke="#e5e7eb" stroke-width="1" stroke-dasharray="4,3"/>
  <text x="62.0" y="66.5" text-anchor="end" dominant-baseline="middle" fill="#374151" font-size="8.5">8 M msg/s</text>
  <line x1="378.0" y1="60.0" x2="378.0" y2="320.0" stroke="#9ca3af" stroke-width="1.5"/>
  <line x1="70.0" y1="60.0" x2="70.0" y2="320.0" stroke="#e5e7eb" stroke-width="1"/>
  <line x1="131.6" y1="60.0" x2="131.6" y2="320.0" stroke="#e5e7eb" stroke-width="1"/>
  <line x1="193.2" y1="60.0" x2="193.2" y2="320.0" stroke="#e5e7eb" stroke-width="1"/>
  <line x1="254.8" y1="60.0" x2="254.8" y2="320.0" stroke="#e5e7eb" stroke-width="1"/>
  <line x1="316.4" y1="60.0" x2="316.4" y2="320.0" stroke="#e5e7eb" stroke-width="1"/>
  <line x1="378.0" y1="60.0" x2="378.0" y2="320.0" stroke="#e5e7eb" stroke-width="1"/>
  <line x1="70.0" y1="60.0" x2="70.0" y2="320.0" stroke="#9ca3af" stroke-width="1.5"/>
  <line x1="70.0" y1="320.0" x2="378.0" y2="320.0" stroke="#9ca3af" stroke-width="1.5"/>
  <polyline points="70.0,221.5 131.6,223.4 193.2,223.2 254.8,230.3 316.4,240.8 378.0,247.2" fill="none" stroke="#15803d" stroke-width="2.5" stroke-dasharray="6,3"/>
  <circle cx="70.0" cy="221.5" r="3" fill="#15803d" stroke="white" stroke-width="1"/>
  <circle cx="131.6" cy="223.4" r="3" fill="#15803d" stroke="white" stroke-width="1"/>
  <circle cx="193.2" cy="223.2" r="3" fill="#15803d" stroke="white" stroke-width="1"/>
  <circle cx="254.8" cy="230.3" r="3" fill="#15803d" stroke="white" stroke-width="1"/>
  <circle cx="316.4" cy="240.8" r="3" fill="#15803d" stroke="white" stroke-width="1"/>
  <circle cx="378.0" cy="247.2" r="3" fill="#15803d" stroke="white" stroke-width="1"/>
  <polyline points="70.0,283.0 131.6,268.1 193.2,254.6 254.8,242.8 316.4,245.2 378.0,258.2" fill="none" stroke="#16a34a" stroke-width="2.5" stroke-dasharray="6,3"/>
  <circle cx="70.0" cy="283.0" r="3" fill="#16a34a" stroke="white" stroke-width="1"/>
  <circle cx="131.6" cy="268.1" r="3" fill="#16a34a" stroke="white" stroke-width="1"/>
  <circle cx="193.2" cy="254.6" r="3" fill="#16a34a" stroke="white" stroke-width="1"/>
  <circle cx="254.8" cy="242.8" r="3" fill="#16a34a" stroke="white" stroke-width="1"/>
  <circle cx="316.4" cy="245.2" r="3" fill="#16a34a" stroke="white" stroke-width="1"/>
  <circle cx="378.0" cy="258.2" r="3" fill="#16a34a" stroke="white" stroke-width="1"/>
  <polyline points="70.0,309.3 131.6,310.6 193.2,311.5 254.8,312.0 316.4,312.2 378.0,312.9" fill="none" stroke="#2563eb" stroke-width="2.5" stroke-dasharray="6,3"/>
  <circle cx="70.0" cy="309.3" r="3" fill="#2563eb" stroke="white" stroke-width="1"/>
  <circle cx="131.6" cy="310.6" r="3" fill="#2563eb" stroke="white" stroke-width="1"/>
  <circle cx="193.2" cy="311.5" r="3" fill="#2563eb" stroke="white" stroke-width="1"/>
  <circle cx="254.8" cy="312.0" r="3" fill="#2563eb" stroke="white" stroke-width="1"/>
  <circle cx="316.4" cy="312.2" r="3" fill="#2563eb" stroke="white" stroke-width="1"/>
  <circle cx="378.0" cy="312.9" r="3" fill="#2563eb" stroke="white" stroke-width="1"/>
  <polyline points="70.0,93.9 131.6,109.7 193.2,176.0 254.8,249.2 316.4,255.7 378.0,291.8" fill="none" stroke="#eab308" stroke-width="2.5" stroke-dasharray="6,3"/>
  <circle cx="70.0" cy="93.9" r="3" fill="#eab308" stroke="white" stroke-width="1"/>
  <circle cx="131.6" cy="109.7" r="3" fill="#eab308" stroke="white" stroke-width="1"/>
  <circle cx="193.2" cy="176.0" r="3" fill="#eab308" stroke="white" stroke-width="1"/>
  <circle cx="254.8" cy="249.2" r="3" fill="#eab308" stroke="white" stroke-width="1"/>
  <circle cx="316.4" cy="255.7" r="3" fill="#eab308" stroke="white" stroke-width="1"/>
  <circle cx="378.0" cy="291.8" r="3" fill="#eab308" stroke="white" stroke-width="1"/>
  <polyline points="70.0,100.9 131.6,107.0 193.2,180.5 254.8,248.3 316.4,253.9 378.0,292.2" fill="none" stroke="#a16207" stroke-width="2.5" stroke-dasharray="6,3"/>
  <circle cx="70.0" cy="100.9" r="3" fill="#a16207" stroke="white" stroke-width="1"/>
  <circle cx="131.6" cy="107.0" r="3" fill="#a16207" stroke="white" stroke-width="1"/>
  <circle cx="193.2" cy="180.5" r="3" fill="#a16207" stroke="white" stroke-width="1"/>
  <circle cx="254.8" cy="248.3" r="3" fill="#a16207" stroke="white" stroke-width="1"/>
  <circle cx="316.4" cy="253.9" r="3" fill="#a16207" stroke="white" stroke-width="1"/>
  <circle cx="378.0" cy="292.2" r="3" fill="#a16207" stroke="white" stroke-width="1"/>
  <polyline points="70.0,114.6 131.6,116.1 193.2,118.8 254.8,138.3 316.4,166.8 378.0,212.3" fill="none" stroke="#dc2626" stroke-width="2.5" stroke-dasharray="6,3"/>
  <circle cx="70.0" cy="114.6" r="3" fill="#dc2626" stroke="white" stroke-width="1"/>
  <circle cx="131.6" cy="116.1" r="3" fill="#dc2626" stroke="white" stroke-width="1"/>
  <circle cx="193.2" cy="118.8" r="3" fill="#dc2626" stroke="white" stroke-width="1"/>
  <circle cx="254.8" cy="138.3" r="3" fill="#dc2626" stroke="white" stroke-width="1"/>
  <circle cx="316.4" cy="166.8" r="3" fill="#dc2626" stroke="white" stroke-width="1"/>
  <circle cx="378.0" cy="212.3" r="3" fill="#dc2626" stroke="white" stroke-width="1"/>
  <polyline points="70.0,107.1 131.6,110.0 193.2,122.3 254.8,143.3 316.4,186.6 378.0,234.2" fill="none" stroke="#f97316" stroke-width="2.5" stroke-dasharray="6,3"/>
  <circle cx="70.0" cy="107.1" r="3" fill="#f97316" stroke="white" stroke-width="1"/>
  <circle cx="131.6" cy="110.0" r="3" fill="#f97316" stroke="white" stroke-width="1"/>
  <circle cx="193.2" cy="122.3" r="3" fill="#f97316" stroke="white" stroke-width="1"/>
  <circle cx="254.8" cy="143.3" r="3" fill="#f97316" stroke="white" stroke-width="1"/>
  <circle cx="316.4" cy="186.6" r="3" fill="#f97316" stroke="white" stroke-width="1"/>
  <circle cx="378.0" cy="234.2" r="3" fill="#f97316" stroke="white" stroke-width="1"/>
  <text x="70.0" y="333.0" text-anchor="middle" fill="#374151" font-size="8">16 B</text>
  <text x="131.6" y="333.0" text-anchor="middle" fill="#374151" font-size="8">32 B</text>
  <text x="193.2" y="333.0" text-anchor="middle" fill="#374151" font-size="8">64 B</text>
  <text x="254.8" y="333.0" text-anchor="middle" fill="#374151" font-size="8">128 B</text>
  <text x="316.4" y="333.0" text-anchor="middle" fill="#374151" font-size="8">256 B</text>
  <text x="378.0" y="333.0" text-anchor="middle" fill="#374151" font-size="8">1 KiB</text>
  <text x="649.0" y="48.0" text-anchor="middle" fill="#111827" font-size="12" font-weight="700">medium/large messages (higher is better)</text>
  <line x1="418.0" y1="281.0" x2="880.0" y2="281.0" stroke="#e5e7eb" stroke-width="1"/>
  <text x="888.0" y="281.0" text-anchor="start" dominant-baseline="middle" fill="#374151" font-size="8.5">1 GB/s</text>
  <line x1="418.0" y1="242.1" x2="880.0" y2="242.1" stroke="#e5e7eb" stroke-width="1"/>
  <text x="888.0" y="242.1" text-anchor="start" dominant-baseline="middle" fill="#374151" font-size="8.5">2 GB/s</text>
  <line x1="418.0" y1="203.1" x2="880.0" y2="203.1" stroke="#e5e7eb" stroke-width="1"/>
  <text x="888.0" y="203.1" text-anchor="start" dominant-baseline="middle" fill="#374151" font-size="8.5">3 GB/s</text>
  <line x1="418.0" y1="164.1" x2="880.0" y2="164.1" stroke="#e5e7eb" stroke-width="1"/>
  <text x="888.0" y="164.1" text-anchor="start" dominant-baseline="middle" fill="#374151" font-size="8.5">4 GB/s</text>
  <line x1="418.0" y1="125.2" x2="880.0" y2="125.2" stroke="#e5e7eb" stroke-width="1"/>
  <text x="888.0" y="125.2" text-anchor="start" dominant-baseline="middle" fill="#374151" font-size="8.5">5 GB/s</text>
  <line x1="418.0" y1="86.2" x2="880.0" y2="86.2" stroke="#e5e7eb" stroke-width="1"/>
  <text x="888.0" y="86.2" text-anchor="start" dominant-baseline="middle" fill="#374151" font-size="8.5">6 GB/s</text>
  <line x1="880.0" y1="60.0" x2="880.0" y2="320.0" stroke="#9ca3af" stroke-width="1.5"/>
  <line x1="418.0" y1="60.0" x2="418.0" y2="320.0" stroke="#e5e7eb" stroke-width="1"/>
  <line x1="469.3" y1="60.0" x2="469.3" y2="320.0" stroke="#e5e7eb" stroke-width="1"/>
  <line x1="520.7" y1="60.0" x2="520.7" y2="320.0" stroke="#e5e7eb" stroke-width="1"/>
  <line x1="572.0" y1="60.0" x2="572.0" y2="320.0" stroke="#e5e7eb" stroke-width="1"/>
  <line x1="623.3" y1="60.0" x2="623.3" y2="320.0" stroke="#e5e7eb" stroke-width="1"/>
  <line x1="674.7" y1="60.0" x2="674.7" y2="320.0" stroke="#e5e7eb" stroke-width="1"/>
  <line x1="726.0" y1="60.0" x2="726.0" y2="320.0" stroke="#e5e7eb" stroke-width="1"/>
  <line x1="777.3" y1="60.0" x2="777.3" y2="320.0" stroke="#e5e7eb" stroke-width="1"/>
  <line x1="828.7" y1="60.0" x2="828.7" y2="320.0" stroke="#e5e7eb" stroke-width="1"/>
  <line x1="880.0" y1="60.0" x2="880.0" y2="320.0" stroke="#e5e7eb" stroke-width="1"/>
  <line x1="418.0" y1="60.0" x2="418.0" y2="320.0" stroke="#9ca3af" stroke-width="1.5"/>
  <line x1="418.0" y1="320.0" x2="880.0" y2="320.0" stroke="#9ca3af" stroke-width="1.5"/>
  <polyline points="418.0,295.1 469.3,272.7 520.7,228.4 572.0,194.1 623.3,173.8 674.7,184.4 726.0,128.7 777.3,128.4 828.7,154.3 880.0,164.1" fill="none" stroke="#15803d" stroke-width="2.5" stroke-linecap="round" stroke-linejoin="round"/>
  <circle cx="418.0" cy="295.1" r="3" fill="#15803d" stroke="white" stroke-width="1"/>
  <circle cx="469.3" cy="272.7" r="3" fill="#15803d" stroke="white" stroke-width="1"/>
  <circle cx="520.7" cy="228.4" r="3" fill="#15803d" stroke="white" stroke-width="1"/>
  <circle cx="572.0" cy="194.1" r="3" fill="#15803d" stroke="white" stroke-width="1"/>
  <circle cx="623.3" cy="173.8" r="3" fill="#15803d" stroke="white" stroke-width="1"/>
  <circle cx="674.7" cy="184.4" r="3" fill="#15803d" stroke="white" stroke-width="1"/>
  <circle cx="726.0" cy="128.7" r="3" fill="#15803d" stroke="white" stroke-width="1"/>
  <circle cx="777.3" cy="128.4" r="3" fill="#15803d" stroke="white" stroke-width="1"/>
  <circle cx="828.7" cy="154.3" r="3" fill="#15803d" stroke="white" stroke-width="1"/>
  <circle cx="880.0" cy="164.1" r="3" fill="#15803d" stroke="white" stroke-width="1"/>
  <polyline points="418.0,296.5 469.3,277.5 520.7,242.1 572.0,214.7 623.3,210.0 674.7,183.9 726.0,194.4 777.3,185.9 828.7,216.2 880.0,209.1" fill="none" stroke="#16a34a" stroke-width="2.5" stroke-linecap="round" stroke-linejoin="round"/>
  <circle cx="418.0" cy="296.5" r="3" fill="#16a34a" stroke="white" stroke-width="1"/>
  <circle cx="469.3" cy="277.5" r="3" fill="#16a34a" stroke="white" stroke-width="1"/>
  <circle cx="520.7" cy="242.1" r="3" fill="#16a34a" stroke="white" stroke-width="1"/>
  <circle cx="572.0" cy="214.7" r="3" fill="#16a34a" stroke="white" stroke-width="1"/>
  <circle cx="623.3" cy="210.0" r="3" fill="#16a34a" stroke="white" stroke-width="1"/>
  <circle cx="674.7" cy="183.9" r="3" fill="#16a34a" stroke="white" stroke-width="1"/>
  <circle cx="726.0" cy="194.4" r="3" fill="#16a34a" stroke="white" stroke-width="1"/>
  <circle cx="777.3" cy="185.9" r="3" fill="#16a34a" stroke="white" stroke-width="1"/>
  <circle cx="828.7" cy="216.2" r="3" fill="#16a34a" stroke="white" stroke-width="1"/>
  <circle cx="880.0" cy="209.1" r="3" fill="#16a34a" stroke="white" stroke-width="1"/>
  <polyline points="418.0,317.5 469.3,315.4 520.7,311.1 572.0,302.9 623.3,289.1 674.7,266.7 726.0,215.3 777.3,194.5 828.7,199.6 880.0,236.5" fill="none" stroke="#2563eb" stroke-width="2.5" stroke-linecap="round" stroke-linejoin="round"/>
  <circle cx="418.0" cy="317.5" r="3" fill="#2563eb" stroke="white" stroke-width="1"/>
  <circle cx="469.3" cy="315.4" r="3" fill="#2563eb" stroke="white" stroke-width="1"/>
  <circle cx="520.7" cy="311.1" r="3" fill="#2563eb" stroke="white" stroke-width="1"/>
  <circle cx="572.0" cy="302.9" r="3" fill="#2563eb" stroke="white" stroke-width="1"/>
  <circle cx="623.3" cy="289.1" r="3" fill="#2563eb" stroke="white" stroke-width="1"/>
  <circle cx="674.7" cy="266.7" r="3" fill="#2563eb" stroke="white" stroke-width="1"/>
  <circle cx="726.0" cy="215.3" r="3" fill="#2563eb" stroke="white" stroke-width="1"/>
  <circle cx="777.3" cy="194.5" r="3" fill="#2563eb" stroke="white" stroke-width="1"/>
  <circle cx="828.7" cy="199.6" r="3" fill="#2563eb" stroke="white" stroke-width="1"/>
  <circle cx="880.0" cy="236.5" r="3" fill="#2563eb" stroke="white" stroke-width="1"/>
  <polyline points="418.0,299.7 469.3,291.2 520.7,284.5 572.0,280.3 623.3,276.4 674.7,278.7 726.0,274.9 777.3,246.3 828.7,171.3 880.0,169.1" fill="none" stroke="#eab308" stroke-width="2.5" stroke-linecap="round" stroke-linejoin="round"/>
  <circle cx="418.0" cy="299.7" r="3" fill="#eab308" stroke="white" stroke-width="1"/>
  <circle cx="469.3" cy="291.2" r="3" fill="#eab308" stroke="white" stroke-width="1"/>
  <circle cx="520.7" cy="284.5" r="3" fill="#eab308" stroke="white" stroke-width="1"/>
  <circle cx="572.0" cy="280.3" r="3" fill="#eab308" stroke="white" stroke-width="1"/>
  <circle cx="623.3" cy="276.4" r="3" fill="#eab308" stroke="white" stroke-width="1"/>
  <circle cx="674.7" cy="278.7" r="3" fill="#eab308" stroke="white" stroke-width="1"/>
  <circle cx="726.0" cy="274.9" r="3" fill="#eab308" stroke="white" stroke-width="1"/>
  <circle cx="777.3" cy="246.3" r="3" fill="#eab308" stroke="white" stroke-width="1"/>
  <circle cx="828.7" cy="171.3" r="3" fill="#eab308" stroke="white" stroke-width="1"/>
  <circle cx="880.0" cy="169.1" r="3" fill="#eab308" stroke="white" stroke-width="1"/>
  <polyline points="418.0,299.2 469.3,290.7 520.7,284.9 572.0,279.6 623.3,277.2 674.7,275.1 726.0,276.0 777.3,247.0 828.7,166.2 880.0,151.9" fill="none" stroke="#a16207" stroke-width="2.5" stroke-linecap="round" stroke-linejoin="round"/>
  <circle cx="418.0" cy="299.2" r="3" fill="#a16207" stroke="white" stroke-width="1"/>
  <circle cx="469.3" cy="290.7" r="3" fill="#a16207" stroke="white" stroke-width="1"/>
  <circle cx="520.7" cy="284.9" r="3" fill="#a16207" stroke="white" stroke-width="1"/>
  <circle cx="572.0" cy="279.6" r="3" fill="#a16207" stroke="white" stroke-width="1"/>
  <circle cx="623.3" cy="277.2" r="3" fill="#a16207" stroke="white" stroke-width="1"/>
  <circle cx="674.7" cy="275.1" r="3" fill="#a16207" stroke="white" stroke-width="1"/>
  <circle cx="726.0" cy="276.0" r="3" fill="#a16207" stroke="white" stroke-width="1"/>
  <circle cx="777.3" cy="247.0" r="3" fill="#a16207" stroke="white" stroke-width="1"/>
  <circle cx="828.7" cy="166.2" r="3" fill="#a16207" stroke="white" stroke-width="1"/>
  <circle cx="880.0" cy="151.9" r="3" fill="#a16207" stroke="white" stroke-width="1"/>
  <polyline points="418.0,271.7 469.3,250.6 520.7,184.3 572.0,160.0 623.3,128.4 674.7,94.7 726.0,114.7 777.3,110.3 828.7,141.4 880.0,151.8" fill="none" stroke="#dc2626" stroke-width="2.5" stroke-linecap="round" stroke-linejoin="round"/>
  <circle cx="418.0" cy="271.7" r="3" fill="#dc2626" stroke="white" stroke-width="1"/>
  <circle cx="469.3" cy="250.6" r="3" fill="#dc2626" stroke="white" stroke-width="1"/>
  <circle cx="520.7" cy="184.3" r="3" fill="#dc2626" stroke="white" stroke-width="1"/>
  <circle cx="572.0" cy="160.0" r="3" fill="#dc2626" stroke="white" stroke-width="1"/>
  <circle cx="623.3" cy="128.4" r="3" fill="#dc2626" stroke="white" stroke-width="1"/>
  <circle cx="674.7" cy="94.7" r="3" fill="#dc2626" stroke="white" stroke-width="1"/>
  <circle cx="726.0" cy="114.7" r="3" fill="#dc2626" stroke="white" stroke-width="1"/>
  <circle cx="777.3" cy="110.3" r="3" fill="#dc2626" stroke="white" stroke-width="1"/>
  <circle cx="828.7" cy="141.4" r="3" fill="#dc2626" stroke="white" stroke-width="1"/>
  <circle cx="880.0" cy="151.8" r="3" fill="#dc2626" stroke="white" stroke-width="1"/>
  <polyline points="418.0,278.0 469.3,247.1 520.7,211.9 572.0,184.3 623.3,147.7 674.7,160.3 726.0,113.5 777.3,93.9 828.7,110.6 880.0,136.5" fill="none" stroke="#f97316" stroke-width="2.5" stroke-linecap="round" stroke-linejoin="round"/>
  <circle cx="418.0" cy="278.0" r="3" fill="#f97316" stroke="white" stroke-width="1"/>
  <circle cx="469.3" cy="247.1" r="3" fill="#f97316" stroke="white" stroke-width="1"/>
  <circle cx="520.7" cy="211.9" r="3" fill="#f97316" stroke="white" stroke-width="1"/>
  <circle cx="572.0" cy="184.3" r="3" fill="#f97316" stroke="white" stroke-width="1"/>
  <circle cx="623.3" cy="147.7" r="3" fill="#f97316" stroke="white" stroke-width="1"/>
  <circle cx="674.7" cy="160.3" r="3" fill="#f97316" stroke="white" stroke-width="1"/>
  <circle cx="726.0" cy="113.5" r="3" fill="#f97316" stroke="white" stroke-width="1"/>
  <circle cx="777.3" cy="93.9" r="3" fill="#f97316" stroke="white" stroke-width="1"/>
  <circle cx="828.7" cy="110.6" r="3" fill="#f97316" stroke="white" stroke-width="1"/>
  <circle cx="880.0" cy="136.5" r="3" fill="#f97316" stroke="white" stroke-width="1"/>
  <text x="418.0" y="333.0" text-anchor="middle" fill="#374151" font-size="8">256 B</text>
  <text x="469.3" y="333.0" text-anchor="middle" fill="#374151" font-size="8">512 B</text>
  <text x="520.7" y="333.0" text-anchor="middle" fill="#374151" font-size="8">1 KiB</text>
  <text x="572.0" y="333.0" text-anchor="middle" fill="#374151" font-size="8">2 KiB</text>
  <text x="623.3" y="333.0" text-anchor="middle" fill="#374151" font-size="8">4 KiB</text>
  <text x="674.7" y="333.0" text-anchor="middle" fill="#374151" font-size="8">8 KiB</text>
  <text x="726.0" y="333.0" text-anchor="middle" fill="#374151" font-size="8">16 KiB</text>
  <text x="777.3" y="333.0" text-anchor="middle" fill="#374151" font-size="8">32 KiB</text>
  <text x="828.7" y="333.0" text-anchor="middle" fill="#374151" font-size="8">256 KiB</text>
  <text x="880.0" y="333.0" text-anchor="middle" fill="#374151" font-size="8">4 MiB</text>
  <line x1="95" y1="350" x2="109" y2="350" stroke="#eab308" stroke-width="2.5" stroke-linecap="round"/>
  <circle cx="102" cy="350" r="2.5" fill="#eab308"/>
  <text x="115" y="354" fill="#374151" font-size="10" font-weight="500">libzmq v4.3.5 [1T]</text>
  <line x1="285" y1="350" x2="299" y2="350" stroke="#a16207" stroke-width="2.5" stroke-linecap="round"/>
  <circle cx="292" cy="350" r="2.5" fill="#a16207"/>
  <text x="305" y="354" fill="#374151" font-size="10" font-weight="500">libzmq v4.3.5 (4T)</text>
  <line x1="475" y1="350" x2="489" y2="350" stroke="#f97316" stroke-width="2.5" stroke-linecap="round"/>
  <circle cx="482" cy="350" r="2.5" fill="#f97316"/>
  <text x="495" y="354" fill="#374151" font-size="10" font-weight="500">omq-tokio (1T)</text>
  <line x1="665" y1="350" x2="679" y2="350" stroke="#dc2626" stroke-width="2.5" stroke-linecap="round"/>
  <circle cx="672" cy="350" r="2.5" fill="#dc2626"/>
  <text x="685" y="354" fill="#374151" font-size="10" font-weight="500">omq-tokio (4T)</text>
  <line x1="190" y1="370" x2="204" y2="370" stroke="#2563eb" stroke-width="2.5" stroke-linecap="round"/>
  <circle cx="197" cy="370" r="2.5" fill="#2563eb"/>
  <text x="210" y="374" fill="#374151" font-size="10" font-weight="500">zmq.rs v0.6.0 [6T]</text>
  <line x1="380" y1="370" x2="394" y2="370" stroke="#16a34a" stroke-width="2.5" stroke-linecap="round"/>
  <circle cx="387" cy="370" r="2.5" fill="#16a34a"/>
  <text x="400" y="374" fill="#374151" font-size="10" font-weight="500">rzmq v0.5.24 [6T]</text>
  <line x1="570" y1="370" x2="584" y2="370" stroke="#15803d" stroke-width="2.5" stroke-linecap="round"/>
  <circle cx="577" cy="370" r="2.5" fill="#15803d"/>
  <text x="590" y="374" fill="#374151" font-size="10" font-weight="500">rzmq v0.5.24 (io_uring) [6T]</text>
  <text x="475.0" y="388.0" text-anchor="middle" fill="#9ca3af" font-size="9">(nT) = user-chosen   ·   [nT] = fixed by implementation</text>
</svg>
