<svg xmlns="http://www.w3.org/2000/svg" viewBox="0 0 950 390" font-family="system-ui, -apple-system, sans-serif">
  <rect width="950" height="390" fill="white"/>
  <text x="475.0" y="16.0" text-anchor="middle" fill="#111827" font-size="14" font-weight="700">PUSH/PULL throughput, TCP loopback, 2-process</text>
  <text x="475.0" y="30.0" text-anchor="middle" fill="#9ca3af" font-size="9">Linux VM on a 2018 Mac Mini, Intel Core i7-8700B @ 3.20GHz, 6 cores, performance governor, turbo off</text>
  <text x="224.0" y="48.0" text-anchor="middle" fill="#111827" font-size="12" font-weight="700">small messages (higher is better)</text>
  <line x1="70.0" y1="252.6" x2="378.0" y2="252.6" stroke="#e5e7eb" stroke-width="1" stroke-dasharray="4,3"/>
  <text x="62.0" y="252.6" text-anchor="end" dominant-baseline="middle" fill="#374151" font-size="8.5">5 M msg/s</text>
  <line x1="70.0" y1="185.3" x2="378.0" y2="185.3" stroke="#e5e7eb" stroke-width="1" stroke-dasharray="4,3"/>
  <text x="62.0" y="185.3" text-anchor="end" dominant-baseline="middle" fill="#374151" font-size="8.5">10 M msg/s</text>
  <line x1="70.0" y1="117.9" x2="378.0" y2="117.9" stroke="#e5e7eb" stroke-width="1" stroke-dasharray="4,3"/>
  <text x="62.0" y="117.9" text-anchor="end" dominant-baseline="middle" fill="#374151" font-size="8.5">15 M msg/s</text>
  <line x1="378.0" y1="60.0" x2="378.0" y2="320.0" stroke="#9ca3af" stroke-width="1.5"/>
  <line x1="70.0" y1="60.0" x2="70.0" y2="320.0" stroke="#e5e7eb" stroke-width="1"/>
  <line x1="131.6" y1="60.0" x2="131.6" y2="320.0" stroke="#e5e7eb" stroke-width="1"/>
  <line x1="193.2" y1="60.0" x2="193.2" y2="320.0" stroke="#e5e7eb" stroke-width="1"/>
  <line x1="254.8" y1="60.0" x2="254.8" y2="320.0" stroke="#e5e7eb" stroke-width="1"/>
  <line x1="316.4" y1="60.0" x2="316.4" y2="320.0" stroke="#e5e7eb" stroke-width="1"/>
  <line x1="378.0" y1="60.0" x2="378.0" y2="320.0" stroke="#e5e7eb" stroke-width="1"/>
  <line x1="70.0" y1="60.0" x2="70.0" y2="320.0" stroke="#9ca3af" stroke-width="1.5"/>
  <line x1="70.0" y1="320.0" x2="378.0" y2="320.0" stroke="#9ca3af" stroke-width="1.5"/>
  <polyline points="70.0,298.6 131.6,298.4 193.2,298.4 254.8,297.6 316.4,298.4 378.0,298.6" fill="none" stroke="#16a34a" stroke-width="2.5" stroke-dasharray="6,3"/>
  <polyline points="70.0,314.5 131.6,314.8 193.2,315.7 254.8,316.2 316.4,316.5 378.0,316.6" fill="none" stroke="#2563eb" stroke-width="2.5" stroke-dasharray="6,3"/>
  <polyline points="70.0,233.5 131.6,226.0 193.2,228.0 254.8,259.7 316.4,289.6 378.0,291.8" fill="none" stroke="#eab308" stroke-width="2.5" stroke-dasharray="6,3"/>
  <polyline points="70.0,229.5 131.6,237.3 193.2,232.9 254.8,249.5 316.4,249.4 378.0,260.9" fill="none" stroke="#dc2626" stroke-width="2.5" stroke-dasharray="6,3"/>
  <polyline points="70.0,257.6 131.6,258.0 193.2,257.2 254.8,270.7 316.4,272.7 378.0,282.9" fill="none" stroke="#f97316" stroke-width="2.5" stroke-dasharray="6,3"/>
  <polyline points="70.0,93.9 131.6,107.9 193.2,153.0 254.8,203.8 316.4,239.6 378.0,264.9" fill="none" stroke="#7c3aed" stroke-width="2.5" stroke-dasharray="6,3"/>
  <text x="70.0" y="333.0" text-anchor="middle" fill="#374151" font-size="8">8 B</text>
  <text x="131.6" y="333.0" text-anchor="middle" fill="#374151" font-size="8">16 B</text>
  <text x="193.2" y="333.0" text-anchor="middle" fill="#374151" font-size="8">32 B</text>
  <text x="254.8" y="333.0" text-anchor="middle" fill="#374151" font-size="8">64 B</text>
  <text x="316.4" y="333.0" text-anchor="middle" fill="#374151" font-size="8">128 B</text>
  <text x="378.0" y="333.0" text-anchor="middle" fill="#374151" font-size="8">256 B</text>
  <text x="649.0" y="48.0" text-anchor="middle" fill="#111827" font-size="12" font-weight="700">medium/large messages (higher is better)</text>
  <line x1="418.0" y1="281.3" x2="880.0" y2="281.3" stroke="#e5e7eb" stroke-width="1"/>
  <text x="888.0" y="281.3" text-anchor="start" dominant-baseline="middle" fill="#374151" font-size="8.5">1 GB/s</text>
  <line x1="418.0" y1="242.6" x2="880.0" y2="242.6" stroke="#e5e7eb" stroke-width="1"/>
  <text x="888.0" y="242.6" text-anchor="start" dominant-baseline="middle" fill="#374151" font-size="8.5">2 GB/s</text>
  <line x1="418.0" y1="203.8" x2="880.0" y2="203.8" stroke="#e5e7eb" stroke-width="1"/>
  <text x="888.0" y="203.8" text-anchor="start" dominant-baseline="middle" fill="#374151" font-size="8.5">3 GB/s</text>
  <line x1="418.0" y1="165.1" x2="880.0" y2="165.1" stroke="#e5e7eb" stroke-width="1"/>
  <text x="888.0" y="165.1" text-anchor="start" dominant-baseline="middle" fill="#374151" font-size="8.5">4 GB/s</text>
  <line x1="418.0" y1="126.4" x2="880.0" y2="126.4" stroke="#e5e7eb" stroke-width="1"/>
  <text x="888.0" y="126.4" text-anchor="start" dominant-baseline="middle" fill="#374151" font-size="8.5">5 GB/s</text>
  <line x1="418.0" y1="87.7" x2="880.0" y2="87.7" stroke="#e5e7eb" stroke-width="1"/>
  <text x="888.0" y="87.7" text-anchor="start" dominant-baseline="middle" fill="#374151" font-size="8.5">6 GB/s</text>
  <line x1="880.0" y1="60.0" x2="880.0" y2="320.0" stroke="#9ca3af" stroke-width="1.5"/>
  <line x1="418.0" y1="60.0" x2="418.0" y2="320.0" stroke="#e5e7eb" stroke-width="1"/>
  <line x1="484.0" y1="60.0" x2="484.0" y2="320.0" stroke="#e5e7eb" stroke-width="1"/>
  <line x1="550.0" y1="60.0" x2="550.0" y2="320.0" stroke="#e5e7eb" stroke-width="1"/>
  <line x1="616.0" y1="60.0" x2="616.0" y2="320.0" stroke="#e5e7eb" stroke-width="1"/>
  <line x1="682.0" y1="60.0" x2="682.0" y2="320.0" stroke="#e5e7eb" stroke-width="1"/>
  <line x1="748.0" y1="60.0" x2="748.0" y2="320.0" stroke="#e5e7eb" stroke-width="1"/>
  <line x1="814.0" y1="60.0" x2="814.0" y2="320.0" stroke="#e5e7eb" stroke-width="1"/>
  <line x1="880.0" y1="60.0" x2="880.0" y2="320.0" stroke="#e5e7eb" stroke-width="1"/>
  <line x1="418.0" y1="60.0" x2="418.0" y2="320.0" stroke="#9ca3af" stroke-width="1.5"/>
  <line x1="418.0" y1="320.0" x2="880.0" y2="320.0" stroke="#9ca3af" stroke-width="1.5"/>
  <polyline points="418.0,304.3 484.0,289.8 550.0,265.9 616.0,237.2 682.0,207.4 748.0,190.9 814.0,211.9 880.0,170.2" fill="none" stroke="#16a34a" stroke-width="2.5" stroke-linecap="round" stroke-linejoin="round"/>
  <circle cx="418.0" cy="304.3" r="3" fill="#16a34a" stroke="white" stroke-width="1"/>
  <circle cx="484.0" cy="289.8" r="3" fill="#16a34a" stroke="white" stroke-width="1"/>
  <circle cx="550.0" cy="265.9" r="3" fill="#16a34a" stroke="white" stroke-width="1"/>
  <circle cx="616.0" cy="237.2" r="3" fill="#16a34a" stroke="white" stroke-width="1"/>
  <circle cx="682.0" cy="207.4" r="3" fill="#16a34a" stroke="white" stroke-width="1"/>
  <circle cx="748.0" cy="190.9" r="3" fill="#16a34a" stroke="white" stroke-width="1"/>
  <circle cx="814.0" cy="211.9" r="3" fill="#16a34a" stroke="white" stroke-width="1"/>
  <circle cx="880.0" cy="170.2" r="3" fill="#16a34a" stroke="white" stroke-width="1"/>
  <polyline points="418.0,317.5 484.0,315.2 550.0,310.8 616.0,303.4 682.0,288.6 748.0,265.3 814.0,198.2 880.0,193.7" fill="none" stroke="#2563eb" stroke-width="2.5" stroke-linecap="round" stroke-linejoin="round"/>
  <circle cx="418.0" cy="317.5" r="3" fill="#2563eb" stroke="white" stroke-width="1"/>
  <circle cx="484.0" cy="315.2" r="3" fill="#2563eb" stroke="white" stroke-width="1"/>
  <circle cx="550.0" cy="310.8" r="3" fill="#2563eb" stroke="white" stroke-width="1"/>
  <circle cx="616.0" cy="303.4" r="3" fill="#2563eb" stroke="white" stroke-width="1"/>
  <circle cx="682.0" cy="288.6" r="3" fill="#2563eb" stroke="white" stroke-width="1"/>
  <circle cx="748.0" cy="265.3" r="3" fill="#2563eb" stroke="white" stroke-width="1"/>
  <circle cx="814.0" cy="198.2" r="3" fill="#2563eb" stroke="white" stroke-width="1"/>
  <circle cx="880.0" cy="193.7" r="3" fill="#2563eb" stroke="white" stroke-width="1"/>
  <polyline points="418.0,299.3 484.0,291.1 550.0,284.8 616.0,279.1 682.0,269.2 748.0,274.5 814.0,274.2 880.0,245.7" fill="none" stroke="#eab308" stroke-width="2.5" stroke-linecap="round" stroke-linejoin="round"/>
  <circle cx="418.0" cy="299.3" r="3" fill="#eab308" stroke="white" stroke-width="1"/>
  <circle cx="484.0" cy="291.1" r="3" fill="#eab308" stroke="white" stroke-width="1"/>
  <circle cx="550.0" cy="284.8" r="3" fill="#eab308" stroke="white" stroke-width="1"/>
  <circle cx="616.0" cy="279.1" r="3" fill="#eab308" stroke="white" stroke-width="1"/>
  <circle cx="682.0" cy="269.2" r="3" fill="#eab308" stroke="white" stroke-width="1"/>
  <circle cx="748.0" cy="274.5" r="3" fill="#eab308" stroke="white" stroke-width="1"/>
  <circle cx="814.0" cy="274.2" r="3" fill="#eab308" stroke="white" stroke-width="1"/>
  <circle cx="880.0" cy="245.7" r="3" fill="#eab308" stroke="white" stroke-width="1"/>
  <polyline points="418.0,276.5 484.0,246.6 550.0,206.3 616.0,168.0 682.0,117.0 748.0,93.9 814.0,106.4 880.0,100.1" fill="none" stroke="#dc2626" stroke-width="2.5" stroke-linecap="round" stroke-linejoin="round"/>
  <circle cx="418.0" cy="276.5" r="3" fill="#dc2626" stroke="white" stroke-width="1"/>
  <circle cx="484.0" cy="246.6" r="3" fill="#dc2626" stroke="white" stroke-width="1"/>
  <circle cx="550.0" cy="206.3" r="3" fill="#dc2626" stroke="white" stroke-width="1"/>
  <circle cx="616.0" cy="168.0" r="3" fill="#dc2626" stroke="white" stroke-width="1"/>
  <circle cx="682.0" cy="117.0" r="3" fill="#dc2626" stroke="white" stroke-width="1"/>
  <circle cx="748.0" cy="93.9" r="3" fill="#dc2626" stroke="white" stroke-width="1"/>
  <circle cx="814.0" cy="106.4" r="3" fill="#dc2626" stroke="white" stroke-width="1"/>
  <circle cx="880.0" cy="100.1" r="3" fill="#dc2626" stroke="white" stroke-width="1"/>
  <polyline points="418.0,292.7 484.0,264.6 550.0,227.5 616.0,200.5 682.0,189.5 748.0,170.2 814.0,165.0 880.0,160.9" fill="none" stroke="#f97316" stroke-width="2.5" stroke-linecap="round" stroke-linejoin="round"/>
  <circle cx="418.0" cy="292.7" r="3" fill="#f97316" stroke="white" stroke-width="1"/>
  <circle cx="484.0" cy="264.6" r="3" fill="#f97316" stroke="white" stroke-width="1"/>
  <circle cx="550.0" cy="227.5" r="3" fill="#f97316" stroke="white" stroke-width="1"/>
  <circle cx="616.0" cy="200.5" r="3" fill="#f97316" stroke="white" stroke-width="1"/>
  <circle cx="682.0" cy="189.5" r="3" fill="#f97316" stroke="white" stroke-width="1"/>
  <circle cx="748.0" cy="170.2" r="3" fill="#f97316" stroke="white" stroke-width="1"/>
  <circle cx="814.0" cy="165.0" r="3" fill="#f97316" stroke="white" stroke-width="1"/>
  <circle cx="880.0" cy="160.9" r="3" fill="#f97316" stroke="white" stroke-width="1"/>
  <polyline points="418.0,279.4 484.0,256.8 550.0,237.2 616.0,206.6 682.0,198.9 748.0,192.5 814.0,181.6 880.0,157.3" fill="none" stroke="#7c3aed" stroke-width="2.5" stroke-linecap="round" stroke-linejoin="round"/>
  <circle cx="418.0" cy="279.4" r="3" fill="#7c3aed" stroke="white" stroke-width="1"/>
  <circle cx="484.0" cy="256.8" r="3" fill="#7c3aed" stroke="white" stroke-width="1"/>
  <circle cx="550.0" cy="237.2" r="3" fill="#7c3aed" stroke="white" stroke-width="1"/>
  <circle cx="616.0" cy="206.6" r="3" fill="#7c3aed" stroke="white" stroke-width="1"/>
  <circle cx="682.0" cy="198.9" r="3" fill="#7c3aed" stroke="white" stroke-width="1"/>
  <circle cx="748.0" cy="192.5" r="3" fill="#7c3aed" stroke="white" stroke-width="1"/>
  <circle cx="814.0" cy="181.6" r="3" fill="#7c3aed" stroke="white" stroke-width="1"/>
  <circle cx="880.0" cy="157.3" r="3" fill="#7c3aed" stroke="white" stroke-width="1"/>
  <text x="418.0" y="333.0" text-anchor="middle" fill="#374151" font-size="8">256 B</text>
  <text x="484.0" y="333.0" text-anchor="middle" fill="#374151" font-size="8">512 B</text>
  <text x="550.0" y="333.0" text-anchor="middle" fill="#374151" font-size="8">1 KiB</text>
  <text x="616.0" y="333.0" text-anchor="middle" fill="#374151" font-size="8">2 KiB</text>
  <text x="682.0" y="333.0" text-anchor="middle" fill="#374151" font-size="8">4 KiB</text>
  <text x="748.0" y="333.0" text-anchor="middle" fill="#374151" font-size="8">8 KiB</text>
  <text x="814.0" y="333.0" text-anchor="middle" fill="#374151" font-size="8">16 KiB</text>
  <text x="880.0" y="333.0" text-anchor="middle" fill="#374151" font-size="8">32 KiB</text>
  <line x1="20" y1="350" x2="34" y2="350" stroke="#eab308" stroke-width="2.5" stroke-linecap="round"/>
  <circle cx="27" cy="350" r="2.5" fill="#eab308"/>
  <text x="40" y="354" fill="#374151" font-size="10" font-weight="500">libzmq v4.3.5</text>
  <line x1="172" y1="350" x2="186" y2="350" stroke="#7c3aed" stroke-width="2.5" stroke-linecap="round"/>
  <circle cx="179" cy="350" r="2.5" fill="#7c3aed"/>
  <text x="192" y="354" fill="#374151" font-size="10" font-weight="500">omq-compio</text>
  <line x1="323" y1="350" x2="337" y2="350" stroke="#f97316" stroke-width="2.5" stroke-linecap="round"/>
  <circle cx="330" cy="350" r="2.5" fill="#f97316"/>
  <text x="343" y="354" fill="#374151" font-size="10" font-weight="500">omq-tokio (ST)</text>
  <line x1="475" y1="350" x2="489" y2="350" stroke="#dc2626" stroke-width="2.5" stroke-linecap="round"/>
  <circle cx="482" cy="350" r="2.5" fill="#dc2626"/>
  <text x="495" y="354" fill="#374151" font-size="10" font-weight="500">omq-tokio (MT)</text>
  <line x1="627" y1="350" x2="641" y2="350" stroke="#2563eb" stroke-width="2.5" stroke-linecap="round"/>
  <circle cx="634" cy="350" r="2.5" fill="#2563eb"/>
  <text x="647" y="354" fill="#374151" font-size="10" font-weight="500">zmq.rs v0.6.0 (MT)</text>
  <line x1="778" y1="350" x2="792" y2="350" stroke="#16a34a" stroke-width="2.5" stroke-linecap="round"/>
  <circle cx="785" cy="350" r="2.5" fill="#16a34a"/>
  <text x="798" y="354" fill="#374151" font-size="10" font-weight="500">rzmq v0.5.18 (MT)</text>
  <text x="475.0" y="368.0" text-anchor="middle" fill="#9ca3af" font-size="9">ST = single-threaded   MT = multi-threaded</text>
</svg>
