<svg xmlns="http://www.w3.org/2000/svg" viewBox="0 0 950 640" font-family="system-ui, -apple-system, sans-serif">
  <rect width="950" height="640" fill="white"/>
  <text x="475.0" y="16.0" text-anchor="middle" fill="#111827" font-size="14" font-weight="700">PUSH/PULL throughput, TCP loopback, 2-process</text>
  <text x="475.0" y="30.0" text-anchor="middle" fill="#9ca3af" font-size="9">Linux VM on a 2018 Mac Mini, Intel Core i7-8700B @ 3.20GHz, 6 cores, performance governor, turbo off</text>
  <text x="224.0" y="48.0" text-anchor="middle" fill="#111827" font-size="12" font-weight="700">small messages (higher is better)</text>
  <line x1="70.0" y1="281.2" x2="378.0" y2="281.2" stroke="#e5e7eb" stroke-width="1" stroke-dasharray="4,3"/>
  <text x="62.0" y="281.2" text-anchor="end" dominant-baseline="middle" fill="#374151" font-size="8.5">2 M msg/s</text>
  <line x1="70.0" y1="242.4" x2="378.0" y2="242.4" stroke="#e5e7eb" stroke-width="1" stroke-dasharray="4,3"/>
  <text x="62.0" y="242.4" text-anchor="end" dominant-baseline="middle" fill="#374151" font-size="8.5">4 M msg/s</text>
  <line x1="70.0" y1="203.6" x2="378.0" y2="203.6" stroke="#e5e7eb" stroke-width="1" stroke-dasharray="4,3"/>
  <text x="62.0" y="203.6" text-anchor="end" dominant-baseline="middle" fill="#374151" font-size="8.5">6 M msg/s</text>
  <line x1="70.0" y1="164.7" x2="378.0" y2="164.7" stroke="#e5e7eb" stroke-width="1" stroke-dasharray="4,3"/>
  <text x="62.0" y="164.7" text-anchor="end" dominant-baseline="middle" fill="#374151" font-size="8.5">8 M msg/s</text>
  <line x1="70.0" y1="125.9" x2="378.0" y2="125.9" stroke="#e5e7eb" stroke-width="1" stroke-dasharray="4,3"/>
  <text x="62.0" y="125.9" text-anchor="end" dominant-baseline="middle" fill="#374151" font-size="8.5">10 M msg/s</text>
  <line x1="70.0" y1="87.1" x2="378.0" y2="87.1" stroke="#e5e7eb" stroke-width="1" stroke-dasharray="4,3"/>
  <text x="62.0" y="87.1" text-anchor="end" dominant-baseline="middle" fill="#374151" font-size="8.5">12 M msg/s</text>
  <line x1="378.0" y1="60.0" x2="378.0" y2="320.0" stroke="#9ca3af" stroke-width="1.5"/>
  <line x1="70.0" y1="60.0" x2="70.0" y2="320.0" stroke="#e5e7eb" stroke-width="1"/>
  <line x1="131.6" y1="60.0" x2="131.6" y2="320.0" stroke="#e5e7eb" stroke-width="1"/>
  <line x1="193.2" y1="60.0" x2="193.2" y2="320.0" stroke="#e5e7eb" stroke-width="1"/>
  <line x1="254.8" y1="60.0" x2="254.8" y2="320.0" stroke="#e5e7eb" stroke-width="1"/>
  <line x1="316.4" y1="60.0" x2="316.4" y2="320.0" stroke="#e5e7eb" stroke-width="1"/>
  <line x1="378.0" y1="60.0" x2="378.0" y2="320.0" stroke="#e5e7eb" stroke-width="1"/>
  <line x1="70.0" y1="60.0" x2="70.0" y2="320.0" stroke="#9ca3af" stroke-width="1.5"/>
  <line x1="70.0" y1="320.0" x2="378.0" y2="320.0" stroke="#9ca3af" stroke-width="1.5"/>
  <polyline points="70.0,254.4 131.6,260.8 193.2,259.1 254.8,265.0 316.4,262.1 378.0,273.4" fill="none" stroke="#15803d" stroke-width="2.5" stroke-dasharray="6,3"/>
  <circle cx="70.0" cy="254.4" r="3" fill="#15803d" stroke="white" stroke-width="1"/>
  <circle cx="131.6" cy="260.8" r="3" fill="#15803d" stroke="white" stroke-width="1"/>
  <circle cx="193.2" cy="259.1" r="3" fill="#15803d" stroke="white" stroke-width="1"/>
  <circle cx="254.8" cy="265.0" r="3" fill="#15803d" stroke="white" stroke-width="1"/>
  <circle cx="316.4" cy="262.1" r="3" fill="#15803d" stroke="white" stroke-width="1"/>
  <circle cx="378.0" cy="273.4" r="3" fill="#15803d" stroke="white" stroke-width="1"/>
  <polyline points="70.0,295.0 131.6,288.2 193.2,276.8 254.8,272.7 316.4,272.4 378.0,281.4" fill="none" stroke="#16a34a" stroke-width="2.5" stroke-dasharray="6,3"/>
  <circle cx="70.0" cy="295.0" r="3" fill="#16a34a" stroke="white" stroke-width="1"/>
  <circle cx="131.6" cy="288.2" r="3" fill="#16a34a" stroke="white" stroke-width="1"/>
  <circle cx="193.2" cy="276.8" r="3" fill="#16a34a" stroke="white" stroke-width="1"/>
  <circle cx="254.8" cy="272.7" r="3" fill="#16a34a" stroke="white" stroke-width="1"/>
  <circle cx="316.4" cy="272.4" r="3" fill="#16a34a" stroke="white" stroke-width="1"/>
  <circle cx="378.0" cy="281.4" r="3" fill="#16a34a" stroke="white" stroke-width="1"/>
  <polyline points="70.0,313.5 131.6,314.3 193.2,314.9 254.8,315.1 316.4,315.2 378.0,315.5" fill="none" stroke="#2563eb" stroke-width="2.5" stroke-dasharray="6,3"/>
  <circle cx="70.0" cy="313.5" r="3" fill="#2563eb" stroke="white" stroke-width="1"/>
  <circle cx="131.6" cy="314.3" r="3" fill="#2563eb" stroke="white" stroke-width="1"/>
  <circle cx="193.2" cy="314.9" r="3" fill="#2563eb" stroke="white" stroke-width="1"/>
  <circle cx="254.8" cy="315.1" r="3" fill="#2563eb" stroke="white" stroke-width="1"/>
  <circle cx="316.4" cy="315.2" r="3" fill="#2563eb" stroke="white" stroke-width="1"/>
  <circle cx="378.0" cy="315.5" r="3" fill="#2563eb" stroke="white" stroke-width="1"/>
  <polyline points="70.0,188.5 131.6,191.2 193.2,236.8 254.8,276.6 316.4,280.2 378.0,302.8" fill="none" stroke="#eab308" stroke-width="2.5" stroke-dasharray="6,3"/>
  <circle cx="70.0" cy="188.5" r="3" fill="#eab308" stroke="white" stroke-width="1"/>
  <circle cx="131.6" cy="191.2" r="3" fill="#eab308" stroke="white" stroke-width="1"/>
  <circle cx="193.2" cy="236.8" r="3" fill="#eab308" stroke="white" stroke-width="1"/>
  <circle cx="254.8" cy="276.6" r="3" fill="#eab308" stroke="white" stroke-width="1"/>
  <circle cx="316.4" cy="280.2" r="3" fill="#eab308" stroke="white" stroke-width="1"/>
  <circle cx="378.0" cy="302.8" r="3" fill="#eab308" stroke="white" stroke-width="1"/>
  <polyline points="70.0,183.8 131.6,189.5 193.2,230.4 254.8,276.1 316.4,280.1 378.0,302.9" fill="none" stroke="#a16207" stroke-width="2.5" stroke-dasharray="6,3"/>
  <circle cx="70.0" cy="183.8" r="3" fill="#a16207" stroke="white" stroke-width="1"/>
  <circle cx="131.6" cy="189.5" r="3" fill="#a16207" stroke="white" stroke-width="1"/>
  <circle cx="193.2" cy="230.4" r="3" fill="#a16207" stroke="white" stroke-width="1"/>
  <circle cx="254.8" cy="276.1" r="3" fill="#a16207" stroke="white" stroke-width="1"/>
  <circle cx="316.4" cy="280.1" r="3" fill="#a16207" stroke="white" stroke-width="1"/>
  <circle cx="378.0" cy="302.9" r="3" fill="#a16207" stroke="white" stroke-width="1"/>
  <polyline points="70.0,93.9 131.6,99.3 193.2,185.7 254.8,187.6 316.4,216.6 378.0,260.4" fill="none" stroke="#dc2626" stroke-width="2.5" stroke-dasharray="6,3"/>
  <circle cx="70.0" cy="93.9" r="3" fill="#dc2626" stroke="white" stroke-width="1"/>
  <circle cx="131.6" cy="99.3" r="3" fill="#dc2626" stroke="white" stroke-width="1"/>
  <circle cx="193.2" cy="185.7" r="3" fill="#dc2626" stroke="white" stroke-width="1"/>
  <circle cx="254.8" cy="187.6" r="3" fill="#dc2626" stroke="white" stroke-width="1"/>
  <circle cx="316.4" cy="216.6" r="3" fill="#dc2626" stroke="white" stroke-width="1"/>
  <circle cx="378.0" cy="260.4" r="3" fill="#dc2626" stroke="white" stroke-width="1"/>
  <polyline points="70.0,177.2 131.6,180.9 193.2,223.5 254.8,232.0 316.4,239.2 378.0,272.6" fill="none" stroke="#f97316" stroke-width="2.5" stroke-dasharray="6,3"/>
  <circle cx="70.0" cy="177.2" r="3" fill="#f97316" stroke="white" stroke-width="1"/>
  <circle cx="131.6" cy="180.9" r="3" fill="#f97316" stroke="white" stroke-width="1"/>
  <circle cx="193.2" cy="223.5" r="3" fill="#f97316" stroke="white" stroke-width="1"/>
  <circle cx="254.8" cy="232.0" r="3" fill="#f97316" stroke="white" stroke-width="1"/>
  <circle cx="316.4" cy="239.2" r="3" fill="#f97316" stroke="white" stroke-width="1"/>
  <circle cx="378.0" cy="272.6" r="3" fill="#f97316" stroke="white" stroke-width="1"/>
  <text x="70.0" y="333.0" text-anchor="middle" fill="#374151" font-size="8">16 B</text>
  <text x="131.6" y="333.0" text-anchor="middle" fill="#374151" font-size="8">32 B</text>
  <text x="193.2" y="333.0" text-anchor="middle" fill="#374151" font-size="8">64 B</text>
  <text x="254.8" y="333.0" text-anchor="middle" fill="#374151" font-size="8">128 B</text>
  <text x="316.4" y="333.0" text-anchor="middle" fill="#374151" font-size="8">256 B</text>
  <text x="378.0" y="333.0" text-anchor="middle" fill="#374151" font-size="8">1 KiB</text>
  <text x="649.0" y="48.0" text-anchor="middle" fill="#111827" font-size="12" font-weight="700">medium/large messages (higher is better)</text>
  <line x1="418.0" y1="276.8" x2="880.0" y2="276.8" stroke="#e5e7eb" stroke-width="1"/>
  <text x="888.0" y="276.8" text-anchor="start" dominant-baseline="middle" fill="#374151" font-size="8.5">1 GB/s</text>
  <line x1="418.0" y1="233.7" x2="880.0" y2="233.7" stroke="#e5e7eb" stroke-width="1"/>
  <text x="888.0" y="233.7" text-anchor="start" dominant-baseline="middle" fill="#374151" font-size="8.5">2 GB/s</text>
  <line x1="418.0" y1="190.5" x2="880.0" y2="190.5" stroke="#e5e7eb" stroke-width="1"/>
  <text x="888.0" y="190.5" text-anchor="start" dominant-baseline="middle" fill="#374151" font-size="8.5">3 GB/s</text>
  <line x1="418.0" y1="147.3" x2="880.0" y2="147.3" stroke="#e5e7eb" stroke-width="1"/>
  <text x="888.0" y="147.3" text-anchor="start" dominant-baseline="middle" fill="#374151" font-size="8.5">4 GB/s</text>
  <line x1="418.0" y1="104.2" x2="880.0" y2="104.2" stroke="#e5e7eb" stroke-width="1"/>
  <text x="888.0" y="104.2" text-anchor="start" dominant-baseline="middle" fill="#374151" font-size="8.5">5 GB/s</text>
  <line x1="418.0" y1="61.0" x2="880.0" y2="61.0" stroke="#e5e7eb" stroke-width="1"/>
  <text x="888.0" y="61.0" text-anchor="start" dominant-baseline="middle" fill="#374151" font-size="8.5">6 GB/s</text>
  <line x1="880.0" y1="60.0" x2="880.0" y2="320.0" stroke="#9ca3af" stroke-width="1.5"/>
  <line x1="418.0" y1="60.0" x2="418.0" y2="320.0" stroke="#e5e7eb" stroke-width="1"/>
  <line x1="469.3" y1="60.0" x2="469.3" y2="320.0" stroke="#e5e7eb" stroke-width="1"/>
  <line x1="520.7" y1="60.0" x2="520.7" y2="320.0" stroke="#e5e7eb" stroke-width="1"/>
  <line x1="572.0" y1="60.0" x2="572.0" y2="320.0" stroke="#e5e7eb" stroke-width="1"/>
  <line x1="623.3" y1="60.0" x2="623.3" y2="320.0" stroke="#e5e7eb" stroke-width="1"/>
  <line x1="674.7" y1="60.0" x2="674.7" y2="320.0" stroke="#e5e7eb" stroke-width="1"/>
  <line x1="726.0" y1="60.0" x2="726.0" y2="320.0" stroke="#e5e7eb" stroke-width="1"/>
  <line x1="777.3" y1="60.0" x2="777.3" y2="320.0" stroke="#e5e7eb" stroke-width="1"/>
  <line x1="828.7" y1="60.0" x2="828.7" y2="320.0" stroke="#e5e7eb" stroke-width="1"/>
  <line x1="880.0" y1="60.0" x2="880.0" y2="320.0" stroke="#e5e7eb" stroke-width="1"/>
  <line x1="418.0" y1="60.0" x2="418.0" y2="320.0" stroke="#9ca3af" stroke-width="1.5"/>
  <line x1="418.0" y1="320.0" x2="880.0" y2="320.0" stroke="#9ca3af" stroke-width="1.5"/>
  <polyline points="418.0,287.0 469.3,267.6 520.7,213.8 572.0,180.5 623.3,139.5 674.7,169.8 726.0,93.9 777.3,107.8 828.7,136.4 880.0,147.3" fill="none" stroke="#15803d" stroke-width="2.5" stroke-linecap="round" stroke-linejoin="round"/>
  <circle cx="418.0" cy="287.0" r="3" fill="#15803d" stroke="white" stroke-width="1"/>
  <circle cx="469.3" cy="267.6" r="3" fill="#15803d" stroke="white" stroke-width="1"/>
  <circle cx="520.7" cy="213.8" r="3" fill="#15803d" stroke="white" stroke-width="1"/>
  <circle cx="572.0" cy="180.5" r="3" fill="#15803d" stroke="white" stroke-width="1"/>
  <circle cx="623.3" cy="139.5" r="3" fill="#15803d" stroke="white" stroke-width="1"/>
  <circle cx="674.7" cy="169.8" r="3" fill="#15803d" stroke="white" stroke-width="1"/>
  <circle cx="726.0" cy="93.9" r="3" fill="#15803d" stroke="white" stroke-width="1"/>
  <circle cx="777.3" cy="107.8" r="3" fill="#15803d" stroke="white" stroke-width="1"/>
  <circle cx="828.7" cy="136.4" r="3" fill="#15803d" stroke="white" stroke-width="1"/>
  <circle cx="880.0" cy="147.3" r="3" fill="#15803d" stroke="white" stroke-width="1"/>
  <polyline points="418.0,292.9 469.3,272.9 520.7,232.0 572.0,203.4 623.3,176.1 674.7,169.3 726.0,185.6 777.3,171.5 828.7,205.0 880.0,197.1" fill="none" stroke="#16a34a" stroke-width="2.5" stroke-linecap="round" stroke-linejoin="round"/>
  <circle cx="418.0" cy="292.9" r="3" fill="#16a34a" stroke="white" stroke-width="1"/>
  <circle cx="469.3" cy="272.9" r="3" fill="#16a34a" stroke="white" stroke-width="1"/>
  <circle cx="520.7" cy="232.0" r="3" fill="#16a34a" stroke="white" stroke-width="1"/>
  <circle cx="572.0" cy="203.4" r="3" fill="#16a34a" stroke="white" stroke-width="1"/>
  <circle cx="623.3" cy="176.1" r="3" fill="#16a34a" stroke="white" stroke-width="1"/>
  <circle cx="674.7" cy="169.3" r="3" fill="#16a34a" stroke="white" stroke-width="1"/>
  <circle cx="726.0" cy="185.6" r="3" fill="#16a34a" stroke="white" stroke-width="1"/>
  <circle cx="777.3" cy="171.5" r="3" fill="#16a34a" stroke="white" stroke-width="1"/>
  <circle cx="828.7" cy="205.0" r="3" fill="#16a34a" stroke="white" stroke-width="1"/>
  <circle cx="880.0" cy="197.1" r="3" fill="#16a34a" stroke="white" stroke-width="1"/>
  <polyline points="418.0,317.3 469.3,314.9 520.7,309.8 572.0,301.0 623.3,286.4 674.7,260.9 726.0,220.8 777.3,180.9 828.7,186.6 880.0,227.5" fill="none" stroke="#2563eb" stroke-width="2.5" stroke-linecap="round" stroke-linejoin="round"/>
  <circle cx="418.0" cy="317.3" r="3" fill="#2563eb" stroke="white" stroke-width="1"/>
  <circle cx="469.3" cy="314.9" r="3" fill="#2563eb" stroke="white" stroke-width="1"/>
  <circle cx="520.7" cy="309.8" r="3" fill="#2563eb" stroke="white" stroke-width="1"/>
  <circle cx="572.0" cy="301.0" r="3" fill="#2563eb" stroke="white" stroke-width="1"/>
  <circle cx="623.3" cy="286.4" r="3" fill="#2563eb" stroke="white" stroke-width="1"/>
  <circle cx="674.7" cy="260.9" r="3" fill="#2563eb" stroke="white" stroke-width="1"/>
  <circle cx="726.0" cy="220.8" r="3" fill="#2563eb" stroke="white" stroke-width="1"/>
  <circle cx="777.3" cy="180.9" r="3" fill="#2563eb" stroke="white" stroke-width="1"/>
  <circle cx="828.7" cy="186.6" r="3" fill="#2563eb" stroke="white" stroke-width="1"/>
  <circle cx="880.0" cy="227.5" r="3" fill="#2563eb" stroke="white" stroke-width="1"/>
  <polyline points="418.0,297.3 469.3,288.1 520.7,280.8 572.0,276.0 623.3,270.9 674.7,274.2 726.0,269.0 777.3,238.4 828.7,155.2 880.0,152.9" fill="none" stroke="#eab308" stroke-width="2.5" stroke-linecap="round" stroke-linejoin="round"/>
  <circle cx="418.0" cy="297.3" r="3" fill="#eab308" stroke="white" stroke-width="1"/>
  <circle cx="469.3" cy="288.1" r="3" fill="#eab308" stroke="white" stroke-width="1"/>
  <circle cx="520.7" cy="280.8" r="3" fill="#eab308" stroke="white" stroke-width="1"/>
  <circle cx="572.0" cy="276.0" r="3" fill="#eab308" stroke="white" stroke-width="1"/>
  <circle cx="623.3" cy="270.9" r="3" fill="#eab308" stroke="white" stroke-width="1"/>
  <circle cx="674.7" cy="274.2" r="3" fill="#eab308" stroke="white" stroke-width="1"/>
  <circle cx="726.0" cy="269.0" r="3" fill="#eab308" stroke="white" stroke-width="1"/>
  <circle cx="777.3" cy="238.4" r="3" fill="#eab308" stroke="white" stroke-width="1"/>
  <circle cx="828.7" cy="155.2" r="3" fill="#eab308" stroke="white" stroke-width="1"/>
  <circle cx="880.0" cy="152.9" r="3" fill="#eab308" stroke="white" stroke-width="1"/>
  <polyline points="418.0,297.3 469.3,287.5 520.7,281.0 572.0,275.2 623.3,272.1 674.7,270.2 726.0,269.2 777.3,239.2 828.7,149.6 880.0,133.8" fill="none" stroke="#a16207" stroke-width="2.5" stroke-linecap="round" stroke-linejoin="round"/>
  <circle cx="418.0" cy="297.3" r="3" fill="#a16207" stroke="white" stroke-width="1"/>
  <circle cx="469.3" cy="287.5" r="3" fill="#a16207" stroke="white" stroke-width="1"/>
  <circle cx="520.7" cy="281.0" r="3" fill="#a16207" stroke="white" stroke-width="1"/>
  <circle cx="572.0" cy="275.2" r="3" fill="#a16207" stroke="white" stroke-width="1"/>
  <circle cx="623.3" cy="272.1" r="3" fill="#a16207" stroke="white" stroke-width="1"/>
  <circle cx="674.7" cy="270.2" r="3" fill="#a16207" stroke="white" stroke-width="1"/>
  <circle cx="726.0" cy="269.2" r="3" fill="#a16207" stroke="white" stroke-width="1"/>
  <circle cx="777.3" cy="239.2" r="3" fill="#a16207" stroke="white" stroke-width="1"/>
  <circle cx="828.7" cy="149.6" r="3" fill="#a16207" stroke="white" stroke-width="1"/>
  <circle cx="880.0" cy="133.8" r="3" fill="#a16207" stroke="white" stroke-width="1"/>
  <polyline points="418.0,261.1 469.3,218.8 520.7,184.2 572.0,165.9 623.3,142.9 674.7,126.8 726.0,130.7 777.3,133.4 828.7,130.6 880.0,115.3" fill="none" stroke="#dc2626" stroke-width="2.5" stroke-linecap="round" stroke-linejoin="round"/>
  <circle cx="418.0" cy="261.1" r="3" fill="#dc2626" stroke="white" stroke-width="1"/>
  <circle cx="469.3" cy="218.8" r="3" fill="#dc2626" stroke="white" stroke-width="1"/>
  <circle cx="520.7" cy="184.2" r="3" fill="#dc2626" stroke="white" stroke-width="1"/>
  <circle cx="572.0" cy="165.9" r="3" fill="#dc2626" stroke="white" stroke-width="1"/>
  <circle cx="623.3" cy="142.9" r="3" fill="#dc2626" stroke="white" stroke-width="1"/>
  <circle cx="674.7" cy="126.8" r="3" fill="#dc2626" stroke="white" stroke-width="1"/>
  <circle cx="726.0" cy="130.7" r="3" fill="#dc2626" stroke="white" stroke-width="1"/>
  <circle cx="777.3" cy="133.4" r="3" fill="#dc2626" stroke="white" stroke-width="1"/>
  <circle cx="828.7" cy="130.6" r="3" fill="#dc2626" stroke="white" stroke-width="1"/>
  <circle cx="880.0" cy="115.3" r="3" fill="#dc2626" stroke="white" stroke-width="1"/>
  <polyline points="418.0,274.0 469.3,245.3 520.7,212.0 572.0,180.7 623.3,146.8 674.7,123.1 726.0,119.5 777.3,128.7 828.7,121.5 880.0,114.4" fill="none" stroke="#f97316" stroke-width="2.5" stroke-linecap="round" stroke-linejoin="round"/>
  <circle cx="418.0" cy="274.0" r="3" fill="#f97316" stroke="white" stroke-width="1"/>
  <circle cx="469.3" cy="245.3" r="3" fill="#f97316" stroke="white" stroke-width="1"/>
  <circle cx="520.7" cy="212.0" r="3" fill="#f97316" stroke="white" stroke-width="1"/>
  <circle cx="572.0" cy="180.7" r="3" fill="#f97316" stroke="white" stroke-width="1"/>
  <circle cx="623.3" cy="146.8" r="3" fill="#f97316" stroke="white" stroke-width="1"/>
  <circle cx="674.7" cy="123.1" r="3" fill="#f97316" stroke="white" stroke-width="1"/>
  <circle cx="726.0" cy="119.5" r="3" fill="#f97316" stroke="white" stroke-width="1"/>
  <circle cx="777.3" cy="128.7" r="3" fill="#f97316" stroke="white" stroke-width="1"/>
  <circle cx="828.7" cy="121.5" r="3" fill="#f97316" stroke="white" stroke-width="1"/>
  <circle cx="880.0" cy="114.4" r="3" fill="#f97316" stroke="white" stroke-width="1"/>
  <text x="418.0" y="333.0" text-anchor="middle" fill="#374151" font-size="8">256 B</text>
  <text x="469.3" y="333.0" text-anchor="middle" fill="#374151" font-size="8">512 B</text>
  <text x="520.7" y="333.0" text-anchor="middle" fill="#374151" font-size="8">1 KiB</text>
  <text x="572.0" y="333.0" text-anchor="middle" fill="#374151" font-size="8">2 KiB</text>
  <text x="623.3" y="333.0" text-anchor="middle" fill="#374151" font-size="8">4 KiB</text>
  <text x="674.7" y="333.0" text-anchor="middle" fill="#374151" font-size="8">8 KiB</text>
  <text x="726.0" y="333.0" text-anchor="middle" fill="#374151" font-size="8">16 KiB</text>
  <text x="777.3" y="333.0" text-anchor="middle" fill="#374151" font-size="8">32 KiB</text>
  <text x="828.7" y="333.0" text-anchor="middle" fill="#374151" font-size="8">256 KiB</text>
  <text x="880.0" y="333.0" text-anchor="middle" fill="#374151" font-size="8">4 MiB</text>
  <text x="475.0" y="378.0" text-anchor="middle" fill="#111827" font-size="12" font-weight="700">REQ/REP round-trip latency, TCP (lower is better)</text>
  <text x="62.0" y="550.0" text-anchor="end" dominant-baseline="middle" fill="#9ca3af" font-size="8.5">20 µs</text>
  <line x1="70.0" y1="518.0" x2="880.0" y2="518.0" stroke="#e5e7eb" stroke-width="1"/>
  <text x="62.0" y="518.0" text-anchor="end" dominant-baseline="middle" fill="#374151" font-size="8.5">40 µs</text>
  <line x1="70.0" y1="486.0" x2="880.0" y2="486.0" stroke="#e5e7eb" stroke-width="1"/>
  <text x="62.0" y="486.0" text-anchor="end" dominant-baseline="middle" fill="#374151" font-size="8.5">60 µs</text>
  <line x1="70.0" y1="454.0" x2="880.0" y2="454.0" stroke="#e5e7eb" stroke-width="1"/>
  <text x="62.0" y="454.0" text-anchor="end" dominant-baseline="middle" fill="#374151" font-size="8.5">80 µs</text>
  <line x1="70.0" y1="422.0" x2="880.0" y2="422.0" stroke="#e5e7eb" stroke-width="1"/>
  <text x="62.0" y="422.0" text-anchor="end" dominant-baseline="middle" fill="#374151" font-size="8.5">100 µs</text>
  <line x1="70.0" y1="390.0" x2="880.0" y2="390.0" stroke="#e5e7eb" stroke-width="1"/>
  <text x="62.0" y="390.0" text-anchor="end" dominant-baseline="middle" fill="#374151" font-size="8.5">120 µs</text>
  <line x1="70.0" y1="390.0" x2="70.0" y2="550.0" stroke="#e5e7eb" stroke-width="1"/>
  <line x1="232.0" y1="390.0" x2="232.0" y2="550.0" stroke="#e5e7eb" stroke-width="1"/>
  <line x1="394.0" y1="390.0" x2="394.0" y2="550.0" stroke="#e5e7eb" stroke-width="1"/>
  <line x1="556.0" y1="390.0" x2="556.0" y2="550.0" stroke="#e5e7eb" stroke-width="1"/>
  <line x1="718.0" y1="390.0" x2="718.0" y2="550.0" stroke="#e5e7eb" stroke-width="1"/>
  <line x1="880.0" y1="390.0" x2="880.0" y2="550.0" stroke="#e5e7eb" stroke-width="1"/>
  <line x1="70.0" y1="390.0" x2="70.0" y2="550.0" stroke="#9ca3af" stroke-width="1.5"/>
  <line x1="70.0" y1="550.0" x2="880.0" y2="550.0" stroke="#9ca3af" stroke-width="1.5"/>
  <polyline points="70.0,430.7 232.0,434.2 394.0,441.2 556.0,437.9 718.0,431.8 880.0,436.4" fill="none" stroke="#eab308" stroke-width="2.5" stroke-linecap="round" stroke-linejoin="round"/>
  <circle cx="70.0" cy="430.7" r="3" fill="#eab308" stroke="white" stroke-width="1"/>
  <circle cx="232.0" cy="434.2" r="3" fill="#eab308" stroke="white" stroke-width="1"/>
  <circle cx="394.0" cy="441.2" r="3" fill="#eab308" stroke="white" stroke-width="1"/>
  <circle cx="556.0" cy="437.9" r="3" fill="#eab308" stroke="white" stroke-width="1"/>
  <circle cx="718.0" cy="431.8" r="3" fill="#eab308" stroke="white" stroke-width="1"/>
  <circle cx="880.0" cy="436.4" r="3" fill="#eab308" stroke="white" stroke-width="1"/>
  <polyline points="70.0,435.9 394.0,433.1 718.0,430.1 880.0,435.3" fill="none" stroke="#a16207" stroke-width="2.5" stroke-linecap="round" stroke-linejoin="round"/>
  <circle cx="70.0" cy="435.9" r="3" fill="#a16207" stroke="white" stroke-width="1"/>
  <circle cx="394.0" cy="433.1" r="3" fill="#a16207" stroke="white" stroke-width="1"/>
  <circle cx="718.0" cy="430.1" r="3" fill="#a16207" stroke="white" stroke-width="1"/>
  <circle cx="880.0" cy="435.3" r="3" fill="#a16207" stroke="white" stroke-width="1"/>
  <polyline points="70.0,438.7 232.0,440.5 394.0,439.6 556.0,439.7 718.0,441.1 880.0,436.7" fill="none" stroke="#dc2626" stroke-width="2.5" stroke-linecap="round" stroke-linejoin="round"/>
  <circle cx="70.0" cy="438.7" r="3" fill="#dc2626" stroke="white" stroke-width="1"/>
  <circle cx="232.0" cy="440.5" r="3" fill="#dc2626" stroke="white" stroke-width="1"/>
  <circle cx="394.0" cy="439.6" r="3" fill="#dc2626" stroke="white" stroke-width="1"/>
  <circle cx="556.0" cy="439.7" r="3" fill="#dc2626" stroke="white" stroke-width="1"/>
  <circle cx="718.0" cy="441.1" r="3" fill="#dc2626" stroke="white" stroke-width="1"/>
  <circle cx="880.0" cy="436.7" r="3" fill="#dc2626" stroke="white" stroke-width="1"/>
  <polyline points="70.0,506.0 232.0,500.5 394.0,504.0 556.0,501.2 718.0,500.4 880.0,503.8" fill="none" stroke="#f97316" stroke-width="2.5" stroke-linecap="round" stroke-linejoin="round"/>
  <circle cx="70.0" cy="506.0" r="3" fill="#f97316" stroke="white" stroke-width="1"/>
  <circle cx="232.0" cy="500.5" r="3" fill="#f97316" stroke="white" stroke-width="1"/>
  <circle cx="394.0" cy="504.0" r="3" fill="#f97316" stroke="white" stroke-width="1"/>
  <circle cx="556.0" cy="501.2" r="3" fill="#f97316" stroke="white" stroke-width="1"/>
  <circle cx="718.0" cy="500.4" r="3" fill="#f97316" stroke="white" stroke-width="1"/>
  <circle cx="880.0" cy="503.8" r="3" fill="#f97316" stroke="white" stroke-width="1"/>
  <polyline points="70.0,413.9 232.0,395.2 394.0,428.6 556.0,382.6 718.0,411.4 880.0,418.5" fill="none" stroke="#16a34a" stroke-width="2.5" stroke-linecap="round" stroke-linejoin="round"/>
  <circle cx="70.0" cy="413.9" r="3" fill="#16a34a" stroke="white" stroke-width="1"/>
  <circle cx="232.0" cy="395.2" r="3" fill="#16a34a" stroke="white" stroke-width="1"/>
  <circle cx="394.0" cy="428.6" r="3" fill="#16a34a" stroke="white" stroke-width="1"/>
  <circle cx="556.0" cy="382.6" r="3" fill="#16a34a" stroke="white" stroke-width="1"/>
  <circle cx="718.0" cy="411.4" r="3" fill="#16a34a" stroke="white" stroke-width="1"/>
  <circle cx="880.0" cy="418.5" r="3" fill="#16a34a" stroke="white" stroke-width="1"/>
  <polyline points="70.0,492.4 232.0,485.8 394.0,483.2 556.0,486.5 718.0,484.3 880.0,484.9" fill="none" stroke="#15803d" stroke-width="2.5" stroke-linecap="round" stroke-linejoin="round"/>
  <circle cx="70.0" cy="492.4" r="3" fill="#15803d" stroke="white" stroke-width="1"/>
  <circle cx="232.0" cy="485.8" r="3" fill="#15803d" stroke="white" stroke-width="1"/>
  <circle cx="394.0" cy="483.2" r="3" fill="#15803d" stroke="white" stroke-width="1"/>
  <circle cx="556.0" cy="486.5" r="3" fill="#15803d" stroke="white" stroke-width="1"/>
  <circle cx="718.0" cy="484.3" r="3" fill="#15803d" stroke="white" stroke-width="1"/>
  <circle cx="880.0" cy="484.9" r="3" fill="#15803d" stroke="white" stroke-width="1"/>
  <polyline points="70.0,493.8 232.0,498.4 394.0,494.6 556.0,499.8 718.0,495.0 880.0,496.3" fill="none" stroke="#2563eb" stroke-width="2.5" stroke-linecap="round" stroke-linejoin="round"/>
  <circle cx="70.0" cy="493.8" r="3" fill="#2563eb" stroke="white" stroke-width="1"/>
  <circle cx="232.0" cy="498.4" r="3" fill="#2563eb" stroke="white" stroke-width="1"/>
  <circle cx="394.0" cy="494.6" r="3" fill="#2563eb" stroke="white" stroke-width="1"/>
  <circle cx="556.0" cy="499.8" r="3" fill="#2563eb" stroke="white" stroke-width="1"/>
  <circle cx="718.0" cy="495.0" r="3" fill="#2563eb" stroke="white" stroke-width="1"/>
  <circle cx="880.0" cy="496.3" r="3" fill="#2563eb" stroke="white" stroke-width="1"/>
  <text x="70.0" y="563.0" text-anchor="middle" fill="#374151" font-size="8">16 B</text>
  <text x="232.0" y="563.0" text-anchor="middle" fill="#374151" font-size="8">32 B</text>
  <text x="394.0" y="563.0" text-anchor="middle" fill="#374151" font-size="8">64 B</text>
  <text x="556.0" y="563.0" text-anchor="middle" fill="#374151" font-size="8">128 B</text>
  <text x="718.0" y="563.0" text-anchor="middle" fill="#374151" font-size="8">256 B</text>
  <text x="880.0" y="563.0" text-anchor="middle" fill="#374151" font-size="8">1 KiB</text>
  <line x1="95" y1="580" x2="109" y2="580" stroke="#eab308" stroke-width="2.5" stroke-linecap="round"/>
  <circle cx="102" cy="580" r="2.5" fill="#eab308"/>
  <text x="115" y="584" fill="#374151" font-size="10" font-weight="500">libzmq v4.3.5 (1T)</text>
  <line x1="285" y1="580" x2="299" y2="580" stroke="#a16207" stroke-width="2.5" stroke-linecap="round"/>
  <circle cx="292" cy="580" r="2.5" fill="#a16207"/>
  <text x="305" y="584" fill="#374151" font-size="10" font-weight="500">libzmq v4.3.5 (4T)</text>
  <line x1="475" y1="580" x2="489" y2="580" stroke="#f97316" stroke-width="2.5" stroke-linecap="round"/>
  <circle cx="482" cy="580" r="2.5" fill="#f97316"/>
  <text x="495" y="584" fill="#374151" font-size="10" font-weight="500">omq-tokio (1T)</text>
  <line x1="665" y1="580" x2="679" y2="580" stroke="#dc2626" stroke-width="2.5" stroke-linecap="round"/>
  <circle cx="672" cy="580" r="2.5" fill="#dc2626"/>
  <text x="685" y="584" fill="#374151" font-size="10" font-weight="500">omq-tokio (2T)</text>
  <line x1="190" y1="600" x2="204" y2="600" stroke="#2563eb" stroke-width="2.5" stroke-linecap="round"/>
  <circle cx="197" cy="600" r="2.5" fill="#2563eb"/>
  <text x="210" y="604" fill="#374151" font-size="10" font-weight="500">zmq.rs v0.6.0 [6T]</text>
  <line x1="380" y1="600" x2="394" y2="600" stroke="#16a34a" stroke-width="2.5" stroke-linecap="round"/>
  <circle cx="387" cy="600" r="2.5" fill="#16a34a"/>
  <text x="400" y="604" fill="#374151" font-size="10" font-weight="500">rzmq v0.5.24 [6T]</text>
  <line x1="570" y1="600" x2="584" y2="600" stroke="#15803d" stroke-width="2.5" stroke-linecap="round"/>
  <circle cx="577" cy="600" r="2.5" fill="#15803d"/>
  <text x="590" y="604" fill="#374151" font-size="10" font-weight="500">rzmq v0.5.24 (io_uring) [6T]</text>
  <text x="70.0" y="618.0" text-anchor="start" fill="#9ca3af" font-size="9">(nT) = configurable IO threads</text>
  <text x="70.0" y="631.0" text-anchor="start" fill="#9ca3af" font-size="9">[nT] = fixed IO threads</text>
</svg>
