<svg xmlns="http://www.w3.org/2000/svg" viewBox="0 0 850 440" font-family="system-ui, -apple-system, sans-serif">
  <rect width="850" height="440" fill="white"/>
  <line x1="90" y1="350.0" x2="760" y2="350.0" stroke="#e5e7eb" stroke-width="1"/>
  <text x="82" y="350.0" text-anchor="end" dominant-baseline="middle" fill="#374151" font-size="10">0</text>
  <line x1="90" y1="289.0" x2="760" y2="289.0" stroke="#e5e7eb" stroke-width="1"/>
  <text x="82" y="289.0" text-anchor="end" dominant-baseline="middle" fill="#374151" font-size="10">4M</text>
  <line x1="90" y1="228.0" x2="760" y2="228.0" stroke="#e5e7eb" stroke-width="1"/>
  <text x="82" y="228.0" text-anchor="end" dominant-baseline="middle" fill="#374151" font-size="10">8M</text>
  <line x1="90" y1="167.0" x2="760" y2="167.0" stroke="#e5e7eb" stroke-width="1"/>
  <text x="82" y="167.0" text-anchor="end" dominant-baseline="middle" fill="#374151" font-size="10">12M</text>
  <line x1="90" y1="106.0" x2="760" y2="106.0" stroke="#e5e7eb" stroke-width="1"/>
  <text x="82" y="106.0" text-anchor="end" dominant-baseline="middle" fill="#374151" font-size="10">16M</text>
  <line x1="90" y1="45.0" x2="760" y2="45.0" stroke="#e5e7eb" stroke-width="1"/>
  <text x="82" y="45.0" text-anchor="end" dominant-baseline="middle" fill="#374151" font-size="10">20M</text>
  <line x1="90" y1="289.0" x2="760" y2="289.0" stroke="#e5e7eb" stroke-width="1" stroke-dasharray="3,6"/>
  <text x="768" y="289.0" text-anchor="start" dominant-baseline="middle" fill="#6b7280" font-size="10">2 GB/s</text>
  <line x1="90" y1="228.0" x2="760" y2="228.0" stroke="#e5e7eb" stroke-width="1" stroke-dasharray="3,6"/>
  <text x="768" y="228.0" text-anchor="start" dominant-baseline="middle" fill="#6b7280" font-size="10">4 GB/s</text>
  <line x1="90" y1="167.0" x2="760" y2="167.0" stroke="#e5e7eb" stroke-width="1" stroke-dasharray="3,6"/>
  <text x="768" y="167.0" text-anchor="start" dominant-baseline="middle" fill="#6b7280" font-size="10">6 GB/s</text>
  <line x1="90" y1="106.0" x2="760" y2="106.0" stroke="#e5e7eb" stroke-width="1" stroke-dasharray="3,6"/>
  <text x="768" y="106.0" text-anchor="start" dominant-baseline="middle" fill="#6b7280" font-size="10">8 GB/s</text>
  <line x1="90.0" y1="45" x2="90.0" y2="350" stroke="#e5e7eb" stroke-width="1"/>
  <line x1="134.7" y1="45" x2="134.7" y2="350" stroke="#e5e7eb" stroke-width="1"/>
  <line x1="179.3" y1="45" x2="179.3" y2="350" stroke="#e5e7eb" stroke-width="1"/>
  <line x1="224.0" y1="45" x2="224.0" y2="350" stroke="#e5e7eb" stroke-width="1"/>
  <line x1="268.7" y1="45" x2="268.7" y2="350" stroke="#e5e7eb" stroke-width="1"/>
  <line x1="313.3" y1="45" x2="313.3" y2="350" stroke="#e5e7eb" stroke-width="1"/>
  <line x1="358.0" y1="45" x2="358.0" y2="350" stroke="#e5e7eb" stroke-width="1"/>
  <line x1="402.7" y1="45" x2="402.7" y2="350" stroke="#e5e7eb" stroke-width="1"/>
  <line x1="447.3" y1="45" x2="447.3" y2="350" stroke="#e5e7eb" stroke-width="1"/>
  <line x1="492.0" y1="45" x2="492.0" y2="350" stroke="#e5e7eb" stroke-width="1"/>
  <line x1="536.7" y1="45" x2="536.7" y2="350" stroke="#e5e7eb" stroke-width="1"/>
  <line x1="581.3" y1="45" x2="581.3" y2="350" stroke="#e5e7eb" stroke-width="1"/>
  <line x1="626.0" y1="45" x2="626.0" y2="350" stroke="#e5e7eb" stroke-width="1"/>
  <line x1="670.7" y1="45" x2="670.7" y2="350" stroke="#e5e7eb" stroke-width="1"/>
  <line x1="715.3" y1="45" x2="715.3" y2="350" stroke="#e5e7eb" stroke-width="1"/>
  <line x1="760.0" y1="45" x2="760.0" y2="350" stroke="#e5e7eb" stroke-width="1"/>
  <line x1="90" y1="45" x2="90" y2="350" stroke="#9ca3af" stroke-width="1.5"/>
  <line x1="760" y1="45" x2="760" y2="350" stroke="#9ca3af" stroke-width="1.5"/>
  <line x1="90" y1="350" x2="760" y2="350" stroke="#9ca3af" stroke-width="1.5"/>
  <text x="90.0" y="366" text-anchor="middle" fill="#374151" font-size="9.5">8 B</text>
  <text x="134.7" y="366" text-anchor="middle" fill="#374151" font-size="9.5">16 B</text>
  <text x="179.3" y="366" text-anchor="middle" fill="#374151" font-size="9.5">32 B</text>
  <text x="224.0" y="366" text-anchor="middle" fill="#374151" font-size="9.5">64 B</text>
  <text x="268.7" y="366" text-anchor="middle" fill="#374151" font-size="9.5">128 B</text>
  <text x="313.3" y="366" text-anchor="middle" fill="#374151" font-size="9.5">256 B</text>
  <text x="358.0" y="366" text-anchor="middle" fill="#374151" font-size="9.5">512 B</text>
  <text x="402.7" y="366" text-anchor="middle" fill="#374151" font-size="9.5">1 KiB</text>
  <text x="447.3" y="366" text-anchor="middle" fill="#374151" font-size="9.5">2 KiB</text>
  <text x="492.0" y="366" text-anchor="middle" fill="#374151" font-size="9.5">4 KiB</text>
  <text x="536.7" y="366" text-anchor="middle" fill="#374151" font-size="9.5">8 KiB</text>
  <text x="581.3" y="366" text-anchor="middle" fill="#374151" font-size="9.5">16 KiB</text>
  <text x="626.0" y="366" text-anchor="middle" fill="#374151" font-size="9.5">32 KiB</text>
  <text x="670.7" y="366" text-anchor="middle" fill="#374151" font-size="9.5">64 KiB</text>
  <text x="715.3" y="366" text-anchor="middle" fill="#374151" font-size="9.5">128 KiB</text>
  <text x="760.0" y="366" text-anchor="middle" fill="#374151" font-size="9.5">256 KiB</text>
  <text x="40" y="197.5" text-anchor="middle" dominant-baseline="middle" fill="#374151" font-size="11" font-weight="600" transform="rotate(-90,40,197.5)">msg/s</text>
  <text x="812" y="197.5" text-anchor="middle" dominant-baseline="middle" fill="#6b7280" font-size="11" font-weight="600" transform="rotate(90,812,197.5)">throughput</text>
  <text x="425.0" y="22" text-anchor="middle" fill="#111827" font-size="14" font-weight="700">PUSH/PULL throughput: mechanism overhead, 2-process (omq-compio, TCP)</text>
  <polyline points="90.0,122.6 134.7,148.8 179.3,167.1 224.0,193.1 268.7,232.9 313.3,267.0 358.0,291.9 402.7,310.1 447.3,325.0 492.0,333.5 536.7,341.5 581.3,345.3 626.0,348.0 670.7,348.8 715.3,349.1 760.0,349.5" fill="none" stroke="#374151" stroke-width="2" stroke-dasharray="6,4"/>
  <polyline points="90.0,339.9 134.7,340.2 179.3,340.8 224.0,342.3 268.7,342.8 313.3,343.4 358.0,344.7 402.7,346.2 447.3,347.6 492.0,348.5 536.7,349.2 581.3,349.6 626.0,349.8 670.7,349.9 715.3,349.9 760.0,350.0" fill="none" stroke="#dc2626" stroke-width="2" stroke-dasharray="6,4"/>
  <polyline points="90.0,333.3 134.7,332.6 179.3,332.8 224.0,334.2 268.7,336.4 313.3,337.7 358.0,339.6 402.7,343.3 447.3,346.2 492.0,347.5 536.7,348.5 581.3,349.1 626.0,349.6 670.7,349.7 715.3,349.9 760.0,349.9" fill="none" stroke="#2563eb" stroke-width="2" stroke-dasharray="6,4"/>
  <polyline points="90.0,346.4 134.7,343.7 179.3,338.6 224.0,330.4 268.7,320.7 313.3,308.5 358.0,291.9 402.7,270.2 447.3,250.0 492.0,217.7 536.7,214.6 581.3,198.0 626.0,220.6 670.7,200.8 715.3,123.6 760.0,96.4" fill="none" stroke="#374151" stroke-width="2.5" stroke-linecap="round" stroke-linejoin="round"/>
  <circle cx="90.0" cy="346.4" r="3" fill="#374151" stroke="white" stroke-width="1"/>
  <circle cx="134.7" cy="343.7" r="3" fill="#374151" stroke="white" stroke-width="1"/>
  <circle cx="179.3" cy="338.6" r="3" fill="#374151" stroke="white" stroke-width="1"/>
  <circle cx="224.0" cy="330.4" r="3" fill="#374151" stroke="white" stroke-width="1"/>
  <circle cx="268.7" cy="320.7" r="3" fill="#374151" stroke="white" stroke-width="1"/>
  <circle cx="313.3" cy="308.5" r="3" fill="#374151" stroke="white" stroke-width="1"/>
  <circle cx="358.0" cy="291.9" r="3" fill="#374151" stroke="white" stroke-width="1"/>
  <circle cx="402.7" cy="270.2" r="3" fill="#374151" stroke="white" stroke-width="1"/>
  <circle cx="447.3" cy="250.0" r="3" fill="#374151" stroke="white" stroke-width="1"/>
  <circle cx="492.0" cy="217.7" r="3" fill="#374151" stroke="white" stroke-width="1"/>
  <circle cx="536.7" cy="214.6" r="3" fill="#374151" stroke="white" stroke-width="1"/>
  <circle cx="581.3" cy="198.0" r="3" fill="#374151" stroke="white" stroke-width="1"/>
  <circle cx="626.0" cy="220.6" r="3" fill="#374151" stroke="white" stroke-width="1"/>
  <circle cx="670.7" cy="200.8" r="3" fill="#374151" stroke="white" stroke-width="1"/>
  <circle cx="715.3" cy="123.6" r="3" fill="#374151" stroke="white" stroke-width="1"/>
  <circle cx="760.0" cy="96.4" r="3" fill="#374151" stroke="white" stroke-width="1"/>
  <polyline points="90.0,349.8 134.7,349.7 179.3,349.4 224.0,349.0 268.7,348.2 313.3,346.7 358.0,344.7 402.7,342.4 447.3,340.3 492.0,337.9 536.7,337.7 581.3,335.8 626.0,337.2 670.7,336.0 715.3,335.4 760.0,335.9" fill="none" stroke="#dc2626" stroke-width="2.5" stroke-linecap="round" stroke-linejoin="round"/>
  <circle cx="90.0" cy="349.8" r="3" fill="#dc2626" stroke="white" stroke-width="1"/>
  <circle cx="134.7" cy="349.7" r="3" fill="#dc2626" stroke="white" stroke-width="1"/>
  <circle cx="179.3" cy="349.4" r="3" fill="#dc2626" stroke="white" stroke-width="1"/>
  <circle cx="224.0" cy="349.0" r="3" fill="#dc2626" stroke="white" stroke-width="1"/>
  <circle cx="268.7" cy="348.2" r="3" fill="#dc2626" stroke="white" stroke-width="1"/>
  <circle cx="313.3" cy="346.7" r="3" fill="#dc2626" stroke="white" stroke-width="1"/>
  <circle cx="358.0" cy="344.7" r="3" fill="#dc2626" stroke="white" stroke-width="1"/>
  <circle cx="402.7" cy="342.4" r="3" fill="#dc2626" stroke="white" stroke-width="1"/>
  <circle cx="447.3" cy="340.3" r="3" fill="#dc2626" stroke="white" stroke-width="1"/>
  <circle cx="492.0" cy="337.9" r="3" fill="#dc2626" stroke="white" stroke-width="1"/>
  <circle cx="536.7" cy="337.7" r="3" fill="#dc2626" stroke="white" stroke-width="1"/>
  <circle cx="581.3" cy="335.8" r="3" fill="#dc2626" stroke="white" stroke-width="1"/>
  <circle cx="626.0" cy="337.2" r="3" fill="#dc2626" stroke="white" stroke-width="1"/>
  <circle cx="670.7" cy="336.0" r="3" fill="#dc2626" stroke="white" stroke-width="1"/>
  <circle cx="715.3" cy="335.4" r="3" fill="#dc2626" stroke="white" stroke-width="1"/>
  <circle cx="760.0" cy="335.9" r="3" fill="#dc2626" stroke="white" stroke-width="1"/>
  <polyline points="90.0,349.7 134.7,349.5 179.3,348.9 224.0,348.0 268.7,346.6 313.3,343.9 358.0,339.6 402.7,336.6 447.3,334.6 492.0,329.6 536.7,326.4 581.3,319.7 626.0,322.4 670.7,317.8 715.3,316.9 760.0,318.1" fill="none" stroke="#2563eb" stroke-width="2.5" stroke-linecap="round" stroke-linejoin="round"/>
  <circle cx="90.0" cy="349.7" r="3" fill="#2563eb" stroke="white" stroke-width="1"/>
  <circle cx="134.7" cy="349.5" r="3" fill="#2563eb" stroke="white" stroke-width="1"/>
  <circle cx="179.3" cy="348.9" r="3" fill="#2563eb" stroke="white" stroke-width="1"/>
  <circle cx="224.0" cy="348.0" r="3" fill="#2563eb" stroke="white" stroke-width="1"/>
  <circle cx="268.7" cy="346.6" r="3" fill="#2563eb" stroke="white" stroke-width="1"/>
  <circle cx="313.3" cy="343.9" r="3" fill="#2563eb" stroke="white" stroke-width="1"/>
  <circle cx="358.0" cy="339.6" r="3" fill="#2563eb" stroke="white" stroke-width="1"/>
  <circle cx="402.7" cy="336.6" r="3" fill="#2563eb" stroke="white" stroke-width="1"/>
  <circle cx="447.3" cy="334.6" r="3" fill="#2563eb" stroke="white" stroke-width="1"/>
  <circle cx="492.0" cy="329.6" r="3" fill="#2563eb" stroke="white" stroke-width="1"/>
  <circle cx="536.7" cy="326.4" r="3" fill="#2563eb" stroke="white" stroke-width="1"/>
  <circle cx="581.3" cy="319.7" r="3" fill="#2563eb" stroke="white" stroke-width="1"/>
  <circle cx="626.0" cy="322.4" r="3" fill="#2563eb" stroke="white" stroke-width="1"/>
  <circle cx="670.7" cy="317.8" r="3" fill="#2563eb" stroke="white" stroke-width="1"/>
  <circle cx="715.3" cy="316.9" r="3" fill="#2563eb" stroke="white" stroke-width="1"/>
  <circle cx="760.0" cy="318.1" r="3" fill="#2563eb" stroke="white" stroke-width="1"/>
  <line x1="147" y1="388" x2="161" y2="388" stroke="#374151" stroke-width="2" stroke-dasharray="4,3"/>
  <line x1="147" y1="400" x2="161" y2="400" stroke="#374151" stroke-width="2.5"/>
  <text x="165" y="392" fill="#374151" font-size="10" font-weight="500">NULL (no crypto)</text>
  <line x1="387" y1="388" x2="401" y2="388" stroke="#dc2626" stroke-width="2" stroke-dasharray="4,3"/>
  <line x1="387" y1="400" x2="401" y2="400" stroke="#dc2626" stroke-width="2.5"/>
  <text x="405" y="392" fill="#374151" font-size="10" font-weight="500">CURVE</text>
  <line x1="587" y1="388" x2="601" y2="388" stroke="#2563eb" stroke-width="2" stroke-dasharray="4,3"/>
  <line x1="587" y1="400" x2="601" y2="400" stroke="#2563eb" stroke-width="2.5"/>
  <text x="605" y="392" fill="#374151" font-size="10" font-weight="500">BLAKE3ZMQ</text>
  <text x="425.0" y="418" text-anchor="middle" fill="#9ca3af" font-size="9">dashed = msg/s (left) · solid = throughput (right)</text>
</svg>
