<svg xmlns="http://www.w3.org/2000/svg" viewBox="0 0 850 440" font-family="system-ui, -apple-system, sans-serif">
  <rect width="850" height="440" fill="white"/>
  <line x1="90" y1="350.0" x2="760" y2="350.0" stroke="#e5e7eb" stroke-width="1"/>
  <text x="82" y="350.0" text-anchor="end" dominant-baseline="middle" fill="#374151" font-size="10">1k</text>
  <line x1="90" y1="273.8" x2="760" y2="273.8" stroke="#e5e7eb" stroke-width="1"/>
  <text x="82" y="273.8" text-anchor="end" dominant-baseline="middle" fill="#374151" font-size="10">10k</text>
  <line x1="90" y1="197.5" x2="760" y2="197.5" stroke="#e5e7eb" stroke-width="1"/>
  <text x="82" y="197.5" text-anchor="end" dominant-baseline="middle" fill="#374151" font-size="10">100k</text>
  <line x1="90" y1="121.2" x2="760" y2="121.2" stroke="#e5e7eb" stroke-width="1"/>
  <text x="82" y="121.2" text-anchor="end" dominant-baseline="middle" fill="#374151" font-size="10">1M</text>
  <line x1="90" y1="45.0" x2="760" y2="45.0" stroke="#e5e7eb" stroke-width="1"/>
  <text x="82" y="45.0" text-anchor="end" dominant-baseline="middle" fill="#374151" font-size="10">10M</text>
  <line x1="90" y1="327.0" x2="760" y2="327.0" stroke="#f0f0f0" stroke-width="0.5"/>
  <text x="82" y="327.0" text-anchor="end" dominant-baseline="middle" fill="#9ca3af" font-size="8">2k</text>
  <line x1="90" y1="313.6" x2="760" y2="313.6" stroke="#f0f0f0" stroke-width="0.5"/>
  <text x="82" y="313.6" text-anchor="end" dominant-baseline="middle" fill="#9ca3af" font-size="8">3k</text>
  <line x1="90" y1="296.7" x2="760" y2="296.7" stroke="#f0f0f0" stroke-width="0.5"/>
  <text x="82" y="296.7" text-anchor="end" dominant-baseline="middle" fill="#9ca3af" font-size="8">5k</text>
  <line x1="90" y1="250.8" x2="760" y2="250.8" stroke="#f0f0f0" stroke-width="0.5"/>
  <text x="82" y="250.8" text-anchor="end" dominant-baseline="middle" fill="#9ca3af" font-size="8">20k</text>
  <line x1="90" y1="237.4" x2="760" y2="237.4" stroke="#f0f0f0" stroke-width="0.5"/>
  <text x="82" y="237.4" text-anchor="end" dominant-baseline="middle" fill="#9ca3af" font-size="8">30k</text>
  <line x1="90" y1="220.5" x2="760" y2="220.5" stroke="#f0f0f0" stroke-width="0.5"/>
  <text x="82" y="220.5" text-anchor="end" dominant-baseline="middle" fill="#9ca3af" font-size="8">50k</text>
  <line x1="90" y1="174.5" x2="760" y2="174.5" stroke="#f0f0f0" stroke-width="0.5"/>
  <text x="82" y="174.5" text-anchor="end" dominant-baseline="middle" fill="#9ca3af" font-size="8">200k</text>
  <line x1="90" y1="161.1" x2="760" y2="161.1" stroke="#f0f0f0" stroke-width="0.5"/>
  <text x="82" y="161.1" text-anchor="end" dominant-baseline="middle" fill="#9ca3af" font-size="8">300k</text>
  <line x1="90" y1="144.2" x2="760" y2="144.2" stroke="#f0f0f0" stroke-width="0.5"/>
  <text x="82" y="144.2" text-anchor="end" dominant-baseline="middle" fill="#9ca3af" font-size="8">500k</text>
  <line x1="90" y1="98.3" x2="760" y2="98.3" stroke="#f0f0f0" stroke-width="0.5"/>
  <text x="82" y="98.3" text-anchor="end" dominant-baseline="middle" fill="#9ca3af" font-size="8">2M</text>
  <line x1="90" y1="84.9" x2="760" y2="84.9" stroke="#f0f0f0" stroke-width="0.5"/>
  <text x="82" y="84.9" text-anchor="end" dominant-baseline="middle" fill="#9ca3af" font-size="8">3M</text>
  <line x1="90" y1="68.0" x2="760" y2="68.0" stroke="#f0f0f0" stroke-width="0.5"/>
  <text x="82" y="68.0" text-anchor="end" dominant-baseline="middle" fill="#9ca3af" font-size="8">5M</text>
  <line x1="90" y1="289.0" x2="760" y2="289.0" stroke="#e5e7eb" stroke-width="1" stroke-dasharray="3,6"/>
  <text x="768" y="289.0" text-anchor="start" dominant-baseline="middle" fill="#6b7280" font-size="10">2 GB/s</text>
  <line x1="90" y1="228.0" x2="760" y2="228.0" stroke="#e5e7eb" stroke-width="1" stroke-dasharray="3,6"/>
  <text x="768" y="228.0" text-anchor="start" dominant-baseline="middle" fill="#6b7280" font-size="10">4 GB/s</text>
  <line x1="90" y1="167.0" x2="760" y2="167.0" stroke="#e5e7eb" stroke-width="1" stroke-dasharray="3,6"/>
  <text x="768" y="167.0" text-anchor="start" dominant-baseline="middle" fill="#6b7280" font-size="10">6 GB/s</text>
  <line x1="90" y1="106.0" x2="760" y2="106.0" stroke="#e5e7eb" stroke-width="1" stroke-dasharray="3,6"/>
  <text x="768" y="106.0" text-anchor="start" dominant-baseline="middle" fill="#6b7280" font-size="10">8 GB/s</text>
  <line x1="90.0" y1="45" x2="90.0" y2="350" stroke="#e5e7eb" stroke-width="1"/>
  <line x1="201.7" y1="45" x2="201.7" y2="350" stroke="#e5e7eb" stroke-width="1"/>
  <line x1="313.3" y1="45" x2="313.3" y2="350" stroke="#e5e7eb" stroke-width="1"/>
  <line x1="425.0" y1="45" x2="425.0" y2="350" stroke="#e5e7eb" stroke-width="1"/>
  <line x1="536.7" y1="45" x2="536.7" y2="350" stroke="#e5e7eb" stroke-width="1"/>
  <line x1="648.3" y1="45" x2="648.3" y2="350" stroke="#e5e7eb" stroke-width="1"/>
  <line x1="760.0" y1="45" x2="760.0" y2="350" stroke="#e5e7eb" stroke-width="1"/>
  <line x1="90" y1="45" x2="90" y2="350" stroke="#9ca3af" stroke-width="1.5"/>
  <line x1="760" y1="45" x2="760" y2="350" stroke="#9ca3af" stroke-width="1.5"/>
  <line x1="90" y1="350" x2="760" y2="350" stroke="#9ca3af" stroke-width="1.5"/>
  <text x="90.0" y="366" text-anchor="middle" fill="#374151" font-size="9.5">32 B</text>
  <text x="201.7" y="366" text-anchor="middle" fill="#374151" font-size="9.5">128 B</text>
  <text x="313.3" y="366" text-anchor="middle" fill="#374151" font-size="9.5">512 B</text>
  <text x="425.0" y="366" text-anchor="middle" fill="#374151" font-size="9.5">2 KiB</text>
  <text x="536.7" y="366" text-anchor="middle" fill="#374151" font-size="9.5">8 KiB</text>
  <text x="648.3" y="366" text-anchor="middle" fill="#374151" font-size="9.5">32 KiB</text>
  <text x="760.0" y="366" text-anchor="middle" fill="#374151" font-size="9.5">128 KiB</text>
  <text x="40" y="197.5" text-anchor="middle" dominant-baseline="middle" fill="#374151" font-size="11" font-weight="600" transform="rotate(-90,40,197.5)">msg/s (log)</text>
  <text x="812" y="197.5" text-anchor="middle" dominant-baseline="middle" fill="#6b7280" font-size="11" font-weight="600" transform="rotate(90,812,197.5)">throughput</text>
  <text x="425.0" y="22" text-anchor="middle" fill="#111827" font-size="14" font-weight="700">PUSH/PULL throughput: mechanism overhead (omq-compio, TCP)</text>
  <polyline points="90.0,342.8 201.7,330.7 313.3,296.9 425.0,245.7 536.7,206.3 648.3,199.0 760.0,96.2" fill="none" stroke="#374151" stroke-width="2" stroke-dasharray="6,4"/>
  <polyline points="90.0,349.4 201.7,348.2 313.3,344.7 425.0,340.4 536.7,337.1 648.3,336.0 760.0,335.9" fill="none" stroke="#dc2626" stroke-width="2" stroke-dasharray="6,4"/>
  <polyline points="90.0,349.0 201.7,346.7 313.3,340.1 425.0,333.5 536.7,326.1 648.3,318.9 760.0,315.2" fill="none" stroke="#2563eb" stroke-width="2" stroke-dasharray="6,4"/>
  <polyline points="90.0,52.8 201.7,65.9 313.3,78.4 425.0,101.9 536.7,137.2 648.3,181.5 760.0,210.2" fill="none" stroke="#374151" stroke-width="2.5" stroke-linecap="round" stroke-linejoin="round"/>
  <circle cx="90.0" cy="52.8" r="3" fill="#374151" stroke="white" stroke-width="1"/>
  <circle cx="201.7" cy="65.9" r="3" fill="#374151" stroke="white" stroke-width="1"/>
  <circle cx="313.3" cy="78.4" r="3" fill="#374151" stroke="white" stroke-width="1"/>
  <circle cx="425.0" cy="101.9" r="3" fill="#374151" stroke="white" stroke-width="1"/>
  <circle cx="536.7" cy="137.2" r="3" fill="#374151" stroke="white" stroke-width="1"/>
  <circle cx="648.3" cy="181.5" r="3" fill="#374151" stroke="white" stroke-width="1"/>
  <circle cx="760.0" cy="210.2" r="3" fill="#374151" stroke="white" stroke-width="1"/>
  <polyline points="90.0,135.2 201.7,144.3 313.3,154.5 425.0,181.0 536.7,217.0 648.3,260.3 760.0,305.8" fill="none" stroke="#dc2626" stroke-width="2.5" stroke-linecap="round" stroke-linejoin="round"/>
  <circle cx="90.0" cy="135.2" r="3" fill="#dc2626" stroke="white" stroke-width="1"/>
  <circle cx="201.7" cy="144.3" r="3" fill="#dc2626" stroke="white" stroke-width="1"/>
  <circle cx="313.3" cy="154.5" r="3" fill="#dc2626" stroke="white" stroke-width="1"/>
  <circle cx="425.0" cy="181.0" r="3" fill="#dc2626" stroke="white" stroke-width="1"/>
  <circle cx="536.7" cy="217.0" r="3" fill="#dc2626" stroke="white" stroke-width="1"/>
  <circle cx="648.3" cy="260.3" r="3" fill="#dc2626" stroke="white" stroke-width="1"/>
  <circle cx="760.0" cy="305.8" r="3" fill="#dc2626" stroke="white" stroke-width="1"/>
  <polyline points="90.0,116.7 201.7,124.7 313.3,134.1 425.0,163.0 536.7,196.6 648.3,233.8 760.0,276.0" fill="none" stroke="#2563eb" stroke-width="2.5" stroke-linecap="round" stroke-linejoin="round"/>
  <circle cx="90.0" cy="116.7" r="3" fill="#2563eb" stroke="white" stroke-width="1"/>
  <circle cx="201.7" cy="124.7" r="3" fill="#2563eb" stroke="white" stroke-width="1"/>
  <circle cx="313.3" cy="134.1" r="3" fill="#2563eb" stroke="white" stroke-width="1"/>
  <circle cx="425.0" cy="163.0" r="3" fill="#2563eb" stroke="white" stroke-width="1"/>
  <circle cx="536.7" cy="196.6" r="3" fill="#2563eb" stroke="white" stroke-width="1"/>
  <circle cx="648.3" cy="233.8" r="3" fill="#2563eb" stroke="white" stroke-width="1"/>
  <circle cx="760.0" cy="276.0" r="3" fill="#2563eb" stroke="white" stroke-width="1"/>
  <line x1="147" y1="388" x2="161" y2="388" stroke="#374151" stroke-width="2.5"/>
  <line x1="147" y1="400" x2="161" y2="400" stroke="#374151" stroke-width="2" stroke-dasharray="4,3"/>
  <text x="165" y="392" fill="#374151" font-size="10" font-weight="500">NULL (no crypto)</text>
  <line x1="387" y1="388" x2="401" y2="388" stroke="#dc2626" stroke-width="2.5"/>
  <line x1="387" y1="400" x2="401" y2="400" stroke="#dc2626" stroke-width="2" stroke-dasharray="4,3"/>
  <text x="405" y="392" fill="#374151" font-size="10" font-weight="500">CURVE</text>
  <line x1="587" y1="388" x2="601" y2="388" stroke="#2563eb" stroke-width="2.5"/>
  <line x1="587" y1="400" x2="601" y2="400" stroke="#2563eb" stroke-width="2" stroke-dasharray="4,3"/>
  <text x="605" y="392" fill="#374151" font-size="10" font-weight="500">BLAKE3ZMQ</text>
  <text x="425.0" y="418" text-anchor="middle" fill="#9ca3af" font-size="9">solid = msg/s (left, log) · dashed = throughput (right, linear)</text>
</svg>
