<svg xmlns="http://www.w3.org/2000/svg" viewBox="0 0 850 440" font-family="system-ui, -apple-system, sans-serif">
  <rect width="850" height="440" fill="white"/>
  <line x1="90" y1="350.0" x2="760" y2="350.0" stroke="#e5e7eb" stroke-width="1"/>
  <text x="82" y="350.0" text-anchor="end" dominant-baseline="middle" fill="#374151" font-size="10">1k</text>
  <line x1="90" y1="273.8" x2="760" y2="273.8" stroke="#e5e7eb" stroke-width="1"/>
  <text x="82" y="273.8" text-anchor="end" dominant-baseline="middle" fill="#374151" font-size="10">10k</text>
  <line x1="90" y1="197.5" x2="760" y2="197.5" stroke="#e5e7eb" stroke-width="1"/>
  <text x="82" y="197.5" text-anchor="end" dominant-baseline="middle" fill="#374151" font-size="10">100k</text>
  <line x1="90" y1="121.2" x2="760" y2="121.2" stroke="#e5e7eb" stroke-width="1"/>
  <text x="82" y="121.2" text-anchor="end" dominant-baseline="middle" fill="#374151" font-size="10">1M</text>
  <line x1="90" y1="45.0" x2="760" y2="45.0" stroke="#e5e7eb" stroke-width="1"/>
  <text x="82" y="45.0" text-anchor="end" dominant-baseline="middle" fill="#374151" font-size="10">10M</text>
  <line x1="90" y1="327.0" x2="760" y2="327.0" stroke="#f0f0f0" stroke-width="0.5"/>
  <text x="82" y="327.0" text-anchor="end" dominant-baseline="middle" fill="#9ca3af" font-size="8">2k</text>
  <line x1="90" y1="313.6" x2="760" y2="313.6" stroke="#f0f0f0" stroke-width="0.5"/>
  <text x="82" y="313.6" text-anchor="end" dominant-baseline="middle" fill="#9ca3af" font-size="8">3k</text>
  <line x1="90" y1="296.7" x2="760" y2="296.7" stroke="#f0f0f0" stroke-width="0.5"/>
  <text x="82" y="296.7" text-anchor="end" dominant-baseline="middle" fill="#9ca3af" font-size="8">5k</text>
  <line x1="90" y1="250.8" x2="760" y2="250.8" stroke="#f0f0f0" stroke-width="0.5"/>
  <text x="82" y="250.8" text-anchor="end" dominant-baseline="middle" fill="#9ca3af" font-size="8">20k</text>
  <line x1="90" y1="237.4" x2="760" y2="237.4" stroke="#f0f0f0" stroke-width="0.5"/>
  <text x="82" y="237.4" text-anchor="end" dominant-baseline="middle" fill="#9ca3af" font-size="8">30k</text>
  <line x1="90" y1="220.5" x2="760" y2="220.5" stroke="#f0f0f0" stroke-width="0.5"/>
  <text x="82" y="220.5" text-anchor="end" dominant-baseline="middle" fill="#9ca3af" font-size="8">50k</text>
  <line x1="90" y1="174.5" x2="760" y2="174.5" stroke="#f0f0f0" stroke-width="0.5"/>
  <text x="82" y="174.5" text-anchor="end" dominant-baseline="middle" fill="#9ca3af" font-size="8">200k</text>
  <line x1="90" y1="161.1" x2="760" y2="161.1" stroke="#f0f0f0" stroke-width="0.5"/>
  <text x="82" y="161.1" text-anchor="end" dominant-baseline="middle" fill="#9ca3af" font-size="8">300k</text>
  <line x1="90" y1="144.2" x2="760" y2="144.2" stroke="#f0f0f0" stroke-width="0.5"/>
  <text x="82" y="144.2" text-anchor="end" dominant-baseline="middle" fill="#9ca3af" font-size="8">500k</text>
  <line x1="90" y1="98.3" x2="760" y2="98.3" stroke="#f0f0f0" stroke-width="0.5"/>
  <text x="82" y="98.3" text-anchor="end" dominant-baseline="middle" fill="#9ca3af" font-size="8">2M</text>
  <line x1="90" y1="84.9" x2="760" y2="84.9" stroke="#f0f0f0" stroke-width="0.5"/>
  <text x="82" y="84.9" text-anchor="end" dominant-baseline="middle" fill="#9ca3af" font-size="8">3M</text>
  <line x1="90" y1="68.0" x2="760" y2="68.0" stroke="#f0f0f0" stroke-width="0.5"/>
  <text x="82" y="68.0" text-anchor="end" dominant-baseline="middle" fill="#9ca3af" font-size="8">5M</text>
  <line x1="90" y1="289.0" x2="760" y2="289.0" stroke="#e5e7eb" stroke-width="1" stroke-dasharray="3,6"/>
  <text x="768" y="289.0" text-anchor="start" dominant-baseline="middle" fill="#6b7280" font-size="10">2 GB/s</text>
  <line x1="90" y1="228.0" x2="760" y2="228.0" stroke="#e5e7eb" stroke-width="1" stroke-dasharray="3,6"/>
  <text x="768" y="228.0" text-anchor="start" dominant-baseline="middle" fill="#6b7280" font-size="10">4 GB/s</text>
  <line x1="90" y1="167.0" x2="760" y2="167.0" stroke="#e5e7eb" stroke-width="1" stroke-dasharray="3,6"/>
  <text x="768" y="167.0" text-anchor="start" dominant-baseline="middle" fill="#6b7280" font-size="10">6 GB/s</text>
  <line x1="90" y1="106.0" x2="760" y2="106.0" stroke="#e5e7eb" stroke-width="1" stroke-dasharray="3,6"/>
  <text x="768" y="106.0" text-anchor="start" dominant-baseline="middle" fill="#6b7280" font-size="10">8 GB/s</text>
  <line x1="90.0" y1="45" x2="90.0" y2="350" stroke="#e5e7eb" stroke-width="1"/>
  <line x1="134.7" y1="45" x2="134.7" y2="350" stroke="#e5e7eb" stroke-width="1"/>
  <line x1="179.3" y1="45" x2="179.3" y2="350" stroke="#e5e7eb" stroke-width="1"/>
  <line x1="224.0" y1="45" x2="224.0" y2="350" stroke="#e5e7eb" stroke-width="1"/>
  <line x1="268.7" y1="45" x2="268.7" y2="350" stroke="#e5e7eb" stroke-width="1"/>
  <line x1="313.3" y1="45" x2="313.3" y2="350" stroke="#e5e7eb" stroke-width="1"/>
  <line x1="358.0" y1="45" x2="358.0" y2="350" stroke="#e5e7eb" stroke-width="1"/>
  <line x1="402.7" y1="45" x2="402.7" y2="350" stroke="#e5e7eb" stroke-width="1"/>
  <line x1="447.3" y1="45" x2="447.3" y2="350" stroke="#e5e7eb" stroke-width="1"/>
  <line x1="492.0" y1="45" x2="492.0" y2="350" stroke="#e5e7eb" stroke-width="1"/>
  <line x1="536.7" y1="45" x2="536.7" y2="350" stroke="#e5e7eb" stroke-width="1"/>
  <line x1="581.3" y1="45" x2="581.3" y2="350" stroke="#e5e7eb" stroke-width="1"/>
  <line x1="626.0" y1="45" x2="626.0" y2="350" stroke="#e5e7eb" stroke-width="1"/>
  <line x1="670.7" y1="45" x2="670.7" y2="350" stroke="#e5e7eb" stroke-width="1"/>
  <line x1="715.3" y1="45" x2="715.3" y2="350" stroke="#e5e7eb" stroke-width="1"/>
  <line x1="760.0" y1="45" x2="760.0" y2="350" stroke="#e5e7eb" stroke-width="1"/>
  <line x1="90" y1="45" x2="90" y2="350" stroke="#9ca3af" stroke-width="1.5"/>
  <line x1="760" y1="45" x2="760" y2="350" stroke="#9ca3af" stroke-width="1.5"/>
  <line x1="90" y1="350" x2="760" y2="350" stroke="#9ca3af" stroke-width="1.5"/>
  <text x="90.0" y="366" text-anchor="middle" fill="#374151" font-size="9.5">8 B</text>
  <text x="134.7" y="366" text-anchor="middle" fill="#374151" font-size="9.5">16 B</text>
  <text x="179.3" y="366" text-anchor="middle" fill="#374151" font-size="9.5">32 B</text>
  <text x="224.0" y="366" text-anchor="middle" fill="#374151" font-size="9.5">64 B</text>
  <text x="268.7" y="366" text-anchor="middle" fill="#374151" font-size="9.5">128 B</text>
  <text x="313.3" y="366" text-anchor="middle" fill="#374151" font-size="9.5">256 B</text>
  <text x="358.0" y="366" text-anchor="middle" fill="#374151" font-size="9.5">512 B</text>
  <text x="402.7" y="366" text-anchor="middle" fill="#374151" font-size="9.5">1 KiB</text>
  <text x="447.3" y="366" text-anchor="middle" fill="#374151" font-size="9.5">2 KiB</text>
  <text x="492.0" y="366" text-anchor="middle" fill="#374151" font-size="9.5">4 KiB</text>
  <text x="536.7" y="366" text-anchor="middle" fill="#374151" font-size="9.5">8 KiB</text>
  <text x="581.3" y="366" text-anchor="middle" fill="#374151" font-size="9.5">16 KiB</text>
  <text x="626.0" y="366" text-anchor="middle" fill="#374151" font-size="9.5">32 KiB</text>
  <text x="670.7" y="366" text-anchor="middle" fill="#374151" font-size="9.5">64 KiB</text>
  <text x="715.3" y="366" text-anchor="middle" fill="#374151" font-size="9.5">128 KiB</text>
  <text x="760.0" y="366" text-anchor="middle" fill="#374151" font-size="9.5">256 KiB</text>
  <text x="40" y="197.5" text-anchor="middle" dominant-baseline="middle" fill="#374151" font-size="11" font-weight="600" transform="rotate(-90,40,197.5)">msg/s (log)</text>
  <text x="812" y="197.5" text-anchor="middle" dominant-baseline="middle" fill="#6b7280" font-size="11" font-weight="600" transform="rotate(90,812,197.5)">throughput</text>
  <text x="425.0" y="22" text-anchor="middle" fill="#111827" font-size="14" font-weight="700">PUSH/PULL throughput: mechanism overhead (omq-compio, TCP)</text>
  <polyline points="90.0,348.0 134.7,346.2 179.3,343.1 224.0,336.9 268.7,328.8 313.3,313.3 358.0,293.6 402.7,271.0 447.3,244.8 492.0,228.9 536.7,206.5 581.3,196.5 626.0,210.6 670.7,211.9 715.3,130.9 760.0,105.4" fill="none" stroke="#374151" stroke-width="2" stroke-dasharray="6,4"/>
  <polyline points="90.0,349.9 134.7,349.7 179.3,349.4 224.0,349.1 268.7,348.3 313.3,346.9 358.0,344.8 402.7,342.8 447.3,340.1 492.0,338.9 536.7,337.9 581.3,337.0 626.0,336.6 670.7,335.5 715.3,335.8 760.0,335.5" fill="none" stroke="#dc2626" stroke-width="2" stroke-dasharray="6,4"/>
  <polyline points="90.0,349.7 134.7,349.4 179.3,348.9 224.0,347.9 268.7,346.6 313.3,343.8 358.0,339.6 402.7,336.3 447.3,333.7 492.0,328.6 536.7,325.4 581.3,320.0 626.0,320.7 670.7,320.5 715.3,317.0 760.0,318.5" fill="none" stroke="#2563eb" stroke-width="2" stroke-dasharray="6,4"/>
  <polyline points="90.0,51.1 134.7,52.7 179.3,55.7 224.0,57.4 268.7,64.4 313.3,69.2 358.0,78.0 402.7,89.7 447.3,103.2 492.0,121.5 536.7,138.8 581.3,159.5 626.0,185.7 670.7,209.0 715.3,216.6 760.0,235.9" fill="none" stroke="#374151" stroke-width="2.5" stroke-linecap="round" stroke-linejoin="round"/>
  <circle cx="90.0" cy="51.1" r="3" fill="#374151" stroke="white" stroke-width="1"/>
  <circle cx="134.7" cy="52.7" r="3" fill="#374151" stroke="white" stroke-width="1"/>
  <circle cx="179.3" cy="55.7" r="3" fill="#374151" stroke="white" stroke-width="1"/>
  <circle cx="224.0" cy="57.4" r="3" fill="#374151" stroke="white" stroke-width="1"/>
  <circle cx="268.7" cy="64.4" r="3" fill="#374151" stroke="white" stroke-width="1"/>
  <circle cx="313.3" cy="69.2" r="3" fill="#374151" stroke="white" stroke-width="1"/>
  <circle cx="358.0" cy="78.0" r="3" fill="#374151" stroke="white" stroke-width="1"/>
  <circle cx="402.7" cy="89.7" r="3" fill="#374151" stroke="white" stroke-width="1"/>
  <circle cx="447.3" cy="103.2" r="3" fill="#374151" stroke="white" stroke-width="1"/>
  <circle cx="492.0" cy="121.5" r="3" fill="#374151" stroke="white" stroke-width="1"/>
  <circle cx="536.7" cy="138.8" r="3" fill="#374151" stroke="white" stroke-width="1"/>
  <circle cx="581.3" cy="159.5" r="3" fill="#374151" stroke="white" stroke-width="1"/>
  <circle cx="626.0" cy="185.7" r="3" fill="#374151" stroke="white" stroke-width="1"/>
  <circle cx="670.7" cy="209.0" r="3" fill="#374151" stroke="white" stroke-width="1"/>
  <circle cx="715.3" cy="216.6" r="3" fill="#374151" stroke="white" stroke-width="1"/>
  <circle cx="760.0" cy="235.9" r="3" fill="#374151" stroke="white" stroke-width="1"/>
  <polyline points="90.0,137.3 134.7,135.5 179.3,138.6 224.0,144.7 268.7,147.9 313.3,150.8 358.0,156.8 402.7,168.9 447.3,181.6 492.0,200.7 536.7,220.6 581.3,241.3 626.0,263.3 670.7,283.5 715.3,307.2 760.0,329.4" fill="none" stroke="#dc2626" stroke-width="2.5" stroke-linecap="round" stroke-linejoin="round"/>
  <circle cx="90.0" cy="137.3" r="3" fill="#dc2626" stroke="white" stroke-width="1"/>
  <circle cx="134.7" cy="135.5" r="3" fill="#dc2626" stroke="white" stroke-width="1"/>
  <circle cx="179.3" cy="138.6" r="3" fill="#dc2626" stroke="white" stroke-width="1"/>
  <circle cx="224.0" cy="144.7" r="3" fill="#dc2626" stroke="white" stroke-width="1"/>
  <circle cx="268.7" cy="147.9" r="3" fill="#dc2626" stroke="white" stroke-width="1"/>
  <circle cx="313.3" cy="150.8" r="3" fill="#dc2626" stroke="white" stroke-width="1"/>
  <circle cx="358.0" cy="156.8" r="3" fill="#dc2626" stroke="white" stroke-width="1"/>
  <circle cx="402.7" cy="168.9" r="3" fill="#dc2626" stroke="white" stroke-width="1"/>
  <circle cx="447.3" cy="181.6" r="3" fill="#dc2626" stroke="white" stroke-width="1"/>
  <circle cx="492.0" cy="200.7" r="3" fill="#dc2626" stroke="white" stroke-width="1"/>
  <circle cx="536.7" cy="220.6" r="3" fill="#dc2626" stroke="white" stroke-width="1"/>
  <circle cx="581.3" cy="241.3" r="3" fill="#dc2626" stroke="white" stroke-width="1"/>
  <circle cx="626.0" cy="263.3" r="3" fill="#dc2626" stroke="white" stroke-width="1"/>
  <circle cx="670.7" cy="283.5" r="3" fill="#dc2626" stroke="white" stroke-width="1"/>
  <circle cx="715.3" cy="307.2" r="3" fill="#dc2626" stroke="white" stroke-width="1"/>
  <circle cx="760.0" cy="329.4" r="3" fill="#dc2626" stroke="white" stroke-width="1"/>
  <polyline points="90.0,116.3 134.7,116.4 179.3,117.0 224.0,118.8 268.7,124.7 313.3,128.0 358.0,133.8 402.7,147.7 447.3,165.0 492.0,178.9 536.7,197.2 581.3,213.6 626.0,237.3 670.7,260.1 715.3,279.3 760.0,303.8" fill="none" stroke="#2563eb" stroke-width="2.5" stroke-linecap="round" stroke-linejoin="round"/>
  <circle cx="90.0" cy="116.3" r="3" fill="#2563eb" stroke="white" stroke-width="1"/>
  <circle cx="134.7" cy="116.4" r="3" fill="#2563eb" stroke="white" stroke-width="1"/>
  <circle cx="179.3" cy="117.0" r="3" fill="#2563eb" stroke="white" stroke-width="1"/>
  <circle cx="224.0" cy="118.8" r="3" fill="#2563eb" stroke="white" stroke-width="1"/>
  <circle cx="268.7" cy="124.7" r="3" fill="#2563eb" stroke="white" stroke-width="1"/>
  <circle cx="313.3" cy="128.0" r="3" fill="#2563eb" stroke="white" stroke-width="1"/>
  <circle cx="358.0" cy="133.8" r="3" fill="#2563eb" stroke="white" stroke-width="1"/>
  <circle cx="402.7" cy="147.7" r="3" fill="#2563eb" stroke="white" stroke-width="1"/>
  <circle cx="447.3" cy="165.0" r="3" fill="#2563eb" stroke="white" stroke-width="1"/>
  <circle cx="492.0" cy="178.9" r="3" fill="#2563eb" stroke="white" stroke-width="1"/>
  <circle cx="536.7" cy="197.2" r="3" fill="#2563eb" stroke="white" stroke-width="1"/>
  <circle cx="581.3" cy="213.6" r="3" fill="#2563eb" stroke="white" stroke-width="1"/>
  <circle cx="626.0" cy="237.3" r="3" fill="#2563eb" stroke="white" stroke-width="1"/>
  <circle cx="670.7" cy="260.1" r="3" fill="#2563eb" stroke="white" stroke-width="1"/>
  <circle cx="715.3" cy="279.3" r="3" fill="#2563eb" stroke="white" stroke-width="1"/>
  <circle cx="760.0" cy="303.8" r="3" fill="#2563eb" stroke="white" stroke-width="1"/>
  <line x1="147" y1="388" x2="161" y2="388" stroke="#374151" stroke-width="2.5"/>
  <line x1="147" y1="400" x2="161" y2="400" stroke="#374151" stroke-width="2" stroke-dasharray="4,3"/>
  <text x="165" y="392" fill="#374151" font-size="10" font-weight="500">NULL (no crypto)</text>
  <line x1="387" y1="388" x2="401" y2="388" stroke="#dc2626" stroke-width="2.5"/>
  <line x1="387" y1="400" x2="401" y2="400" stroke="#dc2626" stroke-width="2" stroke-dasharray="4,3"/>
  <text x="405" y="392" fill="#374151" font-size="10" font-weight="500">CURVE</text>
  <line x1="587" y1="388" x2="601" y2="388" stroke="#2563eb" stroke-width="2.5"/>
  <line x1="587" y1="400" x2="601" y2="400" stroke="#2563eb" stroke-width="2" stroke-dasharray="4,3"/>
  <text x="605" y="392" fill="#374151" font-size="10" font-weight="500">BLAKE3ZMQ</text>
  <text x="425.0" y="418" text-anchor="middle" fill="#9ca3af" font-size="9">solid = msg/s (left, log) · dashed = throughput (right, linear)</text>
</svg>
