<svg xmlns="http://www.w3.org/2000/svg" viewBox="0 0 850 440" font-family="system-ui, -apple-system, sans-serif">
  <rect width="850" height="440" fill="white"/>
  <line x1="90" y1="451.7" x2="760" y2="451.7" stroke="#e5e7eb" stroke-width="1"/>
  <text x="82" y="451.7" text-anchor="end" dominant-baseline="middle" fill="#374151" font-size="10">1k</text>
  <line x1="90" y1="350.0" x2="760" y2="350.0" stroke="#e5e7eb" stroke-width="1"/>
  <text x="82" y="350.0" text-anchor="end" dominant-baseline="middle" fill="#374151" font-size="10">10k</text>
  <line x1="90" y1="248.3" x2="760" y2="248.3" stroke="#e5e7eb" stroke-width="1"/>
  <text x="82" y="248.3" text-anchor="end" dominant-baseline="middle" fill="#374151" font-size="10">100k</text>
  <line x1="90" y1="146.7" x2="760" y2="146.7" stroke="#e5e7eb" stroke-width="1"/>
  <text x="82" y="146.7" text-anchor="end" dominant-baseline="middle" fill="#374151" font-size="10">1M</text>
  <line x1="90" y1="45.0" x2="760" y2="45.0" stroke="#e5e7eb" stroke-width="1"/>
  <text x="82" y="45.0" text-anchor="end" dominant-baseline="middle" fill="#374151" font-size="10">10M</text>
  <line x1="90" y1="319.4" x2="760" y2="319.4" stroke="#f0f0f0" stroke-width="0.5"/>
  <text x="82" y="319.4" text-anchor="end" dominant-baseline="middle" fill="#9ca3af" font-size="8">20k</text>
  <line x1="90" y1="301.5" x2="760" y2="301.5" stroke="#f0f0f0" stroke-width="0.5"/>
  <text x="82" y="301.5" text-anchor="end" dominant-baseline="middle" fill="#9ca3af" font-size="8">30k</text>
  <line x1="90" y1="278.9" x2="760" y2="278.9" stroke="#f0f0f0" stroke-width="0.5"/>
  <text x="82" y="278.9" text-anchor="end" dominant-baseline="middle" fill="#9ca3af" font-size="8">50k</text>
  <line x1="90" y1="217.7" x2="760" y2="217.7" stroke="#f0f0f0" stroke-width="0.5"/>
  <text x="82" y="217.7" text-anchor="end" dominant-baseline="middle" fill="#9ca3af" font-size="8">200k</text>
  <line x1="90" y1="199.8" x2="760" y2="199.8" stroke="#f0f0f0" stroke-width="0.5"/>
  <text x="82" y="199.8" text-anchor="end" dominant-baseline="middle" fill="#9ca3af" font-size="8">300k</text>
  <line x1="90" y1="177.3" x2="760" y2="177.3" stroke="#f0f0f0" stroke-width="0.5"/>
  <text x="82" y="177.3" text-anchor="end" dominant-baseline="middle" fill="#9ca3af" font-size="8">500k</text>
  <line x1="90" y1="116.1" x2="760" y2="116.1" stroke="#f0f0f0" stroke-width="0.5"/>
  <text x="82" y="116.1" text-anchor="end" dominant-baseline="middle" fill="#9ca3af" font-size="8">2M</text>
  <line x1="90" y1="98.2" x2="760" y2="98.2" stroke="#f0f0f0" stroke-width="0.5"/>
  <text x="82" y="98.2" text-anchor="end" dominant-baseline="middle" fill="#9ca3af" font-size="8">3M</text>
  <line x1="90" y1="75.6" x2="760" y2="75.6" stroke="#f0f0f0" stroke-width="0.5"/>
  <text x="82" y="75.6" text-anchor="end" dominant-baseline="middle" fill="#9ca3af" font-size="8">5M</text>
  <line x1="90" y1="289.0" x2="760" y2="289.0" stroke="#e5e7eb" stroke-width="1" stroke-dasharray="3,6"/>
  <text x="768" y="289.0" text-anchor="start" dominant-baseline="middle" fill="#6b7280" font-size="10">2 GB/s</text>
  <line x1="90" y1="228.0" x2="760" y2="228.0" stroke="#e5e7eb" stroke-width="1" stroke-dasharray="3,6"/>
  <text x="768" y="228.0" text-anchor="start" dominant-baseline="middle" fill="#6b7280" font-size="10">4 GB/s</text>
  <line x1="90" y1="167.0" x2="760" y2="167.0" stroke="#e5e7eb" stroke-width="1" stroke-dasharray="3,6"/>
  <text x="768" y="167.0" text-anchor="start" dominant-baseline="middle" fill="#6b7280" font-size="10">6 GB/s</text>
  <line x1="90" y1="106.0" x2="760" y2="106.0" stroke="#e5e7eb" stroke-width="1" stroke-dasharray="3,6"/>
  <text x="768" y="106.0" text-anchor="start" dominant-baseline="middle" fill="#6b7280" font-size="10">8 GB/s</text>
  <line x1="90" y1="45.0" x2="760" y2="45.0" stroke="#e5e7eb" stroke-width="1" stroke-dasharray="3,6"/>
  <text x="768" y="45.0" text-anchor="start" dominant-baseline="middle" fill="#6b7280" font-size="10">10 GB/s</text>
  <line x1="90.0" y1="45" x2="90.0" y2="350" stroke="#e5e7eb" stroke-width="1"/>
  <line x1="134.7" y1="45" x2="134.7" y2="350" stroke="#e5e7eb" stroke-width="1"/>
  <line x1="179.3" y1="45" x2="179.3" y2="350" stroke="#e5e7eb" stroke-width="1"/>
  <line x1="224.0" y1="45" x2="224.0" y2="350" stroke="#e5e7eb" stroke-width="1"/>
  <line x1="268.7" y1="45" x2="268.7" y2="350" stroke="#e5e7eb" stroke-width="1"/>
  <line x1="313.3" y1="45" x2="313.3" y2="350" stroke="#e5e7eb" stroke-width="1"/>
  <line x1="358.0" y1="45" x2="358.0" y2="350" stroke="#e5e7eb" stroke-width="1"/>
  <line x1="402.7" y1="45" x2="402.7" y2="350" stroke="#e5e7eb" stroke-width="1"/>
  <line x1="447.3" y1="45" x2="447.3" y2="350" stroke="#e5e7eb" stroke-width="1"/>
  <line x1="492.0" y1="45" x2="492.0" y2="350" stroke="#e5e7eb" stroke-width="1"/>
  <line x1="536.7" y1="45" x2="536.7" y2="350" stroke="#e5e7eb" stroke-width="1"/>
  <line x1="581.3" y1="45" x2="581.3" y2="350" stroke="#e5e7eb" stroke-width="1"/>
  <line x1="626.0" y1="45" x2="626.0" y2="350" stroke="#e5e7eb" stroke-width="1"/>
  <line x1="670.7" y1="45" x2="670.7" y2="350" stroke="#e5e7eb" stroke-width="1"/>
  <line x1="715.3" y1="45" x2="715.3" y2="350" stroke="#e5e7eb" stroke-width="1"/>
  <line x1="760.0" y1="45" x2="760.0" y2="350" stroke="#e5e7eb" stroke-width="1"/>
  <line x1="90" y1="45" x2="90" y2="350" stroke="#9ca3af" stroke-width="1.5"/>
  <line x1="760" y1="45" x2="760" y2="350" stroke="#9ca3af" stroke-width="1.5"/>
  <line x1="90" y1="350" x2="760" y2="350" stroke="#9ca3af" stroke-width="1.5"/>
  <text x="90.0" y="366" text-anchor="middle" fill="#374151" font-size="9.5">8 B</text>
  <text x="134.7" y="366" text-anchor="middle" fill="#374151" font-size="9.5">16 B</text>
  <text x="179.3" y="366" text-anchor="middle" fill="#374151" font-size="9.5">32 B</text>
  <text x="224.0" y="366" text-anchor="middle" fill="#374151" font-size="9.5">64 B</text>
  <text x="268.7" y="366" text-anchor="middle" fill="#374151" font-size="9.5">128 B</text>
  <text x="313.3" y="366" text-anchor="middle" fill="#374151" font-size="9.5">256 B</text>
  <text x="358.0" y="366" text-anchor="middle" fill="#374151" font-size="9.5">512 B</text>
  <text x="402.7" y="366" text-anchor="middle" fill="#374151" font-size="9.5">1 KiB</text>
  <text x="447.3" y="366" text-anchor="middle" fill="#374151" font-size="9.5">2 KiB</text>
  <text x="492.0" y="366" text-anchor="middle" fill="#374151" font-size="9.5">4 KiB</text>
  <text x="536.7" y="366" text-anchor="middle" fill="#374151" font-size="9.5">8 KiB</text>
  <text x="581.3" y="366" text-anchor="middle" fill="#374151" font-size="9.5">16 KiB</text>
  <text x="626.0" y="366" text-anchor="middle" fill="#374151" font-size="9.5">32 KiB</text>
  <text x="670.7" y="366" text-anchor="middle" fill="#374151" font-size="9.5">64 KiB</text>
  <text x="715.3" y="366" text-anchor="middle" fill="#374151" font-size="9.5">128 KiB</text>
  <text x="760.0" y="366" text-anchor="middle" fill="#374151" font-size="9.5">256 KiB</text>
  <text x="40" y="197.5" text-anchor="middle" dominant-baseline="middle" fill="#374151" font-size="11" font-weight="600" transform="rotate(-90,40,197.5)">msg/s (log)</text>
  <text x="812" y="197.5" text-anchor="middle" dominant-baseline="middle" fill="#6b7280" font-size="11" font-weight="600" transform="rotate(90,812,197.5)">throughput</text>
  <text x="425.0" y="22" text-anchor="middle" fill="#111827" font-size="14" font-weight="700">PUSH/PULL throughput: TCP loopback</text>
  <polyline points="90.0,349.9 134.7,349.8 179.3,349.6 224.0,349.3 268.7,348.7 313.3,347.4 358.0,345.1 402.7,340.6 447.3,331.7 492.0,316.4 536.7,295.1 581.3,255.4 626.0,218.8 670.7,221.9 715.3,224.9 760.0,221.9" fill="none" stroke="#2563eb" stroke-width="2" stroke-dasharray="6,4"/>
  <polyline points="90.0,347.9 134.7,345.8 179.3,341.6 224.0,338.5 268.7,339.1 313.3,331.4 358.0,319.5 402.7,313.4 447.3,307.3 492.0,307.3 536.7,304.2 581.3,304.2 626.0,273.8 670.7,246.3 715.3,218.8 760.0,203.6" fill="none" stroke="#eab308" stroke-width="2" stroke-dasharray="6,4"/>
  <polyline points="90.0,348.1 134.7,346.2 179.3,343.3 224.0,337.2 268.7,328.9 313.3,316.4 358.0,292.1 402.7,267.6 447.3,234.1 492.0,212.8 536.7,200.5 581.3,197.5 626.0,179.2 670.7,188.3 715.3,93.8 760.0,90.8" fill="none" stroke="#dc2626" stroke-width="2" stroke-dasharray="6,4"/>
  <polyline points="90.0,348.2 134.7,347.3 179.3,343.5 224.0,339.2 268.7,329.2 313.3,313.4 358.0,282.9 402.7,249.4 447.3,212.8 492.0,200.5 536.7,185.3 581.3,179.2 626.0,191.4 670.7,221.9 715.3,200.5 760.0,142.6" fill="none" stroke="#f97316" stroke-width="2" stroke-dasharray="6,4"/>
  <polyline points="90.0,182.2 134.7,185.8 179.3,188.8 224.0,192.8 268.7,194.2 313.3,194.6 358.0,197.0 402.7,198.7 447.3,199.8 492.0,204.6 536.7,212.3 581.3,219.5 626.0,236.1 670.7,267.6 715.3,299.6 760.0,329.8" fill="none" stroke="#2563eb" stroke-width="2.5" stroke-linecap="round" stroke-linejoin="round"/>
  <circle cx="90.0" cy="182.2" r="3" fill="#2563eb" stroke="white" stroke-width="1"/>
  <circle cx="134.7" cy="185.8" r="3" fill="#2563eb" stroke="white" stroke-width="1"/>
  <circle cx="179.3" cy="188.8" r="3" fill="#2563eb" stroke="white" stroke-width="1"/>
  <circle cx="224.0" cy="192.8" r="3" fill="#2563eb" stroke="white" stroke-width="1"/>
  <circle cx="268.7" cy="194.2" r="3" fill="#2563eb" stroke="white" stroke-width="1"/>
  <circle cx="313.3" cy="194.6" r="3" fill="#2563eb" stroke="white" stroke-width="1"/>
  <circle cx="358.0" cy="197.0" r="3" fill="#2563eb" stroke="white" stroke-width="1"/>
  <circle cx="402.7" cy="198.7" r="3" fill="#2563eb" stroke="white" stroke-width="1"/>
  <circle cx="447.3" cy="199.8" r="3" fill="#2563eb" stroke="white" stroke-width="1"/>
  <circle cx="492.0" cy="204.6" r="3" fill="#2563eb" stroke="white" stroke-width="1"/>
  <circle cx="536.7" cy="212.3" r="3" fill="#2563eb" stroke="white" stroke-width="1"/>
  <circle cx="581.3" cy="219.5" r="3" fill="#2563eb" stroke="white" stroke-width="1"/>
  <circle cx="626.0" cy="236.1" r="3" fill="#2563eb" stroke="white" stroke-width="1"/>
  <circle cx="670.7" cy="267.6" r="3" fill="#2563eb" stroke="white" stroke-width="1"/>
  <circle cx="715.3" cy="299.6" r="3" fill="#2563eb" stroke="white" stroke-width="1"/>
  <circle cx="760.0" cy="329.8" r="3" fill="#2563eb" stroke="white" stroke-width="1"/>
  <polyline points="90.0,51.3 134.7,50.7 179.3,50.8 224.0,67.4 268.7,100.3 313.3,107.3 358.0,115.4 402.7,140.5 447.3,163.0 492.0,195.2 536.7,221.2 581.3,250.9 626.0,260.5 670.7,277.4 715.3,297.2 760.0,323.1" fill="none" stroke="#eab308" stroke-width="2.5" stroke-linecap="round" stroke-linejoin="round"/>
  <circle cx="90.0" cy="51.3" r="3" fill="#eab308" stroke="white" stroke-width="1"/>
  <circle cx="134.7" cy="50.7" r="3" fill="#eab308" stroke="white" stroke-width="1"/>
  <circle cx="179.3" cy="50.8" r="3" fill="#eab308" stroke="white" stroke-width="1"/>
  <circle cx="224.0" cy="67.4" r="3" fill="#eab308" stroke="white" stroke-width="1"/>
  <circle cx="268.7" cy="100.3" r="3" fill="#eab308" stroke="white" stroke-width="1"/>
  <circle cx="313.3" cy="107.3" r="3" fill="#eab308" stroke="white" stroke-width="1"/>
  <circle cx="358.0" cy="115.4" r="3" fill="#eab308" stroke="white" stroke-width="1"/>
  <circle cx="402.7" cy="140.5" r="3" fill="#eab308" stroke="white" stroke-width="1"/>
  <circle cx="447.3" cy="163.0" r="3" fill="#eab308" stroke="white" stroke-width="1"/>
  <circle cx="492.0" cy="195.2" r="3" fill="#eab308" stroke="white" stroke-width="1"/>
  <circle cx="536.7" cy="221.2" r="3" fill="#eab308" stroke="white" stroke-width="1"/>
  <circle cx="581.3" cy="250.9" r="3" fill="#eab308" stroke="white" stroke-width="1"/>
  <circle cx="626.0" cy="260.5" r="3" fill="#eab308" stroke="white" stroke-width="1"/>
  <circle cx="670.7" cy="277.4" r="3" fill="#eab308" stroke="white" stroke-width="1"/>
  <circle cx="715.3" cy="297.2" r="3" fill="#eab308" stroke="white" stroke-width="1"/>
  <circle cx="760.0" cy="323.1" r="3" fill="#eab308" stroke="white" stroke-width="1"/>
  <polyline points="90.0,54.7 134.7,55.7 179.3,60.5 224.0,62.7 268.7,71.0 313.3,80.8 358.0,89.0 402.7,104.5 447.3,119.0 492.0,142.9 536.7,169.7 581.3,198.7 626.0,224.4 670.7,257.5 715.3,268.2 760.0,298.0" fill="none" stroke="#dc2626" stroke-width="2.5" stroke-linecap="round" stroke-linejoin="round"/>
  <circle cx="90.0" cy="54.7" r="3" fill="#dc2626" stroke="white" stroke-width="1"/>
  <circle cx="134.7" cy="55.7" r="3" fill="#dc2626" stroke="white" stroke-width="1"/>
  <circle cx="179.3" cy="60.5" r="3" fill="#dc2626" stroke="white" stroke-width="1"/>
  <circle cx="224.0" cy="62.7" r="3" fill="#dc2626" stroke="white" stroke-width="1"/>
  <circle cx="268.7" cy="71.0" r="3" fill="#dc2626" stroke="white" stroke-width="1"/>
  <circle cx="313.3" cy="80.8" r="3" fill="#dc2626" stroke="white" stroke-width="1"/>
  <circle cx="358.0" cy="89.0" r="3" fill="#dc2626" stroke="white" stroke-width="1"/>
  <circle cx="402.7" cy="104.5" r="3" fill="#dc2626" stroke="white" stroke-width="1"/>
  <circle cx="447.3" cy="119.0" r="3" fill="#dc2626" stroke="white" stroke-width="1"/>
  <circle cx="492.0" cy="142.9" r="3" fill="#dc2626" stroke="white" stroke-width="1"/>
  <circle cx="536.7" cy="169.7" r="3" fill="#dc2626" stroke="white" stroke-width="1"/>
  <circle cx="581.3" cy="198.7" r="3" fill="#dc2626" stroke="white" stroke-width="1"/>
  <circle cx="626.0" cy="224.4" r="3" fill="#dc2626" stroke="white" stroke-width="1"/>
  <circle cx="670.7" cy="257.5" r="3" fill="#dc2626" stroke="white" stroke-width="1"/>
  <circle cx="715.3" cy="268.2" r="3" fill="#dc2626" stroke="white" stroke-width="1"/>
  <circle cx="760.0" cy="298.0" r="3" fill="#dc2626" stroke="white" stroke-width="1"/>
  <polyline points="90.0,58.4 134.7,70.7 179.3,62.0 224.0,69.9 268.7,71.7 313.3,76.9 358.0,81.3 402.7,95.2 447.3,111.9 492.0,138.6 536.7,165.1 581.3,194.0 626.0,227.6 670.7,267.6 715.3,291.5 760.0,308.0" fill="none" stroke="#f97316" stroke-width="2.5" stroke-linecap="round" stroke-linejoin="round"/>
  <circle cx="90.0" cy="58.4" r="3" fill="#f97316" stroke="white" stroke-width="1"/>
  <circle cx="134.7" cy="70.7" r="3" fill="#f97316" stroke="white" stroke-width="1"/>
  <circle cx="179.3" cy="62.0" r="3" fill="#f97316" stroke="white" stroke-width="1"/>
  <circle cx="224.0" cy="69.9" r="3" fill="#f97316" stroke="white" stroke-width="1"/>
  <circle cx="268.7" cy="71.7" r="3" fill="#f97316" stroke="white" stroke-width="1"/>
  <circle cx="313.3" cy="76.9" r="3" fill="#f97316" stroke="white" stroke-width="1"/>
  <circle cx="358.0" cy="81.3" r="3" fill="#f97316" stroke="white" stroke-width="1"/>
  <circle cx="402.7" cy="95.2" r="3" fill="#f97316" stroke="white" stroke-width="1"/>
  <circle cx="447.3" cy="111.9" r="3" fill="#f97316" stroke="white" stroke-width="1"/>
  <circle cx="492.0" cy="138.6" r="3" fill="#f97316" stroke="white" stroke-width="1"/>
  <circle cx="536.7" cy="165.1" r="3" fill="#f97316" stroke="white" stroke-width="1"/>
  <circle cx="581.3" cy="194.0" r="3" fill="#f97316" stroke="white" stroke-width="1"/>
  <circle cx="626.0" cy="227.6" r="3" fill="#f97316" stroke="white" stroke-width="1"/>
  <circle cx="670.7" cy="267.6" r="3" fill="#f97316" stroke="white" stroke-width="1"/>
  <circle cx="715.3" cy="291.5" r="3" fill="#f97316" stroke="white" stroke-width="1"/>
  <circle cx="760.0" cy="308.0" r="3" fill="#f97316" stroke="white" stroke-width="1"/>
  <line x1="167" y1="388" x2="181" y2="388" stroke="#eab308" stroke-width="2.5"/>
  <line x1="167" y1="400" x2="181" y2="400" stroke="#eab308" stroke-width="2" stroke-dasharray="4,3"/>
  <text x="185" y="392" fill="#374151" font-size="10" font-weight="500">libzmq</text>
  <line x1="327" y1="388" x2="341" y2="388" stroke="#dc2626" stroke-width="2.5"/>
  <line x1="327" y1="400" x2="341" y2="400" stroke="#dc2626" stroke-width="2" stroke-dasharray="4,3"/>
  <text x="345" y="392" fill="#374151" font-size="10" font-weight="500">omq-compio</text>
  <line x1="487" y1="388" x2="501" y2="388" stroke="#f97316" stroke-width="2.5"/>
  <line x1="487" y1="400" x2="501" y2="400" stroke="#f97316" stroke-width="2" stroke-dasharray="4,3"/>
  <text x="505" y="392" fill="#374151" font-size="10" font-weight="500">omq-tokio</text>
  <line x1="647" y1="388" x2="661" y2="388" stroke="#2563eb" stroke-width="2.5"/>
  <line x1="647" y1="400" x2="661" y2="400" stroke="#2563eb" stroke-width="2" stroke-dasharray="4,3"/>
  <text x="665" y="392" fill="#374151" font-size="10" font-weight="500">zmq.rs</text>
  <text x="425.0" y="418" text-anchor="middle" fill="#9ca3af" font-size="9">solid = msg/s (left, log) · dashed = throughput (right, linear)</text>
</svg>
