<svg xmlns="http://www.w3.org/2000/svg" viewBox="0 0 875 1097" font-family="system-ui, -apple-system, sans-serif">
  <rect width="875" height="1097" fill="white"/>
  <text x="395.0" y="46" text-anchor="middle" fill="#9ca3af" font-size="10">Linux VM on a 2018 Mac Mini, Intel Core i7-8700B @ 3.20GHz, 6 cores, performance governor, turbo off</text>
  <text x="395.0" y="32.0" text-anchor="middle" fill="#111827" font-size="13" font-weight="700">PUSH fan-in (2 PUSH → 1 PULL): TCP loopback</text>
  <line x1="90.0" y1="276.5" x2="700.0" y2="276.5" stroke="#e5e7eb" stroke-width="1"/>
  <text x="82.0" y="276.5" text-anchor="end" dominant-baseline="middle" fill="#374151" font-size="10">100%</text>
  <line x1="90.0" y1="244.0" x2="700.0" y2="244.0" stroke="#e5e7eb" stroke-width="1"/>
  <text x="82.0" y="244.0" text-anchor="end" dominant-baseline="middle" fill="#374151" font-size="10">200%</text>
  <line x1="90.0" y1="211.5" x2="700.0" y2="211.5" stroke="#e5e7eb" stroke-width="1"/>
  <text x="82.0" y="211.5" text-anchor="end" dominant-baseline="middle" fill="#374151" font-size="10">300%</text>
  <line x1="90.0" y1="179.0" x2="700.0" y2="179.0" stroke="#e5e7eb" stroke-width="1"/>
  <text x="82.0" y="179.0" text-anchor="end" dominant-baseline="middle" fill="#374151" font-size="10">400%</text>
  <line x1="90.0" y1="146.5" x2="700.0" y2="146.5" stroke="#e5e7eb" stroke-width="1"/>
  <text x="82.0" y="146.5" text-anchor="end" dominant-baseline="middle" fill="#374151" font-size="10">500%</text>
  <line x1="90.0" y1="114.0" x2="700.0" y2="114.0" stroke="#e5e7eb" stroke-width="1"/>
  <text x="82.0" y="114.0" text-anchor="end" dominant-baseline="middle" fill="#374151" font-size="10">600%</text>
  <line x1="90.0" y1="81.5" x2="700.0" y2="81.5" stroke="#e5e7eb" stroke-width="1"/>
  <text x="82.0" y="81.5" text-anchor="end" dominant-baseline="middle" fill="#374151" font-size="10">700%</text>
  <line x1="90.0" y1="49.0" x2="700.0" y2="49.0" stroke="#e5e7eb" stroke-width="1"/>
  <text x="82.0" y="49.0" text-anchor="end" dominant-baseline="middle" fill="#374151" font-size="10">800%</text>
  <line x1="90.0" y1="230.8" x2="700.0" y2="230.8" stroke="#e5e7eb" stroke-width="1" stroke-dasharray="3,6"/>
  <text x="708.0" y="230.8" text-anchor="start" dominant-baseline="middle" fill="#6b7280" font-size="10">2 GB/s</text>
  <line x1="90.0" y1="152.6" x2="700.0" y2="152.6" stroke="#e5e7eb" stroke-width="1" stroke-dasharray="3,6"/>
  <text x="708.0" y="152.6" text-anchor="start" dominant-baseline="middle" fill="#6b7280" font-size="10">4 GB/s</text>
  <line x1="90.0" y1="74.4" x2="700.0" y2="74.4" stroke="#e5e7eb" stroke-width="1" stroke-dasharray="3,6"/>
  <text x="708.0" y="74.4" text-anchor="start" dominant-baseline="middle" fill="#6b7280" font-size="10">6 GB/s</text>
  <text x="788.0" y="271.2" text-anchor="start" dominant-baseline="middle" fill="#9ca3af" font-size="10">2M/s</text>
  <text x="788.0" y="233.4" text-anchor="start" dominant-baseline="middle" fill="#9ca3af" font-size="10">4M/s</text>
  <text x="788.0" y="195.6" text-anchor="start" dominant-baseline="middle" fill="#9ca3af" font-size="10">6M/s</text>
  <text x="788.0" y="157.9" text-anchor="start" dominant-baseline="middle" fill="#9ca3af" font-size="10">8M/s</text>
  <text x="788.0" y="120.1" text-anchor="start" dominant-baseline="middle" fill="#9ca3af" font-size="10">10M/s</text>
  <text x="788.0" y="82.3" text-anchor="start" dominant-baseline="middle" fill="#9ca3af" font-size="10">12M/s</text>
  <line x1="90.0" y1="49.0" x2="90.0" y2="309.0" stroke="#e5e7eb" stroke-width="1"/>
  <line x1="140.8" y1="49.0" x2="140.8" y2="309.0" stroke="#e5e7eb" stroke-width="1"/>
  <line x1="191.7" y1="49.0" x2="191.7" y2="309.0" stroke="#e5e7eb" stroke-width="1"/>
  <line x1="242.5" y1="49.0" x2="242.5" y2="309.0" stroke="#e5e7eb" stroke-width="1"/>
  <line x1="293.3" y1="49.0" x2="293.3" y2="309.0" stroke="#e5e7eb" stroke-width="1"/>
  <line x1="344.2" y1="49.0" x2="344.2" y2="309.0" stroke="#e5e7eb" stroke-width="1"/>
  <line x1="395.0" y1="49.0" x2="395.0" y2="309.0" stroke="#e5e7eb" stroke-width="1"/>
  <line x1="445.8" y1="49.0" x2="445.8" y2="309.0" stroke="#e5e7eb" stroke-width="1"/>
  <line x1="496.7" y1="49.0" x2="496.7" y2="309.0" stroke="#e5e7eb" stroke-width="1"/>
  <line x1="547.5" y1="49.0" x2="547.5" y2="309.0" stroke="#e5e7eb" stroke-width="1"/>
  <line x1="598.3" y1="49.0" x2="598.3" y2="309.0" stroke="#e5e7eb" stroke-width="1"/>
  <line x1="649.2" y1="49.0" x2="649.2" y2="309.0" stroke="#e5e7eb" stroke-width="1"/>
  <line x1="700.0" y1="49.0" x2="700.0" y2="309.0" stroke="#e5e7eb" stroke-width="1"/>
  <line x1="90.0" y1="49.0" x2="90.0" y2="309.0" stroke="#9ca3af" stroke-width="1.5"/>
  <line x1="700.0" y1="49.0" x2="700.0" y2="309.0" stroke="#9ca3af" stroke-width="1.5"/>
  <line x1="90.0" y1="309.0" x2="700.0" y2="309.0" stroke="#9ca3af" stroke-width="1.5"/>
  <line x1="780.0" y1="49.0" x2="780.0" y2="309.0" stroke="#d1d5db" stroke-width="1"/>
  <text x="40.0" y="179.0" text-anchor="middle" fill="#374151" font-size="10" font-weight="600" transform="rotate(-90,40.0,179.0)">CPU %</text>
  <polyline points="90.0,155.5 140.8,161.3 191.7,165.5 242.5,123.1 293.3,114.8 344.2,106.5 395.0,158.7 445.8,159.4 496.7,195.9 547.5,196.5 598.3,189.4 649.2,191.6 700.0,186.6" fill="none" stroke="#eab308" stroke-width="1.6" stroke-dasharray="2,5" opacity="0.85"/>
  <polyline points="90.0,140.6 140.8,146.2 191.7,142.3 242.5,149.9 293.3,146.1 344.2,157.7 395.0,168.2 445.8,170.1 496.7,176.4 547.5,181.3 598.3,180.6 649.2,179.9 700.0,187.6" fill="none" stroke="#dc2626" stroke-width="1.6" stroke-dasharray="2,5" opacity="0.85"/>
  <polyline points="90.0,216.7 140.8,218.2 191.7,214.3 242.5,218.2 293.3,220.3 344.2,229.2 395.0,231.0 445.8,228.1 496.7,233.3 547.5,231.9 598.3,217.6 649.2,217.5 700.0,216.5" fill="none" stroke="#f97316" stroke-width="1.6" stroke-dasharray="2,5" opacity="0.85"/>
  <polyline points="90.0,217.2 140.8,224.3 191.7,219.3 242.5,228.1 293.3,230.3 344.2,233.3 395.0,233.9 445.8,234.7 496.7,214.7 547.5,199.5 598.3,193.0 649.2,189.0 700.0,188.3" fill="none" stroke="#16a34a" stroke-width="1.6" stroke-dasharray="2,5" opacity="0.85"/>
  <polyline points="90.0,199.5 140.8,200.8 191.7,204.1 242.5,209.0 293.3,209.9 344.2,210.7 395.0,211.4 445.8,211.7 496.7,208.0 547.5,199.4 598.3,239.2 649.2,248.9 700.0,251.5" fill="none" stroke="#2563eb" stroke-width="1.6" stroke-dasharray="2,5" opacity="0.85"/>
  <polyline points="90.0,147.2 140.8,152.5 191.7,153.7 242.5,180.2 293.3,223.4 344.2,232.6 395.0,258.8 445.8,280.1 496.7,293.5 547.5,301.2 598.3,304.8 649.2,306.6 700.0,307.3" fill="none" stroke="#eab308" stroke-width="2.0" stroke-dasharray="5,3"/>
  <polyline points="90.0,107.1 140.8,112.4 191.7,110.1 242.5,176.1 293.3,173.7 344.2,198.6 395.0,218.8 445.8,236.1 496.7,263.2 547.5,286.5 598.3,297.3 649.2,302.9 700.0,306.1" fill="none" stroke="#dc2626" stroke-width="2.0" stroke-dasharray="5,3"/>
  <polyline points="90.0,82.9 140.8,86.2 191.7,89.7 242.5,162.5 293.3,174.8 344.2,208.5 395.0,228.9 445.8,246.5 496.7,274.3 547.5,290.1 598.3,296.3 649.2,302.3 700.0,305.9" fill="none" stroke="#f97316" stroke-width="2.0" stroke-dasharray="5,3"/>
  <polyline points="90.0,264.3 140.8,264.4 191.7,261.6 242.5,265.6 293.3,263.3 344.2,266.7 395.0,270.5 445.8,277.9 496.7,279.6 547.5,288.2 598.3,296.9 649.2,302.6 700.0,305.9" fill="none" stroke="#16a34a" stroke-width="2.0" stroke-dasharray="5,3"/>
  <polyline points="90.0,286.7 140.8,292.7 191.7,296.1 242.5,297.9 293.3,298.8 344.2,299.3 395.0,295.3 445.8,295.1 496.7,290.8 547.5,297.6 598.3,302.7 649.2,305.7 700.0,307.3" fill="none" stroke="#2563eb" stroke-width="2.0" stroke-dasharray="5,3"/>
  <polyline points="90.0,306.3 140.8,303.8 191.7,298.7 242.5,291.9 293.3,286.3 344.2,268.5 395.0,255.8 445.8,247.8 496.7,243.2 547.5,243.1 598.3,238.1 649.2,226.9 700.0,193.5" fill="none" stroke="#eab308" stroke-width="2.0" stroke-linecap="round" stroke-linejoin="round"/>
  <circle cx="90.0" cy="306.3" r="2.2" fill="#eab308" stroke="white" stroke-width="1"/>
  <circle cx="140.8" cy="303.8" r="2.2" fill="#eab308" stroke="white" stroke-width="1"/>
  <circle cx="191.7" cy="298.7" r="2.2" fill="#eab308" stroke="white" stroke-width="1"/>
  <circle cx="242.5" cy="291.9" r="2.2" fill="#eab308" stroke="white" stroke-width="1"/>
  <circle cx="293.3" cy="286.3" r="2.2" fill="#eab308" stroke="white" stroke-width="1"/>
  <circle cx="344.2" cy="268.5" r="2.2" fill="#eab308" stroke="white" stroke-width="1"/>
  <circle cx="395.0" cy="255.8" r="2.2" fill="#eab308" stroke="white" stroke-width="1"/>
  <circle cx="445.8" cy="247.8" r="2.2" fill="#eab308" stroke="white" stroke-width="1"/>
  <circle cx="496.7" cy="243.2" r="2.2" fill="#eab308" stroke="white" stroke-width="1"/>
  <circle cx="547.5" cy="243.1" r="2.2" fill="#eab308" stroke="white" stroke-width="1"/>
  <circle cx="598.3" cy="238.1" r="2.2" fill="#eab308" stroke="white" stroke-width="1"/>
  <circle cx="649.2" cy="226.9" r="2.2" fill="#eab308" stroke="white" stroke-width="1"/>
  <circle cx="700.0" cy="193.5" r="2.2" fill="#eab308" stroke="white" stroke-width="1"/>
  <polyline points="90.0,305.7 140.8,302.5 191.7,295.8 242.5,291.4 293.3,273.2 344.2,250.5 395.0,213.4 445.8,154.6 496.7,114.9 547.5,117.9 598.3,110.7 649.2,103.3 700.0,113.7" fill="none" stroke="#dc2626" stroke-width="2.0" stroke-linecap="round" stroke-linejoin="round"/>
  <circle cx="90.0" cy="305.7" r="2.2" fill="#dc2626" stroke="white" stroke-width="1"/>
  <circle cx="140.8" cy="302.5" r="2.2" fill="#dc2626" stroke="white" stroke-width="1"/>
  <circle cx="191.7" cy="295.8" r="2.2" fill="#dc2626" stroke="white" stroke-width="1"/>
  <circle cx="242.5" cy="291.4" r="2.2" fill="#dc2626" stroke="white" stroke-width="1"/>
  <circle cx="293.3" cy="273.2" r="2.2" fill="#dc2626" stroke="white" stroke-width="1"/>
  <circle cx="344.2" cy="250.5" r="2.2" fill="#dc2626" stroke="white" stroke-width="1"/>
  <circle cx="395.0" cy="213.4" r="2.2" fill="#dc2626" stroke="white" stroke-width="1"/>
  <circle cx="445.8" cy="154.6" r="2.2" fill="#dc2626" stroke="white" stroke-width="1"/>
  <circle cx="496.7" cy="114.9" r="2.2" fill="#dc2626" stroke="white" stroke-width="1"/>
  <circle cx="547.5" cy="117.9" r="2.2" fill="#dc2626" stroke="white" stroke-width="1"/>
  <circle cx="598.3" cy="110.7" r="2.2" fill="#dc2626" stroke="white" stroke-width="1"/>
  <circle cx="649.2" cy="103.3" r="2.2" fill="#dc2626" stroke="white" stroke-width="1"/>
  <circle cx="700.0" cy="113.7" r="2.2" fill="#dc2626" stroke="white" stroke-width="1"/>
  <polyline points="90.0,305.3 140.8,301.6 191.7,294.5 242.5,289.6 293.3,273.4 344.2,255.7 395.0,224.1 445.8,176.4 496.7,161.8 547.5,149.2 598.3,92.8 649.2,82.9 700.0,99.4" fill="none" stroke="#f97316" stroke-width="2.0" stroke-linecap="round" stroke-linejoin="round"/>
  <circle cx="90.0" cy="305.3" r="2.2" fill="#f97316" stroke="white" stroke-width="1"/>
  <circle cx="140.8" cy="301.6" r="2.2" fill="#f97316" stroke="white" stroke-width="1"/>
  <circle cx="191.7" cy="294.5" r="2.2" fill="#f97316" stroke="white" stroke-width="1"/>
  <circle cx="242.5" cy="289.6" r="2.2" fill="#f97316" stroke="white" stroke-width="1"/>
  <circle cx="293.3" cy="273.4" r="2.2" fill="#f97316" stroke="white" stroke-width="1"/>
  <circle cx="344.2" cy="255.7" r="2.2" fill="#f97316" stroke="white" stroke-width="1"/>
  <circle cx="395.0" cy="224.1" r="2.2" fill="#f97316" stroke="white" stroke-width="1"/>
  <circle cx="445.8" cy="176.4" r="2.2" fill="#f97316" stroke="white" stroke-width="1"/>
  <circle cx="496.7" cy="161.8" r="2.2" fill="#f97316" stroke="white" stroke-width="1"/>
  <circle cx="547.5" cy="149.2" r="2.2" fill="#f97316" stroke="white" stroke-width="1"/>
  <circle cx="598.3" cy="92.8" r="2.2" fill="#f97316" stroke="white" stroke-width="1"/>
  <circle cx="649.2" cy="82.9" r="2.2" fill="#f97316" stroke="white" stroke-width="1"/>
  <circle cx="700.0" cy="99.4" r="2.2" fill="#f97316" stroke="white" stroke-width="1"/>
  <polyline points="90.0,308.3 140.8,307.5 191.7,305.9 242.5,303.2 293.3,296.9 344.2,286.6 395.0,268.2 445.8,243.2 496.7,184.2 547.5,132.2 598.3,103.0 649.2,91.1 700.0,99.9" fill="none" stroke="#16a34a" stroke-width="2.0" stroke-linecap="round" stroke-linejoin="round"/>
  <circle cx="90.0" cy="308.3" r="2.2" fill="#16a34a" stroke="white" stroke-width="1"/>
  <circle cx="140.8" cy="307.5" r="2.2" fill="#16a34a" stroke="white" stroke-width="1"/>
  <circle cx="191.7" cy="305.9" r="2.2" fill="#16a34a" stroke="white" stroke-width="1"/>
  <circle cx="242.5" cy="303.2" r="2.2" fill="#16a34a" stroke="white" stroke-width="1"/>
  <circle cx="293.3" cy="296.9" r="2.2" fill="#16a34a" stroke="white" stroke-width="1"/>
  <circle cx="344.2" cy="286.6" r="2.2" fill="#16a34a" stroke="white" stroke-width="1"/>
  <circle cx="395.0" cy="268.2" r="2.2" fill="#16a34a" stroke="white" stroke-width="1"/>
  <circle cx="445.8" cy="243.2" r="2.2" fill="#16a34a" stroke="white" stroke-width="1"/>
  <circle cx="496.7" cy="184.2" r="2.2" fill="#16a34a" stroke="white" stroke-width="1"/>
  <circle cx="547.5" cy="132.2" r="2.2" fill="#16a34a" stroke="white" stroke-width="1"/>
  <circle cx="598.3" cy="103.0" r="2.2" fill="#16a34a" stroke="white" stroke-width="1"/>
  <circle cx="649.2" cy="91.1" r="2.2" fill="#16a34a" stroke="white" stroke-width="1"/>
  <circle cx="700.0" cy="99.9" r="2.2" fill="#16a34a" stroke="white" stroke-width="1"/>
  <polyline points="90.0,308.6 140.8,308.5 191.7,308.1 242.5,307.5 293.3,306.3 344.2,303.9 395.0,294.5 445.8,279.6 496.7,231.8 547.5,212.4 598.3,201.4 649.2,197.0 700.0,193.2" fill="none" stroke="#2563eb" stroke-width="2.0" stroke-linecap="round" stroke-linejoin="round"/>
  <circle cx="90.0" cy="308.6" r="2.2" fill="#2563eb" stroke="white" stroke-width="1"/>
  <circle cx="140.8" cy="308.5" r="2.2" fill="#2563eb" stroke="white" stroke-width="1"/>
  <circle cx="191.7" cy="308.1" r="2.2" fill="#2563eb" stroke="white" stroke-width="1"/>
  <circle cx="242.5" cy="307.5" r="2.2" fill="#2563eb" stroke="white" stroke-width="1"/>
  <circle cx="293.3" cy="306.3" r="2.2" fill="#2563eb" stroke="white" stroke-width="1"/>
  <circle cx="344.2" cy="303.9" r="2.2" fill="#2563eb" stroke="white" stroke-width="1"/>
  <circle cx="395.0" cy="294.5" r="2.2" fill="#2563eb" stroke="white" stroke-width="1"/>
  <circle cx="445.8" cy="279.6" r="2.2" fill="#2563eb" stroke="white" stroke-width="1"/>
  <circle cx="496.7" cy="231.8" r="2.2" fill="#2563eb" stroke="white" stroke-width="1"/>
  <circle cx="547.5" cy="212.4" r="2.2" fill="#2563eb" stroke="white" stroke-width="1"/>
  <circle cx="598.3" cy="201.4" r="2.2" fill="#2563eb" stroke="white" stroke-width="1"/>
  <circle cx="649.2" cy="197.0" r="2.2" fill="#2563eb" stroke="white" stroke-width="1"/>
  <circle cx="700.0" cy="193.2" r="2.2" fill="#2563eb" stroke="white" stroke-width="1"/>
  <text x="90.0" y="323.0" text-anchor="middle" fill="#374151" font-size="8.5">8 B</text>
  <text x="140.8" y="323.0" text-anchor="middle" fill="#374151" font-size="8.5">16 B</text>
  <text x="191.7" y="323.0" text-anchor="middle" fill="#374151" font-size="8.5">32 B</text>
  <text x="242.5" y="323.0" text-anchor="middle" fill="#374151" font-size="8.5">64 B</text>
  <text x="293.3" y="323.0" text-anchor="middle" fill="#374151" font-size="8.5">128 B</text>
  <text x="344.2" y="323.0" text-anchor="middle" fill="#374151" font-size="8.5">256 B</text>
  <text x="395.0" y="323.0" text-anchor="middle" fill="#374151" font-size="8.5">512 B</text>
  <text x="445.8" y="323.0" text-anchor="middle" fill="#374151" font-size="8.5">1 KiB</text>
  <text x="496.7" y="323.0" text-anchor="middle" fill="#374151" font-size="8.5">2 KiB</text>
  <text x="547.5" y="323.0" text-anchor="middle" fill="#374151" font-size="8.5">4 KiB</text>
  <text x="598.3" y="323.0" text-anchor="middle" fill="#374151" font-size="8.5">8 KiB</text>
  <text x="649.2" y="323.0" text-anchor="middle" fill="#374151" font-size="8.5">16 KiB</text>
  <text x="700.0" y="323.0" text-anchor="middle" fill="#374151" font-size="8.5">32 KiB</text>
  <text x="395.0" y="362.0" text-anchor="middle" fill="#111827" font-size="13" font-weight="700">PUSH fan-in (4 PUSH → 1 PULL): TCP loopback</text>
  <line x1="90.0" y1="606.5" x2="700.0" y2="606.5" stroke="#e5e7eb" stroke-width="1"/>
  <text x="82.0" y="606.5" text-anchor="end" dominant-baseline="middle" fill="#374151" font-size="10">100%</text>
  <line x1="90.0" y1="574.0" x2="700.0" y2="574.0" stroke="#e5e7eb" stroke-width="1"/>
  <text x="82.0" y="574.0" text-anchor="end" dominant-baseline="middle" fill="#374151" font-size="10">200%</text>
  <line x1="90.0" y1="541.5" x2="700.0" y2="541.5" stroke="#e5e7eb" stroke-width="1"/>
  <text x="82.0" y="541.5" text-anchor="end" dominant-baseline="middle" fill="#374151" font-size="10">300%</text>
  <line x1="90.0" y1="509.0" x2="700.0" y2="509.0" stroke="#e5e7eb" stroke-width="1"/>
  <text x="82.0" y="509.0" text-anchor="end" dominant-baseline="middle" fill="#374151" font-size="10">400%</text>
  <line x1="90.0" y1="476.5" x2="700.0" y2="476.5" stroke="#e5e7eb" stroke-width="1"/>
  <text x="82.0" y="476.5" text-anchor="end" dominant-baseline="middle" fill="#374151" font-size="10">500%</text>
  <line x1="90.0" y1="444.0" x2="700.0" y2="444.0" stroke="#e5e7eb" stroke-width="1"/>
  <text x="82.0" y="444.0" text-anchor="end" dominant-baseline="middle" fill="#374151" font-size="10">600%</text>
  <line x1="90.0" y1="411.5" x2="700.0" y2="411.5" stroke="#e5e7eb" stroke-width="1"/>
  <text x="82.0" y="411.5" text-anchor="end" dominant-baseline="middle" fill="#374151" font-size="10">700%</text>
  <line x1="90.0" y1="379.0" x2="700.0" y2="379.0" stroke="#e5e7eb" stroke-width="1"/>
  <text x="82.0" y="379.0" text-anchor="end" dominant-baseline="middle" fill="#374151" font-size="10">800%</text>
  <line x1="90.0" y1="557.7" x2="700.0" y2="557.7" stroke="#e5e7eb" stroke-width="1" stroke-dasharray="3,6"/>
  <text x="708.0" y="557.7" text-anchor="start" dominant-baseline="middle" fill="#6b7280" font-size="10">2 GB/s</text>
  <line x1="90.0" y1="476.4" x2="700.0" y2="476.4" stroke="#e5e7eb" stroke-width="1" stroke-dasharray="3,6"/>
  <text x="708.0" y="476.4" text-anchor="start" dominant-baseline="middle" fill="#6b7280" font-size="10">4 GB/s</text>
  <line x1="90.0" y1="395.1" x2="700.0" y2="395.1" stroke="#e5e7eb" stroke-width="1" stroke-dasharray="3,6"/>
  <text x="708.0" y="395.1" text-anchor="start" dominant-baseline="middle" fill="#6b7280" font-size="10">6 GB/s</text>
  <text x="788.0" y="601.0" text-anchor="start" dominant-baseline="middle" fill="#9ca3af" font-size="10">2M/s</text>
  <text x="788.0" y="563.0" text-anchor="start" dominant-baseline="middle" fill="#9ca3af" font-size="10">4M/s</text>
  <text x="788.0" y="525.1" text-anchor="start" dominant-baseline="middle" fill="#9ca3af" font-size="10">6M/s</text>
  <text x="788.0" y="487.1" text-anchor="start" dominant-baseline="middle" fill="#9ca3af" font-size="10">8M/s</text>
  <text x="788.0" y="449.1" text-anchor="start" dominant-baseline="middle" fill="#9ca3af" font-size="10">10M/s</text>
  <text x="788.0" y="411.1" text-anchor="start" dominant-baseline="middle" fill="#9ca3af" font-size="10">12M/s</text>
  <line x1="90.0" y1="379.0" x2="90.0" y2="639.0" stroke="#e5e7eb" stroke-width="1"/>
  <line x1="140.8" y1="379.0" x2="140.8" y2="639.0" stroke="#e5e7eb" stroke-width="1"/>
  <line x1="191.7" y1="379.0" x2="191.7" y2="639.0" stroke="#e5e7eb" stroke-width="1"/>
  <line x1="242.5" y1="379.0" x2="242.5" y2="639.0" stroke="#e5e7eb" stroke-width="1"/>
  <line x1="293.3" y1="379.0" x2="293.3" y2="639.0" stroke="#e5e7eb" stroke-width="1"/>
  <line x1="344.2" y1="379.0" x2="344.2" y2="639.0" stroke="#e5e7eb" stroke-width="1"/>
  <line x1="395.0" y1="379.0" x2="395.0" y2="639.0" stroke="#e5e7eb" stroke-width="1"/>
  <line x1="445.8" y1="379.0" x2="445.8" y2="639.0" stroke="#e5e7eb" stroke-width="1"/>
  <line x1="496.7" y1="379.0" x2="496.7" y2="639.0" stroke="#e5e7eb" stroke-width="1"/>
  <line x1="547.5" y1="379.0" x2="547.5" y2="639.0" stroke="#e5e7eb" stroke-width="1"/>
  <line x1="598.3" y1="379.0" x2="598.3" y2="639.0" stroke="#e5e7eb" stroke-width="1"/>
  <line x1="649.2" y1="379.0" x2="649.2" y2="639.0" stroke="#e5e7eb" stroke-width="1"/>
  <line x1="700.0" y1="379.0" x2="700.0" y2="639.0" stroke="#e5e7eb" stroke-width="1"/>
  <line x1="90.0" y1="379.0" x2="90.0" y2="639.0" stroke="#9ca3af" stroke-width="1.5"/>
  <line x1="700.0" y1="379.0" x2="700.0" y2="639.0" stroke="#9ca3af" stroke-width="1.5"/>
  <line x1="90.0" y1="639.0" x2="700.0" y2="639.0" stroke="#9ca3af" stroke-width="1.5"/>
  <line x1="780.0" y1="379.0" x2="780.0" y2="639.0" stroke="#d1d5db" stroke-width="1"/>
  <text x="40.0" y="509.0" text-anchor="middle" fill="#374151" font-size="10" font-weight="600" transform="rotate(-90,40.0,509.0)">CPU %</text>
  <polyline points="90.0,490.2 140.8,507.0 191.7,483.9 242.5,445.6 293.3,443.1 344.2,458.8 395.0,489.6 445.8,496.9 496.7,514.6 547.5,525.7 598.3,524.2 649.2,529.2 700.0,529.6" fill="none" stroke="#eab308" stroke-width="1.6" stroke-dasharray="2,5" opacity="0.85"/>
  <polyline points="90.0,477.9 140.8,483.3 191.7,486.0 242.5,479.1 293.3,482.1 344.2,482.3 395.0,484.3 445.8,482.4 496.7,484.1 547.5,478.6 598.3,480.0 649.2,479.3 700.0,478.7" fill="none" stroke="#dc2626" stroke-width="1.6" stroke-dasharray="2,5" opacity="0.85"/>
  <polyline points="90.0,543.5 140.8,546.4 191.7,547.0 242.5,545.1 293.3,551.8 344.2,558.7 395.0,557.9 445.8,564.9 496.7,563.1 547.5,554.8 598.3,531.7 649.2,541.2 700.0,541.7" fill="none" stroke="#f97316" stroke-width="1.6" stroke-dasharray="2,5" opacity="0.85"/>
  <polyline points="90.0,512.3 140.8,519.7 191.7,529.0 242.5,526.8 293.3,531.0 344.2,532.9 395.0,532.6 445.8,535.4 496.7,519.5 547.5,508.2 598.3,496.9 649.2,492.0 700.0,488.4" fill="none" stroke="#16a34a" stroke-width="1.6" stroke-dasharray="2,5" opacity="0.85"/>
  <polyline points="90.0,453.0 140.8,456.6 191.7,462.2 242.5,470.0 293.3,478.5 344.2,489.9 395.0,504.1 445.8,524.6 496.7,546.2 547.5,563.6 598.3,574.1 649.2,580.4 700.0,581.7" fill="none" stroke="#2563eb" stroke-width="1.6" stroke-dasharray="2,5" opacity="0.85"/>
  <polyline points="90.0,465.0 140.8,460.4 191.7,464.9 242.5,492.4 293.3,529.2 344.2,555.3 395.0,586.3 445.8,609.8 496.7,622.8 547.5,630.6 598.3,634.8 649.2,636.4 700.0,637.3" fill="none" stroke="#eab308" stroke-width="2.0" stroke-dasharray="5,3"/>
  <polyline points="90.0,466.0 140.8,460.5 191.7,461.3 242.5,505.2 293.3,506.6 344.2,521.1 395.0,536.5 445.8,559.1 496.7,592.2 547.5,615.0 598.3,627.6 649.2,632.6 700.0,635.9" fill="none" stroke="#dc2626" stroke-width="2.0" stroke-dasharray="5,3"/>
  <polyline points="90.0,412.9 140.8,414.1 191.7,419.3 242.5,493.7 293.3,508.5 344.2,540.2 395.0,557.3 445.8,587.7 496.7,607.4 547.5,620.6 598.3,629.7 649.2,633.6 700.0,636.4" fill="none" stroke="#f97316" stroke-width="2.0" stroke-dasharray="5,3"/>
  <polyline points="90.0,600.9 140.8,601.6 191.7,600.1 242.5,599.9 293.3,599.8 344.2,599.2 395.0,599.0 445.8,603.2 496.7,607.2 547.5,619.0 598.3,627.1 649.2,632.7 700.0,635.9" fill="none" stroke="#16a34a" stroke-width="2.0" stroke-dasharray="5,3"/>
  <polyline points="90.0,601.9 140.8,585.1 191.7,585.9 242.5,587.4 293.3,590.4 344.2,595.5 395.0,601.9 445.8,611.9 496.7,620.6 547.5,627.9 598.3,632.9 649.2,635.8 700.0,637.4" fill="none" stroke="#2563eb" stroke-width="2.0" stroke-dasharray="5,3"/>
  <polyline points="90.0,636.0 140.8,632.9 191.7,627.1 242.5,618.9 293.3,608.9 344.2,593.2 395.0,581.3 445.8,574.9 496.7,568.2 547.5,565.7 598.3,564.5 649.2,548.9 700.0,516.8" fill="none" stroke="#eab308" stroke-width="2.0" stroke-linecap="round" stroke-linejoin="round"/>
  <circle cx="90.0" cy="636.0" r="2.2" fill="#eab308" stroke="white" stroke-width="1"/>
  <circle cx="140.8" cy="632.9" r="2.2" fill="#eab308" stroke="white" stroke-width="1"/>
  <circle cx="191.7" cy="627.1" r="2.2" fill="#eab308" stroke="white" stroke-width="1"/>
  <circle cx="242.5" cy="618.9" r="2.2" fill="#eab308" stroke="white" stroke-width="1"/>
  <circle cx="293.3" cy="608.9" r="2.2" fill="#eab308" stroke="white" stroke-width="1"/>
  <circle cx="344.2" cy="593.2" r="2.2" fill="#eab308" stroke="white" stroke-width="1"/>
  <circle cx="395.0" cy="581.3" r="2.2" fill="#eab308" stroke="white" stroke-width="1"/>
  <circle cx="445.8" cy="574.9" r="2.2" fill="#eab308" stroke="white" stroke-width="1"/>
  <circle cx="496.7" cy="568.2" r="2.2" fill="#eab308" stroke="white" stroke-width="1"/>
  <circle cx="547.5" cy="565.7" r="2.2" fill="#eab308" stroke="white" stroke-width="1"/>
  <circle cx="598.3" cy="564.5" r="2.2" fill="#eab308" stroke="white" stroke-width="1"/>
  <circle cx="649.2" cy="548.9" r="2.2" fill="#eab308" stroke="white" stroke-width="1"/>
  <circle cx="700.0" cy="516.8" r="2.2" fill="#eab308" stroke="white" stroke-width="1"/>
  <polyline points="90.0,636.0 140.8,632.9 191.7,626.8 242.5,620.7 293.3,602.7 344.2,574.4 395.0,526.6 445.8,463.8 496.7,433.9 547.5,428.4 598.3,439.0 649.2,412.9 700.0,419.4" fill="none" stroke="#dc2626" stroke-width="2.0" stroke-linecap="round" stroke-linejoin="round"/>
  <circle cx="90.0" cy="636.0" r="2.2" fill="#dc2626" stroke="white" stroke-width="1"/>
  <circle cx="140.8" cy="632.9" r="2.2" fill="#dc2626" stroke="white" stroke-width="1"/>
  <circle cx="191.7" cy="626.8" r="2.2" fill="#dc2626" stroke="white" stroke-width="1"/>
  <circle cx="242.5" cy="620.7" r="2.2" fill="#dc2626" stroke="white" stroke-width="1"/>
  <circle cx="293.3" cy="602.7" r="2.2" fill="#dc2626" stroke="white" stroke-width="1"/>
  <circle cx="344.2" cy="574.4" r="2.2" fill="#dc2626" stroke="white" stroke-width="1"/>
  <circle cx="395.0" cy="526.6" r="2.2" fill="#dc2626" stroke="white" stroke-width="1"/>
  <circle cx="445.8" cy="463.8" r="2.2" fill="#dc2626" stroke="white" stroke-width="1"/>
  <circle cx="496.7" cy="433.9" r="2.2" fill="#dc2626" stroke="white" stroke-width="1"/>
  <circle cx="547.5" cy="428.4" r="2.2" fill="#dc2626" stroke="white" stroke-width="1"/>
  <circle cx="598.3" cy="439.0" r="2.2" fill="#dc2626" stroke="white" stroke-width="1"/>
  <circle cx="649.2" cy="412.9" r="2.2" fill="#dc2626" stroke="white" stroke-width="1"/>
  <circle cx="700.0" cy="419.4" r="2.2" fill="#dc2626" stroke="white" stroke-width="1"/>
  <polyline points="90.0,635.1 140.8,631.3 191.7,623.9 242.5,619.1 293.3,603.2 344.2,584.8 395.0,549.5 445.8,526.6 496.7,500.4 547.5,477.7 598.3,476.6 649.2,448.3 700.0,454.6" fill="none" stroke="#f97316" stroke-width="2.0" stroke-linecap="round" stroke-linejoin="round"/>
  <circle cx="90.0" cy="635.1" r="2.2" fill="#f97316" stroke="white" stroke-width="1"/>
  <circle cx="140.8" cy="631.3" r="2.2" fill="#f97316" stroke="white" stroke-width="1"/>
  <circle cx="191.7" cy="623.9" r="2.2" fill="#f97316" stroke="white" stroke-width="1"/>
  <circle cx="242.5" cy="619.1" r="2.2" fill="#f97316" stroke="white" stroke-width="1"/>
  <circle cx="293.3" cy="603.2" r="2.2" fill="#f97316" stroke="white" stroke-width="1"/>
  <circle cx="344.2" cy="584.8" r="2.2" fill="#f97316" stroke="white" stroke-width="1"/>
  <circle cx="395.0" cy="549.5" r="2.2" fill="#f97316" stroke="white" stroke-width="1"/>
  <circle cx="445.8" cy="526.6" r="2.2" fill="#f97316" stroke="white" stroke-width="1"/>
  <circle cx="496.7" cy="500.4" r="2.2" fill="#f97316" stroke="white" stroke-width="1"/>
  <circle cx="547.5" cy="477.7" r="2.2" fill="#f97316" stroke="white" stroke-width="1"/>
  <circle cx="598.3" cy="476.6" r="2.2" fill="#f97316" stroke="white" stroke-width="1"/>
  <circle cx="649.2" cy="448.3" r="2.2" fill="#f97316" stroke="white" stroke-width="1"/>
  <circle cx="700.0" cy="454.6" r="2.2" fill="#f97316" stroke="white" stroke-width="1"/>
  <polyline points="90.0,638.3 140.8,637.7 191.7,636.3 242.5,633.6 293.3,628.3 344.2,617.2 395.0,595.1 445.8,560.5 496.7,499.5 547.5,463.7 598.3,430.5 649.2,419.0 700.0,423.1" fill="none" stroke="#16a34a" stroke-width="2.0" stroke-linecap="round" stroke-linejoin="round"/>
  <circle cx="90.0" cy="638.3" r="2.2" fill="#16a34a" stroke="white" stroke-width="1"/>
  <circle cx="140.8" cy="637.7" r="2.2" fill="#16a34a" stroke="white" stroke-width="1"/>
  <circle cx="191.7" cy="636.3" r="2.2" fill="#16a34a" stroke="white" stroke-width="1"/>
  <circle cx="242.5" cy="633.6" r="2.2" fill="#16a34a" stroke="white" stroke-width="1"/>
  <circle cx="293.3" cy="628.3" r="2.2" fill="#16a34a" stroke="white" stroke-width="1"/>
  <circle cx="344.2" cy="617.2" r="2.2" fill="#16a34a" stroke="white" stroke-width="1"/>
  <circle cx="395.0" cy="595.1" r="2.2" fill="#16a34a" stroke="white" stroke-width="1"/>
  <circle cx="445.8" cy="560.5" r="2.2" fill="#16a34a" stroke="white" stroke-width="1"/>
  <circle cx="496.7" cy="499.5" r="2.2" fill="#16a34a" stroke="white" stroke-width="1"/>
  <circle cx="547.5" cy="463.7" r="2.2" fill="#16a34a" stroke="white" stroke-width="1"/>
  <circle cx="598.3" cy="430.5" r="2.2" fill="#16a34a" stroke="white" stroke-width="1"/>
  <circle cx="649.2" cy="419.0" r="2.2" fill="#16a34a" stroke="white" stroke-width="1"/>
  <circle cx="700.0" cy="423.1" r="2.2" fill="#16a34a" stroke="white" stroke-width="1"/>
  <polyline points="90.0,638.4 140.8,637.2 191.7,635.4 242.5,631.9 293.3,625.7 344.2,615.1 395.0,598.4 445.8,579.7 496.7,558.2 547.5,541.6 598.3,532.1 649.2,526.1 700.0,528.2" fill="none" stroke="#2563eb" stroke-width="2.0" stroke-linecap="round" stroke-linejoin="round"/>
  <circle cx="90.0" cy="638.4" r="2.2" fill="#2563eb" stroke="white" stroke-width="1"/>
  <circle cx="140.8" cy="637.2" r="2.2" fill="#2563eb" stroke="white" stroke-width="1"/>
  <circle cx="191.7" cy="635.4" r="2.2" fill="#2563eb" stroke="white" stroke-width="1"/>
  <circle cx="242.5" cy="631.9" r="2.2" fill="#2563eb" stroke="white" stroke-width="1"/>
  <circle cx="293.3" cy="625.7" r="2.2" fill="#2563eb" stroke="white" stroke-width="1"/>
  <circle cx="344.2" cy="615.1" r="2.2" fill="#2563eb" stroke="white" stroke-width="1"/>
  <circle cx="395.0" cy="598.4" r="2.2" fill="#2563eb" stroke="white" stroke-width="1"/>
  <circle cx="445.8" cy="579.7" r="2.2" fill="#2563eb" stroke="white" stroke-width="1"/>
  <circle cx="496.7" cy="558.2" r="2.2" fill="#2563eb" stroke="white" stroke-width="1"/>
  <circle cx="547.5" cy="541.6" r="2.2" fill="#2563eb" stroke="white" stroke-width="1"/>
  <circle cx="598.3" cy="532.1" r="2.2" fill="#2563eb" stroke="white" stroke-width="1"/>
  <circle cx="649.2" cy="526.1" r="2.2" fill="#2563eb" stroke="white" stroke-width="1"/>
  <circle cx="700.0" cy="528.2" r="2.2" fill="#2563eb" stroke="white" stroke-width="1"/>
  <text x="90.0" y="653.0" text-anchor="middle" fill="#374151" font-size="8.5">8 B</text>
  <text x="140.8" y="653.0" text-anchor="middle" fill="#374151" font-size="8.5">16 B</text>
  <text x="191.7" y="653.0" text-anchor="middle" fill="#374151" font-size="8.5">32 B</text>
  <text x="242.5" y="653.0" text-anchor="middle" fill="#374151" font-size="8.5">64 B</text>
  <text x="293.3" y="653.0" text-anchor="middle" fill="#374151" font-size="8.5">128 B</text>
  <text x="344.2" y="653.0" text-anchor="middle" fill="#374151" font-size="8.5">256 B</text>
  <text x="395.0" y="653.0" text-anchor="middle" fill="#374151" font-size="8.5">512 B</text>
  <text x="445.8" y="653.0" text-anchor="middle" fill="#374151" font-size="8.5">1 KiB</text>
  <text x="496.7" y="653.0" text-anchor="middle" fill="#374151" font-size="8.5">2 KiB</text>
  <text x="547.5" y="653.0" text-anchor="middle" fill="#374151" font-size="8.5">4 KiB</text>
  <text x="598.3" y="653.0" text-anchor="middle" fill="#374151" font-size="8.5">8 KiB</text>
  <text x="649.2" y="653.0" text-anchor="middle" fill="#374151" font-size="8.5">16 KiB</text>
  <text x="700.0" y="653.0" text-anchor="middle" fill="#374151" font-size="8.5">32 KiB</text>
  <text x="395.0" y="692.0" text-anchor="middle" fill="#111827" font-size="13" font-weight="700">PUSH fan-in (8 PUSH → 1 PULL): TCP loopback</text>
  <line x1="90.0" y1="936.5" x2="700.0" y2="936.5" stroke="#e5e7eb" stroke-width="1"/>
  <text x="82.0" y="936.5" text-anchor="end" dominant-baseline="middle" fill="#374151" font-size="10">100%</text>
  <line x1="90.0" y1="904.0" x2="700.0" y2="904.0" stroke="#e5e7eb" stroke-width="1"/>
  <text x="82.0" y="904.0" text-anchor="end" dominant-baseline="middle" fill="#374151" font-size="10">200%</text>
  <line x1="90.0" y1="871.5" x2="700.0" y2="871.5" stroke="#e5e7eb" stroke-width="1"/>
  <text x="82.0" y="871.5" text-anchor="end" dominant-baseline="middle" fill="#374151" font-size="10">300%</text>
  <line x1="90.0" y1="839.0" x2="700.0" y2="839.0" stroke="#e5e7eb" stroke-width="1"/>
  <text x="82.0" y="839.0" text-anchor="end" dominant-baseline="middle" fill="#374151" font-size="10">400%</text>
  <line x1="90.0" y1="806.5" x2="700.0" y2="806.5" stroke="#e5e7eb" stroke-width="1"/>
  <text x="82.0" y="806.5" text-anchor="end" dominant-baseline="middle" fill="#374151" font-size="10">500%</text>
  <line x1="90.0" y1="774.0" x2="700.0" y2="774.0" stroke="#e5e7eb" stroke-width="1"/>
  <text x="82.0" y="774.0" text-anchor="end" dominant-baseline="middle" fill="#374151" font-size="10">600%</text>
  <line x1="90.0" y1="741.5" x2="700.0" y2="741.5" stroke="#e5e7eb" stroke-width="1"/>
  <text x="82.0" y="741.5" text-anchor="end" dominant-baseline="middle" fill="#374151" font-size="10">700%</text>
  <line x1="90.0" y1="709.0" x2="700.0" y2="709.0" stroke="#e5e7eb" stroke-width="1"/>
  <text x="82.0" y="709.0" text-anchor="end" dominant-baseline="middle" fill="#374151" font-size="10">800%</text>
  <line x1="90.0" y1="884.2" x2="700.0" y2="884.2" stroke="#e5e7eb" stroke-width="1" stroke-dasharray="3,6"/>
  <text x="708.0" y="884.2" text-anchor="start" dominant-baseline="middle" fill="#6b7280" font-size="10">2 GB/s</text>
  <line x1="90.0" y1="799.4" x2="700.0" y2="799.4" stroke="#e5e7eb" stroke-width="1" stroke-dasharray="3,6"/>
  <text x="708.0" y="799.4" text-anchor="start" dominant-baseline="middle" fill="#6b7280" font-size="10">4 GB/s</text>
  <line x1="90.0" y1="714.6" x2="700.0" y2="714.6" stroke="#e5e7eb" stroke-width="1" stroke-dasharray="3,6"/>
  <text x="708.0" y="714.6" text-anchor="start" dominant-baseline="middle" fill="#6b7280" font-size="10">6 GB/s</text>
  <text x="788.0" y="929.6" text-anchor="start" dominant-baseline="middle" fill="#9ca3af" font-size="10">2M/s</text>
  <text x="788.0" y="890.3" text-anchor="start" dominant-baseline="middle" fill="#9ca3af" font-size="10">4M/s</text>
  <text x="788.0" y="850.9" text-anchor="start" dominant-baseline="middle" fill="#9ca3af" font-size="10">6M/s</text>
  <text x="788.0" y="811.6" text-anchor="start" dominant-baseline="middle" fill="#9ca3af" font-size="10">8M/s</text>
  <text x="788.0" y="772.2" text-anchor="start" dominant-baseline="middle" fill="#9ca3af" font-size="10">10M/s</text>
  <text x="788.0" y="732.8" text-anchor="start" dominant-baseline="middle" fill="#9ca3af" font-size="10">12M/s</text>
  <line x1="90.0" y1="709.0" x2="90.0" y2="969.0" stroke="#e5e7eb" stroke-width="1"/>
  <line x1="140.8" y1="709.0" x2="140.8" y2="969.0" stroke="#e5e7eb" stroke-width="1"/>
  <line x1="191.7" y1="709.0" x2="191.7" y2="969.0" stroke="#e5e7eb" stroke-width="1"/>
  <line x1="242.5" y1="709.0" x2="242.5" y2="969.0" stroke="#e5e7eb" stroke-width="1"/>
  <line x1="293.3" y1="709.0" x2="293.3" y2="969.0" stroke="#e5e7eb" stroke-width="1"/>
  <line x1="344.2" y1="709.0" x2="344.2" y2="969.0" stroke="#e5e7eb" stroke-width="1"/>
  <line x1="395.0" y1="709.0" x2="395.0" y2="969.0" stroke="#e5e7eb" stroke-width="1"/>
  <line x1="445.8" y1="709.0" x2="445.8" y2="969.0" stroke="#e5e7eb" stroke-width="1"/>
  <line x1="496.7" y1="709.0" x2="496.7" y2="969.0" stroke="#e5e7eb" stroke-width="1"/>
  <line x1="547.5" y1="709.0" x2="547.5" y2="969.0" stroke="#e5e7eb" stroke-width="1"/>
  <line x1="598.3" y1="709.0" x2="598.3" y2="969.0" stroke="#e5e7eb" stroke-width="1"/>
  <line x1="649.2" y1="709.0" x2="649.2" y2="969.0" stroke="#e5e7eb" stroke-width="1"/>
  <line x1="700.0" y1="709.0" x2="700.0" y2="969.0" stroke="#e5e7eb" stroke-width="1"/>
  <line x1="90.0" y1="709.0" x2="90.0" y2="969.0" stroke="#9ca3af" stroke-width="1.5"/>
  <line x1="700.0" y1="709.0" x2="700.0" y2="969.0" stroke="#9ca3af" stroke-width="1.5"/>
  <line x1="90.0" y1="969.0" x2="700.0" y2="969.0" stroke="#9ca3af" stroke-width="1.5"/>
  <line x1="780.0" y1="709.0" x2="780.0" y2="969.0" stroke="#d1d5db" stroke-width="1"/>
  <text x="40.0" y="839.0" text-anchor="middle" fill="#374151" font-size="10" font-weight="600" transform="rotate(-90,40.0,839.0)">CPU %</text>
  <polyline points="90.0,826.8 140.8,815.3 191.7,808.3 242.5,794.4 293.3,786.1 344.2,798.4 395.0,822.0 445.8,827.5 496.7,833.1 547.5,847.9 598.3,853.2 649.2,856.5 700.0,849.2" fill="none" stroke="#eab308" stroke-width="1.6" stroke-dasharray="2,5" opacity="0.85"/>
  <polyline points="90.0,793.1 140.8,799.9 191.7,804.5 242.5,794.4 293.3,800.5 344.2,799.0 395.0,794.4 445.8,789.7 496.7,790.1 547.5,791.3 598.3,783.0 649.2,786.3 700.0,785.1" fill="none" stroke="#dc2626" stroke-width="1.6" stroke-dasharray="2,5" opacity="0.85"/>
  <polyline points="90.0,868.3 140.8,872.9 191.7,876.3 242.5,874.9 293.3,877.3 344.2,886.5 395.0,889.3 445.8,893.8 496.7,892.3 547.5,885.3 598.3,860.1 649.2,870.0 700.0,869.1" fill="none" stroke="#f97316" stroke-width="1.6" stroke-dasharray="2,5" opacity="0.85"/>
  <polyline points="90.0,797.8 140.8,806.2 191.7,825.5 242.5,832.1 293.3,841.4 344.2,841.2 395.0,828.8 445.8,835.1 496.7,855.7 547.5,808.7 598.3,804.4 649.2,796.9 700.0,790.3" fill="none" stroke="#16a34a" stroke-width="1.6" stroke-dasharray="2,5" opacity="0.85"/>
  <polyline points="90.0,756.1 140.8,759.8 191.7,773.4 242.5,791.6 293.3,803.1 344.2,817.9 395.0,836.0 445.8,857.9 496.7,880.4 547.5,895.7 598.3,905.2 649.2,909.8 700.0,915.0" fill="none" stroke="#2563eb" stroke-width="1.6" stroke-dasharray="2,5" opacity="0.85"/>
  <polyline points="90.0,776.2 140.8,774.8 191.7,775.1 242.5,807.3 293.3,842.6 344.2,880.2 395.0,914.5 445.8,937.8 496.7,952.0 547.5,960.2 598.3,964.7 649.2,966.3 700.0,967.2" fill="none" stroke="#eab308" stroke-width="2.0" stroke-dasharray="5,3"/>
  <polyline points="90.0,791.6 140.8,777.7 191.7,775.5 242.5,815.4 293.3,827.1 344.2,834.8 395.0,846.4 445.8,882.4 496.7,920.8 547.5,945.9 598.3,957.7 649.2,962.6 700.0,965.9" fill="none" stroke="#dc2626" stroke-width="2.0" stroke-dasharray="5,3"/>
  <polyline points="90.0,743.8 140.8,742.9 191.7,743.9 242.5,820.3 293.3,833.5 344.2,867.0 395.0,887.9 445.8,915.4 496.7,935.4 547.5,950.0 598.3,959.5 649.2,963.5 700.0,966.4" fill="none" stroke="#f97316" stroke-width="2.0" stroke-dasharray="5,3"/>
  <polyline points="90.0,930.3 140.8,929.8 191.7,928.5 242.5,929.4 293.3,928.4 344.2,927.1 395.0,927.3 445.8,927.2 496.7,933.1 547.5,948.0 598.3,957.6 649.2,963.1 700.0,966.1" fill="none" stroke="#16a34a" stroke-width="2.0" stroke-dasharray="5,3"/>
  <polyline points="90.0,921.1 140.8,916.4 191.7,916.5 242.5,917.3 293.3,920.3 344.2,924.7 395.0,930.8 445.8,940.9 496.7,950.1 547.5,957.8 598.3,962.9 649.2,965.9 700.0,967.3" fill="none" stroke="#2563eb" stroke-width="2.0" stroke-dasharray="5,3"/>
  <polyline points="90.0,965.7 140.8,962.3 191.7,955.6 242.5,946.7 293.3,934.2 344.2,920.0 395.0,908.9 445.8,900.2 496.7,894.1 547.5,891.6 598.3,892.5 649.2,874.4 700.0,840.9" fill="none" stroke="#eab308" stroke-width="2.0" stroke-linecap="round" stroke-linejoin="round"/>
  <circle cx="90.0" cy="965.7" r="2.2" fill="#eab308" stroke="white" stroke-width="1"/>
  <circle cx="140.8" cy="962.3" r="2.2" fill="#eab308" stroke="white" stroke-width="1"/>
  <circle cx="191.7" cy="955.6" r="2.2" fill="#eab308" stroke="white" stroke-width="1"/>
  <circle cx="242.5" cy="946.7" r="2.2" fill="#eab308" stroke="white" stroke-width="1"/>
  <circle cx="293.3" cy="934.2" r="2.2" fill="#eab308" stroke="white" stroke-width="1"/>
  <circle cx="344.2" cy="920.0" r="2.2" fill="#eab308" stroke="white" stroke-width="1"/>
  <circle cx="395.0" cy="908.9" r="2.2" fill="#eab308" stroke="white" stroke-width="1"/>
  <circle cx="445.8" cy="900.2" r="2.2" fill="#eab308" stroke="white" stroke-width="1"/>
  <circle cx="496.7" cy="894.1" r="2.2" fill="#eab308" stroke="white" stroke-width="1"/>
  <circle cx="547.5" cy="891.6" r="2.2" fill="#eab308" stroke="white" stroke-width="1"/>
  <circle cx="598.3" cy="892.5" r="2.2" fill="#eab308" stroke="white" stroke-width="1"/>
  <circle cx="649.2" cy="874.4" r="2.2" fill="#eab308" stroke="white" stroke-width="1"/>
  <circle cx="700.0" cy="840.9" r="2.2" fill="#eab308" stroke="white" stroke-width="1"/>
  <polyline points="90.0,965.9 140.8,962.4 191.7,955.7 242.5,947.8 293.3,929.9 344.2,895.0 395.0,833.8 445.8,777.9 496.7,756.4 547.5,765.3 598.3,770.2 649.2,742.9 700.0,747.4" fill="none" stroke="#dc2626" stroke-width="2.0" stroke-linecap="round" stroke-linejoin="round"/>
  <circle cx="90.0" cy="965.9" r="2.2" fill="#dc2626" stroke="white" stroke-width="1"/>
  <circle cx="140.8" cy="962.4" r="2.2" fill="#dc2626" stroke="white" stroke-width="1"/>
  <circle cx="191.7" cy="955.7" r="2.2" fill="#dc2626" stroke="white" stroke-width="1"/>
  <circle cx="242.5" cy="947.8" r="2.2" fill="#dc2626" stroke="white" stroke-width="1"/>
  <circle cx="293.3" cy="929.9" r="2.2" fill="#dc2626" stroke="white" stroke-width="1"/>
  <circle cx="344.2" cy="895.0" r="2.2" fill="#dc2626" stroke="white" stroke-width="1"/>
  <circle cx="395.0" cy="833.8" r="2.2" fill="#dc2626" stroke="white" stroke-width="1"/>
  <circle cx="445.8" cy="777.9" r="2.2" fill="#dc2626" stroke="white" stroke-width="1"/>
  <circle cx="496.7" cy="756.4" r="2.2" fill="#dc2626" stroke="white" stroke-width="1"/>
  <circle cx="547.5" cy="765.3" r="2.2" fill="#dc2626" stroke="white" stroke-width="1"/>
  <circle cx="598.3" cy="770.2" r="2.2" fill="#dc2626" stroke="white" stroke-width="1"/>
  <circle cx="649.2" cy="742.9" r="2.2" fill="#dc2626" stroke="white" stroke-width="1"/>
  <circle cx="700.0" cy="747.4" r="2.2" fill="#dc2626" stroke="white" stroke-width="1"/>
  <polyline points="90.0,965.1 140.8,961.2 191.7,953.5 242.5,948.5 293.3,931.6 344.2,912.7 395.0,879.5 445.8,850.7 496.7,820.7 547.5,801.4 598.3,802.1 649.2,774.9 700.0,782.1" fill="none" stroke="#f97316" stroke-width="2.0" stroke-linecap="round" stroke-linejoin="round"/>
  <circle cx="90.0" cy="965.1" r="2.2" fill="#f97316" stroke="white" stroke-width="1"/>
  <circle cx="140.8" cy="961.2" r="2.2" fill="#f97316" stroke="white" stroke-width="1"/>
  <circle cx="191.7" cy="953.5" r="2.2" fill="#f97316" stroke="white" stroke-width="1"/>
  <circle cx="242.5" cy="948.5" r="2.2" fill="#f97316" stroke="white" stroke-width="1"/>
  <circle cx="293.3" cy="931.6" r="2.2" fill="#f97316" stroke="white" stroke-width="1"/>
  <circle cx="344.2" cy="912.7" r="2.2" fill="#f97316" stroke="white" stroke-width="1"/>
  <circle cx="395.0" cy="879.5" r="2.2" fill="#f97316" stroke="white" stroke-width="1"/>
  <circle cx="445.8" cy="850.7" r="2.2" fill="#f97316" stroke="white" stroke-width="1"/>
  <circle cx="496.7" cy="820.7" r="2.2" fill="#f97316" stroke="white" stroke-width="1"/>
  <circle cx="547.5" cy="801.4" r="2.2" fill="#f97316" stroke="white" stroke-width="1"/>
  <circle cx="598.3" cy="802.1" r="2.2" fill="#f97316" stroke="white" stroke-width="1"/>
  <circle cx="649.2" cy="774.9" r="2.2" fill="#f97316" stroke="white" stroke-width="1"/>
  <circle cx="700.0" cy="782.1" r="2.2" fill="#f97316" stroke="white" stroke-width="1"/>
  <polyline points="90.0,968.3 140.8,967.7 191.7,966.2 242.5,963.5 293.3,957.8 344.2,945.9 395.0,923.0 445.8,876.8 496.7,810.5 547.5,783.5 598.3,768.6 649.2,759.4 700.0,763.1" fill="none" stroke="#16a34a" stroke-width="2.0" stroke-linecap="round" stroke-linejoin="round"/>
  <circle cx="90.0" cy="968.3" r="2.2" fill="#16a34a" stroke="white" stroke-width="1"/>
  <circle cx="140.8" cy="967.7" r="2.2" fill="#16a34a" stroke="white" stroke-width="1"/>
  <circle cx="191.7" cy="966.2" r="2.2" fill="#16a34a" stroke="white" stroke-width="1"/>
  <circle cx="242.5" cy="963.5" r="2.2" fill="#16a34a" stroke="white" stroke-width="1"/>
  <circle cx="293.3" cy="957.8" r="2.2" fill="#16a34a" stroke="white" stroke-width="1"/>
  <circle cx="344.2" cy="945.9" r="2.2" fill="#16a34a" stroke="white" stroke-width="1"/>
  <circle cx="395.0" cy="923.0" r="2.2" fill="#16a34a" stroke="white" stroke-width="1"/>
  <circle cx="445.8" cy="876.8" r="2.2" fill="#16a34a" stroke="white" stroke-width="1"/>
  <circle cx="496.7" cy="810.5" r="2.2" fill="#16a34a" stroke="white" stroke-width="1"/>
  <circle cx="547.5" cy="783.5" r="2.2" fill="#16a34a" stroke="white" stroke-width="1"/>
  <circle cx="598.3" cy="768.6" r="2.2" fill="#16a34a" stroke="white" stroke-width="1"/>
  <circle cx="649.2" cy="759.4" r="2.2" fill="#16a34a" stroke="white" stroke-width="1"/>
  <circle cx="700.0" cy="763.1" r="2.2" fill="#16a34a" stroke="white" stroke-width="1"/>
  <polyline points="90.0,968.2 140.8,967.2 191.7,965.4 242.5,961.9 293.3,955.6 344.2,944.6 395.0,926.9 445.8,907.0 496.7,885.6 547.5,870.4 598.3,862.1 649.2,858.5 700.0,851.8" fill="none" stroke="#2563eb" stroke-width="2.0" stroke-linecap="round" stroke-linejoin="round"/>
  <circle cx="90.0" cy="968.2" r="2.2" fill="#2563eb" stroke="white" stroke-width="1"/>
  <circle cx="140.8" cy="967.2" r="2.2" fill="#2563eb" stroke="white" stroke-width="1"/>
  <circle cx="191.7" cy="965.4" r="2.2" fill="#2563eb" stroke="white" stroke-width="1"/>
  <circle cx="242.5" cy="961.9" r="2.2" fill="#2563eb" stroke="white" stroke-width="1"/>
  <circle cx="293.3" cy="955.6" r="2.2" fill="#2563eb" stroke="white" stroke-width="1"/>
  <circle cx="344.2" cy="944.6" r="2.2" fill="#2563eb" stroke="white" stroke-width="1"/>
  <circle cx="395.0" cy="926.9" r="2.2" fill="#2563eb" stroke="white" stroke-width="1"/>
  <circle cx="445.8" cy="907.0" r="2.2" fill="#2563eb" stroke="white" stroke-width="1"/>
  <circle cx="496.7" cy="885.6" r="2.2" fill="#2563eb" stroke="white" stroke-width="1"/>
  <circle cx="547.5" cy="870.4" r="2.2" fill="#2563eb" stroke="white" stroke-width="1"/>
  <circle cx="598.3" cy="862.1" r="2.2" fill="#2563eb" stroke="white" stroke-width="1"/>
  <circle cx="649.2" cy="858.5" r="2.2" fill="#2563eb" stroke="white" stroke-width="1"/>
  <circle cx="700.0" cy="851.8" r="2.2" fill="#2563eb" stroke="white" stroke-width="1"/>
  <text x="90.0" y="983.0" text-anchor="middle" fill="#374151" font-size="8.5">8 B</text>
  <text x="140.8" y="983.0" text-anchor="middle" fill="#374151" font-size="8.5">16 B</text>
  <text x="191.7" y="983.0" text-anchor="middle" fill="#374151" font-size="8.5">32 B</text>
  <text x="242.5" y="983.0" text-anchor="middle" fill="#374151" font-size="8.5">64 B</text>
  <text x="293.3" y="983.0" text-anchor="middle" fill="#374151" font-size="8.5">128 B</text>
  <text x="344.2" y="983.0" text-anchor="middle" fill="#374151" font-size="8.5">256 B</text>
  <text x="395.0" y="983.0" text-anchor="middle" fill="#374151" font-size="8.5">512 B</text>
  <text x="445.8" y="983.0" text-anchor="middle" fill="#374151" font-size="8.5">1 KiB</text>
  <text x="496.7" y="983.0" text-anchor="middle" fill="#374151" font-size="8.5">2 KiB</text>
  <text x="547.5" y="983.0" text-anchor="middle" fill="#374151" font-size="8.5">4 KiB</text>
  <text x="598.3" y="983.0" text-anchor="middle" fill="#374151" font-size="8.5">8 KiB</text>
  <text x="649.2" y="983.0" text-anchor="middle" fill="#374151" font-size="8.5">16 KiB</text>
  <text x="700.0" y="983.0" text-anchor="middle" fill="#374151" font-size="8.5">32 KiB</text>
  <line x1="110" y1="999" x2="124" y2="999" stroke="#eab308" stroke-width="2.5"/>
  <circle cx="117" cy="999" r="2.5" fill="#eab308"/>
  <text x="130" y="1003" fill="#374151" font-size="11" font-weight="500">libzmq v4.3.5</text>
  <line x1="300" y1="999" x2="314" y2="999" stroke="#f97316" stroke-width="2.5"/>
  <circle cx="307" cy="999" r="2.5" fill="#f97316"/>
  <text x="320" y="1003" fill="#374151" font-size="11" font-weight="500">omq-tokio (ST)</text>
  <line x1="490" y1="999" x2="504" y2="999" stroke="#dc2626" stroke-width="2.5"/>
  <circle cx="497" cy="999" r="2.5" fill="#dc2626"/>
  <text x="510" y="1003" fill="#374151" font-size="11" font-weight="500">omq-tokio (MT)</text>
  <line x1="205" y1="1019" x2="219" y2="1019" stroke="#2563eb" stroke-width="2.5"/>
  <circle cx="212" cy="1019" r="2.5" fill="#2563eb"/>
  <text x="225" y="1023" fill="#374151" font-size="11" font-weight="500">zmq.rs v0.6.0 (MT)</text>
  <line x1="395" y1="1019" x2="409" y2="1019" stroke="#16a34a" stroke-width="2.5"/>
  <circle cx="402" cy="1019" r="2.5" fill="#16a34a"/>
  <text x="415" y="1023" fill="#374151" font-size="11" font-weight="500">rzmq v0.5.22 (MT)</text>
  <text x="395.0" y="1037" text-anchor="middle" fill="#9ca3af" font-size="9">ST = single-threaded   MT = multi-threaded</text>
  <line x1="145" y1="1059" x2="159" y2="1059" stroke="#6b7280" stroke-width="1.6" stroke-dasharray="2,5" opacity="0.85"/>
  <text x="165" y="1063" fill="#6b7280" font-size="10">CPU % (left)</text>
  <line x1="290" y1="1059" x2="304" y2="1059" stroke="#6b7280" stroke-width="2.0"/>
  <circle cx="297" cy="1059" r="1.8" fill="#6b7280"/>
  <text x="310" y="1063" fill="#6b7280" font-size="10">GB/s (inner right)</text>
  <line x1="455" y1="1059" x2="469" y2="1059" stroke="#6b7280" stroke-width="2.0" stroke-dasharray="5,3"/>
  <text x="475" y="1063" fill="#6b7280" font-size="10">msg/s (outer right)</text>
</svg>
