<svg xmlns="http://www.w3.org/2000/svg" viewBox="0 0 875 1077" font-family="system-ui, -apple-system, sans-serif">
  <rect width="875" height="1077" fill="white"/>
  <text x="395.0" y="46" text-anchor="middle" fill="#9ca3af" font-size="10">Linux VM on a 2018 Mac Mini, Intel Core i7-8700B @ 3.20GHz, 6 cores, performance governor, turbo off</text>
  <text x="395.0" y="32.0" text-anchor="middle" fill="#111827" font-size="13" font-weight="700">PUSH fan-in (2 PUSH → 1 PULL): io_uring, TCP loopback</text>
  <line x1="90.0" y1="276.5" x2="700.0" y2="276.5" stroke="#e5e7eb" stroke-width="1"/>
  <text x="82.0" y="276.5" text-anchor="end" dominant-baseline="middle" fill="#374151" font-size="10">100%</text>
  <line x1="90.0" y1="244.0" x2="700.0" y2="244.0" stroke="#e5e7eb" stroke-width="1"/>
  <text x="82.0" y="244.0" text-anchor="end" dominant-baseline="middle" fill="#374151" font-size="10">200%</text>
  <line x1="90.0" y1="211.5" x2="700.0" y2="211.5" stroke="#e5e7eb" stroke-width="1"/>
  <text x="82.0" y="211.5" text-anchor="end" dominant-baseline="middle" fill="#374151" font-size="10">300%</text>
  <line x1="90.0" y1="179.0" x2="700.0" y2="179.0" stroke="#e5e7eb" stroke-width="1"/>
  <text x="82.0" y="179.0" text-anchor="end" dominant-baseline="middle" fill="#374151" font-size="10">400%</text>
  <line x1="90.0" y1="146.5" x2="700.0" y2="146.5" stroke="#e5e7eb" stroke-width="1"/>
  <text x="82.0" y="146.5" text-anchor="end" dominant-baseline="middle" fill="#374151" font-size="10">500%</text>
  <line x1="90.0" y1="114.0" x2="700.0" y2="114.0" stroke="#e5e7eb" stroke-width="1"/>
  <text x="82.0" y="114.0" text-anchor="end" dominant-baseline="middle" fill="#374151" font-size="10">600%</text>
  <line x1="90.0" y1="81.5" x2="700.0" y2="81.5" stroke="#e5e7eb" stroke-width="1"/>
  <text x="82.0" y="81.5" text-anchor="end" dominant-baseline="middle" fill="#374151" font-size="10">700%</text>
  <line x1="90.0" y1="49.0" x2="700.0" y2="49.0" stroke="#e5e7eb" stroke-width="1"/>
  <text x="82.0" y="49.0" text-anchor="end" dominant-baseline="middle" fill="#374151" font-size="10">800%</text>
  <line x1="90.0" y1="226.0" x2="700.0" y2="226.0" stroke="#e5e7eb" stroke-width="1" stroke-dasharray="3,6"/>
  <text x="708.0" y="226.0" text-anchor="start" dominant-baseline="middle" fill="#6b7280" font-size="10">2 GB/s</text>
  <line x1="90.0" y1="143.1" x2="700.0" y2="143.1" stroke="#e5e7eb" stroke-width="1" stroke-dasharray="3,6"/>
  <text x="708.0" y="143.1" text-anchor="start" dominant-baseline="middle" fill="#6b7280" font-size="10">4 GB/s</text>
  <line x1="90.0" y1="60.1" x2="700.0" y2="60.1" stroke="#e5e7eb" stroke-width="1" stroke-dasharray="3,6"/>
  <text x="708.0" y="60.1" text-anchor="start" dominant-baseline="middle" fill="#6b7280" font-size="10">6 GB/s</text>
  <text x="788.0" y="254.9" text-anchor="start" dominant-baseline="middle" fill="#9ca3af" font-size="10">2M/s</text>
  <text x="788.0" y="200.7" text-anchor="start" dominant-baseline="middle" fill="#9ca3af" font-size="10">4M/s</text>
  <text x="788.0" y="146.6" text-anchor="start" dominant-baseline="middle" fill="#9ca3af" font-size="10">6M/s</text>
  <text x="788.0" y="92.4" text-anchor="start" dominant-baseline="middle" fill="#9ca3af" font-size="10">8M/s</text>
  <line x1="90.0" y1="49.0" x2="90.0" y2="309.0" stroke="#e5e7eb" stroke-width="1"/>
  <line x1="140.8" y1="49.0" x2="140.8" y2="309.0" stroke="#e5e7eb" stroke-width="1"/>
  <line x1="191.7" y1="49.0" x2="191.7" y2="309.0" stroke="#e5e7eb" stroke-width="1"/>
  <line x1="242.5" y1="49.0" x2="242.5" y2="309.0" stroke="#e5e7eb" stroke-width="1"/>
  <line x1="293.3" y1="49.0" x2="293.3" y2="309.0" stroke="#e5e7eb" stroke-width="1"/>
  <line x1="344.2" y1="49.0" x2="344.2" y2="309.0" stroke="#e5e7eb" stroke-width="1"/>
  <line x1="395.0" y1="49.0" x2="395.0" y2="309.0" stroke="#e5e7eb" stroke-width="1"/>
  <line x1="445.8" y1="49.0" x2="445.8" y2="309.0" stroke="#e5e7eb" stroke-width="1"/>
  <line x1="496.7" y1="49.0" x2="496.7" y2="309.0" stroke="#e5e7eb" stroke-width="1"/>
  <line x1="547.5" y1="49.0" x2="547.5" y2="309.0" stroke="#e5e7eb" stroke-width="1"/>
  <line x1="598.3" y1="49.0" x2="598.3" y2="309.0" stroke="#e5e7eb" stroke-width="1"/>
  <line x1="649.2" y1="49.0" x2="649.2" y2="309.0" stroke="#e5e7eb" stroke-width="1"/>
  <line x1="700.0" y1="49.0" x2="700.0" y2="309.0" stroke="#e5e7eb" stroke-width="1"/>
  <line x1="90.0" y1="49.0" x2="90.0" y2="309.0" stroke="#9ca3af" stroke-width="1.5"/>
  <line x1="700.0" y1="49.0" x2="700.0" y2="309.0" stroke="#9ca3af" stroke-width="1.5"/>
  <line x1="90.0" y1="309.0" x2="700.0" y2="309.0" stroke="#9ca3af" stroke-width="1.5"/>
  <line x1="780.0" y1="49.0" x2="780.0" y2="309.0" stroke="#d1d5db" stroke-width="1"/>
  <text x="40.0" y="179.0" text-anchor="middle" fill="#374151" font-size="10" font-weight="600" transform="rotate(-90,40.0,179.0)">CPU %</text>
  <polyline points="90.0,137.8 140.8,148.2 191.7,145.9 242.5,146.2 293.3,159.3 344.2,167.9 395.0,158.6 445.8,163.0 496.7,161.1 547.5,167.1 598.3,181.4 649.2,181.9 700.0,182.5" fill="none" stroke="#16a34a" stroke-width="1.6" stroke-dasharray="2,5" opacity="0.85"/>
  <polyline points="90.0,213.0 140.8,212.9 191.7,214.8 242.5,210.9 293.3,214.0 344.2,221.4 395.0,223.4 445.8,228.4 496.7,248.9 547.5,251.8 598.3,255.9 649.2,258.0 700.0,261.2" fill="none" stroke="#7c3aed" stroke-width="1.6" stroke-dasharray="2,5" opacity="0.85"/>
  <polyline points="90.0,256.5 140.8,253.1 191.7,242.8 242.5,243.9 293.3,244.8 344.2,256.6 395.0,253.8 445.8,259.7 496.7,270.6 547.5,283.7 598.3,293.5 649.2,300.6 700.0,304.5" fill="none" stroke="#16a34a" stroke-width="2.0" stroke-dasharray="5,3"/>
  <polyline points="90.0,82.9 140.8,83.1 191.7,89.8 242.5,156.7 293.3,156.6 344.2,185.5 395.0,207.2 445.8,234.3 496.7,271.8 547.5,286.1 598.3,296.7 649.2,303.1 700.0,306.3" fill="none" stroke="#7c3aed" stroke-width="2.0" stroke-dasharray="5,3"/>
  <polyline points="90.0,308.4 140.8,307.6 191.7,305.8 242.5,302.6 293.3,296.4 344.2,288.4 395.0,265.7 445.8,231.6 496.7,188.4 547.5,150.0 598.3,114.9 649.2,98.7 700.0,82.9" fill="none" stroke="#16a34a" stroke-width="2.0" stroke-linecap="round" stroke-linejoin="round"/>
  <circle cx="90.0" cy="308.4" r="2.2" fill="#16a34a" stroke="white" stroke-width="1"/>
  <circle cx="140.8" cy="307.6" r="2.2" fill="#16a34a" stroke="white" stroke-width="1"/>
  <circle cx="191.7" cy="305.8" r="2.2" fill="#16a34a" stroke="white" stroke-width="1"/>
  <circle cx="242.5" cy="302.6" r="2.2" fill="#16a34a" stroke="white" stroke-width="1"/>
  <circle cx="293.3" cy="296.4" r="2.2" fill="#16a34a" stroke="white" stroke-width="1"/>
  <circle cx="344.2" cy="288.4" r="2.2" fill="#16a34a" stroke="white" stroke-width="1"/>
  <circle cx="395.0" cy="265.7" r="2.2" fill="#16a34a" stroke="white" stroke-width="1"/>
  <circle cx="445.8" cy="231.6" r="2.2" fill="#16a34a" stroke="white" stroke-width="1"/>
  <circle cx="496.7" cy="188.4" r="2.2" fill="#16a34a" stroke="white" stroke-width="1"/>
  <circle cx="547.5" cy="150.0" r="2.2" fill="#16a34a" stroke="white" stroke-width="1"/>
  <circle cx="598.3" cy="114.9" r="2.2" fill="#16a34a" stroke="white" stroke-width="1"/>
  <circle cx="649.2" cy="98.7" r="2.2" fill="#16a34a" stroke="white" stroke-width="1"/>
  <circle cx="700.0" cy="82.9" r="2.2" fill="#16a34a" stroke="white" stroke-width="1"/>
  <polyline points="90.0,306.2 140.8,303.5 191.7,298.3 242.5,294.1 293.3,279.1 344.2,260.6 395.0,229.1 445.8,191.7 496.7,192.1 547.5,165.2 598.3,154.5 649.2,160.9 700.0,173.3" fill="none" stroke="#7c3aed" stroke-width="2.0" stroke-linecap="round" stroke-linejoin="round"/>
  <circle cx="90.0" cy="306.2" r="2.2" fill="#7c3aed" stroke="white" stroke-width="1"/>
  <circle cx="140.8" cy="303.5" r="2.2" fill="#7c3aed" stroke="white" stroke-width="1"/>
  <circle cx="191.7" cy="298.3" r="2.2" fill="#7c3aed" stroke="white" stroke-width="1"/>
  <circle cx="242.5" cy="294.1" r="2.2" fill="#7c3aed" stroke="white" stroke-width="1"/>
  <circle cx="293.3" cy="279.1" r="2.2" fill="#7c3aed" stroke="white" stroke-width="1"/>
  <circle cx="344.2" cy="260.6" r="2.2" fill="#7c3aed" stroke="white" stroke-width="1"/>
  <circle cx="395.0" cy="229.1" r="2.2" fill="#7c3aed" stroke="white" stroke-width="1"/>
  <circle cx="445.8" cy="191.7" r="2.2" fill="#7c3aed" stroke="white" stroke-width="1"/>
  <circle cx="496.7" cy="192.1" r="2.2" fill="#7c3aed" stroke="white" stroke-width="1"/>
  <circle cx="547.5" cy="165.2" r="2.2" fill="#7c3aed" stroke="white" stroke-width="1"/>
  <circle cx="598.3" cy="154.5" r="2.2" fill="#7c3aed" stroke="white" stroke-width="1"/>
  <circle cx="649.2" cy="160.9" r="2.2" fill="#7c3aed" stroke="white" stroke-width="1"/>
  <circle cx="700.0" cy="173.3" r="2.2" fill="#7c3aed" stroke="white" stroke-width="1"/>
  <text x="90.0" y="323.0" text-anchor="middle" fill="#374151" font-size="8.5">8 B</text>
  <text x="140.8" y="323.0" text-anchor="middle" fill="#374151" font-size="8.5">16 B</text>
  <text x="191.7" y="323.0" text-anchor="middle" fill="#374151" font-size="8.5">32 B</text>
  <text x="242.5" y="323.0" text-anchor="middle" fill="#374151" font-size="8.5">64 B</text>
  <text x="293.3" y="323.0" text-anchor="middle" fill="#374151" font-size="8.5">128 B</text>
  <text x="344.2" y="323.0" text-anchor="middle" fill="#374151" font-size="8.5">256 B</text>
  <text x="395.0" y="323.0" text-anchor="middle" fill="#374151" font-size="8.5">512 B</text>
  <text x="445.8" y="323.0" text-anchor="middle" fill="#374151" font-size="8.5">1 KiB</text>
  <text x="496.7" y="323.0" text-anchor="middle" fill="#374151" font-size="8.5">2 KiB</text>
  <text x="547.5" y="323.0" text-anchor="middle" fill="#374151" font-size="8.5">4 KiB</text>
  <text x="598.3" y="323.0" text-anchor="middle" fill="#374151" font-size="8.5">8 KiB</text>
  <text x="649.2" y="323.0" text-anchor="middle" fill="#374151" font-size="8.5">16 KiB</text>
  <text x="700.0" y="323.0" text-anchor="middle" fill="#374151" font-size="8.5">32 KiB</text>
  <text x="395.0" y="362.0" text-anchor="middle" fill="#111827" font-size="13" font-weight="700">PUSH fan-in (4 PUSH → 1 PULL): io_uring, TCP loopback</text>
  <line x1="90.0" y1="606.5" x2="700.0" y2="606.5" stroke="#e5e7eb" stroke-width="1"/>
  <text x="82.0" y="606.5" text-anchor="end" dominant-baseline="middle" fill="#374151" font-size="10">100%</text>
  <line x1="90.0" y1="574.0" x2="700.0" y2="574.0" stroke="#e5e7eb" stroke-width="1"/>
  <text x="82.0" y="574.0" text-anchor="end" dominant-baseline="middle" fill="#374151" font-size="10">200%</text>
  <line x1="90.0" y1="541.5" x2="700.0" y2="541.5" stroke="#e5e7eb" stroke-width="1"/>
  <text x="82.0" y="541.5" text-anchor="end" dominant-baseline="middle" fill="#374151" font-size="10">300%</text>
  <line x1="90.0" y1="509.0" x2="700.0" y2="509.0" stroke="#e5e7eb" stroke-width="1"/>
  <text x="82.0" y="509.0" text-anchor="end" dominant-baseline="middle" fill="#374151" font-size="10">400%</text>
  <line x1="90.0" y1="476.5" x2="700.0" y2="476.5" stroke="#e5e7eb" stroke-width="1"/>
  <text x="82.0" y="476.5" text-anchor="end" dominant-baseline="middle" fill="#374151" font-size="10">500%</text>
  <line x1="90.0" y1="444.0" x2="700.0" y2="444.0" stroke="#e5e7eb" stroke-width="1"/>
  <text x="82.0" y="444.0" text-anchor="end" dominant-baseline="middle" fill="#374151" font-size="10">600%</text>
  <line x1="90.0" y1="411.5" x2="700.0" y2="411.5" stroke="#e5e7eb" stroke-width="1"/>
  <text x="82.0" y="411.5" text-anchor="end" dominant-baseline="middle" fill="#374151" font-size="10">700%</text>
  <line x1="90.0" y1="379.0" x2="700.0" y2="379.0" stroke="#e5e7eb" stroke-width="1"/>
  <text x="82.0" y="379.0" text-anchor="end" dominant-baseline="middle" fill="#374151" font-size="10">800%</text>
  <line x1="90.0" y1="555.0" x2="700.0" y2="555.0" stroke="#e5e7eb" stroke-width="1" stroke-dasharray="3,6"/>
  <text x="708.0" y="555.0" text-anchor="start" dominant-baseline="middle" fill="#6b7280" font-size="10">2 GB/s</text>
  <line x1="90.0" y1="471.0" x2="700.0" y2="471.0" stroke="#e5e7eb" stroke-width="1" stroke-dasharray="3,6"/>
  <text x="708.0" y="471.0" text-anchor="start" dominant-baseline="middle" fill="#6b7280" font-size="10">4 GB/s</text>
  <line x1="90.0" y1="387.0" x2="700.0" y2="387.0" stroke="#e5e7eb" stroke-width="1" stroke-dasharray="3,6"/>
  <text x="708.0" y="387.0" text-anchor="start" dominant-baseline="middle" fill="#6b7280" font-size="10">6 GB/s</text>
  <text x="788.0" y="588.5" text-anchor="start" dominant-baseline="middle" fill="#9ca3af" font-size="10">2M/s</text>
  <text x="788.0" y="537.9" text-anchor="start" dominant-baseline="middle" fill="#9ca3af" font-size="10">4M/s</text>
  <text x="788.0" y="487.4" text-anchor="start" dominant-baseline="middle" fill="#9ca3af" font-size="10">6M/s</text>
  <text x="788.0" y="436.8" text-anchor="start" dominant-baseline="middle" fill="#9ca3af" font-size="10">8M/s</text>
  <text x="788.0" y="386.3" text-anchor="start" dominant-baseline="middle" fill="#9ca3af" font-size="10">10M/s</text>
  <line x1="90.0" y1="379.0" x2="90.0" y2="639.0" stroke="#e5e7eb" stroke-width="1"/>
  <line x1="140.8" y1="379.0" x2="140.8" y2="639.0" stroke="#e5e7eb" stroke-width="1"/>
  <line x1="191.7" y1="379.0" x2="191.7" y2="639.0" stroke="#e5e7eb" stroke-width="1"/>
  <line x1="242.5" y1="379.0" x2="242.5" y2="639.0" stroke="#e5e7eb" stroke-width="1"/>
  <line x1="293.3" y1="379.0" x2="293.3" y2="639.0" stroke="#e5e7eb" stroke-width="1"/>
  <line x1="344.2" y1="379.0" x2="344.2" y2="639.0" stroke="#e5e7eb" stroke-width="1"/>
  <line x1="395.0" y1="379.0" x2="395.0" y2="639.0" stroke="#e5e7eb" stroke-width="1"/>
  <line x1="445.8" y1="379.0" x2="445.8" y2="639.0" stroke="#e5e7eb" stroke-width="1"/>
  <line x1="496.7" y1="379.0" x2="496.7" y2="639.0" stroke="#e5e7eb" stroke-width="1"/>
  <line x1="547.5" y1="379.0" x2="547.5" y2="639.0" stroke="#e5e7eb" stroke-width="1"/>
  <line x1="598.3" y1="379.0" x2="598.3" y2="639.0" stroke="#e5e7eb" stroke-width="1"/>
  <line x1="649.2" y1="379.0" x2="649.2" y2="639.0" stroke="#e5e7eb" stroke-width="1"/>
  <line x1="700.0" y1="379.0" x2="700.0" y2="639.0" stroke="#e5e7eb" stroke-width="1"/>
  <line x1="90.0" y1="379.0" x2="90.0" y2="639.0" stroke="#9ca3af" stroke-width="1.5"/>
  <line x1="700.0" y1="379.0" x2="700.0" y2="639.0" stroke="#9ca3af" stroke-width="1.5"/>
  <line x1="90.0" y1="639.0" x2="700.0" y2="639.0" stroke="#9ca3af" stroke-width="1.5"/>
  <line x1="780.0" y1="379.0" x2="780.0" y2="639.0" stroke="#d1d5db" stroke-width="1"/>
  <text x="40.0" y="509.0" text-anchor="middle" fill="#374151" font-size="10" font-weight="600" transform="rotate(-90,40.0,509.0)">CPU %</text>
  <polyline points="90.0,417.1 140.8,420.5 191.7,418.5 242.5,429.2 293.3,439.0 344.2,443.2 395.0,419.9 445.8,416.9 496.7,427.9 547.5,419.5 598.3,437.2 649.2,430.8 700.0,440.2" fill="none" stroke="#16a34a" stroke-width="1.6" stroke-dasharray="2,5" opacity="0.85"/>
  <polyline points="90.0,537.6 140.8,541.9 191.7,540.6 242.5,540.9 293.3,543.9 344.2,547.9 395.0,554.5 445.8,559.6 496.7,575.3 547.5,583.4 598.3,586.5 649.2,589.3 700.0,588.5" fill="none" stroke="#7c3aed" stroke-width="1.6" stroke-dasharray="2,5" opacity="0.85"/>
  <polyline points="90.0,583.1 140.8,578.4 191.7,575.1 242.5,572.3 293.3,585.7 344.2,592.1 395.0,586.4 445.8,594.8 496.7,603.4 547.5,614.7 598.3,624.7 649.2,631.3 700.0,634.8" fill="none" stroke="#16a34a" stroke-width="2.0" stroke-dasharray="5,3"/>
  <polyline points="90.0,412.9 140.8,429.1 191.7,451.1 242.5,500.1 293.3,511.6 344.2,520.8 395.0,543.9 445.8,575.9 496.7,604.5 547.5,619.7 598.3,627.9 649.2,633.5 700.0,636.4" fill="none" stroke="#7c3aed" stroke-width="2.0" stroke-dasharray="5,3"/>
  <polyline points="90.0,638.3 140.8,637.4 191.7,635.6 242.5,631.9 293.3,627.7 344.2,619.1 395.0,594.3 445.8,563.8 496.7,518.0 547.5,473.6 598.3,443.8 649.2,429.0 700.0,412.9" fill="none" stroke="#16a34a" stroke-width="2.0" stroke-linecap="round" stroke-linejoin="round"/>
  <circle cx="90.0" cy="638.3" r="2.2" fill="#16a34a" stroke="white" stroke-width="1"/>
  <circle cx="140.8" cy="637.4" r="2.2" fill="#16a34a" stroke="white" stroke-width="1"/>
  <circle cx="191.7" cy="635.6" r="2.2" fill="#16a34a" stroke="white" stroke-width="1"/>
  <circle cx="242.5" cy="631.9" r="2.2" fill="#16a34a" stroke="white" stroke-width="1"/>
  <circle cx="293.3" cy="627.7" r="2.2" fill="#16a34a" stroke="white" stroke-width="1"/>
  <circle cx="344.2" cy="619.1" r="2.2" fill="#16a34a" stroke="white" stroke-width="1"/>
  <circle cx="395.0" cy="594.3" r="2.2" fill="#16a34a" stroke="white" stroke-width="1"/>
  <circle cx="445.8" cy="563.8" r="2.2" fill="#16a34a" stroke="white" stroke-width="1"/>
  <circle cx="496.7" cy="518.0" r="2.2" fill="#16a34a" stroke="white" stroke-width="1"/>
  <circle cx="547.5" cy="473.6" r="2.2" fill="#16a34a" stroke="white" stroke-width="1"/>
  <circle cx="598.3" cy="443.8" r="2.2" fill="#16a34a" stroke="white" stroke-width="1"/>
  <circle cx="649.2" cy="429.0" r="2.2" fill="#16a34a" stroke="white" stroke-width="1"/>
  <circle cx="700.0" cy="412.9" r="2.2" fill="#16a34a" stroke="white" stroke-width="1"/>
  <polyline points="90.0,636.0 140.8,633.4 191.7,629.0 242.5,624.2 293.3,611.9 344.2,588.7 395.0,558.1 445.8,531.7 496.7,521.6 547.5,507.4 598.3,487.6 649.2,490.3 700.0,497.1" fill="none" stroke="#7c3aed" stroke-width="2.0" stroke-linecap="round" stroke-linejoin="round"/>
  <circle cx="90.0" cy="636.0" r="2.2" fill="#7c3aed" stroke="white" stroke-width="1"/>
  <circle cx="140.8" cy="633.4" r="2.2" fill="#7c3aed" stroke="white" stroke-width="1"/>
  <circle cx="191.7" cy="629.0" r="2.2" fill="#7c3aed" stroke="white" stroke-width="1"/>
  <circle cx="242.5" cy="624.2" r="2.2" fill="#7c3aed" stroke="white" stroke-width="1"/>
  <circle cx="293.3" cy="611.9" r="2.2" fill="#7c3aed" stroke="white" stroke-width="1"/>
  <circle cx="344.2" cy="588.7" r="2.2" fill="#7c3aed" stroke="white" stroke-width="1"/>
  <circle cx="395.0" cy="558.1" r="2.2" fill="#7c3aed" stroke="white" stroke-width="1"/>
  <circle cx="445.8" cy="531.7" r="2.2" fill="#7c3aed" stroke="white" stroke-width="1"/>
  <circle cx="496.7" cy="521.6" r="2.2" fill="#7c3aed" stroke="white" stroke-width="1"/>
  <circle cx="547.5" cy="507.4" r="2.2" fill="#7c3aed" stroke="white" stroke-width="1"/>
  <circle cx="598.3" cy="487.6" r="2.2" fill="#7c3aed" stroke="white" stroke-width="1"/>
  <circle cx="649.2" cy="490.3" r="2.2" fill="#7c3aed" stroke="white" stroke-width="1"/>
  <circle cx="700.0" cy="497.1" r="2.2" fill="#7c3aed" stroke="white" stroke-width="1"/>
  <text x="90.0" y="653.0" text-anchor="middle" fill="#374151" font-size="8.5">8 B</text>
  <text x="140.8" y="653.0" text-anchor="middle" fill="#374151" font-size="8.5">16 B</text>
  <text x="191.7" y="653.0" text-anchor="middle" fill="#374151" font-size="8.5">32 B</text>
  <text x="242.5" y="653.0" text-anchor="middle" fill="#374151" font-size="8.5">64 B</text>
  <text x="293.3" y="653.0" text-anchor="middle" fill="#374151" font-size="8.5">128 B</text>
  <text x="344.2" y="653.0" text-anchor="middle" fill="#374151" font-size="8.5">256 B</text>
  <text x="395.0" y="653.0" text-anchor="middle" fill="#374151" font-size="8.5">512 B</text>
  <text x="445.8" y="653.0" text-anchor="middle" fill="#374151" font-size="8.5">1 KiB</text>
  <text x="496.7" y="653.0" text-anchor="middle" fill="#374151" font-size="8.5">2 KiB</text>
  <text x="547.5" y="653.0" text-anchor="middle" fill="#374151" font-size="8.5">4 KiB</text>
  <text x="598.3" y="653.0" text-anchor="middle" fill="#374151" font-size="8.5">8 KiB</text>
  <text x="649.2" y="653.0" text-anchor="middle" fill="#374151" font-size="8.5">16 KiB</text>
  <text x="700.0" y="653.0" text-anchor="middle" fill="#374151" font-size="8.5">32 KiB</text>
  <text x="395.0" y="692.0" text-anchor="middle" fill="#111827" font-size="13" font-weight="700">PUSH fan-in (8 PUSH → 1 PULL): io_uring, TCP loopback</text>
  <line x1="90.0" y1="943.0" x2="700.0" y2="943.0" stroke="#e5e7eb" stroke-width="1"/>
  <text x="82.0" y="943.0" text-anchor="end" dominant-baseline="middle" fill="#374151" font-size="10">100%</text>
  <line x1="90.0" y1="917.0" x2="700.0" y2="917.0" stroke="#e5e7eb" stroke-width="1"/>
  <text x="82.0" y="917.0" text-anchor="end" dominant-baseline="middle" fill="#374151" font-size="10">200%</text>
  <line x1="90.0" y1="891.0" x2="700.0" y2="891.0" stroke="#e5e7eb" stroke-width="1"/>
  <text x="82.0" y="891.0" text-anchor="end" dominant-baseline="middle" fill="#374151" font-size="10">300%</text>
  <line x1="90.0" y1="865.0" x2="700.0" y2="865.0" stroke="#e5e7eb" stroke-width="1"/>
  <text x="82.0" y="865.0" text-anchor="end" dominant-baseline="middle" fill="#374151" font-size="10">400%</text>
  <line x1="90.0" y1="839.0" x2="700.0" y2="839.0" stroke="#e5e7eb" stroke-width="1"/>
  <text x="82.0" y="839.0" text-anchor="end" dominant-baseline="middle" fill="#374151" font-size="10">500%</text>
  <line x1="90.0" y1="813.0" x2="700.0" y2="813.0" stroke="#e5e7eb" stroke-width="1"/>
  <text x="82.0" y="813.0" text-anchor="end" dominant-baseline="middle" fill="#374151" font-size="10">600%</text>
  <line x1="90.0" y1="787.0" x2="700.0" y2="787.0" stroke="#e5e7eb" stroke-width="1"/>
  <text x="82.0" y="787.0" text-anchor="end" dominant-baseline="middle" fill="#374151" font-size="10">700%</text>
  <line x1="90.0" y1="761.0" x2="700.0" y2="761.0" stroke="#e5e7eb" stroke-width="1"/>
  <text x="82.0" y="761.0" text-anchor="end" dominant-baseline="middle" fill="#374151" font-size="10">800%</text>
  <line x1="90.0" y1="735.0" x2="700.0" y2="735.0" stroke="#e5e7eb" stroke-width="1"/>
  <text x="82.0" y="735.0" text-anchor="end" dominant-baseline="middle" fill="#374151" font-size="10">900%</text>
  <line x1="90.0" y1="709.0" x2="700.0" y2="709.0" stroke="#e5e7eb" stroke-width="1"/>
  <text x="82.0" y="709.0" text-anchor="end" dominant-baseline="middle" fill="#374151" font-size="10">1000%</text>
  <line x1="90.0" y1="884.1" x2="700.0" y2="884.1" stroke="#e5e7eb" stroke-width="1" stroke-dasharray="3,6"/>
  <text x="708.0" y="884.1" text-anchor="start" dominant-baseline="middle" fill="#6b7280" font-size="10">2 GB/s</text>
  <line x1="90.0" y1="799.2" x2="700.0" y2="799.2" stroke="#e5e7eb" stroke-width="1" stroke-dasharray="3,6"/>
  <text x="708.0" y="799.2" text-anchor="start" dominant-baseline="middle" fill="#6b7280" font-size="10">4 GB/s</text>
  <line x1="90.0" y1="714.3" x2="700.0" y2="714.3" stroke="#e5e7eb" stroke-width="1" stroke-dasharray="3,6"/>
  <text x="708.0" y="714.3" text-anchor="start" dominant-baseline="middle" fill="#6b7280" font-size="10">6 GB/s</text>
  <text x="788.0" y="915.4" text-anchor="start" dominant-baseline="middle" fill="#9ca3af" font-size="10">2M/s</text>
  <text x="788.0" y="861.8" text-anchor="start" dominant-baseline="middle" fill="#9ca3af" font-size="10">4M/s</text>
  <text x="788.0" y="808.1" text-anchor="start" dominant-baseline="middle" fill="#9ca3af" font-size="10">6M/s</text>
  <text x="788.0" y="754.5" text-anchor="start" dominant-baseline="middle" fill="#9ca3af" font-size="10">8M/s</text>
  <line x1="90.0" y1="709.0" x2="90.0" y2="969.0" stroke="#e5e7eb" stroke-width="1"/>
  <line x1="140.8" y1="709.0" x2="140.8" y2="969.0" stroke="#e5e7eb" stroke-width="1"/>
  <line x1="191.7" y1="709.0" x2="191.7" y2="969.0" stroke="#e5e7eb" stroke-width="1"/>
  <line x1="242.5" y1="709.0" x2="242.5" y2="969.0" stroke="#e5e7eb" stroke-width="1"/>
  <line x1="293.3" y1="709.0" x2="293.3" y2="969.0" stroke="#e5e7eb" stroke-width="1"/>
  <line x1="344.2" y1="709.0" x2="344.2" y2="969.0" stroke="#e5e7eb" stroke-width="1"/>
  <line x1="395.0" y1="709.0" x2="395.0" y2="969.0" stroke="#e5e7eb" stroke-width="1"/>
  <line x1="445.8" y1="709.0" x2="445.8" y2="969.0" stroke="#e5e7eb" stroke-width="1"/>
  <line x1="496.7" y1="709.0" x2="496.7" y2="969.0" stroke="#e5e7eb" stroke-width="1"/>
  <line x1="547.5" y1="709.0" x2="547.5" y2="969.0" stroke="#e5e7eb" stroke-width="1"/>
  <line x1="598.3" y1="709.0" x2="598.3" y2="969.0" stroke="#e5e7eb" stroke-width="1"/>
  <line x1="649.2" y1="709.0" x2="649.2" y2="969.0" stroke="#e5e7eb" stroke-width="1"/>
  <line x1="700.0" y1="709.0" x2="700.0" y2="969.0" stroke="#e5e7eb" stroke-width="1"/>
  <line x1="90.0" y1="709.0" x2="90.0" y2="969.0" stroke="#9ca3af" stroke-width="1.5"/>
  <line x1="700.0" y1="709.0" x2="700.0" y2="969.0" stroke="#9ca3af" stroke-width="1.5"/>
  <line x1="90.0" y1="969.0" x2="700.0" y2="969.0" stroke="#9ca3af" stroke-width="1.5"/>
  <line x1="780.0" y1="709.0" x2="780.0" y2="969.0" stroke="#d1d5db" stroke-width="1"/>
  <text x="40.0" y="839.0" text-anchor="middle" fill="#374151" font-size="10" font-weight="600" transform="rotate(-90,40.0,839.0)">CPU %</text>
  <polyline points="90.0,777.0 140.8,780.6 191.7,769.8 242.5,783.6 293.3,784.0 344.2,777.5 395.0,777.3 445.8,765.0 496.7,778.1 547.5,766.1 598.3,775.8 649.2,775.5 700.0,776.3" fill="none" stroke="#16a34a" stroke-width="1.6" stroke-dasharray="2,5" opacity="0.85"/>
  <polyline points="90.0,876.5 140.8,882.2 191.7,879.9 242.5,888.2 293.3,878.1 344.2,876.4 395.0,900.3 445.8,897.3 496.7,916.4 547.5,923.1 598.3,924.4 649.2,927.7 700.0,926.3" fill="none" stroke="#7c3aed" stroke-width="1.6" stroke-dasharray="2,5" opacity="0.85"/>
  <polyline points="90.0,917.4 140.8,904.1 191.7,906.4 242.5,909.4 293.3,909.7 344.2,906.9 395.0,913.8 445.8,921.3 496.7,932.2 547.5,944.4 598.3,954.0 649.2,960.9 700.0,964.6" fill="none" stroke="#16a34a" stroke-width="2.0" stroke-dasharray="5,3"/>
  <polyline points="90.0,742.9 140.8,744.4 191.7,749.6 242.5,813.2 293.3,819.5 344.2,850.0 395.0,873.6 445.8,894.2 496.7,927.3 547.5,946.5 598.3,957.1 649.2,963.1 700.0,966.2" fill="none" stroke="#7c3aed" stroke-width="2.0" stroke-dasharray="5,3"/>
  <polyline points="90.0,968.3 140.8,967.4 191.7,965.8 242.5,963.0 293.3,957.0 344.2,943.9 395.0,924.2 445.8,891.7 496.7,849.7 547.5,809.3 598.3,774.3 649.2,759.9 700.0,742.9" fill="none" stroke="#16a34a" stroke-width="2.0" stroke-linecap="round" stroke-linejoin="round"/>
  <circle cx="90.0" cy="968.3" r="2.2" fill="#16a34a" stroke="white" stroke-width="1"/>
  <circle cx="140.8" cy="967.4" r="2.2" fill="#16a34a" stroke="white" stroke-width="1"/>
  <circle cx="191.7" cy="965.8" r="2.2" fill="#16a34a" stroke="white" stroke-width="1"/>
  <circle cx="242.5" cy="963.0" r="2.2" fill="#16a34a" stroke="white" stroke-width="1"/>
  <circle cx="293.3" cy="957.0" r="2.2" fill="#16a34a" stroke="white" stroke-width="1"/>
  <circle cx="344.2" cy="943.9" r="2.2" fill="#16a34a" stroke="white" stroke-width="1"/>
  <circle cx="395.0" cy="924.2" r="2.2" fill="#16a34a" stroke="white" stroke-width="1"/>
  <circle cx="445.8" cy="891.7" r="2.2" fill="#16a34a" stroke="white" stroke-width="1"/>
  <circle cx="496.7" cy="849.7" r="2.2" fill="#16a34a" stroke="white" stroke-width="1"/>
  <circle cx="547.5" cy="809.3" r="2.2" fill="#16a34a" stroke="white" stroke-width="1"/>
  <circle cx="598.3" cy="774.3" r="2.2" fill="#16a34a" stroke="white" stroke-width="1"/>
  <circle cx="649.2" cy="759.9" r="2.2" fill="#16a34a" stroke="white" stroke-width="1"/>
  <circle cx="700.0" cy="742.9" r="2.2" fill="#16a34a" stroke="white" stroke-width="1"/>
  <polyline points="90.0,966.1 140.8,963.3 191.7,957.9 242.5,953.2 293.3,938.7 344.2,920.8 395.0,891.7 445.8,847.8 496.7,833.8 547.5,823.0 598.3,814.9 649.2,815.3 700.0,822.7" fill="none" stroke="#7c3aed" stroke-width="2.0" stroke-linecap="round" stroke-linejoin="round"/>
  <circle cx="90.0" cy="966.1" r="2.2" fill="#7c3aed" stroke="white" stroke-width="1"/>
  <circle cx="140.8" cy="963.3" r="2.2" fill="#7c3aed" stroke="white" stroke-width="1"/>
  <circle cx="191.7" cy="957.9" r="2.2" fill="#7c3aed" stroke="white" stroke-width="1"/>
  <circle cx="242.5" cy="953.2" r="2.2" fill="#7c3aed" stroke="white" stroke-width="1"/>
  <circle cx="293.3" cy="938.7" r="2.2" fill="#7c3aed" stroke="white" stroke-width="1"/>
  <circle cx="344.2" cy="920.8" r="2.2" fill="#7c3aed" stroke="white" stroke-width="1"/>
  <circle cx="395.0" cy="891.7" r="2.2" fill="#7c3aed" stroke="white" stroke-width="1"/>
  <circle cx="445.8" cy="847.8" r="2.2" fill="#7c3aed" stroke="white" stroke-width="1"/>
  <circle cx="496.7" cy="833.8" r="2.2" fill="#7c3aed" stroke="white" stroke-width="1"/>
  <circle cx="547.5" cy="823.0" r="2.2" fill="#7c3aed" stroke="white" stroke-width="1"/>
  <circle cx="598.3" cy="814.9" r="2.2" fill="#7c3aed" stroke="white" stroke-width="1"/>
  <circle cx="649.2" cy="815.3" r="2.2" fill="#7c3aed" stroke="white" stroke-width="1"/>
  <circle cx="700.0" cy="822.7" r="2.2" fill="#7c3aed" stroke="white" stroke-width="1"/>
  <text x="90.0" y="983.0" text-anchor="middle" fill="#374151" font-size="8.5">8 B</text>
  <text x="140.8" y="983.0" text-anchor="middle" fill="#374151" font-size="8.5">16 B</text>
  <text x="191.7" y="983.0" text-anchor="middle" fill="#374151" font-size="8.5">32 B</text>
  <text x="242.5" y="983.0" text-anchor="middle" fill="#374151" font-size="8.5">64 B</text>
  <text x="293.3" y="983.0" text-anchor="middle" fill="#374151" font-size="8.5">128 B</text>
  <text x="344.2" y="983.0" text-anchor="middle" fill="#374151" font-size="8.5">256 B</text>
  <text x="395.0" y="983.0" text-anchor="middle" fill="#374151" font-size="8.5">512 B</text>
  <text x="445.8" y="983.0" text-anchor="middle" fill="#374151" font-size="8.5">1 KiB</text>
  <text x="496.7" y="983.0" text-anchor="middle" fill="#374151" font-size="8.5">2 KiB</text>
  <text x="547.5" y="983.0" text-anchor="middle" fill="#374151" font-size="8.5">4 KiB</text>
  <text x="598.3" y="983.0" text-anchor="middle" fill="#374151" font-size="8.5">8 KiB</text>
  <text x="649.2" y="983.0" text-anchor="middle" fill="#374151" font-size="8.5">16 KiB</text>
  <text x="700.0" y="983.0" text-anchor="middle" fill="#374151" font-size="8.5">32 KiB</text>
  <line x1="205" y1="999" x2="219" y2="999" stroke="#7c3aed" stroke-width="2.5"/>
  <circle cx="212" cy="999" r="2.5" fill="#7c3aed"/>
  <text x="225" y="1003" fill="#374151" font-size="11" font-weight="500">omq-compio (ST)</text>
  <line x1="395" y1="999" x2="409" y2="999" stroke="#16a34a" stroke-width="2.5"/>
  <circle cx="402" cy="999" r="2.5" fill="#16a34a"/>
  <text x="415" y="1003" fill="#374151" font-size="11" font-weight="500">rzmq v0.5.22 (io_uring, MT)</text>
  <text x="395.0" y="1017" text-anchor="middle" fill="#9ca3af" font-size="9">ST = single-threaded   MT = multi-threaded</text>
  <line x1="145" y1="1039" x2="159" y2="1039" stroke="#6b7280" stroke-width="1.6" stroke-dasharray="2,5" opacity="0.85"/>
  <text x="165" y="1043" fill="#6b7280" font-size="10">CPU % (left)</text>
  <line x1="290" y1="1039" x2="304" y2="1039" stroke="#6b7280" stroke-width="2.0"/>
  <circle cx="297" cy="1039" r="1.8" fill="#6b7280"/>
  <text x="310" y="1043" fill="#6b7280" font-size="10">GB/s (inner right)</text>
  <line x1="455" y1="1039" x2="469" y2="1039" stroke="#6b7280" stroke-width="2.0" stroke-dasharray="5,3"/>
  <text x="475" y="1043" fill="#6b7280" font-size="10">msg/s (outer right)</text>
</svg>
