<svg xmlns="http://www.w3.org/2000/svg" viewBox="0 0 1020 1105" font-family="system-ui, -apple-system, sans-serif">
  <rect width="1020" height="1105" fill="white"/>
  <text x="510.0" y="32.0" text-anchor="middle" fill="#9ca3af" font-size="9">Linux VM on a 2018 Mac Mini, Intel Core i7-8700B @ 3.20GHz, 6 cores, performance governor, turbo off</text>
  <text x="510.0" y="51.0" text-anchor="middle" fill="#111827" font-size="13" font-weight="700">PUSH fan-in (2 PUSH → 1 PULL): TCP loopback</text>
  <text x="231.2" y="73.0" text-anchor="middle" fill="#111827" font-size="11.5" font-weight="700">small messages: msg/s</text>
  <line x1="78.0" y1="291.6" x2="384.4" y2="291.6" stroke="#e5e7eb" stroke-width="1"/>
  <text x="70.0" y="291.6" text-anchor="end" dominant-baseline="middle" fill="#374151" font-size="8.5">100%</text>
  <line x1="78.0" y1="262.2" x2="384.4" y2="262.2" stroke="#e5e7eb" stroke-width="1"/>
  <text x="70.0" y="262.2" text-anchor="end" dominant-baseline="middle" fill="#374151" font-size="8.5">200%</text>
  <line x1="78.0" y1="232.9" x2="384.4" y2="232.9" stroke="#e5e7eb" stroke-width="1"/>
  <text x="70.0" y="232.9" text-anchor="end" dominant-baseline="middle" fill="#374151" font-size="8.5">300%</text>
  <line x1="78.0" y1="203.5" x2="384.4" y2="203.5" stroke="#e5e7eb" stroke-width="1"/>
  <text x="70.0" y="203.5" text-anchor="end" dominant-baseline="middle" fill="#374151" font-size="8.5">400%</text>
  <line x1="78.0" y1="174.1" x2="384.4" y2="174.1" stroke="#e5e7eb" stroke-width="1"/>
  <text x="70.0" y="174.1" text-anchor="end" dominant-baseline="middle" fill="#374151" font-size="8.5">500%</text>
  <line x1="78.0" y1="144.8" x2="384.4" y2="144.8" stroke="#e5e7eb" stroke-width="1"/>
  <text x="70.0" y="144.8" text-anchor="end" dominant-baseline="middle" fill="#374151" font-size="8.5">600%</text>
  <line x1="78.0" y1="115.4" x2="384.4" y2="115.4" stroke="#e5e7eb" stroke-width="1"/>
  <text x="70.0" y="115.4" text-anchor="end" dominant-baseline="middle" fill="#374151" font-size="8.5">700%</text>
  <line x1="78.0" y1="86.0" x2="384.4" y2="86.0" stroke="#e5e7eb" stroke-width="1"/>
  <text x="70.0" y="86.0" text-anchor="end" dominant-baseline="middle" fill="#374151" font-size="8.5">800%</text>
  <line x1="384.4" y1="286.3" x2="388.4" y2="286.3" stroke="#9ca3af" stroke-width="1"/>
  <text x="392.4" y="286.3" text-anchor="start" dominant-baseline="middle" fill="#6b7280" font-size="8.5">2M/s</text>
  <line x1="384.4" y1="251.7" x2="388.4" y2="251.7" stroke="#9ca3af" stroke-width="1"/>
  <text x="392.4" y="251.7" text-anchor="start" dominant-baseline="middle" fill="#6b7280" font-size="8.5">4M/s</text>
  <line x1="384.4" y1="217.0" x2="388.4" y2="217.0" stroke="#9ca3af" stroke-width="1"/>
  <text x="392.4" y="217.0" text-anchor="start" dominant-baseline="middle" fill="#6b7280" font-size="8.5">6M/s</text>
  <line x1="384.4" y1="182.4" x2="388.4" y2="182.4" stroke="#9ca3af" stroke-width="1"/>
  <text x="392.4" y="182.4" text-anchor="start" dominant-baseline="middle" fill="#6b7280" font-size="8.5">8M/s</text>
  <line x1="384.4" y1="147.7" x2="388.4" y2="147.7" stroke="#9ca3af" stroke-width="1"/>
  <text x="392.4" y="147.7" text-anchor="start" dominant-baseline="middle" fill="#6b7280" font-size="8.5">10M/s</text>
  <line x1="384.4" y1="113.0" x2="388.4" y2="113.0" stroke="#9ca3af" stroke-width="1"/>
  <text x="392.4" y="113.0" text-anchor="start" dominant-baseline="middle" fill="#6b7280" font-size="8.5">12M/s</text>
  <line x1="78.0" y1="86.0" x2="78.0" y2="321.0" stroke="#e5e7eb" stroke-width="1"/>
  <line x1="231.2" y1="86.0" x2="231.2" y2="321.0" stroke="#e5e7eb" stroke-width="1"/>
  <line x1="384.4" y1="86.0" x2="384.4" y2="321.0" stroke="#e5e7eb" stroke-width="1"/>
  <line x1="78.0" y1="86.0" x2="78.0" y2="321.0" stroke="#9ca3af" stroke-width="1.5"/>
  <line x1="384.4" y1="86.0" x2="384.4" y2="321.0" stroke="#9ca3af" stroke-width="1.5"/>
  <line x1="78.0" y1="321.0" x2="384.4" y2="321.0" stroke="#9ca3af" stroke-width="1.5"/>
  <text x="30.0" y="203.5" text-anchor="middle" fill="#374151" font-size="10" font-weight="600" transform="rotate(-90,30.0,203.5)">CPU %</text>
  <polyline points="78.0,187.7 231.2,193.1 384.4,192.4" fill="none" stroke="#15803d" stroke-width="1.6" stroke-dasharray="2,5" opacity="0.85"/>
  <polyline points="78.0,187.5 231.2,153.0 384.4,138.0" fill="none" stroke="#eab308" stroke-width="1.6" stroke-dasharray="2,5" opacity="0.85"/>
  <polyline points="78.0,195.2 231.2,163.4 384.4,144.9" fill="none" stroke="#a16207" stroke-width="1.6" stroke-dasharray="2,5" opacity="0.85"/>
  <polyline points="78.0,173.9 231.2,177.2 384.4,184.2" fill="none" stroke="#dc2626" stroke-width="1.6" stroke-dasharray="2,5" opacity="0.85"/>
  <polyline points="78.0,238.9 231.2,238.9 384.4,248.9" fill="none" stroke="#f97316" stroke-width="1.6" stroke-dasharray="2,5" opacity="0.85"/>
  <polyline points="78.0,244.4 231.2,247.9 384.4,252.6" fill="none" stroke="#16a34a" stroke-width="1.6" stroke-dasharray="2,5" opacity="0.85"/>
  <polyline points="78.0,223.2 231.2,230.6 384.4,232.1" fill="none" stroke="#2563eb" stroke-width="1.6" stroke-dasharray="2,5" opacity="0.85"/>
  <polyline points="78.0,283.5 231.2,284.2 384.4,284.6" fill="none" stroke="#15803d" stroke-width="2.5" stroke-dasharray="6,3"/>
  <polyline points="78.0,177.5 231.2,202.9 384.4,250.9" fill="none" stroke="#eab308" stroke-width="2.5" stroke-dasharray="6,3"/>
  <polyline points="78.0,179.1 231.2,204.2 384.4,249.7" fill="none" stroke="#a16207" stroke-width="2.5" stroke-dasharray="6,3"/>
  <polyline points="78.0,140.6 231.2,199.1 384.4,219.8" fill="none" stroke="#dc2626" stroke-width="2.5" stroke-dasharray="6,3"/>
  <polyline points="78.0,116.7 231.2,186.6 384.4,228.8" fill="none" stroke="#f97316" stroke-width="2.5" stroke-dasharray="6,3"/>
  <polyline points="78.0,280.1 231.2,281.2 384.4,282.2" fill="none" stroke="#16a34a" stroke-width="2.5" stroke-dasharray="6,3"/>
  <polyline points="78.0,306.1 231.2,310.9 384.4,312.1" fill="none" stroke="#2563eb" stroke-width="2.5" stroke-dasharray="6,3"/>
  <text x="78.0" y="335.0" text-anchor="middle" fill="#374151" font-size="8.5">16 B</text>
  <text x="231.2" y="335.0" text-anchor="middle" fill="#374151" font-size="8.5">64 B</text>
  <text x="384.4" y="335.0" text-anchor="middle" fill="#374151" font-size="8.5">256 B</text>
  <text x="712.2" y="73.0" text-anchor="middle" fill="#111827" font-size="11.5" font-weight="700">medium/large messages: GB/s</text>
  <line x1="482.4" y1="291.6" x2="942.0" y2="291.6" stroke="#e5e7eb" stroke-width="1"/>
  <text x="474.4" y="291.6" text-anchor="end" dominant-baseline="middle" fill="#374151" font-size="8.5">100%</text>
  <line x1="482.4" y1="262.2" x2="942.0" y2="262.2" stroke="#e5e7eb" stroke-width="1"/>
  <text x="474.4" y="262.2" text-anchor="end" dominant-baseline="middle" fill="#374151" font-size="8.5">200%</text>
  <line x1="482.4" y1="232.9" x2="942.0" y2="232.9" stroke="#e5e7eb" stroke-width="1"/>
  <text x="474.4" y="232.9" text-anchor="end" dominant-baseline="middle" fill="#374151" font-size="8.5">300%</text>
  <line x1="482.4" y1="203.5" x2="942.0" y2="203.5" stroke="#e5e7eb" stroke-width="1"/>
  <text x="474.4" y="203.5" text-anchor="end" dominant-baseline="middle" fill="#374151" font-size="8.5">400%</text>
  <line x1="482.4" y1="174.1" x2="942.0" y2="174.1" stroke="#e5e7eb" stroke-width="1"/>
  <text x="474.4" y="174.1" text-anchor="end" dominant-baseline="middle" fill="#374151" font-size="8.5">500%</text>
  <line x1="482.4" y1="144.8" x2="942.0" y2="144.8" stroke="#e5e7eb" stroke-width="1"/>
  <text x="474.4" y="144.8" text-anchor="end" dominant-baseline="middle" fill="#374151" font-size="8.5">600%</text>
  <line x1="482.4" y1="115.4" x2="942.0" y2="115.4" stroke="#e5e7eb" stroke-width="1"/>
  <text x="474.4" y="115.4" text-anchor="end" dominant-baseline="middle" fill="#374151" font-size="8.5">700%</text>
  <line x1="482.4" y1="86.0" x2="942.0" y2="86.0" stroke="#e5e7eb" stroke-width="1"/>
  <text x="474.4" y="86.0" text-anchor="end" dominant-baseline="middle" fill="#374151" font-size="8.5">800%</text>
  <line x1="942.0" y1="285.7" x2="946.0" y2="285.7" stroke="#9ca3af" stroke-width="1"/>
  <text x="950.0" y="285.7" text-anchor="start" dominant-baseline="middle" fill="#6b7280" font-size="8.5">1 GB/s</text>
  <line x1="942.0" y1="250.3" x2="946.0" y2="250.3" stroke="#9ca3af" stroke-width="1"/>
  <text x="950.0" y="250.3" text-anchor="start" dominant-baseline="middle" fill="#6b7280" font-size="8.5">2 GB/s</text>
  <line x1="942.0" y1="215.0" x2="946.0" y2="215.0" stroke="#9ca3af" stroke-width="1"/>
  <text x="950.0" y="215.0" text-anchor="start" dominant-baseline="middle" fill="#6b7280" font-size="8.5">3 GB/s</text>
  <line x1="942.0" y1="179.6" x2="946.0" y2="179.6" stroke="#9ca3af" stroke-width="1"/>
  <text x="950.0" y="179.6" text-anchor="start" dominant-baseline="middle" fill="#6b7280" font-size="8.5">4 GB/s</text>
  <line x1="942.0" y1="144.3" x2="946.0" y2="144.3" stroke="#9ca3af" stroke-width="1"/>
  <text x="950.0" y="144.3" text-anchor="start" dominant-baseline="middle" fill="#6b7280" font-size="8.5">5 GB/s</text>
  <line x1="942.0" y1="108.9" x2="946.0" y2="108.9" stroke="#9ca3af" stroke-width="1"/>
  <text x="950.0" y="108.9" text-anchor="start" dominant-baseline="middle" fill="#6b7280" font-size="8.5">6 GB/s</text>
  <line x1="482.4" y1="86.0" x2="482.4" y2="321.0" stroke="#e5e7eb" stroke-width="1"/>
  <line x1="635.6" y1="86.0" x2="635.6" y2="321.0" stroke="#e5e7eb" stroke-width="1"/>
  <line x1="788.8" y1="86.0" x2="788.8" y2="321.0" stroke="#e5e7eb" stroke-width="1"/>
  <line x1="942.0" y1="86.0" x2="942.0" y2="321.0" stroke="#e5e7eb" stroke-width="1"/>
  <line x1="482.4" y1="86.0" x2="482.4" y2="321.0" stroke="#9ca3af" stroke-width="1.5"/>
  <line x1="942.0" y1="86.0" x2="942.0" y2="321.0" stroke="#9ca3af" stroke-width="1.5"/>
  <line x1="482.4" y1="321.0" x2="942.0" y2="321.0" stroke="#9ca3af" stroke-width="1.5"/>
  <text x="434.4" y="203.5" text-anchor="middle" fill="#374151" font-size="10" font-weight="600" transform="rotate(-90,434.4,203.5)">CPU %</text>
  <polyline points="482.4,192.4 635.6,190.9 788.8,202.6 942.0,208.8" fill="none" stroke="#15803d" stroke-width="1.6" stroke-dasharray="2,5" opacity="0.85"/>
  <polyline points="482.4,138.0 635.6,185.8 788.8,219.3 942.0,214.9" fill="none" stroke="#eab308" stroke-width="1.6" stroke-dasharray="2,5" opacity="0.85"/>
  <polyline points="482.4,144.9 635.6,156.2 788.8,165.0 942.0,175.7" fill="none" stroke="#a16207" stroke-width="1.6" stroke-dasharray="2,5" opacity="0.85"/>
  <polyline points="482.4,184.2 635.6,195.5 788.8,205.6 942.0,204.3" fill="none" stroke="#dc2626" stroke-width="1.6" stroke-dasharray="2,5" opacity="0.85"/>
  <polyline points="482.4,248.9 635.6,247.9 788.8,251.3 942.0,238.3" fill="none" stroke="#f97316" stroke-width="1.6" stroke-dasharray="2,5" opacity="0.85"/>
  <polyline points="482.4,252.6 635.6,253.8 788.8,222.0 942.0,212.5" fill="none" stroke="#16a34a" stroke-width="1.6" stroke-dasharray="2,5" opacity="0.85"/>
  <polyline points="482.4,232.1 635.6,233.0 788.8,221.9 942.0,266.7" fill="none" stroke="#2563eb" stroke-width="1.6" stroke-dasharray="2,5" opacity="0.85"/>
  <polyline points="482.4,302.0 635.6,258.9 788.8,178.8 942.0,129.9" fill="none" stroke="#15803d" stroke-width="2.5" stroke-linecap="round" stroke-linejoin="round"/>
  <circle cx="482.4" cy="302.0" r="3" fill="#15803d" stroke="white" stroke-width="1"/>
  <circle cx="635.6" cy="258.9" r="3" fill="#15803d" stroke="white" stroke-width="1"/>
  <circle cx="788.8" cy="178.8" r="3" fill="#15803d" stroke="white" stroke-width="1"/>
  <circle cx="942.0" cy="129.9" r="3" fill="#15803d" stroke="white" stroke-width="1"/>
  <polyline points="482.4,284.4 635.6,265.7 788.8,261.4 942.0,246.8" fill="none" stroke="#eab308" stroke-width="2.5" stroke-linecap="round" stroke-linejoin="round"/>
  <circle cx="482.4" cy="284.4" r="3" fill="#eab308" stroke="white" stroke-width="1"/>
  <circle cx="635.6" cy="265.7" r="3" fill="#eab308" stroke="white" stroke-width="1"/>
  <circle cx="788.8" cy="261.4" r="3" fill="#eab308" stroke="white" stroke-width="1"/>
  <circle cx="942.0" cy="246.8" r="3" fill="#eab308" stroke="white" stroke-width="1"/>
  <polyline points="482.4,283.8 635.6,257.3 788.8,243.3 942.0,237.9" fill="none" stroke="#a16207" stroke-width="2.5" stroke-linecap="round" stroke-linejoin="round"/>
  <circle cx="482.4" cy="283.8" r="3" fill="#a16207" stroke="white" stroke-width="1"/>
  <circle cx="635.6" cy="257.3" r="3" fill="#a16207" stroke="white" stroke-width="1"/>
  <circle cx="788.8" cy="243.3" r="3" fill="#a16207" stroke="white" stroke-width="1"/>
  <circle cx="942.0" cy="237.9" r="3" fill="#a16207" stroke="white" stroke-width="1"/>
  <polyline points="482.4,268.1 635.6,181.4 788.8,148.3 942.0,135.1" fill="none" stroke="#dc2626" stroke-width="2.5" stroke-linecap="round" stroke-linejoin="round"/>
  <circle cx="482.4" cy="268.1" r="3" fill="#dc2626" stroke="white" stroke-width="1"/>
  <circle cx="635.6" cy="181.4" r="3" fill="#dc2626" stroke="white" stroke-width="1"/>
  <circle cx="788.8" cy="148.3" r="3" fill="#dc2626" stroke="white" stroke-width="1"/>
  <circle cx="942.0" cy="135.1" r="3" fill="#dc2626" stroke="white" stroke-width="1"/>
  <polyline points="482.4,272.9 635.6,201.2 788.8,176.5 942.0,116.7" fill="none" stroke="#f97316" stroke-width="2.5" stroke-linecap="round" stroke-linejoin="round"/>
  <circle cx="482.4" cy="272.9" r="3" fill="#f97316" stroke="white" stroke-width="1"/>
  <circle cx="635.6" cy="201.2" r="3" fill="#f97316" stroke="white" stroke-width="1"/>
  <circle cx="788.8" cy="176.5" r="3" fill="#f97316" stroke="white" stroke-width="1"/>
  <circle cx="942.0" cy="116.7" r="3" fill="#f97316" stroke="white" stroke-width="1"/>
  <polyline points="482.4,300.7 635.6,261.5 788.8,161.2 942.0,124.1" fill="none" stroke="#16a34a" stroke-width="2.5" stroke-linecap="round" stroke-linejoin="round"/>
  <circle cx="482.4" cy="300.7" r="3" fill="#16a34a" stroke="white" stroke-width="1"/>
  <circle cx="635.6" cy="261.5" r="3" fill="#16a34a" stroke="white" stroke-width="1"/>
  <circle cx="788.8" cy="161.2" r="3" fill="#16a34a" stroke="white" stroke-width="1"/>
  <circle cx="942.0" cy="124.1" r="3" fill="#16a34a" stroke="white" stroke-width="1"/>
  <polyline points="482.4,316.4 635.6,294.4 788.8,233.7 942.0,219.8" fill="none" stroke="#2563eb" stroke-width="2.5" stroke-linecap="round" stroke-linejoin="round"/>
  <circle cx="482.4" cy="316.4" r="3" fill="#2563eb" stroke="white" stroke-width="1"/>
  <circle cx="635.6" cy="294.4" r="3" fill="#2563eb" stroke="white" stroke-width="1"/>
  <circle cx="788.8" cy="233.7" r="3" fill="#2563eb" stroke="white" stroke-width="1"/>
  <circle cx="942.0" cy="219.8" r="3" fill="#2563eb" stroke="white" stroke-width="1"/>
  <text x="482.4" y="335.0" text-anchor="middle" fill="#374151" font-size="8.5">256 B</text>
  <text x="635.6" y="335.0" text-anchor="middle" fill="#374151" font-size="8.5">1 KiB</text>
  <text x="788.8" y="335.0" text-anchor="middle" fill="#374151" font-size="8.5">4 KiB</text>
  <text x="942.0" y="335.0" text-anchor="middle" fill="#374151" font-size="8.5">16 KiB</text>
  <text x="510.0" y="368.0" text-anchor="middle" fill="#111827" font-size="13" font-weight="700">PUSH fan-in (4 PUSH → 1 PULL): TCP loopback</text>
  <text x="231.2" y="390.0" text-anchor="middle" fill="#111827" font-size="11.5" font-weight="700">small messages: msg/s</text>
  <line x1="78.0" y1="608.6" x2="384.4" y2="608.6" stroke="#e5e7eb" stroke-width="1"/>
  <text x="70.0" y="608.6" text-anchor="end" dominant-baseline="middle" fill="#374151" font-size="8.5">100%</text>
  <line x1="78.0" y1="579.2" x2="384.4" y2="579.2" stroke="#e5e7eb" stroke-width="1"/>
  <text x="70.0" y="579.2" text-anchor="end" dominant-baseline="middle" fill="#374151" font-size="8.5">200%</text>
  <line x1="78.0" y1="549.9" x2="384.4" y2="549.9" stroke="#e5e7eb" stroke-width="1"/>
  <text x="70.0" y="549.9" text-anchor="end" dominant-baseline="middle" fill="#374151" font-size="8.5">300%</text>
  <line x1="78.0" y1="520.5" x2="384.4" y2="520.5" stroke="#e5e7eb" stroke-width="1"/>
  <text x="70.0" y="520.5" text-anchor="end" dominant-baseline="middle" fill="#374151" font-size="8.5">400%</text>
  <line x1="78.0" y1="491.1" x2="384.4" y2="491.1" stroke="#e5e7eb" stroke-width="1"/>
  <text x="70.0" y="491.1" text-anchor="end" dominant-baseline="middle" fill="#374151" font-size="8.5">500%</text>
  <line x1="78.0" y1="461.8" x2="384.4" y2="461.8" stroke="#e5e7eb" stroke-width="1"/>
  <text x="70.0" y="461.8" text-anchor="end" dominant-baseline="middle" fill="#374151" font-size="8.5">600%</text>
  <line x1="78.0" y1="432.4" x2="384.4" y2="432.4" stroke="#e5e7eb" stroke-width="1"/>
  <text x="70.0" y="432.4" text-anchor="end" dominant-baseline="middle" fill="#374151" font-size="8.5">700%</text>
  <line x1="78.0" y1="403.0" x2="384.4" y2="403.0" stroke="#e5e7eb" stroke-width="1"/>
  <text x="70.0" y="403.0" text-anchor="end" dominant-baseline="middle" fill="#374151" font-size="8.5">800%</text>
  <line x1="384.4" y1="603.5" x2="388.4" y2="603.5" stroke="#9ca3af" stroke-width="1"/>
  <text x="392.4" y="603.5" text-anchor="start" dominant-baseline="middle" fill="#6b7280" font-size="8.5">2M/s</text>
  <line x1="384.4" y1="569.0" x2="388.4" y2="569.0" stroke="#9ca3af" stroke-width="1"/>
  <text x="392.4" y="569.0" text-anchor="start" dominant-baseline="middle" fill="#6b7280" font-size="8.5">4M/s</text>
  <line x1="384.4" y1="534.5" x2="388.4" y2="534.5" stroke="#9ca3af" stroke-width="1"/>
  <text x="392.4" y="534.5" text-anchor="start" dominant-baseline="middle" fill="#6b7280" font-size="8.5">6M/s</text>
  <line x1="384.4" y1="500.0" x2="388.4" y2="500.0" stroke="#9ca3af" stroke-width="1"/>
  <text x="392.4" y="500.0" text-anchor="start" dominant-baseline="middle" fill="#6b7280" font-size="8.5">8M/s</text>
  <line x1="384.4" y1="465.5" x2="388.4" y2="465.5" stroke="#9ca3af" stroke-width="1"/>
  <text x="392.4" y="465.5" text-anchor="start" dominant-baseline="middle" fill="#6b7280" font-size="8.5">10M/s</text>
  <line x1="384.4" y1="431.0" x2="388.4" y2="431.0" stroke="#9ca3af" stroke-width="1"/>
  <text x="392.4" y="431.0" text-anchor="start" dominant-baseline="middle" fill="#6b7280" font-size="8.5">12M/s</text>
  <line x1="78.0" y1="403.0" x2="78.0" y2="638.0" stroke="#e5e7eb" stroke-width="1"/>
  <line x1="231.2" y1="403.0" x2="231.2" y2="638.0" stroke="#e5e7eb" stroke-width="1"/>
  <line x1="384.4" y1="403.0" x2="384.4" y2="638.0" stroke="#e5e7eb" stroke-width="1"/>
  <line x1="78.0" y1="403.0" x2="78.0" y2="638.0" stroke="#9ca3af" stroke-width="1.5"/>
  <line x1="384.4" y1="403.0" x2="384.4" y2="638.0" stroke="#9ca3af" stroke-width="1.5"/>
  <line x1="78.0" y1="638.0" x2="384.4" y2="638.0" stroke="#9ca3af" stroke-width="1.5"/>
  <text x="30.0" y="520.5" text-anchor="middle" fill="#374151" font-size="10" font-weight="600" transform="rotate(-90,30.0,520.5)">CPU %</text>
  <polyline points="78.0,453.5 231.2,450.9 384.4,456.0" fill="none" stroke="#15803d" stroke-width="1.6" stroke-dasharray="2,5" opacity="0.85"/>
  <polyline points="78.0,518.7 231.2,463.2 384.4,475.1" fill="none" stroke="#eab308" stroke-width="1.6" stroke-dasharray="2,5" opacity="0.85"/>
  <polyline points="78.0,514.1 231.2,477.9 384.4,464.1" fill="none" stroke="#a16207" stroke-width="1.6" stroke-dasharray="2,5" opacity="0.85"/>
  <polyline points="78.0,497.3 231.2,493.5 384.4,496.4" fill="none" stroke="#dc2626" stroke-width="1.6" stroke-dasharray="2,5" opacity="0.85"/>
  <polyline points="78.0,554.3 231.2,553.1 384.4,565.5" fill="none" stroke="#f97316" stroke-width="1.6" stroke-dasharray="2,5" opacity="0.85"/>
  <polyline points="78.0,530.2 231.2,536.6 384.4,542.1" fill="none" stroke="#16a34a" stroke-width="1.6" stroke-dasharray="2,5" opacity="0.85"/>
  <polyline points="78.0,473.1 231.2,485.2 384.4,503.2" fill="none" stroke="#2563eb" stroke-width="1.6" stroke-dasharray="2,5" opacity="0.85"/>
  <polyline points="78.0,596.6 231.2,598.4 384.4,601.4" fill="none" stroke="#15803d" stroke-width="2.5" stroke-dasharray="6,3"/>
  <polyline points="78.0,475.7 231.2,504.8 384.4,562.0" fill="none" stroke="#eab308" stroke-width="2.5" stroke-dasharray="6,3"/>
  <polyline points="78.0,485.9 231.2,510.0 384.4,547.8" fill="none" stroke="#a16207" stroke-width="2.5" stroke-dasharray="6,3"/>
  <polyline points="78.0,475.9 231.2,516.4 384.4,530.9" fill="none" stroke="#dc2626" stroke-width="2.5" stroke-dasharray="6,3"/>
  <polyline points="78.0,433.7 231.2,506.0 384.4,548.2" fill="none" stroke="#f97316" stroke-width="2.5" stroke-dasharray="6,3"/>
  <polyline points="78.0,604.1 231.2,602.5 384.4,601.9" fill="none" stroke="#16a34a" stroke-width="2.5" stroke-dasharray="6,3"/>
  <polyline points="78.0,589.0 231.2,591.1 384.4,598.5" fill="none" stroke="#2563eb" stroke-width="2.5" stroke-dasharray="6,3"/>
  <text x="78.0" y="652.0" text-anchor="middle" fill="#374151" font-size="8.5">16 B</text>
  <text x="231.2" y="652.0" text-anchor="middle" fill="#374151" font-size="8.5">64 B</text>
  <text x="384.4" y="652.0" text-anchor="middle" fill="#374151" font-size="8.5">256 B</text>
  <text x="712.2" y="390.0" text-anchor="middle" fill="#111827" font-size="11.5" font-weight="700">medium/large messages: GB/s</text>
  <line x1="482.4" y1="608.6" x2="942.0" y2="608.6" stroke="#e5e7eb" stroke-width="1"/>
  <text x="474.4" y="608.6" text-anchor="end" dominant-baseline="middle" fill="#374151" font-size="8.5">100%</text>
  <line x1="482.4" y1="579.2" x2="942.0" y2="579.2" stroke="#e5e7eb" stroke-width="1"/>
  <text x="474.4" y="579.2" text-anchor="end" dominant-baseline="middle" fill="#374151" font-size="8.5">200%</text>
  <line x1="482.4" y1="549.9" x2="942.0" y2="549.9" stroke="#e5e7eb" stroke-width="1"/>
  <text x="474.4" y="549.9" text-anchor="end" dominant-baseline="middle" fill="#374151" font-size="8.5">300%</text>
  <line x1="482.4" y1="520.5" x2="942.0" y2="520.5" stroke="#e5e7eb" stroke-width="1"/>
  <text x="474.4" y="520.5" text-anchor="end" dominant-baseline="middle" fill="#374151" font-size="8.5">400%</text>
  <line x1="482.4" y1="491.1" x2="942.0" y2="491.1" stroke="#e5e7eb" stroke-width="1"/>
  <text x="474.4" y="491.1" text-anchor="end" dominant-baseline="middle" fill="#374151" font-size="8.5">500%</text>
  <line x1="482.4" y1="461.8" x2="942.0" y2="461.8" stroke="#e5e7eb" stroke-width="1"/>
  <text x="474.4" y="461.8" text-anchor="end" dominant-baseline="middle" fill="#374151" font-size="8.5">600%</text>
  <line x1="482.4" y1="432.4" x2="942.0" y2="432.4" stroke="#e5e7eb" stroke-width="1"/>
  <text x="474.4" y="432.4" text-anchor="end" dominant-baseline="middle" fill="#374151" font-size="8.5">700%</text>
  <line x1="482.4" y1="403.0" x2="942.0" y2="403.0" stroke="#e5e7eb" stroke-width="1"/>
  <text x="474.4" y="403.0" text-anchor="end" dominant-baseline="middle" fill="#374151" font-size="8.5">800%</text>
  <line x1="942.0" y1="601.3" x2="946.0" y2="601.3" stroke="#9ca3af" stroke-width="1"/>
  <text x="950.0" y="601.3" text-anchor="start" dominant-baseline="middle" fill="#6b7280" font-size="8.5">1 GB/s</text>
  <line x1="942.0" y1="564.5" x2="946.0" y2="564.5" stroke="#9ca3af" stroke-width="1"/>
  <text x="950.0" y="564.5" text-anchor="start" dominant-baseline="middle" fill="#6b7280" font-size="8.5">2 GB/s</text>
  <line x1="942.0" y1="527.8" x2="946.0" y2="527.8" stroke="#9ca3af" stroke-width="1"/>
  <text x="950.0" y="527.8" text-anchor="start" dominant-baseline="middle" fill="#6b7280" font-size="8.5">3 GB/s</text>
  <line x1="942.0" y1="491.0" x2="946.0" y2="491.0" stroke="#9ca3af" stroke-width="1"/>
  <text x="950.0" y="491.0" text-anchor="start" dominant-baseline="middle" fill="#6b7280" font-size="8.5">4 GB/s</text>
  <line x1="942.0" y1="454.3" x2="946.0" y2="454.3" stroke="#9ca3af" stroke-width="1"/>
  <text x="950.0" y="454.3" text-anchor="start" dominant-baseline="middle" fill="#6b7280" font-size="8.5">5 GB/s</text>
  <line x1="942.0" y1="417.6" x2="946.0" y2="417.6" stroke="#9ca3af" stroke-width="1"/>
  <text x="950.0" y="417.6" text-anchor="start" dominant-baseline="middle" fill="#6b7280" font-size="8.5">6 GB/s</text>
  <line x1="482.4" y1="403.0" x2="482.4" y2="638.0" stroke="#e5e7eb" stroke-width="1"/>
  <line x1="635.6" y1="403.0" x2="635.6" y2="638.0" stroke="#e5e7eb" stroke-width="1"/>
  <line x1="788.8" y1="403.0" x2="788.8" y2="638.0" stroke="#e5e7eb" stroke-width="1"/>
  <line x1="942.0" y1="403.0" x2="942.0" y2="638.0" stroke="#e5e7eb" stroke-width="1"/>
  <line x1="482.4" y1="403.0" x2="482.4" y2="638.0" stroke="#9ca3af" stroke-width="1.5"/>
  <line x1="942.0" y1="403.0" x2="942.0" y2="638.0" stroke="#9ca3af" stroke-width="1.5"/>
  <line x1="482.4" y1="638.0" x2="942.0" y2="638.0" stroke="#9ca3af" stroke-width="1.5"/>
  <text x="434.4" y="520.5" text-anchor="middle" fill="#374151" font-size="10" font-weight="600" transform="rotate(-90,434.4,520.5)">CPU %</text>
  <polyline points="482.4,456.0 635.6,451.9 788.8,454.8 942.0,460.3" fill="none" stroke="#15803d" stroke-width="1.6" stroke-dasharray="2,5" opacity="0.85"/>
  <polyline points="482.4,475.1 635.6,509.6 788.8,535.6 942.0,538.8" fill="none" stroke="#eab308" stroke-width="1.6" stroke-dasharray="2,5" opacity="0.85"/>
  <polyline points="482.4,464.1 635.6,464.4 788.8,467.9 942.0,462.0" fill="none" stroke="#a16207" stroke-width="1.6" stroke-dasharray="2,5" opacity="0.85"/>
  <polyline points="482.4,496.4 635.6,496.5 788.8,493.1 942.0,493.6" fill="none" stroke="#dc2626" stroke-width="1.6" stroke-dasharray="2,5" opacity="0.85"/>
  <polyline points="482.4,565.5 635.6,571.1 788.8,561.9 942.0,549.6" fill="none" stroke="#f97316" stroke-width="1.6" stroke-dasharray="2,5" opacity="0.85"/>
  <polyline points="482.4,542.1 635.6,544.4 788.8,519.8 942.0,505.2" fill="none" stroke="#16a34a" stroke-width="1.6" stroke-dasharray="2,5" opacity="0.85"/>
  <polyline points="482.4,503.2 635.6,534.6 788.8,569.8 942.0,585.0" fill="none" stroke="#2563eb" stroke-width="1.6" stroke-dasharray="2,5" opacity="0.85"/>
  <polyline points="482.4,618.1 635.6,570.6 788.8,495.1 942.0,448.2" fill="none" stroke="#15803d" stroke-width="2.5" stroke-linecap="round" stroke-linejoin="round"/>
  <circle cx="482.4" cy="618.1" r="3" fill="#15803d" stroke="white" stroke-width="1"/>
  <circle cx="635.6" cy="570.6" r="3" fill="#15803d" stroke="white" stroke-width="1"/>
  <circle cx="788.8" cy="495.1" r="3" fill="#15803d" stroke="white" stroke-width="1"/>
  <circle cx="942.0" cy="448.2" r="3" fill="#15803d" stroke="white" stroke-width="1"/>
  <polyline points="482.4,596.6 635.6,580.1 788.8,571.7 942.0,556.6" fill="none" stroke="#eab308" stroke-width="2.5" stroke-linecap="round" stroke-linejoin="round"/>
  <circle cx="482.4" cy="596.6" r="3" fill="#eab308" stroke="white" stroke-width="1"/>
  <circle cx="635.6" cy="580.1" r="3" fill="#eab308" stroke="white" stroke-width="1"/>
  <circle cx="788.8" cy="571.7" r="3" fill="#eab308" stroke="white" stroke-width="1"/>
  <circle cx="942.0" cy="556.6" r="3" fill="#eab308" stroke="white" stroke-width="1"/>
  <polyline points="482.4,588.8 635.6,549.8 788.8,535.0 942.0,516.8" fill="none" stroke="#a16207" stroke-width="2.5" stroke-linecap="round" stroke-linejoin="round"/>
  <circle cx="482.4" cy="588.8" r="3" fill="#a16207" stroke="white" stroke-width="1"/>
  <circle cx="635.6" cy="549.8" r="3" fill="#a16207" stroke="white" stroke-width="1"/>
  <circle cx="788.8" cy="535.0" r="3" fill="#a16207" stroke="white" stroke-width="1"/>
  <circle cx="942.0" cy="516.8" r="3" fill="#a16207" stroke="white" stroke-width="1"/>
  <polyline points="482.4,579.6 635.6,479.6 788.8,447.6 942.0,433.7" fill="none" stroke="#dc2626" stroke-width="2.5" stroke-linecap="round" stroke-linejoin="round"/>
  <circle cx="482.4" cy="579.6" r="3" fill="#dc2626" stroke="white" stroke-width="1"/>
  <circle cx="635.6" cy="479.6" r="3" fill="#dc2626" stroke="white" stroke-width="1"/>
  <circle cx="788.8" cy="447.6" r="3" fill="#dc2626" stroke="white" stroke-width="1"/>
  <circle cx="942.0" cy="433.7" r="3" fill="#dc2626" stroke="white" stroke-width="1"/>
  <polyline points="482.4,589.1 635.6,536.4 788.8,492.2 942.0,465.6" fill="none" stroke="#f97316" stroke-width="2.5" stroke-linecap="round" stroke-linejoin="round"/>
  <circle cx="482.4" cy="589.1" r="3" fill="#f97316" stroke="white" stroke-width="1"/>
  <circle cx="635.6" cy="536.4" r="3" fill="#f97316" stroke="white" stroke-width="1"/>
  <circle cx="788.8" cy="492.2" r="3" fill="#f97316" stroke="white" stroke-width="1"/>
  <circle cx="942.0" cy="465.6" r="3" fill="#f97316" stroke="white" stroke-width="1"/>
  <polyline points="482.4,618.3 635.6,567.0 788.8,479.6 942.0,439.2" fill="none" stroke="#16a34a" stroke-width="2.5" stroke-linecap="round" stroke-linejoin="round"/>
  <circle cx="482.4" cy="618.3" r="3" fill="#16a34a" stroke="white" stroke-width="1"/>
  <circle cx="635.6" cy="567.0" r="3" fill="#16a34a" stroke="white" stroke-width="1"/>
  <circle cx="788.8" cy="479.6" r="3" fill="#16a34a" stroke="white" stroke-width="1"/>
  <circle cx="942.0" cy="439.2" r="3" fill="#16a34a" stroke="white" stroke-width="1"/>
  <polyline points="482.4,616.4 635.6,584.4 788.8,550.0 942.0,536.0" fill="none" stroke="#2563eb" stroke-width="2.5" stroke-linecap="round" stroke-linejoin="round"/>
  <circle cx="482.4" cy="616.4" r="3" fill="#2563eb" stroke="white" stroke-width="1"/>
  <circle cx="635.6" cy="584.4" r="3" fill="#2563eb" stroke="white" stroke-width="1"/>
  <circle cx="788.8" cy="550.0" r="3" fill="#2563eb" stroke="white" stroke-width="1"/>
  <circle cx="942.0" cy="536.0" r="3" fill="#2563eb" stroke="white" stroke-width="1"/>
  <text x="482.4" y="652.0" text-anchor="middle" fill="#374151" font-size="8.5">256 B</text>
  <text x="635.6" y="652.0" text-anchor="middle" fill="#374151" font-size="8.5">1 KiB</text>
  <text x="788.8" y="652.0" text-anchor="middle" fill="#374151" font-size="8.5">4 KiB</text>
  <text x="942.0" y="652.0" text-anchor="middle" fill="#374151" font-size="8.5">16 KiB</text>
  <text x="510.0" y="685.0" text-anchor="middle" fill="#111827" font-size="13" font-weight="700">PUSH fan-in (8 PUSH → 1 PULL): TCP loopback</text>
  <text x="231.2" y="707.0" text-anchor="middle" fill="#111827" font-size="11.5" font-weight="700">small messages: msg/s</text>
  <line x1="78.0" y1="925.6" x2="384.4" y2="925.6" stroke="#e5e7eb" stroke-width="1"/>
  <text x="70.0" y="925.6" text-anchor="end" dominant-baseline="middle" fill="#374151" font-size="8.5">100%</text>
  <line x1="78.0" y1="896.2" x2="384.4" y2="896.2" stroke="#e5e7eb" stroke-width="1"/>
  <text x="70.0" y="896.2" text-anchor="end" dominant-baseline="middle" fill="#374151" font-size="8.5">200%</text>
  <line x1="78.0" y1="866.9" x2="384.4" y2="866.9" stroke="#e5e7eb" stroke-width="1"/>
  <text x="70.0" y="866.9" text-anchor="end" dominant-baseline="middle" fill="#374151" font-size="8.5">300%</text>
  <line x1="78.0" y1="837.5" x2="384.4" y2="837.5" stroke="#e5e7eb" stroke-width="1"/>
  <text x="70.0" y="837.5" text-anchor="end" dominant-baseline="middle" fill="#374151" font-size="8.5">400%</text>
  <line x1="78.0" y1="808.1" x2="384.4" y2="808.1" stroke="#e5e7eb" stroke-width="1"/>
  <text x="70.0" y="808.1" text-anchor="end" dominant-baseline="middle" fill="#374151" font-size="8.5">500%</text>
  <line x1="78.0" y1="778.8" x2="384.4" y2="778.8" stroke="#e5e7eb" stroke-width="1"/>
  <text x="70.0" y="778.8" text-anchor="end" dominant-baseline="middle" fill="#374151" font-size="8.5">600%</text>
  <line x1="78.0" y1="749.4" x2="384.4" y2="749.4" stroke="#e5e7eb" stroke-width="1"/>
  <text x="70.0" y="749.4" text-anchor="end" dominant-baseline="middle" fill="#374151" font-size="8.5">700%</text>
  <line x1="78.0" y1="720.0" x2="384.4" y2="720.0" stroke="#e5e7eb" stroke-width="1"/>
  <text x="70.0" y="720.0" text-anchor="end" dominant-baseline="middle" fill="#374151" font-size="8.5">800%</text>
  <line x1="384.4" y1="919.4" x2="388.4" y2="919.4" stroke="#9ca3af" stroke-width="1"/>
  <text x="392.4" y="919.4" text-anchor="start" dominant-baseline="middle" fill="#6b7280" font-size="8.5">2M/s</text>
  <line x1="384.4" y1="883.8" x2="388.4" y2="883.8" stroke="#9ca3af" stroke-width="1"/>
  <text x="392.4" y="883.8" text-anchor="start" dominant-baseline="middle" fill="#6b7280" font-size="8.5">4M/s</text>
  <line x1="384.4" y1="848.3" x2="388.4" y2="848.3" stroke="#9ca3af" stroke-width="1"/>
  <text x="392.4" y="848.3" text-anchor="start" dominant-baseline="middle" fill="#6b7280" font-size="8.5">6M/s</text>
  <line x1="384.4" y1="812.7" x2="388.4" y2="812.7" stroke="#9ca3af" stroke-width="1"/>
  <text x="392.4" y="812.7" text-anchor="start" dominant-baseline="middle" fill="#6b7280" font-size="8.5">8M/s</text>
  <line x1="384.4" y1="777.1" x2="388.4" y2="777.1" stroke="#9ca3af" stroke-width="1"/>
  <text x="392.4" y="777.1" text-anchor="start" dominant-baseline="middle" fill="#6b7280" font-size="8.5">10M/s</text>
  <line x1="384.4" y1="741.5" x2="388.4" y2="741.5" stroke="#9ca3af" stroke-width="1"/>
  <text x="392.4" y="741.5" text-anchor="start" dominant-baseline="middle" fill="#6b7280" font-size="8.5">12M/s</text>
  <line x1="78.0" y1="720.0" x2="78.0" y2="955.0" stroke="#e5e7eb" stroke-width="1"/>
  <line x1="231.2" y1="720.0" x2="231.2" y2="955.0" stroke="#e5e7eb" stroke-width="1"/>
  <line x1="384.4" y1="720.0" x2="384.4" y2="955.0" stroke="#e5e7eb" stroke-width="1"/>
  <line x1="78.0" y1="720.0" x2="78.0" y2="955.0" stroke="#9ca3af" stroke-width="1.5"/>
  <line x1="384.4" y1="720.0" x2="384.4" y2="955.0" stroke="#9ca3af" stroke-width="1.5"/>
  <line x1="78.0" y1="955.0" x2="384.4" y2="955.0" stroke="#9ca3af" stroke-width="1.5"/>
  <text x="30.0" y="837.5" text-anchor="middle" fill="#374151" font-size="10" font-weight="600" transform="rotate(-90,30.0,837.5)">CPU %</text>
  <polyline points="78.0,750.8 231.2,751.7 384.4,750.2" fill="none" stroke="#15803d" stroke-width="1.6" stroke-dasharray="2,5" opacity="0.85"/>
  <polyline points="78.0,816.1 231.2,797.2 384.4,800.8" fill="none" stroke="#eab308" stroke-width="1.6" stroke-dasharray="2,5" opacity="0.85"/>
  <polyline points="78.0,822.5 231.2,799.6 384.4,787.0" fill="none" stroke="#a16207" stroke-width="1.6" stroke-dasharray="2,5" opacity="0.85"/>
  <polyline points="78.0,802.2 231.2,797.2 384.4,801.3" fill="none" stroke="#dc2626" stroke-width="1.6" stroke-dasharray="2,5" opacity="0.85"/>
  <polyline points="78.0,868.2 231.2,869.9 384.4,880.4" fill="none" stroke="#f97316" stroke-width="1.6" stroke-dasharray="2,5" opacity="0.85"/>
  <polyline points="78.0,807.9 231.2,831.3 384.4,839.5" fill="none" stroke="#16a34a" stroke-width="1.6" stroke-dasharray="2,5" opacity="0.85"/>
  <polyline points="78.0,765.9 231.2,794.7 384.4,818.4" fill="none" stroke="#2563eb" stroke-width="1.6" stroke-dasharray="2,5" opacity="0.85"/>
  <polyline points="78.0,915.4 231.2,916.1 384.4,913.5" fill="none" stroke="#15803d" stroke-width="2.5" stroke-dasharray="6,3"/>
  <polyline points="78.0,779.4 231.2,808.9 384.4,874.8" fill="none" stroke="#eab308" stroke-width="2.5" stroke-dasharray="6,3"/>
  <polyline points="78.0,785.8 231.2,808.8 384.4,856.9" fill="none" stroke="#a16207" stroke-width="2.5" stroke-dasharray="6,3"/>
  <polyline points="78.0,782.1 231.2,816.2 384.4,833.7" fill="none" stroke="#dc2626" stroke-width="2.5" stroke-dasharray="6,3"/>
  <polyline points="78.0,750.7 231.2,820.6 384.4,862.8" fill="none" stroke="#f97316" stroke-width="2.5" stroke-dasharray="6,3"/>
  <polyline points="78.0,919.6 231.2,919.2 384.4,917.1" fill="none" stroke="#16a34a" stroke-width="2.5" stroke-dasharray="6,3"/>
  <polyline points="78.0,907.5 231.2,908.3 384.4,915.0" fill="none" stroke="#2563eb" stroke-width="2.5" stroke-dasharray="6,3"/>
  <text x="78.0" y="969.0" text-anchor="middle" fill="#374151" font-size="8.5">16 B</text>
  <text x="231.2" y="969.0" text-anchor="middle" fill="#374151" font-size="8.5">64 B</text>
  <text x="384.4" y="969.0" text-anchor="middle" fill="#374151" font-size="8.5">256 B</text>
  <text x="712.2" y="707.0" text-anchor="middle" fill="#111827" font-size="11.5" font-weight="700">medium/large messages: GB/s</text>
  <line x1="482.4" y1="925.6" x2="942.0" y2="925.6" stroke="#e5e7eb" stroke-width="1"/>
  <text x="474.4" y="925.6" text-anchor="end" dominant-baseline="middle" fill="#374151" font-size="8.5">100%</text>
  <line x1="482.4" y1="896.2" x2="942.0" y2="896.2" stroke="#e5e7eb" stroke-width="1"/>
  <text x="474.4" y="896.2" text-anchor="end" dominant-baseline="middle" fill="#374151" font-size="8.5">200%</text>
  <line x1="482.4" y1="866.9" x2="942.0" y2="866.9" stroke="#e5e7eb" stroke-width="1"/>
  <text x="474.4" y="866.9" text-anchor="end" dominant-baseline="middle" fill="#374151" font-size="8.5">300%</text>
  <line x1="482.4" y1="837.5" x2="942.0" y2="837.5" stroke="#e5e7eb" stroke-width="1"/>
  <text x="474.4" y="837.5" text-anchor="end" dominant-baseline="middle" fill="#374151" font-size="8.5">400%</text>
  <line x1="482.4" y1="808.1" x2="942.0" y2="808.1" stroke="#e5e7eb" stroke-width="1"/>
  <text x="474.4" y="808.1" text-anchor="end" dominant-baseline="middle" fill="#374151" font-size="8.5">500%</text>
  <line x1="482.4" y1="778.8" x2="942.0" y2="778.8" stroke="#e5e7eb" stroke-width="1"/>
  <text x="474.4" y="778.8" text-anchor="end" dominant-baseline="middle" fill="#374151" font-size="8.5">600%</text>
  <line x1="482.4" y1="749.4" x2="942.0" y2="749.4" stroke="#e5e7eb" stroke-width="1"/>
  <text x="474.4" y="749.4" text-anchor="end" dominant-baseline="middle" fill="#374151" font-size="8.5">700%</text>
  <line x1="482.4" y1="720.0" x2="942.0" y2="720.0" stroke="#e5e7eb" stroke-width="1"/>
  <text x="474.4" y="720.0" text-anchor="end" dominant-baseline="middle" fill="#374151" font-size="8.5">800%</text>
  <line x1="942.0" y1="916.7" x2="946.0" y2="916.7" stroke="#9ca3af" stroke-width="1"/>
  <text x="950.0" y="916.7" text-anchor="start" dominant-baseline="middle" fill="#6b7280" font-size="8.5">1 GB/s</text>
  <line x1="942.0" y1="878.4" x2="946.0" y2="878.4" stroke="#9ca3af" stroke-width="1"/>
  <text x="950.0" y="878.4" text-anchor="start" dominant-baseline="middle" fill="#6b7280" font-size="8.5">2 GB/s</text>
  <line x1="942.0" y1="840.0" x2="946.0" y2="840.0" stroke="#9ca3af" stroke-width="1"/>
  <text x="950.0" y="840.0" text-anchor="start" dominant-baseline="middle" fill="#6b7280" font-size="8.5">3 GB/s</text>
  <line x1="942.0" y1="801.7" x2="946.0" y2="801.7" stroke="#9ca3af" stroke-width="1"/>
  <text x="950.0" y="801.7" text-anchor="start" dominant-baseline="middle" fill="#6b7280" font-size="8.5">4 GB/s</text>
  <line x1="942.0" y1="763.4" x2="946.0" y2="763.4" stroke="#9ca3af" stroke-width="1"/>
  <text x="950.0" y="763.4" text-anchor="start" dominant-baseline="middle" fill="#6b7280" font-size="8.5">5 GB/s</text>
  <line x1="942.0" y1="725.1" x2="946.0" y2="725.1" stroke="#9ca3af" stroke-width="1"/>
  <text x="950.0" y="725.1" text-anchor="start" dominant-baseline="middle" fill="#6b7280" font-size="8.5">6 GB/s</text>
  <line x1="482.4" y1="720.0" x2="482.4" y2="955.0" stroke="#e5e7eb" stroke-width="1"/>
  <line x1="635.6" y1="720.0" x2="635.6" y2="955.0" stroke="#e5e7eb" stroke-width="1"/>
  <line x1="788.8" y1="720.0" x2="788.8" y2="955.0" stroke="#e5e7eb" stroke-width="1"/>
  <line x1="942.0" y1="720.0" x2="942.0" y2="955.0" stroke="#e5e7eb" stroke-width="1"/>
  <line x1="482.4" y1="720.0" x2="482.4" y2="955.0" stroke="#9ca3af" stroke-width="1.5"/>
  <line x1="942.0" y1="720.0" x2="942.0" y2="955.0" stroke="#9ca3af" stroke-width="1.5"/>
  <line x1="482.4" y1="955.0" x2="942.0" y2="955.0" stroke="#9ca3af" stroke-width="1.5"/>
  <text x="434.4" y="837.5" text-anchor="middle" fill="#374151" font-size="10" font-weight="600" transform="rotate(-90,434.4,837.5)">CPU %</text>
  <polyline points="482.4,750.2 635.6,750.7 788.8,750.2 942.0,750.0" fill="none" stroke="#15803d" stroke-width="1.6" stroke-dasharray="2,5" opacity="0.85"/>
  <polyline points="482.4,800.8 635.6,827.1 788.8,845.5 942.0,853.3" fill="none" stroke="#eab308" stroke-width="1.6" stroke-dasharray="2,5" opacity="0.85"/>
  <polyline points="482.4,787.0 635.6,781.3 788.8,779.1 942.0,775.8" fill="none" stroke="#a16207" stroke-width="1.6" stroke-dasharray="2,5" opacity="0.85"/>
  <polyline points="482.4,801.3 635.6,792.9 788.8,794.4 942.0,789.9" fill="none" stroke="#dc2626" stroke-width="1.6" stroke-dasharray="2,5" opacity="0.85"/>
  <polyline points="482.4,880.4 635.6,887.1 788.8,879.3 942.0,865.5" fill="none" stroke="#f97316" stroke-width="1.6" stroke-dasharray="2,5" opacity="0.85"/>
  <polyline points="482.4,839.5 635.6,834.0 788.8,810.1 942.0,799.5" fill="none" stroke="#16a34a" stroke-width="1.6" stroke-dasharray="2,5" opacity="0.85"/>
  <polyline points="482.4,818.4 635.6,854.6 788.8,888.8 942.0,901.4" fill="none" stroke="#2563eb" stroke-width="1.6" stroke-dasharray="2,5" opacity="0.85"/>
  <polyline points="482.4,932.1 635.6,891.1 788.8,817.9 942.0,757.2" fill="none" stroke="#15803d" stroke-width="2.5" stroke-linecap="round" stroke-linejoin="round"/>
  <circle cx="482.4" cy="932.1" r="3" fill="#15803d" stroke="white" stroke-width="1"/>
  <circle cx="635.6" cy="891.1" r="3" fill="#15803d" stroke="white" stroke-width="1"/>
  <circle cx="788.8" cy="817.9" r="3" fill="#15803d" stroke="white" stroke-width="1"/>
  <circle cx="942.0" cy="757.2" r="3" fill="#15803d" stroke="white" stroke-width="1"/>
  <polyline points="482.4,910.8 635.6,892.9 788.8,885.0 942.0,869.5" fill="none" stroke="#eab308" stroke-width="2.5" stroke-linecap="round" stroke-linejoin="round"/>
  <circle cx="482.4" cy="910.8" r="3" fill="#eab308" stroke="white" stroke-width="1"/>
  <circle cx="635.6" cy="892.9" r="3" fill="#eab308" stroke="white" stroke-width="1"/>
  <circle cx="788.8" cy="885.0" r="3" fill="#eab308" stroke="white" stroke-width="1"/>
  <circle cx="942.0" cy="869.5" r="3" fill="#eab308" stroke="white" stroke-width="1"/>
  <polyline points="482.4,900.9 635.6,857.2 788.8,834.7 942.0,807.2" fill="none" stroke="#a16207" stroke-width="2.5" stroke-linecap="round" stroke-linejoin="round"/>
  <circle cx="482.4" cy="900.9" r="3" fill="#a16207" stroke="white" stroke-width="1"/>
  <circle cx="635.6" cy="857.2" r="3" fill="#a16207" stroke="white" stroke-width="1"/>
  <circle cx="788.8" cy="834.7" r="3" fill="#a16207" stroke="white" stroke-width="1"/>
  <circle cx="942.0" cy="807.2" r="3" fill="#a16207" stroke="white" stroke-width="1"/>
  <polyline points="482.4,888.1 635.6,782.3 788.8,770.9 942.0,750.7" fill="none" stroke="#dc2626" stroke-width="2.5" stroke-linecap="round" stroke-linejoin="round"/>
  <circle cx="482.4" cy="888.1" r="3" fill="#dc2626" stroke="white" stroke-width="1"/>
  <circle cx="635.6" cy="782.3" r="3" fill="#dc2626" stroke="white" stroke-width="1"/>
  <circle cx="788.8" cy="770.9" r="3" fill="#dc2626" stroke="white" stroke-width="1"/>
  <circle cx="942.0" cy="750.7" r="3" fill="#dc2626" stroke="white" stroke-width="1"/>
  <polyline points="482.4,904.1 635.6,848.0 788.8,803.5 942.0,779.5" fill="none" stroke="#f97316" stroke-width="2.5" stroke-linecap="round" stroke-linejoin="round"/>
  <circle cx="482.4" cy="904.1" r="3" fill="#f97316" stroke="white" stroke-width="1"/>
  <circle cx="635.6" cy="848.0" r="3" fill="#f97316" stroke="white" stroke-width="1"/>
  <circle cx="788.8" cy="803.5" r="3" fill="#f97316" stroke="white" stroke-width="1"/>
  <circle cx="942.0" cy="779.5" r="3" fill="#f97316" stroke="white" stroke-width="1"/>
  <polyline points="482.4,934.1 635.6,871.7 788.8,787.4 942.0,765.5" fill="none" stroke="#16a34a" stroke-width="2.5" stroke-linecap="round" stroke-linejoin="round"/>
  <circle cx="482.4" cy="934.1" r="3" fill="#16a34a" stroke="white" stroke-width="1"/>
  <circle cx="635.6" cy="871.7" r="3" fill="#16a34a" stroke="white" stroke-width="1"/>
  <circle cx="788.8" cy="787.4" r="3" fill="#16a34a" stroke="white" stroke-width="1"/>
  <circle cx="942.0" cy="765.5" r="3" fill="#16a34a" stroke="white" stroke-width="1"/>
  <polyline points="482.4,932.9 635.6,899.0 788.8,865.9 942.0,855.1" fill="none" stroke="#2563eb" stroke-width="2.5" stroke-linecap="round" stroke-linejoin="round"/>
  <circle cx="482.4" cy="932.9" r="3" fill="#2563eb" stroke="white" stroke-width="1"/>
  <circle cx="635.6" cy="899.0" r="3" fill="#2563eb" stroke="white" stroke-width="1"/>
  <circle cx="788.8" cy="865.9" r="3" fill="#2563eb" stroke="white" stroke-width="1"/>
  <circle cx="942.0" cy="855.1" r="3" fill="#2563eb" stroke="white" stroke-width="1"/>
  <text x="482.4" y="969.0" text-anchor="middle" fill="#374151" font-size="8.5">256 B</text>
  <text x="635.6" y="969.0" text-anchor="middle" fill="#374151" font-size="8.5">1 KiB</text>
  <text x="788.8" y="969.0" text-anchor="middle" fill="#374151" font-size="8.5">4 KiB</text>
  <text x="942.0" y="969.0" text-anchor="middle" fill="#374151" font-size="8.5">16 KiB</text>
  <line x1="130" y1="989" x2="144" y2="989" stroke="#eab308" stroke-width="2.5"/>
  <circle cx="137" cy="989" r="2.5" fill="#eab308"/>
  <text x="150" y="993" fill="#374151" font-size="11" font-weight="500">libzmq v4.3.5</text>
  <line x1="320" y1="989" x2="334" y2="989" stroke="#a16207" stroke-width="2.5"/>
  <circle cx="327" cy="989" r="2.5" fill="#a16207"/>
  <text x="340" y="993" fill="#374151" font-size="11" font-weight="500">libzmq v4.3.5 (4 IO threads)</text>
  <line x1="510" y1="989" x2="524" y2="989" stroke="#f97316" stroke-width="2.5"/>
  <circle cx="517" cy="989" r="2.5" fill="#f97316"/>
  <text x="530" y="993" fill="#374151" font-size="11" font-weight="500">omq-tokio (ST)</text>
  <line x1="700" y1="989" x2="714" y2="989" stroke="#dc2626" stroke-width="2.5"/>
  <circle cx="707" cy="989" r="2.5" fill="#dc2626"/>
  <text x="720" y="993" fill="#374151" font-size="11" font-weight="500">omq-tokio (MT)</text>
  <line x1="225" y1="1009" x2="239" y2="1009" stroke="#2563eb" stroke-width="2.5"/>
  <circle cx="232" cy="1009" r="2.5" fill="#2563eb"/>
  <text x="245" y="1013" fill="#374151" font-size="11" font-weight="500">zmq.rs v0.6.0 (MT)</text>
  <line x1="415" y1="1009" x2="429" y2="1009" stroke="#16a34a" stroke-width="2.5"/>
  <circle cx="422" cy="1009" r="2.5" fill="#16a34a"/>
  <text x="435" y="1013" fill="#374151" font-size="11" font-weight="500">rzmq v0.5.22 (MT)</text>
  <line x1="605" y1="1009" x2="619" y2="1009" stroke="#15803d" stroke-width="2.5"/>
  <circle cx="612" cy="1009" r="2.5" fill="#15803d"/>
  <text x="625" y="1013" fill="#374151" font-size="11" font-weight="500">rzmq v0.5.22 (io_uring, MT)</text>
  <text x="510.0" y="1027" text-anchor="middle" fill="#9ca3af" font-size="9">ST = single-threaded   MT = multi-threaded</text>
  <line x1="225" y1="1049" x2="239" y2="1049" stroke="#6b7280" stroke-width="1.6" stroke-dasharray="2,5" opacity="0.85"/>
  <text x="245" y="1053" fill="#6b7280" font-size="10">CPU % (left)</text>
  <line x1="370" y1="1049" x2="384" y2="1049" stroke="#6b7280" stroke-width="2.5" stroke-dasharray="6,3"/>
  <text x="390" y="1053" fill="#6b7280" font-size="10">msg/s (small panel)</text>
  <line x1="560" y1="1049" x2="574" y2="1049" stroke="#6b7280" stroke-width="2.5"/>
  <circle cx="567" cy="1049" r="3.0" fill="#6b7280"/>
  <text x="580" y="1053" fill="#6b7280" font-size="10">GB/s (large panel)</text>
</svg>
