<svg xmlns="http://www.w3.org/2000/svg" viewBox="0 0 850 450" font-family="system-ui, -apple-system, sans-serif">
  <rect width="850" height="450" fill="white"/>
  <line x1="90" y1="350.0" x2="760" y2="350.0" stroke="#e5e7eb" stroke-width="1"/>
  <text x="82" y="350.0" text-anchor="end" dominant-baseline="middle" fill="#374151" font-size="10">1k</text>
  <line x1="90" y1="248.3" x2="760" y2="248.3" stroke="#e5e7eb" stroke-width="1"/>
  <text x="82" y="248.3" text-anchor="end" dominant-baseline="middle" fill="#374151" font-size="10">10k</text>
  <line x1="90" y1="146.7" x2="760" y2="146.7" stroke="#e5e7eb" stroke-width="1"/>
  <text x="82" y="146.7" text-anchor="end" dominant-baseline="middle" fill="#374151" font-size="10">100k</text>
  <line x1="90" y1="45.0" x2="760" y2="45.0" stroke="#e5e7eb" stroke-width="1"/>
  <text x="82" y="45.0" text-anchor="end" dominant-baseline="middle" fill="#374151" font-size="10">1M</text>
  <line x1="90" y1="319.4" x2="760" y2="319.4" stroke="#f0f0f0" stroke-width="0.5"/>
  <text x="82" y="319.4" text-anchor="end" dominant-baseline="middle" fill="#9ca3af" font-size="8">2k</text>
  <line x1="90" y1="301.5" x2="760" y2="301.5" stroke="#f0f0f0" stroke-width="0.5"/>
  <text x="82" y="301.5" text-anchor="end" dominant-baseline="middle" fill="#9ca3af" font-size="8">3k</text>
  <line x1="90" y1="278.9" x2="760" y2="278.9" stroke="#f0f0f0" stroke-width="0.5"/>
  <text x="82" y="278.9" text-anchor="end" dominant-baseline="middle" fill="#9ca3af" font-size="8">5k</text>
  <line x1="90" y1="217.7" x2="760" y2="217.7" stroke="#f0f0f0" stroke-width="0.5"/>
  <text x="82" y="217.7" text-anchor="end" dominant-baseline="middle" fill="#9ca3af" font-size="8">20k</text>
  <line x1="90" y1="199.8" x2="760" y2="199.8" stroke="#f0f0f0" stroke-width="0.5"/>
  <text x="82" y="199.8" text-anchor="end" dominant-baseline="middle" fill="#9ca3af" font-size="8">30k</text>
  <line x1="90" y1="177.3" x2="760" y2="177.3" stroke="#f0f0f0" stroke-width="0.5"/>
  <text x="82" y="177.3" text-anchor="end" dominant-baseline="middle" fill="#9ca3af" font-size="8">50k</text>
  <line x1="90" y1="116.1" x2="760" y2="116.1" stroke="#f0f0f0" stroke-width="0.5"/>
  <text x="82" y="116.1" text-anchor="end" dominant-baseline="middle" fill="#9ca3af" font-size="8">200k</text>
  <line x1="90" y1="98.2" x2="760" y2="98.2" stroke="#f0f0f0" stroke-width="0.5"/>
  <text x="82" y="98.2" text-anchor="end" dominant-baseline="middle" fill="#9ca3af" font-size="8">300k</text>
  <line x1="90" y1="75.6" x2="760" y2="75.6" stroke="#f0f0f0" stroke-width="0.5"/>
  <text x="82" y="75.6" text-anchor="end" dominant-baseline="middle" fill="#9ca3af" font-size="8">500k</text>
  <line x1="90" y1="289.0" x2="760" y2="289.0" stroke="#e5e7eb" stroke-width="1" stroke-dasharray="3,6"/>
  <text x="768" y="289.0" text-anchor="start" dominant-baseline="middle" fill="#6b7280" font-size="10">200 MB/s</text>
  <line x1="90" y1="228.0" x2="760" y2="228.0" stroke="#e5e7eb" stroke-width="1" stroke-dasharray="3,6"/>
  <text x="768" y="228.0" text-anchor="start" dominant-baseline="middle" fill="#6b7280" font-size="10">400 MB/s</text>
  <line x1="90" y1="167.0" x2="760" y2="167.0" stroke="#e5e7eb" stroke-width="1" stroke-dasharray="3,6"/>
  <text x="768" y="167.0" text-anchor="start" dominant-baseline="middle" fill="#6b7280" font-size="10">600 MB/s</text>
  <line x1="90" y1="106.0" x2="760" y2="106.0" stroke="#e5e7eb" stroke-width="1" stroke-dasharray="3,6"/>
  <text x="768" y="106.0" text-anchor="start" dominant-baseline="middle" fill="#6b7280" font-size="10">800 MB/s</text>
  <line x1="90" y1="45.0" x2="760" y2="45.0" stroke="#e5e7eb" stroke-width="1" stroke-dasharray="3,6"/>
  <text x="768" y="45.0" text-anchor="start" dominant-baseline="middle" fill="#6b7280" font-size="10">1000 MB/s</text>
  <line x1="90.0" y1="45" x2="90.0" y2="350" stroke="#e5e7eb" stroke-width="1"/>
  <line x1="224.0" y1="45" x2="224.0" y2="350" stroke="#e5e7eb" stroke-width="1"/>
  <line x1="358.0" y1="45" x2="358.0" y2="350" stroke="#e5e7eb" stroke-width="1"/>
  <line x1="492.0" y1="45" x2="492.0" y2="350" stroke="#e5e7eb" stroke-width="1"/>
  <line x1="626.0" y1="45" x2="626.0" y2="350" stroke="#e5e7eb" stroke-width="1"/>
  <line x1="760.0" y1="45" x2="760.0" y2="350" stroke="#e5e7eb" stroke-width="1"/>
  <line x1="90" y1="45" x2="90" y2="350" stroke="#9ca3af" stroke-width="1.5"/>
  <line x1="760" y1="45" x2="760" y2="350" stroke="#9ca3af" stroke-width="1.5"/>
  <line x1="90" y1="350" x2="760" y2="350" stroke="#9ca3af" stroke-width="1.5"/>
  <text x="90.0" y="366" text-anchor="middle" fill="#374151" font-size="9.5">128 B</text>
  <text x="224.0" y="366" text-anchor="middle" fill="#374151" font-size="9.5">512 B</text>
  <text x="358.0" y="366" text-anchor="middle" fill="#374151" font-size="9.5">2 KiB</text>
  <text x="492.0" y="366" text-anchor="middle" fill="#374151" font-size="9.5">8 KiB</text>
  <text x="626.0" y="366" text-anchor="middle" fill="#374151" font-size="9.5">32 KiB</text>
  <text x="760.0" y="366" text-anchor="middle" fill="#374151" font-size="9.5">128 KiB</text>
  <text x="40" y="197.5" text-anchor="middle" dominant-baseline="middle" fill="#374151" font-size="11" font-weight="600" transform="rotate(-90,40,197.5)">msg/s (log)</text>
  <text x="830" y="197.5" text-anchor="middle" dominant-baseline="middle" fill="#6b7280" font-size="11" font-weight="600" transform="rotate(90,830,197.5)">virtual throughput</text>
  <text x="425.0" y="22" text-anchor="middle" fill="#111827" font-size="13" font-weight="700">Compression transports: structured JSON, 1 Gbps link (omq-compio)</text>
  <polyline points="90.0,312.6 224.0,312.6 358.0,312.1 492.0,312.0 626.0,311.9 760.0,311.9" fill="none" stroke="#eab308" stroke-width="2" stroke-dasharray="6,4"/>
  <polyline points="90.0,313.7 224.0,292.2 358.0,210.0 492.0,131.7 626.0,97.6 760.0,112.4" fill="none" stroke="#60a5fa" stroke-width="2" stroke-dasharray="6,4"/>
  <polyline points="90.0,322.3 224.0,243.0 358.0,117.2 492.0,73.2 626.0,83.0 760.0,115.2" fill="none" stroke="#1d4ed8" stroke-width="2" stroke-dasharray="6,4"/>
  <polyline points="90.0,343.1 224.0,331.2 358.0,219.1 492.0,159.1 626.0,119.1 760.0,104.4" fill="none" stroke="#f97316" stroke-width="2" stroke-dasharray="6,4"/>
  <polyline points="90.0,342.5 224.0,319.3 358.0,244.4 492.0,130.7 626.0,183.0 760.0,177.1" fill="none" stroke="#dc2626" stroke-width="2" stroke-dasharray="6,4"/>
  <polyline points="90.0,46.9 224.0,108.1 358.0,168.7 492.0,229.8 626.0,290.9 760.0,350.0" fill="none" stroke="#eab308" stroke-width="2.5" stroke-linecap="round" stroke-linejoin="round"/>
  <circle cx="90.0" cy="46.9" r="3" fill="#eab308" stroke="white" stroke-width="1"/>
  <circle cx="224.0" cy="108.1" r="3" fill="#eab308" stroke="white" stroke-width="1"/>
  <circle cx="358.0" cy="168.7" r="3" fill="#eab308" stroke="white" stroke-width="1"/>
  <circle cx="492.0" cy="229.8" r="3" fill="#eab308" stroke="white" stroke-width="1"/>
  <circle cx="626.0" cy="290.9" r="3" fill="#eab308" stroke="white" stroke-width="1"/>
  <circle cx="760.0" cy="350.0" r="3" fill="#eab308" stroke="white" stroke-width="1"/>
  <polyline points="90.0,48.2 224.0,88.9 358.0,111.0 492.0,152.6 626.0,207.4 760.0,271.3" fill="none" stroke="#60a5fa" stroke-width="2.5" stroke-linecap="round" stroke-linejoin="round"/>
  <circle cx="90.0" cy="48.2" r="3" fill="#60a5fa" stroke="white" stroke-width="1"/>
  <circle cx="224.0" cy="88.9" r="3" fill="#60a5fa" stroke="white" stroke-width="1"/>
  <circle cx="358.0" cy="111.0" r="3" fill="#60a5fa" stroke="white" stroke-width="1"/>
  <circle cx="492.0" cy="152.6" r="3" fill="#60a5fa" stroke="white" stroke-width="1"/>
  <circle cx="626.0" cy="207.4" r="3" fill="#60a5fa" stroke="white" stroke-width="1"/>
  <circle cx="760.0" cy="271.3" r="3" fill="#60a5fa" stroke="white" stroke-width="1"/>
  <polyline points="90.0,60.1 224.0,61.7 358.0,88.6 492.0,142.1 626.0,204.9 760.0,271.8" fill="none" stroke="#1d4ed8" stroke-width="2.5" stroke-linecap="round" stroke-linejoin="round"/>
  <circle cx="90.0" cy="60.1" r="3" fill="#1d4ed8" stroke="white" stroke-width="1"/>
  <circle cx="224.0" cy="61.7" r="3" fill="#1d4ed8" stroke="white" stroke-width="1"/>
  <circle cx="358.0" cy="88.6" r="3" fill="#1d4ed8" stroke="white" stroke-width="1"/>
  <circle cx="492.0" cy="142.1" r="3" fill="#1d4ed8" stroke="white" stroke-width="1"/>
  <circle cx="626.0" cy="204.9" r="3" fill="#1d4ed8" stroke="white" stroke-width="1"/>
  <circle cx="760.0" cy="271.8" r="3" fill="#1d4ed8" stroke="white" stroke-width="1"/>
  <polyline points="90.0,121.3 224.0,138.5 358.0,114.0 492.0,158.5 626.0,211.4 760.0,269.8" fill="none" stroke="#f97316" stroke-width="2.5" stroke-linecap="round" stroke-linejoin="round"/>
  <circle cx="90.0" cy="121.3" r="3" fill="#f97316" stroke="white" stroke-width="1"/>
  <circle cx="224.0" cy="138.5" r="3" fill="#f97316" stroke="white" stroke-width="1"/>
  <circle cx="358.0" cy="114.0" r="3" fill="#f97316" stroke="white" stroke-width="1"/>
  <circle cx="492.0" cy="158.5" r="3" fill="#f97316" stroke="white" stroke-width="1"/>
  <circle cx="626.0" cy="211.4" r="3" fill="#f97316" stroke="white" stroke-width="1"/>
  <circle cx="760.0" cy="269.8" r="3" fill="#f97316" stroke="white" stroke-width="1"/>
  <polyline points="90.0,117.6 224.0,116.8 358.0,123.5 492.0,152.4 626.0,225.7 760.0,285.3" fill="none" stroke="#dc2626" stroke-width="2.5" stroke-linecap="round" stroke-linejoin="round"/>
  <circle cx="90.0" cy="117.6" r="3" fill="#dc2626" stroke="white" stroke-width="1"/>
  <circle cx="224.0" cy="116.8" r="3" fill="#dc2626" stroke="white" stroke-width="1"/>
  <circle cx="358.0" cy="123.5" r="3" fill="#dc2626" stroke="white" stroke-width="1"/>
  <circle cx="492.0" cy="152.4" r="3" fill="#dc2626" stroke="white" stroke-width="1"/>
  <circle cx="626.0" cy="225.7" r="3" fill="#dc2626" stroke="white" stroke-width="1"/>
  <circle cx="760.0" cy="285.3" r="3" fill="#dc2626" stroke="white" stroke-width="1"/>
  <line x1="90" y1="388" x2="104" y2="388" stroke="#eab308" stroke-width="2.5"/>
  <line x1="90" y1="400" x2="104" y2="400" stroke="#eab308" stroke-width="2" stroke-dasharray="4,3"/>
  <text x="108" y="392" fill="#374151" font-size="10" font-weight="500">tcp</text>
  <line x1="220" y1="388" x2="234" y2="388" stroke="#60a5fa" stroke-width="2.5"/>
  <line x1="220" y1="400" x2="234" y2="400" stroke="#60a5fa" stroke-width="2" stroke-dasharray="4,3"/>
  <text x="238" y="392" fill="#374151" font-size="10" font-weight="500">lz4</text>
  <line x1="360" y1="388" x2="374" y2="388" stroke="#1d4ed8" stroke-width="2.5"/>
  <line x1="360" y1="400" x2="374" y2="400" stroke="#1d4ed8" stroke-width="2" stroke-dasharray="4,3"/>
  <text x="378" y="392" fill="#374151" font-size="10" font-weight="500">lz4+dict</text>
  <line x1="500" y1="388" x2="514" y2="388" stroke="#f97316" stroke-width="2.5"/>
  <line x1="500" y1="400" x2="514" y2="400" stroke="#f97316" stroke-width="2" stroke-dasharray="4,3"/>
  <text x="518" y="392" fill="#374151" font-size="10" font-weight="500">zstd</text>
  <line x1="630" y1="388" x2="644" y2="388" stroke="#dc2626" stroke-width="2.5"/>
  <line x1="630" y1="400" x2="644" y2="400" stroke="#dc2626" stroke-width="2" stroke-dasharray="4,3"/>
  <text x="648" y="392" fill="#374151" font-size="10" font-weight="500">zstd+dict</text>
  <text x="425.0" y="418" text-anchor="middle" fill="#9ca3af" font-size="9">solid = msg/s (left, log) · dashed = virtual throughput (right, linear)</text>
</svg>
