<svg xmlns="http://www.w3.org/2000/svg" viewBox="0 0 850 440" font-family="system-ui, -apple-system, sans-serif">
  <rect width="850" height="440" fill="white"/>
  <line x1="90" y1="348.7" x2="760" y2="348.7" stroke="#e5e7eb" stroke-width="1"/>
  <text x="82" y="348.7" text-anchor="end" dominant-baseline="middle" fill="#374151" font-size="10">10k</text>
  <line x1="90" y1="217.5" x2="760" y2="217.5" stroke="#e5e7eb" stroke-width="1"/>
  <text x="82" y="217.5" text-anchor="end" dominant-baseline="middle" fill="#374151" font-size="10">100k</text>
  <line x1="90" y1="84.9" x2="760" y2="84.9" stroke="#e5e7eb" stroke-width="1"/>
  <text x="82" y="84.9" text-anchor="end" dominant-baseline="middle" fill="#374151" font-size="10">1M</text>
  <line x1="90" y1="289.0" x2="760" y2="289.0" stroke="#e5e7eb" stroke-width="1" stroke-dasharray="3,6"/>
  <text x="768" y="289.0" text-anchor="start" dominant-baseline="middle" fill="#6b7280" font-size="10">1 GB/s</text>
  <line x1="90" y1="228.0" x2="760" y2="228.0" stroke="#e5e7eb" stroke-width="1" stroke-dasharray="3,6"/>
  <text x="768" y="228.0" text-anchor="start" dominant-baseline="middle" fill="#6b7280" font-size="10">2 GB/s</text>
  <line x1="90" y1="167.0" x2="760" y2="167.0" stroke="#e5e7eb" stroke-width="1" stroke-dasharray="3,6"/>
  <text x="768" y="167.0" text-anchor="start" dominant-baseline="middle" fill="#6b7280" font-size="10">3 GB/s</text>
  <line x1="90" y1="106.0" x2="760" y2="106.0" stroke="#e5e7eb" stroke-width="1" stroke-dasharray="3,6"/>
  <text x="768" y="106.0" text-anchor="start" dominant-baseline="middle" fill="#6b7280" font-size="10">4 GB/s</text>
  <line x1="90.0" y1="45" x2="90.0" y2="350" stroke="#e5e7eb" stroke-width="1"/>
  <line x1="185.7" y1="45" x2="185.7" y2="350" stroke="#e5e7eb" stroke-width="1"/>
  <line x1="281.4" y1="45" x2="281.4" y2="350" stroke="#e5e7eb" stroke-width="1"/>
  <line x1="377.1" y1="45" x2="377.1" y2="350" stroke="#e5e7eb" stroke-width="1"/>
  <line x1="472.9" y1="45" x2="472.9" y2="350" stroke="#e5e7eb" stroke-width="1"/>
  <line x1="568.6" y1="45" x2="568.6" y2="350" stroke="#e5e7eb" stroke-width="1"/>
  <line x1="664.3" y1="45" x2="664.3" y2="350" stroke="#e5e7eb" stroke-width="1"/>
  <line x1="760.0" y1="45" x2="760.0" y2="350" stroke="#e5e7eb" stroke-width="1"/>
  <line x1="90" y1="45" x2="90" y2="350" stroke="#9ca3af" stroke-width="1.5"/>
  <line x1="760" y1="45" x2="760" y2="350" stroke="#9ca3af" stroke-width="1.5"/>
  <line x1="90" y1="350" x2="760" y2="350" stroke="#9ca3af" stroke-width="1.5"/>
  <text x="90.0" y="366" text-anchor="middle" fill="#374151" font-size="9.5">8 B</text>
  <text x="185.7" y="366" text-anchor="middle" fill="#374151" font-size="9.5">32 B</text>
  <text x="281.4" y="366" text-anchor="middle" fill="#374151" font-size="9.5">128 B</text>
  <text x="377.1" y="366" text-anchor="middle" fill="#374151" font-size="9.5">512 B</text>
  <text x="472.9" y="366" text-anchor="middle" fill="#374151" font-size="9.5">2 KiB</text>
  <text x="568.6" y="366" text-anchor="middle" fill="#374151" font-size="9.5">8 KiB</text>
  <text x="664.3" y="366" text-anchor="middle" fill="#374151" font-size="9.5">32 KiB</text>
  <text x="760.0" y="366" text-anchor="middle" fill="#374151" font-size="9.5">128 KiB</text>
  <text x="40" y="197.5" text-anchor="middle" dominant-baseline="middle" fill="#374151" font-size="11" font-weight="600" transform="rotate(-90,40,197.5)">msg/s</text>
  <text x="812" y="197.5" text-anchor="middle" dominant-baseline="middle" fill="#6b7280" font-size="11" font-weight="600" transform="rotate(90,812,197.5)">throughput</text>
  <text x="425.0" y="22" text-anchor="middle" fill="#111827" font-size="14" font-weight="700">PUSH/PULL throughput: TCP loopback (dynamic languages)</text>
  <polyline points="90.0,349.3 185.7,347.3 281.4,339.9 377.1,312.2 472.9,236.6 568.6,175.6 664.3,118.1 760.0,94.1" fill="none" stroke="#dc2626" stroke-width="2" stroke-dasharray="6,4"/>
  <polyline points="90.0,349.7 185.7,348.9 281.4,346.1 377.1,335.6 472.9,307.3 568.6,299.0 664.3,258.1 760.0,158.1" fill="none" stroke="#eab308" stroke-width="2" stroke-dasharray="6,4"/>
  <polyline points="90.0,349.7 185.7,349.0 281.4,346.3 377.1,337.8 472.9,312.4 568.6,271.1 664.3,242.3 760.0,235.0" fill="none" stroke="#2563eb" stroke-width="2" stroke-dasharray="6,4"/>
  <polyline points="90.0,67.2 185.7,67.2 281.4,70.2 377.1,73.9 472.9,90.5 568.6,145.5 664.3,208.9 760.0,283.0" fill="none" stroke="#dc2626" stroke-width="2.5" stroke-linecap="round" stroke-linejoin="round"/>
  <circle cx="90.0" cy="67.2" r="3" fill="#dc2626" stroke="white" stroke-width="1"/>
  <circle cx="185.7" cy="67.2" r="3" fill="#dc2626" stroke="white" stroke-width="1"/>
  <circle cx="281.4" cy="70.2" r="3" fill="#dc2626" stroke="white" stroke-width="1"/>
  <circle cx="377.1" cy="73.9" r="3" fill="#dc2626" stroke="white" stroke-width="1"/>
  <circle cx="472.9" cy="90.5" r="3" fill="#dc2626" stroke="white" stroke-width="1"/>
  <circle cx="568.6" cy="145.5" r="3" fill="#dc2626" stroke="white" stroke-width="1"/>
  <circle cx="664.3" cy="208.9" r="3" fill="#dc2626" stroke="white" stroke-width="1"/>
  <circle cx="760.0" cy="283.0" r="3" fill="#dc2626" stroke="white" stroke-width="1"/>
  <polyline points="90.0,117.8 185.7,116.7 281.4,125.3 377.1,129.5 472.9,146.7 568.6,216.3 664.3,262.2 760.0,299.6" fill="none" stroke="#eab308" stroke-width="2.5" stroke-linecap="round" stroke-linejoin="round"/>
  <circle cx="90.0" cy="117.8" r="3" fill="#eab308" stroke="white" stroke-width="1"/>
  <circle cx="185.7" cy="116.7" r="3" fill="#eab308" stroke="white" stroke-width="1"/>
  <circle cx="281.4" cy="125.3" r="3" fill="#eab308" stroke="white" stroke-width="1"/>
  <circle cx="377.1" cy="129.5" r="3" fill="#eab308" stroke="white" stroke-width="1"/>
  <circle cx="472.9" cy="146.7" r="3" fill="#eab308" stroke="white" stroke-width="1"/>
  <circle cx="568.6" cy="216.3" r="3" fill="#eab308" stroke="white" stroke-width="1"/>
  <circle cx="664.3" cy="262.2" r="3" fill="#eab308" stroke="white" stroke-width="1"/>
  <circle cx="760.0" cy="299.6" r="3" fill="#eab308" stroke="white" stroke-width="1"/>
  <polyline points="90.0,122.1 185.7,125.7 281.4,127.5 377.1,138.8 472.9,154.1 568.6,191.1 664.3,253.1 760.0,329.1" fill="none" stroke="#2563eb" stroke-width="2.5" stroke-linecap="round" stroke-linejoin="round"/>
  <circle cx="90.0" cy="122.1" r="3" fill="#2563eb" stroke="white" stroke-width="1"/>
  <circle cx="185.7" cy="125.7" r="3" fill="#2563eb" stroke="white" stroke-width="1"/>
  <circle cx="281.4" cy="127.5" r="3" fill="#2563eb" stroke="white" stroke-width="1"/>
  <circle cx="377.1" cy="138.8" r="3" fill="#2563eb" stroke="white" stroke-width="1"/>
  <circle cx="472.9" cy="154.1" r="3" fill="#2563eb" stroke="white" stroke-width="1"/>
  <circle cx="568.6" cy="191.1" r="3" fill="#2563eb" stroke="white" stroke-width="1"/>
  <circle cx="664.3" cy="253.1" r="3" fill="#2563eb" stroke="white" stroke-width="1"/>
  <circle cx="760.0" cy="329.1" r="3" fill="#2563eb" stroke="white" stroke-width="1"/>
  <line x1="247.0" y1="388" x2="261.0" y2="388" stroke="#dc2626" stroke-width="2.5"/>
  <line x1="247.0" y1="400" x2="261.0" y2="400" stroke="#dc2626" stroke-width="2" stroke-dasharray="4,3"/>
  <text x="265.0" y="392" fill="#374151" font-size="10" font-weight="500">pyomq</text>
  <line x1="407.0" y1="388" x2="421.0" y2="388" stroke="#eab308" stroke-width="2.5"/>
  <line x1="407.0" y1="400" x2="421.0" y2="400" stroke="#eab308" stroke-width="2" stroke-dasharray="4,3"/>
  <text x="425.0" y="392" fill="#374151" font-size="10" font-weight="500">pyzmq</text>
  <line x1="567.0" y1="388" x2="581.0" y2="388" stroke="#2563eb" stroke-width="2.5"/>
  <line x1="567.0" y1="400" x2="581.0" y2="400" stroke="#2563eb" stroke-width="2" stroke-dasharray="4,3"/>
  <text x="585.0" y="392" fill="#374151" font-size="10" font-weight="500">Pure Ruby OMQ</text>
  <text x="425.0" y="418" text-anchor="middle" fill="#9ca3af" font-size="9">solid = msg/s (left, log) · dashed = throughput (right, linear)</text>
</svg>