<svg xmlns="http://www.w3.org/2000/svg" viewBox="0 0 850 440" font-family="system-ui,-apple-system,sans-serif" font-size="11">
<rect width="850" height="440" fill="#fff"/>
<text x="425" y="22" text-anchor="middle" font-size="14" font-weight="bold">REQ/REP latency: pyomq vs pyzmq, TCP loopback (p50)</text>
<line x1="80" y1="370.0" x2="820" y2="370.0" stroke="#e5e7eb" stroke-width="0.5"/>
<text x="72" y="370.0" text-anchor="end" dominant-baseline="middle" font-size="10" fill="#6b7280">10 µs</text>
<line x1="80" y1="207.5" x2="820" y2="207.5" stroke="#e5e7eb" stroke-width="0.5"/>
<text x="72" y="207.5" text-anchor="end" dominant-baseline="middle" font-size="10" fill="#6b7280">100 µs</text>
<line x1="80" y1="45.0" x2="820" y2="45.0" stroke="#e5e7eb" stroke-width="0.5"/>
<text x="72" y="45.0" text-anchor="end" dominant-baseline="middle" font-size="10" fill="#6b7280">1 ms</text>
<rect x="103.1" y="235.0" width="23.1" height="135.0" fill="#dc2626" opacity="0.85"/>
<text x="114.7" y="232.0" text-anchor="middle" font-size="9" fill="#374151">68</text>
<rect x="126.2" y="235.9" width="23.1" height="134.1" fill="#2563eb" opacity="0.85"/>
<text x="137.8" y="232.9" text-anchor="middle" font-size="9" fill="#374151">67</text>
<text x="126.2" y="386" text-anchor="middle" font-size="10" fill="#374151">8 B</text>
<rect x="195.6" y="211.8" width="23.1" height="158.2" fill="#dc2626" opacity="0.85"/>
<text x="207.2" y="208.8" text-anchor="middle" font-size="9" fill="#374151">94</text>
<rect x="218.8" y="230.1" width="23.1" height="139.9" fill="#2563eb" opacity="0.85"/>
<text x="230.3" y="227.1" text-anchor="middle" font-size="9" fill="#374151">73</text>
<text x="218.8" y="386" text-anchor="middle" font-size="10" fill="#374151">32 B</text>
<rect x="288.1" y="238.4" width="23.1" height="131.6" fill="#dc2626" opacity="0.85"/>
<text x="299.7" y="235.4" text-anchor="middle" font-size="9" fill="#374151">64</text>
<rect x="311.2" y="232.0" width="23.1" height="138.0" fill="#2563eb" opacity="0.85"/>
<text x="322.8" y="229.0" text-anchor="middle" font-size="9" fill="#374151">71</text>
<text x="311.2" y="386" text-anchor="middle" font-size="10" fill="#374151">128 B</text>
<rect x="380.6" y="229.9" width="23.1" height="140.1" fill="#dc2626" opacity="0.85"/>
<text x="392.2" y="226.9" text-anchor="middle" font-size="9" fill="#374151">73</text>
<rect x="403.8" y="222.2" width="23.1" height="147.8" fill="#2563eb" opacity="0.85"/>
<text x="415.3" y="219.2" text-anchor="middle" font-size="9" fill="#374151">81</text>
<text x="403.8" y="386" text-anchor="middle" font-size="10" fill="#374151">512 B</text>
<rect x="473.1" y="224.3" width="23.1" height="145.7" fill="#dc2626" opacity="0.85"/>
<text x="484.7" y="221.3" text-anchor="middle" font-size="9" fill="#374151">79</text>
<rect x="496.2" y="215.4" width="23.1" height="154.6" fill="#2563eb" opacity="0.85"/>
<text x="507.8" y="212.4" text-anchor="middle" font-size="9" fill="#374151">89</text>
<text x="496.2" y="386" text-anchor="middle" font-size="10" fill="#374151">2 KiB</text>
<rect x="565.6" y="231.1" width="23.1" height="138.9" fill="#dc2626" opacity="0.85"/>
<text x="577.2" y="228.1" text-anchor="middle" font-size="9" fill="#374151">72</text>
<rect x="588.8" y="208.3" width="23.1" height="161.7" fill="#2563eb" opacity="0.85"/>
<text x="600.3" y="205.3" text-anchor="middle" font-size="9" fill="#374151">99</text>
<text x="588.8" y="386" text-anchor="middle" font-size="10" fill="#374151">8 KiB</text>
<rect x="658.1" y="207.8" width="23.1" height="162.2" fill="#dc2626" opacity="0.85"/>
<text x="669.7" y="204.8" text-anchor="middle" font-size="9" fill="#374151">100</text>
<rect x="681.2" y="194.0" width="23.1" height="176.0" fill="#2563eb" opacity="0.85"/>
<text x="692.8" y="191.0" text-anchor="middle" font-size="9" fill="#374151">121</text>
<text x="681.2" y="386" text-anchor="middle" font-size="10" fill="#374151">32 KiB</text>
<rect x="750.6" y="168.0" width="23.1" height="202.0" fill="#dc2626" opacity="0.85"/>
<text x="762.2" y="165.0" text-anchor="middle" font-size="9" fill="#374151">175</text>
<rect x="773.8" y="173.5" width="23.1" height="196.5" fill="#2563eb" opacity="0.85"/>
<text x="785.3" y="170.5" text-anchor="middle" font-size="9" fill="#374151">162</text>
<text x="773.8" y="386" text-anchor="middle" font-size="10" fill="#374151">128 KiB</text>
<line x1="80" y1="45" x2="80" y2="370" stroke="#374151" stroke-width="1"/>
<line x1="80" y1="370" x2="820" y2="370" stroke="#374151" stroke-width="1"/>
<text x="14" y="207" text-anchor="middle" font-size="11" fill="#374151" transform="rotate(-90 14 207)">p50 latency (µs, log)</text>
<rect x="90" y="55" width="12" height="12" fill="#dc2626"/>
<text x="106" y="65" font-size="10" fill="#374151">pyomq</text>
<rect x="90" y="73" width="12" height="12" fill="#2563eb"/>
<text x="106" y="83" font-size="10" fill="#374151">pyzmq</text>
</svg>