<svg xmlns="http://www.w3.org/2000/svg" viewBox="0 0 850 440" font-family="system-ui, -apple-system, sans-serif">
  <rect width="850" height="440" fill="white"/>
  <line x1="90" y1="350.0" x2="760" y2="350.0" stroke="#e5e7eb" stroke-width="1"/>
  <text x="82" y="350.0" text-anchor="end" dominant-baseline="middle" fill="#374151" font-size="10">0</text>
  <line x1="90" y1="319.5" x2="760" y2="319.5" stroke="#f0f0f0" stroke-width="0.5"/>
  <text x="82" y="319.5" text-anchor="end" dominant-baseline="middle" fill="#9ca3af" font-size="8">200k</text>
  <line x1="90" y1="289.0" x2="760" y2="289.0" stroke="#f0f0f0" stroke-width="0.5"/>
  <text x="82" y="289.0" text-anchor="end" dominant-baseline="middle" fill="#9ca3af" font-size="8">400k</text>
  <line x1="90" y1="258.5" x2="760" y2="258.5" stroke="#f0f0f0" stroke-width="0.5"/>
  <text x="82" y="258.5" text-anchor="end" dominant-baseline="middle" fill="#9ca3af" font-size="8">600k</text>
  <line x1="90" y1="228.0" x2="760" y2="228.0" stroke="#f0f0f0" stroke-width="0.5"/>
  <text x="82" y="228.0" text-anchor="end" dominant-baseline="middle" fill="#9ca3af" font-size="8">800k</text>
  <line x1="90" y1="197.5" x2="760" y2="197.5" stroke="#e5e7eb" stroke-width="1"/>
  <text x="82" y="197.5" text-anchor="end" dominant-baseline="middle" fill="#374151" font-size="10">1M</text>
  <line x1="90" y1="167.0" x2="760" y2="167.0" stroke="#f0f0f0" stroke-width="0.5"/>
  <text x="82" y="167.0" text-anchor="end" dominant-baseline="middle" fill="#9ca3af" font-size="8">1.2M</text>
  <line x1="90" y1="136.5" x2="760" y2="136.5" stroke="#f0f0f0" stroke-width="0.5"/>
  <text x="82" y="136.5" text-anchor="end" dominant-baseline="middle" fill="#9ca3af" font-size="8">1.4M</text>
  <line x1="90" y1="106.0" x2="760" y2="106.0" stroke="#f0f0f0" stroke-width="0.5"/>
  <text x="82" y="106.0" text-anchor="end" dominant-baseline="middle" fill="#9ca3af" font-size="8">1.6M</text>
  <line x1="90" y1="75.5" x2="760" y2="75.5" stroke="#f0f0f0" stroke-width="0.5"/>
  <text x="82" y="75.5" text-anchor="end" dominant-baseline="middle" fill="#9ca3af" font-size="8">1.8M</text>
  <line x1="90" y1="45.0" x2="760" y2="45.0" stroke="#e5e7eb" stroke-width="1"/>
  <text x="82" y="45.0" text-anchor="end" dominant-baseline="middle" fill="#374151" font-size="10">2M</text>
  <line x1="90" y1="289.0" x2="760" y2="289.0" stroke="#e5e7eb" stroke-width="1" stroke-dasharray="3,6"/>
  <text x="768" y="289.0" text-anchor="start" dominant-baseline="middle" fill="#6b7280" font-size="10">1 GB/s</text>
  <line x1="90" y1="228.0" x2="760" y2="228.0" stroke="#e5e7eb" stroke-width="1" stroke-dasharray="3,6"/>
  <text x="768" y="228.0" text-anchor="start" dominant-baseline="middle" fill="#6b7280" font-size="10">2 GB/s</text>
  <line x1="90" y1="167.0" x2="760" y2="167.0" stroke="#e5e7eb" stroke-width="1" stroke-dasharray="3,6"/>
  <text x="768" y="167.0" text-anchor="start" dominant-baseline="middle" fill="#6b7280" font-size="10">3 GB/s</text>
  <line x1="90" y1="106.0" x2="760" y2="106.0" stroke="#e5e7eb" stroke-width="1" stroke-dasharray="3,6"/>
  <text x="768" y="106.0" text-anchor="start" dominant-baseline="middle" fill="#6b7280" font-size="10">4 GB/s</text>
  <line x1="90" y1="45.0" x2="760" y2="45.0" stroke="#e5e7eb" stroke-width="1" stroke-dasharray="3,6"/>
  <text x="768" y="45.0" text-anchor="start" dominant-baseline="middle" fill="#6b7280" font-size="10">5 GB/s</text>
  <line x1="90.0" y1="45" x2="90.0" y2="350" stroke="#e5e7eb" stroke-width="1"/>
  <line x1="134.7" y1="45" x2="134.7" y2="350" stroke="#e5e7eb" stroke-width="1"/>
  <line x1="179.3" y1="45" x2="179.3" y2="350" stroke="#e5e7eb" stroke-width="1"/>
  <line x1="224.0" y1="45" x2="224.0" y2="350" stroke="#e5e7eb" stroke-width="1"/>
  <line x1="268.7" y1="45" x2="268.7" y2="350" stroke="#e5e7eb" stroke-width="1"/>
  <line x1="313.3" y1="45" x2="313.3" y2="350" stroke="#e5e7eb" stroke-width="1"/>
  <line x1="358.0" y1="45" x2="358.0" y2="350" stroke="#e5e7eb" stroke-width="1"/>
  <line x1="402.7" y1="45" x2="402.7" y2="350" stroke="#e5e7eb" stroke-width="1"/>
  <line x1="447.3" y1="45" x2="447.3" y2="350" stroke="#e5e7eb" stroke-width="1"/>
  <line x1="492.0" y1="45" x2="492.0" y2="350" stroke="#e5e7eb" stroke-width="1"/>
  <line x1="536.7" y1="45" x2="536.7" y2="350" stroke="#e5e7eb" stroke-width="1"/>
  <line x1="581.3" y1="45" x2="581.3" y2="350" stroke="#e5e7eb" stroke-width="1"/>
  <line x1="626.0" y1="45" x2="626.0" y2="350" stroke="#e5e7eb" stroke-width="1"/>
  <line x1="670.7" y1="45" x2="670.7" y2="350" stroke="#e5e7eb" stroke-width="1"/>
  <line x1="715.3" y1="45" x2="715.3" y2="350" stroke="#e5e7eb" stroke-width="1"/>
  <line x1="760.0" y1="45" x2="760.0" y2="350" stroke="#e5e7eb" stroke-width="1"/>
  <line x1="90" y1="45" x2="90" y2="350" stroke="#9ca3af" stroke-width="1.5"/>
  <line x1="760" y1="45" x2="760" y2="350" stroke="#9ca3af" stroke-width="1.5"/>
  <line x1="90" y1="350" x2="760" y2="350" stroke="#9ca3af" stroke-width="1.5"/>
  <text x="90.0" y="366" text-anchor="middle" fill="#374151" font-size="9.5">8 B</text>
  <text x="134.7" y="366" text-anchor="middle" fill="#374151" font-size="9.5">16 B</text>
  <text x="179.3" y="366" text-anchor="middle" fill="#374151" font-size="9.5">32 B</text>
  <text x="224.0" y="366" text-anchor="middle" fill="#374151" font-size="9.5">64 B</text>
  <text x="268.7" y="366" text-anchor="middle" fill="#374151" font-size="9.5">128 B</text>
  <text x="313.3" y="366" text-anchor="middle" fill="#374151" font-size="9.5">256 B</text>
  <text x="358.0" y="366" text-anchor="middle" fill="#374151" font-size="9.5">512 B</text>
  <text x="402.7" y="366" text-anchor="middle" fill="#374151" font-size="9.5">1 KiB</text>
  <text x="447.3" y="366" text-anchor="middle" fill="#374151" font-size="9.5">2 KiB</text>
  <text x="492.0" y="366" text-anchor="middle" fill="#374151" font-size="9.5">4 KiB</text>
  <text x="536.7" y="366" text-anchor="middle" fill="#374151" font-size="9.5">8 KiB</text>
  <text x="581.3" y="366" text-anchor="middle" fill="#374151" font-size="9.5">16 KiB</text>
  <text x="626.0" y="366" text-anchor="middle" fill="#374151" font-size="9.5">32 KiB</text>
  <text x="670.7" y="366" text-anchor="middle" fill="#374151" font-size="9.5">64 KiB</text>
  <text x="715.3" y="366" text-anchor="middle" fill="#374151" font-size="9.5">128 KiB</text>
  <text x="760.0" y="366" text-anchor="middle" fill="#374151" font-size="9.5">256 KiB</text>
  <text x="40" y="197" text-anchor="middle" dominant-baseline="middle" fill="#374151" font-size="11" font-weight="600" transform="rotate(-90,40,197)">msg/s</text>
  <text x="812" y="197" text-anchor="middle" dominant-baseline="middle" fill="#6b7280" font-size="11" font-weight="600" transform="rotate(90,812,197)">throughput</text>
  <text x="425.0" y="22" text-anchor="middle" fill="#111827" font-size="14" font-weight="700">PUSH/PULL throughput: TCP loopback (Python bindings)</text>
  <polyline points="90.0,349.3 134.7,348.5 179.3,347.1 224.0,344.4 268.7,338.6 313.3,327.9 358.0,309.6 402.7,273.8 447.3,238.1 492.0,206.2 536.7,181.1 581.3,173.2 626.0,139.6 670.7,141.5 715.3,156.4 760.0,126.6" fill="none" stroke="#dc2626" stroke-width="2" stroke-dasharray="6,4"/>
  <polyline points="90.0,349.7 134.7,349.5 179.3,348.9 224.0,348.0 268.7,346.2 313.3,342.6 358.0,335.5 402.7,322.3 447.3,307.5 492.0,302.1 536.7,299.7 581.3,297.9 626.0,264.4 670.7,208.5 715.3,163.8 760.0,126.6" fill="none" stroke="#eab308" stroke-width="2" stroke-dasharray="6,4"/>
  <polyline points="90.0,110.6 134.7,106.0 179.3,106.0 224.0,113.6 268.7,110.6 313.3,118.2 358.0,138.0 402.7,150.2 447.3,203.3 492.0,255.8 536.7,294.6 581.3,321.0 626.0,332.8 670.7,341.5 715.3,346.0 760.0,347.7" fill="none" stroke="#dc2626" stroke-width="2.5" stroke-linecap="round" stroke-linejoin="round"/>
  <circle cx="90.0" cy="110.6" r="3" fill="#dc2626" stroke="white" stroke-width="1"/>
  <circle cx="134.7" cy="106.0" r="3" fill="#dc2626" stroke="white" stroke-width="1"/>
  <circle cx="179.3" cy="106.0" r="3" fill="#dc2626" stroke="white" stroke-width="1"/>
  <circle cx="224.0" cy="113.6" r="3" fill="#dc2626" stroke="white" stroke-width="1"/>
  <circle cx="268.7" cy="110.6" r="3" fill="#dc2626" stroke="white" stroke-width="1"/>
  <circle cx="313.3" cy="118.2" r="3" fill="#dc2626" stroke="white" stroke-width="1"/>
  <circle cx="358.0" cy="138.0" r="3" fill="#dc2626" stroke="white" stroke-width="1"/>
  <circle cx="402.7" cy="150.2" r="3" fill="#dc2626" stroke="white" stroke-width="1"/>
  <circle cx="447.3" cy="203.3" r="3" fill="#dc2626" stroke="white" stroke-width="1"/>
  <circle cx="492.0" cy="255.8" r="3" fill="#dc2626" stroke="white" stroke-width="1"/>
  <circle cx="536.7" cy="294.6" r="3" fill="#dc2626" stroke="white" stroke-width="1"/>
  <circle cx="581.3" cy="321.0" r="3" fill="#dc2626" stroke="white" stroke-width="1"/>
  <circle cx="626.0" cy="332.8" r="3" fill="#dc2626" stroke="white" stroke-width="1"/>
  <circle cx="670.7" cy="341.5" r="3" fill="#dc2626" stroke="white" stroke-width="1"/>
  <circle cx="715.3" cy="346.0" r="3" fill="#dc2626" stroke="white" stroke-width="1"/>
  <circle cx="760.0" cy="347.7" r="3" fill="#dc2626" stroke="white" stroke-width="1"/>
  <polyline points="90.0,260.8 134.7,258.7 179.3,258.0 224.0,267.6 268.7,269.5 313.3,272.4 358.0,274.1 402.7,277.3 447.3,294.3 492.0,318.6 536.7,333.5 581.3,341.5 626.0,343.0 670.7,344.2 715.3,346.2 760.0,347.7" fill="none" stroke="#eab308" stroke-width="2.5" stroke-linecap="round" stroke-linejoin="round"/>
  <circle cx="90.0" cy="260.8" r="3" fill="#eab308" stroke="white" stroke-width="1"/>
  <circle cx="134.7" cy="258.7" r="3" fill="#eab308" stroke="white" stroke-width="1"/>
  <circle cx="179.3" cy="258.0" r="3" fill="#eab308" stroke="white" stroke-width="1"/>
  <circle cx="224.0" cy="267.6" r="3" fill="#eab308" stroke="white" stroke-width="1"/>
  <circle cx="268.7" cy="269.5" r="3" fill="#eab308" stroke="white" stroke-width="1"/>
  <circle cx="313.3" cy="272.4" r="3" fill="#eab308" stroke="white" stroke-width="1"/>
  <circle cx="358.0" cy="274.1" r="3" fill="#eab308" stroke="white" stroke-width="1"/>
  <circle cx="402.7" cy="277.3" r="3" fill="#eab308" stroke="white" stroke-width="1"/>
  <circle cx="447.3" cy="294.3" r="3" fill="#eab308" stroke="white" stroke-width="1"/>
  <circle cx="492.0" cy="318.6" r="3" fill="#eab308" stroke="white" stroke-width="1"/>
  <circle cx="536.7" cy="333.5" r="3" fill="#eab308" stroke="white" stroke-width="1"/>
  <circle cx="581.3" cy="341.5" r="3" fill="#eab308" stroke="white" stroke-width="1"/>
  <circle cx="626.0" cy="343.0" r="3" fill="#eab308" stroke="white" stroke-width="1"/>
  <circle cx="670.7" cy="344.2" r="3" fill="#eab308" stroke="white" stroke-width="1"/>
  <circle cx="715.3" cy="346.2" r="3" fill="#eab308" stroke="white" stroke-width="1"/>
  <circle cx="760.0" cy="347.7" r="3" fill="#eab308" stroke="white" stroke-width="1"/>
  <line x1="307.0" y1="388" x2="321.0" y2="388" stroke="#dc2626" stroke-width="2.5"/>
  <line x1="307.0" y1="400" x2="321.0" y2="400" stroke="#dc2626" stroke-width="2" stroke-dasharray="4,3"/>
  <text x="325.0" y="392" fill="#374151" font-size="10" font-weight="500">pyomq</text>
  <line x1="487.0" y1="388" x2="501.0" y2="388" stroke="#eab308" stroke-width="2.5"/>
  <line x1="487.0" y1="400" x2="501.0" y2="400" stroke="#eab308" stroke-width="2" stroke-dasharray="4,3"/>
  <text x="505.0" y="392" fill="#374151" font-size="10" font-weight="500">pyzmq</text>
  <text x="425.0" y="418" text-anchor="middle" fill="#9ca3af" font-size="9">solid = msg/s (left) · dashed = throughput (right)</text>
</svg>