<svg xmlns="http://www.w3.org/2000/svg" viewBox="0 0 700 419" font-family="system-ui, -apple-system, sans-serif">
  <rect width="700" height="419" fill="#0d1117"/>
  <text x="350.0" y="22" text-anchor="middle" fill="#e6edf3" font-size="14" font-weight="700">SPSC channel throughput (M items/s, higher is better)</text>
  <text x="350.0" y="38" text-anchor="middle" fill="#7d8590" font-size="10">cap=1024, 2s per config. Linux VM, i7-8700B @ 3.20 GHz, 6 cores, performance governor, turbo off</text>
  <text x="22" y="180.0" text-anchor="middle" fill="#e6edf3" font-size="11" font-weight="600" transform="rotate(-90,22,180.0)">M items/s</text>
  <line x1="70" y1="268.9" x2="680" y2="268.9" stroke="#21262d" stroke-width="1"/>
  <text x="62" y="268.9" text-anchor="end" dominant-baseline="middle" fill="#7d8590" font-size="10">100</text>
  <line x1="70" y1="232.8" x2="680" y2="232.8" stroke="#21262d" stroke-width="1"/>
  <text x="62" y="232.8" text-anchor="end" dominant-baseline="middle" fill="#7d8590" font-size="10">200</text>
  <line x1="70" y1="196.8" x2="680" y2="196.8" stroke="#21262d" stroke-width="1"/>
  <text x="62" y="196.8" text-anchor="end" dominant-baseline="middle" fill="#7d8590" font-size="10">300</text>
  <line x1="70" y1="160.7" x2="680" y2="160.7" stroke="#21262d" stroke-width="1"/>
  <text x="62" y="160.7" text-anchor="end" dominant-baseline="middle" fill="#7d8590" font-size="10">400</text>
  <line x1="70" y1="124.6" x2="680" y2="124.6" stroke="#21262d" stroke-width="1"/>
  <text x="62" y="124.6" text-anchor="end" dominant-baseline="middle" fill="#7d8590" font-size="10">500</text>
  <line x1="70" y1="88.5" x2="680" y2="88.5" stroke="#21262d" stroke-width="1"/>
  <text x="62" y="88.5" text-anchor="end" dominant-baseline="middle" fill="#7d8590" font-size="10">600</text>
  <line x1="70" y1="305" x2="680" y2="305" stroke="#30363d" stroke-width="1.5"/>
  <rect x="91.6" y="230.1" width="23.7" height="74.9" fill="#e85d04" rx="1"/>
  <text x="103.5" y="225.1" text-anchor="middle" fill="#e6edf3" font-size="8" font-weight="600">208</text>
  <rect x="118.9" y="163.0" width="23.7" height="142.0" fill="#dc2626" rx="1"/>
  <text x="130.7" y="158.0" text-anchor="middle" fill="#e6edf3" font-size="8" font-weight="600">394</text>
  <rect x="146.2" y="293.3" width="23.7" height="11.7" fill="#2563eb" rx="1"/>
  <text x="158.0" y="288.3" text-anchor="middle" fill="#e6edf3" font-size="8" font-weight="600">32.3</text>
  <rect x="173.4" y="87.6" width="23.7" height="217.4" fill="#7c3aed" rx="1"/>
  <text x="185.3" y="82.6" text-anchor="middle" fill="#e6edf3" font-size="8" font-weight="600">602</text>
  <rect x="200.7" y="299.7" width="23.7" height="5.3" fill="#525c68" rx="1"/>
  <text x="212.6" y="294.7" text-anchor="middle" fill="#e6edf3" font-size="8" font-weight="600">14.8</text>
  <rect x="228.0" y="303.3" width="23.7" height="1.7" fill="#16a34a" rx="1"/>
  <text x="239.9" y="298.3" text-anchor="middle" fill="#e6edf3" font-size="8" font-weight="600">4.8</text>
  <text x="171.7" y="321" text-anchor="middle" fill="#e6edf3" font-size="11" font-weight="600">[u8; 32]</text>
  <rect x="294.9" y="269.2" width="23.7" height="35.8" fill="#e85d04" rx="1"/>
  <text x="306.8" y="264.2" text-anchor="middle" fill="#e6edf3" font-size="8" font-weight="600">99.2</text>
  <rect x="322.2" y="229.3" width="23.7" height="75.7" fill="#dc2626" rx="1"/>
  <text x="334.1" y="224.3" text-anchor="middle" fill="#e6edf3" font-size="8" font-weight="600">210</text>
  <rect x="349.5" y="293.4" width="23.7" height="11.6" fill="#2563eb" rx="1"/>
  <text x="361.4" y="288.4" text-anchor="middle" fill="#e6edf3" font-size="8" font-weight="600">32.1</text>
  <rect x="376.8" y="192.1" width="23.7" height="112.9" fill="#7c3aed" rx="1"/>
  <text x="388.6" y="187.1" text-anchor="middle" fill="#e6edf3" font-size="8" font-weight="600">313</text>
  <rect x="404.1" y="299.9" width="23.7" height="5.1" fill="#525c68" rx="1"/>
  <text x="415.9" y="294.9" text-anchor="middle" fill="#e6edf3" font-size="8" font-weight="600">14.2</text>
  <rect x="431.3" y="303.2" width="23.7" height="1.8" fill="#16a34a" rx="1"/>
  <text x="443.2" y="298.2" text-anchor="middle" fill="#e6edf3" font-size="8" font-weight="600">5.0</text>
  <text x="375.0" y="321" text-anchor="middle" fill="#e6edf3" font-size="11" font-weight="600">[u8; 64]</text>
  <rect x="498.3" y="287.8" width="23.7" height="17.2" fill="#e85d04" rx="1"/>
  <text x="510.1" y="282.8" text-anchor="middle" fill="#e6edf3" font-size="8" font-weight="600">47.7</text>
  <rect x="525.6" y="265.6" width="23.7" height="39.4" fill="#dc2626" rx="1"/>
  <text x="537.4" y="260.6" text-anchor="middle" fill="#e6edf3" font-size="8" font-weight="600">109</text>
  <rect x="552.8" y="293.5" width="23.7" height="11.5" fill="#2563eb" rx="1"/>
  <text x="564.7" y="288.5" text-anchor="middle" fill="#e6edf3" font-size="8" font-weight="600">31.9</text>
  <rect x="580.1" y="243.2" width="23.7" height="61.8" fill="#7c3aed" rx="1"/>
  <text x="592.0" y="238.2" text-anchor="middle" fill="#e6edf3" font-size="8" font-weight="600">171</text>
  <rect x="607.4" y="300.2" width="23.7" height="4.8" fill="#525c68" rx="1"/>
  <text x="619.3" y="295.2" text-anchor="middle" fill="#e6edf3" font-size="8" font-weight="600">13.3</text>
  <rect x="634.7" y="303.4" width="23.7" height="1.6" fill="#16a34a" rx="1"/>
  <text x="646.5" y="298.4" text-anchor="middle" fill="#e6edf3" font-size="8" font-weight="600">4.5</text>
  <text x="578.3" y="321" text-anchor="middle" fill="#e6edf3" font-size="11" font-weight="600">[u8; 128]</text>
  <rect x="130" y="338" width="12" height="12" fill="#e85d04" rx="2"/>
  <text x="148" y="348" fill="#e6edf3" font-size="10" font-weight="500">yring (per-item, no batching)</text>
  <rect x="130" y="356" width="12" height="12" fill="#dc2626" rx="2"/>
  <text x="148" y="366" fill="#e6edf3" font-size="10" font-weight="500">yring (batch=64)</text>
  <rect x="130" y="374" width="12" height="12" fill="#2563eb" rx="2"/>
  <text x="148" y="384" fill="#e6edf3" font-size="10" font-weight="500">rtrb v0.3 (per-item)</text>
  <rect x="380" y="338" width="12" height="12" fill="#7c3aed" rx="2"/>
  <text x="398" y="348" fill="#e6edf3" font-size="10" font-weight="500">rtrb v0.3 (chunk API, batch=64)</text>
  <rect x="380" y="356" width="12" height="12" fill="#525c68" rx="2"/>
  <text x="398" y="366" fill="#e6edf3" font-size="10" font-weight="500">crossbeam-channel v0.5 (bounded MPMC)</text>
  <rect x="380" y="374" width="12" height="12" fill="#16a34a" rx="2"/>
  <text x="398" y="384" fill="#e6edf3" font-size="10" font-weight="500">flume v0.11 (bounded MPMC)</text>
</svg>
