<svg xmlns="http://www.w3.org/2000/svg" viewBox="0 0 850 352" font-family="system-ui, -apple-system, sans-serif">
  <rect width="850" height="352" fill="white"/>
  <text x="425.0" y="46" text-anchor="middle" fill="#9ca3af" font-size="10">Linux VM on a 2018 Mac Mini, Intel Core i7-8700B @ 3.20GHz, 6 cores, performance governor, turbo off</text>
  <text x="425.0" y="32.0" text-anchor="middle" fill="#111827" font-size="13" font-weight="700">REQ/REP latency: inproc (p50 µs)</text>
  <line x1="90.0" y1="206.5" x2="760.0" y2="206.5" stroke="#e5e7eb" stroke-width="1"/>
  <text x="82.0" y="206.5" text-anchor="end" dominant-baseline="middle" fill="#374151" font-size="10">5</text>
  <line x1="90.0" y1="184.0" x2="760.0" y2="184.0" stroke="#e5e7eb" stroke-width="1"/>
  <text x="82.0" y="184.0" text-anchor="end" dominant-baseline="middle" fill="#374151" font-size="10">10</text>
  <line x1="90.0" y1="161.5" x2="760.0" y2="161.5" stroke="#e5e7eb" stroke-width="1"/>
  <text x="82.0" y="161.5" text-anchor="end" dominant-baseline="middle" fill="#374151" font-size="10">15</text>
  <line x1="90.0" y1="139.0" x2="760.0" y2="139.0" stroke="#e5e7eb" stroke-width="1"/>
  <text x="82.0" y="139.0" text-anchor="end" dominant-baseline="middle" fill="#374151" font-size="10">20</text>
  <line x1="90.0" y1="116.5" x2="760.0" y2="116.5" stroke="#e5e7eb" stroke-width="1"/>
  <text x="82.0" y="116.5" text-anchor="end" dominant-baseline="middle" fill="#374151" font-size="10">25</text>
  <line x1="90.0" y1="94.0" x2="760.0" y2="94.0" stroke="#e5e7eb" stroke-width="1"/>
  <text x="82.0" y="94.0" text-anchor="end" dominant-baseline="middle" fill="#374151" font-size="10">30</text>
  <line x1="90.0" y1="71.5" x2="760.0" y2="71.5" stroke="#e5e7eb" stroke-width="1"/>
  <text x="82.0" y="71.5" text-anchor="end" dominant-baseline="middle" fill="#374151" font-size="10">35</text>
  <line x1="90.0" y1="49.0" x2="760.0" y2="49.0" stroke="#e5e7eb" stroke-width="1"/>
  <text x="82.0" y="49.0" text-anchor="end" dominant-baseline="middle" fill="#374151" font-size="10">40</text>
  <line x1="90.0" y1="184.0" x2="760.0" y2="184.0" stroke="#e5e7eb" stroke-width="1" stroke-dasharray="3,6"/>
  <text x="768.0" y="184.0" text-anchor="start" dominant-baseline="middle" fill="#6b7280" font-size="10">50%</text>
  <line x1="90.0" y1="139.0" x2="760.0" y2="139.0" stroke="#e5e7eb" stroke-width="1" stroke-dasharray="3,6"/>
  <text x="768.0" y="139.0" text-anchor="start" dominant-baseline="middle" fill="#6b7280" font-size="10">100%</text>
  <line x1="90.0" y1="94.0" x2="760.0" y2="94.0" stroke="#e5e7eb" stroke-width="1" stroke-dasharray="3,6"/>
  <text x="768.0" y="94.0" text-anchor="start" dominant-baseline="middle" fill="#6b7280" font-size="10">150%</text>
  <line x1="90.0" y1="49.0" x2="760.0" y2="49.0" stroke="#e5e7eb" stroke-width="1" stroke-dasharray="3,6"/>
  <text x="768.0" y="49.0" text-anchor="start" dominant-baseline="middle" fill="#6b7280" font-size="10">200%</text>
  <line x1="90.0" y1="49.0" x2="90.0" y2="229.0" stroke="#e5e7eb" stroke-width="1"/>
  <line x1="145.8" y1="49.0" x2="145.8" y2="229.0" stroke="#e5e7eb" stroke-width="1"/>
  <line x1="201.7" y1="49.0" x2="201.7" y2="229.0" stroke="#e5e7eb" stroke-width="1"/>
  <line x1="257.5" y1="49.0" x2="257.5" y2="229.0" stroke="#e5e7eb" stroke-width="1"/>
  <line x1="313.3" y1="49.0" x2="313.3" y2="229.0" stroke="#e5e7eb" stroke-width="1"/>
  <line x1="369.2" y1="49.0" x2="369.2" y2="229.0" stroke="#e5e7eb" stroke-width="1"/>
  <line x1="425.0" y1="49.0" x2="425.0" y2="229.0" stroke="#e5e7eb" stroke-width="1"/>
  <line x1="480.8" y1="49.0" x2="480.8" y2="229.0" stroke="#e5e7eb" stroke-width="1"/>
  <line x1="536.7" y1="49.0" x2="536.7" y2="229.0" stroke="#e5e7eb" stroke-width="1"/>
  <line x1="592.5" y1="49.0" x2="592.5" y2="229.0" stroke="#e5e7eb" stroke-width="1"/>
  <line x1="648.3" y1="49.0" x2="648.3" y2="229.0" stroke="#e5e7eb" stroke-width="1"/>
  <line x1="704.2" y1="49.0" x2="704.2" y2="229.0" stroke="#e5e7eb" stroke-width="1"/>
  <line x1="760.0" y1="49.0" x2="760.0" y2="229.0" stroke="#e5e7eb" stroke-width="1"/>
  <line x1="90.0" y1="49.0" x2="90.0" y2="229.0" stroke="#9ca3af" stroke-width="1.5"/>
  <line x1="760.0" y1="49.0" x2="760.0" y2="229.0" stroke="#9ca3af" stroke-width="1.5"/>
  <line x1="90.0" y1="229.0" x2="760.0" y2="229.0" stroke="#9ca3af" stroke-width="1.5"/>
  <text x="40.0" y="139.0" text-anchor="middle" fill="#374151" font-size="10" font-weight="600" transform="rotate(-90,40.0,139.0)">p50 latency (µs)</text>
  <polyline points="90.0,126.2 145.8,128.5 201.7,126.9 257.5,133.2 313.3,126.1 369.2,132.1 425.0,128.7 480.8,125.1 536.7,126.8 592.5,129.6 648.3,125.5 704.2,128.4 760.0,125.4" fill="none" stroke="#eab308" stroke-width="1.6" stroke-dasharray="2,5" opacity="0.85"/>
  <polyline points="90.0,75.1 145.8,76.9 201.7,67.2 257.5,66.3 313.3,76.2 369.2,70.5 425.0,83.6 480.8,69.4 536.7,69.2 592.5,83.4 648.3,68.4 704.2,74.7 760.0,85.9" fill="none" stroke="#dc2626" stroke-width="1.6" stroke-dasharray="2,5" opacity="0.85"/>
  <polyline points="90.0,141.3 145.8,142.0 201.7,142.2 257.5,143.2 313.3,142.5 369.2,142.1 425.0,141.4 480.8,142.5 536.7,141.3 592.5,143.4 648.3,141.7 704.2,141.4 760.0,142.3" fill="none" stroke="#f97316" stroke-width="1.6" stroke-dasharray="2,5" opacity="0.85"/>
  <polyline points="90.0,103.8 145.8,106.8 201.7,112.7 257.5,98.9 313.3,107.2 369.2,101.9 425.0,109.8 480.8,111.0 536.7,109.9 592.5,100.8 648.3,104.3 704.2,106.0 760.0,111.7" fill="none" stroke="#16a34a" stroke-width="1.6" stroke-dasharray="2,5" opacity="0.85"/>
  <polyline points="90.0,114.0 145.8,110.2 201.7,112.2 257.5,102.8 313.3,114.5 369.2,101.1 425.0,104.8 480.8,97.2 536.7,102.4 592.5,106.9 648.3,104.5 704.2,89.8 760.0,90.7" fill="none" stroke="#eab308" stroke-width="2.5" stroke-linecap="round" stroke-linejoin="round"/>
  <circle cx="90.0" cy="114.0" r="3" fill="#eab308" stroke="white" stroke-width="1"/>
  <circle cx="145.8" cy="110.2" r="3" fill="#eab308" stroke="white" stroke-width="1"/>
  <circle cx="201.7" cy="112.2" r="3" fill="#eab308" stroke="white" stroke-width="1"/>
  <circle cx="257.5" cy="102.8" r="3" fill="#eab308" stroke="white" stroke-width="1"/>
  <circle cx="313.3" cy="114.5" r="3" fill="#eab308" stroke="white" stroke-width="1"/>
  <circle cx="369.2" cy="101.1" r="3" fill="#eab308" stroke="white" stroke-width="1"/>
  <circle cx="425.0" cy="104.8" r="3" fill="#eab308" stroke="white" stroke-width="1"/>
  <circle cx="480.8" cy="97.2" r="3" fill="#eab308" stroke="white" stroke-width="1"/>
  <circle cx="536.7" cy="102.4" r="3" fill="#eab308" stroke="white" stroke-width="1"/>
  <circle cx="592.5" cy="106.9" r="3" fill="#eab308" stroke="white" stroke-width="1"/>
  <circle cx="648.3" cy="104.5" r="3" fill="#eab308" stroke="white" stroke-width="1"/>
  <circle cx="704.2" cy="89.8" r="3" fill="#eab308" stroke="white" stroke-width="1"/>
  <circle cx="760.0" cy="90.7" r="3" fill="#eab308" stroke="white" stroke-width="1"/>
  <polyline points="90.0,127.4 145.8,138.3 201.7,135.0 257.5,139.5 313.3,132.6 369.2,131.6 425.0,125.8 480.8,135.2 536.7,134.0 592.5,117.3 648.3,128.9 704.2,133.5 760.0,116.6" fill="none" stroke="#dc2626" stroke-width="2.5" stroke-linecap="round" stroke-linejoin="round"/>
  <circle cx="90.0" cy="127.4" r="3" fill="#dc2626" stroke="white" stroke-width="1"/>
  <circle cx="145.8" cy="138.3" r="3" fill="#dc2626" stroke="white" stroke-width="1"/>
  <circle cx="201.7" cy="135.0" r="3" fill="#dc2626" stroke="white" stroke-width="1"/>
  <circle cx="257.5" cy="139.5" r="3" fill="#dc2626" stroke="white" stroke-width="1"/>
  <circle cx="313.3" cy="132.6" r="3" fill="#dc2626" stroke="white" stroke-width="1"/>
  <circle cx="369.2" cy="131.6" r="3" fill="#dc2626" stroke="white" stroke-width="1"/>
  <circle cx="425.0" cy="125.8" r="3" fill="#dc2626" stroke="white" stroke-width="1"/>
  <circle cx="480.8" cy="135.2" r="3" fill="#dc2626" stroke="white" stroke-width="1"/>
  <circle cx="536.7" cy="134.0" r="3" fill="#dc2626" stroke="white" stroke-width="1"/>
  <circle cx="592.5" cy="117.3" r="3" fill="#dc2626" stroke="white" stroke-width="1"/>
  <circle cx="648.3" cy="128.9" r="3" fill="#dc2626" stroke="white" stroke-width="1"/>
  <circle cx="704.2" cy="133.5" r="3" fill="#dc2626" stroke="white" stroke-width="1"/>
  <circle cx="760.0" cy="116.6" r="3" fill="#dc2626" stroke="white" stroke-width="1"/>
  <polyline points="90.0,201.7 145.8,201.4 201.7,201.3 257.5,201.0 313.3,201.3 369.2,201.4 425.0,201.6 480.8,201.3 536.7,201.6 592.5,201.0 648.3,201.5 704.2,201.7 760.0,201.4" fill="none" stroke="#f97316" stroke-width="2.5" stroke-linecap="round" stroke-linejoin="round"/>
  <circle cx="90.0" cy="201.7" r="3" fill="#f97316" stroke="white" stroke-width="1"/>
  <circle cx="145.8" cy="201.4" r="3" fill="#f97316" stroke="white" stroke-width="1"/>
  <circle cx="201.7" cy="201.3" r="3" fill="#f97316" stroke="white" stroke-width="1"/>
  <circle cx="257.5" cy="201.0" r="3" fill="#f97316" stroke="white" stroke-width="1"/>
  <circle cx="313.3" cy="201.3" r="3" fill="#f97316" stroke="white" stroke-width="1"/>
  <circle cx="369.2" cy="201.4" r="3" fill="#f97316" stroke="white" stroke-width="1"/>
  <circle cx="425.0" cy="201.6" r="3" fill="#f97316" stroke="white" stroke-width="1"/>
  <circle cx="480.8" cy="201.3" r="3" fill="#f97316" stroke="white" stroke-width="1"/>
  <circle cx="536.7" cy="201.6" r="3" fill="#f97316" stroke="white" stroke-width="1"/>
  <circle cx="592.5" cy="201.0" r="3" fill="#f97316" stroke="white" stroke-width="1"/>
  <circle cx="648.3" cy="201.5" r="3" fill="#f97316" stroke="white" stroke-width="1"/>
  <circle cx="704.2" cy="201.7" r="3" fill="#f97316" stroke="white" stroke-width="1"/>
  <circle cx="760.0" cy="201.4" r="3" fill="#f97316" stroke="white" stroke-width="1"/>
  <polyline points="90.0,85.0 145.8,65.9 201.7,90.5 257.5,80.8 313.3,71.7 369.2,90.6 425.0,86.3 480.8,78.5 536.7,78.9 592.5,84.5 648.3,72.8 704.2,56.4 760.0,28.0" fill="none" stroke="#16a34a" stroke-width="2.5" stroke-linecap="round" stroke-linejoin="round"/>
  <circle cx="90.0" cy="85.0" r="3" fill="#16a34a" stroke="white" stroke-width="1"/>
  <circle cx="145.8" cy="65.9" r="3" fill="#16a34a" stroke="white" stroke-width="1"/>
  <circle cx="201.7" cy="90.5" r="3" fill="#16a34a" stroke="white" stroke-width="1"/>
  <circle cx="257.5" cy="80.8" r="3" fill="#16a34a" stroke="white" stroke-width="1"/>
  <circle cx="313.3" cy="71.7" r="3" fill="#16a34a" stroke="white" stroke-width="1"/>
  <circle cx="369.2" cy="90.6" r="3" fill="#16a34a" stroke="white" stroke-width="1"/>
  <circle cx="425.0" cy="86.3" r="3" fill="#16a34a" stroke="white" stroke-width="1"/>
  <circle cx="480.8" cy="78.5" r="3" fill="#16a34a" stroke="white" stroke-width="1"/>
  <circle cx="536.7" cy="78.9" r="3" fill="#16a34a" stroke="white" stroke-width="1"/>
  <circle cx="592.5" cy="84.5" r="3" fill="#16a34a" stroke="white" stroke-width="1"/>
  <circle cx="648.3" cy="72.8" r="3" fill="#16a34a" stroke="white" stroke-width="1"/>
  <circle cx="704.2" cy="56.4" r="3" fill="#16a34a" stroke="white" stroke-width="1"/>
  <circle cx="760.0" cy="28.0" r="3" fill="#16a34a" stroke="white" stroke-width="1"/>
  <text x="90.0" y="243.0" text-anchor="middle" fill="#374151" font-size="8.5">8 B</text>
  <text x="145.8" y="243.0" text-anchor="middle" fill="#374151" font-size="8.5">16 B</text>
  <text x="201.7" y="243.0" text-anchor="middle" fill="#374151" font-size="8.5">32 B</text>
  <text x="257.5" y="243.0" text-anchor="middle" fill="#374151" font-size="8.5">64 B</text>
  <text x="313.3" y="243.0" text-anchor="middle" fill="#374151" font-size="8.5">128 B</text>
  <text x="369.2" y="243.0" text-anchor="middle" fill="#374151" font-size="8.5">256 B</text>
  <text x="425.0" y="243.0" text-anchor="middle" fill="#374151" font-size="8.5">512 B</text>
  <text x="480.8" y="243.0" text-anchor="middle" fill="#374151" font-size="8.5">1 KiB</text>
  <text x="536.7" y="243.0" text-anchor="middle" fill="#374151" font-size="8.5">2 KiB</text>
  <text x="592.5" y="243.0" text-anchor="middle" fill="#374151" font-size="8.5">4 KiB</text>
  <text x="648.3" y="243.0" text-anchor="middle" fill="#374151" font-size="8.5">8 KiB</text>
  <text x="704.2" y="243.0" text-anchor="middle" fill="#374151" font-size="8.5">16 KiB</text>
  <text x="760.0" y="243.0" text-anchor="middle" fill="#374151" font-size="8.5">32 KiB</text>
  <line x1="45" y1="269" x2="59" y2="269" stroke="#eab308" stroke-width="2.5"/>
  <circle cx="52" cy="269" r="2.5" fill="#eab308"/>
  <text x="65" y="273" fill="#374151" font-size="11" font-weight="500">libzmq v4.3.5</text>
  <line x1="235" y1="269" x2="249" y2="269" stroke="#f97316" stroke-width="2.5"/>
  <circle cx="242" cy="269" r="2.5" fill="#f97316"/>
  <text x="255" y="273" fill="#374151" font-size="11" font-weight="500">omq-tokio (ST)</text>
  <line x1="425" y1="269" x2="439" y2="269" stroke="#dc2626" stroke-width="2.5"/>
  <circle cx="432" cy="269" r="2.5" fill="#dc2626"/>
  <text x="445" y="273" fill="#374151" font-size="11" font-weight="500">omq-tokio (MT)</text>
  <line x1="615" y1="269" x2="629" y2="269" stroke="#16a34a" stroke-width="2.5"/>
  <circle cx="622" cy="269" r="2.5" fill="#16a34a"/>
  <text x="635" y="273" fill="#374151" font-size="11" font-weight="500">rzmq v0.5.22 (MT)</text>
  <text x="425.0" y="287" text-anchor="middle" fill="#9ca3af" font-size="9">ST = single-threaded   MT = multi-threaded</text>
  <line x1="265" y1="309" x2="279" y2="309" stroke="#6b7280" stroke-width="2.5"/>
  <circle cx="272" cy="309" r="2" fill="#6b7280"/>
  <text x="285" y="313" fill="#6b7280" font-size="10">p50 latency (left)</text>
  <line x1="435" y1="309" x2="449" y2="309" stroke="#6b7280" stroke-width="1.6" stroke-dasharray="2,5" opacity="0.85"/>
  <text x="455" y="313" fill="#6b7280" font-size="10">CPU % (right)</text>
</svg>
