<svg xmlns="http://www.w3.org/2000/svg" viewBox="0 0 850 372" font-family="system-ui, -apple-system, sans-serif">
  <rect width="850" height="372" fill="white"/>
  <text x="425.0" y="46" text-anchor="middle" fill="#9ca3af" font-size="10">Linux VM on a 2018 Mac Mini, Intel Core i7-8700B @ 3.20GHz, 6 cores, performance governor, turbo off</text>
  <text x="425.0" y="32.0" text-anchor="middle" fill="#111827" font-size="13" font-weight="700">REQ/REP latency: IPC, 2-process (p50 µs)</text>
  <line x1="90.0" y1="205.0" x2="760.0" y2="205.0" stroke="#e5e7eb" stroke-width="1"/>
  <text x="82.0" y="205.0" text-anchor="end" dominant-baseline="middle" fill="#374151" font-size="10">20</text>
  <line x1="90.0" y1="181.0" x2="760.0" y2="181.0" stroke="#e5e7eb" stroke-width="1"/>
  <text x="82.0" y="181.0" text-anchor="end" dominant-baseline="middle" fill="#374151" font-size="10">40</text>
  <line x1="90.0" y1="157.0" x2="760.0" y2="157.0" stroke="#e5e7eb" stroke-width="1"/>
  <text x="82.0" y="157.0" text-anchor="end" dominant-baseline="middle" fill="#374151" font-size="10">60</text>
  <line x1="90.0" y1="133.0" x2="760.0" y2="133.0" stroke="#e5e7eb" stroke-width="1"/>
  <text x="82.0" y="133.0" text-anchor="end" dominant-baseline="middle" fill="#374151" font-size="10">80</text>
  <line x1="90.0" y1="109.0" x2="760.0" y2="109.0" stroke="#e5e7eb" stroke-width="1"/>
  <text x="82.0" y="109.0" text-anchor="end" dominant-baseline="middle" fill="#374151" font-size="10">100</text>
  <line x1="90.0" y1="85.0" x2="760.0" y2="85.0" stroke="#e5e7eb" stroke-width="1"/>
  <text x="82.0" y="85.0" text-anchor="end" dominant-baseline="middle" fill="#374151" font-size="10">120</text>
  <line x1="90.0" y1="61.0" x2="760.0" y2="61.0" stroke="#e5e7eb" stroke-width="1"/>
  <text x="82.0" y="61.0" text-anchor="end" dominant-baseline="middle" fill="#374151" font-size="10">140</text>
  <line x1="90.0" y1="184.0" x2="760.0" y2="184.0" stroke="#e5e7eb" stroke-width="1" stroke-dasharray="3,6"/>
  <text x="768.0" y="184.0" text-anchor="start" dominant-baseline="middle" fill="#6b7280" font-size="10">50%</text>
  <line x1="90.0" y1="139.0" x2="760.0" y2="139.0" stroke="#e5e7eb" stroke-width="1" stroke-dasharray="3,6"/>
  <text x="768.0" y="139.0" text-anchor="start" dominant-baseline="middle" fill="#6b7280" font-size="10">100%</text>
  <line x1="90.0" y1="94.0" x2="760.0" y2="94.0" stroke="#e5e7eb" stroke-width="1" stroke-dasharray="3,6"/>
  <text x="768.0" y="94.0" text-anchor="start" dominant-baseline="middle" fill="#6b7280" font-size="10">150%</text>
  <line x1="90.0" y1="49.0" x2="760.0" y2="49.0" stroke="#e5e7eb" stroke-width="1" stroke-dasharray="3,6"/>
  <text x="768.0" y="49.0" text-anchor="start" dominant-baseline="middle" fill="#6b7280" font-size="10">200%</text>
  <line x1="90.0" y1="49.0" x2="90.0" y2="229.0" stroke="#e5e7eb" stroke-width="1"/>
  <line x1="145.8" y1="49.0" x2="145.8" y2="229.0" stroke="#e5e7eb" stroke-width="1"/>
  <line x1="201.7" y1="49.0" x2="201.7" y2="229.0" stroke="#e5e7eb" stroke-width="1"/>
  <line x1="257.5" y1="49.0" x2="257.5" y2="229.0" stroke="#e5e7eb" stroke-width="1"/>
  <line x1="313.3" y1="49.0" x2="313.3" y2="229.0" stroke="#e5e7eb" stroke-width="1"/>
  <line x1="369.2" y1="49.0" x2="369.2" y2="229.0" stroke="#e5e7eb" stroke-width="1"/>
  <line x1="425.0" y1="49.0" x2="425.0" y2="229.0" stroke="#e5e7eb" stroke-width="1"/>
  <line x1="480.8" y1="49.0" x2="480.8" y2="229.0" stroke="#e5e7eb" stroke-width="1"/>
  <line x1="536.7" y1="49.0" x2="536.7" y2="229.0" stroke="#e5e7eb" stroke-width="1"/>
  <line x1="592.5" y1="49.0" x2="592.5" y2="229.0" stroke="#e5e7eb" stroke-width="1"/>
  <line x1="648.3" y1="49.0" x2="648.3" y2="229.0" stroke="#e5e7eb" stroke-width="1"/>
  <line x1="704.2" y1="49.0" x2="704.2" y2="229.0" stroke="#e5e7eb" stroke-width="1"/>
  <line x1="760.0" y1="49.0" x2="760.0" y2="229.0" stroke="#e5e7eb" stroke-width="1"/>
  <line x1="90.0" y1="49.0" x2="90.0" y2="229.0" stroke="#9ca3af" stroke-width="1.5"/>
  <line x1="760.0" y1="49.0" x2="760.0" y2="229.0" stroke="#9ca3af" stroke-width="1.5"/>
  <line x1="90.0" y1="229.0" x2="760.0" y2="229.0" stroke="#9ca3af" stroke-width="1.5"/>
  <text x="40.0" y="139.0" text-anchor="middle" fill="#374151" font-size="10" font-weight="600" transform="rotate(-90,40.0,139.0)">p50 latency (µs)</text>
  <polyline points="90.0,126.2 145.8,124.3 201.7,126.4 257.5,127.8 313.3,126.7 369.2,128.2 425.0,124.2 480.8,126.6 536.7,124.7 592.5,127.7 648.3,121.0 704.2,120.2 760.0,117.6" fill="none" stroke="#eab308" stroke-width="1.6" stroke-dasharray="2,5" opacity="0.85"/>
  <polyline points="90.0,95.8 145.8,98.7 201.7,100.9 257.5,94.6 313.3,97.9 369.2,98.6 425.0,99.7 480.8,101.3 536.7,94.7 592.5,99.8 648.3,104.1 704.2,104.4 760.0,100.8" fill="none" stroke="#dc2626" stroke-width="1.6" stroke-dasharray="2,5" opacity="0.85"/>
  <polyline points="90.0,103.7 145.8,107.7 201.7,105.1 257.5,103.9 313.3,104.2 369.2,104.5 425.0,111.3 480.8,112.0 536.7,112.5 592.5,107.3 648.3,111.8 704.2,105.3 760.0,107.6" fill="none" stroke="#f97316" stroke-width="1.6" stroke-dasharray="2,5" opacity="0.85"/>
  <polyline points="90.0,107.6 145.8,104.8 201.7,105.6 257.5,109.0 313.3,105.6 369.2,106.0 425.0,106.9 480.8,106.5 536.7,111.4 592.5,107.0 648.3,111.1 704.2,112.9 760.0,111.3" fill="none" stroke="#16a34a" stroke-width="1.6" stroke-dasharray="2,5" opacity="0.85"/>
  <polyline points="90.0,112.3 145.8,116.0 201.7,115.2 257.5,117.4 313.3,120.7 369.2,118.4 425.0,126.4 480.8,124.1 536.7,119.8 592.5,111.9 648.3,112.4 704.2,122.2 760.0,123.7" fill="none" stroke="#2563eb" stroke-width="1.6" stroke-dasharray="2,5" opacity="0.85"/>
  <polyline points="90.0,124.9 145.8,131.0 201.7,120.2 257.5,117.3 313.3,133.3 369.2,121.7 425.0,127.3 480.8,128.0 536.7,118.8 592.5,109.7 648.3,109.7 704.2,107.2 760.0,102.8" fill="none" stroke="#eab308" stroke-width="2.5" stroke-linecap="round" stroke-linejoin="round"/>
  <circle cx="90.0" cy="124.9" r="3" fill="#eab308" stroke="white" stroke-width="1"/>
  <circle cx="145.8" cy="131.0" r="3" fill="#eab308" stroke="white" stroke-width="1"/>
  <circle cx="201.7" cy="120.2" r="3" fill="#eab308" stroke="white" stroke-width="1"/>
  <circle cx="257.5" cy="117.3" r="3" fill="#eab308" stroke="white" stroke-width="1"/>
  <circle cx="313.3" cy="133.3" r="3" fill="#eab308" stroke="white" stroke-width="1"/>
  <circle cx="369.2" cy="121.7" r="3" fill="#eab308" stroke="white" stroke-width="1"/>
  <circle cx="425.0" cy="127.3" r="3" fill="#eab308" stroke="white" stroke-width="1"/>
  <circle cx="480.8" cy="128.0" r="3" fill="#eab308" stroke="white" stroke-width="1"/>
  <circle cx="536.7" cy="118.8" r="3" fill="#eab308" stroke="white" stroke-width="1"/>
  <circle cx="592.5" cy="109.7" r="3" fill="#eab308" stroke="white" stroke-width="1"/>
  <circle cx="648.3" cy="109.7" r="3" fill="#eab308" stroke="white" stroke-width="1"/>
  <circle cx="704.2" cy="107.2" r="3" fill="#eab308" stroke="white" stroke-width="1"/>
  <circle cx="760.0" cy="102.8" r="3" fill="#eab308" stroke="white" stroke-width="1"/>
  <polyline points="90.0,129.7 145.8,125.8 201.7,122.6 257.5,131.0 313.3,120.9 369.2,124.2 425.0,129.5 480.8,102.5 536.7,127.0 592.5,120.3 648.3,113.8 704.2,98.6 760.0,98.6" fill="none" stroke="#dc2626" stroke-width="2.5" stroke-linecap="round" stroke-linejoin="round"/>
  <circle cx="90.0" cy="129.7" r="3" fill="#dc2626" stroke="white" stroke-width="1"/>
  <circle cx="145.8" cy="125.8" r="3" fill="#dc2626" stroke="white" stroke-width="1"/>
  <circle cx="201.7" cy="122.6" r="3" fill="#dc2626" stroke="white" stroke-width="1"/>
  <circle cx="257.5" cy="131.0" r="3" fill="#dc2626" stroke="white" stroke-width="1"/>
  <circle cx="313.3" cy="120.9" r="3" fill="#dc2626" stroke="white" stroke-width="1"/>
  <circle cx="369.2" cy="124.2" r="3" fill="#dc2626" stroke="white" stroke-width="1"/>
  <circle cx="425.0" cy="129.5" r="3" fill="#dc2626" stroke="white" stroke-width="1"/>
  <circle cx="480.8" cy="102.5" r="3" fill="#dc2626" stroke="white" stroke-width="1"/>
  <circle cx="536.7" cy="127.0" r="3" fill="#dc2626" stroke="white" stroke-width="1"/>
  <circle cx="592.5" cy="120.3" r="3" fill="#dc2626" stroke="white" stroke-width="1"/>
  <circle cx="648.3" cy="113.8" r="3" fill="#dc2626" stroke="white" stroke-width="1"/>
  <circle cx="704.2" cy="98.6" r="3" fill="#dc2626" stroke="white" stroke-width="1"/>
  <circle cx="760.0" cy="98.6" r="3" fill="#dc2626" stroke="white" stroke-width="1"/>
  <polyline points="90.0,183.2 145.8,185.1 201.7,185.7 257.5,187.6 313.3,188.3 369.2,186.5 425.0,181.5 480.8,182.1 536.7,174.0 592.5,175.2 648.3,170.5 704.2,168.6 760.0,159.5" fill="none" stroke="#f97316" stroke-width="2.5" stroke-linecap="round" stroke-linejoin="round"/>
  <circle cx="90.0" cy="183.2" r="3" fill="#f97316" stroke="white" stroke-width="1"/>
  <circle cx="145.8" cy="185.1" r="3" fill="#f97316" stroke="white" stroke-width="1"/>
  <circle cx="201.7" cy="185.7" r="3" fill="#f97316" stroke="white" stroke-width="1"/>
  <circle cx="257.5" cy="187.6" r="3" fill="#f97316" stroke="white" stroke-width="1"/>
  <circle cx="313.3" cy="188.3" r="3" fill="#f97316" stroke="white" stroke-width="1"/>
  <circle cx="369.2" cy="186.5" r="3" fill="#f97316" stroke="white" stroke-width="1"/>
  <circle cx="425.0" cy="181.5" r="3" fill="#f97316" stroke="white" stroke-width="1"/>
  <circle cx="480.8" cy="182.1" r="3" fill="#f97316" stroke="white" stroke-width="1"/>
  <circle cx="536.7" cy="174.0" r="3" fill="#f97316" stroke="white" stroke-width="1"/>
  <circle cx="592.5" cy="175.2" r="3" fill="#f97316" stroke="white" stroke-width="1"/>
  <circle cx="648.3" cy="170.5" r="3" fill="#f97316" stroke="white" stroke-width="1"/>
  <circle cx="704.2" cy="168.6" r="3" fill="#f97316" stroke="white" stroke-width="1"/>
  <circle cx="760.0" cy="159.5" r="3" fill="#f97316" stroke="white" stroke-width="1"/>
  <polyline points="90.0,76.0 145.8,88.5 201.7,87.2 257.5,87.8 313.3,81.8 369.2,87.8 425.0,76.7 480.8,85.1 536.7,71.0 592.5,78.8 648.3,76.6 704.2,67.8 760.0,62.0" fill="none" stroke="#16a34a" stroke-width="2.5" stroke-linecap="round" stroke-linejoin="round"/>
  <circle cx="90.0" cy="76.0" r="3" fill="#16a34a" stroke="white" stroke-width="1"/>
  <circle cx="145.8" cy="88.5" r="3" fill="#16a34a" stroke="white" stroke-width="1"/>
  <circle cx="201.7" cy="87.2" r="3" fill="#16a34a" stroke="white" stroke-width="1"/>
  <circle cx="257.5" cy="87.8" r="3" fill="#16a34a" stroke="white" stroke-width="1"/>
  <circle cx="313.3" cy="81.8" r="3" fill="#16a34a" stroke="white" stroke-width="1"/>
  <circle cx="369.2" cy="87.8" r="3" fill="#16a34a" stroke="white" stroke-width="1"/>
  <circle cx="425.0" cy="76.7" r="3" fill="#16a34a" stroke="white" stroke-width="1"/>
  <circle cx="480.8" cy="85.1" r="3" fill="#16a34a" stroke="white" stroke-width="1"/>
  <circle cx="536.7" cy="71.0" r="3" fill="#16a34a" stroke="white" stroke-width="1"/>
  <circle cx="592.5" cy="78.8" r="3" fill="#16a34a" stroke="white" stroke-width="1"/>
  <circle cx="648.3" cy="76.6" r="3" fill="#16a34a" stroke="white" stroke-width="1"/>
  <circle cx="704.2" cy="67.8" r="3" fill="#16a34a" stroke="white" stroke-width="1"/>
  <circle cx="760.0" cy="62.0" r="3" fill="#16a34a" stroke="white" stroke-width="1"/>
  <polyline points="90.0,183.2 145.8,180.9 201.7,184.3 257.5,187.6 313.3,183.5 369.2,179.1 425.0,171.3 480.8,178.5 536.7,176.3 592.5,181.8 648.3,172.3 704.2,154.1 760.0,136.4" fill="none" stroke="#2563eb" stroke-width="2.5" stroke-linecap="round" stroke-linejoin="round"/>
  <circle cx="90.0" cy="183.2" r="3" fill="#2563eb" stroke="white" stroke-width="1"/>
  <circle cx="145.8" cy="180.9" r="3" fill="#2563eb" stroke="white" stroke-width="1"/>
  <circle cx="201.7" cy="184.3" r="3" fill="#2563eb" stroke="white" stroke-width="1"/>
  <circle cx="257.5" cy="187.6" r="3" fill="#2563eb" stroke="white" stroke-width="1"/>
  <circle cx="313.3" cy="183.5" r="3" fill="#2563eb" stroke="white" stroke-width="1"/>
  <circle cx="369.2" cy="179.1" r="3" fill="#2563eb" stroke="white" stroke-width="1"/>
  <circle cx="425.0" cy="171.3" r="3" fill="#2563eb" stroke="white" stroke-width="1"/>
  <circle cx="480.8" cy="178.5" r="3" fill="#2563eb" stroke="white" stroke-width="1"/>
  <circle cx="536.7" cy="176.3" r="3" fill="#2563eb" stroke="white" stroke-width="1"/>
  <circle cx="592.5" cy="181.8" r="3" fill="#2563eb" stroke="white" stroke-width="1"/>
  <circle cx="648.3" cy="172.3" r="3" fill="#2563eb" stroke="white" stroke-width="1"/>
  <circle cx="704.2" cy="154.1" r="3" fill="#2563eb" stroke="white" stroke-width="1"/>
  <circle cx="760.0" cy="136.4" r="3" fill="#2563eb" stroke="white" stroke-width="1"/>
  <text x="90.0" y="243.0" text-anchor="middle" fill="#374151" font-size="8.5">8 B</text>
  <text x="145.8" y="243.0" text-anchor="middle" fill="#374151" font-size="8.5">16 B</text>
  <text x="201.7" y="243.0" text-anchor="middle" fill="#374151" font-size="8.5">32 B</text>
  <text x="257.5" y="243.0" text-anchor="middle" fill="#374151" font-size="8.5">64 B</text>
  <text x="313.3" y="243.0" text-anchor="middle" fill="#374151" font-size="8.5">128 B</text>
  <text x="369.2" y="243.0" text-anchor="middle" fill="#374151" font-size="8.5">256 B</text>
  <text x="425.0" y="243.0" text-anchor="middle" fill="#374151" font-size="8.5">512 B</text>
  <text x="480.8" y="243.0" text-anchor="middle" fill="#374151" font-size="8.5">1 KiB</text>
  <text x="536.7" y="243.0" text-anchor="middle" fill="#374151" font-size="8.5">2 KiB</text>
  <text x="592.5" y="243.0" text-anchor="middle" fill="#374151" font-size="8.5">4 KiB</text>
  <text x="648.3" y="243.0" text-anchor="middle" fill="#374151" font-size="8.5">8 KiB</text>
  <text x="704.2" y="243.0" text-anchor="middle" fill="#374151" font-size="8.5">16 KiB</text>
  <text x="760.0" y="243.0" text-anchor="middle" fill="#374151" font-size="8.5">32 KiB</text>
  <line x1="140" y1="269" x2="154" y2="269" stroke="#eab308" stroke-width="2.5"/>
  <circle cx="147" cy="269" r="2.5" fill="#eab308"/>
  <text x="160" y="273" fill="#374151" font-size="11" font-weight="500">libzmq v4.3.5</text>
  <line x1="330" y1="269" x2="344" y2="269" stroke="#f97316" stroke-width="2.5"/>
  <circle cx="337" cy="269" r="2.5" fill="#f97316"/>
  <text x="350" y="273" fill="#374151" font-size="11" font-weight="500">omq-tokio (ST)</text>
  <line x1="520" y1="269" x2="534" y2="269" stroke="#dc2626" stroke-width="2.5"/>
  <circle cx="527" cy="269" r="2.5" fill="#dc2626"/>
  <text x="540" y="273" fill="#374151" font-size="11" font-weight="500">omq-tokio (MT)</text>
  <line x1="235" y1="289" x2="249" y2="289" stroke="#2563eb" stroke-width="2.5"/>
  <circle cx="242" cy="289" r="2.5" fill="#2563eb"/>
  <text x="255" y="293" fill="#374151" font-size="11" font-weight="500">zmq.rs v0.6.0 (MT)</text>
  <line x1="425" y1="289" x2="439" y2="289" stroke="#16a34a" stroke-width="2.5"/>
  <circle cx="432" cy="289" r="2.5" fill="#16a34a"/>
  <text x="445" y="293" fill="#374151" font-size="11" font-weight="500">rzmq v0.5.22 (MT)</text>
  <text x="425.0" y="307" text-anchor="middle" fill="#9ca3af" font-size="9">ST = single-threaded   MT = multi-threaded</text>
  <line x1="265" y1="329" x2="279" y2="329" stroke="#6b7280" stroke-width="2.5"/>
  <circle cx="272" cy="329" r="2" fill="#6b7280"/>
  <text x="285" y="333" fill="#6b7280" font-size="10">p50 latency (left)</text>
  <line x1="435" y1="329" x2="449" y2="329" stroke="#6b7280" stroke-width="1.6" stroke-dasharray="2,5" opacity="0.85"/>
  <text x="455" y="333" fill="#6b7280" font-size="10">CPU % (right)</text>
</svg>
