<svg xmlns="http://www.w3.org/2000/svg" viewBox="0 0 850 294" font-family="system-ui, -apple-system, sans-serif">
  <rect width="850" height="294" fill="white"/>
  <text x="425.0" y="46" text-anchor="middle" fill="#9ca3af" font-size="10">Linux VM on a 2018 Mac Mini, Intel Core i7-8700B @ 3.20GHz, 6 cores, performance governor, turbo off</text>
  <text x="425.0" y="32.0" text-anchor="middle" fill="#111827" font-size="13" font-weight="700">REQ/REP latency: IPC, 2-process (p50 µs, lower is better)</text>
  <line x1="90.0" y1="179.0" x2="760.0" y2="179.0" stroke="#e5e7eb" stroke-width="1"/>
  <text x="82.0" y="179.0" text-anchor="end" dominant-baseline="middle" fill="#374151" font-size="10">20</text>
  <line x1="90.0" y1="159.0" x2="760.0" y2="159.0" stroke="#e5e7eb" stroke-width="1"/>
  <text x="82.0" y="159.0" text-anchor="end" dominant-baseline="middle" fill="#374151" font-size="10">40</text>
  <line x1="90.0" y1="139.0" x2="760.0" y2="139.0" stroke="#e5e7eb" stroke-width="1"/>
  <text x="82.0" y="139.0" text-anchor="end" dominant-baseline="middle" fill="#374151" font-size="10">60</text>
  <line x1="90.0" y1="119.0" x2="760.0" y2="119.0" stroke="#e5e7eb" stroke-width="1"/>
  <text x="82.0" y="119.0" text-anchor="end" dominant-baseline="middle" fill="#374151" font-size="10">80</text>
  <line x1="90.0" y1="99.0" x2="760.0" y2="99.0" stroke="#e5e7eb" stroke-width="1"/>
  <text x="82.0" y="99.0" text-anchor="end" dominant-baseline="middle" fill="#374151" font-size="10">100</text>
  <line x1="90.0" y1="79.0" x2="760.0" y2="79.0" stroke="#e5e7eb" stroke-width="1"/>
  <text x="82.0" y="79.0" text-anchor="end" dominant-baseline="middle" fill="#374151" font-size="10">120</text>
  <line x1="90.0" y1="59.0" x2="760.0" y2="59.0" stroke="#e5e7eb" stroke-width="1"/>
  <text x="82.0" y="59.0" text-anchor="end" dominant-baseline="middle" fill="#374151" font-size="10">140</text>
  <line x1="90.0" y1="49.0" x2="90.0" y2="199.0" stroke="#e5e7eb" stroke-width="1"/>
  <line x1="145.8" y1="49.0" x2="145.8" y2="199.0" stroke="#e5e7eb" stroke-width="1"/>
  <line x1="201.7" y1="49.0" x2="201.7" y2="199.0" stroke="#e5e7eb" stroke-width="1"/>
  <line x1="257.5" y1="49.0" x2="257.5" y2="199.0" stroke="#e5e7eb" stroke-width="1"/>
  <line x1="313.3" y1="49.0" x2="313.3" y2="199.0" stroke="#e5e7eb" stroke-width="1"/>
  <line x1="369.2" y1="49.0" x2="369.2" y2="199.0" stroke="#e5e7eb" stroke-width="1"/>
  <line x1="425.0" y1="49.0" x2="425.0" y2="199.0" stroke="#e5e7eb" stroke-width="1"/>
  <line x1="480.8" y1="49.0" x2="480.8" y2="199.0" stroke="#e5e7eb" stroke-width="1"/>
  <line x1="536.7" y1="49.0" x2="536.7" y2="199.0" stroke="#e5e7eb" stroke-width="1"/>
  <line x1="592.5" y1="49.0" x2="592.5" y2="199.0" stroke="#e5e7eb" stroke-width="1"/>
  <line x1="648.3" y1="49.0" x2="648.3" y2="199.0" stroke="#e5e7eb" stroke-width="1"/>
  <line x1="704.2" y1="49.0" x2="704.2" y2="199.0" stroke="#e5e7eb" stroke-width="1"/>
  <line x1="760.0" y1="49.0" x2="760.0" y2="199.0" stroke="#e5e7eb" stroke-width="1"/>
  <line x1="90.0" y1="49.0" x2="90.0" y2="199.0" stroke="#9ca3af" stroke-width="1.5"/>
  <line x1="90.0" y1="199.0" x2="760.0" y2="199.0" stroke="#9ca3af" stroke-width="1.5"/>
  <text x="40.0" y="124.0" text-anchor="middle" fill="#374151" font-size="10" font-weight="600" transform="rotate(-90,40.0,124.0)">p50 latency (µs)</text>
  <polyline points="90.0,114.5 145.8,108.9 201.7,110.6 257.5,113.2 313.3,112.3 369.2,115.9 425.0,108.0 480.8,112.6 536.7,110.2 592.5,103.5 648.3,97.7 704.2,88.4 760.0,89.7" fill="none" stroke="#eab308" stroke-width="2.5" stroke-linecap="round" stroke-linejoin="round"/>
  <circle cx="90.0" cy="114.5" r="3" fill="#eab308" stroke="white" stroke-width="1"/>
  <circle cx="145.8" cy="108.9" r="3" fill="#eab308" stroke="white" stroke-width="1"/>
  <circle cx="201.7" cy="110.6" r="3" fill="#eab308" stroke="white" stroke-width="1"/>
  <circle cx="257.5" cy="113.2" r="3" fill="#eab308" stroke="white" stroke-width="1"/>
  <circle cx="313.3" cy="112.3" r="3" fill="#eab308" stroke="white" stroke-width="1"/>
  <circle cx="369.2" cy="115.9" r="3" fill="#eab308" stroke="white" stroke-width="1"/>
  <circle cx="425.0" cy="108.0" r="3" fill="#eab308" stroke="white" stroke-width="1"/>
  <circle cx="480.8" cy="112.6" r="3" fill="#eab308" stroke="white" stroke-width="1"/>
  <circle cx="536.7" cy="110.2" r="3" fill="#eab308" stroke="white" stroke-width="1"/>
  <circle cx="592.5" cy="103.5" r="3" fill="#eab308" stroke="white" stroke-width="1"/>
  <circle cx="648.3" cy="97.7" r="3" fill="#eab308" stroke="white" stroke-width="1"/>
  <circle cx="704.2" cy="88.4" r="3" fill="#eab308" stroke="white" stroke-width="1"/>
  <circle cx="760.0" cy="89.7" r="3" fill="#eab308" stroke="white" stroke-width="1"/>
  <polyline points="90.0,114.2 145.8,114.2 201.7,112.4 257.5,113.6 313.3,108.4 369.2,114.7 425.0,114.7 480.8,101.6 536.7,113.9 592.5,110.0 648.3,103.5 704.2,105.4 760.0,96.5" fill="none" stroke="#f97316" stroke-width="2.5" stroke-linecap="round" stroke-linejoin="round"/>
  <circle cx="90.0" cy="114.2" r="3" fill="#f97316" stroke="white" stroke-width="1"/>
  <circle cx="145.8" cy="114.2" r="3" fill="#f97316" stroke="white" stroke-width="1"/>
  <circle cx="201.7" cy="112.4" r="3" fill="#f97316" stroke="white" stroke-width="1"/>
  <circle cx="257.5" cy="113.6" r="3" fill="#f97316" stroke="white" stroke-width="1"/>
  <circle cx="313.3" cy="108.4" r="3" fill="#f97316" stroke="white" stroke-width="1"/>
  <circle cx="369.2" cy="114.7" r="3" fill="#f97316" stroke="white" stroke-width="1"/>
  <circle cx="425.0" cy="114.7" r="3" fill="#f97316" stroke="white" stroke-width="1"/>
  <circle cx="480.8" cy="101.6" r="3" fill="#f97316" stroke="white" stroke-width="1"/>
  <circle cx="536.7" cy="113.9" r="3" fill="#f97316" stroke="white" stroke-width="1"/>
  <circle cx="592.5" cy="110.0" r="3" fill="#f97316" stroke="white" stroke-width="1"/>
  <circle cx="648.3" cy="103.5" r="3" fill="#f97316" stroke="white" stroke-width="1"/>
  <circle cx="704.2" cy="105.4" r="3" fill="#f97316" stroke="white" stroke-width="1"/>
  <circle cx="760.0" cy="96.5" r="3" fill="#f97316" stroke="white" stroke-width="1"/>
  <polyline points="90.0,97.9 145.8,76.8 201.7,98.6 257.5,108.6 313.3,107.5 369.2,103.1 425.0,112.5 480.8,103.7 536.7,103.2 592.5,104.1 648.3,98.3 704.2,82.9 760.0,82.9" fill="none" stroke="#10b981" stroke-width="2.5" stroke-linecap="round" stroke-linejoin="round"/>
  <circle cx="90.0" cy="97.9" r="3" fill="#10b981" stroke="white" stroke-width="1"/>
  <circle cx="145.8" cy="76.8" r="3" fill="#10b981" stroke="white" stroke-width="1"/>
  <circle cx="201.7" cy="98.6" r="3" fill="#10b981" stroke="white" stroke-width="1"/>
  <circle cx="257.5" cy="108.6" r="3" fill="#10b981" stroke="white" stroke-width="1"/>
  <circle cx="313.3" cy="107.5" r="3" fill="#10b981" stroke="white" stroke-width="1"/>
  <circle cx="369.2" cy="103.1" r="3" fill="#10b981" stroke="white" stroke-width="1"/>
  <circle cx="425.0" cy="112.5" r="3" fill="#10b981" stroke="white" stroke-width="1"/>
  <circle cx="480.8" cy="103.7" r="3" fill="#10b981" stroke="white" stroke-width="1"/>
  <circle cx="536.7" cy="103.2" r="3" fill="#10b981" stroke="white" stroke-width="1"/>
  <circle cx="592.5" cy="104.1" r="3" fill="#10b981" stroke="white" stroke-width="1"/>
  <circle cx="648.3" cy="98.3" r="3" fill="#10b981" stroke="white" stroke-width="1"/>
  <circle cx="704.2" cy="82.9" r="3" fill="#10b981" stroke="white" stroke-width="1"/>
  <circle cx="760.0" cy="82.9" r="3" fill="#10b981" stroke="white" stroke-width="1"/>
  <polyline points="90.0,153.8 145.8,158.6 201.7,151.5 257.5,159.7 313.3,153.0 369.2,151.8 425.0,161.0 480.8,158.1 536.7,159.8 592.5,159.4 648.3,152.9 704.2,138.9 760.0,127.3" fill="none" stroke="#2563eb" stroke-width="2.5" stroke-linecap="round" stroke-linejoin="round"/>
  <circle cx="90.0" cy="153.8" r="3" fill="#2563eb" stroke="white" stroke-width="1"/>
  <circle cx="145.8" cy="158.6" r="3" fill="#2563eb" stroke="white" stroke-width="1"/>
  <circle cx="201.7" cy="151.5" r="3" fill="#2563eb" stroke="white" stroke-width="1"/>
  <circle cx="257.5" cy="159.7" r="3" fill="#2563eb" stroke="white" stroke-width="1"/>
  <circle cx="313.3" cy="153.0" r="3" fill="#2563eb" stroke="white" stroke-width="1"/>
  <circle cx="369.2" cy="151.8" r="3" fill="#2563eb" stroke="white" stroke-width="1"/>
  <circle cx="425.0" cy="161.0" r="3" fill="#2563eb" stroke="white" stroke-width="1"/>
  <circle cx="480.8" cy="158.1" r="3" fill="#2563eb" stroke="white" stroke-width="1"/>
  <circle cx="536.7" cy="159.8" r="3" fill="#2563eb" stroke="white" stroke-width="1"/>
  <circle cx="592.5" cy="159.4" r="3" fill="#2563eb" stroke="white" stroke-width="1"/>
  <circle cx="648.3" cy="152.9" r="3" fill="#2563eb" stroke="white" stroke-width="1"/>
  <circle cx="704.2" cy="138.9" r="3" fill="#2563eb" stroke="white" stroke-width="1"/>
  <circle cx="760.0" cy="127.3" r="3" fill="#2563eb" stroke="white" stroke-width="1"/>
  <polyline points="90.0,158.6 145.8,157.8 201.7,159.0 257.5,157.8 313.3,158.5 369.2,158.0 425.0,158.1 480.8,157.5 536.7,156.4 592.5,152.5 648.3,149.1 704.2,144.6 760.0,138.3" fill="none" stroke="#dc2626" stroke-width="2.5" stroke-linecap="round" stroke-linejoin="round"/>
  <circle cx="90.0" cy="158.6" r="3" fill="#dc2626" stroke="white" stroke-width="1"/>
  <circle cx="145.8" cy="157.8" r="3" fill="#dc2626" stroke="white" stroke-width="1"/>
  <circle cx="201.7" cy="159.0" r="3" fill="#dc2626" stroke="white" stroke-width="1"/>
  <circle cx="257.5" cy="157.8" r="3" fill="#dc2626" stroke="white" stroke-width="1"/>
  <circle cx="313.3" cy="158.5" r="3" fill="#dc2626" stroke="white" stroke-width="1"/>
  <circle cx="369.2" cy="158.0" r="3" fill="#dc2626" stroke="white" stroke-width="1"/>
  <circle cx="425.0" cy="158.1" r="3" fill="#dc2626" stroke="white" stroke-width="1"/>
  <circle cx="480.8" cy="157.5" r="3" fill="#dc2626" stroke="white" stroke-width="1"/>
  <circle cx="536.7" cy="156.4" r="3" fill="#dc2626" stroke="white" stroke-width="1"/>
  <circle cx="592.5" cy="152.5" r="3" fill="#dc2626" stroke="white" stroke-width="1"/>
  <circle cx="648.3" cy="149.1" r="3" fill="#dc2626" stroke="white" stroke-width="1"/>
  <circle cx="704.2" cy="144.6" r="3" fill="#dc2626" stroke="white" stroke-width="1"/>
  <circle cx="760.0" cy="138.3" r="3" fill="#dc2626" stroke="white" stroke-width="1"/>
  <text x="90.0" y="213.0" text-anchor="middle" fill="#374151" font-size="8.5">8 B</text>
  <text x="145.8" y="213.0" text-anchor="middle" fill="#374151" font-size="8.5">16 B</text>
  <text x="201.7" y="213.0" text-anchor="middle" fill="#374151" font-size="8.5">32 B</text>
  <text x="257.5" y="213.0" text-anchor="middle" fill="#374151" font-size="8.5">64 B</text>
  <text x="313.3" y="213.0" text-anchor="middle" fill="#374151" font-size="8.5">128 B</text>
  <text x="369.2" y="213.0" text-anchor="middle" fill="#374151" font-size="8.5">256 B</text>
  <text x="425.0" y="213.0" text-anchor="middle" fill="#374151" font-size="8.5">512 B</text>
  <text x="480.8" y="213.0" text-anchor="middle" fill="#374151" font-size="8.5">1 KiB</text>
  <text x="536.7" y="213.0" text-anchor="middle" fill="#374151" font-size="8.5">2 KiB</text>
  <text x="592.5" y="213.0" text-anchor="middle" fill="#374151" font-size="8.5">4 KiB</text>
  <text x="648.3" y="213.0" text-anchor="middle" fill="#374151" font-size="8.5">8 KiB</text>
  <text x="704.2" y="213.0" text-anchor="middle" fill="#374151" font-size="8.5">16 KiB</text>
  <text x="760.0" y="213.0" text-anchor="middle" fill="#374151" font-size="8.5">32 KiB</text>
  <line x1="112" y1="249" x2="126" y2="249" stroke="#eab308" stroke-width="2.5"/>
  <circle cx="120" cy="249" r="2.5" fill="#eab308"/>
  <text x="132" y="253" fill="#374151" font-size="11" font-weight="500">libzmq v4.3.5</text>
  <line x1="238" y1="249" x2="252" y2="249" stroke="#dc2626" stroke-width="2.5"/>
  <circle cx="244" cy="249" r="2.5" fill="#dc2626"/>
  <text x="258" y="253" fill="#374151" font-size="11" font-weight="500">omq-compio</text>
  <line x1="362" y1="249" x2="376" y2="249" stroke="#f97316" stroke-width="2.5"/>
  <circle cx="370" cy="249" r="2.5" fill="#f97316"/>
  <text x="382" y="253" fill="#374151" font-size="11" font-weight="500">omq-tokio</text>
  <line x1="488" y1="249" x2="502" y2="249" stroke="#2563eb" stroke-width="2.5"/>
  <circle cx="494" cy="249" r="2.5" fill="#2563eb"/>
  <text x="508" y="253" fill="#374151" font-size="11" font-weight="500">zmq.rs v0.6.0</text>
  <line x1="612" y1="249" x2="626" y2="249" stroke="#10b981" stroke-width="2.5"/>
  <circle cx="620" cy="249" r="2.5" fill="#10b981"/>
  <text x="632" y="253" fill="#374151" font-size="11" font-weight="500">rzmq v0.5.18</text>
</svg>
