<svg xmlns="http://www.w3.org/2000/svg" viewBox="0 0 850 294" font-family="system-ui, -apple-system, sans-serif">
  <rect width="850" height="294" fill="white"/>
  <text x="425.0" y="46" text-anchor="middle" fill="#9ca3af" font-size="10">Intel Core i7-8700B @ 3.20GHz, 6 cores, performance governor, turbo off</text>
  <text x="425.0" y="32.0" text-anchor="middle" fill="#111827" font-size="13" font-weight="700">REQ/REP latency: IPC, 2-process (p50 µs, lower is better)</text>
  <line x1="90.0" y1="179.0" x2="760.0" y2="179.0" stroke="#e5e7eb" stroke-width="1"/>
  <text x="82.0" y="179.0" text-anchor="end" dominant-baseline="middle" fill="#374151" font-size="10">20</text>
  <line x1="90.0" y1="159.0" x2="760.0" y2="159.0" stroke="#e5e7eb" stroke-width="1"/>
  <text x="82.0" y="159.0" text-anchor="end" dominant-baseline="middle" fill="#374151" font-size="10">40</text>
  <line x1="90.0" y1="139.0" x2="760.0" y2="139.0" stroke="#e5e7eb" stroke-width="1"/>
  <text x="82.0" y="139.0" text-anchor="end" dominant-baseline="middle" fill="#374151" font-size="10">60</text>
  <line x1="90.0" y1="119.0" x2="760.0" y2="119.0" stroke="#e5e7eb" stroke-width="1"/>
  <text x="82.0" y="119.0" text-anchor="end" dominant-baseline="middle" fill="#374151" font-size="10">80</text>
  <line x1="90.0" y1="99.0" x2="760.0" y2="99.0" stroke="#e5e7eb" stroke-width="1"/>
  <text x="82.0" y="99.0" text-anchor="end" dominant-baseline="middle" fill="#374151" font-size="10">100</text>
  <line x1="90.0" y1="79.0" x2="760.0" y2="79.0" stroke="#e5e7eb" stroke-width="1"/>
  <text x="82.0" y="79.0" text-anchor="end" dominant-baseline="middle" fill="#374151" font-size="10">120</text>
  <line x1="90.0" y1="59.0" x2="760.0" y2="59.0" stroke="#e5e7eb" stroke-width="1"/>
  <text x="82.0" y="59.0" text-anchor="end" dominant-baseline="middle" fill="#374151" font-size="10">140</text>
  <line x1="90.0" y1="49.0" x2="90.0" y2="199.0" stroke="#e5e7eb" stroke-width="1"/>
  <line x1="145.8" y1="49.0" x2="145.8" y2="199.0" stroke="#e5e7eb" stroke-width="1"/>
  <line x1="201.7" y1="49.0" x2="201.7" y2="199.0" stroke="#e5e7eb" stroke-width="1"/>
  <line x1="257.5" y1="49.0" x2="257.5" y2="199.0" stroke="#e5e7eb" stroke-width="1"/>
  <line x1="313.3" y1="49.0" x2="313.3" y2="199.0" stroke="#e5e7eb" stroke-width="1"/>
  <line x1="369.2" y1="49.0" x2="369.2" y2="199.0" stroke="#e5e7eb" stroke-width="1"/>
  <line x1="425.0" y1="49.0" x2="425.0" y2="199.0" stroke="#e5e7eb" stroke-width="1"/>
  <line x1="480.8" y1="49.0" x2="480.8" y2="199.0" stroke="#e5e7eb" stroke-width="1"/>
  <line x1="536.7" y1="49.0" x2="536.7" y2="199.0" stroke="#e5e7eb" stroke-width="1"/>
  <line x1="592.5" y1="49.0" x2="592.5" y2="199.0" stroke="#e5e7eb" stroke-width="1"/>
  <line x1="648.3" y1="49.0" x2="648.3" y2="199.0" stroke="#e5e7eb" stroke-width="1"/>
  <line x1="704.2" y1="49.0" x2="704.2" y2="199.0" stroke="#e5e7eb" stroke-width="1"/>
  <line x1="760.0" y1="49.0" x2="760.0" y2="199.0" stroke="#e5e7eb" stroke-width="1"/>
  <line x1="90.0" y1="49.0" x2="90.0" y2="199.0" stroke="#9ca3af" stroke-width="1.5"/>
  <line x1="90.0" y1="199.0" x2="760.0" y2="199.0" stroke="#9ca3af" stroke-width="1.5"/>
  <text x="40.0" y="124.0" text-anchor="middle" fill="#374151" font-size="10" font-weight="600" transform="rotate(-90,40.0,124.0)">p50 latency (µs)</text>
  <polyline points="90.0,114.5 145.8,108.9 201.7,110.6 257.5,113.2 313.3,112.3 369.2,115.9 425.0,108.0 480.8,112.6 536.7,110.2 592.5,103.5 648.3,97.7 704.2,88.4 760.0,89.7" fill="none" stroke="#eab308" stroke-width="2.5" stroke-linecap="round" stroke-linejoin="round"/>
  <circle cx="90.0" cy="114.5" r="3" fill="#eab308" stroke="white" stroke-width="1"/>
  <circle cx="145.8" cy="108.9" r="3" fill="#eab308" stroke="white" stroke-width="1"/>
  <circle cx="201.7" cy="110.6" r="3" fill="#eab308" stroke="white" stroke-width="1"/>
  <circle cx="257.5" cy="113.2" r="3" fill="#eab308" stroke="white" stroke-width="1"/>
  <circle cx="313.3" cy="112.3" r="3" fill="#eab308" stroke="white" stroke-width="1"/>
  <circle cx="369.2" cy="115.9" r="3" fill="#eab308" stroke="white" stroke-width="1"/>
  <circle cx="425.0" cy="108.0" r="3" fill="#eab308" stroke="white" stroke-width="1"/>
  <circle cx="480.8" cy="112.6" r="3" fill="#eab308" stroke="white" stroke-width="1"/>
  <circle cx="536.7" cy="110.2" r="3" fill="#eab308" stroke="white" stroke-width="1"/>
  <circle cx="592.5" cy="103.5" r="3" fill="#eab308" stroke="white" stroke-width="1"/>
  <circle cx="648.3" cy="97.7" r="3" fill="#eab308" stroke="white" stroke-width="1"/>
  <circle cx="704.2" cy="88.4" r="3" fill="#eab308" stroke="white" stroke-width="1"/>
  <circle cx="760.0" cy="89.7" r="3" fill="#eab308" stroke="white" stroke-width="1"/>
  <polyline points="90.0,160.1 145.8,160.2 201.7,163.6 257.5,153.9 313.3,159.2 369.2,155.4 425.0,154.6 480.8,155.3 536.7,151.1 592.5,147.5 648.3,131.4 704.2,128.4 760.0,107.4" fill="none" stroke="#06b6d4" stroke-width="2.5" stroke-linecap="round" stroke-linejoin="round"/>
  <circle cx="90.0" cy="160.1" r="3" fill="#06b6d4" stroke="white" stroke-width="1"/>
  <circle cx="145.8" cy="160.2" r="3" fill="#06b6d4" stroke="white" stroke-width="1"/>
  <circle cx="201.7" cy="163.6" r="3" fill="#06b6d4" stroke="white" stroke-width="1"/>
  <circle cx="257.5" cy="153.9" r="3" fill="#06b6d4" stroke="white" stroke-width="1"/>
  <circle cx="313.3" cy="159.2" r="3" fill="#06b6d4" stroke="white" stroke-width="1"/>
  <circle cx="369.2" cy="155.4" r="3" fill="#06b6d4" stroke="white" stroke-width="1"/>
  <circle cx="425.0" cy="154.6" r="3" fill="#06b6d4" stroke="white" stroke-width="1"/>
  <circle cx="480.8" cy="155.3" r="3" fill="#06b6d4" stroke="white" stroke-width="1"/>
  <circle cx="536.7" cy="151.1" r="3" fill="#06b6d4" stroke="white" stroke-width="1"/>
  <circle cx="592.5" cy="147.5" r="3" fill="#06b6d4" stroke="white" stroke-width="1"/>
  <circle cx="648.3" cy="131.4" r="3" fill="#06b6d4" stroke="white" stroke-width="1"/>
  <circle cx="704.2" cy="128.4" r="3" fill="#06b6d4" stroke="white" stroke-width="1"/>
  <circle cx="760.0" cy="107.4" r="3" fill="#06b6d4" stroke="white" stroke-width="1"/>
  <polyline points="90.0,114.2 145.8,114.2 201.7,112.4 257.5,113.6 313.3,108.4 369.2,114.7 425.0,114.7 480.8,101.6 536.7,113.9 592.5,110.0 648.3,103.5 704.2,105.4 760.0,96.5" fill="none" stroke="#f97316" stroke-width="2.5" stroke-linecap="round" stroke-linejoin="round"/>
  <circle cx="90.0" cy="114.2" r="3" fill="#f97316" stroke="white" stroke-width="1"/>
  <circle cx="145.8" cy="114.2" r="3" fill="#f97316" stroke="white" stroke-width="1"/>
  <circle cx="201.7" cy="112.4" r="3" fill="#f97316" stroke="white" stroke-width="1"/>
  <circle cx="257.5" cy="113.6" r="3" fill="#f97316" stroke="white" stroke-width="1"/>
  <circle cx="313.3" cy="108.4" r="3" fill="#f97316" stroke="white" stroke-width="1"/>
  <circle cx="369.2" cy="114.7" r="3" fill="#f97316" stroke="white" stroke-width="1"/>
  <circle cx="425.0" cy="114.7" r="3" fill="#f97316" stroke="white" stroke-width="1"/>
  <circle cx="480.8" cy="101.6" r="3" fill="#f97316" stroke="white" stroke-width="1"/>
  <circle cx="536.7" cy="113.9" r="3" fill="#f97316" stroke="white" stroke-width="1"/>
  <circle cx="592.5" cy="110.0" r="3" fill="#f97316" stroke="white" stroke-width="1"/>
  <circle cx="648.3" cy="103.5" r="3" fill="#f97316" stroke="white" stroke-width="1"/>
  <circle cx="704.2" cy="105.4" r="3" fill="#f97316" stroke="white" stroke-width="1"/>
  <circle cx="760.0" cy="96.5" r="3" fill="#f97316" stroke="white" stroke-width="1"/>
  <polyline points="90.0,116.3 145.8,110.8 201.7,115.9 257.5,97.7 313.3,105.1 369.2,111.7 425.0,114.9 480.8,109.9 536.7,110.4 592.5,98.7 648.3,95.5 704.2,99.1 760.0,87.1" fill="none" stroke="#10b981" stroke-width="2.5" stroke-linecap="round" stroke-linejoin="round"/>
  <circle cx="90.0" cy="116.3" r="3" fill="#10b981" stroke="white" stroke-width="1"/>
  <circle cx="145.8" cy="110.8" r="3" fill="#10b981" stroke="white" stroke-width="1"/>
  <circle cx="201.7" cy="115.9" r="3" fill="#10b981" stroke="white" stroke-width="1"/>
  <circle cx="257.5" cy="97.7" r="3" fill="#10b981" stroke="white" stroke-width="1"/>
  <circle cx="313.3" cy="105.1" r="3" fill="#10b981" stroke="white" stroke-width="1"/>
  <circle cx="369.2" cy="111.7" r="3" fill="#10b981" stroke="white" stroke-width="1"/>
  <circle cx="425.0" cy="114.9" r="3" fill="#10b981" stroke="white" stroke-width="1"/>
  <circle cx="480.8" cy="109.9" r="3" fill="#10b981" stroke="white" stroke-width="1"/>
  <circle cx="536.7" cy="110.4" r="3" fill="#10b981" stroke="white" stroke-width="1"/>
  <circle cx="592.5" cy="98.7" r="3" fill="#10b981" stroke="white" stroke-width="1"/>
  <circle cx="648.3" cy="95.5" r="3" fill="#10b981" stroke="white" stroke-width="1"/>
  <circle cx="704.2" cy="99.1" r="3" fill="#10b981" stroke="white" stroke-width="1"/>
  <circle cx="760.0" cy="87.1" r="3" fill="#10b981" stroke="white" stroke-width="1"/>
  <polyline points="90.0,156.4 145.8,157.7 201.7,160.1 257.5,157.7 313.3,147.7 369.2,160.8 425.0,162.4 480.8,157.6 536.7,155.8 592.5,155.5 648.3,147.6 704.2,142.0 760.0,130.4" fill="none" stroke="#2563eb" stroke-width="2.5" stroke-linecap="round" stroke-linejoin="round"/>
  <circle cx="90.0" cy="156.4" r="3" fill="#2563eb" stroke="white" stroke-width="1"/>
  <circle cx="145.8" cy="157.7" r="3" fill="#2563eb" stroke="white" stroke-width="1"/>
  <circle cx="201.7" cy="160.1" r="3" fill="#2563eb" stroke="white" stroke-width="1"/>
  <circle cx="257.5" cy="157.7" r="3" fill="#2563eb" stroke="white" stroke-width="1"/>
  <circle cx="313.3" cy="147.7" r="3" fill="#2563eb" stroke="white" stroke-width="1"/>
  <circle cx="369.2" cy="160.8" r="3" fill="#2563eb" stroke="white" stroke-width="1"/>
  <circle cx="425.0" cy="162.4" r="3" fill="#2563eb" stroke="white" stroke-width="1"/>
  <circle cx="480.8" cy="157.6" r="3" fill="#2563eb" stroke="white" stroke-width="1"/>
  <circle cx="536.7" cy="155.8" r="3" fill="#2563eb" stroke="white" stroke-width="1"/>
  <circle cx="592.5" cy="155.5" r="3" fill="#2563eb" stroke="white" stroke-width="1"/>
  <circle cx="648.3" cy="147.6" r="3" fill="#2563eb" stroke="white" stroke-width="1"/>
  <circle cx="704.2" cy="142.0" r="3" fill="#2563eb" stroke="white" stroke-width="1"/>
  <circle cx="760.0" cy="130.4" r="3" fill="#2563eb" stroke="white" stroke-width="1"/>
  <polyline points="90.0,158.6 145.8,157.8 201.7,159.0 257.5,157.8 313.3,158.5 369.2,158.0 425.0,158.1 480.8,157.5 536.7,156.4 592.5,152.5 648.3,149.1 704.2,144.6 760.0,138.3" fill="none" stroke="#dc2626" stroke-width="2.5" stroke-linecap="round" stroke-linejoin="round"/>
  <circle cx="90.0" cy="158.6" r="3" fill="#dc2626" stroke="white" stroke-width="1"/>
  <circle cx="145.8" cy="157.8" r="3" fill="#dc2626" stroke="white" stroke-width="1"/>
  <circle cx="201.7" cy="159.0" r="3" fill="#dc2626" stroke="white" stroke-width="1"/>
  <circle cx="257.5" cy="157.8" r="3" fill="#dc2626" stroke="white" stroke-width="1"/>
  <circle cx="313.3" cy="158.5" r="3" fill="#dc2626" stroke="white" stroke-width="1"/>
  <circle cx="369.2" cy="158.0" r="3" fill="#dc2626" stroke="white" stroke-width="1"/>
  <circle cx="425.0" cy="158.1" r="3" fill="#dc2626" stroke="white" stroke-width="1"/>
  <circle cx="480.8" cy="157.5" r="3" fill="#dc2626" stroke="white" stroke-width="1"/>
  <circle cx="536.7" cy="156.4" r="3" fill="#dc2626" stroke="white" stroke-width="1"/>
  <circle cx="592.5" cy="152.5" r="3" fill="#dc2626" stroke="white" stroke-width="1"/>
  <circle cx="648.3" cy="149.1" r="3" fill="#dc2626" stroke="white" stroke-width="1"/>
  <circle cx="704.2" cy="144.6" r="3" fill="#dc2626" stroke="white" stroke-width="1"/>
  <circle cx="760.0" cy="138.3" r="3" fill="#dc2626" stroke="white" stroke-width="1"/>
  <text x="90.0" y="213.0" text-anchor="middle" fill="#374151" font-size="8.5">8 B</text>
  <text x="145.8" y="213.0" text-anchor="middle" fill="#374151" font-size="8.5">16 B</text>
  <text x="201.7" y="213.0" text-anchor="middle" fill="#374151" font-size="8.5">32 B</text>
  <text x="257.5" y="213.0" text-anchor="middle" fill="#374151" font-size="8.5">64 B</text>
  <text x="313.3" y="213.0" text-anchor="middle" fill="#374151" font-size="8.5">128 B</text>
  <text x="369.2" y="213.0" text-anchor="middle" fill="#374151" font-size="8.5">256 B</text>
  <text x="425.0" y="213.0" text-anchor="middle" fill="#374151" font-size="8.5">512 B</text>
  <text x="480.8" y="213.0" text-anchor="middle" fill="#374151" font-size="8.5">1 KiB</text>
  <text x="536.7" y="213.0" text-anchor="middle" fill="#374151" font-size="8.5">2 KiB</text>
  <text x="592.5" y="213.0" text-anchor="middle" fill="#374151" font-size="8.5">4 KiB</text>
  <text x="648.3" y="213.0" text-anchor="middle" fill="#374151" font-size="8.5">8 KiB</text>
  <text x="704.2" y="213.0" text-anchor="middle" fill="#374151" font-size="8.5">16 KiB</text>
  <text x="760.0" y="213.0" text-anchor="middle" fill="#374151" font-size="8.5">32 KiB</text>
  <line x1="50" y1="249" x2="64" y2="249" stroke="#eab308" stroke-width="2.5"/>
  <circle cx="57" cy="249" r="2.5" fill="#eab308"/>
  <text x="70" y="253" fill="#374151" font-size="11" font-weight="500">libzmq v4.3.5</text>
  <line x1="175" y1="249" x2="189" y2="249" stroke="#dc2626" stroke-width="2.5"/>
  <circle cx="182" cy="249" r="2.5" fill="#dc2626"/>
  <text x="195" y="253" fill="#374151" font-size="11" font-weight="500">omq-compio (MT)</text>
  <line x1="300" y1="249" x2="314" y2="249" stroke="#f97316" stroke-width="2.5"/>
  <circle cx="307" cy="249" r="2.5" fill="#f97316"/>
  <text x="320" y="253" fill="#374151" font-size="11" font-weight="500">omq-tokio</text>
  <line x1="425" y1="249" x2="439" y2="249" stroke="#2563eb" stroke-width="2.5"/>
  <circle cx="432" cy="249" r="2.5" fill="#2563eb"/>
  <text x="445" y="253" fill="#374151" font-size="11" font-weight="500">zmq.rs v0.6.0</text>
  <line x1="550" y1="249" x2="564" y2="249" stroke="#10b981" stroke-width="2.5"/>
  <circle cx="557" cy="249" r="2.5" fill="#10b981"/>
  <text x="570" y="253" fill="#374151" font-size="11" font-weight="500">rzmq v0.5.15</text>
  <line x1="675" y1="249" x2="689" y2="249" stroke="#06b6d4" stroke-width="2.5"/>
  <circle cx="682" cy="249" r="2.5" fill="#06b6d4"/>
  <text x="695" y="253" fill="#374151" font-size="11" font-weight="500">omq-libzmq</text>
</svg>
