<svg xmlns="http://www.w3.org/2000/svg" viewBox="0 0 850 294" font-family="system-ui, -apple-system, sans-serif">
  <rect width="850" height="294" fill="white"/>
  <text x="425.0" y="46" text-anchor="middle" fill="#9ca3af" font-size="10">Linux VM on a 2018 Mac Mini, Intel Core i7-8700B @ 3.20GHz, 6 cores, performance governor, turbo off</text>
  <text x="425.0" y="32.0" text-anchor="middle" fill="#111827" font-size="13" font-weight="700">REQ/REP latency: TCP loopback, 2-process (p50 µs, lower is better)</text>
  <line x1="90.0" y1="179.0" x2="760.0" y2="179.0" stroke="#e5e7eb" stroke-width="1"/>
  <text x="82.0" y="179.0" text-anchor="end" dominant-baseline="middle" fill="#374151" font-size="10">20</text>
  <line x1="90.0" y1="159.0" x2="760.0" y2="159.0" stroke="#e5e7eb" stroke-width="1"/>
  <text x="82.0" y="159.0" text-anchor="end" dominant-baseline="middle" fill="#374151" font-size="10">40</text>
  <line x1="90.0" y1="139.0" x2="760.0" y2="139.0" stroke="#e5e7eb" stroke-width="1"/>
  <text x="82.0" y="139.0" text-anchor="end" dominant-baseline="middle" fill="#374151" font-size="10">60</text>
  <line x1="90.0" y1="119.0" x2="760.0" y2="119.0" stroke="#e5e7eb" stroke-width="1"/>
  <text x="82.0" y="119.0" text-anchor="end" dominant-baseline="middle" fill="#374151" font-size="10">80</text>
  <line x1="90.0" y1="99.0" x2="760.0" y2="99.0" stroke="#e5e7eb" stroke-width="1"/>
  <text x="82.0" y="99.0" text-anchor="end" dominant-baseline="middle" fill="#374151" font-size="10">100</text>
  <line x1="90.0" y1="79.0" x2="760.0" y2="79.0" stroke="#e5e7eb" stroke-width="1"/>
  <text x="82.0" y="79.0" text-anchor="end" dominant-baseline="middle" fill="#374151" font-size="10">120</text>
  <line x1="90.0" y1="59.0" x2="760.0" y2="59.0" stroke="#e5e7eb" stroke-width="1"/>
  <text x="82.0" y="59.0" text-anchor="end" dominant-baseline="middle" fill="#374151" font-size="10">140</text>
  <line x1="90.0" y1="49.0" x2="90.0" y2="199.0" stroke="#e5e7eb" stroke-width="1"/>
  <line x1="145.8" y1="49.0" x2="145.8" y2="199.0" stroke="#e5e7eb" stroke-width="1"/>
  <line x1="201.7" y1="49.0" x2="201.7" y2="199.0" stroke="#e5e7eb" stroke-width="1"/>
  <line x1="257.5" y1="49.0" x2="257.5" y2="199.0" stroke="#e5e7eb" stroke-width="1"/>
  <line x1="313.3" y1="49.0" x2="313.3" y2="199.0" stroke="#e5e7eb" stroke-width="1"/>
  <line x1="369.2" y1="49.0" x2="369.2" y2="199.0" stroke="#e5e7eb" stroke-width="1"/>
  <line x1="425.0" y1="49.0" x2="425.0" y2="199.0" stroke="#e5e7eb" stroke-width="1"/>
  <line x1="480.8" y1="49.0" x2="480.8" y2="199.0" stroke="#e5e7eb" stroke-width="1"/>
  <line x1="536.7" y1="49.0" x2="536.7" y2="199.0" stroke="#e5e7eb" stroke-width="1"/>
  <line x1="592.5" y1="49.0" x2="592.5" y2="199.0" stroke="#e5e7eb" stroke-width="1"/>
  <line x1="648.3" y1="49.0" x2="648.3" y2="199.0" stroke="#e5e7eb" stroke-width="1"/>
  <line x1="704.2" y1="49.0" x2="704.2" y2="199.0" stroke="#e5e7eb" stroke-width="1"/>
  <line x1="760.0" y1="49.0" x2="760.0" y2="199.0" stroke="#e5e7eb" stroke-width="1"/>
  <line x1="90.0" y1="49.0" x2="90.0" y2="199.0" stroke="#9ca3af" stroke-width="1.5"/>
  <line x1="90.0" y1="199.0" x2="760.0" y2="199.0" stroke="#9ca3af" stroke-width="1.5"/>
  <text x="40.0" y="124.0" text-anchor="middle" fill="#374151" font-size="10" font-weight="600" transform="rotate(-90,40.0,124.0)">p50 latency (µs)</text>
  <polyline points="90.0,108.1 145.8,107.3 201.7,109.6 257.5,105.8 313.3,104.3 369.2,101.9 425.0,101.1 480.8,107.0 536.7,97.4 592.5,98.6 648.3,85.6 704.2,85.6 760.0,70.8" fill="none" stroke="#eab308" stroke-width="2.5" stroke-linecap="round" stroke-linejoin="round"/>
  <circle cx="90.0" cy="108.1" r="3" fill="#eab308" stroke="white" stroke-width="1"/>
  <circle cx="145.8" cy="107.3" r="3" fill="#eab308" stroke="white" stroke-width="1"/>
  <circle cx="201.7" cy="109.6" r="3" fill="#eab308" stroke="white" stroke-width="1"/>
  <circle cx="257.5" cy="105.8" r="3" fill="#eab308" stroke="white" stroke-width="1"/>
  <circle cx="313.3" cy="104.3" r="3" fill="#eab308" stroke="white" stroke-width="1"/>
  <circle cx="369.2" cy="101.9" r="3" fill="#eab308" stroke="white" stroke-width="1"/>
  <circle cx="425.0" cy="101.1" r="3" fill="#eab308" stroke="white" stroke-width="1"/>
  <circle cx="480.8" cy="107.0" r="3" fill="#eab308" stroke="white" stroke-width="1"/>
  <circle cx="536.7" cy="97.4" r="3" fill="#eab308" stroke="white" stroke-width="1"/>
  <circle cx="592.5" cy="98.6" r="3" fill="#eab308" stroke="white" stroke-width="1"/>
  <circle cx="648.3" cy="85.6" r="3" fill="#eab308" stroke="white" stroke-width="1"/>
  <circle cx="704.2" cy="85.6" r="3" fill="#eab308" stroke="white" stroke-width="1"/>
  <circle cx="760.0" cy="70.8" r="3" fill="#eab308" stroke="white" stroke-width="1"/>
  <polyline points="90.0,100.3 145.8,103.8 201.7,105.7 257.5,101.3 313.3,102.8 369.2,105.1 425.0,106.4 480.8,109.9 536.7,108.4 592.5,99.4 648.3,103.2 704.2,96.2 760.0,83.6" fill="none" stroke="#f97316" stroke-width="2.5" stroke-linecap="round" stroke-linejoin="round"/>
  <circle cx="90.0" cy="100.3" r="3" fill="#f97316" stroke="white" stroke-width="1"/>
  <circle cx="145.8" cy="103.8" r="3" fill="#f97316" stroke="white" stroke-width="1"/>
  <circle cx="201.7" cy="105.7" r="3" fill="#f97316" stroke="white" stroke-width="1"/>
  <circle cx="257.5" cy="101.3" r="3" fill="#f97316" stroke="white" stroke-width="1"/>
  <circle cx="313.3" cy="102.8" r="3" fill="#f97316" stroke="white" stroke-width="1"/>
  <circle cx="369.2" cy="105.1" r="3" fill="#f97316" stroke="white" stroke-width="1"/>
  <circle cx="425.0" cy="106.4" r="3" fill="#f97316" stroke="white" stroke-width="1"/>
  <circle cx="480.8" cy="109.9" r="3" fill="#f97316" stroke="white" stroke-width="1"/>
  <circle cx="536.7" cy="108.4" r="3" fill="#f97316" stroke="white" stroke-width="1"/>
  <circle cx="592.5" cy="99.4" r="3" fill="#f97316" stroke="white" stroke-width="1"/>
  <circle cx="648.3" cy="103.2" r="3" fill="#f97316" stroke="white" stroke-width="1"/>
  <circle cx="704.2" cy="96.2" r="3" fill="#f97316" stroke="white" stroke-width="1"/>
  <circle cx="760.0" cy="83.6" r="3" fill="#f97316" stroke="white" stroke-width="1"/>
  <polyline points="90.0,95.7 145.8,88.9 201.7,98.8 257.5,89.0 313.3,88.3 369.2,101.9 425.0,95.3 480.8,98.5 536.7,91.0 592.5,99.8 648.3,85.5 704.2,81.1 760.0,84.1" fill="none" stroke="#10b981" stroke-width="2.5" stroke-linecap="round" stroke-linejoin="round"/>
  <circle cx="90.0" cy="95.7" r="3" fill="#10b981" stroke="white" stroke-width="1"/>
  <circle cx="145.8" cy="88.9" r="3" fill="#10b981" stroke="white" stroke-width="1"/>
  <circle cx="201.7" cy="98.8" r="3" fill="#10b981" stroke="white" stroke-width="1"/>
  <circle cx="257.5" cy="89.0" r="3" fill="#10b981" stroke="white" stroke-width="1"/>
  <circle cx="313.3" cy="88.3" r="3" fill="#10b981" stroke="white" stroke-width="1"/>
  <circle cx="369.2" cy="101.9" r="3" fill="#10b981" stroke="white" stroke-width="1"/>
  <circle cx="425.0" cy="95.3" r="3" fill="#10b981" stroke="white" stroke-width="1"/>
  <circle cx="480.8" cy="98.5" r="3" fill="#10b981" stroke="white" stroke-width="1"/>
  <circle cx="536.7" cy="91.0" r="3" fill="#10b981" stroke="white" stroke-width="1"/>
  <circle cx="592.5" cy="99.8" r="3" fill="#10b981" stroke="white" stroke-width="1"/>
  <circle cx="648.3" cy="85.5" r="3" fill="#10b981" stroke="white" stroke-width="1"/>
  <circle cx="704.2" cy="81.1" r="3" fill="#10b981" stroke="white" stroke-width="1"/>
  <circle cx="760.0" cy="84.1" r="3" fill="#10b981" stroke="white" stroke-width="1"/>
  <polyline points="90.0,139.5 145.8,145.7 201.7,141.8 257.5,140.8 313.3,141.3 369.2,144.5 425.0,145.5 480.8,141.2 536.7,139.2 592.5,141.6 648.3,132.6 704.2,128.4 760.0,114.2" fill="none" stroke="#2563eb" stroke-width="2.5" stroke-linecap="round" stroke-linejoin="round"/>
  <circle cx="90.0" cy="139.5" r="3" fill="#2563eb" stroke="white" stroke-width="1"/>
  <circle cx="145.8" cy="145.7" r="3" fill="#2563eb" stroke="white" stroke-width="1"/>
  <circle cx="201.7" cy="141.8" r="3" fill="#2563eb" stroke="white" stroke-width="1"/>
  <circle cx="257.5" cy="140.8" r="3" fill="#2563eb" stroke="white" stroke-width="1"/>
  <circle cx="313.3" cy="141.3" r="3" fill="#2563eb" stroke="white" stroke-width="1"/>
  <circle cx="369.2" cy="144.5" r="3" fill="#2563eb" stroke="white" stroke-width="1"/>
  <circle cx="425.0" cy="145.5" r="3" fill="#2563eb" stroke="white" stroke-width="1"/>
  <circle cx="480.8" cy="141.2" r="3" fill="#2563eb" stroke="white" stroke-width="1"/>
  <circle cx="536.7" cy="139.2" r="3" fill="#2563eb" stroke="white" stroke-width="1"/>
  <circle cx="592.5" cy="141.6" r="3" fill="#2563eb" stroke="white" stroke-width="1"/>
  <circle cx="648.3" cy="132.6" r="3" fill="#2563eb" stroke="white" stroke-width="1"/>
  <circle cx="704.2" cy="128.4" r="3" fill="#2563eb" stroke="white" stroke-width="1"/>
  <circle cx="760.0" cy="114.2" r="3" fill="#2563eb" stroke="white" stroke-width="1"/>
  <polyline points="90.0,148.5 145.8,148.9 201.7,149.0 257.5,149.1 313.3,148.2 369.2,148.7 425.0,147.3 480.8,147.5 536.7,146.4 592.5,146.1 648.3,143.1 704.2,137.3 760.0,126.4" fill="none" stroke="#dc2626" stroke-width="2.5" stroke-linecap="round" stroke-linejoin="round"/>
  <circle cx="90.0" cy="148.5" r="3" fill="#dc2626" stroke="white" stroke-width="1"/>
  <circle cx="145.8" cy="148.9" r="3" fill="#dc2626" stroke="white" stroke-width="1"/>
  <circle cx="201.7" cy="149.0" r="3" fill="#dc2626" stroke="white" stroke-width="1"/>
  <circle cx="257.5" cy="149.1" r="3" fill="#dc2626" stroke="white" stroke-width="1"/>
  <circle cx="313.3" cy="148.2" r="3" fill="#dc2626" stroke="white" stroke-width="1"/>
  <circle cx="369.2" cy="148.7" r="3" fill="#dc2626" stroke="white" stroke-width="1"/>
  <circle cx="425.0" cy="147.3" r="3" fill="#dc2626" stroke="white" stroke-width="1"/>
  <circle cx="480.8" cy="147.5" r="3" fill="#dc2626" stroke="white" stroke-width="1"/>
  <circle cx="536.7" cy="146.4" r="3" fill="#dc2626" stroke="white" stroke-width="1"/>
  <circle cx="592.5" cy="146.1" r="3" fill="#dc2626" stroke="white" stroke-width="1"/>
  <circle cx="648.3" cy="143.1" r="3" fill="#dc2626" stroke="white" stroke-width="1"/>
  <circle cx="704.2" cy="137.3" r="3" fill="#dc2626" stroke="white" stroke-width="1"/>
  <circle cx="760.0" cy="126.4" r="3" fill="#dc2626" stroke="white" stroke-width="1"/>
  <text x="90.0" y="213.0" text-anchor="middle" fill="#374151" font-size="8.5">8 B</text>
  <text x="145.8" y="213.0" text-anchor="middle" fill="#374151" font-size="8.5">16 B</text>
  <text x="201.7" y="213.0" text-anchor="middle" fill="#374151" font-size="8.5">32 B</text>
  <text x="257.5" y="213.0" text-anchor="middle" fill="#374151" font-size="8.5">64 B</text>
  <text x="313.3" y="213.0" text-anchor="middle" fill="#374151" font-size="8.5">128 B</text>
  <text x="369.2" y="213.0" text-anchor="middle" fill="#374151" font-size="8.5">256 B</text>
  <text x="425.0" y="213.0" text-anchor="middle" fill="#374151" font-size="8.5">512 B</text>
  <text x="480.8" y="213.0" text-anchor="middle" fill="#374151" font-size="8.5">1 KiB</text>
  <text x="536.7" y="213.0" text-anchor="middle" fill="#374151" font-size="8.5">2 KiB</text>
  <text x="592.5" y="213.0" text-anchor="middle" fill="#374151" font-size="8.5">4 KiB</text>
  <text x="648.3" y="213.0" text-anchor="middle" fill="#374151" font-size="8.5">8 KiB</text>
  <text x="704.2" y="213.0" text-anchor="middle" fill="#374151" font-size="8.5">16 KiB</text>
  <text x="760.0" y="213.0" text-anchor="middle" fill="#374151" font-size="8.5">32 KiB</text>
  <line x1="112" y1="249" x2="126" y2="249" stroke="#eab308" stroke-width="2.5"/>
  <circle cx="120" cy="249" r="2.5" fill="#eab308"/>
  <text x="132" y="253" fill="#374151" font-size="11" font-weight="500">libzmq v4.3.5</text>
  <line x1="238" y1="249" x2="252" y2="249" stroke="#dc2626" stroke-width="2.5"/>
  <circle cx="244" cy="249" r="2.5" fill="#dc2626"/>
  <text x="258" y="253" fill="#374151" font-size="11" font-weight="500">omq-compio</text>
  <line x1="362" y1="249" x2="376" y2="249" stroke="#f97316" stroke-width="2.5"/>
  <circle cx="370" cy="249" r="2.5" fill="#f97316"/>
  <text x="382" y="253" fill="#374151" font-size="11" font-weight="500">omq-tokio</text>
  <line x1="488" y1="249" x2="502" y2="249" stroke="#2563eb" stroke-width="2.5"/>
  <circle cx="494" cy="249" r="2.5" fill="#2563eb"/>
  <text x="508" y="253" fill="#374151" font-size="11" font-weight="500">zmq.rs v0.6.0</text>
  <line x1="612" y1="249" x2="626" y2="249" stroke="#10b981" stroke-width="2.5"/>
  <circle cx="620" cy="249" r="2.5" fill="#10b981"/>
  <text x="632" y="253" fill="#374151" font-size="11" font-weight="500">rzmq v0.5.18</text>
</svg>
