<svg xmlns="http://www.w3.org/2000/svg" viewBox="0 0 850 294" font-family="system-ui, -apple-system, sans-serif">
  <rect width="850" height="294" fill="white"/>
  <text x="425.0" y="46" text-anchor="middle" fill="#9ca3af" font-size="10">Intel Core i7-8700B @ 3.20GHz, 6 cores, performance governor, turbo off</text>
  <text x="425.0" y="32.0" text-anchor="middle" fill="#111827" font-size="13" font-weight="700">REQ/REP latency: inproc (p50 µs, lower is better)</text>
  <line x1="90.0" y1="180.2" x2="760.0" y2="180.2" stroke="#e5e7eb" stroke-width="1"/>
  <text x="82.0" y="180.2" text-anchor="end" dominant-baseline="middle" fill="#374151" font-size="10">5</text>
  <line x1="90.0" y1="161.5" x2="760.0" y2="161.5" stroke="#e5e7eb" stroke-width="1"/>
  <text x="82.0" y="161.5" text-anchor="end" dominant-baseline="middle" fill="#374151" font-size="10">10</text>
  <line x1="90.0" y1="142.8" x2="760.0" y2="142.8" stroke="#e5e7eb" stroke-width="1"/>
  <text x="82.0" y="142.8" text-anchor="end" dominant-baseline="middle" fill="#374151" font-size="10">15</text>
  <line x1="90.0" y1="124.0" x2="760.0" y2="124.0" stroke="#e5e7eb" stroke-width="1"/>
  <text x="82.0" y="124.0" text-anchor="end" dominant-baseline="middle" fill="#374151" font-size="10">20</text>
  <line x1="90.0" y1="105.2" x2="760.0" y2="105.2" stroke="#e5e7eb" stroke-width="1"/>
  <text x="82.0" y="105.2" text-anchor="end" dominant-baseline="middle" fill="#374151" font-size="10">25</text>
  <line x1="90.0" y1="86.5" x2="760.0" y2="86.5" stroke="#e5e7eb" stroke-width="1"/>
  <text x="82.0" y="86.5" text-anchor="end" dominant-baseline="middle" fill="#374151" font-size="10">30</text>
  <line x1="90.0" y1="67.8" x2="760.0" y2="67.8" stroke="#e5e7eb" stroke-width="1"/>
  <text x="82.0" y="67.8" text-anchor="end" dominant-baseline="middle" fill="#374151" font-size="10">35</text>
  <line x1="90.0" y1="49.0" x2="760.0" y2="49.0" stroke="#e5e7eb" stroke-width="1"/>
  <text x="82.0" y="49.0" text-anchor="end" dominant-baseline="middle" fill="#374151" font-size="10">40</text>
  <line x1="90.0" y1="49.0" x2="90.0" y2="199.0" stroke="#e5e7eb" stroke-width="1"/>
  <line x1="145.8" y1="49.0" x2="145.8" y2="199.0" stroke="#e5e7eb" stroke-width="1"/>
  <line x1="201.7" y1="49.0" x2="201.7" y2="199.0" stroke="#e5e7eb" stroke-width="1"/>
  <line x1="257.5" y1="49.0" x2="257.5" y2="199.0" stroke="#e5e7eb" stroke-width="1"/>
  <line x1="313.3" y1="49.0" x2="313.3" y2="199.0" stroke="#e5e7eb" stroke-width="1"/>
  <line x1="369.2" y1="49.0" x2="369.2" y2="199.0" stroke="#e5e7eb" stroke-width="1"/>
  <line x1="425.0" y1="49.0" x2="425.0" y2="199.0" stroke="#e5e7eb" stroke-width="1"/>
  <line x1="480.8" y1="49.0" x2="480.8" y2="199.0" stroke="#e5e7eb" stroke-width="1"/>
  <line x1="536.7" y1="49.0" x2="536.7" y2="199.0" stroke="#e5e7eb" stroke-width="1"/>
  <line x1="592.5" y1="49.0" x2="592.5" y2="199.0" stroke="#e5e7eb" stroke-width="1"/>
  <line x1="648.3" y1="49.0" x2="648.3" y2="199.0" stroke="#e5e7eb" stroke-width="1"/>
  <line x1="704.2" y1="49.0" x2="704.2" y2="199.0" stroke="#e5e7eb" stroke-width="1"/>
  <line x1="760.0" y1="49.0" x2="760.0" y2="199.0" stroke="#e5e7eb" stroke-width="1"/>
  <line x1="90.0" y1="49.0" x2="90.0" y2="199.0" stroke="#9ca3af" stroke-width="1.5"/>
  <line x1="90.0" y1="199.0" x2="760.0" y2="199.0" stroke="#9ca3af" stroke-width="1.5"/>
  <text x="40.0" y="124.0" text-anchor="middle" fill="#374151" font-size="10" font-weight="600" transform="rotate(-90,40.0,124.0)">p50 latency (µs)</text>
  <polyline points="90.0,90.2 145.8,97.6 201.7,99.1 257.5,101.4 313.3,98.9 369.2,97.9 425.0,101.3 480.8,101.4 536.7,98.3 592.5,85.9 648.3,92.2 704.2,81.0 760.0,78.6" fill="none" stroke="#eab308" stroke-width="2.5" stroke-linecap="round" stroke-linejoin="round"/>
  <circle cx="90.0" cy="90.2" r="3" fill="#eab308" stroke="white" stroke-width="1"/>
  <circle cx="145.8" cy="97.6" r="3" fill="#eab308" stroke="white" stroke-width="1"/>
  <circle cx="201.7" cy="99.1" r="3" fill="#eab308" stroke="white" stroke-width="1"/>
  <circle cx="257.5" cy="101.4" r="3" fill="#eab308" stroke="white" stroke-width="1"/>
  <circle cx="313.3" cy="98.9" r="3" fill="#eab308" stroke="white" stroke-width="1"/>
  <circle cx="369.2" cy="97.9" r="3" fill="#eab308" stroke="white" stroke-width="1"/>
  <circle cx="425.0" cy="101.3" r="3" fill="#eab308" stroke="white" stroke-width="1"/>
  <circle cx="480.8" cy="101.4" r="3" fill="#eab308" stroke="white" stroke-width="1"/>
  <circle cx="536.7" cy="98.3" r="3" fill="#eab308" stroke="white" stroke-width="1"/>
  <circle cx="592.5" cy="85.9" r="3" fill="#eab308" stroke="white" stroke-width="1"/>
  <circle cx="648.3" cy="92.2" r="3" fill="#eab308" stroke="white" stroke-width="1"/>
  <circle cx="704.2" cy="81.0" r="3" fill="#eab308" stroke="white" stroke-width="1"/>
  <circle cx="760.0" cy="78.6" r="3" fill="#eab308" stroke="white" stroke-width="1"/>
  <polyline points="90.0,166.9 145.8,166.7 201.7,166.8 257.5,166.6 313.3,166.4 369.2,165.7 425.0,165.9 480.8,165.6 536.7,161.0 592.5,161.0 648.3,160.2 704.2,126.2 760.0,82.3" fill="none" stroke="#06b6d4" stroke-width="2.5" stroke-linecap="round" stroke-linejoin="round"/>
  <circle cx="90.0" cy="166.9" r="3" fill="#06b6d4" stroke="white" stroke-width="1"/>
  <circle cx="145.8" cy="166.7" r="3" fill="#06b6d4" stroke="white" stroke-width="1"/>
  <circle cx="201.7" cy="166.8" r="3" fill="#06b6d4" stroke="white" stroke-width="1"/>
  <circle cx="257.5" cy="166.6" r="3" fill="#06b6d4" stroke="white" stroke-width="1"/>
  <circle cx="313.3" cy="166.4" r="3" fill="#06b6d4" stroke="white" stroke-width="1"/>
  <circle cx="369.2" cy="165.7" r="3" fill="#06b6d4" stroke="white" stroke-width="1"/>
  <circle cx="425.0" cy="165.9" r="3" fill="#06b6d4" stroke="white" stroke-width="1"/>
  <circle cx="480.8" cy="165.6" r="3" fill="#06b6d4" stroke="white" stroke-width="1"/>
  <circle cx="536.7" cy="161.0" r="3" fill="#06b6d4" stroke="white" stroke-width="1"/>
  <circle cx="592.5" cy="161.0" r="3" fill="#06b6d4" stroke="white" stroke-width="1"/>
  <circle cx="648.3" cy="160.2" r="3" fill="#06b6d4" stroke="white" stroke-width="1"/>
  <circle cx="704.2" cy="126.2" r="3" fill="#06b6d4" stroke="white" stroke-width="1"/>
  <circle cx="760.0" cy="82.3" r="3" fill="#06b6d4" stroke="white" stroke-width="1"/>
  <polyline points="90.0,119.1 145.8,114.2 201.7,116.9 257.5,116.8 313.3,119.2 369.2,113.0 425.0,115.9 480.8,119.5 536.7,118.7 592.5,119.3 648.3,120.4 704.2,119.0 760.0,95.4" fill="none" stroke="#f97316" stroke-width="2.5" stroke-linecap="round" stroke-linejoin="round"/>
  <circle cx="90.0" cy="119.1" r="3" fill="#f97316" stroke="white" stroke-width="1"/>
  <circle cx="145.8" cy="114.2" r="3" fill="#f97316" stroke="white" stroke-width="1"/>
  <circle cx="201.7" cy="116.9" r="3" fill="#f97316" stroke="white" stroke-width="1"/>
  <circle cx="257.5" cy="116.8" r="3" fill="#f97316" stroke="white" stroke-width="1"/>
  <circle cx="313.3" cy="119.2" r="3" fill="#f97316" stroke="white" stroke-width="1"/>
  <circle cx="369.2" cy="113.0" r="3" fill="#f97316" stroke="white" stroke-width="1"/>
  <circle cx="425.0" cy="115.9" r="3" fill="#f97316" stroke="white" stroke-width="1"/>
  <circle cx="480.8" cy="119.5" r="3" fill="#f97316" stroke="white" stroke-width="1"/>
  <circle cx="536.7" cy="118.7" r="3" fill="#f97316" stroke="white" stroke-width="1"/>
  <circle cx="592.5" cy="119.3" r="3" fill="#f97316" stroke="white" stroke-width="1"/>
  <circle cx="648.3" cy="120.4" r="3" fill="#f97316" stroke="white" stroke-width="1"/>
  <circle cx="704.2" cy="119.0" r="3" fill="#f97316" stroke="white" stroke-width="1"/>
  <circle cx="760.0" cy="95.4" r="3" fill="#f97316" stroke="white" stroke-width="1"/>
  <polyline points="90.0,104.0 145.8,104.9 201.7,98.0 257.5,108.4 313.3,106.9 369.2,106.8 425.0,98.0 480.8,93.4 536.7,94.6 592.5,97.1 648.3,95.9 704.2,93.6 760.0,103.9" fill="none" stroke="#10b981" stroke-width="2.5" stroke-linecap="round" stroke-linejoin="round"/>
  <circle cx="90.0" cy="104.0" r="3" fill="#10b981" stroke="white" stroke-width="1"/>
  <circle cx="145.8" cy="104.9" r="3" fill="#10b981" stroke="white" stroke-width="1"/>
  <circle cx="201.7" cy="98.0" r="3" fill="#10b981" stroke="white" stroke-width="1"/>
  <circle cx="257.5" cy="108.4" r="3" fill="#10b981" stroke="white" stroke-width="1"/>
  <circle cx="313.3" cy="106.9" r="3" fill="#10b981" stroke="white" stroke-width="1"/>
  <circle cx="369.2" cy="106.8" r="3" fill="#10b981" stroke="white" stroke-width="1"/>
  <circle cx="425.0" cy="98.0" r="3" fill="#10b981" stroke="white" stroke-width="1"/>
  <circle cx="480.8" cy="93.4" r="3" fill="#10b981" stroke="white" stroke-width="1"/>
  <circle cx="536.7" cy="94.6" r="3" fill="#10b981" stroke="white" stroke-width="1"/>
  <circle cx="592.5" cy="97.1" r="3" fill="#10b981" stroke="white" stroke-width="1"/>
  <circle cx="648.3" cy="95.9" r="3" fill="#10b981" stroke="white" stroke-width="1"/>
  <circle cx="704.2" cy="93.6" r="3" fill="#10b981" stroke="white" stroke-width="1"/>
  <circle cx="760.0" cy="103.9" r="3" fill="#10b981" stroke="white" stroke-width="1"/>
  <polyline points="90.0,190.6 145.8,190.7 201.7,190.3 257.5,190.7 313.3,190.6 369.2,190.7 425.0,190.6 480.8,190.6 536.7,190.4 592.5,190.5 648.3,190.5 704.2,190.4 760.0,190.5" fill="none" stroke="#8b5cf6" stroke-width="2.5" stroke-linecap="round" stroke-linejoin="round"/>
  <circle cx="90.0" cy="190.6" r="3" fill="#8b5cf6" stroke="white" stroke-width="1"/>
  <circle cx="145.8" cy="190.7" r="3" fill="#8b5cf6" stroke="white" stroke-width="1"/>
  <circle cx="201.7" cy="190.3" r="3" fill="#8b5cf6" stroke="white" stroke-width="1"/>
  <circle cx="257.5" cy="190.7" r="3" fill="#8b5cf6" stroke="white" stroke-width="1"/>
  <circle cx="313.3" cy="190.6" r="3" fill="#8b5cf6" stroke="white" stroke-width="1"/>
  <circle cx="369.2" cy="190.7" r="3" fill="#8b5cf6" stroke="white" stroke-width="1"/>
  <circle cx="425.0" cy="190.6" r="3" fill="#8b5cf6" stroke="white" stroke-width="1"/>
  <circle cx="480.8" cy="190.6" r="3" fill="#8b5cf6" stroke="white" stroke-width="1"/>
  <circle cx="536.7" cy="190.4" r="3" fill="#8b5cf6" stroke="white" stroke-width="1"/>
  <circle cx="592.5" cy="190.5" r="3" fill="#8b5cf6" stroke="white" stroke-width="1"/>
  <circle cx="648.3" cy="190.5" r="3" fill="#8b5cf6" stroke="white" stroke-width="1"/>
  <circle cx="704.2" cy="190.4" r="3" fill="#8b5cf6" stroke="white" stroke-width="1"/>
  <circle cx="760.0" cy="190.5" r="3" fill="#8b5cf6" stroke="white" stroke-width="1"/>
  <polyline points="90.0,102.5 145.8,103.0 201.7,102.0 257.5,116.3 313.3,112.0 369.2,104.6 425.0,106.9 480.8,110.3 536.7,104.9 592.5,104.0 648.3,115.1 704.2,103.2 760.0,111.2" fill="none" stroke="#dc2626" stroke-width="2.5" stroke-linecap="round" stroke-linejoin="round"/>
  <circle cx="90.0" cy="102.5" r="3" fill="#dc2626" stroke="white" stroke-width="1"/>
  <circle cx="145.8" cy="103.0" r="3" fill="#dc2626" stroke="white" stroke-width="1"/>
  <circle cx="201.7" cy="102.0" r="3" fill="#dc2626" stroke="white" stroke-width="1"/>
  <circle cx="257.5" cy="116.3" r="3" fill="#dc2626" stroke="white" stroke-width="1"/>
  <circle cx="313.3" cy="112.0" r="3" fill="#dc2626" stroke="white" stroke-width="1"/>
  <circle cx="369.2" cy="104.6" r="3" fill="#dc2626" stroke="white" stroke-width="1"/>
  <circle cx="425.0" cy="106.9" r="3" fill="#dc2626" stroke="white" stroke-width="1"/>
  <circle cx="480.8" cy="110.3" r="3" fill="#dc2626" stroke="white" stroke-width="1"/>
  <circle cx="536.7" cy="104.9" r="3" fill="#dc2626" stroke="white" stroke-width="1"/>
  <circle cx="592.5" cy="104.0" r="3" fill="#dc2626" stroke="white" stroke-width="1"/>
  <circle cx="648.3" cy="115.1" r="3" fill="#dc2626" stroke="white" stroke-width="1"/>
  <circle cx="704.2" cy="103.2" r="3" fill="#dc2626" stroke="white" stroke-width="1"/>
  <circle cx="760.0" cy="111.2" r="3" fill="#dc2626" stroke="white" stroke-width="1"/>
  <text x="90.0" y="213.0" text-anchor="middle" fill="#374151" font-size="8.5">8 B</text>
  <text x="145.8" y="213.0" text-anchor="middle" fill="#374151" font-size="8.5">16 B</text>
  <text x="201.7" y="213.0" text-anchor="middle" fill="#374151" font-size="8.5">32 B</text>
  <text x="257.5" y="213.0" text-anchor="middle" fill="#374151" font-size="8.5">64 B</text>
  <text x="313.3" y="213.0" text-anchor="middle" fill="#374151" font-size="8.5">128 B</text>
  <text x="369.2" y="213.0" text-anchor="middle" fill="#374151" font-size="8.5">256 B</text>
  <text x="425.0" y="213.0" text-anchor="middle" fill="#374151" font-size="8.5">512 B</text>
  <text x="480.8" y="213.0" text-anchor="middle" fill="#374151" font-size="8.5">1 KiB</text>
  <text x="536.7" y="213.0" text-anchor="middle" fill="#374151" font-size="8.5">2 KiB</text>
  <text x="592.5" y="213.0" text-anchor="middle" fill="#374151" font-size="8.5">4 KiB</text>
  <text x="648.3" y="213.0" text-anchor="middle" fill="#374151" font-size="8.5">8 KiB</text>
  <text x="704.2" y="213.0" text-anchor="middle" fill="#374151" font-size="8.5">16 KiB</text>
  <text x="760.0" y="213.0" text-anchor="middle" fill="#374151" font-size="8.5">32 KiB</text>
  <line x1="50" y1="249" x2="64" y2="249" stroke="#eab308" stroke-width="2.5"/>
  <circle cx="57" cy="249" r="2.5" fill="#eab308"/>
  <text x="70" y="253" fill="#374151" font-size="11" font-weight="500">libzmq v4.3.5</text>
  <line x1="175" y1="249" x2="189" y2="249" stroke="#dc2626" stroke-width="2.5"/>
  <circle cx="182" cy="249" r="2.5" fill="#dc2626"/>
  <text x="195" y="253" fill="#374151" font-size="11" font-weight="500">omq-compio (MT)</text>
  <line x1="300" y1="249" x2="314" y2="249" stroke="#8b5cf6" stroke-width="2.5"/>
  <circle cx="307" cy="249" r="2.5" fill="#8b5cf6"/>
  <text x="320" y="253" fill="#374151" font-size="11" font-weight="500">omq-compio (ST)</text>
  <line x1="425" y1="249" x2="439" y2="249" stroke="#f97316" stroke-width="2.5"/>
  <circle cx="432" cy="249" r="2.5" fill="#f97316"/>
  <text x="445" y="253" fill="#374151" font-size="11" font-weight="500">omq-tokio</text>
  <line x1="550" y1="249" x2="564" y2="249" stroke="#10b981" stroke-width="2.5"/>
  <circle cx="557" cy="249" r="2.5" fill="#10b981"/>
  <text x="570" y="253" fill="#374151" font-size="11" font-weight="500">rzmq v0.5.15</text>
  <line x1="675" y1="249" x2="689" y2="249" stroke="#06b6d4" stroke-width="2.5"/>
  <circle cx="682" cy="249" r="2.5" fill="#06b6d4"/>
  <text x="695" y="253" fill="#374151" font-size="11" font-weight="500">omq-libzmq</text>
</svg>
