<svg xmlns="http://www.w3.org/2000/svg" viewBox="0 0 850 372" font-family="system-ui, -apple-system, sans-serif">
  <rect width="850" height="372" fill="white"/>
  <text x="425.0" y="46" text-anchor="middle" fill="#9ca3af" font-size="10">Linux VM on a 2018 Mac Mini, Intel Core i7-8700B @ 3.20GHz, 6 cores, performance governor, turbo off</text>
  <text x="425.0" y="32.0" text-anchor="middle" fill="#111827" font-size="13" font-weight="700">REQ/REP latency: inproc (p50 µs)</text>
  <line x1="90.0" y1="206.5" x2="760.0" y2="206.5" stroke="#e5e7eb" stroke-width="1"/>
  <text x="82.0" y="206.5" text-anchor="end" dominant-baseline="middle" fill="#374151" font-size="10">5</text>
  <line x1="90.0" y1="184.0" x2="760.0" y2="184.0" stroke="#e5e7eb" stroke-width="1"/>
  <text x="82.0" y="184.0" text-anchor="end" dominant-baseline="middle" fill="#374151" font-size="10">10</text>
  <line x1="90.0" y1="161.5" x2="760.0" y2="161.5" stroke="#e5e7eb" stroke-width="1"/>
  <text x="82.0" y="161.5" text-anchor="end" dominant-baseline="middle" fill="#374151" font-size="10">15</text>
  <line x1="90.0" y1="139.0" x2="760.0" y2="139.0" stroke="#e5e7eb" stroke-width="1"/>
  <text x="82.0" y="139.0" text-anchor="end" dominant-baseline="middle" fill="#374151" font-size="10">20</text>
  <line x1="90.0" y1="116.5" x2="760.0" y2="116.5" stroke="#e5e7eb" stroke-width="1"/>
  <text x="82.0" y="116.5" text-anchor="end" dominant-baseline="middle" fill="#374151" font-size="10">25</text>
  <line x1="90.0" y1="94.0" x2="760.0" y2="94.0" stroke="#e5e7eb" stroke-width="1"/>
  <text x="82.0" y="94.0" text-anchor="end" dominant-baseline="middle" fill="#374151" font-size="10">30</text>
  <line x1="90.0" y1="71.5" x2="760.0" y2="71.5" stroke="#e5e7eb" stroke-width="1"/>
  <text x="82.0" y="71.5" text-anchor="end" dominant-baseline="middle" fill="#374151" font-size="10">35</text>
  <line x1="90.0" y1="49.0" x2="760.0" y2="49.0" stroke="#e5e7eb" stroke-width="1"/>
  <text x="82.0" y="49.0" text-anchor="end" dominant-baseline="middle" fill="#374151" font-size="10">40</text>
  <line x1="90.0" y1="184.0" x2="760.0" y2="184.0" stroke="#e5e7eb" stroke-width="1" stroke-dasharray="3,6"/>
  <text x="768.0" y="184.0" text-anchor="start" dominant-baseline="middle" fill="#6b7280" font-size="10">50%</text>
  <line x1="90.0" y1="139.0" x2="760.0" y2="139.0" stroke="#e5e7eb" stroke-width="1" stroke-dasharray="3,6"/>
  <text x="768.0" y="139.0" text-anchor="start" dominant-baseline="middle" fill="#6b7280" font-size="10">100%</text>
  <line x1="90.0" y1="94.0" x2="760.0" y2="94.0" stroke="#e5e7eb" stroke-width="1" stroke-dasharray="3,6"/>
  <text x="768.0" y="94.0" text-anchor="start" dominant-baseline="middle" fill="#6b7280" font-size="10">150%</text>
  <line x1="90.0" y1="49.0" x2="760.0" y2="49.0" stroke="#e5e7eb" stroke-width="1" stroke-dasharray="3,6"/>
  <text x="768.0" y="49.0" text-anchor="start" dominant-baseline="middle" fill="#6b7280" font-size="10">200%</text>
  <line x1="90.0" y1="49.0" x2="90.0" y2="229.0" stroke="#e5e7eb" stroke-width="1"/>
  <line x1="224.0" y1="49.0" x2="224.0" y2="229.0" stroke="#e5e7eb" stroke-width="1"/>
  <line x1="358.0" y1="49.0" x2="358.0" y2="229.0" stroke="#e5e7eb" stroke-width="1"/>
  <line x1="492.0" y1="49.0" x2="492.0" y2="229.0" stroke="#e5e7eb" stroke-width="1"/>
  <line x1="626.0" y1="49.0" x2="626.0" y2="229.0" stroke="#e5e7eb" stroke-width="1"/>
  <line x1="760.0" y1="49.0" x2="760.0" y2="229.0" stroke="#e5e7eb" stroke-width="1"/>
  <line x1="90.0" y1="49.0" x2="90.0" y2="229.0" stroke="#9ca3af" stroke-width="1.5"/>
  <line x1="760.0" y1="49.0" x2="760.0" y2="229.0" stroke="#9ca3af" stroke-width="1.5"/>
  <line x1="90.0" y1="229.0" x2="760.0" y2="229.0" stroke="#9ca3af" stroke-width="1.5"/>
  <text x="40.0" y="139.0" text-anchor="middle" fill="#374151" font-size="10" font-weight="600" transform="rotate(-90,40.0,139.0)">p50 latency (µs)</text>
  <polyline points="90.0,115.1 224.0,115.4 358.0,112.7 492.0,110.2 626.0,125.7 760.0,119.1" fill="none" stroke="#15803d" stroke-width="1.6" stroke-dasharray="2,5" opacity="0.85"/>
  <polyline points="90.0,128.5 224.0,133.2 358.0,132.1 492.0,125.1 626.0,129.6 760.0,128.4" fill="none" stroke="#eab308" stroke-width="1.6" stroke-dasharray="2,5" opacity="0.85"/>
  <polyline points="90.0,76.9 224.0,66.3 358.0,70.5 492.0,69.4 626.0,83.4 760.0,74.7" fill="none" stroke="#dc2626" stroke-width="1.6" stroke-dasharray="2,5" opacity="0.85"/>
  <polyline points="90.0,142.0 224.0,143.2 358.0,142.1 492.0,142.5 626.0,143.4 760.0,141.4" fill="none" stroke="#f97316" stroke-width="1.6" stroke-dasharray="2,5" opacity="0.85"/>
  <polyline points="90.0,106.8 224.0,98.9 358.0,101.9 492.0,111.0 626.0,100.8 760.0,106.0" fill="none" stroke="#16a34a" stroke-width="1.6" stroke-dasharray="2,5" opacity="0.85"/>
  <polyline points="90.0,130.6 224.0,113.9 358.0,122.5 492.0,120.1 626.0,115.4 760.0,126.5" fill="none" stroke="#15803d" stroke-width="2.5" stroke-linecap="round" stroke-linejoin="round"/>
  <circle cx="90.0" cy="130.6" r="3" fill="#15803d" stroke="white" stroke-width="1"/>
  <circle cx="224.0" cy="113.9" r="3" fill="#15803d" stroke="white" stroke-width="1"/>
  <circle cx="358.0" cy="122.5" r="3" fill="#15803d" stroke="white" stroke-width="1"/>
  <circle cx="492.0" cy="120.1" r="3" fill="#15803d" stroke="white" stroke-width="1"/>
  <circle cx="626.0" cy="115.4" r="3" fill="#15803d" stroke="white" stroke-width="1"/>
  <circle cx="760.0" cy="126.5" r="3" fill="#15803d" stroke="white" stroke-width="1"/>
  <polyline points="90.0,110.2 224.0,102.8 358.0,101.1 492.0,97.2 626.0,106.9 760.0,89.8" fill="none" stroke="#eab308" stroke-width="2.5" stroke-linecap="round" stroke-linejoin="round"/>
  <circle cx="90.0" cy="110.2" r="3" fill="#eab308" stroke="white" stroke-width="1"/>
  <circle cx="224.0" cy="102.8" r="3" fill="#eab308" stroke="white" stroke-width="1"/>
  <circle cx="358.0" cy="101.1" r="3" fill="#eab308" stroke="white" stroke-width="1"/>
  <circle cx="492.0" cy="97.2" r="3" fill="#eab308" stroke="white" stroke-width="1"/>
  <circle cx="626.0" cy="106.9" r="3" fill="#eab308" stroke="white" stroke-width="1"/>
  <circle cx="760.0" cy="89.8" r="3" fill="#eab308" stroke="white" stroke-width="1"/>
  <polyline points="90.0,138.3 224.0,139.5 358.0,131.6 492.0,135.2 626.0,117.3 760.0,133.5" fill="none" stroke="#dc2626" stroke-width="2.5" stroke-linecap="round" stroke-linejoin="round"/>
  <circle cx="90.0" cy="138.3" r="3" fill="#dc2626" stroke="white" stroke-width="1"/>
  <circle cx="224.0" cy="139.5" r="3" fill="#dc2626" stroke="white" stroke-width="1"/>
  <circle cx="358.0" cy="131.6" r="3" fill="#dc2626" stroke="white" stroke-width="1"/>
  <circle cx="492.0" cy="135.2" r="3" fill="#dc2626" stroke="white" stroke-width="1"/>
  <circle cx="626.0" cy="117.3" r="3" fill="#dc2626" stroke="white" stroke-width="1"/>
  <circle cx="760.0" cy="133.5" r="3" fill="#dc2626" stroke="white" stroke-width="1"/>
  <polyline points="90.0,201.4 224.0,201.0 358.0,201.4 492.0,201.3 626.0,201.0 760.0,201.7" fill="none" stroke="#f97316" stroke-width="2.5" stroke-linecap="round" stroke-linejoin="round"/>
  <circle cx="90.0" cy="201.4" r="3" fill="#f97316" stroke="white" stroke-width="1"/>
  <circle cx="224.0" cy="201.0" r="3" fill="#f97316" stroke="white" stroke-width="1"/>
  <circle cx="358.0" cy="201.4" r="3" fill="#f97316" stroke="white" stroke-width="1"/>
  <circle cx="492.0" cy="201.3" r="3" fill="#f97316" stroke="white" stroke-width="1"/>
  <circle cx="626.0" cy="201.0" r="3" fill="#f97316" stroke="white" stroke-width="1"/>
  <circle cx="760.0" cy="201.7" r="3" fill="#f97316" stroke="white" stroke-width="1"/>
  <polyline points="90.0,65.9 224.0,80.8 358.0,90.6 492.0,78.5 626.0,84.5 760.0,56.4" fill="none" stroke="#16a34a" stroke-width="2.5" stroke-linecap="round" stroke-linejoin="round"/>
  <circle cx="90.0" cy="65.9" r="3" fill="#16a34a" stroke="white" stroke-width="1"/>
  <circle cx="224.0" cy="80.8" r="3" fill="#16a34a" stroke="white" stroke-width="1"/>
  <circle cx="358.0" cy="90.6" r="3" fill="#16a34a" stroke="white" stroke-width="1"/>
  <circle cx="492.0" cy="78.5" r="3" fill="#16a34a" stroke="white" stroke-width="1"/>
  <circle cx="626.0" cy="84.5" r="3" fill="#16a34a" stroke="white" stroke-width="1"/>
  <circle cx="760.0" cy="56.4" r="3" fill="#16a34a" stroke="white" stroke-width="1"/>
  <text x="90.0" y="243.0" text-anchor="middle" fill="#374151" font-size="8.5">16 B</text>
  <text x="224.0" y="243.0" text-anchor="middle" fill="#374151" font-size="8.5">64 B</text>
  <text x="358.0" y="243.0" text-anchor="middle" fill="#374151" font-size="8.5">256 B</text>
  <text x="492.0" y="243.0" text-anchor="middle" fill="#374151" font-size="8.5">1 KiB</text>
  <text x="626.0" y="243.0" text-anchor="middle" fill="#374151" font-size="8.5">4 KiB</text>
  <text x="760.0" y="243.0" text-anchor="middle" fill="#374151" font-size="8.5">16 KiB</text>
  <line x1="140" y1="269" x2="154" y2="269" stroke="#eab308" stroke-width="2.5"/>
  <circle cx="147" cy="269" r="2.5" fill="#eab308"/>
  <text x="160" y="273" fill="#374151" font-size="11" font-weight="500">libzmq v4.3.5</text>
  <line x1="330" y1="269" x2="344" y2="269" stroke="#f97316" stroke-width="2.5"/>
  <circle cx="337" cy="269" r="2.5" fill="#f97316"/>
  <text x="350" y="273" fill="#374151" font-size="11" font-weight="500">omq-tokio (ST)</text>
  <line x1="520" y1="269" x2="534" y2="269" stroke="#dc2626" stroke-width="2.5"/>
  <circle cx="527" cy="269" r="2.5" fill="#dc2626"/>
  <text x="540" y="273" fill="#374151" font-size="11" font-weight="500">omq-tokio (MT)</text>
  <line x1="235" y1="289" x2="249" y2="289" stroke="#16a34a" stroke-width="2.5"/>
  <circle cx="242" cy="289" r="2.5" fill="#16a34a"/>
  <text x="255" y="293" fill="#374151" font-size="11" font-weight="500">rzmq v0.5.22 (MT)</text>
  <line x1="425" y1="289" x2="439" y2="289" stroke="#15803d" stroke-width="2.5"/>
  <circle cx="432" cy="289" r="2.5" fill="#15803d"/>
  <text x="445" y="293" fill="#374151" font-size="11" font-weight="500">rzmq v0.5.22 (io_uring, MT)</text>
  <text x="425.0" y="307" text-anchor="middle" fill="#9ca3af" font-size="9">ST = single-threaded   MT = multi-threaded</text>
  <line x1="265" y1="329" x2="279" y2="329" stroke="#6b7280" stroke-width="2.5"/>
  <circle cx="272" cy="329" r="2" fill="#6b7280"/>
  <text x="285" y="333" fill="#6b7280" font-size="10">p50 latency (left)</text>
  <line x1="435" y1="329" x2="449" y2="329" stroke="#6b7280" stroke-width="1.6" stroke-dasharray="2,5" opacity="0.85"/>
  <text x="455" y="333" fill="#6b7280" font-size="10">CPU % (right)</text>
</svg>
