<svg xmlns="http://www.w3.org/2000/svg" viewBox="0 0 850 352" font-family="system-ui, -apple-system, sans-serif">
  <rect width="850" height="352" fill="white"/>
  <text x="425.0" y="46" text-anchor="middle" fill="#9ca3af" font-size="10">Linux VM on a 2018 Mac Mini, Intel Core i7-8700B @ 3.20GHz, 6 cores, performance governor, turbo off</text>
  <text x="425.0" y="32.0" text-anchor="middle" fill="#111827" font-size="13" font-weight="700">REQ/REP latency: inproc (p50 µs)</text>
  <line x1="90.0" y1="206.5" x2="760.0" y2="206.5" stroke="#e5e7eb" stroke-width="1"/>
  <text x="82.0" y="206.5" text-anchor="end" dominant-baseline="middle" fill="#374151" font-size="10">5</text>
  <line x1="90.0" y1="184.0" x2="760.0" y2="184.0" stroke="#e5e7eb" stroke-width="1"/>
  <text x="82.0" y="184.0" text-anchor="end" dominant-baseline="middle" fill="#374151" font-size="10">10</text>
  <line x1="90.0" y1="161.5" x2="760.0" y2="161.5" stroke="#e5e7eb" stroke-width="1"/>
  <text x="82.0" y="161.5" text-anchor="end" dominant-baseline="middle" fill="#374151" font-size="10">15</text>
  <line x1="90.0" y1="139.0" x2="760.0" y2="139.0" stroke="#e5e7eb" stroke-width="1"/>
  <text x="82.0" y="139.0" text-anchor="end" dominant-baseline="middle" fill="#374151" font-size="10">20</text>
  <line x1="90.0" y1="116.5" x2="760.0" y2="116.5" stroke="#e5e7eb" stroke-width="1"/>
  <text x="82.0" y="116.5" text-anchor="end" dominant-baseline="middle" fill="#374151" font-size="10">25</text>
  <line x1="90.0" y1="94.0" x2="760.0" y2="94.0" stroke="#e5e7eb" stroke-width="1"/>
  <text x="82.0" y="94.0" text-anchor="end" dominant-baseline="middle" fill="#374151" font-size="10">30</text>
  <line x1="90.0" y1="71.5" x2="760.0" y2="71.5" stroke="#e5e7eb" stroke-width="1"/>
  <text x="82.0" y="71.5" text-anchor="end" dominant-baseline="middle" fill="#374151" font-size="10">35</text>
  <line x1="90.0" y1="49.0" x2="760.0" y2="49.0" stroke="#e5e7eb" stroke-width="1"/>
  <text x="82.0" y="49.0" text-anchor="end" dominant-baseline="middle" fill="#374151" font-size="10">40</text>
  <line x1="90.0" y1="184.0" x2="760.0" y2="184.0" stroke="#e5e7eb" stroke-width="1" stroke-dasharray="3,6"/>
  <text x="768.0" y="184.0" text-anchor="start" dominant-baseline="middle" fill="#6b7280" font-size="10">50%</text>
  <line x1="90.0" y1="139.0" x2="760.0" y2="139.0" stroke="#e5e7eb" stroke-width="1" stroke-dasharray="3,6"/>
  <text x="768.0" y="139.0" text-anchor="start" dominant-baseline="middle" fill="#6b7280" font-size="10">100%</text>
  <line x1="90.0" y1="94.0" x2="760.0" y2="94.0" stroke="#e5e7eb" stroke-width="1" stroke-dasharray="3,6"/>
  <text x="768.0" y="94.0" text-anchor="start" dominant-baseline="middle" fill="#6b7280" font-size="10">150%</text>
  <line x1="90.0" y1="49.0" x2="760.0" y2="49.0" stroke="#e5e7eb" stroke-width="1" stroke-dasharray="3,6"/>
  <text x="768.0" y="49.0" text-anchor="start" dominant-baseline="middle" fill="#6b7280" font-size="10">200%</text>
  <line x1="90.0" y1="49.0" x2="90.0" y2="229.0" stroke="#e5e7eb" stroke-width="1"/>
  <line x1="145.8" y1="49.0" x2="145.8" y2="229.0" stroke="#e5e7eb" stroke-width="1"/>
  <line x1="201.7" y1="49.0" x2="201.7" y2="229.0" stroke="#e5e7eb" stroke-width="1"/>
  <line x1="257.5" y1="49.0" x2="257.5" y2="229.0" stroke="#e5e7eb" stroke-width="1"/>
  <line x1="313.3" y1="49.0" x2="313.3" y2="229.0" stroke="#e5e7eb" stroke-width="1"/>
  <line x1="369.2" y1="49.0" x2="369.2" y2="229.0" stroke="#e5e7eb" stroke-width="1"/>
  <line x1="425.0" y1="49.0" x2="425.0" y2="229.0" stroke="#e5e7eb" stroke-width="1"/>
  <line x1="480.8" y1="49.0" x2="480.8" y2="229.0" stroke="#e5e7eb" stroke-width="1"/>
  <line x1="536.7" y1="49.0" x2="536.7" y2="229.0" stroke="#e5e7eb" stroke-width="1"/>
  <line x1="592.5" y1="49.0" x2="592.5" y2="229.0" stroke="#e5e7eb" stroke-width="1"/>
  <line x1="648.3" y1="49.0" x2="648.3" y2="229.0" stroke="#e5e7eb" stroke-width="1"/>
  <line x1="704.2" y1="49.0" x2="704.2" y2="229.0" stroke="#e5e7eb" stroke-width="1"/>
  <line x1="760.0" y1="49.0" x2="760.0" y2="229.0" stroke="#e5e7eb" stroke-width="1"/>
  <line x1="90.0" y1="49.0" x2="90.0" y2="229.0" stroke="#9ca3af" stroke-width="1.5"/>
  <line x1="760.0" y1="49.0" x2="760.0" y2="229.0" stroke="#9ca3af" stroke-width="1.5"/>
  <line x1="90.0" y1="229.0" x2="760.0" y2="229.0" stroke="#9ca3af" stroke-width="1.5"/>
  <text x="40.0" y="139.0" text-anchor="middle" fill="#374151" font-size="10" font-weight="600" transform="rotate(-90,40.0,139.0)">p50 latency (µs)</text>
  <polyline points="90.0,100.5 145.8,104.6 201.7,112.6 257.5,110.4 313.3,109.7 369.2,109.2 425.0,107.7 480.8,109.3 536.7,108.6 592.5,110.4 648.3,103.2 704.2,107.0 760.0,111.1" fill="none" stroke="#16a34a" stroke-width="1.6" stroke-dasharray="2,5" opacity="0.85"/>
  <polyline points="90.0,135.9 145.8,126.5 201.7,134.4 257.5,125.4 313.3,131.1 369.2,122.1 425.0,128.2 480.8,132.0 536.7,128.5 592.5,126.0 648.3,128.4 704.2,128.6 760.0,124.0" fill="none" stroke="#7c3aed" stroke-width="1.6" stroke-dasharray="2,5" opacity="0.85"/>
  <polyline points="90.0,79.9 145.8,82.2 201.7,88.3 257.5,86.1 313.3,85.0 369.2,69.7 425.0,69.8 480.8,72.8 536.7,74.6 592.5,77.2 648.3,71.2 704.2,57.5 760.0,19.1" fill="none" stroke="#16a34a" stroke-width="2.5" stroke-linecap="round" stroke-linejoin="round"/>
  <circle cx="90.0" cy="79.9" r="3" fill="#16a34a" stroke="white" stroke-width="1"/>
  <circle cx="145.8" cy="82.2" r="3" fill="#16a34a" stroke="white" stroke-width="1"/>
  <circle cx="201.7" cy="88.3" r="3" fill="#16a34a" stroke="white" stroke-width="1"/>
  <circle cx="257.5" cy="86.1" r="3" fill="#16a34a" stroke="white" stroke-width="1"/>
  <circle cx="313.3" cy="85.0" r="3" fill="#16a34a" stroke="white" stroke-width="1"/>
  <circle cx="369.2" cy="69.7" r="3" fill="#16a34a" stroke="white" stroke-width="1"/>
  <circle cx="425.0" cy="69.8" r="3" fill="#16a34a" stroke="white" stroke-width="1"/>
  <circle cx="480.8" cy="72.8" r="3" fill="#16a34a" stroke="white" stroke-width="1"/>
  <circle cx="536.7" cy="74.6" r="3" fill="#16a34a" stroke="white" stroke-width="1"/>
  <circle cx="592.5" cy="77.2" r="3" fill="#16a34a" stroke="white" stroke-width="1"/>
  <circle cx="648.3" cy="71.2" r="3" fill="#16a34a" stroke="white" stroke-width="1"/>
  <circle cx="704.2" cy="57.5" r="3" fill="#16a34a" stroke="white" stroke-width="1"/>
  <circle cx="760.0" cy="19.1" r="3" fill="#16a34a" stroke="white" stroke-width="1"/>
  <polyline points="90.0,116.0 145.8,116.9 201.7,118.3 257.5,126.9 313.3,114.0 369.2,121.3 425.0,116.4 480.8,131.1 536.7,116.2 592.5,117.2 648.3,115.3 704.2,116.7 760.0,130.6" fill="none" stroke="#7c3aed" stroke-width="2.5" stroke-linecap="round" stroke-linejoin="round"/>
  <circle cx="90.0" cy="116.0" r="3" fill="#7c3aed" stroke="white" stroke-width="1"/>
  <circle cx="145.8" cy="116.9" r="3" fill="#7c3aed" stroke="white" stroke-width="1"/>
  <circle cx="201.7" cy="118.3" r="3" fill="#7c3aed" stroke="white" stroke-width="1"/>
  <circle cx="257.5" cy="126.9" r="3" fill="#7c3aed" stroke="white" stroke-width="1"/>
  <circle cx="313.3" cy="114.0" r="3" fill="#7c3aed" stroke="white" stroke-width="1"/>
  <circle cx="369.2" cy="121.3" r="3" fill="#7c3aed" stroke="white" stroke-width="1"/>
  <circle cx="425.0" cy="116.4" r="3" fill="#7c3aed" stroke="white" stroke-width="1"/>
  <circle cx="480.8" cy="131.1" r="3" fill="#7c3aed" stroke="white" stroke-width="1"/>
  <circle cx="536.7" cy="116.2" r="3" fill="#7c3aed" stroke="white" stroke-width="1"/>
  <circle cx="592.5" cy="117.2" r="3" fill="#7c3aed" stroke="white" stroke-width="1"/>
  <circle cx="648.3" cy="115.3" r="3" fill="#7c3aed" stroke="white" stroke-width="1"/>
  <circle cx="704.2" cy="116.7" r="3" fill="#7c3aed" stroke="white" stroke-width="1"/>
  <circle cx="760.0" cy="130.6" r="3" fill="#7c3aed" stroke="white" stroke-width="1"/>
  <text x="90.0" y="243.0" text-anchor="middle" fill="#374151" font-size="8.5">8 B</text>
  <text x="145.8" y="243.0" text-anchor="middle" fill="#374151" font-size="8.5">16 B</text>
  <text x="201.7" y="243.0" text-anchor="middle" fill="#374151" font-size="8.5">32 B</text>
  <text x="257.5" y="243.0" text-anchor="middle" fill="#374151" font-size="8.5">64 B</text>
  <text x="313.3" y="243.0" text-anchor="middle" fill="#374151" font-size="8.5">128 B</text>
  <text x="369.2" y="243.0" text-anchor="middle" fill="#374151" font-size="8.5">256 B</text>
  <text x="425.0" y="243.0" text-anchor="middle" fill="#374151" font-size="8.5">512 B</text>
  <text x="480.8" y="243.0" text-anchor="middle" fill="#374151" font-size="8.5">1 KiB</text>
  <text x="536.7" y="243.0" text-anchor="middle" fill="#374151" font-size="8.5">2 KiB</text>
  <text x="592.5" y="243.0" text-anchor="middle" fill="#374151" font-size="8.5">4 KiB</text>
  <text x="648.3" y="243.0" text-anchor="middle" fill="#374151" font-size="8.5">8 KiB</text>
  <text x="704.2" y="243.0" text-anchor="middle" fill="#374151" font-size="8.5">16 KiB</text>
  <text x="760.0" y="243.0" text-anchor="middle" fill="#374151" font-size="8.5">32 KiB</text>
  <line x1="235" y1="269" x2="249" y2="269" stroke="#7c3aed" stroke-width="2.5"/>
  <circle cx="242" cy="269" r="2.5" fill="#7c3aed"/>
  <text x="255" y="273" fill="#374151" font-size="11" font-weight="500">omq-compio (ST)</text>
  <line x1="425" y1="269" x2="439" y2="269" stroke="#16a34a" stroke-width="2.5"/>
  <circle cx="432" cy="269" r="2.5" fill="#16a34a"/>
  <text x="445" y="273" fill="#374151" font-size="11" font-weight="500">rzmq v0.5.22 (io_uring, MT)</text>
  <text x="425.0" y="287" text-anchor="middle" fill="#9ca3af" font-size="9">ST = single-threaded   MT = multi-threaded</text>
  <line x1="265" y1="309" x2="279" y2="309" stroke="#6b7280" stroke-width="2.5"/>
  <circle cx="272" cy="309" r="2" fill="#6b7280"/>
  <text x="285" y="313" fill="#6b7280" font-size="10">p50 latency (left)</text>
  <line x1="435" y1="309" x2="449" y2="309" stroke="#6b7280" stroke-width="1.6" stroke-dasharray="2,5" opacity="0.85"/>
  <text x="455" y="313" fill="#6b7280" font-size="10">CPU % (right)</text>
</svg>
