<svg xmlns="http://www.w3.org/2000/svg" viewBox="0 0 850 352" font-family="system-ui, -apple-system, sans-serif">
  <rect width="850" height="352" fill="white"/>
  <text x="425.0" y="46" text-anchor="middle" fill="#9ca3af" font-size="10">Linux VM on a 2018 Mac Mini, Intel Core i7-8700B @ 3.20GHz, 6 cores, performance governor, turbo off</text>
  <text x="425.0" y="32.0" text-anchor="middle" fill="#111827" font-size="13" font-weight="700">REQ/REP latency: TCP loopback, 2-process (p50 µs)</text>
  <line x1="90.0" y1="205.0" x2="760.0" y2="205.0" stroke="#e5e7eb" stroke-width="1"/>
  <text x="82.0" y="205.0" text-anchor="end" dominant-baseline="middle" fill="#374151" font-size="10">20</text>
  <line x1="90.0" y1="181.0" x2="760.0" y2="181.0" stroke="#e5e7eb" stroke-width="1"/>
  <text x="82.0" y="181.0" text-anchor="end" dominant-baseline="middle" fill="#374151" font-size="10">40</text>
  <line x1="90.0" y1="157.0" x2="760.0" y2="157.0" stroke="#e5e7eb" stroke-width="1"/>
  <text x="82.0" y="157.0" text-anchor="end" dominant-baseline="middle" fill="#374151" font-size="10">60</text>
  <line x1="90.0" y1="133.0" x2="760.0" y2="133.0" stroke="#e5e7eb" stroke-width="1"/>
  <text x="82.0" y="133.0" text-anchor="end" dominant-baseline="middle" fill="#374151" font-size="10">80</text>
  <line x1="90.0" y1="109.0" x2="760.0" y2="109.0" stroke="#e5e7eb" stroke-width="1"/>
  <text x="82.0" y="109.0" text-anchor="end" dominant-baseline="middle" fill="#374151" font-size="10">100</text>
  <line x1="90.0" y1="85.0" x2="760.0" y2="85.0" stroke="#e5e7eb" stroke-width="1"/>
  <text x="82.0" y="85.0" text-anchor="end" dominant-baseline="middle" fill="#374151" font-size="10">120</text>
  <line x1="90.0" y1="61.0" x2="760.0" y2="61.0" stroke="#e5e7eb" stroke-width="1"/>
  <text x="82.0" y="61.0" text-anchor="end" dominant-baseline="middle" fill="#374151" font-size="10">140</text>
  <line x1="90.0" y1="206.5" x2="760.0" y2="206.5" stroke="#e5e7eb" stroke-width="1" stroke-dasharray="3,6"/>
  <text x="768.0" y="206.5" text-anchor="start" dominant-baseline="middle" fill="#6b7280" font-size="10">50%</text>
  <line x1="90.0" y1="184.0" x2="760.0" y2="184.0" stroke="#e5e7eb" stroke-width="1" stroke-dasharray="3,6"/>
  <text x="768.0" y="184.0" text-anchor="start" dominant-baseline="middle" fill="#6b7280" font-size="10">100%</text>
  <line x1="90.0" y1="161.5" x2="760.0" y2="161.5" stroke="#e5e7eb" stroke-width="1" stroke-dasharray="3,6"/>
  <text x="768.0" y="161.5" text-anchor="start" dominant-baseline="middle" fill="#6b7280" font-size="10">150%</text>
  <line x1="90.0" y1="139.0" x2="760.0" y2="139.0" stroke="#e5e7eb" stroke-width="1" stroke-dasharray="3,6"/>
  <text x="768.0" y="139.0" text-anchor="start" dominant-baseline="middle" fill="#6b7280" font-size="10">200%</text>
  <line x1="90.0" y1="116.5" x2="760.0" y2="116.5" stroke="#e5e7eb" stroke-width="1" stroke-dasharray="3,6"/>
  <text x="768.0" y="116.5" text-anchor="start" dominant-baseline="middle" fill="#6b7280" font-size="10">250%</text>
  <line x1="90.0" y1="94.0" x2="760.0" y2="94.0" stroke="#e5e7eb" stroke-width="1" stroke-dasharray="3,6"/>
  <text x="768.0" y="94.0" text-anchor="start" dominant-baseline="middle" fill="#6b7280" font-size="10">300%</text>
  <line x1="90.0" y1="71.5" x2="760.0" y2="71.5" stroke="#e5e7eb" stroke-width="1" stroke-dasharray="3,6"/>
  <text x="768.0" y="71.5" text-anchor="start" dominant-baseline="middle" fill="#6b7280" font-size="10">350%</text>
  <line x1="90.0" y1="49.0" x2="760.0" y2="49.0" stroke="#e5e7eb" stroke-width="1" stroke-dasharray="3,6"/>
  <text x="768.0" y="49.0" text-anchor="start" dominant-baseline="middle" fill="#6b7280" font-size="10">400%</text>
  <line x1="90.0" y1="49.0" x2="90.0" y2="229.0" stroke="#e5e7eb" stroke-width="1"/>
  <line x1="145.8" y1="49.0" x2="145.8" y2="229.0" stroke="#e5e7eb" stroke-width="1"/>
  <line x1="201.7" y1="49.0" x2="201.7" y2="229.0" stroke="#e5e7eb" stroke-width="1"/>
  <line x1="257.5" y1="49.0" x2="257.5" y2="229.0" stroke="#e5e7eb" stroke-width="1"/>
  <line x1="313.3" y1="49.0" x2="313.3" y2="229.0" stroke="#e5e7eb" stroke-width="1"/>
  <line x1="369.2" y1="49.0" x2="369.2" y2="229.0" stroke="#e5e7eb" stroke-width="1"/>
  <line x1="425.0" y1="49.0" x2="425.0" y2="229.0" stroke="#e5e7eb" stroke-width="1"/>
  <line x1="480.8" y1="49.0" x2="480.8" y2="229.0" stroke="#e5e7eb" stroke-width="1"/>
  <line x1="536.7" y1="49.0" x2="536.7" y2="229.0" stroke="#e5e7eb" stroke-width="1"/>
  <line x1="592.5" y1="49.0" x2="592.5" y2="229.0" stroke="#e5e7eb" stroke-width="1"/>
  <line x1="648.3" y1="49.0" x2="648.3" y2="229.0" stroke="#e5e7eb" stroke-width="1"/>
  <line x1="704.2" y1="49.0" x2="704.2" y2="229.0" stroke="#e5e7eb" stroke-width="1"/>
  <line x1="760.0" y1="49.0" x2="760.0" y2="229.0" stroke="#e5e7eb" stroke-width="1"/>
  <line x1="90.0" y1="49.0" x2="90.0" y2="229.0" stroke="#9ca3af" stroke-width="1.5"/>
  <line x1="760.0" y1="49.0" x2="760.0" y2="229.0" stroke="#9ca3af" stroke-width="1.5"/>
  <line x1="90.0" y1="229.0" x2="760.0" y2="229.0" stroke="#9ca3af" stroke-width="1.5"/>
  <text x="40.0" y="139.0" text-anchor="middle" fill="#374151" font-size="10" font-weight="600" transform="rotate(-90,40.0,139.0)">p50 latency (µs)</text>
  <polyline points="90.0,145.6 145.8,139.2 201.7,136.5 257.5,140.3 313.3,136.3 369.2,138.4 425.0,140.3 480.8,140.6 536.7,141.2 592.5,136.6 648.3,143.3 704.2,145.9 760.0,148.2" fill="none" stroke="#16a34a" stroke-width="1.6" stroke-dasharray="2,5" opacity="0.85"/>
  <polyline points="90.0,175.4 145.8,174.6 201.7,174.8 257.5,172.8 313.3,175.3 369.2,174.1 425.0,173.4 480.8,175.4 536.7,175.0 592.5,173.1 648.3,174.1 704.2,175.6 760.0,176.2" fill="none" stroke="#7c3aed" stroke-width="1.6" stroke-dasharray="2,5" opacity="0.85"/>
  <polyline points="90.0,153.9 145.8,156.7 201.7,153.6 257.5,155.5 313.3,153.7 369.2,157.4 425.0,157.9 480.8,159.0 536.7,151.7 592.5,152.4 648.3,148.0 704.2,142.8 760.0,126.6" fill="none" stroke="#16a34a" stroke-width="2.5" stroke-linecap="round" stroke-linejoin="round"/>
  <circle cx="90.0" cy="153.9" r="3" fill="#16a34a" stroke="white" stroke-width="1"/>
  <circle cx="145.8" cy="156.7" r="3" fill="#16a34a" stroke="white" stroke-width="1"/>
  <circle cx="201.7" cy="153.6" r="3" fill="#16a34a" stroke="white" stroke-width="1"/>
  <circle cx="257.5" cy="155.5" r="3" fill="#16a34a" stroke="white" stroke-width="1"/>
  <circle cx="313.3" cy="153.7" r="3" fill="#16a34a" stroke="white" stroke-width="1"/>
  <circle cx="369.2" cy="157.4" r="3" fill="#16a34a" stroke="white" stroke-width="1"/>
  <circle cx="425.0" cy="157.9" r="3" fill="#16a34a" stroke="white" stroke-width="1"/>
  <circle cx="480.8" cy="159.0" r="3" fill="#16a34a" stroke="white" stroke-width="1"/>
  <circle cx="536.7" cy="151.7" r="3" fill="#16a34a" stroke="white" stroke-width="1"/>
  <circle cx="592.5" cy="152.4" r="3" fill="#16a34a" stroke="white" stroke-width="1"/>
  <circle cx="648.3" cy="148.0" r="3" fill="#16a34a" stroke="white" stroke-width="1"/>
  <circle cx="704.2" cy="142.8" r="3" fill="#16a34a" stroke="white" stroke-width="1"/>
  <circle cx="760.0" cy="126.6" r="3" fill="#16a34a" stroke="white" stroke-width="1"/>
  <polyline points="90.0,168.2 145.8,169.1 201.7,169.4 257.5,169.4 313.3,169.1 369.2,169.7 425.0,168.8 480.8,168.2 536.7,168.3 592.5,165.6 648.3,163.4 704.2,156.5 760.0,148.1" fill="none" stroke="#7c3aed" stroke-width="2.5" stroke-linecap="round" stroke-linejoin="round"/>
  <circle cx="90.0" cy="168.2" r="3" fill="#7c3aed" stroke="white" stroke-width="1"/>
  <circle cx="145.8" cy="169.1" r="3" fill="#7c3aed" stroke="white" stroke-width="1"/>
  <circle cx="201.7" cy="169.4" r="3" fill="#7c3aed" stroke="white" stroke-width="1"/>
  <circle cx="257.5" cy="169.4" r="3" fill="#7c3aed" stroke="white" stroke-width="1"/>
  <circle cx="313.3" cy="169.1" r="3" fill="#7c3aed" stroke="white" stroke-width="1"/>
  <circle cx="369.2" cy="169.7" r="3" fill="#7c3aed" stroke="white" stroke-width="1"/>
  <circle cx="425.0" cy="168.8" r="3" fill="#7c3aed" stroke="white" stroke-width="1"/>
  <circle cx="480.8" cy="168.2" r="3" fill="#7c3aed" stroke="white" stroke-width="1"/>
  <circle cx="536.7" cy="168.3" r="3" fill="#7c3aed" stroke="white" stroke-width="1"/>
  <circle cx="592.5" cy="165.6" r="3" fill="#7c3aed" stroke="white" stroke-width="1"/>
  <circle cx="648.3" cy="163.4" r="3" fill="#7c3aed" stroke="white" stroke-width="1"/>
  <circle cx="704.2" cy="156.5" r="3" fill="#7c3aed" stroke="white" stroke-width="1"/>
  <circle cx="760.0" cy="148.1" r="3" fill="#7c3aed" stroke="white" stroke-width="1"/>
  <text x="90.0" y="243.0" text-anchor="middle" fill="#374151" font-size="8.5">8 B</text>
  <text x="145.8" y="243.0" text-anchor="middle" fill="#374151" font-size="8.5">16 B</text>
  <text x="201.7" y="243.0" text-anchor="middle" fill="#374151" font-size="8.5">32 B</text>
  <text x="257.5" y="243.0" text-anchor="middle" fill="#374151" font-size="8.5">64 B</text>
  <text x="313.3" y="243.0" text-anchor="middle" fill="#374151" font-size="8.5">128 B</text>
  <text x="369.2" y="243.0" text-anchor="middle" fill="#374151" font-size="8.5">256 B</text>
  <text x="425.0" y="243.0" text-anchor="middle" fill="#374151" font-size="8.5">512 B</text>
  <text x="480.8" y="243.0" text-anchor="middle" fill="#374151" font-size="8.5">1 KiB</text>
  <text x="536.7" y="243.0" text-anchor="middle" fill="#374151" font-size="8.5">2 KiB</text>
  <text x="592.5" y="243.0" text-anchor="middle" fill="#374151" font-size="8.5">4 KiB</text>
  <text x="648.3" y="243.0" text-anchor="middle" fill="#374151" font-size="8.5">8 KiB</text>
  <text x="704.2" y="243.0" text-anchor="middle" fill="#374151" font-size="8.5">16 KiB</text>
  <text x="760.0" y="243.0" text-anchor="middle" fill="#374151" font-size="8.5">32 KiB</text>
  <line x1="235" y1="269" x2="249" y2="269" stroke="#7c3aed" stroke-width="2.5"/>
  <circle cx="242" cy="269" r="2.5" fill="#7c3aed"/>
  <text x="255" y="273" fill="#374151" font-size="11" font-weight="500">omq-compio (ST)</text>
  <line x1="425" y1="269" x2="439" y2="269" stroke="#16a34a" stroke-width="2.5"/>
  <circle cx="432" cy="269" r="2.5" fill="#16a34a"/>
  <text x="445" y="273" fill="#374151" font-size="11" font-weight="500">rzmq v0.5.22 (io_uring, MT)</text>
  <text x="425.0" y="287" text-anchor="middle" fill="#9ca3af" font-size="9">ST = single-threaded   MT = multi-threaded</text>
  <line x1="265" y1="309" x2="279" y2="309" stroke="#6b7280" stroke-width="2.5"/>
  <circle cx="272" cy="309" r="2" fill="#6b7280"/>
  <text x="285" y="313" fill="#6b7280" font-size="10">p50 latency (left)</text>
  <line x1="435" y1="309" x2="449" y2="309" stroke="#6b7280" stroke-width="1.6" stroke-dasharray="2,5" opacity="0.85"/>
  <text x="455" y="313" fill="#6b7280" font-size="10">CPU % (right)</text>
</svg>
