<svg xmlns="http://www.w3.org/2000/svg" viewBox="0 0 850 372" font-family="system-ui, -apple-system, sans-serif">
  <rect width="850" height="372" fill="white"/>
  <text x="425.0" y="46" text-anchor="middle" fill="#9ca3af" font-size="10">Linux VM on a 2018 Mac Mini, Intel Core i7-8700B @ 3.20GHz, 6 cores, performance governor, turbo off</text>
  <text x="425.0" y="32.0" text-anchor="middle" fill="#111827" font-size="13" font-weight="700">REQ/REP latency: IPC, 2-process (p50 µs)</text>
  <line x1="90.0" y1="205.0" x2="760.0" y2="205.0" stroke="#e5e7eb" stroke-width="1"/>
  <text x="82.0" y="205.0" text-anchor="end" dominant-baseline="middle" fill="#374151" font-size="10">20</text>
  <line x1="90.0" y1="181.0" x2="760.0" y2="181.0" stroke="#e5e7eb" stroke-width="1"/>
  <text x="82.0" y="181.0" text-anchor="end" dominant-baseline="middle" fill="#374151" font-size="10">40</text>
  <line x1="90.0" y1="157.0" x2="760.0" y2="157.0" stroke="#e5e7eb" stroke-width="1"/>
  <text x="82.0" y="157.0" text-anchor="end" dominant-baseline="middle" fill="#374151" font-size="10">60</text>
  <line x1="90.0" y1="133.0" x2="760.0" y2="133.0" stroke="#e5e7eb" stroke-width="1"/>
  <text x="82.0" y="133.0" text-anchor="end" dominant-baseline="middle" fill="#374151" font-size="10">80</text>
  <line x1="90.0" y1="109.0" x2="760.0" y2="109.0" stroke="#e5e7eb" stroke-width="1"/>
  <text x="82.0" y="109.0" text-anchor="end" dominant-baseline="middle" fill="#374151" font-size="10">100</text>
  <line x1="90.0" y1="85.0" x2="760.0" y2="85.0" stroke="#e5e7eb" stroke-width="1"/>
  <text x="82.0" y="85.0" text-anchor="end" dominant-baseline="middle" fill="#374151" font-size="10">120</text>
  <line x1="90.0" y1="61.0" x2="760.0" y2="61.0" stroke="#e5e7eb" stroke-width="1"/>
  <text x="82.0" y="61.0" text-anchor="end" dominant-baseline="middle" fill="#374151" font-size="10">140</text>
  <line x1="90.0" y1="206.5" x2="760.0" y2="206.5" stroke="#e5e7eb" stroke-width="1" stroke-dasharray="3,6"/>
  <text x="768.0" y="206.5" text-anchor="start" dominant-baseline="middle" fill="#6b7280" font-size="10">50%</text>
  <line x1="90.0" y1="184.0" x2="760.0" y2="184.0" stroke="#e5e7eb" stroke-width="1" stroke-dasharray="3,6"/>
  <text x="768.0" y="184.0" text-anchor="start" dominant-baseline="middle" fill="#6b7280" font-size="10">100%</text>
  <line x1="90.0" y1="161.5" x2="760.0" y2="161.5" stroke="#e5e7eb" stroke-width="1" stroke-dasharray="3,6"/>
  <text x="768.0" y="161.5" text-anchor="start" dominant-baseline="middle" fill="#6b7280" font-size="10">150%</text>
  <line x1="90.0" y1="139.0" x2="760.0" y2="139.0" stroke="#e5e7eb" stroke-width="1" stroke-dasharray="3,6"/>
  <text x="768.0" y="139.0" text-anchor="start" dominant-baseline="middle" fill="#6b7280" font-size="10">200%</text>
  <line x1="90.0" y1="116.5" x2="760.0" y2="116.5" stroke="#e5e7eb" stroke-width="1" stroke-dasharray="3,6"/>
  <text x="768.0" y="116.5" text-anchor="start" dominant-baseline="middle" fill="#6b7280" font-size="10">250%</text>
  <line x1="90.0" y1="94.0" x2="760.0" y2="94.0" stroke="#e5e7eb" stroke-width="1" stroke-dasharray="3,6"/>
  <text x="768.0" y="94.0" text-anchor="start" dominant-baseline="middle" fill="#6b7280" font-size="10">300%</text>
  <line x1="90.0" y1="71.5" x2="760.0" y2="71.5" stroke="#e5e7eb" stroke-width="1" stroke-dasharray="3,6"/>
  <text x="768.0" y="71.5" text-anchor="start" dominant-baseline="middle" fill="#6b7280" font-size="10">350%</text>
  <line x1="90.0" y1="49.0" x2="760.0" y2="49.0" stroke="#e5e7eb" stroke-width="1" stroke-dasharray="3,6"/>
  <text x="768.0" y="49.0" text-anchor="start" dominant-baseline="middle" fill="#6b7280" font-size="10">400%</text>
  <line x1="90.0" y1="49.0" x2="90.0" y2="229.0" stroke="#e5e7eb" stroke-width="1"/>
  <line x1="224.0" y1="49.0" x2="224.0" y2="229.0" stroke="#e5e7eb" stroke-width="1"/>
  <line x1="358.0" y1="49.0" x2="358.0" y2="229.0" stroke="#e5e7eb" stroke-width="1"/>
  <line x1="492.0" y1="49.0" x2="492.0" y2="229.0" stroke="#e5e7eb" stroke-width="1"/>
  <line x1="626.0" y1="49.0" x2="626.0" y2="229.0" stroke="#e5e7eb" stroke-width="1"/>
  <line x1="760.0" y1="49.0" x2="760.0" y2="229.0" stroke="#e5e7eb" stroke-width="1"/>
  <line x1="90.0" y1="49.0" x2="90.0" y2="229.0" stroke="#9ca3af" stroke-width="1.5"/>
  <line x1="760.0" y1="49.0" x2="760.0" y2="229.0" stroke="#9ca3af" stroke-width="1.5"/>
  <line x1="90.0" y1="229.0" x2="760.0" y2="229.0" stroke="#9ca3af" stroke-width="1.5"/>
  <text x="40.0" y="139.0" text-anchor="middle" fill="#374151" font-size="10" font-weight="600" transform="rotate(-90,40.0,139.0)">p50 latency (µs)</text>
  <polyline points="90.0,136.0 224.0,138.3 358.0,136.8 492.0,136.1 626.0,138.1 760.0,146.2" fill="none" stroke="#15803d" stroke-width="1.6" stroke-dasharray="2,5" opacity="0.85"/>
  <polyline points="90.0,176.6 224.0,178.4 358.0,178.6 492.0,177.8 626.0,178.3 760.0,174.6" fill="none" stroke="#eab308" stroke-width="1.6" stroke-dasharray="2,5" opacity="0.85"/>
  <polyline points="90.0,163.9 224.0,161.8 358.0,163.8 492.0,165.2 626.0,164.4 760.0,166.7" fill="none" stroke="#dc2626" stroke-width="1.6" stroke-dasharray="2,5" opacity="0.85"/>
  <polyline points="90.0,168.3 224.0,166.4 358.0,166.8 492.0,170.5 626.0,168.2 760.0,167.2" fill="none" stroke="#f97316" stroke-width="1.6" stroke-dasharray="2,5" opacity="0.85"/>
  <polyline points="90.0,166.9 224.0,169.0 358.0,167.5 492.0,167.8 626.0,168.0 760.0,171.0" fill="none" stroke="#16a34a" stroke-width="1.6" stroke-dasharray="2,5" opacity="0.85"/>
  <polyline points="90.0,172.5 224.0,173.2 358.0,173.7 492.0,176.5 626.0,170.4 760.0,175.6" fill="none" stroke="#2563eb" stroke-width="1.6" stroke-dasharray="2,5" opacity="0.85"/>
  <polyline points="90.0,167.8 224.0,170.8 358.0,170.6 492.0,166.3 626.0,160.4 760.0,156.1" fill="none" stroke="#15803d" stroke-width="2.5" stroke-linecap="round" stroke-linejoin="round"/>
  <circle cx="90.0" cy="167.8" r="3" fill="#15803d" stroke="white" stroke-width="1"/>
  <circle cx="224.0" cy="170.8" r="3" fill="#15803d" stroke="white" stroke-width="1"/>
  <circle cx="358.0" cy="170.6" r="3" fill="#15803d" stroke="white" stroke-width="1"/>
  <circle cx="492.0" cy="166.3" r="3" fill="#15803d" stroke="white" stroke-width="1"/>
  <circle cx="626.0" cy="160.4" r="3" fill="#15803d" stroke="white" stroke-width="1"/>
  <circle cx="760.0" cy="156.1" r="3" fill="#15803d" stroke="white" stroke-width="1"/>
  <polyline points="90.0,131.0 224.0,117.3 358.0,121.7 492.0,128.0 626.0,109.7 760.0,107.2" fill="none" stroke="#eab308" stroke-width="2.5" stroke-linecap="round" stroke-linejoin="round"/>
  <circle cx="90.0" cy="131.0" r="3" fill="#eab308" stroke="white" stroke-width="1"/>
  <circle cx="224.0" cy="117.3" r="3" fill="#eab308" stroke="white" stroke-width="1"/>
  <circle cx="358.0" cy="121.7" r="3" fill="#eab308" stroke="white" stroke-width="1"/>
  <circle cx="492.0" cy="128.0" r="3" fill="#eab308" stroke="white" stroke-width="1"/>
  <circle cx="626.0" cy="109.7" r="3" fill="#eab308" stroke="white" stroke-width="1"/>
  <circle cx="760.0" cy="107.2" r="3" fill="#eab308" stroke="white" stroke-width="1"/>
  <polyline points="90.0,125.8 224.0,131.0 358.0,124.2 492.0,102.5 626.0,120.3 760.0,98.6" fill="none" stroke="#dc2626" stroke-width="2.5" stroke-linecap="round" stroke-linejoin="round"/>
  <circle cx="90.0" cy="125.8" r="3" fill="#dc2626" stroke="white" stroke-width="1"/>
  <circle cx="224.0" cy="131.0" r="3" fill="#dc2626" stroke="white" stroke-width="1"/>
  <circle cx="358.0" cy="124.2" r="3" fill="#dc2626" stroke="white" stroke-width="1"/>
  <circle cx="492.0" cy="102.5" r="3" fill="#dc2626" stroke="white" stroke-width="1"/>
  <circle cx="626.0" cy="120.3" r="3" fill="#dc2626" stroke="white" stroke-width="1"/>
  <circle cx="760.0" cy="98.6" r="3" fill="#dc2626" stroke="white" stroke-width="1"/>
  <polyline points="90.0,185.1 224.0,187.6 358.0,186.5 492.0,182.1 626.0,175.2 760.0,168.6" fill="none" stroke="#f97316" stroke-width="2.5" stroke-linecap="round" stroke-linejoin="round"/>
  <circle cx="90.0" cy="185.1" r="3" fill="#f97316" stroke="white" stroke-width="1"/>
  <circle cx="224.0" cy="187.6" r="3" fill="#f97316" stroke="white" stroke-width="1"/>
  <circle cx="358.0" cy="186.5" r="3" fill="#f97316" stroke="white" stroke-width="1"/>
  <circle cx="492.0" cy="182.1" r="3" fill="#f97316" stroke="white" stroke-width="1"/>
  <circle cx="626.0" cy="175.2" r="3" fill="#f97316" stroke="white" stroke-width="1"/>
  <circle cx="760.0" cy="168.6" r="3" fill="#f97316" stroke="white" stroke-width="1"/>
  <polyline points="90.0,88.5 224.0,87.8 358.0,87.8 492.0,85.1 626.0,78.8 760.0,67.8" fill="none" stroke="#16a34a" stroke-width="2.5" stroke-linecap="round" stroke-linejoin="round"/>
  <circle cx="90.0" cy="88.5" r="3" fill="#16a34a" stroke="white" stroke-width="1"/>
  <circle cx="224.0" cy="87.8" r="3" fill="#16a34a" stroke="white" stroke-width="1"/>
  <circle cx="358.0" cy="87.8" r="3" fill="#16a34a" stroke="white" stroke-width="1"/>
  <circle cx="492.0" cy="85.1" r="3" fill="#16a34a" stroke="white" stroke-width="1"/>
  <circle cx="626.0" cy="78.8" r="3" fill="#16a34a" stroke="white" stroke-width="1"/>
  <circle cx="760.0" cy="67.8" r="3" fill="#16a34a" stroke="white" stroke-width="1"/>
  <polyline points="90.0,180.9 224.0,187.6 358.0,179.1 492.0,178.5 626.0,181.8 760.0,154.1" fill="none" stroke="#2563eb" stroke-width="2.5" stroke-linecap="round" stroke-linejoin="round"/>
  <circle cx="90.0" cy="180.9" r="3" fill="#2563eb" stroke="white" stroke-width="1"/>
  <circle cx="224.0" cy="187.6" r="3" fill="#2563eb" stroke="white" stroke-width="1"/>
  <circle cx="358.0" cy="179.1" r="3" fill="#2563eb" stroke="white" stroke-width="1"/>
  <circle cx="492.0" cy="178.5" r="3" fill="#2563eb" stroke="white" stroke-width="1"/>
  <circle cx="626.0" cy="181.8" r="3" fill="#2563eb" stroke="white" stroke-width="1"/>
  <circle cx="760.0" cy="154.1" r="3" fill="#2563eb" stroke="white" stroke-width="1"/>
  <text x="90.0" y="243.0" text-anchor="middle" fill="#374151" font-size="8.5">16 B</text>
  <text x="224.0" y="243.0" text-anchor="middle" fill="#374151" font-size="8.5">64 B</text>
  <text x="358.0" y="243.0" text-anchor="middle" fill="#374151" font-size="8.5">256 B</text>
  <text x="492.0" y="243.0" text-anchor="middle" fill="#374151" font-size="8.5">1 KiB</text>
  <text x="626.0" y="243.0" text-anchor="middle" fill="#374151" font-size="8.5">4 KiB</text>
  <text x="760.0" y="243.0" text-anchor="middle" fill="#374151" font-size="8.5">16 KiB</text>
  <line x1="140" y1="269" x2="154" y2="269" stroke="#eab308" stroke-width="2.5"/>
  <circle cx="147" cy="269" r="2.5" fill="#eab308"/>
  <text x="160" y="273" fill="#374151" font-size="11" font-weight="500">libzmq v4.3.5</text>
  <line x1="330" y1="269" x2="344" y2="269" stroke="#f97316" stroke-width="2.5"/>
  <circle cx="337" cy="269" r="2.5" fill="#f97316"/>
  <text x="350" y="273" fill="#374151" font-size="11" font-weight="500">omq-tokio (ST)</text>
  <line x1="520" y1="269" x2="534" y2="269" stroke="#dc2626" stroke-width="2.5"/>
  <circle cx="527" cy="269" r="2.5" fill="#dc2626"/>
  <text x="540" y="273" fill="#374151" font-size="11" font-weight="500">omq-tokio (MT)</text>
  <line x1="140" y1="289" x2="154" y2="289" stroke="#2563eb" stroke-width="2.5"/>
  <circle cx="147" cy="289" r="2.5" fill="#2563eb"/>
  <text x="160" y="293" fill="#374151" font-size="11" font-weight="500">zmq.rs v0.6.0 (MT)</text>
  <line x1="330" y1="289" x2="344" y2="289" stroke="#16a34a" stroke-width="2.5"/>
  <circle cx="337" cy="289" r="2.5" fill="#16a34a"/>
  <text x="350" y="293" fill="#374151" font-size="11" font-weight="500">rzmq v0.5.22 (MT)</text>
  <line x1="520" y1="289" x2="534" y2="289" stroke="#15803d" stroke-width="2.5"/>
  <circle cx="527" cy="289" r="2.5" fill="#15803d"/>
  <text x="540" y="293" fill="#374151" font-size="11" font-weight="500">rzmq v0.5.22 (io_uring, MT)</text>
  <text x="425.0" y="307" text-anchor="middle" fill="#9ca3af" font-size="9">ST = single-threaded   MT = multi-threaded</text>
  <line x1="265" y1="329" x2="279" y2="329" stroke="#6b7280" stroke-width="2.5"/>
  <circle cx="272" cy="329" r="2" fill="#6b7280"/>
  <text x="285" y="333" fill="#6b7280" font-size="10">p50 latency (left)</text>
  <line x1="435" y1="329" x2="449" y2="329" stroke="#6b7280" stroke-width="1.6" stroke-dasharray="2,5" opacity="0.85"/>
  <text x="455" y="333" fill="#6b7280" font-size="10">CPU % (right)</text>
</svg>
