<svg xmlns="http://www.w3.org/2000/svg" viewBox="0 0 850 334" font-family="system-ui, -apple-system, sans-serif">
  <rect width="850" height="334" fill="white"/>
  <text x="425.0" y="46" text-anchor="middle" fill="#9ca3af" font-size="10">Linux VM on a 2018 Mac Mini, Intel Core i7-8700B @ 3.20GHz, 6 cores, performance governor, turbo off</text>
  <text x="425.0" y="32.0" text-anchor="middle" fill="#111827" font-size="13" font-weight="700">REQ/REP latency: TCP loopback, 2-process (p50 µs)</text>
  <line x1="90.0" y1="205.0" x2="760.0" y2="205.0" stroke="#e5e7eb" stroke-width="1"/>
  <text x="82.0" y="205.0" text-anchor="end" dominant-baseline="middle" fill="#374151" font-size="10">20</text>
  <line x1="90.0" y1="181.0" x2="760.0" y2="181.0" stroke="#e5e7eb" stroke-width="1"/>
  <text x="82.0" y="181.0" text-anchor="end" dominant-baseline="middle" fill="#374151" font-size="10">40</text>
  <line x1="90.0" y1="157.0" x2="760.0" y2="157.0" stroke="#e5e7eb" stroke-width="1"/>
  <text x="82.0" y="157.0" text-anchor="end" dominant-baseline="middle" fill="#374151" font-size="10">60</text>
  <line x1="90.0" y1="133.0" x2="760.0" y2="133.0" stroke="#e5e7eb" stroke-width="1"/>
  <text x="82.0" y="133.0" text-anchor="end" dominant-baseline="middle" fill="#374151" font-size="10">80</text>
  <line x1="90.0" y1="109.0" x2="760.0" y2="109.0" stroke="#e5e7eb" stroke-width="1"/>
  <text x="82.0" y="109.0" text-anchor="end" dominant-baseline="middle" fill="#374151" font-size="10">100</text>
  <line x1="90.0" y1="85.0" x2="760.0" y2="85.0" stroke="#e5e7eb" stroke-width="1"/>
  <text x="82.0" y="85.0" text-anchor="end" dominant-baseline="middle" fill="#374151" font-size="10">120</text>
  <line x1="90.0" y1="61.0" x2="760.0" y2="61.0" stroke="#e5e7eb" stroke-width="1"/>
  <text x="82.0" y="61.0" text-anchor="end" dominant-baseline="middle" fill="#374151" font-size="10">140</text>
  <line x1="90.0" y1="184.0" x2="760.0" y2="184.0" stroke="#e5e7eb" stroke-width="1" stroke-dasharray="3,6"/>
  <text x="768.0" y="184.0" text-anchor="start" dominant-baseline="middle" fill="#6b7280" font-size="10">50%</text>
  <line x1="90.0" y1="139.0" x2="760.0" y2="139.0" stroke="#e5e7eb" stroke-width="1" stroke-dasharray="3,6"/>
  <text x="768.0" y="139.0" text-anchor="start" dominant-baseline="middle" fill="#6b7280" font-size="10">100%</text>
  <line x1="90.0" y1="94.0" x2="760.0" y2="94.0" stroke="#e5e7eb" stroke-width="1" stroke-dasharray="3,6"/>
  <text x="768.0" y="94.0" text-anchor="start" dominant-baseline="middle" fill="#6b7280" font-size="10">150%</text>
  <line x1="90.0" y1="49.0" x2="760.0" y2="49.0" stroke="#e5e7eb" stroke-width="1" stroke-dasharray="3,6"/>
  <text x="768.0" y="49.0" text-anchor="start" dominant-baseline="middle" fill="#6b7280" font-size="10">200%</text>
  <line x1="90.0" y1="49.0" x2="90.0" y2="229.0" stroke="#e5e7eb" stroke-width="1"/>
  <line x1="145.8" y1="49.0" x2="145.8" y2="229.0" stroke="#e5e7eb" stroke-width="1"/>
  <line x1="201.7" y1="49.0" x2="201.7" y2="229.0" stroke="#e5e7eb" stroke-width="1"/>
  <line x1="257.5" y1="49.0" x2="257.5" y2="229.0" stroke="#e5e7eb" stroke-width="1"/>
  <line x1="313.3" y1="49.0" x2="313.3" y2="229.0" stroke="#e5e7eb" stroke-width="1"/>
  <line x1="369.2" y1="49.0" x2="369.2" y2="229.0" stroke="#e5e7eb" stroke-width="1"/>
  <line x1="425.0" y1="49.0" x2="425.0" y2="229.0" stroke="#e5e7eb" stroke-width="1"/>
  <line x1="480.8" y1="49.0" x2="480.8" y2="229.0" stroke="#e5e7eb" stroke-width="1"/>
  <line x1="536.7" y1="49.0" x2="536.7" y2="229.0" stroke="#e5e7eb" stroke-width="1"/>
  <line x1="592.5" y1="49.0" x2="592.5" y2="229.0" stroke="#e5e7eb" stroke-width="1"/>
  <line x1="648.3" y1="49.0" x2="648.3" y2="229.0" stroke="#e5e7eb" stroke-width="1"/>
  <line x1="704.2" y1="49.0" x2="704.2" y2="229.0" stroke="#e5e7eb" stroke-width="1"/>
  <line x1="760.0" y1="49.0" x2="760.0" y2="229.0" stroke="#e5e7eb" stroke-width="1"/>
  <line x1="90.0" y1="49.0" x2="90.0" y2="229.0" stroke="#9ca3af" stroke-width="1.5"/>
  <line x1="760.0" y1="49.0" x2="760.0" y2="229.0" stroke="#9ca3af" stroke-width="1.5"/>
  <line x1="90.0" y1="229.0" x2="760.0" y2="229.0" stroke="#9ca3af" stroke-width="1.5"/>
  <text x="40.0" y="139.0" text-anchor="middle" fill="#374151" font-size="10" font-weight="600" transform="rotate(-90,40.0,139.0)">p50 latency (µs)</text>
  <polyline points="90.0,124.2 145.8,123.8 201.7,128.7 257.5,125.8 313.3,126.2 369.2,125.3 425.0,125.1 480.8,125.0 536.7,123.7 592.5,125.3 648.3,118.8 704.2,117.6 760.0,117.7" fill="none" stroke="#eab308" stroke-width="2" stroke-dasharray="2,3"/>
  <polyline points="90.0,93.5 145.8,92.0 201.7,90.0 257.5,95.9 313.3,103.6 369.2,95.7 425.0,100.5 480.8,87.6 536.7,93.5 592.5,94.8 648.3,94.6 704.2,94.6 760.0,104.5" fill="none" stroke="#dc2626" stroke-width="2" stroke-dasharray="2,3"/>
  <polyline points="90.0,129.2 145.8,128.5 201.7,125.8 257.5,127.6 313.3,126.5 369.2,127.4 425.0,124.5 480.8,129.3 536.7,125.2 592.5,127.1 648.3,126.1 704.2,129.9 760.0,127.3" fill="none" stroke="#f97316" stroke-width="2" stroke-dasharray="2,3"/>
  <polyline points="90.0,121.1 145.8,120.2 201.7,121.9 257.5,118.0 313.3,120.3 369.2,121.2 425.0,121.8 480.8,118.0 536.7,119.5 592.5,119.5 648.3,120.6 704.2,120.5 760.0,124.2" fill="none" stroke="#7c3aed" stroke-width="2" stroke-dasharray="2,3"/>
  <polyline points="90.0,119.5 145.8,125.0 201.7,119.8 257.5,131.6 313.3,124.2 369.2,115.8 425.0,121.9 480.8,121.7 536.7,119.1 592.5,112.3 648.3,93.2 704.2,93.0 760.0,72.1" fill="none" stroke="#eab308" stroke-width="2.5" stroke-linecap="round" stroke-linejoin="round"/>
  <circle cx="90.0" cy="119.5" r="3" fill="#eab308" stroke="white" stroke-width="1"/>
  <circle cx="145.8" cy="125.0" r="3" fill="#eab308" stroke="white" stroke-width="1"/>
  <circle cx="201.7" cy="119.8" r="3" fill="#eab308" stroke="white" stroke-width="1"/>
  <circle cx="257.5" cy="131.6" r="3" fill="#eab308" stroke="white" stroke-width="1"/>
  <circle cx="313.3" cy="124.2" r="3" fill="#eab308" stroke="white" stroke-width="1"/>
  <circle cx="369.2" cy="115.8" r="3" fill="#eab308" stroke="white" stroke-width="1"/>
  <circle cx="425.0" cy="121.9" r="3" fill="#eab308" stroke="white" stroke-width="1"/>
  <circle cx="480.8" cy="121.7" r="3" fill="#eab308" stroke="white" stroke-width="1"/>
  <circle cx="536.7" cy="119.1" r="3" fill="#eab308" stroke="white" stroke-width="1"/>
  <circle cx="592.5" cy="112.3" r="3" fill="#eab308" stroke="white" stroke-width="1"/>
  <circle cx="648.3" cy="93.2" r="3" fill="#eab308" stroke="white" stroke-width="1"/>
  <circle cx="704.2" cy="93.0" r="3" fill="#eab308" stroke="white" stroke-width="1"/>
  <circle cx="760.0" cy="72.1" r="3" fill="#eab308" stroke="white" stroke-width="1"/>
  <polyline points="90.0,126.5 145.8,121.4 201.7,121.2 257.5,112.2 313.3,106.3 369.2,110.4 425.0,112.1 480.8,120.0 536.7,112.1 592.5,106.8 648.3,103.1 704.2,109.2 760.0,93.4" fill="none" stroke="#dc2626" stroke-width="2.5" stroke-linecap="round" stroke-linejoin="round"/>
  <circle cx="90.0" cy="126.5" r="3" fill="#dc2626" stroke="white" stroke-width="1"/>
  <circle cx="145.8" cy="121.4" r="3" fill="#dc2626" stroke="white" stroke-width="1"/>
  <circle cx="201.7" cy="121.2" r="3" fill="#dc2626" stroke="white" stroke-width="1"/>
  <circle cx="257.5" cy="112.2" r="3" fill="#dc2626" stroke="white" stroke-width="1"/>
  <circle cx="313.3" cy="106.3" r="3" fill="#dc2626" stroke="white" stroke-width="1"/>
  <circle cx="369.2" cy="110.4" r="3" fill="#dc2626" stroke="white" stroke-width="1"/>
  <circle cx="425.0" cy="112.1" r="3" fill="#dc2626" stroke="white" stroke-width="1"/>
  <circle cx="480.8" cy="120.0" r="3" fill="#dc2626" stroke="white" stroke-width="1"/>
  <circle cx="536.7" cy="112.1" r="3" fill="#dc2626" stroke="white" stroke-width="1"/>
  <circle cx="592.5" cy="106.8" r="3" fill="#dc2626" stroke="white" stroke-width="1"/>
  <circle cx="648.3" cy="103.1" r="3" fill="#dc2626" stroke="white" stroke-width="1"/>
  <circle cx="704.2" cy="109.2" r="3" fill="#dc2626" stroke="white" stroke-width="1"/>
  <circle cx="760.0" cy="93.4" r="3" fill="#dc2626" stroke="white" stroke-width="1"/>
  <polyline points="90.0,169.5 145.8,169.5 201.7,169.3 257.5,170.5 313.3,170.0 369.2,170.2 425.0,169.1 480.8,168.6 536.7,168.9 592.5,166.3 648.3,163.1 704.2,159.3 760.0,149.4" fill="none" stroke="#f97316" stroke-width="2.5" stroke-linecap="round" stroke-linejoin="round"/>
  <circle cx="90.0" cy="169.5" r="3" fill="#f97316" stroke="white" stroke-width="1"/>
  <circle cx="145.8" cy="169.5" r="3" fill="#f97316" stroke="white" stroke-width="1"/>
  <circle cx="201.7" cy="169.3" r="3" fill="#f97316" stroke="white" stroke-width="1"/>
  <circle cx="257.5" cy="170.5" r="3" fill="#f97316" stroke="white" stroke-width="1"/>
  <circle cx="313.3" cy="170.0" r="3" fill="#f97316" stroke="white" stroke-width="1"/>
  <circle cx="369.2" cy="170.2" r="3" fill="#f97316" stroke="white" stroke-width="1"/>
  <circle cx="425.0" cy="169.1" r="3" fill="#f97316" stroke="white" stroke-width="1"/>
  <circle cx="480.8" cy="168.6" r="3" fill="#f97316" stroke="white" stroke-width="1"/>
  <circle cx="536.7" cy="168.9" r="3" fill="#f97316" stroke="white" stroke-width="1"/>
  <circle cx="592.5" cy="166.3" r="3" fill="#f97316" stroke="white" stroke-width="1"/>
  <circle cx="648.3" cy="163.1" r="3" fill="#f97316" stroke="white" stroke-width="1"/>
  <circle cx="704.2" cy="159.3" r="3" fill="#f97316" stroke="white" stroke-width="1"/>
  <circle cx="760.0" cy="149.4" r="3" fill="#f97316" stroke="white" stroke-width="1"/>
  <polyline points="90.0,170.7 145.8,169.1 201.7,169.9 257.5,169.5 313.3,169.1 369.2,170.3 425.0,169.3 480.8,168.2 536.7,167.5 592.5,165.3 648.3,162.4 704.2,158.5 760.0,143.8" fill="none" stroke="#7c3aed" stroke-width="2.5" stroke-linecap="round" stroke-linejoin="round"/>
  <circle cx="90.0" cy="170.7" r="3" fill="#7c3aed" stroke="white" stroke-width="1"/>
  <circle cx="145.8" cy="169.1" r="3" fill="#7c3aed" stroke="white" stroke-width="1"/>
  <circle cx="201.7" cy="169.9" r="3" fill="#7c3aed" stroke="white" stroke-width="1"/>
  <circle cx="257.5" cy="169.5" r="3" fill="#7c3aed" stroke="white" stroke-width="1"/>
  <circle cx="313.3" cy="169.1" r="3" fill="#7c3aed" stroke="white" stroke-width="1"/>
  <circle cx="369.2" cy="170.3" r="3" fill="#7c3aed" stroke="white" stroke-width="1"/>
  <circle cx="425.0" cy="169.3" r="3" fill="#7c3aed" stroke="white" stroke-width="1"/>
  <circle cx="480.8" cy="168.2" r="3" fill="#7c3aed" stroke="white" stroke-width="1"/>
  <circle cx="536.7" cy="167.5" r="3" fill="#7c3aed" stroke="white" stroke-width="1"/>
  <circle cx="592.5" cy="165.3" r="3" fill="#7c3aed" stroke="white" stroke-width="1"/>
  <circle cx="648.3" cy="162.4" r="3" fill="#7c3aed" stroke="white" stroke-width="1"/>
  <circle cx="704.2" cy="158.5" r="3" fill="#7c3aed" stroke="white" stroke-width="1"/>
  <circle cx="760.0" cy="143.8" r="3" fill="#7c3aed" stroke="white" stroke-width="1"/>
  <text x="90.0" y="243.0" text-anchor="middle" fill="#374151" font-size="8.5">8 B</text>
  <text x="145.8" y="243.0" text-anchor="middle" fill="#374151" font-size="8.5">16 B</text>
  <text x="201.7" y="243.0" text-anchor="middle" fill="#374151" font-size="8.5">32 B</text>
  <text x="257.5" y="243.0" text-anchor="middle" fill="#374151" font-size="8.5">64 B</text>
  <text x="313.3" y="243.0" text-anchor="middle" fill="#374151" font-size="8.5">128 B</text>
  <text x="369.2" y="243.0" text-anchor="middle" fill="#374151" font-size="8.5">256 B</text>
  <text x="425.0" y="243.0" text-anchor="middle" fill="#374151" font-size="8.5">512 B</text>
  <text x="480.8" y="243.0" text-anchor="middle" fill="#374151" font-size="8.5">1 KiB</text>
  <text x="536.7" y="243.0" text-anchor="middle" fill="#374151" font-size="8.5">2 KiB</text>
  <text x="592.5" y="243.0" text-anchor="middle" fill="#374151" font-size="8.5">4 KiB</text>
  <text x="648.3" y="243.0" text-anchor="middle" fill="#374151" font-size="8.5">8 KiB</text>
  <text x="704.2" y="243.0" text-anchor="middle" fill="#374151" font-size="8.5">16 KiB</text>
  <text x="760.0" y="243.0" text-anchor="middle" fill="#374151" font-size="8.5">32 KiB</text>
  <line x1="175" y1="269" x2="189" y2="269" stroke="#eab308" stroke-width="2.5"/>
  <circle cx="182" cy="269" r="2.5" fill="#eab308"/>
  <text x="195" y="273" fill="#374151" font-size="11" font-weight="500">libzmq v4.3.5</text>
  <line x1="300" y1="269" x2="314" y2="269" stroke="#7c3aed" stroke-width="2.5"/>
  <circle cx="307" cy="269" r="2.5" fill="#7c3aed"/>
  <text x="320" y="273" fill="#374151" font-size="11" font-weight="500">omq-compio</text>
  <line x1="425" y1="269" x2="439" y2="269" stroke="#f97316" stroke-width="2.5"/>
  <circle cx="432" cy="269" r="2.5" fill="#f97316"/>
  <text x="445" y="273" fill="#374151" font-size="11" font-weight="500">omq-tokio</text>
  <line x1="550" y1="269" x2="564" y2="269" stroke="#dc2626" stroke-width="2.5"/>
  <circle cx="557" cy="269" r="2.5" fill="#dc2626"/>
  <text x="570" y="273" fill="#374151" font-size="11" font-weight="500">omq-tokio (MT)</text>
  <line x1="265" y1="291" x2="279" y2="291" stroke="#6b7280" stroke-width="2.5"/>
  <circle cx="272" cy="291" r="2" fill="#6b7280"/>
  <text x="285" y="295" fill="#6b7280" font-size="10">p50 latency (left)</text>
  <line x1="435" y1="291" x2="449" y2="291" stroke="#6b7280" stroke-width="2" stroke-dasharray="2,3" opacity="0.7"/>
  <text x="455" y="295" fill="#6b7280" font-size="10">CPU % (right)</text>
</svg>
