<svg xmlns="http://www.w3.org/2000/svg" viewBox="0 0 850 385" font-family="system-ui, -apple-system, sans-serif">
  <rect width="850" height="385" fill="white"/>
  <text x="425.0" y="46" text-anchor="middle" fill="#9ca3af" font-size="10">Linux VM on a 2018 Mac Mini, Intel Core i7-8700B @ 3.20GHz, 6 cores, performance governor, turbo off</text>
  <text x="425.0" y="32.0" text-anchor="middle" fill="#111827" font-size="13" font-weight="700">REQ/REP latency: TCP loopback, 2-process (p50 µs)</text>
  <line x1="90.0" y1="205.0" x2="760.0" y2="205.0" stroke="#e5e7eb" stroke-width="1"/>
  <text x="82.0" y="205.0" text-anchor="end" dominant-baseline="middle" fill="#374151" font-size="10">20</text>
  <line x1="90.0" y1="181.0" x2="760.0" y2="181.0" stroke="#e5e7eb" stroke-width="1"/>
  <text x="82.0" y="181.0" text-anchor="end" dominant-baseline="middle" fill="#374151" font-size="10">40</text>
  <line x1="90.0" y1="157.0" x2="760.0" y2="157.0" stroke="#e5e7eb" stroke-width="1"/>
  <text x="82.0" y="157.0" text-anchor="end" dominant-baseline="middle" fill="#374151" font-size="10">60</text>
  <line x1="90.0" y1="133.0" x2="760.0" y2="133.0" stroke="#e5e7eb" stroke-width="1"/>
  <text x="82.0" y="133.0" text-anchor="end" dominant-baseline="middle" fill="#374151" font-size="10">80</text>
  <line x1="90.0" y1="109.0" x2="760.0" y2="109.0" stroke="#e5e7eb" stroke-width="1"/>
  <text x="82.0" y="109.0" text-anchor="end" dominant-baseline="middle" fill="#374151" font-size="10">100</text>
  <line x1="90.0" y1="85.0" x2="760.0" y2="85.0" stroke="#e5e7eb" stroke-width="1"/>
  <text x="82.0" y="85.0" text-anchor="end" dominant-baseline="middle" fill="#374151" font-size="10">120</text>
  <line x1="90.0" y1="61.0" x2="760.0" y2="61.0" stroke="#e5e7eb" stroke-width="1"/>
  <text x="82.0" y="61.0" text-anchor="end" dominant-baseline="middle" fill="#374151" font-size="10">140</text>
  <line x1="90.0" y1="184.0" x2="760.0" y2="184.0" stroke="#e5e7eb" stroke-width="1" stroke-dasharray="3,6"/>
  <text x="768.0" y="184.0" text-anchor="start" dominant-baseline="middle" fill="#6b7280" font-size="10">50%</text>
  <line x1="90.0" y1="139.0" x2="760.0" y2="139.0" stroke="#e5e7eb" stroke-width="1" stroke-dasharray="3,6"/>
  <text x="768.0" y="139.0" text-anchor="start" dominant-baseline="middle" fill="#6b7280" font-size="10">100%</text>
  <line x1="90.0" y1="94.0" x2="760.0" y2="94.0" stroke="#e5e7eb" stroke-width="1" stroke-dasharray="3,6"/>
  <text x="768.0" y="94.0" text-anchor="start" dominant-baseline="middle" fill="#6b7280" font-size="10">150%</text>
  <line x1="90.0" y1="49.0" x2="760.0" y2="49.0" stroke="#e5e7eb" stroke-width="1" stroke-dasharray="3,6"/>
  <text x="768.0" y="49.0" text-anchor="start" dominant-baseline="middle" fill="#6b7280" font-size="10">200%</text>
  <line x1="90.0" y1="49.0" x2="90.0" y2="229.0" stroke="#e5e7eb" stroke-width="1"/>
  <line x1="224.0" y1="49.0" x2="224.0" y2="229.0" stroke="#e5e7eb" stroke-width="1"/>
  <line x1="358.0" y1="49.0" x2="358.0" y2="229.0" stroke="#e5e7eb" stroke-width="1"/>
  <line x1="492.0" y1="49.0" x2="492.0" y2="229.0" stroke="#e5e7eb" stroke-width="1"/>
  <line x1="626.0" y1="49.0" x2="626.0" y2="229.0" stroke="#e5e7eb" stroke-width="1"/>
  <line x1="760.0" y1="49.0" x2="760.0" y2="229.0" stroke="#e5e7eb" stroke-width="1"/>
  <line x1="90.0" y1="49.0" x2="90.0" y2="229.0" stroke="#9ca3af" stroke-width="1.5"/>
  <line x1="760.0" y1="49.0" x2="760.0" y2="229.0" stroke="#9ca3af" stroke-width="1.5"/>
  <line x1="90.0" y1="229.0" x2="760.0" y2="229.0" stroke="#9ca3af" stroke-width="1.5"/>
  <text x="40.0" y="139.0" text-anchor="middle" fill="#374151" font-size="10" font-weight="600" transform="rotate(-90,40.0,139.0)">p50 latency (µs)</text>
  <polyline points="90.0,142.6 224.0,143.8 358.0,141.2 492.0,146.4 626.0,142.7 760.0,147.9" fill="none" stroke="#15803d" stroke-width="1.6" stroke-dasharray="2,5" opacity="0.85"/>
  <polyline points="90.0,179.0 224.0,179.3 358.0,179.2 492.0,180.0 626.0,179.5 760.0,175.1" fill="none" stroke="#eab308" stroke-width="1.6" stroke-dasharray="2,5" opacity="0.85"/>
  <polyline points="90.0,177.4 224.0,180.5 358.0,178.8 492.0,179.0 626.0,178.2 760.0,175.4" fill="none" stroke="#a16207" stroke-width="1.6" stroke-dasharray="2,5" opacity="0.85"/>
  <polyline points="90.0,177.1 224.0,164.3 358.0,166.4 492.0,175.4 626.0,168.7 760.0,165.5" fill="none" stroke="#dc2626" stroke-width="1.6" stroke-dasharray="2,5" opacity="0.85"/>
  <polyline points="90.0,183.6 224.0,183.5 358.0,181.0 492.0,182.9 626.0,182.3 760.0,181.5" fill="none" stroke="#f97316" stroke-width="1.6" stroke-dasharray="2,5" opacity="0.85"/>
  <polyline points="90.0,173.2 224.0,171.7 358.0,172.7 492.0,173.6 626.0,172.9 760.0,173.7" fill="none" stroke="#16a34a" stroke-width="1.6" stroke-dasharray="2,5" opacity="0.85"/>
  <polyline points="90.0,180.8 224.0,181.7 358.0,182.9 492.0,180.0 626.0,183.2 760.0,182.0" fill="none" stroke="#2563eb" stroke-width="1.6" stroke-dasharray="2,5" opacity="0.85"/>
  <polyline points="90.0,161.8 224.0,154.9 358.0,155.8 492.0,156.2 626.0,153.2 760.0,146.5" fill="none" stroke="#15803d" stroke-width="2.5" stroke-linecap="round" stroke-linejoin="round"/>
  <circle cx="90.0" cy="161.8" r="3" fill="#15803d" stroke="white" stroke-width="1"/>
  <circle cx="224.0" cy="154.9" r="3" fill="#15803d" stroke="white" stroke-width="1"/>
  <circle cx="358.0" cy="155.8" r="3" fill="#15803d" stroke="white" stroke-width="1"/>
  <circle cx="492.0" cy="156.2" r="3" fill="#15803d" stroke="white" stroke-width="1"/>
  <circle cx="626.0" cy="153.2" r="3" fill="#15803d" stroke="white" stroke-width="1"/>
  <circle cx="760.0" cy="146.5" r="3" fill="#15803d" stroke="white" stroke-width="1"/>
  <polyline points="90.0,115.5 224.0,123.4 358.0,116.4 492.0,119.8 626.0,112.8 760.0,95.8" fill="none" stroke="#eab308" stroke-width="2.5" stroke-linecap="round" stroke-linejoin="round"/>
  <circle cx="90.0" cy="115.5" r="3" fill="#eab308" stroke="white" stroke-width="1"/>
  <circle cx="224.0" cy="123.4" r="3" fill="#eab308" stroke="white" stroke-width="1"/>
  <circle cx="358.0" cy="116.4" r="3" fill="#eab308" stroke="white" stroke-width="1"/>
  <circle cx="492.0" cy="119.8" r="3" fill="#eab308" stroke="white" stroke-width="1"/>
  <circle cx="626.0" cy="112.8" r="3" fill="#eab308" stroke="white" stroke-width="1"/>
  <circle cx="760.0" cy="95.8" r="3" fill="#eab308" stroke="white" stroke-width="1"/>
  <polyline points="90.0,119.4 224.0,117.3 358.0,115.1 492.0,119.0 626.0,112.4 760.0,90.8" fill="none" stroke="#a16207" stroke-width="2.5" stroke-linecap="round" stroke-linejoin="round"/>
  <circle cx="90.0" cy="119.4" r="3" fill="#a16207" stroke="white" stroke-width="1"/>
  <circle cx="224.0" cy="117.3" r="3" fill="#a16207" stroke="white" stroke-width="1"/>
  <circle cx="358.0" cy="115.1" r="3" fill="#a16207" stroke="white" stroke-width="1"/>
  <circle cx="492.0" cy="119.0" r="3" fill="#a16207" stroke="white" stroke-width="1"/>
  <circle cx="626.0" cy="112.4" r="3" fill="#a16207" stroke="white" stroke-width="1"/>
  <circle cx="760.0" cy="90.8" r="3" fill="#a16207" stroke="white" stroke-width="1"/>
  <polyline points="90.0,126.2 224.0,126.8 358.0,119.0 492.0,117.4 626.0,111.5 760.0,111.8" fill="none" stroke="#dc2626" stroke-width="2.5" stroke-linecap="round" stroke-linejoin="round"/>
  <circle cx="90.0" cy="126.2" r="3" fill="#dc2626" stroke="white" stroke-width="1"/>
  <circle cx="224.0" cy="126.8" r="3" fill="#dc2626" stroke="white" stroke-width="1"/>
  <circle cx="358.0" cy="119.0" r="3" fill="#dc2626" stroke="white" stroke-width="1"/>
  <circle cx="492.0" cy="117.4" r="3" fill="#dc2626" stroke="white" stroke-width="1"/>
  <circle cx="626.0" cy="111.5" r="3" fill="#dc2626" stroke="white" stroke-width="1"/>
  <circle cx="760.0" cy="111.8" r="3" fill="#dc2626" stroke="white" stroke-width="1"/>
  <polyline points="90.0,168.7 224.0,167.5 358.0,169.8 492.0,167.2 626.0,163.0 760.0,153.5" fill="none" stroke="#f97316" stroke-width="2.5" stroke-linecap="round" stroke-linejoin="round"/>
  <circle cx="90.0" cy="168.7" r="3" fill="#f97316" stroke="white" stroke-width="1"/>
  <circle cx="224.0" cy="167.5" r="3" fill="#f97316" stroke="white" stroke-width="1"/>
  <circle cx="358.0" cy="169.8" r="3" fill="#f97316" stroke="white" stroke-width="1"/>
  <circle cx="492.0" cy="167.2" r="3" fill="#f97316" stroke="white" stroke-width="1"/>
  <circle cx="626.0" cy="163.0" r="3" fill="#f97316" stroke="white" stroke-width="1"/>
  <circle cx="760.0" cy="153.5" r="3" fill="#f97316" stroke="white" stroke-width="1"/>
  <polyline points="90.0,102.9 224.0,113.9 358.0,101.1 492.0,106.4 626.0,108.0 760.0,90.0" fill="none" stroke="#16a34a" stroke-width="2.5" stroke-linecap="round" stroke-linejoin="round"/>
  <circle cx="90.0" cy="102.9" r="3" fill="#16a34a" stroke="white" stroke-width="1"/>
  <circle cx="224.0" cy="113.9" r="3" fill="#16a34a" stroke="white" stroke-width="1"/>
  <circle cx="358.0" cy="101.1" r="3" fill="#16a34a" stroke="white" stroke-width="1"/>
  <circle cx="492.0" cy="106.4" r="3" fill="#16a34a" stroke="white" stroke-width="1"/>
  <circle cx="626.0" cy="108.0" r="3" fill="#16a34a" stroke="white" stroke-width="1"/>
  <circle cx="760.0" cy="90.0" r="3" fill="#16a34a" stroke="white" stroke-width="1"/>
  <polyline points="90.0,162.9 224.0,163.5 358.0,163.7 492.0,164.7 626.0,153.4 760.0,140.3" fill="none" stroke="#2563eb" stroke-width="2.5" stroke-linecap="round" stroke-linejoin="round"/>
  <circle cx="90.0" cy="162.9" r="3" fill="#2563eb" stroke="white" stroke-width="1"/>
  <circle cx="224.0" cy="163.5" r="3" fill="#2563eb" stroke="white" stroke-width="1"/>
  <circle cx="358.0" cy="163.7" r="3" fill="#2563eb" stroke="white" stroke-width="1"/>
  <circle cx="492.0" cy="164.7" r="3" fill="#2563eb" stroke="white" stroke-width="1"/>
  <circle cx="626.0" cy="153.4" r="3" fill="#2563eb" stroke="white" stroke-width="1"/>
  <circle cx="760.0" cy="140.3" r="3" fill="#2563eb" stroke="white" stroke-width="1"/>
  <text x="90.0" y="243.0" text-anchor="middle" fill="#374151" font-size="8.5">16 B</text>
  <text x="224.0" y="243.0" text-anchor="middle" fill="#374151" font-size="8.5">64 B</text>
  <text x="358.0" y="243.0" text-anchor="middle" fill="#374151" font-size="8.5">256 B</text>
  <text x="492.0" y="243.0" text-anchor="middle" fill="#374151" font-size="8.5">1 KiB</text>
  <text x="626.0" y="243.0" text-anchor="middle" fill="#374151" font-size="8.5">4 KiB</text>
  <text x="760.0" y="243.0" text-anchor="middle" fill="#374151" font-size="8.5">16 KiB</text>
  <line x1="45" y1="269" x2="59" y2="269" stroke="#eab308" stroke-width="2.5"/>
  <circle cx="52" cy="269" r="2.5" fill="#eab308"/>
  <text x="65" y="273" fill="#374151" font-size="11" font-weight="500">libzmq v4.3.5 (1T)</text>
  <line x1="235" y1="269" x2="249" y2="269" stroke="#a16207" stroke-width="2.5"/>
  <circle cx="242" cy="269" r="2.5" fill="#a16207"/>
  <text x="255" y="273" fill="#374151" font-size="11" font-weight="500">libzmq v4.3.5 (4T)</text>
  <line x1="425" y1="269" x2="439" y2="269" stroke="#f97316" stroke-width="2.5"/>
  <circle cx="432" cy="269" r="2.5" fill="#f97316"/>
  <text x="445" y="273" fill="#374151" font-size="11" font-weight="500">omq-tokio (1T)</text>
  <line x1="615" y1="269" x2="629" y2="269" stroke="#dc2626" stroke-width="2.5"/>
  <circle cx="622" cy="269" r="2.5" fill="#dc2626"/>
  <text x="635" y="273" fill="#374151" font-size="11" font-weight="500">omq-tokio (2T)</text>
  <line x1="140" y1="289" x2="154" y2="289" stroke="#2563eb" stroke-width="2.5"/>
  <circle cx="147" cy="289" r="2.5" fill="#2563eb"/>
  <text x="160" y="293" fill="#374151" font-size="11" font-weight="500">zmq.rs v0.6.0 [6T]</text>
  <line x1="330" y1="289" x2="344" y2="289" stroke="#16a34a" stroke-width="2.5"/>
  <circle cx="337" cy="289" r="2.5" fill="#16a34a"/>
  <text x="350" y="293" fill="#374151" font-size="11" font-weight="500">rzmq v0.5.24 [6T]</text>
  <line x1="520" y1="289" x2="534" y2="289" stroke="#15803d" stroke-width="2.5"/>
  <circle cx="527" cy="289" r="2.5" fill="#15803d"/>
  <text x="540" y="293" fill="#374151" font-size="11" font-weight="500">rzmq v0.5.24 (io_uring) [6T]</text>
  <text x="45" y="307" fill="#9ca3af" font-size="9">(nT) = configurable IO threads</text>
  <text x="45" y="320" fill="#9ca3af" font-size="9">[nT] = fixed IO threads</text>
  <line x1="265" y1="342" x2="279" y2="342" stroke="#6b7280" stroke-width="2.5"/>
  <circle cx="272" cy="342" r="2" fill="#6b7280"/>
  <text x="285" y="346" fill="#6b7280" font-size="10">p50 latency (left)</text>
  <line x1="435" y1="342" x2="449" y2="342" stroke="#6b7280" stroke-width="1.6" stroke-dasharray="2,5" opacity="0.85"/>
  <text x="455" y="346" fill="#6b7280" font-size="10">CPU % (right)</text>
</svg>
