<svg xmlns="http://www.w3.org/2000/svg" viewBox="0 0 850 684" font-family="system-ui, -apple-system, sans-serif">
  <rect width="850" height="684" fill="white"/>
  <text x="425.0" y="32" text-anchor="middle" fill="#111827" font-size="13" font-weight="700">PUSH/PULL throughput: 2-process, TCP loopback (higher is better)</text>
  <text x="425.0" y="46" text-anchor="middle" fill="#9ca3af" font-size="10">Intel Core i7-8700B @ 3.20GHz, 6 cores, performance governor,  turbo off</text>
  <line x1="90" y1="342.1" x2="760" y2="342.1" stroke="#e5e7eb" stroke-width="1"/>
  <text x="82" y="342.1" text-anchor="end" dominant-baseline="middle" fill="#374151" font-size="10">500k</text>
  <text x="768" y="342.1" text-anchor="start" dominant-baseline="middle" fill="#6b7280" font-size="10">500 MB/s</text>
  <line x1="90" y1="300.2" x2="760" y2="300.2" stroke="#e5e7eb" stroke-width="1"/>
  <text x="82" y="300.2" text-anchor="end" dominant-baseline="middle" fill="#374151" font-size="10">1M</text>
  <text x="768" y="300.2" text-anchor="start" dominant-baseline="middle" fill="#6b7280" font-size="10">1.0 GB/s</text>
  <line x1="90" y1="258.4" x2="760" y2="258.4" stroke="#e5e7eb" stroke-width="1"/>
  <text x="82" y="258.4" text-anchor="end" dominant-baseline="middle" fill="#374151" font-size="10">1.5M</text>
  <text x="768" y="258.4" text-anchor="start" dominant-baseline="middle" fill="#6b7280" font-size="10">1.5 GB/s</text>
  <line x1="90" y1="216.5" x2="760" y2="216.5" stroke="#e5e7eb" stroke-width="1"/>
  <text x="82" y="216.5" text-anchor="end" dominant-baseline="middle" fill="#374151" font-size="10">2M</text>
  <text x="768" y="216.5" text-anchor="start" dominant-baseline="middle" fill="#6b7280" font-size="10">2.0 GB/s</text>
  <line x1="90" y1="174.6" x2="760" y2="174.6" stroke="#e5e7eb" stroke-width="1"/>
  <text x="82" y="174.6" text-anchor="end" dominant-baseline="middle" fill="#374151" font-size="10">2.5M</text>
  <text x="768" y="174.6" text-anchor="start" dominant-baseline="middle" fill="#6b7280" font-size="10">2.5 GB/s</text>
  <line x1="90" y1="132.8" x2="760" y2="132.8" stroke="#e5e7eb" stroke-width="1"/>
  <text x="82" y="132.8" text-anchor="end" dominant-baseline="middle" fill="#374151" font-size="10">3M</text>
  <text x="768" y="132.8" text-anchor="start" dominant-baseline="middle" fill="#6b7280" font-size="10">3.0 GB/s</text>
  <line x1="90" y1="90.9" x2="760" y2="90.9" stroke="#e5e7eb" stroke-width="1"/>
  <text x="82" y="90.9" text-anchor="end" dominant-baseline="middle" fill="#374151" font-size="10">3.5M</text>
  <text x="768" y="90.9" text-anchor="start" dominant-baseline="middle" fill="#6b7280" font-size="10">3.5 GB/s</text>
  <line x1="90" y1="49.0" x2="760" y2="49.0" stroke="#e5e7eb" stroke-width="1"/>
  <text x="82" y="49.0" text-anchor="end" dominant-baseline="middle" fill="#374151" font-size="10">4M</text>
  <text x="768" y="49.0" text-anchor="start" dominant-baseline="middle" fill="#6b7280" font-size="10">4.0 GB/s</text>
  <line x1="90.0" y1="49" x2="90.0" y2="384" stroke="#e5e7eb" stroke-width="1"/>
  <line x1="145.8" y1="49" x2="145.8" y2="384" stroke="#e5e7eb" stroke-width="1"/>
  <line x1="201.7" y1="49" x2="201.7" y2="384" stroke="#e5e7eb" stroke-width="1"/>
  <line x1="257.5" y1="49" x2="257.5" y2="384" stroke="#e5e7eb" stroke-width="1"/>
  <line x1="313.3" y1="49" x2="313.3" y2="384" stroke="#e5e7eb" stroke-width="1"/>
  <line x1="369.2" y1="49" x2="369.2" y2="384" stroke="#e5e7eb" stroke-width="1"/>
  <line x1="425.0" y1="49" x2="425.0" y2="384" stroke="#e5e7eb" stroke-width="1"/>
  <line x1="480.8" y1="49" x2="480.8" y2="384" stroke="#e5e7eb" stroke-width="1"/>
  <line x1="536.7" y1="49" x2="536.7" y2="384" stroke="#e5e7eb" stroke-width="1"/>
  <line x1="592.5" y1="49" x2="592.5" y2="384" stroke="#e5e7eb" stroke-width="1"/>
  <line x1="648.3" y1="49" x2="648.3" y2="384" stroke="#e5e7eb" stroke-width="1"/>
  <line x1="704.2" y1="49" x2="704.2" y2="384" stroke="#e5e7eb" stroke-width="1"/>
  <line x1="760.0" y1="49" x2="760.0" y2="384" stroke="#e5e7eb" stroke-width="1"/>
  <line x1="90" y1="49" x2="90" y2="384" stroke="#9ca3af" stroke-width="1.5"/>
  <line x1="760" y1="49" x2="760" y2="384" stroke="#9ca3af" stroke-width="1.5"/>
  <line x1="90" y1="384" x2="760" y2="384" stroke="#9ca3af" stroke-width="1.5"/>
  <text x="40" y="216" text-anchor="middle" dominant-baseline="middle" fill="#374151" font-size="10" font-weight="600" transform="rotate(-90,40,216)">msg/s</text>
  <polyline points="90.0,181.3 145.8,175.3 201.7,174.3 257.5,173.2 313.3,208.7 369.2,212.6 425.0,210.1 480.8,271.2 536.7,313.8 592.5,339.1 648.3,355.0 704.2,367.2 760.0,374.3" fill="none" stroke="#dc2626" stroke-width="2" stroke-dasharray="6,4"/>
  <polyline points="90.0,303.6 145.8,302.6 201.7,302.5 257.5,301.4 313.3,305.6 369.2,308.3 425.0,310.3 480.8,315.0 536.7,321.3 592.5,339.4 648.3,355.5 704.2,367.6 760.0,374.5" fill="none" stroke="#f97316" stroke-width="2" stroke-dasharray="6,4"/>
  <polyline points="90.0,288.4 145.8,286.4 201.7,285.5 257.5,297.8 313.3,313.9 369.2,322.2 425.0,319.9 480.8,334.3 536.7,349.5 592.5,363.5 648.3,373.0 704.2,378.1 760.0,379.4" fill="none" stroke="#2563eb" stroke-width="2" stroke-dasharray="6,4"/>
  <polyline points="90.0,379.8 145.8,379.7 201.7,379.7 257.5,379.7 313.3,380.0 369.2,379.9 425.0,379.8 480.8,379.9 536.7,380.0 592.5,380.1 648.3,380.2 704.2,380.3 760.0,380.6" fill="none" stroke="#8b5cf6" stroke-width="2" stroke-dasharray="6,4"/>
  <polyline points="90.0,382.4 145.8,380.7 201.7,377.3 257.5,370.5 313.3,361.6 369.2,340.1 425.0,295.0 480.8,268.5 536.7,240.3 592.5,200.2 648.3,146.4 704.2,109.4 760.0,65.9" fill="none" stroke="#dc2626" stroke-width="2.5" stroke-linecap="round" stroke-linejoin="round"/>
  <circle cx="90.0" cy="382.4" r="3" fill="#dc2626" stroke="white" stroke-width="1"/>
  <circle cx="145.8" cy="380.7" r="3" fill="#dc2626" stroke="white" stroke-width="1"/>
  <circle cx="201.7" cy="377.3" r="3" fill="#dc2626" stroke="white" stroke-width="1"/>
  <circle cx="257.5" cy="370.5" r="3" fill="#dc2626" stroke="white" stroke-width="1"/>
  <circle cx="313.3" cy="361.6" r="3" fill="#dc2626" stroke="white" stroke-width="1"/>
  <circle cx="369.2" cy="340.1" r="3" fill="#dc2626" stroke="white" stroke-width="1"/>
  <circle cx="425.0" cy="295.0" r="3" fill="#dc2626" stroke="white" stroke-width="1"/>
  <circle cx="480.8" cy="268.5" r="3" fill="#dc2626" stroke="white" stroke-width="1"/>
  <circle cx="536.7" cy="240.3" r="3" fill="#dc2626" stroke="white" stroke-width="1"/>
  <circle cx="592.5" cy="200.2" r="3" fill="#dc2626" stroke="white" stroke-width="1"/>
  <circle cx="648.3" cy="146.4" r="3" fill="#dc2626" stroke="white" stroke-width="1"/>
  <circle cx="704.2" cy="109.4" r="3" fill="#dc2626" stroke="white" stroke-width="1"/>
  <circle cx="760.0" cy="65.9" r="3" fill="#dc2626" stroke="white" stroke-width="1"/>
  <polyline points="90.0,383.4 145.8,382.7 201.7,381.4 257.5,378.7 313.3,374.0 369.2,364.6 425.0,346.3 480.8,313.3 536.7,255.6 592.5,201.4 648.3,150.3 704.2,114.9 760.0,72.9" fill="none" stroke="#f97316" stroke-width="2.5" stroke-linecap="round" stroke-linejoin="round"/>
  <circle cx="90.0" cy="383.4" r="3" fill="#f97316" stroke="white" stroke-width="1"/>
  <circle cx="145.8" cy="382.7" r="3" fill="#f97316" stroke="white" stroke-width="1"/>
  <circle cx="201.7" cy="381.4" r="3" fill="#f97316" stroke="white" stroke-width="1"/>
  <circle cx="257.5" cy="378.7" r="3" fill="#f97316" stroke="white" stroke-width="1"/>
  <circle cx="313.3" cy="374.0" r="3" fill="#f97316" stroke="white" stroke-width="1"/>
  <circle cx="369.2" cy="364.6" r="3" fill="#f97316" stroke="white" stroke-width="1"/>
  <circle cx="425.0" cy="346.3" r="3" fill="#f97316" stroke="white" stroke-width="1"/>
  <circle cx="480.8" cy="313.3" r="3" fill="#f97316" stroke="white" stroke-width="1"/>
  <circle cx="536.7" cy="255.6" r="3" fill="#f97316" stroke="white" stroke-width="1"/>
  <circle cx="592.5" cy="201.4" r="3" fill="#f97316" stroke="white" stroke-width="1"/>
  <circle cx="648.3" cy="150.3" r="3" fill="#f97316" stroke="white" stroke-width="1"/>
  <circle cx="704.2" cy="114.9" r="3" fill="#f97316" stroke="white" stroke-width="1"/>
  <circle cx="760.0" cy="72.9" r="3" fill="#f97316" stroke="white" stroke-width="1"/>
  <polyline points="90.0,383.2 145.8,382.4 201.7,380.8 257.5,378.5 313.3,375.0 369.2,368.2 425.0,351.2 480.8,333.1 536.7,313.4 592.5,300.0 648.3,293.8 704.2,287.6 760.0,231.8" fill="none" stroke="#2563eb" stroke-width="2.5" stroke-linecap="round" stroke-linejoin="round"/>
  <circle cx="90.0" cy="383.2" r="3" fill="#2563eb" stroke="white" stroke-width="1"/>
  <circle cx="145.8" cy="382.4" r="3" fill="#2563eb" stroke="white" stroke-width="1"/>
  <circle cx="201.7" cy="380.8" r="3" fill="#2563eb" stroke="white" stroke-width="1"/>
  <circle cx="257.5" cy="378.5" r="3" fill="#2563eb" stroke="white" stroke-width="1"/>
  <circle cx="313.3" cy="375.0" r="3" fill="#2563eb" stroke="white" stroke-width="1"/>
  <circle cx="369.2" cy="368.2" r="3" fill="#2563eb" stroke="white" stroke-width="1"/>
  <circle cx="425.0" cy="351.2" r="3" fill="#2563eb" stroke="white" stroke-width="1"/>
  <circle cx="480.8" cy="333.1" r="3" fill="#2563eb" stroke="white" stroke-width="1"/>
  <circle cx="536.7" cy="313.4" r="3" fill="#2563eb" stroke="white" stroke-width="1"/>
  <circle cx="592.5" cy="300.0" r="3" fill="#2563eb" stroke="white" stroke-width="1"/>
  <circle cx="648.3" cy="293.8" r="3" fill="#2563eb" stroke="white" stroke-width="1"/>
  <circle cx="704.2" cy="287.6" r="3" fill="#2563eb" stroke="white" stroke-width="1"/>
  <circle cx="760.0" cy="231.8" r="3" fill="#2563eb" stroke="white" stroke-width="1"/>
  <polyline points="90.0,384.0 145.8,383.9 201.7,383.9 257.5,383.7 313.3,383.5 369.2,382.9 425.0,381.8 480.8,379.8 536.7,375.7 592.5,367.9 648.3,352.7 704.2,323.1 760.0,272.9" fill="none" stroke="#8b5cf6" stroke-width="2.5" stroke-linecap="round" stroke-linejoin="round"/>
  <circle cx="90.0" cy="384.0" r="3" fill="#8b5cf6" stroke="white" stroke-width="1"/>
  <circle cx="145.8" cy="383.9" r="3" fill="#8b5cf6" stroke="white" stroke-width="1"/>
  <circle cx="201.7" cy="383.9" r="3" fill="#8b5cf6" stroke="white" stroke-width="1"/>
  <circle cx="257.5" cy="383.7" r="3" fill="#8b5cf6" stroke="white" stroke-width="1"/>
  <circle cx="313.3" cy="383.5" r="3" fill="#8b5cf6" stroke="white" stroke-width="1"/>
  <circle cx="369.2" cy="382.9" r="3" fill="#8b5cf6" stroke="white" stroke-width="1"/>
  <circle cx="425.0" cy="381.8" r="3" fill="#8b5cf6" stroke="white" stroke-width="1"/>
  <circle cx="480.8" cy="379.8" r="3" fill="#8b5cf6" stroke="white" stroke-width="1"/>
  <circle cx="536.7" cy="375.7" r="3" fill="#8b5cf6" stroke="white" stroke-width="1"/>
  <circle cx="592.5" cy="367.9" r="3" fill="#8b5cf6" stroke="white" stroke-width="1"/>
  <circle cx="648.3" cy="352.7" r="3" fill="#8b5cf6" stroke="white" stroke-width="1"/>
  <circle cx="704.2" cy="323.1" r="3" fill="#8b5cf6" stroke="white" stroke-width="1"/>
  <circle cx="760.0" cy="272.9" r="3" fill="#8b5cf6" stroke="white" stroke-width="1"/>
  <text x="90.0" y="398" text-anchor="middle" fill="#374151" font-size="8.5">8 B</text>
  <text x="145.8" y="398" text-anchor="middle" fill="#374151" font-size="8.5">16 B</text>
  <text x="201.7" y="398" text-anchor="middle" fill="#374151" font-size="8.5">32 B</text>
  <text x="257.5" y="398" text-anchor="middle" fill="#374151" font-size="8.5">64 B</text>
  <text x="313.3" y="398" text-anchor="middle" fill="#374151" font-size="8.5">128 B</text>
  <text x="369.2" y="398" text-anchor="middle" fill="#374151" font-size="8.5">256 B</text>
  <text x="425.0" y="398" text-anchor="middle" fill="#374151" font-size="8.5">512 B</text>
  <text x="480.8" y="398" text-anchor="middle" fill="#374151" font-size="8.5">1 KiB</text>
  <text x="536.7" y="398" text-anchor="middle" fill="#374151" font-size="8.5">2 KiB</text>
  <text x="592.5" y="398" text-anchor="middle" fill="#374151" font-size="8.5">4 KiB</text>
  <text x="648.3" y="398" text-anchor="middle" fill="#374151" font-size="8.5">8 KiB</text>
  <text x="704.2" y="398" text-anchor="middle" fill="#374151" font-size="8.5">16 KiB</text>
  <text x="760.0" y="398" text-anchor="middle" fill="#374151" font-size="8.5">32 KiB</text>
  <text x="425.0" y="447" text-anchor="middle" fill="#111827" font-size="13" font-weight="700">REQ/REP latency: 2-process, TCP loopback, p50 µs (lower is better)</text>
  <line x1="90" y1="572.0" x2="760" y2="572.0" stroke="#e5e7eb" stroke-width="1"/>
  <text x="82" y="572.0" text-anchor="end" dominant-baseline="middle" fill="#374151" font-size="10">20 µs</text>
  <line x1="90" y1="560.0" x2="760" y2="560.0" stroke="#e5e7eb" stroke-width="1"/>
  <text x="82" y="560.0" text-anchor="end" dominant-baseline="middle" fill="#374151" font-size="10">40 µs</text>
  <line x1="90" y1="548.0" x2="760" y2="548.0" stroke="#e5e7eb" stroke-width="1"/>
  <text x="82" y="548.0" text-anchor="end" dominant-baseline="middle" fill="#374151" font-size="10">60 µs</text>
  <line x1="90" y1="536.0" x2="760" y2="536.0" stroke="#e5e7eb" stroke-width="1"/>
  <text x="82" y="536.0" text-anchor="end" dominant-baseline="middle" fill="#374151" font-size="10">80 µs</text>
  <line x1="90" y1="524.0" x2="760" y2="524.0" stroke="#e5e7eb" stroke-width="1"/>
  <text x="82" y="524.0" text-anchor="end" dominant-baseline="middle" fill="#374151" font-size="10">100 µs</text>
  <line x1="90" y1="512.0" x2="760" y2="512.0" stroke="#e5e7eb" stroke-width="1"/>
  <text x="82" y="512.0" text-anchor="end" dominant-baseline="middle" fill="#374151" font-size="10">120 µs</text>
  <line x1="90" y1="500.0" x2="760" y2="500.0" stroke="#e5e7eb" stroke-width="1"/>
  <text x="82" y="500.0" text-anchor="end" dominant-baseline="middle" fill="#374151" font-size="10">140 µs</text>
  <line x1="90" y1="488.0" x2="760" y2="488.0" stroke="#e5e7eb" stroke-width="1"/>
  <text x="82" y="488.0" text-anchor="end" dominant-baseline="middle" fill="#374151" font-size="10">160 µs</text>
  <line x1="90" y1="476.0" x2="760" y2="476.0" stroke="#e5e7eb" stroke-width="1"/>
  <text x="82" y="476.0" text-anchor="end" dominant-baseline="middle" fill="#374151" font-size="10">180 µs</text>
  <line x1="90" y1="464.0" x2="760" y2="464.0" stroke="#e5e7eb" stroke-width="1"/>
  <text x="82" y="464.0" text-anchor="end" dominant-baseline="middle" fill="#374151" font-size="10">200 µs</text>
  <line x1="90.0" y1="464" x2="90.0" y2="584" stroke="#e5e7eb" stroke-width="1"/>
  <line x1="145.8" y1="464" x2="145.8" y2="584" stroke="#e5e7eb" stroke-width="1"/>
  <line x1="201.7" y1="464" x2="201.7" y2="584" stroke="#e5e7eb" stroke-width="1"/>
  <line x1="257.5" y1="464" x2="257.5" y2="584" stroke="#e5e7eb" stroke-width="1"/>
  <line x1="313.3" y1="464" x2="313.3" y2="584" stroke="#e5e7eb" stroke-width="1"/>
  <line x1="369.2" y1="464" x2="369.2" y2="584" stroke="#e5e7eb" stroke-width="1"/>
  <line x1="425.0" y1="464" x2="425.0" y2="584" stroke="#e5e7eb" stroke-width="1"/>
  <line x1="480.8" y1="464" x2="480.8" y2="584" stroke="#e5e7eb" stroke-width="1"/>
  <line x1="536.7" y1="464" x2="536.7" y2="584" stroke="#e5e7eb" stroke-width="1"/>
  <line x1="592.5" y1="464" x2="592.5" y2="584" stroke="#e5e7eb" stroke-width="1"/>
  <line x1="648.3" y1="464" x2="648.3" y2="584" stroke="#e5e7eb" stroke-width="1"/>
  <line x1="704.2" y1="464" x2="704.2" y2="584" stroke="#e5e7eb" stroke-width="1"/>
  <line x1="760.0" y1="464" x2="760.0" y2="584" stroke="#e5e7eb" stroke-width="1"/>
  <line x1="90" y1="464" x2="90" y2="584" stroke="#9ca3af" stroke-width="1.5"/>
  <line x1="90" y1="584" x2="760" y2="584" stroke="#9ca3af" stroke-width="1.5"/>
  <text x="40" y="524" text-anchor="middle" dominant-baseline="middle" fill="#374151" font-size="10" font-weight="600" transform="rotate(-90,40,524)">p50 latency (µs)</text>
  <polyline points="90.0,535.3 145.8,535.1 201.7,535.6 257.5,534.9 313.3,535.0 369.2,534.4 425.0,534.8 480.8,534.4 536.7,532.8 592.5,531.1 648.3,529.8 704.2,527.6 760.0,522.2" fill="none" stroke="#dc2626" stroke-width="2.5" stroke-linecap="round" stroke-linejoin="round"/>
  <circle cx="90.0" cy="535.3" r="3" fill="#dc2626" stroke="white" stroke-width="1"/>
  <circle cx="145.8" cy="535.1" r="3" fill="#dc2626" stroke="white" stroke-width="1"/>
  <circle cx="201.7" cy="535.6" r="3" fill="#dc2626" stroke="white" stroke-width="1"/>
  <circle cx="257.5" cy="534.9" r="3" fill="#dc2626" stroke="white" stroke-width="1"/>
  <circle cx="313.3" cy="535.0" r="3" fill="#dc2626" stroke="white" stroke-width="1"/>
  <circle cx="369.2" cy="534.4" r="3" fill="#dc2626" stroke="white" stroke-width="1"/>
  <circle cx="425.0" cy="534.8" r="3" fill="#dc2626" stroke="white" stroke-width="1"/>
  <circle cx="480.8" cy="534.4" r="3" fill="#dc2626" stroke="white" stroke-width="1"/>
  <circle cx="536.7" cy="532.8" r="3" fill="#dc2626" stroke="white" stroke-width="1"/>
  <circle cx="592.5" cy="531.1" r="3" fill="#dc2626" stroke="white" stroke-width="1"/>
  <circle cx="648.3" cy="529.8" r="3" fill="#dc2626" stroke="white" stroke-width="1"/>
  <circle cx="704.2" cy="527.6" r="3" fill="#dc2626" stroke="white" stroke-width="1"/>
  <circle cx="760.0" cy="522.2" r="3" fill="#dc2626" stroke="white" stroke-width="1"/>
  <polyline points="90.0,513.3 145.8,513.4 201.7,513.3 257.5,513.2 313.3,513.2 369.2,512.5 425.0,513.3 480.8,511.5 536.7,509.9 592.5,510.7 648.3,508.7 704.2,505.4 760.0,498.9" fill="none" stroke="#f97316" stroke-width="2.5" stroke-linecap="round" stroke-linejoin="round"/>
  <circle cx="90.0" cy="513.3" r="3" fill="#f97316" stroke="white" stroke-width="1"/>
  <circle cx="145.8" cy="513.4" r="3" fill="#f97316" stroke="white" stroke-width="1"/>
  <circle cx="201.7" cy="513.3" r="3" fill="#f97316" stroke="white" stroke-width="1"/>
  <circle cx="257.5" cy="513.2" r="3" fill="#f97316" stroke="white" stroke-width="1"/>
  <circle cx="313.3" cy="513.2" r="3" fill="#f97316" stroke="white" stroke-width="1"/>
  <circle cx="369.2" cy="512.5" r="3" fill="#f97316" stroke="white" stroke-width="1"/>
  <circle cx="425.0" cy="513.3" r="3" fill="#f97316" stroke="white" stroke-width="1"/>
  <circle cx="480.8" cy="511.5" r="3" fill="#f97316" stroke="white" stroke-width="1"/>
  <circle cx="536.7" cy="509.9" r="3" fill="#f97316" stroke="white" stroke-width="1"/>
  <circle cx="592.5" cy="510.7" r="3" fill="#f97316" stroke="white" stroke-width="1"/>
  <circle cx="648.3" cy="508.7" r="3" fill="#f97316" stroke="white" stroke-width="1"/>
  <circle cx="704.2" cy="505.4" r="3" fill="#f97316" stroke="white" stroke-width="1"/>
  <circle cx="760.0" cy="498.9" r="3" fill="#f97316" stroke="white" stroke-width="1"/>
  <polyline points="90.0,527.6 145.8,526.5 201.7,527.1 257.5,526.0 313.3,527.5 369.2,525.6 425.0,525.4 480.8,524.9 536.7,522.6 592.5,522.7 648.3,509.5 704.2,509.3 760.0,500.9" fill="none" stroke="#2563eb" stroke-width="2.5" stroke-linecap="round" stroke-linejoin="round"/>
  <circle cx="90.0" cy="527.6" r="3" fill="#2563eb" stroke="white" stroke-width="1"/>
  <circle cx="145.8" cy="526.5" r="3" fill="#2563eb" stroke="white" stroke-width="1"/>
  <circle cx="201.7" cy="527.1" r="3" fill="#2563eb" stroke="white" stroke-width="1"/>
  <circle cx="257.5" cy="526.0" r="3" fill="#2563eb" stroke="white" stroke-width="1"/>
  <circle cx="313.3" cy="527.5" r="3" fill="#2563eb" stroke="white" stroke-width="1"/>
  <circle cx="369.2" cy="525.6" r="3" fill="#2563eb" stroke="white" stroke-width="1"/>
  <circle cx="425.0" cy="525.4" r="3" fill="#2563eb" stroke="white" stroke-width="1"/>
  <circle cx="480.8" cy="524.9" r="3" fill="#2563eb" stroke="white" stroke-width="1"/>
  <circle cx="536.7" cy="522.6" r="3" fill="#2563eb" stroke="white" stroke-width="1"/>
  <circle cx="592.5" cy="522.7" r="3" fill="#2563eb" stroke="white" stroke-width="1"/>
  <circle cx="648.3" cy="509.5" r="3" fill="#2563eb" stroke="white" stroke-width="1"/>
  <circle cx="704.2" cy="509.3" r="3" fill="#2563eb" stroke="white" stroke-width="1"/>
  <circle cx="760.0" cy="500.9" r="3" fill="#2563eb" stroke="white" stroke-width="1"/>
  <polyline points="90.0,488.7 145.8,489.6 201.7,487.7 257.5,489.2 313.3,487.6 369.2,490.2 425.0,487.9 480.8,487.9 536.7,486.1 592.5,479.3 648.3,455.2 704.2,452.2 760.0,443.0" fill="none" stroke="#8b5cf6" stroke-width="2.5" stroke-linecap="round" stroke-linejoin="round"/>
  <circle cx="90.0" cy="488.7" r="3" fill="#8b5cf6" stroke="white" stroke-width="1"/>
  <circle cx="145.8" cy="489.6" r="3" fill="#8b5cf6" stroke="white" stroke-width="1"/>
  <circle cx="201.7" cy="487.7" r="3" fill="#8b5cf6" stroke="white" stroke-width="1"/>
  <circle cx="257.5" cy="489.2" r="3" fill="#8b5cf6" stroke="white" stroke-width="1"/>
  <circle cx="313.3" cy="487.6" r="3" fill="#8b5cf6" stroke="white" stroke-width="1"/>
  <circle cx="369.2" cy="490.2" r="3" fill="#8b5cf6" stroke="white" stroke-width="1"/>
  <circle cx="425.0" cy="487.9" r="3" fill="#8b5cf6" stroke="white" stroke-width="1"/>
  <circle cx="480.8" cy="487.9" r="3" fill="#8b5cf6" stroke="white" stroke-width="1"/>
  <circle cx="536.7" cy="486.1" r="3" fill="#8b5cf6" stroke="white" stroke-width="1"/>
  <circle cx="592.5" cy="479.3" r="3" fill="#8b5cf6" stroke="white" stroke-width="1"/>
  <circle cx="648.3" cy="455.2" r="3" fill="#8b5cf6" stroke="white" stroke-width="1"/>
  <circle cx="704.2" cy="452.2" r="3" fill="#8b5cf6" stroke="white" stroke-width="1"/>
  <circle cx="760.0" cy="443.0" r="3" fill="#8b5cf6" stroke="white" stroke-width="1"/>
  <text x="90.0" y="598" text-anchor="middle" fill="#374151" font-size="8.5">8 B</text>
  <text x="145.8" y="598" text-anchor="middle" fill="#374151" font-size="8.5">16 B</text>
  <text x="201.7" y="598" text-anchor="middle" fill="#374151" font-size="8.5">32 B</text>
  <text x="257.5" y="598" text-anchor="middle" fill="#374151" font-size="8.5">64 B</text>
  <text x="313.3" y="598" text-anchor="middle" fill="#374151" font-size="8.5">128 B</text>
  <text x="369.2" y="598" text-anchor="middle" fill="#374151" font-size="8.5">256 B</text>
  <text x="425.0" y="598" text-anchor="middle" fill="#374151" font-size="8.5">512 B</text>
  <text x="480.8" y="598" text-anchor="middle" fill="#374151" font-size="8.5">1 KiB</text>
  <text x="536.7" y="598" text-anchor="middle" fill="#374151" font-size="8.5">2 KiB</text>
  <text x="592.5" y="598" text-anchor="middle" fill="#374151" font-size="8.5">4 KiB</text>
  <text x="648.3" y="598" text-anchor="middle" fill="#374151" font-size="8.5">8 KiB</text>
  <text x="704.2" y="598" text-anchor="middle" fill="#374151" font-size="8.5">16 KiB</text>
  <text x="760.0" y="598" text-anchor="middle" fill="#374151" font-size="8.5">32 KiB</text>
  <line x1="145" y1="624" x2="159" y2="624" stroke="#dc2626" stroke-width="2.5"/>
  <circle cx="152" cy="624" r="2.5" fill="#dc2626"/>
  <text x="165" y="628" fill="#374151" font-size="11" font-weight="500">pyomq</text>
  <line x1="285" y1="624" x2="299" y2="624" stroke="#f97316" stroke-width="2.5"/>
  <circle cx="292" cy="624" r="2.5" fill="#f97316"/>
  <text x="305" y="628" fill="#374151" font-size="11" font-weight="500">pyomq async</text>
  <line x1="425" y1="624" x2="439" y2="624" stroke="#2563eb" stroke-width="2.5"/>
  <circle cx="432" cy="624" r="2.5" fill="#2563eb"/>
  <text x="445" y="628" fill="#374151" font-size="11" font-weight="500">pyzmq</text>
  <line x1="565" y1="624" x2="579" y2="624" stroke="#8b5cf6" stroke-width="2.5"/>
  <circle cx="572" cy="624" r="2.5" fill="#8b5cf6"/>
  <text x="585" y="628" fill="#374151" font-size="11" font-weight="500">pyzmq async</text>
  <text x="425.0" y="642" text-anchor="middle" fill="#9ca3af" font-size="9">dashed = msg/s (left) · solid = throughput (right)</text>
</svg>
