<svg xmlns="http://www.w3.org/2000/svg" viewBox="0 0 850 520" font-family="system-ui, -apple-system, sans-serif">
  <rect width="850" height="520" fill="white"/>
  <text x="425.0" y="18" text-anchor="middle" fill="#111827" font-size="13" font-weight="700">PUSH/PULL throughput — TCP loopback (higher is better)</text>
  <line x1="90" y1="248.0" x2="760" y2="248.0" stroke="#e5e7eb" stroke-width="1"/>
  <text x="82" y="248.0" text-anchor="end" dominant-baseline="middle" fill="#374151" font-size="10">0</text>
  <line x1="90" y1="205.4" x2="760" y2="205.4" stroke="#e5e7eb" stroke-width="1"/>
  <text x="82" y="205.4" text-anchor="end" dominant-baseline="middle" fill="#374151" font-size="10">400k</text>
  <line x1="90" y1="162.8" x2="760" y2="162.8" stroke="#e5e7eb" stroke-width="1"/>
  <text x="82" y="162.8" text-anchor="end" dominant-baseline="middle" fill="#374151" font-size="10">800k</text>
  <line x1="90" y1="120.2" x2="760" y2="120.2" stroke="#e5e7eb" stroke-width="1"/>
  <text x="82" y="120.2" text-anchor="end" dominant-baseline="middle" fill="#374151" font-size="10">1.2M</text>
  <line x1="90" y1="77.6" x2="760" y2="77.6" stroke="#e5e7eb" stroke-width="1"/>
  <text x="82" y="77.6" text-anchor="end" dominant-baseline="middle" fill="#374151" font-size="10">1.6M</text>
  <line x1="90" y1="35.0" x2="760" y2="35.0" stroke="#e5e7eb" stroke-width="1"/>
  <text x="82" y="35.0" text-anchor="end" dominant-baseline="middle" fill="#374151" font-size="10">2M</text>
  <line x1="90" y1="248.0" x2="760" y2="248.0" stroke="#e5e7eb" stroke-width="1" stroke-dasharray="3,6"/>
  <text x="768" y="248.0" text-anchor="start" dominant-baseline="middle" fill="#6b7280" font-size="10">0.0 MB/s</text>
  <line x1="90" y1="205.4" x2="760" y2="205.4" stroke="#e5e7eb" stroke-width="1" stroke-dasharray="3,6"/>
  <text x="768" y="205.4" text-anchor="start" dominant-baseline="middle" fill="#6b7280" font-size="10">1.0 GB/s</text>
  <line x1="90" y1="162.8" x2="760" y2="162.8" stroke="#e5e7eb" stroke-width="1" stroke-dasharray="3,6"/>
  <text x="768" y="162.8" text-anchor="start" dominant-baseline="middle" fill="#6b7280" font-size="10">2.0 GB/s</text>
  <line x1="90" y1="120.2" x2="760" y2="120.2" stroke="#e5e7eb" stroke-width="1" stroke-dasharray="3,6"/>
  <text x="768" y="120.2" text-anchor="start" dominant-baseline="middle" fill="#6b7280" font-size="10">3.0 GB/s</text>
  <line x1="90" y1="77.6" x2="760" y2="77.6" stroke="#e5e7eb" stroke-width="1" stroke-dasharray="3,6"/>
  <text x="768" y="77.6" text-anchor="start" dominant-baseline="middle" fill="#6b7280" font-size="10">4.0 GB/s</text>
  <line x1="90" y1="35.0" x2="760" y2="35.0" stroke="#e5e7eb" stroke-width="1" stroke-dasharray="3,6"/>
  <text x="768" y="35.0" text-anchor="start" dominant-baseline="middle" fill="#6b7280" font-size="10">5.0 GB/s</text>
  <line x1="90.0" y1="35" x2="90.0" y2="248" stroke="#e5e7eb" stroke-width="1"/>
  <line x1="141.5" y1="35" x2="141.5" y2="248" stroke="#e5e7eb" stroke-width="1"/>
  <line x1="193.1" y1="35" x2="193.1" y2="248" stroke="#e5e7eb" stroke-width="1"/>
  <line x1="244.6" y1="35" x2="244.6" y2="248" stroke="#e5e7eb" stroke-width="1"/>
  <line x1="296.2" y1="35" x2="296.2" y2="248" stroke="#e5e7eb" stroke-width="1"/>
  <line x1="347.7" y1="35" x2="347.7" y2="248" stroke="#e5e7eb" stroke-width="1"/>
  <line x1="399.2" y1="35" x2="399.2" y2="248" stroke="#e5e7eb" stroke-width="1"/>
  <line x1="450.8" y1="35" x2="450.8" y2="248" stroke="#e5e7eb" stroke-width="1"/>
  <line x1="502.3" y1="35" x2="502.3" y2="248" stroke="#e5e7eb" stroke-width="1"/>
  <line x1="553.8" y1="35" x2="553.8" y2="248" stroke="#e5e7eb" stroke-width="1"/>
  <line x1="605.4" y1="35" x2="605.4" y2="248" stroke="#e5e7eb" stroke-width="1"/>
  <line x1="656.9" y1="35" x2="656.9" y2="248" stroke="#e5e7eb" stroke-width="1"/>
  <line x1="708.5" y1="35" x2="708.5" y2="248" stroke="#e5e7eb" stroke-width="1"/>
  <line x1="760.0" y1="35" x2="760.0" y2="248" stroke="#e5e7eb" stroke-width="1"/>
  <line x1="90" y1="35" x2="90" y2="248" stroke="#9ca3af" stroke-width="1.5"/>
  <line x1="760" y1="35" x2="760" y2="248" stroke="#9ca3af" stroke-width="1.5"/>
  <line x1="90" y1="248" x2="760" y2="248" stroke="#9ca3af" stroke-width="1.5"/>
  <text x="40" y="142" text-anchor="middle" dominant-baseline="middle" fill="#374151" font-size="10" font-weight="600" transform="rotate(-90,40,142)">msg/s</text>
  <text x="835" y="142" text-anchor="middle" dominant-baseline="middle" fill="#6b7280" font-size="10" font-weight="600" transform="rotate(90,835,142)">throughput</text>
  <polyline points="90.0,89.2 141.5,88.8 193.1,90.6 244.6,93.5 296.2,94.8 347.7,95.4 399.2,102.8 450.8,114.6 502.3,154.3 553.8,184.9 605.4,212.4 656.9,229.9 708.5,236.6 760.0,242.3" fill="none" stroke="#dc2626" stroke-width="2" stroke-dasharray="6,4"/>
  <polyline points="90.0,115.4 141.5,108.6 193.1,105.9 244.6,114.1 296.2,126.7 347.7,123.4 399.2,122.8 450.8,142.0 502.3,157.0 553.8,183.1 605.4,207.7 656.9,228.8 708.5,236.4 760.0,242.1" fill="none" stroke="#f97316" stroke-width="2" stroke-dasharray="6,4"/>
  <polyline points="90.0,188.0 141.5,191.6 193.1,190.1 244.6,193.6 296.2,198.1 347.7,197.8 399.2,199.2 450.8,200.1 502.3,211.4 553.8,226.8 605.4,236.7 656.9,242.0 708.5,243.0 760.0,244.1" fill="none" stroke="#2563eb" stroke-width="2" stroke-dasharray="6,4"/>
  <polyline points="90.0,240.5 141.5,240.6 193.1,240.6 244.6,240.5 296.2,240.7 347.7,240.6 399.2,240.7 450.8,240.8 502.3,240.9 553.8,241.1 605.4,241.4 656.9,241.8 708.5,242.2 760.0,242.8" fill="none" stroke="#8b5cf6" stroke-width="2" stroke-dasharray="6,4"/>
  <polyline points="90.0,247.5 141.5,247.0 193.1,246.0 244.6,244.0 296.2,240.2 347.7,232.4 399.2,218.3 450.8,193.3 502.3,171.3 553.8,144.6 605.4,131.4 656.9,129.6 708.5,98.5 760.0,97.8" fill="none" stroke="#dc2626" stroke-width="2.5" stroke-linecap="round" stroke-linejoin="round"/>
  <circle cx="90.0" cy="247.5" r="3" fill="#dc2626" stroke="white" stroke-width="1"/>
  <circle cx="141.5" cy="247.0" r="3" fill="#dc2626" stroke="white" stroke-width="1"/>
  <circle cx="193.1" cy="246.0" r="3" fill="#dc2626" stroke="white" stroke-width="1"/>
  <circle cx="244.6" cy="244.0" r="3" fill="#dc2626" stroke="white" stroke-width="1"/>
  <circle cx="296.2" cy="240.2" r="3" fill="#dc2626" stroke="white" stroke-width="1"/>
  <circle cx="347.7" cy="232.4" r="3" fill="#dc2626" stroke="white" stroke-width="1"/>
  <circle cx="399.2" cy="218.3" r="3" fill="#dc2626" stroke="white" stroke-width="1"/>
  <circle cx="450.8" cy="193.3" r="3" fill="#dc2626" stroke="white" stroke-width="1"/>
  <circle cx="502.3" cy="171.3" r="3" fill="#dc2626" stroke="white" stroke-width="1"/>
  <circle cx="553.8" cy="144.6" r="3" fill="#dc2626" stroke="white" stroke-width="1"/>
  <circle cx="605.4" cy="131.4" r="3" fill="#dc2626" stroke="white" stroke-width="1"/>
  <circle cx="656.9" cy="129.6" r="3" fill="#dc2626" stroke="white" stroke-width="1"/>
  <circle cx="708.5" cy="98.5" r="3" fill="#dc2626" stroke="white" stroke-width="1"/>
  <circle cx="760.0" cy="97.8" r="3" fill="#dc2626" stroke="white" stroke-width="1"/>
  <polyline points="90.0,247.6 141.5,247.1 193.1,246.2 244.6,244.6 296.2,241.8 347.7,235.2 399.2,222.4 450.8,204.6 502.3,173.4 553.8,141.7 605.4,115.9 656.9,121.9 708.5,95.8 760.0,92.9" fill="none" stroke="#f97316" stroke-width="2.5" stroke-linecap="round" stroke-linejoin="round"/>
  <circle cx="90.0" cy="247.6" r="3" fill="#f97316" stroke="white" stroke-width="1"/>
  <circle cx="141.5" cy="247.1" r="3" fill="#f97316" stroke="white" stroke-width="1"/>
  <circle cx="193.1" cy="246.2" r="3" fill="#f97316" stroke="white" stroke-width="1"/>
  <circle cx="244.6" cy="244.6" r="3" fill="#f97316" stroke="white" stroke-width="1"/>
  <circle cx="296.2" cy="241.8" r="3" fill="#f97316" stroke="white" stroke-width="1"/>
  <circle cx="347.7" cy="235.2" r="3" fill="#f97316" stroke="white" stroke-width="1"/>
  <circle cx="399.2" cy="222.4" r="3" fill="#f97316" stroke="white" stroke-width="1"/>
  <circle cx="450.8" cy="204.6" r="3" fill="#f97316" stroke="white" stroke-width="1"/>
  <circle cx="502.3" cy="173.4" r="3" fill="#f97316" stroke="white" stroke-width="1"/>
  <circle cx="553.8" cy="141.7" r="3" fill="#f97316" stroke="white" stroke-width="1"/>
  <circle cx="605.4" cy="115.9" r="3" fill="#f97316" stroke="white" stroke-width="1"/>
  <circle cx="656.9" cy="121.9" r="3" fill="#f97316" stroke="white" stroke-width="1"/>
  <circle cx="708.5" cy="95.8" r="3" fill="#f97316" stroke="white" stroke-width="1"/>
  <circle cx="760.0" cy="92.9" r="3" fill="#f97316" stroke="white" stroke-width="1"/>
  <polyline points="90.0,247.8 141.5,247.6 193.1,247.3 244.6,246.6 296.2,245.4 347.7,242.9 399.2,238.0 450.8,228.4 502.3,218.0 553.8,213.3 605.4,211.1 656.9,208.6 708.5,182.8 760.0,145.4" fill="none" stroke="#2563eb" stroke-width="2.5" stroke-linecap="round" stroke-linejoin="round"/>
  <circle cx="90.0" cy="247.8" r="3" fill="#2563eb" stroke="white" stroke-width="1"/>
  <circle cx="141.5" cy="247.6" r="3" fill="#2563eb" stroke="white" stroke-width="1"/>
  <circle cx="193.1" cy="247.3" r="3" fill="#2563eb" stroke="white" stroke-width="1"/>
  <circle cx="244.6" cy="246.6" r="3" fill="#2563eb" stroke="white" stroke-width="1"/>
  <circle cx="296.2" cy="245.4" r="3" fill="#2563eb" stroke="white" stroke-width="1"/>
  <circle cx="347.7" cy="242.9" r="3" fill="#2563eb" stroke="white" stroke-width="1"/>
  <circle cx="399.2" cy="238.0" r="3" fill="#2563eb" stroke="white" stroke-width="1"/>
  <circle cx="450.8" cy="228.4" r="3" fill="#2563eb" stroke="white" stroke-width="1"/>
  <circle cx="502.3" cy="218.0" r="3" fill="#2563eb" stroke="white" stroke-width="1"/>
  <circle cx="553.8" cy="213.3" r="3" fill="#2563eb" stroke="white" stroke-width="1"/>
  <circle cx="605.4" cy="211.1" r="3" fill="#2563eb" stroke="white" stroke-width="1"/>
  <circle cx="656.9" cy="208.6" r="3" fill="#2563eb" stroke="white" stroke-width="1"/>
  <circle cx="708.5" cy="182.8" r="3" fill="#2563eb" stroke="white" stroke-width="1"/>
  <circle cx="760.0" cy="145.4" r="3" fill="#2563eb" stroke="white" stroke-width="1"/>
  <polyline points="90.0,248.0 141.5,248.0 193.1,247.9 244.6,247.8 296.2,247.6 347.7,247.2 399.2,246.5 450.8,245.1 502.3,242.2 553.8,236.7 605.4,226.3 656.9,207.6 708.5,171.6 760.0,110.8" fill="none" stroke="#8b5cf6" stroke-width="2.5" stroke-linecap="round" stroke-linejoin="round"/>
  <circle cx="90.0" cy="248.0" r="3" fill="#8b5cf6" stroke="white" stroke-width="1"/>
  <circle cx="141.5" cy="248.0" r="3" fill="#8b5cf6" stroke="white" stroke-width="1"/>
  <circle cx="193.1" cy="247.9" r="3" fill="#8b5cf6" stroke="white" stroke-width="1"/>
  <circle cx="244.6" cy="247.8" r="3" fill="#8b5cf6" stroke="white" stroke-width="1"/>
  <circle cx="296.2" cy="247.6" r="3" fill="#8b5cf6" stroke="white" stroke-width="1"/>
  <circle cx="347.7" cy="247.2" r="3" fill="#8b5cf6" stroke="white" stroke-width="1"/>
  <circle cx="399.2" cy="246.5" r="3" fill="#8b5cf6" stroke="white" stroke-width="1"/>
  <circle cx="450.8" cy="245.1" r="3" fill="#8b5cf6" stroke="white" stroke-width="1"/>
  <circle cx="502.3" cy="242.2" r="3" fill="#8b5cf6" stroke="white" stroke-width="1"/>
  <circle cx="553.8" cy="236.7" r="3" fill="#8b5cf6" stroke="white" stroke-width="1"/>
  <circle cx="605.4" cy="226.3" r="3" fill="#8b5cf6" stroke="white" stroke-width="1"/>
  <circle cx="656.9" cy="207.6" r="3" fill="#8b5cf6" stroke="white" stroke-width="1"/>
  <circle cx="708.5" cy="171.6" r="3" fill="#8b5cf6" stroke="white" stroke-width="1"/>
  <circle cx="760.0" cy="110.8" r="3" fill="#8b5cf6" stroke="white" stroke-width="1"/>
  <text x="90.0" y="262" text-anchor="middle" fill="#374151" font-size="8.5">8 B</text>
  <text x="141.5" y="262" text-anchor="middle" fill="#374151" font-size="8.5">16 B</text>
  <text x="193.1" y="262" text-anchor="middle" fill="#374151" font-size="8.5">32 B</text>
  <text x="244.6" y="262" text-anchor="middle" fill="#374151" font-size="8.5">64 B</text>
  <text x="296.2" y="262" text-anchor="middle" fill="#374151" font-size="8.5">128 B</text>
  <text x="347.7" y="262" text-anchor="middle" fill="#374151" font-size="8.5">256 B</text>
  <text x="399.2" y="262" text-anchor="middle" fill="#374151" font-size="8.5">512 B</text>
  <text x="450.8" y="262" text-anchor="middle" fill="#374151" font-size="8.5">1 KiB</text>
  <text x="502.3" y="262" text-anchor="middle" fill="#374151" font-size="8.5">2 KiB</text>
  <text x="553.8" y="262" text-anchor="middle" fill="#374151" font-size="8.5">4 KiB</text>
  <text x="605.4" y="262" text-anchor="middle" fill="#374151" font-size="8.5">8 KiB</text>
  <text x="656.9" y="262" text-anchor="middle" fill="#374151" font-size="8.5">16 KiB</text>
  <text x="708.5" y="262" text-anchor="middle" fill="#374151" font-size="8.5">32 KiB</text>
  <text x="760.0" y="262" text-anchor="middle" fill="#374151" font-size="8.5">64 KiB</text>
  <text x="425.0" y="288" text-anchor="middle" fill="#111827" font-size="13" font-weight="700">REQ/REP latency — TCP loopback, p50 µs (lower is better)</text>
  <line x1="90" y1="448.0" x2="760" y2="448.0" stroke="#e5e7eb" stroke-width="1"/>
  <text x="82" y="448.0" text-anchor="end" dominant-baseline="middle" fill="#374151" font-size="10">20 µs</text>
  <line x1="90" y1="432.0" x2="760" y2="432.0" stroke="#e5e7eb" stroke-width="1"/>
  <text x="82" y="432.0" text-anchor="end" dominant-baseline="middle" fill="#374151" font-size="10">40 µs</text>
  <line x1="90" y1="416.0" x2="760" y2="416.0" stroke="#e5e7eb" stroke-width="1"/>
  <text x="82" y="416.0" text-anchor="end" dominant-baseline="middle" fill="#374151" font-size="10">60 µs</text>
  <line x1="90" y1="400.0" x2="760" y2="400.0" stroke="#e5e7eb" stroke-width="1"/>
  <text x="82" y="400.0" text-anchor="end" dominant-baseline="middle" fill="#374151" font-size="10">80 µs</text>
  <line x1="90" y1="384.0" x2="760" y2="384.0" stroke="#e5e7eb" stroke-width="1"/>
  <text x="82" y="384.0" text-anchor="end" dominant-baseline="middle" fill="#374151" font-size="10">100 µs</text>
  <line x1="90" y1="368.0" x2="760" y2="368.0" stroke="#e5e7eb" stroke-width="1"/>
  <text x="82" y="368.0" text-anchor="end" dominant-baseline="middle" fill="#374151" font-size="10">120 µs</text>
  <line x1="90" y1="352.0" x2="760" y2="352.0" stroke="#e5e7eb" stroke-width="1"/>
  <text x="82" y="352.0" text-anchor="end" dominant-baseline="middle" fill="#374151" font-size="10">140 µs</text>
  <line x1="90" y1="336.0" x2="760" y2="336.0" stroke="#e5e7eb" stroke-width="1"/>
  <text x="82" y="336.0" text-anchor="end" dominant-baseline="middle" fill="#374151" font-size="10">160 µs</text>
  <line x1="90" y1="320.0" x2="760" y2="320.0" stroke="#e5e7eb" stroke-width="1"/>
  <text x="82" y="320.0" text-anchor="end" dominant-baseline="middle" fill="#374151" font-size="10">180 µs</text>
  <line x1="90" y1="304.0" x2="760" y2="304.0" stroke="#e5e7eb" stroke-width="1"/>
  <text x="82" y="304.0" text-anchor="end" dominant-baseline="middle" fill="#374151" font-size="10">200 µs</text>
  <line x1="90.0" y1="304" x2="90.0" y2="464" stroke="#e5e7eb" stroke-width="1"/>
  <line x1="141.5" y1="304" x2="141.5" y2="464" stroke="#e5e7eb" stroke-width="1"/>
  <line x1="193.1" y1="304" x2="193.1" y2="464" stroke="#e5e7eb" stroke-width="1"/>
  <line x1="244.6" y1="304" x2="244.6" y2="464" stroke="#e5e7eb" stroke-width="1"/>
  <line x1="296.2" y1="304" x2="296.2" y2="464" stroke="#e5e7eb" stroke-width="1"/>
  <line x1="347.7" y1="304" x2="347.7" y2="464" stroke="#e5e7eb" stroke-width="1"/>
  <line x1="399.2" y1="304" x2="399.2" y2="464" stroke="#e5e7eb" stroke-width="1"/>
  <line x1="450.8" y1="304" x2="450.8" y2="464" stroke="#e5e7eb" stroke-width="1"/>
  <line x1="502.3" y1="304" x2="502.3" y2="464" stroke="#e5e7eb" stroke-width="1"/>
  <line x1="553.8" y1="304" x2="553.8" y2="464" stroke="#e5e7eb" stroke-width="1"/>
  <line x1="605.4" y1="304" x2="605.4" y2="464" stroke="#e5e7eb" stroke-width="1"/>
  <line x1="656.9" y1="304" x2="656.9" y2="464" stroke="#e5e7eb" stroke-width="1"/>
  <line x1="708.5" y1="304" x2="708.5" y2="464" stroke="#e5e7eb" stroke-width="1"/>
  <line x1="760.0" y1="304" x2="760.0" y2="464" stroke="#e5e7eb" stroke-width="1"/>
  <line x1="90" y1="304" x2="90" y2="464" stroke="#9ca3af" stroke-width="1.5"/>
  <line x1="90" y1="464" x2="760" y2="464" stroke="#9ca3af" stroke-width="1.5"/>
  <text x="40" y="384" text-anchor="middle" dominant-baseline="middle" fill="#374151" font-size="10" font-weight="600" transform="rotate(-90,40,384)">p50 latency (µs)</text>
  <polyline points="90.0,414.1 141.5,414.4 193.1,413.3 244.6,413.9 296.2,414.4 347.7,412.4 399.2,412.6 450.8,411.0 502.3,413.2 553.8,410.3 605.4,410.2 656.9,403.7 708.5,397.8 760.0,370.8" fill="none" stroke="#dc2626" stroke-width="2.5" stroke-linecap="round" stroke-linejoin="round"/>
  <circle cx="90.0" cy="414.1" r="3" fill="#dc2626" stroke="white" stroke-width="1"/>
  <circle cx="141.5" cy="414.4" r="3" fill="#dc2626" stroke="white" stroke-width="1"/>
  <circle cx="193.1" cy="413.3" r="3" fill="#dc2626" stroke="white" stroke-width="1"/>
  <circle cx="244.6" cy="413.9" r="3" fill="#dc2626" stroke="white" stroke-width="1"/>
  <circle cx="296.2" cy="414.4" r="3" fill="#dc2626" stroke="white" stroke-width="1"/>
  <circle cx="347.7" cy="412.4" r="3" fill="#dc2626" stroke="white" stroke-width="1"/>
  <circle cx="399.2" cy="412.6" r="3" fill="#dc2626" stroke="white" stroke-width="1"/>
  <circle cx="450.8" cy="411.0" r="3" fill="#dc2626" stroke="white" stroke-width="1"/>
  <circle cx="502.3" cy="413.2" r="3" fill="#dc2626" stroke="white" stroke-width="1"/>
  <circle cx="553.8" cy="410.3" r="3" fill="#dc2626" stroke="white" stroke-width="1"/>
  <circle cx="605.4" cy="410.2" r="3" fill="#dc2626" stroke="white" stroke-width="1"/>
  <circle cx="656.9" cy="403.7" r="3" fill="#dc2626" stroke="white" stroke-width="1"/>
  <circle cx="708.5" cy="397.8" r="3" fill="#dc2626" stroke="white" stroke-width="1"/>
  <circle cx="760.0" cy="370.8" r="3" fill="#dc2626" stroke="white" stroke-width="1"/>
  <polyline points="90.0,395.8 141.5,396.0 193.1,395.7 244.6,395.1 296.2,394.7 347.7,395.1 399.2,395.3 450.8,395.5 502.3,395.5 553.8,394.8 605.4,386.9 656.9,387.7 708.5,380.2 760.0,359.5" fill="none" stroke="#f97316" stroke-width="2.5" stroke-linecap="round" stroke-linejoin="round"/>
  <circle cx="90.0" cy="395.8" r="3" fill="#f97316" stroke="white" stroke-width="1"/>
  <circle cx="141.5" cy="396.0" r="3" fill="#f97316" stroke="white" stroke-width="1"/>
  <circle cx="193.1" cy="395.7" r="3" fill="#f97316" stroke="white" stroke-width="1"/>
  <circle cx="244.6" cy="395.1" r="3" fill="#f97316" stroke="white" stroke-width="1"/>
  <circle cx="296.2" cy="394.7" r="3" fill="#f97316" stroke="white" stroke-width="1"/>
  <circle cx="347.7" cy="395.1" r="3" fill="#f97316" stroke="white" stroke-width="1"/>
  <circle cx="399.2" cy="395.3" r="3" fill="#f97316" stroke="white" stroke-width="1"/>
  <circle cx="450.8" cy="395.5" r="3" fill="#f97316" stroke="white" stroke-width="1"/>
  <circle cx="502.3" cy="395.5" r="3" fill="#f97316" stroke="white" stroke-width="1"/>
  <circle cx="553.8" cy="394.8" r="3" fill="#f97316" stroke="white" stroke-width="1"/>
  <circle cx="605.4" cy="386.9" r="3" fill="#f97316" stroke="white" stroke-width="1"/>
  <circle cx="656.9" cy="387.7" r="3" fill="#f97316" stroke="white" stroke-width="1"/>
  <circle cx="708.5" cy="380.2" r="3" fill="#f97316" stroke="white" stroke-width="1"/>
  <circle cx="760.0" cy="359.5" r="3" fill="#f97316" stroke="white" stroke-width="1"/>
  <polyline points="90.0,408.3 141.5,407.9 193.1,408.1 244.6,406.8 296.2,405.7 347.7,405.7 399.2,406.9 450.8,405.6 502.3,405.0 553.8,403.9 605.4,391.2 656.9,387.9 708.5,379.3 760.0,371.0" fill="none" stroke="#2563eb" stroke-width="2.5" stroke-linecap="round" stroke-linejoin="round"/>
  <circle cx="90.0" cy="408.3" r="3" fill="#2563eb" stroke="white" stroke-width="1"/>
  <circle cx="141.5" cy="407.9" r="3" fill="#2563eb" stroke="white" stroke-width="1"/>
  <circle cx="193.1" cy="408.1" r="3" fill="#2563eb" stroke="white" stroke-width="1"/>
  <circle cx="244.6" cy="406.8" r="3" fill="#2563eb" stroke="white" stroke-width="1"/>
  <circle cx="296.2" cy="405.7" r="3" fill="#2563eb" stroke="white" stroke-width="1"/>
  <circle cx="347.7" cy="405.7" r="3" fill="#2563eb" stroke="white" stroke-width="1"/>
  <circle cx="399.2" cy="406.9" r="3" fill="#2563eb" stroke="white" stroke-width="1"/>
  <circle cx="450.8" cy="405.6" r="3" fill="#2563eb" stroke="white" stroke-width="1"/>
  <circle cx="502.3" cy="405.0" r="3" fill="#2563eb" stroke="white" stroke-width="1"/>
  <circle cx="553.8" cy="403.9" r="3" fill="#2563eb" stroke="white" stroke-width="1"/>
  <circle cx="605.4" cy="391.2" r="3" fill="#2563eb" stroke="white" stroke-width="1"/>
  <circle cx="656.9" cy="387.9" r="3" fill="#2563eb" stroke="white" stroke-width="1"/>
  <circle cx="708.5" cy="379.3" r="3" fill="#2563eb" stroke="white" stroke-width="1"/>
  <circle cx="760.0" cy="371.0" r="3" fill="#2563eb" stroke="white" stroke-width="1"/>
  <polyline points="90.0,369.4 141.5,368.8 193.1,368.7 244.6,371.7 296.2,367.4 347.7,370.7 399.2,366.6 450.8,371.2 502.3,370.8 553.8,372.5 605.4,338.5 656.9,335.7 708.5,328.4 760.0,317.3" fill="none" stroke="#8b5cf6" stroke-width="2.5" stroke-linecap="round" stroke-linejoin="round"/>
  <circle cx="90.0" cy="369.4" r="3" fill="#8b5cf6" stroke="white" stroke-width="1"/>
  <circle cx="141.5" cy="368.8" r="3" fill="#8b5cf6" stroke="white" stroke-width="1"/>
  <circle cx="193.1" cy="368.7" r="3" fill="#8b5cf6" stroke="white" stroke-width="1"/>
  <circle cx="244.6" cy="371.7" r="3" fill="#8b5cf6" stroke="white" stroke-width="1"/>
  <circle cx="296.2" cy="367.4" r="3" fill="#8b5cf6" stroke="white" stroke-width="1"/>
  <circle cx="347.7" cy="370.7" r="3" fill="#8b5cf6" stroke="white" stroke-width="1"/>
  <circle cx="399.2" cy="366.6" r="3" fill="#8b5cf6" stroke="white" stroke-width="1"/>
  <circle cx="450.8" cy="371.2" r="3" fill="#8b5cf6" stroke="white" stroke-width="1"/>
  <circle cx="502.3" cy="370.8" r="3" fill="#8b5cf6" stroke="white" stroke-width="1"/>
  <circle cx="553.8" cy="372.5" r="3" fill="#8b5cf6" stroke="white" stroke-width="1"/>
  <circle cx="605.4" cy="338.5" r="3" fill="#8b5cf6" stroke="white" stroke-width="1"/>
  <circle cx="656.9" cy="335.7" r="3" fill="#8b5cf6" stroke="white" stroke-width="1"/>
  <circle cx="708.5" cy="328.4" r="3" fill="#8b5cf6" stroke="white" stroke-width="1"/>
  <circle cx="760.0" cy="317.3" r="3" fill="#8b5cf6" stroke="white" stroke-width="1"/>
  <text x="90.0" y="478" text-anchor="middle" fill="#374151" font-size="8.5">8 B</text>
  <text x="141.5" y="478" text-anchor="middle" fill="#374151" font-size="8.5">16 B</text>
  <text x="193.1" y="478" text-anchor="middle" fill="#374151" font-size="8.5">32 B</text>
  <text x="244.6" y="478" text-anchor="middle" fill="#374151" font-size="8.5">64 B</text>
  <text x="296.2" y="478" text-anchor="middle" fill="#374151" font-size="8.5">128 B</text>
  <text x="347.7" y="478" text-anchor="middle" fill="#374151" font-size="8.5">256 B</text>
  <text x="399.2" y="478" text-anchor="middle" fill="#374151" font-size="8.5">512 B</text>
  <text x="450.8" y="478" text-anchor="middle" fill="#374151" font-size="8.5">1 KiB</text>
  <text x="502.3" y="478" text-anchor="middle" fill="#374151" font-size="8.5">2 KiB</text>
  <text x="553.8" y="478" text-anchor="middle" fill="#374151" font-size="8.5">4 KiB</text>
  <text x="605.4" y="478" text-anchor="middle" fill="#374151" font-size="8.5">8 KiB</text>
  <text x="656.9" y="478" text-anchor="middle" fill="#374151" font-size="8.5">16 KiB</text>
  <text x="708.5" y="478" text-anchor="middle" fill="#374151" font-size="8.5">32 KiB</text>
  <text x="760.0" y="478" text-anchor="middle" fill="#374151" font-size="8.5">64 KiB</text>
  <line x1="145" y1="504" x2="159" y2="504" stroke="#dc2626" stroke-width="2.5"/>
  <circle cx="152" cy="504" r="2.5" fill="#dc2626"/>
  <text x="165" y="508" fill="#374151" font-size="11" font-weight="500">pyomq</text>
  <line x1="285" y1="504" x2="299" y2="504" stroke="#f97316" stroke-width="2.5"/>
  <circle cx="292" cy="504" r="2.5" fill="#f97316"/>
  <text x="305" y="508" fill="#374151" font-size="11" font-weight="500">pyomq async</text>
  <line x1="425" y1="504" x2="439" y2="504" stroke="#2563eb" stroke-width="2.5"/>
  <circle cx="432" cy="504" r="2.5" fill="#2563eb"/>
  <text x="445" y="508" fill="#374151" font-size="11" font-weight="500">pyzmq</text>
  <line x1="565" y1="504" x2="579" y2="504" stroke="#8b5cf6" stroke-width="2.5"/>
  <circle cx="572" cy="504" r="2.5" fill="#8b5cf6"/>
  <text x="585" y="508" fill="#374151" font-size="11" font-weight="500">pyzmq async</text>
</svg>
