<svg xmlns="http://www.w3.org/2000/svg" viewBox="0 0 850 600" font-family="system-ui, -apple-system, sans-serif">
  <rect width="850" height="600" fill="white"/>
  <text x="425.0" y="18" text-anchor="middle" fill="#111827" font-size="13" font-weight="700">PUSH/PULL throughput — 2-process, TCP loopback (higher is better)</text>
  <line x1="90" y1="280.0" x2="760" y2="280.0" stroke="#e5e7eb" stroke-width="1"/>
  <text x="82" y="280.0" text-anchor="end" dominant-baseline="middle" fill="#374151" font-size="10">0</text>
  <line x1="90" y1="218.8" x2="760" y2="218.8" stroke="#e5e7eb" stroke-width="1"/>
  <text x="82" y="218.8" text-anchor="end" dominant-baseline="middle" fill="#374151" font-size="10">500k</text>
  <line x1="90" y1="157.5" x2="760" y2="157.5" stroke="#e5e7eb" stroke-width="1"/>
  <text x="82" y="157.5" text-anchor="end" dominant-baseline="middle" fill="#374151" font-size="10">1M</text>
  <line x1="90" y1="96.2" x2="760" y2="96.2" stroke="#e5e7eb" stroke-width="1"/>
  <text x="82" y="96.2" text-anchor="end" dominant-baseline="middle" fill="#374151" font-size="10">1.5M</text>
  <line x1="90" y1="35.0" x2="760" y2="35.0" stroke="#e5e7eb" stroke-width="1"/>
  <text x="82" y="35.0" text-anchor="end" dominant-baseline="middle" fill="#374151" font-size="10">2M</text>
  <line x1="90" y1="280.0" x2="760" y2="280.0" stroke="#e5e7eb" stroke-width="1" stroke-dasharray="3,6"/>
  <text x="768" y="280.0" text-anchor="start" dominant-baseline="middle" fill="#6b7280" font-size="10">0.0 MB/s</text>
  <line x1="90" y1="231.0" x2="760" y2="231.0" stroke="#e5e7eb" stroke-width="1" stroke-dasharray="3,6"/>
  <text x="768" y="231.0" text-anchor="start" dominant-baseline="middle" fill="#6b7280" font-size="10">1.0 GB/s</text>
  <line x1="90" y1="182.0" x2="760" y2="182.0" stroke="#e5e7eb" stroke-width="1" stroke-dasharray="3,6"/>
  <text x="768" y="182.0" text-anchor="start" dominant-baseline="middle" fill="#6b7280" font-size="10">2.0 GB/s</text>
  <line x1="90" y1="133.0" x2="760" y2="133.0" stroke="#e5e7eb" stroke-width="1" stroke-dasharray="3,6"/>
  <text x="768" y="133.0" text-anchor="start" dominant-baseline="middle" fill="#6b7280" font-size="10">3.0 GB/s</text>
  <line x1="90" y1="84.0" x2="760" y2="84.0" stroke="#e5e7eb" stroke-width="1" stroke-dasharray="3,6"/>
  <text x="768" y="84.0" text-anchor="start" dominant-baseline="middle" fill="#6b7280" font-size="10">4.0 GB/s</text>
  <line x1="90" y1="35.0" x2="760" y2="35.0" stroke="#e5e7eb" stroke-width="1" stroke-dasharray="3,6"/>
  <text x="768" y="35.0" text-anchor="start" dominant-baseline="middle" fill="#6b7280" font-size="10">5.0 GB/s</text>
  <line x1="90.0" y1="35" x2="90.0" y2="280" stroke="#e5e7eb" stroke-width="1"/>
  <line x1="141.5" y1="35" x2="141.5" y2="280" stroke="#e5e7eb" stroke-width="1"/>
  <line x1="193.1" y1="35" x2="193.1" y2="280" stroke="#e5e7eb" stroke-width="1"/>
  <line x1="244.6" y1="35" x2="244.6" y2="280" stroke="#e5e7eb" stroke-width="1"/>
  <line x1="296.2" y1="35" x2="296.2" y2="280" stroke="#e5e7eb" stroke-width="1"/>
  <line x1="347.7" y1="35" x2="347.7" y2="280" stroke="#e5e7eb" stroke-width="1"/>
  <line x1="399.2" y1="35" x2="399.2" y2="280" stroke="#e5e7eb" stroke-width="1"/>
  <line x1="450.8" y1="35" x2="450.8" y2="280" stroke="#e5e7eb" stroke-width="1"/>
  <line x1="502.3" y1="35" x2="502.3" y2="280" stroke="#e5e7eb" stroke-width="1"/>
  <line x1="553.8" y1="35" x2="553.8" y2="280" stroke="#e5e7eb" stroke-width="1"/>
  <line x1="605.4" y1="35" x2="605.4" y2="280" stroke="#e5e7eb" stroke-width="1"/>
  <line x1="656.9" y1="35" x2="656.9" y2="280" stroke="#e5e7eb" stroke-width="1"/>
  <line x1="708.5" y1="35" x2="708.5" y2="280" stroke="#e5e7eb" stroke-width="1"/>
  <line x1="760.0" y1="35" x2="760.0" y2="280" stroke="#e5e7eb" stroke-width="1"/>
  <line x1="90" y1="35" x2="90" y2="280" stroke="#9ca3af" stroke-width="1.5"/>
  <line x1="760" y1="35" x2="760" y2="280" stroke="#9ca3af" stroke-width="1.5"/>
  <line x1="90" y1="280" x2="760" y2="280" stroke="#9ca3af" stroke-width="1.5"/>
  <text x="40" y="158" text-anchor="middle" dominant-baseline="middle" fill="#374151" font-size="10" font-weight="600" transform="rotate(-90,40,158)">msg/s</text>
  <text x="835" y="158" text-anchor="middle" dominant-baseline="middle" fill="#6b7280" font-size="10" font-weight="600" transform="rotate(90,835,158)">throughput</text>
  <polyline points="90.0,98.7 141.5,100.5 193.1,98.8 244.6,105.2 296.2,103.1 347.7,105.6 399.2,113.0 450.8,135.2 502.3,166.6 553.8,207.3 605.4,237.3 656.9,258.7 708.5,266.6 760.0,273.2" fill="none" stroke="#dc2626" stroke-width="2" stroke-dasharray="6,4"/>
  <polyline points="90.0,158.4 141.5,158.4 193.1,162.8 244.6,163.7 296.2,169.0 347.7,170.3 399.2,175.1 450.8,190.7 502.3,207.1 553.8,224.6 605.4,243.4 656.9,259.7 708.5,266.7 760.0,273.0" fill="none" stroke="#f97316" stroke-width="2" stroke-dasharray="6,4"/>
  <polyline points="90.0,211.9 141.5,212.2 193.1,212.9 244.6,217.6 296.2,220.3 347.7,221.2 399.2,223.6 450.8,224.9 502.3,235.9 553.8,254.7 605.4,266.7 656.9,273.0 708.5,274.4 760.0,275.4" fill="none" stroke="#2563eb" stroke-width="2" stroke-dasharray="6,4"/>
  <polyline points="90.0,273.5 141.5,273.7 193.1,273.5 244.6,273.5 296.2,273.6 347.7,273.8 399.2,273.7 450.8,273.8 502.3,274.0 553.8,273.9 605.4,274.4 656.9,275.1 708.5,275.6 760.0,276.7" fill="none" stroke="#8b5cf6" stroke-width="2" stroke-dasharray="6,4"/>
  <polyline points="90.0,279.4 141.5,278.9 193.1,277.7 244.6,275.5 296.2,270.9 347.7,262.1 399.2,245.8 450.8,220.7 502.3,187.1 553.8,160.9 605.4,139.9 656.9,140.3 708.5,104.4 760.0,102.7" fill="none" stroke="#dc2626" stroke-width="2.5" stroke-linecap="round" stroke-linejoin="round"/>
  <circle cx="90.0" cy="279.4" r="3" fill="#dc2626" stroke="white" stroke-width="1"/>
  <circle cx="141.5" cy="278.9" r="3" fill="#dc2626" stroke="white" stroke-width="1"/>
  <circle cx="193.1" cy="277.7" r="3" fill="#dc2626" stroke="white" stroke-width="1"/>
  <circle cx="244.6" cy="275.5" r="3" fill="#dc2626" stroke="white" stroke-width="1"/>
  <circle cx="296.2" cy="270.9" r="3" fill="#dc2626" stroke="white" stroke-width="1"/>
  <circle cx="347.7" cy="262.1" r="3" fill="#dc2626" stroke="white" stroke-width="1"/>
  <circle cx="399.2" cy="245.8" r="3" fill="#dc2626" stroke="white" stroke-width="1"/>
  <circle cx="450.8" cy="220.7" r="3" fill="#dc2626" stroke="white" stroke-width="1"/>
  <circle cx="502.3" cy="187.1" r="3" fill="#dc2626" stroke="white" stroke-width="1"/>
  <circle cx="553.8" cy="160.9" r="3" fill="#dc2626" stroke="white" stroke-width="1"/>
  <circle cx="605.4" cy="139.9" r="3" fill="#dc2626" stroke="white" stroke-width="1"/>
  <circle cx="656.9" cy="140.3" r="3" fill="#dc2626" stroke="white" stroke-width="1"/>
  <circle cx="708.5" cy="104.4" r="3" fill="#dc2626" stroke="white" stroke-width="1"/>
  <circle cx="760.0" cy="102.7" r="3" fill="#dc2626" stroke="white" stroke-width="1"/>
  <polyline points="90.0,279.6 141.5,279.2 193.1,278.5 244.6,277.0 296.2,274.3 347.7,268.8 399.2,258.5 450.8,243.4 502.3,220.3 553.8,189.3 605.4,160.2 656.9,146.7 708.5,105.7 760.0,97.5" fill="none" stroke="#f97316" stroke-width="2.5" stroke-linecap="round" stroke-linejoin="round"/>
  <circle cx="90.0" cy="279.6" r="3" fill="#f97316" stroke="white" stroke-width="1"/>
  <circle cx="141.5" cy="279.2" r="3" fill="#f97316" stroke="white" stroke-width="1"/>
  <circle cx="193.1" cy="278.5" r="3" fill="#f97316" stroke="white" stroke-width="1"/>
  <circle cx="244.6" cy="277.0" r="3" fill="#f97316" stroke="white" stroke-width="1"/>
  <circle cx="296.2" cy="274.3" r="3" fill="#f97316" stroke="white" stroke-width="1"/>
  <circle cx="347.7" cy="268.8" r="3" fill="#f97316" stroke="white" stroke-width="1"/>
  <circle cx="399.2" cy="258.5" r="3" fill="#f97316" stroke="white" stroke-width="1"/>
  <circle cx="450.8" cy="243.4" r="3" fill="#f97316" stroke="white" stroke-width="1"/>
  <circle cx="502.3" cy="220.3" r="3" fill="#f97316" stroke="white" stroke-width="1"/>
  <circle cx="553.8" cy="189.3" r="3" fill="#f97316" stroke="white" stroke-width="1"/>
  <circle cx="605.4" cy="160.2" r="3" fill="#f97316" stroke="white" stroke-width="1"/>
  <circle cx="656.9" cy="146.7" r="3" fill="#f97316" stroke="white" stroke-width="1"/>
  <circle cx="708.5" cy="105.7" r="3" fill="#f97316" stroke="white" stroke-width="1"/>
  <circle cx="760.0" cy="97.5" r="3" fill="#f97316" stroke="white" stroke-width="1"/>
  <polyline points="90.0,279.8 141.5,279.6 193.1,279.1 244.6,278.4 296.2,276.9 347.7,274.0 399.2,268.5 450.8,257.4 502.3,243.9 553.8,238.6 605.4,236.5 656.9,234.4 708.5,206.0 760.0,158.7" fill="none" stroke="#2563eb" stroke-width="2.5" stroke-linecap="round" stroke-linejoin="round"/>
  <circle cx="90.0" cy="279.8" r="3" fill="#2563eb" stroke="white" stroke-width="1"/>
  <circle cx="141.5" cy="279.6" r="3" fill="#2563eb" stroke="white" stroke-width="1"/>
  <circle cx="193.1" cy="279.1" r="3" fill="#2563eb" stroke="white" stroke-width="1"/>
  <circle cx="244.6" cy="278.4" r="3" fill="#2563eb" stroke="white" stroke-width="1"/>
  <circle cx="296.2" cy="276.9" r="3" fill="#2563eb" stroke="white" stroke-width="1"/>
  <circle cx="347.7" cy="274.0" r="3" fill="#2563eb" stroke="white" stroke-width="1"/>
  <circle cx="399.2" cy="268.5" r="3" fill="#2563eb" stroke="white" stroke-width="1"/>
  <circle cx="450.8" cy="257.4" r="3" fill="#2563eb" stroke="white" stroke-width="1"/>
  <circle cx="502.3" cy="243.9" r="3" fill="#2563eb" stroke="white" stroke-width="1"/>
  <circle cx="553.8" cy="238.6" r="3" fill="#2563eb" stroke="white" stroke-width="1"/>
  <circle cx="605.4" cy="236.5" r="3" fill="#2563eb" stroke="white" stroke-width="1"/>
  <circle cx="656.9" cy="234.4" r="3" fill="#2563eb" stroke="white" stroke-width="1"/>
  <circle cx="708.5" cy="206.0" r="3" fill="#2563eb" stroke="white" stroke-width="1"/>
  <circle cx="760.0" cy="158.7" r="3" fill="#2563eb" stroke="white" stroke-width="1"/>
  <polyline points="90.0,280.0 141.5,280.0 193.1,279.9 244.6,279.8 296.2,279.7 347.7,279.4 399.2,278.7 450.8,277.5 502.3,275.1 553.8,270.1 605.4,261.8 656.9,248.0 708.5,221.9 760.0,193.4" fill="none" stroke="#8b5cf6" stroke-width="2.5" stroke-linecap="round" stroke-linejoin="round"/>
  <circle cx="90.0" cy="280.0" r="3" fill="#8b5cf6" stroke="white" stroke-width="1"/>
  <circle cx="141.5" cy="280.0" r="3" fill="#8b5cf6" stroke="white" stroke-width="1"/>
  <circle cx="193.1" cy="279.9" r="3" fill="#8b5cf6" stroke="white" stroke-width="1"/>
  <circle cx="244.6" cy="279.8" r="3" fill="#8b5cf6" stroke="white" stroke-width="1"/>
  <circle cx="296.2" cy="279.7" r="3" fill="#8b5cf6" stroke="white" stroke-width="1"/>
  <circle cx="347.7" cy="279.4" r="3" fill="#8b5cf6" stroke="white" stroke-width="1"/>
  <circle cx="399.2" cy="278.7" r="3" fill="#8b5cf6" stroke="white" stroke-width="1"/>
  <circle cx="450.8" cy="277.5" r="3" fill="#8b5cf6" stroke="white" stroke-width="1"/>
  <circle cx="502.3" cy="275.1" r="3" fill="#8b5cf6" stroke="white" stroke-width="1"/>
  <circle cx="553.8" cy="270.1" r="3" fill="#8b5cf6" stroke="white" stroke-width="1"/>
  <circle cx="605.4" cy="261.8" r="3" fill="#8b5cf6" stroke="white" stroke-width="1"/>
  <circle cx="656.9" cy="248.0" r="3" fill="#8b5cf6" stroke="white" stroke-width="1"/>
  <circle cx="708.5" cy="221.9" r="3" fill="#8b5cf6" stroke="white" stroke-width="1"/>
  <circle cx="760.0" cy="193.4" r="3" fill="#8b5cf6" stroke="white" stroke-width="1"/>
  <text x="90.0" y="294" text-anchor="middle" fill="#374151" font-size="8.5">8 B</text>
  <text x="141.5" y="294" text-anchor="middle" fill="#374151" font-size="8.5">16 B</text>
  <text x="193.1" y="294" text-anchor="middle" fill="#374151" font-size="8.5">32 B</text>
  <text x="244.6" y="294" text-anchor="middle" fill="#374151" font-size="8.5">64 B</text>
  <text x="296.2" y="294" text-anchor="middle" fill="#374151" font-size="8.5">128 B</text>
  <text x="347.7" y="294" text-anchor="middle" fill="#374151" font-size="8.5">256 B</text>
  <text x="399.2" y="294" text-anchor="middle" fill="#374151" font-size="8.5">512 B</text>
  <text x="450.8" y="294" text-anchor="middle" fill="#374151" font-size="8.5">1 KiB</text>
  <text x="502.3" y="294" text-anchor="middle" fill="#374151" font-size="8.5">2 KiB</text>
  <text x="553.8" y="294" text-anchor="middle" fill="#374151" font-size="8.5">4 KiB</text>
  <text x="605.4" y="294" text-anchor="middle" fill="#374151" font-size="8.5">8 KiB</text>
  <text x="656.9" y="294" text-anchor="middle" fill="#374151" font-size="8.5">16 KiB</text>
  <text x="708.5" y="294" text-anchor="middle" fill="#374151" font-size="8.5">32 KiB</text>
  <text x="760.0" y="294" text-anchor="middle" fill="#374151" font-size="8.5">64 KiB</text>
  <text x="425.0" y="320" text-anchor="middle" fill="#111827" font-size="13" font-weight="700">REQ/REP latency — 2-process, TCP loopback, p50 µs (lower is better)</text>
  <line x1="90" y1="502.0" x2="760" y2="502.0" stroke="#e5e7eb" stroke-width="1"/>
  <text x="82" y="502.0" text-anchor="end" dominant-baseline="middle" fill="#374151" font-size="10">20 µs</text>
  <line x1="90" y1="484.0" x2="760" y2="484.0" stroke="#e5e7eb" stroke-width="1"/>
  <text x="82" y="484.0" text-anchor="end" dominant-baseline="middle" fill="#374151" font-size="10">40 µs</text>
  <line x1="90" y1="466.0" x2="760" y2="466.0" stroke="#e5e7eb" stroke-width="1"/>
  <text x="82" y="466.0" text-anchor="end" dominant-baseline="middle" fill="#374151" font-size="10">60 µs</text>
  <line x1="90" y1="448.0" x2="760" y2="448.0" stroke="#e5e7eb" stroke-width="1"/>
  <text x="82" y="448.0" text-anchor="end" dominant-baseline="middle" fill="#374151" font-size="10">80 µs</text>
  <line x1="90" y1="430.0" x2="760" y2="430.0" stroke="#e5e7eb" stroke-width="1"/>
  <text x="82" y="430.0" text-anchor="end" dominant-baseline="middle" fill="#374151" font-size="10">100 µs</text>
  <line x1="90" y1="412.0" x2="760" y2="412.0" stroke="#e5e7eb" stroke-width="1"/>
  <text x="82" y="412.0" text-anchor="end" dominant-baseline="middle" fill="#374151" font-size="10">120 µs</text>
  <line x1="90" y1="394.0" x2="760" y2="394.0" stroke="#e5e7eb" stroke-width="1"/>
  <text x="82" y="394.0" text-anchor="end" dominant-baseline="middle" fill="#374151" font-size="10">140 µs</text>
  <line x1="90" y1="376.0" x2="760" y2="376.0" stroke="#e5e7eb" stroke-width="1"/>
  <text x="82" y="376.0" text-anchor="end" dominant-baseline="middle" fill="#374151" font-size="10">160 µs</text>
  <line x1="90" y1="358.0" x2="760" y2="358.0" stroke="#e5e7eb" stroke-width="1"/>
  <text x="82" y="358.0" text-anchor="end" dominant-baseline="middle" fill="#374151" font-size="10">180 µs</text>
  <line x1="90" y1="340.0" x2="760" y2="340.0" stroke="#e5e7eb" stroke-width="1"/>
  <text x="82" y="340.0" text-anchor="end" dominant-baseline="middle" fill="#374151" font-size="10">200 µs</text>
  <line x1="90.0" y1="340" x2="90.0" y2="520" stroke="#e5e7eb" stroke-width="1"/>
  <line x1="141.5" y1="340" x2="141.5" y2="520" stroke="#e5e7eb" stroke-width="1"/>
  <line x1="193.1" y1="340" x2="193.1" y2="520" stroke="#e5e7eb" stroke-width="1"/>
  <line x1="244.6" y1="340" x2="244.6" y2="520" stroke="#e5e7eb" stroke-width="1"/>
  <line x1="296.2" y1="340" x2="296.2" y2="520" stroke="#e5e7eb" stroke-width="1"/>
  <line x1="347.7" y1="340" x2="347.7" y2="520" stroke="#e5e7eb" stroke-width="1"/>
  <line x1="399.2" y1="340" x2="399.2" y2="520" stroke="#e5e7eb" stroke-width="1"/>
  <line x1="450.8" y1="340" x2="450.8" y2="520" stroke="#e5e7eb" stroke-width="1"/>
  <line x1="502.3" y1="340" x2="502.3" y2="520" stroke="#e5e7eb" stroke-width="1"/>
  <line x1="553.8" y1="340" x2="553.8" y2="520" stroke="#e5e7eb" stroke-width="1"/>
  <line x1="605.4" y1="340" x2="605.4" y2="520" stroke="#e5e7eb" stroke-width="1"/>
  <line x1="656.9" y1="340" x2="656.9" y2="520" stroke="#e5e7eb" stroke-width="1"/>
  <line x1="708.5" y1="340" x2="708.5" y2="520" stroke="#e5e7eb" stroke-width="1"/>
  <line x1="760.0" y1="340" x2="760.0" y2="520" stroke="#e5e7eb" stroke-width="1"/>
  <line x1="90" y1="340" x2="90" y2="520" stroke="#9ca3af" stroke-width="1.5"/>
  <line x1="90" y1="520" x2="760" y2="520" stroke="#9ca3af" stroke-width="1.5"/>
  <text x="40" y="430" text-anchor="middle" dominant-baseline="middle" fill="#374151" font-size="10" font-weight="600" transform="rotate(-90,40,430)">p50 latency (µs)</text>
  <polyline points="90.0,463.7 141.5,464.4 193.1,465.8 244.6,464.1 296.2,463.7 347.7,465.1 399.2,467.3 450.8,461.2 502.3,462.4 553.8,462.3 605.4,457.0 656.9,453.3 708.5,446.2 760.0,419.6" fill="none" stroke="#dc2626" stroke-width="2.5" stroke-linecap="round" stroke-linejoin="round"/>
  <circle cx="90.0" cy="463.7" r="3" fill="#dc2626" stroke="white" stroke-width="1"/>
  <circle cx="141.5" cy="464.4" r="3" fill="#dc2626" stroke="white" stroke-width="1"/>
  <circle cx="193.1" cy="465.8" r="3" fill="#dc2626" stroke="white" stroke-width="1"/>
  <circle cx="244.6" cy="464.1" r="3" fill="#dc2626" stroke="white" stroke-width="1"/>
  <circle cx="296.2" cy="463.7" r="3" fill="#dc2626" stroke="white" stroke-width="1"/>
  <circle cx="347.7" cy="465.1" r="3" fill="#dc2626" stroke="white" stroke-width="1"/>
  <circle cx="399.2" cy="467.3" r="3" fill="#dc2626" stroke="white" stroke-width="1"/>
  <circle cx="450.8" cy="461.2" r="3" fill="#dc2626" stroke="white" stroke-width="1"/>
  <circle cx="502.3" cy="462.4" r="3" fill="#dc2626" stroke="white" stroke-width="1"/>
  <circle cx="553.8" cy="462.3" r="3" fill="#dc2626" stroke="white" stroke-width="1"/>
  <circle cx="605.4" cy="457.0" r="3" fill="#dc2626" stroke="white" stroke-width="1"/>
  <circle cx="656.9" cy="453.3" r="3" fill="#dc2626" stroke="white" stroke-width="1"/>
  <circle cx="708.5" cy="446.2" r="3" fill="#dc2626" stroke="white" stroke-width="1"/>
  <circle cx="760.0" cy="419.6" r="3" fill="#dc2626" stroke="white" stroke-width="1"/>
  <polyline points="90.0,445.1 141.5,442.3 193.1,441.8 244.6,444.4 296.2,442.9 347.7,443.3 399.2,442.8 450.8,438.8 502.3,440.3 553.8,440.6 605.4,438.0 656.9,434.6 708.5,430.3 760.0,403.0" fill="none" stroke="#f97316" stroke-width="2.5" stroke-linecap="round" stroke-linejoin="round"/>
  <circle cx="90.0" cy="445.1" r="3" fill="#f97316" stroke="white" stroke-width="1"/>
  <circle cx="141.5" cy="442.3" r="3" fill="#f97316" stroke="white" stroke-width="1"/>
  <circle cx="193.1" cy="441.8" r="3" fill="#f97316" stroke="white" stroke-width="1"/>
  <circle cx="244.6" cy="444.4" r="3" fill="#f97316" stroke="white" stroke-width="1"/>
  <circle cx="296.2" cy="442.9" r="3" fill="#f97316" stroke="white" stroke-width="1"/>
  <circle cx="347.7" cy="443.3" r="3" fill="#f97316" stroke="white" stroke-width="1"/>
  <circle cx="399.2" cy="442.8" r="3" fill="#f97316" stroke="white" stroke-width="1"/>
  <circle cx="450.8" cy="438.8" r="3" fill="#f97316" stroke="white" stroke-width="1"/>
  <circle cx="502.3" cy="440.3" r="3" fill="#f97316" stroke="white" stroke-width="1"/>
  <circle cx="553.8" cy="440.6" r="3" fill="#f97316" stroke="white" stroke-width="1"/>
  <circle cx="605.4" cy="438.0" r="3" fill="#f97316" stroke="white" stroke-width="1"/>
  <circle cx="656.9" cy="434.6" r="3" fill="#f97316" stroke="white" stroke-width="1"/>
  <circle cx="708.5" cy="430.3" r="3" fill="#f97316" stroke="white" stroke-width="1"/>
  <circle cx="760.0" cy="403.0" r="3" fill="#f97316" stroke="white" stroke-width="1"/>
  <polyline points="90.0,458.8 141.5,456.7 193.1,457.2 244.6,456.3 296.2,456.4 347.7,456.9 399.2,456.1 450.8,455.6 502.3,454.4 553.8,454.0 605.4,438.9 656.9,434.1 708.5,427.2 760.0,415.8" fill="none" stroke="#2563eb" stroke-width="2.5" stroke-linecap="round" stroke-linejoin="round"/>
  <circle cx="90.0" cy="458.8" r="3" fill="#2563eb" stroke="white" stroke-width="1"/>
  <circle cx="141.5" cy="456.7" r="3" fill="#2563eb" stroke="white" stroke-width="1"/>
  <circle cx="193.1" cy="457.2" r="3" fill="#2563eb" stroke="white" stroke-width="1"/>
  <circle cx="244.6" cy="456.3" r="3" fill="#2563eb" stroke="white" stroke-width="1"/>
  <circle cx="296.2" cy="456.4" r="3" fill="#2563eb" stroke="white" stroke-width="1"/>
  <circle cx="347.7" cy="456.9" r="3" fill="#2563eb" stroke="white" stroke-width="1"/>
  <circle cx="399.2" cy="456.1" r="3" fill="#2563eb" stroke="white" stroke-width="1"/>
  <circle cx="450.8" cy="455.6" r="3" fill="#2563eb" stroke="white" stroke-width="1"/>
  <circle cx="502.3" cy="454.4" r="3" fill="#2563eb" stroke="white" stroke-width="1"/>
  <circle cx="553.8" cy="454.0" r="3" fill="#2563eb" stroke="white" stroke-width="1"/>
  <circle cx="605.4" cy="438.9" r="3" fill="#2563eb" stroke="white" stroke-width="1"/>
  <circle cx="656.9" cy="434.1" r="3" fill="#2563eb" stroke="white" stroke-width="1"/>
  <circle cx="708.5" cy="427.2" r="3" fill="#2563eb" stroke="white" stroke-width="1"/>
  <circle cx="760.0" cy="415.8" r="3" fill="#2563eb" stroke="white" stroke-width="1"/>
  <polyline points="90.0,413.8 141.5,412.2 193.1,414.5 244.6,414.3 296.2,417.6 347.7,415.7 399.2,413.6 450.8,410.5 502.3,409.9 553.8,410.1 605.4,379.8 656.9,377.0 708.5,372.4 760.0,350.1" fill="none" stroke="#8b5cf6" stroke-width="2.5" stroke-linecap="round" stroke-linejoin="round"/>
  <circle cx="90.0" cy="413.8" r="3" fill="#8b5cf6" stroke="white" stroke-width="1"/>
  <circle cx="141.5" cy="412.2" r="3" fill="#8b5cf6" stroke="white" stroke-width="1"/>
  <circle cx="193.1" cy="414.5" r="3" fill="#8b5cf6" stroke="white" stroke-width="1"/>
  <circle cx="244.6" cy="414.3" r="3" fill="#8b5cf6" stroke="white" stroke-width="1"/>
  <circle cx="296.2" cy="417.6" r="3" fill="#8b5cf6" stroke="white" stroke-width="1"/>
  <circle cx="347.7" cy="415.7" r="3" fill="#8b5cf6" stroke="white" stroke-width="1"/>
  <circle cx="399.2" cy="413.6" r="3" fill="#8b5cf6" stroke="white" stroke-width="1"/>
  <circle cx="450.8" cy="410.5" r="3" fill="#8b5cf6" stroke="white" stroke-width="1"/>
  <circle cx="502.3" cy="409.9" r="3" fill="#8b5cf6" stroke="white" stroke-width="1"/>
  <circle cx="553.8" cy="410.1" r="3" fill="#8b5cf6" stroke="white" stroke-width="1"/>
  <circle cx="605.4" cy="379.8" r="3" fill="#8b5cf6" stroke="white" stroke-width="1"/>
  <circle cx="656.9" cy="377.0" r="3" fill="#8b5cf6" stroke="white" stroke-width="1"/>
  <circle cx="708.5" cy="372.4" r="3" fill="#8b5cf6" stroke="white" stroke-width="1"/>
  <circle cx="760.0" cy="350.1" r="3" fill="#8b5cf6" stroke="white" stroke-width="1"/>
  <text x="90.0" y="534" text-anchor="middle" fill="#374151" font-size="8.5">8 B</text>
  <text x="141.5" y="534" text-anchor="middle" fill="#374151" font-size="8.5">16 B</text>
  <text x="193.1" y="534" text-anchor="middle" fill="#374151" font-size="8.5">32 B</text>
  <text x="244.6" y="534" text-anchor="middle" fill="#374151" font-size="8.5">64 B</text>
  <text x="296.2" y="534" text-anchor="middle" fill="#374151" font-size="8.5">128 B</text>
  <text x="347.7" y="534" text-anchor="middle" fill="#374151" font-size="8.5">256 B</text>
  <text x="399.2" y="534" text-anchor="middle" fill="#374151" font-size="8.5">512 B</text>
  <text x="450.8" y="534" text-anchor="middle" fill="#374151" font-size="8.5">1 KiB</text>
  <text x="502.3" y="534" text-anchor="middle" fill="#374151" font-size="8.5">2 KiB</text>
  <text x="553.8" y="534" text-anchor="middle" fill="#374151" font-size="8.5">4 KiB</text>
  <text x="605.4" y="534" text-anchor="middle" fill="#374151" font-size="8.5">8 KiB</text>
  <text x="656.9" y="534" text-anchor="middle" fill="#374151" font-size="8.5">16 KiB</text>
  <text x="708.5" y="534" text-anchor="middle" fill="#374151" font-size="8.5">32 KiB</text>
  <text x="760.0" y="534" text-anchor="middle" fill="#374151" font-size="8.5">64 KiB</text>
  <line x1="145" y1="560" x2="159" y2="560" stroke="#dc2626" stroke-width="2.5"/>
  <circle cx="152" cy="560" r="2.5" fill="#dc2626"/>
  <text x="165" y="564" fill="#374151" font-size="11" font-weight="500">pyomq</text>
  <line x1="285" y1="560" x2="299" y2="560" stroke="#f97316" stroke-width="2.5"/>
  <circle cx="292" cy="560" r="2.5" fill="#f97316"/>
  <text x="305" y="564" fill="#374151" font-size="11" font-weight="500">pyomq async</text>
  <line x1="425" y1="560" x2="439" y2="560" stroke="#2563eb" stroke-width="2.5"/>
  <circle cx="432" cy="560" r="2.5" fill="#2563eb"/>
  <text x="445" y="564" fill="#374151" font-size="11" font-weight="500">pyzmq</text>
  <line x1="565" y1="560" x2="579" y2="560" stroke="#8b5cf6" stroke-width="2.5"/>
  <circle cx="572" cy="560" r="2.5" fill="#8b5cf6"/>
  <text x="585" y="564" fill="#374151" font-size="11" font-weight="500">pyzmq async</text>
</svg>
