<svg xmlns="http://www.w3.org/2000/svg" viewBox="0 0 850 684" font-family="system-ui, -apple-system, sans-serif">
  <rect width="850" height="684" fill="white"/>
  <text x="425.0" y="32" text-anchor="middle" fill="#111827" font-size="13" font-weight="700">PUSH/PULL throughput: 2-process, TCP loopback (higher is better)</text>
  <text x="425.0" y="46" text-anchor="middle" fill="#9ca3af" font-size="10">Intel Core i7-8700B @ 3.20GHz, 6 cores, performance governor, turbo off</text>
  <line x1="90" y1="384.0" x2="760" y2="384.0" stroke="#e5e7eb" stroke-width="1"/>
  <text x="82" y="384.0" text-anchor="end" dominant-baseline="middle" fill="#374151" font-size="10">0</text>
  <line x1="90" y1="317.0" x2="760" y2="317.0" stroke="#e5e7eb" stroke-width="1"/>
  <text x="82" y="317.0" text-anchor="end" dominant-baseline="middle" fill="#374151" font-size="10">500k</text>
  <line x1="90" y1="250.0" x2="760" y2="250.0" stroke="#e5e7eb" stroke-width="1"/>
  <text x="82" y="250.0" text-anchor="end" dominant-baseline="middle" fill="#374151" font-size="10">1M</text>
  <line x1="90" y1="183.0" x2="760" y2="183.0" stroke="#e5e7eb" stroke-width="1"/>
  <text x="82" y="183.0" text-anchor="end" dominant-baseline="middle" fill="#374151" font-size="10">1.5M</text>
  <line x1="90" y1="116.0" x2="760" y2="116.0" stroke="#e5e7eb" stroke-width="1"/>
  <text x="82" y="116.0" text-anchor="end" dominant-baseline="middle" fill="#374151" font-size="10">2M</text>
  <line x1="90" y1="49.0" x2="760" y2="49.0" stroke="#e5e7eb" stroke-width="1"/>
  <text x="82" y="49.0" text-anchor="end" dominant-baseline="middle" fill="#374151" font-size="10">2.5M</text>
  <line x1="90" y1="384.0" x2="760" y2="384.0" stroke="#e5e7eb" stroke-width="1" stroke-dasharray="3,6"/>
  <text x="768" y="384.0" text-anchor="start" dominant-baseline="middle" fill="#6b7280" font-size="10">0.0 MB/s</text>
  <line x1="90" y1="317.0" x2="760" y2="317.0" stroke="#e5e7eb" stroke-width="1" stroke-dasharray="3,6"/>
  <text x="768" y="317.0" text-anchor="start" dominant-baseline="middle" fill="#6b7280" font-size="10">1.2 GB/s</text>
  <line x1="90" y1="250.0" x2="760" y2="250.0" stroke="#e5e7eb" stroke-width="1" stroke-dasharray="3,6"/>
  <text x="768" y="250.0" text-anchor="start" dominant-baseline="middle" fill="#6b7280" font-size="10">2.4 GB/s</text>
  <line x1="90" y1="183.0" x2="760" y2="183.0" stroke="#e5e7eb" stroke-width="1" stroke-dasharray="3,6"/>
  <text x="768" y="183.0" text-anchor="start" dominant-baseline="middle" fill="#6b7280" font-size="10">3.6 GB/s</text>
  <line x1="90" y1="116.0" x2="760" y2="116.0" stroke="#e5e7eb" stroke-width="1" stroke-dasharray="3,6"/>
  <text x="768" y="116.0" text-anchor="start" dominant-baseline="middle" fill="#6b7280" font-size="10">4.8 GB/s</text>
  <line x1="90" y1="49.0" x2="760" y2="49.0" stroke="#e5e7eb" stroke-width="1" stroke-dasharray="3,6"/>
  <text x="768" y="49.0" text-anchor="start" dominant-baseline="middle" fill="#6b7280" font-size="10">6.0 GB/s</text>
  <line x1="90.0" y1="49" x2="90.0" y2="384" stroke="#e5e7eb" stroke-width="1"/>
  <line x1="145.8" y1="49" x2="145.8" y2="384" stroke="#e5e7eb" stroke-width="1"/>
  <line x1="201.7" y1="49" x2="201.7" y2="384" stroke="#e5e7eb" stroke-width="1"/>
  <line x1="257.5" y1="49" x2="257.5" y2="384" stroke="#e5e7eb" stroke-width="1"/>
  <line x1="313.3" y1="49" x2="313.3" y2="384" stroke="#e5e7eb" stroke-width="1"/>
  <line x1="369.2" y1="49" x2="369.2" y2="384" stroke="#e5e7eb" stroke-width="1"/>
  <line x1="425.0" y1="49" x2="425.0" y2="384" stroke="#e5e7eb" stroke-width="1"/>
  <line x1="480.8" y1="49" x2="480.8" y2="384" stroke="#e5e7eb" stroke-width="1"/>
  <line x1="536.7" y1="49" x2="536.7" y2="384" stroke="#e5e7eb" stroke-width="1"/>
  <line x1="592.5" y1="49" x2="592.5" y2="384" stroke="#e5e7eb" stroke-width="1"/>
  <line x1="648.3" y1="49" x2="648.3" y2="384" stroke="#e5e7eb" stroke-width="1"/>
  <line x1="704.2" y1="49" x2="704.2" y2="384" stroke="#e5e7eb" stroke-width="1"/>
  <line x1="760.0" y1="49" x2="760.0" y2="384" stroke="#e5e7eb" stroke-width="1"/>
  <line x1="90" y1="49" x2="90" y2="384" stroke="#9ca3af" stroke-width="1.5"/>
  <line x1="760" y1="49" x2="760" y2="384" stroke="#9ca3af" stroke-width="1.5"/>
  <line x1="90" y1="384" x2="760" y2="384" stroke="#9ca3af" stroke-width="1.5"/>
  <text x="40" y="216" text-anchor="middle" dominant-baseline="middle" fill="#374151" font-size="10" font-weight="600" transform="rotate(-90,40,216)">msg/s</text>
  <polyline points="90.0,146.6 145.8,164.7 201.7,153.8 257.5,151.4 313.3,150.8 369.2,152.3 425.0,148.7 480.8,139.6 536.7,265.0 592.5,314.7 648.3,341.5 704.2,356.4 760.0,370.7" fill="none" stroke="#dc2626" stroke-width="2" stroke-dasharray="6,4"/>
  <polyline points="90.0,254.8 145.8,254.1 201.7,251.5 257.5,255.6 313.3,257.3 369.2,259.0 425.0,263.2 480.8,280.0 536.7,286.5 592.5,314.0 648.3,342.3 704.2,359.7 760.0,371.0" fill="none" stroke="#f97316" stroke-width="2" stroke-dasharray="6,4"/>
  <polyline points="90.0,231.1 145.8,227.8 201.7,226.4 257.5,246.0 313.3,271.8 369.2,285.1 425.0,281.4 480.8,304.5 536.7,328.8 592.5,351.2 648.3,366.4 704.2,374.6 760.0,376.6" fill="none" stroke="#2563eb" stroke-width="2" stroke-dasharray="6,4"/>
  <polyline points="90.0,377.2 145.8,377.1 201.7,377.2 257.5,377.2 313.3,377.6 369.2,377.4 425.0,377.3 480.8,377.4 536.7,377.5 592.5,377.7 648.3,377.9 704.2,378.0 760.0,378.6" fill="none" stroke="#8b5cf6" stroke-width="2" stroke-dasharray="6,4"/>
  <polyline points="90.0,383.2 145.8,382.5 201.7,380.9 257.5,377.8 313.3,371.6 369.2,359.3 425.0,333.8 480.8,279.7 536.7,282.5 592.5,265.8 648.3,239.1 704.2,195.6 760.0,203.0" fill="none" stroke="#dc2626" stroke-width="2.5" stroke-linecap="round" stroke-linejoin="round"/>
  <circle cx="90.0" cy="383.2" r="3" fill="#dc2626" stroke="white" stroke-width="1"/>
  <circle cx="145.8" cy="382.5" r="3" fill="#dc2626" stroke="white" stroke-width="1"/>
  <circle cx="201.7" cy="380.9" r="3" fill="#dc2626" stroke="white" stroke-width="1"/>
  <circle cx="257.5" cy="377.8" r="3" fill="#dc2626" stroke="white" stroke-width="1"/>
  <circle cx="313.3" cy="371.6" r="3" fill="#dc2626" stroke="white" stroke-width="1"/>
  <circle cx="369.2" cy="359.3" r="3" fill="#dc2626" stroke="white" stroke-width="1"/>
  <circle cx="425.0" cy="333.8" r="3" fill="#dc2626" stroke="white" stroke-width="1"/>
  <circle cx="480.8" cy="279.7" r="3" fill="#dc2626" stroke="white" stroke-width="1"/>
  <circle cx="536.7" cy="282.5" r="3" fill="#dc2626" stroke="white" stroke-width="1"/>
  <circle cx="592.5" cy="265.8" r="3" fill="#dc2626" stroke="white" stroke-width="1"/>
  <circle cx="648.3" cy="239.1" r="3" fill="#dc2626" stroke="white" stroke-width="1"/>
  <circle cx="704.2" cy="195.6" r="3" fill="#dc2626" stroke="white" stroke-width="1"/>
  <circle cx="760.0" cy="203.0" r="3" fill="#dc2626" stroke="white" stroke-width="1"/>
  <polyline points="90.0,383.6 145.8,383.1 201.7,382.2 257.5,380.6 313.3,377.2 369.2,370.7 425.0,358.2 480.8,339.6 536.7,300.8 592.5,264.5 648.3,241.7 704.2,217.9 760.0,206.0" fill="none" stroke="#f97316" stroke-width="2.5" stroke-linecap="round" stroke-linejoin="round"/>
  <circle cx="90.0" cy="383.6" r="3" fill="#f97316" stroke="white" stroke-width="1"/>
  <circle cx="145.8" cy="383.1" r="3" fill="#f97316" stroke="white" stroke-width="1"/>
  <circle cx="201.7" cy="382.2" r="3" fill="#f97316" stroke="white" stroke-width="1"/>
  <circle cx="257.5" cy="380.6" r="3" fill="#f97316" stroke="white" stroke-width="1"/>
  <circle cx="313.3" cy="377.2" r="3" fill="#f97316" stroke="white" stroke-width="1"/>
  <circle cx="369.2" cy="370.7" r="3" fill="#f97316" stroke="white" stroke-width="1"/>
  <circle cx="425.0" cy="358.2" r="3" fill="#f97316" stroke="white" stroke-width="1"/>
  <circle cx="480.8" cy="339.6" r="3" fill="#f97316" stroke="white" stroke-width="1"/>
  <circle cx="536.7" cy="300.8" r="3" fill="#f97316" stroke="white" stroke-width="1"/>
  <circle cx="592.5" cy="264.5" r="3" fill="#f97316" stroke="white" stroke-width="1"/>
  <circle cx="648.3" cy="241.7" r="3" fill="#f97316" stroke="white" stroke-width="1"/>
  <circle cx="704.2" cy="217.9" r="3" fill="#f97316" stroke="white" stroke-width="1"/>
  <circle cx="760.0" cy="206.0" r="3" fill="#f97316" stroke="white" stroke-width="1"/>
  <polyline points="90.0,383.5 145.8,383.0 201.7,381.9 257.5,380.3 313.3,378.0 369.2,373.4 425.0,362.1 480.8,350.1 536.7,336.9 592.5,328.0 648.3,323.9 704.2,319.7 760.0,282.5" fill="none" stroke="#2563eb" stroke-width="2.5" stroke-linecap="round" stroke-linejoin="round"/>
  <circle cx="90.0" cy="383.5" r="3" fill="#2563eb" stroke="white" stroke-width="1"/>
  <circle cx="145.8" cy="383.0" r="3" fill="#2563eb" stroke="white" stroke-width="1"/>
  <circle cx="201.7" cy="381.9" r="3" fill="#2563eb" stroke="white" stroke-width="1"/>
  <circle cx="257.5" cy="380.3" r="3" fill="#2563eb" stroke="white" stroke-width="1"/>
  <circle cx="313.3" cy="378.0" r="3" fill="#2563eb" stroke="white" stroke-width="1"/>
  <circle cx="369.2" cy="373.4" r="3" fill="#2563eb" stroke="white" stroke-width="1"/>
  <circle cx="425.0" cy="362.1" r="3" fill="#2563eb" stroke="white" stroke-width="1"/>
  <circle cx="480.8" cy="350.1" r="3" fill="#2563eb" stroke="white" stroke-width="1"/>
  <circle cx="536.7" cy="336.9" r="3" fill="#2563eb" stroke="white" stroke-width="1"/>
  <circle cx="592.5" cy="328.0" r="3" fill="#2563eb" stroke="white" stroke-width="1"/>
  <circle cx="648.3" cy="323.9" r="3" fill="#2563eb" stroke="white" stroke-width="1"/>
  <circle cx="704.2" cy="319.7" r="3" fill="#2563eb" stroke="white" stroke-width="1"/>
  <circle cx="760.0" cy="282.5" r="3" fill="#2563eb" stroke="white" stroke-width="1"/>
  <polyline points="90.0,384.0 145.8,384.0 201.7,383.9 257.5,383.8 313.3,383.7 369.2,383.3 425.0,382.6 480.8,381.2 536.7,378.5 592.5,373.3 648.3,363.1 704.2,343.4 760.0,309.9" fill="none" stroke="#8b5cf6" stroke-width="2.5" stroke-linecap="round" stroke-linejoin="round"/>
  <circle cx="90.0" cy="384.0" r="3" fill="#8b5cf6" stroke="white" stroke-width="1"/>
  <circle cx="145.8" cy="384.0" r="3" fill="#8b5cf6" stroke="white" stroke-width="1"/>
  <circle cx="201.7" cy="383.9" r="3" fill="#8b5cf6" stroke="white" stroke-width="1"/>
  <circle cx="257.5" cy="383.8" r="3" fill="#8b5cf6" stroke="white" stroke-width="1"/>
  <circle cx="313.3" cy="383.7" r="3" fill="#8b5cf6" stroke="white" stroke-width="1"/>
  <circle cx="369.2" cy="383.3" r="3" fill="#8b5cf6" stroke="white" stroke-width="1"/>
  <circle cx="425.0" cy="382.6" r="3" fill="#8b5cf6" stroke="white" stroke-width="1"/>
  <circle cx="480.8" cy="381.2" r="3" fill="#8b5cf6" stroke="white" stroke-width="1"/>
  <circle cx="536.7" cy="378.5" r="3" fill="#8b5cf6" stroke="white" stroke-width="1"/>
  <circle cx="592.5" cy="373.3" r="3" fill="#8b5cf6" stroke="white" stroke-width="1"/>
  <circle cx="648.3" cy="363.1" r="3" fill="#8b5cf6" stroke="white" stroke-width="1"/>
  <circle cx="704.2" cy="343.4" r="3" fill="#8b5cf6" stroke="white" stroke-width="1"/>
  <circle cx="760.0" cy="309.9" r="3" fill="#8b5cf6" stroke="white" stroke-width="1"/>
  <text x="90.0" y="398" text-anchor="middle" fill="#374151" font-size="8.5">8 B</text>
  <text x="145.8" y="398" text-anchor="middle" fill="#374151" font-size="8.5">16 B</text>
  <text x="201.7" y="398" text-anchor="middle" fill="#374151" font-size="8.5">32 B</text>
  <text x="257.5" y="398" text-anchor="middle" fill="#374151" font-size="8.5">64 B</text>
  <text x="313.3" y="398" text-anchor="middle" fill="#374151" font-size="8.5">128 B</text>
  <text x="369.2" y="398" text-anchor="middle" fill="#374151" font-size="8.5">256 B</text>
  <text x="425.0" y="398" text-anchor="middle" fill="#374151" font-size="8.5">512 B</text>
  <text x="480.8" y="398" text-anchor="middle" fill="#374151" font-size="8.5">1 KiB</text>
  <text x="536.7" y="398" text-anchor="middle" fill="#374151" font-size="8.5">2 KiB</text>
  <text x="592.5" y="398" text-anchor="middle" fill="#374151" font-size="8.5">4 KiB</text>
  <text x="648.3" y="398" text-anchor="middle" fill="#374151" font-size="8.5">8 KiB</text>
  <text x="704.2" y="398" text-anchor="middle" fill="#374151" font-size="8.5">16 KiB</text>
  <text x="760.0" y="398" text-anchor="middle" fill="#374151" font-size="8.5">32 KiB</text>
  <text x="425.0" y="447" text-anchor="middle" fill="#111827" font-size="13" font-weight="700">REQ/REP latency: 2-process, TCP loopback, p50 µs (lower is better)</text>
  <line x1="90" y1="572.0" x2="760" y2="572.0" stroke="#e5e7eb" stroke-width="1"/>
  <text x="82" y="572.0" text-anchor="end" dominant-baseline="middle" fill="#374151" font-size="10">20 µs</text>
  <line x1="90" y1="560.0" x2="760" y2="560.0" stroke="#e5e7eb" stroke-width="1"/>
  <text x="82" y="560.0" text-anchor="end" dominant-baseline="middle" fill="#374151" font-size="10">40 µs</text>
  <line x1="90" y1="548.0" x2="760" y2="548.0" stroke="#e5e7eb" stroke-width="1"/>
  <text x="82" y="548.0" text-anchor="end" dominant-baseline="middle" fill="#374151" font-size="10">60 µs</text>
  <line x1="90" y1="536.0" x2="760" y2="536.0" stroke="#e5e7eb" stroke-width="1"/>
  <text x="82" y="536.0" text-anchor="end" dominant-baseline="middle" fill="#374151" font-size="10">80 µs</text>
  <line x1="90" y1="524.0" x2="760" y2="524.0" stroke="#e5e7eb" stroke-width="1"/>
  <text x="82" y="524.0" text-anchor="end" dominant-baseline="middle" fill="#374151" font-size="10">100 µs</text>
  <line x1="90" y1="512.0" x2="760" y2="512.0" stroke="#e5e7eb" stroke-width="1"/>
  <text x="82" y="512.0" text-anchor="end" dominant-baseline="middle" fill="#374151" font-size="10">120 µs</text>
  <line x1="90" y1="500.0" x2="760" y2="500.0" stroke="#e5e7eb" stroke-width="1"/>
  <text x="82" y="500.0" text-anchor="end" dominant-baseline="middle" fill="#374151" font-size="10">140 µs</text>
  <line x1="90" y1="488.0" x2="760" y2="488.0" stroke="#e5e7eb" stroke-width="1"/>
  <text x="82" y="488.0" text-anchor="end" dominant-baseline="middle" fill="#374151" font-size="10">160 µs</text>
  <line x1="90" y1="476.0" x2="760" y2="476.0" stroke="#e5e7eb" stroke-width="1"/>
  <text x="82" y="476.0" text-anchor="end" dominant-baseline="middle" fill="#374151" font-size="10">180 µs</text>
  <line x1="90" y1="464.0" x2="760" y2="464.0" stroke="#e5e7eb" stroke-width="1"/>
  <text x="82" y="464.0" text-anchor="end" dominant-baseline="middle" fill="#374151" font-size="10">200 µs</text>
  <line x1="90.0" y1="464" x2="90.0" y2="584" stroke="#e5e7eb" stroke-width="1"/>
  <line x1="145.8" y1="464" x2="145.8" y2="584" stroke="#e5e7eb" stroke-width="1"/>
  <line x1="201.7" y1="464" x2="201.7" y2="584" stroke="#e5e7eb" stroke-width="1"/>
  <line x1="257.5" y1="464" x2="257.5" y2="584" stroke="#e5e7eb" stroke-width="1"/>
  <line x1="313.3" y1="464" x2="313.3" y2="584" stroke="#e5e7eb" stroke-width="1"/>
  <line x1="369.2" y1="464" x2="369.2" y2="584" stroke="#e5e7eb" stroke-width="1"/>
  <line x1="425.0" y1="464" x2="425.0" y2="584" stroke="#e5e7eb" stroke-width="1"/>
  <line x1="480.8" y1="464" x2="480.8" y2="584" stroke="#e5e7eb" stroke-width="1"/>
  <line x1="536.7" y1="464" x2="536.7" y2="584" stroke="#e5e7eb" stroke-width="1"/>
  <line x1="592.5" y1="464" x2="592.5" y2="584" stroke="#e5e7eb" stroke-width="1"/>
  <line x1="648.3" y1="464" x2="648.3" y2="584" stroke="#e5e7eb" stroke-width="1"/>
  <line x1="704.2" y1="464" x2="704.2" y2="584" stroke="#e5e7eb" stroke-width="1"/>
  <line x1="760.0" y1="464" x2="760.0" y2="584" stroke="#e5e7eb" stroke-width="1"/>
  <line x1="90" y1="464" x2="90" y2="584" stroke="#9ca3af" stroke-width="1.5"/>
  <line x1="90" y1="584" x2="760" y2="584" stroke="#9ca3af" stroke-width="1.5"/>
  <text x="40" y="524" text-anchor="middle" dominant-baseline="middle" fill="#374151" font-size="10" font-weight="600" transform="rotate(-90,40,524)">p50 latency (µs)</text>
  <polyline points="90.0,534.9 145.8,535.3 201.7,535.2 257.5,535.0 313.3,535.0 369.2,534.6 425.0,534.4 480.8,534.3 536.7,532.8 592.5,531.5 648.3,530.5 704.2,528.0 760.0,521.9" fill="none" stroke="#dc2626" stroke-width="2.5" stroke-linecap="round" stroke-linejoin="round"/>
  <circle cx="90.0" cy="534.9" r="3" fill="#dc2626" stroke="white" stroke-width="1"/>
  <circle cx="145.8" cy="535.3" r="3" fill="#dc2626" stroke="white" stroke-width="1"/>
  <circle cx="201.7" cy="535.2" r="3" fill="#dc2626" stroke="white" stroke-width="1"/>
  <circle cx="257.5" cy="535.0" r="3" fill="#dc2626" stroke="white" stroke-width="1"/>
  <circle cx="313.3" cy="535.0" r="3" fill="#dc2626" stroke="white" stroke-width="1"/>
  <circle cx="369.2" cy="534.6" r="3" fill="#dc2626" stroke="white" stroke-width="1"/>
  <circle cx="425.0" cy="534.4" r="3" fill="#dc2626" stroke="white" stroke-width="1"/>
  <circle cx="480.8" cy="534.3" r="3" fill="#dc2626" stroke="white" stroke-width="1"/>
  <circle cx="536.7" cy="532.8" r="3" fill="#dc2626" stroke="white" stroke-width="1"/>
  <circle cx="592.5" cy="531.5" r="3" fill="#dc2626" stroke="white" stroke-width="1"/>
  <circle cx="648.3" cy="530.5" r="3" fill="#dc2626" stroke="white" stroke-width="1"/>
  <circle cx="704.2" cy="528.0" r="3" fill="#dc2626" stroke="white" stroke-width="1"/>
  <circle cx="760.0" cy="521.9" r="3" fill="#dc2626" stroke="white" stroke-width="1"/>
  <polyline points="90.0,514.7 145.8,513.1 201.7,513.6 257.5,513.7 313.3,512.9 369.2,513.3 425.0,512.0 480.8,512.6 536.7,511.4 592.5,510.3 648.3,507.9 704.2,505.4 760.0,500.2" fill="none" stroke="#f97316" stroke-width="2.5" stroke-linecap="round" stroke-linejoin="round"/>
  <circle cx="90.0" cy="514.7" r="3" fill="#f97316" stroke="white" stroke-width="1"/>
  <circle cx="145.8" cy="513.1" r="3" fill="#f97316" stroke="white" stroke-width="1"/>
  <circle cx="201.7" cy="513.6" r="3" fill="#f97316" stroke="white" stroke-width="1"/>
  <circle cx="257.5" cy="513.7" r="3" fill="#f97316" stroke="white" stroke-width="1"/>
  <circle cx="313.3" cy="512.9" r="3" fill="#f97316" stroke="white" stroke-width="1"/>
  <circle cx="369.2" cy="513.3" r="3" fill="#f97316" stroke="white" stroke-width="1"/>
  <circle cx="425.0" cy="512.0" r="3" fill="#f97316" stroke="white" stroke-width="1"/>
  <circle cx="480.8" cy="512.6" r="3" fill="#f97316" stroke="white" stroke-width="1"/>
  <circle cx="536.7" cy="511.4" r="3" fill="#f97316" stroke="white" stroke-width="1"/>
  <circle cx="592.5" cy="510.3" r="3" fill="#f97316" stroke="white" stroke-width="1"/>
  <circle cx="648.3" cy="507.9" r="3" fill="#f97316" stroke="white" stroke-width="1"/>
  <circle cx="704.2" cy="505.4" r="3" fill="#f97316" stroke="white" stroke-width="1"/>
  <circle cx="760.0" cy="500.2" r="3" fill="#f97316" stroke="white" stroke-width="1"/>
  <polyline points="90.0,527.6 145.8,526.5 201.7,527.1 257.5,526.0 313.3,527.5 369.2,525.6 425.0,525.4 480.8,524.9 536.7,522.6 592.5,522.7 648.3,509.5 704.2,509.3 760.0,500.9" fill="none" stroke="#2563eb" stroke-width="2.5" stroke-linecap="round" stroke-linejoin="round"/>
  <circle cx="90.0" cy="527.6" r="3" fill="#2563eb" stroke="white" stroke-width="1"/>
  <circle cx="145.8" cy="526.5" r="3" fill="#2563eb" stroke="white" stroke-width="1"/>
  <circle cx="201.7" cy="527.1" r="3" fill="#2563eb" stroke="white" stroke-width="1"/>
  <circle cx="257.5" cy="526.0" r="3" fill="#2563eb" stroke="white" stroke-width="1"/>
  <circle cx="313.3" cy="527.5" r="3" fill="#2563eb" stroke="white" stroke-width="1"/>
  <circle cx="369.2" cy="525.6" r="3" fill="#2563eb" stroke="white" stroke-width="1"/>
  <circle cx="425.0" cy="525.4" r="3" fill="#2563eb" stroke="white" stroke-width="1"/>
  <circle cx="480.8" cy="524.9" r="3" fill="#2563eb" stroke="white" stroke-width="1"/>
  <circle cx="536.7" cy="522.6" r="3" fill="#2563eb" stroke="white" stroke-width="1"/>
  <circle cx="592.5" cy="522.7" r="3" fill="#2563eb" stroke="white" stroke-width="1"/>
  <circle cx="648.3" cy="509.5" r="3" fill="#2563eb" stroke="white" stroke-width="1"/>
  <circle cx="704.2" cy="509.3" r="3" fill="#2563eb" stroke="white" stroke-width="1"/>
  <circle cx="760.0" cy="500.9" r="3" fill="#2563eb" stroke="white" stroke-width="1"/>
  <polyline points="90.0,488.7 145.8,489.6 201.7,487.7 257.5,489.2 313.3,487.6 369.2,490.2 425.0,487.9 480.8,487.9 536.7,486.1 592.5,479.3 648.3,455.2 704.2,452.2 760.0,443.0" fill="none" stroke="#8b5cf6" stroke-width="2.5" stroke-linecap="round" stroke-linejoin="round"/>
  <circle cx="90.0" cy="488.7" r="3" fill="#8b5cf6" stroke="white" stroke-width="1"/>
  <circle cx="145.8" cy="489.6" r="3" fill="#8b5cf6" stroke="white" stroke-width="1"/>
  <circle cx="201.7" cy="487.7" r="3" fill="#8b5cf6" stroke="white" stroke-width="1"/>
  <circle cx="257.5" cy="489.2" r="3" fill="#8b5cf6" stroke="white" stroke-width="1"/>
  <circle cx="313.3" cy="487.6" r="3" fill="#8b5cf6" stroke="white" stroke-width="1"/>
  <circle cx="369.2" cy="490.2" r="3" fill="#8b5cf6" stroke="white" stroke-width="1"/>
  <circle cx="425.0" cy="487.9" r="3" fill="#8b5cf6" stroke="white" stroke-width="1"/>
  <circle cx="480.8" cy="487.9" r="3" fill="#8b5cf6" stroke="white" stroke-width="1"/>
  <circle cx="536.7" cy="486.1" r="3" fill="#8b5cf6" stroke="white" stroke-width="1"/>
  <circle cx="592.5" cy="479.3" r="3" fill="#8b5cf6" stroke="white" stroke-width="1"/>
  <circle cx="648.3" cy="455.2" r="3" fill="#8b5cf6" stroke="white" stroke-width="1"/>
  <circle cx="704.2" cy="452.2" r="3" fill="#8b5cf6" stroke="white" stroke-width="1"/>
  <circle cx="760.0" cy="443.0" r="3" fill="#8b5cf6" stroke="white" stroke-width="1"/>
  <text x="90.0" y="598" text-anchor="middle" fill="#374151" font-size="8.5">8 B</text>
  <text x="145.8" y="598" text-anchor="middle" fill="#374151" font-size="8.5">16 B</text>
  <text x="201.7" y="598" text-anchor="middle" fill="#374151" font-size="8.5">32 B</text>
  <text x="257.5" y="598" text-anchor="middle" fill="#374151" font-size="8.5">64 B</text>
  <text x="313.3" y="598" text-anchor="middle" fill="#374151" font-size="8.5">128 B</text>
  <text x="369.2" y="598" text-anchor="middle" fill="#374151" font-size="8.5">256 B</text>
  <text x="425.0" y="598" text-anchor="middle" fill="#374151" font-size="8.5">512 B</text>
  <text x="480.8" y="598" text-anchor="middle" fill="#374151" font-size="8.5">1 KiB</text>
  <text x="536.7" y="598" text-anchor="middle" fill="#374151" font-size="8.5">2 KiB</text>
  <text x="592.5" y="598" text-anchor="middle" fill="#374151" font-size="8.5">4 KiB</text>
  <text x="648.3" y="598" text-anchor="middle" fill="#374151" font-size="8.5">8 KiB</text>
  <text x="704.2" y="598" text-anchor="middle" fill="#374151" font-size="8.5">16 KiB</text>
  <text x="760.0" y="598" text-anchor="middle" fill="#374151" font-size="8.5">32 KiB</text>
  <line x1="145" y1="624" x2="159" y2="624" stroke="#dc2626" stroke-width="2.5"/>
  <circle cx="152" cy="624" r="2.5" fill="#dc2626"/>
  <text x="165" y="628" fill="#374151" font-size="11" font-weight="500">pyomq</text>
  <line x1="285" y1="624" x2="299" y2="624" stroke="#f97316" stroke-width="2.5"/>
  <circle cx="292" cy="624" r="2.5" fill="#f97316"/>
  <text x="305" y="628" fill="#374151" font-size="11" font-weight="500">pyomq async</text>
  <line x1="425" y1="624" x2="439" y2="624" stroke="#2563eb" stroke-width="2.5"/>
  <circle cx="432" cy="624" r="2.5" fill="#2563eb"/>
  <text x="445" y="628" fill="#374151" font-size="11" font-weight="500">pyzmq</text>
  <line x1="565" y1="624" x2="579" y2="624" stroke="#8b5cf6" stroke-width="2.5"/>
  <circle cx="572" cy="624" r="2.5" fill="#8b5cf6"/>
  <text x="585" y="628" fill="#374151" font-size="11" font-weight="500">pyzmq async</text>
  <text x="425.0" y="642" text-anchor="middle" fill="#9ca3af" font-size="9">dashed = msg/s (left) · solid = throughput (right)</text>
</svg>
