<svg xmlns="http://www.w3.org/2000/svg" viewBox="0 0 850 600" font-family="system-ui, -apple-system, sans-serif">
  <rect width="850" height="600" fill="white"/>
  <text x="425.0" y="18" text-anchor="middle" fill="#111827" font-size="13" font-weight="700">PUSH/PULL throughput — 2-process, TCP loopback (higher is better)</text>
  <line x1="90" y1="280.0" x2="760" y2="280.0" stroke="#e5e7eb" stroke-width="1"/>
  <text x="82" y="280.0" text-anchor="end" dominant-baseline="middle" fill="#374151" font-size="10">0</text>
  <line x1="90" y1="218.8" x2="760" y2="218.8" stroke="#e5e7eb" stroke-width="1"/>
  <text x="82" y="218.8" text-anchor="end" dominant-baseline="middle" fill="#374151" font-size="10">500k</text>
  <line x1="90" y1="157.5" x2="760" y2="157.5" stroke="#e5e7eb" stroke-width="1"/>
  <text x="82" y="157.5" text-anchor="end" dominant-baseline="middle" fill="#374151" font-size="10">1M</text>
  <line x1="90" y1="96.2" x2="760" y2="96.2" stroke="#e5e7eb" stroke-width="1"/>
  <text x="82" y="96.2" text-anchor="end" dominant-baseline="middle" fill="#374151" font-size="10">1.5M</text>
  <line x1="90" y1="35.0" x2="760" y2="35.0" stroke="#e5e7eb" stroke-width="1"/>
  <text x="82" y="35.0" text-anchor="end" dominant-baseline="middle" fill="#374151" font-size="10">2M</text>
  <line x1="90" y1="280.0" x2="760" y2="280.0" stroke="#e5e7eb" stroke-width="1" stroke-dasharray="3,6"/>
  <text x="768" y="280.0" text-anchor="start" dominant-baseline="middle" fill="#6b7280" font-size="10">0.0 MB/s</text>
  <line x1="90" y1="231.0" x2="760" y2="231.0" stroke="#e5e7eb" stroke-width="1" stroke-dasharray="3,6"/>
  <text x="768" y="231.0" text-anchor="start" dominant-baseline="middle" fill="#6b7280" font-size="10">1.0 GB/s</text>
  <line x1="90" y1="182.0" x2="760" y2="182.0" stroke="#e5e7eb" stroke-width="1" stroke-dasharray="3,6"/>
  <text x="768" y="182.0" text-anchor="start" dominant-baseline="middle" fill="#6b7280" font-size="10">2.0 GB/s</text>
  <line x1="90" y1="133.0" x2="760" y2="133.0" stroke="#e5e7eb" stroke-width="1" stroke-dasharray="3,6"/>
  <text x="768" y="133.0" text-anchor="start" dominant-baseline="middle" fill="#6b7280" font-size="10">3.0 GB/s</text>
  <line x1="90" y1="84.0" x2="760" y2="84.0" stroke="#e5e7eb" stroke-width="1" stroke-dasharray="3,6"/>
  <text x="768" y="84.0" text-anchor="start" dominant-baseline="middle" fill="#6b7280" font-size="10">4.0 GB/s</text>
  <line x1="90" y1="35.0" x2="760" y2="35.0" stroke="#e5e7eb" stroke-width="1" stroke-dasharray="3,6"/>
  <text x="768" y="35.0" text-anchor="start" dominant-baseline="middle" fill="#6b7280" font-size="10">5.0 GB/s</text>
  <line x1="90.0" y1="35" x2="90.0" y2="280" stroke="#e5e7eb" stroke-width="1"/>
  <line x1="145.8" y1="35" x2="145.8" y2="280" stroke="#e5e7eb" stroke-width="1"/>
  <line x1="201.7" y1="35" x2="201.7" y2="280" stroke="#e5e7eb" stroke-width="1"/>
  <line x1="257.5" y1="35" x2="257.5" y2="280" stroke="#e5e7eb" stroke-width="1"/>
  <line x1="313.3" y1="35" x2="313.3" y2="280" stroke="#e5e7eb" stroke-width="1"/>
  <line x1="369.2" y1="35" x2="369.2" y2="280" stroke="#e5e7eb" stroke-width="1"/>
  <line x1="425.0" y1="35" x2="425.0" y2="280" stroke="#e5e7eb" stroke-width="1"/>
  <line x1="480.8" y1="35" x2="480.8" y2="280" stroke="#e5e7eb" stroke-width="1"/>
  <line x1="536.7" y1="35" x2="536.7" y2="280" stroke="#e5e7eb" stroke-width="1"/>
  <line x1="592.5" y1="35" x2="592.5" y2="280" stroke="#e5e7eb" stroke-width="1"/>
  <line x1="648.3" y1="35" x2="648.3" y2="280" stroke="#e5e7eb" stroke-width="1"/>
  <line x1="704.2" y1="35" x2="704.2" y2="280" stroke="#e5e7eb" stroke-width="1"/>
  <line x1="760.0" y1="35" x2="760.0" y2="280" stroke="#e5e7eb" stroke-width="1"/>
  <line x1="90" y1="35" x2="90" y2="280" stroke="#9ca3af" stroke-width="1.5"/>
  <line x1="760" y1="35" x2="760" y2="280" stroke="#9ca3af" stroke-width="1.5"/>
  <line x1="90" y1="280" x2="760" y2="280" stroke="#9ca3af" stroke-width="1.5"/>
  <text x="40" y="158" text-anchor="middle" dominant-baseline="middle" fill="#374151" font-size="10" font-weight="600" transform="rotate(-90,40,158)">msg/s</text>
  <text x="835" y="158" text-anchor="middle" dominant-baseline="middle" fill="#6b7280" font-size="10" font-weight="600" transform="rotate(90,835,158)">throughput</text>
  <polyline points="90.0,98.8 145.8,99.6 201.7,101.4 257.5,104.1 313.3,103.5 369.2,107.6 425.0,114.9 480.8,130.0 536.7,170.2 592.5,208.7 648.3,238.8 704.2,258.6 760.0,266.4" fill="none" stroke="#dc2626" stroke-width="2" stroke-dasharray="6,4"/>
  <polyline points="90.0,158.0 145.8,159.2 201.7,160.5 257.5,165.6 313.3,166.3 369.2,170.0 425.0,176.1 480.8,191.4 536.7,206.9 592.5,225.1 648.3,243.8 704.2,259.6 760.0,266.6" fill="none" stroke="#f97316" stroke-width="2" stroke-dasharray="6,4"/>
  <polyline points="90.0,211.5 145.8,212.0 201.7,213.2 257.5,217.7 313.3,221.7 369.2,223.6 425.0,224.0 480.8,225.7 536.7,237.0 592.5,255.2 648.3,266.7 704.2,273.3 760.0,274.5" fill="none" stroke="#2563eb" stroke-width="2" stroke-dasharray="6,4"/>
  <polyline points="90.0,273.5 145.8,273.4 201.7,273.3 257.5,273.5 313.3,273.7 369.2,273.6 425.0,273.8 480.8,274.1 536.7,273.7 592.5,274.1 648.3,273.9 704.2,275.1 760.0,275.9" fill="none" stroke="#8b5cf6" stroke-width="2" stroke-dasharray="6,4"/>
  <polyline points="90.0,279.4 145.8,278.8 201.7,277.7 257.5,275.5 313.3,271.0 369.2,262.3 425.0,246.2 480.8,218.6 536.7,190.0 592.5,163.3 648.3,145.1 704.2,139.5 760.0,102.2" fill="none" stroke="#dc2626" stroke-width="2.5" stroke-linecap="round" stroke-linejoin="round"/>
  <circle cx="90.0" cy="279.4" r="3" fill="#dc2626" stroke="white" stroke-width="1"/>
  <circle cx="145.8" cy="278.8" r="3" fill="#dc2626" stroke="white" stroke-width="1"/>
  <circle cx="201.7" cy="277.7" r="3" fill="#dc2626" stroke="white" stroke-width="1"/>
  <circle cx="257.5" cy="275.5" r="3" fill="#dc2626" stroke="white" stroke-width="1"/>
  <circle cx="313.3" cy="271.0" r="3" fill="#dc2626" stroke="white" stroke-width="1"/>
  <circle cx="369.2" cy="262.3" r="3" fill="#dc2626" stroke="white" stroke-width="1"/>
  <circle cx="425.0" cy="246.2" r="3" fill="#dc2626" stroke="white" stroke-width="1"/>
  <circle cx="480.8" cy="218.6" r="3" fill="#dc2626" stroke="white" stroke-width="1"/>
  <circle cx="536.7" cy="190.0" r="3" fill="#dc2626" stroke="white" stroke-width="1"/>
  <circle cx="592.5" cy="163.3" r="3" fill="#dc2626" stroke="white" stroke-width="1"/>
  <circle cx="648.3" cy="145.1" r="3" fill="#dc2626" stroke="white" stroke-width="1"/>
  <circle cx="704.2" cy="139.5" r="3" fill="#dc2626" stroke="white" stroke-width="1"/>
  <circle cx="760.0" cy="102.2" r="3" fill="#dc2626" stroke="white" stroke-width="1"/>
  <polyline points="90.0,279.6 145.8,279.2 201.7,278.5 257.5,277.1 313.3,274.2 369.2,268.7 425.0,258.7 480.8,243.7 536.7,220.1 592.5,190.1 648.3,161.5 704.2,146.5 760.0,104.9" fill="none" stroke="#f97316" stroke-width="2.5" stroke-linecap="round" stroke-linejoin="round"/>
  <circle cx="90.0" cy="279.6" r="3" fill="#f97316" stroke="white" stroke-width="1"/>
  <circle cx="145.8" cy="279.2" r="3" fill="#f97316" stroke="white" stroke-width="1"/>
  <circle cx="201.7" cy="278.5" r="3" fill="#f97316" stroke="white" stroke-width="1"/>
  <circle cx="257.5" cy="277.1" r="3" fill="#f97316" stroke="white" stroke-width="1"/>
  <circle cx="313.3" cy="274.2" r="3" fill="#f97316" stroke="white" stroke-width="1"/>
  <circle cx="369.2" cy="268.7" r="3" fill="#f97316" stroke="white" stroke-width="1"/>
  <circle cx="425.0" cy="258.7" r="3" fill="#f97316" stroke="white" stroke-width="1"/>
  <circle cx="480.8" cy="243.7" r="3" fill="#f97316" stroke="white" stroke-width="1"/>
  <circle cx="536.7" cy="220.1" r="3" fill="#f97316" stroke="white" stroke-width="1"/>
  <circle cx="592.5" cy="190.1" r="3" fill="#f97316" stroke="white" stroke-width="1"/>
  <circle cx="648.3" cy="161.5" r="3" fill="#f97316" stroke="white" stroke-width="1"/>
  <circle cx="704.2" cy="146.5" r="3" fill="#f97316" stroke="white" stroke-width="1"/>
  <circle cx="760.0" cy="104.9" r="3" fill="#f97316" stroke="white" stroke-width="1"/>
  <polyline points="90.0,279.8 145.8,279.6 201.7,279.1 257.5,278.4 313.3,277.0 369.2,274.2 425.0,268.5 480.8,257.8 536.7,244.8 592.5,239.4 648.3,236.4 704.2,236.2 760.0,207.3" fill="none" stroke="#2563eb" stroke-width="2.5" stroke-linecap="round" stroke-linejoin="round"/>
  <circle cx="90.0" cy="279.8" r="3" fill="#2563eb" stroke="white" stroke-width="1"/>
  <circle cx="145.8" cy="279.6" r="3" fill="#2563eb" stroke="white" stroke-width="1"/>
  <circle cx="201.7" cy="279.1" r="3" fill="#2563eb" stroke="white" stroke-width="1"/>
  <circle cx="257.5" cy="278.4" r="3" fill="#2563eb" stroke="white" stroke-width="1"/>
  <circle cx="313.3" cy="277.0" r="3" fill="#2563eb" stroke="white" stroke-width="1"/>
  <circle cx="369.2" cy="274.2" r="3" fill="#2563eb" stroke="white" stroke-width="1"/>
  <circle cx="425.0" cy="268.5" r="3" fill="#2563eb" stroke="white" stroke-width="1"/>
  <circle cx="480.8" cy="257.8" r="3" fill="#2563eb" stroke="white" stroke-width="1"/>
  <circle cx="536.7" cy="244.8" r="3" fill="#2563eb" stroke="white" stroke-width="1"/>
  <circle cx="592.5" cy="239.4" r="3" fill="#2563eb" stroke="white" stroke-width="1"/>
  <circle cx="648.3" cy="236.4" r="3" fill="#2563eb" stroke="white" stroke-width="1"/>
  <circle cx="704.2" cy="236.2" r="3" fill="#2563eb" stroke="white" stroke-width="1"/>
  <circle cx="760.0" cy="207.3" r="3" fill="#2563eb" stroke="white" stroke-width="1"/>
  <polyline points="90.0,280.0 145.8,280.0 201.7,279.9 257.5,279.8 313.3,279.7 369.2,279.3 425.0,278.7 480.8,277.6 536.7,274.9 592.5,270.3 648.3,260.2 704.2,247.7 760.0,225.8" fill="none" stroke="#8b5cf6" stroke-width="2.5" stroke-linecap="round" stroke-linejoin="round"/>
  <circle cx="90.0" cy="280.0" r="3" fill="#8b5cf6" stroke="white" stroke-width="1"/>
  <circle cx="145.8" cy="280.0" r="3" fill="#8b5cf6" stroke="white" stroke-width="1"/>
  <circle cx="201.7" cy="279.9" r="3" fill="#8b5cf6" stroke="white" stroke-width="1"/>
  <circle cx="257.5" cy="279.8" r="3" fill="#8b5cf6" stroke="white" stroke-width="1"/>
  <circle cx="313.3" cy="279.7" r="3" fill="#8b5cf6" stroke="white" stroke-width="1"/>
  <circle cx="369.2" cy="279.3" r="3" fill="#8b5cf6" stroke="white" stroke-width="1"/>
  <circle cx="425.0" cy="278.7" r="3" fill="#8b5cf6" stroke="white" stroke-width="1"/>
  <circle cx="480.8" cy="277.6" r="3" fill="#8b5cf6" stroke="white" stroke-width="1"/>
  <circle cx="536.7" cy="274.9" r="3" fill="#8b5cf6" stroke="white" stroke-width="1"/>
  <circle cx="592.5" cy="270.3" r="3" fill="#8b5cf6" stroke="white" stroke-width="1"/>
  <circle cx="648.3" cy="260.2" r="3" fill="#8b5cf6" stroke="white" stroke-width="1"/>
  <circle cx="704.2" cy="247.7" r="3" fill="#8b5cf6" stroke="white" stroke-width="1"/>
  <circle cx="760.0" cy="225.8" r="3" fill="#8b5cf6" stroke="white" stroke-width="1"/>
  <text x="90.0" y="294" text-anchor="middle" fill="#374151" font-size="8.5">8 B</text>
  <text x="145.8" y="294" text-anchor="middle" fill="#374151" font-size="8.5">16 B</text>
  <text x="201.7" y="294" text-anchor="middle" fill="#374151" font-size="8.5">32 B</text>
  <text x="257.5" y="294" text-anchor="middle" fill="#374151" font-size="8.5">64 B</text>
  <text x="313.3" y="294" text-anchor="middle" fill="#374151" font-size="8.5">128 B</text>
  <text x="369.2" y="294" text-anchor="middle" fill="#374151" font-size="8.5">256 B</text>
  <text x="425.0" y="294" text-anchor="middle" fill="#374151" font-size="8.5">512 B</text>
  <text x="480.8" y="294" text-anchor="middle" fill="#374151" font-size="8.5">1 KiB</text>
  <text x="536.7" y="294" text-anchor="middle" fill="#374151" font-size="8.5">2 KiB</text>
  <text x="592.5" y="294" text-anchor="middle" fill="#374151" font-size="8.5">4 KiB</text>
  <text x="648.3" y="294" text-anchor="middle" fill="#374151" font-size="8.5">8 KiB</text>
  <text x="704.2" y="294" text-anchor="middle" fill="#374151" font-size="8.5">16 KiB</text>
  <text x="760.0" y="294" text-anchor="middle" fill="#374151" font-size="8.5">32 KiB</text>
  <text x="425.0" y="320" text-anchor="middle" fill="#111827" font-size="13" font-weight="700">REQ/REP latency — 2-process, TCP loopback, p50 µs (lower is better)</text>
  <line x1="90" y1="502.0" x2="760" y2="502.0" stroke="#e5e7eb" stroke-width="1"/>
  <text x="82" y="502.0" text-anchor="end" dominant-baseline="middle" fill="#374151" font-size="10">20 µs</text>
  <line x1="90" y1="484.0" x2="760" y2="484.0" stroke="#e5e7eb" stroke-width="1"/>
  <text x="82" y="484.0" text-anchor="end" dominant-baseline="middle" fill="#374151" font-size="10">40 µs</text>
  <line x1="90" y1="466.0" x2="760" y2="466.0" stroke="#e5e7eb" stroke-width="1"/>
  <text x="82" y="466.0" text-anchor="end" dominant-baseline="middle" fill="#374151" font-size="10">60 µs</text>
  <line x1="90" y1="448.0" x2="760" y2="448.0" stroke="#e5e7eb" stroke-width="1"/>
  <text x="82" y="448.0" text-anchor="end" dominant-baseline="middle" fill="#374151" font-size="10">80 µs</text>
  <line x1="90" y1="430.0" x2="760" y2="430.0" stroke="#e5e7eb" stroke-width="1"/>
  <text x="82" y="430.0" text-anchor="end" dominant-baseline="middle" fill="#374151" font-size="10">100 µs</text>
  <line x1="90" y1="412.0" x2="760" y2="412.0" stroke="#e5e7eb" stroke-width="1"/>
  <text x="82" y="412.0" text-anchor="end" dominant-baseline="middle" fill="#374151" font-size="10">120 µs</text>
  <line x1="90" y1="394.0" x2="760" y2="394.0" stroke="#e5e7eb" stroke-width="1"/>
  <text x="82" y="394.0" text-anchor="end" dominant-baseline="middle" fill="#374151" font-size="10">140 µs</text>
  <line x1="90" y1="376.0" x2="760" y2="376.0" stroke="#e5e7eb" stroke-width="1"/>
  <text x="82" y="376.0" text-anchor="end" dominant-baseline="middle" fill="#374151" font-size="10">160 µs</text>
  <line x1="90" y1="358.0" x2="760" y2="358.0" stroke="#e5e7eb" stroke-width="1"/>
  <text x="82" y="358.0" text-anchor="end" dominant-baseline="middle" fill="#374151" font-size="10">180 µs</text>
  <line x1="90" y1="340.0" x2="760" y2="340.0" stroke="#e5e7eb" stroke-width="1"/>
  <text x="82" y="340.0" text-anchor="end" dominant-baseline="middle" fill="#374151" font-size="10">200 µs</text>
  <line x1="90.0" y1="340" x2="90.0" y2="520" stroke="#e5e7eb" stroke-width="1"/>
  <line x1="145.8" y1="340" x2="145.8" y2="520" stroke="#e5e7eb" stroke-width="1"/>
  <line x1="201.7" y1="340" x2="201.7" y2="520" stroke="#e5e7eb" stroke-width="1"/>
  <line x1="257.5" y1="340" x2="257.5" y2="520" stroke="#e5e7eb" stroke-width="1"/>
  <line x1="313.3" y1="340" x2="313.3" y2="520" stroke="#e5e7eb" stroke-width="1"/>
  <line x1="369.2" y1="340" x2="369.2" y2="520" stroke="#e5e7eb" stroke-width="1"/>
  <line x1="425.0" y1="340" x2="425.0" y2="520" stroke="#e5e7eb" stroke-width="1"/>
  <line x1="480.8" y1="340" x2="480.8" y2="520" stroke="#e5e7eb" stroke-width="1"/>
  <line x1="536.7" y1="340" x2="536.7" y2="520" stroke="#e5e7eb" stroke-width="1"/>
  <line x1="592.5" y1="340" x2="592.5" y2="520" stroke="#e5e7eb" stroke-width="1"/>
  <line x1="648.3" y1="340" x2="648.3" y2="520" stroke="#e5e7eb" stroke-width="1"/>
  <line x1="704.2" y1="340" x2="704.2" y2="520" stroke="#e5e7eb" stroke-width="1"/>
  <line x1="760.0" y1="340" x2="760.0" y2="520" stroke="#e5e7eb" stroke-width="1"/>
  <line x1="90" y1="340" x2="90" y2="520" stroke="#9ca3af" stroke-width="1.5"/>
  <line x1="90" y1="520" x2="760" y2="520" stroke="#9ca3af" stroke-width="1.5"/>
  <text x="40" y="430" text-anchor="middle" dominant-baseline="middle" fill="#374151" font-size="10" font-weight="600" transform="rotate(-90,40,430)">p50 latency (µs)</text>
  <polyline points="90.0,463.4 145.8,463.8 201.7,460.0 257.5,464.1 313.3,462.0 369.2,462.6 425.0,459.5 480.8,456.7 536.7,459.6 592.5,456.6 648.3,454.6 704.2,452.1 760.0,441.7" fill="none" stroke="#dc2626" stroke-width="2.5" stroke-linecap="round" stroke-linejoin="round"/>
  <circle cx="90.0" cy="463.4" r="3" fill="#dc2626" stroke="white" stroke-width="1"/>
  <circle cx="145.8" cy="463.8" r="3" fill="#dc2626" stroke="white" stroke-width="1"/>
  <circle cx="201.7" cy="460.0" r="3" fill="#dc2626" stroke="white" stroke-width="1"/>
  <circle cx="257.5" cy="464.1" r="3" fill="#dc2626" stroke="white" stroke-width="1"/>
  <circle cx="313.3" cy="462.0" r="3" fill="#dc2626" stroke="white" stroke-width="1"/>
  <circle cx="369.2" cy="462.6" r="3" fill="#dc2626" stroke="white" stroke-width="1"/>
  <circle cx="425.0" cy="459.5" r="3" fill="#dc2626" stroke="white" stroke-width="1"/>
  <circle cx="480.8" cy="456.7" r="3" fill="#dc2626" stroke="white" stroke-width="1"/>
  <circle cx="536.7" cy="459.6" r="3" fill="#dc2626" stroke="white" stroke-width="1"/>
  <circle cx="592.5" cy="456.6" r="3" fill="#dc2626" stroke="white" stroke-width="1"/>
  <circle cx="648.3" cy="454.6" r="3" fill="#dc2626" stroke="white" stroke-width="1"/>
  <circle cx="704.2" cy="452.1" r="3" fill="#dc2626" stroke="white" stroke-width="1"/>
  <circle cx="760.0" cy="441.7" r="3" fill="#dc2626" stroke="white" stroke-width="1"/>
  <polyline points="90.0,439.1 145.8,443.1 201.7,443.7 257.5,440.2 313.3,441.8 369.2,441.2 425.0,440.2 480.8,441.1 536.7,443.3 592.5,438.2 648.3,438.5 704.2,432.2 760.0,424.0" fill="none" stroke="#f97316" stroke-width="2.5" stroke-linecap="round" stroke-linejoin="round"/>
  <circle cx="90.0" cy="439.1" r="3" fill="#f97316" stroke="white" stroke-width="1"/>
  <circle cx="145.8" cy="443.1" r="3" fill="#f97316" stroke="white" stroke-width="1"/>
  <circle cx="201.7" cy="443.7" r="3" fill="#f97316" stroke="white" stroke-width="1"/>
  <circle cx="257.5" cy="440.2" r="3" fill="#f97316" stroke="white" stroke-width="1"/>
  <circle cx="313.3" cy="441.8" r="3" fill="#f97316" stroke="white" stroke-width="1"/>
  <circle cx="369.2" cy="441.2" r="3" fill="#f97316" stroke="white" stroke-width="1"/>
  <circle cx="425.0" cy="440.2" r="3" fill="#f97316" stroke="white" stroke-width="1"/>
  <circle cx="480.8" cy="441.1" r="3" fill="#f97316" stroke="white" stroke-width="1"/>
  <circle cx="536.7" cy="443.3" r="3" fill="#f97316" stroke="white" stroke-width="1"/>
  <circle cx="592.5" cy="438.2" r="3" fill="#f97316" stroke="white" stroke-width="1"/>
  <circle cx="648.3" cy="438.5" r="3" fill="#f97316" stroke="white" stroke-width="1"/>
  <circle cx="704.2" cy="432.2" r="3" fill="#f97316" stroke="white" stroke-width="1"/>
  <circle cx="760.0" cy="424.0" r="3" fill="#f97316" stroke="white" stroke-width="1"/>
  <polyline points="90.0,457.4 145.8,456.9 201.7,457.8 257.5,456.0 313.3,454.7 369.2,455.8 425.0,454.6 480.8,454.4 536.7,451.4 592.5,453.0 648.3,438.1 704.2,434.7 760.0,425.5" fill="none" stroke="#2563eb" stroke-width="2.5" stroke-linecap="round" stroke-linejoin="round"/>
  <circle cx="90.0" cy="457.4" r="3" fill="#2563eb" stroke="white" stroke-width="1"/>
  <circle cx="145.8" cy="456.9" r="3" fill="#2563eb" stroke="white" stroke-width="1"/>
  <circle cx="201.7" cy="457.8" r="3" fill="#2563eb" stroke="white" stroke-width="1"/>
  <circle cx="257.5" cy="456.0" r="3" fill="#2563eb" stroke="white" stroke-width="1"/>
  <circle cx="313.3" cy="454.7" r="3" fill="#2563eb" stroke="white" stroke-width="1"/>
  <circle cx="369.2" cy="455.8" r="3" fill="#2563eb" stroke="white" stroke-width="1"/>
  <circle cx="425.0" cy="454.6" r="3" fill="#2563eb" stroke="white" stroke-width="1"/>
  <circle cx="480.8" cy="454.4" r="3" fill="#2563eb" stroke="white" stroke-width="1"/>
  <circle cx="536.7" cy="451.4" r="3" fill="#2563eb" stroke="white" stroke-width="1"/>
  <circle cx="592.5" cy="453.0" r="3" fill="#2563eb" stroke="white" stroke-width="1"/>
  <circle cx="648.3" cy="438.1" r="3" fill="#2563eb" stroke="white" stroke-width="1"/>
  <circle cx="704.2" cy="434.7" r="3" fill="#2563eb" stroke="white" stroke-width="1"/>
  <circle cx="760.0" cy="425.5" r="3" fill="#2563eb" stroke="white" stroke-width="1"/>
  <polyline points="90.0,412.3 145.8,414.0 201.7,417.2 257.5,416.1 313.3,416.6 369.2,412.9 425.0,415.7 480.8,410.5 536.7,409.2 592.5,407.1 648.3,381.0 704.2,379.2 760.0,368.5" fill="none" stroke="#8b5cf6" stroke-width="2.5" stroke-linecap="round" stroke-linejoin="round"/>
  <circle cx="90.0" cy="412.3" r="3" fill="#8b5cf6" stroke="white" stroke-width="1"/>
  <circle cx="145.8" cy="414.0" r="3" fill="#8b5cf6" stroke="white" stroke-width="1"/>
  <circle cx="201.7" cy="417.2" r="3" fill="#8b5cf6" stroke="white" stroke-width="1"/>
  <circle cx="257.5" cy="416.1" r="3" fill="#8b5cf6" stroke="white" stroke-width="1"/>
  <circle cx="313.3" cy="416.6" r="3" fill="#8b5cf6" stroke="white" stroke-width="1"/>
  <circle cx="369.2" cy="412.9" r="3" fill="#8b5cf6" stroke="white" stroke-width="1"/>
  <circle cx="425.0" cy="415.7" r="3" fill="#8b5cf6" stroke="white" stroke-width="1"/>
  <circle cx="480.8" cy="410.5" r="3" fill="#8b5cf6" stroke="white" stroke-width="1"/>
  <circle cx="536.7" cy="409.2" r="3" fill="#8b5cf6" stroke="white" stroke-width="1"/>
  <circle cx="592.5" cy="407.1" r="3" fill="#8b5cf6" stroke="white" stroke-width="1"/>
  <circle cx="648.3" cy="381.0" r="3" fill="#8b5cf6" stroke="white" stroke-width="1"/>
  <circle cx="704.2" cy="379.2" r="3" fill="#8b5cf6" stroke="white" stroke-width="1"/>
  <circle cx="760.0" cy="368.5" r="3" fill="#8b5cf6" stroke="white" stroke-width="1"/>
  <text x="90.0" y="534" text-anchor="middle" fill="#374151" font-size="8.5">8 B</text>
  <text x="145.8" y="534" text-anchor="middle" fill="#374151" font-size="8.5">16 B</text>
  <text x="201.7" y="534" text-anchor="middle" fill="#374151" font-size="8.5">32 B</text>
  <text x="257.5" y="534" text-anchor="middle" fill="#374151" font-size="8.5">64 B</text>
  <text x="313.3" y="534" text-anchor="middle" fill="#374151" font-size="8.5">128 B</text>
  <text x="369.2" y="534" text-anchor="middle" fill="#374151" font-size="8.5">256 B</text>
  <text x="425.0" y="534" text-anchor="middle" fill="#374151" font-size="8.5">512 B</text>
  <text x="480.8" y="534" text-anchor="middle" fill="#374151" font-size="8.5">1 KiB</text>
  <text x="536.7" y="534" text-anchor="middle" fill="#374151" font-size="8.5">2 KiB</text>
  <text x="592.5" y="534" text-anchor="middle" fill="#374151" font-size="8.5">4 KiB</text>
  <text x="648.3" y="534" text-anchor="middle" fill="#374151" font-size="8.5">8 KiB</text>
  <text x="704.2" y="534" text-anchor="middle" fill="#374151" font-size="8.5">16 KiB</text>
  <text x="760.0" y="534" text-anchor="middle" fill="#374151" font-size="8.5">32 KiB</text>
  <line x1="145" y1="560" x2="159" y2="560" stroke="#dc2626" stroke-width="2.5"/>
  <circle cx="152" cy="560" r="2.5" fill="#dc2626"/>
  <text x="165" y="564" fill="#374151" font-size="11" font-weight="500">pyomq</text>
  <line x1="285" y1="560" x2="299" y2="560" stroke="#f97316" stroke-width="2.5"/>
  <circle cx="292" cy="560" r="2.5" fill="#f97316"/>
  <text x="305" y="564" fill="#374151" font-size="11" font-weight="500">pyomq async</text>
  <line x1="425" y1="560" x2="439" y2="560" stroke="#2563eb" stroke-width="2.5"/>
  <circle cx="432" cy="560" r="2.5" fill="#2563eb"/>
  <text x="445" y="564" fill="#374151" font-size="11" font-weight="500">pyzmq</text>
  <line x1="565" y1="560" x2="579" y2="560" stroke="#8b5cf6" stroke-width="2.5"/>
  <circle cx="572" cy="560" r="2.5" fill="#8b5cf6"/>
  <text x="585" y="564" fill="#374151" font-size="11" font-weight="500">pyzmq async</text>
</svg>
