<svg xmlns="http://www.w3.org/2000/svg" viewBox="0 0 850 684" font-family="system-ui, -apple-system, sans-serif">
  <rect width="850" height="684" fill="white"/>
  <text x="425.0" y="32" text-anchor="middle" fill="#111827" font-size="13" font-weight="700">PUSH/PULL throughput: 2-process, TCP loopback (higher is better)</text>
  <text x="425.0" y="46" text-anchor="middle" fill="#9ca3af" font-size="10">Linux VM on a 2018 Mac Mini, Intel Core i7-8700B @ 3.20GHz, 6 cores, performance governor, turbo off</text>
  <line x1="90" y1="350.5" x2="760" y2="350.5" stroke="#e5e7eb" stroke-width="1"/>
  <text x="82" y="350.5" text-anchor="end" dominant-baseline="middle" fill="#374151" font-size="10">500k</text>
  <text x="768" y="350.5" text-anchor="start" dominant-baseline="middle" fill="#6b7280" font-size="10">500 MB/s</text>
  <line x1="90" y1="317.0" x2="760" y2="317.0" stroke="#e5e7eb" stroke-width="1"/>
  <text x="82" y="317.0" text-anchor="end" dominant-baseline="middle" fill="#374151" font-size="10">1M</text>
  <text x="768" y="317.0" text-anchor="start" dominant-baseline="middle" fill="#6b7280" font-size="10">1 GB/s</text>
  <line x1="90" y1="283.5" x2="760" y2="283.5" stroke="#e5e7eb" stroke-width="1"/>
  <text x="82" y="283.5" text-anchor="end" dominant-baseline="middle" fill="#374151" font-size="10">1.5M</text>
  <text x="768" y="283.5" text-anchor="start" dominant-baseline="middle" fill="#6b7280" font-size="10">1.5 GB/s</text>
  <line x1="90" y1="250.0" x2="760" y2="250.0" stroke="#e5e7eb" stroke-width="1"/>
  <text x="82" y="250.0" text-anchor="end" dominant-baseline="middle" fill="#374151" font-size="10">2M</text>
  <text x="768" y="250.0" text-anchor="start" dominant-baseline="middle" fill="#6b7280" font-size="10">2 GB/s</text>
  <line x1="90" y1="216.5" x2="760" y2="216.5" stroke="#e5e7eb" stroke-width="1"/>
  <text x="82" y="216.5" text-anchor="end" dominant-baseline="middle" fill="#374151" font-size="10">2.5M</text>
  <text x="768" y="216.5" text-anchor="start" dominant-baseline="middle" fill="#6b7280" font-size="10">2.5 GB/s</text>
  <line x1="90" y1="183.0" x2="760" y2="183.0" stroke="#e5e7eb" stroke-width="1"/>
  <text x="82" y="183.0" text-anchor="end" dominant-baseline="middle" fill="#374151" font-size="10">3M</text>
  <text x="768" y="183.0" text-anchor="start" dominant-baseline="middle" fill="#6b7280" font-size="10">3 GB/s</text>
  <line x1="90" y1="149.5" x2="760" y2="149.5" stroke="#e5e7eb" stroke-width="1"/>
  <text x="82" y="149.5" text-anchor="end" dominant-baseline="middle" fill="#374151" font-size="10">3.5M</text>
  <text x="768" y="149.5" text-anchor="start" dominant-baseline="middle" fill="#6b7280" font-size="10">3.5 GB/s</text>
  <line x1="90" y1="116.0" x2="760" y2="116.0" stroke="#e5e7eb" stroke-width="1"/>
  <text x="82" y="116.0" text-anchor="end" dominant-baseline="middle" fill="#374151" font-size="10">4M</text>
  <text x="768" y="116.0" text-anchor="start" dominant-baseline="middle" fill="#6b7280" font-size="10">4 GB/s</text>
  <line x1="90" y1="82.5" x2="760" y2="82.5" stroke="#e5e7eb" stroke-width="1"/>
  <text x="82" y="82.5" text-anchor="end" dominant-baseline="middle" fill="#374151" font-size="10">4.5M</text>
  <text x="768" y="82.5" text-anchor="start" dominant-baseline="middle" fill="#6b7280" font-size="10">4.5 GB/s</text>
  <line x1="90" y1="49.0" x2="760" y2="49.0" stroke="#e5e7eb" stroke-width="1"/>
  <text x="82" y="49.0" text-anchor="end" dominant-baseline="middle" fill="#374151" font-size="10">5M</text>
  <text x="768" y="49.0" text-anchor="start" dominant-baseline="middle" fill="#6b7280" font-size="10">5 GB/s</text>
  <line x1="90.0" y1="49" x2="90.0" y2="384" stroke="#e5e7eb" stroke-width="1"/>
  <line x1="145.8" y1="49" x2="145.8" y2="384" stroke="#e5e7eb" stroke-width="1"/>
  <line x1="201.7" y1="49" x2="201.7" y2="384" stroke="#e5e7eb" stroke-width="1"/>
  <line x1="257.5" y1="49" x2="257.5" y2="384" stroke="#e5e7eb" stroke-width="1"/>
  <line x1="313.3" y1="49" x2="313.3" y2="384" stroke="#e5e7eb" stroke-width="1"/>
  <line x1="369.2" y1="49" x2="369.2" y2="384" stroke="#e5e7eb" stroke-width="1"/>
  <line x1="425.0" y1="49" x2="425.0" y2="384" stroke="#e5e7eb" stroke-width="1"/>
  <line x1="480.8" y1="49" x2="480.8" y2="384" stroke="#e5e7eb" stroke-width="1"/>
  <line x1="536.7" y1="49" x2="536.7" y2="384" stroke="#e5e7eb" stroke-width="1"/>
  <line x1="592.5" y1="49" x2="592.5" y2="384" stroke="#e5e7eb" stroke-width="1"/>
  <line x1="648.3" y1="49" x2="648.3" y2="384" stroke="#e5e7eb" stroke-width="1"/>
  <line x1="704.2" y1="49" x2="704.2" y2="384" stroke="#e5e7eb" stroke-width="1"/>
  <line x1="760.0" y1="49" x2="760.0" y2="384" stroke="#e5e7eb" stroke-width="1"/>
  <line x1="90" y1="49" x2="90" y2="384" stroke="#9ca3af" stroke-width="1.5"/>
  <line x1="760" y1="49" x2="760" y2="384" stroke="#9ca3af" stroke-width="1.5"/>
  <line x1="90" y1="384" x2="760" y2="384" stroke="#9ca3af" stroke-width="1.5"/>
  <text x="40" y="216" text-anchor="middle" dominant-baseline="middle" fill="#374151" font-size="10" font-weight="600" transform="rotate(-90,40,216)">msg/s</text>
  <polyline points="90.0,231.9 145.8,240.3 201.7,236.5 257.5,263.3 313.3,259.3 369.2,255.4 425.0,253.0 480.8,265.3 536.7,283.5 592.5,326.2 648.3,352.2 704.2,366.6 760.0,375.4" fill="none" stroke="#dc2626" stroke-width="2" stroke-dasharray="6,4"/>
  <polyline points="90.0,319.4 145.8,319.1 201.7,318.8 257.5,319.8 313.3,320.4 369.2,321.6 425.0,324.3 480.8,328.7 536.7,338.8 592.5,344.5 648.3,356.2 704.2,366.2 760.0,376.0" fill="none" stroke="#f97316" stroke-width="2" stroke-dasharray="6,4"/>
  <polyline points="90.0,305.5 145.8,306.4 201.7,303.5 257.5,314.7 313.3,326.6 369.2,336.9 425.0,333.7 480.8,343.9 536.7,356.1 592.5,367.6 648.3,375.3 704.2,379.4 760.0,380.2" fill="none" stroke="#2563eb" stroke-width="2" stroke-dasharray="6,4"/>
  <polyline points="90.0,380.6 145.8,380.5 201.7,380.6 257.5,380.6 313.3,380.6 369.2,380.5 425.0,380.6 480.8,380.6 536.7,380.7 592.5,380.9 648.3,380.9 704.2,381.0 760.0,381.2" fill="none" stroke="#8b5cf6" stroke-width="2" stroke-dasharray="6,4"/>
  <polyline points="90.0,382.8 145.8,381.7 201.7,379.3 257.5,376.3 313.3,368.0 369.2,351.1 425.0,316.9 480.8,262.4 536.7,178.3 592.5,147.3 648.3,123.8 704.2,98.8 760.0,103.4" fill="none" stroke="#dc2626" stroke-width="2.5" stroke-linecap="round" stroke-linejoin="round"/>
  <circle cx="90.0" cy="382.8" r="3" fill="#dc2626" stroke="white" stroke-width="1"/>
  <circle cx="145.8" cy="381.7" r="3" fill="#dc2626" stroke="white" stroke-width="1"/>
  <circle cx="201.7" cy="379.3" r="3" fill="#dc2626" stroke="white" stroke-width="1"/>
  <circle cx="257.5" cy="376.3" r="3" fill="#dc2626" stroke="white" stroke-width="1"/>
  <circle cx="313.3" cy="368.0" r="3" fill="#dc2626" stroke="white" stroke-width="1"/>
  <circle cx="369.2" cy="351.1" r="3" fill="#dc2626" stroke="white" stroke-width="1"/>
  <circle cx="425.0" cy="316.9" r="3" fill="#dc2626" stroke="white" stroke-width="1"/>
  <circle cx="480.8" cy="262.4" r="3" fill="#dc2626" stroke="white" stroke-width="1"/>
  <circle cx="536.7" cy="178.3" r="3" fill="#dc2626" stroke="white" stroke-width="1"/>
  <circle cx="592.5" cy="147.3" r="3" fill="#dc2626" stroke="white" stroke-width="1"/>
  <circle cx="648.3" cy="123.8" r="3" fill="#dc2626" stroke="white" stroke-width="1"/>
  <circle cx="704.2" cy="98.8" r="3" fill="#dc2626" stroke="white" stroke-width="1"/>
  <circle cx="760.0" cy="103.4" r="3" fill="#dc2626" stroke="white" stroke-width="1"/>
  <polyline points="90.0,383.5 145.8,383.0 201.7,381.9 257.5,379.9 313.3,375.9 369.2,368.0 425.0,353.4 480.8,327.4 536.7,291.5 592.5,222.0 648.3,156.1 704.2,92.0 760.0,122.9" fill="none" stroke="#f97316" stroke-width="2.5" stroke-linecap="round" stroke-linejoin="round"/>
  <circle cx="90.0" cy="383.5" r="3" fill="#f97316" stroke="white" stroke-width="1"/>
  <circle cx="145.8" cy="383.0" r="3" fill="#f97316" stroke="white" stroke-width="1"/>
  <circle cx="201.7" cy="381.9" r="3" fill="#f97316" stroke="white" stroke-width="1"/>
  <circle cx="257.5" cy="379.9" r="3" fill="#f97316" stroke="white" stroke-width="1"/>
  <circle cx="313.3" cy="375.9" r="3" fill="#f97316" stroke="white" stroke-width="1"/>
  <circle cx="369.2" cy="368.0" r="3" fill="#f97316" stroke="white" stroke-width="1"/>
  <circle cx="425.0" cy="353.4" r="3" fill="#f97316" stroke="white" stroke-width="1"/>
  <circle cx="480.8" cy="327.4" r="3" fill="#f97316" stroke="white" stroke-width="1"/>
  <circle cx="536.7" cy="291.5" r="3" fill="#f97316" stroke="white" stroke-width="1"/>
  <circle cx="592.5" cy="222.0" r="3" fill="#f97316" stroke="white" stroke-width="1"/>
  <circle cx="648.3" cy="156.1" r="3" fill="#f97316" stroke="white" stroke-width="1"/>
  <circle cx="704.2" cy="92.0" r="3" fill="#f97316" stroke="white" stroke-width="1"/>
  <circle cx="760.0" cy="122.9" r="3" fill="#f97316" stroke="white" stroke-width="1"/>
  <polyline points="90.0,383.4 145.8,382.8 201.7,381.4 257.5,379.6 313.3,376.7 369.2,371.9 425.0,358.3 480.8,342.9 536.7,326.9 592.5,316.6 648.3,313.1 704.2,309.2 760.0,261.1" fill="none" stroke="#2563eb" stroke-width="2.5" stroke-linecap="round" stroke-linejoin="round"/>
  <circle cx="90.0" cy="383.4" r="3" fill="#2563eb" stroke="white" stroke-width="1"/>
  <circle cx="145.8" cy="382.8" r="3" fill="#2563eb" stroke="white" stroke-width="1"/>
  <circle cx="201.7" cy="381.4" r="3" fill="#2563eb" stroke="white" stroke-width="1"/>
  <circle cx="257.5" cy="379.6" r="3" fill="#2563eb" stroke="white" stroke-width="1"/>
  <circle cx="313.3" cy="376.7" r="3" fill="#2563eb" stroke="white" stroke-width="1"/>
  <circle cx="369.2" cy="371.9" r="3" fill="#2563eb" stroke="white" stroke-width="1"/>
  <circle cx="425.0" cy="358.3" r="3" fill="#2563eb" stroke="white" stroke-width="1"/>
  <circle cx="480.8" cy="342.9" r="3" fill="#2563eb" stroke="white" stroke-width="1"/>
  <circle cx="536.7" cy="326.9" r="3" fill="#2563eb" stroke="white" stroke-width="1"/>
  <circle cx="592.5" cy="316.6" r="3" fill="#2563eb" stroke="white" stroke-width="1"/>
  <circle cx="648.3" cy="313.1" r="3" fill="#2563eb" stroke="white" stroke-width="1"/>
  <circle cx="704.2" cy="309.2" r="3" fill="#2563eb" stroke="white" stroke-width="1"/>
  <circle cx="760.0" cy="261.1" r="3" fill="#2563eb" stroke="white" stroke-width="1"/>
  <polyline points="90.0,384.0 145.8,383.9 201.7,383.9 257.5,383.8 313.3,383.6 369.2,383.1 425.0,382.3 480.8,380.5 536.7,377.2 592.5,371.2 648.3,358.7 704.2,334.9 760.0,291.6" fill="none" stroke="#8b5cf6" stroke-width="2.5" stroke-linecap="round" stroke-linejoin="round"/>
  <circle cx="90.0" cy="384.0" r="3" fill="#8b5cf6" stroke="white" stroke-width="1"/>
  <circle cx="145.8" cy="383.9" r="3" fill="#8b5cf6" stroke="white" stroke-width="1"/>
  <circle cx="201.7" cy="383.9" r="3" fill="#8b5cf6" stroke="white" stroke-width="1"/>
  <circle cx="257.5" cy="383.8" r="3" fill="#8b5cf6" stroke="white" stroke-width="1"/>
  <circle cx="313.3" cy="383.6" r="3" fill="#8b5cf6" stroke="white" stroke-width="1"/>
  <circle cx="369.2" cy="383.1" r="3" fill="#8b5cf6" stroke="white" stroke-width="1"/>
  <circle cx="425.0" cy="382.3" r="3" fill="#8b5cf6" stroke="white" stroke-width="1"/>
  <circle cx="480.8" cy="380.5" r="3" fill="#8b5cf6" stroke="white" stroke-width="1"/>
  <circle cx="536.7" cy="377.2" r="3" fill="#8b5cf6" stroke="white" stroke-width="1"/>
  <circle cx="592.5" cy="371.2" r="3" fill="#8b5cf6" stroke="white" stroke-width="1"/>
  <circle cx="648.3" cy="358.7" r="3" fill="#8b5cf6" stroke="white" stroke-width="1"/>
  <circle cx="704.2" cy="334.9" r="3" fill="#8b5cf6" stroke="white" stroke-width="1"/>
  <circle cx="760.0" cy="291.6" r="3" fill="#8b5cf6" stroke="white" stroke-width="1"/>
  <text x="90.0" y="398" text-anchor="middle" fill="#374151" font-size="8.5">8 B</text>
  <text x="145.8" y="398" text-anchor="middle" fill="#374151" font-size="8.5">16 B</text>
  <text x="201.7" y="398" text-anchor="middle" fill="#374151" font-size="8.5">32 B</text>
  <text x="257.5" y="398" text-anchor="middle" fill="#374151" font-size="8.5">64 B</text>
  <text x="313.3" y="398" text-anchor="middle" fill="#374151" font-size="8.5">128 B</text>
  <text x="369.2" y="398" text-anchor="middle" fill="#374151" font-size="8.5">256 B</text>
  <text x="425.0" y="398" text-anchor="middle" fill="#374151" font-size="8.5">512 B</text>
  <text x="480.8" y="398" text-anchor="middle" fill="#374151" font-size="8.5">1 KiB</text>
  <text x="536.7" y="398" text-anchor="middle" fill="#374151" font-size="8.5">2 KiB</text>
  <text x="592.5" y="398" text-anchor="middle" fill="#374151" font-size="8.5">4 KiB</text>
  <text x="648.3" y="398" text-anchor="middle" fill="#374151" font-size="8.5">8 KiB</text>
  <text x="704.2" y="398" text-anchor="middle" fill="#374151" font-size="8.5">16 KiB</text>
  <text x="760.0" y="398" text-anchor="middle" fill="#374151" font-size="8.5">32 KiB</text>
  <text x="425.0" y="447" text-anchor="middle" fill="#111827" font-size="13" font-weight="700">REQ/REP latency: 2-process, TCP loopback, p50 µs (lower is better)</text>
  <line x1="90" y1="572.0" x2="760" y2="572.0" stroke="#e5e7eb" stroke-width="1"/>
  <text x="82" y="572.0" text-anchor="end" dominant-baseline="middle" fill="#374151" font-size="10">20 µs</text>
  <line x1="90" y1="560.0" x2="760" y2="560.0" stroke="#e5e7eb" stroke-width="1"/>
  <text x="82" y="560.0" text-anchor="end" dominant-baseline="middle" fill="#374151" font-size="10">40 µs</text>
  <line x1="90" y1="548.0" x2="760" y2="548.0" stroke="#e5e7eb" stroke-width="1"/>
  <text x="82" y="548.0" text-anchor="end" dominant-baseline="middle" fill="#374151" font-size="10">60 µs</text>
  <line x1="90" y1="536.0" x2="760" y2="536.0" stroke="#e5e7eb" stroke-width="1"/>
  <text x="82" y="536.0" text-anchor="end" dominant-baseline="middle" fill="#374151" font-size="10">80 µs</text>
  <line x1="90" y1="524.0" x2="760" y2="524.0" stroke="#e5e7eb" stroke-width="1"/>
  <text x="82" y="524.0" text-anchor="end" dominant-baseline="middle" fill="#374151" font-size="10">100 µs</text>
  <line x1="90" y1="512.0" x2="760" y2="512.0" stroke="#e5e7eb" stroke-width="1"/>
  <text x="82" y="512.0" text-anchor="end" dominant-baseline="middle" fill="#374151" font-size="10">120 µs</text>
  <line x1="90" y1="500.0" x2="760" y2="500.0" stroke="#e5e7eb" stroke-width="1"/>
  <text x="82" y="500.0" text-anchor="end" dominant-baseline="middle" fill="#374151" font-size="10">140 µs</text>
  <line x1="90" y1="488.0" x2="760" y2="488.0" stroke="#e5e7eb" stroke-width="1"/>
  <text x="82" y="488.0" text-anchor="end" dominant-baseline="middle" fill="#374151" font-size="10">160 µs</text>
  <line x1="90" y1="476.0" x2="760" y2="476.0" stroke="#e5e7eb" stroke-width="1"/>
  <text x="82" y="476.0" text-anchor="end" dominant-baseline="middle" fill="#374151" font-size="10">180 µs</text>
  <line x1="90" y1="464.0" x2="760" y2="464.0" stroke="#e5e7eb" stroke-width="1"/>
  <text x="82" y="464.0" text-anchor="end" dominant-baseline="middle" fill="#374151" font-size="10">200 µs</text>
  <line x1="90.0" y1="464" x2="90.0" y2="584" stroke="#e5e7eb" stroke-width="1"/>
  <line x1="145.8" y1="464" x2="145.8" y2="584" stroke="#e5e7eb" stroke-width="1"/>
  <line x1="201.7" y1="464" x2="201.7" y2="584" stroke="#e5e7eb" stroke-width="1"/>
  <line x1="257.5" y1="464" x2="257.5" y2="584" stroke="#e5e7eb" stroke-width="1"/>
  <line x1="313.3" y1="464" x2="313.3" y2="584" stroke="#e5e7eb" stroke-width="1"/>
  <line x1="369.2" y1="464" x2="369.2" y2="584" stroke="#e5e7eb" stroke-width="1"/>
  <line x1="425.0" y1="464" x2="425.0" y2="584" stroke="#e5e7eb" stroke-width="1"/>
  <line x1="480.8" y1="464" x2="480.8" y2="584" stroke="#e5e7eb" stroke-width="1"/>
  <line x1="536.7" y1="464" x2="536.7" y2="584" stroke="#e5e7eb" stroke-width="1"/>
  <line x1="592.5" y1="464" x2="592.5" y2="584" stroke="#e5e7eb" stroke-width="1"/>
  <line x1="648.3" y1="464" x2="648.3" y2="584" stroke="#e5e7eb" stroke-width="1"/>
  <line x1="704.2" y1="464" x2="704.2" y2="584" stroke="#e5e7eb" stroke-width="1"/>
  <line x1="760.0" y1="464" x2="760.0" y2="584" stroke="#e5e7eb" stroke-width="1"/>
  <line x1="90" y1="464" x2="90" y2="584" stroke="#9ca3af" stroke-width="1.5"/>
  <line x1="90" y1="584" x2="760" y2="584" stroke="#9ca3af" stroke-width="1.5"/>
  <text x="40" y="524" text-anchor="middle" dominant-baseline="middle" fill="#374151" font-size="10" font-weight="600" transform="rotate(-90,40,524)">p50 latency (µs)</text>
  <polyline points="90.0,551.3 145.8,551.2 201.7,550.3 257.5,551.0 313.3,550.5 369.2,550.5 425.0,550.9 480.8,549.9 536.7,548.9 592.5,544.6 648.3,545.3 704.2,529.4 760.0,522.6" fill="none" stroke="#dc2626" stroke-width="2.5" stroke-linecap="round" stroke-linejoin="round"/>
  <circle cx="90.0" cy="551.3" r="3" fill="#dc2626" stroke="white" stroke-width="1"/>
  <circle cx="145.8" cy="551.2" r="3" fill="#dc2626" stroke="white" stroke-width="1"/>
  <circle cx="201.7" cy="550.3" r="3" fill="#dc2626" stroke="white" stroke-width="1"/>
  <circle cx="257.5" cy="551.0" r="3" fill="#dc2626" stroke="white" stroke-width="1"/>
  <circle cx="313.3" cy="550.5" r="3" fill="#dc2626" stroke="white" stroke-width="1"/>
  <circle cx="369.2" cy="550.5" r="3" fill="#dc2626" stroke="white" stroke-width="1"/>
  <circle cx="425.0" cy="550.9" r="3" fill="#dc2626" stroke="white" stroke-width="1"/>
  <circle cx="480.8" cy="549.9" r="3" fill="#dc2626" stroke="white" stroke-width="1"/>
  <circle cx="536.7" cy="548.9" r="3" fill="#dc2626" stroke="white" stroke-width="1"/>
  <circle cx="592.5" cy="544.6" r="3" fill="#dc2626" stroke="white" stroke-width="1"/>
  <circle cx="648.3" cy="545.3" r="3" fill="#dc2626" stroke="white" stroke-width="1"/>
  <circle cx="704.2" cy="529.4" r="3" fill="#dc2626" stroke="white" stroke-width="1"/>
  <circle cx="760.0" cy="522.6" r="3" fill="#dc2626" stroke="white" stroke-width="1"/>
  <polyline points="90.0,516.9 145.8,517.8 201.7,517.9 257.5,520.0 313.3,517.3 369.2,518.1 425.0,517.3 480.8,518.7 536.7,515.1 592.5,512.6 648.3,510.0 704.2,505.3 760.0,497.3" fill="none" stroke="#f97316" stroke-width="2.5" stroke-linecap="round" stroke-linejoin="round"/>
  <circle cx="90.0" cy="516.9" r="3" fill="#f97316" stroke="white" stroke-width="1"/>
  <circle cx="145.8" cy="517.8" r="3" fill="#f97316" stroke="white" stroke-width="1"/>
  <circle cx="201.7" cy="517.9" r="3" fill="#f97316" stroke="white" stroke-width="1"/>
  <circle cx="257.5" cy="520.0" r="3" fill="#f97316" stroke="white" stroke-width="1"/>
  <circle cx="313.3" cy="517.3" r="3" fill="#f97316" stroke="white" stroke-width="1"/>
  <circle cx="369.2" cy="518.1" r="3" fill="#f97316" stroke="white" stroke-width="1"/>
  <circle cx="425.0" cy="517.3" r="3" fill="#f97316" stroke="white" stroke-width="1"/>
  <circle cx="480.8" cy="518.7" r="3" fill="#f97316" stroke="white" stroke-width="1"/>
  <circle cx="536.7" cy="515.1" r="3" fill="#f97316" stroke="white" stroke-width="1"/>
  <circle cx="592.5" cy="512.6" r="3" fill="#f97316" stroke="white" stroke-width="1"/>
  <circle cx="648.3" cy="510.0" r="3" fill="#f97316" stroke="white" stroke-width="1"/>
  <circle cx="704.2" cy="505.3" r="3" fill="#f97316" stroke="white" stroke-width="1"/>
  <circle cx="760.0" cy="497.3" r="3" fill="#f97316" stroke="white" stroke-width="1"/>
  <polyline points="90.0,527.6 145.8,527.1 201.7,527.8 257.5,527.3 313.3,525.3 369.2,527.4 425.0,526.1 480.8,526.4 536.7,524.4 592.5,524.0 648.3,509.9 704.2,508.3 760.0,499.8" fill="none" stroke="#2563eb" stroke-width="2.5" stroke-linecap="round" stroke-linejoin="round"/>
  <circle cx="90.0" cy="527.6" r="3" fill="#2563eb" stroke="white" stroke-width="1"/>
  <circle cx="145.8" cy="527.1" r="3" fill="#2563eb" stroke="white" stroke-width="1"/>
  <circle cx="201.7" cy="527.8" r="3" fill="#2563eb" stroke="white" stroke-width="1"/>
  <circle cx="257.5" cy="527.3" r="3" fill="#2563eb" stroke="white" stroke-width="1"/>
  <circle cx="313.3" cy="525.3" r="3" fill="#2563eb" stroke="white" stroke-width="1"/>
  <circle cx="369.2" cy="527.4" r="3" fill="#2563eb" stroke="white" stroke-width="1"/>
  <circle cx="425.0" cy="526.1" r="3" fill="#2563eb" stroke="white" stroke-width="1"/>
  <circle cx="480.8" cy="526.4" r="3" fill="#2563eb" stroke="white" stroke-width="1"/>
  <circle cx="536.7" cy="524.4" r="3" fill="#2563eb" stroke="white" stroke-width="1"/>
  <circle cx="592.5" cy="524.0" r="3" fill="#2563eb" stroke="white" stroke-width="1"/>
  <circle cx="648.3" cy="509.9" r="3" fill="#2563eb" stroke="white" stroke-width="1"/>
  <circle cx="704.2" cy="508.3" r="3" fill="#2563eb" stroke="white" stroke-width="1"/>
  <circle cx="760.0" cy="499.8" r="3" fill="#2563eb" stroke="white" stroke-width="1"/>
  <polyline points="90.0,487.8 145.8,489.4 201.7,487.8 257.5,487.1 313.3,488.3 369.2,486.7 425.0,487.1 480.8,486.5 536.7,487.0 592.5,483.9 648.3,453.7 704.2,450.8 760.0,443.0" fill="none" stroke="#8b5cf6" stroke-width="2.5" stroke-linecap="round" stroke-linejoin="round"/>
  <circle cx="90.0" cy="487.8" r="3" fill="#8b5cf6" stroke="white" stroke-width="1"/>
  <circle cx="145.8" cy="489.4" r="3" fill="#8b5cf6" stroke="white" stroke-width="1"/>
  <circle cx="201.7" cy="487.8" r="3" fill="#8b5cf6" stroke="white" stroke-width="1"/>
  <circle cx="257.5" cy="487.1" r="3" fill="#8b5cf6" stroke="white" stroke-width="1"/>
  <circle cx="313.3" cy="488.3" r="3" fill="#8b5cf6" stroke="white" stroke-width="1"/>
  <circle cx="369.2" cy="486.7" r="3" fill="#8b5cf6" stroke="white" stroke-width="1"/>
  <circle cx="425.0" cy="487.1" r="3" fill="#8b5cf6" stroke="white" stroke-width="1"/>
  <circle cx="480.8" cy="486.5" r="3" fill="#8b5cf6" stroke="white" stroke-width="1"/>
  <circle cx="536.7" cy="487.0" r="3" fill="#8b5cf6" stroke="white" stroke-width="1"/>
  <circle cx="592.5" cy="483.9" r="3" fill="#8b5cf6" stroke="white" stroke-width="1"/>
  <circle cx="648.3" cy="453.7" r="3" fill="#8b5cf6" stroke="white" stroke-width="1"/>
  <circle cx="704.2" cy="450.8" r="3" fill="#8b5cf6" stroke="white" stroke-width="1"/>
  <circle cx="760.0" cy="443.0" r="3" fill="#8b5cf6" stroke="white" stroke-width="1"/>
  <text x="90.0" y="598" text-anchor="middle" fill="#374151" font-size="8.5">8 B</text>
  <text x="145.8" y="598" text-anchor="middle" fill="#374151" font-size="8.5">16 B</text>
  <text x="201.7" y="598" text-anchor="middle" fill="#374151" font-size="8.5">32 B</text>
  <text x="257.5" y="598" text-anchor="middle" fill="#374151" font-size="8.5">64 B</text>
  <text x="313.3" y="598" text-anchor="middle" fill="#374151" font-size="8.5">128 B</text>
  <text x="369.2" y="598" text-anchor="middle" fill="#374151" font-size="8.5">256 B</text>
  <text x="425.0" y="598" text-anchor="middle" fill="#374151" font-size="8.5">512 B</text>
  <text x="480.8" y="598" text-anchor="middle" fill="#374151" font-size="8.5">1 KiB</text>
  <text x="536.7" y="598" text-anchor="middle" fill="#374151" font-size="8.5">2 KiB</text>
  <text x="592.5" y="598" text-anchor="middle" fill="#374151" font-size="8.5">4 KiB</text>
  <text x="648.3" y="598" text-anchor="middle" fill="#374151" font-size="8.5">8 KiB</text>
  <text x="704.2" y="598" text-anchor="middle" fill="#374151" font-size="8.5">16 KiB</text>
  <text x="760.0" y="598" text-anchor="middle" fill="#374151" font-size="8.5">32 KiB</text>
  <line x1="145" y1="624" x2="159" y2="624" stroke="#dc2626" stroke-width="2.5"/>
  <circle cx="152" cy="624" r="2.5" fill="#dc2626"/>
  <text x="165" y="628" fill="#374151" font-size="11" font-weight="500">pyomq</text>
  <line x1="285" y1="624" x2="299" y2="624" stroke="#f97316" stroke-width="2.5"/>
  <circle cx="292" cy="624" r="2.5" fill="#f97316"/>
  <text x="305" y="628" fill="#374151" font-size="11" font-weight="500">pyomq async</text>
  <line x1="425" y1="624" x2="439" y2="624" stroke="#2563eb" stroke-width="2.5"/>
  <circle cx="432" cy="624" r="2.5" fill="#2563eb"/>
  <text x="445" y="628" fill="#374151" font-size="11" font-weight="500">pyzmq</text>
  <line x1="565" y1="624" x2="579" y2="624" stroke="#8b5cf6" stroke-width="2.5"/>
  <circle cx="572" cy="624" r="2.5" fill="#8b5cf6"/>
  <text x="585" y="628" fill="#374151" font-size="11" font-weight="500">pyzmq async</text>
  <text x="425.0" y="642" text-anchor="middle" fill="#9ca3af" font-size="9">dashed = msg/s (left) · solid = throughput (right)</text>
</svg>
