<svg xmlns="http://www.w3.org/2000/svg" viewBox="0 0 850 684" font-family="system-ui, -apple-system, sans-serif">
  <rect width="850" height="684" fill="white"/>
  <text x="425.0" y="32" text-anchor="middle" fill="#111827" font-size="13" font-weight="700">PUSH/PULL throughput: 2-process, TCP loopback (higher is better)</text>
  <text x="425.0" y="46" text-anchor="middle" fill="#9ca3af" font-size="10">Intel Core i7-8700B @ 3.20GHz, 6 cores</text>
  <line x1="90" y1="384.0" x2="760" y2="384.0" stroke="#e5e7eb" stroke-width="1"/>
  <text x="82" y="384.0" text-anchor="end" dominant-baseline="middle" fill="#374151" font-size="10">0</text>
  <line x1="90" y1="317.0" x2="760" y2="317.0" stroke="#e5e7eb" stroke-width="1"/>
  <text x="82" y="317.0" text-anchor="end" dominant-baseline="middle" fill="#374151" font-size="10">500k</text>
  <line x1="90" y1="250.0" x2="760" y2="250.0" stroke="#e5e7eb" stroke-width="1"/>
  <text x="82" y="250.0" text-anchor="end" dominant-baseline="middle" fill="#374151" font-size="10">1M</text>
  <line x1="90" y1="183.0" x2="760" y2="183.0" stroke="#e5e7eb" stroke-width="1"/>
  <text x="82" y="183.0" text-anchor="end" dominant-baseline="middle" fill="#374151" font-size="10">1.5M</text>
  <line x1="90" y1="116.0" x2="760" y2="116.0" stroke="#e5e7eb" stroke-width="1"/>
  <text x="82" y="116.0" text-anchor="end" dominant-baseline="middle" fill="#374151" font-size="10">2M</text>
  <line x1="90" y1="49.0" x2="760" y2="49.0" stroke="#e5e7eb" stroke-width="1"/>
  <text x="82" y="49.0" text-anchor="end" dominant-baseline="middle" fill="#374151" font-size="10">2.5M</text>
  <line x1="90" y1="384.0" x2="760" y2="384.0" stroke="#e5e7eb" stroke-width="1" stroke-dasharray="3,6"/>
  <text x="768" y="384.0" text-anchor="start" dominant-baseline="middle" fill="#6b7280" font-size="10">0.0 MB/s</text>
  <line x1="90" y1="317.0" x2="760" y2="317.0" stroke="#e5e7eb" stroke-width="1" stroke-dasharray="3,6"/>
  <text x="768" y="317.0" text-anchor="start" dominant-baseline="middle" fill="#6b7280" font-size="10">1.2 GB/s</text>
  <line x1="90" y1="250.0" x2="760" y2="250.0" stroke="#e5e7eb" stroke-width="1" stroke-dasharray="3,6"/>
  <text x="768" y="250.0" text-anchor="start" dominant-baseline="middle" fill="#6b7280" font-size="10">2.4 GB/s</text>
  <line x1="90" y1="183.0" x2="760" y2="183.0" stroke="#e5e7eb" stroke-width="1" stroke-dasharray="3,6"/>
  <text x="768" y="183.0" text-anchor="start" dominant-baseline="middle" fill="#6b7280" font-size="10">3.6 GB/s</text>
  <line x1="90" y1="116.0" x2="760" y2="116.0" stroke="#e5e7eb" stroke-width="1" stroke-dasharray="3,6"/>
  <text x="768" y="116.0" text-anchor="start" dominant-baseline="middle" fill="#6b7280" font-size="10">4.8 GB/s</text>
  <line x1="90" y1="49.0" x2="760" y2="49.0" stroke="#e5e7eb" stroke-width="1" stroke-dasharray="3,6"/>
  <text x="768" y="49.0" text-anchor="start" dominant-baseline="middle" fill="#6b7280" font-size="10">6.0 GB/s</text>
  <line x1="90.0" y1="49" x2="90.0" y2="384" stroke="#e5e7eb" stroke-width="1"/>
  <line x1="145.8" y1="49" x2="145.8" y2="384" stroke="#e5e7eb" stroke-width="1"/>
  <line x1="201.7" y1="49" x2="201.7" y2="384" stroke="#e5e7eb" stroke-width="1"/>
  <line x1="257.5" y1="49" x2="257.5" y2="384" stroke="#e5e7eb" stroke-width="1"/>
  <line x1="313.3" y1="49" x2="313.3" y2="384" stroke="#e5e7eb" stroke-width="1"/>
  <line x1="369.2" y1="49" x2="369.2" y2="384" stroke="#e5e7eb" stroke-width="1"/>
  <line x1="425.0" y1="49" x2="425.0" y2="384" stroke="#e5e7eb" stroke-width="1"/>
  <line x1="480.8" y1="49" x2="480.8" y2="384" stroke="#e5e7eb" stroke-width="1"/>
  <line x1="536.7" y1="49" x2="536.7" y2="384" stroke="#e5e7eb" stroke-width="1"/>
  <line x1="592.5" y1="49" x2="592.5" y2="384" stroke="#e5e7eb" stroke-width="1"/>
  <line x1="648.3" y1="49" x2="648.3" y2="384" stroke="#e5e7eb" stroke-width="1"/>
  <line x1="704.2" y1="49" x2="704.2" y2="384" stroke="#e5e7eb" stroke-width="1"/>
  <line x1="760.0" y1="49" x2="760.0" y2="384" stroke="#e5e7eb" stroke-width="1"/>
  <line x1="90" y1="49" x2="90" y2="384" stroke="#9ca3af" stroke-width="1.5"/>
  <line x1="760" y1="49" x2="760" y2="384" stroke="#9ca3af" stroke-width="1.5"/>
  <line x1="90" y1="384" x2="760" y2="384" stroke="#9ca3af" stroke-width="1.5"/>
  <text x="40" y="216" text-anchor="middle" dominant-baseline="middle" fill="#374151" font-size="10" font-weight="600" transform="rotate(-90,40,216)">msg/s</text>
  <polyline points="90.0,187.0 145.8,184.6 201.7,174.4 257.5,142.3 313.3,158.3 369.2,137.4 425.0,137.2 480.8,140.3 536.7,220.3 592.5,294.0 648.3,339.2 704.2,357.5 760.0,373.5" fill="none" stroke="#dc2626" stroke-width="2" stroke-dasharray="6,4"/>
  <polyline points="90.0,264.5 145.8,267.6 201.7,264.8 257.5,271.9 313.3,274.2 369.2,284.9 425.0,280.9 480.8,288.2 536.7,302.6 592.5,324.6 648.3,344.5 704.2,361.5 760.0,373.4" fill="none" stroke="#f97316" stroke-width="2" stroke-dasharray="6,4"/>
  <polyline points="90.0,228.3 145.8,228.0 201.7,229.7 257.5,246.7 313.3,283.0 369.2,291.7 425.0,274.9 480.8,304.4 536.7,328.9 592.5,351.0 648.3,366.6 704.2,374.7 760.0,376.4" fill="none" stroke="#2563eb" stroke-width="2" stroke-dasharray="6,4"/>
  <polyline points="90.0,377.2 145.8,377.0 201.7,377.1 257.5,377.1 313.3,377.0 369.2,377.0 425.0,377.3 480.8,377.3 536.7,377.5 592.5,377.6 648.3,377.7 704.2,378.0 760.0,378.5" fill="none" stroke="#8b5cf6" stroke-width="2" stroke-dasharray="6,4"/>
  <polyline points="90.0,383.3 145.8,382.7 201.7,381.2 257.5,377.6 313.3,372.0 369.2,357.7 425.0,331.3 480.8,280.0 536.7,244.3 592.5,230.4 648.3,231.2 704.2,203.0 760.0,240.2" fill="none" stroke="#dc2626" stroke-width="2.5" stroke-linecap="round" stroke-linejoin="round"/>
  <circle cx="90.0" cy="383.3" r="3" fill="#dc2626" stroke="white" stroke-width="1"/>
  <circle cx="145.8" cy="382.7" r="3" fill="#dc2626" stroke="white" stroke-width="1"/>
  <circle cx="201.7" cy="381.2" r="3" fill="#dc2626" stroke="white" stroke-width="1"/>
  <circle cx="257.5" cy="377.6" r="3" fill="#dc2626" stroke="white" stroke-width="1"/>
  <circle cx="313.3" cy="372.0" r="3" fill="#dc2626" stroke="white" stroke-width="1"/>
  <circle cx="369.2" cy="357.7" r="3" fill="#dc2626" stroke="white" stroke-width="1"/>
  <circle cx="425.0" cy="331.3" r="3" fill="#dc2626" stroke="white" stroke-width="1"/>
  <circle cx="480.8" cy="280.0" r="3" fill="#dc2626" stroke="white" stroke-width="1"/>
  <circle cx="536.7" cy="244.3" r="3" fill="#dc2626" stroke="white" stroke-width="1"/>
  <circle cx="592.5" cy="230.4" r="3" fill="#dc2626" stroke="white" stroke-width="1"/>
  <circle cx="648.3" cy="231.2" r="3" fill="#dc2626" stroke="white" stroke-width="1"/>
  <circle cx="704.2" cy="203.0" r="3" fill="#dc2626" stroke="white" stroke-width="1"/>
  <circle cx="760.0" cy="240.2" r="3" fill="#dc2626" stroke="white" stroke-width="1"/>
  <polyline points="90.0,383.6 145.8,383.2 201.7,382.4 257.5,381.0 313.3,378.1 369.2,373.4 425.0,362.0 480.8,343.1 536.7,314.5 592.5,282.6 648.3,249.3 704.2,230.4 760.0,238.9" fill="none" stroke="#f97316" stroke-width="2.5" stroke-linecap="round" stroke-linejoin="round"/>
  <circle cx="90.0" cy="383.6" r="3" fill="#f97316" stroke="white" stroke-width="1"/>
  <circle cx="145.8" cy="383.2" r="3" fill="#f97316" stroke="white" stroke-width="1"/>
  <circle cx="201.7" cy="382.4" r="3" fill="#f97316" stroke="white" stroke-width="1"/>
  <circle cx="257.5" cy="381.0" r="3" fill="#f97316" stroke="white" stroke-width="1"/>
  <circle cx="313.3" cy="378.1" r="3" fill="#f97316" stroke="white" stroke-width="1"/>
  <circle cx="369.2" cy="373.4" r="3" fill="#f97316" stroke="white" stroke-width="1"/>
  <circle cx="425.0" cy="362.0" r="3" fill="#f97316" stroke="white" stroke-width="1"/>
  <circle cx="480.8" cy="343.1" r="3" fill="#f97316" stroke="white" stroke-width="1"/>
  <circle cx="536.7" cy="314.5" r="3" fill="#f97316" stroke="white" stroke-width="1"/>
  <circle cx="592.5" cy="282.6" r="3" fill="#f97316" stroke="white" stroke-width="1"/>
  <circle cx="648.3" cy="249.3" r="3" fill="#f97316" stroke="white" stroke-width="1"/>
  <circle cx="704.2" cy="230.4" r="3" fill="#f97316" stroke="white" stroke-width="1"/>
  <circle cx="760.0" cy="238.9" r="3" fill="#f97316" stroke="white" stroke-width="1"/>
  <polyline points="90.0,383.5 145.8,383.0 201.7,381.9 257.5,380.3 313.3,378.6 369.2,374.2 425.0,360.7 480.8,350.0 536.7,337.0 592.5,327.6 648.3,324.5 704.2,320.2 760.0,279.7" fill="none" stroke="#2563eb" stroke-width="2.5" stroke-linecap="round" stroke-linejoin="round"/>
  <circle cx="90.0" cy="383.5" r="3" fill="#2563eb" stroke="white" stroke-width="1"/>
  <circle cx="145.8" cy="383.0" r="3" fill="#2563eb" stroke="white" stroke-width="1"/>
  <circle cx="201.7" cy="381.9" r="3" fill="#2563eb" stroke="white" stroke-width="1"/>
  <circle cx="257.5" cy="380.3" r="3" fill="#2563eb" stroke="white" stroke-width="1"/>
  <circle cx="313.3" cy="378.6" r="3" fill="#2563eb" stroke="white" stroke-width="1"/>
  <circle cx="369.2" cy="374.2" r="3" fill="#2563eb" stroke="white" stroke-width="1"/>
  <circle cx="425.0" cy="360.7" r="3" fill="#2563eb" stroke="white" stroke-width="1"/>
  <circle cx="480.8" cy="350.0" r="3" fill="#2563eb" stroke="white" stroke-width="1"/>
  <circle cx="536.7" cy="337.0" r="3" fill="#2563eb" stroke="white" stroke-width="1"/>
  <circle cx="592.5" cy="327.6" r="3" fill="#2563eb" stroke="white" stroke-width="1"/>
  <circle cx="648.3" cy="324.5" r="3" fill="#2563eb" stroke="white" stroke-width="1"/>
  <circle cx="704.2" cy="320.2" r="3" fill="#2563eb" stroke="white" stroke-width="1"/>
  <circle cx="760.0" cy="279.7" r="3" fill="#2563eb" stroke="white" stroke-width="1"/>
  <polyline points="90.0,384.0 145.8,384.0 201.7,383.9 257.5,383.8 313.3,383.6 369.2,383.2 425.0,382.6 480.8,381.1 536.7,378.4 592.5,373.0 648.3,362.6 704.2,343.1 760.0,308.4" fill="none" stroke="#8b5cf6" stroke-width="2.5" stroke-linecap="round" stroke-linejoin="round"/>
  <circle cx="90.0" cy="384.0" r="3" fill="#8b5cf6" stroke="white" stroke-width="1"/>
  <circle cx="145.8" cy="384.0" r="3" fill="#8b5cf6" stroke="white" stroke-width="1"/>
  <circle cx="201.7" cy="383.9" r="3" fill="#8b5cf6" stroke="white" stroke-width="1"/>
  <circle cx="257.5" cy="383.8" r="3" fill="#8b5cf6" stroke="white" stroke-width="1"/>
  <circle cx="313.3" cy="383.6" r="3" fill="#8b5cf6" stroke="white" stroke-width="1"/>
  <circle cx="369.2" cy="383.2" r="3" fill="#8b5cf6" stroke="white" stroke-width="1"/>
  <circle cx="425.0" cy="382.6" r="3" fill="#8b5cf6" stroke="white" stroke-width="1"/>
  <circle cx="480.8" cy="381.1" r="3" fill="#8b5cf6" stroke="white" stroke-width="1"/>
  <circle cx="536.7" cy="378.4" r="3" fill="#8b5cf6" stroke="white" stroke-width="1"/>
  <circle cx="592.5" cy="373.0" r="3" fill="#8b5cf6" stroke="white" stroke-width="1"/>
  <circle cx="648.3" cy="362.6" r="3" fill="#8b5cf6" stroke="white" stroke-width="1"/>
  <circle cx="704.2" cy="343.1" r="3" fill="#8b5cf6" stroke="white" stroke-width="1"/>
  <circle cx="760.0" cy="308.4" r="3" fill="#8b5cf6" stroke="white" stroke-width="1"/>
  <text x="90.0" y="398" text-anchor="middle" fill="#374151" font-size="8.5">8 B</text>
  <text x="145.8" y="398" text-anchor="middle" fill="#374151" font-size="8.5">16 B</text>
  <text x="201.7" y="398" text-anchor="middle" fill="#374151" font-size="8.5">32 B</text>
  <text x="257.5" y="398" text-anchor="middle" fill="#374151" font-size="8.5">64 B</text>
  <text x="313.3" y="398" text-anchor="middle" fill="#374151" font-size="8.5">128 B</text>
  <text x="369.2" y="398" text-anchor="middle" fill="#374151" font-size="8.5">256 B</text>
  <text x="425.0" y="398" text-anchor="middle" fill="#374151" font-size="8.5">512 B</text>
  <text x="480.8" y="398" text-anchor="middle" fill="#374151" font-size="8.5">1 KiB</text>
  <text x="536.7" y="398" text-anchor="middle" fill="#374151" font-size="8.5">2 KiB</text>
  <text x="592.5" y="398" text-anchor="middle" fill="#374151" font-size="8.5">4 KiB</text>
  <text x="648.3" y="398" text-anchor="middle" fill="#374151" font-size="8.5">8 KiB</text>
  <text x="704.2" y="398" text-anchor="middle" fill="#374151" font-size="8.5">16 KiB</text>
  <text x="760.0" y="398" text-anchor="middle" fill="#374151" font-size="8.5">32 KiB</text>
  <text x="425.0" y="447" text-anchor="middle" fill="#111827" font-size="13" font-weight="700">REQ/REP latency: 2-process, TCP loopback, p50 µs (lower is better)</text>
  <line x1="90" y1="572.0" x2="760" y2="572.0" stroke="#e5e7eb" stroke-width="1"/>
  <text x="82" y="572.0" text-anchor="end" dominant-baseline="middle" fill="#374151" font-size="10">20 µs</text>
  <line x1="90" y1="560.0" x2="760" y2="560.0" stroke="#e5e7eb" stroke-width="1"/>
  <text x="82" y="560.0" text-anchor="end" dominant-baseline="middle" fill="#374151" font-size="10">40 µs</text>
  <line x1="90" y1="548.0" x2="760" y2="548.0" stroke="#e5e7eb" stroke-width="1"/>
  <text x="82" y="548.0" text-anchor="end" dominant-baseline="middle" fill="#374151" font-size="10">60 µs</text>
  <line x1="90" y1="536.0" x2="760" y2="536.0" stroke="#e5e7eb" stroke-width="1"/>
  <text x="82" y="536.0" text-anchor="end" dominant-baseline="middle" fill="#374151" font-size="10">80 µs</text>
  <line x1="90" y1="524.0" x2="760" y2="524.0" stroke="#e5e7eb" stroke-width="1"/>
  <text x="82" y="524.0" text-anchor="end" dominant-baseline="middle" fill="#374151" font-size="10">100 µs</text>
  <line x1="90" y1="512.0" x2="760" y2="512.0" stroke="#e5e7eb" stroke-width="1"/>
  <text x="82" y="512.0" text-anchor="end" dominant-baseline="middle" fill="#374151" font-size="10">120 µs</text>
  <line x1="90" y1="500.0" x2="760" y2="500.0" stroke="#e5e7eb" stroke-width="1"/>
  <text x="82" y="500.0" text-anchor="end" dominant-baseline="middle" fill="#374151" font-size="10">140 µs</text>
  <line x1="90" y1="488.0" x2="760" y2="488.0" stroke="#e5e7eb" stroke-width="1"/>
  <text x="82" y="488.0" text-anchor="end" dominant-baseline="middle" fill="#374151" font-size="10">160 µs</text>
  <line x1="90" y1="476.0" x2="760" y2="476.0" stroke="#e5e7eb" stroke-width="1"/>
  <text x="82" y="476.0" text-anchor="end" dominant-baseline="middle" fill="#374151" font-size="10">180 µs</text>
  <line x1="90" y1="464.0" x2="760" y2="464.0" stroke="#e5e7eb" stroke-width="1"/>
  <text x="82" y="464.0" text-anchor="end" dominant-baseline="middle" fill="#374151" font-size="10">200 µs</text>
  <line x1="90.0" y1="464" x2="90.0" y2="584" stroke="#e5e7eb" stroke-width="1"/>
  <line x1="145.8" y1="464" x2="145.8" y2="584" stroke="#e5e7eb" stroke-width="1"/>
  <line x1="201.7" y1="464" x2="201.7" y2="584" stroke="#e5e7eb" stroke-width="1"/>
  <line x1="257.5" y1="464" x2="257.5" y2="584" stroke="#e5e7eb" stroke-width="1"/>
  <line x1="313.3" y1="464" x2="313.3" y2="584" stroke="#e5e7eb" stroke-width="1"/>
  <line x1="369.2" y1="464" x2="369.2" y2="584" stroke="#e5e7eb" stroke-width="1"/>
  <line x1="425.0" y1="464" x2="425.0" y2="584" stroke="#e5e7eb" stroke-width="1"/>
  <line x1="480.8" y1="464" x2="480.8" y2="584" stroke="#e5e7eb" stroke-width="1"/>
  <line x1="536.7" y1="464" x2="536.7" y2="584" stroke="#e5e7eb" stroke-width="1"/>
  <line x1="592.5" y1="464" x2="592.5" y2="584" stroke="#e5e7eb" stroke-width="1"/>
  <line x1="648.3" y1="464" x2="648.3" y2="584" stroke="#e5e7eb" stroke-width="1"/>
  <line x1="704.2" y1="464" x2="704.2" y2="584" stroke="#e5e7eb" stroke-width="1"/>
  <line x1="760.0" y1="464" x2="760.0" y2="584" stroke="#e5e7eb" stroke-width="1"/>
  <line x1="90" y1="464" x2="90" y2="584" stroke="#9ca3af" stroke-width="1.5"/>
  <line x1="90" y1="584" x2="760" y2="584" stroke="#9ca3af" stroke-width="1.5"/>
  <text x="40" y="524" text-anchor="middle" dominant-baseline="middle" fill="#374151" font-size="10" font-weight="600" transform="rotate(-90,40,524)">p50 latency (µs)</text>
  <polyline points="90.0,534.8 145.8,535.0 201.7,533.8 257.5,535.1 313.3,533.3 369.2,538.0 425.0,534.0 480.8,532.7 536.7,532.9 592.5,533.5 648.3,530.0 704.2,527.2 760.0,521.1" fill="none" stroke="#dc2626" stroke-width="2.5" stroke-linecap="round" stroke-linejoin="round"/>
  <circle cx="90.0" cy="534.8" r="3" fill="#dc2626" stroke="white" stroke-width="1"/>
  <circle cx="145.8" cy="535.0" r="3" fill="#dc2626" stroke="white" stroke-width="1"/>
  <circle cx="201.7" cy="533.8" r="3" fill="#dc2626" stroke="white" stroke-width="1"/>
  <circle cx="257.5" cy="535.1" r="3" fill="#dc2626" stroke="white" stroke-width="1"/>
  <circle cx="313.3" cy="533.3" r="3" fill="#dc2626" stroke="white" stroke-width="1"/>
  <circle cx="369.2" cy="538.0" r="3" fill="#dc2626" stroke="white" stroke-width="1"/>
  <circle cx="425.0" cy="534.0" r="3" fill="#dc2626" stroke="white" stroke-width="1"/>
  <circle cx="480.8" cy="532.7" r="3" fill="#dc2626" stroke="white" stroke-width="1"/>
  <circle cx="536.7" cy="532.9" r="3" fill="#dc2626" stroke="white" stroke-width="1"/>
  <circle cx="592.5" cy="533.5" r="3" fill="#dc2626" stroke="white" stroke-width="1"/>
  <circle cx="648.3" cy="530.0" r="3" fill="#dc2626" stroke="white" stroke-width="1"/>
  <circle cx="704.2" cy="527.2" r="3" fill="#dc2626" stroke="white" stroke-width="1"/>
  <circle cx="760.0" cy="521.1" r="3" fill="#dc2626" stroke="white" stroke-width="1"/>
  <polyline points="90.0,511.6 145.8,510.4 201.7,511.9 257.5,512.6 313.3,513.4 369.2,511.7 425.0,512.1 480.8,511.5 536.7,510.8 592.5,510.2 648.3,506.5 704.2,503.6 760.0,497.9" fill="none" stroke="#f97316" stroke-width="2.5" stroke-linecap="round" stroke-linejoin="round"/>
  <circle cx="90.0" cy="511.6" r="3" fill="#f97316" stroke="white" stroke-width="1"/>
  <circle cx="145.8" cy="510.4" r="3" fill="#f97316" stroke="white" stroke-width="1"/>
  <circle cx="201.7" cy="511.9" r="3" fill="#f97316" stroke="white" stroke-width="1"/>
  <circle cx="257.5" cy="512.6" r="3" fill="#f97316" stroke="white" stroke-width="1"/>
  <circle cx="313.3" cy="513.4" r="3" fill="#f97316" stroke="white" stroke-width="1"/>
  <circle cx="369.2" cy="511.7" r="3" fill="#f97316" stroke="white" stroke-width="1"/>
  <circle cx="425.0" cy="512.1" r="3" fill="#f97316" stroke="white" stroke-width="1"/>
  <circle cx="480.8" cy="511.5" r="3" fill="#f97316" stroke="white" stroke-width="1"/>
  <circle cx="536.7" cy="510.8" r="3" fill="#f97316" stroke="white" stroke-width="1"/>
  <circle cx="592.5" cy="510.2" r="3" fill="#f97316" stroke="white" stroke-width="1"/>
  <circle cx="648.3" cy="506.5" r="3" fill="#f97316" stroke="white" stroke-width="1"/>
  <circle cx="704.2" cy="503.6" r="3" fill="#f97316" stroke="white" stroke-width="1"/>
  <circle cx="760.0" cy="497.9" r="3" fill="#f97316" stroke="white" stroke-width="1"/>
  <polyline points="90.0,527.4 145.8,527.4 201.7,528.0 257.5,526.8 313.3,526.4 369.2,527.3 425.0,526.1 480.8,525.5 536.7,525.6 592.5,524.2 648.3,510.9 704.2,508.5 760.0,501.7" fill="none" stroke="#2563eb" stroke-width="2.5" stroke-linecap="round" stroke-linejoin="round"/>
  <circle cx="90.0" cy="527.4" r="3" fill="#2563eb" stroke="white" stroke-width="1"/>
  <circle cx="145.8" cy="527.4" r="3" fill="#2563eb" stroke="white" stroke-width="1"/>
  <circle cx="201.7" cy="528.0" r="3" fill="#2563eb" stroke="white" stroke-width="1"/>
  <circle cx="257.5" cy="526.8" r="3" fill="#2563eb" stroke="white" stroke-width="1"/>
  <circle cx="313.3" cy="526.4" r="3" fill="#2563eb" stroke="white" stroke-width="1"/>
  <circle cx="369.2" cy="527.3" r="3" fill="#2563eb" stroke="white" stroke-width="1"/>
  <circle cx="425.0" cy="526.1" r="3" fill="#2563eb" stroke="white" stroke-width="1"/>
  <circle cx="480.8" cy="525.5" r="3" fill="#2563eb" stroke="white" stroke-width="1"/>
  <circle cx="536.7" cy="525.6" r="3" fill="#2563eb" stroke="white" stroke-width="1"/>
  <circle cx="592.5" cy="524.2" r="3" fill="#2563eb" stroke="white" stroke-width="1"/>
  <circle cx="648.3" cy="510.9" r="3" fill="#2563eb" stroke="white" stroke-width="1"/>
  <circle cx="704.2" cy="508.5" r="3" fill="#2563eb" stroke="white" stroke-width="1"/>
  <circle cx="760.0" cy="501.7" r="3" fill="#2563eb" stroke="white" stroke-width="1"/>
  <polyline points="90.0,486.9 145.8,490.0 201.7,488.3 257.5,487.8 313.3,489.1 369.2,481.6 425.0,488.6 480.8,486.0 536.7,485.3 592.5,481.7 648.3,454.1 704.2,450.5 760.0,444.1" fill="none" stroke="#8b5cf6" stroke-width="2.5" stroke-linecap="round" stroke-linejoin="round"/>
  <circle cx="90.0" cy="486.9" r="3" fill="#8b5cf6" stroke="white" stroke-width="1"/>
  <circle cx="145.8" cy="490.0" r="3" fill="#8b5cf6" stroke="white" stroke-width="1"/>
  <circle cx="201.7" cy="488.3" r="3" fill="#8b5cf6" stroke="white" stroke-width="1"/>
  <circle cx="257.5" cy="487.8" r="3" fill="#8b5cf6" stroke="white" stroke-width="1"/>
  <circle cx="313.3" cy="489.1" r="3" fill="#8b5cf6" stroke="white" stroke-width="1"/>
  <circle cx="369.2" cy="481.6" r="3" fill="#8b5cf6" stroke="white" stroke-width="1"/>
  <circle cx="425.0" cy="488.6" r="3" fill="#8b5cf6" stroke="white" stroke-width="1"/>
  <circle cx="480.8" cy="486.0" r="3" fill="#8b5cf6" stroke="white" stroke-width="1"/>
  <circle cx="536.7" cy="485.3" r="3" fill="#8b5cf6" stroke="white" stroke-width="1"/>
  <circle cx="592.5" cy="481.7" r="3" fill="#8b5cf6" stroke="white" stroke-width="1"/>
  <circle cx="648.3" cy="454.1" r="3" fill="#8b5cf6" stroke="white" stroke-width="1"/>
  <circle cx="704.2" cy="450.5" r="3" fill="#8b5cf6" stroke="white" stroke-width="1"/>
  <circle cx="760.0" cy="444.1" r="3" fill="#8b5cf6" stroke="white" stroke-width="1"/>
  <text x="90.0" y="598" text-anchor="middle" fill="#374151" font-size="8.5">8 B</text>
  <text x="145.8" y="598" text-anchor="middle" fill="#374151" font-size="8.5">16 B</text>
  <text x="201.7" y="598" text-anchor="middle" fill="#374151" font-size="8.5">32 B</text>
  <text x="257.5" y="598" text-anchor="middle" fill="#374151" font-size="8.5">64 B</text>
  <text x="313.3" y="598" text-anchor="middle" fill="#374151" font-size="8.5">128 B</text>
  <text x="369.2" y="598" text-anchor="middle" fill="#374151" font-size="8.5">256 B</text>
  <text x="425.0" y="598" text-anchor="middle" fill="#374151" font-size="8.5">512 B</text>
  <text x="480.8" y="598" text-anchor="middle" fill="#374151" font-size="8.5">1 KiB</text>
  <text x="536.7" y="598" text-anchor="middle" fill="#374151" font-size="8.5">2 KiB</text>
  <text x="592.5" y="598" text-anchor="middle" fill="#374151" font-size="8.5">4 KiB</text>
  <text x="648.3" y="598" text-anchor="middle" fill="#374151" font-size="8.5">8 KiB</text>
  <text x="704.2" y="598" text-anchor="middle" fill="#374151" font-size="8.5">16 KiB</text>
  <text x="760.0" y="598" text-anchor="middle" fill="#374151" font-size="8.5">32 KiB</text>
  <line x1="145" y1="624" x2="159" y2="624" stroke="#dc2626" stroke-width="2.5"/>
  <circle cx="152" cy="624" r="2.5" fill="#dc2626"/>
  <text x="165" y="628" fill="#374151" font-size="11" font-weight="500">pyomq</text>
  <line x1="285" y1="624" x2="299" y2="624" stroke="#f97316" stroke-width="2.5"/>
  <circle cx="292" cy="624" r="2.5" fill="#f97316"/>
  <text x="305" y="628" fill="#374151" font-size="11" font-weight="500">pyomq async</text>
  <line x1="425" y1="624" x2="439" y2="624" stroke="#2563eb" stroke-width="2.5"/>
  <circle cx="432" cy="624" r="2.5" fill="#2563eb"/>
  <text x="445" y="628" fill="#374151" font-size="11" font-weight="500">pyzmq</text>
  <line x1="565" y1="624" x2="579" y2="624" stroke="#8b5cf6" stroke-width="2.5"/>
  <circle cx="572" cy="624" r="2.5" fill="#8b5cf6"/>
  <text x="585" y="628" fill="#374151" font-size="11" font-weight="500">pyzmq async</text>
  <text x="425.0" y="642" text-anchor="middle" fill="#9ca3af" font-size="9">dashed = msg/s (left) · solid = throughput (right)</text>
</svg>
