<svg xmlns="http://www.w3.org/2000/svg" viewBox="0 0 850 440" font-family="system-ui, -apple-system, sans-serif">
  <rect width="850" height="440" fill="white"/>
  <line x1="90" y1="350.0" x2="760" y2="350.0" stroke="#e5e7eb" stroke-width="1"/>
  <text x="82" y="350.0" text-anchor="end" dominant-baseline="middle" fill="#374151" font-size="10">0 µs</text>
  <line x1="90" y1="319.5" x2="760" y2="319.5" stroke="#e5e7eb" stroke-width="1"/>
  <text x="82" y="319.5" text-anchor="end" dominant-baseline="middle" fill="#374151" font-size="10">20 µs</text>
  <line x1="90" y1="289.0" x2="760" y2="289.0" stroke="#e5e7eb" stroke-width="1"/>
  <text x="82" y="289.0" text-anchor="end" dominant-baseline="middle" fill="#374151" font-size="10">40 µs</text>
  <line x1="90" y1="258.5" x2="760" y2="258.5" stroke="#e5e7eb" stroke-width="1"/>
  <text x="82" y="258.5" text-anchor="end" dominant-baseline="middle" fill="#374151" font-size="10">60 µs</text>
  <line x1="90" y1="228.0" x2="760" y2="228.0" stroke="#e5e7eb" stroke-width="1"/>
  <text x="82" y="228.0" text-anchor="end" dominant-baseline="middle" fill="#374151" font-size="10">80 µs</text>
  <line x1="90" y1="197.5" x2="760" y2="197.5" stroke="#e5e7eb" stroke-width="1"/>
  <text x="82" y="197.5" text-anchor="end" dominant-baseline="middle" fill="#374151" font-size="10">100 µs</text>
  <line x1="90" y1="167.0" x2="760" y2="167.0" stroke="#e5e7eb" stroke-width="1"/>
  <text x="82" y="167.0" text-anchor="end" dominant-baseline="middle" fill="#374151" font-size="10">120 µs</text>
  <line x1="90" y1="136.5" x2="760" y2="136.5" stroke="#e5e7eb" stroke-width="1"/>
  <text x="82" y="136.5" text-anchor="end" dominant-baseline="middle" fill="#374151" font-size="10">140 µs</text>
  <line x1="90" y1="106.0" x2="760" y2="106.0" stroke="#e5e7eb" stroke-width="1"/>
  <text x="82" y="106.0" text-anchor="end" dominant-baseline="middle" fill="#374151" font-size="10">160 µs</text>
  <line x1="90" y1="75.5" x2="760" y2="75.5" stroke="#e5e7eb" stroke-width="1"/>
  <text x="82" y="75.5" text-anchor="end" dominant-baseline="middle" fill="#374151" font-size="10">180 µs</text>
  <line x1="90" y1="45.0" x2="760" y2="45.0" stroke="#e5e7eb" stroke-width="1"/>
  <text x="82" y="45.0" text-anchor="end" dominant-baseline="middle" fill="#374151" font-size="10">200 µs</text>
  <line x1="90.0" y1="45" x2="90.0" y2="350" stroke="#e5e7eb" stroke-width="1"/>
  <line x1="257.5" y1="45" x2="257.5" y2="350" stroke="#e5e7eb" stroke-width="1"/>
  <line x1="425.0" y1="45" x2="425.0" y2="350" stroke="#e5e7eb" stroke-width="1"/>
  <line x1="592.5" y1="45" x2="592.5" y2="350" stroke="#e5e7eb" stroke-width="1"/>
  <line x1="760.0" y1="45" x2="760.0" y2="350" stroke="#e5e7eb" stroke-width="1"/>
  <text x="90.0" y="366" text-anchor="middle" fill="#374151" font-size="9.5">128 B</text>
  <text x="257.5" y="366" text-anchor="middle" fill="#374151" font-size="9.5">512 B</text>
  <text x="425.0" y="366" text-anchor="middle" fill="#374151" font-size="9.5">2 KiB</text>
  <text x="592.5" y="366" text-anchor="middle" fill="#374151" font-size="9.5">8 KiB</text>
  <text x="760.0" y="366" text-anchor="middle" fill="#374151" font-size="9.5">32 KiB</text>
  <line x1="90" y1="45" x2="90" y2="350" stroke="#9ca3af" stroke-width="1.5"/>
  <line x1="760" y1="45" x2="760" y2="350" stroke="#9ca3af" stroke-width="1.5"/>
  <line x1="90" y1="350" x2="760" y2="350" stroke="#9ca3af" stroke-width="1.5"/>
  <text x="30" y="198" text-anchor="middle" dominant-baseline="middle" fill="#374151" font-size="11" font-weight="600" transform="rotate(-90,30,198)">p50 latency</text>
  <text x="425.0" y="22" text-anchor="middle" fill="#111827" font-size="14" font-weight="700">REQ/REP latency: TCP loopback, p50 (Python bindings)</text>
  <polyline points="90.0,251.8 257.5,254.0 425.0,252.7 592.5,243.9 760.0,220.5" fill="none" stroke="#dc2626" stroke-width="2.5" stroke-linecap="round" stroke-linejoin="round"/>
  <circle cx="90.0" cy="251.8" r="3" fill="#dc2626" stroke="white" stroke-width="1"/>
  <circle cx="257.5" cy="254.0" r="3" fill="#dc2626" stroke="white" stroke-width="1"/>
  <circle cx="425.0" cy="252.7" r="3" fill="#dc2626" stroke="white" stroke-width="1"/>
  <circle cx="592.5" cy="243.9" r="3" fill="#dc2626" stroke="white" stroke-width="1"/>
  <circle cx="760.0" cy="220.5" r="3" fill="#dc2626" stroke="white" stroke-width="1"/>
  <polyline points="90.0,214.2 257.5,216.9 425.0,217.5 592.5,205.9 760.0,188.6" fill="none" stroke="#f97316" stroke-width="2.5" stroke-linecap="round" stroke-linejoin="round" stroke-dasharray="6,4"/>
  <circle cx="90.0" cy="214.2" r="3" fill="#f97316" stroke="white" stroke-width="1"/>
  <circle cx="257.5" cy="216.9" r="3" fill="#f97316" stroke="white" stroke-width="1"/>
  <circle cx="425.0" cy="217.5" r="3" fill="#f97316" stroke="white" stroke-width="1"/>
  <circle cx="592.5" cy="205.9" r="3" fill="#f97316" stroke="white" stroke-width="1"/>
  <circle cx="760.0" cy="188.6" r="3" fill="#f97316" stroke="white" stroke-width="1"/>
  <polyline points="90.0,238.9 257.5,243.2 425.0,240.9 592.5,213.4 760.0,194.1" fill="none" stroke="#2563eb" stroke-width="2.5" stroke-linecap="round" stroke-linejoin="round"/>
  <circle cx="90.0" cy="238.9" r="3" fill="#2563eb" stroke="white" stroke-width="1"/>
  <circle cx="257.5" cy="243.2" r="3" fill="#2563eb" stroke="white" stroke-width="1"/>
  <circle cx="425.0" cy="240.9" r="3" fill="#2563eb" stroke="white" stroke-width="1"/>
  <circle cx="592.5" cy="213.4" r="3" fill="#2563eb" stroke="white" stroke-width="1"/>
  <circle cx="760.0" cy="194.1" r="3" fill="#2563eb" stroke="white" stroke-width="1"/>
  <polyline points="90.0,174.6 257.5,164.0 425.0,171.4 592.5,114.8 760.0,94.5" fill="none" stroke="#8b5cf6" stroke-width="2.5" stroke-linecap="round" stroke-linejoin="round" stroke-dasharray="6,4"/>
  <circle cx="90.0" cy="174.6" r="3" fill="#8b5cf6" stroke="white" stroke-width="1"/>
  <circle cx="257.5" cy="164.0" r="3" fill="#8b5cf6" stroke="white" stroke-width="1"/>
  <circle cx="425.0" cy="171.4" r="3" fill="#8b5cf6" stroke="white" stroke-width="1"/>
  <circle cx="592.5" cy="114.8" r="3" fill="#8b5cf6" stroke="white" stroke-width="1"/>
  <circle cx="760.0" cy="94.5" r="3" fill="#8b5cf6" stroke="white" stroke-width="1"/>
  <line x1="185" y1="392" x2="199" y2="392" stroke="#dc2626" stroke-width="2.5"/>
  <text x="203" y="396" fill="#374151" font-size="10" font-weight="500">pyomq</text>
  <line x1="305" y1="392" x2="319" y2="392" stroke="#f97316" stroke-width="2.5" stroke-dasharray="6,4"/>
  <text x="323" y="396" fill="#374151" font-size="10" font-weight="500">pyomq async</text>
  <line x1="425" y1="392" x2="439" y2="392" stroke="#2563eb" stroke-width="2.5"/>
  <text x="443" y="396" fill="#374151" font-size="10" font-weight="500">pyzmq</text>
  <line x1="545" y1="392" x2="559" y2="392" stroke="#8b5cf6" stroke-width="2.5" stroke-dasharray="6,4"/>
  <text x="563" y="396" fill="#374151" font-size="10" font-weight="500">pyzmq async</text>
</svg>
