<svg xmlns="http://www.w3.org/2000/svg" viewBox="0 0 850 440" font-family="system-ui, -apple-system, sans-serif">
  <rect width="850" height="440" fill="white"/>
  <line x1="90" y1="350.0" x2="760" y2="350.0" stroke="#e5e7eb" stroke-width="1"/>
  <text x="82" y="350.0" text-anchor="end" dominant-baseline="middle" fill="#374151" font-size="10">10k</text>
  <line x1="90" y1="319.4" x2="760" y2="319.4" stroke="#f0f0f0" stroke-width="0.5"/>
  <text x="82" y="319.4" text-anchor="end" dominant-baseline="middle" fill="#9ca3af" font-size="8">20k</text>
  <line x1="90" y1="278.9" x2="760" y2="278.9" stroke="#f0f0f0" stroke-width="0.5"/>
  <text x="82" y="278.9" text-anchor="end" dominant-baseline="middle" fill="#9ca3af" font-size="8">50k</text>
  <line x1="90" y1="248.3" x2="760" y2="248.3" stroke="#e5e7eb" stroke-width="1"/>
  <text x="82" y="248.3" text-anchor="end" dominant-baseline="middle" fill="#374151" font-size="10">100k</text>
  <line x1="90" y1="217.7" x2="760" y2="217.7" stroke="#f0f0f0" stroke-width="0.5"/>
  <text x="82" y="217.7" text-anchor="end" dominant-baseline="middle" fill="#9ca3af" font-size="8">200k</text>
  <line x1="90" y1="177.3" x2="760" y2="177.3" stroke="#f0f0f0" stroke-width="0.5"/>
  <text x="82" y="177.3" text-anchor="end" dominant-baseline="middle" fill="#9ca3af" font-size="8">500k</text>
  <line x1="90" y1="146.7" x2="760" y2="146.7" stroke="#e5e7eb" stroke-width="1"/>
  <text x="82" y="146.7" text-anchor="end" dominant-baseline="middle" fill="#374151" font-size="10">1M</text>
  <line x1="90" y1="116.1" x2="760" y2="116.1" stroke="#f0f0f0" stroke-width="0.5"/>
  <text x="82" y="116.1" text-anchor="end" dominant-baseline="middle" fill="#9ca3af" font-size="8">2M</text>
  <line x1="90" y1="75.6" x2="760" y2="75.6" stroke="#f0f0f0" stroke-width="0.5"/>
  <text x="82" y="75.6" text-anchor="end" dominant-baseline="middle" fill="#9ca3af" font-size="8">5M</text>
  <line x1="90" y1="45.0" x2="760" y2="45.0" stroke="#e5e7eb" stroke-width="1"/>
  <text x="82" y="45.0" text-anchor="end" dominant-baseline="middle" fill="#374151" font-size="10">10M</text>
  <line x1="90" y1="350.0" x2="760" y2="350.0" stroke="#e5e7eb" stroke-width="1" stroke-dasharray="3,6"/>
  <text x="768" y="350.0" text-anchor="start" dominant-baseline="middle" fill="#6b7280" font-size="10">0.0 MB/s</text>
  <line x1="90" y1="289.0" x2="760" y2="289.0" stroke="#e5e7eb" stroke-width="1" stroke-dasharray="3,6"/>
  <text x="768" y="289.0" text-anchor="start" dominant-baseline="middle" fill="#6b7280" font-size="10">1.0 GB/s</text>
  <line x1="90" y1="228.0" x2="760" y2="228.0" stroke="#e5e7eb" stroke-width="1" stroke-dasharray="3,6"/>
  <text x="768" y="228.0" text-anchor="start" dominant-baseline="middle" fill="#6b7280" font-size="10">2.0 GB/s</text>
  <line x1="90" y1="167.0" x2="760" y2="167.0" stroke="#e5e7eb" stroke-width="1" stroke-dasharray="3,6"/>
  <text x="768" y="167.0" text-anchor="start" dominant-baseline="middle" fill="#6b7280" font-size="10">3.0 GB/s</text>
  <line x1="90" y1="106.0" x2="760" y2="106.0" stroke="#e5e7eb" stroke-width="1" stroke-dasharray="3,6"/>
  <text x="768" y="106.0" text-anchor="start" dominant-baseline="middle" fill="#6b7280" font-size="10">4.0 GB/s</text>
  <line x1="90" y1="45.0" x2="760" y2="45.0" stroke="#e5e7eb" stroke-width="1" stroke-dasharray="3,6"/>
  <text x="768" y="45.0" text-anchor="start" dominant-baseline="middle" fill="#6b7280" font-size="10">5.0 GB/s</text>
  <line x1="90.0" y1="45" x2="90.0" y2="350" stroke="#e5e7eb" stroke-width="1"/>
  <line x1="257.5" y1="45" x2="257.5" y2="350" stroke="#e5e7eb" stroke-width="1"/>
  <line x1="425.0" y1="45" x2="425.0" y2="350" stroke="#e5e7eb" stroke-width="1"/>
  <line x1="592.5" y1="45" x2="592.5" y2="350" stroke="#e5e7eb" stroke-width="1"/>
  <line x1="760.0" y1="45" x2="760.0" y2="350" stroke="#e5e7eb" stroke-width="1"/>
  <text x="90.0" y="366" text-anchor="middle" fill="#374151" font-size="9.5">128 B</text>
  <text x="257.5" y="366" text-anchor="middle" fill="#374151" font-size="9.5">512 B</text>
  <text x="425.0" y="366" text-anchor="middle" fill="#374151" font-size="9.5">2 KiB</text>
  <text x="592.5" y="366" text-anchor="middle" fill="#374151" font-size="9.5">8 KiB</text>
  <text x="760.0" y="366" text-anchor="middle" fill="#374151" font-size="9.5">32 KiB</text>
  <line x1="90" y1="45" x2="90" y2="350" stroke="#9ca3af" stroke-width="1.5"/>
  <line x1="760" y1="45" x2="760" y2="350" stroke="#9ca3af" stroke-width="1.5"/>
  <line x1="90" y1="350" x2="760" y2="350" stroke="#9ca3af" stroke-width="1.5"/>
  <text x="40" y="198" text-anchor="middle" dominant-baseline="middle" fill="#374151" font-size="11" font-weight="600" transform="rotate(-90,40,198)">msg/s (log)</text>
  <text x="830" y="198" text-anchor="middle" dominant-baseline="middle" fill="#6b7280" font-size="11" font-weight="600" transform="rotate(90,830,198)">throughput</text>
  <text x="425.0" y="22" text-anchor="middle" fill="#111827" font-size="14" font-weight="700">PUSH/PULL throughput: TCP loopback (Python bindings)</text>
  <polyline points="90.0,338.0 257.5,306.3 425.0,222.1 592.5,183.3 760.0,129.7" fill="none" stroke="#dc2626" stroke-width="2" stroke-linecap="round" stroke-linejoin="round" stroke-dasharray="6,4"/>
  <polyline points="90.0,342.5 257.5,322.0 425.0,273.5 592.5,201.8 760.0,125.9" fill="none" stroke="#f97316" stroke-width="2" stroke-linecap="round" stroke-linejoin="round" stroke-dasharray="6,4"/>
  <polyline points="90.0,346.3 257.5,335.7 425.0,304.9 592.5,295.4 760.0,258.8" fill="none" stroke="#2563eb" stroke-width="2" stroke-linecap="round" stroke-linejoin="round" stroke-dasharray="6,4"/>
  <polyline points="90.0,349.6 257.5,348.3 425.0,343.2 592.5,325.8 760.0,274.9" fill="none" stroke="#8b5cf6" stroke-width="2" stroke-linecap="round" stroke-linejoin="round" stroke-dasharray="6,4"/>
  <polyline points="90.0,127.8 257.5,131.8 425.0,145.6 592.5,195.1 760.0,244.0" fill="none" stroke="#dc2626" stroke-width="2.5" stroke-linecap="round" stroke-linejoin="round"/>
  <circle cx="90.0" cy="127.8" r="3" fill="#dc2626" stroke="white" stroke-width="1"/>
  <circle cx="257.5" cy="131.8" r="3" fill="#dc2626" stroke="white" stroke-width="1"/>
  <circle cx="425.0" cy="145.6" r="3" fill="#dc2626" stroke="white" stroke-width="1"/>
  <circle cx="592.5" cy="195.1" r="3" fill="#dc2626" stroke="white" stroke-width="1"/>
  <circle cx="760.0" cy="244.0" r="3" fill="#dc2626" stroke="white" stroke-width="1"/>
  <polyline points="90.0,148.6 257.5,151.4 425.0,168.3 592.5,200.3 760.0,243.3" fill="none" stroke="#f97316" stroke-width="2.5" stroke-linecap="round" stroke-linejoin="round"/>
  <circle cx="90.0" cy="148.6" r="3" fill="#f97316" stroke="white" stroke-width="1"/>
  <circle cx="257.5" cy="151.4" r="3" fill="#f97316" stroke="white" stroke-width="1"/>
  <circle cx="425.0" cy="168.3" r="3" fill="#f97316" stroke="white" stroke-width="1"/>
  <circle cx="592.5" cy="200.3" r="3" fill="#f97316" stroke="white" stroke-width="1"/>
  <circle cx="760.0" cy="243.3" r="3" fill="#f97316" stroke="white" stroke-width="1"/>
  <polyline points="90.0,179.8 257.5,181.1 425.0,191.7 592.5,244.5 760.0,283.0" fill="none" stroke="#2563eb" stroke-width="2.5" stroke-linecap="round" stroke-linejoin="round"/>
  <circle cx="90.0" cy="179.8" r="3" fill="#2563eb" stroke="white" stroke-width="1"/>
  <circle cx="257.5" cy="181.1" r="3" fill="#2563eb" stroke="white" stroke-width="1"/>
  <circle cx="425.0" cy="191.7" r="3" fill="#2563eb" stroke="white" stroke-width="1"/>
  <circle cx="592.5" cy="244.5" r="3" fill="#2563eb" stroke="white" stroke-width="1"/>
  <circle cx="760.0" cy="283.0" r="3" fill="#2563eb" stroke="white" stroke-width="1"/>
  <polyline points="90.0,276.4 257.5,276.2 425.0,275.4 592.5,280.4 760.0,291.6" fill="none" stroke="#8b5cf6" stroke-width="2.5" stroke-linecap="round" stroke-linejoin="round"/>
  <circle cx="90.0" cy="276.4" r="3" fill="#8b5cf6" stroke="white" stroke-width="1"/>
  <circle cx="257.5" cy="276.2" r="3" fill="#8b5cf6" stroke="white" stroke-width="1"/>
  <circle cx="425.0" cy="275.4" r="3" fill="#8b5cf6" stroke="white" stroke-width="1"/>
  <circle cx="592.5" cy="280.4" r="3" fill="#8b5cf6" stroke="white" stroke-width="1"/>
  <circle cx="760.0" cy="291.6" r="3" fill="#8b5cf6" stroke="white" stroke-width="1"/>
  <line x1="185" y1="388" x2="199" y2="388" stroke="#dc2626" stroke-width="2.5"/>
  <text x="203" y="392" fill="#374151" font-size="10" font-weight="500">pyomq</text>
  <line x1="305" y1="388" x2="319" y2="388" stroke="#f97316" stroke-width="2.5"/>
  <text x="323" y="392" fill="#374151" font-size="10" font-weight="500">pyomq async</text>
  <line x1="425" y1="388" x2="439" y2="388" stroke="#2563eb" stroke-width="2.5"/>
  <text x="443" y="392" fill="#374151" font-size="10" font-weight="500">pyzmq</text>
  <line x1="545" y1="388" x2="559" y2="388" stroke="#8b5cf6" stroke-width="2.5"/>
  <text x="563" y="392" fill="#374151" font-size="10" font-weight="500">pyzmq async</text>
  <text x="425.0" y="418" text-anchor="middle" fill="#9ca3af" font-size="9">solid = msg/s (left, log) · dashed = throughput (right)</text>
</svg>
