<svg xmlns="http://www.w3.org/2000/svg" viewBox="0 0 875 552" font-family="system-ui, -apple-system, sans-serif">
  <rect width="875" height="552" fill="white"/>
  <text x="395.0" y="32.0" text-anchor="middle" fill="#111827" font-size="13" font-weight="700">PUSH/PULL throughput: inproc</text>
  <line x1="90.0" y1="368.4" x2="700.0" y2="368.4" stroke="#e5e7eb" stroke-width="1"/>
  <text x="82.0" y="368.4" text-anchor="end" dominant-baseline="middle" fill="#374151" font-size="10">50%</text>
  <line x1="90.0" y1="322.8" x2="700.0" y2="322.8" stroke="#e5e7eb" stroke-width="1"/>
  <text x="82.0" y="322.8" text-anchor="end" dominant-baseline="middle" fill="#374151" font-size="10">100%</text>
  <line x1="90.0" y1="277.1" x2="700.0" y2="277.1" stroke="#e5e7eb" stroke-width="1"/>
  <text x="82.0" y="277.1" text-anchor="end" dominant-baseline="middle" fill="#374151" font-size="10">150%</text>
  <line x1="90.0" y1="231.5" x2="700.0" y2="231.5" stroke="#e5e7eb" stroke-width="1"/>
  <text x="82.0" y="231.5" text-anchor="end" dominant-baseline="middle" fill="#374151" font-size="10">200%</text>
  <line x1="90.0" y1="185.9" x2="700.0" y2="185.9" stroke="#e5e7eb" stroke-width="1"/>
  <text x="82.0" y="185.9" text-anchor="end" dominant-baseline="middle" fill="#374151" font-size="10">250%</text>
  <line x1="90.0" y1="140.2" x2="700.0" y2="140.2" stroke="#e5e7eb" stroke-width="1"/>
  <text x="82.0" y="140.2" text-anchor="end" dominant-baseline="middle" fill="#374151" font-size="10">300%</text>
  <line x1="90.0" y1="94.6" x2="700.0" y2="94.6" stroke="#e5e7eb" stroke-width="1"/>
  <text x="82.0" y="94.6" text-anchor="end" dominant-baseline="middle" fill="#374151" font-size="10">350%</text>
  <line x1="90.0" y1="49.0" x2="700.0" y2="49.0" stroke="#e5e7eb" stroke-width="1"/>
  <text x="82.0" y="49.0" text-anchor="end" dominant-baseline="middle" fill="#374151" font-size="10">400%</text>
  <line x1="90.0" y1="414.0" x2="700.0" y2="414.0" stroke="#e5e7eb" stroke-width="1" stroke-dasharray="3,6"/>
  <text x="708.0" y="414.0" text-anchor="start" dominant-baseline="middle" fill="#6b7280" font-size="10">0.01 GB/s</text>
  <line x1="90.0" y1="392.0" x2="700.0" y2="392.0" stroke="#e5e7eb" stroke-width="1" stroke-dasharray="2,8"/>
  <line x1="90.0" y1="363.0" x2="700.0" y2="363.0" stroke="#e5e7eb" stroke-width="1" stroke-dasharray="2,8"/>
  <line x1="90.0" y1="341.0" x2="700.0" y2="341.0" stroke="#e5e7eb" stroke-width="1" stroke-dasharray="3,6"/>
  <text x="708.0" y="341.0" text-anchor="start" dominant-baseline="middle" fill="#6b7280" font-size="10">0.1 GB/s</text>
  <line x1="90.0" y1="319.0" x2="700.0" y2="319.0" stroke="#e5e7eb" stroke-width="1" stroke-dasharray="2,8"/>
  <line x1="90.0" y1="290.0" x2="700.0" y2="290.0" stroke="#e5e7eb" stroke-width="1" stroke-dasharray="2,8"/>
  <line x1="90.0" y1="268.0" x2="700.0" y2="268.0" stroke="#e5e7eb" stroke-width="1" stroke-dasharray="3,6"/>
  <text x="708.0" y="268.0" text-anchor="start" dominant-baseline="middle" fill="#6b7280" font-size="10">1 GB/s</text>
  <line x1="90.0" y1="246.0" x2="700.0" y2="246.0" stroke="#e5e7eb" stroke-width="1" stroke-dasharray="2,8"/>
  <line x1="90.0" y1="217.0" x2="700.0" y2="217.0" stroke="#e5e7eb" stroke-width="1" stroke-dasharray="2,8"/>
  <line x1="90.0" y1="195.0" x2="700.0" y2="195.0" stroke="#e5e7eb" stroke-width="1" stroke-dasharray="3,6"/>
  <text x="708.0" y="195.0" text-anchor="start" dominant-baseline="middle" fill="#6b7280" font-size="10">10 GB/s</text>
  <line x1="90.0" y1="173.0" x2="700.0" y2="173.0" stroke="#e5e7eb" stroke-width="1" stroke-dasharray="2,8"/>
  <line x1="90.0" y1="144.0" x2="700.0" y2="144.0" stroke="#e5e7eb" stroke-width="1" stroke-dasharray="2,8"/>
  <line x1="90.0" y1="122.0" x2="700.0" y2="122.0" stroke="#e5e7eb" stroke-width="1" stroke-dasharray="3,6"/>
  <text x="708.0" y="122.0" text-anchor="start" dominant-baseline="middle" fill="#6b7280" font-size="10">100 GB/s</text>
  <line x1="90.0" y1="100.0" x2="700.0" y2="100.0" stroke="#e5e7eb" stroke-width="1" stroke-dasharray="2,8"/>
  <line x1="90.0" y1="71.0" x2="700.0" y2="71.0" stroke="#e5e7eb" stroke-width="1" stroke-dasharray="2,8"/>
  <line x1="90.0" y1="49.0" x2="700.0" y2="49.0" stroke="#e5e7eb" stroke-width="1" stroke-dasharray="3,6"/>
  <text x="708.0" y="49.0" text-anchor="start" dominant-baseline="middle" fill="#6b7280" font-size="10">1000 GB/s</text>
  <text x="788.0" y="341.3" text-anchor="start" dominant-baseline="middle" fill="#9ca3af" font-size="10">2M/s</text>
  <text x="788.0" y="268.6" text-anchor="start" dominant-baseline="middle" fill="#9ca3af" font-size="10">4M/s</text>
  <text x="788.0" y="195.8" text-anchor="start" dominant-baseline="middle" fill="#9ca3af" font-size="10">6M/s</text>
  <text x="788.0" y="123.1" text-anchor="start" dominant-baseline="middle" fill="#9ca3af" font-size="10">8M/s</text>
  <text x="788.0" y="50.4" text-anchor="start" dominant-baseline="middle" fill="#9ca3af" font-size="10">10M/s</text>
  <line x1="90.0" y1="49.0" x2="90.0" y2="414.0" stroke="#e5e7eb" stroke-width="1"/>
  <line x1="140.8" y1="49.0" x2="140.8" y2="414.0" stroke="#e5e7eb" stroke-width="1"/>
  <line x1="191.7" y1="49.0" x2="191.7" y2="414.0" stroke="#e5e7eb" stroke-width="1"/>
  <line x1="242.5" y1="49.0" x2="242.5" y2="414.0" stroke="#e5e7eb" stroke-width="1"/>
  <line x1="293.3" y1="49.0" x2="293.3" y2="414.0" stroke="#e5e7eb" stroke-width="1"/>
  <line x1="344.2" y1="49.0" x2="344.2" y2="414.0" stroke="#e5e7eb" stroke-width="1"/>
  <line x1="395.0" y1="49.0" x2="395.0" y2="414.0" stroke="#e5e7eb" stroke-width="1"/>
  <line x1="445.8" y1="49.0" x2="445.8" y2="414.0" stroke="#e5e7eb" stroke-width="1"/>
  <line x1="496.7" y1="49.0" x2="496.7" y2="414.0" stroke="#e5e7eb" stroke-width="1"/>
  <line x1="547.5" y1="49.0" x2="547.5" y2="414.0" stroke="#e5e7eb" stroke-width="1"/>
  <line x1="598.3" y1="49.0" x2="598.3" y2="414.0" stroke="#e5e7eb" stroke-width="1"/>
  <line x1="649.2" y1="49.0" x2="649.2" y2="414.0" stroke="#e5e7eb" stroke-width="1"/>
  <line x1="700.0" y1="49.0" x2="700.0" y2="414.0" stroke="#e5e7eb" stroke-width="1"/>
  <line x1="90.0" y1="49.0" x2="90.0" y2="414.0" stroke="#9ca3af" stroke-width="1.5"/>
  <line x1="700.0" y1="49.0" x2="700.0" y2="414.0" stroke="#9ca3af" stroke-width="1.5"/>
  <line x1="90.0" y1="414.0" x2="700.0" y2="414.0" stroke="#9ca3af" stroke-width="1.5"/>
  <line x1="780.0" y1="49.0" x2="780.0" y2="414.0" stroke="#d1d5db" stroke-width="1"/>
  <text x="40.0" y="231.5" text-anchor="middle" fill="#374151" font-size="10" font-weight="600" transform="rotate(-90,40.0,231.5)">CPU %</text>
  <polyline points="90.0,188.2 140.8,188.6 191.7,190.0 242.5,187.7 293.3,202.3 344.2,197.7 395.0,196.4 445.8,193.6 496.7,190.0 547.5,189.1 598.3,202.8 649.2,204.6 700.0,205.5" fill="none" stroke="#eab308" stroke-width="1.6" stroke-dasharray="2,5" opacity="0.85"/>
  <polyline points="90.0,230.1 140.8,230.6 191.7,230.1 242.5,230.6 293.3,230.2 344.2,230.1 395.0,230.1 445.8,230.1 496.7,231.1 547.5,230.1 598.3,231.0 649.2,230.6 700.0,230.2" fill="none" stroke="#dc2626" stroke-width="1.6" stroke-dasharray="2,5" opacity="0.85"/>
  <polyline points="90.0,322.8 140.8,322.8 191.7,322.8 242.5,322.8 293.3,322.8 344.2,323.2 395.0,323.2 445.8,323.2 496.7,322.8 547.5,323.2 598.3,322.8 649.2,322.8 700.0,322.8" fill="none" stroke="#f97316" stroke-width="1.6" stroke-dasharray="2,5" opacity="0.85"/>
  <polyline points="90.0,228.9 140.8,228.5 191.7,230.2 242.5,215.7 293.3,199.6 344.2,205.6 395.0,183.7 445.8,173.1 496.7,203.3 547.5,234.4 598.3,245.8 649.2,262.7 700.0,265.9" fill="none" stroke="#16a34a" stroke-width="1.6" stroke-dasharray="2,5" opacity="0.85"/>
  <polyline points="90.0,96.6 140.8,101.8 191.7,97.5 242.5,233.2 293.3,330.4 344.2,333.2 395.0,335.1 445.8,350.0 496.7,356.6 547.5,360.4 598.3,364.2 649.2,377.6 700.0,391.2" fill="none" stroke="#eab308" stroke-width="2.0" stroke-dasharray="5,3"/>
  <polyline points="90.0,296.7 140.8,302.1 191.7,291.5 242.5,284.5 293.3,270.6 344.2,285.7 395.0,294.8 445.8,291.2 496.7,273.5 547.5,277.3 598.3,286.5 649.2,286.7 700.0,285.8" fill="none" stroke="#dc2626" stroke-width="2.0" stroke-dasharray="5,3"/>
  <polyline points="90.0,167.5 140.8,167.6 191.7,169.6 242.5,154.8 293.3,154.4 344.2,154.0 395.0,153.4 445.8,154.9 496.7,154.3 547.5,159.6 598.3,154.3 649.2,154.4 700.0,154.3" fill="none" stroke="#f97316" stroke-width="2.0" stroke-dasharray="5,3"/>
  <polyline points="90.0,324.1 140.8,323.9 191.7,325.7 242.5,321.3 293.3,317.1 344.2,326.0 395.0,333.7 445.8,350.3 496.7,371.4 547.5,390.0 598.3,402.8 649.2,410.0 700.0,411.9" fill="none" stroke="#16a34a" stroke-width="2.0" stroke-dasharray="5,3"/>
  <polyline points="90.0,352.4 140.8,330.9 191.7,308.5 242.5,304.3 293.3,306.8 344.2,285.9 395.0,264.6 445.8,249.3 496.7,230.8 547.5,211.0 598.3,191.4 649.2,179.3 700.0,172.1" fill="none" stroke="#eab308" stroke-width="2.0" stroke-linecap="round" stroke-linejoin="round"/>
  <circle cx="90.0" cy="352.4" r="2.2" fill="#eab308" stroke="white" stroke-width="1"/>
  <circle cx="140.8" cy="330.9" r="2.2" fill="#eab308" stroke="white" stroke-width="1"/>
  <circle cx="191.7" cy="308.5" r="2.2" fill="#eab308" stroke="white" stroke-width="1"/>
  <circle cx="242.5" cy="304.3" r="2.2" fill="#eab308" stroke="white" stroke-width="1"/>
  <circle cx="293.3" cy="306.8" r="2.2" fill="#eab308" stroke="white" stroke-width="1"/>
  <circle cx="344.2" cy="285.9" r="2.2" fill="#eab308" stroke="white" stroke-width="1"/>
  <circle cx="395.0" cy="264.6" r="2.2" fill="#eab308" stroke="white" stroke-width="1"/>
  <circle cx="445.8" cy="249.3" r="2.2" fill="#eab308" stroke="white" stroke-width="1"/>
  <circle cx="496.7" cy="230.8" r="2.2" fill="#eab308" stroke="white" stroke-width="1"/>
  <circle cx="547.5" cy="211.0" r="2.2" fill="#eab308" stroke="white" stroke-width="1"/>
  <circle cx="598.3" cy="191.4" r="2.2" fill="#eab308" stroke="white" stroke-width="1"/>
  <circle cx="649.2" cy="179.3" r="2.2" fill="#eab308" stroke="white" stroke-width="1"/>
  <circle cx="700.0" cy="172.1" r="2.2" fill="#eab308" stroke="white" stroke-width="1"/>
  <polyline points="90.0,384.0 140.8,363.5 191.7,338.6 242.5,314.9 293.3,289.7 344.2,271.2 395.0,251.6 445.8,228.7 496.7,202.4 547.5,181.3 598.3,161.5 649.2,139.6 700.0,117.4" fill="none" stroke="#dc2626" stroke-width="2.0" stroke-linecap="round" stroke-linejoin="round"/>
  <circle cx="90.0" cy="384.0" r="2.2" fill="#dc2626" stroke="white" stroke-width="1"/>
  <circle cx="140.8" cy="363.5" r="2.2" fill="#dc2626" stroke="white" stroke-width="1"/>
  <circle cx="191.7" cy="338.6" r="2.2" fill="#dc2626" stroke="white" stroke-width="1"/>
  <circle cx="242.5" cy="314.9" r="2.2" fill="#dc2626" stroke="white" stroke-width="1"/>
  <circle cx="293.3" cy="289.7" r="2.2" fill="#dc2626" stroke="white" stroke-width="1"/>
  <circle cx="344.2" cy="271.2" r="2.2" fill="#dc2626" stroke="white" stroke-width="1"/>
  <circle cx="395.0" cy="251.6" r="2.2" fill="#dc2626" stroke="white" stroke-width="1"/>
  <circle cx="445.8" cy="228.7" r="2.2" fill="#dc2626" stroke="white" stroke-width="1"/>
  <circle cx="496.7" cy="202.4" r="2.2" fill="#dc2626" stroke="white" stroke-width="1"/>
  <circle cx="547.5" cy="181.3" r="2.2" fill="#dc2626" stroke="white" stroke-width="1"/>
  <circle cx="598.3" cy="161.5" r="2.2" fill="#dc2626" stroke="white" stroke-width="1"/>
  <circle cx="649.2" cy="139.6" r="2.2" fill="#dc2626" stroke="white" stroke-width="1"/>
  <circle cx="700.0" cy="117.4" r="2.2" fill="#dc2626" stroke="white" stroke-width="1"/>
  <polyline points="90.0,360.4 140.8,338.4 191.7,316.7 242.5,292.9 293.3,270.9 344.2,248.8 395.0,226.8 445.8,205.0 496.7,182.9 547.5,161.6 598.3,139.0 649.2,117.0 700.0,95.0" fill="none" stroke="#f97316" stroke-width="2.0" stroke-linecap="round" stroke-linejoin="round"/>
  <circle cx="90.0" cy="360.4" r="2.2" fill="#f97316" stroke="white" stroke-width="1"/>
  <circle cx="140.8" cy="338.4" r="2.2" fill="#f97316" stroke="white" stroke-width="1"/>
  <circle cx="191.7" cy="316.7" r="2.2" fill="#f97316" stroke="white" stroke-width="1"/>
  <circle cx="242.5" cy="292.9" r="2.2" fill="#f97316" stroke="white" stroke-width="1"/>
  <circle cx="293.3" cy="270.9" r="2.2" fill="#f97316" stroke="white" stroke-width="1"/>
  <circle cx="344.2" cy="248.8" r="2.2" fill="#f97316" stroke="white" stroke-width="1"/>
  <circle cx="395.0" cy="226.8" r="2.2" fill="#f97316" stroke="white" stroke-width="1"/>
  <circle cx="445.8" cy="205.0" r="2.2" fill="#f97316" stroke="white" stroke-width="1"/>
  <circle cx="496.7" cy="182.9" r="2.2" fill="#f97316" stroke="white" stroke-width="1"/>
  <circle cx="547.5" cy="161.6" r="2.2" fill="#f97316" stroke="white" stroke-width="1"/>
  <circle cx="598.3" cy="139.0" r="2.2" fill="#f97316" stroke="white" stroke-width="1"/>
  <circle cx="649.2" cy="117.0" r="2.2" fill="#f97316" stroke="white" stroke-width="1"/>
  <circle cx="700.0" cy="95.0" r="2.2" fill="#f97316" stroke="white" stroke-width="1"/>
  <polyline points="90.0,392.3 140.8,370.3 191.7,349.0 242.5,325.5 293.3,302.1 344.2,283.2 395.0,264.1 445.8,249.4 496.7,240.3 547.5,236.4 598.3,238.7 649.2,249.3 700.0,248.4" fill="none" stroke="#16a34a" stroke-width="2.0" stroke-linecap="round" stroke-linejoin="round"/>
  <circle cx="90.0" cy="392.3" r="2.2" fill="#16a34a" stroke="white" stroke-width="1"/>
  <circle cx="140.8" cy="370.3" r="2.2" fill="#16a34a" stroke="white" stroke-width="1"/>
  <circle cx="191.7" cy="349.0" r="2.2" fill="#16a34a" stroke="white" stroke-width="1"/>
  <circle cx="242.5" cy="325.5" r="2.2" fill="#16a34a" stroke="white" stroke-width="1"/>
  <circle cx="293.3" cy="302.1" r="2.2" fill="#16a34a" stroke="white" stroke-width="1"/>
  <circle cx="344.2" cy="283.2" r="2.2" fill="#16a34a" stroke="white" stroke-width="1"/>
  <circle cx="395.0" cy="264.1" r="2.2" fill="#16a34a" stroke="white" stroke-width="1"/>
  <circle cx="445.8" cy="249.4" r="2.2" fill="#16a34a" stroke="white" stroke-width="1"/>
  <circle cx="496.7" cy="240.3" r="2.2" fill="#16a34a" stroke="white" stroke-width="1"/>
  <circle cx="547.5" cy="236.4" r="2.2" fill="#16a34a" stroke="white" stroke-width="1"/>
  <circle cx="598.3" cy="238.7" r="2.2" fill="#16a34a" stroke="white" stroke-width="1"/>
  <circle cx="649.2" cy="249.3" r="2.2" fill="#16a34a" stroke="white" stroke-width="1"/>
  <circle cx="700.0" cy="248.4" r="2.2" fill="#16a34a" stroke="white" stroke-width="1"/>
  <text x="90.0" y="428.0" text-anchor="middle" fill="#374151" font-size="8.5">8 B</text>
  <text x="140.8" y="428.0" text-anchor="middle" fill="#374151" font-size="8.5">16 B</text>
  <text x="191.7" y="428.0" text-anchor="middle" fill="#374151" font-size="8.5">32 B</text>
  <text x="242.5" y="428.0" text-anchor="middle" fill="#374151" font-size="8.5">64 B</text>
  <text x="293.3" y="428.0" text-anchor="middle" fill="#374151" font-size="8.5">128 B</text>
  <text x="344.2" y="428.0" text-anchor="middle" fill="#374151" font-size="8.5">256 B</text>
  <text x="395.0" y="428.0" text-anchor="middle" fill="#374151" font-size="8.5">512 B</text>
  <text x="445.8" y="428.0" text-anchor="middle" fill="#374151" font-size="8.5">1 KiB</text>
  <text x="496.7" y="428.0" text-anchor="middle" fill="#374151" font-size="8.5">2 KiB</text>
  <text x="547.5" y="428.0" text-anchor="middle" fill="#374151" font-size="8.5">4 KiB</text>
  <text x="598.3" y="428.0" text-anchor="middle" fill="#374151" font-size="8.5">8 KiB</text>
  <text x="649.2" y="428.0" text-anchor="middle" fill="#374151" font-size="8.5">16 KiB</text>
  <text x="700.0" y="428.0" text-anchor="middle" fill="#374151" font-size="8.5">32 KiB</text>
  <text x="395.0" y="46" text-anchor="middle" fill="#9ca3af" font-size="10">Linux VM on a 2018 Mac Mini, Intel Core i7-8700B @ 3.20GHz, 6 cores, performance governor, turbo off</text>
  <line x1="15" y1="454" x2="29" y2="454" stroke="#eab308" stroke-width="2.5"/>
  <circle cx="22" cy="454" r="2.5" fill="#eab308"/>
  <text x="35" y="458" fill="#374151" font-size="11" font-weight="500">libzmq v4.3.5</text>
  <line x1="205" y1="454" x2="219" y2="454" stroke="#f97316" stroke-width="2.5"/>
  <circle cx="212" cy="454" r="2.5" fill="#f97316"/>
  <text x="225" y="458" fill="#374151" font-size="11" font-weight="500">omq-tokio (ST)</text>
  <line x1="395" y1="454" x2="409" y2="454" stroke="#dc2626" stroke-width="2.5"/>
  <circle cx="402" cy="454" r="2.5" fill="#dc2626"/>
  <text x="415" y="458" fill="#374151" font-size="11" font-weight="500">omq-tokio (MT)</text>
  <line x1="585" y1="454" x2="599" y2="454" stroke="#16a34a" stroke-width="2.5"/>
  <circle cx="592" cy="454" r="2.5" fill="#16a34a"/>
  <text x="605" y="458" fill="#374151" font-size="11" font-weight="500">rzmq v0.5.22 (MT)</text>
  <text x="395.0" y="472" text-anchor="middle" fill="#9ca3af" font-size="9">ST = single-threaded   MT = multi-threaded</text>
  <line x1="145" y1="494" x2="159" y2="494" stroke="#6b7280" stroke-width="1.6" stroke-dasharray="2,5" opacity="0.85"/>
  <text x="165" y="498" fill="#6b7280" font-size="10">CPU % (left)</text>
  <line x1="290" y1="494" x2="304" y2="494" stroke="#6b7280" stroke-width="2.0"/>
  <circle cx="297" cy="494" r="1.8" fill="#6b7280"/>
  <text x="310" y="498" fill="#6b7280" font-size="10">GB/s (inner right, log)</text>
  <line x1="455" y1="494" x2="469" y2="494" stroke="#6b7280" stroke-width="2.0" stroke-dasharray="5,3"/>
  <text x="475" y="498" fill="#6b7280" font-size="10">msg/s (outer right)</text>
</svg>
