<svg xmlns="http://www.w3.org/2000/svg" viewBox="0 0 875 572" font-family="system-ui, -apple-system, sans-serif">
  <rect width="875" height="572" fill="white"/>
  <text x="395.0" y="32.0" text-anchor="middle" fill="#111827" font-size="13" font-weight="700">PUSH/PULL throughput: IPC, 2-process</text>
  <line x1="90.0" y1="341.0" x2="700.0" y2="341.0" stroke="#e5e7eb" stroke-width="1"/>
  <text x="82.0" y="341.0" text-anchor="end" dominant-baseline="middle" fill="#374151" font-size="10">100%</text>
  <line x1="90.0" y1="268.0" x2="700.0" y2="268.0" stroke="#e5e7eb" stroke-width="1"/>
  <text x="82.0" y="268.0" text-anchor="end" dominant-baseline="middle" fill="#374151" font-size="10">200%</text>
  <line x1="90.0" y1="195.0" x2="700.0" y2="195.0" stroke="#e5e7eb" stroke-width="1"/>
  <text x="82.0" y="195.0" text-anchor="end" dominant-baseline="middle" fill="#374151" font-size="10">300%</text>
  <line x1="90.0" y1="122.0" x2="700.0" y2="122.0" stroke="#e5e7eb" stroke-width="1"/>
  <text x="82.0" y="122.0" text-anchor="end" dominant-baseline="middle" fill="#374151" font-size="10">400%</text>
  <line x1="90.0" y1="49.0" x2="700.0" y2="49.0" stroke="#e5e7eb" stroke-width="1"/>
  <text x="82.0" y="49.0" text-anchor="end" dominant-baseline="middle" fill="#374151" font-size="10">500%</text>
  <line x1="90.0" y1="353.2" x2="700.0" y2="353.2" stroke="#e5e7eb" stroke-width="1" stroke-dasharray="3,6"/>
  <text x="708.0" y="353.2" text-anchor="start" dominant-baseline="middle" fill="#6b7280" font-size="10">1 GB/s</text>
  <line x1="90.0" y1="292.3" x2="700.0" y2="292.3" stroke="#e5e7eb" stroke-width="1" stroke-dasharray="3,6"/>
  <text x="708.0" y="292.3" text-anchor="start" dominant-baseline="middle" fill="#6b7280" font-size="10">2 GB/s</text>
  <line x1="90.0" y1="231.5" x2="700.0" y2="231.5" stroke="#e5e7eb" stroke-width="1" stroke-dasharray="3,6"/>
  <text x="708.0" y="231.5" text-anchor="start" dominant-baseline="middle" fill="#6b7280" font-size="10">3 GB/s</text>
  <line x1="90.0" y1="170.7" x2="700.0" y2="170.7" stroke="#e5e7eb" stroke-width="1" stroke-dasharray="3,6"/>
  <text x="708.0" y="170.7" text-anchor="start" dominant-baseline="middle" fill="#6b7280" font-size="10">4 GB/s</text>
  <line x1="90.0" y1="109.8" x2="700.0" y2="109.8" stroke="#e5e7eb" stroke-width="1" stroke-dasharray="3,6"/>
  <text x="708.0" y="109.8" text-anchor="start" dominant-baseline="middle" fill="#6b7280" font-size="10">5 GB/s</text>
  <line x1="90.0" y1="49.0" x2="700.0" y2="49.0" stroke="#e5e7eb" stroke-width="1" stroke-dasharray="3,6"/>
  <text x="708.0" y="49.0" text-anchor="start" dominant-baseline="middle" fill="#6b7280" font-size="10">6 GB/s</text>
  <text x="788.0" y="368.6" text-anchor="start" dominant-baseline="middle" fill="#9ca3af" font-size="10">1M/s</text>
  <text x="788.0" y="323.1" text-anchor="start" dominant-baseline="middle" fill="#9ca3af" font-size="10">2M/s</text>
  <text x="788.0" y="277.7" text-anchor="start" dominant-baseline="middle" fill="#9ca3af" font-size="10">3M/s</text>
  <text x="788.0" y="232.2" text-anchor="start" dominant-baseline="middle" fill="#9ca3af" font-size="10">4M/s</text>
  <text x="788.0" y="186.8" text-anchor="start" dominant-baseline="middle" fill="#9ca3af" font-size="10">5M/s</text>
  <text x="788.0" y="141.3" text-anchor="start" dominant-baseline="middle" fill="#9ca3af" font-size="10">6M/s</text>
  <text x="788.0" y="95.9" text-anchor="start" dominant-baseline="middle" fill="#9ca3af" font-size="10">7M/s</text>
  <text x="788.0" y="50.4" text-anchor="start" dominant-baseline="middle" fill="#9ca3af" font-size="10">8M/s</text>
  <line x1="90.0" y1="49.0" x2="90.0" y2="414.0" stroke="#e5e7eb" stroke-width="1"/>
  <line x1="140.8" y1="49.0" x2="140.8" y2="414.0" stroke="#e5e7eb" stroke-width="1"/>
  <line x1="191.7" y1="49.0" x2="191.7" y2="414.0" stroke="#e5e7eb" stroke-width="1"/>
  <line x1="242.5" y1="49.0" x2="242.5" y2="414.0" stroke="#e5e7eb" stroke-width="1"/>
  <line x1="293.3" y1="49.0" x2="293.3" y2="414.0" stroke="#e5e7eb" stroke-width="1"/>
  <line x1="344.2" y1="49.0" x2="344.2" y2="414.0" stroke="#e5e7eb" stroke-width="1"/>
  <line x1="395.0" y1="49.0" x2="395.0" y2="414.0" stroke="#e5e7eb" stroke-width="1"/>
  <line x1="445.8" y1="49.0" x2="445.8" y2="414.0" stroke="#e5e7eb" stroke-width="1"/>
  <line x1="496.7" y1="49.0" x2="496.7" y2="414.0" stroke="#e5e7eb" stroke-width="1"/>
  <line x1="547.5" y1="49.0" x2="547.5" y2="414.0" stroke="#e5e7eb" stroke-width="1"/>
  <line x1="598.3" y1="49.0" x2="598.3" y2="414.0" stroke="#e5e7eb" stroke-width="1"/>
  <line x1="649.2" y1="49.0" x2="649.2" y2="414.0" stroke="#e5e7eb" stroke-width="1"/>
  <line x1="700.0" y1="49.0" x2="700.0" y2="414.0" stroke="#e5e7eb" stroke-width="1"/>
  <line x1="90.0" y1="49.0" x2="90.0" y2="414.0" stroke="#9ca3af" stroke-width="1.5"/>
  <line x1="700.0" y1="49.0" x2="700.0" y2="414.0" stroke="#9ca3af" stroke-width="1.5"/>
  <line x1="90.0" y1="414.0" x2="700.0" y2="414.0" stroke="#9ca3af" stroke-width="1.5"/>
  <line x1="780.0" y1="49.0" x2="780.0" y2="414.0" stroke="#d1d5db" stroke-width="1"/>
  <text x="40.0" y="231.5" text-anchor="middle" fill="#374151" font-size="10" font-weight="600" transform="rotate(-90,40.0,231.5)">CPU %</text>
  <polyline points="90.0,133.4 140.8,151.1 191.7,141.9 242.5,116.3 293.3,163.3 344.2,149.8 395.0,150.1 445.8,170.8 496.7,180.8 547.5,190.1 598.3,181.2 649.2,186.5 700.0,190.7" fill="none" stroke="#eab308" stroke-width="1.6" stroke-dasharray="2,5" opacity="0.85"/>
  <polyline points="90.0,131.2 140.8,133.2 191.7,133.3 242.5,138.8 293.3,136.3 344.2,141.8 395.0,149.0 445.8,161.2 496.7,160.2 547.5,181.9 598.3,204.6 649.2,205.7 700.0,185.4" fill="none" stroke="#dc2626" stroke-width="1.6" stroke-dasharray="2,5" opacity="0.85"/>
  <polyline points="90.0,279.0 140.8,279.8 191.7,279.2 242.5,285.9 293.3,287.1 344.2,283.5 395.0,287.1 445.8,289.1 496.7,294.9 547.5,297.0 598.3,307.7 649.2,305.3 700.0,298.3" fill="none" stroke="#f97316" stroke-width="1.6" stroke-dasharray="2,5" opacity="0.85"/>
  <polyline points="90.0,337.4 140.8,338.8 191.7,252.8 242.5,345.0 293.3,347.2 344.2,346.9 395.0,350.1 445.8,268.1 496.7,345.7 547.5,269.5 598.3,346.1 649.2,341.7 700.0,334.1" fill="none" stroke="#16a34a" stroke-width="1.6" stroke-dasharray="2,5" opacity="0.85"/>
  <polyline points="90.0,301.6 140.8,300.9 191.7,228.5 242.5,299.8 293.3,300.1 344.2,299.8 395.0,302.7 445.8,223.3 496.7,296.8 547.5,237.9 598.3,320.2 649.2,344.3 700.0,352.0" fill="none" stroke="#2563eb" stroke-width="1.6" stroke-dasharray="2,5" opacity="0.85"/>
  <polyline points="90.0,108.0 140.8,96.6 191.7,119.7 242.5,209.2 293.3,311.0 344.2,316.4 395.0,329.0 445.8,365.3 496.7,385.9 547.5,398.7 598.3,405.0 649.2,409.2 700.0,410.1" fill="none" stroke="#eab308" stroke-width="2.0" stroke-dasharray="5,3"/>
  <polyline points="90.0,137.0 140.8,133.7 191.7,140.9 242.5,232.6 293.3,230.4 344.2,230.6 395.0,231.8 445.8,265.4 496.7,302.6 547.5,352.5 598.3,386.6 649.2,397.1 700.0,405.2" fill="none" stroke="#dc2626" stroke-width="2.0" stroke-dasharray="5,3"/>
  <polyline points="90.0,110.0 140.8,114.8 191.7,121.3 242.5,221.4 293.3,228.9 344.2,248.7 395.0,275.2 445.8,307.7 496.7,340.5 547.5,369.2 598.3,393.2 649.2,402.7 700.0,407.6" fill="none" stroke="#f97316" stroke-width="2.0" stroke-dasharray="5,3"/>
  <polyline points="90.0,305.8 140.8,307.5 191.7,308.1 242.5,312.3 293.3,311.4 344.2,317.8 395.0,328.9 445.8,345.0 496.7,363.0 547.5,386.6 598.3,400.5 649.2,407.2 700.0,410.1" fill="none" stroke="#16a34a" stroke-width="2.0" stroke-dasharray="5,3"/>
  <polyline points="90.0,389.3 140.8,388.7 191.7,388.9 242.5,389.0 293.3,388.9 344.2,389.6 395.0,389.7 445.8,391.2 496.7,393.3 547.5,397.8 598.3,401.0 649.2,405.9 700.0,409.4" fill="none" stroke="#2563eb" stroke-width="2.0" stroke-dasharray="5,3"/>
  <polyline points="90.0,410.7 140.8,407.2 191.7,401.4 242.5,396.5 293.3,396.3 344.2,380.6 395.0,355.8 445.8,347.2 496.7,337.0 547.5,330.3 598.3,314.9 649.2,308.7 700.0,244.3" fill="none" stroke="#eab308" stroke-width="2.0" stroke-linecap="round" stroke-linejoin="round"/>
  <circle cx="90.0" cy="410.7" r="2.2" fill="#eab308" stroke="white" stroke-width="1"/>
  <circle cx="140.8" cy="407.2" r="2.2" fill="#eab308" stroke="white" stroke-width="1"/>
  <circle cx="191.7" cy="401.4" r="2.2" fill="#eab308" stroke="white" stroke-width="1"/>
  <circle cx="242.5" cy="396.5" r="2.2" fill="#eab308" stroke="white" stroke-width="1"/>
  <circle cx="293.3" cy="396.3" r="2.2" fill="#eab308" stroke="white" stroke-width="1"/>
  <circle cx="344.2" cy="380.6" r="2.2" fill="#eab308" stroke="white" stroke-width="1"/>
  <circle cx="395.0" cy="355.8" r="2.2" fill="#eab308" stroke="white" stroke-width="1"/>
  <circle cx="445.8" cy="347.2" r="2.2" fill="#eab308" stroke="white" stroke-width="1"/>
  <circle cx="496.7" cy="337.0" r="2.2" fill="#eab308" stroke="white" stroke-width="1"/>
  <circle cx="547.5" cy="330.3" r="2.2" fill="#eab308" stroke="white" stroke-width="1"/>
  <circle cx="598.3" cy="314.9" r="2.2" fill="#eab308" stroke="white" stroke-width="1"/>
  <circle cx="649.2" cy="308.7" r="2.2" fill="#eab308" stroke="white" stroke-width="1"/>
  <circle cx="700.0" cy="244.3" r="2.2" fill="#eab308" stroke="white" stroke-width="1"/>
  <polyline points="90.0,411.0 140.8,408.0 191.7,402.3 242.5,398.5 293.3,382.5 344.2,351.2 395.0,289.1 445.8,210.3 496.7,108.7 547.5,76.6 598.3,113.9 649.2,43.3 700.0,25.9" fill="none" stroke="#dc2626" stroke-width="2.0" stroke-linecap="round" stroke-linejoin="round"/>
  <circle cx="90.0" cy="411.0" r="2.2" fill="#dc2626" stroke="white" stroke-width="1"/>
  <circle cx="140.8" cy="408.0" r="2.2" fill="#dc2626" stroke="white" stroke-width="1"/>
  <circle cx="191.7" cy="402.3" r="2.2" fill="#dc2626" stroke="white" stroke-width="1"/>
  <circle cx="242.5" cy="398.5" r="2.2" fill="#dc2626" stroke="white" stroke-width="1"/>
  <circle cx="293.3" cy="382.5" r="2.2" fill="#dc2626" stroke="white" stroke-width="1"/>
  <circle cx="344.2" cy="351.2" r="2.2" fill="#dc2626" stroke="white" stroke-width="1"/>
  <circle cx="395.0" cy="289.1" r="2.2" fill="#dc2626" stroke="white" stroke-width="1"/>
  <circle cx="445.8" cy="210.3" r="2.2" fill="#dc2626" stroke="white" stroke-width="1"/>
  <circle cx="496.7" cy="108.7" r="2.2" fill="#dc2626" stroke="white" stroke-width="1"/>
  <circle cx="547.5" cy="76.6" r="2.2" fill="#dc2626" stroke="white" stroke-width="1"/>
  <circle cx="598.3" cy="113.9" r="2.2" fill="#dc2626" stroke="white" stroke-width="1"/>
  <circle cx="649.2" cy="43.3" r="2.2" fill="#dc2626" stroke="white" stroke-width="1"/>
  <circle cx="700.0" cy="25.9" r="2.2" fill="#dc2626" stroke="white" stroke-width="1"/>
  <polyline points="90.0,410.7 140.8,407.6 191.7,401.5 242.5,397.5 293.3,382.3 344.2,357.4 395.0,318.9 445.8,268.3 496.7,212.6 547.5,168.3 598.3,185.7 649.2,165.6 700.0,131.2" fill="none" stroke="#f97316" stroke-width="2.0" stroke-linecap="round" stroke-linejoin="round"/>
  <circle cx="90.0" cy="410.7" r="2.2" fill="#f97316" stroke="white" stroke-width="1"/>
  <circle cx="140.8" cy="407.6" r="2.2" fill="#f97316" stroke="white" stroke-width="1"/>
  <circle cx="191.7" cy="401.5" r="2.2" fill="#f97316" stroke="white" stroke-width="1"/>
  <circle cx="242.5" cy="397.5" r="2.2" fill="#f97316" stroke="white" stroke-width="1"/>
  <circle cx="293.3" cy="382.3" r="2.2" fill="#f97316" stroke="white" stroke-width="1"/>
  <circle cx="344.2" cy="357.4" r="2.2" fill="#f97316" stroke="white" stroke-width="1"/>
  <circle cx="395.0" cy="318.9" r="2.2" fill="#f97316" stroke="white" stroke-width="1"/>
  <circle cx="445.8" cy="268.3" r="2.2" fill="#f97316" stroke="white" stroke-width="1"/>
  <circle cx="496.7" cy="212.6" r="2.2" fill="#f97316" stroke="white" stroke-width="1"/>
  <circle cx="547.5" cy="168.3" r="2.2" fill="#f97316" stroke="white" stroke-width="1"/>
  <circle cx="598.3" cy="185.7" r="2.2" fill="#f97316" stroke="white" stroke-width="1"/>
  <circle cx="649.2" cy="165.6" r="2.2" fill="#f97316" stroke="white" stroke-width="1"/>
  <circle cx="700.0" cy="131.2" r="2.2" fill="#f97316" stroke="white" stroke-width="1"/>
  <polyline points="90.0,412.8 140.8,411.7 191.7,409.5 242.5,405.3 293.3,396.4 344.2,381.1 395.0,355.7 445.8,319.4 496.7,274.3 547.5,264.0 598.3,266.2 649.2,265.4 700.0,243.1" fill="none" stroke="#16a34a" stroke-width="2.0" stroke-linecap="round" stroke-linejoin="round"/>
  <circle cx="90.0" cy="412.8" r="2.2" fill="#16a34a" stroke="white" stroke-width="1"/>
  <circle cx="140.8" cy="411.7" r="2.2" fill="#16a34a" stroke="white" stroke-width="1"/>
  <circle cx="191.7" cy="409.5" r="2.2" fill="#16a34a" stroke="white" stroke-width="1"/>
  <circle cx="242.5" cy="405.3" r="2.2" fill="#16a34a" stroke="white" stroke-width="1"/>
  <circle cx="293.3" cy="396.4" r="2.2" fill="#16a34a" stroke="white" stroke-width="1"/>
  <circle cx="344.2" cy="381.1" r="2.2" fill="#16a34a" stroke="white" stroke-width="1"/>
  <circle cx="395.0" cy="355.7" r="2.2" fill="#16a34a" stroke="white" stroke-width="1"/>
  <circle cx="445.8" cy="319.4" r="2.2" fill="#16a34a" stroke="white" stroke-width="1"/>
  <circle cx="496.7" cy="274.3" r="2.2" fill="#16a34a" stroke="white" stroke-width="1"/>
  <circle cx="547.5" cy="264.0" r="2.2" fill="#16a34a" stroke="white" stroke-width="1"/>
  <circle cx="598.3" cy="266.2" r="2.2" fill="#16a34a" stroke="white" stroke-width="1"/>
  <circle cx="649.2" cy="265.4" r="2.2" fill="#16a34a" stroke="white" stroke-width="1"/>
  <circle cx="700.0" cy="243.1" r="2.2" fill="#16a34a" stroke="white" stroke-width="1"/>
  <polyline points="90.0,413.7 140.8,413.5 191.7,412.9 242.5,411.9 293.3,409.7 344.2,405.7 395.0,397.3 445.8,382.8 496.7,357.3 547.5,325.4 598.3,271.9 649.2,236.8 700.0,213.3" fill="none" stroke="#2563eb" stroke-width="2.0" stroke-linecap="round" stroke-linejoin="round"/>
  <circle cx="90.0" cy="413.7" r="2.2" fill="#2563eb" stroke="white" stroke-width="1"/>
  <circle cx="140.8" cy="413.5" r="2.2" fill="#2563eb" stroke="white" stroke-width="1"/>
  <circle cx="191.7" cy="412.9" r="2.2" fill="#2563eb" stroke="white" stroke-width="1"/>
  <circle cx="242.5" cy="411.9" r="2.2" fill="#2563eb" stroke="white" stroke-width="1"/>
  <circle cx="293.3" cy="409.7" r="2.2" fill="#2563eb" stroke="white" stroke-width="1"/>
  <circle cx="344.2" cy="405.7" r="2.2" fill="#2563eb" stroke="white" stroke-width="1"/>
  <circle cx="395.0" cy="397.3" r="2.2" fill="#2563eb" stroke="white" stroke-width="1"/>
  <circle cx="445.8" cy="382.8" r="2.2" fill="#2563eb" stroke="white" stroke-width="1"/>
  <circle cx="496.7" cy="357.3" r="2.2" fill="#2563eb" stroke="white" stroke-width="1"/>
  <circle cx="547.5" cy="325.4" r="2.2" fill="#2563eb" stroke="white" stroke-width="1"/>
  <circle cx="598.3" cy="271.9" r="2.2" fill="#2563eb" stroke="white" stroke-width="1"/>
  <circle cx="649.2" cy="236.8" r="2.2" fill="#2563eb" stroke="white" stroke-width="1"/>
  <circle cx="700.0" cy="213.3" r="2.2" fill="#2563eb" stroke="white" stroke-width="1"/>
  <text x="90.0" y="428.0" text-anchor="middle" fill="#374151" font-size="8.5">8 B</text>
  <text x="140.8" y="428.0" text-anchor="middle" fill="#374151" font-size="8.5">16 B</text>
  <text x="191.7" y="428.0" text-anchor="middle" fill="#374151" font-size="8.5">32 B</text>
  <text x="242.5" y="428.0" text-anchor="middle" fill="#374151" font-size="8.5">64 B</text>
  <text x="293.3" y="428.0" text-anchor="middle" fill="#374151" font-size="8.5">128 B</text>
  <text x="344.2" y="428.0" text-anchor="middle" fill="#374151" font-size="8.5">256 B</text>
  <text x="395.0" y="428.0" text-anchor="middle" fill="#374151" font-size="8.5">512 B</text>
  <text x="445.8" y="428.0" text-anchor="middle" fill="#374151" font-size="8.5">1 KiB</text>
  <text x="496.7" y="428.0" text-anchor="middle" fill="#374151" font-size="8.5">2 KiB</text>
  <text x="547.5" y="428.0" text-anchor="middle" fill="#374151" font-size="8.5">4 KiB</text>
  <text x="598.3" y="428.0" text-anchor="middle" fill="#374151" font-size="8.5">8 KiB</text>
  <text x="649.2" y="428.0" text-anchor="middle" fill="#374151" font-size="8.5">16 KiB</text>
  <text x="700.0" y="428.0" text-anchor="middle" fill="#374151" font-size="8.5">32 KiB</text>
  <text x="395.0" y="46" text-anchor="middle" fill="#9ca3af" font-size="10">Linux VM on a 2018 Mac Mini, Intel Core i7-8700B @ 3.20GHz, 6 cores, performance governor, turbo off</text>
  <line x1="110" y1="454" x2="124" y2="454" stroke="#eab308" stroke-width="2.5"/>
  <circle cx="117" cy="454" r="2.5" fill="#eab308"/>
  <text x="130" y="458" fill="#374151" font-size="11" font-weight="500">libzmq v4.3.5</text>
  <line x1="300" y1="454" x2="314" y2="454" stroke="#f97316" stroke-width="2.5"/>
  <circle cx="307" cy="454" r="2.5" fill="#f97316"/>
  <text x="320" y="458" fill="#374151" font-size="11" font-weight="500">omq-tokio (ST)</text>
  <line x1="490" y1="454" x2="504" y2="454" stroke="#dc2626" stroke-width="2.5"/>
  <circle cx="497" cy="454" r="2.5" fill="#dc2626"/>
  <text x="510" y="458" fill="#374151" font-size="11" font-weight="500">omq-tokio (MT)</text>
  <line x1="205" y1="474" x2="219" y2="474" stroke="#2563eb" stroke-width="2.5"/>
  <circle cx="212" cy="474" r="2.5" fill="#2563eb"/>
  <text x="225" y="478" fill="#374151" font-size="11" font-weight="500">zmq.rs v0.6.0 (MT)</text>
  <line x1="395" y1="474" x2="409" y2="474" stroke="#16a34a" stroke-width="2.5"/>
  <circle cx="402" cy="474" r="2.5" fill="#16a34a"/>
  <text x="415" y="478" fill="#374151" font-size="11" font-weight="500">rzmq v0.5.22 (MT)</text>
  <text x="395.0" y="492" text-anchor="middle" fill="#9ca3af" font-size="9">ST = single-threaded   MT = multi-threaded</text>
  <line x1="145" y1="514" x2="159" y2="514" stroke="#6b7280" stroke-width="1.6" stroke-dasharray="2,5" opacity="0.85"/>
  <text x="165" y="518" fill="#6b7280" font-size="10">CPU % (left)</text>
  <line x1="290" y1="514" x2="304" y2="514" stroke="#6b7280" stroke-width="2.0"/>
  <circle cx="297" cy="514" r="1.8" fill="#6b7280"/>
  <text x="310" y="518" fill="#6b7280" font-size="10">GB/s (inner right)</text>
  <line x1="455" y1="514" x2="469" y2="514" stroke="#6b7280" stroke-width="2.0" stroke-dasharray="5,3"/>
  <text x="475" y="518" fill="#6b7280" font-size="10">msg/s (outer right)</text>
</svg>
