<svg xmlns="http://www.w3.org/2000/svg" viewBox="0 0 850 494" font-family="system-ui, -apple-system, sans-serif">
  <rect width="850" height="494" fill="white"/>
  <text x="425.0" y="32.0" text-anchor="middle" fill="#111827" font-size="13" font-weight="700">PUSH/PULL throughput: inproc (higher is better)</text>
  <line x1="90.0" y1="364.0" x2="760.0" y2="364.0" stroke="#e5e7eb" stroke-width="1"/>
  <text x="82.0" y="364.0" text-anchor="end" dominant-baseline="middle" fill="#374151" font-size="10">1M</text>
  <line x1="90.0" y1="329.0" x2="760.0" y2="329.0" stroke="#e5e7eb" stroke-width="1"/>
  <text x="82.0" y="329.0" text-anchor="end" dominant-baseline="middle" fill="#374151" font-size="10">2M</text>
  <line x1="90.0" y1="294.0" x2="760.0" y2="294.0" stroke="#e5e7eb" stroke-width="1"/>
  <text x="82.0" y="294.0" text-anchor="end" dominant-baseline="middle" fill="#374151" font-size="10">3M</text>
  <line x1="90.0" y1="259.0" x2="760.0" y2="259.0" stroke="#e5e7eb" stroke-width="1"/>
  <text x="82.0" y="259.0" text-anchor="end" dominant-baseline="middle" fill="#374151" font-size="10">4M</text>
  <line x1="90.0" y1="224.0" x2="760.0" y2="224.0" stroke="#e5e7eb" stroke-width="1"/>
  <text x="82.0" y="224.0" text-anchor="end" dominant-baseline="middle" fill="#374151" font-size="10">5M</text>
  <line x1="90.0" y1="189.0" x2="760.0" y2="189.0" stroke="#e5e7eb" stroke-width="1"/>
  <text x="82.0" y="189.0" text-anchor="end" dominant-baseline="middle" fill="#374151" font-size="10">6M</text>
  <line x1="90.0" y1="154.0" x2="760.0" y2="154.0" stroke="#e5e7eb" stroke-width="1"/>
  <text x="82.0" y="154.0" text-anchor="end" dominant-baseline="middle" fill="#374151" font-size="10">7M</text>
  <line x1="90.0" y1="119.0" x2="760.0" y2="119.0" stroke="#e5e7eb" stroke-width="1"/>
  <text x="82.0" y="119.0" text-anchor="end" dominant-baseline="middle" fill="#374151" font-size="10">8M</text>
  <line x1="90.0" y1="84.0" x2="760.0" y2="84.0" stroke="#e5e7eb" stroke-width="1"/>
  <text x="82.0" y="84.0" text-anchor="end" dominant-baseline="middle" fill="#374151" font-size="10">9M</text>
  <line x1="90.0" y1="49.0" x2="760.0" y2="49.0" stroke="#e5e7eb" stroke-width="1"/>
  <text x="82.0" y="49.0" text-anchor="end" dominant-baseline="middle" fill="#374151" font-size="10">10M</text>
  <line x1="90.0" y1="399.0" x2="760.0" y2="399.0" stroke="#e5e7eb" stroke-width="1" stroke-dasharray="3,6"/>
  <text x="768.0" y="399.0" text-anchor="start" dominant-baseline="middle" fill="#6b7280" font-size="10">0.001 GB/s</text>
  <line x1="90.0" y1="381.4" x2="760.0" y2="381.4" stroke="#e5e7eb" stroke-width="1" stroke-dasharray="2,8"/>
  <line x1="90.0" y1="358.2" x2="760.0" y2="358.2" stroke="#e5e7eb" stroke-width="1" stroke-dasharray="2,8"/>
  <line x1="90.0" y1="340.7" x2="760.0" y2="340.7" stroke="#e5e7eb" stroke-width="1" stroke-dasharray="3,6"/>
  <text x="768.0" y="340.7" text-anchor="start" dominant-baseline="middle" fill="#6b7280" font-size="10">0.01 GB/s</text>
  <line x1="90.0" y1="323.1" x2="760.0" y2="323.1" stroke="#e5e7eb" stroke-width="1" stroke-dasharray="2,8"/>
  <line x1="90.0" y1="299.9" x2="760.0" y2="299.9" stroke="#e5e7eb" stroke-width="1" stroke-dasharray="2,8"/>
  <line x1="90.0" y1="282.3" x2="760.0" y2="282.3" stroke="#e5e7eb" stroke-width="1" stroke-dasharray="3,6"/>
  <text x="768.0" y="282.3" text-anchor="start" dominant-baseline="middle" fill="#6b7280" font-size="10">0.1 GB/s</text>
  <line x1="90.0" y1="264.8" x2="760.0" y2="264.8" stroke="#e5e7eb" stroke-width="1" stroke-dasharray="2,8"/>
  <line x1="90.0" y1="241.6" x2="760.0" y2="241.6" stroke="#e5e7eb" stroke-width="1" stroke-dasharray="2,8"/>
  <line x1="90.0" y1="224.0" x2="760.0" y2="224.0" stroke="#e5e7eb" stroke-width="1" stroke-dasharray="3,6"/>
  <text x="768.0" y="224.0" text-anchor="start" dominant-baseline="middle" fill="#6b7280" font-size="10">1 GB/s</text>
  <line x1="90.0" y1="206.4" x2="760.0" y2="206.4" stroke="#e5e7eb" stroke-width="1" stroke-dasharray="2,8"/>
  <line x1="90.0" y1="183.2" x2="760.0" y2="183.2" stroke="#e5e7eb" stroke-width="1" stroke-dasharray="2,8"/>
  <line x1="90.0" y1="165.7" x2="760.0" y2="165.7" stroke="#e5e7eb" stroke-width="1" stroke-dasharray="3,6"/>
  <text x="768.0" y="165.7" text-anchor="start" dominant-baseline="middle" fill="#6b7280" font-size="10">10 GB/s</text>
  <line x1="90.0" y1="148.1" x2="760.0" y2="148.1" stroke="#e5e7eb" stroke-width="1" stroke-dasharray="2,8"/>
  <line x1="90.0" y1="124.9" x2="760.0" y2="124.9" stroke="#e5e7eb" stroke-width="1" stroke-dasharray="2,8"/>
  <line x1="90.0" y1="107.3" x2="760.0" y2="107.3" stroke="#e5e7eb" stroke-width="1" stroke-dasharray="3,6"/>
  <text x="768.0" y="107.3" text-anchor="start" dominant-baseline="middle" fill="#6b7280" font-size="10">100 GB/s</text>
  <line x1="90.0" y1="89.8" x2="760.0" y2="89.8" stroke="#e5e7eb" stroke-width="1" stroke-dasharray="2,8"/>
  <line x1="90.0" y1="66.6" x2="760.0" y2="66.6" stroke="#e5e7eb" stroke-width="1" stroke-dasharray="2,8"/>
  <line x1="90.0" y1="49.0" x2="760.0" y2="49.0" stroke="#e5e7eb" stroke-width="1" stroke-dasharray="3,6"/>
  <text x="768.0" y="49.0" text-anchor="start" dominant-baseline="middle" fill="#6b7280" font-size="10">1000 GB/s</text>
  <line x1="90.0" y1="49.0" x2="90.0" y2="399.0" stroke="#e5e7eb" stroke-width="1"/>
  <line x1="145.8" y1="49.0" x2="145.8" y2="399.0" stroke="#e5e7eb" stroke-width="1"/>
  <line x1="201.7" y1="49.0" x2="201.7" y2="399.0" stroke="#e5e7eb" stroke-width="1"/>
  <line x1="257.5" y1="49.0" x2="257.5" y2="399.0" stroke="#e5e7eb" stroke-width="1"/>
  <line x1="313.3" y1="49.0" x2="313.3" y2="399.0" stroke="#e5e7eb" stroke-width="1"/>
  <line x1="369.2" y1="49.0" x2="369.2" y2="399.0" stroke="#e5e7eb" stroke-width="1"/>
  <line x1="425.0" y1="49.0" x2="425.0" y2="399.0" stroke="#e5e7eb" stroke-width="1"/>
  <line x1="480.8" y1="49.0" x2="480.8" y2="399.0" stroke="#e5e7eb" stroke-width="1"/>
  <line x1="536.7" y1="49.0" x2="536.7" y2="399.0" stroke="#e5e7eb" stroke-width="1"/>
  <line x1="592.5" y1="49.0" x2="592.5" y2="399.0" stroke="#e5e7eb" stroke-width="1"/>
  <line x1="648.3" y1="49.0" x2="648.3" y2="399.0" stroke="#e5e7eb" stroke-width="1"/>
  <line x1="704.2" y1="49.0" x2="704.2" y2="399.0" stroke="#e5e7eb" stroke-width="1"/>
  <line x1="760.0" y1="49.0" x2="760.0" y2="399.0" stroke="#e5e7eb" stroke-width="1"/>
  <line x1="90.0" y1="49.0" x2="90.0" y2="399.0" stroke="#9ca3af" stroke-width="1.5"/>
  <line x1="760.0" y1="49.0" x2="760.0" y2="399.0" stroke="#9ca3af" stroke-width="1.5"/>
  <line x1="90.0" y1="399.0" x2="760.0" y2="399.0" stroke="#9ca3af" stroke-width="1.5"/>
  <text x="40.0" y="224.0" text-anchor="middle" fill="#374151" font-size="10" font-weight="600" transform="rotate(-90,40.0,224.0)">msg/s</text>
  <polyline points="90.0,364.8 145.8,364.0 201.7,364.4 257.5,364.4 313.3,364.7 369.2,364.7 425.0,366.2 480.8,364.4 536.7,364.5 592.5,364.5 648.3,364.5 704.2,364.5 760.0,364.3" fill="none" stroke="#10b981" stroke-width="2" stroke-dasharray="6,4"/>
  <polyline points="90.0,98.6 145.8,90.2 201.7,94.5 257.5,225.4 313.3,319.8 369.2,320.1 425.0,324.0 480.8,338.6 536.7,345.7 592.5,348.3 648.3,354.6 704.2,363.8 760.0,377.5" fill="none" stroke="#eab308" stroke-width="2" stroke-dasharray="6,4"/>
  <polyline points="90.0,248.2 145.8,241.0 201.7,230.9 257.5,231.9 313.3,223.6 369.2,231.0 425.0,228.5 480.8,258.9 536.7,293.7 592.5,294.0 648.3,310.8 704.2,358.9 760.0,385.3" fill="none" stroke="#06b6d4" stroke-width="2" stroke-dasharray="6,4"/>
  <polyline points="90.0,306.4 145.8,311.9 201.7,307.0 257.5,295.7 313.3,281.4 369.2,288.8 425.0,280.1 480.8,281.5 536.7,284.0 592.5,291.4 648.3,289.6 704.2,275.6 760.0,281.3" fill="none" stroke="#f97316" stroke-width="2" stroke-dasharray="6,4"/>
  <polyline points="90.0,239.0 145.8,246.8 201.7,234.3 257.5,243.7 313.3,249.2 369.2,242.0 425.0,246.8 480.8,247.4 536.7,236.0 592.5,244.6 648.3,244.8 704.2,243.4 760.0,238.3" fill="none" stroke="#8b5cf6" stroke-width="2" stroke-dasharray="6,4"/>
  <polyline points="90.0,277.1 145.8,273.4 201.7,250.9 257.5,222.5 313.3,185.8 369.2,209.2 425.0,200.2 480.8,200.3 536.7,178.5 592.5,187.0 648.3,180.2 704.2,187.3 760.0,187.4" fill="none" stroke="#dc2626" stroke-width="2" stroke-dasharray="6,4"/>
  <polyline points="90.0,347.0 145.8,328.8 201.7,311.5 257.5,294.0 313.3,276.6 369.2,259.1 425.0,242.6 480.8,223.7 536.7,206.2 592.5,188.6 648.3,171.1 704.2,153.6 760.0,135.8" fill="none" stroke="#10b981" stroke-width="2.5" stroke-linecap="round" stroke-linejoin="round"/>
  <circle cx="90.0" cy="347.0" r="3" fill="#10b981" stroke="white" stroke-width="1"/>
  <circle cx="145.8" cy="328.8" r="3" fill="#10b981" stroke="white" stroke-width="1"/>
  <circle cx="201.7" cy="311.5" r="3" fill="#10b981" stroke="white" stroke-width="1"/>
  <circle cx="257.5" cy="294.0" r="3" fill="#10b981" stroke="white" stroke-width="1"/>
  <circle cx="313.3" cy="276.6" r="3" fill="#10b981" stroke="white" stroke-width="1"/>
  <circle cx="369.2" cy="259.1" r="3" fill="#10b981" stroke="white" stroke-width="1"/>
  <circle cx="425.0" cy="242.6" r="3" fill="#10b981" stroke="white" stroke-width="1"/>
  <circle cx="480.8" cy="223.7" r="3" fill="#10b981" stroke="white" stroke-width="1"/>
  <circle cx="536.7" cy="206.2" r="3" fill="#10b981" stroke="white" stroke-width="1"/>
  <circle cx="592.5" cy="188.6" r="3" fill="#10b981" stroke="white" stroke-width="1"/>
  <circle cx="648.3" cy="171.1" r="3" fill="#10b981" stroke="white" stroke-width="1"/>
  <circle cx="704.2" cy="153.6" r="3" fill="#10b981" stroke="white" stroke-width="1"/>
  <circle cx="760.0" cy="135.8" r="3" fill="#10b981" stroke="white" stroke-width="1"/>
  <polyline points="90.0,291.8 145.8,273.6 201.7,256.4 257.5,253.1 313.3,255.4 369.2,237.9 425.0,221.6 480.8,209.6 536.7,195.2 592.5,178.9 648.3,164.7 704.2,153.0 760.0,147.9" fill="none" stroke="#eab308" stroke-width="2.5" stroke-linecap="round" stroke-linejoin="round"/>
  <circle cx="90.0" cy="291.8" r="3" fill="#eab308" stroke="white" stroke-width="1"/>
  <circle cx="145.8" cy="273.6" r="3" fill="#eab308" stroke="white" stroke-width="1"/>
  <circle cx="201.7" cy="256.4" r="3" fill="#eab308" stroke="white" stroke-width="1"/>
  <circle cx="257.5" cy="253.1" r="3" fill="#eab308" stroke="white" stroke-width="1"/>
  <circle cx="313.3" cy="255.4" r="3" fill="#eab308" stroke="white" stroke-width="1"/>
  <circle cx="369.2" cy="237.9" r="3" fill="#eab308" stroke="white" stroke-width="1"/>
  <circle cx="425.0" cy="221.6" r="3" fill="#eab308" stroke="white" stroke-width="1"/>
  <circle cx="480.8" cy="209.6" r="3" fill="#eab308" stroke="white" stroke-width="1"/>
  <circle cx="536.7" cy="195.2" r="3" fill="#eab308" stroke="white" stroke-width="1"/>
  <circle cx="592.5" cy="178.9" r="3" fill="#eab308" stroke="white" stroke-width="1"/>
  <circle cx="648.3" cy="164.7" r="3" fill="#eab308" stroke="white" stroke-width="1"/>
  <circle cx="704.2" cy="153.0" r="3" fill="#eab308" stroke="white" stroke-width="1"/>
  <circle cx="760.0" cy="147.9" r="3" fill="#eab308" stroke="white" stroke-width="1"/>
  <polyline points="90.0,309.3 145.8,290.6 201.7,271.4 257.5,254.0 313.3,235.3 369.2,218.8 425.0,200.9 480.8,188.3 536.7,177.9 592.5,160.4 648.3,147.3 704.2,149.7 760.0,159.4" fill="none" stroke="#06b6d4" stroke-width="2.5" stroke-linecap="round" stroke-linejoin="round"/>
  <circle cx="90.0" cy="309.3" r="3" fill="#06b6d4" stroke="white" stroke-width="1"/>
  <circle cx="145.8" cy="290.6" r="3" fill="#06b6d4" stroke="white" stroke-width="1"/>
  <circle cx="201.7" cy="271.4" r="3" fill="#06b6d4" stroke="white" stroke-width="1"/>
  <circle cx="257.5" cy="254.0" r="3" fill="#06b6d4" stroke="white" stroke-width="1"/>
  <circle cx="313.3" cy="235.3" r="3" fill="#06b6d4" stroke="white" stroke-width="1"/>
  <circle cx="369.2" cy="218.8" r="3" fill="#06b6d4" stroke="white" stroke-width="1"/>
  <circle cx="425.0" cy="200.9" r="3" fill="#06b6d4" stroke="white" stroke-width="1"/>
  <circle cx="480.8" cy="188.3" r="3" fill="#06b6d4" stroke="white" stroke-width="1"/>
  <circle cx="536.7" cy="177.9" r="3" fill="#06b6d4" stroke="white" stroke-width="1"/>
  <circle cx="592.5" cy="160.4" r="3" fill="#06b6d4" stroke="white" stroke-width="1"/>
  <circle cx="648.3" cy="147.3" r="3" fill="#06b6d4" stroke="white" stroke-width="1"/>
  <circle cx="704.2" cy="149.7" r="3" fill="#06b6d4" stroke="white" stroke-width="1"/>
  <circle cx="760.0" cy="159.4" r="3" fill="#06b6d4" stroke="white" stroke-width="1"/>
  <polyline points="90.0,321.6 145.8,305.7 201.7,286.7 257.5,266.2 313.3,245.4 369.2,229.5 425.0,210.0 480.8,192.7 536.7,175.7 592.5,159.8 648.3,141.8 704.2,121.2 760.0,104.9" fill="none" stroke="#f97316" stroke-width="2.5" stroke-linecap="round" stroke-linejoin="round"/>
  <circle cx="90.0" cy="321.6" r="3" fill="#f97316" stroke="white" stroke-width="1"/>
  <circle cx="145.8" cy="305.7" r="3" fill="#f97316" stroke="white" stroke-width="1"/>
  <circle cx="201.7" cy="286.7" r="3" fill="#f97316" stroke="white" stroke-width="1"/>
  <circle cx="257.5" cy="266.2" r="3" fill="#f97316" stroke="white" stroke-width="1"/>
  <circle cx="313.3" cy="245.4" r="3" fill="#f97316" stroke="white" stroke-width="1"/>
  <circle cx="369.2" cy="229.5" r="3" fill="#f97316" stroke="white" stroke-width="1"/>
  <circle cx="425.0" cy="210.0" r="3" fill="#f97316" stroke="white" stroke-width="1"/>
  <circle cx="480.8" cy="192.7" r="3" fill="#f97316" stroke="white" stroke-width="1"/>
  <circle cx="536.7" cy="175.7" r="3" fill="#f97316" stroke="white" stroke-width="1"/>
  <circle cx="592.5" cy="159.8" r="3" fill="#f97316" stroke="white" stroke-width="1"/>
  <circle cx="648.3" cy="141.8" r="3" fill="#f97316" stroke="white" stroke-width="1"/>
  <circle cx="704.2" cy="121.2" r="3" fill="#f97316" stroke="white" stroke-width="1"/>
  <circle cx="760.0" cy="104.9" r="3" fill="#f97316" stroke="white" stroke-width="1"/>
  <polyline points="90.0,307.8 145.8,291.5 201.7,272.0 257.5,255.9 313.3,239.3 369.2,220.5 425.0,203.7 480.8,186.3 536.7,166.9 592.5,150.7 648.3,133.1 704.2,115.4 760.0,97.0" fill="none" stroke="#8b5cf6" stroke-width="2.5" stroke-linecap="round" stroke-linejoin="round"/>
  <circle cx="90.0" cy="307.8" r="3" fill="#8b5cf6" stroke="white" stroke-width="1"/>
  <circle cx="145.8" cy="291.5" r="3" fill="#8b5cf6" stroke="white" stroke-width="1"/>
  <circle cx="201.7" cy="272.0" r="3" fill="#8b5cf6" stroke="white" stroke-width="1"/>
  <circle cx="257.5" cy="255.9" r="3" fill="#8b5cf6" stroke="white" stroke-width="1"/>
  <circle cx="313.3" cy="239.3" r="3" fill="#8b5cf6" stroke="white" stroke-width="1"/>
  <circle cx="369.2" cy="220.5" r="3" fill="#8b5cf6" stroke="white" stroke-width="1"/>
  <circle cx="425.0" cy="203.7" r="3" fill="#8b5cf6" stroke="white" stroke-width="1"/>
  <circle cx="480.8" cy="186.3" r="3" fill="#8b5cf6" stroke="white" stroke-width="1"/>
  <circle cx="536.7" cy="166.9" r="3" fill="#8b5cf6" stroke="white" stroke-width="1"/>
  <circle cx="592.5" cy="150.7" r="3" fill="#8b5cf6" stroke="white" stroke-width="1"/>
  <circle cx="648.3" cy="133.1" r="3" fill="#8b5cf6" stroke="white" stroke-width="1"/>
  <circle cx="704.2" cy="115.4" r="3" fill="#8b5cf6" stroke="white" stroke-width="1"/>
  <circle cx="760.0" cy="97.0" r="3" fill="#8b5cf6" stroke="white" stroke-width="1"/>
  <polyline points="90.0,314.7 145.8,296.4 201.7,274.6 257.5,252.7 313.3,230.3 369.2,215.7 425.0,197.0 480.8,179.4 536.7,159.2 592.5,142.7 648.3,124.3 704.2,107.6 760.0,90.0" fill="none" stroke="#dc2626" stroke-width="2.5" stroke-linecap="round" stroke-linejoin="round"/>
  <circle cx="90.0" cy="314.7" r="3" fill="#dc2626" stroke="white" stroke-width="1"/>
  <circle cx="145.8" cy="296.4" r="3" fill="#dc2626" stroke="white" stroke-width="1"/>
  <circle cx="201.7" cy="274.6" r="3" fill="#dc2626" stroke="white" stroke-width="1"/>
  <circle cx="257.5" cy="252.7" r="3" fill="#dc2626" stroke="white" stroke-width="1"/>
  <circle cx="313.3" cy="230.3" r="3" fill="#dc2626" stroke="white" stroke-width="1"/>
  <circle cx="369.2" cy="215.7" r="3" fill="#dc2626" stroke="white" stroke-width="1"/>
  <circle cx="425.0" cy="197.0" r="3" fill="#dc2626" stroke="white" stroke-width="1"/>
  <circle cx="480.8" cy="179.4" r="3" fill="#dc2626" stroke="white" stroke-width="1"/>
  <circle cx="536.7" cy="159.2" r="3" fill="#dc2626" stroke="white" stroke-width="1"/>
  <circle cx="592.5" cy="142.7" r="3" fill="#dc2626" stroke="white" stroke-width="1"/>
  <circle cx="648.3" cy="124.3" r="3" fill="#dc2626" stroke="white" stroke-width="1"/>
  <circle cx="704.2" cy="107.6" r="3" fill="#dc2626" stroke="white" stroke-width="1"/>
  <circle cx="760.0" cy="90.0" r="3" fill="#dc2626" stroke="white" stroke-width="1"/>
  <text x="90.0" y="413.0" text-anchor="middle" fill="#374151" font-size="8.5">8 B</text>
  <text x="145.8" y="413.0" text-anchor="middle" fill="#374151" font-size="8.5">16 B</text>
  <text x="201.7" y="413.0" text-anchor="middle" fill="#374151" font-size="8.5">32 B</text>
  <text x="257.5" y="413.0" text-anchor="middle" fill="#374151" font-size="8.5">64 B</text>
  <text x="313.3" y="413.0" text-anchor="middle" fill="#374151" font-size="8.5">128 B</text>
  <text x="369.2" y="413.0" text-anchor="middle" fill="#374151" font-size="8.5">256 B</text>
  <text x="425.0" y="413.0" text-anchor="middle" fill="#374151" font-size="8.5">512 B</text>
  <text x="480.8" y="413.0" text-anchor="middle" fill="#374151" font-size="8.5">1 KiB</text>
  <text x="536.7" y="413.0" text-anchor="middle" fill="#374151" font-size="8.5">2 KiB</text>
  <text x="592.5" y="413.0" text-anchor="middle" fill="#374151" font-size="8.5">4 KiB</text>
  <text x="648.3" y="413.0" text-anchor="middle" fill="#374151" font-size="8.5">8 KiB</text>
  <text x="704.2" y="413.0" text-anchor="middle" fill="#374151" font-size="8.5">16 KiB</text>
  <text x="760.0" y="413.0" text-anchor="middle" fill="#374151" font-size="8.5">32 KiB</text>
  <text x="425.0" y="46" text-anchor="middle" fill="#9ca3af" font-size="10">Intel Core i7-8700B @ 3.20GHz, 6 cores, performance governor, turbo off</text>
  <line x1="50" y1="459" x2="64" y2="459" stroke="#eab308" stroke-width="2.5"/>
  <circle cx="57" cy="459" r="2.5" fill="#eab308"/>
  <text x="70" y="463" fill="#374151" font-size="11" font-weight="500">libzmq v4.3.5</text>
  <line x1="175" y1="459" x2="189" y2="459" stroke="#dc2626" stroke-width="2.5"/>
  <circle cx="182" cy="459" r="2.5" fill="#dc2626"/>
  <text x="195" y="463" fill="#374151" font-size="11" font-weight="500">omq-compio (MT)</text>
  <line x1="300" y1="459" x2="314" y2="459" stroke="#8b5cf6" stroke-width="2.5"/>
  <circle cx="307" cy="459" r="2.5" fill="#8b5cf6"/>
  <text x="320" y="463" fill="#374151" font-size="11" font-weight="500">omq-compio (ST)</text>
  <line x1="425" y1="459" x2="439" y2="459" stroke="#f97316" stroke-width="2.5"/>
  <circle cx="432" cy="459" r="2.5" fill="#f97316"/>
  <text x="445" y="463" fill="#374151" font-size="11" font-weight="500">omq-tokio</text>
  <line x1="550" y1="459" x2="564" y2="459" stroke="#10b981" stroke-width="2.5"/>
  <circle cx="557" cy="459" r="2.5" fill="#10b981"/>
  <text x="570" y="463" fill="#374151" font-size="11" font-weight="500">rzmq v0.5.15</text>
  <line x1="675" y1="459" x2="689" y2="459" stroke="#06b6d4" stroke-width="2.5"/>
  <circle cx="682" cy="459" r="2.5" fill="#06b6d4"/>
  <text x="695" y="463" fill="#374151" font-size="11" font-weight="500">omq-libzmq</text>
  <line x1="265" y1="481" x2="285" y2="481" stroke="#6b7280" stroke-width="2" stroke-dasharray="6,4"/>
  <text x="291" y="485" fill="#6b7280" font-size="10">msg/s (left axis)</text>
  <line x1="435" y1="481" x2="455" y2="481" stroke="#6b7280" stroke-width="2"/>
  <circle cx="445" cy="481" r="2" fill="#6b7280"/>
  <text x="461" y="485" fill="#6b7280" font-size="10">throughput / GB/s (right axis, log)</text>
</svg>
