<svg xmlns="http://www.w3.org/2000/svg" viewBox="0 0 850 494" font-family="system-ui, -apple-system, sans-serif">
  <rect width="850" height="494" fill="white"/>
  <text x="425.0" y="32.0" text-anchor="middle" fill="#111827" font-size="13" font-weight="700">PUSH/PULL throughput: IPC, 2-process (higher is better)</text>
  <line x1="90.0" y1="381.5" x2="760.0" y2="381.5" stroke="#e5e7eb" stroke-width="1"/>
  <text x="82.0" y="381.5" text-anchor="end" dominant-baseline="middle" fill="#374151" font-size="10">200k</text>
  <line x1="90.0" y1="364.0" x2="760.0" y2="364.0" stroke="#e5e7eb" stroke-width="1"/>
  <text x="82.0" y="364.0" text-anchor="end" dominant-baseline="middle" fill="#374151" font-size="10">400k</text>
  <line x1="90.0" y1="346.5" x2="760.0" y2="346.5" stroke="#e5e7eb" stroke-width="1"/>
  <text x="82.0" y="346.5" text-anchor="end" dominant-baseline="middle" fill="#374151" font-size="10">600k</text>
  <line x1="90.0" y1="329.0" x2="760.0" y2="329.0" stroke="#e5e7eb" stroke-width="1"/>
  <text x="82.0" y="329.0" text-anchor="end" dominant-baseline="middle" fill="#374151" font-size="10">800k</text>
  <line x1="90.0" y1="297.7" x2="760.0" y2="297.7" stroke="#e5e7eb" stroke-width="1"/>
  <text x="82.0" y="297.7" text-anchor="end" dominant-baseline="middle" fill="#374151" font-size="10">2M</text>
  <line x1="90.0" y1="270.1" x2="760.0" y2="270.1" stroke="#e5e7eb" stroke-width="1"/>
  <text x="82.0" y="270.1" text-anchor="end" dominant-baseline="middle" fill="#374151" font-size="10">4M</text>
  <line x1="90.0" y1="242.4" x2="760.0" y2="242.4" stroke="#e5e7eb" stroke-width="1"/>
  <text x="82.0" y="242.4" text-anchor="end" dominant-baseline="middle" fill="#374151" font-size="10">6M</text>
  <line x1="90.0" y1="214.8" x2="760.0" y2="214.8" stroke="#e5e7eb" stroke-width="1"/>
  <text x="82.0" y="214.8" text-anchor="end" dominant-baseline="middle" fill="#374151" font-size="10">8M</text>
  <line x1="90.0" y1="187.2" x2="760.0" y2="187.2" stroke="#e5e7eb" stroke-width="1"/>
  <text x="82.0" y="187.2" text-anchor="end" dominant-baseline="middle" fill="#374151" font-size="10">10M</text>
  <line x1="90.0" y1="159.5" x2="760.0" y2="159.5" stroke="#e5e7eb" stroke-width="1"/>
  <text x="82.0" y="159.5" text-anchor="end" dominant-baseline="middle" fill="#374151" font-size="10">12M</text>
  <line x1="90.0" y1="131.9" x2="760.0" y2="131.9" stroke="#e5e7eb" stroke-width="1"/>
  <text x="82.0" y="131.9" text-anchor="end" dominant-baseline="middle" fill="#374151" font-size="10">14M</text>
  <line x1="90.0" y1="104.3" x2="760.0" y2="104.3" stroke="#e5e7eb" stroke-width="1"/>
  <text x="82.0" y="104.3" text-anchor="end" dominant-baseline="middle" fill="#374151" font-size="10">16M</text>
  <line x1="90.0" y1="76.6" x2="760.0" y2="76.6" stroke="#e5e7eb" stroke-width="1"/>
  <text x="82.0" y="76.6" text-anchor="end" dominant-baseline="middle" fill="#374151" font-size="10">18M</text>
  <line x1="90.0" y1="49.0" x2="760.0" y2="49.0" stroke="#e5e7eb" stroke-width="1"/>
  <text x="82.0" y="49.0" text-anchor="end" dominant-baseline="middle" fill="#374151" font-size="10">20M</text>
  <line x1="90.0" y1="340.7" x2="760.0" y2="340.7" stroke="#e5e7eb" stroke-width="1" stroke-dasharray="3,6"/>
  <text x="768.0" y="340.7" text-anchor="start" dominant-baseline="middle" fill="#6b7280" font-size="10">1 GB/s</text>
  <line x1="90.0" y1="282.3" x2="760.0" y2="282.3" stroke="#e5e7eb" stroke-width="1" stroke-dasharray="3,6"/>
  <text x="768.0" y="282.3" text-anchor="start" dominant-baseline="middle" fill="#6b7280" font-size="10">2 GB/s</text>
  <line x1="90.0" y1="224.0" x2="760.0" y2="224.0" stroke="#e5e7eb" stroke-width="1" stroke-dasharray="3,6"/>
  <text x="768.0" y="224.0" text-anchor="start" dominant-baseline="middle" fill="#6b7280" font-size="10">3 GB/s</text>
  <line x1="90.0" y1="165.7" x2="760.0" y2="165.7" stroke="#e5e7eb" stroke-width="1" stroke-dasharray="3,6"/>
  <text x="768.0" y="165.7" text-anchor="start" dominant-baseline="middle" fill="#6b7280" font-size="10">4 GB/s</text>
  <line x1="90.0" y1="107.3" x2="760.0" y2="107.3" stroke="#e5e7eb" stroke-width="1" stroke-dasharray="3,6"/>
  <text x="768.0" y="107.3" text-anchor="start" dominant-baseline="middle" fill="#6b7280" font-size="10">5 GB/s</text>
  <line x1="90.0" y1="49.0" x2="760.0" y2="49.0" stroke="#e5e7eb" stroke-width="1" stroke-dasharray="3,6"/>
  <text x="768.0" y="49.0" text-anchor="start" dominant-baseline="middle" fill="#6b7280" font-size="10">6 GB/s</text>
  <line x1="90.0" y1="49.0" x2="90.0" y2="399.0" stroke="#e5e7eb" stroke-width="1"/>
  <line x1="145.8" y1="49.0" x2="145.8" y2="399.0" stroke="#e5e7eb" stroke-width="1"/>
  <line x1="201.7" y1="49.0" x2="201.7" y2="399.0" stroke="#e5e7eb" stroke-width="1"/>
  <line x1="257.5" y1="49.0" x2="257.5" y2="399.0" stroke="#e5e7eb" stroke-width="1"/>
  <line x1="313.3" y1="49.0" x2="313.3" y2="399.0" stroke="#e5e7eb" stroke-width="1"/>
  <line x1="369.2" y1="49.0" x2="369.2" y2="399.0" stroke="#e5e7eb" stroke-width="1"/>
  <line x1="425.0" y1="49.0" x2="425.0" y2="399.0" stroke="#e5e7eb" stroke-width="1"/>
  <line x1="480.8" y1="49.0" x2="480.8" y2="399.0" stroke="#e5e7eb" stroke-width="1"/>
  <line x1="536.7" y1="49.0" x2="536.7" y2="399.0" stroke="#e5e7eb" stroke-width="1"/>
  <line x1="592.5" y1="49.0" x2="592.5" y2="399.0" stroke="#e5e7eb" stroke-width="1"/>
  <line x1="648.3" y1="49.0" x2="648.3" y2="399.0" stroke="#e5e7eb" stroke-width="1"/>
  <line x1="704.2" y1="49.0" x2="704.2" y2="399.0" stroke="#e5e7eb" stroke-width="1"/>
  <line x1="760.0" y1="49.0" x2="760.0" y2="399.0" stroke="#e5e7eb" stroke-width="1"/>
  <line x1="90.0" y1="49.0" x2="90.0" y2="399.0" stroke="#9ca3af" stroke-width="1.5"/>
  <line x1="760.0" y1="49.0" x2="760.0" y2="399.0" stroke="#9ca3af" stroke-width="1.5"/>
  <line x1="90.0" y1="399.0" x2="760.0" y2="399.0" stroke="#9ca3af" stroke-width="1.5"/>
  <rect x="89.0" y="305.5" width="3" height="12" fill="white"/>
  <path d="M 85.0,317.5 L 95.0,312.5 M 85.0,310.5 L 95.0,305.5" stroke="#9ca3af" stroke-width="1.5" fill="none"/>
  <text x="40.0" y="224.0" text-anchor="middle" fill="#374151" font-size="10" font-weight="600" transform="rotate(-90,40.0,224.0)">msg/s</text>
  <polyline points="90.0,369.3 145.8,368.7 201.7,368.1 257.5,368.7 313.3,369.7 369.2,369.4 425.0,368.9 480.8,372.0 536.7,373.3 592.5,377.7 648.3,385.4 704.2,386.9 760.0,390.7" fill="none" stroke="#10b981" stroke-width="2" stroke-dasharray="6,4"/>
  <polyline points="90.0,351.7 145.8,349.7 201.7,352.3 257.5,351.0 313.3,350.6 369.2,352.5 425.0,352.8 480.8,355.1 536.7,358.8 592.5,368.1 648.3,375.0 704.2,383.7 760.0,390.3" fill="none" stroke="#2563eb" stroke-width="2" stroke-dasharray="6,4"/>
  <polyline points="90.0,228.6 145.8,227.1 201.7,229.2 257.5,262.9 313.3,293.8 369.2,294.7 425.0,299.7 480.8,310.6 536.7,345.0 592.5,369.9 648.3,382.1 704.2,389.7 760.0,391.4" fill="none" stroke="#eab308" stroke-width="2" stroke-dasharray="6,4"/>
  <polyline points="90.0,264.6 145.8,259.9 201.7,255.5 257.5,254.3 313.3,299.5 369.2,302.1 425.0,304.0 480.8,308.2 536.7,332.8 592.5,352.1 648.3,366.9 704.2,381.5 760.0,390.6" fill="none" stroke="#06b6d4" stroke-width="2" stroke-dasharray="6,4"/>
  <polyline points="90.0,250.9 145.8,255.3 201.7,252.2 257.5,257.5 313.3,258.4 369.2,264.4 425.0,273.0 480.8,286.9 536.7,304.9 592.5,321.7 648.3,356.4 704.2,376.0 760.0,387.7" fill="none" stroke="#f97316" stroke-width="2" stroke-dasharray="6,4"/>
  <polyline points="90.0,104.4 145.8,118.2 201.7,149.7 257.5,204.3 313.3,232.5 369.2,259.3 425.0,277.2 480.8,292.8 536.7,303.0 592.5,315.4 648.3,353.3 704.2,375.1 760.0,387.8" fill="none" stroke="#dc2626" stroke-width="2" stroke-dasharray="6,4"/>
  <polyline points="90.0,398.8 145.8,398.7 201.7,398.3 257.5,397.7 313.3,396.5 369.2,393.9 425.0,388.7 480.8,380.6 536.7,363.9 592.5,340.8 648.3,324.8 704.2,267.0 760.0,218.6" fill="none" stroke="#10b981" stroke-width="2.5" stroke-linecap="round" stroke-linejoin="round"/>
  <circle cx="90.0" cy="398.8" r="3" fill="#10b981" stroke="white" stroke-width="1"/>
  <circle cx="145.8" cy="398.7" r="3" fill="#10b981" stroke="white" stroke-width="1"/>
  <circle cx="201.7" cy="398.3" r="3" fill="#10b981" stroke="white" stroke-width="1"/>
  <circle cx="257.5" cy="397.7" r="3" fill="#10b981" stroke="white" stroke-width="1"/>
  <circle cx="313.3" cy="396.5" r="3" fill="#10b981" stroke="white" stroke-width="1"/>
  <circle cx="369.2" cy="393.9" r="3" fill="#10b981" stroke="white" stroke-width="1"/>
  <circle cx="425.0" cy="388.7" r="3" fill="#10b981" stroke="white" stroke-width="1"/>
  <circle cx="480.8" cy="380.6" r="3" fill="#10b981" stroke="white" stroke-width="1"/>
  <circle cx="536.7" cy="363.9" r="3" fill="#10b981" stroke="white" stroke-width="1"/>
  <circle cx="592.5" cy="340.8" r="3" fill="#10b981" stroke="white" stroke-width="1"/>
  <circle cx="648.3" cy="324.8" r="3" fill="#10b981" stroke="white" stroke-width="1"/>
  <circle cx="704.2" cy="267.0" r="3" fill="#10b981" stroke="white" stroke-width="1"/>
  <circle cx="760.0" cy="218.6" r="3" fill="#10b981" stroke="white" stroke-width="1"/>
  <polyline points="90.0,398.7 145.8,398.5 201.7,398.0 257.5,397.0 313.3,394.9 369.2,391.1 425.0,383.2 480.8,369.1 536.7,344.1 592.5,314.7 648.3,268.0 704.2,232.3 760.0,208.0" fill="none" stroke="#2563eb" stroke-width="2.5" stroke-linecap="round" stroke-linejoin="round"/>
  <circle cx="90.0" cy="398.7" r="3" fill="#2563eb" stroke="white" stroke-width="1"/>
  <circle cx="145.8" cy="398.5" r="3" fill="#2563eb" stroke="white" stroke-width="1"/>
  <circle cx="201.7" cy="398.0" r="3" fill="#2563eb" stroke="white" stroke-width="1"/>
  <circle cx="257.5" cy="397.0" r="3" fill="#2563eb" stroke="white" stroke-width="1"/>
  <circle cx="313.3" cy="394.9" r="3" fill="#2563eb" stroke="white" stroke-width="1"/>
  <circle cx="369.2" cy="391.1" r="3" fill="#2563eb" stroke="white" stroke-width="1"/>
  <circle cx="425.0" cy="383.2" r="3" fill="#2563eb" stroke="white" stroke-width="1"/>
  <circle cx="480.8" cy="369.1" r="3" fill="#2563eb" stroke="white" stroke-width="1"/>
  <circle cx="536.7" cy="344.1" r="3" fill="#2563eb" stroke="white" stroke-width="1"/>
  <circle cx="592.5" cy="314.7" r="3" fill="#2563eb" stroke="white" stroke-width="1"/>
  <circle cx="648.3" cy="268.0" r="3" fill="#2563eb" stroke="white" stroke-width="1"/>
  <circle cx="704.2" cy="232.3" r="3" fill="#2563eb" stroke="white" stroke-width="1"/>
  <circle cx="760.0" cy="208.0" r="3" fill="#2563eb" stroke="white" stroke-width="1"/>
  <polyline points="90.0,395.7 145.8,392.4 201.7,386.0 257.5,382.1 313.3,382.0 369.2,365.9 425.0,343.5 480.8,335.4 536.7,325.2 592.5,319.6 648.3,306.7 704.2,297.2 760.0,233.8" fill="none" stroke="#eab308" stroke-width="2.5" stroke-linecap="round" stroke-linejoin="round"/>
  <circle cx="90.0" cy="395.7" r="3" fill="#eab308" stroke="white" stroke-width="1"/>
  <circle cx="145.8" cy="392.4" r="3" fill="#eab308" stroke="white" stroke-width="1"/>
  <circle cx="201.7" cy="386.0" r="3" fill="#eab308" stroke="white" stroke-width="1"/>
  <circle cx="257.5" cy="382.1" r="3" fill="#eab308" stroke="white" stroke-width="1"/>
  <circle cx="313.3" cy="382.0" r="3" fill="#eab308" stroke="white" stroke-width="1"/>
  <circle cx="369.2" cy="365.9" r="3" fill="#eab308" stroke="white" stroke-width="1"/>
  <circle cx="425.0" cy="343.5" r="3" fill="#eab308" stroke="white" stroke-width="1"/>
  <circle cx="480.8" cy="335.4" r="3" fill="#eab308" stroke="white" stroke-width="1"/>
  <circle cx="536.7" cy="325.2" r="3" fill="#eab308" stroke="white" stroke-width="1"/>
  <circle cx="592.5" cy="319.6" r="3" fill="#eab308" stroke="white" stroke-width="1"/>
  <circle cx="648.3" cy="306.7" r="3" fill="#eab308" stroke="white" stroke-width="1"/>
  <circle cx="704.2" cy="297.2" r="3" fill="#eab308" stroke="white" stroke-width="1"/>
  <circle cx="760.0" cy="233.8" r="3" fill="#eab308" stroke="white" stroke-width="1"/>
  <polyline points="90.0,396.9 145.8,394.6 201.7,389.6 257.5,379.8 313.3,385.1 369.2,373.9 425.0,352.8 480.8,325.2 536.7,308.7 592.5,270.8 648.3,223.4 704.2,208.2 760.0,216.5" fill="none" stroke="#06b6d4" stroke-width="2.5" stroke-linecap="round" stroke-linejoin="round"/>
  <circle cx="90.0" cy="396.9" r="3" fill="#06b6d4" stroke="white" stroke-width="1"/>
  <circle cx="145.8" cy="394.6" r="3" fill="#06b6d4" stroke="white" stroke-width="1"/>
  <circle cx="201.7" cy="389.6" r="3" fill="#06b6d4" stroke="white" stroke-width="1"/>
  <circle cx="257.5" cy="379.8" r="3" fill="#06b6d4" stroke="white" stroke-width="1"/>
  <circle cx="313.3" cy="385.1" r="3" fill="#06b6d4" stroke="white" stroke-width="1"/>
  <circle cx="369.2" cy="373.9" r="3" fill="#06b6d4" stroke="white" stroke-width="1"/>
  <circle cx="425.0" cy="352.8" r="3" fill="#06b6d4" stroke="white" stroke-width="1"/>
  <circle cx="480.8" cy="325.2" r="3" fill="#06b6d4" stroke="white" stroke-width="1"/>
  <circle cx="536.7" cy="308.7" r="3" fill="#06b6d4" stroke="white" stroke-width="1"/>
  <circle cx="592.5" cy="270.8" r="3" fill="#06b6d4" stroke="white" stroke-width="1"/>
  <circle cx="648.3" cy="223.4" r="3" fill="#06b6d4" stroke="white" stroke-width="1"/>
  <circle cx="704.2" cy="208.2" r="3" fill="#06b6d4" stroke="white" stroke-width="1"/>
  <circle cx="760.0" cy="216.5" r="3" fill="#06b6d4" stroke="white" stroke-width="1"/>
  <polyline points="90.0,396.5 145.8,394.3 201.7,389.1 257.5,380.7 313.3,362.9 369.2,333.1 425.0,285.8 480.8,232.9 536.7,222.2 592.5,187.8 648.3,166.3 704.2,148.1 760.0,152.8" fill="none" stroke="#f97316" stroke-width="2.5" stroke-linecap="round" stroke-linejoin="round"/>
  <circle cx="90.0" cy="396.5" r="3" fill="#f97316" stroke="white" stroke-width="1"/>
  <circle cx="145.8" cy="394.3" r="3" fill="#f97316" stroke="white" stroke-width="1"/>
  <circle cx="201.7" cy="389.1" r="3" fill="#f97316" stroke="white" stroke-width="1"/>
  <circle cx="257.5" cy="380.7" r="3" fill="#f97316" stroke="white" stroke-width="1"/>
  <circle cx="313.3" cy="362.9" r="3" fill="#f97316" stroke="white" stroke-width="1"/>
  <circle cx="369.2" cy="333.1" r="3" fill="#f97316" stroke="white" stroke-width="1"/>
  <circle cx="425.0" cy="285.8" r="3" fill="#f97316" stroke="white" stroke-width="1"/>
  <circle cx="480.8" cy="232.9" r="3" fill="#f97316" stroke="white" stroke-width="1"/>
  <circle cx="536.7" cy="222.2" r="3" fill="#f97316" stroke="white" stroke-width="1"/>
  <circle cx="592.5" cy="187.8" r="3" fill="#f97316" stroke="white" stroke-width="1"/>
  <circle cx="648.3" cy="166.3" r="3" fill="#f97316" stroke="white" stroke-width="1"/>
  <circle cx="704.2" cy="148.1" r="3" fill="#f97316" stroke="white" stroke-width="1"/>
  <circle cx="760.0" cy="152.8" r="3" fill="#f97316" stroke="white" stroke-width="1"/>
  <polyline points="90.0,391.5 145.8,385.0 201.7,375.3 257.5,366.3 313.3,348.8 369.2,327.6 425.0,294.9 480.8,258.5 536.7,205.6 592.5,170.6 648.3,149.4 704.2,138.1 760.0,155.0" fill="none" stroke="#dc2626" stroke-width="2.5" stroke-linecap="round" stroke-linejoin="round"/>
  <circle cx="90.0" cy="391.5" r="3" fill="#dc2626" stroke="white" stroke-width="1"/>
  <circle cx="145.8" cy="385.0" r="3" fill="#dc2626" stroke="white" stroke-width="1"/>
  <circle cx="201.7" cy="375.3" r="3" fill="#dc2626" stroke="white" stroke-width="1"/>
  <circle cx="257.5" cy="366.3" r="3" fill="#dc2626" stroke="white" stroke-width="1"/>
  <circle cx="313.3" cy="348.8" r="3" fill="#dc2626" stroke="white" stroke-width="1"/>
  <circle cx="369.2" cy="327.6" r="3" fill="#dc2626" stroke="white" stroke-width="1"/>
  <circle cx="425.0" cy="294.9" r="3" fill="#dc2626" stroke="white" stroke-width="1"/>
  <circle cx="480.8" cy="258.5" r="3" fill="#dc2626" stroke="white" stroke-width="1"/>
  <circle cx="536.7" cy="205.6" r="3" fill="#dc2626" stroke="white" stroke-width="1"/>
  <circle cx="592.5" cy="170.6" r="3" fill="#dc2626" stroke="white" stroke-width="1"/>
  <circle cx="648.3" cy="149.4" r="3" fill="#dc2626" stroke="white" stroke-width="1"/>
  <circle cx="704.2" cy="138.1" r="3" fill="#dc2626" stroke="white" stroke-width="1"/>
  <circle cx="760.0" cy="155.0" r="3" fill="#dc2626" stroke="white" stroke-width="1"/>
  <text x="90.0" y="413.0" text-anchor="middle" fill="#374151" font-size="8.5">8 B</text>
  <text x="145.8" y="413.0" text-anchor="middle" fill="#374151" font-size="8.5">16 B</text>
  <text x="201.7" y="413.0" text-anchor="middle" fill="#374151" font-size="8.5">32 B</text>
  <text x="257.5" y="413.0" text-anchor="middle" fill="#374151" font-size="8.5">64 B</text>
  <text x="313.3" y="413.0" text-anchor="middle" fill="#374151" font-size="8.5">128 B</text>
  <text x="369.2" y="413.0" text-anchor="middle" fill="#374151" font-size="8.5">256 B</text>
  <text x="425.0" y="413.0" text-anchor="middle" fill="#374151" font-size="8.5">512 B</text>
  <text x="480.8" y="413.0" text-anchor="middle" fill="#374151" font-size="8.5">1 KiB</text>
  <text x="536.7" y="413.0" text-anchor="middle" fill="#374151" font-size="8.5">2 KiB</text>
  <text x="592.5" y="413.0" text-anchor="middle" fill="#374151" font-size="8.5">4 KiB</text>
  <text x="648.3" y="413.0" text-anchor="middle" fill="#374151" font-size="8.5">8 KiB</text>
  <text x="704.2" y="413.0" text-anchor="middle" fill="#374151" font-size="8.5">16 KiB</text>
  <text x="760.0" y="413.0" text-anchor="middle" fill="#374151" font-size="8.5">32 KiB</text>
  <text x="425.0" y="46" text-anchor="middle" fill="#9ca3af" font-size="10">Intel Core i7-8700B @ 3.20GHz, 6 cores</text>
  <line x1="50" y1="459" x2="64" y2="459" stroke="#eab308" stroke-width="2.5"/>
  <circle cx="57" cy="459" r="2.5" fill="#eab308"/>
  <text x="70" y="463" fill="#374151" font-size="11" font-weight="500">libzmq v4.3.5</text>
  <line x1="175" y1="459" x2="189" y2="459" stroke="#dc2626" stroke-width="2.5"/>
  <circle cx="182" cy="459" r="2.5" fill="#dc2626"/>
  <text x="195" y="463" fill="#374151" font-size="11" font-weight="500">omq-compio (MT)</text>
  <line x1="300" y1="459" x2="314" y2="459" stroke="#f97316" stroke-width="2.5"/>
  <circle cx="307" cy="459" r="2.5" fill="#f97316"/>
  <text x="320" y="463" fill="#374151" font-size="11" font-weight="500">omq-tokio</text>
  <line x1="425" y1="459" x2="439" y2="459" stroke="#2563eb" stroke-width="2.5"/>
  <circle cx="432" cy="459" r="2.5" fill="#2563eb"/>
  <text x="445" y="463" fill="#374151" font-size="11" font-weight="500">zmq.rs v0.6.0</text>
  <line x1="550" y1="459" x2="564" y2="459" stroke="#10b981" stroke-width="2.5"/>
  <circle cx="557" cy="459" r="2.5" fill="#10b981"/>
  <text x="570" y="463" fill="#374151" font-size="11" font-weight="500">rzmq v0.5.15</text>
  <line x1="675" y1="459" x2="689" y2="459" stroke="#06b6d4" stroke-width="2.5"/>
  <circle cx="682" cy="459" r="2.5" fill="#06b6d4"/>
  <text x="695" y="463" fill="#374151" font-size="11" font-weight="500">omq-libzmq</text>
  <line x1="265" y1="481" x2="285" y2="481" stroke="#6b7280" stroke-width="2" stroke-dasharray="6,4"/>
  <text x="291" y="485" fill="#6b7280" font-size="10">msg/s (left axis)</text>
  <line x1="435" y1="481" x2="455" y2="481" stroke="#6b7280" stroke-width="2"/>
  <circle cx="445" cy="481" r="2" fill="#6b7280"/>
  <text x="461" y="485" fill="#6b7280" font-size="10">throughput / GB/s (right axis)</text>
</svg>
