<svg xmlns="http://www.w3.org/2000/svg" viewBox="0 0 850 414" font-family="system-ui, -apple-system, sans-serif">
  <rect width="850" height="414" fill="white"/>
  <text x="425.0" y="32.0" text-anchor="middle" fill="#111827" font-size="13" font-weight="700">PUSH/PULL throughput: TCP loopback, 2-process (higher is better)</text>
  <line x1="90.0" y1="292.0" x2="760.0" y2="292.0" stroke="#e5e7eb" stroke-width="1"/>
  <text x="82.0" y="292.0" text-anchor="end" dominant-baseline="middle" fill="#374151" font-size="10">2M</text>
  <line x1="90.0" y1="265.0" x2="760.0" y2="265.0" stroke="#e5e7eb" stroke-width="1"/>
  <text x="82.0" y="265.0" text-anchor="end" dominant-baseline="middle" fill="#374151" font-size="10">4M</text>
  <line x1="90.0" y1="238.0" x2="760.0" y2="238.0" stroke="#e5e7eb" stroke-width="1"/>
  <text x="82.0" y="238.0" text-anchor="end" dominant-baseline="middle" fill="#374151" font-size="10">6M</text>
  <line x1="90.0" y1="211.0" x2="760.0" y2="211.0" stroke="#e5e7eb" stroke-width="1"/>
  <text x="82.0" y="211.0" text-anchor="end" dominant-baseline="middle" fill="#374151" font-size="10">8M</text>
  <line x1="90.0" y1="184.0" x2="760.0" y2="184.0" stroke="#e5e7eb" stroke-width="1"/>
  <text x="82.0" y="184.0" text-anchor="end" dominant-baseline="middle" fill="#374151" font-size="10">10M</text>
  <line x1="90.0" y1="157.0" x2="760.0" y2="157.0" stroke="#e5e7eb" stroke-width="1"/>
  <text x="82.0" y="157.0" text-anchor="end" dominant-baseline="middle" fill="#374151" font-size="10">12M</text>
  <line x1="90.0" y1="130.0" x2="760.0" y2="130.0" stroke="#e5e7eb" stroke-width="1"/>
  <text x="82.0" y="130.0" text-anchor="end" dominant-baseline="middle" fill="#374151" font-size="10">14M</text>
  <line x1="90.0" y1="103.0" x2="760.0" y2="103.0" stroke="#e5e7eb" stroke-width="1"/>
  <text x="82.0" y="103.0" text-anchor="end" dominant-baseline="middle" fill="#374151" font-size="10">16M</text>
  <line x1="90.0" y1="76.0" x2="760.0" y2="76.0" stroke="#e5e7eb" stroke-width="1"/>
  <text x="82.0" y="76.0" text-anchor="end" dominant-baseline="middle" fill="#374151" font-size="10">18M</text>
  <line x1="90.0" y1="49.0" x2="760.0" y2="49.0" stroke="#e5e7eb" stroke-width="1"/>
  <text x="82.0" y="49.0" text-anchor="end" dominant-baseline="middle" fill="#374151" font-size="10">20M</text>
  <line x1="90.0" y1="265.0" x2="760.0" y2="265.0" stroke="#e5e7eb" stroke-width="1" stroke-dasharray="3,6"/>
  <text x="768.0" y="265.0" text-anchor="start" dominant-baseline="middle" fill="#6b7280" font-size="10">1 GB/s</text>
  <line x1="90.0" y1="211.0" x2="760.0" y2="211.0" stroke="#e5e7eb" stroke-width="1" stroke-dasharray="3,6"/>
  <text x="768.0" y="211.0" text-anchor="start" dominant-baseline="middle" fill="#6b7280" font-size="10">2 GB/s</text>
  <line x1="90.0" y1="157.0" x2="760.0" y2="157.0" stroke="#e5e7eb" stroke-width="1" stroke-dasharray="3,6"/>
  <text x="768.0" y="157.0" text-anchor="start" dominant-baseline="middle" fill="#6b7280" font-size="10">3 GB/s</text>
  <line x1="90.0" y1="103.0" x2="760.0" y2="103.0" stroke="#e5e7eb" stroke-width="1" stroke-dasharray="3,6"/>
  <text x="768.0" y="103.0" text-anchor="start" dominant-baseline="middle" fill="#6b7280" font-size="10">4 GB/s</text>
  <line x1="90.0" y1="49.0" x2="760.0" y2="49.0" stroke="#e5e7eb" stroke-width="1" stroke-dasharray="3,6"/>
  <text x="768.0" y="49.0" text-anchor="start" dominant-baseline="middle" fill="#6b7280" font-size="10">5 GB/s</text>
  <line x1="90.0" y1="49.0" x2="90.0" y2="319.0" stroke="#e5e7eb" stroke-width="1"/>
  <line x1="145.8" y1="49.0" x2="145.8" y2="319.0" stroke="#e5e7eb" stroke-width="1"/>
  <line x1="201.7" y1="49.0" x2="201.7" y2="319.0" stroke="#e5e7eb" stroke-width="1"/>
  <line x1="257.5" y1="49.0" x2="257.5" y2="319.0" stroke="#e5e7eb" stroke-width="1"/>
  <line x1="313.3" y1="49.0" x2="313.3" y2="319.0" stroke="#e5e7eb" stroke-width="1"/>
  <line x1="369.2" y1="49.0" x2="369.2" y2="319.0" stroke="#e5e7eb" stroke-width="1"/>
  <line x1="425.0" y1="49.0" x2="425.0" y2="319.0" stroke="#e5e7eb" stroke-width="1"/>
  <line x1="480.8" y1="49.0" x2="480.8" y2="319.0" stroke="#e5e7eb" stroke-width="1"/>
  <line x1="536.7" y1="49.0" x2="536.7" y2="319.0" stroke="#e5e7eb" stroke-width="1"/>
  <line x1="592.5" y1="49.0" x2="592.5" y2="319.0" stroke="#e5e7eb" stroke-width="1"/>
  <line x1="648.3" y1="49.0" x2="648.3" y2="319.0" stroke="#e5e7eb" stroke-width="1"/>
  <line x1="704.2" y1="49.0" x2="704.2" y2="319.0" stroke="#e5e7eb" stroke-width="1"/>
  <line x1="760.0" y1="49.0" x2="760.0" y2="319.0" stroke="#e5e7eb" stroke-width="1"/>
  <line x1="90.0" y1="49.0" x2="90.0" y2="319.0" stroke="#9ca3af" stroke-width="1.5"/>
  <line x1="760.0" y1="49.0" x2="760.0" y2="319.0" stroke="#9ca3af" stroke-width="1.5"/>
  <line x1="90.0" y1="319.0" x2="760.0" y2="319.0" stroke="#9ca3af" stroke-width="1.5"/>
  <text x="40.0" y="184.0" text-anchor="middle" fill="#374151" font-size="10" font-weight="600" transform="rotate(-90,40.0,184.0)">msg/s</text>
  <polyline points="90.0,315.3 145.8,315.5 201.7,315.7 257.5,316.3 313.3,316.8 369.2,316.7 425.0,316.8 480.8,317.0 536.7,317.2 592.5,317.2 648.3,317.3 704.2,317.7 760.0,318.2" fill="none" stroke="#10b981" stroke-width="2" stroke-dasharray="6,4"/>
  <polyline points="90.0,313.6 145.8,313.8 201.7,314.7 257.5,315.1 313.3,315.5 369.2,315.6 425.0,315.8 480.8,315.9 536.7,316.2 592.5,316.3 648.3,316.7 704.2,316.4 760.0,317.6" fill="none" stroke="#2563eb" stroke-width="2" stroke-dasharray="6,4"/>
  <polyline points="90.0,228.2 145.8,222.0 201.7,229.0 257.5,256.6 313.3,288.2 369.2,291.5 425.0,299.0 480.8,306.9 536.7,311.9 592.5,315.3 648.3,317.0 704.2,318.0 760.0,318.2" fill="none" stroke="#eab308" stroke-width="2" stroke-dasharray="6,4"/>
  <polyline points="90.0,244.8 145.8,240.7 201.7,230.6 257.5,249.1 313.3,296.0 369.2,297.4 425.0,299.1 480.8,302.9 536.7,307.2 592.5,310.8 648.3,314.1 704.2,316.4 760.0,317.7" fill="none" stroke="#06b6d4" stroke-width="2" stroke-dasharray="6,4"/>
  <polyline points="90.0,245.0 145.8,241.7 201.7,242.0 257.5,248.1 313.3,248.9 369.2,259.1 425.0,268.7 480.8,279.0 536.7,295.4 592.5,305.7 648.3,312.4 704.2,315.5 760.0,317.3" fill="none" stroke="#f97316" stroke-width="2" stroke-dasharray="6,4"/>
  <polyline points="90.0,95.6 145.8,111.8 201.7,155.6 257.5,203.8 313.3,230.7 369.2,259.6 425.0,276.4 480.8,290.4 536.7,300.4 592.5,307.7 648.3,312.7 704.2,315.7 760.0,317.3" fill="none" stroke="#dc2626" stroke-width="2" stroke-dasharray="6,4"/>
  <polyline points="90.0,318.9 145.8,318.8 201.7,318.6 257.5,318.3 313.3,317.8 369.2,316.6 425.0,314.6 480.8,310.9 536.7,303.9 592.5,290.2 648.3,264.5 704.2,235.2 760.0,218.4" fill="none" stroke="#10b981" stroke-width="2.5" stroke-linecap="round" stroke-linejoin="round"/>
  <circle cx="90.0" cy="318.9" r="3" fill="#10b981" stroke="white" stroke-width="1"/>
  <circle cx="145.8" cy="318.8" r="3" fill="#10b981" stroke="white" stroke-width="1"/>
  <circle cx="201.7" cy="318.6" r="3" fill="#10b981" stroke="white" stroke-width="1"/>
  <circle cx="257.5" cy="318.3" r="3" fill="#10b981" stroke="white" stroke-width="1"/>
  <circle cx="313.3" cy="317.8" r="3" fill="#10b981" stroke="white" stroke-width="1"/>
  <circle cx="369.2" cy="316.6" r="3" fill="#10b981" stroke="white" stroke-width="1"/>
  <circle cx="425.0" cy="314.6" r="3" fill="#10b981" stroke="white" stroke-width="1"/>
  <circle cx="480.8" cy="310.9" r="3" fill="#10b981" stroke="white" stroke-width="1"/>
  <circle cx="536.7" cy="303.9" r="3" fill="#10b981" stroke="white" stroke-width="1"/>
  <circle cx="592.5" cy="290.2" r="3" fill="#10b981" stroke="white" stroke-width="1"/>
  <circle cx="648.3" cy="264.5" r="3" fill="#10b981" stroke="white" stroke-width="1"/>
  <circle cx="704.2" cy="235.2" r="3" fill="#10b981" stroke="white" stroke-width="1"/>
  <circle cx="760.0" cy="218.4" r="3" fill="#10b981" stroke="white" stroke-width="1"/>
  <polyline points="90.0,318.8 145.8,318.7 201.7,318.4 257.5,318.0 313.3,317.2 369.2,315.5 425.0,312.4 480.8,306.1 536.7,295.9 592.5,275.3 648.3,244.0 704.2,147.9 760.0,141.1" fill="none" stroke="#2563eb" stroke-width="2.5" stroke-linecap="round" stroke-linejoin="round"/>
  <circle cx="90.0" cy="318.8" r="3" fill="#2563eb" stroke="white" stroke-width="1"/>
  <circle cx="145.8" cy="318.7" r="3" fill="#2563eb" stroke="white" stroke-width="1"/>
  <circle cx="201.7" cy="318.4" r="3" fill="#2563eb" stroke="white" stroke-width="1"/>
  <circle cx="257.5" cy="318.0" r="3" fill="#2563eb" stroke="white" stroke-width="1"/>
  <circle cx="313.3" cy="317.2" r="3" fill="#2563eb" stroke="white" stroke-width="1"/>
  <circle cx="369.2" cy="315.5" r="3" fill="#2563eb" stroke="white" stroke-width="1"/>
  <circle cx="425.0" cy="312.4" r="3" fill="#2563eb" stroke="white" stroke-width="1"/>
  <circle cx="480.8" cy="306.1" r="3" fill="#2563eb" stroke="white" stroke-width="1"/>
  <circle cx="536.7" cy="295.9" r="3" fill="#2563eb" stroke="white" stroke-width="1"/>
  <circle cx="592.5" cy="275.3" r="3" fill="#2563eb" stroke="white" stroke-width="1"/>
  <circle cx="648.3" cy="244.0" r="3" fill="#2563eb" stroke="white" stroke-width="1"/>
  <circle cx="704.2" cy="147.9" r="3" fill="#2563eb" stroke="white" stroke-width="1"/>
  <circle cx="760.0" cy="141.1" r="3" fill="#2563eb" stroke="white" stroke-width="1"/>
  <polyline points="90.0,316.1 145.8,312.8 201.7,307.5 257.5,303.0 313.3,303.2 369.2,290.8 425.0,278.0 480.8,269.6 536.7,261.2 592.5,257.7 648.3,253.0 704.2,255.5 760.0,213.0" fill="none" stroke="#eab308" stroke-width="2.5" stroke-linecap="round" stroke-linejoin="round"/>
  <circle cx="90.0" cy="316.1" r="3" fill="#eab308" stroke="white" stroke-width="1"/>
  <circle cx="145.8" cy="312.8" r="3" fill="#eab308" stroke="white" stroke-width="1"/>
  <circle cx="201.7" cy="307.5" r="3" fill="#eab308" stroke="white" stroke-width="1"/>
  <circle cx="257.5" cy="303.0" r="3" fill="#eab308" stroke="white" stroke-width="1"/>
  <circle cx="313.3" cy="303.2" r="3" fill="#eab308" stroke="white" stroke-width="1"/>
  <circle cx="369.2" cy="290.8" r="3" fill="#eab308" stroke="white" stroke-width="1"/>
  <circle cx="425.0" cy="278.0" r="3" fill="#eab308" stroke="white" stroke-width="1"/>
  <circle cx="480.8" cy="269.6" r="3" fill="#eab308" stroke="white" stroke-width="1"/>
  <circle cx="536.7" cy="261.2" r="3" fill="#eab308" stroke="white" stroke-width="1"/>
  <circle cx="592.5" cy="257.7" r="3" fill="#eab308" stroke="white" stroke-width="1"/>
  <circle cx="648.3" cy="253.0" r="3" fill="#eab308" stroke="white" stroke-width="1"/>
  <circle cx="704.2" cy="255.5" r="3" fill="#eab308" stroke="white" stroke-width="1"/>
  <circle cx="760.0" cy="213.0" r="3" fill="#eab308" stroke="white" stroke-width="1"/>
  <polyline points="90.0,316.6 145.8,314.0 201.7,307.7 257.5,301.1 313.3,307.2 369.2,296.9 425.0,278.1 480.8,252.9 536.7,222.3 592.5,184.1 648.3,159.9 704.2,151.8 760.0,147.7" fill="none" stroke="#06b6d4" stroke-width="2.5" stroke-linecap="round" stroke-linejoin="round"/>
  <circle cx="90.0" cy="316.6" r="3" fill="#06b6d4" stroke="white" stroke-width="1"/>
  <circle cx="145.8" cy="314.0" r="3" fill="#06b6d4" stroke="white" stroke-width="1"/>
  <circle cx="201.7" cy="307.7" r="3" fill="#06b6d4" stroke="white" stroke-width="1"/>
  <circle cx="257.5" cy="301.1" r="3" fill="#06b6d4" stroke="white" stroke-width="1"/>
  <circle cx="313.3" cy="307.2" r="3" fill="#06b6d4" stroke="white" stroke-width="1"/>
  <circle cx="369.2" cy="296.9" r="3" fill="#06b6d4" stroke="white" stroke-width="1"/>
  <circle cx="425.0" cy="278.1" r="3" fill="#06b6d4" stroke="white" stroke-width="1"/>
  <circle cx="480.8" cy="252.9" r="3" fill="#06b6d4" stroke="white" stroke-width="1"/>
  <circle cx="536.7" cy="222.3" r="3" fill="#06b6d4" stroke="white" stroke-width="1"/>
  <circle cx="592.5" cy="184.1" r="3" fill="#06b6d4" stroke="white" stroke-width="1"/>
  <circle cx="648.3" cy="159.9" r="3" fill="#06b6d4" stroke="white" stroke-width="1"/>
  <circle cx="704.2" cy="151.8" r="3" fill="#06b6d4" stroke="white" stroke-width="1"/>
  <circle cx="760.0" cy="147.7" r="3" fill="#06b6d4" stroke="white" stroke-width="1"/>
  <polyline points="90.0,316.6 145.8,314.1 201.7,309.1 257.5,300.8 313.3,283.1 369.2,257.7 425.0,216.0 480.8,155.2 536.7,125.7 592.5,101.7 648.3,101.1 704.2,87.6 760.0,91.2" fill="none" stroke="#f97316" stroke-width="2.5" stroke-linecap="round" stroke-linejoin="round"/>
  <circle cx="90.0" cy="316.6" r="3" fill="#f97316" stroke="white" stroke-width="1"/>
  <circle cx="145.8" cy="314.1" r="3" fill="#f97316" stroke="white" stroke-width="1"/>
  <circle cx="201.7" cy="309.1" r="3" fill="#f97316" stroke="white" stroke-width="1"/>
  <circle cx="257.5" cy="300.8" r="3" fill="#f97316" stroke="white" stroke-width="1"/>
  <circle cx="313.3" cy="283.1" r="3" fill="#f97316" stroke="white" stroke-width="1"/>
  <circle cx="369.2" cy="257.7" r="3" fill="#f97316" stroke="white" stroke-width="1"/>
  <circle cx="425.0" cy="216.0" r="3" fill="#f97316" stroke="white" stroke-width="1"/>
  <circle cx="480.8" cy="155.2" r="3" fill="#f97316" stroke="white" stroke-width="1"/>
  <circle cx="536.7" cy="125.7" r="3" fill="#f97316" stroke="white" stroke-width="1"/>
  <circle cx="592.5" cy="101.7" r="3" fill="#f97316" stroke="white" stroke-width="1"/>
  <circle cx="648.3" cy="101.1" r="3" fill="#f97316" stroke="white" stroke-width="1"/>
  <circle cx="704.2" cy="87.6" r="3" fill="#f97316" stroke="white" stroke-width="1"/>
  <circle cx="760.0" cy="91.2" r="3" fill="#f97316" stroke="white" stroke-width="1"/>
  <polyline points="90.0,311.9 145.8,305.7 201.7,298.1 257.5,289.5 313.3,273.8 369.2,258.1 425.0,231.9 480.8,201.8 536.7,166.8 592.5,133.4 648.3,113.9 704.2,99.5 760.0,98.5" fill="none" stroke="#dc2626" stroke-width="2.5" stroke-linecap="round" stroke-linejoin="round"/>
  <circle cx="90.0" cy="311.9" r="3" fill="#dc2626" stroke="white" stroke-width="1"/>
  <circle cx="145.8" cy="305.7" r="3" fill="#dc2626" stroke="white" stroke-width="1"/>
  <circle cx="201.7" cy="298.1" r="3" fill="#dc2626" stroke="white" stroke-width="1"/>
  <circle cx="257.5" cy="289.5" r="3" fill="#dc2626" stroke="white" stroke-width="1"/>
  <circle cx="313.3" cy="273.8" r="3" fill="#dc2626" stroke="white" stroke-width="1"/>
  <circle cx="369.2" cy="258.1" r="3" fill="#dc2626" stroke="white" stroke-width="1"/>
  <circle cx="425.0" cy="231.9" r="3" fill="#dc2626" stroke="white" stroke-width="1"/>
  <circle cx="480.8" cy="201.8" r="3" fill="#dc2626" stroke="white" stroke-width="1"/>
  <circle cx="536.7" cy="166.8" r="3" fill="#dc2626" stroke="white" stroke-width="1"/>
  <circle cx="592.5" cy="133.4" r="3" fill="#dc2626" stroke="white" stroke-width="1"/>
  <circle cx="648.3" cy="113.9" r="3" fill="#dc2626" stroke="white" stroke-width="1"/>
  <circle cx="704.2" cy="99.5" r="3" fill="#dc2626" stroke="white" stroke-width="1"/>
  <circle cx="760.0" cy="98.5" r="3" fill="#dc2626" stroke="white" stroke-width="1"/>
  <text x="90.0" y="333.0" text-anchor="middle" fill="#374151" font-size="8.5">8 B</text>
  <text x="145.8" y="333.0" text-anchor="middle" fill="#374151" font-size="8.5">16 B</text>
  <text x="201.7" y="333.0" text-anchor="middle" fill="#374151" font-size="8.5">32 B</text>
  <text x="257.5" y="333.0" text-anchor="middle" fill="#374151" font-size="8.5">64 B</text>
  <text x="313.3" y="333.0" text-anchor="middle" fill="#374151" font-size="8.5">128 B</text>
  <text x="369.2" y="333.0" text-anchor="middle" fill="#374151" font-size="8.5">256 B</text>
  <text x="425.0" y="333.0" text-anchor="middle" fill="#374151" font-size="8.5">512 B</text>
  <text x="480.8" y="333.0" text-anchor="middle" fill="#374151" font-size="8.5">1 KiB</text>
  <text x="536.7" y="333.0" text-anchor="middle" fill="#374151" font-size="8.5">2 KiB</text>
  <text x="592.5" y="333.0" text-anchor="middle" fill="#374151" font-size="8.5">4 KiB</text>
  <text x="648.3" y="333.0" text-anchor="middle" fill="#374151" font-size="8.5">8 KiB</text>
  <text x="704.2" y="333.0" text-anchor="middle" fill="#374151" font-size="8.5">16 KiB</text>
  <text x="760.0" y="333.0" text-anchor="middle" fill="#374151" font-size="8.5">32 KiB</text>
  <text x="425.0" y="46" text-anchor="middle" fill="#9ca3af" font-size="10">Intel Core i7-8700B @ 3.20GHz, 6 cores, performance governor, turbo off</text>
  <line x1="50" y1="379" x2="64" y2="379" stroke="#eab308" stroke-width="2.5"/>
  <circle cx="57" cy="379" r="2.5" fill="#eab308"/>
  <text x="70" y="383" fill="#374151" font-size="11" font-weight="500">libzmq v4.3.5</text>
  <line x1="175" y1="379" x2="189" y2="379" stroke="#dc2626" stroke-width="2.5"/>
  <circle cx="182" cy="379" r="2.5" fill="#dc2626"/>
  <text x="195" y="383" fill="#374151" font-size="11" font-weight="500">omq-compio (MT)</text>
  <line x1="300" y1="379" x2="314" y2="379" stroke="#f97316" stroke-width="2.5"/>
  <circle cx="307" cy="379" r="2.5" fill="#f97316"/>
  <text x="320" y="383" fill="#374151" font-size="11" font-weight="500">omq-tokio</text>
  <line x1="425" y1="379" x2="439" y2="379" stroke="#2563eb" stroke-width="2.5"/>
  <circle cx="432" cy="379" r="2.5" fill="#2563eb"/>
  <text x="445" y="383" fill="#374151" font-size="11" font-weight="500">zmq.rs v0.6.0</text>
  <line x1="550" y1="379" x2="564" y2="379" stroke="#10b981" stroke-width="2.5"/>
  <circle cx="557" cy="379" r="2.5" fill="#10b981"/>
  <text x="570" y="383" fill="#374151" font-size="11" font-weight="500">rzmq v0.5.15</text>
  <line x1="675" y1="379" x2="689" y2="379" stroke="#06b6d4" stroke-width="2.5"/>
  <circle cx="682" cy="379" r="2.5" fill="#06b6d4"/>
  <text x="695" y="383" fill="#374151" font-size="11" font-weight="500">omq-libzmq</text>
  <line x1="265" y1="401" x2="285" y2="401" stroke="#6b7280" stroke-width="2" stroke-dasharray="6,4"/>
  <text x="291" y="405" fill="#6b7280" font-size="10">msg/s (left axis)</text>
  <line x1="435" y1="401" x2="455" y2="401" stroke="#6b7280" stroke-width="2"/>
  <circle cx="445" cy="401" r="2" fill="#6b7280"/>
  <text x="461" y="405" fill="#6b7280" font-size="10">throughput / GB/s (right axis)</text>
</svg>
