<svg xmlns="http://www.w3.org/2000/svg" viewBox="0 0 850 494" font-family="system-ui, -apple-system, sans-serif">
  <rect width="850" height="494" fill="white"/>
  <text x="425.0" y="32.0" text-anchor="middle" fill="#111827" font-size="13" font-weight="700">PUSH/PULL throughput: TCP loopback, 2-process (higher is better)</text>
  <line x1="90.0" y1="381.5" x2="760.0" y2="381.5" stroke="#e5e7eb" stroke-width="1"/>
  <text x="82.0" y="381.5" text-anchor="end" dominant-baseline="middle" fill="#374151" font-size="10">200k</text>
  <line x1="90.0" y1="364.0" x2="760.0" y2="364.0" stroke="#e5e7eb" stroke-width="1"/>
  <text x="82.0" y="364.0" text-anchor="end" dominant-baseline="middle" fill="#374151" font-size="10">400k</text>
  <line x1="90.0" y1="346.5" x2="760.0" y2="346.5" stroke="#e5e7eb" stroke-width="1"/>
  <text x="82.0" y="346.5" text-anchor="end" dominant-baseline="middle" fill="#374151" font-size="10">600k</text>
  <line x1="90.0" y1="329.0" x2="760.0" y2="329.0" stroke="#e5e7eb" stroke-width="1"/>
  <text x="82.0" y="329.0" text-anchor="end" dominant-baseline="middle" fill="#374151" font-size="10">800k</text>
  <line x1="90.0" y1="297.7" x2="760.0" y2="297.7" stroke="#e5e7eb" stroke-width="1"/>
  <text x="82.0" y="297.7" text-anchor="end" dominant-baseline="middle" fill="#374151" font-size="10">2M</text>
  <line x1="90.0" y1="270.1" x2="760.0" y2="270.1" stroke="#e5e7eb" stroke-width="1"/>
  <text x="82.0" y="270.1" text-anchor="end" dominant-baseline="middle" fill="#374151" font-size="10">4M</text>
  <line x1="90.0" y1="242.4" x2="760.0" y2="242.4" stroke="#e5e7eb" stroke-width="1"/>
  <text x="82.0" y="242.4" text-anchor="end" dominant-baseline="middle" fill="#374151" font-size="10">6M</text>
  <line x1="90.0" y1="214.8" x2="760.0" y2="214.8" stroke="#e5e7eb" stroke-width="1"/>
  <text x="82.0" y="214.8" text-anchor="end" dominant-baseline="middle" fill="#374151" font-size="10">8M</text>
  <line x1="90.0" y1="187.2" x2="760.0" y2="187.2" stroke="#e5e7eb" stroke-width="1"/>
  <text x="82.0" y="187.2" text-anchor="end" dominant-baseline="middle" fill="#374151" font-size="10">10M</text>
  <line x1="90.0" y1="159.5" x2="760.0" y2="159.5" stroke="#e5e7eb" stroke-width="1"/>
  <text x="82.0" y="159.5" text-anchor="end" dominant-baseline="middle" fill="#374151" font-size="10">12M</text>
  <line x1="90.0" y1="131.9" x2="760.0" y2="131.9" stroke="#e5e7eb" stroke-width="1"/>
  <text x="82.0" y="131.9" text-anchor="end" dominant-baseline="middle" fill="#374151" font-size="10">14M</text>
  <line x1="90.0" y1="104.3" x2="760.0" y2="104.3" stroke="#e5e7eb" stroke-width="1"/>
  <text x="82.0" y="104.3" text-anchor="end" dominant-baseline="middle" fill="#374151" font-size="10">16M</text>
  <line x1="90.0" y1="76.6" x2="760.0" y2="76.6" stroke="#e5e7eb" stroke-width="1"/>
  <text x="82.0" y="76.6" text-anchor="end" dominant-baseline="middle" fill="#374151" font-size="10">18M</text>
  <line x1="90.0" y1="49.0" x2="760.0" y2="49.0" stroke="#e5e7eb" stroke-width="1"/>
  <text x="82.0" y="49.0" text-anchor="end" dominant-baseline="middle" fill="#374151" font-size="10">20M</text>
  <line x1="90.0" y1="340.7" x2="760.0" y2="340.7" stroke="#e5e7eb" stroke-width="1" stroke-dasharray="3,6"/>
  <text x="768.0" y="340.7" text-anchor="start" dominant-baseline="middle" fill="#6b7280" font-size="10">1 GB/s</text>
  <line x1="90.0" y1="282.3" x2="760.0" y2="282.3" stroke="#e5e7eb" stroke-width="1" stroke-dasharray="3,6"/>
  <text x="768.0" y="282.3" text-anchor="start" dominant-baseline="middle" fill="#6b7280" font-size="10">2 GB/s</text>
  <line x1="90.0" y1="224.0" x2="760.0" y2="224.0" stroke="#e5e7eb" stroke-width="1" stroke-dasharray="3,6"/>
  <text x="768.0" y="224.0" text-anchor="start" dominant-baseline="middle" fill="#6b7280" font-size="10">3 GB/s</text>
  <line x1="90.0" y1="165.7" x2="760.0" y2="165.7" stroke="#e5e7eb" stroke-width="1" stroke-dasharray="3,6"/>
  <text x="768.0" y="165.7" text-anchor="start" dominant-baseline="middle" fill="#6b7280" font-size="10">4 GB/s</text>
  <line x1="90.0" y1="107.3" x2="760.0" y2="107.3" stroke="#e5e7eb" stroke-width="1" stroke-dasharray="3,6"/>
  <text x="768.0" y="107.3" text-anchor="start" dominant-baseline="middle" fill="#6b7280" font-size="10">5 GB/s</text>
  <line x1="90.0" y1="49.0" x2="760.0" y2="49.0" stroke="#e5e7eb" stroke-width="1" stroke-dasharray="3,6"/>
  <text x="768.0" y="49.0" text-anchor="start" dominant-baseline="middle" fill="#6b7280" font-size="10">6 GB/s</text>
  <line x1="90.0" y1="49.0" x2="90.0" y2="399.0" stroke="#e5e7eb" stroke-width="1"/>
  <line x1="145.8" y1="49.0" x2="145.8" y2="399.0" stroke="#e5e7eb" stroke-width="1"/>
  <line x1="201.7" y1="49.0" x2="201.7" y2="399.0" stroke="#e5e7eb" stroke-width="1"/>
  <line x1="257.5" y1="49.0" x2="257.5" y2="399.0" stroke="#e5e7eb" stroke-width="1"/>
  <line x1="313.3" y1="49.0" x2="313.3" y2="399.0" stroke="#e5e7eb" stroke-width="1"/>
  <line x1="369.2" y1="49.0" x2="369.2" y2="399.0" stroke="#e5e7eb" stroke-width="1"/>
  <line x1="425.0" y1="49.0" x2="425.0" y2="399.0" stroke="#e5e7eb" stroke-width="1"/>
  <line x1="480.8" y1="49.0" x2="480.8" y2="399.0" stroke="#e5e7eb" stroke-width="1"/>
  <line x1="536.7" y1="49.0" x2="536.7" y2="399.0" stroke="#e5e7eb" stroke-width="1"/>
  <line x1="592.5" y1="49.0" x2="592.5" y2="399.0" stroke="#e5e7eb" stroke-width="1"/>
  <line x1="648.3" y1="49.0" x2="648.3" y2="399.0" stroke="#e5e7eb" stroke-width="1"/>
  <line x1="704.2" y1="49.0" x2="704.2" y2="399.0" stroke="#e5e7eb" stroke-width="1"/>
  <line x1="760.0" y1="49.0" x2="760.0" y2="399.0" stroke="#e5e7eb" stroke-width="1"/>
  <line x1="90.0" y1="49.0" x2="90.0" y2="399.0" stroke="#9ca3af" stroke-width="1.5"/>
  <line x1="760.0" y1="49.0" x2="760.0" y2="399.0" stroke="#9ca3af" stroke-width="1.5"/>
  <line x1="90.0" y1="399.0" x2="760.0" y2="399.0" stroke="#9ca3af" stroke-width="1.5"/>
  <rect x="89.0" y="305.5" width="3" height="12" fill="white"/>
  <path d="M 85.0,317.5 L 95.0,312.5 M 85.0,310.5 L 95.0,305.5" stroke="#9ca3af" stroke-width="1.5" fill="none"/>
  <text x="40.0" y="224.0" text-anchor="middle" fill="#374151" font-size="10" font-weight="600" transform="rotate(-90,40.0,224.0)">msg/s</text>
  <polyline points="90.0,378.4 145.8,379.5 201.7,381.3 257.5,383.0 313.3,384.9 369.2,385.8 425.0,386.0 480.8,387.8 536.7,388.1 592.5,388.5 648.3,389.2 704.2,391.1 760.0,394.9" fill="none" stroke="#10b981" stroke-width="2" stroke-dasharray="6,4"/>
  <polyline points="90.0,368.7 145.8,369.5 201.7,373.4 257.5,375.9 313.3,376.8 369.2,377.3 425.0,378.7 480.8,378.9 536.7,381.0 592.5,382.3 648.3,384.5 704.2,386.9 760.0,390.6" fill="none" stroke="#2563eb" stroke-width="2" stroke-dasharray="6,4"/>
  <polyline points="90.0,233.0 145.8,228.7 201.7,230.5 257.5,261.9 313.3,294.0 369.2,296.3 425.0,304.1 480.8,321.3 536.7,354.2 592.5,374.9 648.3,386.7 704.2,392.7 760.0,393.9" fill="none" stroke="#eab308" stroke-width="2" stroke-dasharray="6,4"/>
  <polyline points="90.0,255.5 145.8,246.6 201.7,238.1 257.5,255.5 313.3,320.3 369.2,302.9 425.0,305.2 480.8,308.9 536.7,322.9 592.5,346.8 648.3,369.3 704.2,383.9 760.0,391.1" fill="none" stroke="#06b6d4" stroke-width="2" stroke-dasharray="6,4"/>
  <polyline points="90.0,227.9 145.8,253.5 201.7,250.0 257.5,248.9 313.3,253.4 369.2,264.6 425.0,273.2 480.8,290.3 536.7,299.4 592.5,308.3 648.3,338.7 704.2,369.9 760.0,384.7" fill="none" stroke="#f97316" stroke-width="2" stroke-dasharray="6,4"/>
  <polyline points="90.0,97.2 145.8,113.5 201.7,161.6 257.5,209.1 313.3,239.3 369.2,264.1 425.0,281.7 480.8,297.0 536.7,306.0 592.5,328.4 648.3,358.9 704.2,377.2 760.0,387.6" fill="none" stroke="#dc2626" stroke-width="2" stroke-dasharray="6,4"/>
  <polyline points="90.0,398.9 145.8,398.8 201.7,398.6 257.5,398.3 313.3,397.8 369.2,396.7 425.0,394.6 480.8,391.4 536.7,384.1 592.5,370.2 648.3,345.7 704.2,313.2 760.0,309.1" fill="none" stroke="#10b981" stroke-width="2.5" stroke-linecap="round" stroke-linejoin="round"/>
  <circle cx="90.0" cy="398.9" r="3" fill="#10b981" stroke="white" stroke-width="1"/>
  <circle cx="145.8" cy="398.8" r="3" fill="#10b981" stroke="white" stroke-width="1"/>
  <circle cx="201.7" cy="398.6" r="3" fill="#10b981" stroke="white" stroke-width="1"/>
  <circle cx="257.5" cy="398.3" r="3" fill="#10b981" stroke="white" stroke-width="1"/>
  <circle cx="313.3" cy="397.8" r="3" fill="#10b981" stroke="white" stroke-width="1"/>
  <circle cx="369.2" cy="396.7" r="3" fill="#10b981" stroke="white" stroke-width="1"/>
  <circle cx="425.0" cy="394.6" r="3" fill="#10b981" stroke="white" stroke-width="1"/>
  <circle cx="480.8" cy="391.4" r="3" fill="#10b981" stroke="white" stroke-width="1"/>
  <circle cx="536.7" cy="384.1" r="3" fill="#10b981" stroke="white" stroke-width="1"/>
  <circle cx="592.5" cy="370.2" r="3" fill="#10b981" stroke="white" stroke-width="1"/>
  <circle cx="648.3" cy="345.7" r="3" fill="#10b981" stroke="white" stroke-width="1"/>
  <circle cx="704.2" cy="313.2" r="3" fill="#10b981" stroke="white" stroke-width="1"/>
  <circle cx="760.0" cy="309.1" r="3" fill="#10b981" stroke="white" stroke-width="1"/>
  <polyline points="90.0,398.8 145.8,398.7 201.7,398.5 257.5,398.0 313.3,397.1 369.2,395.3 425.0,392.1 480.8,385.3 536.7,374.4 592.5,353.3 648.3,319.8 704.2,266.9 760.0,214.9" fill="none" stroke="#2563eb" stroke-width="2.5" stroke-linecap="round" stroke-linejoin="round"/>
  <circle cx="90.0" cy="398.8" r="3" fill="#2563eb" stroke="white" stroke-width="1"/>
  <circle cx="145.8" cy="398.7" r="3" fill="#2563eb" stroke="white" stroke-width="1"/>
  <circle cx="201.7" cy="398.5" r="3" fill="#2563eb" stroke="white" stroke-width="1"/>
  <circle cx="257.5" cy="398.0" r="3" fill="#2563eb" stroke="white" stroke-width="1"/>
  <circle cx="313.3" cy="397.1" r="3" fill="#2563eb" stroke="white" stroke-width="1"/>
  <circle cx="369.2" cy="395.3" r="3" fill="#2563eb" stroke="white" stroke-width="1"/>
  <circle cx="425.0" cy="392.1" r="3" fill="#2563eb" stroke="white" stroke-width="1"/>
  <circle cx="480.8" cy="385.3" r="3" fill="#2563eb" stroke="white" stroke-width="1"/>
  <circle cx="536.7" cy="374.4" r="3" fill="#2563eb" stroke="white" stroke-width="1"/>
  <circle cx="592.5" cy="353.3" r="3" fill="#2563eb" stroke="white" stroke-width="1"/>
  <circle cx="648.3" cy="319.8" r="3" fill="#2563eb" stroke="white" stroke-width="1"/>
  <circle cx="704.2" cy="266.9" r="3" fill="#2563eb" stroke="white" stroke-width="1"/>
  <circle cx="760.0" cy="214.9" r="3" fill="#2563eb" stroke="white" stroke-width="1"/>
  <polyline points="90.0,395.9 145.8,392.5 201.7,386.2 257.5,381.9 313.3,382.1 369.2,367.6 425.0,353.1 480.8,346.0 536.7,337.9 592.5,333.1 648.3,331.8 704.2,330.5 760.0,287.1" fill="none" stroke="#eab308" stroke-width="2.5" stroke-linecap="round" stroke-linejoin="round"/>
  <circle cx="90.0" cy="395.9" r="3" fill="#eab308" stroke="white" stroke-width="1"/>
  <circle cx="145.8" cy="392.5" r="3" fill="#eab308" stroke="white" stroke-width="1"/>
  <circle cx="201.7" cy="386.2" r="3" fill="#eab308" stroke="white" stroke-width="1"/>
  <circle cx="257.5" cy="381.9" r="3" fill="#eab308" stroke="white" stroke-width="1"/>
  <circle cx="313.3" cy="382.1" r="3" fill="#eab308" stroke="white" stroke-width="1"/>
  <circle cx="369.2" cy="367.6" r="3" fill="#eab308" stroke="white" stroke-width="1"/>
  <circle cx="425.0" cy="353.1" r="3" fill="#eab308" stroke="white" stroke-width="1"/>
  <circle cx="480.8" cy="346.0" r="3" fill="#eab308" stroke="white" stroke-width="1"/>
  <circle cx="536.7" cy="337.9" r="3" fill="#eab308" stroke="white" stroke-width="1"/>
  <circle cx="592.5" cy="333.1" r="3" fill="#eab308" stroke="white" stroke-width="1"/>
  <circle cx="648.3" cy="331.8" r="3" fill="#eab308" stroke="white" stroke-width="1"/>
  <circle cx="704.2" cy="330.5" r="3" fill="#eab308" stroke="white" stroke-width="1"/>
  <circle cx="760.0" cy="287.1" r="3" fill="#eab308" stroke="white" stroke-width="1"/>
  <polyline points="90.0,396.6 145.8,393.7 201.7,387.2 257.5,380.1 313.3,392.3 369.2,374.8 425.0,355.6 480.8,327.9 536.7,295.1 592.5,256.4 648.3,236.8 704.2,234.1 760.0,227.5" fill="none" stroke="#06b6d4" stroke-width="2.5" stroke-linecap="round" stroke-linejoin="round"/>
  <circle cx="90.0" cy="396.6" r="3" fill="#06b6d4" stroke="white" stroke-width="1"/>
  <circle cx="145.8" cy="393.7" r="3" fill="#06b6d4" stroke="white" stroke-width="1"/>
  <circle cx="201.7" cy="387.2" r="3" fill="#06b6d4" stroke="white" stroke-width="1"/>
  <circle cx="257.5" cy="380.1" r="3" fill="#06b6d4" stroke="white" stroke-width="1"/>
  <circle cx="313.3" cy="392.3" r="3" fill="#06b6d4" stroke="white" stroke-width="1"/>
  <circle cx="369.2" cy="374.8" r="3" fill="#06b6d4" stroke="white" stroke-width="1"/>
  <circle cx="425.0" cy="355.6" r="3" fill="#06b6d4" stroke="white" stroke-width="1"/>
  <circle cx="480.8" cy="327.9" r="3" fill="#06b6d4" stroke="white" stroke-width="1"/>
  <circle cx="536.7" cy="295.1" r="3" fill="#06b6d4" stroke="white" stroke-width="1"/>
  <circle cx="592.5" cy="256.4" r="3" fill="#06b6d4" stroke="white" stroke-width="1"/>
  <circle cx="648.3" cy="236.8" r="3" fill="#06b6d4" stroke="white" stroke-width="1"/>
  <circle cx="704.2" cy="234.1" r="3" fill="#06b6d4" stroke="white" stroke-width="1"/>
  <circle cx="760.0" cy="227.5" r="3" fill="#06b6d4" stroke="white" stroke-width="1"/>
  <polyline points="90.0,395.7 145.8,394.1 201.7,388.8 257.5,378.4 313.3,360.1 369.2,333.4 425.0,286.3 480.8,247.5 536.7,174.8 592.5,104.1 648.3,69.7 704.2,81.2 760.0,85.7" fill="none" stroke="#f97316" stroke-width="2.5" stroke-linecap="round" stroke-linejoin="round"/>
  <circle cx="90.0" cy="395.7" r="3" fill="#f97316" stroke="white" stroke-width="1"/>
  <circle cx="145.8" cy="394.1" r="3" fill="#f97316" stroke="white" stroke-width="1"/>
  <circle cx="201.7" cy="388.8" r="3" fill="#f97316" stroke="white" stroke-width="1"/>
  <circle cx="257.5" cy="378.4" r="3" fill="#f97316" stroke="white" stroke-width="1"/>
  <circle cx="313.3" cy="360.1" r="3" fill="#f97316" stroke="white" stroke-width="1"/>
  <circle cx="369.2" cy="333.4" r="3" fill="#f97316" stroke="white" stroke-width="1"/>
  <circle cx="425.0" cy="286.3" r="3" fill="#f97316" stroke="white" stroke-width="1"/>
  <circle cx="480.8" cy="247.5" r="3" fill="#f97316" stroke="white" stroke-width="1"/>
  <circle cx="536.7" cy="174.8" r="3" fill="#f97316" stroke="white" stroke-width="1"/>
  <circle cx="592.5" cy="104.1" r="3" fill="#f97316" stroke="white" stroke-width="1"/>
  <circle cx="648.3" cy="69.7" r="3" fill="#f97316" stroke="white" stroke-width="1"/>
  <circle cx="704.2" cy="81.2" r="3" fill="#f97316" stroke="white" stroke-width="1"/>
  <circle cx="760.0" cy="85.7" r="3" fill="#f97316" stroke="white" stroke-width="1"/>
  <polyline points="90.0,391.3 145.8,384.7 201.7,376.9 257.5,367.6 313.3,352.5 369.2,332.8 425.0,304.6 480.8,276.5 536.7,232.0 592.5,206.2 648.3,179.8 704.2,160.4 760.0,149.7" fill="none" stroke="#dc2626" stroke-width="2.5" stroke-linecap="round" stroke-linejoin="round"/>
  <circle cx="90.0" cy="391.3" r="3" fill="#dc2626" stroke="white" stroke-width="1"/>
  <circle cx="145.8" cy="384.7" r="3" fill="#dc2626" stroke="white" stroke-width="1"/>
  <circle cx="201.7" cy="376.9" r="3" fill="#dc2626" stroke="white" stroke-width="1"/>
  <circle cx="257.5" cy="367.6" r="3" fill="#dc2626" stroke="white" stroke-width="1"/>
  <circle cx="313.3" cy="352.5" r="3" fill="#dc2626" stroke="white" stroke-width="1"/>
  <circle cx="369.2" cy="332.8" r="3" fill="#dc2626" stroke="white" stroke-width="1"/>
  <circle cx="425.0" cy="304.6" r="3" fill="#dc2626" stroke="white" stroke-width="1"/>
  <circle cx="480.8" cy="276.5" r="3" fill="#dc2626" stroke="white" stroke-width="1"/>
  <circle cx="536.7" cy="232.0" r="3" fill="#dc2626" stroke="white" stroke-width="1"/>
  <circle cx="592.5" cy="206.2" r="3" fill="#dc2626" stroke="white" stroke-width="1"/>
  <circle cx="648.3" cy="179.8" r="3" fill="#dc2626" stroke="white" stroke-width="1"/>
  <circle cx="704.2" cy="160.4" r="3" fill="#dc2626" stroke="white" stroke-width="1"/>
  <circle cx="760.0" cy="149.7" r="3" fill="#dc2626" stroke="white" stroke-width="1"/>
  <text x="90.0" y="413.0" text-anchor="middle" fill="#374151" font-size="8.5">8 B</text>
  <text x="145.8" y="413.0" text-anchor="middle" fill="#374151" font-size="8.5">16 B</text>
  <text x="201.7" y="413.0" text-anchor="middle" fill="#374151" font-size="8.5">32 B</text>
  <text x="257.5" y="413.0" text-anchor="middle" fill="#374151" font-size="8.5">64 B</text>
  <text x="313.3" y="413.0" text-anchor="middle" fill="#374151" font-size="8.5">128 B</text>
  <text x="369.2" y="413.0" text-anchor="middle" fill="#374151" font-size="8.5">256 B</text>
  <text x="425.0" y="413.0" text-anchor="middle" fill="#374151" font-size="8.5">512 B</text>
  <text x="480.8" y="413.0" text-anchor="middle" fill="#374151" font-size="8.5">1 KiB</text>
  <text x="536.7" y="413.0" text-anchor="middle" fill="#374151" font-size="8.5">2 KiB</text>
  <text x="592.5" y="413.0" text-anchor="middle" fill="#374151" font-size="8.5">4 KiB</text>
  <text x="648.3" y="413.0" text-anchor="middle" fill="#374151" font-size="8.5">8 KiB</text>
  <text x="704.2" y="413.0" text-anchor="middle" fill="#374151" font-size="8.5">16 KiB</text>
  <text x="760.0" y="413.0" text-anchor="middle" fill="#374151" font-size="8.5">32 KiB</text>
  <text x="425.0" y="46" text-anchor="middle" fill="#9ca3af" font-size="10">Intel Core i7-8700B @ 3.20GHz, 6 cores</text>
  <line x1="50" y1="459" x2="64" y2="459" stroke="#eab308" stroke-width="2.5"/>
  <circle cx="57" cy="459" r="2.5" fill="#eab308"/>
  <text x="70" y="463" fill="#374151" font-size="11" font-weight="500">libzmq v4.3.5</text>
  <line x1="175" y1="459" x2="189" y2="459" stroke="#dc2626" stroke-width="2.5"/>
  <circle cx="182" cy="459" r="2.5" fill="#dc2626"/>
  <text x="195" y="463" fill="#374151" font-size="11" font-weight="500">omq-compio (MT)</text>
  <line x1="300" y1="459" x2="314" y2="459" stroke="#f97316" stroke-width="2.5"/>
  <circle cx="307" cy="459" r="2.5" fill="#f97316"/>
  <text x="320" y="463" fill="#374151" font-size="11" font-weight="500">omq-tokio</text>
  <line x1="425" y1="459" x2="439" y2="459" stroke="#2563eb" stroke-width="2.5"/>
  <circle cx="432" cy="459" r="2.5" fill="#2563eb"/>
  <text x="445" y="463" fill="#374151" font-size="11" font-weight="500">zmq.rs v0.6.0</text>
  <line x1="550" y1="459" x2="564" y2="459" stroke="#10b981" stroke-width="2.5"/>
  <circle cx="557" cy="459" r="2.5" fill="#10b981"/>
  <text x="570" y="463" fill="#374151" font-size="11" font-weight="500">rzmq v0.5.15</text>
  <line x1="675" y1="459" x2="689" y2="459" stroke="#06b6d4" stroke-width="2.5"/>
  <circle cx="682" cy="459" r="2.5" fill="#06b6d4"/>
  <text x="695" y="463" fill="#374151" font-size="11" font-weight="500">omq-libzmq</text>
  <line x1="265" y1="481" x2="285" y2="481" stroke="#6b7280" stroke-width="2" stroke-dasharray="6,4"/>
  <text x="291" y="485" fill="#6b7280" font-size="10">msg/s (left axis)</text>
  <line x1="435" y1="481" x2="455" y2="481" stroke="#6b7280" stroke-width="2"/>
  <circle cx="445" cy="481" r="2" fill="#6b7280"/>
  <text x="461" y="485" fill="#6b7280" font-size="10">throughput / GB/s (right axis)</text>
</svg>
