<svg xmlns="http://www.w3.org/2000/svg" viewBox="0 0 850 494" font-family="system-ui, -apple-system, sans-serif">
  <rect width="850" height="494" fill="white"/>
  <text x="425.0" y="32.0" text-anchor="middle" fill="#111827" font-size="13" font-weight="700">PUSH/PULL throughput: TCP loopback, 2-process (higher is better)</text>
  <line x1="90.0" y1="381.5" x2="760.0" y2="381.5" stroke="#e5e7eb" stroke-width="1"/>
  <text x="82.0" y="381.5" text-anchor="end" dominant-baseline="middle" fill="#374151" font-size="10">200k</text>
  <line x1="90.0" y1="364.0" x2="760.0" y2="364.0" stroke="#e5e7eb" stroke-width="1"/>
  <text x="82.0" y="364.0" text-anchor="end" dominant-baseline="middle" fill="#374151" font-size="10">400k</text>
  <line x1="90.0" y1="346.5" x2="760.0" y2="346.5" stroke="#e5e7eb" stroke-width="1"/>
  <text x="82.0" y="346.5" text-anchor="end" dominant-baseline="middle" fill="#374151" font-size="10">600k</text>
  <line x1="90.0" y1="329.0" x2="760.0" y2="329.0" stroke="#e5e7eb" stroke-width="1"/>
  <text x="82.0" y="329.0" text-anchor="end" dominant-baseline="middle" fill="#374151" font-size="10">800k</text>
  <line x1="90.0" y1="297.7" x2="760.0" y2="297.7" stroke="#e5e7eb" stroke-width="1"/>
  <text x="82.0" y="297.7" text-anchor="end" dominant-baseline="middle" fill="#374151" font-size="10">2M</text>
  <line x1="90.0" y1="270.1" x2="760.0" y2="270.1" stroke="#e5e7eb" stroke-width="1"/>
  <text x="82.0" y="270.1" text-anchor="end" dominant-baseline="middle" fill="#374151" font-size="10">4M</text>
  <line x1="90.0" y1="242.4" x2="760.0" y2="242.4" stroke="#e5e7eb" stroke-width="1"/>
  <text x="82.0" y="242.4" text-anchor="end" dominant-baseline="middle" fill="#374151" font-size="10">6M</text>
  <line x1="90.0" y1="214.8" x2="760.0" y2="214.8" stroke="#e5e7eb" stroke-width="1"/>
  <text x="82.0" y="214.8" text-anchor="end" dominant-baseline="middle" fill="#374151" font-size="10">8M</text>
  <line x1="90.0" y1="187.2" x2="760.0" y2="187.2" stroke="#e5e7eb" stroke-width="1"/>
  <text x="82.0" y="187.2" text-anchor="end" dominant-baseline="middle" fill="#374151" font-size="10">10M</text>
  <line x1="90.0" y1="159.5" x2="760.0" y2="159.5" stroke="#e5e7eb" stroke-width="1"/>
  <text x="82.0" y="159.5" text-anchor="end" dominant-baseline="middle" fill="#374151" font-size="10">12M</text>
  <line x1="90.0" y1="131.9" x2="760.0" y2="131.9" stroke="#e5e7eb" stroke-width="1"/>
  <text x="82.0" y="131.9" text-anchor="end" dominant-baseline="middle" fill="#374151" font-size="10">14M</text>
  <line x1="90.0" y1="104.3" x2="760.0" y2="104.3" stroke="#e5e7eb" stroke-width="1"/>
  <text x="82.0" y="104.3" text-anchor="end" dominant-baseline="middle" fill="#374151" font-size="10">16M</text>
  <line x1="90.0" y1="76.6" x2="760.0" y2="76.6" stroke="#e5e7eb" stroke-width="1"/>
  <text x="82.0" y="76.6" text-anchor="end" dominant-baseline="middle" fill="#374151" font-size="10">18M</text>
  <line x1="90.0" y1="49.0" x2="760.0" y2="49.0" stroke="#e5e7eb" stroke-width="1"/>
  <text x="82.0" y="49.0" text-anchor="end" dominant-baseline="middle" fill="#374151" font-size="10">20M</text>
  <line x1="90.0" y1="340.7" x2="760.0" y2="340.7" stroke="#e5e7eb" stroke-width="1" stroke-dasharray="3,6"/>
  <text x="768.0" y="340.7" text-anchor="start" dominant-baseline="middle" fill="#6b7280" font-size="10">1 GB/s</text>
  <line x1="90.0" y1="282.3" x2="760.0" y2="282.3" stroke="#e5e7eb" stroke-width="1" stroke-dasharray="3,6"/>
  <text x="768.0" y="282.3" text-anchor="start" dominant-baseline="middle" fill="#6b7280" font-size="10">2 GB/s</text>
  <line x1="90.0" y1="224.0" x2="760.0" y2="224.0" stroke="#e5e7eb" stroke-width="1" stroke-dasharray="3,6"/>
  <text x="768.0" y="224.0" text-anchor="start" dominant-baseline="middle" fill="#6b7280" font-size="10">3 GB/s</text>
  <line x1="90.0" y1="165.7" x2="760.0" y2="165.7" stroke="#e5e7eb" stroke-width="1" stroke-dasharray="3,6"/>
  <text x="768.0" y="165.7" text-anchor="start" dominant-baseline="middle" fill="#6b7280" font-size="10">4 GB/s</text>
  <line x1="90.0" y1="107.3" x2="760.0" y2="107.3" stroke="#e5e7eb" stroke-width="1" stroke-dasharray="3,6"/>
  <text x="768.0" y="107.3" text-anchor="start" dominant-baseline="middle" fill="#6b7280" font-size="10">5 GB/s</text>
  <line x1="90.0" y1="49.0" x2="760.0" y2="49.0" stroke="#e5e7eb" stroke-width="1" stroke-dasharray="3,6"/>
  <text x="768.0" y="49.0" text-anchor="start" dominant-baseline="middle" fill="#6b7280" font-size="10">6 GB/s</text>
  <line x1="90.0" y1="49.0" x2="90.0" y2="399.0" stroke="#e5e7eb" stroke-width="1"/>
  <line x1="145.8" y1="49.0" x2="145.8" y2="399.0" stroke="#e5e7eb" stroke-width="1"/>
  <line x1="201.7" y1="49.0" x2="201.7" y2="399.0" stroke="#e5e7eb" stroke-width="1"/>
  <line x1="257.5" y1="49.0" x2="257.5" y2="399.0" stroke="#e5e7eb" stroke-width="1"/>
  <line x1="313.3" y1="49.0" x2="313.3" y2="399.0" stroke="#e5e7eb" stroke-width="1"/>
  <line x1="369.2" y1="49.0" x2="369.2" y2="399.0" stroke="#e5e7eb" stroke-width="1"/>
  <line x1="425.0" y1="49.0" x2="425.0" y2="399.0" stroke="#e5e7eb" stroke-width="1"/>
  <line x1="480.8" y1="49.0" x2="480.8" y2="399.0" stroke="#e5e7eb" stroke-width="1"/>
  <line x1="536.7" y1="49.0" x2="536.7" y2="399.0" stroke="#e5e7eb" stroke-width="1"/>
  <line x1="592.5" y1="49.0" x2="592.5" y2="399.0" stroke="#e5e7eb" stroke-width="1"/>
  <line x1="648.3" y1="49.0" x2="648.3" y2="399.0" stroke="#e5e7eb" stroke-width="1"/>
  <line x1="704.2" y1="49.0" x2="704.2" y2="399.0" stroke="#e5e7eb" stroke-width="1"/>
  <line x1="760.0" y1="49.0" x2="760.0" y2="399.0" stroke="#e5e7eb" stroke-width="1"/>
  <line x1="90.0" y1="49.0" x2="90.0" y2="399.0" stroke="#9ca3af" stroke-width="1.5"/>
  <line x1="760.0" y1="49.0" x2="760.0" y2="399.0" stroke="#9ca3af" stroke-width="1.5"/>
  <line x1="90.0" y1="399.0" x2="760.0" y2="399.0" stroke="#9ca3af" stroke-width="1.5"/>
  <rect x="89.0" y="305.5" width="3" height="12" fill="white"/>
  <path d="M 85.0,317.5 L 95.0,312.5 M 85.0,310.5 L 95.0,305.5" stroke="#9ca3af" stroke-width="1.5" fill="none"/>
  <text x="40.0" y="224.0" text-anchor="middle" fill="#374151" font-size="10" font-weight="600" transform="rotate(-90,40.0,224.0)">msg/s</text>
  <polyline points="90.0,303.3 145.8,304.7 201.7,304.2 257.5,304.2 313.3,304.4 369.2,302.6 425.0,304.5 480.8,306.8 536.7,310.6 592.5,343.7 648.3,372.0 704.2,381.1 760.0,389.8" fill="none" stroke="#10b981" stroke-width="2" stroke-dasharray="6,4"/>
  <polyline points="90.0,363.8 145.8,363.3 201.7,371.3 257.5,374.3 313.3,376.4 369.2,376.9 425.0,378.0 480.8,378.8 536.7,380.1 592.5,381.9 648.3,383.9 704.2,382.0 760.0,390.1" fill="none" stroke="#2563eb" stroke-width="2" stroke-dasharray="6,4"/>
  <polyline points="90.0,230.0 145.8,228.2 201.7,233.3 257.5,262.7 313.3,294.4 369.2,296.0 425.0,304.8 480.8,320.8 536.7,354.9 592.5,375.6 648.3,386.6 704.2,392.5 760.0,393.9" fill="none" stroke="#eab308" stroke-width="2" stroke-dasharray="6,4"/>
  <polyline points="90.0,230.4 145.8,233.9 201.7,228.0 257.5,247.6 313.3,251.4 369.2,264.3 425.0,273.2 480.8,286.1 536.7,300.0 592.5,307.9 648.3,342.9 704.2,369.4 760.0,384.3" fill="none" stroke="#f97316" stroke-width="2" stroke-dasharray="6,4"/>
  <polyline points="90.0,101.4 145.8,129.3 201.7,141.0 257.5,208.3 313.3,236.0 369.2,265.6 425.0,282.1 480.8,296.9 536.7,306.3 592.5,328.5 648.3,364.9 704.2,377.8 760.0,387.7" fill="none" stroke="#dc2626" stroke-width="2" stroke-dasharray="6,4"/>
  <polyline points="90.0,398.3 145.8,397.6 201.7,396.2 257.5,393.3 313.3,387.7 369.2,374.5 425.0,353.9 480.8,318.8 536.7,271.5 592.5,247.9 648.3,251.3 704.2,203.9 760.0,197.9" fill="none" stroke="#10b981" stroke-width="2.5" stroke-linecap="round" stroke-linejoin="round"/>
  <circle cx="90.0" cy="398.3" r="3" fill="#10b981" stroke="white" stroke-width="1"/>
  <circle cx="145.8" cy="397.6" r="3" fill="#10b981" stroke="white" stroke-width="1"/>
  <circle cx="201.7" cy="396.2" r="3" fill="#10b981" stroke="white" stroke-width="1"/>
  <circle cx="257.5" cy="393.3" r="3" fill="#10b981" stroke="white" stroke-width="1"/>
  <circle cx="313.3" cy="387.7" r="3" fill="#10b981" stroke="white" stroke-width="1"/>
  <circle cx="369.2" cy="374.5" r="3" fill="#10b981" stroke="white" stroke-width="1"/>
  <circle cx="425.0" cy="353.9" r="3" fill="#10b981" stroke="white" stroke-width="1"/>
  <circle cx="480.8" cy="318.8" r="3" fill="#10b981" stroke="white" stroke-width="1"/>
  <circle cx="536.7" cy="271.5" r="3" fill="#10b981" stroke="white" stroke-width="1"/>
  <circle cx="592.5" cy="247.9" r="3" fill="#10b981" stroke="white" stroke-width="1"/>
  <circle cx="648.3" cy="251.3" r="3" fill="#10b981" stroke="white" stroke-width="1"/>
  <circle cx="704.2" cy="203.9" r="3" fill="#10b981" stroke="white" stroke-width="1"/>
  <circle cx="760.0" cy="197.9" r="3" fill="#10b981" stroke="white" stroke-width="1"/>
  <polyline points="90.0,398.8 145.8,398.6 201.7,398.4 257.5,397.9 313.3,397.1 369.2,395.2 425.0,391.8 480.8,385.2 536.7,373.2 592.5,352.3 648.3,316.4 704.2,213.4 760.0,203.7" fill="none" stroke="#2563eb" stroke-width="2.5" stroke-linecap="round" stroke-linejoin="round"/>
  <circle cx="90.0" cy="398.8" r="3" fill="#2563eb" stroke="white" stroke-width="1"/>
  <circle cx="145.8" cy="398.6" r="3" fill="#2563eb" stroke="white" stroke-width="1"/>
  <circle cx="201.7" cy="398.4" r="3" fill="#2563eb" stroke="white" stroke-width="1"/>
  <circle cx="257.5" cy="397.9" r="3" fill="#2563eb" stroke="white" stroke-width="1"/>
  <circle cx="313.3" cy="397.1" r="3" fill="#2563eb" stroke="white" stroke-width="1"/>
  <circle cx="369.2" cy="395.2" r="3" fill="#2563eb" stroke="white" stroke-width="1"/>
  <circle cx="425.0" cy="391.8" r="3" fill="#2563eb" stroke="white" stroke-width="1"/>
  <circle cx="480.8" cy="385.2" r="3" fill="#2563eb" stroke="white" stroke-width="1"/>
  <circle cx="536.7" cy="373.2" r="3" fill="#2563eb" stroke="white" stroke-width="1"/>
  <circle cx="592.5" cy="352.3" r="3" fill="#2563eb" stroke="white" stroke-width="1"/>
  <circle cx="648.3" cy="316.4" r="3" fill="#2563eb" stroke="white" stroke-width="1"/>
  <circle cx="704.2" cy="213.4" r="3" fill="#2563eb" stroke="white" stroke-width="1"/>
  <circle cx="760.0" cy="203.7" r="3" fill="#2563eb" stroke="white" stroke-width="1"/>
  <polyline points="90.0,395.8 145.8,392.4 201.7,386.6 257.5,382.1 313.3,382.3 369.2,367.3 425.0,354.6 480.8,345.6 536.7,338.8 592.5,335.2 648.3,331.4 704.2,328.5 760.0,287.9" fill="none" stroke="#eab308" stroke-width="2.5" stroke-linecap="round" stroke-linejoin="round"/>
  <circle cx="90.0" cy="395.8" r="3" fill="#eab308" stroke="white" stroke-width="1"/>
  <circle cx="145.8" cy="392.4" r="3" fill="#eab308" stroke="white" stroke-width="1"/>
  <circle cx="201.7" cy="386.6" r="3" fill="#eab308" stroke="white" stroke-width="1"/>
  <circle cx="257.5" cy="382.1" r="3" fill="#eab308" stroke="white" stroke-width="1"/>
  <circle cx="313.3" cy="382.3" r="3" fill="#eab308" stroke="white" stroke-width="1"/>
  <circle cx="369.2" cy="367.3" r="3" fill="#eab308" stroke="white" stroke-width="1"/>
  <circle cx="425.0" cy="354.6" r="3" fill="#eab308" stroke="white" stroke-width="1"/>
  <circle cx="480.8" cy="345.6" r="3" fill="#eab308" stroke="white" stroke-width="1"/>
  <circle cx="536.7" cy="338.8" r="3" fill="#eab308" stroke="white" stroke-width="1"/>
  <circle cx="592.5" cy="335.2" r="3" fill="#eab308" stroke="white" stroke-width="1"/>
  <circle cx="648.3" cy="331.4" r="3" fill="#eab308" stroke="white" stroke-width="1"/>
  <circle cx="704.2" cy="328.5" r="3" fill="#eab308" stroke="white" stroke-width="1"/>
  <circle cx="760.0" cy="287.9" r="3" fill="#eab308" stroke="white" stroke-width="1"/>
  <polyline points="90.0,395.8 145.8,392.8 201.7,385.9 257.5,378.0 313.3,359.0 369.2,333.0 425.0,286.3 480.8,229.3 536.7,179.7 592.5,98.4 648.3,92.4 704.2,75.9 760.0,78.2" fill="none" stroke="#f97316" stroke-width="2.5" stroke-linecap="round" stroke-linejoin="round"/>
  <circle cx="90.0" cy="395.8" r="3" fill="#f97316" stroke="white" stroke-width="1"/>
  <circle cx="145.8" cy="392.8" r="3" fill="#f97316" stroke="white" stroke-width="1"/>
  <circle cx="201.7" cy="385.9" r="3" fill="#f97316" stroke="white" stroke-width="1"/>
  <circle cx="257.5" cy="378.0" r="3" fill="#f97316" stroke="white" stroke-width="1"/>
  <circle cx="313.3" cy="359.0" r="3" fill="#f97316" stroke="white" stroke-width="1"/>
  <circle cx="369.2" cy="333.0" r="3" fill="#f97316" stroke="white" stroke-width="1"/>
  <circle cx="425.0" cy="286.3" r="3" fill="#f97316" stroke="white" stroke-width="1"/>
  <circle cx="480.8" cy="229.3" r="3" fill="#f97316" stroke="white" stroke-width="1"/>
  <circle cx="536.7" cy="179.7" r="3" fill="#f97316" stroke="white" stroke-width="1"/>
  <circle cx="592.5" cy="98.4" r="3" fill="#f97316" stroke="white" stroke-width="1"/>
  <circle cx="648.3" cy="92.4" r="3" fill="#f97316" stroke="white" stroke-width="1"/>
  <circle cx="704.2" cy="75.9" r="3" fill="#f97316" stroke="white" stroke-width="1"/>
  <circle cx="760.0" cy="78.2" r="3" fill="#f97316" stroke="white" stroke-width="1"/>
  <polyline points="90.0,391.4 145.8,385.8 201.7,374.1 257.5,367.4 313.3,350.7 369.2,334.4 425.0,305.6 480.8,276.2 536.7,234.6 592.5,206.6 648.3,212.6 704.2,167.1 760.0,151.3" fill="none" stroke="#dc2626" stroke-width="2.5" stroke-linecap="round" stroke-linejoin="round"/>
  <circle cx="90.0" cy="391.4" r="3" fill="#dc2626" stroke="white" stroke-width="1"/>
  <circle cx="145.8" cy="385.8" r="3" fill="#dc2626" stroke="white" stroke-width="1"/>
  <circle cx="201.7" cy="374.1" r="3" fill="#dc2626" stroke="white" stroke-width="1"/>
  <circle cx="257.5" cy="367.4" r="3" fill="#dc2626" stroke="white" stroke-width="1"/>
  <circle cx="313.3" cy="350.7" r="3" fill="#dc2626" stroke="white" stroke-width="1"/>
  <circle cx="369.2" cy="334.4" r="3" fill="#dc2626" stroke="white" stroke-width="1"/>
  <circle cx="425.0" cy="305.6" r="3" fill="#dc2626" stroke="white" stroke-width="1"/>
  <circle cx="480.8" cy="276.2" r="3" fill="#dc2626" stroke="white" stroke-width="1"/>
  <circle cx="536.7" cy="234.6" r="3" fill="#dc2626" stroke="white" stroke-width="1"/>
  <circle cx="592.5" cy="206.6" r="3" fill="#dc2626" stroke="white" stroke-width="1"/>
  <circle cx="648.3" cy="212.6" r="3" fill="#dc2626" stroke="white" stroke-width="1"/>
  <circle cx="704.2" cy="167.1" r="3" fill="#dc2626" stroke="white" stroke-width="1"/>
  <circle cx="760.0" cy="151.3" r="3" fill="#dc2626" stroke="white" stroke-width="1"/>
  <text x="90.0" y="413.0" text-anchor="middle" fill="#374151" font-size="8.5">8 B</text>
  <text x="145.8" y="413.0" text-anchor="middle" fill="#374151" font-size="8.5">16 B</text>
  <text x="201.7" y="413.0" text-anchor="middle" fill="#374151" font-size="8.5">32 B</text>
  <text x="257.5" y="413.0" text-anchor="middle" fill="#374151" font-size="8.5">64 B</text>
  <text x="313.3" y="413.0" text-anchor="middle" fill="#374151" font-size="8.5">128 B</text>
  <text x="369.2" y="413.0" text-anchor="middle" fill="#374151" font-size="8.5">256 B</text>
  <text x="425.0" y="413.0" text-anchor="middle" fill="#374151" font-size="8.5">512 B</text>
  <text x="480.8" y="413.0" text-anchor="middle" fill="#374151" font-size="8.5">1 KiB</text>
  <text x="536.7" y="413.0" text-anchor="middle" fill="#374151" font-size="8.5">2 KiB</text>
  <text x="592.5" y="413.0" text-anchor="middle" fill="#374151" font-size="8.5">4 KiB</text>
  <text x="648.3" y="413.0" text-anchor="middle" fill="#374151" font-size="8.5">8 KiB</text>
  <text x="704.2" y="413.0" text-anchor="middle" fill="#374151" font-size="8.5">16 KiB</text>
  <text x="760.0" y="413.0" text-anchor="middle" fill="#374151" font-size="8.5">32 KiB</text>
  <text x="425.0" y="46" text-anchor="middle" fill="#9ca3af" font-size="10">Linux VM on a 2018 Mac Mini, Intel Core i7-8700B @ 3.20GHz, 6 cores, performance governor, turbo off</text>
  <line x1="112" y1="459" x2="126" y2="459" stroke="#eab308" stroke-width="2.5"/>
  <circle cx="120" cy="459" r="2.5" fill="#eab308"/>
  <text x="132" y="463" fill="#374151" font-size="11" font-weight="500">libzmq v4.3.5</text>
  <line x1="238" y1="459" x2="252" y2="459" stroke="#dc2626" stroke-width="2.5"/>
  <circle cx="244" cy="459" r="2.5" fill="#dc2626"/>
  <text x="258" y="463" fill="#374151" font-size="11" font-weight="500">omq-compio</text>
  <line x1="362" y1="459" x2="376" y2="459" stroke="#f97316" stroke-width="2.5"/>
  <circle cx="370" cy="459" r="2.5" fill="#f97316"/>
  <text x="382" y="463" fill="#374151" font-size="11" font-weight="500">omq-tokio</text>
  <line x1="488" y1="459" x2="502" y2="459" stroke="#2563eb" stroke-width="2.5"/>
  <circle cx="494" cy="459" r="2.5" fill="#2563eb"/>
  <text x="508" y="463" fill="#374151" font-size="11" font-weight="500">zmq.rs v0.6.0</text>
  <line x1="612" y1="459" x2="626" y2="459" stroke="#10b981" stroke-width="2.5"/>
  <circle cx="620" cy="459" r="2.5" fill="#10b981"/>
  <text x="632" y="463" fill="#374151" font-size="11" font-weight="500">rzmq v0.5.18</text>
  <line x1="265" y1="481" x2="285" y2="481" stroke="#6b7280" stroke-width="2" stroke-dasharray="6,4"/>
  <text x="291" y="485" fill="#6b7280" font-size="10">msg/s (left axis)</text>
  <line x1="435" y1="481" x2="455" y2="481" stroke="#6b7280" stroke-width="2"/>
  <circle cx="445" cy="481" r="2" fill="#6b7280"/>
  <text x="461" y="485" fill="#6b7280" font-size="10">throughput / GB/s (right axis)</text>
</svg>
