<svg xmlns="http://www.w3.org/2000/svg" viewBox="0 0 850 414" font-family="system-ui, -apple-system, sans-serif">
  <rect width="850" height="414" fill="white"/>
  <text x="425.0" y="32.0" text-anchor="middle" fill="#111827" font-size="13" font-weight="700">PUSH/PULL throughput: TCP loopback, 2-process (higher is better)</text>
  <line x1="90.0" y1="292.0" x2="760.0" y2="292.0" stroke="#e5e7eb" stroke-width="1"/>
  <text x="82.0" y="292.0" text-anchor="end" dominant-baseline="middle" fill="#374151" font-size="10">2M</text>
  <line x1="90.0" y1="265.0" x2="760.0" y2="265.0" stroke="#e5e7eb" stroke-width="1"/>
  <text x="82.0" y="265.0" text-anchor="end" dominant-baseline="middle" fill="#374151" font-size="10">4M</text>
  <line x1="90.0" y1="238.0" x2="760.0" y2="238.0" stroke="#e5e7eb" stroke-width="1"/>
  <text x="82.0" y="238.0" text-anchor="end" dominant-baseline="middle" fill="#374151" font-size="10">6M</text>
  <line x1="90.0" y1="211.0" x2="760.0" y2="211.0" stroke="#e5e7eb" stroke-width="1"/>
  <text x="82.0" y="211.0" text-anchor="end" dominant-baseline="middle" fill="#374151" font-size="10">8M</text>
  <line x1="90.0" y1="184.0" x2="760.0" y2="184.0" stroke="#e5e7eb" stroke-width="1"/>
  <text x="82.0" y="184.0" text-anchor="end" dominant-baseline="middle" fill="#374151" font-size="10">10M</text>
  <line x1="90.0" y1="157.0" x2="760.0" y2="157.0" stroke="#e5e7eb" stroke-width="1"/>
  <text x="82.0" y="157.0" text-anchor="end" dominant-baseline="middle" fill="#374151" font-size="10">12M</text>
  <line x1="90.0" y1="130.0" x2="760.0" y2="130.0" stroke="#e5e7eb" stroke-width="1"/>
  <text x="82.0" y="130.0" text-anchor="end" dominant-baseline="middle" fill="#374151" font-size="10">14M</text>
  <line x1="90.0" y1="103.0" x2="760.0" y2="103.0" stroke="#e5e7eb" stroke-width="1"/>
  <text x="82.0" y="103.0" text-anchor="end" dominant-baseline="middle" fill="#374151" font-size="10">16M</text>
  <line x1="90.0" y1="76.0" x2="760.0" y2="76.0" stroke="#e5e7eb" stroke-width="1"/>
  <text x="82.0" y="76.0" text-anchor="end" dominant-baseline="middle" fill="#374151" font-size="10">18M</text>
  <line x1="90.0" y1="49.0" x2="760.0" y2="49.0" stroke="#e5e7eb" stroke-width="1"/>
  <text x="82.0" y="49.0" text-anchor="end" dominant-baseline="middle" fill="#374151" font-size="10">20M</text>
  <line x1="90.0" y1="265.0" x2="760.0" y2="265.0" stroke="#e5e7eb" stroke-width="1" stroke-dasharray="3,6"/>
  <text x="768.0" y="265.0" text-anchor="start" dominant-baseline="middle" fill="#6b7280" font-size="10">1 GB/s</text>
  <line x1="90.0" y1="211.0" x2="760.0" y2="211.0" stroke="#e5e7eb" stroke-width="1" stroke-dasharray="3,6"/>
  <text x="768.0" y="211.0" text-anchor="start" dominant-baseline="middle" fill="#6b7280" font-size="10">2 GB/s</text>
  <line x1="90.0" y1="157.0" x2="760.0" y2="157.0" stroke="#e5e7eb" stroke-width="1" stroke-dasharray="3,6"/>
  <text x="768.0" y="157.0" text-anchor="start" dominant-baseline="middle" fill="#6b7280" font-size="10">3 GB/s</text>
  <line x1="90.0" y1="103.0" x2="760.0" y2="103.0" stroke="#e5e7eb" stroke-width="1" stroke-dasharray="3,6"/>
  <text x="768.0" y="103.0" text-anchor="start" dominant-baseline="middle" fill="#6b7280" font-size="10">4 GB/s</text>
  <line x1="90.0" y1="49.0" x2="760.0" y2="49.0" stroke="#e5e7eb" stroke-width="1" stroke-dasharray="3,6"/>
  <text x="768.0" y="49.0" text-anchor="start" dominant-baseline="middle" fill="#6b7280" font-size="10">5 GB/s</text>
  <line x1="90.0" y1="49.0" x2="90.0" y2="319.0" stroke="#e5e7eb" stroke-width="1"/>
  <line x1="145.8" y1="49.0" x2="145.8" y2="319.0" stroke="#e5e7eb" stroke-width="1"/>
  <line x1="201.7" y1="49.0" x2="201.7" y2="319.0" stroke="#e5e7eb" stroke-width="1"/>
  <line x1="257.5" y1="49.0" x2="257.5" y2="319.0" stroke="#e5e7eb" stroke-width="1"/>
  <line x1="313.3" y1="49.0" x2="313.3" y2="319.0" stroke="#e5e7eb" stroke-width="1"/>
  <line x1="369.2" y1="49.0" x2="369.2" y2="319.0" stroke="#e5e7eb" stroke-width="1"/>
  <line x1="425.0" y1="49.0" x2="425.0" y2="319.0" stroke="#e5e7eb" stroke-width="1"/>
  <line x1="480.8" y1="49.0" x2="480.8" y2="319.0" stroke="#e5e7eb" stroke-width="1"/>
  <line x1="536.7" y1="49.0" x2="536.7" y2="319.0" stroke="#e5e7eb" stroke-width="1"/>
  <line x1="592.5" y1="49.0" x2="592.5" y2="319.0" stroke="#e5e7eb" stroke-width="1"/>
  <line x1="648.3" y1="49.0" x2="648.3" y2="319.0" stroke="#e5e7eb" stroke-width="1"/>
  <line x1="704.2" y1="49.0" x2="704.2" y2="319.0" stroke="#e5e7eb" stroke-width="1"/>
  <line x1="760.0" y1="49.0" x2="760.0" y2="319.0" stroke="#e5e7eb" stroke-width="1"/>
  <line x1="90.0" y1="49.0" x2="90.0" y2="319.0" stroke="#9ca3af" stroke-width="1.5"/>
  <line x1="760.0" y1="49.0" x2="760.0" y2="319.0" stroke="#9ca3af" stroke-width="1.5"/>
  <line x1="90.0" y1="319.0" x2="760.0" y2="319.0" stroke="#9ca3af" stroke-width="1.5"/>
  <text x="40.0" y="184.0" text-anchor="middle" fill="#374151" font-size="10" font-weight="600" transform="rotate(-90,40.0,184.0)">msg/s</text>
  <polyline points="90.0,315.8 145.8,316.0 201.7,316.3 257.5,316.5 313.3,316.8 369.2,317.0 425.0,317.0 480.8,317.3 536.7,317.3 592.5,317.4 648.3,317.5 704.2,317.8 760.0,318.4" fill="none" stroke="#10b981" stroke-width="2" stroke-dasharray="6,4"/>
  <polyline points="90.0,314.3 145.8,314.4 201.7,315.0 257.5,315.4 313.3,315.6 369.2,315.7 425.0,315.9 480.8,315.9 536.7,316.2 592.5,316.4 648.3,316.8 704.2,317.1 760.0,317.7" fill="none" stroke="#2563eb" stroke-width="2" stroke-dasharray="6,4"/>
  <polyline points="90.0,228.8 145.8,224.5 201.7,226.3 257.5,257.0 313.3,288.4 369.2,290.6 425.0,298.3 480.8,307.0 536.7,312.1 592.5,315.3 648.3,317.1 704.2,318.0 760.0,318.2" fill="none" stroke="#eab308" stroke-width="2" stroke-dasharray="6,4"/>
  <polyline points="90.0,250.8 145.8,242.1 201.7,233.7 257.5,250.8 313.3,306.9 369.2,297.1 425.0,299.4 480.8,302.9 536.7,307.3 592.5,310.9 648.3,314.4 704.2,316.7 760.0,317.8" fill="none" stroke="#06b6d4" stroke-width="2" stroke-dasharray="6,4"/>
  <polyline points="90.0,223.8 145.8,248.8 201.7,237.3 257.5,244.3 313.3,248.7 369.2,259.7 425.0,268.1 480.8,280.1 536.7,293.7 592.5,303.2 648.3,309.7 704.2,314.5 760.0,316.8" fill="none" stroke="#f97316" stroke-width="2" stroke-dasharray="6,4"/>
  <polyline points="90.0,96.1 145.8,112.0 201.7,159.0 257.5,205.4 313.3,235.0 369.2,259.2 425.0,276.3 480.8,291.3 536.7,300.1 592.5,308.1 648.3,312.8 704.2,315.6 760.0,317.2" fill="none" stroke="#dc2626" stroke-width="2" stroke-dasharray="6,4"/>
  <polyline points="90.0,318.9 145.8,318.8 201.7,318.6 257.5,318.4 313.3,317.9 369.2,316.9 425.0,314.9 480.8,311.9 536.7,305.2 592.5,292.3 648.3,269.7 704.2,239.6 760.0,235.8" fill="none" stroke="#10b981" stroke-width="2.5" stroke-linecap="round" stroke-linejoin="round"/>
  <circle cx="90.0" cy="318.9" r="3" fill="#10b981" stroke="white" stroke-width="1"/>
  <circle cx="145.8" cy="318.8" r="3" fill="#10b981" stroke="white" stroke-width="1"/>
  <circle cx="201.7" cy="318.6" r="3" fill="#10b981" stroke="white" stroke-width="1"/>
  <circle cx="257.5" cy="318.4" r="3" fill="#10b981" stroke="white" stroke-width="1"/>
  <circle cx="313.3" cy="317.9" r="3" fill="#10b981" stroke="white" stroke-width="1"/>
  <circle cx="369.2" cy="316.9" r="3" fill="#10b981" stroke="white" stroke-width="1"/>
  <circle cx="425.0" cy="314.9" r="3" fill="#10b981" stroke="white" stroke-width="1"/>
  <circle cx="480.8" cy="311.9" r="3" fill="#10b981" stroke="white" stroke-width="1"/>
  <circle cx="536.7" cy="305.2" r="3" fill="#10b981" stroke="white" stroke-width="1"/>
  <circle cx="592.5" cy="292.3" r="3" fill="#10b981" stroke="white" stroke-width="1"/>
  <circle cx="648.3" cy="269.7" r="3" fill="#10b981" stroke="white" stroke-width="1"/>
  <circle cx="704.2" cy="239.6" r="3" fill="#10b981" stroke="white" stroke-width="1"/>
  <circle cx="760.0" cy="235.8" r="3" fill="#10b981" stroke="white" stroke-width="1"/>
  <polyline points="90.0,318.8 145.8,318.7 201.7,318.5 257.5,318.1 313.3,317.2 369.2,315.6 425.0,312.6 480.8,306.3 536.7,296.2 592.5,276.7 648.3,245.6 704.2,196.7 760.0,148.5" fill="none" stroke="#2563eb" stroke-width="2.5" stroke-linecap="round" stroke-linejoin="round"/>
  <circle cx="90.0" cy="318.8" r="3" fill="#2563eb" stroke="white" stroke-width="1"/>
  <circle cx="145.8" cy="318.7" r="3" fill="#2563eb" stroke="white" stroke-width="1"/>
  <circle cx="201.7" cy="318.5" r="3" fill="#2563eb" stroke="white" stroke-width="1"/>
  <circle cx="257.5" cy="318.1" r="3" fill="#2563eb" stroke="white" stroke-width="1"/>
  <circle cx="313.3" cy="317.2" r="3" fill="#2563eb" stroke="white" stroke-width="1"/>
  <circle cx="369.2" cy="315.6" r="3" fill="#2563eb" stroke="white" stroke-width="1"/>
  <circle cx="425.0" cy="312.6" r="3" fill="#2563eb" stroke="white" stroke-width="1"/>
  <circle cx="480.8" cy="306.3" r="3" fill="#2563eb" stroke="white" stroke-width="1"/>
  <circle cx="536.7" cy="296.2" r="3" fill="#2563eb" stroke="white" stroke-width="1"/>
  <circle cx="592.5" cy="276.7" r="3" fill="#2563eb" stroke="white" stroke-width="1"/>
  <circle cx="648.3" cy="245.6" r="3" fill="#2563eb" stroke="white" stroke-width="1"/>
  <circle cx="704.2" cy="196.7" r="3" fill="#2563eb" stroke="white" stroke-width="1"/>
  <circle cx="760.0" cy="148.5" r="3" fill="#2563eb" stroke="white" stroke-width="1"/>
  <polyline points="90.0,316.1 145.8,313.0 201.7,307.1 257.5,303.1 313.3,303.3 369.2,289.9 425.0,276.5 480.8,269.9 536.7,262.4 592.5,258.0 648.3,256.8 704.2,255.6 760.0,215.4" fill="none" stroke="#eab308" stroke-width="2.5" stroke-linecap="round" stroke-linejoin="round"/>
  <circle cx="90.0" cy="316.1" r="3" fill="#eab308" stroke="white" stroke-width="1"/>
  <circle cx="145.8" cy="313.0" r="3" fill="#eab308" stroke="white" stroke-width="1"/>
  <circle cx="201.7" cy="307.1" r="3" fill="#eab308" stroke="white" stroke-width="1"/>
  <circle cx="257.5" cy="303.1" r="3" fill="#eab308" stroke="white" stroke-width="1"/>
  <circle cx="313.3" cy="303.3" r="3" fill="#eab308" stroke="white" stroke-width="1"/>
  <circle cx="369.2" cy="289.9" r="3" fill="#eab308" stroke="white" stroke-width="1"/>
  <circle cx="425.0" cy="276.5" r="3" fill="#eab308" stroke="white" stroke-width="1"/>
  <circle cx="480.8" cy="269.9" r="3" fill="#eab308" stroke="white" stroke-width="1"/>
  <circle cx="536.7" cy="262.4" r="3" fill="#eab308" stroke="white" stroke-width="1"/>
  <circle cx="592.5" cy="258.0" r="3" fill="#eab308" stroke="white" stroke-width="1"/>
  <circle cx="648.3" cy="256.8" r="3" fill="#eab308" stroke="white" stroke-width="1"/>
  <circle cx="704.2" cy="255.6" r="3" fill="#eab308" stroke="white" stroke-width="1"/>
  <circle cx="760.0" cy="215.4" r="3" fill="#eab308" stroke="white" stroke-width="1"/>
  <polyline points="90.0,316.8 145.8,314.1 201.7,308.1 257.5,301.5 313.3,312.8 369.2,296.6 425.0,278.8 480.8,253.2 536.7,222.8 592.5,187.0 648.3,168.8 704.2,166.4 760.0,160.2" fill="none" stroke="#06b6d4" stroke-width="2.5" stroke-linecap="round" stroke-linejoin="round"/>
  <circle cx="90.0" cy="316.8" r="3" fill="#06b6d4" stroke="white" stroke-width="1"/>
  <circle cx="145.8" cy="314.1" r="3" fill="#06b6d4" stroke="white" stroke-width="1"/>
  <circle cx="201.7" cy="308.1" r="3" fill="#06b6d4" stroke="white" stroke-width="1"/>
  <circle cx="257.5" cy="301.5" r="3" fill="#06b6d4" stroke="white" stroke-width="1"/>
  <circle cx="313.3" cy="312.8" r="3" fill="#06b6d4" stroke="white" stroke-width="1"/>
  <circle cx="369.2" cy="296.6" r="3" fill="#06b6d4" stroke="white" stroke-width="1"/>
  <circle cx="425.0" cy="278.8" r="3" fill="#06b6d4" stroke="white" stroke-width="1"/>
  <circle cx="480.8" cy="253.2" r="3" fill="#06b6d4" stroke="white" stroke-width="1"/>
  <circle cx="536.7" cy="222.8" r="3" fill="#06b6d4" stroke="white" stroke-width="1"/>
  <circle cx="592.5" cy="187.0" r="3" fill="#06b6d4" stroke="white" stroke-width="1"/>
  <circle cx="648.3" cy="168.8" r="3" fill="#06b6d4" stroke="white" stroke-width="1"/>
  <circle cx="704.2" cy="166.4" r="3" fill="#06b6d4" stroke="white" stroke-width="1"/>
  <circle cx="760.0" cy="160.2" r="3" fill="#06b6d4" stroke="white" stroke-width="1"/>
  <polyline points="90.0,316.0 145.8,314.5 201.7,308.5 257.5,299.9 313.3,283.0 369.2,258.3 425.0,214.7 480.8,159.6 536.7,111.4 592.5,59.9 648.3,14.2 704.2,24.8 760.0,29.0" fill="none" stroke="#f97316" stroke-width="2.5" stroke-linecap="round" stroke-linejoin="round"/>
  <circle cx="90.0" cy="316.0" r="3" fill="#f97316" stroke="white" stroke-width="1"/>
  <circle cx="145.8" cy="314.5" r="3" fill="#f97316" stroke="white" stroke-width="1"/>
  <circle cx="201.7" cy="308.5" r="3" fill="#f97316" stroke="white" stroke-width="1"/>
  <circle cx="257.5" cy="299.9" r="3" fill="#f97316" stroke="white" stroke-width="1"/>
  <circle cx="313.3" cy="283.0" r="3" fill="#f97316" stroke="white" stroke-width="1"/>
  <circle cx="369.2" cy="258.3" r="3" fill="#f97316" stroke="white" stroke-width="1"/>
  <circle cx="425.0" cy="214.7" r="3" fill="#f97316" stroke="white" stroke-width="1"/>
  <circle cx="480.8" cy="159.6" r="3" fill="#f97316" stroke="white" stroke-width="1"/>
  <circle cx="536.7" cy="111.4" r="3" fill="#f97316" stroke="white" stroke-width="1"/>
  <circle cx="592.5" cy="59.9" r="3" fill="#f97316" stroke="white" stroke-width="1"/>
  <circle cx="648.3" cy="14.2" r="3" fill="#f97316" stroke="white" stroke-width="1"/>
  <circle cx="704.2" cy="24.8" r="3" fill="#f97316" stroke="white" stroke-width="1"/>
  <circle cx="760.0" cy="29.0" r="3" fill="#f97316" stroke="white" stroke-width="1"/>
  <polyline points="90.0,311.9 145.8,305.8 201.7,298.5 257.5,289.9 313.3,276.0 369.2,257.7 425.0,231.6 480.8,205.6 536.7,164.4 592.5,140.5 648.3,116.1 704.2,98.2 760.0,88.2" fill="none" stroke="#dc2626" stroke-width="2.5" stroke-linecap="round" stroke-linejoin="round"/>
  <circle cx="90.0" cy="311.9" r="3" fill="#dc2626" stroke="white" stroke-width="1"/>
  <circle cx="145.8" cy="305.8" r="3" fill="#dc2626" stroke="white" stroke-width="1"/>
  <circle cx="201.7" cy="298.5" r="3" fill="#dc2626" stroke="white" stroke-width="1"/>
  <circle cx="257.5" cy="289.9" r="3" fill="#dc2626" stroke="white" stroke-width="1"/>
  <circle cx="313.3" cy="276.0" r="3" fill="#dc2626" stroke="white" stroke-width="1"/>
  <circle cx="369.2" cy="257.7" r="3" fill="#dc2626" stroke="white" stroke-width="1"/>
  <circle cx="425.0" cy="231.6" r="3" fill="#dc2626" stroke="white" stroke-width="1"/>
  <circle cx="480.8" cy="205.6" r="3" fill="#dc2626" stroke="white" stroke-width="1"/>
  <circle cx="536.7" cy="164.4" r="3" fill="#dc2626" stroke="white" stroke-width="1"/>
  <circle cx="592.5" cy="140.5" r="3" fill="#dc2626" stroke="white" stroke-width="1"/>
  <circle cx="648.3" cy="116.1" r="3" fill="#dc2626" stroke="white" stroke-width="1"/>
  <circle cx="704.2" cy="98.2" r="3" fill="#dc2626" stroke="white" stroke-width="1"/>
  <circle cx="760.0" cy="88.2" r="3" fill="#dc2626" stroke="white" stroke-width="1"/>
  <text x="90.0" y="333.0" text-anchor="middle" fill="#374151" font-size="8.5">8 B</text>
  <text x="145.8" y="333.0" text-anchor="middle" fill="#374151" font-size="8.5">16 B</text>
  <text x="201.7" y="333.0" text-anchor="middle" fill="#374151" font-size="8.5">32 B</text>
  <text x="257.5" y="333.0" text-anchor="middle" fill="#374151" font-size="8.5">64 B</text>
  <text x="313.3" y="333.0" text-anchor="middle" fill="#374151" font-size="8.5">128 B</text>
  <text x="369.2" y="333.0" text-anchor="middle" fill="#374151" font-size="8.5">256 B</text>
  <text x="425.0" y="333.0" text-anchor="middle" fill="#374151" font-size="8.5">512 B</text>
  <text x="480.8" y="333.0" text-anchor="middle" fill="#374151" font-size="8.5">1 KiB</text>
  <text x="536.7" y="333.0" text-anchor="middle" fill="#374151" font-size="8.5">2 KiB</text>
  <text x="592.5" y="333.0" text-anchor="middle" fill="#374151" font-size="8.5">4 KiB</text>
  <text x="648.3" y="333.0" text-anchor="middle" fill="#374151" font-size="8.5">8 KiB</text>
  <text x="704.2" y="333.0" text-anchor="middle" fill="#374151" font-size="8.5">16 KiB</text>
  <text x="760.0" y="333.0" text-anchor="middle" fill="#374151" font-size="8.5">32 KiB</text>
  <text x="425.0" y="46" text-anchor="middle" fill="#9ca3af" font-size="10">Intel Core i7-8700B @ 3.20GHz, 6 cores</text>
  <line x1="50" y1="379" x2="64" y2="379" stroke="#eab308" stroke-width="2.5"/>
  <circle cx="57" cy="379" r="2.5" fill="#eab308"/>
  <text x="70" y="383" fill="#374151" font-size="11" font-weight="500">libzmq v4.3.5</text>
  <line x1="175" y1="379" x2="189" y2="379" stroke="#dc2626" stroke-width="2.5"/>
  <circle cx="182" cy="379" r="2.5" fill="#dc2626"/>
  <text x="195" y="383" fill="#374151" font-size="11" font-weight="500">omq-compio (MT)</text>
  <line x1="300" y1="379" x2="314" y2="379" stroke="#f97316" stroke-width="2.5"/>
  <circle cx="307" cy="379" r="2.5" fill="#f97316"/>
  <text x="320" y="383" fill="#374151" font-size="11" font-weight="500">omq-tokio</text>
  <line x1="425" y1="379" x2="439" y2="379" stroke="#2563eb" stroke-width="2.5"/>
  <circle cx="432" cy="379" r="2.5" fill="#2563eb"/>
  <text x="445" y="383" fill="#374151" font-size="11" font-weight="500">zmq.rs v0.6.0</text>
  <line x1="550" y1="379" x2="564" y2="379" stroke="#10b981" stroke-width="2.5"/>
  <circle cx="557" cy="379" r="2.5" fill="#10b981"/>
  <text x="570" y="383" fill="#374151" font-size="11" font-weight="500">rzmq v0.5.15</text>
  <line x1="675" y1="379" x2="689" y2="379" stroke="#06b6d4" stroke-width="2.5"/>
  <circle cx="682" cy="379" r="2.5" fill="#06b6d4"/>
  <text x="695" y="383" fill="#374151" font-size="11" font-weight="500">omq-libzmq</text>
  <line x1="265" y1="401" x2="285" y2="401" stroke="#6b7280" stroke-width="2" stroke-dasharray="6,4"/>
  <text x="291" y="405" fill="#6b7280" font-size="10">msg/s (left axis)</text>
  <line x1="435" y1="401" x2="455" y2="401" stroke="#6b7280" stroke-width="2"/>
  <circle cx="445" cy="401" r="2" fill="#6b7280"/>
  <text x="461" y="405" fill="#6b7280" font-size="10">throughput / GB/s (right axis)</text>
</svg>
