<svg xmlns="http://www.w3.org/2000/svg" viewBox="0 0 850 414" font-family="system-ui, -apple-system, sans-serif">
  <rect width="850" height="414" fill="white"/>
  <text x="425.0" y="32.0" text-anchor="middle" fill="#111827" font-size="13" font-weight="700">PUSH/PULL throughput: IPC, 2-process (higher is better)</text>
  <line x1="90.0" y1="292.0" x2="760.0" y2="292.0" stroke="#e5e7eb" stroke-width="1"/>
  <text x="82.0" y="292.0" text-anchor="end" dominant-baseline="middle" fill="#374151" font-size="10">2M</text>
  <line x1="90.0" y1="265.0" x2="760.0" y2="265.0" stroke="#e5e7eb" stroke-width="1"/>
  <text x="82.0" y="265.0" text-anchor="end" dominant-baseline="middle" fill="#374151" font-size="10">4M</text>
  <line x1="90.0" y1="238.0" x2="760.0" y2="238.0" stroke="#e5e7eb" stroke-width="1"/>
  <text x="82.0" y="238.0" text-anchor="end" dominant-baseline="middle" fill="#374151" font-size="10">6M</text>
  <line x1="90.0" y1="211.0" x2="760.0" y2="211.0" stroke="#e5e7eb" stroke-width="1"/>
  <text x="82.0" y="211.0" text-anchor="end" dominant-baseline="middle" fill="#374151" font-size="10">8M</text>
  <line x1="90.0" y1="184.0" x2="760.0" y2="184.0" stroke="#e5e7eb" stroke-width="1"/>
  <text x="82.0" y="184.0" text-anchor="end" dominant-baseline="middle" fill="#374151" font-size="10">10M</text>
  <line x1="90.0" y1="157.0" x2="760.0" y2="157.0" stroke="#e5e7eb" stroke-width="1"/>
  <text x="82.0" y="157.0" text-anchor="end" dominant-baseline="middle" fill="#374151" font-size="10">12M</text>
  <line x1="90.0" y1="130.0" x2="760.0" y2="130.0" stroke="#e5e7eb" stroke-width="1"/>
  <text x="82.0" y="130.0" text-anchor="end" dominant-baseline="middle" fill="#374151" font-size="10">14M</text>
  <line x1="90.0" y1="103.0" x2="760.0" y2="103.0" stroke="#e5e7eb" stroke-width="1"/>
  <text x="82.0" y="103.0" text-anchor="end" dominant-baseline="middle" fill="#374151" font-size="10">16M</text>
  <line x1="90.0" y1="76.0" x2="760.0" y2="76.0" stroke="#e5e7eb" stroke-width="1"/>
  <text x="82.0" y="76.0" text-anchor="end" dominant-baseline="middle" fill="#374151" font-size="10">18M</text>
  <line x1="90.0" y1="49.0" x2="760.0" y2="49.0" stroke="#e5e7eb" stroke-width="1"/>
  <text x="82.0" y="49.0" text-anchor="end" dominant-baseline="middle" fill="#374151" font-size="10">20M</text>
  <line x1="90.0" y1="265.0" x2="760.0" y2="265.0" stroke="#e5e7eb" stroke-width="1" stroke-dasharray="3,6"/>
  <text x="768.0" y="265.0" text-anchor="start" dominant-baseline="middle" fill="#6b7280" font-size="10">1 GB/s</text>
  <line x1="90.0" y1="211.0" x2="760.0" y2="211.0" stroke="#e5e7eb" stroke-width="1" stroke-dasharray="3,6"/>
  <text x="768.0" y="211.0" text-anchor="start" dominant-baseline="middle" fill="#6b7280" font-size="10">2 GB/s</text>
  <line x1="90.0" y1="157.0" x2="760.0" y2="157.0" stroke="#e5e7eb" stroke-width="1" stroke-dasharray="3,6"/>
  <text x="768.0" y="157.0" text-anchor="start" dominant-baseline="middle" fill="#6b7280" font-size="10">3 GB/s</text>
  <line x1="90.0" y1="103.0" x2="760.0" y2="103.0" stroke="#e5e7eb" stroke-width="1" stroke-dasharray="3,6"/>
  <text x="768.0" y="103.0" text-anchor="start" dominant-baseline="middle" fill="#6b7280" font-size="10">4 GB/s</text>
  <line x1="90.0" y1="49.0" x2="760.0" y2="49.0" stroke="#e5e7eb" stroke-width="1" stroke-dasharray="3,6"/>
  <text x="768.0" y="49.0" text-anchor="start" dominant-baseline="middle" fill="#6b7280" font-size="10">5 GB/s</text>
  <line x1="90.0" y1="49.0" x2="90.0" y2="319.0" stroke="#e5e7eb" stroke-width="1"/>
  <line x1="145.8" y1="49.0" x2="145.8" y2="319.0" stroke="#e5e7eb" stroke-width="1"/>
  <line x1="201.7" y1="49.0" x2="201.7" y2="319.0" stroke="#e5e7eb" stroke-width="1"/>
  <line x1="257.5" y1="49.0" x2="257.5" y2="319.0" stroke="#e5e7eb" stroke-width="1"/>
  <line x1="313.3" y1="49.0" x2="313.3" y2="319.0" stroke="#e5e7eb" stroke-width="1"/>
  <line x1="369.2" y1="49.0" x2="369.2" y2="319.0" stroke="#e5e7eb" stroke-width="1"/>
  <line x1="425.0" y1="49.0" x2="425.0" y2="319.0" stroke="#e5e7eb" stroke-width="1"/>
  <line x1="480.8" y1="49.0" x2="480.8" y2="319.0" stroke="#e5e7eb" stroke-width="1"/>
  <line x1="536.7" y1="49.0" x2="536.7" y2="319.0" stroke="#e5e7eb" stroke-width="1"/>
  <line x1="592.5" y1="49.0" x2="592.5" y2="319.0" stroke="#e5e7eb" stroke-width="1"/>
  <line x1="648.3" y1="49.0" x2="648.3" y2="319.0" stroke="#e5e7eb" stroke-width="1"/>
  <line x1="704.2" y1="49.0" x2="704.2" y2="319.0" stroke="#e5e7eb" stroke-width="1"/>
  <line x1="760.0" y1="49.0" x2="760.0" y2="319.0" stroke="#e5e7eb" stroke-width="1"/>
  <line x1="90.0" y1="49.0" x2="90.0" y2="319.0" stroke="#9ca3af" stroke-width="1.5"/>
  <line x1="760.0" y1="49.0" x2="760.0" y2="319.0" stroke="#9ca3af" stroke-width="1.5"/>
  <line x1="90.0" y1="319.0" x2="760.0" y2="319.0" stroke="#9ca3af" stroke-width="1.5"/>
  <text x="40.0" y="184.0" text-anchor="middle" fill="#374151" font-size="10" font-weight="600" transform="rotate(-90,40.0,184.0)">msg/s</text>
  <polyline points="90.0,314.4 145.8,314.3 201.7,314.2 257.5,314.3 313.3,314.5 369.2,314.4 425.0,314.4 480.8,314.8 536.7,315.0 592.5,315.7 648.3,316.9 704.2,317.1 760.0,317.7" fill="none" stroke="#10b981" stroke-width="2" stroke-dasharray="6,4"/>
  <polyline points="90.0,311.7 145.8,311.4 201.7,311.8 257.5,311.6 313.3,311.5 369.2,311.8 425.0,311.9 480.8,312.2 536.7,312.8 592.5,314.2 648.3,315.3 704.2,316.6 760.0,317.7" fill="none" stroke="#2563eb" stroke-width="2" stroke-dasharray="6,4"/>
  <polyline points="90.0,224.4 145.8,223.1 201.7,225.0 257.5,258.0 313.3,288.2 369.2,289.1 425.0,293.9 480.8,304.6 536.7,310.7 592.5,314.5 648.3,316.4 704.2,317.6 760.0,317.8" fill="none" stroke="#eab308" stroke-width="2" stroke-dasharray="6,4"/>
  <polyline points="90.0,259.7 145.8,255.1 201.7,250.8 257.5,249.6 313.3,293.8 369.2,296.3 425.0,298.1 480.8,302.3 536.7,308.8 592.5,311.8 648.3,314.0 704.2,316.3 760.0,317.7" fill="none" stroke="#06b6d4" stroke-width="2" stroke-dasharray="6,4"/>
  <polyline points="90.0,246.3 145.8,250.6 201.7,247.5 257.5,252.8 313.3,253.6 369.2,259.5 425.0,267.8 480.8,281.5 536.7,299.0 592.5,307.1 648.3,312.4 704.2,315.5 760.0,317.3" fill="none" stroke="#f97316" stroke-width="2" stroke-dasharray="6,4"/>
  <polyline points="90.0,103.2 145.8,116.6 201.7,147.4 257.5,200.7 313.3,228.3 369.2,254.5 425.0,272.0 480.8,287.3 536.7,297.1 592.5,306.1 648.3,311.9 704.2,315.3 760.0,317.3" fill="none" stroke="#dc2626" stroke-width="2" stroke-dasharray="6,4"/>
  <polyline points="90.0,318.9 145.8,318.7 201.7,318.4 257.5,317.8 313.3,316.7 369.2,314.3 425.0,309.5 480.8,301.9 536.7,286.5 592.5,265.2 648.3,250.3 704.2,196.8 760.0,152.0" fill="none" stroke="#10b981" stroke-width="2.5" stroke-linecap="round" stroke-linejoin="round"/>
  <circle cx="90.0" cy="318.9" r="3" fill="#10b981" stroke="white" stroke-width="1"/>
  <circle cx="145.8" cy="318.7" r="3" fill="#10b981" stroke="white" stroke-width="1"/>
  <circle cx="201.7" cy="318.4" r="3" fill="#10b981" stroke="white" stroke-width="1"/>
  <circle cx="257.5" cy="317.8" r="3" fill="#10b981" stroke="white" stroke-width="1"/>
  <circle cx="313.3" cy="316.7" r="3" fill="#10b981" stroke="white" stroke-width="1"/>
  <circle cx="369.2" cy="314.3" r="3" fill="#10b981" stroke="white" stroke-width="1"/>
  <circle cx="425.0" cy="309.5" r="3" fill="#10b981" stroke="white" stroke-width="1"/>
  <circle cx="480.8" cy="301.9" r="3" fill="#10b981" stroke="white" stroke-width="1"/>
  <circle cx="536.7" cy="286.5" r="3" fill="#10b981" stroke="white" stroke-width="1"/>
  <circle cx="592.5" cy="265.2" r="3" fill="#10b981" stroke="white" stroke-width="1"/>
  <circle cx="648.3" cy="250.3" r="3" fill="#10b981" stroke="white" stroke-width="1"/>
  <circle cx="704.2" cy="196.8" r="3" fill="#10b981" stroke="white" stroke-width="1"/>
  <circle cx="760.0" cy="152.0" r="3" fill="#10b981" stroke="white" stroke-width="1"/>
  <polyline points="90.0,318.8 145.8,318.5 201.7,318.1 257.5,317.1 313.3,315.2 369.2,311.6 425.0,304.4 480.8,291.3 536.7,268.2 592.5,240.9 648.3,197.7 704.2,164.7 760.0,142.1" fill="none" stroke="#2563eb" stroke-width="2.5" stroke-linecap="round" stroke-linejoin="round"/>
  <circle cx="90.0" cy="318.8" r="3" fill="#2563eb" stroke="white" stroke-width="1"/>
  <circle cx="145.8" cy="318.5" r="3" fill="#2563eb" stroke="white" stroke-width="1"/>
  <circle cx="201.7" cy="318.1" r="3" fill="#2563eb" stroke="white" stroke-width="1"/>
  <circle cx="257.5" cy="317.1" r="3" fill="#2563eb" stroke="white" stroke-width="1"/>
  <circle cx="313.3" cy="315.2" r="3" fill="#2563eb" stroke="white" stroke-width="1"/>
  <circle cx="369.2" cy="311.6" r="3" fill="#2563eb" stroke="white" stroke-width="1"/>
  <circle cx="425.0" cy="304.4" r="3" fill="#2563eb" stroke="white" stroke-width="1"/>
  <circle cx="480.8" cy="291.3" r="3" fill="#2563eb" stroke="white" stroke-width="1"/>
  <circle cx="536.7" cy="268.2" r="3" fill="#2563eb" stroke="white" stroke-width="1"/>
  <circle cx="592.5" cy="240.9" r="3" fill="#2563eb" stroke="white" stroke-width="1"/>
  <circle cx="648.3" cy="197.7" r="3" fill="#2563eb" stroke="white" stroke-width="1"/>
  <circle cx="704.2" cy="164.7" r="3" fill="#2563eb" stroke="white" stroke-width="1"/>
  <circle cx="760.0" cy="142.1" r="3" fill="#2563eb" stroke="white" stroke-width="1"/>
  <polyline points="90.0,316.0 145.8,312.9 201.7,307.0 257.5,303.4 313.3,303.2 369.2,288.4 425.0,267.7 480.8,260.1 536.7,250.7 592.5,245.5 648.3,233.6 704.2,224.8 760.0,166.1" fill="none" stroke="#eab308" stroke-width="2.5" stroke-linecap="round" stroke-linejoin="round"/>
  <circle cx="90.0" cy="316.0" r="3" fill="#eab308" stroke="white" stroke-width="1"/>
  <circle cx="145.8" cy="312.9" r="3" fill="#eab308" stroke="white" stroke-width="1"/>
  <circle cx="201.7" cy="307.0" r="3" fill="#eab308" stroke="white" stroke-width="1"/>
  <circle cx="257.5" cy="303.4" r="3" fill="#eab308" stroke="white" stroke-width="1"/>
  <circle cx="313.3" cy="303.2" r="3" fill="#eab308" stroke="white" stroke-width="1"/>
  <circle cx="369.2" cy="288.4" r="3" fill="#eab308" stroke="white" stroke-width="1"/>
  <circle cx="425.0" cy="267.7" r="3" fill="#eab308" stroke="white" stroke-width="1"/>
  <circle cx="480.8" cy="260.1" r="3" fill="#eab308" stroke="white" stroke-width="1"/>
  <circle cx="536.7" cy="250.7" r="3" fill="#eab308" stroke="white" stroke-width="1"/>
  <circle cx="592.5" cy="245.5" r="3" fill="#eab308" stroke="white" stroke-width="1"/>
  <circle cx="648.3" cy="233.6" r="3" fill="#eab308" stroke="white" stroke-width="1"/>
  <circle cx="704.2" cy="224.8" r="3" fill="#eab308" stroke="white" stroke-width="1"/>
  <circle cx="760.0" cy="166.1" r="3" fill="#eab308" stroke="white" stroke-width="1"/>
  <polyline points="90.0,317.1 145.8,314.9 201.7,310.3 257.5,301.2 313.3,306.1 369.2,295.8 425.0,276.3 480.8,250.6 536.7,235.4 592.5,200.4 648.3,156.5 704.2,142.4 760.0,150.1" fill="none" stroke="#06b6d4" stroke-width="2.5" stroke-linecap="round" stroke-linejoin="round"/>
  <circle cx="90.0" cy="317.1" r="3" fill="#06b6d4" stroke="white" stroke-width="1"/>
  <circle cx="145.8" cy="314.9" r="3" fill="#06b6d4" stroke="white" stroke-width="1"/>
  <circle cx="201.7" cy="310.3" r="3" fill="#06b6d4" stroke="white" stroke-width="1"/>
  <circle cx="257.5" cy="301.2" r="3" fill="#06b6d4" stroke="white" stroke-width="1"/>
  <circle cx="313.3" cy="306.1" r="3" fill="#06b6d4" stroke="white" stroke-width="1"/>
  <circle cx="369.2" cy="295.8" r="3" fill="#06b6d4" stroke="white" stroke-width="1"/>
  <circle cx="425.0" cy="276.3" r="3" fill="#06b6d4" stroke="white" stroke-width="1"/>
  <circle cx="480.8" cy="250.6" r="3" fill="#06b6d4" stroke="white" stroke-width="1"/>
  <circle cx="536.7" cy="235.4" r="3" fill="#06b6d4" stroke="white" stroke-width="1"/>
  <circle cx="592.5" cy="200.4" r="3" fill="#06b6d4" stroke="white" stroke-width="1"/>
  <circle cx="648.3" cy="156.5" r="3" fill="#06b6d4" stroke="white" stroke-width="1"/>
  <circle cx="704.2" cy="142.4" r="3" fill="#06b6d4" stroke="white" stroke-width="1"/>
  <circle cx="760.0" cy="150.1" r="3" fill="#06b6d4" stroke="white" stroke-width="1"/>
  <polyline points="90.0,316.7 145.8,314.6 201.7,309.9 257.5,302.0 313.3,285.5 369.2,258.0 425.0,214.2 480.8,165.2 536.7,155.4 592.5,123.5 648.3,103.6 704.2,86.8 760.0,91.1" fill="none" stroke="#f97316" stroke-width="2.5" stroke-linecap="round" stroke-linejoin="round"/>
  <circle cx="90.0" cy="316.7" r="3" fill="#f97316" stroke="white" stroke-width="1"/>
  <circle cx="145.8" cy="314.6" r="3" fill="#f97316" stroke="white" stroke-width="1"/>
  <circle cx="201.7" cy="309.9" r="3" fill="#f97316" stroke="white" stroke-width="1"/>
  <circle cx="257.5" cy="302.0" r="3" fill="#f97316" stroke="white" stroke-width="1"/>
  <circle cx="313.3" cy="285.5" r="3" fill="#f97316" stroke="white" stroke-width="1"/>
  <circle cx="369.2" cy="258.0" r="3" fill="#f97316" stroke="white" stroke-width="1"/>
  <circle cx="425.0" cy="214.2" r="3" fill="#f97316" stroke="white" stroke-width="1"/>
  <circle cx="480.8" cy="165.2" r="3" fill="#f97316" stroke="white" stroke-width="1"/>
  <circle cx="536.7" cy="155.4" r="3" fill="#f97316" stroke="white" stroke-width="1"/>
  <circle cx="592.5" cy="123.5" r="3" fill="#f97316" stroke="white" stroke-width="1"/>
  <circle cx="648.3" cy="103.6" r="3" fill="#f97316" stroke="white" stroke-width="1"/>
  <circle cx="704.2" cy="86.8" r="3" fill="#f97316" stroke="white" stroke-width="1"/>
  <circle cx="760.0" cy="91.1" r="3" fill="#f97316" stroke="white" stroke-width="1"/>
  <polyline points="90.0,312.1 145.8,306.0 201.7,297.0 257.5,288.7 313.3,272.6 369.2,252.9 425.0,222.7 480.8,189.0 536.7,140.0 592.5,107.6 648.3,88.0 704.2,77.5 760.0,93.1" fill="none" stroke="#dc2626" stroke-width="2.5" stroke-linecap="round" stroke-linejoin="round"/>
  <circle cx="90.0" cy="312.1" r="3" fill="#dc2626" stroke="white" stroke-width="1"/>
  <circle cx="145.8" cy="306.0" r="3" fill="#dc2626" stroke="white" stroke-width="1"/>
  <circle cx="201.7" cy="297.0" r="3" fill="#dc2626" stroke="white" stroke-width="1"/>
  <circle cx="257.5" cy="288.7" r="3" fill="#dc2626" stroke="white" stroke-width="1"/>
  <circle cx="313.3" cy="272.6" r="3" fill="#dc2626" stroke="white" stroke-width="1"/>
  <circle cx="369.2" cy="252.9" r="3" fill="#dc2626" stroke="white" stroke-width="1"/>
  <circle cx="425.0" cy="222.7" r="3" fill="#dc2626" stroke="white" stroke-width="1"/>
  <circle cx="480.8" cy="189.0" r="3" fill="#dc2626" stroke="white" stroke-width="1"/>
  <circle cx="536.7" cy="140.0" r="3" fill="#dc2626" stroke="white" stroke-width="1"/>
  <circle cx="592.5" cy="107.6" r="3" fill="#dc2626" stroke="white" stroke-width="1"/>
  <circle cx="648.3" cy="88.0" r="3" fill="#dc2626" stroke="white" stroke-width="1"/>
  <circle cx="704.2" cy="77.5" r="3" fill="#dc2626" stroke="white" stroke-width="1"/>
  <circle cx="760.0" cy="93.1" r="3" fill="#dc2626" stroke="white" stroke-width="1"/>
  <text x="90.0" y="333.0" text-anchor="middle" fill="#374151" font-size="8.5">8 B</text>
  <text x="145.8" y="333.0" text-anchor="middle" fill="#374151" font-size="8.5">16 B</text>
  <text x="201.7" y="333.0" text-anchor="middle" fill="#374151" font-size="8.5">32 B</text>
  <text x="257.5" y="333.0" text-anchor="middle" fill="#374151" font-size="8.5">64 B</text>
  <text x="313.3" y="333.0" text-anchor="middle" fill="#374151" font-size="8.5">128 B</text>
  <text x="369.2" y="333.0" text-anchor="middle" fill="#374151" font-size="8.5">256 B</text>
  <text x="425.0" y="333.0" text-anchor="middle" fill="#374151" font-size="8.5">512 B</text>
  <text x="480.8" y="333.0" text-anchor="middle" fill="#374151" font-size="8.5">1 KiB</text>
  <text x="536.7" y="333.0" text-anchor="middle" fill="#374151" font-size="8.5">2 KiB</text>
  <text x="592.5" y="333.0" text-anchor="middle" fill="#374151" font-size="8.5">4 KiB</text>
  <text x="648.3" y="333.0" text-anchor="middle" fill="#374151" font-size="8.5">8 KiB</text>
  <text x="704.2" y="333.0" text-anchor="middle" fill="#374151" font-size="8.5">16 KiB</text>
  <text x="760.0" y="333.0" text-anchor="middle" fill="#374151" font-size="8.5">32 KiB</text>
  <text x="425.0" y="46" text-anchor="middle" fill="#9ca3af" font-size="10">Intel Core i7-8700B @ 3.20GHz, 6 cores</text>
  <line x1="50" y1="379" x2="64" y2="379" stroke="#eab308" stroke-width="2.5"/>
  <circle cx="57" cy="379" r="2.5" fill="#eab308"/>
  <text x="70" y="383" fill="#374151" font-size="11" font-weight="500">libzmq v4.3.5</text>
  <line x1="175" y1="379" x2="189" y2="379" stroke="#dc2626" stroke-width="2.5"/>
  <circle cx="182" cy="379" r="2.5" fill="#dc2626"/>
  <text x="195" y="383" fill="#374151" font-size="11" font-weight="500">omq-compio (MT)</text>
  <line x1="300" y1="379" x2="314" y2="379" stroke="#f97316" stroke-width="2.5"/>
  <circle cx="307" cy="379" r="2.5" fill="#f97316"/>
  <text x="320" y="383" fill="#374151" font-size="11" font-weight="500">omq-tokio</text>
  <line x1="425" y1="379" x2="439" y2="379" stroke="#2563eb" stroke-width="2.5"/>
  <circle cx="432" cy="379" r="2.5" fill="#2563eb"/>
  <text x="445" y="383" fill="#374151" font-size="11" font-weight="500">zmq.rs v0.6.0</text>
  <line x1="550" y1="379" x2="564" y2="379" stroke="#10b981" stroke-width="2.5"/>
  <circle cx="557" cy="379" r="2.5" fill="#10b981"/>
  <text x="570" y="383" fill="#374151" font-size="11" font-weight="500">rzmq v0.5.15</text>
  <line x1="675" y1="379" x2="689" y2="379" stroke="#06b6d4" stroke-width="2.5"/>
  <circle cx="682" cy="379" r="2.5" fill="#06b6d4"/>
  <text x="695" y="383" fill="#374151" font-size="11" font-weight="500">omq-libzmq</text>
  <line x1="265" y1="401" x2="285" y2="401" stroke="#6b7280" stroke-width="2" stroke-dasharray="6,4"/>
  <text x="291" y="405" fill="#6b7280" font-size="10">msg/s (left axis)</text>
  <line x1="435" y1="401" x2="455" y2="401" stroke="#6b7280" stroke-width="2"/>
  <circle cx="445" cy="401" r="2" fill="#6b7280"/>
  <text x="461" y="405" fill="#6b7280" font-size="10">throughput / GB/s (right axis)</text>
</svg>
