<svg xmlns="http://www.w3.org/2000/svg" viewBox="0 0 850 414" font-family="system-ui, -apple-system, sans-serif">
  <rect width="850" height="414" fill="white"/>
  <text x="425.0" y="32.0" text-anchor="middle" fill="#111827" font-size="13" font-weight="700">PUSH/PULL throughput: inproc (higher is better)</text>
  <line x1="90.0" y1="292.0" x2="760.0" y2="292.0" stroke="#e5e7eb" stroke-width="1"/>
  <text x="82.0" y="292.0" text-anchor="end" dominant-baseline="middle" fill="#374151" font-size="10">1M</text>
  <line x1="90.0" y1="265.0" x2="760.0" y2="265.0" stroke="#e5e7eb" stroke-width="1"/>
  <text x="82.0" y="265.0" text-anchor="end" dominant-baseline="middle" fill="#374151" font-size="10">2M</text>
  <line x1="90.0" y1="238.0" x2="760.0" y2="238.0" stroke="#e5e7eb" stroke-width="1"/>
  <text x="82.0" y="238.0" text-anchor="end" dominant-baseline="middle" fill="#374151" font-size="10">3M</text>
  <line x1="90.0" y1="211.0" x2="760.0" y2="211.0" stroke="#e5e7eb" stroke-width="1"/>
  <text x="82.0" y="211.0" text-anchor="end" dominant-baseline="middle" fill="#374151" font-size="10">4M</text>
  <line x1="90.0" y1="184.0" x2="760.0" y2="184.0" stroke="#e5e7eb" stroke-width="1"/>
  <text x="82.0" y="184.0" text-anchor="end" dominant-baseline="middle" fill="#374151" font-size="10">5M</text>
  <line x1="90.0" y1="157.0" x2="760.0" y2="157.0" stroke="#e5e7eb" stroke-width="1"/>
  <text x="82.0" y="157.0" text-anchor="end" dominant-baseline="middle" fill="#374151" font-size="10">6M</text>
  <line x1="90.0" y1="130.0" x2="760.0" y2="130.0" stroke="#e5e7eb" stroke-width="1"/>
  <text x="82.0" y="130.0" text-anchor="end" dominant-baseline="middle" fill="#374151" font-size="10">7M</text>
  <line x1="90.0" y1="103.0" x2="760.0" y2="103.0" stroke="#e5e7eb" stroke-width="1"/>
  <text x="82.0" y="103.0" text-anchor="end" dominant-baseline="middle" fill="#374151" font-size="10">8M</text>
  <line x1="90.0" y1="76.0" x2="760.0" y2="76.0" stroke="#e5e7eb" stroke-width="1"/>
  <text x="82.0" y="76.0" text-anchor="end" dominant-baseline="middle" fill="#374151" font-size="10">9M</text>
  <line x1="90.0" y1="49.0" x2="760.0" y2="49.0" stroke="#e5e7eb" stroke-width="1"/>
  <text x="82.0" y="49.0" text-anchor="end" dominant-baseline="middle" fill="#374151" font-size="10">10M</text>
  <line x1="90.0" y1="319.0" x2="760.0" y2="319.0" stroke="#e5e7eb" stroke-width="1" stroke-dasharray="3,6"/>
  <text x="768.0" y="319.0" text-anchor="start" dominant-baseline="middle" fill="#6b7280" font-size="10">0.001 GB/s</text>
  <line x1="90.0" y1="305.5" x2="760.0" y2="305.5" stroke="#e5e7eb" stroke-width="1" stroke-dasharray="2,8"/>
  <line x1="90.0" y1="287.5" x2="760.0" y2="287.5" stroke="#e5e7eb" stroke-width="1" stroke-dasharray="2,8"/>
  <line x1="90.0" y1="274.0" x2="760.0" y2="274.0" stroke="#e5e7eb" stroke-width="1" stroke-dasharray="3,6"/>
  <text x="768.0" y="274.0" text-anchor="start" dominant-baseline="middle" fill="#6b7280" font-size="10">0.01 GB/s</text>
  <line x1="90.0" y1="260.5" x2="760.0" y2="260.5" stroke="#e5e7eb" stroke-width="1" stroke-dasharray="2,8"/>
  <line x1="90.0" y1="242.5" x2="760.0" y2="242.5" stroke="#e5e7eb" stroke-width="1" stroke-dasharray="2,8"/>
  <line x1="90.0" y1="229.0" x2="760.0" y2="229.0" stroke="#e5e7eb" stroke-width="1" stroke-dasharray="3,6"/>
  <text x="768.0" y="229.0" text-anchor="start" dominant-baseline="middle" fill="#6b7280" font-size="10">0.1 GB/s</text>
  <line x1="90.0" y1="215.5" x2="760.0" y2="215.5" stroke="#e5e7eb" stroke-width="1" stroke-dasharray="2,8"/>
  <line x1="90.0" y1="197.5" x2="760.0" y2="197.5" stroke="#e5e7eb" stroke-width="1" stroke-dasharray="2,8"/>
  <line x1="90.0" y1="184.0" x2="760.0" y2="184.0" stroke="#e5e7eb" stroke-width="1" stroke-dasharray="3,6"/>
  <text x="768.0" y="184.0" text-anchor="start" dominant-baseline="middle" fill="#6b7280" font-size="10">1 GB/s</text>
  <line x1="90.0" y1="170.5" x2="760.0" y2="170.5" stroke="#e5e7eb" stroke-width="1" stroke-dasharray="2,8"/>
  <line x1="90.0" y1="152.5" x2="760.0" y2="152.5" stroke="#e5e7eb" stroke-width="1" stroke-dasharray="2,8"/>
  <line x1="90.0" y1="139.0" x2="760.0" y2="139.0" stroke="#e5e7eb" stroke-width="1" stroke-dasharray="3,6"/>
  <text x="768.0" y="139.0" text-anchor="start" dominant-baseline="middle" fill="#6b7280" font-size="10">10 GB/s</text>
  <line x1="90.0" y1="125.5" x2="760.0" y2="125.5" stroke="#e5e7eb" stroke-width="1" stroke-dasharray="2,8"/>
  <line x1="90.0" y1="107.5" x2="760.0" y2="107.5" stroke="#e5e7eb" stroke-width="1" stroke-dasharray="2,8"/>
  <line x1="90.0" y1="94.0" x2="760.0" y2="94.0" stroke="#e5e7eb" stroke-width="1" stroke-dasharray="3,6"/>
  <text x="768.0" y="94.0" text-anchor="start" dominant-baseline="middle" fill="#6b7280" font-size="10">100 GB/s</text>
  <line x1="90.0" y1="80.5" x2="760.0" y2="80.5" stroke="#e5e7eb" stroke-width="1" stroke-dasharray="2,8"/>
  <line x1="90.0" y1="62.5" x2="760.0" y2="62.5" stroke="#e5e7eb" stroke-width="1" stroke-dasharray="2,8"/>
  <line x1="90.0" y1="49.0" x2="760.0" y2="49.0" stroke="#e5e7eb" stroke-width="1" stroke-dasharray="3,6"/>
  <text x="768.0" y="49.0" text-anchor="start" dominant-baseline="middle" fill="#6b7280" font-size="10">1000 GB/s</text>
  <line x1="90.0" y1="49.0" x2="90.0" y2="319.0" stroke="#e5e7eb" stroke-width="1"/>
  <line x1="145.8" y1="49.0" x2="145.8" y2="319.0" stroke="#e5e7eb" stroke-width="1"/>
  <line x1="201.7" y1="49.0" x2="201.7" y2="319.0" stroke="#e5e7eb" stroke-width="1"/>
  <line x1="257.5" y1="49.0" x2="257.5" y2="319.0" stroke="#e5e7eb" stroke-width="1"/>
  <line x1="313.3" y1="49.0" x2="313.3" y2="319.0" stroke="#e5e7eb" stroke-width="1"/>
  <line x1="369.2" y1="49.0" x2="369.2" y2="319.0" stroke="#e5e7eb" stroke-width="1"/>
  <line x1="425.0" y1="49.0" x2="425.0" y2="319.0" stroke="#e5e7eb" stroke-width="1"/>
  <line x1="480.8" y1="49.0" x2="480.8" y2="319.0" stroke="#e5e7eb" stroke-width="1"/>
  <line x1="536.7" y1="49.0" x2="536.7" y2="319.0" stroke="#e5e7eb" stroke-width="1"/>
  <line x1="592.5" y1="49.0" x2="592.5" y2="319.0" stroke="#e5e7eb" stroke-width="1"/>
  <line x1="648.3" y1="49.0" x2="648.3" y2="319.0" stroke="#e5e7eb" stroke-width="1"/>
  <line x1="704.2" y1="49.0" x2="704.2" y2="319.0" stroke="#e5e7eb" stroke-width="1"/>
  <line x1="760.0" y1="49.0" x2="760.0" y2="319.0" stroke="#e5e7eb" stroke-width="1"/>
  <line x1="90.0" y1="49.0" x2="90.0" y2="319.0" stroke="#9ca3af" stroke-width="1.5"/>
  <line x1="760.0" y1="49.0" x2="760.0" y2="319.0" stroke="#9ca3af" stroke-width="1.5"/>
  <line x1="90.0" y1="319.0" x2="760.0" y2="319.0" stroke="#9ca3af" stroke-width="1.5"/>
  <text x="40.0" y="184.0" text-anchor="middle" fill="#374151" font-size="10" font-weight="600" transform="rotate(-90,40.0,184.0)">msg/s</text>
  <polyline points="90.0,292.7 145.8,292.0 201.7,292.3 257.5,292.3 313.3,292.6 369.2,292.6 425.0,293.7 480.8,292.3 536.7,292.4 592.5,292.4 648.3,292.4 704.2,292.4 760.0,292.2" fill="none" stroke="#10b981" stroke-width="2" stroke-dasharray="6,4"/>
  <polyline points="90.0,87.2 145.8,80.8 201.7,84.1 257.5,185.1 313.3,257.9 369.2,258.1 425.0,261.1 480.8,272.4 536.7,277.9 592.5,279.9 648.3,284.8 704.2,291.8 760.0,302.4" fill="none" stroke="#eab308" stroke-width="2" stroke-dasharray="6,4"/>
  <polyline points="90.0,202.6 145.8,197.1 201.7,187.9 257.5,190.1 313.3,183.7 369.2,189.4 425.0,187.5 480.8,203.1 536.7,237.8 592.5,235.8 648.3,250.9 704.2,288.0 760.0,308.4" fill="none" stroke="#06b6d4" stroke-width="2" stroke-dasharray="6,4"/>
  <polyline points="90.0,249.3 145.8,243.4 201.7,250.2 257.5,233.5 313.3,225.1 369.2,230.4 425.0,233.3 480.8,236.3 536.7,240.8 592.5,223.4 648.3,233.1 704.2,240.6 760.0,238.6" fill="none" stroke="#f97316" stroke-width="2" stroke-dasharray="6,4"/>
  <polyline points="90.0,195.6 145.8,201.6 201.7,191.9 257.5,199.2 313.3,203.5 369.2,197.9 425.0,201.6 480.8,202.1 536.7,193.2 592.5,199.9 648.3,200.0 704.2,198.9 760.0,195.0" fill="none" stroke="#8b5cf6" stroke-width="2" stroke-dasharray="6,4"/>
  <polyline points="90.0,219.1 145.8,207.8 201.7,215.1 257.5,181.6 313.3,158.8 369.2,159.3 425.0,169.6 480.8,181.3 536.7,204.7 592.5,155.3 648.3,150.2 704.2,151.5 760.0,147.5" fill="none" stroke="#dc2626" stroke-width="2" stroke-dasharray="6,4"/>
  <polyline points="90.0,278.9 145.8,264.8 201.7,251.5 257.5,238.0 313.3,224.6 369.2,211.1 425.0,198.3 480.8,183.7 536.7,170.3 592.5,156.7 648.3,143.2 704.2,129.7 760.0,116.0" fill="none" stroke="#10b981" stroke-width="2.5" stroke-linecap="round" stroke-linejoin="round"/>
  <circle cx="90.0" cy="278.9" r="3" fill="#10b981" stroke="white" stroke-width="1"/>
  <circle cx="145.8" cy="264.8" r="3" fill="#10b981" stroke="white" stroke-width="1"/>
  <circle cx="201.7" cy="251.5" r="3" fill="#10b981" stroke="white" stroke-width="1"/>
  <circle cx="257.5" cy="238.0" r="3" fill="#10b981" stroke="white" stroke-width="1"/>
  <circle cx="313.3" cy="224.6" r="3" fill="#10b981" stroke="white" stroke-width="1"/>
  <circle cx="369.2" cy="211.1" r="3" fill="#10b981" stroke="white" stroke-width="1"/>
  <circle cx="425.0" cy="198.3" r="3" fill="#10b981" stroke="white" stroke-width="1"/>
  <circle cx="480.8" cy="183.7" r="3" fill="#10b981" stroke="white" stroke-width="1"/>
  <circle cx="536.7" cy="170.3" r="3" fill="#10b981" stroke="white" stroke-width="1"/>
  <circle cx="592.5" cy="156.7" r="3" fill="#10b981" stroke="white" stroke-width="1"/>
  <circle cx="648.3" cy="143.2" r="3" fill="#10b981" stroke="white" stroke-width="1"/>
  <circle cx="704.2" cy="129.7" r="3" fill="#10b981" stroke="white" stroke-width="1"/>
  <circle cx="760.0" cy="116.0" r="3" fill="#10b981" stroke="white" stroke-width="1"/>
  <polyline points="90.0,236.3 145.8,222.3 201.7,209.0 257.5,206.4 313.3,208.2 369.2,194.7 425.0,182.2 480.8,172.9 536.7,161.8 592.5,149.2 648.3,138.3 704.2,129.2 760.0,125.3" fill="none" stroke="#eab308" stroke-width="2.5" stroke-linecap="round" stroke-linejoin="round"/>
  <circle cx="90.0" cy="236.3" r="3" fill="#eab308" stroke="white" stroke-width="1"/>
  <circle cx="145.8" cy="222.3" r="3" fill="#eab308" stroke="white" stroke-width="1"/>
  <circle cx="201.7" cy="209.0" r="3" fill="#eab308" stroke="white" stroke-width="1"/>
  <circle cx="257.5" cy="206.4" r="3" fill="#eab308" stroke="white" stroke-width="1"/>
  <circle cx="313.3" cy="208.2" r="3" fill="#eab308" stroke="white" stroke-width="1"/>
  <circle cx="369.2" cy="194.7" r="3" fill="#eab308" stroke="white" stroke-width="1"/>
  <circle cx="425.0" cy="182.2" r="3" fill="#eab308" stroke="white" stroke-width="1"/>
  <circle cx="480.8" cy="172.9" r="3" fill="#eab308" stroke="white" stroke-width="1"/>
  <circle cx="536.7" cy="161.8" r="3" fill="#eab308" stroke="white" stroke-width="1"/>
  <circle cx="592.5" cy="149.2" r="3" fill="#eab308" stroke="white" stroke-width="1"/>
  <circle cx="648.3" cy="138.3" r="3" fill="#eab308" stroke="white" stroke-width="1"/>
  <circle cx="704.2" cy="129.2" r="3" fill="#eab308" stroke="white" stroke-width="1"/>
  <circle cx="760.0" cy="125.3" r="3" fill="#eab308" stroke="white" stroke-width="1"/>
  <polyline points="90.0,249.8 145.8,235.4 201.7,220.4 257.5,207.2 313.3,192.7 369.2,180.0 425.0,166.1 480.8,155.1 536.7,148.5 592.5,134.4 648.3,124.8 704.2,126.7 760.0,134.1" fill="none" stroke="#06b6d4" stroke-width="2.5" stroke-linecap="round" stroke-linejoin="round"/>
  <circle cx="90.0" cy="249.8" r="3" fill="#06b6d4" stroke="white" stroke-width="1"/>
  <circle cx="145.8" cy="235.4" r="3" fill="#06b6d4" stroke="white" stroke-width="1"/>
  <circle cx="201.7" cy="220.4" r="3" fill="#06b6d4" stroke="white" stroke-width="1"/>
  <circle cx="257.5" cy="207.2" r="3" fill="#06b6d4" stroke="white" stroke-width="1"/>
  <circle cx="313.3" cy="192.7" r="3" fill="#06b6d4" stroke="white" stroke-width="1"/>
  <circle cx="369.2" cy="180.0" r="3" fill="#06b6d4" stroke="white" stroke-width="1"/>
  <circle cx="425.0" cy="166.1" r="3" fill="#06b6d4" stroke="white" stroke-width="1"/>
  <circle cx="480.8" cy="155.1" r="3" fill="#06b6d4" stroke="white" stroke-width="1"/>
  <circle cx="536.7" cy="148.5" r="3" fill="#06b6d4" stroke="white" stroke-width="1"/>
  <circle cx="592.5" cy="134.4" r="3" fill="#06b6d4" stroke="white" stroke-width="1"/>
  <circle cx="648.3" cy="124.8" r="3" fill="#06b6d4" stroke="white" stroke-width="1"/>
  <circle cx="704.2" cy="126.7" r="3" fill="#06b6d4" stroke="white" stroke-width="1"/>
  <circle cx="760.0" cy="134.1" r="3" fill="#06b6d4" stroke="white" stroke-width="1"/>
  <polyline points="90.0,259.8 145.8,244.7 201.7,233.0 257.5,215.2 313.3,199.8 369.2,187.4 425.0,174.5 480.8,161.7 536.7,149.2 592.5,131.7 648.3,120.3 704.2,108.5 760.0,94.5" fill="none" stroke="#f97316" stroke-width="2.5" stroke-linecap="round" stroke-linejoin="round"/>
  <circle cx="90.0" cy="259.8" r="3" fill="#f97316" stroke="white" stroke-width="1"/>
  <circle cx="145.8" cy="244.7" r="3" fill="#f97316" stroke="white" stroke-width="1"/>
  <circle cx="201.7" cy="233.0" r="3" fill="#f97316" stroke="white" stroke-width="1"/>
  <circle cx="257.5" cy="215.2" r="3" fill="#f97316" stroke="white" stroke-width="1"/>
  <circle cx="313.3" cy="199.8" r="3" fill="#f97316" stroke="white" stroke-width="1"/>
  <circle cx="369.2" cy="187.4" r="3" fill="#f97316" stroke="white" stroke-width="1"/>
  <circle cx="425.0" cy="174.5" r="3" fill="#f97316" stroke="white" stroke-width="1"/>
  <circle cx="480.8" cy="161.7" r="3" fill="#f97316" stroke="white" stroke-width="1"/>
  <circle cx="536.7" cy="149.2" r="3" fill="#f97316" stroke="white" stroke-width="1"/>
  <circle cx="592.5" cy="131.7" r="3" fill="#f97316" stroke="white" stroke-width="1"/>
  <circle cx="648.3" cy="120.3" r="3" fill="#f97316" stroke="white" stroke-width="1"/>
  <circle cx="704.2" cy="108.5" r="3" fill="#f97316" stroke="white" stroke-width="1"/>
  <circle cx="760.0" cy="94.5" r="3" fill="#f97316" stroke="white" stroke-width="1"/>
  <polyline points="90.0,248.6 145.8,236.1 201.7,221.0 257.5,208.6 313.3,195.8 369.2,181.3 425.0,168.4 480.8,154.9 536.7,139.9 592.5,127.4 648.3,113.9 704.2,100.2 760.0,86.0" fill="none" stroke="#8b5cf6" stroke-width="2.5" stroke-linecap="round" stroke-linejoin="round"/>
  <circle cx="90.0" cy="248.6" r="3" fill="#8b5cf6" stroke="white" stroke-width="1"/>
  <circle cx="145.8" cy="236.1" r="3" fill="#8b5cf6" stroke="white" stroke-width="1"/>
  <circle cx="201.7" cy="221.0" r="3" fill="#8b5cf6" stroke="white" stroke-width="1"/>
  <circle cx="257.5" cy="208.6" r="3" fill="#8b5cf6" stroke="white" stroke-width="1"/>
  <circle cx="313.3" cy="195.8" r="3" fill="#8b5cf6" stroke="white" stroke-width="1"/>
  <circle cx="369.2" cy="181.3" r="3" fill="#8b5cf6" stroke="white" stroke-width="1"/>
  <circle cx="425.0" cy="168.4" r="3" fill="#8b5cf6" stroke="white" stroke-width="1"/>
  <circle cx="480.8" cy="154.9" r="3" fill="#8b5cf6" stroke="white" stroke-width="1"/>
  <circle cx="536.7" cy="139.9" r="3" fill="#8b5cf6" stroke="white" stroke-width="1"/>
  <circle cx="592.5" cy="127.4" r="3" fill="#8b5cf6" stroke="white" stroke-width="1"/>
  <circle cx="648.3" cy="113.9" r="3" fill="#8b5cf6" stroke="white" stroke-width="1"/>
  <circle cx="704.2" cy="100.2" r="3" fill="#8b5cf6" stroke="white" stroke-width="1"/>
  <circle cx="760.0" cy="86.0" r="3" fill="#8b5cf6" stroke="white" stroke-width="1"/>
  <polyline points="90.0,252.8 145.8,237.2 201.7,224.9 257.5,205.9 313.3,189.4 369.2,175.9 425.0,163.7 480.8,151.7 536.7,141.8 592.5,121.2 648.3,107.1 704.2,93.7 760.0,79.7" fill="none" stroke="#dc2626" stroke-width="2.5" stroke-linecap="round" stroke-linejoin="round"/>
  <circle cx="90.0" cy="252.8" r="3" fill="#dc2626" stroke="white" stroke-width="1"/>
  <circle cx="145.8" cy="237.2" r="3" fill="#dc2626" stroke="white" stroke-width="1"/>
  <circle cx="201.7" cy="224.9" r="3" fill="#dc2626" stroke="white" stroke-width="1"/>
  <circle cx="257.5" cy="205.9" r="3" fill="#dc2626" stroke="white" stroke-width="1"/>
  <circle cx="313.3" cy="189.4" r="3" fill="#dc2626" stroke="white" stroke-width="1"/>
  <circle cx="369.2" cy="175.9" r="3" fill="#dc2626" stroke="white" stroke-width="1"/>
  <circle cx="425.0" cy="163.7" r="3" fill="#dc2626" stroke="white" stroke-width="1"/>
  <circle cx="480.8" cy="151.7" r="3" fill="#dc2626" stroke="white" stroke-width="1"/>
  <circle cx="536.7" cy="141.8" r="3" fill="#dc2626" stroke="white" stroke-width="1"/>
  <circle cx="592.5" cy="121.2" r="3" fill="#dc2626" stroke="white" stroke-width="1"/>
  <circle cx="648.3" cy="107.1" r="3" fill="#dc2626" stroke="white" stroke-width="1"/>
  <circle cx="704.2" cy="93.7" r="3" fill="#dc2626" stroke="white" stroke-width="1"/>
  <circle cx="760.0" cy="79.7" r="3" fill="#dc2626" stroke="white" stroke-width="1"/>
  <text x="90.0" y="333.0" text-anchor="middle" fill="#374151" font-size="8.5">8 B</text>
  <text x="145.8" y="333.0" text-anchor="middle" fill="#374151" font-size="8.5">16 B</text>
  <text x="201.7" y="333.0" text-anchor="middle" fill="#374151" font-size="8.5">32 B</text>
  <text x="257.5" y="333.0" text-anchor="middle" fill="#374151" font-size="8.5">64 B</text>
  <text x="313.3" y="333.0" text-anchor="middle" fill="#374151" font-size="8.5">128 B</text>
  <text x="369.2" y="333.0" text-anchor="middle" fill="#374151" font-size="8.5">256 B</text>
  <text x="425.0" y="333.0" text-anchor="middle" fill="#374151" font-size="8.5">512 B</text>
  <text x="480.8" y="333.0" text-anchor="middle" fill="#374151" font-size="8.5">1 KiB</text>
  <text x="536.7" y="333.0" text-anchor="middle" fill="#374151" font-size="8.5">2 KiB</text>
  <text x="592.5" y="333.0" text-anchor="middle" fill="#374151" font-size="8.5">4 KiB</text>
  <text x="648.3" y="333.0" text-anchor="middle" fill="#374151" font-size="8.5">8 KiB</text>
  <text x="704.2" y="333.0" text-anchor="middle" fill="#374151" font-size="8.5">16 KiB</text>
  <text x="760.0" y="333.0" text-anchor="middle" fill="#374151" font-size="8.5">32 KiB</text>
  <text x="425.0" y="46" text-anchor="middle" fill="#9ca3af" font-size="10">Intel Core i7-8700B @ 3.20GHz, 6 cores</text>
  <line x1="50" y1="379" x2="64" y2="379" stroke="#eab308" stroke-width="2.5"/>
  <circle cx="57" cy="379" r="2.5" fill="#eab308"/>
  <text x="70" y="383" fill="#374151" font-size="11" font-weight="500">libzmq v4.3.5</text>
  <line x1="175" y1="379" x2="189" y2="379" stroke="#dc2626" stroke-width="2.5"/>
  <circle cx="182" cy="379" r="2.5" fill="#dc2626"/>
  <text x="195" y="383" fill="#374151" font-size="11" font-weight="500">omq-compio (MT)</text>
  <line x1="300" y1="379" x2="314" y2="379" stroke="#8b5cf6" stroke-width="2.5"/>
  <circle cx="307" cy="379" r="2.5" fill="#8b5cf6"/>
  <text x="320" y="383" fill="#374151" font-size="11" font-weight="500">omq-compio (ST)</text>
  <line x1="425" y1="379" x2="439" y2="379" stroke="#f97316" stroke-width="2.5"/>
  <circle cx="432" cy="379" r="2.5" fill="#f97316"/>
  <text x="445" y="383" fill="#374151" font-size="11" font-weight="500">omq-tokio</text>
  <line x1="550" y1="379" x2="564" y2="379" stroke="#10b981" stroke-width="2.5"/>
  <circle cx="557" cy="379" r="2.5" fill="#10b981"/>
  <text x="570" y="383" fill="#374151" font-size="11" font-weight="500">rzmq v0.5.15</text>
  <line x1="675" y1="379" x2="689" y2="379" stroke="#06b6d4" stroke-width="2.5"/>
  <circle cx="682" cy="379" r="2.5" fill="#06b6d4"/>
  <text x="695" y="383" fill="#374151" font-size="11" font-weight="500">omq-libzmq</text>
  <line x1="265" y1="401" x2="285" y2="401" stroke="#6b7280" stroke-width="2" stroke-dasharray="6,4"/>
  <text x="291" y="405" fill="#6b7280" font-size="10">msg/s (left axis)</text>
  <line x1="435" y1="401" x2="455" y2="401" stroke="#6b7280" stroke-width="2"/>
  <circle cx="445" cy="401" r="2" fill="#6b7280"/>
  <text x="461" y="405" fill="#6b7280" font-size="10">throughput / GB/s (right axis, log)</text>
</svg>
