<svg xmlns="http://www.w3.org/2000/svg" viewBox="0 0 850 494" font-family="system-ui, -apple-system, sans-serif">
  <rect width="850" height="494" fill="white"/>
  <text x="425.0" y="32.0" text-anchor="middle" fill="#111827" font-size="13" font-weight="700">PUSH/PULL throughput: IPC, 2-process (higher is better)</text>
  <line x1="90.0" y1="381.5" x2="760.0" y2="381.5" stroke="#e5e7eb" stroke-width="1"/>
  <text x="82.0" y="381.5" text-anchor="end" dominant-baseline="middle" fill="#374151" font-size="10">200k</text>
  <line x1="90.0" y1="364.0" x2="760.0" y2="364.0" stroke="#e5e7eb" stroke-width="1"/>
  <text x="82.0" y="364.0" text-anchor="end" dominant-baseline="middle" fill="#374151" font-size="10">400k</text>
  <line x1="90.0" y1="346.5" x2="760.0" y2="346.5" stroke="#e5e7eb" stroke-width="1"/>
  <text x="82.0" y="346.5" text-anchor="end" dominant-baseline="middle" fill="#374151" font-size="10">600k</text>
  <line x1="90.0" y1="329.0" x2="760.0" y2="329.0" stroke="#e5e7eb" stroke-width="1"/>
  <text x="82.0" y="329.0" text-anchor="end" dominant-baseline="middle" fill="#374151" font-size="10">800k</text>
  <line x1="90.0" y1="297.7" x2="760.0" y2="297.7" stroke="#e5e7eb" stroke-width="1"/>
  <text x="82.0" y="297.7" text-anchor="end" dominant-baseline="middle" fill="#374151" font-size="10">2M</text>
  <line x1="90.0" y1="270.1" x2="760.0" y2="270.1" stroke="#e5e7eb" stroke-width="1"/>
  <text x="82.0" y="270.1" text-anchor="end" dominant-baseline="middle" fill="#374151" font-size="10">4M</text>
  <line x1="90.0" y1="242.4" x2="760.0" y2="242.4" stroke="#e5e7eb" stroke-width="1"/>
  <text x="82.0" y="242.4" text-anchor="end" dominant-baseline="middle" fill="#374151" font-size="10">6M</text>
  <line x1="90.0" y1="214.8" x2="760.0" y2="214.8" stroke="#e5e7eb" stroke-width="1"/>
  <text x="82.0" y="214.8" text-anchor="end" dominant-baseline="middle" fill="#374151" font-size="10">8M</text>
  <line x1="90.0" y1="187.2" x2="760.0" y2="187.2" stroke="#e5e7eb" stroke-width="1"/>
  <text x="82.0" y="187.2" text-anchor="end" dominant-baseline="middle" fill="#374151" font-size="10">10M</text>
  <line x1="90.0" y1="159.5" x2="760.0" y2="159.5" stroke="#e5e7eb" stroke-width="1"/>
  <text x="82.0" y="159.5" text-anchor="end" dominant-baseline="middle" fill="#374151" font-size="10">12M</text>
  <line x1="90.0" y1="131.9" x2="760.0" y2="131.9" stroke="#e5e7eb" stroke-width="1"/>
  <text x="82.0" y="131.9" text-anchor="end" dominant-baseline="middle" fill="#374151" font-size="10">14M</text>
  <line x1="90.0" y1="104.3" x2="760.0" y2="104.3" stroke="#e5e7eb" stroke-width="1"/>
  <text x="82.0" y="104.3" text-anchor="end" dominant-baseline="middle" fill="#374151" font-size="10">16M</text>
  <line x1="90.0" y1="76.6" x2="760.0" y2="76.6" stroke="#e5e7eb" stroke-width="1"/>
  <text x="82.0" y="76.6" text-anchor="end" dominant-baseline="middle" fill="#374151" font-size="10">18M</text>
  <line x1="90.0" y1="49.0" x2="760.0" y2="49.0" stroke="#e5e7eb" stroke-width="1"/>
  <text x="82.0" y="49.0" text-anchor="end" dominant-baseline="middle" fill="#374151" font-size="10">20M</text>
  <line x1="90.0" y1="340.7" x2="760.0" y2="340.7" stroke="#e5e7eb" stroke-width="1" stroke-dasharray="3,6"/>
  <text x="768.0" y="340.7" text-anchor="start" dominant-baseline="middle" fill="#6b7280" font-size="10">1 GB/s</text>
  <line x1="90.0" y1="282.3" x2="760.0" y2="282.3" stroke="#e5e7eb" stroke-width="1" stroke-dasharray="3,6"/>
  <text x="768.0" y="282.3" text-anchor="start" dominant-baseline="middle" fill="#6b7280" font-size="10">2 GB/s</text>
  <line x1="90.0" y1="224.0" x2="760.0" y2="224.0" stroke="#e5e7eb" stroke-width="1" stroke-dasharray="3,6"/>
  <text x="768.0" y="224.0" text-anchor="start" dominant-baseline="middle" fill="#6b7280" font-size="10">3 GB/s</text>
  <line x1="90.0" y1="165.7" x2="760.0" y2="165.7" stroke="#e5e7eb" stroke-width="1" stroke-dasharray="3,6"/>
  <text x="768.0" y="165.7" text-anchor="start" dominant-baseline="middle" fill="#6b7280" font-size="10">4 GB/s</text>
  <line x1="90.0" y1="107.3" x2="760.0" y2="107.3" stroke="#e5e7eb" stroke-width="1" stroke-dasharray="3,6"/>
  <text x="768.0" y="107.3" text-anchor="start" dominant-baseline="middle" fill="#6b7280" font-size="10">5 GB/s</text>
  <line x1="90.0" y1="49.0" x2="760.0" y2="49.0" stroke="#e5e7eb" stroke-width="1" stroke-dasharray="3,6"/>
  <text x="768.0" y="49.0" text-anchor="start" dominant-baseline="middle" fill="#6b7280" font-size="10">6 GB/s</text>
  <line x1="90.0" y1="49.0" x2="90.0" y2="399.0" stroke="#e5e7eb" stroke-width="1"/>
  <line x1="145.8" y1="49.0" x2="145.8" y2="399.0" stroke="#e5e7eb" stroke-width="1"/>
  <line x1="201.7" y1="49.0" x2="201.7" y2="399.0" stroke="#e5e7eb" stroke-width="1"/>
  <line x1="257.5" y1="49.0" x2="257.5" y2="399.0" stroke="#e5e7eb" stroke-width="1"/>
  <line x1="313.3" y1="49.0" x2="313.3" y2="399.0" stroke="#e5e7eb" stroke-width="1"/>
  <line x1="369.2" y1="49.0" x2="369.2" y2="399.0" stroke="#e5e7eb" stroke-width="1"/>
  <line x1="425.0" y1="49.0" x2="425.0" y2="399.0" stroke="#e5e7eb" stroke-width="1"/>
  <line x1="480.8" y1="49.0" x2="480.8" y2="399.0" stroke="#e5e7eb" stroke-width="1"/>
  <line x1="536.7" y1="49.0" x2="536.7" y2="399.0" stroke="#e5e7eb" stroke-width="1"/>
  <line x1="592.5" y1="49.0" x2="592.5" y2="399.0" stroke="#e5e7eb" stroke-width="1"/>
  <line x1="648.3" y1="49.0" x2="648.3" y2="399.0" stroke="#e5e7eb" stroke-width="1"/>
  <line x1="704.2" y1="49.0" x2="704.2" y2="399.0" stroke="#e5e7eb" stroke-width="1"/>
  <line x1="760.0" y1="49.0" x2="760.0" y2="399.0" stroke="#e5e7eb" stroke-width="1"/>
  <line x1="90.0" y1="49.0" x2="90.0" y2="399.0" stroke="#9ca3af" stroke-width="1.5"/>
  <line x1="760.0" y1="49.0" x2="760.0" y2="399.0" stroke="#9ca3af" stroke-width="1.5"/>
  <line x1="90.0" y1="399.0" x2="760.0" y2="399.0" stroke="#9ca3af" stroke-width="1.5"/>
  <rect x="89.0" y="305.5" width="3" height="12" fill="white"/>
  <path d="M 85.0,317.5 L 95.0,312.5 M 85.0,310.5 L 95.0,305.5" stroke="#9ca3af" stroke-width="1.5" fill="none"/>
  <text x="40.0" y="224.0" text-anchor="middle" fill="#374151" font-size="10" font-weight="600" transform="rotate(-90,40.0,224.0)">msg/s</text>
  <polyline points="90.0,307.8 145.8,308.2 201.7,309.7 257.5,307.8 313.3,308.1 369.2,307.3 425.0,309.2 480.8,317.2 536.7,331.8 592.5,361.9 648.3,368.4 704.2,381.2 760.0,394.2" fill="none" stroke="#10b981" stroke-width="2" stroke-dasharray="6,4"/>
  <polyline points="90.0,350.9 145.8,351.3 201.7,350.2 257.5,351.5 313.3,350.0 369.2,352.1 425.0,352.1 480.8,354.6 536.7,358.8 592.5,368.1 648.3,374.7 704.2,384.0 760.0,390.4" fill="none" stroke="#2563eb" stroke-width="2" stroke-dasharray="6,4"/>
  <polyline points="90.0,306.5 145.8,305.8 201.7,303.5 257.5,276.5 313.3,330.5 369.2,333.8 425.0,356.6 480.8,374.5 536.7,347.7 592.5,370.1 648.3,394.0 704.2,389.9 760.0,392.0" fill="none" stroke="#eab308" stroke-width="2" stroke-dasharray="6,4"/>
  <polyline points="90.0,229.4 145.8,242.8 201.7,245.7 257.5,250.8 313.3,254.4 369.2,264.8 425.0,274.0 480.8,285.7 536.7,298.3 592.5,309.3 648.3,340.5 704.2,365.0 760.0,382.9" fill="none" stroke="#f97316" stroke-width="2" stroke-dasharray="6,4"/>
  <polyline points="90.0,109.2 145.8,119.3 201.7,160.2 257.5,204.0 313.3,233.8 369.2,259.6 425.0,279.0 480.8,293.1 536.7,302.5 592.5,314.3 648.3,354.0 704.2,376.3 760.0,387.9" fill="none" stroke="#dc2626" stroke-width="2" stroke-dasharray="6,4"/>
  <polyline points="90.0,398.4 145.8,397.8 201.7,396.9 257.5,394.3 313.3,389.7 369.2,379.5 425.0,364.2 480.8,343.1 536.7,307.2 592.5,297.7 648.3,231.9 704.2,205.0 760.0,294.2" fill="none" stroke="#10b981" stroke-width="2.5" stroke-linecap="round" stroke-linejoin="round"/>
  <circle cx="90.0" cy="398.4" r="3" fill="#10b981" stroke="white" stroke-width="1"/>
  <circle cx="145.8" cy="397.8" r="3" fill="#10b981" stroke="white" stroke-width="1"/>
  <circle cx="201.7" cy="396.9" r="3" fill="#10b981" stroke="white" stroke-width="1"/>
  <circle cx="257.5" cy="394.3" r="3" fill="#10b981" stroke="white" stroke-width="1"/>
  <circle cx="313.3" cy="389.7" r="3" fill="#10b981" stroke="white" stroke-width="1"/>
  <circle cx="369.2" cy="379.5" r="3" fill="#10b981" stroke="white" stroke-width="1"/>
  <circle cx="425.0" cy="364.2" r="3" fill="#10b981" stroke="white" stroke-width="1"/>
  <circle cx="480.8" cy="343.1" r="3" fill="#10b981" stroke="white" stroke-width="1"/>
  <circle cx="536.7" cy="307.2" r="3" fill="#10b981" stroke="white" stroke-width="1"/>
  <circle cx="592.5" cy="297.7" r="3" fill="#10b981" stroke="white" stroke-width="1"/>
  <circle cx="648.3" cy="231.9" r="3" fill="#10b981" stroke="white" stroke-width="1"/>
  <circle cx="704.2" cy="205.0" r="3" fill="#10b981" stroke="white" stroke-width="1"/>
  <circle cx="760.0" cy="294.2" r="3" fill="#10b981" stroke="white" stroke-width="1"/>
  <polyline points="90.0,398.7 145.8,398.5 201.7,398.0 257.5,397.0 313.3,394.8 369.2,391.0 425.0,383.0 480.8,368.7 536.7,344.0 592.5,314.7 648.3,266.3 704.2,235.1 760.0,211.8" fill="none" stroke="#2563eb" stroke-width="2.5" stroke-linecap="round" stroke-linejoin="round"/>
  <circle cx="90.0" cy="398.7" r="3" fill="#2563eb" stroke="white" stroke-width="1"/>
  <circle cx="145.8" cy="398.5" r="3" fill="#2563eb" stroke="white" stroke-width="1"/>
  <circle cx="201.7" cy="398.0" r="3" fill="#2563eb" stroke="white" stroke-width="1"/>
  <circle cx="257.5" cy="397.0" r="3" fill="#2563eb" stroke="white" stroke-width="1"/>
  <circle cx="313.3" cy="394.8" r="3" fill="#2563eb" stroke="white" stroke-width="1"/>
  <circle cx="369.2" cy="391.0" r="3" fill="#2563eb" stroke="white" stroke-width="1"/>
  <circle cx="425.0" cy="383.0" r="3" fill="#2563eb" stroke="white" stroke-width="1"/>
  <circle cx="480.8" cy="368.7" r="3" fill="#2563eb" stroke="white" stroke-width="1"/>
  <circle cx="536.7" cy="344.0" r="3" fill="#2563eb" stroke="white" stroke-width="1"/>
  <circle cx="592.5" cy="314.7" r="3" fill="#2563eb" stroke="white" stroke-width="1"/>
  <circle cx="648.3" cy="266.3" r="3" fill="#2563eb" stroke="white" stroke-width="1"/>
  <circle cx="704.2" cy="235.1" r="3" fill="#2563eb" stroke="white" stroke-width="1"/>
  <circle cx="760.0" cy="211.8" r="3" fill="#2563eb" stroke="white" stroke-width="1"/>
  <polyline points="90.0,398.4 145.8,397.7 201.7,396.1 257.5,385.8 313.3,393.2 369.2,387.9 425.0,384.5 480.8,382.2 536.7,329.0 592.5,320.0 648.3,371.8 704.2,299.3 760.0,246.1" fill="none" stroke="#eab308" stroke-width="2.5" stroke-linecap="round" stroke-linejoin="round"/>
  <circle cx="90.0" cy="398.4" r="3" fill="#eab308" stroke="white" stroke-width="1"/>
  <circle cx="145.8" cy="397.7" r="3" fill="#eab308" stroke="white" stroke-width="1"/>
  <circle cx="201.7" cy="396.1" r="3" fill="#eab308" stroke="white" stroke-width="1"/>
  <circle cx="257.5" cy="385.8" r="3" fill="#eab308" stroke="white" stroke-width="1"/>
  <circle cx="313.3" cy="393.2" r="3" fill="#eab308" stroke="white" stroke-width="1"/>
  <circle cx="369.2" cy="387.9" r="3" fill="#eab308" stroke="white" stroke-width="1"/>
  <circle cx="425.0" cy="384.5" r="3" fill="#eab308" stroke="white" stroke-width="1"/>
  <circle cx="480.8" cy="382.2" r="3" fill="#eab308" stroke="white" stroke-width="1"/>
  <circle cx="536.7" cy="329.0" r="3" fill="#eab308" stroke="white" stroke-width="1"/>
  <circle cx="592.5" cy="320.0" r="3" fill="#eab308" stroke="white" stroke-width="1"/>
  <circle cx="648.3" cy="371.8" r="3" fill="#eab308" stroke="white" stroke-width="1"/>
  <circle cx="704.2" cy="299.3" r="3" fill="#eab308" stroke="white" stroke-width="1"/>
  <circle cx="760.0" cy="246.1" r="3" fill="#eab308" stroke="white" stroke-width="1"/>
  <polyline points="90.0,395.8 145.8,393.4 201.7,388.2 257.5,378.9 313.3,360.7 369.2,333.6 425.0,288.0 480.8,227.5 536.7,165.4 592.5,122.3 648.3,79.3 704.2,27.7 760.0,46.4" fill="none" stroke="#f97316" stroke-width="2.5" stroke-linecap="round" stroke-linejoin="round"/>
  <circle cx="90.0" cy="395.8" r="3" fill="#f97316" stroke="white" stroke-width="1"/>
  <circle cx="145.8" cy="393.4" r="3" fill="#f97316" stroke="white" stroke-width="1"/>
  <circle cx="201.7" cy="388.2" r="3" fill="#f97316" stroke="white" stroke-width="1"/>
  <circle cx="257.5" cy="378.9" r="3" fill="#f97316" stroke="white" stroke-width="1"/>
  <circle cx="313.3" cy="360.7" r="3" fill="#f97316" stroke="white" stroke-width="1"/>
  <circle cx="369.2" cy="333.6" r="3" fill="#f97316" stroke="white" stroke-width="1"/>
  <circle cx="425.0" cy="288.0" r="3" fill="#f97316" stroke="white" stroke-width="1"/>
  <circle cx="480.8" cy="227.5" r="3" fill="#f97316" stroke="white" stroke-width="1"/>
  <circle cx="536.7" cy="165.4" r="3" fill="#f97316" stroke="white" stroke-width="1"/>
  <circle cx="592.5" cy="122.3" r="3" fill="#f97316" stroke="white" stroke-width="1"/>
  <circle cx="648.3" cy="79.3" r="3" fill="#f97316" stroke="white" stroke-width="1"/>
  <circle cx="704.2" cy="27.7" r="3" fill="#f97316" stroke="white" stroke-width="1"/>
  <circle cx="760.0" cy="46.4" r="3" fill="#f97316" stroke="white" stroke-width="1"/>
  <polyline points="90.0,391.7 145.8,385.1 201.7,376.7 257.5,366.2 313.3,349.6 369.2,328.0 425.0,298.9 480.8,259.8 536.7,201.8 592.5,167.7 648.3,153.1 704.2,150.7 760.0,156.8" fill="none" stroke="#dc2626" stroke-width="2.5" stroke-linecap="round" stroke-linejoin="round"/>
  <circle cx="90.0" cy="391.7" r="3" fill="#dc2626" stroke="white" stroke-width="1"/>
  <circle cx="145.8" cy="385.1" r="3" fill="#dc2626" stroke="white" stroke-width="1"/>
  <circle cx="201.7" cy="376.7" r="3" fill="#dc2626" stroke="white" stroke-width="1"/>
  <circle cx="257.5" cy="366.2" r="3" fill="#dc2626" stroke="white" stroke-width="1"/>
  <circle cx="313.3" cy="349.6" r="3" fill="#dc2626" stroke="white" stroke-width="1"/>
  <circle cx="369.2" cy="328.0" r="3" fill="#dc2626" stroke="white" stroke-width="1"/>
  <circle cx="425.0" cy="298.9" r="3" fill="#dc2626" stroke="white" stroke-width="1"/>
  <circle cx="480.8" cy="259.8" r="3" fill="#dc2626" stroke="white" stroke-width="1"/>
  <circle cx="536.7" cy="201.8" r="3" fill="#dc2626" stroke="white" stroke-width="1"/>
  <circle cx="592.5" cy="167.7" r="3" fill="#dc2626" stroke="white" stroke-width="1"/>
  <circle cx="648.3" cy="153.1" r="3" fill="#dc2626" stroke="white" stroke-width="1"/>
  <circle cx="704.2" cy="150.7" r="3" fill="#dc2626" stroke="white" stroke-width="1"/>
  <circle cx="760.0" cy="156.8" r="3" fill="#dc2626" stroke="white" stroke-width="1"/>
  <text x="90.0" y="413.0" text-anchor="middle" fill="#374151" font-size="8.5">8 B</text>
  <text x="145.8" y="413.0" text-anchor="middle" fill="#374151" font-size="8.5">16 B</text>
  <text x="201.7" y="413.0" text-anchor="middle" fill="#374151" font-size="8.5">32 B</text>
  <text x="257.5" y="413.0" text-anchor="middle" fill="#374151" font-size="8.5">64 B</text>
  <text x="313.3" y="413.0" text-anchor="middle" fill="#374151" font-size="8.5">128 B</text>
  <text x="369.2" y="413.0" text-anchor="middle" fill="#374151" font-size="8.5">256 B</text>
  <text x="425.0" y="413.0" text-anchor="middle" fill="#374151" font-size="8.5">512 B</text>
  <text x="480.8" y="413.0" text-anchor="middle" fill="#374151" font-size="8.5">1 KiB</text>
  <text x="536.7" y="413.0" text-anchor="middle" fill="#374151" font-size="8.5">2 KiB</text>
  <text x="592.5" y="413.0" text-anchor="middle" fill="#374151" font-size="8.5">4 KiB</text>
  <text x="648.3" y="413.0" text-anchor="middle" fill="#374151" font-size="8.5">8 KiB</text>
  <text x="704.2" y="413.0" text-anchor="middle" fill="#374151" font-size="8.5">16 KiB</text>
  <text x="760.0" y="413.0" text-anchor="middle" fill="#374151" font-size="8.5">32 KiB</text>
  <text x="425.0" y="46" text-anchor="middle" fill="#9ca3af" font-size="10">Linux VM on a 2018 Mac Mini, Intel Core i7-8700B @ 3.20GHz, 6 cores, performance governor, turbo off</text>
  <line x1="112" y1="459" x2="126" y2="459" stroke="#eab308" stroke-width="2.5"/>
  <circle cx="120" cy="459" r="2.5" fill="#eab308"/>
  <text x="132" y="463" fill="#374151" font-size="11" font-weight="500">libzmq v4.3.5</text>
  <line x1="238" y1="459" x2="252" y2="459" stroke="#dc2626" stroke-width="2.5"/>
  <circle cx="244" cy="459" r="2.5" fill="#dc2626"/>
  <text x="258" y="463" fill="#374151" font-size="11" font-weight="500">omq-compio</text>
  <line x1="362" y1="459" x2="376" y2="459" stroke="#f97316" stroke-width="2.5"/>
  <circle cx="370" cy="459" r="2.5" fill="#f97316"/>
  <text x="382" y="463" fill="#374151" font-size="11" font-weight="500">omq-tokio</text>
  <line x1="488" y1="459" x2="502" y2="459" stroke="#2563eb" stroke-width="2.5"/>
  <circle cx="494" cy="459" r="2.5" fill="#2563eb"/>
  <text x="508" y="463" fill="#374151" font-size="11" font-weight="500">zmq.rs v0.6.0</text>
  <line x1="612" y1="459" x2="626" y2="459" stroke="#10b981" stroke-width="2.5"/>
  <circle cx="620" cy="459" r="2.5" fill="#10b981"/>
  <text x="632" y="463" fill="#374151" font-size="11" font-weight="500">rzmq v0.5.18</text>
  <line x1="265" y1="481" x2="285" y2="481" stroke="#6b7280" stroke-width="2" stroke-dasharray="6,4"/>
  <text x="291" y="485" fill="#6b7280" font-size="10">msg/s (left axis)</text>
  <line x1="435" y1="481" x2="455" y2="481" stroke="#6b7280" stroke-width="2"/>
  <circle cx="445" cy="481" r="2" fill="#6b7280"/>
  <text x="461" y="485" fill="#6b7280" font-size="10">throughput / GB/s (right axis)</text>
</svg>
