<svg xmlns="http://www.w3.org/2000/svg" viewBox="0 0 850 999" font-family="system-ui, -apple-system, sans-serif">
  <rect width="850" height="999" fill="white"/>
  <text x="425.0" y="46" text-anchor="middle" fill="#9ca3af" font-size="10">Linux VM on a 2018 Mac Mini, Intel Core i7-8700B @ 3.20GHz, 6 cores, performance governor, turbo off</text>
  <text x="425.0" y="32.0" text-anchor="middle" fill="#111827" font-size="13" font-weight="700">PUSH fan-in (2 PUSH → 1 PULL): TCP loopback</text>
  <line x1="90.0" y1="264.7" x2="760.0" y2="264.7" stroke="#e5e7eb" stroke-width="1"/>
  <text x="82.0" y="264.7" text-anchor="end" dominant-baseline="middle" fill="#374151" font-size="10">1M</text>
  <line x1="90.0" y1="240.4" x2="760.0" y2="240.4" stroke="#e5e7eb" stroke-width="1"/>
  <text x="82.0" y="240.4" text-anchor="end" dominant-baseline="middle" fill="#374151" font-size="10">2M</text>
  <line x1="90.0" y1="216.2" x2="760.0" y2="216.2" stroke="#e5e7eb" stroke-width="1"/>
  <text x="82.0" y="216.2" text-anchor="end" dominant-baseline="middle" fill="#374151" font-size="10">3M</text>
  <line x1="90.0" y1="191.9" x2="760.0" y2="191.9" stroke="#e5e7eb" stroke-width="1"/>
  <text x="82.0" y="191.9" text-anchor="end" dominant-baseline="middle" fill="#374151" font-size="10">4M</text>
  <line x1="90.0" y1="167.6" x2="760.0" y2="167.6" stroke="#e5e7eb" stroke-width="1"/>
  <text x="82.0" y="167.6" text-anchor="end" dominant-baseline="middle" fill="#374151" font-size="10">5M</text>
  <line x1="90.0" y1="143.3" x2="760.0" y2="143.3" stroke="#e5e7eb" stroke-width="1"/>
  <text x="82.0" y="143.3" text-anchor="end" dominant-baseline="middle" fill="#374151" font-size="10">6M</text>
  <line x1="90.0" y1="119.1" x2="760.0" y2="119.1" stroke="#e5e7eb" stroke-width="1"/>
  <text x="82.0" y="119.1" text-anchor="end" dominant-baseline="middle" fill="#374151" font-size="10">7M</text>
  <line x1="90.0" y1="94.8" x2="760.0" y2="94.8" stroke="#e5e7eb" stroke-width="1"/>
  <text x="82.0" y="94.8" text-anchor="end" dominant-baseline="middle" fill="#374151" font-size="10">8M</text>
  <line x1="90.0" y1="70.5" x2="760.0" y2="70.5" stroke="#e5e7eb" stroke-width="1"/>
  <text x="82.0" y="70.5" text-anchor="end" dominant-baseline="middle" fill="#374151" font-size="10">9M</text>
  <line x1="90.0" y1="209.0" x2="760.0" y2="209.0" stroke="#e5e7eb" stroke-width="1" stroke-dasharray="3,6"/>
  <text x="768.0" y="209.0" text-anchor="start" dominant-baseline="middle" fill="#6b7280" font-size="10">2 GB/s</text>
  <line x1="90.0" y1="129.0" x2="760.0" y2="129.0" stroke="#e5e7eb" stroke-width="1" stroke-dasharray="3,6"/>
  <text x="768.0" y="129.0" text-anchor="start" dominant-baseline="middle" fill="#6b7280" font-size="10">4 GB/s</text>
  <line x1="90.0" y1="49.0" x2="760.0" y2="49.0" stroke="#e5e7eb" stroke-width="1" stroke-dasharray="3,6"/>
  <text x="768.0" y="49.0" text-anchor="start" dominant-baseline="middle" fill="#6b7280" font-size="10">6 GB/s</text>
  <line x1="90.0" y1="49.0" x2="90.0" y2="289.0" stroke="#e5e7eb" stroke-width="1"/>
  <line x1="145.8" y1="49.0" x2="145.8" y2="289.0" stroke="#e5e7eb" stroke-width="1"/>
  <line x1="201.7" y1="49.0" x2="201.7" y2="289.0" stroke="#e5e7eb" stroke-width="1"/>
  <line x1="257.5" y1="49.0" x2="257.5" y2="289.0" stroke="#e5e7eb" stroke-width="1"/>
  <line x1="313.3" y1="49.0" x2="313.3" y2="289.0" stroke="#e5e7eb" stroke-width="1"/>
  <line x1="369.2" y1="49.0" x2="369.2" y2="289.0" stroke="#e5e7eb" stroke-width="1"/>
  <line x1="425.0" y1="49.0" x2="425.0" y2="289.0" stroke="#e5e7eb" stroke-width="1"/>
  <line x1="480.8" y1="49.0" x2="480.8" y2="289.0" stroke="#e5e7eb" stroke-width="1"/>
  <line x1="536.7" y1="49.0" x2="536.7" y2="289.0" stroke="#e5e7eb" stroke-width="1"/>
  <line x1="592.5" y1="49.0" x2="592.5" y2="289.0" stroke="#e5e7eb" stroke-width="1"/>
  <line x1="648.3" y1="49.0" x2="648.3" y2="289.0" stroke="#e5e7eb" stroke-width="1"/>
  <line x1="704.2" y1="49.0" x2="704.2" y2="289.0" stroke="#e5e7eb" stroke-width="1"/>
  <line x1="760.0" y1="49.0" x2="760.0" y2="289.0" stroke="#e5e7eb" stroke-width="1"/>
  <line x1="90.0" y1="49.0" x2="90.0" y2="289.0" stroke="#9ca3af" stroke-width="1.5"/>
  <line x1="760.0" y1="49.0" x2="760.0" y2="289.0" stroke="#9ca3af" stroke-width="1.5"/>
  <line x1="90.0" y1="289.0" x2="760.0" y2="289.0" stroke="#9ca3af" stroke-width="1.5"/>
  <text x="40.0" y="169.0" text-anchor="middle" fill="#374151" font-size="10" font-weight="600" transform="rotate(-90,40.0,169.0)">msg/s</text>
  <polyline points="90.0,249.5 145.8,252.1 201.7,253.6 257.5,254.1 313.3,255.7 369.2,256.0 425.0,256.2 480.8,260.8 536.7,266.4 592.5,273.0 648.3,279.5 704.2,283.8 760.0,286.6" fill="none" stroke="#10b981" stroke-width="2" stroke-dasharray="6,4"/>
  <polyline points="90.0,267.0 145.8,267.9 201.7,272.4 257.5,274.8 313.3,276.0 369.2,276.8 425.0,277.3 480.8,273.8 536.7,265.2 592.5,274.4 648.3,280.8 704.2,284.8 760.0,286.7" fill="none" stroke="#2563eb" stroke-width="2" stroke-dasharray="6,4"/>
  <polyline points="90.0,82.6 145.8,80.3 201.7,90.9 257.5,119.8 313.3,179.4 369.2,190.3 425.0,224.3 480.8,251.7 536.7,268.6 592.5,278.7 648.3,283.5 704.2,285.8 760.0,286.7" fill="none" stroke="#eab308" stroke-width="2" stroke-dasharray="6,4"/>
  <polyline points="90.0,164.5 145.8,175.5 201.7,173.6 257.5,147.0 313.3,150.2 369.2,136.1 425.0,169.3 480.8,207.0 536.7,242.6 592.5,262.0 648.3,274.5 704.2,281.3 760.0,285.1" fill="none" stroke="#f97316" stroke-width="2" stroke-dasharray="6,4"/>
  <polyline points="90.0,101.4 145.8,104.9 201.7,114.9 257.5,169.7 313.3,177.6 369.2,196.5 425.0,215.0 480.8,235.5 536.7,259.8 592.5,277.5 648.3,280.6 704.2,284.7 760.0,286.9" fill="none" stroke="#dc2626" stroke-width="2" stroke-dasharray="6,4"/>
  <polyline points="90.0,288.5 145.8,288.0 201.7,287.1 257.5,285.3 313.3,282.0 369.2,275.1 425.0,261.3 480.8,241.4 536.7,212.8 592.5,181.3 648.3,160.7 704.2,148.8 760.0,161.7" fill="none" stroke="#10b981" stroke-width="2.5" stroke-linecap="round" stroke-linejoin="round"/>
  <circle cx="90.0" cy="288.5" r="3" fill="#10b981" stroke="white" stroke-width="1"/>
  <circle cx="145.8" cy="288.0" r="3" fill="#10b981" stroke="white" stroke-width="1"/>
  <circle cx="201.7" cy="287.1" r="3" fill="#10b981" stroke="white" stroke-width="1"/>
  <circle cx="257.5" cy="285.3" r="3" fill="#10b981" stroke="white" stroke-width="1"/>
  <circle cx="313.3" cy="282.0" r="3" fill="#10b981" stroke="white" stroke-width="1"/>
  <circle cx="369.2" cy="275.1" r="3" fill="#10b981" stroke="white" stroke-width="1"/>
  <circle cx="425.0" cy="261.3" r="3" fill="#10b981" stroke="white" stroke-width="1"/>
  <circle cx="480.8" cy="241.4" r="3" fill="#10b981" stroke="white" stroke-width="1"/>
  <circle cx="536.7" cy="212.8" r="3" fill="#10b981" stroke="white" stroke-width="1"/>
  <circle cx="592.5" cy="181.3" r="3" fill="#10b981" stroke="white" stroke-width="1"/>
  <circle cx="648.3" cy="160.7" r="3" fill="#10b981" stroke="white" stroke-width="1"/>
  <circle cx="704.2" cy="148.8" r="3" fill="#10b981" stroke="white" stroke-width="1"/>
  <circle cx="760.0" cy="161.7" r="3" fill="#10b981" stroke="white" stroke-width="1"/>
  <polyline points="90.0,288.7 145.8,288.4 201.7,288.1 257.5,287.5 313.3,286.3 369.2,283.9 425.0,279.1 480.8,263.4 536.7,208.6 592.5,190.4 648.3,178.3 704.2,175.1 760.0,167.1" fill="none" stroke="#2563eb" stroke-width="2.5" stroke-linecap="round" stroke-linejoin="round"/>
  <circle cx="90.0" cy="288.7" r="3" fill="#2563eb" stroke="white" stroke-width="1"/>
  <circle cx="145.8" cy="288.4" r="3" fill="#2563eb" stroke="white" stroke-width="1"/>
  <circle cx="201.7" cy="288.1" r="3" fill="#2563eb" stroke="white" stroke-width="1"/>
  <circle cx="257.5" cy="287.5" r="3" fill="#2563eb" stroke="white" stroke-width="1"/>
  <circle cx="313.3" cy="286.3" r="3" fill="#2563eb" stroke="white" stroke-width="1"/>
  <circle cx="369.2" cy="283.9" r="3" fill="#2563eb" stroke="white" stroke-width="1"/>
  <circle cx="425.0" cy="279.1" r="3" fill="#2563eb" stroke="white" stroke-width="1"/>
  <circle cx="480.8" cy="263.4" r="3" fill="#2563eb" stroke="white" stroke-width="1"/>
  <circle cx="536.7" cy="208.6" r="3" fill="#2563eb" stroke="white" stroke-width="1"/>
  <circle cx="592.5" cy="190.4" r="3" fill="#2563eb" stroke="white" stroke-width="1"/>
  <circle cx="648.3" cy="178.3" r="3" fill="#2563eb" stroke="white" stroke-width="1"/>
  <circle cx="704.2" cy="175.1" r="3" fill="#2563eb" stroke="white" stroke-width="1"/>
  <circle cx="760.0" cy="167.1" r="3" fill="#2563eb" stroke="white" stroke-width="1"/>
  <polyline points="90.0,286.3 145.8,283.5 201.7,278.6 257.5,271.2 313.3,265.9 369.2,247.4 425.0,234.4 480.8,226.0 536.7,220.1 592.5,219.2 648.3,214.9 704.2,203.3 760.0,164.7" fill="none" stroke="#eab308" stroke-width="2.5" stroke-linecap="round" stroke-linejoin="round"/>
  <circle cx="90.0" cy="286.3" r="3" fill="#eab308" stroke="white" stroke-width="1"/>
  <circle cx="145.8" cy="283.5" r="3" fill="#eab308" stroke="white" stroke-width="1"/>
  <circle cx="201.7" cy="278.6" r="3" fill="#eab308" stroke="white" stroke-width="1"/>
  <circle cx="257.5" cy="271.2" r="3" fill="#eab308" stroke="white" stroke-width="1"/>
  <circle cx="313.3" cy="265.9" r="3" fill="#eab308" stroke="white" stroke-width="1"/>
  <circle cx="369.2" cy="247.4" r="3" fill="#eab308" stroke="white" stroke-width="1"/>
  <circle cx="425.0" cy="234.4" r="3" fill="#eab308" stroke="white" stroke-width="1"/>
  <circle cx="480.8" cy="226.0" r="3" fill="#eab308" stroke="white" stroke-width="1"/>
  <circle cx="536.7" cy="220.1" r="3" fill="#eab308" stroke="white" stroke-width="1"/>
  <circle cx="592.5" cy="219.2" r="3" fill="#eab308" stroke="white" stroke-width="1"/>
  <circle cx="648.3" cy="214.9" r="3" fill="#eab308" stroke="white" stroke-width="1"/>
  <circle cx="704.2" cy="203.3" r="3" fill="#eab308" stroke="white" stroke-width="1"/>
  <circle cx="760.0" cy="164.7" r="3" fill="#eab308" stroke="white" stroke-width="1"/>
  <polyline points="90.0,287.4 145.8,286.0 201.7,282.9 257.5,274.0 313.3,259.7 369.2,224.5 425.0,188.0 480.8,150.7 536.7,132.4 592.5,107.1 648.3,93.6 704.2,82.4 760.0,80.3" fill="none" stroke="#f97316" stroke-width="2.5" stroke-linecap="round" stroke-linejoin="round"/>
  <circle cx="90.0" cy="287.4" r="3" fill="#f97316" stroke="white" stroke-width="1"/>
  <circle cx="145.8" cy="286.0" r="3" fill="#f97316" stroke="white" stroke-width="1"/>
  <circle cx="201.7" cy="282.9" r="3" fill="#f97316" stroke="white" stroke-width="1"/>
  <circle cx="257.5" cy="274.0" r="3" fill="#f97316" stroke="white" stroke-width="1"/>
  <circle cx="313.3" cy="259.7" r="3" fill="#f97316" stroke="white" stroke-width="1"/>
  <circle cx="369.2" cy="224.5" r="3" fill="#f97316" stroke="white" stroke-width="1"/>
  <circle cx="425.0" cy="188.0" r="3" fill="#f97316" stroke="white" stroke-width="1"/>
  <circle cx="480.8" cy="150.7" r="3" fill="#f97316" stroke="white" stroke-width="1"/>
  <circle cx="536.7" cy="132.4" r="3" fill="#f97316" stroke="white" stroke-width="1"/>
  <circle cx="592.5" cy="107.1" r="3" fill="#f97316" stroke="white" stroke-width="1"/>
  <circle cx="648.3" cy="93.6" r="3" fill="#f97316" stroke="white" stroke-width="1"/>
  <circle cx="704.2" cy="82.4" r="3" fill="#f97316" stroke="white" stroke-width="1"/>
  <circle cx="760.0" cy="80.3" r="3" fill="#f97316" stroke="white" stroke-width="1"/>
  <polyline points="90.0,286.5 145.8,284.1 201.7,279.8 257.5,276.4 313.3,265.5 369.2,250.0 425.0,226.6 480.8,198.7 536.7,190.6 592.5,211.5 648.3,176.0 704.2,173.7 760.0,174.6" fill="none" stroke="#dc2626" stroke-width="2.5" stroke-linecap="round" stroke-linejoin="round"/>
  <circle cx="90.0" cy="286.5" r="3" fill="#dc2626" stroke="white" stroke-width="1"/>
  <circle cx="145.8" cy="284.1" r="3" fill="#dc2626" stroke="white" stroke-width="1"/>
  <circle cx="201.7" cy="279.8" r="3" fill="#dc2626" stroke="white" stroke-width="1"/>
  <circle cx="257.5" cy="276.4" r="3" fill="#dc2626" stroke="white" stroke-width="1"/>
  <circle cx="313.3" cy="265.5" r="3" fill="#dc2626" stroke="white" stroke-width="1"/>
  <circle cx="369.2" cy="250.0" r="3" fill="#dc2626" stroke="white" stroke-width="1"/>
  <circle cx="425.0" cy="226.6" r="3" fill="#dc2626" stroke="white" stroke-width="1"/>
  <circle cx="480.8" cy="198.7" r="3" fill="#dc2626" stroke="white" stroke-width="1"/>
  <circle cx="536.7" cy="190.6" r="3" fill="#dc2626" stroke="white" stroke-width="1"/>
  <circle cx="592.5" cy="211.5" r="3" fill="#dc2626" stroke="white" stroke-width="1"/>
  <circle cx="648.3" cy="176.0" r="3" fill="#dc2626" stroke="white" stroke-width="1"/>
  <circle cx="704.2" cy="173.7" r="3" fill="#dc2626" stroke="white" stroke-width="1"/>
  <circle cx="760.0" cy="174.6" r="3" fill="#dc2626" stroke="white" stroke-width="1"/>
  <text x="90.0" y="303.0" text-anchor="middle" fill="#374151" font-size="8.5">8 B</text>
  <text x="145.8" y="303.0" text-anchor="middle" fill="#374151" font-size="8.5">16 B</text>
  <text x="201.7" y="303.0" text-anchor="middle" fill="#374151" font-size="8.5">32 B</text>
  <text x="257.5" y="303.0" text-anchor="middle" fill="#374151" font-size="8.5">64 B</text>
  <text x="313.3" y="303.0" text-anchor="middle" fill="#374151" font-size="8.5">128 B</text>
  <text x="369.2" y="303.0" text-anchor="middle" fill="#374151" font-size="8.5">256 B</text>
  <text x="425.0" y="303.0" text-anchor="middle" fill="#374151" font-size="8.5">512 B</text>
  <text x="480.8" y="303.0" text-anchor="middle" fill="#374151" font-size="8.5">1 KiB</text>
  <text x="536.7" y="303.0" text-anchor="middle" fill="#374151" font-size="8.5">2 KiB</text>
  <text x="592.5" y="303.0" text-anchor="middle" fill="#374151" font-size="8.5">4 KiB</text>
  <text x="648.3" y="303.0" text-anchor="middle" fill="#374151" font-size="8.5">8 KiB</text>
  <text x="704.2" y="303.0" text-anchor="middle" fill="#374151" font-size="8.5">16 KiB</text>
  <text x="760.0" y="303.0" text-anchor="middle" fill="#374151" font-size="8.5">32 KiB</text>
  <text x="425.0" y="342.0" text-anchor="middle" fill="#111827" font-size="13" font-weight="700">PUSH fan-in (4 PUSH → 1 PULL): TCP loopback</text>
  <line x1="90.0" y1="576.7" x2="760.0" y2="576.7" stroke="#e5e7eb" stroke-width="1"/>
  <text x="82.0" y="576.7" text-anchor="end" dominant-baseline="middle" fill="#374151" font-size="10">1M</text>
  <line x1="90.0" y1="554.4" x2="760.0" y2="554.4" stroke="#e5e7eb" stroke-width="1"/>
  <text x="82.0" y="554.4" text-anchor="end" dominant-baseline="middle" fill="#374151" font-size="10">2M</text>
  <line x1="90.0" y1="532.1" x2="760.0" y2="532.1" stroke="#e5e7eb" stroke-width="1"/>
  <text x="82.0" y="532.1" text-anchor="end" dominant-baseline="middle" fill="#374151" font-size="10">3M</text>
  <line x1="90.0" y1="509.7" x2="760.0" y2="509.7" stroke="#e5e7eb" stroke-width="1"/>
  <text x="82.0" y="509.7" text-anchor="end" dominant-baseline="middle" fill="#374151" font-size="10">4M</text>
  <line x1="90.0" y1="487.4" x2="760.0" y2="487.4" stroke="#e5e7eb" stroke-width="1"/>
  <text x="82.0" y="487.4" text-anchor="end" dominant-baseline="middle" fill="#374151" font-size="10">5M</text>
  <line x1="90.0" y1="465.1" x2="760.0" y2="465.1" stroke="#e5e7eb" stroke-width="1"/>
  <text x="82.0" y="465.1" text-anchor="end" dominant-baseline="middle" fill="#374151" font-size="10">6M</text>
  <line x1="90.0" y1="442.8" x2="760.0" y2="442.8" stroke="#e5e7eb" stroke-width="1"/>
  <text x="82.0" y="442.8" text-anchor="end" dominant-baseline="middle" fill="#374151" font-size="10">7M</text>
  <line x1="90.0" y1="420.5" x2="760.0" y2="420.5" stroke="#e5e7eb" stroke-width="1"/>
  <text x="82.0" y="420.5" text-anchor="end" dominant-baseline="middle" fill="#374151" font-size="10">8M</text>
  <line x1="90.0" y1="398.2" x2="760.0" y2="398.2" stroke="#e5e7eb" stroke-width="1"/>
  <text x="82.0" y="398.2" text-anchor="end" dominant-baseline="middle" fill="#374151" font-size="10">9M</text>
  <line x1="90.0" y1="375.8" x2="760.0" y2="375.8" stroke="#e5e7eb" stroke-width="1"/>
  <text x="82.0" y="375.8" text-anchor="end" dominant-baseline="middle" fill="#374151" font-size="10">10M</text>
  <line x1="90.0" y1="519.1" x2="760.0" y2="519.1" stroke="#e5e7eb" stroke-width="1" stroke-dasharray="3,6"/>
  <text x="768.0" y="519.1" text-anchor="start" dominant-baseline="middle" fill="#6b7280" font-size="10">2 GB/s</text>
  <line x1="90.0" y1="439.2" x2="760.0" y2="439.2" stroke="#e5e7eb" stroke-width="1" stroke-dasharray="3,6"/>
  <text x="768.0" y="439.2" text-anchor="start" dominant-baseline="middle" fill="#6b7280" font-size="10">4 GB/s</text>
  <line x1="90.0" y1="359.3" x2="760.0" y2="359.3" stroke="#e5e7eb" stroke-width="1" stroke-dasharray="3,6"/>
  <text x="768.0" y="359.3" text-anchor="start" dominant-baseline="middle" fill="#6b7280" font-size="10">6 GB/s</text>
  <line x1="90.0" y1="359.0" x2="90.0" y2="599.0" stroke="#e5e7eb" stroke-width="1"/>
  <line x1="145.8" y1="359.0" x2="145.8" y2="599.0" stroke="#e5e7eb" stroke-width="1"/>
  <line x1="201.7" y1="359.0" x2="201.7" y2="599.0" stroke="#e5e7eb" stroke-width="1"/>
  <line x1="257.5" y1="359.0" x2="257.5" y2="599.0" stroke="#e5e7eb" stroke-width="1"/>
  <line x1="313.3" y1="359.0" x2="313.3" y2="599.0" stroke="#e5e7eb" stroke-width="1"/>
  <line x1="369.2" y1="359.0" x2="369.2" y2="599.0" stroke="#e5e7eb" stroke-width="1"/>
  <line x1="425.0" y1="359.0" x2="425.0" y2="599.0" stroke="#e5e7eb" stroke-width="1"/>
  <line x1="480.8" y1="359.0" x2="480.8" y2="599.0" stroke="#e5e7eb" stroke-width="1"/>
  <line x1="536.7" y1="359.0" x2="536.7" y2="599.0" stroke="#e5e7eb" stroke-width="1"/>
  <line x1="592.5" y1="359.0" x2="592.5" y2="599.0" stroke="#e5e7eb" stroke-width="1"/>
  <line x1="648.3" y1="359.0" x2="648.3" y2="599.0" stroke="#e5e7eb" stroke-width="1"/>
  <line x1="704.2" y1="359.0" x2="704.2" y2="599.0" stroke="#e5e7eb" stroke-width="1"/>
  <line x1="760.0" y1="359.0" x2="760.0" y2="599.0" stroke="#e5e7eb" stroke-width="1"/>
  <line x1="90.0" y1="359.0" x2="90.0" y2="599.0" stroke="#9ca3af" stroke-width="1.5"/>
  <line x1="760.0" y1="359.0" x2="760.0" y2="599.0" stroke="#9ca3af" stroke-width="1.5"/>
  <line x1="90.0" y1="599.0" x2="760.0" y2="599.0" stroke="#9ca3af" stroke-width="1.5"/>
  <text x="40.0" y="479.0" text-anchor="middle" fill="#374151" font-size="10" font-weight="600" transform="rotate(-90,40.0,479.0)">msg/s</text>
  <polyline points="90.0,576.9 145.8,577.2 201.7,576.7 257.5,581.3 313.3,581.3 369.2,580.0 425.0,583.9 480.8,584.7 536.7,586.7 592.5,589.7 648.3,594.0 704.2,595.7 760.0,597.2" fill="none" stroke="#10b981" stroke-width="2" stroke-dasharray="6,4"/>
  <polyline points="90.0,554.5 145.8,536.2 201.7,537.0 257.5,538.4 313.3,541.8 369.2,547.4 425.0,555.4 480.8,566.6 536.7,577.0 592.5,586.0 648.3,591.7 704.2,595.3 760.0,597.0" fill="none" stroke="#2563eb" stroke-width="2" stroke-dasharray="6,4"/>
  <polyline points="90.0,392.0 145.8,390.3 201.7,392.8 257.5,427.1 313.3,468.2 369.2,501.4 425.0,537.8 480.8,564.2 536.7,580.1 592.5,589.2 648.3,594.1 704.2,595.9 760.0,596.9" fill="none" stroke="#eab308" stroke-width="2" stroke-dasharray="6,4"/>
  <polyline points="90.0,501.2 145.8,495.3 201.7,483.1 257.5,480.3 313.3,482.9 369.2,493.1 425.0,502.5 480.8,530.1 536.7,556.2 592.5,575.1 648.3,586.5 704.2,591.9 760.0,595.5" fill="none" stroke="#f97316" stroke-width="2" stroke-dasharray="6,4"/>
  <polyline points="90.0,425.2 145.8,429.2 201.7,434.8 257.5,489.0 313.3,496.8 369.2,512.3 425.0,530.3 480.8,550.4 536.7,571.9 592.5,584.8 648.3,591.3 704.2,594.9 760.0,597.0" fill="none" stroke="#dc2626" stroke-width="2" stroke-dasharray="6,4"/>
  <polyline points="90.0,598.7 145.8,598.4 201.7,597.7 257.5,597.0 313.3,594.9 369.2,590.3 425.0,585.1 480.8,572.9 536.7,553.8 592.5,530.8 648.3,525.7 704.2,501.2 760.0,491.4" fill="none" stroke="#10b981" stroke-width="2.5" stroke-linecap="round" stroke-linejoin="round"/>
  <circle cx="90.0" cy="598.7" r="3" fill="#10b981" stroke="white" stroke-width="1"/>
  <circle cx="145.8" cy="598.4" r="3" fill="#10b981" stroke="white" stroke-width="1"/>
  <circle cx="201.7" cy="597.7" r="3" fill="#10b981" stroke="white" stroke-width="1"/>
  <circle cx="257.5" cy="597.0" r="3" fill="#10b981" stroke="white" stroke-width="1"/>
  <circle cx="313.3" cy="594.9" r="3" fill="#10b981" stroke="white" stroke-width="1"/>
  <circle cx="369.2" cy="590.3" r="3" fill="#10b981" stroke="white" stroke-width="1"/>
  <circle cx="425.0" cy="585.1" r="3" fill="#10b981" stroke="white" stroke-width="1"/>
  <circle cx="480.8" cy="572.9" r="3" fill="#10b981" stroke="white" stroke-width="1"/>
  <circle cx="536.7" cy="553.8" r="3" fill="#10b981" stroke="white" stroke-width="1"/>
  <circle cx="592.5" cy="530.8" r="3" fill="#10b981" stroke="white" stroke-width="1"/>
  <circle cx="648.3" cy="525.7" r="3" fill="#10b981" stroke="white" stroke-width="1"/>
  <circle cx="704.2" cy="501.2" r="3" fill="#10b981" stroke="white" stroke-width="1"/>
  <circle cx="760.0" cy="491.4" r="3" fill="#10b981" stroke="white" stroke-width="1"/>
  <polyline points="90.0,598.4 145.8,597.2 201.7,595.4 257.5,592.1 313.3,585.9 369.2,575.4 425.0,559.0 480.8,539.7 536.7,518.3 592.5,503.7 648.3,491.5 704.2,490.0 760.0,482.6" fill="none" stroke="#2563eb" stroke-width="2.5" stroke-linecap="round" stroke-linejoin="round"/>
  <circle cx="90.0" cy="598.4" r="3" fill="#2563eb" stroke="white" stroke-width="1"/>
  <circle cx="145.8" cy="597.2" r="3" fill="#2563eb" stroke="white" stroke-width="1"/>
  <circle cx="201.7" cy="595.4" r="3" fill="#2563eb" stroke="white" stroke-width="1"/>
  <circle cx="257.5" cy="592.1" r="3" fill="#2563eb" stroke="white" stroke-width="1"/>
  <circle cx="313.3" cy="585.9" r="3" fill="#2563eb" stroke="white" stroke-width="1"/>
  <circle cx="369.2" cy="575.4" r="3" fill="#2563eb" stroke="white" stroke-width="1"/>
  <circle cx="425.0" cy="559.0" r="3" fill="#2563eb" stroke="white" stroke-width="1"/>
  <circle cx="480.8" cy="539.7" r="3" fill="#2563eb" stroke="white" stroke-width="1"/>
  <circle cx="536.7" cy="518.3" r="3" fill="#2563eb" stroke="white" stroke-width="1"/>
  <circle cx="592.5" cy="503.7" r="3" fill="#2563eb" stroke="white" stroke-width="1"/>
  <circle cx="648.3" cy="491.5" r="3" fill="#2563eb" stroke="white" stroke-width="1"/>
  <circle cx="704.2" cy="490.0" r="3" fill="#2563eb" stroke="white" stroke-width="1"/>
  <circle cx="760.0" cy="482.6" r="3" fill="#2563eb" stroke="white" stroke-width="1"/>
  <polyline points="90.0,596.0 145.8,593.0 201.7,587.2 257.5,579.3 313.3,569.0 369.2,554.3 425.0,542.9 480.8,535.2 536.7,529.8 592.5,527.3 648.3,527.7 704.2,509.5 760.0,474.9" fill="none" stroke="#eab308" stroke-width="2.5" stroke-linecap="round" stroke-linejoin="round"/>
  <circle cx="90.0" cy="596.0" r="3" fill="#eab308" stroke="white" stroke-width="1"/>
  <circle cx="145.8" cy="593.0" r="3" fill="#eab308" stroke="white" stroke-width="1"/>
  <circle cx="201.7" cy="587.2" r="3" fill="#eab308" stroke="white" stroke-width="1"/>
  <circle cx="257.5" cy="579.3" r="3" fill="#eab308" stroke="white" stroke-width="1"/>
  <circle cx="313.3" cy="569.0" r="3" fill="#eab308" stroke="white" stroke-width="1"/>
  <circle cx="369.2" cy="554.3" r="3" fill="#eab308" stroke="white" stroke-width="1"/>
  <circle cx="425.0" cy="542.9" r="3" fill="#eab308" stroke="white" stroke-width="1"/>
  <circle cx="480.8" cy="535.2" r="3" fill="#eab308" stroke="white" stroke-width="1"/>
  <circle cx="536.7" cy="529.8" r="3" fill="#eab308" stroke="white" stroke-width="1"/>
  <circle cx="592.5" cy="527.3" r="3" fill="#eab308" stroke="white" stroke-width="1"/>
  <circle cx="648.3" cy="527.7" r="3" fill="#eab308" stroke="white" stroke-width="1"/>
  <circle cx="704.2" cy="509.5" r="3" fill="#eab308" stroke="white" stroke-width="1"/>
  <circle cx="760.0" cy="474.9" r="3" fill="#eab308" stroke="white" stroke-width="1"/>
  <polyline points="90.0,597.6 145.8,596.0 201.7,592.4 257.5,585.4 313.3,572.4 369.2,550.5 425.0,510.6 480.8,472.6 536.7,442.0 592.5,423.6 648.3,415.7 704.2,390.3 760.0,394.4" fill="none" stroke="#f97316" stroke-width="2.5" stroke-linecap="round" stroke-linejoin="round"/>
  <circle cx="90.0" cy="597.6" r="3" fill="#f97316" stroke="white" stroke-width="1"/>
  <circle cx="145.8" cy="596.0" r="3" fill="#f97316" stroke="white" stroke-width="1"/>
  <circle cx="201.7" cy="592.4" r="3" fill="#f97316" stroke="white" stroke-width="1"/>
  <circle cx="257.5" cy="585.4" r="3" fill="#f97316" stroke="white" stroke-width="1"/>
  <circle cx="313.3" cy="572.4" r="3" fill="#f97316" stroke="white" stroke-width="1"/>
  <circle cx="369.2" cy="550.5" r="3" fill="#f97316" stroke="white" stroke-width="1"/>
  <circle cx="425.0" cy="510.6" r="3" fill="#f97316" stroke="white" stroke-width="1"/>
  <circle cx="480.8" cy="472.6" r="3" fill="#f97316" stroke="white" stroke-width="1"/>
  <circle cx="536.7" cy="442.0" r="3" fill="#f97316" stroke="white" stroke-width="1"/>
  <circle cx="592.5" cy="423.6" r="3" fill="#f97316" stroke="white" stroke-width="1"/>
  <circle cx="648.3" cy="415.7" r="3" fill="#f97316" stroke="white" stroke-width="1"/>
  <circle cx="704.2" cy="390.3" r="3" fill="#f97316" stroke="white" stroke-width="1"/>
  <circle cx="760.0" cy="394.4" r="3" fill="#f97316" stroke="white" stroke-width="1"/>
  <polyline points="90.0,596.5 145.8,594.1 201.7,589.6 257.5,586.4 313.3,575.6 369.2,559.3 425.0,536.0 480.8,510.0 536.7,499.6 592.5,494.8 648.3,485.8 704.2,479.5 760.0,483.9" fill="none" stroke="#dc2626" stroke-width="2.5" stroke-linecap="round" stroke-linejoin="round"/>
  <circle cx="90.0" cy="596.5" r="3" fill="#dc2626" stroke="white" stroke-width="1"/>
  <circle cx="145.8" cy="594.1" r="3" fill="#dc2626" stroke="white" stroke-width="1"/>
  <circle cx="201.7" cy="589.6" r="3" fill="#dc2626" stroke="white" stroke-width="1"/>
  <circle cx="257.5" cy="586.4" r="3" fill="#dc2626" stroke="white" stroke-width="1"/>
  <circle cx="313.3" cy="575.6" r="3" fill="#dc2626" stroke="white" stroke-width="1"/>
  <circle cx="369.2" cy="559.3" r="3" fill="#dc2626" stroke="white" stroke-width="1"/>
  <circle cx="425.0" cy="536.0" r="3" fill="#dc2626" stroke="white" stroke-width="1"/>
  <circle cx="480.8" cy="510.0" r="3" fill="#dc2626" stroke="white" stroke-width="1"/>
  <circle cx="536.7" cy="499.6" r="3" fill="#dc2626" stroke="white" stroke-width="1"/>
  <circle cx="592.5" cy="494.8" r="3" fill="#dc2626" stroke="white" stroke-width="1"/>
  <circle cx="648.3" cy="485.8" r="3" fill="#dc2626" stroke="white" stroke-width="1"/>
  <circle cx="704.2" cy="479.5" r="3" fill="#dc2626" stroke="white" stroke-width="1"/>
  <circle cx="760.0" cy="483.9" r="3" fill="#dc2626" stroke="white" stroke-width="1"/>
  <text x="90.0" y="613.0" text-anchor="middle" fill="#374151" font-size="8.5">8 B</text>
  <text x="145.8" y="613.0" text-anchor="middle" fill="#374151" font-size="8.5">16 B</text>
  <text x="201.7" y="613.0" text-anchor="middle" fill="#374151" font-size="8.5">32 B</text>
  <text x="257.5" y="613.0" text-anchor="middle" fill="#374151" font-size="8.5">64 B</text>
  <text x="313.3" y="613.0" text-anchor="middle" fill="#374151" font-size="8.5">128 B</text>
  <text x="369.2" y="613.0" text-anchor="middle" fill="#374151" font-size="8.5">256 B</text>
  <text x="425.0" y="613.0" text-anchor="middle" fill="#374151" font-size="8.5">512 B</text>
  <text x="480.8" y="613.0" text-anchor="middle" fill="#374151" font-size="8.5">1 KiB</text>
  <text x="536.7" y="613.0" text-anchor="middle" fill="#374151" font-size="8.5">2 KiB</text>
  <text x="592.5" y="613.0" text-anchor="middle" fill="#374151" font-size="8.5">4 KiB</text>
  <text x="648.3" y="613.0" text-anchor="middle" fill="#374151" font-size="8.5">8 KiB</text>
  <text x="704.2" y="613.0" text-anchor="middle" fill="#374151" font-size="8.5">16 KiB</text>
  <text x="760.0" y="613.0" text-anchor="middle" fill="#374151" font-size="8.5">32 KiB</text>
  <text x="425.0" y="652.0" text-anchor="middle" fill="#111827" font-size="13" font-weight="700">PUSH fan-in (8 PUSH → 1 PULL): TCP loopback</text>
  <line x1="90.0" y1="887.9" x2="760.0" y2="887.9" stroke="#e5e7eb" stroke-width="1"/>
  <text x="82.0" y="887.9" text-anchor="end" dominant-baseline="middle" fill="#374151" font-size="10">1M</text>
  <line x1="90.0" y1="866.8" x2="760.0" y2="866.8" stroke="#e5e7eb" stroke-width="1"/>
  <text x="82.0" y="866.8" text-anchor="end" dominant-baseline="middle" fill="#374151" font-size="10">2M</text>
  <line x1="90.0" y1="845.6" x2="760.0" y2="845.6" stroke="#e5e7eb" stroke-width="1"/>
  <text x="82.0" y="845.6" text-anchor="end" dominant-baseline="middle" fill="#374151" font-size="10">3M</text>
  <line x1="90.0" y1="824.5" x2="760.0" y2="824.5" stroke="#e5e7eb" stroke-width="1"/>
  <text x="82.0" y="824.5" text-anchor="end" dominant-baseline="middle" fill="#374151" font-size="10">4M</text>
  <line x1="90.0" y1="803.4" x2="760.0" y2="803.4" stroke="#e5e7eb" stroke-width="1"/>
  <text x="82.0" y="803.4" text-anchor="end" dominant-baseline="middle" fill="#374151" font-size="10">5M</text>
  <line x1="90.0" y1="782.3" x2="760.0" y2="782.3" stroke="#e5e7eb" stroke-width="1"/>
  <text x="82.0" y="782.3" text-anchor="end" dominant-baseline="middle" fill="#374151" font-size="10">6M</text>
  <line x1="90.0" y1="761.1" x2="760.0" y2="761.1" stroke="#e5e7eb" stroke-width="1"/>
  <text x="82.0" y="761.1" text-anchor="end" dominant-baseline="middle" fill="#374151" font-size="10">7M</text>
  <line x1="90.0" y1="740.0" x2="760.0" y2="740.0" stroke="#e5e7eb" stroke-width="1"/>
  <text x="82.0" y="740.0" text-anchor="end" dominant-baseline="middle" fill="#374151" font-size="10">8M</text>
  <line x1="90.0" y1="718.9" x2="760.0" y2="718.9" stroke="#e5e7eb" stroke-width="1"/>
  <text x="82.0" y="718.9" text-anchor="end" dominant-baseline="middle" fill="#374151" font-size="10">9M</text>
  <line x1="90.0" y1="697.8" x2="760.0" y2="697.8" stroke="#e5e7eb" stroke-width="1"/>
  <text x="82.0" y="697.8" text-anchor="end" dominant-baseline="middle" fill="#374151" font-size="10">10M</text>
  <line x1="90.0" y1="676.6" x2="760.0" y2="676.6" stroke="#e5e7eb" stroke-width="1"/>
  <text x="82.0" y="676.6" text-anchor="end" dominant-baseline="middle" fill="#374151" font-size="10">11M</text>
  <line x1="90.0" y1="865.6" x2="760.0" y2="865.6" stroke="#e5e7eb" stroke-width="1" stroke-dasharray="3,6"/>
  <text x="768.0" y="865.6" text-anchor="start" dominant-baseline="middle" fill="#6b7280" font-size="10">1 GB/s</text>
  <line x1="90.0" y1="822.3" x2="760.0" y2="822.3" stroke="#e5e7eb" stroke-width="1" stroke-dasharray="3,6"/>
  <text x="768.0" y="822.3" text-anchor="start" dominant-baseline="middle" fill="#6b7280" font-size="10">2 GB/s</text>
  <line x1="90.0" y1="778.9" x2="760.0" y2="778.9" stroke="#e5e7eb" stroke-width="1" stroke-dasharray="3,6"/>
  <text x="768.0" y="778.9" text-anchor="start" dominant-baseline="middle" fill="#6b7280" font-size="10">3 GB/s</text>
  <line x1="90.0" y1="735.5" x2="760.0" y2="735.5" stroke="#e5e7eb" stroke-width="1" stroke-dasharray="3,6"/>
  <text x="768.0" y="735.5" text-anchor="start" dominant-baseline="middle" fill="#6b7280" font-size="10">4 GB/s</text>
  <line x1="90.0" y1="692.1" x2="760.0" y2="692.1" stroke="#e5e7eb" stroke-width="1" stroke-dasharray="3,6"/>
  <text x="768.0" y="692.1" text-anchor="start" dominant-baseline="middle" fill="#6b7280" font-size="10">5 GB/s</text>
  <line x1="90.0" y1="669.0" x2="90.0" y2="909.0" stroke="#e5e7eb" stroke-width="1"/>
  <line x1="145.8" y1="669.0" x2="145.8" y2="909.0" stroke="#e5e7eb" stroke-width="1"/>
  <line x1="201.7" y1="669.0" x2="201.7" y2="909.0" stroke="#e5e7eb" stroke-width="1"/>
  <line x1="257.5" y1="669.0" x2="257.5" y2="909.0" stroke="#e5e7eb" stroke-width="1"/>
  <line x1="313.3" y1="669.0" x2="313.3" y2="909.0" stroke="#e5e7eb" stroke-width="1"/>
  <line x1="369.2" y1="669.0" x2="369.2" y2="909.0" stroke="#e5e7eb" stroke-width="1"/>
  <line x1="425.0" y1="669.0" x2="425.0" y2="909.0" stroke="#e5e7eb" stroke-width="1"/>
  <line x1="480.8" y1="669.0" x2="480.8" y2="909.0" stroke="#e5e7eb" stroke-width="1"/>
  <line x1="536.7" y1="669.0" x2="536.7" y2="909.0" stroke="#e5e7eb" stroke-width="1"/>
  <line x1="592.5" y1="669.0" x2="592.5" y2="909.0" stroke="#e5e7eb" stroke-width="1"/>
  <line x1="648.3" y1="669.0" x2="648.3" y2="909.0" stroke="#e5e7eb" stroke-width="1"/>
  <line x1="704.2" y1="669.0" x2="704.2" y2="909.0" stroke="#e5e7eb" stroke-width="1"/>
  <line x1="760.0" y1="669.0" x2="760.0" y2="909.0" stroke="#e5e7eb" stroke-width="1"/>
  <line x1="90.0" y1="669.0" x2="90.0" y2="909.0" stroke="#9ca3af" stroke-width="1.5"/>
  <line x1="760.0" y1="669.0" x2="760.0" y2="909.0" stroke="#9ca3af" stroke-width="1.5"/>
  <line x1="90.0" y1="909.0" x2="760.0" y2="909.0" stroke="#9ca3af" stroke-width="1.5"/>
  <text x="40.0" y="789.0" text-anchor="middle" fill="#374151" font-size="10" font-weight="600" transform="rotate(-90,40.0,789.0)">msg/s</text>
  <polyline points="90.0,896.7 145.8,894.3 201.7,900.4 257.5,899.1 313.3,899.7 369.2,901.4 425.0,901.0 480.8,901.4 536.7,900.6 592.5,905.3 648.3,902.0 704.2,906.2 760.0,907.1" fill="none" stroke="#10b981" stroke-width="2" stroke-dasharray="6,4"/>
  <polyline points="90.0,856.1 145.8,852.6 201.7,852.4 257.5,855.5 313.3,856.8 369.2,861.4 425.0,868.7 480.8,878.9 536.7,888.9 592.5,897.1 648.3,902.4 704.2,905.6 760.0,907.3" fill="none" stroke="#2563eb" stroke-width="2" stroke-dasharray="6,4"/>
  <polyline points="90.0,703.3 145.8,700.3 201.7,700.9 257.5,734.6 313.3,777.8 369.2,813.3 425.0,850.1 480.8,874.7 536.7,891.1 592.5,899.7 648.3,904.4 704.2,906.2 760.0,907.1" fill="none" stroke="#eab308" stroke-width="2" stroke-dasharray="6,4"/>
  <polyline points="90.0,812.0 145.8,823.1 201.7,820.6 257.5,817.9 313.3,822.6 369.2,823.3 425.0,836.8 480.8,853.2 536.7,872.5 592.5,888.1 648.3,898.1 704.2,902.9 760.0,905.9" fill="none" stroke="#f97316" stroke-width="2" stroke-dasharray="6,4"/>
  <polyline points="90.0,746.4 145.8,748.2 201.7,762.9 257.5,806.2 313.3,811.6 369.2,828.5 425.0,842.7 480.8,862.2 536.7,883.5 592.5,895.5 648.3,901.7 704.2,905.3 760.0,907.1" fill="none" stroke="#dc2626" stroke-width="2" stroke-dasharray="6,4"/>
  <polyline points="90.0,908.8 145.8,908.5 201.7,908.4 257.5,907.7 313.3,906.6 369.2,905.0 425.0,900.6 480.8,892.9 536.7,873.7 592.5,877.5 648.3,790.9 704.2,815.7 760.0,779.8" fill="none" stroke="#10b981" stroke-width="2.5" stroke-linecap="round" stroke-linejoin="round"/>
  <circle cx="90.0" cy="908.8" r="3" fill="#10b981" stroke="white" stroke-width="1"/>
  <circle cx="145.8" cy="908.5" r="3" fill="#10b981" stroke="white" stroke-width="1"/>
  <circle cx="201.7" cy="908.4" r="3" fill="#10b981" stroke="white" stroke-width="1"/>
  <circle cx="257.5" cy="907.7" r="3" fill="#10b981" stroke="white" stroke-width="1"/>
  <circle cx="313.3" cy="906.6" r="3" fill="#10b981" stroke="white" stroke-width="1"/>
  <circle cx="369.2" cy="905.0" r="3" fill="#10b981" stroke="white" stroke-width="1"/>
  <circle cx="425.0" cy="900.6" r="3" fill="#10b981" stroke="white" stroke-width="1"/>
  <circle cx="480.8" cy="892.9" r="3" fill="#10b981" stroke="white" stroke-width="1"/>
  <circle cx="536.7" cy="873.7" r="3" fill="#10b981" stroke="white" stroke-width="1"/>
  <circle cx="592.5" cy="877.5" r="3" fill="#10b981" stroke="white" stroke-width="1"/>
  <circle cx="648.3" cy="790.9" r="3" fill="#10b981" stroke="white" stroke-width="1"/>
  <circle cx="704.2" cy="815.7" r="3" fill="#10b981" stroke="white" stroke-width="1"/>
  <circle cx="760.0" cy="779.8" r="3" fill="#10b981" stroke="white" stroke-width="1"/>
  <polyline points="90.0,908.1 145.8,907.1 201.7,905.3 257.5,902.0 313.3,895.3 369.2,884.0 425.0,866.6 480.8,845.8 536.7,824.5 592.5,809.2 648.3,798.2 704.2,796.0 760.0,793.1" fill="none" stroke="#2563eb" stroke-width="2.5" stroke-linecap="round" stroke-linejoin="round"/>
  <circle cx="90.0" cy="908.1" r="3" fill="#2563eb" stroke="white" stroke-width="1"/>
  <circle cx="145.8" cy="907.1" r="3" fill="#2563eb" stroke="white" stroke-width="1"/>
  <circle cx="201.7" cy="905.3" r="3" fill="#2563eb" stroke="white" stroke-width="1"/>
  <circle cx="257.5" cy="902.0" r="3" fill="#2563eb" stroke="white" stroke-width="1"/>
  <circle cx="313.3" cy="895.3" r="3" fill="#2563eb" stroke="white" stroke-width="1"/>
  <circle cx="369.2" cy="884.0" r="3" fill="#2563eb" stroke="white" stroke-width="1"/>
  <circle cx="425.0" cy="866.6" r="3" fill="#2563eb" stroke="white" stroke-width="1"/>
  <circle cx="480.8" cy="845.8" r="3" fill="#2563eb" stroke="white" stroke-width="1"/>
  <circle cx="536.7" cy="824.5" r="3" fill="#2563eb" stroke="white" stroke-width="1"/>
  <circle cx="592.5" cy="809.2" r="3" fill="#2563eb" stroke="white" stroke-width="1"/>
  <circle cx="648.3" cy="798.2" r="3" fill="#2563eb" stroke="white" stroke-width="1"/>
  <circle cx="704.2" cy="796.0" r="3" fill="#2563eb" stroke="white" stroke-width="1"/>
  <circle cx="760.0" cy="793.1" r="3" fill="#2563eb" stroke="white" stroke-width="1"/>
  <polyline points="90.0,905.6 145.8,902.1 201.7,895.3 257.5,886.1 313.3,874.5 369.2,858.7 425.0,847.0 480.8,837.0 536.7,833.7 592.5,830.4 648.3,831.4 704.2,814.1 760.0,777.8" fill="none" stroke="#eab308" stroke-width="2.5" stroke-linecap="round" stroke-linejoin="round"/>
  <circle cx="90.0" cy="905.6" r="3" fill="#eab308" stroke="white" stroke-width="1"/>
  <circle cx="145.8" cy="902.1" r="3" fill="#eab308" stroke="white" stroke-width="1"/>
  <circle cx="201.7" cy="895.3" r="3" fill="#eab308" stroke="white" stroke-width="1"/>
  <circle cx="257.5" cy="886.1" r="3" fill="#eab308" stroke="white" stroke-width="1"/>
  <circle cx="313.3" cy="874.5" r="3" fill="#eab308" stroke="white" stroke-width="1"/>
  <circle cx="369.2" cy="858.7" r="3" fill="#eab308" stroke="white" stroke-width="1"/>
  <circle cx="425.0" cy="847.0" r="3" fill="#eab308" stroke="white" stroke-width="1"/>
  <circle cx="480.8" cy="837.0" r="3" fill="#eab308" stroke="white" stroke-width="1"/>
  <circle cx="536.7" cy="833.7" r="3" fill="#eab308" stroke="white" stroke-width="1"/>
  <circle cx="592.5" cy="830.4" r="3" fill="#eab308" stroke="white" stroke-width="1"/>
  <circle cx="648.3" cy="831.4" r="3" fill="#eab308" stroke="white" stroke-width="1"/>
  <circle cx="704.2" cy="814.1" r="3" fill="#eab308" stroke="white" stroke-width="1"/>
  <circle cx="760.0" cy="777.8" r="3" fill="#eab308" stroke="white" stroke-width="1"/>
  <polyline points="90.0,907.4 145.8,906.2 201.7,903.2 257.5,897.0 313.3,886.3 369.2,864.0 425.0,833.1 480.8,791.7 536.7,755.7 592.5,733.1 648.3,725.1 704.2,702.9 760.0,700.3" fill="none" stroke="#f97316" stroke-width="2.5" stroke-linecap="round" stroke-linejoin="round"/>
  <circle cx="90.0" cy="907.4" r="3" fill="#f97316" stroke="white" stroke-width="1"/>
  <circle cx="145.8" cy="906.2" r="3" fill="#f97316" stroke="white" stroke-width="1"/>
  <circle cx="201.7" cy="903.2" r="3" fill="#f97316" stroke="white" stroke-width="1"/>
  <circle cx="257.5" cy="897.0" r="3" fill="#f97316" stroke="white" stroke-width="1"/>
  <circle cx="313.3" cy="886.3" r="3" fill="#f97316" stroke="white" stroke-width="1"/>
  <circle cx="369.2" cy="864.0" r="3" fill="#f97316" stroke="white" stroke-width="1"/>
  <circle cx="425.0" cy="833.1" r="3" fill="#f97316" stroke="white" stroke-width="1"/>
  <circle cx="480.8" cy="791.7" r="3" fill="#f97316" stroke="white" stroke-width="1"/>
  <circle cx="536.7" cy="755.7" r="3" fill="#f97316" stroke="white" stroke-width="1"/>
  <circle cx="592.5" cy="733.1" r="3" fill="#f97316" stroke="white" stroke-width="1"/>
  <circle cx="648.3" cy="725.1" r="3" fill="#f97316" stroke="white" stroke-width="1"/>
  <circle cx="704.2" cy="702.9" r="3" fill="#f97316" stroke="white" stroke-width="1"/>
  <circle cx="760.0" cy="700.3" r="3" fill="#f97316" stroke="white" stroke-width="1"/>
  <polyline points="90.0,906.3 145.8,903.7 201.7,899.4 257.5,895.5 313.3,883.4 369.2,866.7 425.0,839.3 480.8,810.6 536.7,801.6 592.5,795.3 648.3,786.2 704.2,786.1 760.0,784.4" fill="none" stroke="#dc2626" stroke-width="2.5" stroke-linecap="round" stroke-linejoin="round"/>
  <circle cx="90.0" cy="906.3" r="3" fill="#dc2626" stroke="white" stroke-width="1"/>
  <circle cx="145.8" cy="903.7" r="3" fill="#dc2626" stroke="white" stroke-width="1"/>
  <circle cx="201.7" cy="899.4" r="3" fill="#dc2626" stroke="white" stroke-width="1"/>
  <circle cx="257.5" cy="895.5" r="3" fill="#dc2626" stroke="white" stroke-width="1"/>
  <circle cx="313.3" cy="883.4" r="3" fill="#dc2626" stroke="white" stroke-width="1"/>
  <circle cx="369.2" cy="866.7" r="3" fill="#dc2626" stroke="white" stroke-width="1"/>
  <circle cx="425.0" cy="839.3" r="3" fill="#dc2626" stroke="white" stroke-width="1"/>
  <circle cx="480.8" cy="810.6" r="3" fill="#dc2626" stroke="white" stroke-width="1"/>
  <circle cx="536.7" cy="801.6" r="3" fill="#dc2626" stroke="white" stroke-width="1"/>
  <circle cx="592.5" cy="795.3" r="3" fill="#dc2626" stroke="white" stroke-width="1"/>
  <circle cx="648.3" cy="786.2" r="3" fill="#dc2626" stroke="white" stroke-width="1"/>
  <circle cx="704.2" cy="786.1" r="3" fill="#dc2626" stroke="white" stroke-width="1"/>
  <circle cx="760.0" cy="784.4" r="3" fill="#dc2626" stroke="white" stroke-width="1"/>
  <text x="90.0" y="923.0" text-anchor="middle" fill="#374151" font-size="8.5">8 B</text>
  <text x="145.8" y="923.0" text-anchor="middle" fill="#374151" font-size="8.5">16 B</text>
  <text x="201.7" y="923.0" text-anchor="middle" fill="#374151" font-size="8.5">32 B</text>
  <text x="257.5" y="923.0" text-anchor="middle" fill="#374151" font-size="8.5">64 B</text>
  <text x="313.3" y="923.0" text-anchor="middle" fill="#374151" font-size="8.5">128 B</text>
  <text x="369.2" y="923.0" text-anchor="middle" fill="#374151" font-size="8.5">256 B</text>
  <text x="425.0" y="923.0" text-anchor="middle" fill="#374151" font-size="8.5">512 B</text>
  <text x="480.8" y="923.0" text-anchor="middle" fill="#374151" font-size="8.5">1 KiB</text>
  <text x="536.7" y="923.0" text-anchor="middle" fill="#374151" font-size="8.5">2 KiB</text>
  <text x="592.5" y="923.0" text-anchor="middle" fill="#374151" font-size="8.5">4 KiB</text>
  <text x="648.3" y="923.0" text-anchor="middle" fill="#374151" font-size="8.5">8 KiB</text>
  <text x="704.2" y="923.0" text-anchor="middle" fill="#374151" font-size="8.5">16 KiB</text>
  <text x="760.0" y="923.0" text-anchor="middle" fill="#374151" font-size="8.5">32 KiB</text>
  <line x1="112" y1="949" x2="126" y2="949" stroke="#eab308" stroke-width="2.5"/>
  <circle cx="120" cy="949" r="2.5" fill="#eab308"/>
  <text x="132" y="953" fill="#374151" font-size="11" font-weight="500">libzmq v4.3.5</text>
  <line x1="238" y1="949" x2="252" y2="949" stroke="#dc2626" stroke-width="2.5"/>
  <circle cx="244" cy="949" r="2.5" fill="#dc2626"/>
  <text x="258" y="953" fill="#374151" font-size="11" font-weight="500">omq-compio</text>
  <line x1="362" y1="949" x2="376" y2="949" stroke="#f97316" stroke-width="2.5"/>
  <circle cx="370" cy="949" r="2.5" fill="#f97316"/>
  <text x="382" y="953" fill="#374151" font-size="11" font-weight="500">omq-tokio</text>
  <line x1="488" y1="949" x2="502" y2="949" stroke="#2563eb" stroke-width="2.5"/>
  <circle cx="494" cy="949" r="2.5" fill="#2563eb"/>
  <text x="508" y="953" fill="#374151" font-size="11" font-weight="500">zmq.rs v0.6.0</text>
  <line x1="612" y1="949" x2="626" y2="949" stroke="#10b981" stroke-width="2.5"/>
  <circle cx="620" cy="949" r="2.5" fill="#10b981"/>
  <text x="632" y="953" fill="#374151" font-size="11" font-weight="500">rzmq v0.5.18</text>
  <line x1="265" y1="971" x2="285" y2="971" stroke="#6b7280" stroke-width="2" stroke-dasharray="6,4"/>
  <text x="291" y="975" fill="#6b7280" font-size="10">msg/s (left axis)</text>
  <line x1="435" y1="971" x2="455" y2="971" stroke="#6b7280" stroke-width="2"/>
  <circle cx="445" cy="971" r="2" fill="#6b7280"/>
  <text x="461" y="975" fill="#6b7280" font-size="10">throughput / GB/s (right axis)</text>
</svg>
