<svg xmlns="http://www.w3.org/2000/svg" viewBox="0 0 875 1059" font-family="system-ui, -apple-system, sans-serif">
  <rect width="875" height="1059" fill="white"/>
  <text x="395.0" y="46" text-anchor="middle" fill="#9ca3af" font-size="10">Linux VM on a 2018 Mac Mini, Intel Core i7-8700B @ 3.20GHz, 6 cores, performance governor, turbo off</text>
  <text x="395.0" y="32.0" text-anchor="middle" fill="#111827" font-size="13" font-weight="700">PUSH fan-in (2 PUSH → 1 PULL): TCP loopback</text>
  <line x1="90.0" y1="257.0" x2="700.0" y2="257.0" stroke="#e5e7eb" stroke-width="1"/>
  <text x="82.0" y="257.0" text-anchor="end" dominant-baseline="middle" fill="#374151" font-size="10">100%</text>
  <line x1="90.0" y1="205.0" x2="700.0" y2="205.0" stroke="#e5e7eb" stroke-width="1"/>
  <text x="82.0" y="205.0" text-anchor="end" dominant-baseline="middle" fill="#374151" font-size="10">200%</text>
  <line x1="90.0" y1="153.0" x2="700.0" y2="153.0" stroke="#e5e7eb" stroke-width="1"/>
  <text x="82.0" y="153.0" text-anchor="end" dominant-baseline="middle" fill="#374151" font-size="10">300%</text>
  <line x1="90.0" y1="101.0" x2="700.0" y2="101.0" stroke="#e5e7eb" stroke-width="1"/>
  <text x="82.0" y="101.0" text-anchor="end" dominant-baseline="middle" fill="#374151" font-size="10">400%</text>
  <line x1="90.0" y1="49.0" x2="700.0" y2="49.0" stroke="#e5e7eb" stroke-width="1"/>
  <text x="82.0" y="49.0" text-anchor="end" dominant-baseline="middle" fill="#374151" font-size="10">500%</text>
  <line x1="90.0" y1="258.8" x2="700.0" y2="258.8" stroke="#e5e7eb" stroke-width="1" stroke-dasharray="3,6"/>
  <text x="708.0" y="258.8" text-anchor="start" dominant-baseline="middle" fill="#6b7280" font-size="10">1 GB/s</text>
  <line x1="90.0" y1="208.6" x2="700.0" y2="208.6" stroke="#e5e7eb" stroke-width="1" stroke-dasharray="3,6"/>
  <text x="708.0" y="208.6" text-anchor="start" dominant-baseline="middle" fill="#6b7280" font-size="10">2 GB/s</text>
  <line x1="90.0" y1="158.4" x2="700.0" y2="158.4" stroke="#e5e7eb" stroke-width="1" stroke-dasharray="3,6"/>
  <text x="708.0" y="158.4" text-anchor="start" dominant-baseline="middle" fill="#6b7280" font-size="10">3 GB/s</text>
  <line x1="90.0" y1="108.2" x2="700.0" y2="108.2" stroke="#e5e7eb" stroke-width="1" stroke-dasharray="3,6"/>
  <text x="708.0" y="108.2" text-anchor="start" dominant-baseline="middle" fill="#6b7280" font-size="10">4 GB/s</text>
  <line x1="90.0" y1="58.0" x2="700.0" y2="58.0" stroke="#e5e7eb" stroke-width="1" stroke-dasharray="3,6"/>
  <text x="708.0" y="58.0" text-anchor="start" dominant-baseline="middle" fill="#6b7280" font-size="10">5 GB/s</text>
  <text x="788.0" y="256.8" text-anchor="start" dominant-baseline="middle" fill="#9ca3af" font-size="10">2M/s</text>
  <text x="788.0" y="204.5" text-anchor="start" dominant-baseline="middle" fill="#9ca3af" font-size="10">4M/s</text>
  <text x="788.0" y="152.3" text-anchor="start" dominant-baseline="middle" fill="#9ca3af" font-size="10">6M/s</text>
  <text x="788.0" y="100.1" text-anchor="start" dominant-baseline="middle" fill="#9ca3af" font-size="10">8M/s</text>
  <line x1="90.0" y1="49.0" x2="90.0" y2="309.0" stroke="#e5e7eb" stroke-width="1"/>
  <line x1="140.8" y1="49.0" x2="140.8" y2="309.0" stroke="#e5e7eb" stroke-width="1"/>
  <line x1="191.7" y1="49.0" x2="191.7" y2="309.0" stroke="#e5e7eb" stroke-width="1"/>
  <line x1="242.5" y1="49.0" x2="242.5" y2="309.0" stroke="#e5e7eb" stroke-width="1"/>
  <line x1="293.3" y1="49.0" x2="293.3" y2="309.0" stroke="#e5e7eb" stroke-width="1"/>
  <line x1="344.2" y1="49.0" x2="344.2" y2="309.0" stroke="#e5e7eb" stroke-width="1"/>
  <line x1="395.0" y1="49.0" x2="395.0" y2="309.0" stroke="#e5e7eb" stroke-width="1"/>
  <line x1="445.8" y1="49.0" x2="445.8" y2="309.0" stroke="#e5e7eb" stroke-width="1"/>
  <line x1="496.7" y1="49.0" x2="496.7" y2="309.0" stroke="#e5e7eb" stroke-width="1"/>
  <line x1="547.5" y1="49.0" x2="547.5" y2="309.0" stroke="#e5e7eb" stroke-width="1"/>
  <line x1="598.3" y1="49.0" x2="598.3" y2="309.0" stroke="#e5e7eb" stroke-width="1"/>
  <line x1="649.2" y1="49.0" x2="649.2" y2="309.0" stroke="#e5e7eb" stroke-width="1"/>
  <line x1="700.0" y1="49.0" x2="700.0" y2="309.0" stroke="#e5e7eb" stroke-width="1"/>
  <line x1="90.0" y1="49.0" x2="90.0" y2="309.0" stroke="#9ca3af" stroke-width="1.5"/>
  <line x1="700.0" y1="49.0" x2="700.0" y2="309.0" stroke="#9ca3af" stroke-width="1.5"/>
  <line x1="90.0" y1="309.0" x2="700.0" y2="309.0" stroke="#9ca3af" stroke-width="1.5"/>
  <line x1="780.0" y1="49.0" x2="780.0" y2="309.0" stroke="#d1d5db" stroke-width="1"/>
  <text x="40.0" y="179.0" text-anchor="middle" fill="#374151" font-size="10" font-weight="600" transform="rotate(-90,40.0,179.0)">CPU %</text>
  <polyline points="90.0,167.0 140.8,173.8 191.7,176.4 242.5,134.3 293.3,88.8 344.2,98.1 395.0,161.6 445.8,200.1 496.7,224.2 547.5,231.0 598.3,228.1 649.2,229.4 700.0,214.6" fill="none" stroke="#eab308" stroke-width="2" stroke-dasharray="2,3"/>
  <polyline points="90.0,273.1 140.8,274.7 191.7,270.8 242.5,279.6 293.3,278.1 344.2,274.4 395.0,269.0 445.8,260.6 496.7,264.3 547.5,226.1 598.3,228.2 649.2,216.0 700.0,250.6" fill="none" stroke="#dc2626" stroke-width="2" stroke-dasharray="2,3"/>
  <polyline points="90.0,271.0 140.8,274.2 191.7,273.6 242.5,278.8 293.3,278.1 344.2,276.2 395.0,271.3 445.8,262.5 496.7,249.7 547.5,237.8 598.3,227.4 649.2,219.8 700.0,249.3" fill="none" stroke="#f97316" stroke-width="2" stroke-dasharray="2,3"/>
  <polyline points="90.0,282.5 140.8,282.0 191.7,277.5 242.5,278.6 293.3,267.9 344.2,263.0 395.0,260.4 445.8,258.3 496.7,267.9 547.5,254.2 598.3,254.1 649.2,265.6 700.0,263.3" fill="none" stroke="#7c3aed" stroke-width="2" stroke-dasharray="2,3"/>
  <polyline points="90.0,82.9 140.8,96.4 191.7,91.5 242.5,139.1 293.3,193.4 344.2,203.8 395.0,238.4 445.8,268.4 496.7,287.8 547.5,298.1 598.3,303.1 649.2,305.7 700.0,306.6" fill="none" stroke="#eab308" stroke-width="1.5" stroke-dasharray="5,3"/>
  <polyline points="90.0,188.1 140.8,191.4 191.7,186.9 242.5,215.5 293.3,218.2 344.2,226.7 395.0,235.5 445.8,247.9 496.7,275.8 547.5,283.9 598.3,297.7 649.2,301.9 700.0,306.4" fill="none" stroke="#dc2626" stroke-width="1.5" stroke-dasharray="5,3"/>
  <polyline points="90.0,186.3 140.8,187.3 191.7,188.1 242.5,213.8 293.3,218.1 344.2,230.8 395.0,238.8 445.8,249.2 496.7,268.9 547.5,285.4 598.3,297.1 649.2,301.8 700.0,306.8" fill="none" stroke="#f97316" stroke-width="1.5" stroke-dasharray="5,3"/>
  <polyline points="90.0,105.3 140.8,123.2 191.7,117.5 242.5,179.6 293.3,189.4 344.2,213.7 395.0,230.7 445.8,254.3 496.7,282.6 547.5,292.2 598.3,300.5 649.2,304.8 700.0,306.9" fill="none" stroke="#7c3aed" stroke-width="1.5" stroke-dasharray="5,3"/>
  <polyline points="90.0,305.5 140.8,302.5 191.7,295.6 242.5,288.1 293.3,280.6 344.2,257.2 395.0,239.5 445.8,229.2 496.7,225.4 547.5,222.9 598.3,215.9 649.2,206.0 700.0,160.5" fill="none" stroke="#eab308" stroke-width="2.5" stroke-linecap="round" stroke-linejoin="round"/>
  <circle cx="90.0" cy="305.5" r="3" fill="#eab308" stroke="white" stroke-width="1"/>
  <circle cx="140.8" cy="302.5" r="3" fill="#eab308" stroke="white" stroke-width="1"/>
  <circle cx="191.7" cy="295.6" r="3" fill="#eab308" stroke="white" stroke-width="1"/>
  <circle cx="242.5" cy="288.1" r="3" fill="#eab308" stroke="white" stroke-width="1"/>
  <circle cx="293.3" cy="280.6" r="3" fill="#eab308" stroke="white" stroke-width="1"/>
  <circle cx="344.2" cy="257.2" r="3" fill="#eab308" stroke="white" stroke-width="1"/>
  <circle cx="395.0" cy="239.5" r="3" fill="#eab308" stroke="white" stroke-width="1"/>
  <circle cx="445.8" cy="229.2" r="3" fill="#eab308" stroke="white" stroke-width="1"/>
  <circle cx="496.7" cy="225.4" r="3" fill="#eab308" stroke="white" stroke-width="1"/>
  <circle cx="547.5" cy="222.9" r="3" fill="#eab308" stroke="white" stroke-width="1"/>
  <circle cx="598.3" cy="215.9" r="3" fill="#eab308" stroke="white" stroke-width="1"/>
  <circle cx="649.2" cy="206.0" r="3" fill="#eab308" stroke="white" stroke-width="1"/>
  <circle cx="700.0" cy="160.5" r="3" fill="#eab308" stroke="white" stroke-width="1"/>
  <polyline points="90.0,307.1 140.8,305.4 191.7,301.5 242.5,297.5 293.3,286.6 344.2,268.5 395.0,236.6 445.8,188.7 496.7,178.4 547.5,111.4 598.3,131.7 649.2,84.5 700.0,145.8" fill="none" stroke="#dc2626" stroke-width="2.5" stroke-linecap="round" stroke-linejoin="round"/>
  <circle cx="90.0" cy="307.1" r="3" fill="#dc2626" stroke="white" stroke-width="1"/>
  <circle cx="140.8" cy="305.4" r="3" fill="#dc2626" stroke="white" stroke-width="1"/>
  <circle cx="191.7" cy="301.5" r="3" fill="#dc2626" stroke="white" stroke-width="1"/>
  <circle cx="242.5" cy="297.5" r="3" fill="#dc2626" stroke="white" stroke-width="1"/>
  <circle cx="293.3" cy="286.6" r="3" fill="#dc2626" stroke="white" stroke-width="1"/>
  <circle cx="344.2" cy="268.5" r="3" fill="#dc2626" stroke="white" stroke-width="1"/>
  <circle cx="395.0" cy="236.6" r="3" fill="#dc2626" stroke="white" stroke-width="1"/>
  <circle cx="445.8" cy="188.7" r="3" fill="#dc2626" stroke="white" stroke-width="1"/>
  <circle cx="496.7" cy="178.4" r="3" fill="#dc2626" stroke="white" stroke-width="1"/>
  <circle cx="547.5" cy="111.4" r="3" fill="#dc2626" stroke="white" stroke-width="1"/>
  <circle cx="598.3" cy="131.7" r="3" fill="#dc2626" stroke="white" stroke-width="1"/>
  <circle cx="649.2" cy="84.5" r="3" fill="#dc2626" stroke="white" stroke-width="1"/>
  <circle cx="700.0" cy="145.8" r="3" fill="#dc2626" stroke="white" stroke-width="1"/>
  <polyline points="90.0,307.1 140.8,305.3 191.7,301.6 242.5,297.3 293.3,286.6 344.2,270.5 395.0,239.9 445.8,191.3 496.7,151.2 547.5,123.1 598.3,121.4 649.2,82.9 700.0,169.7" fill="none" stroke="#f97316" stroke-width="2.5" stroke-linecap="round" stroke-linejoin="round"/>
  <circle cx="90.0" cy="307.1" r="3" fill="#f97316" stroke="white" stroke-width="1"/>
  <circle cx="140.8" cy="305.3" r="3" fill="#f97316" stroke="white" stroke-width="1"/>
  <circle cx="191.7" cy="301.6" r="3" fill="#f97316" stroke="white" stroke-width="1"/>
  <circle cx="242.5" cy="297.3" r="3" fill="#f97316" stroke="white" stroke-width="1"/>
  <circle cx="293.3" cy="286.6" r="3" fill="#f97316" stroke="white" stroke-width="1"/>
  <circle cx="344.2" cy="270.5" r="3" fill="#f97316" stroke="white" stroke-width="1"/>
  <circle cx="395.0" cy="239.9" r="3" fill="#f97316" stroke="white" stroke-width="1"/>
  <circle cx="445.8" cy="191.3" r="3" fill="#f97316" stroke="white" stroke-width="1"/>
  <circle cx="496.7" cy="151.2" r="3" fill="#f97316" stroke="white" stroke-width="1"/>
  <circle cx="547.5" cy="123.1" r="3" fill="#f97316" stroke="white" stroke-width="1"/>
  <circle cx="598.3" cy="121.4" r="3" fill="#f97316" stroke="white" stroke-width="1"/>
  <circle cx="649.2" cy="82.9" r="3" fill="#f97316" stroke="white" stroke-width="1"/>
  <circle cx="700.0" cy="169.7" r="3" fill="#f97316" stroke="white" stroke-width="1"/>
  <polyline points="90.0,305.9 140.8,303.3 191.7,297.2 242.5,293.1 293.3,279.6 344.2,262.1 395.0,232.0 445.8,201.3 496.7,205.1 547.5,177.0 598.3,175.0 649.2,177.2 700.0,176.7" fill="none" stroke="#7c3aed" stroke-width="2.5" stroke-linecap="round" stroke-linejoin="round"/>
  <circle cx="90.0" cy="305.9" r="3" fill="#7c3aed" stroke="white" stroke-width="1"/>
  <circle cx="140.8" cy="303.3" r="3" fill="#7c3aed" stroke="white" stroke-width="1"/>
  <circle cx="191.7" cy="297.2" r="3" fill="#7c3aed" stroke="white" stroke-width="1"/>
  <circle cx="242.5" cy="293.1" r="3" fill="#7c3aed" stroke="white" stroke-width="1"/>
  <circle cx="293.3" cy="279.6" r="3" fill="#7c3aed" stroke="white" stroke-width="1"/>
  <circle cx="344.2" cy="262.1" r="3" fill="#7c3aed" stroke="white" stroke-width="1"/>
  <circle cx="395.0" cy="232.0" r="3" fill="#7c3aed" stroke="white" stroke-width="1"/>
  <circle cx="445.8" cy="201.3" r="3" fill="#7c3aed" stroke="white" stroke-width="1"/>
  <circle cx="496.7" cy="205.1" r="3" fill="#7c3aed" stroke="white" stroke-width="1"/>
  <circle cx="547.5" cy="177.0" r="3" fill="#7c3aed" stroke="white" stroke-width="1"/>
  <circle cx="598.3" cy="175.0" r="3" fill="#7c3aed" stroke="white" stroke-width="1"/>
  <circle cx="649.2" cy="177.2" r="3" fill="#7c3aed" stroke="white" stroke-width="1"/>
  <circle cx="700.0" cy="176.7" r="3" fill="#7c3aed" stroke="white" stroke-width="1"/>
  <text x="90.0" y="323.0" text-anchor="middle" fill="#374151" font-size="8.5">8 B</text>
  <text x="140.8" y="323.0" text-anchor="middle" fill="#374151" font-size="8.5">16 B</text>
  <text x="191.7" y="323.0" text-anchor="middle" fill="#374151" font-size="8.5">32 B</text>
  <text x="242.5" y="323.0" text-anchor="middle" fill="#374151" font-size="8.5">64 B</text>
  <text x="293.3" y="323.0" text-anchor="middle" fill="#374151" font-size="8.5">128 B</text>
  <text x="344.2" y="323.0" text-anchor="middle" fill="#374151" font-size="8.5">256 B</text>
  <text x="395.0" y="323.0" text-anchor="middle" fill="#374151" font-size="8.5">512 B</text>
  <text x="445.8" y="323.0" text-anchor="middle" fill="#374151" font-size="8.5">1 KiB</text>
  <text x="496.7" y="323.0" text-anchor="middle" fill="#374151" font-size="8.5">2 KiB</text>
  <text x="547.5" y="323.0" text-anchor="middle" fill="#374151" font-size="8.5">4 KiB</text>
  <text x="598.3" y="323.0" text-anchor="middle" fill="#374151" font-size="8.5">8 KiB</text>
  <text x="649.2" y="323.0" text-anchor="middle" fill="#374151" font-size="8.5">16 KiB</text>
  <text x="700.0" y="323.0" text-anchor="middle" fill="#374151" font-size="8.5">32 KiB</text>
  <text x="395.0" y="362.0" text-anchor="middle" fill="#111827" font-size="13" font-weight="700">PUSH fan-in (4 PUSH → 1 PULL): TCP loopback</text>
  <line x1="90.0" y1="587.0" x2="700.0" y2="587.0" stroke="#e5e7eb" stroke-width="1"/>
  <text x="82.0" y="587.0" text-anchor="end" dominant-baseline="middle" fill="#374151" font-size="10">100%</text>
  <line x1="90.0" y1="535.0" x2="700.0" y2="535.0" stroke="#e5e7eb" stroke-width="1"/>
  <text x="82.0" y="535.0" text-anchor="end" dominant-baseline="middle" fill="#374151" font-size="10">200%</text>
  <line x1="90.0" y1="483.0" x2="700.0" y2="483.0" stroke="#e5e7eb" stroke-width="1"/>
  <text x="82.0" y="483.0" text-anchor="end" dominant-baseline="middle" fill="#374151" font-size="10">300%</text>
  <line x1="90.0" y1="431.0" x2="700.0" y2="431.0" stroke="#e5e7eb" stroke-width="1"/>
  <text x="82.0" y="431.0" text-anchor="end" dominant-baseline="middle" fill="#374151" font-size="10">400%</text>
  <line x1="90.0" y1="379.0" x2="700.0" y2="379.0" stroke="#e5e7eb" stroke-width="1"/>
  <text x="82.0" y="379.0" text-anchor="end" dominant-baseline="middle" fill="#374151" font-size="10">500%</text>
  <line x1="90.0" y1="588.1" x2="700.0" y2="588.1" stroke="#e5e7eb" stroke-width="1" stroke-dasharray="3,6"/>
  <text x="708.0" y="588.1" text-anchor="start" dominant-baseline="middle" fill="#6b7280" font-size="10">1 GB/s</text>
  <line x1="90.0" y1="537.1" x2="700.0" y2="537.1" stroke="#e5e7eb" stroke-width="1" stroke-dasharray="3,6"/>
  <text x="708.0" y="537.1" text-anchor="start" dominant-baseline="middle" fill="#6b7280" font-size="10">2 GB/s</text>
  <line x1="90.0" y1="486.2" x2="700.0" y2="486.2" stroke="#e5e7eb" stroke-width="1" stroke-dasharray="3,6"/>
  <text x="708.0" y="486.2" text-anchor="start" dominant-baseline="middle" fill="#6b7280" font-size="10">3 GB/s</text>
  <line x1="90.0" y1="435.3" x2="700.0" y2="435.3" stroke="#e5e7eb" stroke-width="1" stroke-dasharray="3,6"/>
  <text x="708.0" y="435.3" text-anchor="start" dominant-baseline="middle" fill="#6b7280" font-size="10">4 GB/s</text>
  <line x1="90.0" y1="384.3" x2="700.0" y2="384.3" stroke="#e5e7eb" stroke-width="1" stroke-dasharray="3,6"/>
  <text x="708.0" y="384.3" text-anchor="start" dominant-baseline="middle" fill="#6b7280" font-size="10">5 GB/s</text>
  <text x="788.0" y="589.8" text-anchor="start" dominant-baseline="middle" fill="#9ca3af" font-size="10">2M/s</text>
  <text x="788.0" y="540.6" text-anchor="start" dominant-baseline="middle" fill="#9ca3af" font-size="10">4M/s</text>
  <text x="788.0" y="491.4" text-anchor="start" dominant-baseline="middle" fill="#9ca3af" font-size="10">6M/s</text>
  <text x="788.0" y="442.2" text-anchor="start" dominant-baseline="middle" fill="#9ca3af" font-size="10">8M/s</text>
  <text x="788.0" y="393.0" text-anchor="start" dominant-baseline="middle" fill="#9ca3af" font-size="10">10M/s</text>
  <line x1="90.0" y1="379.0" x2="90.0" y2="639.0" stroke="#e5e7eb" stroke-width="1"/>
  <line x1="140.8" y1="379.0" x2="140.8" y2="639.0" stroke="#e5e7eb" stroke-width="1"/>
  <line x1="191.7" y1="379.0" x2="191.7" y2="639.0" stroke="#e5e7eb" stroke-width="1"/>
  <line x1="242.5" y1="379.0" x2="242.5" y2="639.0" stroke="#e5e7eb" stroke-width="1"/>
  <line x1="293.3" y1="379.0" x2="293.3" y2="639.0" stroke="#e5e7eb" stroke-width="1"/>
  <line x1="344.2" y1="379.0" x2="344.2" y2="639.0" stroke="#e5e7eb" stroke-width="1"/>
  <line x1="395.0" y1="379.0" x2="395.0" y2="639.0" stroke="#e5e7eb" stroke-width="1"/>
  <line x1="445.8" y1="379.0" x2="445.8" y2="639.0" stroke="#e5e7eb" stroke-width="1"/>
  <line x1="496.7" y1="379.0" x2="496.7" y2="639.0" stroke="#e5e7eb" stroke-width="1"/>
  <line x1="547.5" y1="379.0" x2="547.5" y2="639.0" stroke="#e5e7eb" stroke-width="1"/>
  <line x1="598.3" y1="379.0" x2="598.3" y2="639.0" stroke="#e5e7eb" stroke-width="1"/>
  <line x1="649.2" y1="379.0" x2="649.2" y2="639.0" stroke="#e5e7eb" stroke-width="1"/>
  <line x1="700.0" y1="379.0" x2="700.0" y2="639.0" stroke="#e5e7eb" stroke-width="1"/>
  <line x1="90.0" y1="379.0" x2="90.0" y2="639.0" stroke="#9ca3af" stroke-width="1.5"/>
  <line x1="700.0" y1="379.0" x2="700.0" y2="639.0" stroke="#9ca3af" stroke-width="1.5"/>
  <line x1="90.0" y1="639.0" x2="700.0" y2="639.0" stroke="#9ca3af" stroke-width="1.5"/>
  <line x1="780.0" y1="379.0" x2="780.0" y2="639.0" stroke="#d1d5db" stroke-width="1"/>
  <text x="40.0" y="509.0" text-anchor="middle" fill="#374151" font-size="10" font-weight="600" transform="rotate(-90,40.0,509.0)">CPU %</text>
  <polyline points="90.0,516.3 140.8,495.5 191.7,490.0 242.5,438.8 293.3,415.9 344.2,454.9 395.0,498.3 445.8,519.7 496.7,539.4 547.5,541.0 598.3,558.1 649.2,546.4 700.0,534.7" fill="none" stroke="#eab308" stroke-width="2" stroke-dasharray="2,3"/>
  <polyline points="90.0,599.2 140.8,602.1 191.7,603.6 242.5,608.3 293.3,607.5 344.2,608.3 395.0,599.5 445.8,588.0 496.7,564.4 547.5,559.5 598.3,547.2 649.2,551.0 700.0,543.2" fill="none" stroke="#dc2626" stroke-width="2" stroke-dasharray="2,3"/>
  <polyline points="90.0,599.2 140.8,601.6 191.7,602.9 242.5,603.1 293.3,607.3 344.2,605.7 395.0,600.5 445.8,582.8 496.7,562.8 547.5,557.9 598.3,548.3 649.2,547.1 700.0,544.9" fill="none" stroke="#f97316" stroke-width="2" stroke-dasharray="2,3"/>
  <polyline points="90.0,610.9 140.8,613.8 191.7,607.8 242.5,608.6 293.3,598.4 344.2,594.8 395.0,588.8 445.8,586.2 496.7,587.0 547.5,582.8 598.3,586.0 649.2,593.5 700.0,597.4" fill="none" stroke="#7c3aed" stroke-width="2" stroke-dasharray="2,3"/>
  <polyline points="90.0,413.3 140.8,412.9 191.7,413.0 242.5,447.6 293.3,503.8 344.2,532.3 395.0,571.5 445.8,600.5 496.7,618.5 547.5,628.0 598.3,633.8 649.2,635.8 700.0,636.7" fill="none" stroke="#eab308" stroke-width="1.5" stroke-dasharray="5,3"/>
  <polyline points="90.0,523.0 140.8,523.4 191.7,525.3 242.5,548.2 293.3,551.8 344.2,570.4 395.0,569.8 445.8,578.4 496.7,594.6 547.5,615.6 598.3,627.2 649.2,632.5 700.0,635.7" fill="none" stroke="#dc2626" stroke-width="1.5" stroke-dasharray="5,3"/>
  <polyline points="90.0,523.3 140.8,523.3 191.7,524.4 242.5,549.2 293.3,552.1 344.2,564.0 395.0,571.6 445.8,574.5 496.7,595.1 547.5,615.3 598.3,627.1 649.2,632.4 700.0,635.7" fill="none" stroke="#f97316" stroke-width="1.5" stroke-dasharray="5,3"/>
  <polyline points="90.0,448.0 140.8,464.0 191.7,461.9 242.5,518.6 293.3,527.0 344.2,546.5 395.0,564.2 445.8,586.4 496.7,609.8 547.5,623.5 598.3,631.0 649.2,634.9 700.0,637.1" fill="none" stroke="#7c3aed" stroke-width="1.5" stroke-dasharray="5,3"/>
  <polyline points="90.0,635.3 140.8,631.5 191.7,624.0 242.5,613.6 293.3,603.2 344.2,582.5 395.0,567.5 445.8,557.4 496.7,552.1 547.5,546.1 598.3,550.3 649.2,530.4 700.0,483.9" fill="none" stroke="#eab308" stroke-width="2.5" stroke-linecap="round" stroke-linejoin="round"/>
  <circle cx="90.0" cy="635.3" r="3" fill="#eab308" stroke="white" stroke-width="1"/>
  <circle cx="140.8" cy="631.5" r="3" fill="#eab308" stroke="white" stroke-width="1"/>
  <circle cx="191.7" cy="624.0" r="3" fill="#eab308" stroke="white" stroke-width="1"/>
  <circle cx="242.5" cy="613.6" r="3" fill="#eab308" stroke="white" stroke-width="1"/>
  <circle cx="293.3" cy="603.2" r="3" fill="#eab308" stroke="white" stroke-width="1"/>
  <circle cx="344.2" cy="582.5" r="3" fill="#eab308" stroke="white" stroke-width="1"/>
  <circle cx="395.0" cy="567.5" r="3" fill="#eab308" stroke="white" stroke-width="1"/>
  <circle cx="445.8" cy="557.4" r="3" fill="#eab308" stroke="white" stroke-width="1"/>
  <circle cx="496.7" cy="552.1" r="3" fill="#eab308" stroke="white" stroke-width="1"/>
  <circle cx="547.5" cy="546.1" r="3" fill="#eab308" stroke="white" stroke-width="1"/>
  <circle cx="598.3" cy="550.3" r="3" fill="#eab308" stroke="white" stroke-width="1"/>
  <circle cx="649.2" cy="530.4" r="3" fill="#eab308" stroke="white" stroke-width="1"/>
  <circle cx="700.0" cy="483.9" r="3" fill="#eab308" stroke="white" stroke-width="1"/>
  <polyline points="90.0,637.1 140.8,635.2 191.7,631.5 242.5,627.0 293.3,615.9 344.2,602.6 395.0,565.7 445.8,510.5 496.7,450.7 547.5,440.7 598.3,439.6 649.2,416.9 700.0,412.9" fill="none" stroke="#dc2626" stroke-width="2.5" stroke-linecap="round" stroke-linejoin="round"/>
  <circle cx="90.0" cy="637.1" r="3" fill="#dc2626" stroke="white" stroke-width="1"/>
  <circle cx="140.8" cy="635.2" r="3" fill="#dc2626" stroke="white" stroke-width="1"/>
  <circle cx="191.7" cy="631.5" r="3" fill="#dc2626" stroke="white" stroke-width="1"/>
  <circle cx="242.5" cy="627.0" r="3" fill="#dc2626" stroke="white" stroke-width="1"/>
  <circle cx="293.3" cy="615.9" r="3" fill="#dc2626" stroke="white" stroke-width="1"/>
  <circle cx="344.2" cy="602.6" r="3" fill="#dc2626" stroke="white" stroke-width="1"/>
  <circle cx="395.0" cy="565.7" r="3" fill="#dc2626" stroke="white" stroke-width="1"/>
  <circle cx="445.8" cy="510.5" r="3" fill="#dc2626" stroke="white" stroke-width="1"/>
  <circle cx="496.7" cy="450.7" r="3" fill="#dc2626" stroke="white" stroke-width="1"/>
  <circle cx="547.5" cy="440.7" r="3" fill="#dc2626" stroke="white" stroke-width="1"/>
  <circle cx="598.3" cy="439.6" r="3" fill="#dc2626" stroke="white" stroke-width="1"/>
  <circle cx="649.2" cy="416.9" r="3" fill="#dc2626" stroke="white" stroke-width="1"/>
  <circle cx="700.0" cy="412.9" r="3" fill="#dc2626" stroke="white" stroke-width="1"/>
  <polyline points="90.0,637.1 140.8,635.2 191.7,631.4 242.5,627.1 293.3,616.0 344.2,599.2 395.0,567.5 445.8,502.2 496.7,452.7 547.5,438.1 598.3,437.4 649.2,414.5 700.0,413.3" fill="none" stroke="#f97316" stroke-width="2.5" stroke-linecap="round" stroke-linejoin="round"/>
  <circle cx="90.0" cy="637.1" r="3" fill="#f97316" stroke="white" stroke-width="1"/>
  <circle cx="140.8" cy="635.2" r="3" fill="#f97316" stroke="white" stroke-width="1"/>
  <circle cx="191.7" cy="631.4" r="3" fill="#f97316" stroke="white" stroke-width="1"/>
  <circle cx="242.5" cy="627.1" r="3" fill="#f97316" stroke="white" stroke-width="1"/>
  <circle cx="293.3" cy="616.0" r="3" fill="#f97316" stroke="white" stroke-width="1"/>
  <circle cx="344.2" cy="599.2" r="3" fill="#f97316" stroke="white" stroke-width="1"/>
  <circle cx="395.0" cy="567.5" r="3" fill="#f97316" stroke="white" stroke-width="1"/>
  <circle cx="445.8" cy="502.2" r="3" fill="#f97316" stroke="white" stroke-width="1"/>
  <circle cx="496.7" cy="452.7" r="3" fill="#f97316" stroke="white" stroke-width="1"/>
  <circle cx="547.5" cy="438.1" r="3" fill="#f97316" stroke="white" stroke-width="1"/>
  <circle cx="598.3" cy="437.4" r="3" fill="#f97316" stroke="white" stroke-width="1"/>
  <circle cx="649.2" cy="414.5" r="3" fill="#f97316" stroke="white" stroke-width="1"/>
  <circle cx="700.0" cy="413.3" r="3" fill="#f97316" stroke="white" stroke-width="1"/>
  <polyline points="90.0,635.8 140.8,633.2 191.7,627.3 242.5,623.1 293.3,609.3 344.2,590.0 395.0,559.7 445.8,527.4 496.7,515.1 547.5,507.5 598.3,503.8 649.2,500.0 700.0,512.0" fill="none" stroke="#7c3aed" stroke-width="2.5" stroke-linecap="round" stroke-linejoin="round"/>
  <circle cx="90.0" cy="635.8" r="3" fill="#7c3aed" stroke="white" stroke-width="1"/>
  <circle cx="140.8" cy="633.2" r="3" fill="#7c3aed" stroke="white" stroke-width="1"/>
  <circle cx="191.7" cy="627.3" r="3" fill="#7c3aed" stroke="white" stroke-width="1"/>
  <circle cx="242.5" cy="623.1" r="3" fill="#7c3aed" stroke="white" stroke-width="1"/>
  <circle cx="293.3" cy="609.3" r="3" fill="#7c3aed" stroke="white" stroke-width="1"/>
  <circle cx="344.2" cy="590.0" r="3" fill="#7c3aed" stroke="white" stroke-width="1"/>
  <circle cx="395.0" cy="559.7" r="3" fill="#7c3aed" stroke="white" stroke-width="1"/>
  <circle cx="445.8" cy="527.4" r="3" fill="#7c3aed" stroke="white" stroke-width="1"/>
  <circle cx="496.7" cy="515.1" r="3" fill="#7c3aed" stroke="white" stroke-width="1"/>
  <circle cx="547.5" cy="507.5" r="3" fill="#7c3aed" stroke="white" stroke-width="1"/>
  <circle cx="598.3" cy="503.8" r="3" fill="#7c3aed" stroke="white" stroke-width="1"/>
  <circle cx="649.2" cy="500.0" r="3" fill="#7c3aed" stroke="white" stroke-width="1"/>
  <circle cx="700.0" cy="512.0" r="3" fill="#7c3aed" stroke="white" stroke-width="1"/>
  <text x="90.0" y="653.0" text-anchor="middle" fill="#374151" font-size="8.5">8 B</text>
  <text x="140.8" y="653.0" text-anchor="middle" fill="#374151" font-size="8.5">16 B</text>
  <text x="191.7" y="653.0" text-anchor="middle" fill="#374151" font-size="8.5">32 B</text>
  <text x="242.5" y="653.0" text-anchor="middle" fill="#374151" font-size="8.5">64 B</text>
  <text x="293.3" y="653.0" text-anchor="middle" fill="#374151" font-size="8.5">128 B</text>
  <text x="344.2" y="653.0" text-anchor="middle" fill="#374151" font-size="8.5">256 B</text>
  <text x="395.0" y="653.0" text-anchor="middle" fill="#374151" font-size="8.5">512 B</text>
  <text x="445.8" y="653.0" text-anchor="middle" fill="#374151" font-size="8.5">1 KiB</text>
  <text x="496.7" y="653.0" text-anchor="middle" fill="#374151" font-size="8.5">2 KiB</text>
  <text x="547.5" y="653.0" text-anchor="middle" fill="#374151" font-size="8.5">4 KiB</text>
  <text x="598.3" y="653.0" text-anchor="middle" fill="#374151" font-size="8.5">8 KiB</text>
  <text x="649.2" y="653.0" text-anchor="middle" fill="#374151" font-size="8.5">16 KiB</text>
  <text x="700.0" y="653.0" text-anchor="middle" fill="#374151" font-size="8.5">32 KiB</text>
  <text x="395.0" y="692.0" text-anchor="middle" fill="#111827" font-size="13" font-weight="700">PUSH fan-in (8 PUSH → 1 PULL): TCP loopback</text>
  <line x1="90.0" y1="917.0" x2="700.0" y2="917.0" stroke="#e5e7eb" stroke-width="1"/>
  <text x="82.0" y="917.0" text-anchor="end" dominant-baseline="middle" fill="#374151" font-size="10">100%</text>
  <line x1="90.0" y1="865.0" x2="700.0" y2="865.0" stroke="#e5e7eb" stroke-width="1"/>
  <text x="82.0" y="865.0" text-anchor="end" dominant-baseline="middle" fill="#374151" font-size="10">200%</text>
  <line x1="90.0" y1="813.0" x2="700.0" y2="813.0" stroke="#e5e7eb" stroke-width="1"/>
  <text x="82.0" y="813.0" text-anchor="end" dominant-baseline="middle" fill="#374151" font-size="10">300%</text>
  <line x1="90.0" y1="761.0" x2="700.0" y2="761.0" stroke="#e5e7eb" stroke-width="1"/>
  <text x="82.0" y="761.0" text-anchor="end" dominant-baseline="middle" fill="#374151" font-size="10">400%</text>
  <line x1="90.0" y1="709.0" x2="700.0" y2="709.0" stroke="#e5e7eb" stroke-width="1"/>
  <text x="82.0" y="709.0" text-anchor="end" dominant-baseline="middle" fill="#374151" font-size="10">500%</text>
  <line x1="90.0" y1="918.7" x2="700.0" y2="918.7" stroke="#e5e7eb" stroke-width="1" stroke-dasharray="3,6"/>
  <text x="708.0" y="918.7" text-anchor="start" dominant-baseline="middle" fill="#6b7280" font-size="10">1 GB/s</text>
  <line x1="90.0" y1="868.4" x2="700.0" y2="868.4" stroke="#e5e7eb" stroke-width="1" stroke-dasharray="3,6"/>
  <text x="708.0" y="868.4" text-anchor="start" dominant-baseline="middle" fill="#6b7280" font-size="10">2 GB/s</text>
  <line x1="90.0" y1="818.1" x2="700.0" y2="818.1" stroke="#e5e7eb" stroke-width="1" stroke-dasharray="3,6"/>
  <text x="708.0" y="818.1" text-anchor="start" dominant-baseline="middle" fill="#6b7280" font-size="10">3 GB/s</text>
  <line x1="90.0" y1="767.8" x2="700.0" y2="767.8" stroke="#e5e7eb" stroke-width="1" stroke-dasharray="3,6"/>
  <text x="708.0" y="767.8" text-anchor="start" dominant-baseline="middle" fill="#6b7280" font-size="10">4 GB/s</text>
  <line x1="90.0" y1="717.5" x2="700.0" y2="717.5" stroke="#e5e7eb" stroke-width="1" stroke-dasharray="3,6"/>
  <text x="708.0" y="717.5" text-anchor="start" dominant-baseline="middle" fill="#6b7280" font-size="10">5 GB/s</text>
  <text x="788.0" y="922.8" text-anchor="start" dominant-baseline="middle" fill="#9ca3af" font-size="10">2M/s</text>
  <text x="788.0" y="876.6" text-anchor="start" dominant-baseline="middle" fill="#9ca3af" font-size="10">4M/s</text>
  <text x="788.0" y="830.4" text-anchor="start" dominant-baseline="middle" fill="#9ca3af" font-size="10">6M/s</text>
  <text x="788.0" y="784.2" text-anchor="start" dominant-baseline="middle" fill="#9ca3af" font-size="10">8M/s</text>
  <text x="788.0" y="738.0" text-anchor="start" dominant-baseline="middle" fill="#9ca3af" font-size="10">10M/s</text>
  <line x1="90.0" y1="709.0" x2="90.0" y2="969.0" stroke="#e5e7eb" stroke-width="1"/>
  <line x1="140.8" y1="709.0" x2="140.8" y2="969.0" stroke="#e5e7eb" stroke-width="1"/>
  <line x1="191.7" y1="709.0" x2="191.7" y2="969.0" stroke="#e5e7eb" stroke-width="1"/>
  <line x1="242.5" y1="709.0" x2="242.5" y2="969.0" stroke="#e5e7eb" stroke-width="1"/>
  <line x1="293.3" y1="709.0" x2="293.3" y2="969.0" stroke="#e5e7eb" stroke-width="1"/>
  <line x1="344.2" y1="709.0" x2="344.2" y2="969.0" stroke="#e5e7eb" stroke-width="1"/>
  <line x1="395.0" y1="709.0" x2="395.0" y2="969.0" stroke="#e5e7eb" stroke-width="1"/>
  <line x1="445.8" y1="709.0" x2="445.8" y2="969.0" stroke="#e5e7eb" stroke-width="1"/>
  <line x1="496.7" y1="709.0" x2="496.7" y2="969.0" stroke="#e5e7eb" stroke-width="1"/>
  <line x1="547.5" y1="709.0" x2="547.5" y2="969.0" stroke="#e5e7eb" stroke-width="1"/>
  <line x1="598.3" y1="709.0" x2="598.3" y2="969.0" stroke="#e5e7eb" stroke-width="1"/>
  <line x1="649.2" y1="709.0" x2="649.2" y2="969.0" stroke="#e5e7eb" stroke-width="1"/>
  <line x1="700.0" y1="709.0" x2="700.0" y2="969.0" stroke="#e5e7eb" stroke-width="1"/>
  <line x1="90.0" y1="709.0" x2="90.0" y2="969.0" stroke="#9ca3af" stroke-width="1.5"/>
  <line x1="700.0" y1="709.0" x2="700.0" y2="969.0" stroke="#9ca3af" stroke-width="1.5"/>
  <line x1="90.0" y1="969.0" x2="700.0" y2="969.0" stroke="#9ca3af" stroke-width="1.5"/>
  <line x1="780.0" y1="709.0" x2="780.0" y2="969.0" stroke="#d1d5db" stroke-width="1"/>
  <text x="40.0" y="839.0" text-anchor="middle" fill="#374151" font-size="10" font-weight="600" transform="rotate(-90,40.0,839.0)">CPU %</text>
  <polyline points="90.0,834.6 140.8,842.1 191.7,835.6 242.5,788.0 293.3,774.3 344.2,801.8 395.0,829.9 445.8,851.0 496.7,862.4 547.5,881.1 598.3,877.0 649.2,870.2 700.0,869.7" fill="none" stroke="#eab308" stroke-width="2" stroke-dasharray="2,3"/>
  <polyline points="90.0,924.3 140.8,929.2 191.7,933.9 242.5,938.3 293.3,937.8 344.2,935.7 395.0,929.7 445.8,920.9 496.7,900.1 547.5,888.4 598.3,876.5 649.2,875.0 700.0,875.7" fill="none" stroke="#dc2626" stroke-width="2" stroke-dasharray="2,3"/>
  <polyline points="90.0,925.1 140.8,929.5 191.7,931.3 242.5,937.3 293.3,937.8 344.2,934.7 395.0,928.7 445.8,929.0 496.7,898.3 547.5,886.1 598.3,875.2 649.2,882.2 700.0,884.4" fill="none" stroke="#f97316" stroke-width="2" stroke-dasharray="2,3"/>
  <polyline points="90.0,934.7 140.8,904.0 191.7,935.7 242.5,926.9 293.3,927.7 344.2,905.0 395.0,892.3 445.8,912.1 496.7,911.8 547.5,897.8 598.3,911.1 649.2,912.9 700.0,913.9" fill="none" stroke="#7c3aed" stroke-width="2" stroke-dasharray="2,3"/>
  <polyline points="90.0,743.6 140.8,742.9 191.7,743.4 242.5,777.5 293.3,826.0 344.2,866.1 395.0,904.4 445.8,932.6 496.7,949.5 547.5,959.7 598.3,963.9 649.2,965.9 700.0,966.9" fill="none" stroke="#eab308" stroke-width="1.5" stroke-dasharray="5,3"/>
  <polyline points="90.0,860.7 140.8,862.2 191.7,869.6 242.5,884.9 293.3,888.9 344.2,897.2 395.0,905.4 445.8,914.4 496.7,928.1 547.5,947.0 598.3,957.7 649.2,962.7 700.0,965.9" fill="none" stroke="#dc2626" stroke-width="1.5" stroke-dasharray="5,3"/>
  <polyline points="90.0,862.5 140.8,865.1 191.7,862.4 242.5,884.5 293.3,888.8 344.2,896.4 395.0,903.6 445.8,924.7 496.7,928.5 547.5,946.4 598.3,957.7 649.2,962.7 700.0,965.9" fill="none" stroke="#f97316" stroke-width="1.5" stroke-dasharray="5,3"/>
  <polyline points="90.0,793.1 140.8,802.7 191.7,804.4 242.5,857.4 293.3,863.0 344.2,879.4 395.0,897.6 445.8,920.7 496.7,941.7 547.5,954.1 598.3,961.5 649.2,965.1 700.0,967.1" fill="none" stroke="#7c3aed" stroke-width="1.5" stroke-dasharray="5,3"/>
  <polyline points="90.0,965.1 140.8,961.1 191.7,953.3 242.5,942.3 293.3,929.2 344.2,911.6 395.0,897.0 445.8,887.9 496.7,882.0 547.5,886.1 598.3,878.7 649.2,856.8 700.0,818.5" fill="none" stroke="#eab308" stroke-width="2.5" stroke-linecap="round" stroke-linejoin="round"/>
  <circle cx="90.0" cy="965.1" r="3" fill="#eab308" stroke="white" stroke-width="1"/>
  <circle cx="140.8" cy="961.1" r="3" fill="#eab308" stroke="white" stroke-width="1"/>
  <circle cx="191.7" cy="953.3" r="3" fill="#eab308" stroke="white" stroke-width="1"/>
  <circle cx="242.5" cy="942.3" r="3" fill="#eab308" stroke="white" stroke-width="1"/>
  <circle cx="293.3" cy="929.2" r="3" fill="#eab308" stroke="white" stroke-width="1"/>
  <circle cx="344.2" cy="911.6" r="3" fill="#eab308" stroke="white" stroke-width="1"/>
  <circle cx="395.0" cy="897.0" r="3" fill="#eab308" stroke="white" stroke-width="1"/>
  <circle cx="445.8" cy="887.9" r="3" fill="#eab308" stroke="white" stroke-width="1"/>
  <circle cx="496.7" cy="882.0" r="3" fill="#eab308" stroke="white" stroke-width="1"/>
  <circle cx="547.5" cy="886.1" r="3" fill="#eab308" stroke="white" stroke-width="1"/>
  <circle cx="598.3" cy="878.7" r="3" fill="#eab308" stroke="white" stroke-width="1"/>
  <circle cx="649.2" cy="856.8" r="3" fill="#eab308" stroke="white" stroke-width="1"/>
  <circle cx="700.0" cy="818.5" r="3" fill="#eab308" stroke="white" stroke-width="1"/>
  <polyline points="90.0,967.1 140.8,965.3 191.7,962.1 242.5,957.3 293.3,946.7 344.2,929.0 395.0,898.1 445.8,847.2 496.7,786.5 547.5,772.5 598.3,767.7 649.2,745.4 700.0,750.5" fill="none" stroke="#dc2626" stroke-width="2.5" stroke-linecap="round" stroke-linejoin="round"/>
  <circle cx="90.0" cy="967.1" r="3" fill="#dc2626" stroke="white" stroke-width="1"/>
  <circle cx="140.8" cy="965.3" r="3" fill="#dc2626" stroke="white" stroke-width="1"/>
  <circle cx="191.7" cy="962.1" r="3" fill="#dc2626" stroke="white" stroke-width="1"/>
  <circle cx="242.5" cy="957.3" r="3" fill="#dc2626" stroke="white" stroke-width="1"/>
  <circle cx="293.3" cy="946.7" r="3" fill="#dc2626" stroke="white" stroke-width="1"/>
  <circle cx="344.2" cy="929.0" r="3" fill="#dc2626" stroke="white" stroke-width="1"/>
  <circle cx="395.0" cy="898.1" r="3" fill="#dc2626" stroke="white" stroke-width="1"/>
  <circle cx="445.8" cy="847.2" r="3" fill="#dc2626" stroke="white" stroke-width="1"/>
  <circle cx="496.7" cy="786.5" r="3" fill="#dc2626" stroke="white" stroke-width="1"/>
  <circle cx="547.5" cy="772.5" r="3" fill="#dc2626" stroke="white" stroke-width="1"/>
  <circle cx="598.3" cy="767.7" r="3" fill="#dc2626" stroke="white" stroke-width="1"/>
  <circle cx="649.2" cy="745.4" r="3" fill="#dc2626" stroke="white" stroke-width="1"/>
  <circle cx="700.0" cy="750.5" r="3" fill="#dc2626" stroke="white" stroke-width="1"/>
  <polyline points="90.0,967.1 140.8,965.4 191.7,961.6 242.5,957.2 293.3,946.6 344.2,928.5 395.0,896.1 445.8,870.1 496.7,788.2 547.5,767.7 598.3,766.5 649.2,742.9 700.0,746.2" fill="none" stroke="#f97316" stroke-width="2.5" stroke-linecap="round" stroke-linejoin="round"/>
  <circle cx="90.0" cy="967.1" r="3" fill="#f97316" stroke="white" stroke-width="1"/>
  <circle cx="140.8" cy="965.4" r="3" fill="#f97316" stroke="white" stroke-width="1"/>
  <circle cx="191.7" cy="961.6" r="3" fill="#f97316" stroke="white" stroke-width="1"/>
  <circle cx="242.5" cy="957.2" r="3" fill="#f97316" stroke="white" stroke-width="1"/>
  <circle cx="293.3" cy="946.6" r="3" fill="#f97316" stroke="white" stroke-width="1"/>
  <circle cx="344.2" cy="928.5" r="3" fill="#f97316" stroke="white" stroke-width="1"/>
  <circle cx="395.0" cy="896.1" r="3" fill="#f97316" stroke="white" stroke-width="1"/>
  <circle cx="445.8" cy="870.1" r="3" fill="#f97316" stroke="white" stroke-width="1"/>
  <circle cx="496.7" cy="788.2" r="3" fill="#f97316" stroke="white" stroke-width="1"/>
  <circle cx="547.5" cy="767.7" r="3" fill="#f97316" stroke="white" stroke-width="1"/>
  <circle cx="598.3" cy="766.5" r="3" fill="#f97316" stroke="white" stroke-width="1"/>
  <circle cx="649.2" cy="742.9" r="3" fill="#f97316" stroke="white" stroke-width="1"/>
  <circle cx="700.0" cy="746.2" r="3" fill="#f97316" stroke="white" stroke-width="1"/>
  <polyline points="90.0,965.9 140.8,963.2 191.7,957.5 242.5,953.4 293.3,939.5 344.2,919.1 395.0,889.4 445.8,861.2 496.7,847.1 547.5,836.3 598.3,834.5 649.2,828.8 700.0,832.6" fill="none" stroke="#7c3aed" stroke-width="2.5" stroke-linecap="round" stroke-linejoin="round"/>
  <circle cx="90.0" cy="965.9" r="3" fill="#7c3aed" stroke="white" stroke-width="1"/>
  <circle cx="140.8" cy="963.2" r="3" fill="#7c3aed" stroke="white" stroke-width="1"/>
  <circle cx="191.7" cy="957.5" r="3" fill="#7c3aed" stroke="white" stroke-width="1"/>
  <circle cx="242.5" cy="953.4" r="3" fill="#7c3aed" stroke="white" stroke-width="1"/>
  <circle cx="293.3" cy="939.5" r="3" fill="#7c3aed" stroke="white" stroke-width="1"/>
  <circle cx="344.2" cy="919.1" r="3" fill="#7c3aed" stroke="white" stroke-width="1"/>
  <circle cx="395.0" cy="889.4" r="3" fill="#7c3aed" stroke="white" stroke-width="1"/>
  <circle cx="445.8" cy="861.2" r="3" fill="#7c3aed" stroke="white" stroke-width="1"/>
  <circle cx="496.7" cy="847.1" r="3" fill="#7c3aed" stroke="white" stroke-width="1"/>
  <circle cx="547.5" cy="836.3" r="3" fill="#7c3aed" stroke="white" stroke-width="1"/>
  <circle cx="598.3" cy="834.5" r="3" fill="#7c3aed" stroke="white" stroke-width="1"/>
  <circle cx="649.2" cy="828.8" r="3" fill="#7c3aed" stroke="white" stroke-width="1"/>
  <circle cx="700.0" cy="832.6" r="3" fill="#7c3aed" stroke="white" stroke-width="1"/>
  <text x="90.0" y="983.0" text-anchor="middle" fill="#374151" font-size="8.5">8 B</text>
  <text x="140.8" y="983.0" text-anchor="middle" fill="#374151" font-size="8.5">16 B</text>
  <text x="191.7" y="983.0" text-anchor="middle" fill="#374151" font-size="8.5">32 B</text>
  <text x="242.5" y="983.0" text-anchor="middle" fill="#374151" font-size="8.5">64 B</text>
  <text x="293.3" y="983.0" text-anchor="middle" fill="#374151" font-size="8.5">128 B</text>
  <text x="344.2" y="983.0" text-anchor="middle" fill="#374151" font-size="8.5">256 B</text>
  <text x="395.0" y="983.0" text-anchor="middle" fill="#374151" font-size="8.5">512 B</text>
  <text x="445.8" y="983.0" text-anchor="middle" fill="#374151" font-size="8.5">1 KiB</text>
  <text x="496.7" y="983.0" text-anchor="middle" fill="#374151" font-size="8.5">2 KiB</text>
  <text x="547.5" y="983.0" text-anchor="middle" fill="#374151" font-size="8.5">4 KiB</text>
  <text x="598.3" y="983.0" text-anchor="middle" fill="#374151" font-size="8.5">8 KiB</text>
  <text x="649.2" y="983.0" text-anchor="middle" fill="#374151" font-size="8.5">16 KiB</text>
  <text x="700.0" y="983.0" text-anchor="middle" fill="#374151" font-size="8.5">32 KiB</text>
  <line x1="145" y1="999" x2="159" y2="999" stroke="#eab308" stroke-width="2.5"/>
  <circle cx="152" cy="999" r="2.5" fill="#eab308"/>
  <text x="165" y="1003" fill="#374151" font-size="11" font-weight="500">libzmq v4.3.5</text>
  <line x1="270" y1="999" x2="284" y2="999" stroke="#7c3aed" stroke-width="2.5"/>
  <circle cx="277" cy="999" r="2.5" fill="#7c3aed"/>
  <text x="290" y="1003" fill="#374151" font-size="11" font-weight="500">omq-compio</text>
  <line x1="395" y1="999" x2="409" y2="999" stroke="#f97316" stroke-width="2.5"/>
  <circle cx="402" cy="999" r="2.5" fill="#f97316"/>
  <text x="415" y="1003" fill="#374151" font-size="11" font-weight="500">omq-tokio</text>
  <line x1="520" y1="999" x2="534" y2="999" stroke="#dc2626" stroke-width="2.5"/>
  <circle cx="527" cy="999" r="2.5" fill="#dc2626"/>
  <text x="540" y="1003" fill="#374151" font-size="11" font-weight="500">omq-tokio (MT)</text>
  <line x1="145" y1="1021" x2="159" y2="1021" stroke="#6b7280" stroke-width="2" stroke-dasharray="2,3" opacity="0.7"/>
  <text x="165" y="1025" fill="#6b7280" font-size="10">CPU % (left)</text>
  <line x1="290" y1="1021" x2="304" y2="1021" stroke="#6b7280" stroke-width="2.5"/>
  <circle cx="297" cy="1021" r="2" fill="#6b7280"/>
  <text x="310" y="1025" fill="#6b7280" font-size="10">GB/s (inner right)</text>
  <line x1="455" y1="1021" x2="469" y2="1021" stroke="#6b7280" stroke-width="1.5" stroke-dasharray="5,3"/>
  <text x="475" y="1025" fill="#6b7280" font-size="10">msg/s (outer right)</text>
</svg>
