<svg xmlns="http://www.w3.org/2000/svg" viewBox="0 0 850 999" font-family="system-ui, -apple-system, sans-serif">
  <rect width="850" height="999" fill="white"/>
  <text x="425.0" y="46" text-anchor="middle" fill="#9ca3af" font-size="10">Linux VM on a 2018 Mac Mini, Intel Core i7-8700B @ 3.20GHz, 6 cores, performance governor, turbo off</text>
  <text x="425.0" y="32.0" text-anchor="middle" fill="#111827" font-size="13" font-weight="700">PUSH fan-out (1 PUSH → 2 PULL): TCP loopback</text>
  <line x1="90.0" y1="268.9" x2="760.0" y2="268.9" stroke="#e5e7eb" stroke-width="1"/>
  <text x="82.0" y="268.9" text-anchor="end" dominant-baseline="middle" fill="#374151" font-size="10">500k</text>
  <line x1="90.0" y1="248.9" x2="760.0" y2="248.9" stroke="#e5e7eb" stroke-width="1"/>
  <text x="82.0" y="248.9" text-anchor="end" dominant-baseline="middle" fill="#374151" font-size="10">1M</text>
  <line x1="90.0" y1="228.8" x2="760.0" y2="228.8" stroke="#e5e7eb" stroke-width="1"/>
  <text x="82.0" y="228.8" text-anchor="end" dominant-baseline="middle" fill="#374151" font-size="10">1.5M</text>
  <line x1="90.0" y1="208.8" x2="760.0" y2="208.8" stroke="#e5e7eb" stroke-width="1"/>
  <text x="82.0" y="208.8" text-anchor="end" dominant-baseline="middle" fill="#374151" font-size="10">2M</text>
  <line x1="90.0" y1="188.7" x2="760.0" y2="188.7" stroke="#e5e7eb" stroke-width="1"/>
  <text x="82.0" y="188.7" text-anchor="end" dominant-baseline="middle" fill="#374151" font-size="10">2.5M</text>
  <line x1="90.0" y1="168.7" x2="760.0" y2="168.7" stroke="#e5e7eb" stroke-width="1"/>
  <text x="82.0" y="168.7" text-anchor="end" dominant-baseline="middle" fill="#374151" font-size="10">3M</text>
  <line x1="90.0" y1="148.6" x2="760.0" y2="148.6" stroke="#e5e7eb" stroke-width="1"/>
  <text x="82.0" y="148.6" text-anchor="end" dominant-baseline="middle" fill="#374151" font-size="10">3.5M</text>
  <line x1="90.0" y1="128.5" x2="760.0" y2="128.5" stroke="#e5e7eb" stroke-width="1"/>
  <text x="82.0" y="128.5" text-anchor="end" dominant-baseline="middle" fill="#374151" font-size="10">4M</text>
  <line x1="90.0" y1="108.5" x2="760.0" y2="108.5" stroke="#e5e7eb" stroke-width="1"/>
  <text x="82.0" y="108.5" text-anchor="end" dominant-baseline="middle" fill="#374151" font-size="10">4.5M</text>
  <line x1="90.0" y1="88.4" x2="760.0" y2="88.4" stroke="#e5e7eb" stroke-width="1"/>
  <text x="82.0" y="88.4" text-anchor="end" dominant-baseline="middle" fill="#374151" font-size="10">5M</text>
  <line x1="90.0" y1="68.4" x2="760.0" y2="68.4" stroke="#e5e7eb" stroke-width="1"/>
  <text x="82.0" y="68.4" text-anchor="end" dominant-baseline="middle" fill="#374151" font-size="10">5.5M</text>
  <line x1="90.0" y1="236.3" x2="760.0" y2="236.3" stroke="#e5e7eb" stroke-width="1" stroke-dasharray="3,6"/>
  <text x="768.0" y="236.3" text-anchor="start" dominant-baseline="middle" fill="#6b7280" font-size="10">2 GB/s</text>
  <line x1="90.0" y1="183.7" x2="760.0" y2="183.7" stroke="#e5e7eb" stroke-width="1" stroke-dasharray="3,6"/>
  <text x="768.0" y="183.7" text-anchor="start" dominant-baseline="middle" fill="#6b7280" font-size="10">4 GB/s</text>
  <line x1="90.0" y1="131.0" x2="760.0" y2="131.0" stroke="#e5e7eb" stroke-width="1" stroke-dasharray="3,6"/>
  <text x="768.0" y="131.0" text-anchor="start" dominant-baseline="middle" fill="#6b7280" font-size="10">6 GB/s</text>
  <line x1="90.0" y1="78.3" x2="760.0" y2="78.3" stroke="#e5e7eb" stroke-width="1" stroke-dasharray="3,6"/>
  <text x="768.0" y="78.3" text-anchor="start" dominant-baseline="middle" fill="#6b7280" font-size="10">8 GB/s</text>
  <line x1="90.0" y1="49.0" x2="90.0" y2="289.0" stroke="#e5e7eb" stroke-width="1"/>
  <line x1="145.8" y1="49.0" x2="145.8" y2="289.0" stroke="#e5e7eb" stroke-width="1"/>
  <line x1="201.7" y1="49.0" x2="201.7" y2="289.0" stroke="#e5e7eb" stroke-width="1"/>
  <line x1="257.5" y1="49.0" x2="257.5" y2="289.0" stroke="#e5e7eb" stroke-width="1"/>
  <line x1="313.3" y1="49.0" x2="313.3" y2="289.0" stroke="#e5e7eb" stroke-width="1"/>
  <line x1="369.2" y1="49.0" x2="369.2" y2="289.0" stroke="#e5e7eb" stroke-width="1"/>
  <line x1="425.0" y1="49.0" x2="425.0" y2="289.0" stroke="#e5e7eb" stroke-width="1"/>
  <line x1="480.8" y1="49.0" x2="480.8" y2="289.0" stroke="#e5e7eb" stroke-width="1"/>
  <line x1="536.7" y1="49.0" x2="536.7" y2="289.0" stroke="#e5e7eb" stroke-width="1"/>
  <line x1="592.5" y1="49.0" x2="592.5" y2="289.0" stroke="#e5e7eb" stroke-width="1"/>
  <line x1="648.3" y1="49.0" x2="648.3" y2="289.0" stroke="#e5e7eb" stroke-width="1"/>
  <line x1="704.2" y1="49.0" x2="704.2" y2="289.0" stroke="#e5e7eb" stroke-width="1"/>
  <line x1="760.0" y1="49.0" x2="760.0" y2="289.0" stroke="#e5e7eb" stroke-width="1"/>
  <line x1="90.0" y1="49.0" x2="90.0" y2="289.0" stroke="#9ca3af" stroke-width="1.5"/>
  <line x1="760.0" y1="49.0" x2="760.0" y2="289.0" stroke="#9ca3af" stroke-width="1.5"/>
  <line x1="90.0" y1="289.0" x2="760.0" y2="289.0" stroke="#9ca3af" stroke-width="1.5"/>
  <text x="40.0" y="169.0" text-anchor="middle" fill="#374151" font-size="10" font-weight="600" transform="rotate(-90,40.0,169.0)">msg/s</text>
  <polyline points="90.0,262.3 145.8,262.1 201.7,264.3 257.5,265.6 313.3,265.9 369.2,266.2 425.0,266.8 480.8,268.2 536.7,271.5 592.5,276.5 648.3,280.9 704.2,284.5 760.0,287.1" fill="none" stroke="#10b981" stroke-width="2" stroke-dasharray="6,4"/>
  <polyline points="90.0,283.2 145.8,283.3 201.7,283.6 257.5,284.1 313.3,284.2 369.2,284.3 425.0,284.5 480.8,284.6 536.7,284.9 592.5,285.2 648.3,285.6 704.2,286.3 760.0,287.1" fill="none" stroke="#2563eb" stroke-width="2" stroke-dasharray="6,4"/>
  <polyline points="90.0,82.9 145.8,80.3 201.7,115.1 257.5,200.2 313.3,243.6 369.2,250.3 425.0,261.4 480.8,272.3 536.7,279.3 592.5,283.6 648.3,286.2 704.2,287.6 760.0,287.9" fill="none" stroke="#eab308" stroke-width="2" stroke-dasharray="6,4"/>
  <polyline points="90.0,180.4 145.8,190.9 201.7,177.2 257.5,178.9 313.3,188.4 369.2,191.2 425.0,193.3 480.8,205.2 536.7,227.7 592.5,257.3 648.3,272.2 704.2,279.6 760.0,284.1" fill="none" stroke="#f97316" stroke-width="2" stroke-dasharray="6,4"/>
  <polyline points="90.0,231.4 145.8,231.7 201.7,233.5 257.5,241.4 313.3,242.9 369.2,248.3 425.0,251.3 480.8,257.7 536.7,265.7 592.5,275.1 648.3,281.1 704.2,284.1 760.0,286.5" fill="none" stroke="#dc2626" stroke-width="2" stroke-dasharray="6,4"/>
  <polyline points="90.0,288.7 145.8,288.4 201.7,288.0 257.5,287.0 313.3,285.1 369.2,281.3 425.0,274.1 480.8,261.1 536.7,241.9 592.5,221.6 648.3,201.5 704.2,192.5 760.0,207.2" fill="none" stroke="#10b981" stroke-width="2.5" stroke-linecap="round" stroke-linejoin="round"/>
  <circle cx="90.0" cy="288.7" r="3" fill="#10b981" stroke="white" stroke-width="1"/>
  <circle cx="145.8" cy="288.4" r="3" fill="#10b981" stroke="white" stroke-width="1"/>
  <circle cx="201.7" cy="288.0" r="3" fill="#10b981" stroke="white" stroke-width="1"/>
  <circle cx="257.5" cy="287.0" r="3" fill="#10b981" stroke="white" stroke-width="1"/>
  <circle cx="313.3" cy="285.1" r="3" fill="#10b981" stroke="white" stroke-width="1"/>
  <circle cx="369.2" cy="281.3" r="3" fill="#10b981" stroke="white" stroke-width="1"/>
  <circle cx="425.0" cy="274.1" r="3" fill="#10b981" stroke="white" stroke-width="1"/>
  <circle cx="480.8" cy="261.1" r="3" fill="#10b981" stroke="white" stroke-width="1"/>
  <circle cx="536.7" cy="241.9" r="3" fill="#10b981" stroke="white" stroke-width="1"/>
  <circle cx="592.5" cy="221.6" r="3" fill="#10b981" stroke="white" stroke-width="1"/>
  <circle cx="648.3" cy="201.5" r="3" fill="#10b981" stroke="white" stroke-width="1"/>
  <circle cx="704.2" cy="192.5" r="3" fill="#10b981" stroke="white" stroke-width="1"/>
  <circle cx="760.0" cy="207.2" r="3" fill="#10b981" stroke="white" stroke-width="1"/>
  <polyline points="90.0,288.9 145.8,288.9 201.7,288.8 257.5,288.6 313.3,288.2 369.2,287.4 425.0,286.0 480.8,283.1 536.7,278.0 592.5,268.6 648.3,252.5 704.2,231.4 760.0,205.2" fill="none" stroke="#2563eb" stroke-width="2.5" stroke-linecap="round" stroke-linejoin="round"/>
  <circle cx="90.0" cy="288.9" r="3" fill="#2563eb" stroke="white" stroke-width="1"/>
  <circle cx="145.8" cy="288.9" r="3" fill="#2563eb" stroke="white" stroke-width="1"/>
  <circle cx="201.7" cy="288.8" r="3" fill="#2563eb" stroke="white" stroke-width="1"/>
  <circle cx="257.5" cy="288.6" r="3" fill="#2563eb" stroke="white" stroke-width="1"/>
  <circle cx="313.3" cy="288.2" r="3" fill="#2563eb" stroke="white" stroke-width="1"/>
  <circle cx="369.2" cy="287.4" r="3" fill="#2563eb" stroke="white" stroke-width="1"/>
  <circle cx="425.0" cy="286.0" r="3" fill="#2563eb" stroke="white" stroke-width="1"/>
  <circle cx="480.8" cy="283.1" r="3" fill="#2563eb" stroke="white" stroke-width="1"/>
  <circle cx="536.7" cy="278.0" r="3" fill="#2563eb" stroke="white" stroke-width="1"/>
  <circle cx="592.5" cy="268.6" r="3" fill="#2563eb" stroke="white" stroke-width="1"/>
  <circle cx="648.3" cy="252.5" r="3" fill="#2563eb" stroke="white" stroke-width="1"/>
  <circle cx="704.2" cy="231.4" r="3" fill="#2563eb" stroke="white" stroke-width="1"/>
  <circle cx="760.0" cy="205.2" r="3" fill="#2563eb" stroke="white" stroke-width="1"/>
  <polyline points="90.0,286.8 145.8,284.6 201.7,281.7 257.5,281.5 313.3,281.4 369.2,276.0 425.0,270.5 480.8,266.6 536.7,262.9 592.5,259.8 648.3,258.4 704.2,258.6 760.0,240.3" fill="none" stroke="#eab308" stroke-width="2.5" stroke-linecap="round" stroke-linejoin="round"/>
  <circle cx="90.0" cy="286.8" r="3" fill="#eab308" stroke="white" stroke-width="1"/>
  <circle cx="145.8" cy="284.6" r="3" fill="#eab308" stroke="white" stroke-width="1"/>
  <circle cx="201.7" cy="281.7" r="3" fill="#eab308" stroke="white" stroke-width="1"/>
  <circle cx="257.5" cy="281.5" r="3" fill="#eab308" stroke="white" stroke-width="1"/>
  <circle cx="313.3" cy="281.4" r="3" fill="#eab308" stroke="white" stroke-width="1"/>
  <circle cx="369.2" cy="276.0" r="3" fill="#eab308" stroke="white" stroke-width="1"/>
  <circle cx="425.0" cy="270.5" r="3" fill="#eab308" stroke="white" stroke-width="1"/>
  <circle cx="480.8" cy="266.6" r="3" fill="#eab308" stroke="white" stroke-width="1"/>
  <circle cx="536.7" cy="262.9" r="3" fill="#eab308" stroke="white" stroke-width="1"/>
  <circle cx="592.5" cy="259.8" r="3" fill="#eab308" stroke="white" stroke-width="1"/>
  <circle cx="648.3" cy="258.4" r="3" fill="#eab308" stroke="white" stroke-width="1"/>
  <circle cx="704.2" cy="258.6" r="3" fill="#eab308" stroke="white" stroke-width="1"/>
  <circle cx="760.0" cy="240.3" r="3" fill="#eab308" stroke="white" stroke-width="1"/>
  <polyline points="90.0,287.9 145.8,286.9 201.7,284.3 257.5,279.7 313.3,272.1 369.2,256.1 425.0,224.7 480.8,176.3 536.7,124.1 592.5,118.6 648.3,108.1 704.2,87.2 760.0,80.3" fill="none" stroke="#f97316" stroke-width="2.5" stroke-linecap="round" stroke-linejoin="round"/>
  <circle cx="90.0" cy="287.9" r="3" fill="#f97316" stroke="white" stroke-width="1"/>
  <circle cx="145.8" cy="286.9" r="3" fill="#f97316" stroke="white" stroke-width="1"/>
  <circle cx="201.7" cy="284.3" r="3" fill="#f97316" stroke="white" stroke-width="1"/>
  <circle cx="257.5" cy="279.7" r="3" fill="#f97316" stroke="white" stroke-width="1"/>
  <circle cx="313.3" cy="272.1" r="3" fill="#f97316" stroke="white" stroke-width="1"/>
  <circle cx="369.2" cy="256.1" r="3" fill="#f97316" stroke="white" stroke-width="1"/>
  <circle cx="425.0" cy="224.7" r="3" fill="#f97316" stroke="white" stroke-width="1"/>
  <circle cx="480.8" cy="176.3" r="3" fill="#f97316" stroke="white" stroke-width="1"/>
  <circle cx="536.7" cy="124.1" r="3" fill="#f97316" stroke="white" stroke-width="1"/>
  <circle cx="592.5" cy="118.6" r="3" fill="#f97316" stroke="white" stroke-width="1"/>
  <circle cx="648.3" cy="108.1" r="3" fill="#f97316" stroke="white" stroke-width="1"/>
  <circle cx="704.2" cy="87.2" r="3" fill="#f97316" stroke="white" stroke-width="1"/>
  <circle cx="760.0" cy="80.3" r="3" fill="#f97316" stroke="white" stroke-width="1"/>
  <polyline points="90.0,288.4 145.8,287.8 201.7,286.7 257.5,285.0 313.3,281.3 369.2,275.3 425.0,263.6 480.8,247.0 536.7,226.3 592.5,214.2 648.3,203.8 704.2,184.1 760.0,182.0" fill="none" stroke="#dc2626" stroke-width="2.5" stroke-linecap="round" stroke-linejoin="round"/>
  <circle cx="90.0" cy="288.4" r="3" fill="#dc2626" stroke="white" stroke-width="1"/>
  <circle cx="145.8" cy="287.8" r="3" fill="#dc2626" stroke="white" stroke-width="1"/>
  <circle cx="201.7" cy="286.7" r="3" fill="#dc2626" stroke="white" stroke-width="1"/>
  <circle cx="257.5" cy="285.0" r="3" fill="#dc2626" stroke="white" stroke-width="1"/>
  <circle cx="313.3" cy="281.3" r="3" fill="#dc2626" stroke="white" stroke-width="1"/>
  <circle cx="369.2" cy="275.3" r="3" fill="#dc2626" stroke="white" stroke-width="1"/>
  <circle cx="425.0" cy="263.6" r="3" fill="#dc2626" stroke="white" stroke-width="1"/>
  <circle cx="480.8" cy="247.0" r="3" fill="#dc2626" stroke="white" stroke-width="1"/>
  <circle cx="536.7" cy="226.3" r="3" fill="#dc2626" stroke="white" stroke-width="1"/>
  <circle cx="592.5" cy="214.2" r="3" fill="#dc2626" stroke="white" stroke-width="1"/>
  <circle cx="648.3" cy="203.8" r="3" fill="#dc2626" stroke="white" stroke-width="1"/>
  <circle cx="704.2" cy="184.1" r="3" fill="#dc2626" stroke="white" stroke-width="1"/>
  <circle cx="760.0" cy="182.0" r="3" fill="#dc2626" stroke="white" stroke-width="1"/>
  <text x="90.0" y="303.0" text-anchor="middle" fill="#374151" font-size="8.5">8 B</text>
  <text x="145.8" y="303.0" text-anchor="middle" fill="#374151" font-size="8.5">16 B</text>
  <text x="201.7" y="303.0" text-anchor="middle" fill="#374151" font-size="8.5">32 B</text>
  <text x="257.5" y="303.0" text-anchor="middle" fill="#374151" font-size="8.5">64 B</text>
  <text x="313.3" y="303.0" text-anchor="middle" fill="#374151" font-size="8.5">128 B</text>
  <text x="369.2" y="303.0" text-anchor="middle" fill="#374151" font-size="8.5">256 B</text>
  <text x="425.0" y="303.0" text-anchor="middle" fill="#374151" font-size="8.5">512 B</text>
  <text x="480.8" y="303.0" text-anchor="middle" fill="#374151" font-size="8.5">1 KiB</text>
  <text x="536.7" y="303.0" text-anchor="middle" fill="#374151" font-size="8.5">2 KiB</text>
  <text x="592.5" y="303.0" text-anchor="middle" fill="#374151" font-size="8.5">4 KiB</text>
  <text x="648.3" y="303.0" text-anchor="middle" fill="#374151" font-size="8.5">8 KiB</text>
  <text x="704.2" y="303.0" text-anchor="middle" fill="#374151" font-size="8.5">16 KiB</text>
  <text x="760.0" y="303.0" text-anchor="middle" fill="#374151" font-size="8.5">32 KiB</text>
  <text x="425.0" y="342.0" text-anchor="middle" fill="#111827" font-size="13" font-weight="700">PUSH fan-out (1 PUSH → 4 PULL): TCP loopback</text>
  <line x1="90.0" y1="561.6" x2="760.0" y2="561.6" stroke="#e5e7eb" stroke-width="1"/>
  <text x="82.0" y="561.6" text-anchor="end" dominant-baseline="middle" fill="#374151" font-size="10">500k</text>
  <line x1="90.0" y1="524.3" x2="760.0" y2="524.3" stroke="#e5e7eb" stroke-width="1"/>
  <text x="82.0" y="524.3" text-anchor="end" dominant-baseline="middle" fill="#374151" font-size="10">1M</text>
  <line x1="90.0" y1="486.9" x2="760.0" y2="486.9" stroke="#e5e7eb" stroke-width="1"/>
  <text x="82.0" y="486.9" text-anchor="end" dominant-baseline="middle" fill="#374151" font-size="10">1.5M</text>
  <line x1="90.0" y1="449.5" x2="760.0" y2="449.5" stroke="#e5e7eb" stroke-width="1"/>
  <text x="82.0" y="449.5" text-anchor="end" dominant-baseline="middle" fill="#374151" font-size="10">2M</text>
  <line x1="90.0" y1="412.2" x2="760.0" y2="412.2" stroke="#e5e7eb" stroke-width="1"/>
  <text x="82.0" y="412.2" text-anchor="end" dominant-baseline="middle" fill="#374151" font-size="10">2.5M</text>
  <line x1="90.0" y1="374.8" x2="760.0" y2="374.8" stroke="#e5e7eb" stroke-width="1"/>
  <text x="82.0" y="374.8" text-anchor="end" dominant-baseline="middle" fill="#374151" font-size="10">3M</text>
  <line x1="90.0" y1="541.8" x2="760.0" y2="541.8" stroke="#e5e7eb" stroke-width="1" stroke-dasharray="3,6"/>
  <text x="768.0" y="541.8" text-anchor="start" dominant-baseline="middle" fill="#6b7280" font-size="10">2 GB/s</text>
  <line x1="90.0" y1="484.7" x2="760.0" y2="484.7" stroke="#e5e7eb" stroke-width="1" stroke-dasharray="3,6"/>
  <text x="768.0" y="484.7" text-anchor="start" dominant-baseline="middle" fill="#6b7280" font-size="10">4 GB/s</text>
  <line x1="90.0" y1="427.5" x2="760.0" y2="427.5" stroke="#e5e7eb" stroke-width="1" stroke-dasharray="3,6"/>
  <text x="768.0" y="427.5" text-anchor="start" dominant-baseline="middle" fill="#6b7280" font-size="10">6 GB/s</text>
  <line x1="90.0" y1="370.4" x2="760.0" y2="370.4" stroke="#e5e7eb" stroke-width="1" stroke-dasharray="3,6"/>
  <text x="768.0" y="370.4" text-anchor="start" dominant-baseline="middle" fill="#6b7280" font-size="10">8 GB/s</text>
  <line x1="90.0" y1="359.0" x2="90.0" y2="599.0" stroke="#e5e7eb" stroke-width="1"/>
  <line x1="145.8" y1="359.0" x2="145.8" y2="599.0" stroke="#e5e7eb" stroke-width="1"/>
  <line x1="201.7" y1="359.0" x2="201.7" y2="599.0" stroke="#e5e7eb" stroke-width="1"/>
  <line x1="257.5" y1="359.0" x2="257.5" y2="599.0" stroke="#e5e7eb" stroke-width="1"/>
  <line x1="313.3" y1="359.0" x2="313.3" y2="599.0" stroke="#e5e7eb" stroke-width="1"/>
  <line x1="369.2" y1="359.0" x2="369.2" y2="599.0" stroke="#e5e7eb" stroke-width="1"/>
  <line x1="425.0" y1="359.0" x2="425.0" y2="599.0" stroke="#e5e7eb" stroke-width="1"/>
  <line x1="480.8" y1="359.0" x2="480.8" y2="599.0" stroke="#e5e7eb" stroke-width="1"/>
  <line x1="536.7" y1="359.0" x2="536.7" y2="599.0" stroke="#e5e7eb" stroke-width="1"/>
  <line x1="592.5" y1="359.0" x2="592.5" y2="599.0" stroke="#e5e7eb" stroke-width="1"/>
  <line x1="648.3" y1="359.0" x2="648.3" y2="599.0" stroke="#e5e7eb" stroke-width="1"/>
  <line x1="704.2" y1="359.0" x2="704.2" y2="599.0" stroke="#e5e7eb" stroke-width="1"/>
  <line x1="760.0" y1="359.0" x2="760.0" y2="599.0" stroke="#e5e7eb" stroke-width="1"/>
  <line x1="90.0" y1="359.0" x2="90.0" y2="599.0" stroke="#9ca3af" stroke-width="1.5"/>
  <line x1="760.0" y1="359.0" x2="760.0" y2="599.0" stroke="#9ca3af" stroke-width="1.5"/>
  <line x1="90.0" y1="599.0" x2="760.0" y2="599.0" stroke="#9ca3af" stroke-width="1.5"/>
  <text x="40.0" y="479.0" text-anchor="middle" fill="#374151" font-size="10" font-weight="600" transform="rotate(-90,40.0,479.0)">msg/s</text>
  <polyline points="90.0,579.4 145.8,575.6 201.7,577.9 257.5,577.4 313.3,580.5 369.2,579.1 425.0,581.2 480.8,583.1 536.7,586.1 592.5,590.0 648.3,592.8 704.2,594.9 760.0,596.9" fill="none" stroke="#10b981" stroke-width="2" stroke-dasharray="6,4"/>
  <polyline points="90.0,594.2 145.8,594.5 201.7,594.6 257.5,595.1 313.3,595.4 369.2,595.4 425.0,595.5 480.8,595.6 536.7,595.8 592.5,596.0 648.3,596.2 704.2,596.7 760.0,597.2" fill="none" stroke="#2563eb" stroke-width="2" stroke-dasharray="6,4"/>
  <polyline points="90.0,390.3 145.8,406.3 201.7,422.4 257.5,508.2 313.3,555.2 369.2,562.6 425.0,573.7 480.8,584.0 536.7,590.5 592.5,594.5 648.3,596.8 704.2,597.7 760.0,598.0" fill="none" stroke="#eab308" stroke-width="2" stroke-dasharray="6,4"/>
  <polyline points="90.0,490.3 145.8,487.9 201.7,488.4 257.5,509.2 313.3,507.0 369.2,497.1 425.0,507.7 480.8,520.6 536.7,555.4 592.5,574.1 648.3,583.7 704.2,590.7 760.0,595.0" fill="none" stroke="#f97316" stroke-width="2" stroke-dasharray="6,4"/>
  <polyline points="90.0,531.3 145.8,533.6 201.7,538.6 257.5,547.4 313.3,550.4 369.2,556.5 425.0,561.0 480.8,568.8 536.7,577.6 592.5,585.9 648.3,591.6 704.2,594.4 760.0,596.7" fill="none" stroke="#dc2626" stroke-width="2" stroke-dasharray="6,4"/>
  <polyline points="90.0,598.8 145.8,598.4 201.7,598.0 257.5,596.9 313.3,595.4 369.2,591.2 425.0,585.0 480.8,574.2 536.7,558.4 592.5,542.3 648.3,521.3 704.2,497.2 760.0,493.0" fill="none" stroke="#10b981" stroke-width="2.5" stroke-linecap="round" stroke-linejoin="round"/>
  <circle cx="90.0" cy="598.8" r="3" fill="#10b981" stroke="white" stroke-width="1"/>
  <circle cx="145.8" cy="598.4" r="3" fill="#10b981" stroke="white" stroke-width="1"/>
  <circle cx="201.7" cy="598.0" r="3" fill="#10b981" stroke="white" stroke-width="1"/>
  <circle cx="257.5" cy="596.9" r="3" fill="#10b981" stroke="white" stroke-width="1"/>
  <circle cx="313.3" cy="595.4" r="3" fill="#10b981" stroke="white" stroke-width="1"/>
  <circle cx="369.2" cy="591.2" r="3" fill="#10b981" stroke="white" stroke-width="1"/>
  <circle cx="425.0" cy="585.0" r="3" fill="#10b981" stroke="white" stroke-width="1"/>
  <circle cx="480.8" cy="574.2" r="3" fill="#10b981" stroke="white" stroke-width="1"/>
  <circle cx="536.7" cy="558.4" r="3" fill="#10b981" stroke="white" stroke-width="1"/>
  <circle cx="592.5" cy="542.3" r="3" fill="#10b981" stroke="white" stroke-width="1"/>
  <circle cx="648.3" cy="521.3" r="3" fill="#10b981" stroke="white" stroke-width="1"/>
  <circle cx="704.2" cy="497.2" r="3" fill="#10b981" stroke="white" stroke-width="1"/>
  <circle cx="760.0" cy="493.0" r="3" fill="#10b981" stroke="white" stroke-width="1"/>
  <polyline points="90.0,598.9 145.8,598.9 201.7,598.8 257.5,598.6 313.3,598.3 369.2,597.6 425.0,596.3 480.8,593.7 536.7,588.9 592.5,580.1 648.3,563.5 704.2,540.8 760.0,511.1" fill="none" stroke="#2563eb" stroke-width="2.5" stroke-linecap="round" stroke-linejoin="round"/>
  <circle cx="90.0" cy="598.9" r="3" fill="#2563eb" stroke="white" stroke-width="1"/>
  <circle cx="145.8" cy="598.9" r="3" fill="#2563eb" stroke="white" stroke-width="1"/>
  <circle cx="201.7" cy="598.8" r="3" fill="#2563eb" stroke="white" stroke-width="1"/>
  <circle cx="257.5" cy="598.6" r="3" fill="#2563eb" stroke="white" stroke-width="1"/>
  <circle cx="313.3" cy="598.3" r="3" fill="#2563eb" stroke="white" stroke-width="1"/>
  <circle cx="369.2" cy="597.6" r="3" fill="#2563eb" stroke="white" stroke-width="1"/>
  <circle cx="425.0" cy="596.3" r="3" fill="#2563eb" stroke="white" stroke-width="1"/>
  <circle cx="480.8" cy="593.7" r="3" fill="#2563eb" stroke="white" stroke-width="1"/>
  <circle cx="536.7" cy="588.9" r="3" fill="#2563eb" stroke="white" stroke-width="1"/>
  <circle cx="592.5" cy="580.1" r="3" fill="#2563eb" stroke="white" stroke-width="1"/>
  <circle cx="648.3" cy="563.5" r="3" fill="#2563eb" stroke="white" stroke-width="1"/>
  <circle cx="704.2" cy="540.8" r="3" fill="#2563eb" stroke="white" stroke-width="1"/>
  <circle cx="760.0" cy="511.1" r="3" fill="#2563eb" stroke="white" stroke-width="1"/>
  <polyline points="90.0,596.4 145.8,594.3 201.7,590.4 257.5,590.1 313.3,590.4 369.2,584.7 425.0,579.2 480.8,575.6 536.7,572.3 592.5,571.0 648.3,571.0 704.2,567.7 760.0,546.8" fill="none" stroke="#eab308" stroke-width="2.5" stroke-linecap="round" stroke-linejoin="round"/>
  <circle cx="90.0" cy="596.4" r="3" fill="#eab308" stroke="white" stroke-width="1"/>
  <circle cx="145.8" cy="594.3" r="3" fill="#eab308" stroke="white" stroke-width="1"/>
  <circle cx="201.7" cy="590.4" r="3" fill="#eab308" stroke="white" stroke-width="1"/>
  <circle cx="257.5" cy="590.1" r="3" fill="#eab308" stroke="white" stroke-width="1"/>
  <circle cx="313.3" cy="590.4" r="3" fill="#eab308" stroke="white" stroke-width="1"/>
  <circle cx="369.2" cy="584.7" r="3" fill="#eab308" stroke="white" stroke-width="1"/>
  <circle cx="425.0" cy="579.2" r="3" fill="#eab308" stroke="white" stroke-width="1"/>
  <circle cx="480.8" cy="575.6" r="3" fill="#eab308" stroke="white" stroke-width="1"/>
  <circle cx="536.7" cy="572.3" r="3" fill="#eab308" stroke="white" stroke-width="1"/>
  <circle cx="592.5" cy="571.0" r="3" fill="#eab308" stroke="white" stroke-width="1"/>
  <circle cx="648.3" cy="571.0" r="3" fill="#eab308" stroke="white" stroke-width="1"/>
  <circle cx="704.2" cy="567.7" r="3" fill="#eab308" stroke="white" stroke-width="1"/>
  <circle cx="760.0" cy="546.8" r="3" fill="#eab308" stroke="white" stroke-width="1"/>
  <polyline points="90.0,597.7 145.8,596.3 201.7,593.6 257.5,590.2 313.3,581.0 369.2,559.1 425.0,527.5 480.8,476.2 536.7,462.4 592.5,443.3 648.3,407.6 704.2,390.3 760.0,398.2" fill="none" stroke="#f97316" stroke-width="2.5" stroke-linecap="round" stroke-linejoin="round"/>
  <circle cx="90.0" cy="597.7" r="3" fill="#f97316" stroke="white" stroke-width="1"/>
  <circle cx="145.8" cy="596.3" r="3" fill="#f97316" stroke="white" stroke-width="1"/>
  <circle cx="201.7" cy="593.6" r="3" fill="#f97316" stroke="white" stroke-width="1"/>
  <circle cx="257.5" cy="590.2" r="3" fill="#f97316" stroke="white" stroke-width="1"/>
  <circle cx="313.3" cy="581.0" r="3" fill="#f97316" stroke="white" stroke-width="1"/>
  <circle cx="369.2" cy="559.1" r="3" fill="#f97316" stroke="white" stroke-width="1"/>
  <circle cx="425.0" cy="527.5" r="3" fill="#f97316" stroke="white" stroke-width="1"/>
  <circle cx="480.8" cy="476.2" r="3" fill="#f97316" stroke="white" stroke-width="1"/>
  <circle cx="536.7" cy="462.4" r="3" fill="#f97316" stroke="white" stroke-width="1"/>
  <circle cx="592.5" cy="443.3" r="3" fill="#f97316" stroke="white" stroke-width="1"/>
  <circle cx="648.3" cy="407.6" r="3" fill="#f97316" stroke="white" stroke-width="1"/>
  <circle cx="704.2" cy="390.3" r="3" fill="#f97316" stroke="white" stroke-width="1"/>
  <circle cx="760.0" cy="398.2" r="3" fill="#f97316" stroke="white" stroke-width="1"/>
  <polyline points="90.0,598.2 145.8,597.4 201.7,596.0 257.5,593.9 313.3,589.5 369.2,582.4 425.0,569.3 480.8,551.7 536.7,531.8 592.5,516.9 648.3,506.4 704.2,484.5 760.0,482.5" fill="none" stroke="#dc2626" stroke-width="2.5" stroke-linecap="round" stroke-linejoin="round"/>
  <circle cx="90.0" cy="598.2" r="3" fill="#dc2626" stroke="white" stroke-width="1"/>
  <circle cx="145.8" cy="597.4" r="3" fill="#dc2626" stroke="white" stroke-width="1"/>
  <circle cx="201.7" cy="596.0" r="3" fill="#dc2626" stroke="white" stroke-width="1"/>
  <circle cx="257.5" cy="593.9" r="3" fill="#dc2626" stroke="white" stroke-width="1"/>
  <circle cx="313.3" cy="589.5" r="3" fill="#dc2626" stroke="white" stroke-width="1"/>
  <circle cx="369.2" cy="582.4" r="3" fill="#dc2626" stroke="white" stroke-width="1"/>
  <circle cx="425.0" cy="569.3" r="3" fill="#dc2626" stroke="white" stroke-width="1"/>
  <circle cx="480.8" cy="551.7" r="3" fill="#dc2626" stroke="white" stroke-width="1"/>
  <circle cx="536.7" cy="531.8" r="3" fill="#dc2626" stroke="white" stroke-width="1"/>
  <circle cx="592.5" cy="516.9" r="3" fill="#dc2626" stroke="white" stroke-width="1"/>
  <circle cx="648.3" cy="506.4" r="3" fill="#dc2626" stroke="white" stroke-width="1"/>
  <circle cx="704.2" cy="484.5" r="3" fill="#dc2626" stroke="white" stroke-width="1"/>
  <circle cx="760.0" cy="482.5" r="3" fill="#dc2626" stroke="white" stroke-width="1"/>
  <text x="90.0" y="613.0" text-anchor="middle" fill="#374151" font-size="8.5">8 B</text>
  <text x="145.8" y="613.0" text-anchor="middle" fill="#374151" font-size="8.5">16 B</text>
  <text x="201.7" y="613.0" text-anchor="middle" fill="#374151" font-size="8.5">32 B</text>
  <text x="257.5" y="613.0" text-anchor="middle" fill="#374151" font-size="8.5">64 B</text>
  <text x="313.3" y="613.0" text-anchor="middle" fill="#374151" font-size="8.5">128 B</text>
  <text x="369.2" y="613.0" text-anchor="middle" fill="#374151" font-size="8.5">256 B</text>
  <text x="425.0" y="613.0" text-anchor="middle" fill="#374151" font-size="8.5">512 B</text>
  <text x="480.8" y="613.0" text-anchor="middle" fill="#374151" font-size="8.5">1 KiB</text>
  <text x="536.7" y="613.0" text-anchor="middle" fill="#374151" font-size="8.5">2 KiB</text>
  <text x="592.5" y="613.0" text-anchor="middle" fill="#374151" font-size="8.5">4 KiB</text>
  <text x="648.3" y="613.0" text-anchor="middle" fill="#374151" font-size="8.5">8 KiB</text>
  <text x="704.2" y="613.0" text-anchor="middle" fill="#374151" font-size="8.5">16 KiB</text>
  <text x="760.0" y="613.0" text-anchor="middle" fill="#374151" font-size="8.5">32 KiB</text>
  <text x="425.0" y="652.0" text-anchor="middle" fill="#111827" font-size="13" font-weight="700">PUSH fan-out (1 PUSH → 8 PULL): TCP loopback</text>
  <line x1="90.0" y1="879.1" x2="760.0" y2="879.1" stroke="#e5e7eb" stroke-width="1"/>
  <text x="82.0" y="879.1" text-anchor="end" dominant-baseline="middle" fill="#374151" font-size="10">200k</text>
  <line x1="90.0" y1="849.1" x2="760.0" y2="849.1" stroke="#e5e7eb" stroke-width="1"/>
  <text x="82.0" y="849.1" text-anchor="end" dominant-baseline="middle" fill="#374151" font-size="10">400k</text>
  <line x1="90.0" y1="819.2" x2="760.0" y2="819.2" stroke="#e5e7eb" stroke-width="1"/>
  <text x="82.0" y="819.2" text-anchor="end" dominant-baseline="middle" fill="#374151" font-size="10">600k</text>
  <line x1="90.0" y1="789.2" x2="760.0" y2="789.2" stroke="#e5e7eb" stroke-width="1"/>
  <text x="82.0" y="789.2" text-anchor="end" dominant-baseline="middle" fill="#374151" font-size="10">800k</text>
  <line x1="90.0" y1="759.3" x2="760.0" y2="759.3" stroke="#e5e7eb" stroke-width="1"/>
  <text x="82.0" y="759.3" text-anchor="end" dominant-baseline="middle" fill="#374151" font-size="10">1M</text>
  <line x1="90.0" y1="729.3" x2="760.0" y2="729.3" stroke="#e5e7eb" stroke-width="1"/>
  <text x="82.0" y="729.3" text-anchor="end" dominant-baseline="middle" fill="#374151" font-size="10">1.2M</text>
  <line x1="90.0" y1="699.4" x2="760.0" y2="699.4" stroke="#e5e7eb" stroke-width="1"/>
  <text x="82.0" y="699.4" text-anchor="end" dominant-baseline="middle" fill="#374151" font-size="10">1.4M</text>
  <line x1="90.0" y1="669.4" x2="760.0" y2="669.4" stroke="#e5e7eb" stroke-width="1"/>
  <text x="82.0" y="669.4" text-anchor="end" dominant-baseline="middle" fill="#374151" font-size="10">1.6M</text>
  <line x1="90.0" y1="854.9" x2="760.0" y2="854.9" stroke="#e5e7eb" stroke-width="1" stroke-dasharray="3,6"/>
  <text x="768.0" y="854.9" text-anchor="start" dominant-baseline="middle" fill="#6b7280" font-size="10">2 GB/s</text>
  <line x1="90.0" y1="800.8" x2="760.0" y2="800.8" stroke="#e5e7eb" stroke-width="1" stroke-dasharray="3,6"/>
  <text x="768.0" y="800.8" text-anchor="start" dominant-baseline="middle" fill="#6b7280" font-size="10">4 GB/s</text>
  <line x1="90.0" y1="746.7" x2="760.0" y2="746.7" stroke="#e5e7eb" stroke-width="1" stroke-dasharray="3,6"/>
  <text x="768.0" y="746.7" text-anchor="start" dominant-baseline="middle" fill="#6b7280" font-size="10">6 GB/s</text>
  <line x1="90.0" y1="692.6" x2="760.0" y2="692.6" stroke="#e5e7eb" stroke-width="1" stroke-dasharray="3,6"/>
  <text x="768.0" y="692.6" text-anchor="start" dominant-baseline="middle" fill="#6b7280" font-size="10">8 GB/s</text>
  <line x1="90.0" y1="669.0" x2="90.0" y2="909.0" stroke="#e5e7eb" stroke-width="1"/>
  <line x1="145.8" y1="669.0" x2="145.8" y2="909.0" stroke="#e5e7eb" stroke-width="1"/>
  <line x1="201.7" y1="669.0" x2="201.7" y2="909.0" stroke="#e5e7eb" stroke-width="1"/>
  <line x1="257.5" y1="669.0" x2="257.5" y2="909.0" stroke="#e5e7eb" stroke-width="1"/>
  <line x1="313.3" y1="669.0" x2="313.3" y2="909.0" stroke="#e5e7eb" stroke-width="1"/>
  <line x1="369.2" y1="669.0" x2="369.2" y2="909.0" stroke="#e5e7eb" stroke-width="1"/>
  <line x1="425.0" y1="669.0" x2="425.0" y2="909.0" stroke="#e5e7eb" stroke-width="1"/>
  <line x1="480.8" y1="669.0" x2="480.8" y2="909.0" stroke="#e5e7eb" stroke-width="1"/>
  <line x1="536.7" y1="669.0" x2="536.7" y2="909.0" stroke="#e5e7eb" stroke-width="1"/>
  <line x1="592.5" y1="669.0" x2="592.5" y2="909.0" stroke="#e5e7eb" stroke-width="1"/>
  <line x1="648.3" y1="669.0" x2="648.3" y2="909.0" stroke="#e5e7eb" stroke-width="1"/>
  <line x1="704.2" y1="669.0" x2="704.2" y2="909.0" stroke="#e5e7eb" stroke-width="1"/>
  <line x1="760.0" y1="669.0" x2="760.0" y2="909.0" stroke="#e5e7eb" stroke-width="1"/>
  <line x1="90.0" y1="669.0" x2="90.0" y2="909.0" stroke="#9ca3af" stroke-width="1.5"/>
  <line x1="760.0" y1="669.0" x2="760.0" y2="909.0" stroke="#9ca3af" stroke-width="1.5"/>
  <line x1="90.0" y1="909.0" x2="760.0" y2="909.0" stroke="#9ca3af" stroke-width="1.5"/>
  <text x="40.0" y="789.0" text-anchor="middle" fill="#374151" font-size="10" font-weight="600" transform="rotate(-90,40.0,789.0)">msg/s</text>
  <polyline points="90.0,894.7 145.8,892.7 201.7,892.1 257.5,894.2 313.3,894.6 369.2,895.3 425.0,895.9 480.8,896.1 536.7,898.7 592.5,900.0 648.3,902.9 704.2,904.6 760.0,906.7" fill="none" stroke="#10b981" stroke-width="2" stroke-dasharray="6,4"/>
  <polyline points="90.0,902.1 145.8,902.4 201.7,903.0 257.5,903.7 313.3,904.2 369.2,904.7 425.0,905.0 480.8,905.0 536.7,905.3 592.5,905.7 648.3,905.9 704.2,906.3 760.0,907.0" fill="none" stroke="#2563eb" stroke-width="2" stroke-dasharray="6,4"/>
  <polyline points="90.0,700.3 145.8,705.3 201.7,729.0 257.5,810.7 313.3,861.8 369.2,869.6 425.0,881.6 480.8,892.8 536.7,900.1 592.5,904.4 648.3,906.7 704.2,907.7 760.0,907.9" fill="none" stroke="#eab308" stroke-width="2" stroke-dasharray="6,4"/>
  <polyline points="90.0,807.3 145.8,803.7 201.7,801.4 257.5,811.2 313.3,818.6 369.2,823.2 425.0,820.3 480.8,829.4 536.7,861.8 592.5,882.5 648.3,895.4 704.2,900.2 760.0,904.9" fill="none" stroke="#f97316" stroke-width="2" stroke-dasharray="6,4"/>
  <polyline points="90.0,815.5 145.8,817.9 201.7,824.4 257.5,842.2 313.3,850.1 369.2,858.6 425.0,866.3 480.8,875.9 536.7,885.6 592.5,895.0 648.3,901.0 704.2,904.5 760.0,906.8" fill="none" stroke="#dc2626" stroke-width="2" stroke-dasharray="6,4"/>
  <polyline points="90.0,908.8 145.8,908.6 201.7,908.2 257.5,907.6 313.3,906.3 369.2,903.9 425.0,899.3 480.8,889.9 536.7,878.6 592.5,855.8 648.3,837.3 704.2,803.8 760.0,800.0" fill="none" stroke="#10b981" stroke-width="2.5" stroke-linecap="round" stroke-linejoin="round"/>
  <circle cx="90.0" cy="908.8" r="3" fill="#10b981" stroke="white" stroke-width="1"/>
  <circle cx="145.8" cy="908.6" r="3" fill="#10b981" stroke="white" stroke-width="1"/>
  <circle cx="201.7" cy="908.2" r="3" fill="#10b981" stroke="white" stroke-width="1"/>
  <circle cx="257.5" cy="907.6" r="3" fill="#10b981" stroke="white" stroke-width="1"/>
  <circle cx="313.3" cy="906.3" r="3" fill="#10b981" stroke="white" stroke-width="1"/>
  <circle cx="369.2" cy="903.9" r="3" fill="#10b981" stroke="white" stroke-width="1"/>
  <circle cx="425.0" cy="899.3" r="3" fill="#10b981" stroke="white" stroke-width="1"/>
  <circle cx="480.8" cy="889.9" r="3" fill="#10b981" stroke="white" stroke-width="1"/>
  <circle cx="536.7" cy="878.6" r="3" fill="#10b981" stroke="white" stroke-width="1"/>
  <circle cx="592.5" cy="855.8" r="3" fill="#10b981" stroke="white" stroke-width="1"/>
  <circle cx="648.3" cy="837.3" r="3" fill="#10b981" stroke="white" stroke-width="1"/>
  <circle cx="704.2" cy="803.8" r="3" fill="#10b981" stroke="white" stroke-width="1"/>
  <circle cx="760.0" cy="800.0" r="3" fill="#10b981" stroke="white" stroke-width="1"/>
  <polyline points="90.0,908.9 145.8,908.8 201.7,908.7 257.5,908.5 313.3,908.1 369.2,907.4 425.0,906.1 480.8,903.1 536.7,898.1 592.5,889.2 648.3,872.8 704.2,845.7 760.0,816.7" fill="none" stroke="#2563eb" stroke-width="2.5" stroke-linecap="round" stroke-linejoin="round"/>
  <circle cx="90.0" cy="908.9" r="3" fill="#2563eb" stroke="white" stroke-width="1"/>
  <circle cx="145.8" cy="908.8" r="3" fill="#2563eb" stroke="white" stroke-width="1"/>
  <circle cx="201.7" cy="908.7" r="3" fill="#2563eb" stroke="white" stroke-width="1"/>
  <circle cx="257.5" cy="908.5" r="3" fill="#2563eb" stroke="white" stroke-width="1"/>
  <circle cx="313.3" cy="908.1" r="3" fill="#2563eb" stroke="white" stroke-width="1"/>
  <circle cx="369.2" cy="907.4" r="3" fill="#2563eb" stroke="white" stroke-width="1"/>
  <circle cx="425.0" cy="906.1" r="3" fill="#2563eb" stroke="white" stroke-width="1"/>
  <circle cx="480.8" cy="903.1" r="3" fill="#2563eb" stroke="white" stroke-width="1"/>
  <circle cx="536.7" cy="898.1" r="3" fill="#2563eb" stroke="white" stroke-width="1"/>
  <circle cx="592.5" cy="889.2" r="3" fill="#2563eb" stroke="white" stroke-width="1"/>
  <circle cx="648.3" cy="872.8" r="3" fill="#2563eb" stroke="white" stroke-width="1"/>
  <circle cx="704.2" cy="845.7" r="3" fill="#2563eb" stroke="white" stroke-width="1"/>
  <circle cx="760.0" cy="816.7" r="3" fill="#2563eb" stroke="white" stroke-width="1"/>
  <polyline points="90.0,906.6 145.8,904.3 201.7,900.7 257.5,899.9 313.3,900.3 369.2,894.4 425.0,888.7 480.8,885.1 536.7,882.7 592.5,882.0 648.3,881.7 704.2,877.6 760.0,857.5" fill="none" stroke="#eab308" stroke-width="2.5" stroke-linecap="round" stroke-linejoin="round"/>
  <circle cx="90.0" cy="906.6" r="3" fill="#eab308" stroke="white" stroke-width="1"/>
  <circle cx="145.8" cy="904.3" r="3" fill="#eab308" stroke="white" stroke-width="1"/>
  <circle cx="201.7" cy="900.7" r="3" fill="#eab308" stroke="white" stroke-width="1"/>
  <circle cx="257.5" cy="899.9" r="3" fill="#eab308" stroke="white" stroke-width="1"/>
  <circle cx="313.3" cy="900.3" r="3" fill="#eab308" stroke="white" stroke-width="1"/>
  <circle cx="369.2" cy="894.4" r="3" fill="#eab308" stroke="white" stroke-width="1"/>
  <circle cx="425.0" cy="888.7" r="3" fill="#eab308" stroke="white" stroke-width="1"/>
  <circle cx="480.8" cy="885.1" r="3" fill="#eab308" stroke="white" stroke-width="1"/>
  <circle cx="536.7" cy="882.7" r="3" fill="#eab308" stroke="white" stroke-width="1"/>
  <circle cx="592.5" cy="882.0" r="3" fill="#eab308" stroke="white" stroke-width="1"/>
  <circle cx="648.3" cy="881.7" r="3" fill="#eab308" stroke="white" stroke-width="1"/>
  <circle cx="704.2" cy="877.6" r="3" fill="#eab308" stroke="white" stroke-width="1"/>
  <circle cx="760.0" cy="857.5" r="3" fill="#eab308" stroke="white" stroke-width="1"/>
  <polyline points="90.0,907.8 145.8,906.6 201.7,904.0 257.5,900.0 313.3,892.3 369.2,877.2 425.0,843.4 480.8,791.3 536.7,769.3 592.5,752.2 648.3,747.8 704.2,700.3 760.0,713.9" fill="none" stroke="#f97316" stroke-width="2.5" stroke-linecap="round" stroke-linejoin="round"/>
  <circle cx="90.0" cy="907.8" r="3" fill="#f97316" stroke="white" stroke-width="1"/>
  <circle cx="145.8" cy="906.6" r="3" fill="#f97316" stroke="white" stroke-width="1"/>
  <circle cx="201.7" cy="904.0" r="3" fill="#f97316" stroke="white" stroke-width="1"/>
  <circle cx="257.5" cy="900.0" r="3" fill="#f97316" stroke="white" stroke-width="1"/>
  <circle cx="313.3" cy="892.3" r="3" fill="#f97316" stroke="white" stroke-width="1"/>
  <circle cx="369.2" cy="877.2" r="3" fill="#f97316" stroke="white" stroke-width="1"/>
  <circle cx="425.0" cy="843.4" r="3" fill="#f97316" stroke="white" stroke-width="1"/>
  <circle cx="480.8" cy="791.3" r="3" fill="#f97316" stroke="white" stroke-width="1"/>
  <circle cx="536.7" cy="769.3" r="3" fill="#f97316" stroke="white" stroke-width="1"/>
  <circle cx="592.5" cy="752.2" r="3" fill="#f97316" stroke="white" stroke-width="1"/>
  <circle cx="648.3" cy="747.8" r="3" fill="#f97316" stroke="white" stroke-width="1"/>
  <circle cx="704.2" cy="700.3" r="3" fill="#f97316" stroke="white" stroke-width="1"/>
  <circle cx="760.0" cy="713.9" r="3" fill="#f97316" stroke="white" stroke-width="1"/>
  <polyline points="90.0,907.9 145.8,906.9 201.7,905.1 257.5,902.8 313.3,898.1 369.2,890.4 425.0,877.4 480.8,860.1 536.7,839.8 592.5,826.1 648.3,814.1 704.2,802.4 760.0,806.7" fill="none" stroke="#dc2626" stroke-width="2.5" stroke-linecap="round" stroke-linejoin="round"/>
  <circle cx="90.0" cy="907.9" r="3" fill="#dc2626" stroke="white" stroke-width="1"/>
  <circle cx="145.8" cy="906.9" r="3" fill="#dc2626" stroke="white" stroke-width="1"/>
  <circle cx="201.7" cy="905.1" r="3" fill="#dc2626" stroke="white" stroke-width="1"/>
  <circle cx="257.5" cy="902.8" r="3" fill="#dc2626" stroke="white" stroke-width="1"/>
  <circle cx="313.3" cy="898.1" r="3" fill="#dc2626" stroke="white" stroke-width="1"/>
  <circle cx="369.2" cy="890.4" r="3" fill="#dc2626" stroke="white" stroke-width="1"/>
  <circle cx="425.0" cy="877.4" r="3" fill="#dc2626" stroke="white" stroke-width="1"/>
  <circle cx="480.8" cy="860.1" r="3" fill="#dc2626" stroke="white" stroke-width="1"/>
  <circle cx="536.7" cy="839.8" r="3" fill="#dc2626" stroke="white" stroke-width="1"/>
  <circle cx="592.5" cy="826.1" r="3" fill="#dc2626" stroke="white" stroke-width="1"/>
  <circle cx="648.3" cy="814.1" r="3" fill="#dc2626" stroke="white" stroke-width="1"/>
  <circle cx="704.2" cy="802.4" r="3" fill="#dc2626" stroke="white" stroke-width="1"/>
  <circle cx="760.0" cy="806.7" r="3" fill="#dc2626" stroke="white" stroke-width="1"/>
  <text x="90.0" y="923.0" text-anchor="middle" fill="#374151" font-size="8.5">8 B</text>
  <text x="145.8" y="923.0" text-anchor="middle" fill="#374151" font-size="8.5">16 B</text>
  <text x="201.7" y="923.0" text-anchor="middle" fill="#374151" font-size="8.5">32 B</text>
  <text x="257.5" y="923.0" text-anchor="middle" fill="#374151" font-size="8.5">64 B</text>
  <text x="313.3" y="923.0" text-anchor="middle" fill="#374151" font-size="8.5">128 B</text>
  <text x="369.2" y="923.0" text-anchor="middle" fill="#374151" font-size="8.5">256 B</text>
  <text x="425.0" y="923.0" text-anchor="middle" fill="#374151" font-size="8.5">512 B</text>
  <text x="480.8" y="923.0" text-anchor="middle" fill="#374151" font-size="8.5">1 KiB</text>
  <text x="536.7" y="923.0" text-anchor="middle" fill="#374151" font-size="8.5">2 KiB</text>
  <text x="592.5" y="923.0" text-anchor="middle" fill="#374151" font-size="8.5">4 KiB</text>
  <text x="648.3" y="923.0" text-anchor="middle" fill="#374151" font-size="8.5">8 KiB</text>
  <text x="704.2" y="923.0" text-anchor="middle" fill="#374151" font-size="8.5">16 KiB</text>
  <text x="760.0" y="923.0" text-anchor="middle" fill="#374151" font-size="8.5">32 KiB</text>
  <line x1="112" y1="949" x2="126" y2="949" stroke="#eab308" stroke-width="2.5"/>
  <circle cx="120" cy="949" r="2.5" fill="#eab308"/>
  <text x="132" y="953" fill="#374151" font-size="11" font-weight="500">libzmq v4.3.5</text>
  <line x1="238" y1="949" x2="252" y2="949" stroke="#dc2626" stroke-width="2.5"/>
  <circle cx="244" cy="949" r="2.5" fill="#dc2626"/>
  <text x="258" y="953" fill="#374151" font-size="11" font-weight="500">omq-compio</text>
  <line x1="362" y1="949" x2="376" y2="949" stroke="#f97316" stroke-width="2.5"/>
  <circle cx="370" cy="949" r="2.5" fill="#f97316"/>
  <text x="382" y="953" fill="#374151" font-size="11" font-weight="500">omq-tokio</text>
  <line x1="488" y1="949" x2="502" y2="949" stroke="#2563eb" stroke-width="2.5"/>
  <circle cx="494" cy="949" r="2.5" fill="#2563eb"/>
  <text x="508" y="953" fill="#374151" font-size="11" font-weight="500">zmq.rs v0.6.0</text>
  <line x1="612" y1="949" x2="626" y2="949" stroke="#10b981" stroke-width="2.5"/>
  <circle cx="620" cy="949" r="2.5" fill="#10b981"/>
  <text x="632" y="953" fill="#374151" font-size="11" font-weight="500">rzmq v0.5.18</text>
  <line x1="265" y1="971" x2="285" y2="971" stroke="#6b7280" stroke-width="2" stroke-dasharray="6,4"/>
  <text x="291" y="975" fill="#6b7280" font-size="10">msg/s (left axis)</text>
  <line x1="435" y1="971" x2="455" y2="971" stroke="#6b7280" stroke-width="2"/>
  <circle cx="445" cy="971" r="2" fill="#6b7280"/>
  <text x="461" y="975" fill="#6b7280" font-size="10">throughput / GB/s (right axis)</text>
</svg>
