<svg xmlns="http://www.w3.org/2000/svg" viewBox="0 0 850 999" font-family="system-ui, -apple-system, sans-serif">
  <rect width="850" height="999" fill="white"/>
  <text x="425.0" y="46" text-anchor="middle" fill="#9ca3af" font-size="10">Intel Core i7-8700B @ 3.20GHz, 6 cores, performance governor, turbo off</text>
  <text x="425.0" y="32.0" text-anchor="middle" fill="#111827" font-size="13" font-weight="700">PUSH fan-out (1 PUSH → 2 PULL): TCP loopback</text>
  <line x1="90.0" y1="253.1" x2="760.0" y2="253.1" stroke="#e5e7eb" stroke-width="1"/>
  <text x="82.0" y="253.1" text-anchor="end" dominant-baseline="middle" fill="#374151" font-size="10">1M</text>
  <line x1="90.0" y1="217.3" x2="760.0" y2="217.3" stroke="#e5e7eb" stroke-width="1"/>
  <text x="82.0" y="217.3" text-anchor="end" dominant-baseline="middle" fill="#374151" font-size="10">2M</text>
  <line x1="90.0" y1="181.4" x2="760.0" y2="181.4" stroke="#e5e7eb" stroke-width="1"/>
  <text x="82.0" y="181.4" text-anchor="end" dominant-baseline="middle" fill="#374151" font-size="10">3M</text>
  <line x1="90.0" y1="145.6" x2="760.0" y2="145.6" stroke="#e5e7eb" stroke-width="1"/>
  <text x="82.0" y="145.6" text-anchor="end" dominant-baseline="middle" fill="#374151" font-size="10">4M</text>
  <line x1="90.0" y1="109.7" x2="760.0" y2="109.7" stroke="#e5e7eb" stroke-width="1"/>
  <text x="82.0" y="109.7" text-anchor="end" dominant-baseline="middle" fill="#374151" font-size="10">5M</text>
  <line x1="90.0" y1="73.8" x2="760.0" y2="73.8" stroke="#e5e7eb" stroke-width="1"/>
  <text x="82.0" y="73.8" text-anchor="end" dominant-baseline="middle" fill="#374151" font-size="10">6M</text>
  <line x1="90.0" y1="236.3" x2="760.0" y2="236.3" stroke="#e5e7eb" stroke-width="1" stroke-dasharray="3,6"/>
  <text x="768.0" y="236.3" text-anchor="start" dominant-baseline="middle" fill="#6b7280" font-size="10">2 GB/s</text>
  <line x1="90.0" y1="183.7" x2="760.0" y2="183.7" stroke="#e5e7eb" stroke-width="1" stroke-dasharray="3,6"/>
  <text x="768.0" y="183.7" text-anchor="start" dominant-baseline="middle" fill="#6b7280" font-size="10">4 GB/s</text>
  <line x1="90.0" y1="131.0" x2="760.0" y2="131.0" stroke="#e5e7eb" stroke-width="1" stroke-dasharray="3,6"/>
  <text x="768.0" y="131.0" text-anchor="start" dominant-baseline="middle" fill="#6b7280" font-size="10">6 GB/s</text>
  <line x1="90.0" y1="78.3" x2="760.0" y2="78.3" stroke="#e5e7eb" stroke-width="1" stroke-dasharray="3,6"/>
  <text x="768.0" y="78.3" text-anchor="start" dominant-baseline="middle" fill="#6b7280" font-size="10">8 GB/s</text>
  <line x1="90.0" y1="49.0" x2="90.0" y2="289.0" stroke="#e5e7eb" stroke-width="1"/>
  <line x1="145.8" y1="49.0" x2="145.8" y2="289.0" stroke="#e5e7eb" stroke-width="1"/>
  <line x1="201.7" y1="49.0" x2="201.7" y2="289.0" stroke="#e5e7eb" stroke-width="1"/>
  <line x1="257.5" y1="49.0" x2="257.5" y2="289.0" stroke="#e5e7eb" stroke-width="1"/>
  <line x1="313.3" y1="49.0" x2="313.3" y2="289.0" stroke="#e5e7eb" stroke-width="1"/>
  <line x1="369.2" y1="49.0" x2="369.2" y2="289.0" stroke="#e5e7eb" stroke-width="1"/>
  <line x1="425.0" y1="49.0" x2="425.0" y2="289.0" stroke="#e5e7eb" stroke-width="1"/>
  <line x1="480.8" y1="49.0" x2="480.8" y2="289.0" stroke="#e5e7eb" stroke-width="1"/>
  <line x1="536.7" y1="49.0" x2="536.7" y2="289.0" stroke="#e5e7eb" stroke-width="1"/>
  <line x1="592.5" y1="49.0" x2="592.5" y2="289.0" stroke="#e5e7eb" stroke-width="1"/>
  <line x1="648.3" y1="49.0" x2="648.3" y2="289.0" stroke="#e5e7eb" stroke-width="1"/>
  <line x1="704.2" y1="49.0" x2="704.2" y2="289.0" stroke="#e5e7eb" stroke-width="1"/>
  <line x1="760.0" y1="49.0" x2="760.0" y2="289.0" stroke="#e5e7eb" stroke-width="1"/>
  <line x1="90.0" y1="49.0" x2="90.0" y2="289.0" stroke="#9ca3af" stroke-width="1.5"/>
  <line x1="760.0" y1="49.0" x2="760.0" y2="289.0" stroke="#9ca3af" stroke-width="1.5"/>
  <line x1="90.0" y1="289.0" x2="760.0" y2="289.0" stroke="#9ca3af" stroke-width="1.5"/>
  <text x="40.0" y="169.0" text-anchor="middle" fill="#374151" font-size="10" font-weight="600" transform="rotate(-90,40.0,169.0)">msg/s</text>
  <polyline points="90.0,104.8 145.8,102.4 201.7,133.6 257.5,209.6 313.3,248.4 369.2,254.4 425.0,264.4 480.8,274.1 536.7,280.3 592.5,284.1 648.3,286.5 704.2,287.7 760.0,288.0" fill="none" stroke="#eab308" stroke-width="2" stroke-dasharray="6,4"/>
  <polyline points="90.0,115.9 145.8,87.8 201.7,80.3 257.5,188.5 313.3,258.1 369.2,230.8 425.0,258.3 480.8,267.1 536.7,270.4 592.5,278.5 648.3,282.0 704.2,284.9 760.0,287.2" fill="none" stroke="#06b6d4" stroke-width="2" stroke-dasharray="6,4"/>
  <polyline points="90.0,191.9 145.8,201.3 201.7,189.1 257.5,190.5 313.3,199.1 369.2,201.6 425.0,203.5 480.8,214.1 536.7,234.2 592.5,260.7 648.3,274.0 704.2,280.6 760.0,284.7" fill="none" stroke="#f97316" stroke-width="2" stroke-dasharray="6,4"/>
  <polyline points="90.0,237.5 145.8,237.8 201.7,239.3 257.5,246.4 313.3,247.8 369.2,252.6 425.0,255.3 480.8,261.1 536.7,268.2 592.5,276.6 648.3,281.9 704.2,284.6 760.0,286.8" fill="none" stroke="#dc2626" stroke-width="2" stroke-dasharray="6,4"/>
  <polyline points="90.0,286.8 145.8,284.6 201.7,281.7 257.5,281.5 313.3,281.4 369.2,276.0 425.0,270.5 480.8,266.6 536.7,262.9 592.5,259.8 648.3,258.4 704.2,258.6 760.0,240.3" fill="none" stroke="#eab308" stroke-width="2.5" stroke-linecap="round" stroke-linejoin="round"/>
  <circle cx="90.0" cy="286.8" r="3" fill="#eab308" stroke="white" stroke-width="1"/>
  <circle cx="145.8" cy="284.6" r="3" fill="#eab308" stroke="white" stroke-width="1"/>
  <circle cx="201.7" cy="281.7" r="3" fill="#eab308" stroke="white" stroke-width="1"/>
  <circle cx="257.5" cy="281.5" r="3" fill="#eab308" stroke="white" stroke-width="1"/>
  <circle cx="313.3" cy="281.4" r="3" fill="#eab308" stroke="white" stroke-width="1"/>
  <circle cx="369.2" cy="276.0" r="3" fill="#eab308" stroke="white" stroke-width="1"/>
  <circle cx="425.0" cy="270.5" r="3" fill="#eab308" stroke="white" stroke-width="1"/>
  <circle cx="480.8" cy="266.6" r="3" fill="#eab308" stroke="white" stroke-width="1"/>
  <circle cx="536.7" cy="262.9" r="3" fill="#eab308" stroke="white" stroke-width="1"/>
  <circle cx="592.5" cy="259.8" r="3" fill="#eab308" stroke="white" stroke-width="1"/>
  <circle cx="648.3" cy="258.4" r="3" fill="#eab308" stroke="white" stroke-width="1"/>
  <circle cx="704.2" cy="258.6" r="3" fill="#eab308" stroke="white" stroke-width="1"/>
  <circle cx="760.0" cy="240.3" r="3" fill="#eab308" stroke="white" stroke-width="1"/>
  <polyline points="90.0,287.0 145.8,284.3 201.7,279.2 257.5,279.6 313.3,283.2 369.2,267.1 425.0,265.9 480.8,256.0 536.7,233.0 592.5,225.8 648.3,204.6 704.2,191.2 760.0,202.6" fill="none" stroke="#06b6d4" stroke-width="2.5" stroke-linecap="round" stroke-linejoin="round"/>
  <circle cx="90.0" cy="287.0" r="3" fill="#06b6d4" stroke="white" stroke-width="1"/>
  <circle cx="145.8" cy="284.3" r="3" fill="#06b6d4" stroke="white" stroke-width="1"/>
  <circle cx="201.7" cy="279.2" r="3" fill="#06b6d4" stroke="white" stroke-width="1"/>
  <circle cx="257.5" cy="279.6" r="3" fill="#06b6d4" stroke="white" stroke-width="1"/>
  <circle cx="313.3" cy="283.2" r="3" fill="#06b6d4" stroke="white" stroke-width="1"/>
  <circle cx="369.2" cy="267.1" r="3" fill="#06b6d4" stroke="white" stroke-width="1"/>
  <circle cx="425.0" cy="265.9" r="3" fill="#06b6d4" stroke="white" stroke-width="1"/>
  <circle cx="480.8" cy="256.0" r="3" fill="#06b6d4" stroke="white" stroke-width="1"/>
  <circle cx="536.7" cy="233.0" r="3" fill="#06b6d4" stroke="white" stroke-width="1"/>
  <circle cx="592.5" cy="225.8" r="3" fill="#06b6d4" stroke="white" stroke-width="1"/>
  <circle cx="648.3" cy="204.6" r="3" fill="#06b6d4" stroke="white" stroke-width="1"/>
  <circle cx="704.2" cy="191.2" r="3" fill="#06b6d4" stroke="white" stroke-width="1"/>
  <circle cx="760.0" cy="202.6" r="3" fill="#06b6d4" stroke="white" stroke-width="1"/>
  <polyline points="90.0,287.9 145.8,286.9 201.7,284.3 257.5,279.7 313.3,272.1 369.2,256.1 425.0,224.7 480.8,176.3 536.7,124.1 592.5,118.6 648.3,108.1 704.2,87.2 760.0,80.3" fill="none" stroke="#f97316" stroke-width="2.5" stroke-linecap="round" stroke-linejoin="round"/>
  <circle cx="90.0" cy="287.9" r="3" fill="#f97316" stroke="white" stroke-width="1"/>
  <circle cx="145.8" cy="286.9" r="3" fill="#f97316" stroke="white" stroke-width="1"/>
  <circle cx="201.7" cy="284.3" r="3" fill="#f97316" stroke="white" stroke-width="1"/>
  <circle cx="257.5" cy="279.7" r="3" fill="#f97316" stroke="white" stroke-width="1"/>
  <circle cx="313.3" cy="272.1" r="3" fill="#f97316" stroke="white" stroke-width="1"/>
  <circle cx="369.2" cy="256.1" r="3" fill="#f97316" stroke="white" stroke-width="1"/>
  <circle cx="425.0" cy="224.7" r="3" fill="#f97316" stroke="white" stroke-width="1"/>
  <circle cx="480.8" cy="176.3" r="3" fill="#f97316" stroke="white" stroke-width="1"/>
  <circle cx="536.7" cy="124.1" r="3" fill="#f97316" stroke="white" stroke-width="1"/>
  <circle cx="592.5" cy="118.6" r="3" fill="#f97316" stroke="white" stroke-width="1"/>
  <circle cx="648.3" cy="108.1" r="3" fill="#f97316" stroke="white" stroke-width="1"/>
  <circle cx="704.2" cy="87.2" r="3" fill="#f97316" stroke="white" stroke-width="1"/>
  <circle cx="760.0" cy="80.3" r="3" fill="#f97316" stroke="white" stroke-width="1"/>
  <polyline points="90.0,288.4 145.8,287.8 201.7,286.7 257.5,285.0 313.3,281.3 369.2,275.3 425.0,263.6 480.8,247.0 536.7,226.3 592.5,214.2 648.3,203.8 704.2,184.1 760.0,182.0" fill="none" stroke="#dc2626" stroke-width="2.5" stroke-linecap="round" stroke-linejoin="round"/>
  <circle cx="90.0" cy="288.4" r="3" fill="#dc2626" stroke="white" stroke-width="1"/>
  <circle cx="145.8" cy="287.8" r="3" fill="#dc2626" stroke="white" stroke-width="1"/>
  <circle cx="201.7" cy="286.7" r="3" fill="#dc2626" stroke="white" stroke-width="1"/>
  <circle cx="257.5" cy="285.0" r="3" fill="#dc2626" stroke="white" stroke-width="1"/>
  <circle cx="313.3" cy="281.3" r="3" fill="#dc2626" stroke="white" stroke-width="1"/>
  <circle cx="369.2" cy="275.3" r="3" fill="#dc2626" stroke="white" stroke-width="1"/>
  <circle cx="425.0" cy="263.6" r="3" fill="#dc2626" stroke="white" stroke-width="1"/>
  <circle cx="480.8" cy="247.0" r="3" fill="#dc2626" stroke="white" stroke-width="1"/>
  <circle cx="536.7" cy="226.3" r="3" fill="#dc2626" stroke="white" stroke-width="1"/>
  <circle cx="592.5" cy="214.2" r="3" fill="#dc2626" stroke="white" stroke-width="1"/>
  <circle cx="648.3" cy="203.8" r="3" fill="#dc2626" stroke="white" stroke-width="1"/>
  <circle cx="704.2" cy="184.1" r="3" fill="#dc2626" stroke="white" stroke-width="1"/>
  <circle cx="760.0" cy="182.0" r="3" fill="#dc2626" stroke="white" stroke-width="1"/>
  <text x="90.0" y="303.0" text-anchor="middle" fill="#374151" font-size="8.5">8 B</text>
  <text x="145.8" y="303.0" text-anchor="middle" fill="#374151" font-size="8.5">16 B</text>
  <text x="201.7" y="303.0" text-anchor="middle" fill="#374151" font-size="8.5">32 B</text>
  <text x="257.5" y="303.0" text-anchor="middle" fill="#374151" font-size="8.5">64 B</text>
  <text x="313.3" y="303.0" text-anchor="middle" fill="#374151" font-size="8.5">128 B</text>
  <text x="369.2" y="303.0" text-anchor="middle" fill="#374151" font-size="8.5">256 B</text>
  <text x="425.0" y="303.0" text-anchor="middle" fill="#374151" font-size="8.5">512 B</text>
  <text x="480.8" y="303.0" text-anchor="middle" fill="#374151" font-size="8.5">1 KiB</text>
  <text x="536.7" y="303.0" text-anchor="middle" fill="#374151" font-size="8.5">2 KiB</text>
  <text x="592.5" y="303.0" text-anchor="middle" fill="#374151" font-size="8.5">4 KiB</text>
  <text x="648.3" y="303.0" text-anchor="middle" fill="#374151" font-size="8.5">8 KiB</text>
  <text x="704.2" y="303.0" text-anchor="middle" fill="#374151" font-size="8.5">16 KiB</text>
  <text x="760.0" y="303.0" text-anchor="middle" fill="#374151" font-size="8.5">32 KiB</text>
  <text x="425.0" y="342.0" text-anchor="middle" fill="#111827" font-size="13" font-weight="700">PUSH fan-out (1 PUSH → 4 PULL): TCP loopback</text>
  <line x1="90.0" y1="575.4" x2="760.0" y2="575.4" stroke="#e5e7eb" stroke-width="1"/>
  <text x="82.0" y="575.4" text-anchor="end" dominant-baseline="middle" fill="#374151" font-size="10">500k</text>
  <line x1="90.0" y1="551.8" x2="760.0" y2="551.8" stroke="#e5e7eb" stroke-width="1"/>
  <text x="82.0" y="551.8" text-anchor="end" dominant-baseline="middle" fill="#374151" font-size="10">1M</text>
  <line x1="90.0" y1="528.2" x2="760.0" y2="528.2" stroke="#e5e7eb" stroke-width="1"/>
  <text x="82.0" y="528.2" text-anchor="end" dominant-baseline="middle" fill="#374151" font-size="10">1.5M</text>
  <line x1="90.0" y1="504.6" x2="760.0" y2="504.6" stroke="#e5e7eb" stroke-width="1"/>
  <text x="82.0" y="504.6" text-anchor="end" dominant-baseline="middle" fill="#374151" font-size="10">2M</text>
  <line x1="90.0" y1="481.0" x2="760.0" y2="481.0" stroke="#e5e7eb" stroke-width="1"/>
  <text x="82.0" y="481.0" text-anchor="end" dominant-baseline="middle" fill="#374151" font-size="10">2.5M</text>
  <line x1="90.0" y1="457.4" x2="760.0" y2="457.4" stroke="#e5e7eb" stroke-width="1"/>
  <text x="82.0" y="457.4" text-anchor="end" dominant-baseline="middle" fill="#374151" font-size="10">3M</text>
  <line x1="90.0" y1="433.8" x2="760.0" y2="433.8" stroke="#e5e7eb" stroke-width="1"/>
  <text x="82.0" y="433.8" text-anchor="end" dominant-baseline="middle" fill="#374151" font-size="10">3.5M</text>
  <line x1="90.0" y1="410.2" x2="760.0" y2="410.2" stroke="#e5e7eb" stroke-width="1"/>
  <text x="82.0" y="410.2" text-anchor="end" dominant-baseline="middle" fill="#374151" font-size="10">4M</text>
  <line x1="90.0" y1="386.6" x2="760.0" y2="386.6" stroke="#e5e7eb" stroke-width="1"/>
  <text x="82.0" y="386.6" text-anchor="end" dominant-baseline="middle" fill="#374151" font-size="10">4.5M</text>
  <line x1="90.0" y1="363.0" x2="760.0" y2="363.0" stroke="#e5e7eb" stroke-width="1"/>
  <text x="82.0" y="363.0" text-anchor="end" dominant-baseline="middle" fill="#374151" font-size="10">5M</text>
  <line x1="90.0" y1="541.8" x2="760.0" y2="541.8" stroke="#e5e7eb" stroke-width="1" stroke-dasharray="3,6"/>
  <text x="768.0" y="541.8" text-anchor="start" dominant-baseline="middle" fill="#6b7280" font-size="10">2 GB/s</text>
  <line x1="90.0" y1="484.7" x2="760.0" y2="484.7" stroke="#e5e7eb" stroke-width="1" stroke-dasharray="3,6"/>
  <text x="768.0" y="484.7" text-anchor="start" dominant-baseline="middle" fill="#6b7280" font-size="10">4 GB/s</text>
  <line x1="90.0" y1="427.5" x2="760.0" y2="427.5" stroke="#e5e7eb" stroke-width="1" stroke-dasharray="3,6"/>
  <text x="768.0" y="427.5" text-anchor="start" dominant-baseline="middle" fill="#6b7280" font-size="10">6 GB/s</text>
  <line x1="90.0" y1="370.4" x2="760.0" y2="370.4" stroke="#e5e7eb" stroke-width="1" stroke-dasharray="3,6"/>
  <text x="768.0" y="370.4" text-anchor="start" dominant-baseline="middle" fill="#6b7280" font-size="10">8 GB/s</text>
  <line x1="90.0" y1="359.0" x2="90.0" y2="599.0" stroke="#e5e7eb" stroke-width="1"/>
  <line x1="145.8" y1="359.0" x2="145.8" y2="599.0" stroke="#e5e7eb" stroke-width="1"/>
  <line x1="201.7" y1="359.0" x2="201.7" y2="599.0" stroke="#e5e7eb" stroke-width="1"/>
  <line x1="257.5" y1="359.0" x2="257.5" y2="599.0" stroke="#e5e7eb" stroke-width="1"/>
  <line x1="313.3" y1="359.0" x2="313.3" y2="599.0" stroke="#e5e7eb" stroke-width="1"/>
  <line x1="369.2" y1="359.0" x2="369.2" y2="599.0" stroke="#e5e7eb" stroke-width="1"/>
  <line x1="425.0" y1="359.0" x2="425.0" y2="599.0" stroke="#e5e7eb" stroke-width="1"/>
  <line x1="480.8" y1="359.0" x2="480.8" y2="599.0" stroke="#e5e7eb" stroke-width="1"/>
  <line x1="536.7" y1="359.0" x2="536.7" y2="599.0" stroke="#e5e7eb" stroke-width="1"/>
  <line x1="592.5" y1="359.0" x2="592.5" y2="599.0" stroke="#e5e7eb" stroke-width="1"/>
  <line x1="648.3" y1="359.0" x2="648.3" y2="599.0" stroke="#e5e7eb" stroke-width="1"/>
  <line x1="704.2" y1="359.0" x2="704.2" y2="599.0" stroke="#e5e7eb" stroke-width="1"/>
  <line x1="760.0" y1="359.0" x2="760.0" y2="599.0" stroke="#e5e7eb" stroke-width="1"/>
  <line x1="90.0" y1="359.0" x2="90.0" y2="599.0" stroke="#9ca3af" stroke-width="1.5"/>
  <line x1="760.0" y1="359.0" x2="760.0" y2="599.0" stroke="#9ca3af" stroke-width="1.5"/>
  <line x1="90.0" y1="599.0" x2="760.0" y2="599.0" stroke="#9ca3af" stroke-width="1.5"/>
  <text x="40.0" y="479.0" text-anchor="middle" fill="#374151" font-size="10" font-weight="600" transform="rotate(-90,40.0,479.0)">msg/s</text>
  <polyline points="90.0,467.2 145.8,477.3 201.7,487.5 257.5,541.6 313.3,571.3 369.2,576.0 425.0,583.0 480.8,589.6 536.7,593.6 592.5,596.2 648.3,597.6 704.2,598.2 760.0,598.3" fill="none" stroke="#eab308" stroke-width="2" stroke-dasharray="6,4"/>
  <polyline points="90.0,580.1 145.8,429.1 201.7,390.3 257.5,526.0 313.3,575.8 369.2,579.0 425.0,579.4 480.8,584.6 536.7,587.0 592.5,588.2 648.3,594.4 704.2,595.2 760.0,597.3" fill="none" stroke="#06b6d4" stroke-width="2" stroke-dasharray="6,4"/>
  <polyline points="90.0,530.4 145.8,528.9 201.7,529.2 257.5,542.3 313.3,540.9 369.2,534.7 425.0,541.3 480.8,549.5 536.7,571.5 592.5,583.3 648.3,589.4 704.2,593.7 760.0,596.5" fill="none" stroke="#f97316" stroke-width="2" stroke-dasharray="6,4"/>
  <polyline points="90.0,556.3 145.8,557.7 201.7,560.8 257.5,566.4 313.3,568.3 369.2,572.2 425.0,575.0 480.8,579.9 536.7,585.5 592.5,590.7 648.3,594.3 704.2,596.1 760.0,597.5" fill="none" stroke="#dc2626" stroke-width="2" stroke-dasharray="6,4"/>
  <polyline points="90.0,596.4 145.8,594.3 201.7,590.4 257.5,590.1 313.3,590.4 369.2,584.7 425.0,579.2 480.8,575.6 536.7,572.3 592.5,571.0 648.3,571.0 704.2,567.7 760.0,546.8" fill="none" stroke="#eab308" stroke-width="2.5" stroke-linecap="round" stroke-linejoin="round"/>
  <circle cx="90.0" cy="596.4" r="3" fill="#eab308" stroke="white" stroke-width="1"/>
  <circle cx="145.8" cy="594.3" r="3" fill="#eab308" stroke="white" stroke-width="1"/>
  <circle cx="201.7" cy="590.4" r="3" fill="#eab308" stroke="white" stroke-width="1"/>
  <circle cx="257.5" cy="590.1" r="3" fill="#eab308" stroke="white" stroke-width="1"/>
  <circle cx="313.3" cy="590.4" r="3" fill="#eab308" stroke="white" stroke-width="1"/>
  <circle cx="369.2" cy="584.7" r="3" fill="#eab308" stroke="white" stroke-width="1"/>
  <circle cx="425.0" cy="579.2" r="3" fill="#eab308" stroke="white" stroke-width="1"/>
  <circle cx="480.8" cy="575.6" r="3" fill="#eab308" stroke="white" stroke-width="1"/>
  <circle cx="536.7" cy="572.3" r="3" fill="#eab308" stroke="white" stroke-width="1"/>
  <circle cx="592.5" cy="571.0" r="3" fill="#eab308" stroke="white" stroke-width="1"/>
  <circle cx="648.3" cy="571.0" r="3" fill="#eab308" stroke="white" stroke-width="1"/>
  <circle cx="704.2" cy="567.7" r="3" fill="#eab308" stroke="white" stroke-width="1"/>
  <circle cx="760.0" cy="546.8" r="3" fill="#eab308" stroke="white" stroke-width="1"/>
  <polyline points="90.0,598.6 145.8,592.4 201.7,582.8 257.5,587.7 313.3,591.8 369.2,586.6 425.0,574.7 480.8,563.2 536.7,539.3 592.5,492.3 648.3,508.6 704.2,446.9 760.0,461.8" fill="none" stroke="#06b6d4" stroke-width="2.5" stroke-linecap="round" stroke-linejoin="round"/>
  <circle cx="90.0" cy="598.6" r="3" fill="#06b6d4" stroke="white" stroke-width="1"/>
  <circle cx="145.8" cy="592.4" r="3" fill="#06b6d4" stroke="white" stroke-width="1"/>
  <circle cx="201.7" cy="582.8" r="3" fill="#06b6d4" stroke="white" stroke-width="1"/>
  <circle cx="257.5" cy="587.7" r="3" fill="#06b6d4" stroke="white" stroke-width="1"/>
  <circle cx="313.3" cy="591.8" r="3" fill="#06b6d4" stroke="white" stroke-width="1"/>
  <circle cx="369.2" cy="586.6" r="3" fill="#06b6d4" stroke="white" stroke-width="1"/>
  <circle cx="425.0" cy="574.7" r="3" fill="#06b6d4" stroke="white" stroke-width="1"/>
  <circle cx="480.8" cy="563.2" r="3" fill="#06b6d4" stroke="white" stroke-width="1"/>
  <circle cx="536.7" cy="539.3" r="3" fill="#06b6d4" stroke="white" stroke-width="1"/>
  <circle cx="592.5" cy="492.3" r="3" fill="#06b6d4" stroke="white" stroke-width="1"/>
  <circle cx="648.3" cy="508.6" r="3" fill="#06b6d4" stroke="white" stroke-width="1"/>
  <circle cx="704.2" cy="446.9" r="3" fill="#06b6d4" stroke="white" stroke-width="1"/>
  <circle cx="760.0" cy="461.8" r="3" fill="#06b6d4" stroke="white" stroke-width="1"/>
  <polyline points="90.0,597.7 145.8,596.3 201.7,593.6 257.5,590.2 313.3,581.0 369.2,559.1 425.0,527.5 480.8,476.2 536.7,462.4 592.5,443.3 648.3,407.6 704.2,390.3 760.0,398.2" fill="none" stroke="#f97316" stroke-width="2.5" stroke-linecap="round" stroke-linejoin="round"/>
  <circle cx="90.0" cy="597.7" r="3" fill="#f97316" stroke="white" stroke-width="1"/>
  <circle cx="145.8" cy="596.3" r="3" fill="#f97316" stroke="white" stroke-width="1"/>
  <circle cx="201.7" cy="593.6" r="3" fill="#f97316" stroke="white" stroke-width="1"/>
  <circle cx="257.5" cy="590.2" r="3" fill="#f97316" stroke="white" stroke-width="1"/>
  <circle cx="313.3" cy="581.0" r="3" fill="#f97316" stroke="white" stroke-width="1"/>
  <circle cx="369.2" cy="559.1" r="3" fill="#f97316" stroke="white" stroke-width="1"/>
  <circle cx="425.0" cy="527.5" r="3" fill="#f97316" stroke="white" stroke-width="1"/>
  <circle cx="480.8" cy="476.2" r="3" fill="#f97316" stroke="white" stroke-width="1"/>
  <circle cx="536.7" cy="462.4" r="3" fill="#f97316" stroke="white" stroke-width="1"/>
  <circle cx="592.5" cy="443.3" r="3" fill="#f97316" stroke="white" stroke-width="1"/>
  <circle cx="648.3" cy="407.6" r="3" fill="#f97316" stroke="white" stroke-width="1"/>
  <circle cx="704.2" cy="390.3" r="3" fill="#f97316" stroke="white" stroke-width="1"/>
  <circle cx="760.0" cy="398.2" r="3" fill="#f97316" stroke="white" stroke-width="1"/>
  <polyline points="90.0,598.2 145.8,597.4 201.7,596.0 257.5,593.9 313.3,589.5 369.2,582.4 425.0,569.3 480.8,551.7 536.7,531.8 592.5,516.9 648.3,506.4 704.2,484.5 760.0,482.5" fill="none" stroke="#dc2626" stroke-width="2.5" stroke-linecap="round" stroke-linejoin="round"/>
  <circle cx="90.0" cy="598.2" r="3" fill="#dc2626" stroke="white" stroke-width="1"/>
  <circle cx="145.8" cy="597.4" r="3" fill="#dc2626" stroke="white" stroke-width="1"/>
  <circle cx="201.7" cy="596.0" r="3" fill="#dc2626" stroke="white" stroke-width="1"/>
  <circle cx="257.5" cy="593.9" r="3" fill="#dc2626" stroke="white" stroke-width="1"/>
  <circle cx="313.3" cy="589.5" r="3" fill="#dc2626" stroke="white" stroke-width="1"/>
  <circle cx="369.2" cy="582.4" r="3" fill="#dc2626" stroke="white" stroke-width="1"/>
  <circle cx="425.0" cy="569.3" r="3" fill="#dc2626" stroke="white" stroke-width="1"/>
  <circle cx="480.8" cy="551.7" r="3" fill="#dc2626" stroke="white" stroke-width="1"/>
  <circle cx="536.7" cy="531.8" r="3" fill="#dc2626" stroke="white" stroke-width="1"/>
  <circle cx="592.5" cy="516.9" r="3" fill="#dc2626" stroke="white" stroke-width="1"/>
  <circle cx="648.3" cy="506.4" r="3" fill="#dc2626" stroke="white" stroke-width="1"/>
  <circle cx="704.2" cy="484.5" r="3" fill="#dc2626" stroke="white" stroke-width="1"/>
  <circle cx="760.0" cy="482.5" r="3" fill="#dc2626" stroke="white" stroke-width="1"/>
  <text x="90.0" y="613.0" text-anchor="middle" fill="#374151" font-size="8.5">8 B</text>
  <text x="145.8" y="613.0" text-anchor="middle" fill="#374151" font-size="8.5">16 B</text>
  <text x="201.7" y="613.0" text-anchor="middle" fill="#374151" font-size="8.5">32 B</text>
  <text x="257.5" y="613.0" text-anchor="middle" fill="#374151" font-size="8.5">64 B</text>
  <text x="313.3" y="613.0" text-anchor="middle" fill="#374151" font-size="8.5">128 B</text>
  <text x="369.2" y="613.0" text-anchor="middle" fill="#374151" font-size="8.5">256 B</text>
  <text x="425.0" y="613.0" text-anchor="middle" fill="#374151" font-size="8.5">512 B</text>
  <text x="480.8" y="613.0" text-anchor="middle" fill="#374151" font-size="8.5">1 KiB</text>
  <text x="536.7" y="613.0" text-anchor="middle" fill="#374151" font-size="8.5">2 KiB</text>
  <text x="592.5" y="613.0" text-anchor="middle" fill="#374151" font-size="8.5">4 KiB</text>
  <text x="648.3" y="613.0" text-anchor="middle" fill="#374151" font-size="8.5">8 KiB</text>
  <text x="704.2" y="613.0" text-anchor="middle" fill="#374151" font-size="8.5">16 KiB</text>
  <text x="760.0" y="613.0" text-anchor="middle" fill="#374151" font-size="8.5">32 KiB</text>
  <text x="425.0" y="652.0" text-anchor="middle" fill="#111827" font-size="13" font-weight="700">PUSH fan-out (1 PUSH → 8 PULL): TCP loopback</text>
  <line x1="90.0" y1="866.6" x2="760.0" y2="866.6" stroke="#e5e7eb" stroke-width="1"/>
  <text x="82.0" y="866.6" text-anchor="end" dominant-baseline="middle" fill="#374151" font-size="10">500k</text>
  <line x1="90.0" y1="824.3" x2="760.0" y2="824.3" stroke="#e5e7eb" stroke-width="1"/>
  <text x="82.0" y="824.3" text-anchor="end" dominant-baseline="middle" fill="#374151" font-size="10">1M</text>
  <line x1="90.0" y1="781.9" x2="760.0" y2="781.9" stroke="#e5e7eb" stroke-width="1"/>
  <text x="82.0" y="781.9" text-anchor="end" dominant-baseline="middle" fill="#374151" font-size="10">1.5M</text>
  <line x1="90.0" y1="739.6" x2="760.0" y2="739.6" stroke="#e5e7eb" stroke-width="1"/>
  <text x="82.0" y="739.6" text-anchor="end" dominant-baseline="middle" fill="#374151" font-size="10">2M</text>
  <line x1="90.0" y1="697.2" x2="760.0" y2="697.2" stroke="#e5e7eb" stroke-width="1"/>
  <text x="82.0" y="697.2" text-anchor="end" dominant-baseline="middle" fill="#374151" font-size="10">2.5M</text>
  <line x1="90.0" y1="854.9" x2="760.0" y2="854.9" stroke="#e5e7eb" stroke-width="1" stroke-dasharray="3,6"/>
  <text x="768.0" y="854.9" text-anchor="start" dominant-baseline="middle" fill="#6b7280" font-size="10">2 GB/s</text>
  <line x1="90.0" y1="800.8" x2="760.0" y2="800.8" stroke="#e5e7eb" stroke-width="1" stroke-dasharray="3,6"/>
  <text x="768.0" y="800.8" text-anchor="start" dominant-baseline="middle" fill="#6b7280" font-size="10">4 GB/s</text>
  <line x1="90.0" y1="746.7" x2="760.0" y2="746.7" stroke="#e5e7eb" stroke-width="1" stroke-dasharray="3,6"/>
  <text x="768.0" y="746.7" text-anchor="start" dominant-baseline="middle" fill="#6b7280" font-size="10">6 GB/s</text>
  <line x1="90.0" y1="692.6" x2="760.0" y2="692.6" stroke="#e5e7eb" stroke-width="1" stroke-dasharray="3,6"/>
  <text x="768.0" y="692.6" text-anchor="start" dominant-baseline="middle" fill="#6b7280" font-size="10">8 GB/s</text>
  <line x1="90.0" y1="669.0" x2="90.0" y2="909.0" stroke="#e5e7eb" stroke-width="1"/>
  <line x1="145.8" y1="669.0" x2="145.8" y2="909.0" stroke="#e5e7eb" stroke-width="1"/>
  <line x1="201.7" y1="669.0" x2="201.7" y2="909.0" stroke="#e5e7eb" stroke-width="1"/>
  <line x1="257.5" y1="669.0" x2="257.5" y2="909.0" stroke="#e5e7eb" stroke-width="1"/>
  <line x1="313.3" y1="669.0" x2="313.3" y2="909.0" stroke="#e5e7eb" stroke-width="1"/>
  <line x1="369.2" y1="669.0" x2="369.2" y2="909.0" stroke="#e5e7eb" stroke-width="1"/>
  <line x1="425.0" y1="669.0" x2="425.0" y2="909.0" stroke="#e5e7eb" stroke-width="1"/>
  <line x1="480.8" y1="669.0" x2="480.8" y2="909.0" stroke="#e5e7eb" stroke-width="1"/>
  <line x1="536.7" y1="669.0" x2="536.7" y2="909.0" stroke="#e5e7eb" stroke-width="1"/>
  <line x1="592.5" y1="669.0" x2="592.5" y2="909.0" stroke="#e5e7eb" stroke-width="1"/>
  <line x1="648.3" y1="669.0" x2="648.3" y2="909.0" stroke="#e5e7eb" stroke-width="1"/>
  <line x1="704.2" y1="669.0" x2="704.2" y2="909.0" stroke="#e5e7eb" stroke-width="1"/>
  <line x1="760.0" y1="669.0" x2="760.0" y2="909.0" stroke="#e5e7eb" stroke-width="1"/>
  <line x1="90.0" y1="669.0" x2="90.0" y2="909.0" stroke="#9ca3af" stroke-width="1.5"/>
  <line x1="760.0" y1="669.0" x2="760.0" y2="909.0" stroke="#9ca3af" stroke-width="1.5"/>
  <line x1="90.0" y1="909.0" x2="760.0" y2="909.0" stroke="#9ca3af" stroke-width="1.5"/>
  <text x="40.0" y="789.0" text-anchor="middle" fill="#374151" font-size="10" font-weight="600" transform="rotate(-90,40.0,789.0)">msg/s</text>
  <polyline points="90.0,790.9 145.8,793.7 201.7,807.1 257.5,853.4 313.3,882.3 369.2,886.7 425.0,893.5 480.8,899.9 536.7,904.0 592.5,906.4 648.3,907.7 704.2,908.2 760.0,908.4" fill="none" stroke="#eab308" stroke-width="2" stroke-dasharray="6,4"/>
  <polyline points="90.0,700.3 145.8,742.6 201.7,792.5 257.5,843.1 313.3,887.2 369.2,885.6 425.0,890.6 480.8,895.3 536.7,896.2 592.5,900.2 648.3,905.4 704.2,906.5 760.0,907.9" fill="none" stroke="#06b6d4" stroke-width="2" stroke-dasharray="6,4"/>
  <polyline points="90.0,851.4 145.8,849.4 201.7,848.1 257.5,853.7 313.3,857.9 369.2,860.4 425.0,858.8 480.8,864.0 536.7,882.3 592.5,894.0 648.3,901.3 704.2,904.0 760.0,906.7" fill="none" stroke="#f97316" stroke-width="2" stroke-dasharray="6,4"/>
  <polyline points="90.0,856.1 145.8,857.4 201.7,861.1 257.5,871.2 313.3,875.7 369.2,880.5 425.0,884.8 480.8,890.3 536.7,895.8 592.5,901.1 648.3,904.5 704.2,906.5 760.0,907.8" fill="none" stroke="#dc2626" stroke-width="2" stroke-dasharray="6,4"/>
  <polyline points="90.0,906.6 145.8,904.3 201.7,900.7 257.5,899.9 313.3,900.3 369.2,894.4 425.0,888.7 480.8,885.1 536.7,882.7 592.5,882.0 648.3,881.7 704.2,877.6 760.0,857.5" fill="none" stroke="#eab308" stroke-width="2.5" stroke-linecap="round" stroke-linejoin="round"/>
  <circle cx="90.0" cy="906.6" r="3" fill="#eab308" stroke="white" stroke-width="1"/>
  <circle cx="145.8" cy="904.3" r="3" fill="#eab308" stroke="white" stroke-width="1"/>
  <circle cx="201.7" cy="900.7" r="3" fill="#eab308" stroke="white" stroke-width="1"/>
  <circle cx="257.5" cy="899.9" r="3" fill="#eab308" stroke="white" stroke-width="1"/>
  <circle cx="313.3" cy="900.3" r="3" fill="#eab308" stroke="white" stroke-width="1"/>
  <circle cx="369.2" cy="894.4" r="3" fill="#eab308" stroke="white" stroke-width="1"/>
  <circle cx="425.0" cy="888.7" r="3" fill="#eab308" stroke="white" stroke-width="1"/>
  <circle cx="480.8" cy="885.1" r="3" fill="#eab308" stroke="white" stroke-width="1"/>
  <circle cx="536.7" cy="882.7" r="3" fill="#eab308" stroke="white" stroke-width="1"/>
  <circle cx="592.5" cy="882.0" r="3" fill="#eab308" stroke="white" stroke-width="1"/>
  <circle cx="648.3" cy="881.7" r="3" fill="#eab308" stroke="white" stroke-width="1"/>
  <circle cx="704.2" cy="877.6" r="3" fill="#eab308" stroke="white" stroke-width="1"/>
  <circle cx="760.0" cy="857.5" r="3" fill="#eab308" stroke="white" stroke-width="1"/>
  <polyline points="90.0,904.7 145.8,902.2 201.7,899.5 257.5,898.2 313.3,901.9 369.2,893.7 425.0,884.9 480.8,873.3 536.7,841.9 592.5,816.9 648.3,833.6 704.2,806.3 760.0,817.6" fill="none" stroke="#06b6d4" stroke-width="2.5" stroke-linecap="round" stroke-linejoin="round"/>
  <circle cx="90.0" cy="904.7" r="3" fill="#06b6d4" stroke="white" stroke-width="1"/>
  <circle cx="145.8" cy="902.2" r="3" fill="#06b6d4" stroke="white" stroke-width="1"/>
  <circle cx="201.7" cy="899.5" r="3" fill="#06b6d4" stroke="white" stroke-width="1"/>
  <circle cx="257.5" cy="898.2" r="3" fill="#06b6d4" stroke="white" stroke-width="1"/>
  <circle cx="313.3" cy="901.9" r="3" fill="#06b6d4" stroke="white" stroke-width="1"/>
  <circle cx="369.2" cy="893.7" r="3" fill="#06b6d4" stroke="white" stroke-width="1"/>
  <circle cx="425.0" cy="884.9" r="3" fill="#06b6d4" stroke="white" stroke-width="1"/>
  <circle cx="480.8" cy="873.3" r="3" fill="#06b6d4" stroke="white" stroke-width="1"/>
  <circle cx="536.7" cy="841.9" r="3" fill="#06b6d4" stroke="white" stroke-width="1"/>
  <circle cx="592.5" cy="816.9" r="3" fill="#06b6d4" stroke="white" stroke-width="1"/>
  <circle cx="648.3" cy="833.6" r="3" fill="#06b6d4" stroke="white" stroke-width="1"/>
  <circle cx="704.2" cy="806.3" r="3" fill="#06b6d4" stroke="white" stroke-width="1"/>
  <circle cx="760.0" cy="817.6" r="3" fill="#06b6d4" stroke="white" stroke-width="1"/>
  <polyline points="90.0,907.8 145.8,906.6 201.7,904.0 257.5,900.0 313.3,892.3 369.2,877.2 425.0,843.4 480.8,791.3 536.7,769.3 592.5,752.2 648.3,747.8 704.2,700.3 760.0,713.9" fill="none" stroke="#f97316" stroke-width="2.5" stroke-linecap="round" stroke-linejoin="round"/>
  <circle cx="90.0" cy="907.8" r="3" fill="#f97316" stroke="white" stroke-width="1"/>
  <circle cx="145.8" cy="906.6" r="3" fill="#f97316" stroke="white" stroke-width="1"/>
  <circle cx="201.7" cy="904.0" r="3" fill="#f97316" stroke="white" stroke-width="1"/>
  <circle cx="257.5" cy="900.0" r="3" fill="#f97316" stroke="white" stroke-width="1"/>
  <circle cx="313.3" cy="892.3" r="3" fill="#f97316" stroke="white" stroke-width="1"/>
  <circle cx="369.2" cy="877.2" r="3" fill="#f97316" stroke="white" stroke-width="1"/>
  <circle cx="425.0" cy="843.4" r="3" fill="#f97316" stroke="white" stroke-width="1"/>
  <circle cx="480.8" cy="791.3" r="3" fill="#f97316" stroke="white" stroke-width="1"/>
  <circle cx="536.7" cy="769.3" r="3" fill="#f97316" stroke="white" stroke-width="1"/>
  <circle cx="592.5" cy="752.2" r="3" fill="#f97316" stroke="white" stroke-width="1"/>
  <circle cx="648.3" cy="747.8" r="3" fill="#f97316" stroke="white" stroke-width="1"/>
  <circle cx="704.2" cy="700.3" r="3" fill="#f97316" stroke="white" stroke-width="1"/>
  <circle cx="760.0" cy="713.9" r="3" fill="#f97316" stroke="white" stroke-width="1"/>
  <polyline points="90.0,907.9 145.8,906.9 201.7,905.1 257.5,902.8 313.3,898.1 369.2,890.4 425.0,877.4 480.8,860.1 536.7,839.8 592.5,826.1 648.3,814.1 704.2,802.4 760.0,806.7" fill="none" stroke="#dc2626" stroke-width="2.5" stroke-linecap="round" stroke-linejoin="round"/>
  <circle cx="90.0" cy="907.9" r="3" fill="#dc2626" stroke="white" stroke-width="1"/>
  <circle cx="145.8" cy="906.9" r="3" fill="#dc2626" stroke="white" stroke-width="1"/>
  <circle cx="201.7" cy="905.1" r="3" fill="#dc2626" stroke="white" stroke-width="1"/>
  <circle cx="257.5" cy="902.8" r="3" fill="#dc2626" stroke="white" stroke-width="1"/>
  <circle cx="313.3" cy="898.1" r="3" fill="#dc2626" stroke="white" stroke-width="1"/>
  <circle cx="369.2" cy="890.4" r="3" fill="#dc2626" stroke="white" stroke-width="1"/>
  <circle cx="425.0" cy="877.4" r="3" fill="#dc2626" stroke="white" stroke-width="1"/>
  <circle cx="480.8" cy="860.1" r="3" fill="#dc2626" stroke="white" stroke-width="1"/>
  <circle cx="536.7" cy="839.8" r="3" fill="#dc2626" stroke="white" stroke-width="1"/>
  <circle cx="592.5" cy="826.1" r="3" fill="#dc2626" stroke="white" stroke-width="1"/>
  <circle cx="648.3" cy="814.1" r="3" fill="#dc2626" stroke="white" stroke-width="1"/>
  <circle cx="704.2" cy="802.4" r="3" fill="#dc2626" stroke="white" stroke-width="1"/>
  <circle cx="760.0" cy="806.7" r="3" fill="#dc2626" stroke="white" stroke-width="1"/>
  <text x="90.0" y="923.0" text-anchor="middle" fill="#374151" font-size="8.5">8 B</text>
  <text x="145.8" y="923.0" text-anchor="middle" fill="#374151" font-size="8.5">16 B</text>
  <text x="201.7" y="923.0" text-anchor="middle" fill="#374151" font-size="8.5">32 B</text>
  <text x="257.5" y="923.0" text-anchor="middle" fill="#374151" font-size="8.5">64 B</text>
  <text x="313.3" y="923.0" text-anchor="middle" fill="#374151" font-size="8.5">128 B</text>
  <text x="369.2" y="923.0" text-anchor="middle" fill="#374151" font-size="8.5">256 B</text>
  <text x="425.0" y="923.0" text-anchor="middle" fill="#374151" font-size="8.5">512 B</text>
  <text x="480.8" y="923.0" text-anchor="middle" fill="#374151" font-size="8.5">1 KiB</text>
  <text x="536.7" y="923.0" text-anchor="middle" fill="#374151" font-size="8.5">2 KiB</text>
  <text x="592.5" y="923.0" text-anchor="middle" fill="#374151" font-size="8.5">4 KiB</text>
  <text x="648.3" y="923.0" text-anchor="middle" fill="#374151" font-size="8.5">8 KiB</text>
  <text x="704.2" y="923.0" text-anchor="middle" fill="#374151" font-size="8.5">16 KiB</text>
  <text x="760.0" y="923.0" text-anchor="middle" fill="#374151" font-size="8.5">32 KiB</text>
  <line x1="50" y1="949" x2="64" y2="949" stroke="#eab308" stroke-width="2.5"/>
  <circle cx="57" cy="949" r="2.5" fill="#eab308"/>
  <text x="70" y="953" fill="#374151" font-size="11" font-weight="500">libzmq v4.3.5</text>
  <line x1="175" y1="949" x2="189" y2="949" stroke="#dc2626" stroke-width="2.5"/>
  <circle cx="182" cy="949" r="2.5" fill="#dc2626"/>
  <text x="195" y="953" fill="#374151" font-size="11" font-weight="500">omq-compio (MT)</text>
  <line x1="300" y1="949" x2="314" y2="949" stroke="#f97316" stroke-width="2.5"/>
  <circle cx="307" cy="949" r="2.5" fill="#f97316"/>
  <text x="320" y="953" fill="#374151" font-size="11" font-weight="500">omq-tokio</text>
  <line x1="425" y1="949" x2="439" y2="949" stroke="#2563eb" stroke-width="2.5"/>
  <circle cx="432" cy="949" r="2.5" fill="#2563eb"/>
  <text x="445" y="953" fill="#374151" font-size="11" font-weight="500">zmq.rs v0.6.0</text>
  <line x1="550" y1="949" x2="564" y2="949" stroke="#10b981" stroke-width="2.5"/>
  <circle cx="557" cy="949" r="2.5" fill="#10b981"/>
  <text x="570" y="953" fill="#374151" font-size="11" font-weight="500">rzmq v0.5.15</text>
  <line x1="675" y1="949" x2="689" y2="949" stroke="#06b6d4" stroke-width="2.5"/>
  <circle cx="682" cy="949" r="2.5" fill="#06b6d4"/>
  <text x="695" y="953" fill="#374151" font-size="11" font-weight="500">omq-libzmq</text>
  <line x1="265" y1="971" x2="285" y2="971" stroke="#6b7280" stroke-width="2" stroke-dasharray="6,4"/>
  <text x="291" y="975" fill="#6b7280" font-size="10">msg/s (left axis)</text>
  <line x1="435" y1="971" x2="455" y2="971" stroke="#6b7280" stroke-width="2"/>
  <circle cx="445" cy="971" r="2" fill="#6b7280"/>
  <text x="461" y="975" fill="#6b7280" font-size="10">throughput / GB/s (right axis)</text>
</svg>
