<svg xmlns="http://www.w3.org/2000/svg" viewBox="0 0 875 1059" font-family="system-ui, -apple-system, sans-serif">
  <rect width="875" height="1059" fill="white"/>
  <text x="395.0" y="46" text-anchor="middle" fill="#9ca3af" font-size="10">Linux VM on a 2018 Mac Mini, Intel Core i7-8700B @ 3.20GHz, 6 cores, performance governor, turbo off</text>
  <text x="395.0" y="32.0" text-anchor="middle" fill="#111827" font-size="13" font-weight="700">PUSH fan-out (1 PUSH → 2 PULL): TCP loopback</text>
  <line x1="90.0" y1="257.0" x2="700.0" y2="257.0" stroke="#e5e7eb" stroke-width="1"/>
  <text x="82.0" y="257.0" text-anchor="end" dominant-baseline="middle" fill="#374151" font-size="10">100%</text>
  <line x1="90.0" y1="205.0" x2="700.0" y2="205.0" stroke="#e5e7eb" stroke-width="1"/>
  <text x="82.0" y="205.0" text-anchor="end" dominant-baseline="middle" fill="#374151" font-size="10">200%</text>
  <line x1="90.0" y1="153.0" x2="700.0" y2="153.0" stroke="#e5e7eb" stroke-width="1"/>
  <text x="82.0" y="153.0" text-anchor="end" dominant-baseline="middle" fill="#374151" font-size="10">300%</text>
  <line x1="90.0" y1="101.0" x2="700.0" y2="101.0" stroke="#e5e7eb" stroke-width="1"/>
  <text x="82.0" y="101.0" text-anchor="end" dominant-baseline="middle" fill="#374151" font-size="10">400%</text>
  <line x1="90.0" y1="49.0" x2="700.0" y2="49.0" stroke="#e5e7eb" stroke-width="1"/>
  <text x="82.0" y="49.0" text-anchor="end" dominant-baseline="middle" fill="#374151" font-size="10">500%</text>
  <line x1="90.0" y1="258.4" x2="700.0" y2="258.4" stroke="#e5e7eb" stroke-width="1" stroke-dasharray="3,6"/>
  <text x="708.0" y="258.4" text-anchor="start" dominant-baseline="middle" fill="#6b7280" font-size="10">1 GB/s</text>
  <line x1="90.0" y1="207.8" x2="700.0" y2="207.8" stroke="#e5e7eb" stroke-width="1" stroke-dasharray="3,6"/>
  <text x="708.0" y="207.8" text-anchor="start" dominant-baseline="middle" fill="#6b7280" font-size="10">2 GB/s</text>
  <line x1="90.0" y1="157.2" x2="700.0" y2="157.2" stroke="#e5e7eb" stroke-width="1" stroke-dasharray="3,6"/>
  <text x="708.0" y="157.2" text-anchor="start" dominant-baseline="middle" fill="#6b7280" font-size="10">3 GB/s</text>
  <line x1="90.0" y1="106.6" x2="700.0" y2="106.6" stroke="#e5e7eb" stroke-width="1" stroke-dasharray="3,6"/>
  <text x="708.0" y="106.6" text-anchor="start" dominant-baseline="middle" fill="#6b7280" font-size="10">4 GB/s</text>
  <line x1="90.0" y1="56.0" x2="700.0" y2="56.0" stroke="#e5e7eb" stroke-width="1" stroke-dasharray="3,6"/>
  <text x="708.0" y="56.0" text-anchor="start" dominant-baseline="middle" fill="#6b7280" font-size="10">5 GB/s</text>
  <text x="788.0" y="267.1" text-anchor="start" dominant-baseline="middle" fill="#9ca3af" font-size="10">1M/s</text>
  <text x="788.0" y="225.2" text-anchor="start" dominant-baseline="middle" fill="#9ca3af" font-size="10">2M/s</text>
  <text x="788.0" y="183.3" text-anchor="start" dominant-baseline="middle" fill="#9ca3af" font-size="10">3M/s</text>
  <text x="788.0" y="141.4" text-anchor="start" dominant-baseline="middle" fill="#9ca3af" font-size="10">4M/s</text>
  <text x="788.0" y="99.4" text-anchor="start" dominant-baseline="middle" fill="#9ca3af" font-size="10">5M/s</text>
  <text x="788.0" y="57.5" text-anchor="start" dominant-baseline="middle" fill="#9ca3af" font-size="10">6M/s</text>
  <line x1="90.0" y1="49.0" x2="90.0" y2="309.0" stroke="#e5e7eb" stroke-width="1"/>
  <line x1="140.8" y1="49.0" x2="140.8" y2="309.0" stroke="#e5e7eb" stroke-width="1"/>
  <line x1="191.7" y1="49.0" x2="191.7" y2="309.0" stroke="#e5e7eb" stroke-width="1"/>
  <line x1="242.5" y1="49.0" x2="242.5" y2="309.0" stroke="#e5e7eb" stroke-width="1"/>
  <line x1="293.3" y1="49.0" x2="293.3" y2="309.0" stroke="#e5e7eb" stroke-width="1"/>
  <line x1="344.2" y1="49.0" x2="344.2" y2="309.0" stroke="#e5e7eb" stroke-width="1"/>
  <line x1="395.0" y1="49.0" x2="395.0" y2="309.0" stroke="#e5e7eb" stroke-width="1"/>
  <line x1="445.8" y1="49.0" x2="445.8" y2="309.0" stroke="#e5e7eb" stroke-width="1"/>
  <line x1="496.7" y1="49.0" x2="496.7" y2="309.0" stroke="#e5e7eb" stroke-width="1"/>
  <line x1="547.5" y1="49.0" x2="547.5" y2="309.0" stroke="#e5e7eb" stroke-width="1"/>
  <line x1="598.3" y1="49.0" x2="598.3" y2="309.0" stroke="#e5e7eb" stroke-width="1"/>
  <line x1="649.2" y1="49.0" x2="649.2" y2="309.0" stroke="#e5e7eb" stroke-width="1"/>
  <line x1="700.0" y1="49.0" x2="700.0" y2="309.0" stroke="#e5e7eb" stroke-width="1"/>
  <line x1="90.0" y1="49.0" x2="90.0" y2="309.0" stroke="#9ca3af" stroke-width="1.5"/>
  <line x1="700.0" y1="49.0" x2="700.0" y2="309.0" stroke="#9ca3af" stroke-width="1.5"/>
  <line x1="90.0" y1="309.0" x2="700.0" y2="309.0" stroke="#9ca3af" stroke-width="1.5"/>
  <line x1="780.0" y1="49.0" x2="780.0" y2="309.0" stroke="#d1d5db" stroke-width="1"/>
  <text x="40.0" y="179.0" text-anchor="middle" fill="#374151" font-size="10" font-weight="600" transform="rotate(-90,40.0,179.0)">CPU %</text>
  <polyline points="90.0,101.7 140.8,105.9 191.7,115.3 242.5,142.1 293.3,162.8 344.2,166.2 395.0,159.0 445.8,162.7 496.7,166.7 547.5,178.1 598.3,178.9 649.2,176.9 700.0,176.5" fill="none" stroke="#eab308" stroke-width="2" stroke-dasharray="2,3"/>
  <polyline points="90.0,234.2 140.8,235.5 191.7,235.1 242.5,234.0 293.3,233.7 344.2,233.7 395.0,233.8 445.8,234.7 496.7,230.6 547.5,235.2 598.3,234.2 649.2,235.2 700.0,236.6" fill="none" stroke="#dc2626" stroke-width="2" stroke-dasharray="2,3"/>
  <polyline points="90.0,234.2 140.8,234.3 191.7,235.3 242.5,233.8 293.3,234.2 344.2,234.1 395.0,234.4 445.8,234.6 496.7,232.3 547.5,234.1 598.3,234.2 649.2,235.0 700.0,235.8" fill="none" stroke="#f97316" stroke-width="2" stroke-dasharray="2,3"/>
  <polyline points="90.0,230.9 140.8,232.4 191.7,234.0 242.5,232.5 293.3,233.9 344.2,233.3 395.0,234.2 445.8,235.3 496.7,233.7 547.5,233.5 598.3,232.8 649.2,230.5 700.0,227.3" fill="none" stroke="#7c3aed" stroke-width="2" stroke-dasharray="2,3"/>
  <polyline points="90.0,90.8 140.8,82.9 191.7,122.9 242.5,217.9 293.3,260.7 344.2,268.1 395.0,279.7 445.8,291.0 496.7,298.3 547.5,303.5 598.3,306.5 649.2,307.5 700.0,307.8" fill="none" stroke="#eab308" stroke-width="1.5" stroke-dasharray="5,3"/>
  <polyline points="90.0,271.0 140.8,268.9 191.7,268.9 242.5,270.5 293.3,271.8 344.2,273.8 395.0,276.4 445.8,280.5 496.7,285.7 547.5,293.0 598.3,299.2 649.2,303.5 700.0,306.3" fill="none" stroke="#dc2626" stroke-width="1.5" stroke-dasharray="5,3"/>
  <polyline points="90.0,270.4 140.8,268.2 191.7,269.4 242.5,270.8 293.3,271.6 344.2,273.9 395.0,277.3 445.8,279.3 496.7,285.6 547.5,293.1 598.3,299.1 649.2,303.4 700.0,306.1" fill="none" stroke="#f97316" stroke-width="1.5" stroke-dasharray="5,3"/>
  <polyline points="90.0,239.1 140.8,241.7 191.7,247.3 242.5,256.3 293.3,259.3 344.2,263.9 395.0,269.0 445.8,276.6 496.7,284.9 547.5,294.2 598.3,300.6 649.2,304.3 700.0,306.5" fill="none" stroke="#7c3aed" stroke-width="1.5" stroke-dasharray="5,3"/>
  <polyline points="90.0,304.8 140.8,300.3 191.7,294.6 242.5,294.9 293.3,294.1 344.2,283.7 395.0,272.8 445.8,264.5 496.7,256.0 547.5,255.0 598.3,259.6 649.2,251.6 700.0,215.7" fill="none" stroke="#eab308" stroke-width="2.5" stroke-linecap="round" stroke-linejoin="round"/>
  <circle cx="90.0" cy="304.8" r="3" fill="#eab308" stroke="white" stroke-width="1"/>
  <circle cx="140.8" cy="300.3" r="3" fill="#eab308" stroke="white" stroke-width="1"/>
  <circle cx="191.7" cy="294.6" r="3" fill="#eab308" stroke="white" stroke-width="1"/>
  <circle cx="242.5" cy="294.9" r="3" fill="#eab308" stroke="white" stroke-width="1"/>
  <circle cx="293.3" cy="294.1" r="3" fill="#eab308" stroke="white" stroke-width="1"/>
  <circle cx="344.2" cy="283.7" r="3" fill="#eab308" stroke="white" stroke-width="1"/>
  <circle cx="395.0" cy="272.8" r="3" fill="#eab308" stroke="white" stroke-width="1"/>
  <circle cx="445.8" cy="264.5" r="3" fill="#eab308" stroke="white" stroke-width="1"/>
  <circle cx="496.7" cy="256.0" r="3" fill="#eab308" stroke="white" stroke-width="1"/>
  <circle cx="547.5" cy="255.0" r="3" fill="#eab308" stroke="white" stroke-width="1"/>
  <circle cx="598.3" cy="259.6" r="3" fill="#eab308" stroke="white" stroke-width="1"/>
  <circle cx="649.2" cy="251.6" r="3" fill="#eab308" stroke="white" stroke-width="1"/>
  <circle cx="700.0" cy="215.7" r="3" fill="#eab308" stroke="white" stroke-width="1"/>
  <polyline points="90.0,308.3 140.8,307.4 191.7,305.9 242.5,303.1 293.3,297.5 344.2,287.3 395.0,268.7 445.8,238.6 496.7,193.8 547.5,151.0 598.3,115.7 649.2,90.3 700.0,92.0" fill="none" stroke="#dc2626" stroke-width="2.5" stroke-linecap="round" stroke-linejoin="round"/>
  <circle cx="90.0" cy="308.3" r="3" fill="#dc2626" stroke="white" stroke-width="1"/>
  <circle cx="140.8" cy="307.4" r="3" fill="#dc2626" stroke="white" stroke-width="1"/>
  <circle cx="191.7" cy="305.9" r="3" fill="#dc2626" stroke="white" stroke-width="1"/>
  <circle cx="242.5" cy="303.1" r="3" fill="#dc2626" stroke="white" stroke-width="1"/>
  <circle cx="293.3" cy="297.5" r="3" fill="#dc2626" stroke="white" stroke-width="1"/>
  <circle cx="344.2" cy="287.3" r="3" fill="#dc2626" stroke="white" stroke-width="1"/>
  <circle cx="395.0" cy="268.7" r="3" fill="#dc2626" stroke="white" stroke-width="1"/>
  <circle cx="445.8" cy="238.6" r="3" fill="#dc2626" stroke="white" stroke-width="1"/>
  <circle cx="496.7" cy="193.8" r="3" fill="#dc2626" stroke="white" stroke-width="1"/>
  <circle cx="547.5" cy="151.0" r="3" fill="#dc2626" stroke="white" stroke-width="1"/>
  <circle cx="598.3" cy="115.7" r="3" fill="#dc2626" stroke="white" stroke-width="1"/>
  <circle cx="649.2" cy="90.3" r="3" fill="#dc2626" stroke="white" stroke-width="1"/>
  <circle cx="700.0" cy="92.0" r="3" fill="#dc2626" stroke="white" stroke-width="1"/>
  <polyline points="90.0,308.3 140.8,307.4 191.7,305.9 242.5,303.1 293.3,297.4 344.2,287.3 395.0,269.8 445.8,235.7 496.7,193.2 547.5,151.9 598.3,112.9 649.2,86.1 700.0,82.9" fill="none" stroke="#f97316" stroke-width="2.5" stroke-linecap="round" stroke-linejoin="round"/>
  <circle cx="90.0" cy="308.3" r="3" fill="#f97316" stroke="white" stroke-width="1"/>
  <circle cx="140.8" cy="307.4" r="3" fill="#f97316" stroke="white" stroke-width="1"/>
  <circle cx="191.7" cy="305.9" r="3" fill="#f97316" stroke="white" stroke-width="1"/>
  <circle cx="242.5" cy="303.1" r="3" fill="#f97316" stroke="white" stroke-width="1"/>
  <circle cx="293.3" cy="297.4" r="3" fill="#f97316" stroke="white" stroke-width="1"/>
  <circle cx="344.2" cy="287.3" r="3" fill="#f97316" stroke="white" stroke-width="1"/>
  <circle cx="395.0" cy="269.8" r="3" fill="#f97316" stroke="white" stroke-width="1"/>
  <circle cx="445.8" cy="235.7" r="3" fill="#f97316" stroke="white" stroke-width="1"/>
  <circle cx="496.7" cy="193.2" r="3" fill="#f97316" stroke="white" stroke-width="1"/>
  <circle cx="547.5" cy="151.9" r="3" fill="#f97316" stroke="white" stroke-width="1"/>
  <circle cx="598.3" cy="112.9" r="3" fill="#f97316" stroke="white" stroke-width="1"/>
  <circle cx="649.2" cy="86.1" r="3" fill="#f97316" stroke="white" stroke-width="1"/>
  <circle cx="700.0" cy="82.9" r="3" fill="#f97316" stroke="white" stroke-width="1"/>
  <polyline points="90.0,307.6 140.8,306.4 191.7,304.2 242.5,300.9 293.3,293.6 344.2,281.1 395.0,259.6 445.8,229.0 496.7,189.7 547.5,162.8 598.3,142.2 649.2,121.6 700.0,109.0" fill="none" stroke="#7c3aed" stroke-width="2.5" stroke-linecap="round" stroke-linejoin="round"/>
  <circle cx="90.0" cy="307.6" r="3" fill="#7c3aed" stroke="white" stroke-width="1"/>
  <circle cx="140.8" cy="306.4" r="3" fill="#7c3aed" stroke="white" stroke-width="1"/>
  <circle cx="191.7" cy="304.2" r="3" fill="#7c3aed" stroke="white" stroke-width="1"/>
  <circle cx="242.5" cy="300.9" r="3" fill="#7c3aed" stroke="white" stroke-width="1"/>
  <circle cx="293.3" cy="293.6" r="3" fill="#7c3aed" stroke="white" stroke-width="1"/>
  <circle cx="344.2" cy="281.1" r="3" fill="#7c3aed" stroke="white" stroke-width="1"/>
  <circle cx="395.0" cy="259.6" r="3" fill="#7c3aed" stroke="white" stroke-width="1"/>
  <circle cx="445.8" cy="229.0" r="3" fill="#7c3aed" stroke="white" stroke-width="1"/>
  <circle cx="496.7" cy="189.7" r="3" fill="#7c3aed" stroke="white" stroke-width="1"/>
  <circle cx="547.5" cy="162.8" r="3" fill="#7c3aed" stroke="white" stroke-width="1"/>
  <circle cx="598.3" cy="142.2" r="3" fill="#7c3aed" stroke="white" stroke-width="1"/>
  <circle cx="649.2" cy="121.6" r="3" fill="#7c3aed" stroke="white" stroke-width="1"/>
  <circle cx="700.0" cy="109.0" r="3" fill="#7c3aed" stroke="white" stroke-width="1"/>
  <text x="90.0" y="323.0" text-anchor="middle" fill="#374151" font-size="8.5">8 B</text>
  <text x="140.8" y="323.0" text-anchor="middle" fill="#374151" font-size="8.5">16 B</text>
  <text x="191.7" y="323.0" text-anchor="middle" fill="#374151" font-size="8.5">32 B</text>
  <text x="242.5" y="323.0" text-anchor="middle" fill="#374151" font-size="8.5">64 B</text>
  <text x="293.3" y="323.0" text-anchor="middle" fill="#374151" font-size="8.5">128 B</text>
  <text x="344.2" y="323.0" text-anchor="middle" fill="#374151" font-size="8.5">256 B</text>
  <text x="395.0" y="323.0" text-anchor="middle" fill="#374151" font-size="8.5">512 B</text>
  <text x="445.8" y="323.0" text-anchor="middle" fill="#374151" font-size="8.5">1 KiB</text>
  <text x="496.7" y="323.0" text-anchor="middle" fill="#374151" font-size="8.5">2 KiB</text>
  <text x="547.5" y="323.0" text-anchor="middle" fill="#374151" font-size="8.5">4 KiB</text>
  <text x="598.3" y="323.0" text-anchor="middle" fill="#374151" font-size="8.5">8 KiB</text>
  <text x="649.2" y="323.0" text-anchor="middle" fill="#374151" font-size="8.5">16 KiB</text>
  <text x="700.0" y="323.0" text-anchor="middle" fill="#374151" font-size="8.5">32 KiB</text>
  <text x="395.0" y="362.0" text-anchor="middle" fill="#111827" font-size="13" font-weight="700">PUSH fan-out (1 PUSH → 4 PULL): TCP loopback</text>
  <line x1="90.0" y1="606.5" x2="700.0" y2="606.5" stroke="#e5e7eb" stroke-width="1"/>
  <text x="82.0" y="606.5" text-anchor="end" dominant-baseline="middle" fill="#374151" font-size="10">50%</text>
  <line x1="90.0" y1="574.0" x2="700.0" y2="574.0" stroke="#e5e7eb" stroke-width="1"/>
  <text x="82.0" y="574.0" text-anchor="end" dominant-baseline="middle" fill="#374151" font-size="10">100%</text>
  <line x1="90.0" y1="541.5" x2="700.0" y2="541.5" stroke="#e5e7eb" stroke-width="1"/>
  <text x="82.0" y="541.5" text-anchor="end" dominant-baseline="middle" fill="#374151" font-size="10">150%</text>
  <line x1="90.0" y1="509.0" x2="700.0" y2="509.0" stroke="#e5e7eb" stroke-width="1"/>
  <text x="82.0" y="509.0" text-anchor="end" dominant-baseline="middle" fill="#374151" font-size="10">200%</text>
  <line x1="90.0" y1="476.5" x2="700.0" y2="476.5" stroke="#e5e7eb" stroke-width="1"/>
  <text x="82.0" y="476.5" text-anchor="end" dominant-baseline="middle" fill="#374151" font-size="10">250%</text>
  <line x1="90.0" y1="444.0" x2="700.0" y2="444.0" stroke="#e5e7eb" stroke-width="1"/>
  <text x="82.0" y="444.0" text-anchor="end" dominant-baseline="middle" fill="#374151" font-size="10">300%</text>
  <line x1="90.0" y1="411.5" x2="700.0" y2="411.5" stroke="#e5e7eb" stroke-width="1"/>
  <text x="82.0" y="411.5" text-anchor="end" dominant-baseline="middle" fill="#374151" font-size="10">350%</text>
  <line x1="90.0" y1="379.0" x2="700.0" y2="379.0" stroke="#e5e7eb" stroke-width="1"/>
  <text x="82.0" y="379.0" text-anchor="end" dominant-baseline="middle" fill="#374151" font-size="10">400%</text>
  <line x1="90.0" y1="589.8" x2="700.0" y2="589.8" stroke="#e5e7eb" stroke-width="1" stroke-dasharray="3,6"/>
  <text x="708.0" y="589.8" text-anchor="start" dominant-baseline="middle" fill="#6b7280" font-size="10">1 GB/s</text>
  <line x1="90.0" y1="540.6" x2="700.0" y2="540.6" stroke="#e5e7eb" stroke-width="1" stroke-dasharray="3,6"/>
  <text x="708.0" y="540.6" text-anchor="start" dominant-baseline="middle" fill="#6b7280" font-size="10">2 GB/s</text>
  <line x1="90.0" y1="491.5" x2="700.0" y2="491.5" stroke="#e5e7eb" stroke-width="1" stroke-dasharray="3,6"/>
  <text x="708.0" y="491.5" text-anchor="start" dominant-baseline="middle" fill="#6b7280" font-size="10">3 GB/s</text>
  <line x1="90.0" y1="442.3" x2="700.0" y2="442.3" stroke="#e5e7eb" stroke-width="1" stroke-dasharray="3,6"/>
  <text x="708.0" y="442.3" text-anchor="start" dominant-baseline="middle" fill="#6b7280" font-size="10">4 GB/s</text>
  <line x1="90.0" y1="393.1" x2="700.0" y2="393.1" stroke="#e5e7eb" stroke-width="1" stroke-dasharray="3,6"/>
  <text x="708.0" y="393.1" text-anchor="start" dominant-baseline="middle" fill="#6b7280" font-size="10">5 GB/s</text>
  <text x="788.0" y="595.8" text-anchor="start" dominant-baseline="middle" fill="#9ca3af" font-size="10">500k/s</text>
  <text x="788.0" y="552.6" text-anchor="start" dominant-baseline="middle" fill="#9ca3af" font-size="10">1M/s</text>
  <text x="788.0" y="509.4" text-anchor="start" dominant-baseline="middle" fill="#9ca3af" font-size="10">1.5M/s</text>
  <text x="788.0" y="466.2" text-anchor="start" dominant-baseline="middle" fill="#9ca3af" font-size="10">2M/s</text>
  <text x="788.0" y="422.9" text-anchor="start" dominant-baseline="middle" fill="#9ca3af" font-size="10">2.5M/s</text>
  <text x="788.0" y="379.7" text-anchor="start" dominant-baseline="middle" fill="#9ca3af" font-size="10">3M/s</text>
  <line x1="90.0" y1="379.0" x2="90.0" y2="639.0" stroke="#e5e7eb" stroke-width="1"/>
  <line x1="140.8" y1="379.0" x2="140.8" y2="639.0" stroke="#e5e7eb" stroke-width="1"/>
  <line x1="191.7" y1="379.0" x2="191.7" y2="639.0" stroke="#e5e7eb" stroke-width="1"/>
  <line x1="242.5" y1="379.0" x2="242.5" y2="639.0" stroke="#e5e7eb" stroke-width="1"/>
  <line x1="293.3" y1="379.0" x2="293.3" y2="639.0" stroke="#e5e7eb" stroke-width="1"/>
  <line x1="344.2" y1="379.0" x2="344.2" y2="639.0" stroke="#e5e7eb" stroke-width="1"/>
  <line x1="395.0" y1="379.0" x2="395.0" y2="639.0" stroke="#e5e7eb" stroke-width="1"/>
  <line x1="445.8" y1="379.0" x2="445.8" y2="639.0" stroke="#e5e7eb" stroke-width="1"/>
  <line x1="496.7" y1="379.0" x2="496.7" y2="639.0" stroke="#e5e7eb" stroke-width="1"/>
  <line x1="547.5" y1="379.0" x2="547.5" y2="639.0" stroke="#e5e7eb" stroke-width="1"/>
  <line x1="598.3" y1="379.0" x2="598.3" y2="639.0" stroke="#e5e7eb" stroke-width="1"/>
  <line x1="649.2" y1="379.0" x2="649.2" y2="639.0" stroke="#e5e7eb" stroke-width="1"/>
  <line x1="700.0" y1="379.0" x2="700.0" y2="639.0" stroke="#e5e7eb" stroke-width="1"/>
  <line x1="90.0" y1="379.0" x2="90.0" y2="639.0" stroke="#9ca3af" stroke-width="1.5"/>
  <line x1="700.0" y1="379.0" x2="700.0" y2="639.0" stroke="#9ca3af" stroke-width="1.5"/>
  <line x1="90.0" y1="639.0" x2="700.0" y2="639.0" stroke="#9ca3af" stroke-width="1.5"/>
  <line x1="780.0" y1="379.0" x2="780.0" y2="639.0" stroke="#d1d5db" stroke-width="1"/>
  <text x="40.0" y="509.0" text-anchor="middle" fill="#374151" font-size="10" font-weight="600" transform="rotate(-90,40.0,509.0)">CPU %</text>
  <polyline points="90.0,433.7 140.8,442.2 191.7,456.1 242.5,456.5 293.3,478.2 344.2,492.7 395.0,493.3 445.8,489.3 496.7,494.7 547.5,494.0 598.3,501.1 649.2,507.5 700.0,510.0" fill="none" stroke="#eab308" stroke-width="2" stroke-dasharray="2,3"/>
  <polyline points="90.0,542.3 140.8,542.2 191.7,548.0 242.5,554.5 293.3,555.6 344.2,557.8 395.0,560.1 445.8,553.5 496.7,557.3 547.5,557.5 598.3,553.6 649.2,557.1 700.0,557.3" fill="none" stroke="#dc2626" stroke-width="2" stroke-dasharray="2,3"/>
  <polyline points="90.0,539.3 140.8,549.1 191.7,550.2 242.5,553.8 293.3,555.4 344.2,556.4 395.0,557.5 445.8,554.6 496.7,554.5 547.5,554.4 598.3,554.4 649.2,557.7 700.0,557.4" fill="none" stroke="#f97316" stroke-width="2" stroke-dasharray="2,3"/>
  <polyline points="90.0,549.0 140.8,546.2 191.7,552.5 242.5,554.2 293.3,554.9 344.2,555.0 395.0,557.3 445.8,558.0 496.7,556.8 547.5,555.3 598.3,555.5 649.2,555.1 700.0,553.1" fill="none" stroke="#7c3aed" stroke-width="2" stroke-dasharray="2,3"/>
  <polyline points="90.0,413.3 140.8,412.9 191.7,448.8 242.5,536.0 293.3,588.7 344.2,598.4 395.0,609.9 445.8,621.6 496.7,629.4 547.5,634.2 598.3,636.4 649.2,637.6 700.0,637.9" fill="none" stroke="#eab308" stroke-width="1.5" stroke-dasharray="5,3"/>
  <polyline points="90.0,599.7 140.8,598.7 191.7,599.5 242.5,608.1 293.3,609.7 344.2,614.0 395.0,617.2 445.8,610.0 496.7,620.2 547.5,625.3 598.3,627.5 649.2,633.5 700.0,636.0" fill="none" stroke="#dc2626" stroke-width="1.5" stroke-dasharray="5,3"/>
  <polyline points="90.0,598.6 140.8,610.0 191.7,605.4 242.5,609.1 293.3,609.8 344.2,611.0 395.0,614.5 445.8,611.5 496.7,616.5 547.5,622.6 598.3,627.9 649.2,633.6 700.0,636.1" fill="none" stroke="#f97316" stroke-width="1.5" stroke-dasharray="5,3"/>
  <polyline points="90.0,550.3 140.8,548.7 191.7,562.5 242.5,575.8 293.3,580.9 344.2,588.5 395.0,594.3 445.8,604.0 496.7,614.1 547.5,623.6 598.3,630.1 649.2,634.4 700.0,636.7" fill="none" stroke="#7c3aed" stroke-width="1.5" stroke-dasharray="5,3"/>
  <polyline points="90.0,634.9 140.8,630.8 191.7,625.1 242.5,624.0 293.3,624.3 344.2,615.4 395.0,605.0 445.8,598.4 496.7,594.2 547.5,594.3 598.3,590.8 649.2,586.3 700.0,553.3" fill="none" stroke="#eab308" stroke-width="2.5" stroke-linecap="round" stroke-linejoin="round"/>
  <circle cx="90.0" cy="634.9" r="3" fill="#eab308" stroke="white" stroke-width="1"/>
  <circle cx="140.8" cy="630.8" r="3" fill="#eab308" stroke="white" stroke-width="1"/>
  <circle cx="191.7" cy="625.1" r="3" fill="#eab308" stroke="white" stroke-width="1"/>
  <circle cx="242.5" cy="624.0" r="3" fill="#eab308" stroke="white" stroke-width="1"/>
  <circle cx="293.3" cy="624.3" r="3" fill="#eab308" stroke="white" stroke-width="1"/>
  <circle cx="344.2" cy="615.4" r="3" fill="#eab308" stroke="white" stroke-width="1"/>
  <circle cx="395.0" cy="605.0" r="3" fill="#eab308" stroke="white" stroke-width="1"/>
  <circle cx="445.8" cy="598.4" r="3" fill="#eab308" stroke="white" stroke-width="1"/>
  <circle cx="496.7" cy="594.2" r="3" fill="#eab308" stroke="white" stroke-width="1"/>
  <circle cx="547.5" cy="594.3" r="3" fill="#eab308" stroke="white" stroke-width="1"/>
  <circle cx="598.3" cy="590.8" r="3" fill="#eab308" stroke="white" stroke-width="1"/>
  <circle cx="649.2" cy="586.3" r="3" fill="#eab308" stroke="white" stroke-width="1"/>
  <circle cx="700.0" cy="553.3" r="3" fill="#eab308" stroke="white" stroke-width="1"/>
  <polyline points="90.0,638.3 140.8,637.5 191.7,636.1 242.5,634.5 293.3,630.5 344.2,624.4 395.0,613.6 445.8,571.5 496.7,551.4 547.5,511.4 598.3,424.8 649.2,435.6 700.0,412.9" fill="none" stroke="#dc2626" stroke-width="2.5" stroke-linecap="round" stroke-linejoin="round"/>
  <circle cx="90.0" cy="638.3" r="3" fill="#dc2626" stroke="white" stroke-width="1"/>
  <circle cx="140.8" cy="637.5" r="3" fill="#dc2626" stroke="white" stroke-width="1"/>
  <circle cx="191.7" cy="636.1" r="3" fill="#dc2626" stroke="white" stroke-width="1"/>
  <circle cx="242.5" cy="634.5" r="3" fill="#dc2626" stroke="white" stroke-width="1"/>
  <circle cx="293.3" cy="630.5" r="3" fill="#dc2626" stroke="white" stroke-width="1"/>
  <circle cx="344.2" cy="624.4" r="3" fill="#dc2626" stroke="white" stroke-width="1"/>
  <circle cx="395.0" cy="613.6" r="3" fill="#dc2626" stroke="white" stroke-width="1"/>
  <circle cx="445.8" cy="571.5" r="3" fill="#dc2626" stroke="white" stroke-width="1"/>
  <circle cx="496.7" cy="551.4" r="3" fill="#dc2626" stroke="white" stroke-width="1"/>
  <circle cx="547.5" cy="511.4" r="3" fill="#dc2626" stroke="white" stroke-width="1"/>
  <circle cx="598.3" cy="424.8" r="3" fill="#dc2626" stroke="white" stroke-width="1"/>
  <circle cx="649.2" cy="435.6" r="3" fill="#dc2626" stroke="white" stroke-width="1"/>
  <circle cx="700.0" cy="412.9" r="3" fill="#dc2626" stroke="white" stroke-width="1"/>
  <polyline points="90.0,638.3 140.8,637.9 191.7,636.6 242.5,634.6 293.3,630.5 344.2,622.7 395.0,610.5 445.8,574.9 496.7,533.9 547.5,485.6 598.3,431.7 649.2,437.7 700.0,420.4" fill="none" stroke="#f97316" stroke-width="2.5" stroke-linecap="round" stroke-linejoin="round"/>
  <circle cx="90.0" cy="638.3" r="3" fill="#f97316" stroke="white" stroke-width="1"/>
  <circle cx="140.8" cy="637.9" r="3" fill="#f97316" stroke="white" stroke-width="1"/>
  <circle cx="191.7" cy="636.6" r="3" fill="#f97316" stroke="white" stroke-width="1"/>
  <circle cx="242.5" cy="634.6" r="3" fill="#f97316" stroke="white" stroke-width="1"/>
  <circle cx="293.3" cy="630.5" r="3" fill="#f97316" stroke="white" stroke-width="1"/>
  <circle cx="344.2" cy="622.7" r="3" fill="#f97316" stroke="white" stroke-width="1"/>
  <circle cx="395.0" cy="610.5" r="3" fill="#f97316" stroke="white" stroke-width="1"/>
  <circle cx="445.8" cy="574.9" r="3" fill="#f97316" stroke="white" stroke-width="1"/>
  <circle cx="496.7" cy="533.9" r="3" fill="#f97316" stroke="white" stroke-width="1"/>
  <circle cx="547.5" cy="485.6" r="3" fill="#f97316" stroke="white" stroke-width="1"/>
  <circle cx="598.3" cy="431.7" r="3" fill="#f97316" stroke="white" stroke-width="1"/>
  <circle cx="649.2" cy="437.7" r="3" fill="#f97316" stroke="white" stroke-width="1"/>
  <circle cx="700.0" cy="420.4" r="3" fill="#f97316" stroke="white" stroke-width="1"/>
  <polyline points="90.0,637.4 140.8,635.7 191.7,633.4 242.5,629.8 293.3,622.1 344.2,609.6 395.0,586.9 445.8,557.4 496.7,523.0 547.5,495.6 598.3,472.6 649.2,468.0 700.0,466.4" fill="none" stroke="#7c3aed" stroke-width="2.5" stroke-linecap="round" stroke-linejoin="round"/>
  <circle cx="90.0" cy="637.4" r="3" fill="#7c3aed" stroke="white" stroke-width="1"/>
  <circle cx="140.8" cy="635.7" r="3" fill="#7c3aed" stroke="white" stroke-width="1"/>
  <circle cx="191.7" cy="633.4" r="3" fill="#7c3aed" stroke="white" stroke-width="1"/>
  <circle cx="242.5" cy="629.8" r="3" fill="#7c3aed" stroke="white" stroke-width="1"/>
  <circle cx="293.3" cy="622.1" r="3" fill="#7c3aed" stroke="white" stroke-width="1"/>
  <circle cx="344.2" cy="609.6" r="3" fill="#7c3aed" stroke="white" stroke-width="1"/>
  <circle cx="395.0" cy="586.9" r="3" fill="#7c3aed" stroke="white" stroke-width="1"/>
  <circle cx="445.8" cy="557.4" r="3" fill="#7c3aed" stroke="white" stroke-width="1"/>
  <circle cx="496.7" cy="523.0" r="3" fill="#7c3aed" stroke="white" stroke-width="1"/>
  <circle cx="547.5" cy="495.6" r="3" fill="#7c3aed" stroke="white" stroke-width="1"/>
  <circle cx="598.3" cy="472.6" r="3" fill="#7c3aed" stroke="white" stroke-width="1"/>
  <circle cx="649.2" cy="468.0" r="3" fill="#7c3aed" stroke="white" stroke-width="1"/>
  <circle cx="700.0" cy="466.4" r="3" fill="#7c3aed" stroke="white" stroke-width="1"/>
  <text x="90.0" y="653.0" text-anchor="middle" fill="#374151" font-size="8.5">8 B</text>
  <text x="140.8" y="653.0" text-anchor="middle" fill="#374151" font-size="8.5">16 B</text>
  <text x="191.7" y="653.0" text-anchor="middle" fill="#374151" font-size="8.5">32 B</text>
  <text x="242.5" y="653.0" text-anchor="middle" fill="#374151" font-size="8.5">64 B</text>
  <text x="293.3" y="653.0" text-anchor="middle" fill="#374151" font-size="8.5">128 B</text>
  <text x="344.2" y="653.0" text-anchor="middle" fill="#374151" font-size="8.5">256 B</text>
  <text x="395.0" y="653.0" text-anchor="middle" fill="#374151" font-size="8.5">512 B</text>
  <text x="445.8" y="653.0" text-anchor="middle" fill="#374151" font-size="8.5">1 KiB</text>
  <text x="496.7" y="653.0" text-anchor="middle" fill="#374151" font-size="8.5">2 KiB</text>
  <text x="547.5" y="653.0" text-anchor="middle" fill="#374151" font-size="8.5">4 KiB</text>
  <text x="598.3" y="653.0" text-anchor="middle" fill="#374151" font-size="8.5">8 KiB</text>
  <text x="649.2" y="653.0" text-anchor="middle" fill="#374151" font-size="8.5">16 KiB</text>
  <text x="700.0" y="653.0" text-anchor="middle" fill="#374151" font-size="8.5">32 KiB</text>
  <text x="395.0" y="692.0" text-anchor="middle" fill="#111827" font-size="13" font-weight="700">PUSH fan-out (1 PUSH → 8 PULL): TCP loopback</text>
  <line x1="90.0" y1="936.5" x2="700.0" y2="936.5" stroke="#e5e7eb" stroke-width="1"/>
  <text x="82.0" y="936.5" text-anchor="end" dominant-baseline="middle" fill="#374151" font-size="10">50%</text>
  <line x1="90.0" y1="904.0" x2="700.0" y2="904.0" stroke="#e5e7eb" stroke-width="1"/>
  <text x="82.0" y="904.0" text-anchor="end" dominant-baseline="middle" fill="#374151" font-size="10">100%</text>
  <line x1="90.0" y1="871.5" x2="700.0" y2="871.5" stroke="#e5e7eb" stroke-width="1"/>
  <text x="82.0" y="871.5" text-anchor="end" dominant-baseline="middle" fill="#374151" font-size="10">150%</text>
  <line x1="90.0" y1="839.0" x2="700.0" y2="839.0" stroke="#e5e7eb" stroke-width="1"/>
  <text x="82.0" y="839.0" text-anchor="end" dominant-baseline="middle" fill="#374151" font-size="10">200%</text>
  <line x1="90.0" y1="806.5" x2="700.0" y2="806.5" stroke="#e5e7eb" stroke-width="1"/>
  <text x="82.0" y="806.5" text-anchor="end" dominant-baseline="middle" fill="#374151" font-size="10">250%</text>
  <line x1="90.0" y1="774.0" x2="700.0" y2="774.0" stroke="#e5e7eb" stroke-width="1"/>
  <text x="82.0" y="774.0" text-anchor="end" dominant-baseline="middle" fill="#374151" font-size="10">300%</text>
  <line x1="90.0" y1="741.5" x2="700.0" y2="741.5" stroke="#e5e7eb" stroke-width="1"/>
  <text x="82.0" y="741.5" text-anchor="end" dominant-baseline="middle" fill="#374151" font-size="10">350%</text>
  <line x1="90.0" y1="709.0" x2="700.0" y2="709.0" stroke="#e5e7eb" stroke-width="1"/>
  <text x="82.0" y="709.0" text-anchor="end" dominant-baseline="middle" fill="#374151" font-size="10">400%</text>
  <line x1="90.0" y1="920.5" x2="700.0" y2="920.5" stroke="#e5e7eb" stroke-width="1" stroke-dasharray="3,6"/>
  <text x="708.0" y="920.5" text-anchor="start" dominant-baseline="middle" fill="#6b7280" font-size="10">1 GB/s</text>
  <line x1="90.0" y1="872.0" x2="700.0" y2="872.0" stroke="#e5e7eb" stroke-width="1" stroke-dasharray="3,6"/>
  <text x="708.0" y="872.0" text-anchor="start" dominant-baseline="middle" fill="#6b7280" font-size="10">2 GB/s</text>
  <line x1="90.0" y1="823.5" x2="700.0" y2="823.5" stroke="#e5e7eb" stroke-width="1" stroke-dasharray="3,6"/>
  <text x="708.0" y="823.5" text-anchor="start" dominant-baseline="middle" fill="#6b7280" font-size="10">3 GB/s</text>
  <line x1="90.0" y1="775.0" x2="700.0" y2="775.0" stroke="#e5e7eb" stroke-width="1" stroke-dasharray="3,6"/>
  <text x="708.0" y="775.0" text-anchor="start" dominant-baseline="middle" fill="#6b7280" font-size="10">4 GB/s</text>
  <line x1="90.0" y1="726.6" x2="700.0" y2="726.6" stroke="#e5e7eb" stroke-width="1" stroke-dasharray="3,6"/>
  <text x="708.0" y="726.6" text-anchor="start" dominant-baseline="middle" fill="#6b7280" font-size="10">5 GB/s</text>
  <text x="788.0" y="934.9" text-anchor="start" dominant-baseline="middle" fill="#9ca3af" font-size="10">200k/s</text>
  <text x="788.0" y="900.7" text-anchor="start" dominant-baseline="middle" fill="#9ca3af" font-size="10">400k/s</text>
  <text x="788.0" y="866.6" text-anchor="start" dominant-baseline="middle" fill="#9ca3af" font-size="10">600k/s</text>
  <text x="788.0" y="832.4" text-anchor="start" dominant-baseline="middle" fill="#9ca3af" font-size="10">800k/s</text>
  <text x="788.0" y="798.3" text-anchor="start" dominant-baseline="middle" fill="#9ca3af" font-size="10">1M/s</text>
  <text x="788.0" y="764.2" text-anchor="start" dominant-baseline="middle" fill="#9ca3af" font-size="10">1.2M/s</text>
  <text x="788.0" y="730.0" text-anchor="start" dominant-baseline="middle" fill="#9ca3af" font-size="10">1.4M/s</text>
  <line x1="90.0" y1="709.0" x2="90.0" y2="969.0" stroke="#e5e7eb" stroke-width="1"/>
  <line x1="140.8" y1="709.0" x2="140.8" y2="969.0" stroke="#e5e7eb" stroke-width="1"/>
  <line x1="191.7" y1="709.0" x2="191.7" y2="969.0" stroke="#e5e7eb" stroke-width="1"/>
  <line x1="242.5" y1="709.0" x2="242.5" y2="969.0" stroke="#e5e7eb" stroke-width="1"/>
  <line x1="293.3" y1="709.0" x2="293.3" y2="969.0" stroke="#e5e7eb" stroke-width="1"/>
  <line x1="344.2" y1="709.0" x2="344.2" y2="969.0" stroke="#e5e7eb" stroke-width="1"/>
  <line x1="395.0" y1="709.0" x2="395.0" y2="969.0" stroke="#e5e7eb" stroke-width="1"/>
  <line x1="445.8" y1="709.0" x2="445.8" y2="969.0" stroke="#e5e7eb" stroke-width="1"/>
  <line x1="496.7" y1="709.0" x2="496.7" y2="969.0" stroke="#e5e7eb" stroke-width="1"/>
  <line x1="547.5" y1="709.0" x2="547.5" y2="969.0" stroke="#e5e7eb" stroke-width="1"/>
  <line x1="598.3" y1="709.0" x2="598.3" y2="969.0" stroke="#e5e7eb" stroke-width="1"/>
  <line x1="649.2" y1="709.0" x2="649.2" y2="969.0" stroke="#e5e7eb" stroke-width="1"/>
  <line x1="700.0" y1="709.0" x2="700.0" y2="969.0" stroke="#e5e7eb" stroke-width="1"/>
  <line x1="90.0" y1="709.0" x2="90.0" y2="969.0" stroke="#9ca3af" stroke-width="1.5"/>
  <line x1="700.0" y1="709.0" x2="700.0" y2="969.0" stroke="#9ca3af" stroke-width="1.5"/>
  <line x1="90.0" y1="969.0" x2="700.0" y2="969.0" stroke="#9ca3af" stroke-width="1.5"/>
  <line x1="780.0" y1="709.0" x2="780.0" y2="969.0" stroke="#d1d5db" stroke-width="1"/>
  <text x="40.0" y="839.0" text-anchor="middle" fill="#374151" font-size="10" font-weight="600" transform="rotate(-90,40.0,839.0)">CPU %</text>
  <polyline points="90.0,796.3 140.8,804.0 191.7,812.2 242.5,792.1 293.3,818.1 344.2,835.3 395.0,840.0 445.8,848.9 496.7,845.8 547.5,852.7 598.3,852.5 649.2,849.0 700.0,850.1" fill="none" stroke="#eab308" stroke-width="2" stroke-dasharray="2,3"/>
  <polyline points="90.0,878.6 140.8,876.8 191.7,882.7 242.5,885.2 293.3,889.3 344.2,892.7 395.0,893.4 445.8,890.3 496.7,888.3 547.5,894.9 598.3,893.1 649.2,893.2 700.0,892.0" fill="none" stroke="#dc2626" stroke-width="2" stroke-dasharray="2,3"/>
  <polyline points="90.0,872.2 140.8,879.2 191.7,880.9 242.5,883.4 293.3,886.9 344.2,890.9 395.0,888.1 445.8,893.6 496.7,893.1 547.5,896.2 598.3,897.6 649.2,893.2 700.0,891.7" fill="none" stroke="#f97316" stroke-width="2" stroke-dasharray="2,3"/>
  <polyline points="90.0,879.3 140.8,878.6 191.7,880.4 242.5,882.4 293.3,887.3 344.2,889.0 395.0,890.6 445.8,889.8 496.7,891.2 547.5,891.9 598.3,889.4 649.2,891.2 700.0,887.9" fill="none" stroke="#7c3aed" stroke-width="2" stroke-dasharray="2,3"/>
  <polyline points="90.0,748.7 140.8,742.9 191.7,765.1 242.5,853.0 293.3,913.4 344.2,925.0 395.0,937.4 445.8,951.9 496.7,958.9 547.5,963.6 598.3,966.2 649.2,967.5 700.0,967.8" fill="none" stroke="#eab308" stroke-width="1.5" stroke-dasharray="5,3"/>
  <polyline points="90.0,946.9 140.8,922.4 191.7,942.6 242.5,944.8 293.3,946.5 344.2,951.3 395.0,948.9 445.8,944.5 496.7,945.1 547.5,959.6 598.3,960.6 649.2,964.2 700.0,966.2" fill="none" stroke="#dc2626" stroke-width="1.5" stroke-dasharray="5,3"/>
  <polyline points="90.0,913.7 140.8,938.4 191.7,938.8 242.5,941.6 293.3,938.5 344.2,948.5 395.0,939.4 445.8,950.6 496.7,952.8 547.5,961.3 598.3,964.7 649.2,964.0 700.0,966.0" fill="none" stroke="#f97316" stroke-width="1.5" stroke-dasharray="5,3"/>
  <polyline points="90.0,849.8 140.8,852.9 191.7,863.3 242.5,889.8 293.3,901.6 344.2,912.8 395.0,919.0 445.8,930.3 496.7,942.4 547.5,952.8 598.3,960.3 649.2,964.7 700.0,966.9" fill="none" stroke="#7c3aed" stroke-width="1.5" stroke-dasharray="5,3"/>
  <polyline points="90.0,965.0 140.8,960.8 191.7,954.2 242.5,952.1 293.3,952.8 344.2,943.4 395.0,932.2 445.8,929.1 496.7,921.9 547.5,918.5 598.3,917.6 649.2,911.9 700.0,876.8" fill="none" stroke="#eab308" stroke-width="2.5" stroke-linecap="round" stroke-linejoin="round"/>
  <circle cx="90.0" cy="965.0" r="3" fill="#eab308" stroke="white" stroke-width="1"/>
  <circle cx="140.8" cy="960.8" r="3" fill="#eab308" stroke="white" stroke-width="1"/>
  <circle cx="191.7" cy="954.2" r="3" fill="#eab308" stroke="white" stroke-width="1"/>
  <circle cx="242.5" cy="952.1" r="3" fill="#eab308" stroke="white" stroke-width="1"/>
  <circle cx="293.3" cy="952.8" r="3" fill="#eab308" stroke="white" stroke-width="1"/>
  <circle cx="344.2" cy="943.4" r="3" fill="#eab308" stroke="white" stroke-width="1"/>
  <circle cx="395.0" cy="932.2" r="3" fill="#eab308" stroke="white" stroke-width="1"/>
  <circle cx="445.8" cy="929.1" r="3" fill="#eab308" stroke="white" stroke-width="1"/>
  <circle cx="496.7" cy="921.9" r="3" fill="#eab308" stroke="white" stroke-width="1"/>
  <circle cx="547.5" cy="918.5" r="3" fill="#eab308" stroke="white" stroke-width="1"/>
  <circle cx="598.3" cy="917.6" r="3" fill="#eab308" stroke="white" stroke-width="1"/>
  <circle cx="649.2" cy="911.9" r="3" fill="#eab308" stroke="white" stroke-width="1"/>
  <circle cx="700.0" cy="876.8" r="3" fill="#eab308" stroke="white" stroke-width="1"/>
  <polyline points="90.0,968.6 140.8,967.3 191.7,967.1 242.5,965.5 293.3,962.5 344.2,958.7 395.0,945.6 445.8,911.9 496.7,857.8 547.5,881.1 598.3,811.8 649.2,789.6 700.0,760.2" fill="none" stroke="#dc2626" stroke-width="2.5" stroke-linecap="round" stroke-linejoin="round"/>
  <circle cx="90.0" cy="968.6" r="3" fill="#dc2626" stroke="white" stroke-width="1"/>
  <circle cx="140.8" cy="967.3" r="3" fill="#dc2626" stroke="white" stroke-width="1"/>
  <circle cx="191.7" cy="967.1" r="3" fill="#dc2626" stroke="white" stroke-width="1"/>
  <circle cx="242.5" cy="965.5" r="3" fill="#dc2626" stroke="white" stroke-width="1"/>
  <circle cx="293.3" cy="962.5" r="3" fill="#dc2626" stroke="white" stroke-width="1"/>
  <circle cx="344.2" cy="958.7" r="3" fill="#dc2626" stroke="white" stroke-width="1"/>
  <circle cx="395.0" cy="945.6" r="3" fill="#dc2626" stroke="white" stroke-width="1"/>
  <circle cx="445.8" cy="911.9" r="3" fill="#dc2626" stroke="white" stroke-width="1"/>
  <circle cx="496.7" cy="857.8" r="3" fill="#dc2626" stroke="white" stroke-width="1"/>
  <circle cx="547.5" cy="881.1" r="3" fill="#dc2626" stroke="white" stroke-width="1"/>
  <circle cx="598.3" cy="811.8" r="3" fill="#dc2626" stroke="white" stroke-width="1"/>
  <circle cx="649.2" cy="789.6" r="3" fill="#dc2626" stroke="white" stroke-width="1"/>
  <circle cx="700.0" cy="760.2" r="3" fill="#dc2626" stroke="white" stroke-width="1"/>
  <polyline points="90.0,968.0 140.8,967.9 191.7,966.8 242.5,965.0 293.3,960.1 344.2,957.1 395.0,934.6 445.8,926.2 496.7,893.6 547.5,897.8 598.3,889.4 649.2,781.0 700.0,742.9" fill="none" stroke="#f97316" stroke-width="2.5" stroke-linecap="round" stroke-linejoin="round"/>
  <circle cx="90.0" cy="968.0" r="3" fill="#f97316" stroke="white" stroke-width="1"/>
  <circle cx="140.8" cy="967.9" r="3" fill="#f97316" stroke="white" stroke-width="1"/>
  <circle cx="191.7" cy="966.8" r="3" fill="#f97316" stroke="white" stroke-width="1"/>
  <circle cx="242.5" cy="965.0" r="3" fill="#f97316" stroke="white" stroke-width="1"/>
  <circle cx="293.3" cy="960.1" r="3" fill="#f97316" stroke="white" stroke-width="1"/>
  <circle cx="344.2" cy="957.1" r="3" fill="#f97316" stroke="white" stroke-width="1"/>
  <circle cx="395.0" cy="934.6" r="3" fill="#f97316" stroke="white" stroke-width="1"/>
  <circle cx="445.8" cy="926.2" r="3" fill="#f97316" stroke="white" stroke-width="1"/>
  <circle cx="496.7" cy="893.6" r="3" fill="#f97316" stroke="white" stroke-width="1"/>
  <circle cx="547.5" cy="897.8" r="3" fill="#f97316" stroke="white" stroke-width="1"/>
  <circle cx="598.3" cy="889.4" r="3" fill="#f97316" stroke="white" stroke-width="1"/>
  <circle cx="649.2" cy="781.0" r="3" fill="#f97316" stroke="white" stroke-width="1"/>
  <circle cx="700.0" cy="742.9" r="3" fill="#f97316" stroke="white" stroke-width="1"/>
  <polyline points="90.0,966.8 140.8,964.8 191.7,961.3 242.5,957.5 293.3,949.4 344.2,936.3 395.0,910.8 445.8,879.0 496.7,845.3 547.5,818.6 598.3,807.8 649.2,809.7 700.0,810.8" fill="none" stroke="#7c3aed" stroke-width="2.5" stroke-linecap="round" stroke-linejoin="round"/>
  <circle cx="90.0" cy="966.8" r="3" fill="#7c3aed" stroke="white" stroke-width="1"/>
  <circle cx="140.8" cy="964.8" r="3" fill="#7c3aed" stroke="white" stroke-width="1"/>
  <circle cx="191.7" cy="961.3" r="3" fill="#7c3aed" stroke="white" stroke-width="1"/>
  <circle cx="242.5" cy="957.5" r="3" fill="#7c3aed" stroke="white" stroke-width="1"/>
  <circle cx="293.3" cy="949.4" r="3" fill="#7c3aed" stroke="white" stroke-width="1"/>
  <circle cx="344.2" cy="936.3" r="3" fill="#7c3aed" stroke="white" stroke-width="1"/>
  <circle cx="395.0" cy="910.8" r="3" fill="#7c3aed" stroke="white" stroke-width="1"/>
  <circle cx="445.8" cy="879.0" r="3" fill="#7c3aed" stroke="white" stroke-width="1"/>
  <circle cx="496.7" cy="845.3" r="3" fill="#7c3aed" stroke="white" stroke-width="1"/>
  <circle cx="547.5" cy="818.6" r="3" fill="#7c3aed" stroke="white" stroke-width="1"/>
  <circle cx="598.3" cy="807.8" r="3" fill="#7c3aed" stroke="white" stroke-width="1"/>
  <circle cx="649.2" cy="809.7" r="3" fill="#7c3aed" stroke="white" stroke-width="1"/>
  <circle cx="700.0" cy="810.8" r="3" fill="#7c3aed" stroke="white" stroke-width="1"/>
  <text x="90.0" y="983.0" text-anchor="middle" fill="#374151" font-size="8.5">8 B</text>
  <text x="140.8" y="983.0" text-anchor="middle" fill="#374151" font-size="8.5">16 B</text>
  <text x="191.7" y="983.0" text-anchor="middle" fill="#374151" font-size="8.5">32 B</text>
  <text x="242.5" y="983.0" text-anchor="middle" fill="#374151" font-size="8.5">64 B</text>
  <text x="293.3" y="983.0" text-anchor="middle" fill="#374151" font-size="8.5">128 B</text>
  <text x="344.2" y="983.0" text-anchor="middle" fill="#374151" font-size="8.5">256 B</text>
  <text x="395.0" y="983.0" text-anchor="middle" fill="#374151" font-size="8.5">512 B</text>
  <text x="445.8" y="983.0" text-anchor="middle" fill="#374151" font-size="8.5">1 KiB</text>
  <text x="496.7" y="983.0" text-anchor="middle" fill="#374151" font-size="8.5">2 KiB</text>
  <text x="547.5" y="983.0" text-anchor="middle" fill="#374151" font-size="8.5">4 KiB</text>
  <text x="598.3" y="983.0" text-anchor="middle" fill="#374151" font-size="8.5">8 KiB</text>
  <text x="649.2" y="983.0" text-anchor="middle" fill="#374151" font-size="8.5">16 KiB</text>
  <text x="700.0" y="983.0" text-anchor="middle" fill="#374151" font-size="8.5">32 KiB</text>
  <line x1="145" y1="999" x2="159" y2="999" stroke="#eab308" stroke-width="2.5"/>
  <circle cx="152" cy="999" r="2.5" fill="#eab308"/>
  <text x="165" y="1003" fill="#374151" font-size="11" font-weight="500">libzmq v4.3.5</text>
  <line x1="270" y1="999" x2="284" y2="999" stroke="#7c3aed" stroke-width="2.5"/>
  <circle cx="277" cy="999" r="2.5" fill="#7c3aed"/>
  <text x="290" y="1003" fill="#374151" font-size="11" font-weight="500">omq-compio</text>
  <line x1="395" y1="999" x2="409" y2="999" stroke="#f97316" stroke-width="2.5"/>
  <circle cx="402" cy="999" r="2.5" fill="#f97316"/>
  <text x="415" y="1003" fill="#374151" font-size="11" font-weight="500">omq-tokio</text>
  <line x1="520" y1="999" x2="534" y2="999" stroke="#dc2626" stroke-width="2.5"/>
  <circle cx="527" cy="999" r="2.5" fill="#dc2626"/>
  <text x="540" y="1003" fill="#374151" font-size="11" font-weight="500">omq-tokio (MT)</text>
  <line x1="145" y1="1021" x2="159" y2="1021" stroke="#6b7280" stroke-width="2" stroke-dasharray="2,3" opacity="0.7"/>
  <text x="165" y="1025" fill="#6b7280" font-size="10">CPU % (left)</text>
  <line x1="290" y1="1021" x2="304" y2="1021" stroke="#6b7280" stroke-width="2.5"/>
  <circle cx="297" cy="1021" r="2" fill="#6b7280"/>
  <text x="310" y="1025" fill="#6b7280" font-size="10">GB/s (inner right)</text>
  <line x1="455" y1="1021" x2="469" y2="1021" stroke="#6b7280" stroke-width="1.5" stroke-dasharray="5,3"/>
  <text x="475" y="1025" fill="#6b7280" font-size="10">msg/s (outer right)</text>
</svg>
