<svg xmlns="http://www.w3.org/2000/svg" viewBox="0 0 980 477" font-family="system-ui, -apple-system, sans-serif">
  <rect width="980" height="477" fill="white"/>
  <text x="490.0" y="17.0" text-anchor="middle" fill="#111827" font-size="14" font-weight="700">PUSH/PULL throughput: inproc</text>
  <text x="490.0" y="31.0" text-anchor="middle" fill="#9ca3af" font-size="9">Linux VM on a 2018 Mac Mini, Intel Core i7-8700B @ 3.20GHz, 6 cores, performance governor, turbo off</text>
  <text x="223.2" y="60.0" text-anchor="middle" fill="#111827" font-size="11.5" font-weight="700">small messages: msg/s</text>
  <line x1="78.0" y1="318.0" x2="368.4" y2="318.0" stroke="#e5e7eb" stroke-width="1"/>
  <text x="70.0" y="318.0" text-anchor="end" dominant-baseline="middle" fill="#374151" font-size="8.5">50%</text>
  <line x1="78.0" y1="283.0" x2="368.4" y2="283.0" stroke="#e5e7eb" stroke-width="1"/>
  <text x="70.0" y="283.0" text-anchor="end" dominant-baseline="middle" fill="#374151" font-size="8.5">100%</text>
  <line x1="78.0" y1="248.0" x2="368.4" y2="248.0" stroke="#e5e7eb" stroke-width="1"/>
  <text x="70.0" y="248.0" text-anchor="end" dominant-baseline="middle" fill="#374151" font-size="8.5">150%</text>
  <line x1="78.0" y1="213.0" x2="368.4" y2="213.0" stroke="#e5e7eb" stroke-width="1"/>
  <text x="70.0" y="213.0" text-anchor="end" dominant-baseline="middle" fill="#374151" font-size="8.5">200%</text>
  <line x1="78.0" y1="178.0" x2="368.4" y2="178.0" stroke="#e5e7eb" stroke-width="1"/>
  <text x="70.0" y="178.0" text-anchor="end" dominant-baseline="middle" fill="#374151" font-size="8.5">250%</text>
  <line x1="78.0" y1="143.0" x2="368.4" y2="143.0" stroke="#e5e7eb" stroke-width="1"/>
  <text x="70.0" y="143.0" text-anchor="end" dominant-baseline="middle" fill="#374151" font-size="8.5">300%</text>
  <line x1="78.0" y1="108.0" x2="368.4" y2="108.0" stroke="#e5e7eb" stroke-width="1"/>
  <text x="70.0" y="108.0" text-anchor="end" dominant-baseline="middle" fill="#374151" font-size="8.5">350%</text>
  <line x1="78.0" y1="73.0" x2="368.4" y2="73.0" stroke="#e5e7eb" stroke-width="1"/>
  <text x="70.0" y="73.0" text-anchor="end" dominant-baseline="middle" fill="#374151" font-size="8.5">400%</text>
  <line x1="368.4" y1="296.3" x2="372.4" y2="296.3" stroke="#9ca3af" stroke-width="1"/>
  <text x="376.4" y="296.3" text-anchor="start" dominant-baseline="middle" fill="#6b7280" font-size="8.5">2M/s</text>
  <line x1="368.4" y1="239.6" x2="372.4" y2="239.6" stroke="#9ca3af" stroke-width="1"/>
  <text x="376.4" y="239.6" text-anchor="start" dominant-baseline="middle" fill="#6b7280" font-size="8.5">4M/s</text>
  <line x1="368.4" y1="182.9" x2="372.4" y2="182.9" stroke="#9ca3af" stroke-width="1"/>
  <text x="376.4" y="182.9" text-anchor="start" dominant-baseline="middle" fill="#6b7280" font-size="8.5">6M/s</text>
  <line x1="368.4" y1="126.2" x2="372.4" y2="126.2" stroke="#9ca3af" stroke-width="1"/>
  <text x="376.4" y="126.2" text-anchor="start" dominant-baseline="middle" fill="#6b7280" font-size="8.5">8M/s</text>
  <line x1="78.0" y1="73.0" x2="78.0" y2="353.0" stroke="#e5e7eb" stroke-width="1"/>
  <line x1="223.2" y1="73.0" x2="223.2" y2="353.0" stroke="#e5e7eb" stroke-width="1"/>
  <line x1="368.4" y1="73.0" x2="368.4" y2="353.0" stroke="#e5e7eb" stroke-width="1"/>
  <line x1="78.0" y1="73.0" x2="78.0" y2="353.0" stroke="#9ca3af" stroke-width="1.5"/>
  <line x1="368.4" y1="73.0" x2="368.4" y2="353.0" stroke="#9ca3af" stroke-width="1.5"/>
  <line x1="78.0" y1="353.0" x2="368.4" y2="353.0" stroke="#9ca3af" stroke-width="1.5"/>
  <text x="30.0" y="213.0" text-anchor="middle" fill="#374151" font-size="10" font-weight="600" transform="rotate(-90,30.0,213.0)">CPU %</text>
  <polyline points="78.0,109.3 223.2,110.6 368.4,113.2" fill="none" stroke="#15803d" stroke-width="1.6" stroke-dasharray="2,5" opacity="0.85"/>
  <polyline points="78.0,180.1 223.2,179.4 368.4,187.1" fill="none" stroke="#eab308" stroke-width="1.6" stroke-dasharray="2,5" opacity="0.85"/>
  <polyline points="78.0,212.3 223.2,212.3 368.4,212.0" fill="none" stroke="#dc2626" stroke-width="1.6" stroke-dasharray="2,5" opacity="0.85"/>
  <polyline points="78.0,283.0 223.2,283.0 368.4,283.4" fill="none" stroke="#f97316" stroke-width="1.6" stroke-dasharray="2,5" opacity="0.85"/>
  <polyline points="78.0,210.7 223.2,200.9 368.4,193.1" fill="none" stroke="#16a34a" stroke-width="1.6" stroke-dasharray="2,5" opacity="0.85"/>
  <polyline points="78.0,303.9 223.2,302.3 368.4,301.3" fill="none" stroke="#15803d" stroke-width="2.5" stroke-dasharray="6,3"/>
  <polyline points="78.0,109.5 223.2,212.0 368.4,290.0" fill="none" stroke="#eab308" stroke-width="2.5" stroke-dasharray="6,3"/>
  <polyline points="78.0,265.8 223.2,252.0 368.4,253.0" fill="none" stroke="#dc2626" stroke-width="2.5" stroke-dasharray="6,3"/>
  <polyline points="78.0,160.9 223.2,150.9 368.4,150.3" fill="none" stroke="#f97316" stroke-width="2.5" stroke-dasharray="6,3"/>
  <polyline points="78.0,282.7 223.2,280.7 368.4,284.4" fill="none" stroke="#16a34a" stroke-width="2.5" stroke-dasharray="6,3"/>
  <text x="78.0" y="367.0" text-anchor="middle" fill="#374151" font-size="8.5">16 B</text>
  <text x="223.2" y="367.0" text-anchor="middle" fill="#374151" font-size="8.5">64 B</text>
  <text x="368.4" y="367.0" text-anchor="middle" fill="#374151" font-size="8.5">256 B</text>
  <text x="684.2" y="60.0" text-anchor="middle" fill="#111827" font-size="11.5" font-weight="700">medium/large messages: GB/s</text>
  <line x1="466.4" y1="318.0" x2="902.0" y2="318.0" stroke="#e5e7eb" stroke-width="1"/>
  <text x="458.4" y="318.0" text-anchor="end" dominant-baseline="middle" fill="#374151" font-size="8.5">50%</text>
  <line x1="466.4" y1="283.0" x2="902.0" y2="283.0" stroke="#e5e7eb" stroke-width="1"/>
  <text x="458.4" y="283.0" text-anchor="end" dominant-baseline="middle" fill="#374151" font-size="8.5">100%</text>
  <line x1="466.4" y1="248.0" x2="902.0" y2="248.0" stroke="#e5e7eb" stroke-width="1"/>
  <text x="458.4" y="248.0" text-anchor="end" dominant-baseline="middle" fill="#374151" font-size="8.5">150%</text>
  <line x1="466.4" y1="213.0" x2="902.0" y2="213.0" stroke="#e5e7eb" stroke-width="1"/>
  <text x="458.4" y="213.0" text-anchor="end" dominant-baseline="middle" fill="#374151" font-size="8.5">200%</text>
  <line x1="466.4" y1="178.0" x2="902.0" y2="178.0" stroke="#e5e7eb" stroke-width="1"/>
  <text x="458.4" y="178.0" text-anchor="end" dominant-baseline="middle" fill="#374151" font-size="8.5">250%</text>
  <line x1="466.4" y1="143.0" x2="902.0" y2="143.0" stroke="#e5e7eb" stroke-width="1"/>
  <text x="458.4" y="143.0" text-anchor="end" dominant-baseline="middle" fill="#374151" font-size="8.5">300%</text>
  <line x1="466.4" y1="108.0" x2="902.0" y2="108.0" stroke="#e5e7eb" stroke-width="1"/>
  <text x="458.4" y="108.0" text-anchor="end" dominant-baseline="middle" fill="#374151" font-size="8.5">350%</text>
  <line x1="466.4" y1="73.0" x2="902.0" y2="73.0" stroke="#e5e7eb" stroke-width="1"/>
  <text x="458.4" y="73.0" text-anchor="end" dominant-baseline="middle" fill="#374151" font-size="8.5">400%</text>
  <line x1="902.0" y1="353.0" x2="906.0" y2="353.0" stroke="#9ca3af" stroke-width="1"/>
  <text x="910.0" y="353.0" text-anchor="start" dominant-baseline="middle" fill="#6b7280" font-size="8.5">0.1 GB/s</text>
  <line x1="902.0" y1="283.0" x2="906.0" y2="283.0" stroke="#9ca3af" stroke-width="1"/>
  <text x="910.0" y="283.0" text-anchor="start" dominant-baseline="middle" fill="#6b7280" font-size="8.5">1 GB/s</text>
  <line x1="902.0" y1="213.0" x2="906.0" y2="213.0" stroke="#9ca3af" stroke-width="1"/>
  <text x="910.0" y="213.0" text-anchor="start" dominant-baseline="middle" fill="#6b7280" font-size="8.5">10 GB/s</text>
  <line x1="902.0" y1="143.0" x2="906.0" y2="143.0" stroke="#9ca3af" stroke-width="1"/>
  <text x="910.0" y="143.0" text-anchor="start" dominant-baseline="middle" fill="#6b7280" font-size="8.5">100 GB/s</text>
  <line x1="902.0" y1="73.0" x2="906.0" y2="73.0" stroke="#9ca3af" stroke-width="1"/>
  <text x="910.0" y="73.0" text-anchor="start" dominant-baseline="middle" fill="#6b7280" font-size="8.5">1000 GB/s</text>
  <line x1="466.4" y1="73.0" x2="466.4" y2="353.0" stroke="#e5e7eb" stroke-width="1"/>
  <line x1="611.6" y1="73.0" x2="611.6" y2="353.0" stroke="#e5e7eb" stroke-width="1"/>
  <line x1="756.8" y1="73.0" x2="756.8" y2="353.0" stroke="#e5e7eb" stroke-width="1"/>
  <line x1="902.0" y1="73.0" x2="902.0" y2="353.0" stroke="#e5e7eb" stroke-width="1"/>
  <line x1="466.4" y1="73.0" x2="466.4" y2="353.0" stroke="#9ca3af" stroke-width="1.5"/>
  <line x1="902.0" y1="73.0" x2="902.0" y2="353.0" stroke="#9ca3af" stroke-width="1.5"/>
  <line x1="466.4" y1="353.0" x2="902.0" y2="353.0" stroke="#9ca3af" stroke-width="1.5"/>
  <text x="418.4" y="213.0" text-anchor="middle" fill="#374151" font-size="10" font-weight="600" transform="rotate(-90,418.4,213.0)">CPU %</text>
  <polyline points="466.4,113.2 611.6,129.5 756.8,118.3 902.0,115.1" fill="none" stroke="#15803d" stroke-width="1.6" stroke-dasharray="2,5" opacity="0.85"/>
  <polyline points="466.4,187.1 611.6,184.0 756.8,180.5 902.0,192.4" fill="none" stroke="#eab308" stroke-width="1.6" stroke-dasharray="2,5" opacity="0.85"/>
  <polyline points="466.4,212.0 611.6,212.0 756.8,212.0 902.0,212.3" fill="none" stroke="#dc2626" stroke-width="1.6" stroke-dasharray="2,5" opacity="0.85"/>
  <polyline points="466.4,283.4 611.6,283.4 756.8,283.4 902.0,283.0" fill="none" stroke="#f97316" stroke-width="1.6" stroke-dasharray="2,5" opacity="0.85"/>
  <polyline points="466.4,193.1 611.6,168.2 756.8,215.2 902.0,236.9" fill="none" stroke="#16a34a" stroke-width="1.6" stroke-dasharray="2,5" opacity="0.85"/>
  <polyline points="466.4,306.2 611.6,264.4 756.8,222.2 902.0,181.0" fill="none" stroke="#15803d" stroke-width="2.5" stroke-linecap="round" stroke-linejoin="round"/>
  <circle cx="466.4" cy="306.2" r="3" fill="#15803d" stroke="white" stroke-width="1"/>
  <circle cx="611.6" cy="264.4" r="3" fill="#15803d" stroke="white" stroke-width="1"/>
  <circle cx="756.8" cy="222.2" r="3" fill="#15803d" stroke="white" stroke-width="1"/>
  <circle cx="902.0" cy="181.0" r="3" fill="#15803d" stroke="white" stroke-width="1"/>
  <polyline points="466.4,300.1 611.6,265.1 756.8,228.3 902.0,198.0" fill="none" stroke="#eab308" stroke-width="2.5" stroke-linecap="round" stroke-linejoin="round"/>
  <circle cx="466.4" cy="300.1" r="3" fill="#eab308" stroke="white" stroke-width="1"/>
  <circle cx="611.6" cy="265.1" r="3" fill="#eab308" stroke="white" stroke-width="1"/>
  <circle cx="756.8" cy="228.3" r="3" fill="#eab308" stroke="white" stroke-width="1"/>
  <circle cx="902.0" cy="198.0" r="3" fill="#eab308" stroke="white" stroke-width="1"/>
  <polyline points="466.4,286.1 611.6,245.3 756.8,199.9 902.0,159.9" fill="none" stroke="#dc2626" stroke-width="2.5" stroke-linecap="round" stroke-linejoin="round"/>
  <circle cx="466.4" cy="286.1" r="3" fill="#dc2626" stroke="white" stroke-width="1"/>
  <circle cx="611.6" cy="245.3" r="3" fill="#dc2626" stroke="white" stroke-width="1"/>
  <circle cx="756.8" cy="199.9" r="3" fill="#dc2626" stroke="white" stroke-width="1"/>
  <circle cx="902.0" cy="159.9" r="3" fill="#dc2626" stroke="white" stroke-width="1"/>
  <polyline points="466.4,264.6 611.6,222.6 756.8,181.0 902.0,138.2" fill="none" stroke="#f97316" stroke-width="2.5" stroke-linecap="round" stroke-linejoin="round"/>
  <circle cx="466.4" cy="264.6" r="3" fill="#f97316" stroke="white" stroke-width="1"/>
  <circle cx="611.6" cy="222.6" r="3" fill="#f97316" stroke="white" stroke-width="1"/>
  <circle cx="756.8" cy="181.0" r="3" fill="#f97316" stroke="white" stroke-width="1"/>
  <circle cx="902.0" cy="138.2" r="3" fill="#f97316" stroke="white" stroke-width="1"/>
  <polyline points="466.4,297.6 611.6,265.2 756.8,252.7 902.0,265.1" fill="none" stroke="#16a34a" stroke-width="2.5" stroke-linecap="round" stroke-linejoin="round"/>
  <circle cx="466.4" cy="297.6" r="3" fill="#16a34a" stroke="white" stroke-width="1"/>
  <circle cx="611.6" cy="265.2" r="3" fill="#16a34a" stroke="white" stroke-width="1"/>
  <circle cx="756.8" cy="252.7" r="3" fill="#16a34a" stroke="white" stroke-width="1"/>
  <circle cx="902.0" cy="265.1" r="3" fill="#16a34a" stroke="white" stroke-width="1"/>
  <text x="466.4" y="367.0" text-anchor="middle" fill="#374151" font-size="8.5">256 B</text>
  <text x="611.6" y="367.0" text-anchor="middle" fill="#374151" font-size="8.5">1 KiB</text>
  <text x="756.8" y="367.0" text-anchor="middle" fill="#374151" font-size="8.5">4 KiB</text>
  <text x="902.0" y="367.0" text-anchor="middle" fill="#374151" font-size="8.5">16 KiB</text>
  <line x1="205" y1="391" x2="219" y2="391" stroke="#eab308" stroke-width="2.5"/>
  <circle cx="212" cy="391" r="2.5" fill="#eab308"/>
  <text x="225" y="395" fill="#374151" font-size="11" font-weight="500">libzmq v4.3.5</text>
  <line x1="395" y1="391" x2="409" y2="391" stroke="#f97316" stroke-width="2.5"/>
  <circle cx="402" cy="391" r="2.5" fill="#f97316"/>
  <text x="415" y="395" fill="#374151" font-size="11" font-weight="500">omq-tokio (ST)</text>
  <line x1="585" y1="391" x2="599" y2="391" stroke="#dc2626" stroke-width="2.5"/>
  <circle cx="592" cy="391" r="2.5" fill="#dc2626"/>
  <text x="605" y="395" fill="#374151" font-size="11" font-weight="500">omq-tokio (MT)</text>
  <line x1="300" y1="411" x2="314" y2="411" stroke="#16a34a" stroke-width="2.5"/>
  <circle cx="307" cy="411" r="2.5" fill="#16a34a"/>
  <text x="320" y="415" fill="#374151" font-size="11" font-weight="500">rzmq v0.5.22 (MT)</text>
  <line x1="490" y1="411" x2="504" y2="411" stroke="#15803d" stroke-width="2.5"/>
  <circle cx="497" cy="411" r="2.5" fill="#15803d"/>
  <text x="510" y="415" fill="#374151" font-size="11" font-weight="500">rzmq v0.5.22 (io_uring, MT)</text>
  <text x="490.0" y="429" text-anchor="middle" fill="#9ca3af" font-size="9">ST = single-threaded   MT = multi-threaded</text>
  <line x1="205" y1="451" x2="219" y2="451" stroke="#6b7280" stroke-width="1.6" stroke-dasharray="2,5" opacity="0.85"/>
  <text x="225" y="455" fill="#6b7280" font-size="10">CPU % (left)</text>
  <line x1="350" y1="451" x2="364" y2="451" stroke="#6b7280" stroke-width="2.5" stroke-dasharray="6,3"/>
  <text x="370" y="455" fill="#6b7280" font-size="10">msg/s (small panel)</text>
  <line x1="540" y1="451" x2="554" y2="451" stroke="#6b7280" stroke-width="2.5"/>
  <circle cx="547" cy="451" r="3.0" fill="#6b7280"/>
  <text x="560" y="455" fill="#6b7280" font-size="10">GB/s (large panel, log)</text>
</svg>
