<svg xmlns="http://www.w3.org/2000/svg" viewBox="0 0 980 490" font-family="system-ui, -apple-system, sans-serif">
  <rect width="980" height="490" fill="white"/>
  <text x="490.0" y="17.0" text-anchor="middle" fill="#111827" font-size="14" font-weight="700">PUSH/PULL throughput: inproc</text>
  <text x="490.0" y="31.0" text-anchor="middle" fill="#9ca3af" font-size="9">Linux VM on a 2018 Mac Mini, Intel Core i7-8700B @ 3.20GHz, 6 cores, performance governor, turbo off</text>
  <text x="223.2" y="60.0" text-anchor="middle" fill="#111827" font-size="11.5" font-weight="700">small messages: msg/s</text>
  <line x1="78.0" y1="318.0" x2="368.4" y2="318.0" stroke="#e5e7eb" stroke-width="1"/>
  <text x="70.0" y="318.0" text-anchor="end" dominant-baseline="middle" fill="#374151" font-size="8.5">50%</text>
  <line x1="78.0" y1="283.0" x2="368.4" y2="283.0" stroke="#e5e7eb" stroke-width="1"/>
  <text x="70.0" y="283.0" text-anchor="end" dominant-baseline="middle" fill="#374151" font-size="8.5">100%</text>
  <line x1="78.0" y1="248.0" x2="368.4" y2="248.0" stroke="#e5e7eb" stroke-width="1"/>
  <text x="70.0" y="248.0" text-anchor="end" dominant-baseline="middle" fill="#374151" font-size="8.5">150%</text>
  <line x1="78.0" y1="213.0" x2="368.4" y2="213.0" stroke="#e5e7eb" stroke-width="1"/>
  <text x="70.0" y="213.0" text-anchor="end" dominant-baseline="middle" fill="#374151" font-size="8.5">200%</text>
  <line x1="78.0" y1="178.0" x2="368.4" y2="178.0" stroke="#e5e7eb" stroke-width="1"/>
  <text x="70.0" y="178.0" text-anchor="end" dominant-baseline="middle" fill="#374151" font-size="8.5">250%</text>
  <line x1="78.0" y1="143.0" x2="368.4" y2="143.0" stroke="#e5e7eb" stroke-width="1"/>
  <text x="70.0" y="143.0" text-anchor="end" dominant-baseline="middle" fill="#374151" font-size="8.5">300%</text>
  <line x1="78.0" y1="108.0" x2="368.4" y2="108.0" stroke="#e5e7eb" stroke-width="1"/>
  <text x="70.0" y="108.0" text-anchor="end" dominant-baseline="middle" fill="#374151" font-size="8.5">350%</text>
  <line x1="78.0" y1="73.0" x2="368.4" y2="73.0" stroke="#e5e7eb" stroke-width="1"/>
  <text x="70.0" y="73.0" text-anchor="end" dominant-baseline="middle" fill="#374151" font-size="8.5">400%</text>
  <line x1="368.4" y1="294.1" x2="372.4" y2="294.1" stroke="#9ca3af" stroke-width="1"/>
  <text x="376.4" y="294.1" text-anchor="start" dominant-baseline="middle" fill="#6b7280" font-size="8.5">2M/s</text>
  <line x1="368.4" y1="235.1" x2="372.4" y2="235.1" stroke="#9ca3af" stroke-width="1"/>
  <text x="376.4" y="235.1" text-anchor="start" dominant-baseline="middle" fill="#6b7280" font-size="8.5">4M/s</text>
  <line x1="368.4" y1="176.2" x2="372.4" y2="176.2" stroke="#9ca3af" stroke-width="1"/>
  <text x="376.4" y="176.2" text-anchor="start" dominant-baseline="middle" fill="#6b7280" font-size="8.5">6M/s</text>
  <line x1="368.4" y1="117.2" x2="372.4" y2="117.2" stroke="#9ca3af" stroke-width="1"/>
  <text x="376.4" y="117.2" text-anchor="start" dominant-baseline="middle" fill="#6b7280" font-size="8.5">8M/s</text>
  <line x1="78.0" y1="73.0" x2="78.0" y2="353.0" stroke="#e5e7eb" stroke-width="1"/>
  <line x1="174.8" y1="73.0" x2="174.8" y2="353.0" stroke="#e5e7eb" stroke-width="1"/>
  <line x1="271.6" y1="73.0" x2="271.6" y2="353.0" stroke="#e5e7eb" stroke-width="1"/>
  <line x1="368.4" y1="73.0" x2="368.4" y2="353.0" stroke="#e5e7eb" stroke-width="1"/>
  <line x1="78.0" y1="73.0" x2="78.0" y2="353.0" stroke="#9ca3af" stroke-width="1.5"/>
  <line x1="368.4" y1="73.0" x2="368.4" y2="353.0" stroke="#9ca3af" stroke-width="1.5"/>
  <line x1="78.0" y1="353.0" x2="368.4" y2="353.0" stroke="#9ca3af" stroke-width="1.5"/>
  <text x="30.0" y="213.0" text-anchor="middle" fill="#374151" font-size="10" font-weight="600" transform="rotate(-90,30.0,213.0)">CPU %</text>
  <polyline points="78.0,125.8 174.8,121.8 271.6,143.5 368.4,137.2" fill="none" stroke="#15803d" stroke-width="1.6" stroke-dasharray="2,5" opacity="0.85"/>
  <polyline points="78.0,191.5 174.8,191.3 271.6,198.8 368.4,193.4" fill="none" stroke="#eab308" stroke-width="1.6" stroke-dasharray="2,5" opacity="0.85"/>
  <polyline points="78.0,212.3 174.8,212.3 271.6,211.8 368.4,212.1" fill="none" stroke="#dc2626" stroke-width="1.6" stroke-dasharray="2,5" opacity="0.85"/>
  <polyline points="78.0,283.0 174.8,283.0 271.6,283.0 368.4,283.0" fill="none" stroke="#f97316" stroke-width="1.6" stroke-dasharray="2,5" opacity="0.85"/>
  <polyline points="78.0,131.9 174.8,126.1 271.6,132.4 368.4,130.7" fill="none" stroke="#16a34a" stroke-width="1.6" stroke-dasharray="2,5" opacity="0.85"/>
  <polyline points="78.0,251.0 174.8,249.0 271.6,253.3 368.4,251.1" fill="none" stroke="#15803d" stroke-width="2.5" stroke-dasharray="6,3"/>
  <circle cx="78.0" cy="251.0" r="3" fill="#15803d" stroke="white" stroke-width="1"/>
  <circle cx="174.8" cy="249.0" r="3" fill="#15803d" stroke="white" stroke-width="1"/>
  <circle cx="271.6" cy="253.3" r="3" fill="#15803d" stroke="white" stroke-width="1"/>
  <circle cx="368.4" cy="251.1" r="3" fill="#15803d" stroke="white" stroke-width="1"/>
  <polyline points="78.0,109.5 174.8,216.2 271.6,289.0 368.4,303.3" fill="none" stroke="#eab308" stroke-width="2.5" stroke-dasharray="6,3"/>
  <circle cx="78.0" cy="109.5" r="3" fill="#eab308" stroke="white" stroke-width="1"/>
  <circle cx="174.8" cy="216.2" r="3" fill="#eab308" stroke="white" stroke-width="1"/>
  <circle cx="271.6" cy="289.0" r="3" fill="#eab308" stroke="white" stroke-width="1"/>
  <circle cx="368.4" cy="303.3" r="3" fill="#eab308" stroke="white" stroke-width="1"/>
  <polyline points="78.0,269.0 174.8,265.2 271.6,263.8 368.4,266.1" fill="none" stroke="#dc2626" stroke-width="2.5" stroke-dasharray="6,3"/>
  <circle cx="78.0" cy="269.0" r="3" fill="#dc2626" stroke="white" stroke-width="1"/>
  <circle cx="174.8" cy="265.2" r="3" fill="#dc2626" stroke="white" stroke-width="1"/>
  <circle cx="271.6" cy="263.8" r="3" fill="#dc2626" stroke="white" stroke-width="1"/>
  <circle cx="368.4" cy="266.1" r="3" fill="#dc2626" stroke="white" stroke-width="1"/>
  <polyline points="78.0,200.7 174.8,190.8 271.6,192.8 368.4,190.6" fill="none" stroke="#f97316" stroke-width="2.5" stroke-dasharray="6,3"/>
  <circle cx="78.0" cy="200.7" r="3" fill="#f97316" stroke="white" stroke-width="1"/>
  <circle cx="174.8" cy="190.8" r="3" fill="#f97316" stroke="white" stroke-width="1"/>
  <circle cx="271.6" cy="192.8" r="3" fill="#f97316" stroke="white" stroke-width="1"/>
  <circle cx="368.4" cy="190.6" r="3" fill="#f97316" stroke="white" stroke-width="1"/>
  <polyline points="78.0,248.1 174.8,248.4 271.6,253.3 368.4,248.5" fill="none" stroke="#16a34a" stroke-width="2.5" stroke-dasharray="6,3"/>
  <circle cx="78.0" cy="248.1" r="3" fill="#16a34a" stroke="white" stroke-width="1"/>
  <circle cx="174.8" cy="248.4" r="3" fill="#16a34a" stroke="white" stroke-width="1"/>
  <circle cx="271.6" cy="253.3" r="3" fill="#16a34a" stroke="white" stroke-width="1"/>
  <circle cx="368.4" cy="248.5" r="3" fill="#16a34a" stroke="white" stroke-width="1"/>
  <text x="78.0" y="367.0" text-anchor="middle" fill="#374151" font-size="8.5">16 B</text>
  <text x="174.8" y="367.0" text-anchor="middle" fill="#374151" font-size="8.5">64 B</text>
  <text x="271.6" y="367.0" text-anchor="middle" fill="#374151" font-size="8.5">256 B</text>
  <text x="368.4" y="367.0" text-anchor="middle" fill="#374151" font-size="8.5">1 KiB</text>
  <text x="684.2" y="60.0" text-anchor="middle" fill="#111827" font-size="11.5" font-weight="700">medium/large messages: GB/s</text>
  <line x1="466.4" y1="318.0" x2="902.0" y2="318.0" stroke="#e5e7eb" stroke-width="1"/>
  <text x="458.4" y="318.0" text-anchor="end" dominant-baseline="middle" fill="#374151" font-size="8.5">50%</text>
  <line x1="466.4" y1="283.0" x2="902.0" y2="283.0" stroke="#e5e7eb" stroke-width="1"/>
  <text x="458.4" y="283.0" text-anchor="end" dominant-baseline="middle" fill="#374151" font-size="8.5">100%</text>
  <line x1="466.4" y1="248.0" x2="902.0" y2="248.0" stroke="#e5e7eb" stroke-width="1"/>
  <text x="458.4" y="248.0" text-anchor="end" dominant-baseline="middle" fill="#374151" font-size="8.5">150%</text>
  <line x1="466.4" y1="213.0" x2="902.0" y2="213.0" stroke="#e5e7eb" stroke-width="1"/>
  <text x="458.4" y="213.0" text-anchor="end" dominant-baseline="middle" fill="#374151" font-size="8.5">200%</text>
  <line x1="466.4" y1="178.0" x2="902.0" y2="178.0" stroke="#e5e7eb" stroke-width="1"/>
  <text x="458.4" y="178.0" text-anchor="end" dominant-baseline="middle" fill="#374151" font-size="8.5">250%</text>
  <line x1="466.4" y1="143.0" x2="902.0" y2="143.0" stroke="#e5e7eb" stroke-width="1"/>
  <text x="458.4" y="143.0" text-anchor="end" dominant-baseline="middle" fill="#374151" font-size="8.5">300%</text>
  <line x1="466.4" y1="108.0" x2="902.0" y2="108.0" stroke="#e5e7eb" stroke-width="1"/>
  <text x="458.4" y="108.0" text-anchor="end" dominant-baseline="middle" fill="#374151" font-size="8.5">350%</text>
  <line x1="466.4" y1="73.0" x2="902.0" y2="73.0" stroke="#e5e7eb" stroke-width="1"/>
  <text x="458.4" y="73.0" text-anchor="end" dominant-baseline="middle" fill="#374151" font-size="8.5">400%</text>
  <line x1="902.0" y1="353.0" x2="906.0" y2="353.0" stroke="#9ca3af" stroke-width="1"/>
  <text x="910.0" y="353.0" text-anchor="start" dominant-baseline="middle" fill="#6b7280" font-size="8.5">0.1 GB/s</text>
  <line x1="902.0" y1="283.0" x2="906.0" y2="283.0" stroke="#9ca3af" stroke-width="1"/>
  <text x="910.0" y="283.0" text-anchor="start" dominant-baseline="middle" fill="#6b7280" font-size="8.5">1 GB/s</text>
  <line x1="902.0" y1="213.0" x2="906.0" y2="213.0" stroke="#9ca3af" stroke-width="1"/>
  <text x="910.0" y="213.0" text-anchor="start" dominant-baseline="middle" fill="#6b7280" font-size="8.5">10 GB/s</text>
  <line x1="902.0" y1="143.0" x2="906.0" y2="143.0" stroke="#9ca3af" stroke-width="1"/>
  <text x="910.0" y="143.0" text-anchor="start" dominant-baseline="middle" fill="#6b7280" font-size="8.5">100 GB/s</text>
  <line x1="902.0" y1="73.0" x2="906.0" y2="73.0" stroke="#9ca3af" stroke-width="1"/>
  <text x="910.0" y="73.0" text-anchor="start" dominant-baseline="middle" fill="#6b7280" font-size="8.5">1000 GB/s</text>
  <line x1="466.4" y1="73.0" x2="466.4" y2="353.0" stroke="#e5e7eb" stroke-width="1"/>
  <line x1="611.6" y1="73.0" x2="611.6" y2="353.0" stroke="#e5e7eb" stroke-width="1"/>
  <line x1="756.8" y1="73.0" x2="756.8" y2="353.0" stroke="#e5e7eb" stroke-width="1"/>
  <line x1="902.0" y1="73.0" x2="902.0" y2="353.0" stroke="#e5e7eb" stroke-width="1"/>
  <line x1="466.4" y1="73.0" x2="466.4" y2="353.0" stroke="#9ca3af" stroke-width="1.5"/>
  <line x1="902.0" y1="73.0" x2="902.0" y2="353.0" stroke="#9ca3af" stroke-width="1.5"/>
  <line x1="466.4" y1="353.0" x2="902.0" y2="353.0" stroke="#9ca3af" stroke-width="1.5"/>
  <text x="418.4" y="213.0" text-anchor="middle" fill="#374151" font-size="10" font-weight="600" transform="rotate(-90,418.4,213.0)">CPU %</text>
  <polyline points="466.4,143.5 611.6,137.2 756.8,127.9 902.0,134.4" fill="none" stroke="#15803d" stroke-width="1.6" stroke-dasharray="2,5" opacity="0.85"/>
  <polyline points="466.4,198.8 611.6,193.4 756.8,191.3 902.0,199.5" fill="none" stroke="#eab308" stroke-width="1.6" stroke-dasharray="2,5" opacity="0.85"/>
  <polyline points="466.4,211.8 611.6,212.1 756.8,212.3 902.0,212.8" fill="none" stroke="#dc2626" stroke-width="1.6" stroke-dasharray="2,5" opacity="0.85"/>
  <polyline points="466.4,283.0 611.6,283.0 756.8,283.0 902.0,283.0" fill="none" stroke="#f97316" stroke-width="1.6" stroke-dasharray="2,5" opacity="0.85"/>
  <polyline points="466.4,132.4 611.6,130.7 756.8,126.3 902.0,132.6" fill="none" stroke="#16a34a" stroke-width="1.6" stroke-dasharray="2,5" opacity="0.85"/>
  <polyline points="466.4,287.4 611.6,244.6 756.8,202.5 902.0,159.5" fill="none" stroke="#15803d" stroke-width="2.5" stroke-linecap="round" stroke-linejoin="round"/>
  <circle cx="466.4" cy="287.4" r="3" fill="#15803d" stroke="white" stroke-width="1"/>
  <circle cx="611.6" cy="244.6" r="3" fill="#15803d" stroke="white" stroke-width="1"/>
  <circle cx="756.8" cy="202.5" r="3" fill="#15803d" stroke="white" stroke-width="1"/>
  <circle cx="902.0" cy="159.5" r="3" fill="#15803d" stroke="white" stroke-width="1"/>
  <polyline points="466.4,300.9 611.6,266.4 756.8,229.4 902.0,198.3" fill="none" stroke="#eab308" stroke-width="2.5" stroke-linecap="round" stroke-linejoin="round"/>
  <circle cx="466.4" cy="300.9" r="3" fill="#eab308" stroke="white" stroke-width="1"/>
  <circle cx="611.6" cy="266.4" r="3" fill="#eab308" stroke="white" stroke-width="1"/>
  <circle cx="756.8" cy="229.4" r="3" fill="#eab308" stroke="white" stroke-width="1"/>
  <circle cx="902.0" cy="198.3" r="3" fill="#eab308" stroke="white" stroke-width="1"/>
  <polyline points="466.4,290.8 611.6,249.4 756.8,207.5 902.0,165.7" fill="none" stroke="#dc2626" stroke-width="2.5" stroke-linecap="round" stroke-linejoin="round"/>
  <circle cx="466.4" cy="290.8" r="3" fill="#dc2626" stroke="white" stroke-width="1"/>
  <circle cx="611.6" cy="249.4" r="3" fill="#dc2626" stroke="white" stroke-width="1"/>
  <circle cx="756.8" cy="207.5" r="3" fill="#dc2626" stroke="white" stroke-width="1"/>
  <circle cx="902.0" cy="165.7" r="3" fill="#dc2626" stroke="white" stroke-width="1"/>
  <polyline points="466.4,273.0 611.6,230.4 756.8,189.1 902.0,147.0" fill="none" stroke="#f97316" stroke-width="2.5" stroke-linecap="round" stroke-linejoin="round"/>
  <circle cx="466.4" cy="273.0" r="3" fill="#f97316" stroke="white" stroke-width="1"/>
  <circle cx="611.6" cy="230.4" r="3" fill="#f97316" stroke="white" stroke-width="1"/>
  <circle cx="756.8" cy="189.1" r="3" fill="#f97316" stroke="white" stroke-width="1"/>
  <circle cx="902.0" cy="147.0" r="3" fill="#f97316" stroke="white" stroke-width="1"/>
  <polyline points="466.4,287.4 611.6,243.8 756.8,203.1 902.0,160.0" fill="none" stroke="#16a34a" stroke-width="2.5" stroke-linecap="round" stroke-linejoin="round"/>
  <circle cx="466.4" cy="287.4" r="3" fill="#16a34a" stroke="white" stroke-width="1"/>
  <circle cx="611.6" cy="243.8" r="3" fill="#16a34a" stroke="white" stroke-width="1"/>
  <circle cx="756.8" cy="203.1" r="3" fill="#16a34a" stroke="white" stroke-width="1"/>
  <circle cx="902.0" cy="160.0" r="3" fill="#16a34a" stroke="white" stroke-width="1"/>
  <text x="466.4" y="367.0" text-anchor="middle" fill="#374151" font-size="8.5">256 B</text>
  <text x="611.6" y="367.0" text-anchor="middle" fill="#374151" font-size="8.5">1 KiB</text>
  <text x="756.8" y="367.0" text-anchor="middle" fill="#374151" font-size="8.5">4 KiB</text>
  <text x="902.0" y="367.0" text-anchor="middle" fill="#374151" font-size="8.5">16 KiB</text>
  <line x1="205" y1="391" x2="219" y2="391" stroke="#eab308" stroke-width="2.5"/>
  <circle cx="212" cy="391" r="2.5" fill="#eab308"/>
  <text x="225" y="395" fill="#374151" font-size="11" font-weight="500">libzmq v4.3.5 (1T)</text>
  <line x1="395" y1="391" x2="409" y2="391" stroke="#f97316" stroke-width="2.5"/>
  <circle cx="402" cy="391" r="2.5" fill="#f97316"/>
  <text x="415" y="395" fill="#374151" font-size="11" font-weight="500">omq-tokio (1T)</text>
  <line x1="585" y1="391" x2="599" y2="391" stroke="#dc2626" stroke-width="2.5"/>
  <circle cx="592" cy="391" r="2.5" fill="#dc2626"/>
  <text x="605" y="395" fill="#374151" font-size="11" font-weight="500">omq-tokio (2T)</text>
  <line x1="300" y1="411" x2="314" y2="411" stroke="#16a34a" stroke-width="2.5"/>
  <circle cx="307" cy="411" r="2.5" fill="#16a34a"/>
  <text x="320" y="415" fill="#374151" font-size="11" font-weight="500">rzmq v0.5.24 [6T]</text>
  <line x1="490" y1="411" x2="504" y2="411" stroke="#15803d" stroke-width="2.5"/>
  <circle cx="497" cy="411" r="2.5" fill="#15803d"/>
  <text x="510" y="415" fill="#374151" font-size="11" font-weight="500">rzmq v0.5.24 (io_uring) [6T]</text>
  <text x="205" y="429" fill="#9ca3af" font-size="9">(nT) = configurable IO threads</text>
  <text x="205" y="442" fill="#9ca3af" font-size="9">[nT] = fixed IO threads</text>
  <line x1="205" y1="464" x2="219" y2="464" stroke="#6b7280" stroke-width="1.6" stroke-dasharray="2,5" opacity="0.85"/>
  <text x="225" y="468" fill="#6b7280" font-size="10">CPU % (left)</text>
  <line x1="350" y1="464" x2="364" y2="464" stroke="#6b7280" stroke-width="2.5" stroke-dasharray="6,3"/>
  <text x="370" y="468" fill="#6b7280" font-size="10">msg/s (small panel)</text>
  <line x1="540" y1="464" x2="554" y2="464" stroke="#6b7280" stroke-width="2.5"/>
  <text x="560" y="468" fill="#6b7280" font-size="10">GB/s (large panel, log)</text>
</svg>
