<svg xmlns="http://www.w3.org/2000/svg" viewBox="0 0 875 572" font-family="system-ui, -apple-system, sans-serif">
  <rect width="875" height="572" fill="white"/>
  <text x="395.0" y="32.0" text-anchor="middle" fill="#111827" font-size="13" font-weight="700">PUSH/PULL throughput: inproc</text>
  <line x1="90.0" y1="368.4" x2="700.0" y2="368.4" stroke="#e5e7eb" stroke-width="1"/>
  <text x="82.0" y="368.4" text-anchor="end" dominant-baseline="middle" fill="#374151" font-size="10">50%</text>
  <line x1="90.0" y1="322.8" x2="700.0" y2="322.8" stroke="#e5e7eb" stroke-width="1"/>
  <text x="82.0" y="322.8" text-anchor="end" dominant-baseline="middle" fill="#374151" font-size="10">100%</text>
  <line x1="90.0" y1="277.1" x2="700.0" y2="277.1" stroke="#e5e7eb" stroke-width="1"/>
  <text x="82.0" y="277.1" text-anchor="end" dominant-baseline="middle" fill="#374151" font-size="10">150%</text>
  <line x1="90.0" y1="231.5" x2="700.0" y2="231.5" stroke="#e5e7eb" stroke-width="1"/>
  <text x="82.0" y="231.5" text-anchor="end" dominant-baseline="middle" fill="#374151" font-size="10">200%</text>
  <line x1="90.0" y1="185.9" x2="700.0" y2="185.9" stroke="#e5e7eb" stroke-width="1"/>
  <text x="82.0" y="185.9" text-anchor="end" dominant-baseline="middle" fill="#374151" font-size="10">250%</text>
  <line x1="90.0" y1="140.2" x2="700.0" y2="140.2" stroke="#e5e7eb" stroke-width="1"/>
  <text x="82.0" y="140.2" text-anchor="end" dominant-baseline="middle" fill="#374151" font-size="10">300%</text>
  <line x1="90.0" y1="94.6" x2="700.0" y2="94.6" stroke="#e5e7eb" stroke-width="1"/>
  <text x="82.0" y="94.6" text-anchor="end" dominant-baseline="middle" fill="#374151" font-size="10">350%</text>
  <line x1="90.0" y1="49.0" x2="700.0" y2="49.0" stroke="#e5e7eb" stroke-width="1"/>
  <text x="82.0" y="49.0" text-anchor="end" dominant-baseline="middle" fill="#374151" font-size="10">400%</text>
  <line x1="90.0" y1="414.0" x2="700.0" y2="414.0" stroke="#e5e7eb" stroke-width="1" stroke-dasharray="3,6"/>
  <text x="708.0" y="414.0" text-anchor="start" dominant-baseline="middle" fill="#6b7280" font-size="10">0.01 GB/s</text>
  <line x1="90.0" y1="392.0" x2="700.0" y2="392.0" stroke="#e5e7eb" stroke-width="1" stroke-dasharray="2,8"/>
  <line x1="90.0" y1="363.0" x2="700.0" y2="363.0" stroke="#e5e7eb" stroke-width="1" stroke-dasharray="2,8"/>
  <line x1="90.0" y1="341.0" x2="700.0" y2="341.0" stroke="#e5e7eb" stroke-width="1" stroke-dasharray="3,6"/>
  <text x="708.0" y="341.0" text-anchor="start" dominant-baseline="middle" fill="#6b7280" font-size="10">0.1 GB/s</text>
  <line x1="90.0" y1="319.0" x2="700.0" y2="319.0" stroke="#e5e7eb" stroke-width="1" stroke-dasharray="2,8"/>
  <line x1="90.0" y1="290.0" x2="700.0" y2="290.0" stroke="#e5e7eb" stroke-width="1" stroke-dasharray="2,8"/>
  <line x1="90.0" y1="268.0" x2="700.0" y2="268.0" stroke="#e5e7eb" stroke-width="1" stroke-dasharray="3,6"/>
  <text x="708.0" y="268.0" text-anchor="start" dominant-baseline="middle" fill="#6b7280" font-size="10">1 GB/s</text>
  <line x1="90.0" y1="246.0" x2="700.0" y2="246.0" stroke="#e5e7eb" stroke-width="1" stroke-dasharray="2,8"/>
  <line x1="90.0" y1="217.0" x2="700.0" y2="217.0" stroke="#e5e7eb" stroke-width="1" stroke-dasharray="2,8"/>
  <line x1="90.0" y1="195.0" x2="700.0" y2="195.0" stroke="#e5e7eb" stroke-width="1" stroke-dasharray="3,6"/>
  <text x="708.0" y="195.0" text-anchor="start" dominant-baseline="middle" fill="#6b7280" font-size="10">10 GB/s</text>
  <line x1="90.0" y1="173.0" x2="700.0" y2="173.0" stroke="#e5e7eb" stroke-width="1" stroke-dasharray="2,8"/>
  <line x1="90.0" y1="144.0" x2="700.0" y2="144.0" stroke="#e5e7eb" stroke-width="1" stroke-dasharray="2,8"/>
  <line x1="90.0" y1="122.0" x2="700.0" y2="122.0" stroke="#e5e7eb" stroke-width="1" stroke-dasharray="3,6"/>
  <text x="708.0" y="122.0" text-anchor="start" dominant-baseline="middle" fill="#6b7280" font-size="10">100 GB/s</text>
  <line x1="90.0" y1="100.0" x2="700.0" y2="100.0" stroke="#e5e7eb" stroke-width="1" stroke-dasharray="2,8"/>
  <line x1="90.0" y1="71.0" x2="700.0" y2="71.0" stroke="#e5e7eb" stroke-width="1" stroke-dasharray="2,8"/>
  <line x1="90.0" y1="49.0" x2="700.0" y2="49.0" stroke="#e5e7eb" stroke-width="1" stroke-dasharray="3,6"/>
  <text x="708.0" y="49.0" text-anchor="start" dominant-baseline="middle" fill="#6b7280" font-size="10">1000 GB/s</text>
  <text x="788.0" y="340.1" text-anchor="start" dominant-baseline="middle" fill="#9ca3af" font-size="10">2M/s</text>
  <text x="788.0" y="266.2" text-anchor="start" dominant-baseline="middle" fill="#9ca3af" font-size="10">4M/s</text>
  <text x="788.0" y="192.2" text-anchor="start" dominant-baseline="middle" fill="#9ca3af" font-size="10">6M/s</text>
  <text x="788.0" y="118.3" text-anchor="start" dominant-baseline="middle" fill="#9ca3af" font-size="10">8M/s</text>
  <line x1="90.0" y1="49.0" x2="90.0" y2="414.0" stroke="#e5e7eb" stroke-width="1"/>
  <line x1="212.0" y1="49.0" x2="212.0" y2="414.0" stroke="#e5e7eb" stroke-width="1"/>
  <line x1="334.0" y1="49.0" x2="334.0" y2="414.0" stroke="#e5e7eb" stroke-width="1"/>
  <line x1="456.0" y1="49.0" x2="456.0" y2="414.0" stroke="#e5e7eb" stroke-width="1"/>
  <line x1="578.0" y1="49.0" x2="578.0" y2="414.0" stroke="#e5e7eb" stroke-width="1"/>
  <line x1="700.0" y1="49.0" x2="700.0" y2="414.0" stroke="#e5e7eb" stroke-width="1"/>
  <line x1="90.0" y1="49.0" x2="90.0" y2="414.0" stroke="#9ca3af" stroke-width="1.5"/>
  <line x1="700.0" y1="49.0" x2="700.0" y2="414.0" stroke="#9ca3af" stroke-width="1.5"/>
  <line x1="90.0" y1="414.0" x2="700.0" y2="414.0" stroke="#9ca3af" stroke-width="1.5"/>
  <line x1="780.0" y1="49.0" x2="780.0" y2="414.0" stroke="#d1d5db" stroke-width="1"/>
  <text x="40.0" y="231.5" text-anchor="middle" fill="#374151" font-size="10" font-weight="600" transform="rotate(-90,40.0,231.5)">CPU %</text>
  <polyline points="90.0,96.3 212.0,98.0 334.0,101.5 456.0,122.7 578.0,108.1 700.0,103.9" fill="none" stroke="#15803d" stroke-width="1.6" stroke-dasharray="2,5" opacity="0.85"/>
  <polyline points="90.0,188.6 212.0,187.7 334.0,197.7 456.0,193.6 578.0,189.1 700.0,204.6" fill="none" stroke="#eab308" stroke-width="1.6" stroke-dasharray="2,5" opacity="0.85"/>
  <polyline points="90.0,230.6 212.0,230.6 334.0,230.1 456.0,230.1 578.0,230.1 700.0,230.6" fill="none" stroke="#dc2626" stroke-width="1.6" stroke-dasharray="2,5" opacity="0.85"/>
  <polyline points="90.0,322.8 212.0,322.8 334.0,323.2 456.0,323.2 578.0,323.2 700.0,322.8" fill="none" stroke="#f97316" stroke-width="1.6" stroke-dasharray="2,5" opacity="0.85"/>
  <polyline points="90.0,228.5 212.0,215.7 334.0,205.6 456.0,173.1 578.0,234.4 700.0,262.7" fill="none" stroke="#16a34a" stroke-width="1.6" stroke-dasharray="2,5" opacity="0.85"/>
  <polyline points="90.0,350.0 212.0,347.8 334.0,346.6 456.0,347.4 578.0,347.3 700.0,349.3" fill="none" stroke="#15803d" stroke-width="2.0" stroke-dasharray="5,3"/>
  <polyline points="90.0,96.6 212.0,230.2 334.0,331.8 456.0,348.9 578.0,359.5 700.0,377.0" fill="none" stroke="#eab308" stroke-width="2.0" stroke-dasharray="5,3"/>
  <polyline points="90.0,300.3 212.0,282.4 334.0,283.6 456.0,289.2 578.0,275.0 700.0,284.6" fill="none" stroke="#dc2626" stroke-width="2.0" stroke-dasharray="5,3"/>
  <polyline points="90.0,163.6 212.0,150.5 334.0,149.7 456.0,150.6 578.0,155.4 700.0,150.1" fill="none" stroke="#f97316" stroke-width="2.0" stroke-dasharray="5,3"/>
  <polyline points="90.0,322.4 212.0,319.8 334.0,324.5 456.0,349.2 578.0,389.6 700.0,409.9" fill="none" stroke="#16a34a" stroke-width="2.0" stroke-dasharray="5,3"/>
  <polyline points="90.0,381.7 212.0,336.7 334.0,292.1 456.0,248.6 578.0,204.6 700.0,161.6" fill="none" stroke="#15803d" stroke-width="2.0" stroke-linecap="round" stroke-linejoin="round"/>
  <circle cx="90.0" cy="381.7" r="2.2" fill="#15803d" stroke="white" stroke-width="1"/>
  <circle cx="212.0" cy="336.7" r="2.2" fill="#15803d" stroke="white" stroke-width="1"/>
  <circle cx="334.0" cy="292.1" r="2.2" fill="#15803d" stroke="white" stroke-width="1"/>
  <circle cx="456.0" cy="248.6" r="2.2" fill="#15803d" stroke="white" stroke-width="1"/>
  <circle cx="578.0" cy="204.6" r="2.2" fill="#15803d" stroke="white" stroke-width="1"/>
  <circle cx="700.0" cy="161.6" r="2.2" fill="#15803d" stroke="white" stroke-width="1"/>
  <polyline points="90.0,330.9 212.0,304.3 334.0,285.9 456.0,249.3 578.0,211.0 700.0,179.3" fill="none" stroke="#eab308" stroke-width="2.0" stroke-linecap="round" stroke-linejoin="round"/>
  <circle cx="90.0" cy="330.9" r="2.2" fill="#eab308" stroke="white" stroke-width="1"/>
  <circle cx="212.0" cy="304.3" r="2.2" fill="#eab308" stroke="white" stroke-width="1"/>
  <circle cx="334.0" cy="285.9" r="2.2" fill="#eab308" stroke="white" stroke-width="1"/>
  <circle cx="456.0" cy="249.3" r="2.2" fill="#eab308" stroke="white" stroke-width="1"/>
  <circle cx="578.0" cy="211.0" r="2.2" fill="#eab308" stroke="white" stroke-width="1"/>
  <circle cx="700.0" cy="179.3" r="2.2" fill="#eab308" stroke="white" stroke-width="1"/>
  <polyline points="90.0,363.5 212.0,314.9 334.0,271.2 456.0,228.7 578.0,181.3 700.0,139.6" fill="none" stroke="#dc2626" stroke-width="2.0" stroke-linecap="round" stroke-linejoin="round"/>
  <circle cx="90.0" cy="363.5" r="2.2" fill="#dc2626" stroke="white" stroke-width="1"/>
  <circle cx="212.0" cy="314.9" r="2.2" fill="#dc2626" stroke="white" stroke-width="1"/>
  <circle cx="334.0" cy="271.2" r="2.2" fill="#dc2626" stroke="white" stroke-width="1"/>
  <circle cx="456.0" cy="228.7" r="2.2" fill="#dc2626" stroke="white" stroke-width="1"/>
  <circle cx="578.0" cy="181.3" r="2.2" fill="#dc2626" stroke="white" stroke-width="1"/>
  <circle cx="700.0" cy="139.6" r="2.2" fill="#dc2626" stroke="white" stroke-width="1"/>
  <polyline points="90.0,338.4 212.0,292.9 334.0,248.8 456.0,205.0 578.0,161.6 700.0,117.0" fill="none" stroke="#f97316" stroke-width="2.0" stroke-linecap="round" stroke-linejoin="round"/>
  <circle cx="90.0" cy="338.4" r="2.2" fill="#f97316" stroke="white" stroke-width="1"/>
  <circle cx="212.0" cy="292.9" r="2.2" fill="#f97316" stroke="white" stroke-width="1"/>
  <circle cx="334.0" cy="248.8" r="2.2" fill="#f97316" stroke="white" stroke-width="1"/>
  <circle cx="456.0" cy="205.0" r="2.2" fill="#f97316" stroke="white" stroke-width="1"/>
  <circle cx="578.0" cy="161.6" r="2.2" fill="#f97316" stroke="white" stroke-width="1"/>
  <circle cx="700.0" cy="117.0" r="2.2" fill="#f97316" stroke="white" stroke-width="1"/>
  <polyline points="90.0,370.3 212.0,325.5 334.0,283.2 456.0,249.4 578.0,236.4 700.0,249.3" fill="none" stroke="#16a34a" stroke-width="2.0" stroke-linecap="round" stroke-linejoin="round"/>
  <circle cx="90.0" cy="370.3" r="2.2" fill="#16a34a" stroke="white" stroke-width="1"/>
  <circle cx="212.0" cy="325.5" r="2.2" fill="#16a34a" stroke="white" stroke-width="1"/>
  <circle cx="334.0" cy="283.2" r="2.2" fill="#16a34a" stroke="white" stroke-width="1"/>
  <circle cx="456.0" cy="249.4" r="2.2" fill="#16a34a" stroke="white" stroke-width="1"/>
  <circle cx="578.0" cy="236.4" r="2.2" fill="#16a34a" stroke="white" stroke-width="1"/>
  <circle cx="700.0" cy="249.3" r="2.2" fill="#16a34a" stroke="white" stroke-width="1"/>
  <text x="90.0" y="428.0" text-anchor="middle" fill="#374151" font-size="8.5">16 B</text>
  <text x="212.0" y="428.0" text-anchor="middle" fill="#374151" font-size="8.5">64 B</text>
  <text x="334.0" y="428.0" text-anchor="middle" fill="#374151" font-size="8.5">256 B</text>
  <text x="456.0" y="428.0" text-anchor="middle" fill="#374151" font-size="8.5">1 KiB</text>
  <text x="578.0" y="428.0" text-anchor="middle" fill="#374151" font-size="8.5">4 KiB</text>
  <text x="700.0" y="428.0" text-anchor="middle" fill="#374151" font-size="8.5">16 KiB</text>
  <text x="395.0" y="46" text-anchor="middle" fill="#9ca3af" font-size="10">Linux VM on a 2018 Mac Mini, Intel Core i7-8700B @ 3.20GHz, 6 cores, performance governor, turbo off</text>
  <line x1="110" y1="454" x2="124" y2="454" stroke="#eab308" stroke-width="2.5"/>
  <circle cx="117" cy="454" r="2.5" fill="#eab308"/>
  <text x="130" y="458" fill="#374151" font-size="11" font-weight="500">libzmq v4.3.5</text>
  <line x1="300" y1="454" x2="314" y2="454" stroke="#f97316" stroke-width="2.5"/>
  <circle cx="307" cy="454" r="2.5" fill="#f97316"/>
  <text x="320" y="458" fill="#374151" font-size="11" font-weight="500">omq-tokio (ST)</text>
  <line x1="490" y1="454" x2="504" y2="454" stroke="#dc2626" stroke-width="2.5"/>
  <circle cx="497" cy="454" r="2.5" fill="#dc2626"/>
  <text x="510" y="458" fill="#374151" font-size="11" font-weight="500">omq-tokio (MT)</text>
  <line x1="205" y1="474" x2="219" y2="474" stroke="#16a34a" stroke-width="2.5"/>
  <circle cx="212" cy="474" r="2.5" fill="#16a34a"/>
  <text x="225" y="478" fill="#374151" font-size="11" font-weight="500">rzmq v0.5.22 (MT)</text>
  <line x1="395" y1="474" x2="409" y2="474" stroke="#15803d" stroke-width="2.5"/>
  <circle cx="402" cy="474" r="2.5" fill="#15803d"/>
  <text x="415" y="478" fill="#374151" font-size="11" font-weight="500">rzmq v0.5.22 (io_uring, MT)</text>
  <text x="395.0" y="492" text-anchor="middle" fill="#9ca3af" font-size="9">ST = single-threaded   MT = multi-threaded</text>
  <line x1="145" y1="514" x2="159" y2="514" stroke="#6b7280" stroke-width="1.6" stroke-dasharray="2,5" opacity="0.85"/>
  <text x="165" y="518" fill="#6b7280" font-size="10">CPU % (left)</text>
  <line x1="290" y1="514" x2="304" y2="514" stroke="#6b7280" stroke-width="2.0"/>
  <circle cx="297" cy="514" r="1.8" fill="#6b7280"/>
  <text x="310" y="518" fill="#6b7280" font-size="10">GB/s (inner right, log)</text>
  <line x1="455" y1="514" x2="469" y2="514" stroke="#6b7280" stroke-width="2.0" stroke-dasharray="5,3"/>
  <text x="475" y="518" fill="#6b7280" font-size="10">msg/s (outer right)</text>
</svg>
