<svg xmlns="http://www.w3.org/2000/svg" viewBox="0 0 875 552" font-family="system-ui, -apple-system, sans-serif">
  <rect width="875" height="552" fill="white"/>
  <text x="395.0" y="32.0" text-anchor="middle" fill="#111827" font-size="13" font-weight="700">PUSH/PULL throughput: TCP loopback, 2-process</text>
  <line x1="90.0" y1="341.0" x2="700.0" y2="341.0" stroke="#e5e7eb" stroke-width="1"/>
  <text x="82.0" y="341.0" text-anchor="end" dominant-baseline="middle" fill="#374151" font-size="10">100%</text>
  <line x1="90.0" y1="268.0" x2="700.0" y2="268.0" stroke="#e5e7eb" stroke-width="1"/>
  <text x="82.0" y="268.0" text-anchor="end" dominant-baseline="middle" fill="#374151" font-size="10">200%</text>
  <line x1="90.0" y1="195.0" x2="700.0" y2="195.0" stroke="#e5e7eb" stroke-width="1"/>
  <text x="82.0" y="195.0" text-anchor="end" dominant-baseline="middle" fill="#374151" font-size="10">300%</text>
  <line x1="90.0" y1="122.0" x2="700.0" y2="122.0" stroke="#e5e7eb" stroke-width="1"/>
  <text x="82.0" y="122.0" text-anchor="end" dominant-baseline="middle" fill="#374151" font-size="10">400%</text>
  <line x1="90.0" y1="49.0" x2="700.0" y2="49.0" stroke="#e5e7eb" stroke-width="1"/>
  <text x="82.0" y="49.0" text-anchor="end" dominant-baseline="middle" fill="#374151" font-size="10">500%</text>
  <line x1="90.0" y1="353.2" x2="700.0" y2="353.2" stroke="#e5e7eb" stroke-width="1" stroke-dasharray="3,6"/>
  <text x="708.0" y="353.2" text-anchor="start" dominant-baseline="middle" fill="#6b7280" font-size="10">1 GB/s</text>
  <line x1="90.0" y1="292.3" x2="700.0" y2="292.3" stroke="#e5e7eb" stroke-width="1" stroke-dasharray="3,6"/>
  <text x="708.0" y="292.3" text-anchor="start" dominant-baseline="middle" fill="#6b7280" font-size="10">2 GB/s</text>
  <line x1="90.0" y1="231.5" x2="700.0" y2="231.5" stroke="#e5e7eb" stroke-width="1" stroke-dasharray="3,6"/>
  <text x="708.0" y="231.5" text-anchor="start" dominant-baseline="middle" fill="#6b7280" font-size="10">3 GB/s</text>
  <line x1="90.0" y1="170.7" x2="700.0" y2="170.7" stroke="#e5e7eb" stroke-width="1" stroke-dasharray="3,6"/>
  <text x="708.0" y="170.7" text-anchor="start" dominant-baseline="middle" fill="#6b7280" font-size="10">4 GB/s</text>
  <line x1="90.0" y1="109.8" x2="700.0" y2="109.8" stroke="#e5e7eb" stroke-width="1" stroke-dasharray="3,6"/>
  <text x="708.0" y="109.8" text-anchor="start" dominant-baseline="middle" fill="#6b7280" font-size="10">5 GB/s</text>
  <line x1="90.0" y1="49.0" x2="700.0" y2="49.0" stroke="#e5e7eb" stroke-width="1" stroke-dasharray="3,6"/>
  <text x="708.0" y="49.0" text-anchor="start" dominant-baseline="middle" fill="#6b7280" font-size="10">6 GB/s</text>
  <text x="788.0" y="367.6" text-anchor="start" dominant-baseline="middle" fill="#9ca3af" font-size="10">1M/s</text>
  <text x="788.0" y="321.2" text-anchor="start" dominant-baseline="middle" fill="#9ca3af" font-size="10">2M/s</text>
  <text x="788.0" y="274.9" text-anchor="start" dominant-baseline="middle" fill="#9ca3af" font-size="10">3M/s</text>
  <text x="788.0" y="228.5" text-anchor="start" dominant-baseline="middle" fill="#9ca3af" font-size="10">4M/s</text>
  <text x="788.0" y="182.1" text-anchor="start" dominant-baseline="middle" fill="#9ca3af" font-size="10">5M/s</text>
  <text x="788.0" y="135.7" text-anchor="start" dominant-baseline="middle" fill="#9ca3af" font-size="10">6M/s</text>
  <text x="788.0" y="89.3" text-anchor="start" dominant-baseline="middle" fill="#9ca3af" font-size="10">7M/s</text>
  <line x1="90.0" y1="49.0" x2="90.0" y2="414.0" stroke="#e5e7eb" stroke-width="1"/>
  <line x1="140.8" y1="49.0" x2="140.8" y2="414.0" stroke="#e5e7eb" stroke-width="1"/>
  <line x1="191.7" y1="49.0" x2="191.7" y2="414.0" stroke="#e5e7eb" stroke-width="1"/>
  <line x1="242.5" y1="49.0" x2="242.5" y2="414.0" stroke="#e5e7eb" stroke-width="1"/>
  <line x1="293.3" y1="49.0" x2="293.3" y2="414.0" stroke="#e5e7eb" stroke-width="1"/>
  <line x1="344.2" y1="49.0" x2="344.2" y2="414.0" stroke="#e5e7eb" stroke-width="1"/>
  <line x1="395.0" y1="49.0" x2="395.0" y2="414.0" stroke="#e5e7eb" stroke-width="1"/>
  <line x1="445.8" y1="49.0" x2="445.8" y2="414.0" stroke="#e5e7eb" stroke-width="1"/>
  <line x1="496.7" y1="49.0" x2="496.7" y2="414.0" stroke="#e5e7eb" stroke-width="1"/>
  <line x1="547.5" y1="49.0" x2="547.5" y2="414.0" stroke="#e5e7eb" stroke-width="1"/>
  <line x1="598.3" y1="49.0" x2="598.3" y2="414.0" stroke="#e5e7eb" stroke-width="1"/>
  <line x1="649.2" y1="49.0" x2="649.2" y2="414.0" stroke="#e5e7eb" stroke-width="1"/>
  <line x1="700.0" y1="49.0" x2="700.0" y2="414.0" stroke="#e5e7eb" stroke-width="1"/>
  <line x1="90.0" y1="49.0" x2="90.0" y2="414.0" stroke="#9ca3af" stroke-width="1.5"/>
  <line x1="700.0" y1="49.0" x2="700.0" y2="414.0" stroke="#9ca3af" stroke-width="1.5"/>
  <line x1="90.0" y1="414.0" x2="700.0" y2="414.0" stroke="#9ca3af" stroke-width="1.5"/>
  <line x1="780.0" y1="49.0" x2="780.0" y2="414.0" stroke="#d1d5db" stroke-width="1"/>
  <text x="40.0" y="231.5" text-anchor="middle" fill="#374151" font-size="10" font-weight="600" transform="rotate(-90,40.0,231.5)">CPU %</text>
  <polyline points="90.0,135.6 140.8,144.3 191.7,120.5 242.5,148.4 293.3,145.5 344.2,162.2 395.0,147.5 445.8,159.1 496.7,173.9 547.5,187.4 598.3,202.9 649.2,209.6 700.0,212.6" fill="none" stroke="#16a34a" stroke-width="1.6" stroke-dasharray="2,5" opacity="0.85"/>
  <polyline points="90.0,303.5 140.8,303.8 191.7,302.6 242.5,284.8 293.3,279.3 344.2,279.0 395.0,278.3 445.8,294.9 496.7,280.9 547.5,282.3 598.3,289.6 649.2,294.9 700.0,297.4" fill="none" stroke="#7c3aed" stroke-width="1.6" stroke-dasharray="2,5" opacity="0.85"/>
  <polyline points="90.0,341.3 140.8,328.0 191.7,327.2 242.5,326.3 293.3,326.8 344.2,331.9 395.0,318.1 445.8,331.7 496.7,348.6 547.5,369.7 598.3,386.1 649.2,398.8 700.0,406.3" fill="none" stroke="#16a34a" stroke-width="2.0" stroke-dasharray="5,3"/>
  <polyline points="90.0,99.7 140.8,96.6 191.7,111.1 242.5,185.0 293.3,200.9 344.2,235.0 395.0,279.3 445.8,348.5 496.7,356.5 547.5,378.0 598.3,394.1 649.2,404.3 700.0,409.2" fill="none" stroke="#7c3aed" stroke-width="2.0" stroke-dasharray="5,3"/>
  <polyline points="90.0,413.2 140.8,412.2 191.7,410.4 242.5,406.6 293.3,399.4 344.2,386.4 395.0,349.6 445.8,303.5 496.7,238.4 547.5,175.8 598.3,114.5 649.2,87.8 700.0,83.0" fill="none" stroke="#16a34a" stroke-width="2.0" stroke-linecap="round" stroke-linejoin="round"/>
  <circle cx="90.0" cy="413.2" r="2.2" fill="#16a34a" stroke="white" stroke-width="1"/>
  <circle cx="140.8" cy="412.2" r="2.2" fill="#16a34a" stroke="white" stroke-width="1"/>
  <circle cx="191.7" cy="410.4" r="2.2" fill="#16a34a" stroke="white" stroke-width="1"/>
  <circle cx="242.5" cy="406.6" r="2.2" fill="#16a34a" stroke="white" stroke-width="1"/>
  <circle cx="293.3" cy="399.4" r="2.2" fill="#16a34a" stroke="white" stroke-width="1"/>
  <circle cx="344.2" cy="386.4" r="2.2" fill="#16a34a" stroke="white" stroke-width="1"/>
  <circle cx="395.0" cy="349.6" r="2.2" fill="#16a34a" stroke="white" stroke-width="1"/>
  <circle cx="445.8" cy="303.5" r="2.2" fill="#16a34a" stroke="white" stroke-width="1"/>
  <circle cx="496.7" cy="238.4" r="2.2" fill="#16a34a" stroke="white" stroke-width="1"/>
  <circle cx="547.5" cy="175.8" r="2.2" fill="#16a34a" stroke="white" stroke-width="1"/>
  <circle cx="598.3" cy="114.5" r="2.2" fill="#16a34a" stroke="white" stroke-width="1"/>
  <circle cx="649.2" cy="87.8" r="2.2" fill="#16a34a" stroke="white" stroke-width="1"/>
  <circle cx="700.0" cy="83.0" r="2.2" fill="#16a34a" stroke="white" stroke-width="1"/>
  <polyline points="90.0,410.7 140.8,407.3 191.7,401.3 242.5,394.8 293.3,378.2 344.2,353.9 395.0,323.5 445.8,326.1 496.7,259.4 547.5,220.6 598.3,200.4 649.2,205.0 700.0,209.7" fill="none" stroke="#7c3aed" stroke-width="2.0" stroke-linecap="round" stroke-linejoin="round"/>
  <circle cx="90.0" cy="410.7" r="2.2" fill="#7c3aed" stroke="white" stroke-width="1"/>
  <circle cx="140.8" cy="407.3" r="2.2" fill="#7c3aed" stroke="white" stroke-width="1"/>
  <circle cx="191.7" cy="401.3" r="2.2" fill="#7c3aed" stroke="white" stroke-width="1"/>
  <circle cx="242.5" cy="394.8" r="2.2" fill="#7c3aed" stroke="white" stroke-width="1"/>
  <circle cx="293.3" cy="378.2" r="2.2" fill="#7c3aed" stroke="white" stroke-width="1"/>
  <circle cx="344.2" cy="353.9" r="2.2" fill="#7c3aed" stroke="white" stroke-width="1"/>
  <circle cx="395.0" cy="323.5" r="2.2" fill="#7c3aed" stroke="white" stroke-width="1"/>
  <circle cx="445.8" cy="326.1" r="2.2" fill="#7c3aed" stroke="white" stroke-width="1"/>
  <circle cx="496.7" cy="259.4" r="2.2" fill="#7c3aed" stroke="white" stroke-width="1"/>
  <circle cx="547.5" cy="220.6" r="2.2" fill="#7c3aed" stroke="white" stroke-width="1"/>
  <circle cx="598.3" cy="200.4" r="2.2" fill="#7c3aed" stroke="white" stroke-width="1"/>
  <circle cx="649.2" cy="205.0" r="2.2" fill="#7c3aed" stroke="white" stroke-width="1"/>
  <circle cx="700.0" cy="209.7" r="2.2" fill="#7c3aed" stroke="white" stroke-width="1"/>
  <text x="90.0" y="428.0" text-anchor="middle" fill="#374151" font-size="8.5">8 B</text>
  <text x="140.8" y="428.0" text-anchor="middle" fill="#374151" font-size="8.5">16 B</text>
  <text x="191.7" y="428.0" text-anchor="middle" fill="#374151" font-size="8.5">32 B</text>
  <text x="242.5" y="428.0" text-anchor="middle" fill="#374151" font-size="8.5">64 B</text>
  <text x="293.3" y="428.0" text-anchor="middle" fill="#374151" font-size="8.5">128 B</text>
  <text x="344.2" y="428.0" text-anchor="middle" fill="#374151" font-size="8.5">256 B</text>
  <text x="395.0" y="428.0" text-anchor="middle" fill="#374151" font-size="8.5">512 B</text>
  <text x="445.8" y="428.0" text-anchor="middle" fill="#374151" font-size="8.5">1 KiB</text>
  <text x="496.7" y="428.0" text-anchor="middle" fill="#374151" font-size="8.5">2 KiB</text>
  <text x="547.5" y="428.0" text-anchor="middle" fill="#374151" font-size="8.5">4 KiB</text>
  <text x="598.3" y="428.0" text-anchor="middle" fill="#374151" font-size="8.5">8 KiB</text>
  <text x="649.2" y="428.0" text-anchor="middle" fill="#374151" font-size="8.5">16 KiB</text>
  <text x="700.0" y="428.0" text-anchor="middle" fill="#374151" font-size="8.5">32 KiB</text>
  <text x="395.0" y="46" text-anchor="middle" fill="#9ca3af" font-size="10">Linux VM on a 2018 Mac Mini, Intel Core i7-8700B @ 3.20GHz, 6 cores, performance governor, turbo off</text>
  <line x1="205" y1="454" x2="219" y2="454" stroke="#7c3aed" stroke-width="2.5"/>
  <circle cx="212" cy="454" r="2.5" fill="#7c3aed"/>
  <text x="225" y="458" fill="#374151" font-size="11" font-weight="500">omq-compio (ST)</text>
  <line x1="395" y1="454" x2="409" y2="454" stroke="#16a34a" stroke-width="2.5"/>
  <circle cx="402" cy="454" r="2.5" fill="#16a34a"/>
  <text x="415" y="458" fill="#374151" font-size="11" font-weight="500">rzmq v0.5.22 (io_uring, MT)</text>
  <text x="395.0" y="472" text-anchor="middle" fill="#9ca3af" font-size="9">ST = single-threaded   MT = multi-threaded</text>
  <line x1="145" y1="494" x2="159" y2="494" stroke="#6b7280" stroke-width="1.6" stroke-dasharray="2,5" opacity="0.85"/>
  <text x="165" y="498" fill="#6b7280" font-size="10">CPU % (left)</text>
  <line x1="290" y1="494" x2="304" y2="494" stroke="#6b7280" stroke-width="2.0"/>
  <circle cx="297" cy="494" r="1.8" fill="#6b7280"/>
  <text x="310" y="498" fill="#6b7280" font-size="10">GB/s (inner right)</text>
  <line x1="455" y1="494" x2="469" y2="494" stroke="#6b7280" stroke-width="2.0" stroke-dasharray="5,3"/>
  <text x="475" y="498" fill="#6b7280" font-size="10">msg/s (outer right)</text>
</svg>
