<svg xmlns="http://www.w3.org/2000/svg" viewBox="0 0 875 552" font-family="system-ui, -apple-system, sans-serif">
  <rect width="875" height="552" fill="white"/>
  <text x="395.0" y="32.0" text-anchor="middle" fill="#111827" font-size="13" font-weight="700">PUSH/PULL throughput: io_uring, IPC, 2-process</text>
  <line x1="90.0" y1="368.4" x2="700.0" y2="368.4" stroke="#e5e7eb" stroke-width="1"/>
  <text x="82.0" y="368.4" text-anchor="end" dominant-baseline="middle" fill="#374151" font-size="10">50%</text>
  <line x1="90.0" y1="322.8" x2="700.0" y2="322.8" stroke="#e5e7eb" stroke-width="1"/>
  <text x="82.0" y="322.8" text-anchor="end" dominant-baseline="middle" fill="#374151" font-size="10">100%</text>
  <line x1="90.0" y1="277.1" x2="700.0" y2="277.1" stroke="#e5e7eb" stroke-width="1"/>
  <text x="82.0" y="277.1" text-anchor="end" dominant-baseline="middle" fill="#374151" font-size="10">150%</text>
  <line x1="90.0" y1="231.5" x2="700.0" y2="231.5" stroke="#e5e7eb" stroke-width="1"/>
  <text x="82.0" y="231.5" text-anchor="end" dominant-baseline="middle" fill="#374151" font-size="10">200%</text>
  <line x1="90.0" y1="185.9" x2="700.0" y2="185.9" stroke="#e5e7eb" stroke-width="1"/>
  <text x="82.0" y="185.9" text-anchor="end" dominant-baseline="middle" fill="#374151" font-size="10">250%</text>
  <line x1="90.0" y1="140.2" x2="700.0" y2="140.2" stroke="#e5e7eb" stroke-width="1"/>
  <text x="82.0" y="140.2" text-anchor="end" dominant-baseline="middle" fill="#374151" font-size="10">300%</text>
  <line x1="90.0" y1="94.6" x2="700.0" y2="94.6" stroke="#e5e7eb" stroke-width="1"/>
  <text x="82.0" y="94.6" text-anchor="end" dominant-baseline="middle" fill="#374151" font-size="10">350%</text>
  <line x1="90.0" y1="49.0" x2="700.0" y2="49.0" stroke="#e5e7eb" stroke-width="1"/>
  <text x="82.0" y="49.0" text-anchor="end" dominant-baseline="middle" fill="#374151" font-size="10">400%</text>
  <line x1="90.0" y1="353.2" x2="700.0" y2="353.2" stroke="#e5e7eb" stroke-width="1" stroke-dasharray="3,6"/>
  <text x="708.0" y="353.2" text-anchor="start" dominant-baseline="middle" fill="#6b7280" font-size="10">1 GB/s</text>
  <line x1="90.0" y1="292.3" x2="700.0" y2="292.3" stroke="#e5e7eb" stroke-width="1" stroke-dasharray="3,6"/>
  <text x="708.0" y="292.3" text-anchor="start" dominant-baseline="middle" fill="#6b7280" font-size="10">2 GB/s</text>
  <line x1="90.0" y1="231.5" x2="700.0" y2="231.5" stroke="#e5e7eb" stroke-width="1" stroke-dasharray="3,6"/>
  <text x="708.0" y="231.5" text-anchor="start" dominant-baseline="middle" fill="#6b7280" font-size="10">3 GB/s</text>
  <line x1="90.0" y1="170.7" x2="700.0" y2="170.7" stroke="#e5e7eb" stroke-width="1" stroke-dasharray="3,6"/>
  <text x="708.0" y="170.7" text-anchor="start" dominant-baseline="middle" fill="#6b7280" font-size="10">4 GB/s</text>
  <line x1="90.0" y1="109.8" x2="700.0" y2="109.8" stroke="#e5e7eb" stroke-width="1" stroke-dasharray="3,6"/>
  <text x="708.0" y="109.8" text-anchor="start" dominant-baseline="middle" fill="#6b7280" font-size="10">5 GB/s</text>
  <line x1="90.0" y1="49.0" x2="700.0" y2="49.0" stroke="#e5e7eb" stroke-width="1" stroke-dasharray="3,6"/>
  <text x="708.0" y="49.0" text-anchor="start" dominant-baseline="middle" fill="#6b7280" font-size="10">6 GB/s</text>
  <text x="788.0" y="366.8" text-anchor="start" dominant-baseline="middle" fill="#9ca3af" font-size="10">500k/s</text>
  <text x="788.0" y="319.7" text-anchor="start" dominant-baseline="middle" fill="#9ca3af" font-size="10">1M/s</text>
  <text x="788.0" y="272.5" text-anchor="start" dominant-baseline="middle" fill="#9ca3af" font-size="10">1.5M/s</text>
  <text x="788.0" y="225.3" text-anchor="start" dominant-baseline="middle" fill="#9ca3af" font-size="10">2M/s</text>
  <text x="788.0" y="178.1" text-anchor="start" dominant-baseline="middle" fill="#9ca3af" font-size="10">2.5M/s</text>
  <text x="788.0" y="131.0" text-anchor="start" dominant-baseline="middle" fill="#9ca3af" font-size="10">3M/s</text>
  <text x="788.0" y="83.8" text-anchor="start" dominant-baseline="middle" fill="#9ca3af" font-size="10">3.5M/s</text>
  <line x1="90.0" y1="49.0" x2="90.0" y2="414.0" stroke="#e5e7eb" stroke-width="1"/>
  <line x1="140.8" y1="49.0" x2="140.8" y2="414.0" stroke="#e5e7eb" stroke-width="1"/>
  <line x1="191.7" y1="49.0" x2="191.7" y2="414.0" stroke="#e5e7eb" stroke-width="1"/>
  <line x1="242.5" y1="49.0" x2="242.5" y2="414.0" stroke="#e5e7eb" stroke-width="1"/>
  <line x1="293.3" y1="49.0" x2="293.3" y2="414.0" stroke="#e5e7eb" stroke-width="1"/>
  <line x1="344.2" y1="49.0" x2="344.2" y2="414.0" stroke="#e5e7eb" stroke-width="1"/>
  <line x1="395.0" y1="49.0" x2="395.0" y2="414.0" stroke="#e5e7eb" stroke-width="1"/>
  <line x1="445.8" y1="49.0" x2="445.8" y2="414.0" stroke="#e5e7eb" stroke-width="1"/>
  <line x1="496.7" y1="49.0" x2="496.7" y2="414.0" stroke="#e5e7eb" stroke-width="1"/>
  <line x1="547.5" y1="49.0" x2="547.5" y2="414.0" stroke="#e5e7eb" stroke-width="1"/>
  <line x1="598.3" y1="49.0" x2="598.3" y2="414.0" stroke="#e5e7eb" stroke-width="1"/>
  <line x1="649.2" y1="49.0" x2="649.2" y2="414.0" stroke="#e5e7eb" stroke-width="1"/>
  <line x1="700.0" y1="49.0" x2="700.0" y2="414.0" stroke="#e5e7eb" stroke-width="1"/>
  <line x1="90.0" y1="49.0" x2="90.0" y2="414.0" stroke="#9ca3af" stroke-width="1.5"/>
  <line x1="700.0" y1="49.0" x2="700.0" y2="414.0" stroke="#9ca3af" stroke-width="1.5"/>
  <line x1="90.0" y1="414.0" x2="700.0" y2="414.0" stroke="#9ca3af" stroke-width="1.5"/>
  <line x1="780.0" y1="49.0" x2="780.0" y2="414.0" stroke="#d1d5db" stroke-width="1"/>
  <text x="40.0" y="231.5" text-anchor="middle" fill="#374151" font-size="10" font-weight="600" transform="rotate(-90,40.0,231.5)">CPU %</text>
  <polyline points="90.0,296.8 140.8,295.1 191.7,294.8 242.5,292.8 293.3,292.5 344.2,285.4 395.0,280.7 445.8,275.5 496.7,259.2 547.5,246.5 598.3,238.7 649.2,232.5 700.0,245.5" fill="none" stroke="#7c3aed" stroke-width="1.6" stroke-dasharray="2,5" opacity="0.85"/>
  <polyline points="90.0,96.6 140.8,99.7 191.7,108.9 242.5,193.4 293.3,199.6 344.2,215.0 395.0,233.2 445.8,261.4 496.7,292.4 547.5,335.3 598.3,369.7 649.2,388.8 700.0,402.1" fill="none" stroke="#7c3aed" stroke-width="2.0" stroke-dasharray="5,3"/>
  <polyline points="90.0,412.4 140.8,410.8 191.7,407.7 242.5,404.9 293.3,396.3 344.2,381.2 395.0,354.3 445.8,313.2 496.7,253.5 547.5,206.1 598.3,180.0 649.2,147.3 700.0,162.6" fill="none" stroke="#7c3aed" stroke-width="2.0" stroke-linecap="round" stroke-linejoin="round"/>
  <circle cx="90.0" cy="412.4" r="2.2" fill="#7c3aed" stroke="white" stroke-width="1"/>
  <circle cx="140.8" cy="410.8" r="2.2" fill="#7c3aed" stroke="white" stroke-width="1"/>
  <circle cx="191.7" cy="407.7" r="2.2" fill="#7c3aed" stroke="white" stroke-width="1"/>
  <circle cx="242.5" cy="404.9" r="2.2" fill="#7c3aed" stroke="white" stroke-width="1"/>
  <circle cx="293.3" cy="396.3" r="2.2" fill="#7c3aed" stroke="white" stroke-width="1"/>
  <circle cx="344.2" cy="381.2" r="2.2" fill="#7c3aed" stroke="white" stroke-width="1"/>
  <circle cx="395.0" cy="354.3" r="2.2" fill="#7c3aed" stroke="white" stroke-width="1"/>
  <circle cx="445.8" cy="313.2" r="2.2" fill="#7c3aed" stroke="white" stroke-width="1"/>
  <circle cx="496.7" cy="253.5" r="2.2" fill="#7c3aed" stroke="white" stroke-width="1"/>
  <circle cx="547.5" cy="206.1" r="2.2" fill="#7c3aed" stroke="white" stroke-width="1"/>
  <circle cx="598.3" cy="180.0" r="2.2" fill="#7c3aed" stroke="white" stroke-width="1"/>
  <circle cx="649.2" cy="147.3" r="2.2" fill="#7c3aed" stroke="white" stroke-width="1"/>
  <circle cx="700.0" cy="162.6" r="2.2" fill="#7c3aed" stroke="white" stroke-width="1"/>
  <text x="90.0" y="428.0" text-anchor="middle" fill="#374151" font-size="8.5">8 B</text>
  <text x="140.8" y="428.0" text-anchor="middle" fill="#374151" font-size="8.5">16 B</text>
  <text x="191.7" y="428.0" text-anchor="middle" fill="#374151" font-size="8.5">32 B</text>
  <text x="242.5" y="428.0" text-anchor="middle" fill="#374151" font-size="8.5">64 B</text>
  <text x="293.3" y="428.0" text-anchor="middle" fill="#374151" font-size="8.5">128 B</text>
  <text x="344.2" y="428.0" text-anchor="middle" fill="#374151" font-size="8.5">256 B</text>
  <text x="395.0" y="428.0" text-anchor="middle" fill="#374151" font-size="8.5">512 B</text>
  <text x="445.8" y="428.0" text-anchor="middle" fill="#374151" font-size="8.5">1 KiB</text>
  <text x="496.7" y="428.0" text-anchor="middle" fill="#374151" font-size="8.5">2 KiB</text>
  <text x="547.5" y="428.0" text-anchor="middle" fill="#374151" font-size="8.5">4 KiB</text>
  <text x="598.3" y="428.0" text-anchor="middle" fill="#374151" font-size="8.5">8 KiB</text>
  <text x="649.2" y="428.0" text-anchor="middle" fill="#374151" font-size="8.5">16 KiB</text>
  <text x="700.0" y="428.0" text-anchor="middle" fill="#374151" font-size="8.5">32 KiB</text>
  <text x="395.0" y="46" text-anchor="middle" fill="#9ca3af" font-size="10">Linux VM on a 2018 Mac Mini, Intel Core i7-8700B @ 3.20GHz, 6 cores, performance governor, turbo off</text>
  <line x1="300" y1="454" x2="314" y2="454" stroke="#7c3aed" stroke-width="2.5"/>
  <circle cx="307" cy="454" r="2.5" fill="#7c3aed"/>
  <text x="320" y="458" fill="#374151" font-size="11" font-weight="500">omq-compio (ST)</text>
  <text x="395.0" y="472" text-anchor="middle" fill="#9ca3af" font-size="9">ST = single-threaded   MT = multi-threaded</text>
  <line x1="145" y1="494" x2="159" y2="494" stroke="#6b7280" stroke-width="1.6" stroke-dasharray="2,5" opacity="0.85"/>
  <text x="165" y="498" fill="#6b7280" font-size="10">CPU % (left)</text>
  <line x1="290" y1="494" x2="304" y2="494" stroke="#6b7280" stroke-width="2.0"/>
  <circle cx="297" cy="494" r="1.8" fill="#6b7280"/>
  <text x="310" y="498" fill="#6b7280" font-size="10">GB/s (inner right)</text>
  <line x1="455" y1="494" x2="469" y2="494" stroke="#6b7280" stroke-width="2.0" stroke-dasharray="5,3"/>
  <text x="475" y="498" fill="#6b7280" font-size="10">msg/s (outer right)</text>
</svg>
