<svg xmlns="http://www.w3.org/2000/svg" viewBox="0 0 875 552" font-family="system-ui, -apple-system, sans-serif">
  <rect width="875" height="552" fill="white"/>
  <text x="395.0" y="32.0" text-anchor="middle" fill="#111827" font-size="13" font-weight="700">PUSH/PULL throughput: io_uring, inproc</text>
  <line x1="90.0" y1="368.4" x2="700.0" y2="368.4" stroke="#e5e7eb" stroke-width="1"/>
  <text x="82.0" y="368.4" text-anchor="end" dominant-baseline="middle" fill="#374151" font-size="10">50%</text>
  <line x1="90.0" y1="322.8" x2="700.0" y2="322.8" stroke="#e5e7eb" stroke-width="1"/>
  <text x="82.0" y="322.8" text-anchor="end" dominant-baseline="middle" fill="#374151" font-size="10">100%</text>
  <line x1="90.0" y1="277.1" x2="700.0" y2="277.1" stroke="#e5e7eb" stroke-width="1"/>
  <text x="82.0" y="277.1" text-anchor="end" dominant-baseline="middle" fill="#374151" font-size="10">150%</text>
  <line x1="90.0" y1="231.5" x2="700.0" y2="231.5" stroke="#e5e7eb" stroke-width="1"/>
  <text x="82.0" y="231.5" text-anchor="end" dominant-baseline="middle" fill="#374151" font-size="10">200%</text>
  <line x1="90.0" y1="185.9" x2="700.0" y2="185.9" stroke="#e5e7eb" stroke-width="1"/>
  <text x="82.0" y="185.9" text-anchor="end" dominant-baseline="middle" fill="#374151" font-size="10">250%</text>
  <line x1="90.0" y1="140.2" x2="700.0" y2="140.2" stroke="#e5e7eb" stroke-width="1"/>
  <text x="82.0" y="140.2" text-anchor="end" dominant-baseline="middle" fill="#374151" font-size="10">300%</text>
  <line x1="90.0" y1="94.6" x2="700.0" y2="94.6" stroke="#e5e7eb" stroke-width="1"/>
  <text x="82.0" y="94.6" text-anchor="end" dominant-baseline="middle" fill="#374151" font-size="10">350%</text>
  <line x1="90.0" y1="49.0" x2="700.0" y2="49.0" stroke="#e5e7eb" stroke-width="1"/>
  <text x="82.0" y="49.0" text-anchor="end" dominant-baseline="middle" fill="#374151" font-size="10">400%</text>
  <line x1="90.0" y1="414.0" x2="700.0" y2="414.0" stroke="#e5e7eb" stroke-width="1" stroke-dasharray="3,6"/>
  <text x="708.0" y="414.0" text-anchor="start" dominant-baseline="middle" fill="#6b7280" font-size="10">0.01 GB/s</text>
  <line x1="90.0" y1="392.0" x2="700.0" y2="392.0" stroke="#e5e7eb" stroke-width="1" stroke-dasharray="2,8"/>
  <line x1="90.0" y1="363.0" x2="700.0" y2="363.0" stroke="#e5e7eb" stroke-width="1" stroke-dasharray="2,8"/>
  <line x1="90.0" y1="341.0" x2="700.0" y2="341.0" stroke="#e5e7eb" stroke-width="1" stroke-dasharray="3,6"/>
  <text x="708.0" y="341.0" text-anchor="start" dominant-baseline="middle" fill="#6b7280" font-size="10">0.1 GB/s</text>
  <line x1="90.0" y1="319.0" x2="700.0" y2="319.0" stroke="#e5e7eb" stroke-width="1" stroke-dasharray="2,8"/>
  <line x1="90.0" y1="290.0" x2="700.0" y2="290.0" stroke="#e5e7eb" stroke-width="1" stroke-dasharray="2,8"/>
  <line x1="90.0" y1="268.0" x2="700.0" y2="268.0" stroke="#e5e7eb" stroke-width="1" stroke-dasharray="3,6"/>
  <text x="708.0" y="268.0" text-anchor="start" dominant-baseline="middle" fill="#6b7280" font-size="10">1 GB/s</text>
  <line x1="90.0" y1="246.0" x2="700.0" y2="246.0" stroke="#e5e7eb" stroke-width="1" stroke-dasharray="2,8"/>
  <line x1="90.0" y1="217.0" x2="700.0" y2="217.0" stroke="#e5e7eb" stroke-width="1" stroke-dasharray="2,8"/>
  <line x1="90.0" y1="195.0" x2="700.0" y2="195.0" stroke="#e5e7eb" stroke-width="1" stroke-dasharray="3,6"/>
  <text x="708.0" y="195.0" text-anchor="start" dominant-baseline="middle" fill="#6b7280" font-size="10">10 GB/s</text>
  <line x1="90.0" y1="173.0" x2="700.0" y2="173.0" stroke="#e5e7eb" stroke-width="1" stroke-dasharray="2,8"/>
  <line x1="90.0" y1="144.0" x2="700.0" y2="144.0" stroke="#e5e7eb" stroke-width="1" stroke-dasharray="2,8"/>
  <line x1="90.0" y1="122.0" x2="700.0" y2="122.0" stroke="#e5e7eb" stroke-width="1" stroke-dasharray="3,6"/>
  <text x="708.0" y="122.0" text-anchor="start" dominant-baseline="middle" fill="#6b7280" font-size="10">100 GB/s</text>
  <line x1="90.0" y1="100.0" x2="700.0" y2="100.0" stroke="#e5e7eb" stroke-width="1" stroke-dasharray="2,8"/>
  <line x1="90.0" y1="71.0" x2="700.0" y2="71.0" stroke="#e5e7eb" stroke-width="1" stroke-dasharray="2,8"/>
  <line x1="90.0" y1="49.0" x2="700.0" y2="49.0" stroke="#e5e7eb" stroke-width="1" stroke-dasharray="3,6"/>
  <text x="708.0" y="49.0" text-anchor="start" dominant-baseline="middle" fill="#6b7280" font-size="10">1000 GB/s</text>
  <text x="788.0" y="372.7" text-anchor="start" dominant-baseline="middle" fill="#9ca3af" font-size="10">500k/s</text>
  <text x="788.0" y="331.4" text-anchor="start" dominant-baseline="middle" fill="#9ca3af" font-size="10">1M/s</text>
  <text x="788.0" y="290.1" text-anchor="start" dominant-baseline="middle" fill="#9ca3af" font-size="10">1.5M/s</text>
  <text x="788.0" y="248.8" text-anchor="start" dominant-baseline="middle" fill="#9ca3af" font-size="10">2M/s</text>
  <text x="788.0" y="207.5" text-anchor="start" dominant-baseline="middle" fill="#9ca3af" font-size="10">2.5M/s</text>
  <text x="788.0" y="166.2" text-anchor="start" dominant-baseline="middle" fill="#9ca3af" font-size="10">3M/s</text>
  <text x="788.0" y="124.9" text-anchor="start" dominant-baseline="middle" fill="#9ca3af" font-size="10">3.5M/s</text>
  <text x="788.0" y="83.6" text-anchor="start" dominant-baseline="middle" fill="#9ca3af" font-size="10">4M/s</text>
  <line x1="90.0" y1="49.0" x2="90.0" y2="414.0" stroke="#e5e7eb" stroke-width="1"/>
  <line x1="140.8" y1="49.0" x2="140.8" y2="414.0" stroke="#e5e7eb" stroke-width="1"/>
  <line x1="191.7" y1="49.0" x2="191.7" y2="414.0" stroke="#e5e7eb" stroke-width="1"/>
  <line x1="242.5" y1="49.0" x2="242.5" y2="414.0" stroke="#e5e7eb" stroke-width="1"/>
  <line x1="293.3" y1="49.0" x2="293.3" y2="414.0" stroke="#e5e7eb" stroke-width="1"/>
  <line x1="344.2" y1="49.0" x2="344.2" y2="414.0" stroke="#e5e7eb" stroke-width="1"/>
  <line x1="395.0" y1="49.0" x2="395.0" y2="414.0" stroke="#e5e7eb" stroke-width="1"/>
  <line x1="445.8" y1="49.0" x2="445.8" y2="414.0" stroke="#e5e7eb" stroke-width="1"/>
  <line x1="496.7" y1="49.0" x2="496.7" y2="414.0" stroke="#e5e7eb" stroke-width="1"/>
  <line x1="547.5" y1="49.0" x2="547.5" y2="414.0" stroke="#e5e7eb" stroke-width="1"/>
  <line x1="598.3" y1="49.0" x2="598.3" y2="414.0" stroke="#e5e7eb" stroke-width="1"/>
  <line x1="649.2" y1="49.0" x2="649.2" y2="414.0" stroke="#e5e7eb" stroke-width="1"/>
  <line x1="700.0" y1="49.0" x2="700.0" y2="414.0" stroke="#e5e7eb" stroke-width="1"/>
  <line x1="90.0" y1="49.0" x2="90.0" y2="414.0" stroke="#9ca3af" stroke-width="1.5"/>
  <line x1="700.0" y1="49.0" x2="700.0" y2="414.0" stroke="#9ca3af" stroke-width="1.5"/>
  <line x1="90.0" y1="414.0" x2="700.0" y2="414.0" stroke="#9ca3af" stroke-width="1.5"/>
  <line x1="780.0" y1="49.0" x2="780.0" y2="414.0" stroke="#d1d5db" stroke-width="1"/>
  <text x="40.0" y="231.5" text-anchor="middle" fill="#374151" font-size="10" font-weight="600" transform="rotate(-90,40.0,231.5)">CPU %</text>
  <polyline points="90.0,230.5 140.8,232.1 191.7,226.6 242.5,221.4 293.3,203.8 344.2,205.2 395.0,185.1 445.8,174.2 496.7,182.3 547.5,190.1 598.3,210.2 649.2,216.5 700.0,220.2" fill="none" stroke="#16a34a" stroke-width="1.6" stroke-dasharray="2,5" opacity="0.85"/>
  <polyline points="90.0,234.7 140.8,235.6 191.7,239.7 242.5,239.7 293.3,234.7 344.2,237.0 395.0,232.4 445.8,233.8 496.7,233.3 547.5,232.0 598.3,237.0 649.2,234.2 700.0,238.8" fill="none" stroke="#7c3aed" stroke-width="1.6" stroke-dasharray="2,5" opacity="0.85"/>
  <polyline points="90.0,208.5 140.8,205.7 191.7,212.2 242.5,202.1 293.3,197.0 344.2,213.5 395.0,230.5 445.8,259.9 496.7,300.9 547.5,334.2 598.3,370.1 649.2,399.5 700.0,407.7" fill="none" stroke="#16a34a" stroke-width="2.0" stroke-dasharray="5,3"/>
  <polyline points="90.0,132.0 140.8,130.6 191.7,108.7 242.5,115.0 293.3,127.6 344.2,106.9 395.0,109.1 445.8,102.9 496.7,111.4 547.5,107.3 598.3,98.3 649.2,105.3 700.0,96.6" fill="none" stroke="#7c3aed" stroke-width="2.0" stroke-dasharray="5,3"/>
  <polyline points="90.0,392.2 140.8,369.8 191.7,348.8 242.5,325.3 293.3,302.5 344.2,283.1 395.0,263.9 445.8,247.5 496.7,235.3 547.5,224.4 598.3,221.4 649.2,234.5 700.0,239.0" fill="none" stroke="#16a34a" stroke-width="2.0" stroke-linecap="round" stroke-linejoin="round"/>
  <circle cx="90.0" cy="392.2" r="2.2" fill="#16a34a" stroke="white" stroke-width="1"/>
  <circle cx="140.8" cy="369.8" r="2.2" fill="#16a34a" stroke="white" stroke-width="1"/>
  <circle cx="191.7" cy="348.8" r="2.2" fill="#16a34a" stroke="white" stroke-width="1"/>
  <circle cx="242.5" cy="325.3" r="2.2" fill="#16a34a" stroke="white" stroke-width="1"/>
  <circle cx="293.3" cy="302.5" r="2.2" fill="#16a34a" stroke="white" stroke-width="1"/>
  <circle cx="344.2" cy="283.1" r="2.2" fill="#16a34a" stroke="white" stroke-width="1"/>
  <circle cx="395.0" cy="263.9" r="2.2" fill="#16a34a" stroke="white" stroke-width="1"/>
  <circle cx="445.8" cy="247.5" r="2.2" fill="#16a34a" stroke="white" stroke-width="1"/>
  <circle cx="496.7" cy="235.3" r="2.2" fill="#16a34a" stroke="white" stroke-width="1"/>
  <circle cx="547.5" cy="224.4" r="2.2" fill="#16a34a" stroke="white" stroke-width="1"/>
  <circle cx="598.3" cy="221.4" r="2.2" fill="#16a34a" stroke="white" stroke-width="1"/>
  <circle cx="649.2" cy="234.5" r="2.2" fill="#16a34a" stroke="white" stroke-width="1"/>
  <circle cx="700.0" cy="239.0" r="2.2" fill="#16a34a" stroke="white" stroke-width="1"/>
  <polyline points="90.0,382.2 140.8,360.0 191.7,335.7 242.5,314.4 293.3,293.8 344.2,269.6 395.0,247.8 445.8,225.2 496.7,204.1 547.5,181.7 598.3,158.8 649.2,137.5 700.0,114.7" fill="none" stroke="#7c3aed" stroke-width="2.0" stroke-linecap="round" stroke-linejoin="round"/>
  <circle cx="90.0" cy="382.2" r="2.2" fill="#7c3aed" stroke="white" stroke-width="1"/>
  <circle cx="140.8" cy="360.0" r="2.2" fill="#7c3aed" stroke="white" stroke-width="1"/>
  <circle cx="191.7" cy="335.7" r="2.2" fill="#7c3aed" stroke="white" stroke-width="1"/>
  <circle cx="242.5" cy="314.4" r="2.2" fill="#7c3aed" stroke="white" stroke-width="1"/>
  <circle cx="293.3" cy="293.8" r="2.2" fill="#7c3aed" stroke="white" stroke-width="1"/>
  <circle cx="344.2" cy="269.6" r="2.2" fill="#7c3aed" stroke="white" stroke-width="1"/>
  <circle cx="395.0" cy="247.8" r="2.2" fill="#7c3aed" stroke="white" stroke-width="1"/>
  <circle cx="445.8" cy="225.2" r="2.2" fill="#7c3aed" stroke="white" stroke-width="1"/>
  <circle cx="496.7" cy="204.1" r="2.2" fill="#7c3aed" stroke="white" stroke-width="1"/>
  <circle cx="547.5" cy="181.7" r="2.2" fill="#7c3aed" stroke="white" stroke-width="1"/>
  <circle cx="598.3" cy="158.8" r="2.2" fill="#7c3aed" stroke="white" stroke-width="1"/>
  <circle cx="649.2" cy="137.5" r="2.2" fill="#7c3aed" stroke="white" stroke-width="1"/>
  <circle cx="700.0" cy="114.7" r="2.2" fill="#7c3aed" stroke="white" stroke-width="1"/>
  <text x="90.0" y="428.0" text-anchor="middle" fill="#374151" font-size="8.5">8 B</text>
  <text x="140.8" y="428.0" text-anchor="middle" fill="#374151" font-size="8.5">16 B</text>
  <text x="191.7" y="428.0" text-anchor="middle" fill="#374151" font-size="8.5">32 B</text>
  <text x="242.5" y="428.0" text-anchor="middle" fill="#374151" font-size="8.5">64 B</text>
  <text x="293.3" y="428.0" text-anchor="middle" fill="#374151" font-size="8.5">128 B</text>
  <text x="344.2" y="428.0" text-anchor="middle" fill="#374151" font-size="8.5">256 B</text>
  <text x="395.0" y="428.0" text-anchor="middle" fill="#374151" font-size="8.5">512 B</text>
  <text x="445.8" y="428.0" text-anchor="middle" fill="#374151" font-size="8.5">1 KiB</text>
  <text x="496.7" y="428.0" text-anchor="middle" fill="#374151" font-size="8.5">2 KiB</text>
  <text x="547.5" y="428.0" text-anchor="middle" fill="#374151" font-size="8.5">4 KiB</text>
  <text x="598.3" y="428.0" text-anchor="middle" fill="#374151" font-size="8.5">8 KiB</text>
  <text x="649.2" y="428.0" text-anchor="middle" fill="#374151" font-size="8.5">16 KiB</text>
  <text x="700.0" y="428.0" text-anchor="middle" fill="#374151" font-size="8.5">32 KiB</text>
  <text x="395.0" y="46" text-anchor="middle" fill="#9ca3af" font-size="10">Linux VM on a 2018 Mac Mini, Intel Core i7-8700B @ 3.20GHz, 6 cores, performance governor, turbo off</text>
  <line x1="205" y1="454" x2="219" y2="454" stroke="#7c3aed" stroke-width="2.5"/>
  <circle cx="212" cy="454" r="2.5" fill="#7c3aed"/>
  <text x="225" y="458" fill="#374151" font-size="11" font-weight="500">omq-compio (ST)</text>
  <line x1="395" y1="454" x2="409" y2="454" stroke="#16a34a" stroke-width="2.5"/>
  <circle cx="402" cy="454" r="2.5" fill="#16a34a"/>
  <text x="415" y="458" fill="#374151" font-size="11" font-weight="500">rzmq v0.5.22 (io_uring, MT)</text>
  <text x="395.0" y="472" text-anchor="middle" fill="#9ca3af" font-size="9">ST = single-threaded   MT = multi-threaded</text>
  <line x1="145" y1="494" x2="159" y2="494" stroke="#6b7280" stroke-width="1.6" stroke-dasharray="2,5" opacity="0.85"/>
  <text x="165" y="498" fill="#6b7280" font-size="10">CPU % (left)</text>
  <line x1="290" y1="494" x2="304" y2="494" stroke="#6b7280" stroke-width="2.0"/>
  <circle cx="297" cy="494" r="1.8" fill="#6b7280"/>
  <text x="310" y="498" fill="#6b7280" font-size="10">GB/s (inner right, log)</text>
  <line x1="455" y1="494" x2="469" y2="494" stroke="#6b7280" stroke-width="2.0" stroke-dasharray="5,3"/>
  <text x="475" y="498" fill="#6b7280" font-size="10">msg/s (outer right)</text>
</svg>
