<svg xmlns="http://www.w3.org/2000/svg" viewBox="0 0 980 477" font-family="system-ui, -apple-system, sans-serif">
  <rect width="980" height="477" fill="white"/>
  <text x="490.0" y="17.0" text-anchor="middle" fill="#111827" font-size="14" font-weight="700">PUSH/PULL throughput: IPC, 2-process</text>
  <text x="490.0" y="31.0" text-anchor="middle" fill="#9ca3af" font-size="9">Linux VM on a 2018 Mac Mini, Intel Core i7-8700B @ 3.20GHz, 6 cores, performance governor, turbo off</text>
  <text x="223.2" y="60.0" text-anchor="middle" fill="#111827" font-size="11.5" font-weight="700">small messages: msg/s</text>
  <line x1="78.0" y1="318.0" x2="368.4" y2="318.0" stroke="#e5e7eb" stroke-width="1"/>
  <text x="70.0" y="318.0" text-anchor="end" dominant-baseline="middle" fill="#374151" font-size="8.5">50%</text>
  <line x1="78.0" y1="283.0" x2="368.4" y2="283.0" stroke="#e5e7eb" stroke-width="1"/>
  <text x="70.0" y="283.0" text-anchor="end" dominant-baseline="middle" fill="#374151" font-size="8.5">100%</text>
  <line x1="78.0" y1="248.0" x2="368.4" y2="248.0" stroke="#e5e7eb" stroke-width="1"/>
  <text x="70.0" y="248.0" text-anchor="end" dominant-baseline="middle" fill="#374151" font-size="8.5">150%</text>
  <line x1="78.0" y1="213.0" x2="368.4" y2="213.0" stroke="#e5e7eb" stroke-width="1"/>
  <text x="70.0" y="213.0" text-anchor="end" dominant-baseline="middle" fill="#374151" font-size="8.5">200%</text>
  <line x1="78.0" y1="178.0" x2="368.4" y2="178.0" stroke="#e5e7eb" stroke-width="1"/>
  <text x="70.0" y="178.0" text-anchor="end" dominant-baseline="middle" fill="#374151" font-size="8.5">250%</text>
  <line x1="78.0" y1="143.0" x2="368.4" y2="143.0" stroke="#e5e7eb" stroke-width="1"/>
  <text x="70.0" y="143.0" text-anchor="end" dominant-baseline="middle" fill="#374151" font-size="8.5">300%</text>
  <line x1="78.0" y1="108.0" x2="368.4" y2="108.0" stroke="#e5e7eb" stroke-width="1"/>
  <text x="70.0" y="108.0" text-anchor="end" dominant-baseline="middle" fill="#374151" font-size="8.5">350%</text>
  <line x1="78.0" y1="73.0" x2="368.4" y2="73.0" stroke="#e5e7eb" stroke-width="1"/>
  <text x="70.0" y="73.0" text-anchor="end" dominant-baseline="middle" fill="#374151" font-size="8.5">400%</text>
  <line x1="368.4" y1="284.4" x2="372.4" y2="284.4" stroke="#9ca3af" stroke-width="1"/>
  <text x="376.4" y="284.4" text-anchor="start" dominant-baseline="middle" fill="#6b7280" font-size="8.5">2M/s</text>
  <line x1="368.4" y1="215.9" x2="372.4" y2="215.9" stroke="#9ca3af" stroke-width="1"/>
  <text x="376.4" y="215.9" text-anchor="start" dominant-baseline="middle" fill="#6b7280" font-size="8.5">4M/s</text>
  <line x1="368.4" y1="147.3" x2="372.4" y2="147.3" stroke="#9ca3af" stroke-width="1"/>
  <text x="376.4" y="147.3" text-anchor="start" dominant-baseline="middle" fill="#6b7280" font-size="8.5">6M/s</text>
  <line x1="368.4" y1="78.8" x2="372.4" y2="78.8" stroke="#9ca3af" stroke-width="1"/>
  <text x="376.4" y="78.8" text-anchor="start" dominant-baseline="middle" fill="#6b7280" font-size="8.5">8M/s</text>
  <line x1="78.0" y1="73.0" x2="78.0" y2="353.0" stroke="#e5e7eb" stroke-width="1"/>
  <line x1="174.8" y1="73.0" x2="174.8" y2="353.0" stroke="#e5e7eb" stroke-width="1"/>
  <line x1="271.6" y1="73.0" x2="271.6" y2="353.0" stroke="#e5e7eb" stroke-width="1"/>
  <line x1="368.4" y1="73.0" x2="368.4" y2="353.0" stroke="#e5e7eb" stroke-width="1"/>
  <line x1="78.0" y1="73.0" x2="78.0" y2="353.0" stroke="#9ca3af" stroke-width="1.5"/>
  <line x1="368.4" y1="73.0" x2="368.4" y2="353.0" stroke="#9ca3af" stroke-width="1.5"/>
  <line x1="78.0" y1="353.0" x2="368.4" y2="353.0" stroke="#9ca3af" stroke-width="1.5"/>
  <text x="30.0" y="213.0" text-anchor="middle" fill="#374151" font-size="10" font-weight="600" transform="rotate(-90,30.0,213.0)">CPU %</text>
  <polyline points="78.0,224.2 174.8,221.0 271.6,220.3 368.4,233.1" fill="none" stroke="#15803d" stroke-width="1.6" stroke-dasharray="2,5" opacity="0.85"/>
  <polyline points="78.0,213.2 174.8,197.1 271.6,214.4 368.4,243.8" fill="none" stroke="#eab308" stroke-width="1.6" stroke-dasharray="2,5" opacity="0.85"/>
  <polyline points="78.0,245.7 174.8,194.6 271.6,215.3 368.4,245.4" fill="none" stroke="#a16207" stroke-width="1.6" stroke-dasharray="2,5" opacity="0.85"/>
  <polyline points="78.0,194.6 174.8,193.2 271.6,229.6 368.4,250.8" fill="none" stroke="#dc2626" stroke-width="1.6" stroke-dasharray="2,5" opacity="0.85"/>
  <polyline points="78.0,283.0 174.8,283.0 271.6,283.0 368.4,286.0" fill="none" stroke="#f97316" stroke-width="1.6" stroke-dasharray="2,5" opacity="0.85"/>
  <polyline points="78.0,279.0 174.8,266.2 271.6,271.8 368.4,273.5" fill="none" stroke="#16a34a" stroke-width="1.6" stroke-dasharray="2,5" opacity="0.85"/>
  <polyline points="78.0,251.0 174.8,252.4 271.6,250.6 368.4,249.0" fill="none" stroke="#2563eb" stroke-width="1.6" stroke-dasharray="2,5" opacity="0.85"/>
  <polyline points="78.0,251.9 174.8,248.9 271.6,242.9 368.4,278.9" fill="none" stroke="#15803d" stroke-width="2.5" stroke-dasharray="6,3"/>
  <circle cx="78.0" cy="251.9" r="3" fill="#15803d" stroke="white" stroke-width="1"/>
  <circle cx="174.8" cy="248.9" r="3" fill="#15803d" stroke="white" stroke-width="1"/>
  <circle cx="271.6" cy="242.9" r="3" fill="#15803d" stroke="white" stroke-width="1"/>
  <circle cx="368.4" cy="278.9" r="3" fill="#15803d" stroke="white" stroke-width="1"/>
  <polyline points="78.0,109.5 174.8,196.5 271.6,275.6 368.4,317.2" fill="none" stroke="#eab308" stroke-width="2.5" stroke-dasharray="6,3"/>
  <circle cx="78.0" cy="109.5" r="3" fill="#eab308" stroke="white" stroke-width="1"/>
  <circle cx="174.8" cy="196.5" r="3" fill="#eab308" stroke="white" stroke-width="1"/>
  <circle cx="271.6" cy="275.6" r="3" fill="#eab308" stroke="white" stroke-width="1"/>
  <circle cx="368.4" cy="317.2" r="3" fill="#eab308" stroke="white" stroke-width="1"/>
  <polyline points="78.0,117.4 174.8,195.9 271.6,276.0 368.4,316.8" fill="none" stroke="#a16207" stroke-width="2.5" stroke-dasharray="6,3"/>
  <circle cx="78.0" cy="117.4" r="3" fill="#a16207" stroke="white" stroke-width="1"/>
  <circle cx="174.8" cy="195.9" r="3" fill="#a16207" stroke="white" stroke-width="1"/>
  <circle cx="271.6" cy="276.0" r="3" fill="#a16207" stroke="white" stroke-width="1"/>
  <circle cx="368.4" cy="316.8" r="3" fill="#a16207" stroke="white" stroke-width="1"/>
  <polyline points="78.0,163.7 174.8,162.5 271.6,201.8 368.4,238.8" fill="none" stroke="#dc2626" stroke-width="2.5" stroke-dasharray="6,3"/>
  <circle cx="78.0" cy="163.7" r="3" fill="#dc2626" stroke="white" stroke-width="1"/>
  <circle cx="174.8" cy="162.5" r="3" fill="#dc2626" stroke="white" stroke-width="1"/>
  <circle cx="271.6" cy="201.8" r="3" fill="#dc2626" stroke="white" stroke-width="1"/>
  <circle cx="368.4" cy="238.8" r="3" fill="#dc2626" stroke="white" stroke-width="1"/>
  <polyline points="78.0,114.5 174.8,127.2 271.6,188.5 368.4,256.6" fill="none" stroke="#f97316" stroke-width="2.5" stroke-dasharray="6,3"/>
  <circle cx="78.0" cy="114.5" r="3" fill="#f97316" stroke="white" stroke-width="1"/>
  <circle cx="174.8" cy="127.2" r="3" fill="#f97316" stroke="white" stroke-width="1"/>
  <circle cx="271.6" cy="188.5" r="3" fill="#f97316" stroke="white" stroke-width="1"/>
  <circle cx="368.4" cy="256.6" r="3" fill="#f97316" stroke="white" stroke-width="1"/>
  <polyline points="78.0,274.9 174.8,260.2 271.6,262.4 368.4,290.4" fill="none" stroke="#16a34a" stroke-width="2.5" stroke-dasharray="6,3"/>
  <circle cx="78.0" cy="274.9" r="3" fill="#16a34a" stroke="white" stroke-width="1"/>
  <circle cx="174.8" cy="260.2" r="3" fill="#16a34a" stroke="white" stroke-width="1"/>
  <circle cx="271.6" cy="262.4" r="3" fill="#16a34a" stroke="white" stroke-width="1"/>
  <circle cx="368.4" cy="290.4" r="3" fill="#16a34a" stroke="white" stroke-width="1"/>
  <polyline points="78.0,333.8 174.8,334.1 271.6,335.0 368.4,335.9" fill="none" stroke="#2563eb" stroke-width="2.5" stroke-dasharray="6,3"/>
  <circle cx="78.0" cy="333.8" r="3" fill="#2563eb" stroke="white" stroke-width="1"/>
  <circle cx="174.8" cy="334.1" r="3" fill="#2563eb" stroke="white" stroke-width="1"/>
  <circle cx="271.6" cy="335.0" r="3" fill="#2563eb" stroke="white" stroke-width="1"/>
  <circle cx="368.4" cy="335.9" r="3" fill="#2563eb" stroke="white" stroke-width="1"/>
  <text x="78.0" y="367.0" text-anchor="middle" fill="#374151" font-size="8.5">16 B</text>
  <text x="174.8" y="367.0" text-anchor="middle" fill="#374151" font-size="8.5">64 B</text>
  <text x="271.6" y="367.0" text-anchor="middle" fill="#374151" font-size="8.5">256 B</text>
  <text x="368.4" y="367.0" text-anchor="middle" fill="#374151" font-size="8.5">1 KiB</text>
  <text x="684.2" y="60.0" text-anchor="middle" fill="#111827" font-size="11.5" font-weight="700">medium/large messages: GB/s</text>
  <line x1="466.4" y1="318.0" x2="902.0" y2="318.0" stroke="#e5e7eb" stroke-width="1"/>
  <text x="458.4" y="318.0" text-anchor="end" dominant-baseline="middle" fill="#374151" font-size="8.5">50%</text>
  <line x1="466.4" y1="283.0" x2="902.0" y2="283.0" stroke="#e5e7eb" stroke-width="1"/>
  <text x="458.4" y="283.0" text-anchor="end" dominant-baseline="middle" fill="#374151" font-size="8.5">100%</text>
  <line x1="466.4" y1="248.0" x2="902.0" y2="248.0" stroke="#e5e7eb" stroke-width="1"/>
  <text x="458.4" y="248.0" text-anchor="end" dominant-baseline="middle" fill="#374151" font-size="8.5">150%</text>
  <line x1="466.4" y1="213.0" x2="902.0" y2="213.0" stroke="#e5e7eb" stroke-width="1"/>
  <text x="458.4" y="213.0" text-anchor="end" dominant-baseline="middle" fill="#374151" font-size="8.5">200%</text>
  <line x1="466.4" y1="178.0" x2="902.0" y2="178.0" stroke="#e5e7eb" stroke-width="1"/>
  <text x="458.4" y="178.0" text-anchor="end" dominant-baseline="middle" fill="#374151" font-size="8.5">250%</text>
  <line x1="466.4" y1="143.0" x2="902.0" y2="143.0" stroke="#e5e7eb" stroke-width="1"/>
  <text x="458.4" y="143.0" text-anchor="end" dominant-baseline="middle" fill="#374151" font-size="8.5">300%</text>
  <line x1="466.4" y1="108.0" x2="902.0" y2="108.0" stroke="#e5e7eb" stroke-width="1"/>
  <text x="458.4" y="108.0" text-anchor="end" dominant-baseline="middle" fill="#374151" font-size="8.5">350%</text>
  <line x1="466.4" y1="73.0" x2="902.0" y2="73.0" stroke="#e5e7eb" stroke-width="1"/>
  <text x="458.4" y="73.0" text-anchor="end" dominant-baseline="middle" fill="#374151" font-size="8.5">400%</text>
  <line x1="902.0" y1="306.3" x2="906.0" y2="306.3" stroke="#9ca3af" stroke-width="1"/>
  <text x="910.0" y="306.3" text-anchor="start" dominant-baseline="middle" fill="#6b7280" font-size="8.5">1 GB/s</text>
  <line x1="902.0" y1="259.7" x2="906.0" y2="259.7" stroke="#9ca3af" stroke-width="1"/>
  <text x="910.0" y="259.7" text-anchor="start" dominant-baseline="middle" fill="#6b7280" font-size="8.5">2 GB/s</text>
  <line x1="902.0" y1="213.0" x2="906.0" y2="213.0" stroke="#9ca3af" stroke-width="1"/>
  <text x="910.0" y="213.0" text-anchor="start" dominant-baseline="middle" fill="#6b7280" font-size="8.5">3 GB/s</text>
  <line x1="902.0" y1="166.3" x2="906.0" y2="166.3" stroke="#9ca3af" stroke-width="1"/>
  <text x="910.0" y="166.3" text-anchor="start" dominant-baseline="middle" fill="#6b7280" font-size="8.5">4 GB/s</text>
  <line x1="902.0" y1="119.7" x2="906.0" y2="119.7" stroke="#9ca3af" stroke-width="1"/>
  <text x="910.0" y="119.7" text-anchor="start" dominant-baseline="middle" fill="#6b7280" font-size="8.5">5 GB/s</text>
  <line x1="902.0" y1="73.0" x2="906.0" y2="73.0" stroke="#9ca3af" stroke-width="1"/>
  <text x="910.0" y="73.0" text-anchor="start" dominant-baseline="middle" fill="#6b7280" font-size="8.5">6 GB/s</text>
  <line x1="466.4" y1="73.0" x2="466.4" y2="353.0" stroke="#e5e7eb" stroke-width="1"/>
  <line x1="611.6" y1="73.0" x2="611.6" y2="353.0" stroke="#e5e7eb" stroke-width="1"/>
  <line x1="756.8" y1="73.0" x2="756.8" y2="353.0" stroke="#e5e7eb" stroke-width="1"/>
  <line x1="902.0" y1="73.0" x2="902.0" y2="353.0" stroke="#e5e7eb" stroke-width="1"/>
  <line x1="466.4" y1="73.0" x2="466.4" y2="353.0" stroke="#9ca3af" stroke-width="1.5"/>
  <line x1="902.0" y1="73.0" x2="902.0" y2="353.0" stroke="#9ca3af" stroke-width="1.5"/>
  <line x1="466.4" y1="353.0" x2="902.0" y2="353.0" stroke="#9ca3af" stroke-width="1.5"/>
  <text x="418.4" y="213.0" text-anchor="middle" fill="#374151" font-size="10" font-weight="600" transform="rotate(-90,418.4,213.0)">CPU %</text>
  <polyline points="466.4,220.3 611.6,233.1 756.8,251.1 902.0,264.4" fill="none" stroke="#15803d" stroke-width="1.6" stroke-dasharray="2,5" opacity="0.85"/>
  <polyline points="466.4,214.4 611.6,243.8 756.8,273.4 902.0,260.1" fill="none" stroke="#eab308" stroke-width="1.6" stroke-dasharray="2,5" opacity="0.85"/>
  <polyline points="466.4,215.3 611.6,245.4 756.8,273.2 902.0,266.2" fill="none" stroke="#a16207" stroke-width="1.6" stroke-dasharray="2,5" opacity="0.85"/>
  <polyline points="466.4,229.6 611.6,250.8 756.8,263.4 902.0,268.8" fill="none" stroke="#dc2626" stroke-width="1.6" stroke-dasharray="2,5" opacity="0.85"/>
  <polyline points="466.4,283.0 611.6,286.0 756.8,282.8 902.0,283.7" fill="none" stroke="#f97316" stroke-width="1.6" stroke-dasharray="2,5" opacity="0.85"/>
  <polyline points="466.4,271.8 611.6,273.5 756.8,278.3 902.0,279.3" fill="none" stroke="#16a34a" stroke-width="1.6" stroke-dasharray="2,5" opacity="0.85"/>
  <polyline points="466.4,250.6 611.6,249.0 756.8,267.6 902.0,293.3" fill="none" stroke="#2563eb" stroke-width="1.6" stroke-dasharray="2,5" opacity="0.85"/>
  <polyline points="466.4,314.6 611.6,249.7 756.8,171.5 902.0,130.4" fill="none" stroke="#15803d" stroke-width="2.5" stroke-linecap="round" stroke-linejoin="round"/>
  <circle cx="466.4" cy="314.6" r="3" fill="#15803d" stroke="white" stroke-width="1"/>
  <circle cx="611.6" cy="249.7" r="3" fill="#15803d" stroke="white" stroke-width="1"/>
  <circle cx="756.8" cy="171.5" r="3" fill="#15803d" stroke="white" stroke-width="1"/>
  <circle cx="902.0" cy="130.4" r="3" fill="#15803d" stroke="white" stroke-width="1"/>
  <polyline points="466.4,326.0 611.6,303.1 756.8,289.1 902.0,272.0" fill="none" stroke="#eab308" stroke-width="2.5" stroke-linecap="round" stroke-linejoin="round"/>
  <circle cx="466.4" cy="326.0" r="3" fill="#eab308" stroke="white" stroke-width="1"/>
  <circle cx="611.6" cy="303.1" r="3" fill="#eab308" stroke="white" stroke-width="1"/>
  <circle cx="756.8" cy="289.1" r="3" fill="#eab308" stroke="white" stroke-width="1"/>
  <circle cx="902.0" cy="272.0" r="3" fill="#eab308" stroke="white" stroke-width="1"/>
  <polyline points="466.4,326.2 611.6,302.5 756.8,289.3 902.0,270.9" fill="none" stroke="#a16207" stroke-width="2.5" stroke-linecap="round" stroke-linejoin="round"/>
  <circle cx="466.4" cy="326.2" r="3" fill="#a16207" stroke="white" stroke-width="1"/>
  <circle cx="611.6" cy="302.5" r="3" fill="#a16207" stroke="white" stroke-width="1"/>
  <circle cx="756.8" cy="289.3" r="3" fill="#a16207" stroke="white" stroke-width="1"/>
  <circle cx="902.0" cy="270.9" r="3" fill="#a16207" stroke="white" stroke-width="1"/>
  <polyline points="466.4,300.3 611.6,193.8 756.8,97.7 902.0,38.1" fill="none" stroke="#dc2626" stroke-width="2.5" stroke-linecap="round" stroke-linejoin="round"/>
  <circle cx="466.4" cy="300.3" r="3" fill="#dc2626" stroke="white" stroke-width="1"/>
  <circle cx="611.6" cy="193.8" r="3" fill="#dc2626" stroke="white" stroke-width="1"/>
  <circle cx="756.8" cy="97.7" r="3" fill="#dc2626" stroke="white" stroke-width="1"/>
  <circle cx="902.0" cy="38.1" r="3" fill="#dc2626" stroke="white" stroke-width="1"/>
  <polyline points="466.4,295.7 611.6,218.6 756.8,111.7 902.0,25.4" fill="none" stroke="#f97316" stroke-width="2.5" stroke-linecap="round" stroke-linejoin="round"/>
  <circle cx="466.4" cy="295.7" r="3" fill="#f97316" stroke="white" stroke-width="1"/>
  <circle cx="611.6" cy="218.6" r="3" fill="#f97316" stroke="white" stroke-width="1"/>
  <circle cx="756.8" cy="111.7" r="3" fill="#f97316" stroke="white" stroke-width="1"/>
  <circle cx="902.0" cy="25.4" r="3" fill="#f97316" stroke="white" stroke-width="1"/>
  <polyline points="466.4,321.4 611.6,265.8 756.8,236.1 902.0,224.1" fill="none" stroke="#16a34a" stroke-width="2.5" stroke-linecap="round" stroke-linejoin="round"/>
  <circle cx="466.4" cy="321.4" r="3" fill="#16a34a" stroke="white" stroke-width="1"/>
  <circle cx="611.6" cy="265.8" r="3" fill="#16a34a" stroke="white" stroke-width="1"/>
  <circle cx="756.8" cy="236.1" r="3" fill="#16a34a" stroke="white" stroke-width="1"/>
  <circle cx="902.0" cy="224.1" r="3" fill="#16a34a" stroke="white" stroke-width="1"/>
  <polyline points="466.4,346.7 611.6,329.2 756.8,282.7 902.0,219.6" fill="none" stroke="#2563eb" stroke-width="2.5" stroke-linecap="round" stroke-linejoin="round"/>
  <circle cx="466.4" cy="346.7" r="3" fill="#2563eb" stroke="white" stroke-width="1"/>
  <circle cx="611.6" cy="329.2" r="3" fill="#2563eb" stroke="white" stroke-width="1"/>
  <circle cx="756.8" cy="282.7" r="3" fill="#2563eb" stroke="white" stroke-width="1"/>
  <circle cx="902.0" cy="219.6" r="3" fill="#2563eb" stroke="white" stroke-width="1"/>
  <text x="466.4" y="367.0" text-anchor="middle" fill="#374151" font-size="8.5">256 B</text>
  <text x="611.6" y="367.0" text-anchor="middle" fill="#374151" font-size="8.5">1 KiB</text>
  <text x="756.8" y="367.0" text-anchor="middle" fill="#374151" font-size="8.5">4 KiB</text>
  <text x="902.0" y="367.0" text-anchor="middle" fill="#374151" font-size="8.5">16 KiB</text>
  <line x1="110" y1="391" x2="124" y2="391" stroke="#eab308" stroke-width="2.5"/>
  <circle cx="117" cy="391" r="2.5" fill="#eab308"/>
  <text x="130" y="395" fill="#374151" font-size="11" font-weight="500">libzmq v4.3.5 [1T]</text>
  <line x1="300" y1="391" x2="314" y2="391" stroke="#a16207" stroke-width="2.5"/>
  <circle cx="307" cy="391" r="2.5" fill="#a16207"/>
  <text x="320" y="395" fill="#374151" font-size="11" font-weight="500">libzmq v4.3.5 (4T)</text>
  <line x1="490" y1="391" x2="504" y2="391" stroke="#f97316" stroke-width="2.5"/>
  <circle cx="497" cy="391" r="2.5" fill="#f97316"/>
  <text x="510" y="395" fill="#374151" font-size="11" font-weight="500">omq-tokio (1T)</text>
  <line x1="680" y1="391" x2="694" y2="391" stroke="#dc2626" stroke-width="2.5"/>
  <circle cx="687" cy="391" r="2.5" fill="#dc2626"/>
  <text x="700" y="395" fill="#374151" font-size="11" font-weight="500">omq-tokio (4T)</text>
  <line x1="205" y1="411" x2="219" y2="411" stroke="#2563eb" stroke-width="2.5"/>
  <circle cx="212" cy="411" r="2.5" fill="#2563eb"/>
  <text x="225" y="415" fill="#374151" font-size="11" font-weight="500">zmq.rs v0.6.0 [6T]</text>
  <line x1="395" y1="411" x2="409" y2="411" stroke="#16a34a" stroke-width="2.5"/>
  <circle cx="402" cy="411" r="2.5" fill="#16a34a"/>
  <text x="415" y="415" fill="#374151" font-size="11" font-weight="500">rzmq v0.5.24 [6T]</text>
  <line x1="585" y1="411" x2="599" y2="411" stroke="#15803d" stroke-width="2.5"/>
  <circle cx="592" cy="411" r="2.5" fill="#15803d"/>
  <text x="605" y="415" fill="#374151" font-size="11" font-weight="500">rzmq v0.5.24 (io_uring) [6T]</text>
  <text x="490.0" y="429" text-anchor="middle" fill="#9ca3af" font-size="9">(nT) = user-chosen   ·   [nT] = fixed by implementation</text>
  <line x1="205" y1="451" x2="219" y2="451" stroke="#6b7280" stroke-width="1.6" stroke-dasharray="2,5" opacity="0.85"/>
  <text x="225" y="455" fill="#6b7280" font-size="10">CPU % (left)</text>
  <line x1="350" y1="451" x2="364" y2="451" stroke="#6b7280" stroke-width="2.5" stroke-dasharray="6,3"/>
  <text x="370" y="455" fill="#6b7280" font-size="10">msg/s (small panel)</text>
  <line x1="540" y1="451" x2="554" y2="451" stroke="#6b7280" stroke-width="2.5"/>
  <text x="560" y="455" fill="#6b7280" font-size="10">GB/s (large panel)</text>
</svg>
