<svg xmlns="http://www.w3.org/2000/svg" viewBox="0 0 980 477" font-family="system-ui, -apple-system, sans-serif">
  <rect width="980" height="477" fill="white"/>
  <text x="490.0" y="17.0" text-anchor="middle" fill="#111827" font-size="14" font-weight="700">PUSH/PULL throughput: IPC, 2-process</text>
  <text x="490.0" y="31.0" text-anchor="middle" fill="#9ca3af" font-size="9">Linux VM on a 2018 Mac Mini, Intel Core i7-8700B @ 3.20GHz, 6 cores, performance governor, turbo off</text>
  <text x="223.2" y="60.0" text-anchor="middle" fill="#111827" font-size="11.5" font-weight="700">small messages: msg/s</text>
  <line x1="78.0" y1="297.0" x2="368.4" y2="297.0" stroke="#e5e7eb" stroke-width="1"/>
  <text x="70.0" y="297.0" text-anchor="end" dominant-baseline="middle" fill="#374151" font-size="8.5">100%</text>
  <line x1="78.0" y1="241.0" x2="368.4" y2="241.0" stroke="#e5e7eb" stroke-width="1"/>
  <text x="70.0" y="241.0" text-anchor="end" dominant-baseline="middle" fill="#374151" font-size="8.5">200%</text>
  <line x1="78.0" y1="185.0" x2="368.4" y2="185.0" stroke="#e5e7eb" stroke-width="1"/>
  <text x="70.0" y="185.0" text-anchor="end" dominant-baseline="middle" fill="#374151" font-size="8.5">300%</text>
  <line x1="78.0" y1="129.0" x2="368.4" y2="129.0" stroke="#e5e7eb" stroke-width="1"/>
  <text x="70.0" y="129.0" text-anchor="end" dominant-baseline="middle" fill="#374151" font-size="8.5">400%</text>
  <line x1="78.0" y1="73.0" x2="368.4" y2="73.0" stroke="#e5e7eb" stroke-width="1"/>
  <text x="70.0" y="73.0" text-anchor="end" dominant-baseline="middle" fill="#374151" font-size="8.5">500%</text>
  <line x1="368.4" y1="283.3" x2="372.4" y2="283.3" stroke="#9ca3af" stroke-width="1"/>
  <text x="376.4" y="283.3" text-anchor="start" dominant-baseline="middle" fill="#6b7280" font-size="8.5">2M/s</text>
  <line x1="368.4" y1="213.5" x2="372.4" y2="213.5" stroke="#9ca3af" stroke-width="1"/>
  <text x="376.4" y="213.5" text-anchor="start" dominant-baseline="middle" fill="#6b7280" font-size="8.5">4M/s</text>
  <line x1="368.4" y1="143.8" x2="372.4" y2="143.8" stroke="#9ca3af" stroke-width="1"/>
  <text x="376.4" y="143.8" text-anchor="start" dominant-baseline="middle" fill="#6b7280" font-size="8.5">6M/s</text>
  <line x1="368.4" y1="74.1" x2="372.4" y2="74.1" stroke="#9ca3af" stroke-width="1"/>
  <text x="376.4" y="74.1" text-anchor="start" dominant-baseline="middle" fill="#6b7280" font-size="8.5">8M/s</text>
  <line x1="78.0" y1="73.0" x2="78.0" y2="353.0" stroke="#e5e7eb" stroke-width="1"/>
  <line x1="223.2" y1="73.0" x2="223.2" y2="353.0" stroke="#e5e7eb" stroke-width="1"/>
  <line x1="368.4" y1="73.0" x2="368.4" y2="353.0" stroke="#e5e7eb" stroke-width="1"/>
  <line x1="78.0" y1="73.0" x2="78.0" y2="353.0" stroke="#9ca3af" stroke-width="1.5"/>
  <line x1="368.4" y1="73.0" x2="368.4" y2="353.0" stroke="#9ca3af" stroke-width="1.5"/>
  <line x1="78.0" y1="353.0" x2="368.4" y2="353.0" stroke="#9ca3af" stroke-width="1.5"/>
  <text x="30.0" y="213.0" text-anchor="middle" fill="#374151" font-size="10" font-weight="600" transform="rotate(-90,30.0,213.0)">CPU %</text>
  <polyline points="78.0,164.4 223.2,167.0 368.4,162.6" fill="none" stroke="#15803d" stroke-width="1.6" stroke-dasharray="2,5" opacity="0.85"/>
  <polyline points="78.0,151.3 223.2,124.6 368.4,150.4" fill="none" stroke="#eab308" stroke-width="1.6" stroke-dasharray="2,5" opacity="0.85"/>
  <polyline points="78.0,137.6 223.2,141.9 368.4,144.2" fill="none" stroke="#dc2626" stroke-width="1.6" stroke-dasharray="2,5" opacity="0.85"/>
  <polyline points="78.0,250.1 223.2,254.7 368.4,252.9" fill="none" stroke="#f97316" stroke-width="1.6" stroke-dasharray="2,5" opacity="0.85"/>
  <polyline points="78.0,295.3 223.2,300.1 368.4,301.5" fill="none" stroke="#16a34a" stroke-width="1.6" stroke-dasharray="2,5" opacity="0.85"/>
  <polyline points="78.0,266.2 223.2,265.4 368.4,265.4" fill="none" stroke="#2563eb" stroke-width="1.6" stroke-dasharray="2,5" opacity="0.85"/>
  <polyline points="78.0,288.9 223.2,290.2 368.4,282.9" fill="none" stroke="#15803d" stroke-width="2.5" stroke-dasharray="6,3"/>
  <polyline points="78.0,109.5 223.2,195.9 368.4,278.2" fill="none" stroke="#eab308" stroke-width="2.5" stroke-dasharray="6,3"/>
  <polyline points="78.0,137.9 223.2,213.9 368.4,212.3" fill="none" stroke="#dc2626" stroke-width="2.5" stroke-dasharray="6,3"/>
  <polyline points="78.0,123.4 223.2,205.3 368.4,226.2" fill="none" stroke="#f97316" stroke-width="2.5" stroke-dasharray="6,3"/>
  <polyline points="78.0,271.3 223.2,275.0 368.4,279.2" fill="none" stroke="#16a34a" stroke-width="2.5" stroke-dasharray="6,3"/>
  <polyline points="78.0,333.6 223.2,333.8 368.4,334.3" fill="none" stroke="#2563eb" stroke-width="2.5" stroke-dasharray="6,3"/>
  <text x="78.0" y="367.0" text-anchor="middle" fill="#374151" font-size="8.5">16 B</text>
  <text x="223.2" y="367.0" text-anchor="middle" fill="#374151" font-size="8.5">64 B</text>
  <text x="368.4" y="367.0" text-anchor="middle" fill="#374151" font-size="8.5">256 B</text>
  <text x="684.2" y="60.0" text-anchor="middle" fill="#111827" font-size="11.5" font-weight="700">medium/large messages: GB/s</text>
  <line x1="466.4" y1="297.0" x2="902.0" y2="297.0" stroke="#e5e7eb" stroke-width="1"/>
  <text x="458.4" y="297.0" text-anchor="end" dominant-baseline="middle" fill="#374151" font-size="8.5">100%</text>
  <line x1="466.4" y1="241.0" x2="902.0" y2="241.0" stroke="#e5e7eb" stroke-width="1"/>
  <text x="458.4" y="241.0" text-anchor="end" dominant-baseline="middle" fill="#374151" font-size="8.5">200%</text>
  <line x1="466.4" y1="185.0" x2="902.0" y2="185.0" stroke="#e5e7eb" stroke-width="1"/>
  <text x="458.4" y="185.0" text-anchor="end" dominant-baseline="middle" fill="#374151" font-size="8.5">300%</text>
  <line x1="466.4" y1="129.0" x2="902.0" y2="129.0" stroke="#e5e7eb" stroke-width="1"/>
  <text x="458.4" y="129.0" text-anchor="end" dominant-baseline="middle" fill="#374151" font-size="8.5">400%</text>
  <line x1="466.4" y1="73.0" x2="902.0" y2="73.0" stroke="#e5e7eb" stroke-width="1"/>
  <text x="458.4" y="73.0" text-anchor="end" dominant-baseline="middle" fill="#374151" font-size="8.5">500%</text>
  <line x1="902.0" y1="306.3" x2="906.0" y2="306.3" stroke="#9ca3af" stroke-width="1"/>
  <text x="910.0" y="306.3" text-anchor="start" dominant-baseline="middle" fill="#6b7280" font-size="8.5">1 GB/s</text>
  <line x1="902.0" y1="259.7" x2="906.0" y2="259.7" stroke="#9ca3af" stroke-width="1"/>
  <text x="910.0" y="259.7" text-anchor="start" dominant-baseline="middle" fill="#6b7280" font-size="8.5">2 GB/s</text>
  <line x1="902.0" y1="213.0" x2="906.0" y2="213.0" stroke="#9ca3af" stroke-width="1"/>
  <text x="910.0" y="213.0" text-anchor="start" dominant-baseline="middle" fill="#6b7280" font-size="8.5">3 GB/s</text>
  <line x1="902.0" y1="166.3" x2="906.0" y2="166.3" stroke="#9ca3af" stroke-width="1"/>
  <text x="910.0" y="166.3" text-anchor="start" dominant-baseline="middle" fill="#6b7280" font-size="8.5">4 GB/s</text>
  <line x1="902.0" y1="119.7" x2="906.0" y2="119.7" stroke="#9ca3af" stroke-width="1"/>
  <text x="910.0" y="119.7" text-anchor="start" dominant-baseline="middle" fill="#6b7280" font-size="8.5">5 GB/s</text>
  <line x1="902.0" y1="73.0" x2="906.0" y2="73.0" stroke="#9ca3af" stroke-width="1"/>
  <text x="910.0" y="73.0" text-anchor="start" dominant-baseline="middle" fill="#6b7280" font-size="8.5">6 GB/s</text>
  <line x1="466.4" y1="73.0" x2="466.4" y2="353.0" stroke="#e5e7eb" stroke-width="1"/>
  <line x1="611.6" y1="73.0" x2="611.6" y2="353.0" stroke="#e5e7eb" stroke-width="1"/>
  <line x1="756.8" y1="73.0" x2="756.8" y2="353.0" stroke="#e5e7eb" stroke-width="1"/>
  <line x1="902.0" y1="73.0" x2="902.0" y2="353.0" stroke="#e5e7eb" stroke-width="1"/>
  <line x1="466.4" y1="73.0" x2="466.4" y2="353.0" stroke="#9ca3af" stroke-width="1.5"/>
  <line x1="902.0" y1="73.0" x2="902.0" y2="353.0" stroke="#9ca3af" stroke-width="1.5"/>
  <line x1="466.4" y1="353.0" x2="902.0" y2="353.0" stroke="#9ca3af" stroke-width="1.5"/>
  <text x="418.4" y="213.0" text-anchor="middle" fill="#374151" font-size="10" font-weight="600" transform="rotate(-90,418.4,213.0)">CPU %</text>
  <polyline points="466.4,162.6 611.6,166.2 756.8,188.9 902.0,204.1" fill="none" stroke="#15803d" stroke-width="1.6" stroke-dasharray="2,5" opacity="0.85"/>
  <polyline points="466.4,150.4 611.6,166.4 756.8,181.3 902.0,178.5" fill="none" stroke="#eab308" stroke-width="1.6" stroke-dasharray="2,5" opacity="0.85"/>
  <polyline points="466.4,144.2 611.6,159.1 756.8,174.9 902.0,193.2" fill="none" stroke="#dc2626" stroke-width="1.6" stroke-dasharray="2,5" opacity="0.85"/>
  <polyline points="466.4,252.9 611.6,257.2 756.8,263.2 902.0,269.6" fill="none" stroke="#f97316" stroke-width="1.6" stroke-dasharray="2,5" opacity="0.85"/>
  <polyline points="466.4,301.5 611.6,241.1 756.8,242.2 902.0,297.6" fill="none" stroke="#16a34a" stroke-width="1.6" stroke-dasharray="2,5" opacity="0.85"/>
  <polyline points="466.4,265.4 611.6,206.7 756.8,217.9 902.0,299.5" fill="none" stroke="#2563eb" stroke-width="1.6" stroke-dasharray="2,5" opacity="0.85"/>
  <polyline points="466.4,329.0 611.6,270.9 756.8,185.0 902.0,127.2" fill="none" stroke="#15803d" stroke-width="2.5" stroke-linecap="round" stroke-linejoin="round"/>
  <circle cx="466.4" cy="329.0" r="3" fill="#15803d" stroke="white" stroke-width="1"/>
  <circle cx="611.6" cy="270.9" r="3" fill="#15803d" stroke="white" stroke-width="1"/>
  <circle cx="756.8" cy="185.0" r="3" fill="#15803d" stroke="white" stroke-width="1"/>
  <circle cx="902.0" cy="127.2" r="3" fill="#15803d" stroke="white" stroke-width="1"/>
  <polyline points="466.4,327.4 611.6,301.8 756.8,288.8 902.0,272.2" fill="none" stroke="#eab308" stroke-width="2.5" stroke-linecap="round" stroke-linejoin="round"/>
  <circle cx="466.4" cy="327.4" r="3" fill="#eab308" stroke="white" stroke-width="1"/>
  <circle cx="611.6" cy="301.8" r="3" fill="#eab308" stroke="white" stroke-width="1"/>
  <circle cx="756.8" cy="288.8" r="3" fill="#eab308" stroke="white" stroke-width="1"/>
  <circle cx="902.0" cy="272.2" r="3" fill="#eab308" stroke="white" stroke-width="1"/>
  <polyline points="466.4,304.8 611.6,196.8 756.8,94.2 902.0,68.6" fill="none" stroke="#dc2626" stroke-width="2.5" stroke-linecap="round" stroke-linejoin="round"/>
  <circle cx="466.4" cy="304.8" r="3" fill="#dc2626" stroke="white" stroke-width="1"/>
  <circle cx="611.6" cy="196.8" r="3" fill="#dc2626" stroke="white" stroke-width="1"/>
  <circle cx="756.8" cy="94.2" r="3" fill="#dc2626" stroke="white" stroke-width="1"/>
  <circle cx="902.0" cy="68.6" r="3" fill="#dc2626" stroke="white" stroke-width="1"/>
  <polyline points="466.4,309.6 611.6,241.2 756.8,164.5 902.0,162.4" fill="none" stroke="#f97316" stroke-width="2.5" stroke-linecap="round" stroke-linejoin="round"/>
  <circle cx="466.4" cy="309.6" r="3" fill="#f97316" stroke="white" stroke-width="1"/>
  <circle cx="611.6" cy="241.2" r="3" fill="#f97316" stroke="white" stroke-width="1"/>
  <circle cx="756.8" cy="164.5" r="3" fill="#f97316" stroke="white" stroke-width="1"/>
  <circle cx="902.0" cy="162.4" r="3" fill="#f97316" stroke="white" stroke-width="1"/>
  <polyline points="466.4,327.7 611.6,280.4 756.8,237.9 902.0,239.0" fill="none" stroke="#16a34a" stroke-width="2.5" stroke-linecap="round" stroke-linejoin="round"/>
  <circle cx="466.4" cy="327.7" r="3" fill="#16a34a" stroke="white" stroke-width="1"/>
  <circle cx="611.6" cy="280.4" r="3" fill="#16a34a" stroke="white" stroke-width="1"/>
  <circle cx="756.8" cy="237.9" r="3" fill="#16a34a" stroke="white" stroke-width="1"/>
  <circle cx="902.0" cy="239.0" r="3" fill="#16a34a" stroke="white" stroke-width="1"/>
  <polyline points="466.4,346.6 611.6,329.1 756.8,285.1 902.0,217.1" fill="none" stroke="#2563eb" stroke-width="2.5" stroke-linecap="round" stroke-linejoin="round"/>
  <circle cx="466.4" cy="346.6" r="3" fill="#2563eb" stroke="white" stroke-width="1"/>
  <circle cx="611.6" cy="329.1" r="3" fill="#2563eb" stroke="white" stroke-width="1"/>
  <circle cx="756.8" cy="285.1" r="3" fill="#2563eb" stroke="white" stroke-width="1"/>
  <circle cx="902.0" cy="217.1" r="3" fill="#2563eb" stroke="white" stroke-width="1"/>
  <text x="466.4" y="367.0" text-anchor="middle" fill="#374151" font-size="8.5">256 B</text>
  <text x="611.6" y="367.0" text-anchor="middle" fill="#374151" font-size="8.5">1 KiB</text>
  <text x="756.8" y="367.0" text-anchor="middle" fill="#374151" font-size="8.5">4 KiB</text>
  <text x="902.0" y="367.0" text-anchor="middle" fill="#374151" font-size="8.5">16 KiB</text>
  <line x1="205" y1="391" x2="219" y2="391" stroke="#eab308" stroke-width="2.5"/>
  <circle cx="212" cy="391" r="2.5" fill="#eab308"/>
  <text x="225" y="395" fill="#374151" font-size="11" font-weight="500">libzmq v4.3.5</text>
  <line x1="395" y1="391" x2="409" y2="391" stroke="#f97316" stroke-width="2.5"/>
  <circle cx="402" cy="391" r="2.5" fill="#f97316"/>
  <text x="415" y="395" fill="#374151" font-size="11" font-weight="500">omq-tokio (ST)</text>
  <line x1="585" y1="391" x2="599" y2="391" stroke="#dc2626" stroke-width="2.5"/>
  <circle cx="592" cy="391" r="2.5" fill="#dc2626"/>
  <text x="605" y="395" fill="#374151" font-size="11" font-weight="500">omq-tokio (MT)</text>
  <line x1="205" y1="411" x2="219" y2="411" stroke="#2563eb" stroke-width="2.5"/>
  <circle cx="212" cy="411" r="2.5" fill="#2563eb"/>
  <text x="225" y="415" fill="#374151" font-size="11" font-weight="500">zmq.rs v0.6.0 (MT)</text>
  <line x1="395" y1="411" x2="409" y2="411" stroke="#16a34a" stroke-width="2.5"/>
  <circle cx="402" cy="411" r="2.5" fill="#16a34a"/>
  <text x="415" y="415" fill="#374151" font-size="11" font-weight="500">rzmq v0.5.22 (MT)</text>
  <line x1="585" y1="411" x2="599" y2="411" stroke="#15803d" stroke-width="2.5"/>
  <circle cx="592" cy="411" r="2.5" fill="#15803d"/>
  <text x="605" y="415" fill="#374151" font-size="11" font-weight="500">rzmq v0.5.22 (io_uring, MT)</text>
  <text x="490.0" y="429" text-anchor="middle" fill="#9ca3af" font-size="9">ST = single-threaded   MT = multi-threaded</text>
  <line x1="205" y1="451" x2="219" y2="451" stroke="#6b7280" stroke-width="1.6" stroke-dasharray="2,5" opacity="0.85"/>
  <text x="225" y="455" fill="#6b7280" font-size="10">CPU % (left)</text>
  <line x1="350" y1="451" x2="364" y2="451" stroke="#6b7280" stroke-width="2.5" stroke-dasharray="6,3"/>
  <text x="370" y="455" fill="#6b7280" font-size="10">msg/s (small panel)</text>
  <line x1="540" y1="451" x2="554" y2="451" stroke="#6b7280" stroke-width="2.5"/>
  <circle cx="547" cy="451" r="3.0" fill="#6b7280"/>
  <text x="560" y="455" fill="#6b7280" font-size="10">GB/s (large panel)</text>
</svg>
