<svg xmlns="http://www.w3.org/2000/svg" viewBox="0 0 875 534" font-family="system-ui, -apple-system, sans-serif">
  <rect width="875" height="534" fill="white"/>
  <text x="395.0" y="32.0" text-anchor="middle" fill="#111827" font-size="13" font-weight="700">PUSH/PULL throughput: TCP loopback, 2-process</text>
  <line x1="90.0" y1="341.0" x2="700.0" y2="341.0" stroke="#e5e7eb" stroke-width="1"/>
  <text x="82.0" y="341.0" text-anchor="end" dominant-baseline="middle" fill="#374151" font-size="10">100%</text>
  <line x1="90.0" y1="268.0" x2="700.0" y2="268.0" stroke="#e5e7eb" stroke-width="1"/>
  <text x="82.0" y="268.0" text-anchor="end" dominant-baseline="middle" fill="#374151" font-size="10">200%</text>
  <line x1="90.0" y1="195.0" x2="700.0" y2="195.0" stroke="#e5e7eb" stroke-width="1"/>
  <text x="82.0" y="195.0" text-anchor="end" dominant-baseline="middle" fill="#374151" font-size="10">300%</text>
  <line x1="90.0" y1="122.0" x2="700.0" y2="122.0" stroke="#e5e7eb" stroke-width="1"/>
  <text x="82.0" y="122.0" text-anchor="end" dominant-baseline="middle" fill="#374151" font-size="10">400%</text>
  <line x1="90.0" y1="49.0" x2="700.0" y2="49.0" stroke="#e5e7eb" stroke-width="1"/>
  <text x="82.0" y="49.0" text-anchor="end" dominant-baseline="middle" fill="#374151" font-size="10">500%</text>
  <line x1="90.0" y1="353.2" x2="700.0" y2="353.2" stroke="#e5e7eb" stroke-width="1" stroke-dasharray="3,6"/>
  <text x="708.0" y="353.2" text-anchor="start" dominant-baseline="middle" fill="#6b7280" font-size="10">1 GB/s</text>
  <line x1="90.0" y1="292.3" x2="700.0" y2="292.3" stroke="#e5e7eb" stroke-width="1" stroke-dasharray="3,6"/>
  <text x="708.0" y="292.3" text-anchor="start" dominant-baseline="middle" fill="#6b7280" font-size="10">2 GB/s</text>
  <line x1="90.0" y1="231.5" x2="700.0" y2="231.5" stroke="#e5e7eb" stroke-width="1" stroke-dasharray="3,6"/>
  <text x="708.0" y="231.5" text-anchor="start" dominant-baseline="middle" fill="#6b7280" font-size="10">3 GB/s</text>
  <line x1="90.0" y1="170.7" x2="700.0" y2="170.7" stroke="#e5e7eb" stroke-width="1" stroke-dasharray="3,6"/>
  <text x="708.0" y="170.7" text-anchor="start" dominant-baseline="middle" fill="#6b7280" font-size="10">4 GB/s</text>
  <line x1="90.0" y1="109.8" x2="700.0" y2="109.8" stroke="#e5e7eb" stroke-width="1" stroke-dasharray="3,6"/>
  <text x="708.0" y="109.8" text-anchor="start" dominant-baseline="middle" fill="#6b7280" font-size="10">5 GB/s</text>
  <line x1="90.0" y1="49.0" x2="700.0" y2="49.0" stroke="#e5e7eb" stroke-width="1" stroke-dasharray="3,6"/>
  <text x="708.0" y="49.0" text-anchor="start" dominant-baseline="middle" fill="#6b7280" font-size="10">6 GB/s</text>
  <text x="788.0" y="319.4" text-anchor="start" dominant-baseline="middle" fill="#9ca3af" font-size="10">5M/s</text>
  <text x="788.0" y="224.9" text-anchor="start" dominant-baseline="middle" fill="#9ca3af" font-size="10">10M/s</text>
  <text x="788.0" y="130.3" text-anchor="start" dominant-baseline="middle" fill="#9ca3af" font-size="10">15M/s</text>
  <line x1="90.0" y1="49.0" x2="90.0" y2="414.0" stroke="#e5e7eb" stroke-width="1"/>
  <line x1="140.8" y1="49.0" x2="140.8" y2="414.0" stroke="#e5e7eb" stroke-width="1"/>
  <line x1="191.7" y1="49.0" x2="191.7" y2="414.0" stroke="#e5e7eb" stroke-width="1"/>
  <line x1="242.5" y1="49.0" x2="242.5" y2="414.0" stroke="#e5e7eb" stroke-width="1"/>
  <line x1="293.3" y1="49.0" x2="293.3" y2="414.0" stroke="#e5e7eb" stroke-width="1"/>
  <line x1="344.2" y1="49.0" x2="344.2" y2="414.0" stroke="#e5e7eb" stroke-width="1"/>
  <line x1="395.0" y1="49.0" x2="395.0" y2="414.0" stroke="#e5e7eb" stroke-width="1"/>
  <line x1="445.8" y1="49.0" x2="445.8" y2="414.0" stroke="#e5e7eb" stroke-width="1"/>
  <line x1="496.7" y1="49.0" x2="496.7" y2="414.0" stroke="#e5e7eb" stroke-width="1"/>
  <line x1="547.5" y1="49.0" x2="547.5" y2="414.0" stroke="#e5e7eb" stroke-width="1"/>
  <line x1="598.3" y1="49.0" x2="598.3" y2="414.0" stroke="#e5e7eb" stroke-width="1"/>
  <line x1="649.2" y1="49.0" x2="649.2" y2="414.0" stroke="#e5e7eb" stroke-width="1"/>
  <line x1="700.0" y1="49.0" x2="700.0" y2="414.0" stroke="#e5e7eb" stroke-width="1"/>
  <line x1="90.0" y1="49.0" x2="90.0" y2="414.0" stroke="#9ca3af" stroke-width="1.5"/>
  <line x1="700.0" y1="49.0" x2="700.0" y2="414.0" stroke="#9ca3af" stroke-width="1.5"/>
  <line x1="90.0" y1="414.0" x2="700.0" y2="414.0" stroke="#9ca3af" stroke-width="1.5"/>
  <line x1="780.0" y1="49.0" x2="780.0" y2="414.0" stroke="#d1d5db" stroke-width="1"/>
  <text x="40.0" y="231.5" text-anchor="middle" fill="#374151" font-size="10" font-weight="600" transform="rotate(-90,40.0,231.5)">CPU %</text>
  <polyline points="90.0,126.4 140.8,112.1 191.7,118.4 242.5,109.3 293.3,176.6 344.2,162.0 395.0,178.9 445.8,184.6 496.7,195.8 547.5,187.2 598.3,197.3 649.2,206.7 700.0,200.2" fill="none" stroke="#eab308" stroke-width="2" stroke-dasharray="2,3"/>
  <polyline points="90.0,120.7 140.8,127.7 191.7,110.9 242.5,145.9 293.3,160.1 344.2,228.7 395.0,190.3 445.8,186.0 496.7,183.9 547.5,195.2 598.3,200.6 649.2,211.3 700.0,208.9" fill="none" stroke="#dc2626" stroke-width="2" stroke-dasharray="2,3"/>
  <polyline points="90.0,291.1 140.8,293.2 191.7,291.4 242.5,299.5 293.3,291.0 344.2,299.4 395.0,286.6 445.8,272.8 496.7,268.1 547.5,272.5 598.3,295.4 649.2,295.5 700.0,294.9" fill="none" stroke="#f97316" stroke-width="2" stroke-dasharray="2,3"/>
  <polyline points="90.0,304.3 140.8,305.8 191.7,309.2 242.5,278.4 293.3,289.9 344.2,292.1 395.0,289.8 445.8,291.1 496.7,281.8 547.5,280.7 598.3,278.1 649.2,276.0 700.0,267.5" fill="none" stroke="#7c3aed" stroke-width="2" stroke-dasharray="2,3"/>
  <polyline points="90.0,292.5 140.8,282.0 191.7,284.9 242.5,329.4 293.3,371.4 344.2,374.5 395.0,386.4 445.8,397.2 496.7,404.2 547.5,407.9 598.3,411.3 649.2,412.6 700.0,412.9" fill="none" stroke="#eab308" stroke-width="1.5" stroke-dasharray="5,3"/>
  <polyline points="90.0,287.0 140.8,297.9 191.7,291.7 242.5,315.0 293.3,314.8 344.2,331.1 395.0,344.0 445.8,359.8 496.7,377.8 547.5,389.8 598.3,400.5 649.2,407.6 700.0,410.7" fill="none" stroke="#dc2626" stroke-width="1.5" stroke-dasharray="5,3"/>
  <polyline points="90.0,326.4 140.8,327.0 191.7,325.9 242.5,344.8 293.3,347.5 344.2,362.0 395.0,361.2 445.8,369.9 496.7,385.5 547.5,398.4 598.3,405.1 649.2,409.4 700.0,411.6" fill="none" stroke="#f97316" stroke-width="1.5" stroke-dasharray="5,3"/>
  <polyline points="90.0,96.6 140.8,116.3 191.7,179.6 242.5,250.9 293.3,301.1 344.2,336.6 395.0,353.7 445.8,374.5 496.7,387.0 547.5,399.6 598.3,406.4 649.2,409.9 700.0,411.6" fill="none" stroke="#7c3aed" stroke-width="1.5" stroke-dasharray="5,3"/>
  <polyline points="90.0,410.9 140.8,407.2 191.7,400.7 242.5,396.6 293.3,396.4 344.2,381.4 395.0,368.6 445.8,358.7 496.7,349.7 547.5,334.2 598.3,342.5 649.2,342.1 700.0,297.3" fill="none" stroke="#eab308" stroke-width="2.5" stroke-linecap="round" stroke-linejoin="round"/>
  <circle cx="90.0" cy="410.9" r="3" fill="#eab308" stroke="white" stroke-width="1"/>
  <circle cx="140.8" cy="407.2" r="3" fill="#eab308" stroke="white" stroke-width="1"/>
  <circle cx="191.7" cy="400.7" r="3" fill="#eab308" stroke="white" stroke-width="1"/>
  <circle cx="242.5" cy="396.6" r="3" fill="#eab308" stroke="white" stroke-width="1"/>
  <circle cx="293.3" cy="396.4" r="3" fill="#eab308" stroke="white" stroke-width="1"/>
  <circle cx="344.2" cy="381.4" r="3" fill="#eab308" stroke="white" stroke-width="1"/>
  <circle cx="395.0" cy="368.6" r="3" fill="#eab308" stroke="white" stroke-width="1"/>
  <circle cx="445.8" cy="358.7" r="3" fill="#eab308" stroke="white" stroke-width="1"/>
  <circle cx="496.7" cy="349.7" r="3" fill="#eab308" stroke="white" stroke-width="1"/>
  <circle cx="547.5" cy="334.2" r="3" fill="#eab308" stroke="white" stroke-width="1"/>
  <circle cx="598.3" cy="342.5" r="3" fill="#eab308" stroke="white" stroke-width="1"/>
  <circle cx="649.2" cy="342.1" r="3" fill="#eab308" stroke="white" stroke-width="1"/>
  <circle cx="700.0" cy="297.3" r="3" fill="#eab308" stroke="white" stroke-width="1"/>
  <polyline points="90.0,410.7 140.8,408.0 191.7,401.4 242.5,393.6 293.3,373.2 344.2,345.7 395.0,298.6 445.8,235.4 496.7,175.2 547.5,95.1 598.3,58.8 649.2,78.4 700.0,68.4" fill="none" stroke="#dc2626" stroke-width="2.5" stroke-linecap="round" stroke-linejoin="round"/>
  <circle cx="90.0" cy="410.7" r="3" fill="#dc2626" stroke="white" stroke-width="1"/>
  <circle cx="140.8" cy="408.0" r="3" fill="#dc2626" stroke="white" stroke-width="1"/>
  <circle cx="191.7" cy="401.4" r="3" fill="#dc2626" stroke="white" stroke-width="1"/>
  <circle cx="242.5" cy="393.6" r="3" fill="#dc2626" stroke="white" stroke-width="1"/>
  <circle cx="293.3" cy="373.2" r="3" fill="#dc2626" stroke="white" stroke-width="1"/>
  <circle cx="344.2" cy="345.7" r="3" fill="#dc2626" stroke="white" stroke-width="1"/>
  <circle cx="395.0" cy="298.6" r="3" fill="#dc2626" stroke="white" stroke-width="1"/>
  <circle cx="445.8" cy="235.4" r="3" fill="#dc2626" stroke="white" stroke-width="1"/>
  <circle cx="496.7" cy="175.2" r="3" fill="#dc2626" stroke="white" stroke-width="1"/>
  <circle cx="547.5" cy="95.1" r="3" fill="#dc2626" stroke="white" stroke-width="1"/>
  <circle cx="598.3" cy="58.8" r="3" fill="#dc2626" stroke="white" stroke-width="1"/>
  <circle cx="649.2" cy="78.4" r="3" fill="#dc2626" stroke="white" stroke-width="1"/>
  <circle cx="700.0" cy="68.4" r="3" fill="#dc2626" stroke="white" stroke-width="1"/>
  <polyline points="90.0,411.7 140.8,409.5 191.7,404.9 242.5,399.7 293.3,386.6 344.2,371.2 395.0,327.0 445.8,268.7 496.7,226.3 547.5,209.1 598.3,178.7 649.2,170.5 700.0,164.0" fill="none" stroke="#f97316" stroke-width="2.5" stroke-linecap="round" stroke-linejoin="round"/>
  <circle cx="90.0" cy="411.7" r="3" fill="#f97316" stroke="white" stroke-width="1"/>
  <circle cx="140.8" cy="409.5" r="3" fill="#f97316" stroke="white" stroke-width="1"/>
  <circle cx="191.7" cy="404.9" r="3" fill="#f97316" stroke="white" stroke-width="1"/>
  <circle cx="242.5" cy="399.7" r="3" fill="#f97316" stroke="white" stroke-width="1"/>
  <circle cx="293.3" cy="386.6" r="3" fill="#f97316" stroke="white" stroke-width="1"/>
  <circle cx="344.2" cy="371.2" r="3" fill="#f97316" stroke="white" stroke-width="1"/>
  <circle cx="395.0" cy="327.0" r="3" fill="#f97316" stroke="white" stroke-width="1"/>
  <circle cx="445.8" cy="268.7" r="3" fill="#f97316" stroke="white" stroke-width="1"/>
  <circle cx="496.7" cy="226.3" r="3" fill="#f97316" stroke="white" stroke-width="1"/>
  <circle cx="547.5" cy="209.1" r="3" fill="#f97316" stroke="white" stroke-width="1"/>
  <circle cx="598.3" cy="178.7" r="3" fill="#f97316" stroke="white" stroke-width="1"/>
  <circle cx="649.2" cy="170.5" r="3" fill="#f97316" stroke="white" stroke-width="1"/>
  <circle cx="700.0" cy="164.0" r="3" fill="#f97316" stroke="white" stroke-width="1"/>
  <polyline points="90.0,405.8 140.8,398.7 191.7,389.9 242.5,380.4 293.3,367.5 344.2,350.3 395.0,314.8 445.8,284.0 496.7,235.9 547.5,223.8 598.3,213.8 649.2,196.6 700.0,158.4" fill="none" stroke="#7c3aed" stroke-width="2.5" stroke-linecap="round" stroke-linejoin="round"/>
  <circle cx="90.0" cy="405.8" r="3" fill="#7c3aed" stroke="white" stroke-width="1"/>
  <circle cx="140.8" cy="398.7" r="3" fill="#7c3aed" stroke="white" stroke-width="1"/>
  <circle cx="191.7" cy="389.9" r="3" fill="#7c3aed" stroke="white" stroke-width="1"/>
  <circle cx="242.5" cy="380.4" r="3" fill="#7c3aed" stroke="white" stroke-width="1"/>
  <circle cx="293.3" cy="367.5" r="3" fill="#7c3aed" stroke="white" stroke-width="1"/>
  <circle cx="344.2" cy="350.3" r="3" fill="#7c3aed" stroke="white" stroke-width="1"/>
  <circle cx="395.0" cy="314.8" r="3" fill="#7c3aed" stroke="white" stroke-width="1"/>
  <circle cx="445.8" cy="284.0" r="3" fill="#7c3aed" stroke="white" stroke-width="1"/>
  <circle cx="496.7" cy="235.9" r="3" fill="#7c3aed" stroke="white" stroke-width="1"/>
  <circle cx="547.5" cy="223.8" r="3" fill="#7c3aed" stroke="white" stroke-width="1"/>
  <circle cx="598.3" cy="213.8" r="3" fill="#7c3aed" stroke="white" stroke-width="1"/>
  <circle cx="649.2" cy="196.6" r="3" fill="#7c3aed" stroke="white" stroke-width="1"/>
  <circle cx="700.0" cy="158.4" r="3" fill="#7c3aed" stroke="white" stroke-width="1"/>
  <text x="90.0" y="428.0" text-anchor="middle" fill="#374151" font-size="8.5">8 B</text>
  <text x="140.8" y="428.0" text-anchor="middle" fill="#374151" font-size="8.5">16 B</text>
  <text x="191.7" y="428.0" text-anchor="middle" fill="#374151" font-size="8.5">32 B</text>
  <text x="242.5" y="428.0" text-anchor="middle" fill="#374151" font-size="8.5">64 B</text>
  <text x="293.3" y="428.0" text-anchor="middle" fill="#374151" font-size="8.5">128 B</text>
  <text x="344.2" y="428.0" text-anchor="middle" fill="#374151" font-size="8.5">256 B</text>
  <text x="395.0" y="428.0" text-anchor="middle" fill="#374151" font-size="8.5">512 B</text>
  <text x="445.8" y="428.0" text-anchor="middle" fill="#374151" font-size="8.5">1 KiB</text>
  <text x="496.7" y="428.0" text-anchor="middle" fill="#374151" font-size="8.5">2 KiB</text>
  <text x="547.5" y="428.0" text-anchor="middle" fill="#374151" font-size="8.5">4 KiB</text>
  <text x="598.3" y="428.0" text-anchor="middle" fill="#374151" font-size="8.5">8 KiB</text>
  <text x="649.2" y="428.0" text-anchor="middle" fill="#374151" font-size="8.5">16 KiB</text>
  <text x="700.0" y="428.0" text-anchor="middle" fill="#374151" font-size="8.5">32 KiB</text>
  <text x="395.0" y="46" text-anchor="middle" fill="#9ca3af" font-size="10">Linux VM on a 2018 Mac Mini, Intel Core i7-8700B @ 3.20GHz, 6 cores, performance governor, turbo off</text>
  <line x1="145" y1="454" x2="159" y2="454" stroke="#eab308" stroke-width="2.5"/>
  <circle cx="152" cy="454" r="2.5" fill="#eab308"/>
  <text x="165" y="458" fill="#374151" font-size="11" font-weight="500">libzmq v4.3.5</text>
  <line x1="270" y1="454" x2="284" y2="454" stroke="#7c3aed" stroke-width="2.5"/>
  <circle cx="277" cy="454" r="2.5" fill="#7c3aed"/>
  <text x="290" y="458" fill="#374151" font-size="11" font-weight="500">omq-compio</text>
  <line x1="395" y1="454" x2="409" y2="454" stroke="#f97316" stroke-width="2.5"/>
  <circle cx="402" cy="454" r="2.5" fill="#f97316"/>
  <text x="415" y="458" fill="#374151" font-size="11" font-weight="500">omq-tokio</text>
  <line x1="520" y1="454" x2="534" y2="454" stroke="#dc2626" stroke-width="2.5"/>
  <circle cx="527" cy="454" r="2.5" fill="#dc2626"/>
  <text x="540" y="458" fill="#374151" font-size="11" font-weight="500">omq-tokio (MT)</text>
  <line x1="145" y1="476" x2="159" y2="476" stroke="#6b7280" stroke-width="2" stroke-dasharray="2,3" opacity="0.7"/>
  <text x="165" y="480" fill="#6b7280" font-size="10">CPU % (left)</text>
  <line x1="290" y1="476" x2="304" y2="476" stroke="#6b7280" stroke-width="2.5"/>
  <circle cx="297" cy="476" r="2" fill="#6b7280"/>
  <text x="310" y="480" fill="#6b7280" font-size="10">GB/s (inner right)</text>
  <line x1="455" y1="476" x2="469" y2="476" stroke="#6b7280" stroke-width="1.5" stroke-dasharray="5,3"/>
  <text x="475" y="480" fill="#6b7280" font-size="10">msg/s (outer right)</text>
</svg>
