<svg xmlns="http://www.w3.org/2000/svg" viewBox="0 0 980 477" font-family="system-ui, -apple-system, sans-serif">
  <rect width="980" height="477" fill="white"/>
  <text x="490.0" y="17.0" text-anchor="middle" fill="#111827" font-size="14" font-weight="700">PUSH/PULL throughput: TCP loopback, 2-process</text>
  <text x="490.0" y="31.0" text-anchor="middle" fill="#9ca3af" font-size="9">Linux VM on a 2018 Mac Mini, Intel Core i7-8700B @ 3.20GHz, 6 cores, performance governor, turbo off</text>
  <text x="223.2" y="60.0" text-anchor="middle" fill="#111827" font-size="11.5" font-weight="700">small messages: msg/s</text>
  <line x1="78.0" y1="297.0" x2="368.4" y2="297.0" stroke="#e5e7eb" stroke-width="1"/>
  <text x="70.0" y="297.0" text-anchor="end" dominant-baseline="middle" fill="#374151" font-size="8.5">100%</text>
  <line x1="78.0" y1="241.0" x2="368.4" y2="241.0" stroke="#e5e7eb" stroke-width="1"/>
  <text x="70.0" y="241.0" text-anchor="end" dominant-baseline="middle" fill="#374151" font-size="8.5">200%</text>
  <line x1="78.0" y1="185.0" x2="368.4" y2="185.0" stroke="#e5e7eb" stroke-width="1"/>
  <text x="70.0" y="185.0" text-anchor="end" dominant-baseline="middle" fill="#374151" font-size="8.5">300%</text>
  <line x1="78.0" y1="129.0" x2="368.4" y2="129.0" stroke="#e5e7eb" stroke-width="1"/>
  <text x="70.0" y="129.0" text-anchor="end" dominant-baseline="middle" fill="#374151" font-size="8.5">400%</text>
  <line x1="78.0" y1="73.0" x2="368.4" y2="73.0" stroke="#e5e7eb" stroke-width="1"/>
  <text x="70.0" y="73.0" text-anchor="end" dominant-baseline="middle" fill="#374151" font-size="8.5">500%</text>
  <line x1="368.4" y1="285.6" x2="372.4" y2="285.6" stroke="#9ca3af" stroke-width="1"/>
  <text x="376.4" y="285.6" text-anchor="start" dominant-baseline="middle" fill="#6b7280" font-size="8.5">2M/s</text>
  <line x1="368.4" y1="218.2" x2="372.4" y2="218.2" stroke="#9ca3af" stroke-width="1"/>
  <text x="376.4" y="218.2" text-anchor="start" dominant-baseline="middle" fill="#6b7280" font-size="8.5">4M/s</text>
  <line x1="368.4" y1="150.8" x2="372.4" y2="150.8" stroke="#9ca3af" stroke-width="1"/>
  <text x="376.4" y="150.8" text-anchor="start" dominant-baseline="middle" fill="#6b7280" font-size="8.5">6M/s</text>
  <line x1="368.4" y1="83.4" x2="372.4" y2="83.4" stroke="#9ca3af" stroke-width="1"/>
  <text x="376.4" y="83.4" text-anchor="start" dominant-baseline="middle" fill="#6b7280" font-size="8.5">8M/s</text>
  <line x1="78.0" y1="73.0" x2="78.0" y2="353.0" stroke="#e5e7eb" stroke-width="1"/>
  <line x1="223.2" y1="73.0" x2="223.2" y2="353.0" stroke="#e5e7eb" stroke-width="1"/>
  <line x1="368.4" y1="73.0" x2="368.4" y2="353.0" stroke="#e5e7eb" stroke-width="1"/>
  <line x1="78.0" y1="73.0" x2="78.0" y2="353.0" stroke="#9ca3af" stroke-width="1.5"/>
  <line x1="368.4" y1="73.0" x2="368.4" y2="353.0" stroke="#9ca3af" stroke-width="1.5"/>
  <line x1="78.0" y1="353.0" x2="368.4" y2="353.0" stroke="#9ca3af" stroke-width="1.5"/>
  <text x="30.0" y="213.0" text-anchor="middle" fill="#374151" font-size="10" font-weight="600" transform="rotate(-90,30.0,213.0)">CPU %</text>
  <polyline points="78.0,168.2 223.2,169.0 368.4,175.0" fill="none" stroke="#15803d" stroke-width="1.6" stroke-dasharray="2,5" opacity="0.85"/>
  <polyline points="78.0,129.9 223.2,125.3 368.4,167.0" fill="none" stroke="#eab308" stroke-width="1.6" stroke-dasharray="2,5" opacity="0.85"/>
  <polyline points="78.0,119.8 223.2,125.4 368.4,169.7" fill="none" stroke="#a16207" stroke-width="1.6" stroke-dasharray="2,5" opacity="0.85"/>
  <polyline points="78.0,149.4 223.2,147.6 368.4,153.4" fill="none" stroke="#dc2626" stroke-width="1.6" stroke-dasharray="2,5" opacity="0.85"/>
  <polyline points="78.0,247.9 223.2,253.8 368.4,255.2" fill="none" stroke="#f97316" stroke-width="1.6" stroke-dasharray="2,5" opacity="0.85"/>
  <polyline points="78.0,238.0 223.2,238.2 368.4,246.4" fill="none" stroke="#16a34a" stroke-width="1.6" stroke-dasharray="2,5" opacity="0.85"/>
  <polyline points="78.0,234.8 223.2,239.4 368.4,240.9" fill="none" stroke="#2563eb" stroke-width="1.6" stroke-dasharray="2,5" opacity="0.85"/>
  <polyline points="78.0,292.3 223.2,293.4 368.4,296.0" fill="none" stroke="#15803d" stroke-width="2.5" stroke-dasharray="6,3"/>
  <polyline points="78.0,109.5 223.2,198.4 368.4,282.6" fill="none" stroke="#eab308" stroke-width="2.5" stroke-dasharray="6,3"/>
  <polyline points="78.0,114.8 223.2,196.5 368.4,284.3" fill="none" stroke="#a16207" stroke-width="2.5" stroke-dasharray="6,3"/>
  <polyline points="78.0,116.0 223.2,194.6 368.4,203.6" fill="none" stroke="#dc2626" stroke-width="2.5" stroke-dasharray="6,3"/>
  <polyline points="78.0,147.0 223.2,217.1 368.4,238.2" fill="none" stroke="#f97316" stroke-width="2.5" stroke-dasharray="6,3"/>
  <polyline points="78.0,274.5 223.2,275.1 368.4,281.6" fill="none" stroke="#16a34a" stroke-width="2.5" stroke-dasharray="6,3"/>
  <polyline points="78.0,341.5 223.2,343.8 368.4,344.5" fill="none" stroke="#2563eb" stroke-width="2.5" stroke-dasharray="6,3"/>
  <text x="78.0" y="367.0" text-anchor="middle" fill="#374151" font-size="8.5">16 B</text>
  <text x="223.2" y="367.0" text-anchor="middle" fill="#374151" font-size="8.5">64 B</text>
  <text x="368.4" y="367.0" text-anchor="middle" fill="#374151" font-size="8.5">256 B</text>
  <text x="684.2" y="60.0" text-anchor="middle" fill="#111827" font-size="11.5" font-weight="700">medium/large messages: GB/s</text>
  <line x1="466.4" y1="318.0" x2="902.0" y2="318.0" stroke="#e5e7eb" stroke-width="1"/>
  <text x="458.4" y="318.0" text-anchor="end" dominant-baseline="middle" fill="#374151" font-size="8.5">50%</text>
  <line x1="466.4" y1="283.0" x2="902.0" y2="283.0" stroke="#e5e7eb" stroke-width="1"/>
  <text x="458.4" y="283.0" text-anchor="end" dominant-baseline="middle" fill="#374151" font-size="8.5">100%</text>
  <line x1="466.4" y1="248.0" x2="902.0" y2="248.0" stroke="#e5e7eb" stroke-width="1"/>
  <text x="458.4" y="248.0" text-anchor="end" dominant-baseline="middle" fill="#374151" font-size="8.5">150%</text>
  <line x1="466.4" y1="213.0" x2="902.0" y2="213.0" stroke="#e5e7eb" stroke-width="1"/>
  <text x="458.4" y="213.0" text-anchor="end" dominant-baseline="middle" fill="#374151" font-size="8.5">200%</text>
  <line x1="466.4" y1="178.0" x2="902.0" y2="178.0" stroke="#e5e7eb" stroke-width="1"/>
  <text x="458.4" y="178.0" text-anchor="end" dominant-baseline="middle" fill="#374151" font-size="8.5">250%</text>
  <line x1="466.4" y1="143.0" x2="902.0" y2="143.0" stroke="#e5e7eb" stroke-width="1"/>
  <text x="458.4" y="143.0" text-anchor="end" dominant-baseline="middle" fill="#374151" font-size="8.5">300%</text>
  <line x1="466.4" y1="108.0" x2="902.0" y2="108.0" stroke="#e5e7eb" stroke-width="1"/>
  <text x="458.4" y="108.0" text-anchor="end" dominant-baseline="middle" fill="#374151" font-size="8.5">350%</text>
  <line x1="466.4" y1="73.0" x2="902.0" y2="73.0" stroke="#e5e7eb" stroke-width="1"/>
  <text x="458.4" y="73.0" text-anchor="end" dominant-baseline="middle" fill="#374151" font-size="8.5">400%</text>
  <line x1="902.0" y1="306.3" x2="906.0" y2="306.3" stroke="#9ca3af" stroke-width="1"/>
  <text x="910.0" y="306.3" text-anchor="start" dominant-baseline="middle" fill="#6b7280" font-size="8.5">1 GB/s</text>
  <line x1="902.0" y1="259.7" x2="906.0" y2="259.7" stroke="#9ca3af" stroke-width="1"/>
  <text x="910.0" y="259.7" text-anchor="start" dominant-baseline="middle" fill="#6b7280" font-size="8.5">2 GB/s</text>
  <line x1="902.0" y1="213.0" x2="906.0" y2="213.0" stroke="#9ca3af" stroke-width="1"/>
  <text x="910.0" y="213.0" text-anchor="start" dominant-baseline="middle" fill="#6b7280" font-size="8.5">3 GB/s</text>
  <line x1="902.0" y1="166.3" x2="906.0" y2="166.3" stroke="#9ca3af" stroke-width="1"/>
  <text x="910.0" y="166.3" text-anchor="start" dominant-baseline="middle" fill="#6b7280" font-size="8.5">4 GB/s</text>
  <line x1="902.0" y1="119.7" x2="906.0" y2="119.7" stroke="#9ca3af" stroke-width="1"/>
  <text x="910.0" y="119.7" text-anchor="start" dominant-baseline="middle" fill="#6b7280" font-size="8.5">5 GB/s</text>
  <line x1="902.0" y1="73.0" x2="906.0" y2="73.0" stroke="#9ca3af" stroke-width="1"/>
  <text x="910.0" y="73.0" text-anchor="start" dominant-baseline="middle" fill="#6b7280" font-size="8.5">6 GB/s</text>
  <line x1="466.4" y1="73.0" x2="466.4" y2="353.0" stroke="#e5e7eb" stroke-width="1"/>
  <line x1="611.6" y1="73.0" x2="611.6" y2="353.0" stroke="#e5e7eb" stroke-width="1"/>
  <line x1="756.8" y1="73.0" x2="756.8" y2="353.0" stroke="#e5e7eb" stroke-width="1"/>
  <line x1="902.0" y1="73.0" x2="902.0" y2="353.0" stroke="#e5e7eb" stroke-width="1"/>
  <line x1="466.4" y1="73.0" x2="466.4" y2="353.0" stroke="#9ca3af" stroke-width="1.5"/>
  <line x1="902.0" y1="73.0" x2="902.0" y2="353.0" stroke="#9ca3af" stroke-width="1.5"/>
  <line x1="466.4" y1="353.0" x2="902.0" y2="353.0" stroke="#9ca3af" stroke-width="1.5"/>
  <text x="418.4" y="213.0" text-anchor="middle" fill="#374151" font-size="10" font-weight="600" transform="rotate(-90,418.4,213.0)">CPU %</text>
  <polyline points="466.4,130.5 611.6,129.4 756.8,152.1 902.0,166.6" fill="none" stroke="#15803d" stroke-width="1.6" stroke-dasharray="2,5" opacity="0.85"/>
  <polyline points="466.4,120.5 611.6,141.6 756.8,148.4 902.0,156.5" fill="none" stroke="#eab308" stroke-width="1.6" stroke-dasharray="2,5" opacity="0.85"/>
  <polyline points="466.4,123.9 611.6,133.4 756.8,146.3 902.0,160.8" fill="none" stroke="#a16207" stroke-width="1.6" stroke-dasharray="2,5" opacity="0.85"/>
  <polyline points="466.4,103.5 611.6,115.2 756.8,184.4 902.0,152.2" fill="none" stroke="#dc2626" stroke-width="1.6" stroke-dasharray="2,5" opacity="0.85"/>
  <polyline points="466.4,230.7 611.6,234.4 756.8,241.9 902.0,242.8" fill="none" stroke="#f97316" stroke-width="1.6" stroke-dasharray="2,5" opacity="0.85"/>
  <polyline points="466.4,219.8 611.6,219.1 756.8,203.1 902.0,194.9" fill="none" stroke="#16a34a" stroke-width="1.6" stroke-dasharray="2,5" opacity="0.85"/>
  <polyline points="466.4,212.9 611.6,213.1 756.8,213.5 902.0,214.7" fill="none" stroke="#2563eb" stroke-width="1.6" stroke-dasharray="2,5" opacity="0.85"/>
  <polyline points="466.4,332.8 611.6,275.2 756.8,171.6 902.0,102.4" fill="none" stroke="#15803d" stroke-width="2.5" stroke-linecap="round" stroke-linejoin="round"/>
  <circle cx="466.4" cy="332.8" r="3" fill="#15803d" stroke="white" stroke-width="1"/>
  <circle cx="611.6" cy="275.2" r="3" fill="#15803d" stroke="white" stroke-width="1"/>
  <circle cx="756.8" cy="171.6" r="3" fill="#15803d" stroke="white" stroke-width="1"/>
  <circle cx="902.0" cy="102.4" r="3" fill="#15803d" stroke="white" stroke-width="1"/>
  <polyline points="466.4,328.0 611.6,310.7 756.8,298.0 902.0,297.5" fill="none" stroke="#eab308" stroke-width="2.5" stroke-linecap="round" stroke-linejoin="round"/>
  <circle cx="466.4" cy="328.0" r="3" fill="#eab308" stroke="white" stroke-width="1"/>
  <circle cx="611.6" cy="310.7" r="3" fill="#eab308" stroke="white" stroke-width="1"/>
  <circle cx="756.8" cy="298.0" r="3" fill="#eab308" stroke="white" stroke-width="1"/>
  <circle cx="902.0" cy="297.5" r="3" fill="#eab308" stroke="white" stroke-width="1"/>
  <polyline points="466.4,328.6 611.6,310.8 756.8,298.9 902.0,298.0" fill="none" stroke="#a16207" stroke-width="2.5" stroke-linecap="round" stroke-linejoin="round"/>
  <circle cx="466.4" cy="328.6" r="3" fill="#a16207" stroke="white" stroke-width="1"/>
  <circle cx="611.6" cy="310.8" r="3" fill="#a16207" stroke="white" stroke-width="1"/>
  <circle cx="756.8" cy="298.9" r="3" fill="#a16207" stroke="white" stroke-width="1"/>
  <circle cx="902.0" cy="298.0" r="3" fill="#a16207" stroke="white" stroke-width="1"/>
  <polyline points="466.4,300.0 611.6,189.3 756.8,216.1 902.0,94.0" fill="none" stroke="#dc2626" stroke-width="2.5" stroke-linecap="round" stroke-linejoin="round"/>
  <circle cx="466.4" cy="300.0" r="3" fill="#dc2626" stroke="white" stroke-width="1"/>
  <circle cx="611.6" cy="189.3" r="3" fill="#dc2626" stroke="white" stroke-width="1"/>
  <circle cx="756.8" cy="216.1" r="3" fill="#dc2626" stroke="white" stroke-width="1"/>
  <circle cx="902.0" cy="94.0" r="3" fill="#dc2626" stroke="white" stroke-width="1"/>
  <polyline points="466.4,312.3 611.6,250.0 756.8,191.8 902.0,170.1" fill="none" stroke="#f97316" stroke-width="2.5" stroke-linecap="round" stroke-linejoin="round"/>
  <circle cx="466.4" cy="312.3" r="3" fill="#f97316" stroke="white" stroke-width="1"/>
  <circle cx="611.6" cy="250.0" r="3" fill="#f97316" stroke="white" stroke-width="1"/>
  <circle cx="756.8" cy="191.8" r="3" fill="#f97316" stroke="white" stroke-width="1"/>
  <circle cx="902.0" cy="170.1" r="3" fill="#f97316" stroke="white" stroke-width="1"/>
  <polyline points="466.4,327.7 611.6,276.7 756.8,202.0 902.0,172.0" fill="none" stroke="#16a34a" stroke-width="2.5" stroke-linecap="round" stroke-linejoin="round"/>
  <circle cx="466.4" cy="327.7" r="3" fill="#16a34a" stroke="white" stroke-width="1"/>
  <circle cx="611.6" cy="276.7" r="3" fill="#16a34a" stroke="white" stroke-width="1"/>
  <circle cx="756.8" cy="202.0" r="3" fill="#16a34a" stroke="white" stroke-width="1"/>
  <circle cx="902.0" cy="172.0" r="3" fill="#16a34a" stroke="white" stroke-width="1"/>
  <polyline points="466.4,350.0 611.6,341.8 756.8,315.8 902.0,243.7" fill="none" stroke="#2563eb" stroke-width="2.5" stroke-linecap="round" stroke-linejoin="round"/>
  <circle cx="466.4" cy="350.0" r="3" fill="#2563eb" stroke="white" stroke-width="1"/>
  <circle cx="611.6" cy="341.8" r="3" fill="#2563eb" stroke="white" stroke-width="1"/>
  <circle cx="756.8" cy="315.8" r="3" fill="#2563eb" stroke="white" stroke-width="1"/>
  <circle cx="902.0" cy="243.7" r="3" fill="#2563eb" stroke="white" stroke-width="1"/>
  <text x="466.4" y="367.0" text-anchor="middle" fill="#374151" font-size="8.5">256 B</text>
  <text x="611.6" y="367.0" text-anchor="middle" fill="#374151" font-size="8.5">1 KiB</text>
  <text x="756.8" y="367.0" text-anchor="middle" fill="#374151" font-size="8.5">4 KiB</text>
  <text x="902.0" y="367.0" text-anchor="middle" fill="#374151" font-size="8.5">16 KiB</text>
  <line x1="110" y1="391" x2="124" y2="391" stroke="#eab308" stroke-width="2.5"/>
  <circle cx="117" cy="391" r="2.5" fill="#eab308"/>
  <text x="130" y="395" fill="#374151" font-size="11" font-weight="500">libzmq v4.3.5</text>
  <line x1="300" y1="391" x2="314" y2="391" stroke="#a16207" stroke-width="2.5"/>
  <circle cx="307" cy="391" r="2.5" fill="#a16207"/>
  <text x="320" y="395" fill="#374151" font-size="11" font-weight="500">libzmq v4.3.5 (4 IO threads)</text>
  <line x1="490" y1="391" x2="504" y2="391" stroke="#f97316" stroke-width="2.5"/>
  <circle cx="497" cy="391" r="2.5" fill="#f97316"/>
  <text x="510" y="395" fill="#374151" font-size="11" font-weight="500">omq-tokio (ST)</text>
  <line x1="680" y1="391" x2="694" y2="391" stroke="#dc2626" stroke-width="2.5"/>
  <circle cx="687" cy="391" r="2.5" fill="#dc2626"/>
  <text x="700" y="395" fill="#374151" font-size="11" font-weight="500">omq-tokio (MT)</text>
  <line x1="205" y1="411" x2="219" y2="411" stroke="#2563eb" stroke-width="2.5"/>
  <circle cx="212" cy="411" r="2.5" fill="#2563eb"/>
  <text x="225" y="415" fill="#374151" font-size="11" font-weight="500">zmq.rs v0.6.0 (MT)</text>
  <line x1="395" y1="411" x2="409" y2="411" stroke="#16a34a" stroke-width="2.5"/>
  <circle cx="402" cy="411" r="2.5" fill="#16a34a"/>
  <text x="415" y="415" fill="#374151" font-size="11" font-weight="500">rzmq v0.5.22 (MT)</text>
  <line x1="585" y1="411" x2="599" y2="411" stroke="#15803d" stroke-width="2.5"/>
  <circle cx="592" cy="411" r="2.5" fill="#15803d"/>
  <text x="605" y="415" fill="#374151" font-size="11" font-weight="500">rzmq v0.5.22 (io_uring, MT)</text>
  <text x="490.0" y="429" text-anchor="middle" fill="#9ca3af" font-size="9">ST = single-threaded   MT = multi-threaded</text>
  <line x1="205" y1="451" x2="219" y2="451" stroke="#6b7280" stroke-width="1.6" stroke-dasharray="2,5" opacity="0.85"/>
  <text x="225" y="455" fill="#6b7280" font-size="10">CPU % (left)</text>
  <line x1="350" y1="451" x2="364" y2="451" stroke="#6b7280" stroke-width="2.5" stroke-dasharray="6,3"/>
  <text x="370" y="455" fill="#6b7280" font-size="10">msg/s (small panel)</text>
  <line x1="540" y1="451" x2="554" y2="451" stroke="#6b7280" stroke-width="2.5"/>
  <circle cx="547" cy="451" r="3.0" fill="#6b7280"/>
  <text x="560" y="455" fill="#6b7280" font-size="10">GB/s (large panel)</text>
</svg>
