<svg xmlns="http://www.w3.org/2000/svg" viewBox="0 0 980 490" font-family="system-ui, -apple-system, sans-serif">
  <rect width="980" height="490" fill="white"/>
  <text x="490.0" y="17.0" text-anchor="middle" fill="#111827" font-size="14" font-weight="700">PUSH/PULL throughput: TCP loopback, 2-process</text>
  <text x="490.0" y="31.0" text-anchor="middle" fill="#9ca3af" font-size="9">Linux VM on a 2018 Mac Mini, Intel Core i7-8700B @ 3.20GHz, 6 cores, performance governor, turbo off</text>
  <text x="223.2" y="60.0" text-anchor="middle" fill="#111827" font-size="11.5" font-weight="700">small messages: msg/s</text>
  <line x1="78.0" y1="318.0" x2="368.4" y2="318.0" stroke="#e5e7eb" stroke-width="1"/>
  <text x="70.0" y="318.0" text-anchor="end" dominant-baseline="middle" fill="#374151" font-size="8.5">50%</text>
  <line x1="78.0" y1="283.0" x2="368.4" y2="283.0" stroke="#e5e7eb" stroke-width="1"/>
  <text x="70.0" y="283.0" text-anchor="end" dominant-baseline="middle" fill="#374151" font-size="8.5">100%</text>
  <line x1="78.0" y1="248.0" x2="368.4" y2="248.0" stroke="#e5e7eb" stroke-width="1"/>
  <text x="70.0" y="248.0" text-anchor="end" dominant-baseline="middle" fill="#374151" font-size="8.5">150%</text>
  <line x1="78.0" y1="213.0" x2="368.4" y2="213.0" stroke="#e5e7eb" stroke-width="1"/>
  <text x="70.0" y="213.0" text-anchor="end" dominant-baseline="middle" fill="#374151" font-size="8.5">200%</text>
  <line x1="78.0" y1="178.0" x2="368.4" y2="178.0" stroke="#e5e7eb" stroke-width="1"/>
  <text x="70.0" y="178.0" text-anchor="end" dominant-baseline="middle" fill="#374151" font-size="8.5">250%</text>
  <line x1="78.0" y1="143.0" x2="368.4" y2="143.0" stroke="#e5e7eb" stroke-width="1"/>
  <text x="70.0" y="143.0" text-anchor="end" dominant-baseline="middle" fill="#374151" font-size="8.5">300%</text>
  <line x1="78.0" y1="108.0" x2="368.4" y2="108.0" stroke="#e5e7eb" stroke-width="1"/>
  <text x="70.0" y="108.0" text-anchor="end" dominant-baseline="middle" fill="#374151" font-size="8.5">350%</text>
  <line x1="78.0" y1="73.0" x2="368.4" y2="73.0" stroke="#e5e7eb" stroke-width="1"/>
  <text x="70.0" y="73.0" text-anchor="end" dominant-baseline="middle" fill="#374151" font-size="8.5">400%</text>
  <line x1="368.4" y1="311.2" x2="372.4" y2="311.2" stroke="#9ca3af" stroke-width="1"/>
  <text x="376.4" y="311.2" text-anchor="start" dominant-baseline="middle" fill="#6b7280" font-size="8.5">2M/s</text>
  <line x1="368.4" y1="269.4" x2="372.4" y2="269.4" stroke="#9ca3af" stroke-width="1"/>
  <text x="376.4" y="269.4" text-anchor="start" dominant-baseline="middle" fill="#6b7280" font-size="8.5">4M/s</text>
  <line x1="368.4" y1="227.6" x2="372.4" y2="227.6" stroke="#9ca3af" stroke-width="1"/>
  <text x="376.4" y="227.6" text-anchor="start" dominant-baseline="middle" fill="#6b7280" font-size="8.5">6M/s</text>
  <line x1="368.4" y1="185.8" x2="372.4" y2="185.8" stroke="#9ca3af" stroke-width="1"/>
  <text x="376.4" y="185.8" text-anchor="start" dominant-baseline="middle" fill="#6b7280" font-size="8.5">8M/s</text>
  <line x1="368.4" y1="144.0" x2="372.4" y2="144.0" stroke="#9ca3af" stroke-width="1"/>
  <text x="376.4" y="144.0" text-anchor="start" dominant-baseline="middle" fill="#6b7280" font-size="8.5">10M/s</text>
  <line x1="368.4" y1="102.2" x2="372.4" y2="102.2" stroke="#9ca3af" stroke-width="1"/>
  <text x="376.4" y="102.2" text-anchor="start" dominant-baseline="middle" fill="#6b7280" font-size="8.5">12M/s</text>
  <line x1="78.0" y1="73.0" x2="78.0" y2="353.0" stroke="#e5e7eb" stroke-width="1"/>
  <line x1="174.8" y1="73.0" x2="174.8" y2="353.0" stroke="#e5e7eb" stroke-width="1"/>
  <line x1="271.6" y1="73.0" x2="271.6" y2="353.0" stroke="#e5e7eb" stroke-width="1"/>
  <line x1="368.4" y1="73.0" x2="368.4" y2="353.0" stroke="#e5e7eb" stroke-width="1"/>
  <line x1="78.0" y1="73.0" x2="78.0" y2="353.0" stroke="#9ca3af" stroke-width="1.5"/>
  <line x1="368.4" y1="73.0" x2="368.4" y2="353.0" stroke="#9ca3af" stroke-width="1.5"/>
  <line x1="78.0" y1="353.0" x2="368.4" y2="353.0" stroke="#9ca3af" stroke-width="1.5"/>
  <text x="30.0" y="213.0" text-anchor="middle" fill="#374151" font-size="10" font-weight="600" transform="rotate(-90,30.0,213.0)">CPU %</text>
  <polyline points="78.0,212.8 174.8,215.2 271.6,223.8 368.4,232.4" fill="none" stroke="#15803d" stroke-width="1.6" stroke-dasharray="2,5" opacity="0.85"/>
  <polyline points="78.0,215.6 174.8,200.2 271.6,227.2 368.4,246.9" fill="none" stroke="#eab308" stroke-width="1.6" stroke-dasharray="2,5" opacity="0.85"/>
  <polyline points="78.0,196.4 174.8,192.2 271.6,227.5 368.4,244.7" fill="none" stroke="#a16207" stroke-width="1.6" stroke-dasharray="2,5" opacity="0.85"/>
  <polyline points="78.0,189.4 174.8,193.4 271.6,214.9 368.4,241.9" fill="none" stroke="#dc2626" stroke-width="1.6" stroke-dasharray="2,5" opacity="0.85"/>
  <polyline points="78.0,282.1 174.8,282.5 271.6,282.8 368.4,282.8" fill="none" stroke="#f97316" stroke-width="1.6" stroke-dasharray="2,5" opacity="0.85"/>
  <polyline points="78.0,305.4 174.8,280.9 271.6,270.7 368.4,272.7" fill="none" stroke="#16a34a" stroke-width="1.6" stroke-dasharray="2,5" opacity="0.85"/>
  <polyline points="78.0,275.3 174.8,280.9 271.6,282.8 368.4,283.0" fill="none" stroke="#2563eb" stroke-width="1.6" stroke-dasharray="2,5" opacity="0.85"/>
  <polyline points="78.0,282.3 174.8,287.4 271.6,290.6 368.4,302.8" fill="none" stroke="#15803d" stroke-width="2.5" stroke-dasharray="6,3"/>
  <circle cx="78.0" cy="282.3" r="3" fill="#15803d" stroke="white" stroke-width="1"/>
  <circle cx="174.8" cy="287.4" r="3" fill="#15803d" stroke="white" stroke-width="1"/>
  <circle cx="271.6" cy="290.6" r="3" fill="#15803d" stroke="white" stroke-width="1"/>
  <circle cx="368.4" cy="302.8" r="3" fill="#15803d" stroke="white" stroke-width="1"/>
  <polyline points="78.0,211.4 174.8,263.4 271.6,310.2 368.4,334.5" fill="none" stroke="#eab308" stroke-width="2.5" stroke-dasharray="6,3"/>
  <circle cx="78.0" cy="211.4" r="3" fill="#eab308" stroke="white" stroke-width="1"/>
  <circle cx="174.8" cy="263.4" r="3" fill="#eab308" stroke="white" stroke-width="1"/>
  <circle cx="271.6" cy="310.2" r="3" fill="#eab308" stroke="white" stroke-width="1"/>
  <circle cx="368.4" cy="334.5" r="3" fill="#eab308" stroke="white" stroke-width="1"/>
  <polyline points="78.0,206.3 174.8,256.5 271.6,310.1 368.4,334.6" fill="none" stroke="#a16207" stroke-width="2.5" stroke-dasharray="6,3"/>
  <circle cx="78.0" cy="206.3" r="3" fill="#a16207" stroke="white" stroke-width="1"/>
  <circle cx="174.8" cy="256.5" r="3" fill="#a16207" stroke="white" stroke-width="1"/>
  <circle cx="271.6" cy="310.1" r="3" fill="#a16207" stroke="white" stroke-width="1"/>
  <circle cx="368.4" cy="334.6" r="3" fill="#a16207" stroke="white" stroke-width="1"/>
  <polyline points="78.0,109.5 174.8,208.4 271.6,241.7 368.4,288.8" fill="none" stroke="#dc2626" stroke-width="2.5" stroke-dasharray="6,3"/>
  <circle cx="78.0" cy="109.5" r="3" fill="#dc2626" stroke="white" stroke-width="1"/>
  <circle cx="174.8" cy="208.4" r="3" fill="#dc2626" stroke="white" stroke-width="1"/>
  <circle cx="271.6" cy="241.7" r="3" fill="#dc2626" stroke="white" stroke-width="1"/>
  <circle cx="368.4" cy="288.8" r="3" fill="#dc2626" stroke="white" stroke-width="1"/>
  <polyline points="78.0,199.2 174.8,249.1 271.6,266.0 368.4,301.9" fill="none" stroke="#f97316" stroke-width="2.5" stroke-dasharray="6,3"/>
  <circle cx="78.0" cy="199.2" r="3" fill="#f97316" stroke="white" stroke-width="1"/>
  <circle cx="174.8" cy="249.1" r="3" fill="#f97316" stroke="white" stroke-width="1"/>
  <circle cx="271.6" cy="266.0" r="3" fill="#f97316" stroke="white" stroke-width="1"/>
  <circle cx="368.4" cy="301.9" r="3" fill="#f97316" stroke="white" stroke-width="1"/>
  <polyline points="78.0,326.1 174.8,306.5 271.6,301.7 368.4,311.4" fill="none" stroke="#16a34a" stroke-width="2.5" stroke-dasharray="6,3"/>
  <circle cx="78.0" cy="326.1" r="3" fill="#16a34a" stroke="white" stroke-width="1"/>
  <circle cx="174.8" cy="306.5" r="3" fill="#16a34a" stroke="white" stroke-width="1"/>
  <circle cx="271.6" cy="301.7" r="3" fill="#16a34a" stroke="white" stroke-width="1"/>
  <circle cx="368.4" cy="311.4" r="3" fill="#16a34a" stroke="white" stroke-width="1"/>
  <polyline points="78.0,346.0 174.8,347.5 271.6,347.8 368.4,348.2" fill="none" stroke="#2563eb" stroke-width="2.5" stroke-dasharray="6,3"/>
  <circle cx="78.0" cy="346.0" r="3" fill="#2563eb" stroke="white" stroke-width="1"/>
  <circle cx="174.8" cy="347.5" r="3" fill="#2563eb" stroke="white" stroke-width="1"/>
  <circle cx="271.6" cy="347.8" r="3" fill="#2563eb" stroke="white" stroke-width="1"/>
  <circle cx="368.4" cy="348.2" r="3" fill="#2563eb" stroke="white" stroke-width="1"/>
  <text x="78.0" y="367.0" text-anchor="middle" fill="#374151" font-size="8.5">16 B</text>
  <text x="174.8" y="367.0" text-anchor="middle" fill="#374151" font-size="8.5">64 B</text>
  <text x="271.6" y="367.0" text-anchor="middle" fill="#374151" font-size="8.5">256 B</text>
  <text x="368.4" y="367.0" text-anchor="middle" fill="#374151" font-size="8.5">1 KiB</text>
  <text x="684.2" y="60.0" text-anchor="middle" fill="#111827" font-size="11.5" font-weight="700">medium/large messages: GB/s</text>
  <line x1="466.4" y1="318.0" x2="902.0" y2="318.0" stroke="#e5e7eb" stroke-width="1"/>
  <text x="458.4" y="318.0" text-anchor="end" dominant-baseline="middle" fill="#374151" font-size="8.5">50%</text>
  <line x1="466.4" y1="283.0" x2="902.0" y2="283.0" stroke="#e5e7eb" stroke-width="1"/>
  <text x="458.4" y="283.0" text-anchor="end" dominant-baseline="middle" fill="#374151" font-size="8.5">100%</text>
  <line x1="466.4" y1="248.0" x2="902.0" y2="248.0" stroke="#e5e7eb" stroke-width="1"/>
  <text x="458.4" y="248.0" text-anchor="end" dominant-baseline="middle" fill="#374151" font-size="8.5">150%</text>
  <line x1="466.4" y1="213.0" x2="902.0" y2="213.0" stroke="#e5e7eb" stroke-width="1"/>
  <text x="458.4" y="213.0" text-anchor="end" dominant-baseline="middle" fill="#374151" font-size="8.5">200%</text>
  <line x1="466.4" y1="178.0" x2="902.0" y2="178.0" stroke="#e5e7eb" stroke-width="1"/>
  <text x="458.4" y="178.0" text-anchor="end" dominant-baseline="middle" fill="#374151" font-size="8.5">250%</text>
  <line x1="466.4" y1="143.0" x2="902.0" y2="143.0" stroke="#e5e7eb" stroke-width="1"/>
  <text x="458.4" y="143.0" text-anchor="end" dominant-baseline="middle" fill="#374151" font-size="8.5">300%</text>
  <line x1="466.4" y1="108.0" x2="902.0" y2="108.0" stroke="#e5e7eb" stroke-width="1"/>
  <text x="458.4" y="108.0" text-anchor="end" dominant-baseline="middle" fill="#374151" font-size="8.5">350%</text>
  <line x1="466.4" y1="73.0" x2="902.0" y2="73.0" stroke="#e5e7eb" stroke-width="1"/>
  <text x="458.4" y="73.0" text-anchor="end" dominant-baseline="middle" fill="#374151" font-size="8.5">400%</text>
  <line x1="902.0" y1="306.3" x2="906.0" y2="306.3" stroke="#9ca3af" stroke-width="1"/>
  <text x="910.0" y="306.3" text-anchor="start" dominant-baseline="middle" fill="#6b7280" font-size="8.5">1 GB/s</text>
  <line x1="902.0" y1="259.7" x2="906.0" y2="259.7" stroke="#9ca3af" stroke-width="1"/>
  <text x="910.0" y="259.7" text-anchor="start" dominant-baseline="middle" fill="#6b7280" font-size="8.5">2 GB/s</text>
  <line x1="902.0" y1="213.0" x2="906.0" y2="213.0" stroke="#9ca3af" stroke-width="1"/>
  <text x="910.0" y="213.0" text-anchor="start" dominant-baseline="middle" fill="#6b7280" font-size="8.5">3 GB/s</text>
  <line x1="902.0" y1="166.3" x2="906.0" y2="166.3" stroke="#9ca3af" stroke-width="1"/>
  <text x="910.0" y="166.3" text-anchor="start" dominant-baseline="middle" fill="#6b7280" font-size="8.5">4 GB/s</text>
  <line x1="902.0" y1="119.7" x2="906.0" y2="119.7" stroke="#9ca3af" stroke-width="1"/>
  <text x="910.0" y="119.7" text-anchor="start" dominant-baseline="middle" fill="#6b7280" font-size="8.5">5 GB/s</text>
  <line x1="902.0" y1="73.0" x2="906.0" y2="73.0" stroke="#9ca3af" stroke-width="1"/>
  <text x="910.0" y="73.0" text-anchor="start" dominant-baseline="middle" fill="#6b7280" font-size="8.5">6 GB/s</text>
  <line x1="466.4" y1="73.0" x2="466.4" y2="353.0" stroke="#e5e7eb" stroke-width="1"/>
  <line x1="611.6" y1="73.0" x2="611.6" y2="353.0" stroke="#e5e7eb" stroke-width="1"/>
  <line x1="756.8" y1="73.0" x2="756.8" y2="353.0" stroke="#e5e7eb" stroke-width="1"/>
  <line x1="902.0" y1="73.0" x2="902.0" y2="353.0" stroke="#e5e7eb" stroke-width="1"/>
  <line x1="466.4" y1="73.0" x2="466.4" y2="353.0" stroke="#9ca3af" stroke-width="1.5"/>
  <line x1="902.0" y1="73.0" x2="902.0" y2="353.0" stroke="#9ca3af" stroke-width="1.5"/>
  <line x1="466.4" y1="353.0" x2="902.0" y2="353.0" stroke="#9ca3af" stroke-width="1.5"/>
  <text x="418.4" y="213.0" text-anchor="middle" fill="#374151" font-size="10" font-weight="600" transform="rotate(-90,418.4,213.0)">CPU %</text>
  <polyline points="466.4,223.8 611.6,232.4 756.8,251.1 902.0,264.4" fill="none" stroke="#15803d" stroke-width="1.6" stroke-dasharray="2,5" opacity="0.85"/>
  <polyline points="466.4,227.2 611.6,246.9 756.8,265.5 902.0,262.9" fill="none" stroke="#eab308" stroke-width="1.6" stroke-dasharray="2,5" opacity="0.85"/>
  <polyline points="466.4,227.5 611.6,244.7 756.8,266.9 902.0,265.0" fill="none" stroke="#a16207" stroke-width="1.6" stroke-dasharray="2,5" opacity="0.85"/>
  <polyline points="466.4,214.9 611.6,241.9 756.8,258.3 902.0,277.6" fill="none" stroke="#dc2626" stroke-width="1.6" stroke-dasharray="2,5" opacity="0.85"/>
  <polyline points="466.4,282.8 611.6,282.8 756.8,283.7 902.0,288.7" fill="none" stroke="#f97316" stroke-width="1.6" stroke-dasharray="2,5" opacity="0.85"/>
  <polyline points="466.4,270.7 611.6,272.7 756.8,267.6 902.0,284.4" fill="none" stroke="#16a34a" stroke-width="1.6" stroke-dasharray="2,5" opacity="0.85"/>
  <polyline points="466.4,282.8 611.6,283.0 756.8,283.2 902.0,283.2" fill="none" stroke="#2563eb" stroke-width="1.6" stroke-dasharray="2,5" opacity="0.85"/>
  <polyline points="466.4,317.4 611.6,238.2 756.8,157.9 902.0,108.6" fill="none" stroke="#15803d" stroke-width="2.5" stroke-linecap="round" stroke-linejoin="round"/>
  <circle cx="466.4" cy="317.4" r="3" fill="#15803d" stroke="white" stroke-width="1"/>
  <circle cx="611.6" cy="238.2" r="3" fill="#15803d" stroke="white" stroke-width="1"/>
  <circle cx="756.8" cy="157.9" r="3" fill="#15803d" stroke="white" stroke-width="1"/>
  <circle cx="902.0" cy="108.6" r="3" fill="#15803d" stroke="white" stroke-width="1"/>
  <polyline points="466.4,328.5 611.6,310.6 756.8,299.9 902.0,297.9" fill="none" stroke="#eab308" stroke-width="2.5" stroke-linecap="round" stroke-linejoin="round"/>
  <circle cx="466.4" cy="328.5" r="3" fill="#eab308" stroke="white" stroke-width="1"/>
  <circle cx="611.6" cy="310.6" r="3" fill="#eab308" stroke="white" stroke-width="1"/>
  <circle cx="756.8" cy="299.9" r="3" fill="#eab308" stroke="white" stroke-width="1"/>
  <circle cx="902.0" cy="297.9" r="3" fill="#eab308" stroke="white" stroke-width="1"/>
  <polyline points="466.4,328.5 611.6,310.8 756.8,301.2 902.0,298.1" fill="none" stroke="#a16207" stroke-width="2.5" stroke-linecap="round" stroke-linejoin="round"/>
  <circle cx="466.4" cy="328.5" r="3" fill="#a16207" stroke="white" stroke-width="1"/>
  <circle cx="611.6" cy="310.8" r="3" fill="#a16207" stroke="white" stroke-width="1"/>
  <circle cx="756.8" cy="301.2" r="3" fill="#a16207" stroke="white" stroke-width="1"/>
  <circle cx="902.0" cy="298.1" r="3" fill="#a16207" stroke="white" stroke-width="1"/>
  <polyline points="466.4,289.4 611.6,206.2 756.8,161.6 902.0,148.3" fill="none" stroke="#dc2626" stroke-width="2.5" stroke-linecap="round" stroke-linejoin="round"/>
  <circle cx="466.4" cy="289.4" r="3" fill="#dc2626" stroke="white" stroke-width="1"/>
  <circle cx="611.6" cy="206.2" r="3" fill="#dc2626" stroke="white" stroke-width="1"/>
  <circle cx="756.8" cy="161.6" r="3" fill="#dc2626" stroke="white" stroke-width="1"/>
  <circle cx="902.0" cy="148.3" r="3" fill="#dc2626" stroke="white" stroke-width="1"/>
  <polyline points="466.4,303.2 611.6,236.2 756.8,165.8 902.0,136.2" fill="none" stroke="#f97316" stroke-width="2.5" stroke-linecap="round" stroke-linejoin="round"/>
  <circle cx="466.4" cy="303.2" r="3" fill="#f97316" stroke="white" stroke-width="1"/>
  <circle cx="611.6" cy="236.2" r="3" fill="#f97316" stroke="white" stroke-width="1"/>
  <circle cx="756.8" cy="165.8" r="3" fill="#f97316" stroke="white" stroke-width="1"/>
  <circle cx="902.0" cy="136.2" r="3" fill="#f97316" stroke="white" stroke-width="1"/>
  <polyline points="466.4,323.7 611.6,257.8 756.8,197.5 902.0,207.8" fill="none" stroke="#16a34a" stroke-width="2.5" stroke-linecap="round" stroke-linejoin="round"/>
  <circle cx="466.4" cy="323.7" r="3" fill="#16a34a" stroke="white" stroke-width="1"/>
  <circle cx="611.6" cy="257.8" r="3" fill="#16a34a" stroke="white" stroke-width="1"/>
  <circle cx="756.8" cy="197.5" r="3" fill="#16a34a" stroke="white" stroke-width="1"/>
  <circle cx="902.0" cy="207.8" r="3" fill="#16a34a" stroke="white" stroke-width="1"/>
  <polyline points="466.4,350.1 611.6,342.0 756.8,316.6 902.0,245.7" fill="none" stroke="#2563eb" stroke-width="2.5" stroke-linecap="round" stroke-linejoin="round"/>
  <circle cx="466.4" cy="350.1" r="3" fill="#2563eb" stroke="white" stroke-width="1"/>
  <circle cx="611.6" cy="342.0" r="3" fill="#2563eb" stroke="white" stroke-width="1"/>
  <circle cx="756.8" cy="316.6" r="3" fill="#2563eb" stroke="white" stroke-width="1"/>
  <circle cx="902.0" cy="245.7" r="3" fill="#2563eb" stroke="white" stroke-width="1"/>
  <text x="466.4" y="367.0" text-anchor="middle" fill="#374151" font-size="8.5">256 B</text>
  <text x="611.6" y="367.0" text-anchor="middle" fill="#374151" font-size="8.5">1 KiB</text>
  <text x="756.8" y="367.0" text-anchor="middle" fill="#374151" font-size="8.5">4 KiB</text>
  <text x="902.0" y="367.0" text-anchor="middle" fill="#374151" font-size="8.5">16 KiB</text>
  <line x1="110" y1="391" x2="124" y2="391" stroke="#eab308" stroke-width="2.5"/>
  <circle cx="117" cy="391" r="2.5" fill="#eab308"/>
  <text x="130" y="395" fill="#374151" font-size="11" font-weight="500">libzmq v4.3.5 (1T)</text>
  <line x1="300" y1="391" x2="314" y2="391" stroke="#a16207" stroke-width="2.5"/>
  <circle cx="307" cy="391" r="2.5" fill="#a16207"/>
  <text x="320" y="395" fill="#374151" font-size="11" font-weight="500">libzmq v4.3.5 (4T)</text>
  <line x1="490" y1="391" x2="504" y2="391" stroke="#f97316" stroke-width="2.5"/>
  <circle cx="497" cy="391" r="2.5" fill="#f97316"/>
  <text x="510" y="395" fill="#374151" font-size="11" font-weight="500">omq-tokio (1T)</text>
  <line x1="680" y1="391" x2="694" y2="391" stroke="#dc2626" stroke-width="2.5"/>
  <circle cx="687" cy="391" r="2.5" fill="#dc2626"/>
  <text x="700" y="395" fill="#374151" font-size="11" font-weight="500">omq-tokio (2T)</text>
  <line x1="205" y1="411" x2="219" y2="411" stroke="#2563eb" stroke-width="2.5"/>
  <circle cx="212" cy="411" r="2.5" fill="#2563eb"/>
  <text x="225" y="415" fill="#374151" font-size="11" font-weight="500">zmq.rs v0.6.0 [6T]</text>
  <line x1="395" y1="411" x2="409" y2="411" stroke="#16a34a" stroke-width="2.5"/>
  <circle cx="402" cy="411" r="2.5" fill="#16a34a"/>
  <text x="415" y="415" fill="#374151" font-size="11" font-weight="500">rzmq v0.5.24 [6T]</text>
  <line x1="585" y1="411" x2="599" y2="411" stroke="#15803d" stroke-width="2.5"/>
  <circle cx="592" cy="411" r="2.5" fill="#15803d"/>
  <text x="605" y="415" fill="#374151" font-size="11" font-weight="500">rzmq v0.5.24 (io_uring) [6T]</text>
  <text x="110" y="429" fill="#9ca3af" font-size="9">(nT) = configurable IO threads</text>
  <text x="110" y="442" fill="#9ca3af" font-size="9">[nT] = fixed IO threads</text>
  <line x1="205" y1="464" x2="219" y2="464" stroke="#6b7280" stroke-width="1.6" stroke-dasharray="2,5" opacity="0.85"/>
  <text x="225" y="468" fill="#6b7280" font-size="10">CPU % (left)</text>
  <line x1="350" y1="464" x2="364" y2="464" stroke="#6b7280" stroke-width="2.5" stroke-dasharray="6,3"/>
  <text x="370" y="468" fill="#6b7280" font-size="10">msg/s (small panel)</text>
  <line x1="540" y1="464" x2="554" y2="464" stroke="#6b7280" stroke-width="2.5"/>
  <text x="560" y="468" fill="#6b7280" font-size="10">GB/s (large panel)</text>
</svg>
