<svg xmlns="http://www.w3.org/2000/svg" viewBox="0 0 875 572" font-family="system-ui, -apple-system, sans-serif">
  <rect width="875" height="572" fill="white"/>
  <text x="395.0" y="32.0" text-anchor="middle" fill="#111827" font-size="13" font-weight="700">PUSH/PULL throughput: TCP loopback, 2-process</text>
  <line x1="90.0" y1="341.0" x2="700.0" y2="341.0" stroke="#e5e7eb" stroke-width="1"/>
  <text x="82.0" y="341.0" text-anchor="end" dominant-baseline="middle" fill="#374151" font-size="10">100%</text>
  <line x1="90.0" y1="268.0" x2="700.0" y2="268.0" stroke="#e5e7eb" stroke-width="1"/>
  <text x="82.0" y="268.0" text-anchor="end" dominant-baseline="middle" fill="#374151" font-size="10">200%</text>
  <line x1="90.0" y1="195.0" x2="700.0" y2="195.0" stroke="#e5e7eb" stroke-width="1"/>
  <text x="82.0" y="195.0" text-anchor="end" dominant-baseline="middle" fill="#374151" font-size="10">300%</text>
  <line x1="90.0" y1="122.0" x2="700.0" y2="122.0" stroke="#e5e7eb" stroke-width="1"/>
  <text x="82.0" y="122.0" text-anchor="end" dominant-baseline="middle" fill="#374151" font-size="10">400%</text>
  <line x1="90.0" y1="49.0" x2="700.0" y2="49.0" stroke="#e5e7eb" stroke-width="1"/>
  <text x="82.0" y="49.0" text-anchor="end" dominant-baseline="middle" fill="#374151" font-size="10">500%</text>
  <line x1="90.0" y1="353.2" x2="700.0" y2="353.2" stroke="#e5e7eb" stroke-width="1" stroke-dasharray="3,6"/>
  <text x="708.0" y="353.2" text-anchor="start" dominant-baseline="middle" fill="#6b7280" font-size="10">1 GB/s</text>
  <line x1="90.0" y1="292.3" x2="700.0" y2="292.3" stroke="#e5e7eb" stroke-width="1" stroke-dasharray="3,6"/>
  <text x="708.0" y="292.3" text-anchor="start" dominant-baseline="middle" fill="#6b7280" font-size="10">2 GB/s</text>
  <line x1="90.0" y1="231.5" x2="700.0" y2="231.5" stroke="#e5e7eb" stroke-width="1" stroke-dasharray="3,6"/>
  <text x="708.0" y="231.5" text-anchor="start" dominant-baseline="middle" fill="#6b7280" font-size="10">3 GB/s</text>
  <line x1="90.0" y1="170.7" x2="700.0" y2="170.7" stroke="#e5e7eb" stroke-width="1" stroke-dasharray="3,6"/>
  <text x="708.0" y="170.7" text-anchor="start" dominant-baseline="middle" fill="#6b7280" font-size="10">4 GB/s</text>
  <line x1="90.0" y1="109.8" x2="700.0" y2="109.8" stroke="#e5e7eb" stroke-width="1" stroke-dasharray="3,6"/>
  <text x="708.0" y="109.8" text-anchor="start" dominant-baseline="middle" fill="#6b7280" font-size="10">5 GB/s</text>
  <line x1="90.0" y1="49.0" x2="700.0" y2="49.0" stroke="#e5e7eb" stroke-width="1" stroke-dasharray="3,6"/>
  <text x="708.0" y="49.0" text-anchor="start" dominant-baseline="middle" fill="#6b7280" font-size="10">6 GB/s</text>
  <text x="788.0" y="370.1" text-anchor="start" dominant-baseline="middle" fill="#9ca3af" font-size="10">1M/s</text>
  <text x="788.0" y="326.1" text-anchor="start" dominant-baseline="middle" fill="#9ca3af" font-size="10">2M/s</text>
  <text x="788.0" y="282.2" text-anchor="start" dominant-baseline="middle" fill="#9ca3af" font-size="10">3M/s</text>
  <text x="788.0" y="238.3" text-anchor="start" dominant-baseline="middle" fill="#9ca3af" font-size="10">4M/s</text>
  <text x="788.0" y="194.4" text-anchor="start" dominant-baseline="middle" fill="#9ca3af" font-size="10">5M/s</text>
  <text x="788.0" y="150.4" text-anchor="start" dominant-baseline="middle" fill="#9ca3af" font-size="10">6M/s</text>
  <text x="788.0" y="106.5" text-anchor="start" dominant-baseline="middle" fill="#9ca3af" font-size="10">7M/s</text>
  <text x="788.0" y="62.6" text-anchor="start" dominant-baseline="middle" fill="#9ca3af" font-size="10">8M/s</text>
  <line x1="90.0" y1="49.0" x2="90.0" y2="414.0" stroke="#e5e7eb" stroke-width="1"/>
  <line x1="212.0" y1="49.0" x2="212.0" y2="414.0" stroke="#e5e7eb" stroke-width="1"/>
  <line x1="334.0" y1="49.0" x2="334.0" y2="414.0" stroke="#e5e7eb" stroke-width="1"/>
  <line x1="456.0" y1="49.0" x2="456.0" y2="414.0" stroke="#e5e7eb" stroke-width="1"/>
  <line x1="578.0" y1="49.0" x2="578.0" y2="414.0" stroke="#e5e7eb" stroke-width="1"/>
  <line x1="700.0" y1="49.0" x2="700.0" y2="414.0" stroke="#e5e7eb" stroke-width="1"/>
  <line x1="90.0" y1="49.0" x2="90.0" y2="414.0" stroke="#9ca3af" stroke-width="1.5"/>
  <line x1="700.0" y1="49.0" x2="700.0" y2="414.0" stroke="#9ca3af" stroke-width="1.5"/>
  <line x1="90.0" y1="414.0" x2="700.0" y2="414.0" stroke="#9ca3af" stroke-width="1.5"/>
  <line x1="780.0" y1="49.0" x2="780.0" y2="414.0" stroke="#d1d5db" stroke-width="1"/>
  <text x="40.0" y="231.5" text-anchor="middle" fill="#374151" font-size="10" font-weight="600" transform="rotate(-90,40.0,231.5)">CPU %</text>
  <polyline points="90.0,173.0 212.0,174.2 334.0,181.9 456.0,180.8 578.0,204.5 700.0,219.6" fill="none" stroke="#15803d" stroke-width="1.6" stroke-dasharray="2,5" opacity="0.85"/>
  <polyline points="90.0,123.2 212.0,117.2 334.0,171.5 456.0,193.5 578.0,200.7 700.0,209.1" fill="none" stroke="#eab308" stroke-width="1.6" stroke-dasharray="2,5" opacity="0.85"/>
  <polyline points="90.0,148.5 212.0,146.3 334.0,153.8 456.0,166.0 578.0,195.2 700.0,204.6" fill="none" stroke="#dc2626" stroke-width="1.6" stroke-dasharray="2,5" opacity="0.85"/>
  <polyline points="90.0,277.0 212.0,284.7 334.0,286.5 456.0,290.3 578.0,298.3 700.0,299.1" fill="none" stroke="#f97316" stroke-width="1.6" stroke-dasharray="2,5" opacity="0.85"/>
  <polyline points="90.0,264.1 212.0,264.4 334.0,275.1 456.0,274.3 578.0,257.7 700.0,249.1" fill="none" stroke="#16a34a" stroke-width="1.6" stroke-dasharray="2,5" opacity="0.85"/>
  <polyline points="90.0,259.9 212.0,266.0 334.0,267.9 456.0,268.1 578.0,268.5 700.0,269.7" fill="none" stroke="#2563eb" stroke-width="1.6" stroke-dasharray="2,5" opacity="0.85"/>
  <polyline points="90.0,334.9 212.0,336.3 334.0,339.7 456.0,342.5 578.0,372.3 700.0,399.6" fill="none" stroke="#15803d" stroke-width="2.0" stroke-dasharray="5,3"/>
  <polyline points="90.0,96.6 212.0,212.5 334.0,322.2 456.0,375.1 578.0,401.4 700.0,410.8" fill="none" stroke="#eab308" stroke-width="2.0" stroke-dasharray="5,3"/>
  <polyline points="90.0,105.0 212.0,207.6 334.0,219.2 456.0,263.5 578.0,363.3 700.0,399.1" fill="none" stroke="#dc2626" stroke-width="2.0" stroke-dasharray="5,3"/>
  <polyline points="90.0,145.5 212.0,236.8 334.0,264.4 456.0,319.3 578.0,376.0 700.0,403.5" fill="none" stroke="#f97316" stroke-width="2.0" stroke-dasharray="5,3"/>
  <polyline points="90.0,311.6 212.0,312.4 334.0,320.9 456.0,343.9 578.0,379.3 700.0,403.6" fill="none" stroke="#16a34a" stroke-width="2.0" stroke-dasharray="5,3"/>
  <polyline points="90.0,399.0 212.0,402.1 334.0,402.9 456.0,403.7 578.0,405.4 700.0,407.7" fill="none" stroke="#2563eb" stroke-width="2.0" stroke-dasharray="5,3"/>
  <polyline points="90.0,412.2 212.0,407.1 334.0,387.7 456.0,312.6 578.0,177.5 700.0,87.3" fill="none" stroke="#15803d" stroke-width="2.0" stroke-linecap="round" stroke-linejoin="round"/>
  <circle cx="90.0" cy="412.2" r="2.2" fill="#15803d" stroke="white" stroke-width="1"/>
  <circle cx="212.0" cy="407.1" r="2.2" fill="#15803d" stroke="white" stroke-width="1"/>
  <circle cx="334.0" cy="387.7" r="2.2" fill="#15803d" stroke="white" stroke-width="1"/>
  <circle cx="456.0" cy="312.6" r="2.2" fill="#15803d" stroke="white" stroke-width="1"/>
  <circle cx="578.0" cy="177.5" r="2.2" fill="#15803d" stroke="white" stroke-width="1"/>
  <circle cx="700.0" cy="87.3" r="2.2" fill="#15803d" stroke="white" stroke-width="1"/>
  <polyline points="90.0,407.0 212.0,396.1 334.0,381.5 456.0,358.8 578.0,342.3 700.0,341.7" fill="none" stroke="#eab308" stroke-width="2.0" stroke-linecap="round" stroke-linejoin="round"/>
  <circle cx="90.0" cy="407.0" r="2.2" fill="#eab308" stroke="white" stroke-width="1"/>
  <circle cx="212.0" cy="396.1" r="2.2" fill="#eab308" stroke="white" stroke-width="1"/>
  <circle cx="334.0" cy="381.5" r="2.2" fill="#eab308" stroke="white" stroke-width="1"/>
  <circle cx="456.0" cy="358.8" r="2.2" fill="#eab308" stroke="white" stroke-width="1"/>
  <circle cx="578.0" cy="342.3" r="2.2" fill="#eab308" stroke="white" stroke-width="1"/>
  <circle cx="700.0" cy="341.7" r="2.2" fill="#eab308" stroke="white" stroke-width="1"/>
  <polyline points="90.0,407.2 212.0,395.7 334.0,345.0 456.0,200.6 578.0,126.4 700.0,76.4" fill="none" stroke="#dc2626" stroke-width="2.0" stroke-linecap="round" stroke-linejoin="round"/>
  <circle cx="90.0" cy="407.2" r="2.2" fill="#dc2626" stroke="white" stroke-width="1"/>
  <circle cx="212.0" cy="395.7" r="2.2" fill="#dc2626" stroke="white" stroke-width="1"/>
  <circle cx="334.0" cy="345.0" r="2.2" fill="#dc2626" stroke="white" stroke-width="1"/>
  <circle cx="456.0" cy="200.6" r="2.2" fill="#dc2626" stroke="white" stroke-width="1"/>
  <circle cx="578.0" cy="126.4" r="2.2" fill="#dc2626" stroke="white" stroke-width="1"/>
  <circle cx="700.0" cy="76.4" r="2.2" fill="#dc2626" stroke="white" stroke-width="1"/>
  <polyline points="90.0,408.1 212.0,398.3 334.0,361.0 456.0,279.7 578.0,198.3 700.0,175.6" fill="none" stroke="#f97316" stroke-width="2.0" stroke-linecap="round" stroke-linejoin="round"/>
  <circle cx="90.0" cy="408.1" r="2.2" fill="#f97316" stroke="white" stroke-width="1"/>
  <circle cx="212.0" cy="398.3" r="2.2" fill="#f97316" stroke="white" stroke-width="1"/>
  <circle cx="334.0" cy="361.0" r="2.2" fill="#f97316" stroke="white" stroke-width="1"/>
  <circle cx="456.0" cy="279.7" r="2.2" fill="#f97316" stroke="white" stroke-width="1"/>
  <circle cx="578.0" cy="198.3" r="2.2" fill="#f97316" stroke="white" stroke-width="1"/>
  <circle cx="700.0" cy="175.6" r="2.2" fill="#f97316" stroke="white" stroke-width="1"/>
  <polyline points="90.0,411.7 212.0,405.0 334.0,381.0 456.0,314.6 578.0,217.2 700.0,178.0" fill="none" stroke="#16a34a" stroke-width="2.0" stroke-linecap="round" stroke-linejoin="round"/>
  <circle cx="90.0" cy="411.7" r="2.2" fill="#16a34a" stroke="white" stroke-width="1"/>
  <circle cx="212.0" cy="405.0" r="2.2" fill="#16a34a" stroke="white" stroke-width="1"/>
  <circle cx="334.0" cy="381.0" r="2.2" fill="#16a34a" stroke="white" stroke-width="1"/>
  <circle cx="456.0" cy="314.6" r="2.2" fill="#16a34a" stroke="white" stroke-width="1"/>
  <circle cx="578.0" cy="217.2" r="2.2" fill="#16a34a" stroke="white" stroke-width="1"/>
  <circle cx="700.0" cy="178.0" r="2.2" fill="#16a34a" stroke="white" stroke-width="1"/>
  <polyline points="90.0,413.7 212.0,412.9 334.0,410.1 456.0,399.4 578.0,365.5 700.0,271.5" fill="none" stroke="#2563eb" stroke-width="2.0" stroke-linecap="round" stroke-linejoin="round"/>
  <circle cx="90.0" cy="413.7" r="2.2" fill="#2563eb" stroke="white" stroke-width="1"/>
  <circle cx="212.0" cy="412.9" r="2.2" fill="#2563eb" stroke="white" stroke-width="1"/>
  <circle cx="334.0" cy="410.1" r="2.2" fill="#2563eb" stroke="white" stroke-width="1"/>
  <circle cx="456.0" cy="399.4" r="2.2" fill="#2563eb" stroke="white" stroke-width="1"/>
  <circle cx="578.0" cy="365.5" r="2.2" fill="#2563eb" stroke="white" stroke-width="1"/>
  <circle cx="700.0" cy="271.5" r="2.2" fill="#2563eb" stroke="white" stroke-width="1"/>
  <text x="90.0" y="428.0" text-anchor="middle" fill="#374151" font-size="8.5">16 B</text>
  <text x="212.0" y="428.0" text-anchor="middle" fill="#374151" font-size="8.5">64 B</text>
  <text x="334.0" y="428.0" text-anchor="middle" fill="#374151" font-size="8.5">256 B</text>
  <text x="456.0" y="428.0" text-anchor="middle" fill="#374151" font-size="8.5">1 KiB</text>
  <text x="578.0" y="428.0" text-anchor="middle" fill="#374151" font-size="8.5">4 KiB</text>
  <text x="700.0" y="428.0" text-anchor="middle" fill="#374151" font-size="8.5">16 KiB</text>
  <text x="395.0" y="46" text-anchor="middle" fill="#9ca3af" font-size="10">Linux VM on a 2018 Mac Mini, Intel Core i7-8700B @ 3.20GHz, 6 cores, performance governor, turbo off</text>
  <line x1="110" y1="454" x2="124" y2="454" stroke="#eab308" stroke-width="2.5"/>
  <circle cx="117" cy="454" r="2.5" fill="#eab308"/>
  <text x="130" y="458" fill="#374151" font-size="11" font-weight="500">libzmq v4.3.5</text>
  <line x1="300" y1="454" x2="314" y2="454" stroke="#f97316" stroke-width="2.5"/>
  <circle cx="307" cy="454" r="2.5" fill="#f97316"/>
  <text x="320" y="458" fill="#374151" font-size="11" font-weight="500">omq-tokio (ST)</text>
  <line x1="490" y1="454" x2="504" y2="454" stroke="#dc2626" stroke-width="2.5"/>
  <circle cx="497" cy="454" r="2.5" fill="#dc2626"/>
  <text x="510" y="458" fill="#374151" font-size="11" font-weight="500">omq-tokio (MT)</text>
  <line x1="110" y1="474" x2="124" y2="474" stroke="#2563eb" stroke-width="2.5"/>
  <circle cx="117" cy="474" r="2.5" fill="#2563eb"/>
  <text x="130" y="478" fill="#374151" font-size="11" font-weight="500">zmq.rs v0.6.0 (MT)</text>
  <line x1="300" y1="474" x2="314" y2="474" stroke="#16a34a" stroke-width="2.5"/>
  <circle cx="307" cy="474" r="2.5" fill="#16a34a"/>
  <text x="320" y="478" fill="#374151" font-size="11" font-weight="500">rzmq v0.5.22 (MT)</text>
  <line x1="490" y1="474" x2="504" y2="474" stroke="#15803d" stroke-width="2.5"/>
  <circle cx="497" cy="474" r="2.5" fill="#15803d"/>
  <text x="510" y="478" fill="#374151" font-size="11" font-weight="500">rzmq v0.5.22 (io_uring, MT)</text>
  <text x="395.0" y="492" text-anchor="middle" fill="#9ca3af" font-size="9">ST = single-threaded   MT = multi-threaded</text>
  <line x1="145" y1="514" x2="159" y2="514" stroke="#6b7280" stroke-width="1.6" stroke-dasharray="2,5" opacity="0.85"/>
  <text x="165" y="518" fill="#6b7280" font-size="10">CPU % (left)</text>
  <line x1="290" y1="514" x2="304" y2="514" stroke="#6b7280" stroke-width="2.0"/>
  <circle cx="297" cy="514" r="1.8" fill="#6b7280"/>
  <text x="310" y="518" fill="#6b7280" font-size="10">GB/s (inner right)</text>
  <line x1="455" y1="514" x2="469" y2="514" stroke="#6b7280" stroke-width="2.0" stroke-dasharray="5,3"/>
  <text x="475" y="518" fill="#6b7280" font-size="10">msg/s (outer right)</text>
</svg>
